<?xml version="1.0" encoding="utf-8"?>
<!-- Generator: Adobe Illustrator 27.1.1, SVG Export Plug-In . SVG Version: 6.00 Build 0)  -->
<svg version="1.1" xmlns="http://www.w3.org/2000/svg" xmlns:xlink="http://www.w3.org/1999/xlink" x="0px" y="0px"
	 viewBox="0 0 973.2 298.6" enable-background="new 0 0 973.2 298.6" xml:space="preserve">
<symbol  id="PIPELINE" viewBox="-32 -12.266 64 24.531">
	<linearGradient id="SVGID_1_" gradientUnits="userSpaceOnUse" x1="0" y1="-12.2655" x2="1.502093e-15" y2="12.2655">
		<stop  offset="0" style="stop-color:#1B89B2"/>
		<stop  offset="1" style="stop-color:#51C8E8"/>
	</linearGradient>
	<path fill="url(#SVGID_1_)" d="M26.096,12.266h-51.448v0h0C-29.08,12.265-32,6.878-32,0s2.92-12.265,6.648-12.265h0v0h51.448
		C29.356-12.266,32-6.363,32,0S29.356,12.266,26.096,12.266z"/>
	<g>
		
			<linearGradient id="SVGID_00000097483429201718644750000002571085679127777169_" gradientUnits="userSpaceOnUse" x1="-31.461" y1="-6.1136" x2="-19.2338" y2="6.1136">
			<stop  offset="0" style="stop-color:#B3B4B4"/>
			<stop  offset="1" style="stop-color:#4F4F4F"/>
		</linearGradient>
		<ellipse fill="url(#SVGID_00000097483429201718644750000002571085679127777169_)" cx="-25.347" cy="0" rx="5.575" ry="10.879"/>
	</g>
</symbol>
<g id="Shapes">
	<rect fill="#FFFFFF" width="973.2" height="298.6"/>
	<g>
		<g opacity="0.3">
			<rect x="494.6" y="31.888" fill="#212121" width="470.8" height="259.6"/>
			<rect x="494.6" y="31.888" opacity="0.25" fill="#212121" width="470.8" height="259.6"/>
		</g>
		<g>
			<rect x="493.6" y="30.888" fill="#FFFFFF" width="470.8" height="259.6"/>
			<rect x="493.6" y="30.888" opacity="0.25" fill="#CCCCCB" width="470.8" height="259.6"/>
		</g>
	</g>
	<g>
		<rect x="746.8" y="48.618" fill="#FFFFFF" width="200" height="128.103"/>
		<rect x="746.8" y="48.618" opacity="0.5" fill="#CCCCCB" width="200" height="128.103"/>
		<rect x="746.8" y="48.618" fill="none" stroke="#767676" stroke-width="0.5" width="200" height="128.103"/>
	</g>
	<g>
		<g opacity="0.3">
			<rect x="6.1" y="31.888" fill="#212121" width="470.8" height="259.6"/>
			<rect x="6.1" y="31.888" opacity="0.25" fill="#212121" width="470.8" height="259.6"/>
		</g>
		<g>
			<rect x="5.1" y="30.888" fill="#FFFFFF" width="470.8" height="259.6"/>
			<rect x="5.1" y="30.888" opacity="0.25" fill="#CCCCCB" width="470.8" height="259.6"/>
		</g>
	</g>
	<g id="Wrench_tool_x28_s_x29_">
	</g>
	<g id="user2">
	</g>
	<g id="user2_1_">
	</g>
	<g id="user2_4_">
	</g>
	<g id="user2_3_">
	</g>
	<g id="user2_2_">
	</g>
	<g id="Internet_2">
	</g>
	<g id="Enterprise">
	</g>
	<g id="Tunnel__x28_stackable_x29_">
	</g>
	<g id="New_Symbol">
	</g>
	<g id="New_Symbol_1">
	</g>
	<g id="Files">
	</g>
	<g id="BlobBlock">
	</g>
	<g id="E_x5F_Enterprise">
	</g>
	<g id="E_x5F_AD_FS">
	</g>
	<g id="C_x5F_Azure_Active_Directory">
	</g>
	<g>
		<rect x="22.7" y="48.488" fill="#FFFFFF" width="50" height="50"/>
		<rect x="22.7" y="48.488" opacity="0.3" fill="#6BB9F2" width="50" height="50"/>
		<rect x="22.7" y="48.488" fill="none" stroke="#1B93EB" stroke-width="0.5" width="50" height="50"/>
	</g>
	<g>
		<rect x="72.7" y="48.488" fill="#FFFFFF" width="50" height="50"/>
		<rect x="72.7" y="48.488" opacity="0.3" fill="#6BB9F2" width="50" height="50"/>
		<rect x="72.7" y="48.488" fill="none" stroke="#1B93EB" stroke-width="0.5" width="50" height="50"/>
	</g>
	<g>
		<rect x="122.7" y="48.488" fill="#FFFFFF" width="50" height="50"/>
		<rect x="122.7" y="48.488" opacity="0.3" fill="#6BB9F2" width="50" height="50"/>
		<rect x="122.7" y="48.488" fill="none" stroke="#1B93EB" stroke-width="0.5" width="50" height="50"/>
	</g>
	<g>
		<rect x="172.7" y="48.488" fill="#FFFFFF" width="50" height="50"/>
		<rect x="172.7" y="48.488" opacity="0.3" fill="#6BB9F2" width="50" height="50"/>
		<rect x="172.7" y="48.488" fill="none" stroke="#1B93EB" stroke-width="0.5" width="50" height="50"/>
	</g>
	<g>
		<rect x="22.7" y="98.488" fill="#FFFFFF" width="50" height="50"/>
		<rect x="22.7" y="98.488" opacity="0.3" fill="#6BB9F2" width="50" height="50"/>
		<rect x="22.7" y="98.488" fill="none" stroke="#1B93EB" stroke-width="0.5" width="50" height="50"/>
	</g>
	<g>
		<rect x="72.7" y="98.488" fill="#FFFFFF" width="50" height="50"/>
		<rect x="72.7" y="98.488" opacity="0.3" fill="#6BB9F2" width="50" height="50"/>
		<rect x="72.7" y="98.488" fill="none" stroke="#1B93EB" stroke-width="0.5" width="50" height="50"/>
	</g>
	<g>
		<rect x="122.7" y="98.488" fill="#FFFFFF" width="50" height="50"/>
		<rect x="122.7" y="98.488" opacity="0.3" fill="#6BB9F2" width="50" height="50"/>
		<rect x="122.7" y="98.488" fill="none" stroke="#1B93EB" stroke-width="0.5" width="50" height="50"/>
	</g>
	<g>
		<rect x="172.7" y="98.488" fill="#FFFFFF" width="50" height="50"/>
		<rect x="172.7" y="98.488" fill="#198AB3" width="50" height="50"/>
		<rect x="172.7" y="98.488" fill="none" stroke="#1B93EB" stroke-width="0.5" width="50" height="50"/>
	</g>
	<g>
		<rect x="22.7" y="148.488" fill="#FFFFFF" width="50" height="50"/>
		<rect x="22.7" y="148.488" opacity="0.3" fill="#6BB9F2" width="50" height="50"/>
		<rect x="22.7" y="148.488" fill="none" stroke="#1B93EB" stroke-width="0.5" width="50" height="50"/>
	</g>
	<g>
		<rect x="72.7" y="148.488" fill="#FFFFFF" width="50" height="50"/>
		<rect x="72.7" y="148.488" opacity="0.3" fill="#6BB9F2" width="50" height="50"/>
		<rect x="72.7" y="148.488" fill="none" stroke="#1B93EB" stroke-width="0.5" width="50" height="50"/>
	</g>
	<g>
		<rect x="122.7" y="148.488" fill="#FFFFFF" width="50" height="50"/>
		<rect x="122.7" y="148.488" opacity="0.3" fill="#6BB9F2" width="50" height="50"/>
		<rect x="122.7" y="148.488" fill="none" stroke="#1B93EB" stroke-width="0.5" width="50" height="50"/>
	</g>
	<g>
		<rect x="172.7" y="148.488" fill="#FFFFFF" width="50" height="50"/>
		<rect x="172.7" y="148.488" opacity="0.9" fill="#B4EC36" width="50" height="50"/>
		<rect x="172.7" y="148.488" fill="none" stroke="#1B93EB" stroke-width="0.5" width="50" height="50"/>
	</g>
	<g>
		<rect x="746.8" y="76.721" fill="#FFFFFF" width="50" height="50"/>
		<rect x="746.8" y="76.721" fill="#198AB3" width="50" height="50"/>
		<rect x="746.8" y="76.721" fill="none" stroke="#1B93EB" stroke-width="0.5" width="50" height="50"/>
	</g>
	<g>
		<rect x="746.8" y="126.721" fill="#FFFFFF" width="50" height="50"/>
		<rect x="746.8" y="126.721" opacity="0.9" fill="#B4EC36" width="50" height="50"/>
		<rect x="746.8" y="126.721" fill="none" stroke="#1B93EB" stroke-width="0.5" width="50" height="50"/>
	</g>
	<g>
		<rect x="896.8" y="126.721" fill="#FFFFFF" width="50" height="50"/>
		<rect x="896.8" y="126.721" opacity="0.6" fill="#FF7381" width="50" height="50"/>
		<rect x="896.8" y="126.721" fill="none" stroke="#110C00" stroke-width="0.5" width="50" height="50"/>
	</g>
	<g>
		<rect x="22.7" y="198.488" fill="#FFFFFF" width="50" height="50"/>
		<rect x="22.7" y="198.488" opacity="0.3" fill="#6BB9F2" width="50" height="50"/>
		<rect x="22.7" y="198.488" fill="none" stroke="#1B93EB" stroke-width="0.5" width="50" height="50"/>
	</g>
	<g>
		<rect x="72.7" y="198.488" fill="#FFFFFF" width="50" height="50"/>
		<rect x="72.7" y="198.488" opacity="0.3" fill="#6BB9F2" width="50" height="50"/>
		<rect x="72.7" y="198.488" fill="none" stroke="#1B93EB" stroke-width="0.5" width="50" height="50"/>
	</g>
	<g>
		<rect x="122.7" y="198.488" fill="#FFFFFF" width="50" height="50"/>
		<rect x="122.7" y="198.488" opacity="0.3" fill="#6BB9F2" width="50" height="50"/>
		<rect x="122.7" y="198.488" fill="none" stroke="#1B93EB" stroke-width="0.5" width="50" height="50"/>
	</g>
	<g>
		<rect x="172.7" y="198.488" fill="#FFFFFF" width="50" height="50"/>
		<rect x="172.7" y="198.488" opacity="0.3" fill="#6BB9F2" width="50" height="50"/>
		<rect x="172.7" y="198.488" fill="none" stroke="#1B93EB" stroke-width="0.5" width="50" height="50"/>
	</g>
	<g>
		<rect x="511.2" y="48.618" fill="#FFFFFF" width="50" height="50"/>
		<rect x="511.2" y="48.618" opacity="0.3" fill="#6BB9F2" width="50" height="50"/>
		<rect x="511.2" y="48.618" fill="none" stroke="#1B93EB" stroke-width="0.5" width="50" height="50"/>
	</g>
	<g>
		<rect x="561.2" y="48.618" fill="#FFFFFF" width="50" height="50"/>
		<rect x="561.2" y="48.618" opacity="0.3" fill="#6BB9F2" width="50" height="50"/>
		<rect x="561.2" y="48.618" fill="none" stroke="#1B93EB" stroke-width="0.5" width="50" height="50"/>
	</g>
	<g>
		<rect x="611.2" y="48.618" fill="#FFFFFF" width="50" height="50"/>
		<rect x="611.2" y="48.618" opacity="0.3" fill="#6BB9F2" width="50" height="50"/>
		<rect x="611.2" y="48.618" fill="none" stroke="#1B93EB" stroke-width="0.5" width="50" height="50"/>
	</g>
	<g>
		<rect x="661.2" y="48.618" fill="#FFFFFF" width="50" height="50"/>
		<rect x="661.2" y="48.618" opacity="0.3" fill="#6BB9F2" width="50" height="50"/>
		<rect x="661.2" y="48.618" fill="none" stroke="#1B93EB" stroke-width="0.5" width="50" height="50"/>
	</g>
	<g>
		<rect x="511.2" y="98.618" fill="#FFFFFF" width="50" height="50"/>
		<rect x="511.2" y="98.618" opacity="0.3" fill="#6BB9F2" width="50" height="50"/>
		<rect x="511.2" y="98.618" fill="none" stroke="#1B93EB" stroke-width="0.5" width="50" height="50"/>
	</g>
	<g>
		<rect x="561.2" y="98.618" fill="#FFFFFF" width="50" height="50"/>
		<rect x="561.2" y="98.618" opacity="0.3" fill="#6BB9F2" width="50" height="50"/>
		<rect x="561.2" y="98.618" fill="none" stroke="#1B93EB" stroke-width="0.5" width="50" height="50"/>
	</g>
	<g>
		<rect x="611.2" y="98.618" fill="#FFFFFF" width="50" height="50"/>
		<rect x="611.2" y="98.618" opacity="0.3" fill="#6BB9F2" width="50" height="50"/>
		<rect x="611.2" y="98.618" fill="none" stroke="#1B93EB" stroke-width="0.5" width="50" height="50"/>
	</g>
	<g>
		<rect x="661.2" y="98.618" fill="#FFFFFF" width="50" height="50"/>
		<rect x="661.2" y="98.618" fill="#198AB3" width="50" height="50"/>
		<rect x="661.2" y="98.618" fill="none" stroke="#1B93EB" stroke-width="0.5" width="50" height="50"/>
	</g>
	<g>
		<rect x="511.2" y="148.618" fill="#FFFFFF" width="50" height="50"/>
		<rect x="511.2" y="148.618" opacity="0.3" fill="#6BB9F2" width="50" height="50"/>
		<rect x="511.2" y="148.618" fill="none" stroke="#1B93EB" stroke-width="0.5" width="50" height="50"/>
	</g>
	<g>
		<rect x="561.2" y="148.618" fill="#FFFFFF" width="50" height="50"/>
		<rect x="561.2" y="148.618" opacity="0.3" fill="#6BB9F2" width="50" height="50"/>
		<rect x="561.2" y="148.618" fill="none" stroke="#1B93EB" stroke-width="0.5" width="50" height="50"/>
	</g>
	<g>
		<rect x="611.2" y="148.618" fill="#FFFFFF" width="50" height="50"/>
		<rect x="611.2" y="148.618" opacity="0.3" fill="#6BB9F2" width="50" height="50"/>
		<rect x="611.2" y="148.618" fill="none" stroke="#1B93EB" stroke-width="0.5" width="50" height="50"/>
	</g>
	<g>
		<rect x="661.2" y="148.618" fill="#FFFFFF" width="50" height="50"/>
		<rect x="661.2" y="148.618" opacity="0.3" fill="#6BB9F2" width="50" height="50"/>
		<rect x="661.2" y="148.618" fill="none" stroke="#1B93EB" stroke-width="0.5" width="50" height="50"/>
	</g>
	<g>
		<rect x="511.2" y="198.618" fill="#FFFFFF" width="50" height="50"/>
		<rect x="511.2" y="198.618" opacity="0.3" fill="#6BB9F2" width="50" height="50"/>
		<rect x="511.2" y="198.618" fill="none" stroke="#1B93EB" stroke-width="0.5" width="50" height="50"/>
	</g>
	<g>
		<rect x="561.2" y="198.618" fill="#FFFFFF" width="50" height="50"/>
		<rect x="561.2" y="198.618" opacity="0.3" fill="#6BB9F2" width="50" height="50"/>
		<rect x="561.2" y="198.618" fill="none" stroke="#1B93EB" stroke-width="0.5" width="50" height="50"/>
	</g>
	<g>
		<rect x="611.2" y="198.618" fill="#FFFFFF" width="50" height="50"/>
		<rect x="611.2" y="198.618" opacity="0.3" fill="#6BB9F2" width="50" height="50"/>
		<rect x="611.2" y="198.618" fill="none" stroke="#1B93EB" stroke-width="0.5" width="50" height="50"/>
	</g>
	<g>
		<rect x="661.2" y="198.618" fill="#FFFFFF" width="50" height="50"/>
		<rect x="661.2" y="198.618" opacity="0.3" fill="#6BB9F2" width="50" height="50"/>
		<rect x="661.2" y="198.618" fill="none" stroke="#1B93EB" stroke-width="0.5" width="50" height="50"/>
	</g>
	<g>
		<g>
			<path fill="none" stroke="#767676" d="M793.372,222.618c0.058-0.332,0.136-0.656,0.232-0.97"/>
			<path fill="none" stroke="#767676" stroke-dasharray="1.9902,2.9853" d="M794.96,219.004c3.649-4.872,12.452-6.963,19.924-7.65
				c20.285-1.865,40.983-1.386,60.813-5.384c18.884-3.807,37.624-12.694,45.989-27.05"/>
			<path fill="none" stroke="#767676" d="M922.411,177.612c0.155-0.295,0.306-0.592,0.453-0.891"/>
		</g>
	</g>
	<path fill="none" stroke="#767676" stroke-dasharray="2,3" d="M848.851,221.151c-9.05-41.108-27.57-80.101-53.712-113.092"/>
	<path fill="none" stroke="#767676" stroke-dasharray="2,3" d="M337.888,223.048c-12.837-36.189-77.5-90.876-115.188-99.56"/>
	<path fill="none" stroke="#767676" stroke-dasharray="2,3" d="M316.203,223.048c-9.184-18.095-65.692-56.546-93.503-49.78"/>
	<path fill="none" stroke="#E62323" stroke-dasharray="2,3" d="M847.216,222.618c-17.053-13.223-37.501-21.056-58.314-22.34
		c-9.326-0.575-18.748,0.129-27.964-1.551c-9.216-1.68-18.547-6.197-23.697-14.791c-3.976-6.635-2.914-14.84-3.676-22.748
		c-0.762-7.908-1.428-16.084-4.847-23.086c-3.419-7.002-10.421-12.566-17.518-11.164"/>
	<path fill="none" stroke="#767676" stroke-dasharray="2,3" d="M819.606,221.151c1.688-12.892-7.512-26.306-20.247-29.521
		c-4.959-1.252-10.286-1.126-14.987-3.127c-4.702-2.001-8.635-7.404-6.483-11.997"/>
</g>
<g id="Text">
	<g>
		<path fill="#2F2F2F" d="M86.487,271.385v-9.803h3.568c1.094,0,1.935,0.201,2.522,0.602c0.588,0.401,0.882,0.967,0.882,1.695
			c0,0.529-0.179,0.991-0.537,1.388c-0.357,0.396-0.814,0.673-1.37,0.827v0.027c0.697,0.087,1.255,0.345,1.671,0.772
			c0.418,0.429,0.626,0.95,0.626,1.565c0,0.898-0.321,1.61-0.964,2.137s-1.52,0.789-2.632,0.789H86.487z M88.695,263.209v2.324
			h0.971c0.456,0,0.814-0.11,1.077-0.331c0.262-0.222,0.393-0.525,0.393-0.913c0-0.72-0.538-1.08-1.613-1.08H88.695z
			 M88.695,267.174v2.584h1.196c0.511,0,0.91-0.118,1.199-0.355c0.29-0.236,0.435-0.561,0.435-0.971
			c0-0.392-0.143-0.699-0.427-0.923c-0.285-0.223-0.683-0.335-1.193-0.335H88.695z"/>
		<path fill="#2F2F2F" d="M101.928,271.385h-2.153v-1.066H99.74c-0.533,0.825-1.246,1.237-2.14,1.237
			c-1.622,0-2.434-0.981-2.434-2.946v-4.225h2.153v4.033c0,0.989,0.392,1.483,1.176,1.483c0.388,0,0.697-0.136,0.93-0.406
			c0.232-0.271,0.349-0.64,0.349-1.104v-4.006h2.153V271.385z"/>
		<path fill="#2F2F2F" d="M108.255,262.676c-0.278-0.109-0.545-0.164-0.8-0.164c-0.692,0-1.039,0.376-1.039,1.128v0.745h1.6v1.593
			h-1.6v5.407h-2.153v-5.407h-1.176v-1.593h1.176v-0.868c0-0.797,0.26-1.439,0.779-1.928c0.52-0.487,1.226-0.731,2.119-0.731
			c0.438,0,0.802,0.046,1.094,0.137V262.676z"/>
		<path fill="#2F2F2F" d="M113.893,262.676c-0.278-0.109-0.545-0.164-0.8-0.164c-0.692,0-1.039,0.376-1.039,1.128v0.745h1.6v1.593
			h-1.6v5.407H109.9v-5.407h-1.176v-1.593h1.176v-0.868c0-0.797,0.26-1.439,0.779-1.928c0.52-0.487,1.226-0.731,2.119-0.731
			c0.438,0,0.802,0.046,1.094,0.137V262.676z"/>
		<path fill="#2F2F2F" d="M120.981,268.5h-4.566c0.073,1.017,0.713,1.524,1.921,1.524c0.771,0,1.447-0.182,2.03-0.547v1.559
			c-0.647,0.347-1.488,0.52-2.522,0.52c-1.13,0-2.008-0.313-2.632-0.939c-0.624-0.627-0.937-1.501-0.937-2.622
			c0-1.162,0.337-2.082,1.012-2.762c0.675-0.679,1.504-1.019,2.488-1.019c1.021,0,1.811,0.304,2.369,0.909
			c0.558,0.606,0.837,1.429,0.837,2.468V268.5z M118.979,267.174c0-1.002-0.405-1.504-1.217-1.504c-0.347,0-0.646,0.144-0.898,0.431
			c-0.254,0.287-0.407,0.646-0.462,1.073H118.979z"/>
		<path fill="#2F2F2F" d="M126.913,266.333c-0.26-0.141-0.562-0.212-0.909-0.212c-0.47,0-0.836,0.172-1.101,0.517
			c-0.265,0.344-0.396,0.812-0.396,1.404v3.343h-2.16v-7h2.16v1.299h0.027c0.342-0.947,0.957-1.422,1.846-1.422
			c0.228,0,0.405,0.027,0.533,0.082V266.333z"/>
		<path fill="#2F2F2F" d="M133.968,270.571h-0.027v4.033h-2.16v-10.22h2.16v1.053h0.027c0.533-0.815,1.283-1.224,2.249-1.224
			c0.907,0,1.607,0.312,2.102,0.934c0.495,0.622,0.742,1.469,0.742,2.539c0,1.167-0.288,2.104-0.865,2.81
			c-0.576,0.707-1.343,1.06-2.3,1.06C135.053,271.556,134.41,271.228,133.968,270.571z M133.906,267.7v0.561
			c0,0.483,0.128,0.878,0.383,1.183c0.255,0.306,0.59,0.458,1.005,0.458c0.492,0,0.874-0.19,1.146-0.57
			c0.271-0.381,0.406-0.92,0.406-1.617c0-1.23-0.479-1.846-1.436-1.846c-0.442,0-0.803,0.168-1.084,0.503
			C134.047,266.706,133.906,267.149,133.906,267.7z"/>
		<path fill="#2F2F2F" d="M143.844,271.556c-1.167,0-2.084-0.327-2.751-0.98c-0.668-0.654-1.002-1.542-1.002-2.663
			c0-1.157,0.347-2.063,1.039-2.717c0.692-0.654,1.629-0.981,2.81-0.981c1.162,0,2.073,0.327,2.734,0.981
			c0.661,0.653,0.991,1.519,0.991,2.594c0,1.162-0.341,2.081-1.021,2.755C145.962,271.219,145.028,271.556,143.844,271.556z
			 M143.898,265.868c-0.511,0-0.907,0.176-1.189,0.526c-0.282,0.352-0.424,0.848-0.424,1.49c0,1.345,0.542,2.017,1.627,2.017
			c1.034,0,1.552-0.69,1.552-2.071C145.464,266.522,144.942,265.868,143.898,265.868z"/>
		<path fill="#2F2F2F" d="M152.393,271.556c-1.167,0-2.084-0.327-2.751-0.98c-0.668-0.654-1.002-1.542-1.002-2.663
			c0-1.157,0.347-2.063,1.039-2.717c0.692-0.654,1.629-0.981,2.81-0.981c1.162,0,2.073,0.327,2.734,0.981
			c0.661,0.653,0.991,1.519,0.991,2.594c0,1.162-0.341,2.081-1.021,2.755C154.511,271.219,153.577,271.556,152.393,271.556z
			 M152.447,265.868c-0.511,0-0.907,0.176-1.189,0.526c-0.282,0.352-0.424,0.848-0.424,1.49c0,1.345,0.542,2.017,1.627,2.017
			c1.034,0,1.552-0.69,1.552-2.071C154.013,266.522,153.491,265.868,152.447,265.868z"/>
		<path fill="#2F2F2F" d="M159.766,271.385h-2.16v-10.363h2.16V271.385z"/>
	</g>
	<g>
		<path fill="#2F2F2F" d="M321.889,271.385v-9.803h3.568c1.094,0,1.935,0.201,2.522,0.602c0.588,0.401,0.882,0.967,0.882,1.695
			c0,0.529-0.179,0.991-0.537,1.388c-0.357,0.396-0.814,0.673-1.37,0.827v0.027c0.697,0.087,1.255,0.345,1.671,0.772
			c0.418,0.429,0.626,0.95,0.626,1.565c0,0.898-0.321,1.61-0.964,2.137s-1.52,0.789-2.632,0.789H321.889z M324.097,263.209v2.324
			h0.971c0.456,0,0.814-0.11,1.077-0.331c0.262-0.222,0.393-0.525,0.393-0.913c0-0.72-0.538-1.08-1.613-1.08H324.097z
			 M324.097,267.174v2.584h1.196c0.511,0,0.91-0.118,1.199-0.355c0.29-0.236,0.435-0.561,0.435-0.971
			c0-0.392-0.143-0.699-0.427-0.923c-0.285-0.223-0.683-0.335-1.193-0.335H324.097z"/>
		<path fill="#2F2F2F" d="M338.774,267.14c0,2.944-1.372,4.416-4.115,4.416c-2.661,0-3.992-1.438-3.992-4.313v-5.66h2.215v5.688
			c0,1.586,0.62,2.379,1.859,2.379c1.217,0,1.825-0.766,1.825-2.297v-5.77h2.208V267.14z"/>
		<path fill="#2F2F2F" d="M346.475,263.38h-3.459v2.406h3.179v1.791h-3.179v3.808h-2.208v-9.803h5.667V263.38z"/>
		<path fill="#2F2F2F" d="M357.562,271.385h-2.044v-1.005h-0.027c-0.47,0.784-1.164,1.176-2.085,1.176
			c-0.679,0-1.214-0.192-1.603-0.577c-0.391-0.386-0.585-0.899-0.585-1.542c0-1.357,0.805-2.142,2.413-2.352l1.9-0.253
			c0-0.766-0.415-1.148-1.244-1.148c-0.834,0-1.627,0.249-2.379,0.745v-1.627c0.301-0.154,0.712-0.291,1.234-0.41
			c0.521-0.118,0.996-0.178,1.425-0.178c1.996,0,2.994,0.996,2.994,2.987V271.385z M355.532,268.541v-0.472l-1.271,0.164
			c-0.702,0.092-1.053,0.408-1.053,0.95c0,0.246,0.086,0.448,0.256,0.605c0.172,0.157,0.402,0.235,0.694,0.235
			c0.405,0,0.736-0.14,0.991-0.42S355.532,268.97,355.532,268.541z"/>
		<path fill="#2F2F2F" d="M363.825,266.333c-0.26-0.141-0.562-0.212-0.909-0.212c-0.47,0-0.836,0.172-1.101,0.517
			c-0.265,0.344-0.396,0.812-0.396,1.404v3.343h-2.16v-7h2.16v1.299h0.027c0.342-0.947,0.957-1.422,1.846-1.422
			c0.228,0,0.405,0.027,0.533,0.082V266.333z"/>
		<path fill="#2F2F2F" d="M369.384,266.333c-0.26-0.141-0.562-0.212-0.909-0.212c-0.47,0-0.836,0.172-1.101,0.517
			c-0.265,0.344-0.396,0.812-0.396,1.404v3.343h-2.16v-7h2.16v1.299h0.027c0.342-0.947,0.957-1.422,1.846-1.422
			c0.228,0,0.405,0.027,0.533,0.082V266.333z"/>
		<path fill="#2F2F2F" d="M376.108,271.385h-2.044v-1.005h-0.027c-0.47,0.784-1.164,1.176-2.085,1.176
			c-0.679,0-1.214-0.192-1.603-0.577c-0.391-0.386-0.585-0.899-0.585-1.542c0-1.357,0.805-2.142,2.413-2.352l1.9-0.253
			c0-0.766-0.415-1.148-1.244-1.148c-0.834,0-1.627,0.249-2.379,0.745v-1.627c0.301-0.154,0.712-0.291,1.234-0.41
			c0.521-0.118,0.996-0.178,1.425-0.178c1.996,0,2.994,0.996,2.994,2.987V271.385z M374.078,268.541v-0.472l-1.271,0.164
			c-0.702,0.092-1.053,0.408-1.053,0.95c0,0.246,0.086,0.448,0.256,0.605c0.172,0.157,0.402,0.235,0.694,0.235
			c0.405,0,0.736-0.14,0.991-0.42S374.078,268.97,374.078,268.541z"/>
		<path fill="#2F2F2F" d="M384.235,264.385l-2.844,7.561c-0.684,1.818-1.714,2.728-3.09,2.728c-0.524,0-0.955-0.059-1.292-0.178
			v-1.723c0.287,0.169,0.6,0.253,0.937,0.253c0.556,0,0.943-0.262,1.162-0.786l0.369-0.868l-2.844-6.986h2.393l1.306,4.259
			c0.082,0.265,0.146,0.577,0.191,0.937h0.027c0.041-0.264,0.116-0.571,0.226-0.923l1.319-4.272H384.235z"/>
	</g>
	<g>
		<path fill="#2F2F2F" d="M339.368,166.502V156.7h3.473c3.481,0,5.223,1.593,5.223,4.778c0,1.527-0.475,2.746-1.426,3.657
			c-0.949,0.912-2.216,1.367-3.797,1.367H339.368z M341.576,158.498v6.214h1.094c0.957,0,1.708-0.287,2.253-0.861
			c0.544-0.574,0.816-1.356,0.816-2.345c0-0.934-0.27-1.669-0.811-2.205c-0.539-0.536-1.297-0.803-2.272-0.803H341.576z"/>
		<path fill="#2F2F2F" d="M350.562,158.395c-0.364,0-0.663-0.108-0.896-0.325s-0.349-0.482-0.349-0.796
			c0-0.324,0.116-0.588,0.349-0.793s0.531-0.308,0.896-0.308c0.369,0,0.669,0.103,0.899,0.308c0.229,0.205,0.345,0.469,0.345,0.793
			c0,0.328-0.115,0.597-0.345,0.807C351.23,158.29,350.931,158.395,350.562,158.395z M351.628,166.502h-2.16v-7h2.16V166.502z"/>
		<path fill="#2F2F2F" d="M353.066,166.318v-1.75c0.355,0.214,0.71,0.374,1.062,0.479c0.354,0.105,0.688,0.157,1.002,0.157
			c0.383,0,0.685-0.052,0.906-0.157c0.221-0.105,0.331-0.264,0.331-0.479c0-0.137-0.05-0.25-0.15-0.342s-0.229-0.171-0.386-0.239
			c-0.158-0.068-0.33-0.13-0.517-0.185s-0.367-0.116-0.54-0.185c-0.278-0.105-0.523-0.218-0.734-0.338
			c-0.213-0.121-0.391-0.261-0.533-0.42c-0.145-0.16-0.254-0.344-0.328-0.554c-0.076-0.209-0.113-0.458-0.113-0.745
			c0-0.392,0.086-0.729,0.256-1.012c0.172-0.283,0.399-0.514,0.684-0.694c0.285-0.18,0.611-0.312,0.979-0.396
			c0.366-0.084,0.748-0.126,1.145-0.126c0.31,0,0.624,0.024,0.943,0.072s0.634,0.117,0.943,0.208v1.668
			c-0.273-0.16-0.566-0.279-0.879-0.359c-0.312-0.08-0.618-0.12-0.919-0.12c-0.142,0-0.274,0.013-0.399,0.038
			c-0.126,0.025-0.236,0.062-0.332,0.109s-0.171,0.109-0.226,0.185s-0.082,0.161-0.082,0.256c0,0.127,0.041,0.237,0.123,0.328
			s0.189,0.17,0.321,0.236s0.279,0.125,0.441,0.178c0.161,0.052,0.322,0.106,0.481,0.161c0.287,0.1,0.547,0.209,0.779,0.328
			s0.432,0.257,0.599,0.417c0.166,0.16,0.293,0.346,0.383,0.561c0.088,0.214,0.133,0.469,0.133,0.766c0,0.415-0.09,0.769-0.27,1.063
			c-0.181,0.294-0.42,0.533-0.719,0.718c-0.298,0.185-0.643,0.319-1.031,0.403c-0.391,0.084-0.795,0.126-1.214,0.126
			C354.436,166.673,353.723,166.555,353.066,166.318z"/>
		<path fill="#2F2F2F" d="M366.756,166.502h-2.591l-2.235-3.473h-0.027v3.473h-2.16v-10.363h2.16v6.597h0.027l2.085-3.233h2.563
			l-2.509,3.288L366.756,166.502z"/>
	</g>
	<g>
		<path fill="#FFFFFF" d="M196.889,129.102h7.125v3.07h-11.18v-1.266c0-0.859,0.145-1.631,0.434-2.314s0.652-1.297,1.09-1.84
			s0.916-1.023,1.436-1.441s1.014-0.795,1.482-1.131c0.492-0.352,0.924-0.688,1.295-1.008s0.684-0.639,0.938-0.955
			s0.443-0.637,0.568-0.961s0.188-0.67,0.188-1.037c0-0.719-0.203-1.262-0.609-1.629s-1.027-0.551-1.863-0.551
			c-1.445,0-2.828,0.574-4.148,1.723v-3.258c1.461-0.945,3.109-1.418,4.945-1.418c0.852,0,1.615,0.111,2.291,0.334
			s1.248,0.541,1.717,0.955s0.826,0.916,1.072,1.506s0.369,1.248,0.369,1.975c0,0.773-0.119,1.461-0.357,2.062
			s-0.555,1.148-0.949,1.641s-0.85,0.943-1.365,1.354s-1.051,0.807-1.605,1.189c-0.375,0.266-0.736,0.529-1.084,0.791
			s-0.654,0.52-0.92,0.773s-0.477,0.502-0.633,0.744S196.889,128.883,196.889,129.102z"/>
	</g>
	<g>
		<path fill="#3C3C41" d="M193.232,181.105v-3.223c1.125,0.82,2.438,1.23,3.938,1.23c0.945,0,1.682-0.203,2.209-0.609
			s0.791-0.973,0.791-1.699c0-0.75-0.326-1.328-0.979-1.734s-1.549-0.609-2.689-0.609h-1.559v-2.836h1.441
			c2.188,0,3.281-0.727,3.281-2.18c0-1.367-0.84-2.051-2.52-2.051c-1.125,0-2.219,0.363-3.281,1.09v-3.023
			c1.18-0.594,2.555-0.891,4.125-0.891c1.719,0,3.057,0.387,4.014,1.16s1.436,1.777,1.436,3.012c0,2.195-1.113,3.57-3.34,4.125
			v0.059c1.188,0.148,2.125,0.58,2.812,1.295s1.031,1.592,1.031,2.631c0,1.57-0.574,2.812-1.723,3.727s-2.734,1.371-4.758,1.371
			C195.729,181.949,194.318,181.668,193.232,181.105z"/>
	</g>
	<g>
		<path fill="#FFFFFF" d="M770.988,107.335h7.125v3.07h-11.18v-1.266c0-0.859,0.145-1.631,0.434-2.314s0.652-1.297,1.09-1.84
			s0.916-1.023,1.436-1.441s1.014-0.795,1.482-1.131c0.492-0.352,0.924-0.688,1.295-1.008s0.684-0.639,0.938-0.955
			s0.443-0.637,0.568-0.961s0.188-0.67,0.188-1.037c0-0.719-0.203-1.262-0.609-1.629s-1.027-0.551-1.863-0.551
			c-1.445,0-2.828,0.574-4.148,1.723v-3.258c1.461-0.945,3.109-1.418,4.945-1.418c0.852,0,1.615,0.111,2.291,0.334
			s1.248,0.541,1.717,0.955s0.826,0.916,1.072,1.506s0.369,1.248,0.369,1.975c0,0.773-0.119,1.461-0.357,2.062
			s-0.555,1.148-0.949,1.641s-0.85,0.943-1.365,1.354s-1.051,0.807-1.605,1.189c-0.375,0.266-0.736,0.529-1.084,0.791
			s-0.654,0.52-0.92,0.773s-0.477,0.502-0.633,0.744S770.988,107.117,770.988,107.335z"/>
	</g>
	<g>
		<path fill="#3C3C41" d="M767.332,159.338v-3.223c1.125,0.82,2.438,1.23,3.938,1.23c0.945,0,1.682-0.203,2.209-0.609
			s0.791-0.973,0.791-1.699c0-0.75-0.326-1.328-0.979-1.734s-1.549-0.609-2.689-0.609h-1.559v-2.836h1.441
			c2.188,0,3.281-0.727,3.281-2.18c0-1.367-0.84-2.051-2.52-2.051c-1.125,0-2.219,0.363-3.281,1.09v-3.023
			c1.18-0.594,2.555-0.891,4.125-0.891c1.719,0,3.057,0.387,4.014,1.16s1.436,1.777,1.436,3.012c0,2.195-1.113,3.57-3.34,4.125
			v0.059c1.188,0.148,2.125,0.58,2.812,1.295s1.031,1.592,1.031,2.631c0,1.57-0.574,2.812-1.723,3.727s-2.734,1.371-4.758,1.371
			C769.828,160.182,768.418,159.901,767.332,159.338z"/>
	</g>
	<g>
		<path fill="#3C3C41" d="M925.711,142.709v17.18h-3.691v-13.008c-0.203,0.18-0.443,0.35-0.721,0.51s-0.572,0.305-0.885,0.434
			s-0.637,0.238-0.973,0.328s-0.668,0.154-0.996,0.193v-3.117c0.961-0.281,1.867-0.641,2.719-1.078s1.621-0.918,2.309-1.441H925.711
			z"/>
	</g>
	<g>
		<g>
			<rect x="300.502" y="222.488" fill="#FFFFFF" width="26" height="26"/>
			<rect x="300.502" y="222.488" opacity="0.9" fill="#B4EC36" width="26" height="26"/>
			<rect x="300.502" y="222.488" fill="none" stroke="#1B93EB" stroke-width="0.5" width="26" height="26"/>
		</g>
		<g>
			<path fill="#3C3C41" d="M309.354,241.243v-2.417c0.844,0.615,1.828,0.923,2.953,0.923c0.709,0,1.261-0.152,1.657-0.457
				c0.395-0.305,0.593-0.729,0.593-1.274c0-0.562-0.245-0.996-0.733-1.301c-0.49-0.305-1.162-0.457-2.018-0.457h-1.169v-2.127h1.081
				c1.641,0,2.461-0.545,2.461-1.635c0-1.025-0.63-1.538-1.89-1.538c-0.844,0-1.664,0.272-2.461,0.817v-2.268
				c0.885-0.445,1.916-0.668,3.094-0.668c1.289,0,2.292,0.29,3.011,0.87c0.717,0.58,1.076,1.333,1.076,2.259
				c0,1.646-0.835,2.678-2.505,3.094v0.044c0.891,0.111,1.594,0.435,2.109,0.971s0.773,1.194,0.773,1.974
				c0,1.178-0.431,2.109-1.292,2.795s-2.051,1.028-3.568,1.028C311.226,241.876,310.168,241.665,309.354,241.243z"/>
		</g>
		<g>
			<rect x="326.502" y="222.488" fill="#FFFFFF" width="26" height="26"/>
			<rect x="326.502" y="222.488" fill="#198AB3" width="26" height="26"/>
			<rect x="326.502" y="222.488" fill="none" stroke="#1B93EB" stroke-width="0.5" width="26" height="26"/>
		</g>
		<g>
			<path fill="#FFFFFF" d="M338.096,239.354h5.344v2.303h-8.385v-0.949c0-0.645,0.108-1.224,0.325-1.736s0.489-0.973,0.817-1.38
				s0.687-0.768,1.077-1.081c0.389-0.313,0.76-0.596,1.111-0.848c0.369-0.264,0.692-0.516,0.971-0.756s0.513-0.479,0.703-0.717
				s0.333-0.478,0.427-0.721s0.141-0.502,0.141-0.777c0-0.539-0.152-0.946-0.457-1.222s-0.771-0.413-1.397-0.413
				c-1.084,0-2.121,0.431-3.111,1.292v-2.443c1.096-0.709,2.332-1.063,3.709-1.063c0.639,0,1.211,0.083,1.719,0.25
				c0.506,0.167,0.936,0.406,1.287,0.717s0.619,0.687,0.805,1.129c0.184,0.442,0.276,0.937,0.276,1.481
				c0,0.58-0.09,1.096-0.269,1.547s-0.416,0.861-0.711,1.23c-0.297,0.369-0.638,0.707-1.024,1.015s-0.788,0.605-1.204,0.893
				c-0.281,0.199-0.553,0.396-0.812,0.593c-0.262,0.196-0.491,0.39-0.69,0.58s-0.357,0.377-0.475,0.559
				S338.096,239.189,338.096,239.354z"/>
		</g>
		<g>
			<rect x="352.502" y="222.488" fill="#FFFFFF" width="26" height="26"/>
			<rect x="352.502" y="222.488" opacity="0.3" fill="#6BB9F2" width="26" height="26"/>
			<rect x="352.502" y="222.488" fill="none" stroke="#1B93EB" stroke-width="0.5" width="26" height="26"/>
		</g>
		<g>
			<rect x="378.502" y="222.488" fill="#FFFFFF" width="26" height="26"/>
			<rect x="378.502" y="222.488" opacity="0.3" fill="#6BB9F2" width="26" height="26"/>
			<rect x="378.502" y="222.488" fill="none" stroke="#1B93EB" stroke-width="0.5" width="26" height="26"/>
		</g>
	</g>
	<g>
		<g id="bdd66f0d-1091-4867-9f64-cdf433204a8a_00000147910522189802583810000009095198494644837554_">
			<g>
				<g>
					
						<linearGradient id="SVGID_00000071561972168538365950000008608688041610303408_" gradientUnits="userSpaceOnUse" x1="-246.5476" y1="1657.7745" x2="-186.5431" y2="1657.7745" gradientTransform="matrix(1 0.0026 0.0026 -1 563.2333 1765.8872)">
						<stop  offset="0" style="stop-color:#005BA1"/>
						<stop  offset="0.068" style="stop-color:#0060A9"/>
						<stop  offset="0.356" style="stop-color:#0071C8"/>
						<stop  offset="0.517" style="stop-color:#0078D4"/>
						<stop  offset="0.642" style="stop-color:#0074CD"/>
						<stop  offset="0.82" style="stop-color:#006ABB"/>
						<stop  offset="1" style="stop-color:#005BA1"/>
					</linearGradient>
					<path fill="url(#SVGID_00000071561972168538365950000008608688041610303408_)" d="M351.002,83.954
						c-16.57-0.042-29.987-4.97-29.973-11.008l-0.151,58.144c0,5.986,13.177,10.881,29.564,11.003h0.409
						c16.57,0.042,30.016-4.814,30.03-10.852l0.151-58.144C381.018,79.139,367.573,83.996,351.002,83.954z"/>
					<path fill="#E6E6E6" d="M381.032,73.101c0,6.033-13.46,10.895-30.03,10.852s-29.987-4.97-29.973-11.008
						c0.014-6.038,13.455-10.895,30.03-10.852S381.046,67.063,381.032,73.101"/>
					<path fill="#50E6FF" d="M374.015,72.198c0,3.84-10.316,6.923-23.013,6.89c-12.697-0.033-22.98-3.167-22.971-7.007
						c0.009-3.84,10.316-6.923,23.018-6.89s22.989,3.167,22.98,7.007"/>
					<path fill="#198AB3" d="M351.026,73.741c-6.176-0.161-12.335,0.714-18.222,2.588c5.865,1.968,12.028,2.901,18.213,2.758
						c6.182,0.174,12.348-0.727,18.222-2.664C363.36,74.518,357.204,73.611,351.026,73.741z"/>
				</g>
			</g>
		</g>
		<g>
			<g>
				<rect x="311.032" y="72.689" fill="#FFFFFF" width="34" height="34"/>
				<rect x="311.032" y="72.689" fill="#198AB3" width="34" height="34"/>
				<rect x="311.032" y="72.689" fill="none" stroke="#1B93EB" stroke-width="0.5" width="34" height="34"/>
			</g>
			<g>
				<path fill="#FFFFFF" d="M326.47,94.672h5.938v2.559h-9.316v-1.055c0-0.716,0.12-1.359,0.361-1.929s0.544-1.081,0.908-1.533
					s0.764-0.853,1.196-1.201s0.845-0.663,1.235-0.942c0.41-0.293,0.77-0.573,1.079-0.84s0.569-0.532,0.781-0.796
					s0.369-0.531,0.474-0.801s0.156-0.558,0.156-0.864c0-0.599-0.169-1.051-0.508-1.357s-0.856-0.459-1.553-0.459
					c-1.204,0-2.356,0.479-3.457,1.436v-2.715c1.218-0.788,2.591-1.182,4.121-1.182c0.71,0,1.346,0.093,1.909,0.278
					s1.04,0.451,1.431,0.796s0.688,0.763,0.894,1.255s0.308,1.04,0.308,1.646c0,0.645-0.1,1.217-0.298,1.719
					s-0.462,0.957-0.791,1.367s-0.708,0.786-1.138,1.128s-0.876,0.672-1.338,0.991c-0.312,0.221-0.613,0.441-0.903,0.659
					s-0.545,0.433-0.767,0.645s-0.397,0.418-0.527,0.62S326.47,94.49,326.47,94.672z"/>
			</g>
		</g>
		<g>
			<g>
				<rect x="352.239" y="114.284" fill="#FFFFFF" width="34" height="34"/>
				<rect x="352.239" y="114.284" opacity="0.9" fill="#B4EC36" width="34" height="34"/>
				<rect x="352.239" y="114.284" fill="none" stroke="#1B93EB" stroke-width="0.5" width="34" height="34"/>
			</g>
			<g>
				<path fill="#3C3C41" d="M364.63,136.993v-2.686c0.938,0.684,2.031,1.025,3.281,1.025c0.788,0,1.401-0.169,1.841-0.508
					s0.659-0.811,0.659-1.416c0-0.625-0.271-1.107-0.815-1.445s-1.291-0.508-2.241-0.508h-1.299v-2.363h1.201
					c1.823,0,2.734-0.605,2.734-1.816c0-1.139-0.7-1.709-2.1-1.709c-0.938,0-1.849,0.303-2.734,0.908v-2.52
					c0.983-0.495,2.129-0.742,3.438-0.742c1.433,0,2.547,0.322,3.345,0.967s1.196,1.481,1.196,2.51c0,1.83-0.928,2.975-2.783,3.438
					v0.049c0.989,0.124,1.771,0.483,2.344,1.079s0.859,1.327,0.859,2.192c0,1.309-0.479,2.344-1.436,3.105s-2.278,1.143-3.965,1.143
					C366.71,137.696,365.535,137.462,364.63,136.993z"/>
			</g>
		</g>
		<g>
			<g>
				<rect x="359.972" y="64.521" fill="#FFFFFF" width="34" height="34"/>
				<rect x="359.972" y="64.521" opacity="0.6" fill="#FF7381" width="34" height="34"/>
				<rect x="359.972" y="64.521" fill="none" stroke="#110C00" stroke-width="0.5" width="34" height="34"/>
			</g>
			<g>
				<path fill="#3C3C41" d="M379.346,75.373v14.316h-3.076v-10.84c-0.169,0.15-0.369,0.292-0.601,0.425s-0.477,0.254-0.737,0.361
					s-0.53,0.199-0.811,0.273s-0.557,0.128-0.83,0.161v-2.598c0.801-0.234,1.556-0.534,2.266-0.898s1.351-0.765,1.924-1.201H379.346
					z"/>
			</g>
		</g>
	</g>
	<g>
		<path fill="#2F2F2F" d="M180.18,227.477v-8.402h2.977c2.984,0,4.477,1.365,4.477,4.096c0,1.309-0.407,2.354-1.222,3.135
			s-1.899,1.172-3.255,1.172H180.18z M182.072,220.616v5.326h0.938c0.82,0,1.464-0.246,1.931-0.738s0.7-1.162,0.7-2.01
			c0-0.801-0.231-1.431-0.694-1.89s-1.112-0.688-1.948-0.688H182.072z"/>
		<path fill="#2F2F2F" d="M196.034,227.477h-2.174l-1.307-2.162c-0.098-0.164-0.191-0.311-0.281-0.439s-0.181-0.239-0.272-0.331
			s-0.188-0.162-0.287-0.211s-0.208-0.073-0.325-0.073h-0.51v3.217h-1.893v-8.402h3c2.039,0,3.059,0.762,3.059,2.285
			c0,0.293-0.045,0.563-0.135,0.812s-0.217,0.472-0.381,0.671s-0.362,0.371-0.595,0.516s-0.491,0.258-0.776,0.34v0.023
			c0.125,0.039,0.246,0.103,0.363,0.19s0.23,0.19,0.34,0.308s0.214,0.243,0.313,0.378s0.19,0.267,0.272,0.396L196.034,227.477z
			 M190.878,220.493v2.338h0.82c0.406,0,0.732-0.117,0.979-0.352c0.25-0.238,0.375-0.533,0.375-0.885
			c0-0.734-0.439-1.102-1.318-1.102H190.878z"/>
		<path fill="#2F2F2F" d="M204.703,227.477h-2.062l-0.598-1.869h-2.988l-0.592,1.869h-2.051l3.059-8.402h2.244L204.703,227.477z
			 M201.609,224.155l-0.902-2.824c-0.066-0.211-0.113-0.463-0.141-0.756h-0.047c-0.02,0.246-0.068,0.49-0.146,0.732l-0.914,2.848
			H201.609z"/>
		<path fill="#2F2F2F" d="M215.233,227.477h-1.869v-5.027c0-0.543,0.023-1.143,0.07-1.799h-0.047
			c-0.098,0.516-0.186,0.887-0.264,1.113l-1.969,5.713h-1.547l-2.004-5.654c-0.055-0.152-0.143-0.543-0.264-1.172h-0.053
			c0.051,0.828,0.076,1.555,0.076,2.18v4.646h-1.705v-8.402h2.771l1.717,4.98c0.137,0.398,0.236,0.799,0.299,1.201h0.035
			c0.105-0.465,0.217-0.869,0.334-1.213l1.717-4.969h2.701V227.477z"/>
	</g>
	<g>
		<rect x="5.1" y="7.294" fill="none" width="470.8" height="23.594"/>
		<path fill="#2F2F2F" d="M96.401,20.614V8.01h3.445c0.521,0,0.991,0.07,1.41,0.211s0.776,0.338,1.072,0.593
			s0.523,0.561,0.682,0.918s0.237,0.75,0.237,1.178c0,0.363-0.05,0.703-0.149,1.02s-0.243,0.605-0.431,0.866
			s-0.417,0.486-0.69,0.677c-0.271,0.19-0.581,0.341-0.927,0.453v0.035c0.422,0.041,0.806,0.144,1.151,0.308
			s0.642,0.378,0.888,0.642s0.437,0.573,0.571,0.927s0.202,0.743,0.202,1.165c0,0.533-0.097,1.021-0.29,1.463
			s-0.465,0.823-0.812,1.143c-0.35,0.319-0.764,0.567-1.244,0.743s-1.011,0.264-1.591,0.264H96.401z M97.57,9.083v4.474h1.635
			c0.428,0,0.814-0.056,1.16-0.167s0.642-0.272,0.888-0.483s0.436-0.466,0.566-0.765c0.133-0.299,0.198-0.636,0.198-1.011
			c0-1.365-0.85-2.048-2.549-2.048H97.57z M97.57,14.611v4.939h2.171c0.932,0,1.648-0.218,2.148-0.655
			c0.502-0.437,0.752-1.056,0.752-1.859c0-1.617-1.099-2.426-3.296-2.426H97.57z"/>
		<path fill="#2F2F2F" d="M112.094,20.614v-1.529h-0.035c-0.609,1.16-1.556,1.74-2.839,1.74c-2.139,0-3.208-1.307-3.208-3.92v-5.291
			h1.125v5.08c0,1.078,0.191,1.875,0.575,2.391s0.972,0.773,1.763,0.773c0.387,0,0.739-0.075,1.06-0.224
			c0.318-0.149,0.594-0.36,0.826-0.633c0.23-0.272,0.411-0.599,0.54-0.98s0.193-0.803,0.193-1.266v-5.142h1.125v9H112.094z"/>
		<path fill="#2F2F2F" d="M120.18,8.353c-0.252-0.164-0.577-0.246-0.976-0.246c-1.055,0-1.582,0.688-1.582,2.065v1.441h2.241v0.984
			h-2.241v8.016h-1.125v-8.016h-1.573v-0.984h1.573v-1.512c0-0.451,0.058-0.86,0.171-1.226c0.115-0.366,0.283-0.68,0.506-0.94
			s0.502-0.461,0.84-0.602c0.336-0.141,0.725-0.211,1.164-0.211c0.422,0,0.756,0.056,1.002,0.167V8.353z"/>
		<path fill="#2F2F2F" d="M126.086,8.353c-0.252-0.164-0.577-0.246-0.976-0.246c-1.055,0-1.582,0.688-1.582,2.065v1.441h2.241v0.984
			h-2.241v8.016h-1.125v-8.016h-1.573v-0.984h1.573v-1.512c0-0.451,0.058-0.86,0.171-1.226c0.115-0.366,0.283-0.68,0.506-0.94
			s0.502-0.461,0.84-0.602c0.336-0.141,0.725-0.211,1.164-0.211c0.422,0,0.756,0.056,1.002,0.167V8.353z"/>
		<path fill="#2F2F2F" d="M127.591,16.316c0.006,0.551,0.079,1.046,0.22,1.485s0.343,0.812,0.606,1.116s0.584,0.538,0.963,0.699
			c0.377,0.161,0.804,0.242,1.278,0.242c1.014,0,1.972-0.354,2.874-1.063v1.107c-0.861,0.615-1.904,0.923-3.129,0.923
			c-0.604,0-1.151-0.105-1.644-0.316s-0.911-0.517-1.257-0.918s-0.612-0.895-0.8-1.481s-0.281-1.254-0.281-2.004
			c0-0.674,0.103-1.298,0.308-1.872s0.489-1.071,0.853-1.49s0.794-0.747,1.292-0.984s1.043-0.356,1.635-0.356
			c0.58,0,1.093,0.101,1.538,0.303s0.818,0.491,1.12,0.866s0.532,0.832,0.69,1.371s0.237,1.143,0.237,1.811v0.562H127.591z
			 M132.935,15.332c-0.018-0.938-0.24-1.664-0.668-2.18s-1.022-0.773-1.784-0.773c-0.381,0-0.733,0.067-1.06,0.202
			c-0.324,0.135-0.61,0.33-0.856,0.584s-0.45,0.565-0.61,0.932c-0.162,0.366-0.274,0.778-0.339,1.235H132.935z"/>
		<path fill="#2F2F2F" d="M140.68,12.765c-0.264-0.193-0.604-0.29-1.02-0.29c-0.299,0-0.562,0.057-0.791,0.171
			s-0.43,0.268-0.603,0.461s-0.319,0.417-0.439,0.672s-0.217,0.52-0.289,0.795c-0.074,0.275-0.127,0.554-0.158,0.835
			c-0.033,0.281-0.049,0.548-0.049,0.8v4.403h-1.116v-9h1.116v1.925h0.035c0.105-0.328,0.238-0.623,0.4-0.883
			c0.16-0.261,0.347-0.48,0.558-0.659s0.44-0.315,0.69-0.409c0.248-0.094,0.511-0.141,0.786-0.141c0.182,0,0.344,0.012,0.487,0.035
			s0.274,0.059,0.392,0.105V12.765z"/>
		<path fill="#2F2F2F" d="M148.37,19.164v5.59h-1.125v-13.14h1.125v1.723h0.035c0.334-0.627,0.78-1.106,1.341-1.437
			c0.559-0.331,1.19-0.497,1.894-0.497c0.574,0,1.088,0.104,1.542,0.312s0.838,0.502,1.152,0.883
			c0.312,0.381,0.553,0.844,0.721,1.389c0.166,0.545,0.25,1.157,0.25,1.837c0,0.744-0.094,1.422-0.281,2.035
			s-0.457,1.138-0.809,1.578s-0.777,0.781-1.279,1.024c-0.5,0.243-1.064,0.365-1.691,0.365c-1.266,0-2.212-0.554-2.839-1.661H148.37
			z M148.37,16.87c0,0.41,0.068,0.795,0.206,1.156s0.33,0.677,0.576,0.949s0.543,0.488,0.893,0.646
			c0.348,0.158,0.733,0.237,1.155,0.237c0.451,0,0.858-0.095,1.222-0.286s0.672-0.461,0.928-0.813
			c0.254-0.352,0.45-0.776,0.588-1.274s0.207-1.055,0.207-1.67c0-0.527-0.064-1.003-0.193-1.428s-0.312-0.787-0.549-1.085
			c-0.238-0.299-0.525-0.527-0.861-0.686c-0.338-0.158-0.714-0.237-1.13-0.237c-0.469,0-0.891,0.086-1.266,0.259
			s-0.694,0.409-0.958,0.708s-0.466,0.649-0.606,1.05s-0.211,0.828-0.211,1.279V16.87z"/>
		<path fill="#2F2F2F" d="M161.262,20.825c-0.668,0-1.268-0.111-1.797-0.334c-0.531-0.223-0.983-0.538-1.358-0.945
			s-0.662-0.895-0.861-1.463s-0.299-1.198-0.299-1.89c0-0.75,0.105-1.421,0.316-2.013s0.511-1.094,0.901-1.507
			c0.389-0.413,0.859-0.728,1.41-0.945s1.166-0.325,1.846-0.325c0.65,0,1.236,0.107,1.758,0.321s0.964,0.523,1.327,0.927
			s0.642,0.896,0.835,1.477s0.29,1.239,0.29,1.978c0,0.703-0.101,1.343-0.304,1.92c-0.201,0.577-0.49,1.074-0.865,1.49
			s-0.832,0.738-1.371,0.967S161.941,20.825,161.262,20.825z M161.35,12.378c-0.492,0-0.938,0.085-1.336,0.255
			s-0.74,0.417-1.023,0.743c-0.285,0.325-0.503,0.724-0.655,1.195s-0.229,1.006-0.229,1.604c0,0.562,0.076,1.069,0.229,1.521
			s0.367,0.838,0.646,1.16s0.617,0.57,1.016,0.743s0.844,0.259,1.336,0.259c0.504,0,0.949-0.083,1.336-0.25s0.715-0.41,0.984-0.729
			s0.473-0.71,0.611-1.173c0.137-0.463,0.206-0.99,0.206-1.582c0-1.213-0.27-2.14-0.809-2.782S162.352,12.378,161.35,12.378z"/>
		<path fill="#2F2F2F" d="M171.545,20.825c-0.668,0-1.268-0.111-1.797-0.334c-0.531-0.223-0.983-0.538-1.358-0.945
			s-0.662-0.895-0.861-1.463s-0.299-1.198-0.299-1.89c0-0.75,0.105-1.421,0.316-2.013s0.511-1.094,0.901-1.507
			c0.389-0.413,0.859-0.728,1.41-0.945s1.166-0.325,1.846-0.325c0.65,0,1.236,0.107,1.758,0.321s0.964,0.523,1.327,0.927
			s0.642,0.896,0.835,1.477s0.29,1.239,0.29,1.978c0,0.703-0.101,1.343-0.304,1.92c-0.201,0.577-0.49,1.074-0.865,1.49
			s-0.832,0.738-1.371,0.967S172.225,20.825,171.545,20.825z M171.633,12.378c-0.492,0-0.938,0.085-1.336,0.255
			s-0.74,0.417-1.023,0.743c-0.285,0.325-0.503,0.724-0.655,1.195s-0.229,1.006-0.229,1.604c0,0.562,0.076,1.069,0.229,1.521
			s0.367,0.838,0.646,1.16s0.617,0.57,1.016,0.743s0.844,0.259,1.336,0.259c0.504,0,0.949-0.083,1.336-0.25s0.715-0.41,0.984-0.729
			s0.473-0.71,0.611-1.173c0.137-0.463,0.206-0.99,0.206-1.582c0-1.213-0.27-2.14-0.809-2.782S172.635,12.378,171.633,12.378z"/>
		<path fill="#2F2F2F" d="M178.077,20.614V7.29h1.125v13.324H178.077z"/>
		<path fill="#2F2F2F" d="M186.761,11.614h1.09l0.51,7.075v0.105v0.123l-0.035,0.466h0.062c0.094-0.299,0.202-0.568,0.325-0.809
			l3.674-6.961h0.888l0.519,7.233l-0.044,0.545h0.07c0.094-0.322,0.199-0.592,0.316-0.809l3.472-6.97h1.143l-4.667,9h-1.046
			L192.5,14.04l-0.018-0.334l0.035-0.51h-0.035c-0.029,0.082-0.072,0.189-0.128,0.321s-1.299,2.498-3.73,7.097h-1.055
			L186.761,11.614z"/>
		<path fill="#2F2F2F" d="M200.311,11.614h1.116l-1.345,6.337c-0.117,0.598-0.176,1.011-0.176,1.239
			c0,0.416,0.226,0.624,0.677,0.624c0.27,0,0.513-0.041,0.729-0.123l-0.185,0.896c-0.293,0.117-0.606,0.176-0.94,0.176
			c-0.457,0-0.808-0.119-1.05-0.356c-0.244-0.237-0.365-0.584-0.365-1.042c0-0.322,0.067-0.806,0.202-1.45L200.311,11.614z
			 M201.515,9.355c-0.223,0-0.412-0.081-0.566-0.242c-0.156-0.161-0.233-0.35-0.233-0.567c0-0.229,0.079-0.415,0.237-0.558
			s0.346-0.215,0.562-0.215s0.404,0.072,0.562,0.215s0.237,0.33,0.237,0.558s-0.081,0.42-0.241,0.576
			C201.911,9.277,201.726,9.355,201.515,9.355z"/>
		<path fill="#2F2F2F" d="M204.408,12.572h-1.573l0.22-0.958h1.547l0.483-2.276l1.187-0.36l-0.562,2.637h2.347l-0.22,0.958h-2.329
			l-1.116,5.247c-0.105,0.475-0.158,0.861-0.158,1.16c0,0.293,0.062,0.507,0.185,0.642s0.328,0.202,0.615,0.202
			c0.275,0,0.724-0.138,1.345-0.413l-0.22,1.002c-0.199,0.1-0.438,0.186-0.717,0.259s-0.517,0.11-0.716,0.11
			c-1.078,0-1.617-0.557-1.617-1.67c0-0.346,0.056-0.762,0.167-1.248L204.408,12.572z"/>
		<path fill="#2F2F2F" d="M210.622,7.29h1.099l-1.415,6.662h0.035c1.072-1.705,2.271-2.558,3.595-2.558
			c0.75,0,1.312,0.212,1.688,0.637s0.562,1.039,0.562,1.841c0,0.082-0.012,0.205-0.035,0.369s-0.059,0.388-0.105,0.672
			s-0.439,2.184-1.178,5.7h-1.116l1.081-5.221c0.146-0.68,0.22-1.143,0.22-1.389c0-1.096-0.475-1.644-1.424-1.644
			c-0.475,0-0.99,0.198-1.547,0.593s-1.043,0.904-1.459,1.525s-0.688,1.242-0.817,1.863l-0.914,4.271h-1.116L210.622,7.29z"/>
		<path fill="#2F2F2F" d="M220.936,20.833c-1.002,0-1.793-0.309-2.373-0.927s-0.87-1.481-0.87-2.588c0-1.09,0.207-2.09,0.619-3.001
			c0.414-0.911,0.994-1.626,1.74-2.145c0.748-0.519,1.569-0.778,2.466-0.778c0.996,0,1.784,0.312,2.364,0.936s0.87,1.481,0.87,2.571
			c0,1.107-0.206,2.117-0.62,3.028c-0.412,0.911-0.987,1.623-1.723,2.136S221.85,20.833,220.936,20.833z M221.015,19.867
			c0.662,0,1.271-0.217,1.828-0.65s0.991-1.025,1.305-1.775s0.471-1.57,0.471-2.461c0-0.85-0.195-1.499-0.584-1.947
			c-0.391-0.448-0.925-0.672-1.604-0.672c-1.002,0-1.854,0.47-2.554,1.411s-1.05,2.099-1.05,3.476c0,0.82,0.196,1.462,0.589,1.925
			S220.341,19.867,221.015,19.867z"/>
		<path fill="#2F2F2F" d="M228.587,11.614h1.107l-1.09,5.221c-0.141,0.715-0.211,1.178-0.211,1.389c0,1.096,0.472,1.644,1.415,1.644
			c0.457,0,0.95-0.183,1.481-0.549c0.529-0.366,1.02-0.869,1.467-1.507c0.449-0.639,0.743-1.274,0.884-1.907l0.914-4.289h1.107
			l-1.38,6.469c-0.199,0.914-0.34,1.758-0.422,2.531h-1.081l0.378-2.355h-0.035c-0.51,0.826-1.075,1.462-1.696,1.907
			s-1.257,0.668-1.907,0.668c-0.762,0-1.33-0.215-1.705-0.646s-0.562-1.042-0.562-1.833c0-0.17,0.031-0.445,0.092-0.826
			c0.062-0.381,0.122-0.688,0.181-0.923L228.587,11.614z"/>
		<path fill="#2F2F2F" d="M238.525,12.572h-1.573l0.22-0.958h1.547l0.483-2.276l1.187-0.36l-0.562,2.637h2.347l-0.22,0.958h-2.329
			l-1.116,5.247c-0.105,0.475-0.158,0.861-0.158,1.16c0,0.293,0.062,0.507,0.185,0.642s0.328,0.202,0.615,0.202
			c0.275,0,0.724-0.138,1.345-0.413l-0.22,1.002c-0.199,0.1-0.438,0.186-0.717,0.259s-0.517,0.11-0.716,0.11
			c-1.078,0-1.617-0.557-1.617-1.67c0-0.346,0.056-0.762,0.167-1.248L238.525,12.572z"/>
		<path fill="#2F2F2F" d="M254.108,20.614v-5.291c0-1.008-0.182-1.75-0.545-2.228s-0.929-0.716-1.696-0.716
			c-0.363,0-0.709,0.073-1.037,0.22s-0.615,0.357-0.861,0.633s-0.442,0.611-0.589,1.006s-0.22,0.842-0.22,1.34v5.036h-1.125V7.29
			h1.125v5.88h0.035c0.703-1.178,1.711-1.767,3.023-1.767c1.002,0,1.755,0.308,2.259,0.923s0.756,1.523,0.756,2.725v5.563H254.108z"
			/>
		<path fill="#2F2F2F" d="M260.259,22.249c-0.352,0.879-0.756,1.531-1.213,1.956s-1.011,0.637-1.661,0.637
			c-0.322,0-0.595-0.038-0.817-0.114v-1.055c0.129,0.047,0.26,0.082,0.391,0.105c0.133,0.023,0.266,0.035,0.4,0.035
			c0.369,0,0.689-0.116,0.963-0.347c0.271-0.231,0.508-0.582,0.707-1.05l0.782-1.846l-3.463-8.956h1.248l2.575,7.128
			c0.035,0.094,0.068,0.201,0.102,0.321c0.031,0.12,0.062,0.239,0.092,0.356h0.044c0.029-0.1,0.058-0.201,0.083-0.303
			c0.027-0.103,0.063-0.215,0.11-0.338l2.733-7.163h1.187L260.259,22.249z"/>
		<path fill="#2F2F2F" d="M267.212,19.164v1.45h-1.125V7.29h1.125v6.047h0.035c0.334-0.627,0.78-1.106,1.341-1.437
			c0.559-0.331,1.19-0.497,1.894-0.497c0.574,0,1.088,0.104,1.542,0.312s0.838,0.505,1.152,0.892
			c0.312,0.387,0.553,0.853,0.721,1.397c0.166,0.545,0.25,1.151,0.25,1.819c0,0.744-0.096,1.422-0.285,2.035
			c-0.191,0.612-0.462,1.138-0.813,1.578s-0.778,0.781-1.278,1.024c-0.502,0.243-1.062,0.365-1.684,0.365
			c-1.271,0-2.218-0.554-2.839-1.661H267.212z M267.212,16.87c0,0.41,0.068,0.795,0.206,1.156s0.33,0.677,0.576,0.949
			s0.543,0.488,0.893,0.646c0.348,0.158,0.733,0.237,1.155,0.237c0.451,0,0.858-0.095,1.222-0.286s0.672-0.461,0.928-0.813
			c0.254-0.352,0.45-0.776,0.588-1.274s0.207-1.055,0.207-1.67c0-0.527-0.064-1.003-0.193-1.428s-0.312-0.787-0.549-1.085
			c-0.238-0.299-0.525-0.527-0.861-0.686c-0.338-0.158-0.714-0.237-1.13-0.237c-0.469,0-0.891,0.086-1.266,0.259
			s-0.694,0.409-0.958,0.708s-0.466,0.649-0.606,1.05s-0.211,0.828-0.211,1.279V16.87z"/>
		<path fill="#2F2F2F" d="M280.764,12.765c-0.264-0.193-0.604-0.29-1.02-0.29c-0.299,0-0.562,0.057-0.791,0.171
			s-0.43,0.268-0.603,0.461s-0.319,0.417-0.439,0.672s-0.217,0.52-0.289,0.795c-0.074,0.275-0.127,0.554-0.158,0.835
			c-0.033,0.281-0.049,0.548-0.049,0.8v4.403h-1.116v-9h1.116v1.925h0.035c0.105-0.328,0.238-0.623,0.4-0.883
			c0.16-0.261,0.347-0.48,0.558-0.659s0.44-0.315,0.69-0.409c0.248-0.094,0.511-0.141,0.786-0.141c0.182,0,0.344,0.012,0.487,0.035
			s0.274,0.059,0.392,0.105V12.765z"/>
		<path fill="#2F2F2F" d="M282.918,9.337c-0.217,0-0.404-0.076-0.562-0.229s-0.237-0.346-0.237-0.58
			c0-0.229,0.079-0.417,0.237-0.567s0.346-0.224,0.562-0.224c0.111,0,0.217,0.019,0.316,0.057s0.186,0.092,0.26,0.163
			c0.072,0.07,0.131,0.154,0.176,0.25c0.043,0.097,0.065,0.204,0.065,0.321c0,0.111-0.021,0.217-0.062,0.316s-0.1,0.186-0.176,0.259
			s-0.162,0.13-0.26,0.171C283.143,9.317,283.035,9.337,282.918,9.337z M282.364,20.614v-9h1.125v9H282.364z"/>
		<path fill="#2F2F2F" d="M292.543,20.614v-1.582h-0.035c-0.299,0.568-0.726,1.009-1.278,1.323c-0.555,0.313-1.183,0.47-1.886,0.47
			c-0.562,0-1.074-0.104-1.534-0.312s-0.854-0.508-1.182-0.901s-0.582-0.867-0.76-1.424c-0.18-0.557-0.269-1.187-0.269-1.89
			c0-0.727,0.098-1.39,0.294-1.991s0.475-1.116,0.836-1.547c0.359-0.431,0.793-0.765,1.301-1.002
			c0.506-0.237,1.07-0.356,1.691-0.356c1.295,0,2.224,0.519,2.786,1.556h0.035V7.29h1.125v13.324H292.543z M292.543,15.182
			c0-0.393-0.067-0.759-0.202-1.099s-0.322-0.636-0.562-0.888s-0.529-0.451-0.865-0.598c-0.338-0.146-0.708-0.22-1.112-0.22
			c-0.445,0-0.855,0.088-1.23,0.264s-0.696,0.429-0.962,0.76c-0.268,0.331-0.475,0.734-0.625,1.208
			c-0.148,0.475-0.224,1.014-0.224,1.617c0,0.568,0.067,1.078,0.202,1.529s0.326,0.832,0.576,1.143
			c0.248,0.311,0.546,0.548,0.892,0.712s0.729,0.246,1.151,0.246c0.457,0,0.868-0.082,1.234-0.246s0.678-0.39,0.932-0.677
			c0.256-0.287,0.451-0.624,0.59-1.011c0.137-0.387,0.206-0.8,0.206-1.239V15.182z"/>
		<path fill="#2F2F2F" d="M302.624,19.164v1.45h-1.125V7.29h1.125v6.047h0.035c0.334-0.627,0.78-1.106,1.341-1.437
			c0.559-0.331,1.19-0.497,1.894-0.497c0.574,0,1.088,0.104,1.542,0.312s0.838,0.505,1.152,0.892
			c0.312,0.387,0.553,0.853,0.721,1.397c0.166,0.545,0.25,1.151,0.25,1.819c0,0.744-0.096,1.422-0.285,2.035
			c-0.191,0.612-0.462,1.138-0.813,1.578s-0.778,0.781-1.278,1.024c-0.502,0.243-1.062,0.365-1.684,0.365
			c-1.271,0-2.218-0.554-2.839-1.661H302.624z M302.624,16.87c0,0.41,0.068,0.795,0.206,1.156s0.33,0.677,0.576,0.949
			s0.543,0.488,0.893,0.646c0.348,0.158,0.733,0.237,1.155,0.237c0.451,0,0.858-0.095,1.222-0.286s0.672-0.461,0.928-0.813
			c0.254-0.352,0.45-0.776,0.588-1.274s0.207-1.055,0.207-1.67c0-0.527-0.064-1.003-0.193-1.428s-0.312-0.787-0.549-1.085
			c-0.238-0.299-0.525-0.527-0.861-0.686c-0.338-0.158-0.714-0.237-1.13-0.237c-0.469,0-0.891,0.086-1.266,0.259
			s-0.694,0.409-0.958,0.708s-0.466,0.649-0.606,1.05s-0.211,0.828-0.211,1.279V16.87z"/>
		<path fill="#2F2F2F" d="M317.672,20.614v-1.529h-0.035c-0.609,1.16-1.556,1.74-2.839,1.74c-2.139,0-3.208-1.307-3.208-3.92v-5.291
			h1.125v5.08c0,1.078,0.191,1.875,0.575,2.391s0.972,0.773,1.763,0.773c0.387,0,0.739-0.075,1.06-0.224
			c0.318-0.149,0.594-0.36,0.826-0.633c0.23-0.272,0.411-0.599,0.54-0.98s0.193-0.803,0.193-1.266v-5.142h1.125v9H317.672z"/>
		<path fill="#2F2F2F" d="M325.758,8.353c-0.252-0.164-0.577-0.246-0.976-0.246c-1.055,0-1.582,0.688-1.582,2.065v1.441h2.241v0.984
			H323.2v8.016h-1.125v-8.016h-1.573v-0.984h1.573v-1.512c0-0.451,0.058-0.86,0.171-1.226c0.115-0.366,0.283-0.68,0.506-0.94
			s0.502-0.461,0.84-0.602c0.336-0.141,0.725-0.211,1.164-0.211c0.422,0,0.756,0.056,1.002,0.167V8.353z"/>
		<path fill="#2F2F2F" d="M331.665,8.353c-0.252-0.164-0.577-0.246-0.976-0.246c-1.055,0-1.582,0.688-1.582,2.065v1.441h2.241v0.984
			h-2.241v8.016h-1.125v-8.016h-1.573v-0.984h1.573v-1.512c0-0.451,0.058-0.86,0.171-1.226c0.115-0.366,0.283-0.68,0.506-0.94
			s0.502-0.461,0.84-0.602c0.336-0.141,0.725-0.211,1.164-0.211c0.422,0,0.756,0.056,1.002,0.167V8.353z"/>
		<path fill="#2F2F2F" d="M333.17,16.316c0.006,0.551,0.079,1.046,0.22,1.485s0.343,0.812,0.606,1.116s0.584,0.538,0.963,0.699
			c0.377,0.161,0.804,0.242,1.278,0.242c1.014,0,1.972-0.354,2.874-1.063v1.107c-0.861,0.615-1.904,0.923-3.129,0.923
			c-0.604,0-1.151-0.105-1.644-0.316s-0.911-0.517-1.257-0.918s-0.612-0.895-0.8-1.481s-0.281-1.254-0.281-2.004
			c0-0.674,0.103-1.298,0.308-1.872s0.489-1.071,0.853-1.49s0.794-0.747,1.292-0.984s1.043-0.356,1.635-0.356
			c0.58,0,1.093,0.101,1.538,0.303s0.818,0.491,1.12,0.866s0.532,0.832,0.69,1.371s0.237,1.143,0.237,1.811v0.562H333.17z
			 M338.514,15.332c-0.018-0.938-0.24-1.664-0.668-2.18s-1.022-0.773-1.784-0.773c-0.381,0-0.733,0.067-1.06,0.202
			c-0.324,0.135-0.61,0.33-0.856,0.584s-0.45,0.565-0.61,0.932c-0.162,0.366-0.274,0.778-0.339,1.235H338.514z"/>
		<path fill="#2F2F2F" d="M346.258,12.765c-0.264-0.193-0.604-0.29-1.02-0.29c-0.299,0-0.562,0.057-0.791,0.171
			s-0.43,0.268-0.603,0.461s-0.319,0.417-0.439,0.672s-0.217,0.52-0.289,0.795c-0.074,0.275-0.127,0.554-0.158,0.835
			c-0.033,0.281-0.049,0.548-0.049,0.8v4.403h-1.116v-9h1.116v1.925h0.035c0.105-0.328,0.238-0.623,0.4-0.883
			c0.16-0.261,0.347-0.48,0.558-0.659s0.44-0.315,0.69-0.409c0.248-0.094,0.511-0.141,0.786-0.141c0.182,0,0.344,0.012,0.487,0.035
			s0.274,0.059,0.392,0.105V12.765z"/>
		<path fill="#2F2F2F" d="M353.948,19.164v5.59h-1.125v-13.14h1.125v1.723h0.035c0.334-0.627,0.78-1.106,1.341-1.437
			c0.559-0.331,1.19-0.497,1.894-0.497c0.574,0,1.088,0.104,1.542,0.312s0.838,0.502,1.152,0.883
			c0.312,0.381,0.553,0.844,0.721,1.389c0.166,0.545,0.25,1.157,0.25,1.837c0,0.744-0.094,1.422-0.281,2.035
			s-0.457,1.138-0.809,1.578s-0.777,0.781-1.279,1.024c-0.5,0.243-1.064,0.365-1.691,0.365c-1.266,0-2.212-0.554-2.839-1.661
			H353.948z M353.948,16.87c0,0.41,0.068,0.795,0.206,1.156s0.33,0.677,0.576,0.949s0.543,0.488,0.893,0.646
			c0.348,0.158,0.733,0.237,1.155,0.237c0.451,0,0.858-0.095,1.222-0.286s0.672-0.461,0.928-0.813
			c0.254-0.352,0.45-0.776,0.588-1.274s0.207-1.055,0.207-1.67c0-0.527-0.064-1.003-0.193-1.428s-0.312-0.787-0.549-1.085
			c-0.238-0.299-0.525-0.527-0.861-0.686c-0.338-0.158-0.714-0.237-1.13-0.237c-0.469,0-0.891,0.086-1.266,0.259
			s-0.694,0.409-0.958,0.708s-0.466,0.649-0.606,1.05s-0.211,0.828-0.211,1.279V16.87z"/>
		<path fill="#2F2F2F" d="M366.841,20.825c-0.668,0-1.268-0.111-1.797-0.334c-0.531-0.223-0.983-0.538-1.358-0.945
			s-0.662-0.895-0.861-1.463s-0.299-1.198-0.299-1.89c0-0.75,0.105-1.421,0.316-2.013s0.511-1.094,0.901-1.507
			c0.389-0.413,0.859-0.728,1.41-0.945s1.166-0.325,1.846-0.325c0.65,0,1.236,0.107,1.758,0.321s0.964,0.523,1.327,0.927
			s0.642,0.896,0.835,1.477s0.29,1.239,0.29,1.978c0,0.703-0.101,1.343-0.304,1.92c-0.201,0.577-0.49,1.074-0.865,1.49
			s-0.832,0.738-1.371,0.967S367.521,20.825,366.841,20.825z M366.929,12.378c-0.492,0-0.938,0.085-1.336,0.255
			s-0.74,0.417-1.023,0.743c-0.285,0.325-0.503,0.724-0.655,1.195s-0.229,1.006-0.229,1.604c0,0.562,0.076,1.069,0.229,1.521
			s0.367,0.838,0.646,1.16s0.617,0.57,1.016,0.743s0.844,0.259,1.336,0.259c0.504,0,0.949-0.083,1.336-0.25s0.715-0.41,0.984-0.729
			s0.473-0.71,0.611-1.173c0.137-0.463,0.206-0.99,0.206-1.582c0-1.213-0.27-2.14-0.809-2.782S367.931,12.378,366.929,12.378z"/>
		<path fill="#2F2F2F" d="M377.123,20.825c-0.668,0-1.268-0.111-1.797-0.334c-0.531-0.223-0.983-0.538-1.358-0.945
			s-0.662-0.895-0.861-1.463s-0.299-1.198-0.299-1.89c0-0.75,0.105-1.421,0.316-2.013s0.511-1.094,0.901-1.507
			c0.389-0.413,0.859-0.728,1.41-0.945s1.166-0.325,1.846-0.325c0.65,0,1.236,0.107,1.758,0.321s0.964,0.523,1.327,0.927
			s0.642,0.896,0.835,1.477s0.29,1.239,0.29,1.978c0,0.703-0.101,1.343-0.304,1.92c-0.201,0.577-0.49,1.074-0.865,1.49
			s-0.832,0.738-1.371,0.967S377.803,20.825,377.123,20.825z M377.211,12.378c-0.492,0-0.938,0.085-1.336,0.255
			s-0.74,0.417-1.023,0.743c-0.285,0.325-0.503,0.724-0.655,1.195s-0.229,1.006-0.229,1.604c0,0.562,0.076,1.069,0.229,1.521
			s0.367,0.838,0.646,1.16s0.617,0.57,1.016,0.743s0.844,0.259,1.336,0.259c0.504,0,0.949-0.083,1.336-0.25s0.715-0.41,0.984-0.729
			s0.473-0.71,0.611-1.173c0.137-0.463,0.206-0.99,0.206-1.582c0-1.213-0.27-2.14-0.809-2.782S378.213,12.378,377.211,12.378z"/>
		<path fill="#2F2F2F" d="M383.656,20.614V7.29h1.125v13.324H383.656z"/>
	</g>
	<g>
		<path fill="#2F2F2F" d="M574.987,271.385v-9.803h3.568c1.094,0,1.935,0.201,2.522,0.602s0.882,0.966,0.882,1.695
			c0,0.529-0.179,0.991-0.537,1.388c-0.357,0.396-0.814,0.672-1.37,0.827v0.027c0.697,0.086,1.255,0.344,1.671,0.772
			c0.418,0.428,0.626,0.95,0.626,1.565c0,0.898-0.321,1.61-0.964,2.136s-1.52,0.79-2.632,0.79H574.987z M577.195,263.209v2.324
			h0.971c0.456,0,0.814-0.11,1.077-0.332c0.262-0.221,0.393-0.525,0.393-0.913c0-0.72-0.538-1.08-1.613-1.08H577.195z
			 M577.195,267.174v2.584h1.196c0.511,0,0.91-0.119,1.199-0.355c0.29-0.237,0.435-0.561,0.435-0.971c0-0.392-0.143-0.7-0.427-0.923
			c-0.285-0.223-0.683-0.335-1.193-0.335H577.195z"/>
		<path fill="#2F2F2F" d="M590.428,271.385h-2.153v-1.066h-0.034c-0.533,0.825-1.246,1.237-2.14,1.237
			c-1.622,0-2.434-0.982-2.434-2.946v-4.225h2.153v4.033c0,0.989,0.392,1.483,1.176,1.483c0.388,0,0.697-0.136,0.93-0.407
			s0.349-0.639,0.349-1.104v-4.006h2.153V271.385z"/>
		<path fill="#2F2F2F" d="M596.755,262.676c-0.278-0.109-0.545-0.164-0.8-0.164c-0.692,0-1.039,0.376-1.039,1.128v0.745h1.6v1.593
			h-1.6v5.407h-2.153v-5.407h-1.176v-1.593h1.176v-0.868c0-0.797,0.26-1.44,0.779-1.928s1.226-0.731,2.119-0.731
			c0.438,0,0.802,0.045,1.094,0.137V262.676z"/>
		<path fill="#2F2F2F" d="M602.393,262.676c-0.278-0.109-0.545-0.164-0.8-0.164c-0.692,0-1.039,0.376-1.039,1.128v0.745h1.6v1.593
			h-1.6v5.407H598.4v-5.407h-1.176v-1.593h1.176v-0.868c0-0.797,0.26-1.44,0.779-1.928s1.226-0.731,2.119-0.731
			c0.438,0,0.802,0.045,1.094,0.137V262.676z"/>
		<path fill="#2F2F2F" d="M609.481,268.5h-4.566c0.073,1.016,0.713,1.524,1.921,1.524c0.771,0,1.447-0.182,2.03-0.547v1.559
			c-0.647,0.346-1.488,0.52-2.522,0.52c-1.13,0-2.008-0.313-2.632-0.94s-0.937-1.5-0.937-2.622c0-1.162,0.337-2.083,1.012-2.762
			s1.504-1.019,2.488-1.019c1.021,0,1.811,0.303,2.369,0.909c0.558,0.606,0.837,1.429,0.837,2.468V268.5z M607.479,267.174
			c0-1.002-0.405-1.504-1.217-1.504c-0.347,0-0.646,0.144-0.898,0.431c-0.254,0.287-0.407,0.645-0.462,1.073H607.479z"/>
		<path fill="#2F2F2F" d="M615.413,266.333c-0.26-0.141-0.562-0.212-0.909-0.212c-0.47,0-0.836,0.172-1.101,0.516
			s-0.396,0.812-0.396,1.405v3.343h-2.16v-7h2.16v1.299h0.027c0.342-0.948,0.957-1.422,1.846-1.422c0.228,0,0.405,0.027,0.533,0.082
			V266.333z"/>
		<path fill="#2F2F2F" d="M622.468,270.572h-0.027v4.033h-2.16v-10.22h2.16v1.053h0.027c0.533-0.816,1.283-1.224,2.249-1.224
			c0.907,0,1.607,0.311,2.102,0.933c0.495,0.622,0.742,1.469,0.742,2.54c0,1.167-0.288,2.103-0.865,2.81
			c-0.576,0.707-1.343,1.06-2.3,1.06C623.553,271.556,622.91,271.228,622.468,270.572z M622.406,267.701v0.561
			c0,0.483,0.128,0.877,0.383,1.183s0.59,0.458,1.005,0.458c0.492,0,0.874-0.19,1.146-0.571c0.271-0.38,0.406-0.919,0.406-1.617
			c0-1.23-0.479-1.846-1.436-1.846c-0.442,0-0.803,0.167-1.084,0.502C622.547,266.706,622.406,267.149,622.406,267.701z"/>
		<path fill="#2F2F2F" d="M632.344,271.556c-1.167,0-2.084-0.327-2.751-0.981c-0.668-0.654-1.002-1.542-1.002-2.663
			c0-1.158,0.347-2.063,1.039-2.717s1.629-0.981,2.81-0.981c1.162,0,2.073,0.327,2.734,0.981s0.991,1.519,0.991,2.594
			c0,1.162-0.341,2.081-1.021,2.755C634.462,271.219,633.528,271.556,632.344,271.556z M632.398,265.869
			c-0.511,0-0.907,0.175-1.189,0.526s-0.424,0.848-0.424,1.49c0,1.344,0.542,2.017,1.627,2.017c1.034,0,1.552-0.69,1.552-2.071
			C633.964,266.522,633.442,265.869,632.398,265.869z"/>
		<path fill="#2F2F2F" d="M640.893,271.556c-1.167,0-2.084-0.327-2.751-0.981c-0.668-0.654-1.002-1.542-1.002-2.663
			c0-1.158,0.347-2.063,1.039-2.717s1.629-0.981,2.81-0.981c1.162,0,2.073,0.327,2.734,0.981s0.991,1.519,0.991,2.594
			c0,1.162-0.341,2.081-1.021,2.755C643.011,271.219,642.077,271.556,640.893,271.556z M640.947,265.869
			c-0.511,0-0.907,0.175-1.189,0.526s-0.424,0.848-0.424,1.49c0,1.344,0.542,2.017,1.627,2.017c1.034,0,1.552-0.69,1.552-2.071
			C642.513,266.522,641.991,265.869,640.947,265.869z"/>
		<path fill="#2F2F2F" d="M648.266,271.385h-2.16v-10.363h2.16V271.385z"/>
	</g>
	<g>
		<path fill="#2F2F2F" d="M839.936,109.512h-2.229l-4.04-6.159c-0.237-0.36-0.401-0.631-0.492-0.813h-0.027
			c0.036,0.346,0.055,0.875,0.055,1.586v5.387h-2.085v-9.803h2.379l3.89,5.968c0.178,0.269,0.342,0.536,0.492,0.8h0.027
			c-0.036-0.228-0.055-0.677-0.055-1.347v-5.421h2.085V109.512z"/>
		<path fill="#2F2F2F" d="M850.242,99.709l-3.377,9.803h-2.502l-3.336-9.803h2.379l2.044,6.822c0.109,0.369,0.176,0.695,0.198,0.978
			h0.041c0.032-0.305,0.103-0.64,0.212-1.005l2.03-6.795H850.242z"/>
		<path fill="#2F2F2F" d="M862.496,109.512h-2.181v-5.865c0-0.633,0.027-1.333,0.082-2.099h-0.055
			c-0.114,0.602-0.217,1.035-0.308,1.299l-2.297,6.665h-1.805l-2.338-6.597c-0.063-0.178-0.166-0.633-0.308-1.367h-0.062
			c0.06,0.966,0.089,1.814,0.089,2.543v5.421h-1.989v-9.803h3.233l2.003,5.811c0.159,0.465,0.275,0.932,0.349,1.401h0.041
			c0.123-0.542,0.253-1.014,0.39-1.415l2.003-5.797h3.151V109.512z"/>
	</g>
	<g>
		<path fill="#2F2F2F" d="M816.29,271.385v-9.803h3.568c1.094,0,1.935,0.201,2.522,0.602s0.882,0.966,0.882,1.695
			c0,0.529-0.179,0.991-0.537,1.388c-0.357,0.396-0.814,0.672-1.37,0.827v0.027c0.697,0.086,1.255,0.344,1.671,0.772
			c0.418,0.428,0.626,0.95,0.626,1.565c0,0.898-0.321,1.61-0.964,2.136s-1.52,0.79-2.632,0.79H816.29z M818.498,263.209v2.324h0.971
			c0.456,0,0.814-0.11,1.077-0.332c0.262-0.221,0.393-0.525,0.393-0.913c0-0.72-0.538-1.08-1.613-1.08H818.498z M818.498,267.174
			v2.584h1.196c0.511,0,0.91-0.119,1.199-0.355c0.29-0.237,0.435-0.561,0.435-0.971c0-0.392-0.143-0.7-0.427-0.923
			c-0.285-0.223-0.683-0.335-1.193-0.335H818.498z"/>
		<path fill="#2F2F2F" d="M833.176,267.14c0,2.944-1.372,4.416-4.115,4.416c-2.661,0-3.992-1.438-3.992-4.313v-5.66h2.215v5.688
			c0,1.586,0.62,2.379,1.859,2.379c1.217,0,1.825-0.766,1.825-2.297v-5.77h2.208V267.14z"/>
		<path fill="#2F2F2F" d="M840.876,263.38h-3.459v2.406h3.179v1.791h-3.179v3.808h-2.208v-9.803h5.667V263.38z"/>
		<path fill="#2F2F2F" d="M851.964,271.385h-2.044v-1.005h-0.027c-0.47,0.784-1.164,1.176-2.085,1.176
			c-0.679,0-1.214-0.192-1.603-0.578c-0.391-0.385-0.585-0.899-0.585-1.542c0-1.358,0.805-2.142,2.413-2.352l1.9-0.253
			c0-0.766-0.415-1.148-1.244-1.148c-0.834,0-1.627,0.249-2.379,0.745v-1.627c0.301-0.155,0.712-0.292,1.234-0.41
			c0.521-0.119,0.996-0.178,1.425-0.178c1.996,0,2.994,0.996,2.994,2.987V271.385z M849.934,268.542v-0.472l-1.271,0.164
			c-0.702,0.091-1.053,0.408-1.053,0.95c0,0.246,0.086,0.448,0.256,0.605c0.172,0.157,0.402,0.236,0.694,0.236
			c0.405,0,0.736-0.14,0.991-0.42S849.934,268.97,849.934,268.542z"/>
		<path fill="#2F2F2F" d="M858.227,266.333c-0.26-0.141-0.562-0.212-0.909-0.212c-0.47,0-0.836,0.172-1.101,0.516
			s-0.396,0.812-0.396,1.405v3.343h-2.16v-7h2.16v1.299h0.027c0.342-0.948,0.957-1.422,1.846-1.422c0.228,0,0.405,0.027,0.533,0.082
			V266.333z"/>
		<path fill="#2F2F2F" d="M863.785,266.333c-0.26-0.141-0.562-0.212-0.909-0.212c-0.47,0-0.836,0.172-1.101,0.516
			s-0.396,0.812-0.396,1.405v3.343h-2.16v-7h2.16v1.299h0.027c0.342-0.948,0.957-1.422,1.846-1.422c0.228,0,0.405,0.027,0.533,0.082
			V266.333z"/>
		<path fill="#2F2F2F" d="M870.51,271.385h-2.044v-1.005h-0.027c-0.47,0.784-1.164,1.176-2.085,1.176
			c-0.679,0-1.214-0.192-1.603-0.578c-0.391-0.385-0.585-0.899-0.585-1.542c0-1.358,0.805-2.142,2.413-2.352l1.9-0.253
			c0-0.766-0.415-1.148-1.244-1.148c-0.834,0-1.627,0.249-2.379,0.745v-1.627c0.301-0.155,0.712-0.292,1.234-0.41
			c0.521-0.119,0.996-0.178,1.425-0.178c1.996,0,2.994,0.996,2.994,2.987V271.385z M868.479,268.542v-0.472l-1.271,0.164
			c-0.702,0.091-1.053,0.408-1.053,0.95c0,0.246,0.086,0.448,0.256,0.605c0.172,0.157,0.402,0.236,0.694,0.236
			c0.405,0,0.736-0.14,0.991-0.42S868.479,268.97,868.479,268.542z"/>
		<path fill="#2F2F2F" d="M878.637,264.385l-2.844,7.561c-0.684,1.818-1.714,2.728-3.09,2.728c-0.524,0-0.955-0.059-1.292-0.178
			v-1.723c0.287,0.168,0.6,0.253,0.937,0.253c0.556,0,0.943-0.262,1.162-0.786l0.369-0.868l-2.844-6.986h2.393l1.306,4.259
			c0.082,0.264,0.146,0.577,0.191,0.937h0.027c0.041-0.264,0.116-0.572,0.226-0.923l1.319-4.272H878.637z"/>
	</g>
	<g>
		<path fill="#FFFFFF" d="M685.389,129.232h7.125v3.07h-11.18v-1.266c0-0.859,0.145-1.631,0.434-2.314s0.652-1.297,1.09-1.84
			s0.916-1.023,1.436-1.441s1.014-0.795,1.482-1.131c0.492-0.352,0.924-0.688,1.295-1.008s0.684-0.639,0.938-0.955
			s0.443-0.637,0.568-0.961s0.188-0.67,0.188-1.037c0-0.719-0.203-1.262-0.609-1.629s-1.027-0.551-1.863-0.551
			c-1.445,0-2.828,0.574-4.148,1.723v-3.258c1.461-0.945,3.109-1.418,4.945-1.418c0.852,0,1.615,0.111,2.291,0.334
			s1.248,0.541,1.717,0.955s0.826,0.916,1.072,1.506s0.369,1.248,0.369,1.975c0,0.773-0.119,1.461-0.357,2.062
			s-0.555,1.148-0.949,1.641s-0.85,0.943-1.365,1.354s-1.051,0.807-1.605,1.189c-0.375,0.266-0.736,0.529-1.084,0.791
			s-0.654,0.52-0.92,0.773s-0.477,0.502-0.633,0.744S685.389,129.014,685.389,129.232z"/>
	</g>
	<g>
		<rect x="781.8" y="222.618" fill="#FFFFFF" width="26" height="26"/>
		<rect x="781.8" y="222.618" opacity="0.6" fill="#FF7381" width="26" height="26"/>
		<rect x="781.8" y="222.618" fill="none" stroke="#110C00" stroke-width="0.5" width="26" height="26"/>
	</g>
	<g>
		<path fill="#3C3C41" d="M796.937,228.901v12.885h-2.769v-9.756c-0.152,0.135-0.333,0.262-0.54,0.382
			c-0.209,0.12-0.43,0.229-0.664,0.325s-0.478,0.179-0.729,0.246s-0.501,0.116-0.747,0.145v-2.338c0.721-0.211,1.4-0.48,2.039-0.809
			s1.216-0.688,1.731-1.081H796.937z"/>
	</g>
	<g>
		<rect x="807.8" y="222.618" fill="#FFFFFF" width="26" height="26"/>
		<rect x="807.8" y="222.618" opacity="0.9" fill="#B4EC36" width="26" height="26"/>
		<rect x="807.8" y="222.618" fill="none" stroke="#1B93EB" stroke-width="0.5" width="26" height="26"/>
	</g>
	<g>
		<rect x="833.8" y="222.618" fill="#FFFFFF" width="26" height="26"/>
		<rect x="833.8" y="222.618" fill="#198AB3" width="26" height="26"/>
		<rect x="833.8" y="222.618" fill="none" stroke="#1B93EB" stroke-width="0.5" width="26" height="26"/>
	</g>
	<g>
		<rect x="859.8" y="222.618" fill="#FFFFFF" width="26" height="26"/>
		<rect x="859.8" y="222.618" opacity="0.3" fill="#6BB9F2" width="26" height="26"/>
		<rect x="859.8" y="222.618" fill="none" stroke="#1B93EB" stroke-width="0.5" width="26" height="26"/>
	</g>
	<g>
		<rect x="885.8" y="222.618" fill="#FFFFFF" width="26" height="26"/>
		<rect x="885.8" y="222.618" opacity="0.3" fill="#6BB9F2" width="26" height="26"/>
		<rect x="885.8" y="222.618" fill="none" stroke="#1B93EB" stroke-width="0.5" width="26" height="26"/>
	</g>
	<g>
		<path fill="#2F2F2F" d="M668.68,227.607v-8.402h2.977c2.984,0,4.477,1.365,4.477,4.096c0,1.309-0.407,2.354-1.222,3.135
			s-1.899,1.172-3.255,1.172H668.68z M670.572,220.746v5.326h0.938c0.82,0,1.464-0.246,1.931-0.738s0.7-1.162,0.7-2.01
			c0-0.801-0.231-1.431-0.694-1.89s-1.112-0.688-1.948-0.688H670.572z"/>
		<path fill="#2F2F2F" d="M684.534,227.607h-2.174l-1.307-2.162c-0.098-0.164-0.191-0.311-0.281-0.439s-0.181-0.239-0.272-0.331
			s-0.188-0.162-0.287-0.211s-0.208-0.073-0.325-0.073h-0.51v3.217h-1.893v-8.402h3c2.039,0,3.059,0.762,3.059,2.285
			c0,0.293-0.045,0.563-0.135,0.812s-0.217,0.472-0.381,0.671s-0.362,0.371-0.595,0.516s-0.491,0.258-0.776,0.34v0.023
			c0.125,0.039,0.246,0.103,0.363,0.19s0.23,0.19,0.34,0.308s0.214,0.243,0.313,0.378s0.19,0.267,0.272,0.396L684.534,227.607z
			 M679.378,220.623v2.338h0.82c0.406,0,0.732-0.117,0.979-0.352c0.25-0.238,0.375-0.533,0.375-0.885
			c0-0.734-0.439-1.102-1.318-1.102H679.378z"/>
		<path fill="#2F2F2F" d="M693.203,227.607h-2.062l-0.598-1.869h-2.988l-0.592,1.869h-2.051l3.059-8.402h2.244L693.203,227.607z
			 M690.109,224.285l-0.902-2.824c-0.066-0.211-0.113-0.463-0.141-0.756h-0.047c-0.02,0.246-0.068,0.49-0.146,0.732l-0.914,2.848
			H690.109z"/>
		<path fill="#2F2F2F" d="M703.733,227.607h-1.869v-5.027c0-0.543,0.023-1.143,0.07-1.799h-0.047
			c-0.098,0.516-0.186,0.887-0.264,1.113l-1.969,5.713h-1.547l-2.004-5.654c-0.055-0.152-0.143-0.543-0.264-1.172h-0.053
			c0.051,0.828,0.076,1.555,0.076,2.18v4.646h-1.705v-8.402h2.771l1.717,4.98c0.137,0.398,0.236,0.799,0.299,1.201h0.035
			c0.105-0.465,0.217-0.869,0.334-1.213l1.717-4.969h2.701V227.607z"/>
	</g>
	<g>
		<rect x="493.6" y="7.294" fill="none" width="470.8" height="23.594"/>
		<path fill="#2F2F2F" d="M597.153,20.614V8.011h3.445c0.521,0,0.991,0.07,1.41,0.211s0.776,0.338,1.072,0.593
			s0.523,0.561,0.682,0.918S604,10.483,604,10.911c0,0.363-0.05,0.703-0.149,1.02s-0.243,0.605-0.431,0.866s-0.417,0.486-0.69,0.677
			c-0.271,0.19-0.581,0.341-0.927,0.453v0.035c0.422,0.041,0.806,0.144,1.151,0.308s0.642,0.378,0.888,0.642
			s0.437,0.573,0.571,0.927s0.202,0.743,0.202,1.165c0,0.533-0.097,1.021-0.29,1.463s-0.465,0.823-0.812,1.143
			c-0.35,0.319-0.764,0.567-1.244,0.743s-1.011,0.264-1.591,0.264H597.153z M598.322,9.083v4.474h1.635
			c0.428,0,0.814-0.056,1.16-0.167s0.642-0.272,0.888-0.483s0.436-0.466,0.566-0.765c0.133-0.299,0.198-0.636,0.198-1.011
			c0-1.365-0.85-2.048-2.549-2.048H598.322z M598.322,14.611v4.939h2.171c0.932,0,1.648-0.218,2.148-0.655
			c0.502-0.437,0.752-1.056,0.752-1.859c0-1.617-1.099-2.426-3.296-2.426H598.322z"/>
		<path fill="#2F2F2F" d="M612.846,20.614v-1.529h-0.035c-0.609,1.16-1.556,1.74-2.839,1.74c-2.139,0-3.208-1.307-3.208-3.92v-5.291
			h1.125v5.08c0,1.078,0.191,1.875,0.575,2.391s0.972,0.773,1.763,0.773c0.387,0,0.739-0.075,1.06-0.224
			c0.318-0.149,0.594-0.36,0.826-0.633c0.23-0.272,0.411-0.599,0.54-0.98s0.193-0.803,0.193-1.266v-5.142h1.125v9H612.846z"/>
		<path fill="#2F2F2F" d="M620.932,8.354c-0.252-0.164-0.577-0.246-0.976-0.246c-1.055,0-1.582,0.688-1.582,2.065v1.441h2.241v0.984
			h-2.241v8.016h-1.125v-8.016h-1.573v-0.984h1.573v-1.512c0-0.451,0.058-0.86,0.171-1.226c0.115-0.366,0.283-0.68,0.506-0.94
			s0.502-0.461,0.84-0.602c0.336-0.141,0.725-0.211,1.164-0.211c0.422,0,0.756,0.056,1.002,0.167V8.354z"/>
		<path fill="#2F2F2F" d="M626.838,8.354c-0.252-0.164-0.577-0.246-0.976-0.246c-1.055,0-1.582,0.688-1.582,2.065v1.441h2.241v0.984
			h-2.241v8.016h-1.125v-8.016h-1.573v-0.984h1.573v-1.512c0-0.451,0.058-0.86,0.171-1.226c0.115-0.366,0.283-0.68,0.506-0.94
			s0.502-0.461,0.84-0.602c0.336-0.141,0.725-0.211,1.164-0.211c0.422,0,0.756,0.056,1.002,0.167V8.354z"/>
		<path fill="#2F2F2F" d="M628.343,16.316c0.006,0.551,0.079,1.046,0.22,1.485s0.343,0.812,0.606,1.116s0.584,0.538,0.963,0.699
			c0.377,0.161,0.804,0.242,1.278,0.242c1.014,0,1.972-0.354,2.874-1.063v1.107c-0.861,0.615-1.904,0.923-3.129,0.923
			c-0.604,0-1.151-0.105-1.644-0.316s-0.911-0.517-1.257-0.918s-0.612-0.895-0.8-1.481s-0.281-1.254-0.281-2.004
			c0-0.674,0.103-1.298,0.308-1.872s0.489-1.071,0.853-1.49s0.794-0.747,1.292-0.984s1.043-0.356,1.635-0.356
			c0.58,0,1.093,0.101,1.538,0.303s0.818,0.491,1.12,0.866s0.532,0.832,0.69,1.371s0.237,1.143,0.237,1.811v0.562H628.343z
			 M633.687,15.332c-0.018-0.938-0.24-1.664-0.668-2.18s-1.022-0.773-1.784-0.773c-0.381,0-0.733,0.067-1.06,0.202
			c-0.324,0.135-0.61,0.33-0.856,0.584s-0.45,0.565-0.61,0.932c-0.162,0.366-0.274,0.778-0.339,1.235H633.687z"/>
		<path fill="#2F2F2F" d="M641.432,12.766c-0.264-0.193-0.604-0.29-1.02-0.29c-0.299,0-0.562,0.057-0.791,0.171
			s-0.43,0.268-0.603,0.461s-0.319,0.417-0.439,0.672s-0.217,0.52-0.289,0.795c-0.074,0.275-0.127,0.554-0.158,0.835
			c-0.033,0.281-0.049,0.548-0.049,0.8v4.403h-1.116v-9h1.116v1.925h0.035c0.105-0.328,0.238-0.623,0.4-0.883
			c0.16-0.261,0.347-0.48,0.558-0.659s0.44-0.315,0.69-0.409c0.248-0.094,0.511-0.141,0.786-0.141c0.182,0,0.344,0.012,0.487,0.035
			s0.274,0.059,0.392,0.105V12.766z"/>
		<path fill="#2F2F2F" d="M649.122,19.164v5.59h-1.125v-13.14h1.125v1.723h0.035c0.334-0.627,0.78-1.106,1.341-1.437
			c0.559-0.331,1.19-0.497,1.894-0.497c0.574,0,1.088,0.104,1.542,0.312s0.838,0.502,1.152,0.883
			c0.312,0.381,0.553,0.844,0.721,1.389c0.166,0.545,0.25,1.157,0.25,1.837c0,0.744-0.094,1.422-0.281,2.035
			s-0.457,1.138-0.809,1.578s-0.777,0.781-1.279,1.024c-0.5,0.243-1.064,0.365-1.691,0.365c-1.266,0-2.212-0.554-2.839-1.661
			H649.122z M649.122,16.87c0,0.41,0.068,0.795,0.206,1.156s0.33,0.677,0.576,0.949s0.543,0.488,0.893,0.646
			c0.348,0.158,0.733,0.237,1.155,0.237c0.451,0,0.858-0.095,1.222-0.286s0.672-0.461,0.928-0.813
			c0.254-0.352,0.45-0.776,0.588-1.274s0.207-1.055,0.207-1.67c0-0.527-0.064-1.003-0.193-1.428s-0.312-0.787-0.549-1.085
			c-0.238-0.299-0.525-0.527-0.861-0.686c-0.338-0.158-0.714-0.237-1.13-0.237c-0.469,0-0.891,0.086-1.266,0.259
			s-0.694,0.409-0.958,0.708s-0.466,0.649-0.606,1.05s-0.211,0.828-0.211,1.279V16.87z"/>
		<path fill="#2F2F2F" d="M662.014,20.825c-0.668,0-1.268-0.111-1.797-0.334c-0.531-0.223-0.983-0.538-1.358-0.945
			s-0.662-0.895-0.861-1.463s-0.299-1.198-0.299-1.89c0-0.75,0.105-1.421,0.316-2.013s0.511-1.094,0.901-1.507
			c0.389-0.413,0.859-0.728,1.41-0.945s1.166-0.325,1.846-0.325c0.65,0,1.236,0.107,1.758,0.321s0.964,0.523,1.327,0.927
			s0.642,0.896,0.835,1.477s0.29,1.239,0.29,1.978c0,0.703-0.101,1.343-0.304,1.92c-0.201,0.577-0.49,1.074-0.865,1.49
			s-0.832,0.738-1.371,0.967S662.693,20.825,662.014,20.825z M662.102,12.379c-0.492,0-0.938,0.085-1.336,0.255
			s-0.74,0.417-1.023,0.743c-0.285,0.325-0.503,0.724-0.655,1.195s-0.229,1.006-0.229,1.604c0,0.562,0.076,1.069,0.229,1.521
			s0.367,0.838,0.646,1.16s0.617,0.57,1.016,0.743s0.844,0.259,1.336,0.259c0.504,0,0.949-0.083,1.336-0.25s0.715-0.41,0.984-0.729
			s0.473-0.71,0.611-1.173c0.137-0.463,0.206-0.99,0.206-1.582c0-1.213-0.27-2.14-0.809-2.782S663.104,12.379,662.102,12.379z"/>
		<path fill="#2F2F2F" d="M672.297,20.825c-0.668,0-1.268-0.111-1.797-0.334c-0.531-0.223-0.983-0.538-1.358-0.945
			s-0.662-0.895-0.861-1.463s-0.299-1.198-0.299-1.89c0-0.75,0.105-1.421,0.316-2.013s0.511-1.094,0.901-1.507
			c0.389-0.413,0.859-0.728,1.41-0.945s1.166-0.325,1.846-0.325c0.65,0,1.236,0.107,1.758,0.321s0.964,0.523,1.327,0.927
			s0.642,0.896,0.835,1.477s0.29,1.239,0.29,1.978c0,0.703-0.101,1.343-0.304,1.92c-0.201,0.577-0.49,1.074-0.865,1.49
			s-0.832,0.738-1.371,0.967S672.977,20.825,672.297,20.825z M672.385,12.379c-0.492,0-0.938,0.085-1.336,0.255
			s-0.74,0.417-1.023,0.743c-0.285,0.325-0.503,0.724-0.655,1.195s-0.229,1.006-0.229,1.604c0,0.562,0.076,1.069,0.229,1.521
			s0.367,0.838,0.646,1.16s0.617,0.57,1.016,0.743s0.844,0.259,1.336,0.259c0.504,0,0.949-0.083,1.336-0.25s0.715-0.41,0.984-0.729
			s0.473-0.71,0.611-1.173c0.137-0.463,0.206-0.99,0.206-1.582c0-1.213-0.27-2.14-0.809-2.782S673.387,12.379,672.385,12.379z"/>
		<path fill="#2F2F2F" d="M678.829,20.614V7.29h1.125v13.324H678.829z"/>
		<path fill="#2F2F2F" d="M687.513,11.614h1.09l0.51,7.075v0.105v0.123l-0.035,0.466h0.062c0.094-0.299,0.202-0.568,0.325-0.809
			l3.674-6.961h0.888l0.519,7.233l-0.044,0.545h0.07c0.094-0.322,0.199-0.592,0.316-0.809l3.472-6.97h1.143l-4.667,9h-1.046
			l-0.536-6.574l-0.018-0.334l0.035-0.51h-0.035c-0.029,0.082-0.072,0.189-0.128,0.321s-1.299,2.498-3.73,7.097h-1.055
			L687.513,11.614z"/>
		<path fill="#2F2F2F" d="M701.062,11.614h1.116l-1.345,6.337c-0.117,0.598-0.176,1.011-0.176,1.239
			c0,0.416,0.226,0.624,0.677,0.624c0.27,0,0.513-0.041,0.729-0.123l-0.185,0.896c-0.293,0.117-0.606,0.176-0.94,0.176
			c-0.457,0-0.808-0.119-1.05-0.356c-0.244-0.237-0.365-0.584-0.365-1.042c0-0.322,0.067-0.806,0.202-1.45L701.062,11.614z
			 M702.267,9.355c-0.223,0-0.412-0.081-0.566-0.242c-0.156-0.161-0.233-0.35-0.233-0.567c0-0.229,0.079-0.415,0.237-0.558
			s0.346-0.215,0.562-0.215s0.404,0.072,0.562,0.215s0.237,0.33,0.237,0.558s-0.081,0.42-0.241,0.576
			C702.663,9.278,702.478,9.355,702.267,9.355z"/>
		<path fill="#2F2F2F" d="M705.16,12.572h-1.573l0.22-0.958h1.547l0.483-2.276l1.187-0.36l-0.562,2.637h2.347l-0.22,0.958h-2.329
			l-1.116,5.247c-0.105,0.475-0.158,0.861-0.158,1.16c0,0.293,0.062,0.507,0.185,0.642s0.328,0.202,0.615,0.202
			c0.275,0,0.724-0.138,1.345-0.413l-0.22,1.002c-0.199,0.1-0.438,0.186-0.717,0.259s-0.517,0.11-0.716,0.11
			c-1.078,0-1.617-0.557-1.617-1.67c0-0.346,0.056-0.762,0.167-1.248L705.16,12.572z"/>
		<path fill="#2F2F2F" d="M711.374,7.29h1.099l-1.415,6.662h0.035c1.072-1.705,2.271-2.558,3.595-2.558
			c0.75,0,1.312,0.212,1.688,0.637s0.562,1.039,0.562,1.841c0,0.082-0.012,0.205-0.035,0.369s-0.059,0.388-0.105,0.672
			s-0.439,2.184-1.178,5.7h-1.116l1.081-5.221c0.146-0.68,0.22-1.143,0.22-1.389c0-1.096-0.475-1.644-1.424-1.644
			c-0.475,0-0.99,0.198-1.547,0.593s-1.043,0.904-1.459,1.525s-0.688,1.242-0.817,1.863l-0.914,4.271h-1.116L711.374,7.29z"/>
		<path fill="#2F2F2F" d="M730.358,20.614v-5.291c0-1.008-0.182-1.75-0.545-2.228s-0.929-0.716-1.696-0.716
			c-0.363,0-0.709,0.073-1.037,0.22s-0.615,0.357-0.861,0.633s-0.442,0.611-0.589,1.006s-0.22,0.842-0.22,1.34v5.036h-1.125V7.29
			h1.125v5.88h0.035c0.703-1.178,1.711-1.767,3.023-1.767c1.002,0,1.755,0.308,2.259,0.923s0.756,1.523,0.756,2.725v5.563H730.358z"
			/>
		<path fill="#2F2F2F" d="M736.509,22.249c-0.352,0.879-0.756,1.531-1.213,1.956s-1.011,0.637-1.661,0.637
			c-0.322,0-0.595-0.038-0.817-0.114v-1.055c0.129,0.047,0.26,0.082,0.391,0.105c0.133,0.023,0.266,0.035,0.4,0.035
			c0.369,0,0.689-0.116,0.963-0.347c0.271-0.231,0.508-0.582,0.707-1.05l0.782-1.846l-3.463-8.956h1.248l2.575,7.128
			c0.035,0.094,0.068,0.201,0.102,0.321c0.031,0.12,0.062,0.239,0.092,0.356h0.044c0.029-0.1,0.058-0.201,0.083-0.303
			c0.027-0.103,0.063-0.215,0.11-0.338l2.733-7.163h1.187L736.509,22.249z"/>
		<path fill="#2F2F2F" d="M743.462,19.164v1.45h-1.125V7.29h1.125v6.047h0.035c0.334-0.627,0.78-1.106,1.341-1.437
			c0.559-0.331,1.19-0.497,1.894-0.497c0.574,0,1.088,0.104,1.542,0.312s0.838,0.505,1.152,0.892
			c0.312,0.387,0.553,0.853,0.721,1.397c0.166,0.545,0.25,1.151,0.25,1.819c0,0.744-0.096,1.422-0.285,2.035
			c-0.191,0.612-0.462,1.138-0.813,1.578s-0.778,0.781-1.278,1.024c-0.502,0.243-1.062,0.365-1.684,0.365
			c-1.271,0-2.218-0.554-2.839-1.661H743.462z M743.462,16.87c0,0.41,0.068,0.795,0.206,1.156s0.33,0.677,0.576,0.949
			s0.543,0.488,0.893,0.646c0.348,0.158,0.733,0.237,1.155,0.237c0.451,0,0.858-0.095,1.222-0.286s0.672-0.461,0.928-0.813
			c0.254-0.352,0.45-0.776,0.588-1.274s0.207-1.055,0.207-1.67c0-0.527-0.064-1.003-0.193-1.428s-0.312-0.787-0.549-1.085
			c-0.238-0.299-0.525-0.527-0.861-0.686c-0.338-0.158-0.714-0.237-1.13-0.237c-0.469,0-0.891,0.086-1.266,0.259
			s-0.694,0.409-0.958,0.708s-0.466,0.649-0.606,1.05s-0.211,0.828-0.211,1.279V16.87z"/>
		<path fill="#2F2F2F" d="M757.014,12.766c-0.264-0.193-0.604-0.29-1.02-0.29c-0.299,0-0.562,0.057-0.791,0.171
			s-0.43,0.268-0.603,0.461s-0.319,0.417-0.439,0.672s-0.217,0.52-0.289,0.795c-0.074,0.275-0.127,0.554-0.158,0.835
			c-0.033,0.281-0.049,0.548-0.049,0.8v4.403h-1.116v-9h1.116v1.925h0.035c0.105-0.328,0.238-0.623,0.4-0.883
			c0.16-0.261,0.347-0.48,0.558-0.659s0.44-0.315,0.69-0.409c0.248-0.094,0.511-0.141,0.786-0.141c0.182,0,0.344,0.012,0.487,0.035
			s0.274,0.059,0.392,0.105V12.766z"/>
		<path fill="#2F2F2F" d="M759.168,9.338c-0.217,0-0.404-0.076-0.562-0.229s-0.237-0.346-0.237-0.58
			c0-0.229,0.079-0.417,0.237-0.567s0.346-0.224,0.562-0.224c0.111,0,0.217,0.019,0.316,0.057s0.186,0.092,0.26,0.163
			c0.072,0.07,0.131,0.154,0.176,0.25c0.043,0.097,0.065,0.204,0.065,0.321c0,0.111-0.021,0.217-0.062,0.316s-0.1,0.186-0.176,0.259
			s-0.162,0.13-0.26,0.171C759.393,9.317,759.285,9.338,759.168,9.338z M758.614,20.614v-9h1.125v9H758.614z"/>
		<path fill="#2F2F2F" d="M768.793,20.614v-1.582h-0.035c-0.299,0.568-0.726,1.009-1.278,1.323c-0.555,0.313-1.183,0.47-1.886,0.47
			c-0.562,0-1.074-0.104-1.534-0.312s-0.854-0.508-1.182-0.901s-0.582-0.867-0.76-1.424c-0.18-0.557-0.269-1.187-0.269-1.89
			c0-0.727,0.098-1.39,0.294-1.991s0.475-1.116,0.836-1.547c0.359-0.431,0.793-0.765,1.301-1.002
			c0.506-0.237,1.07-0.356,1.691-0.356c1.295,0,2.224,0.519,2.786,1.556h0.035V7.29h1.125v13.324H768.793z M768.793,15.183
			c0-0.393-0.067-0.759-0.202-1.099s-0.322-0.636-0.562-0.888s-0.529-0.451-0.865-0.598c-0.338-0.146-0.708-0.22-1.112-0.22
			c-0.445,0-0.855,0.088-1.23,0.264s-0.696,0.429-0.962,0.76c-0.268,0.331-0.475,0.734-0.625,1.208
			c-0.148,0.475-0.224,1.014-0.224,1.617c0,0.568,0.067,1.078,0.202,1.529s0.326,0.832,0.576,1.143
			c0.248,0.311,0.546,0.548,0.892,0.712s0.729,0.246,1.151,0.246c0.457,0,0.868-0.082,1.234-0.246s0.678-0.39,0.932-0.677
			c0.256-0.287,0.451-0.624,0.59-1.011c0.137-0.387,0.206-0.8,0.206-1.239V15.183z"/>
		<path fill="#2F2F2F" d="M778.874,19.164v1.45h-1.125V7.29h1.125v6.047h0.035c0.334-0.627,0.78-1.106,1.341-1.437
			c0.559-0.331,1.19-0.497,1.894-0.497c0.574,0,1.088,0.104,1.542,0.312s0.838,0.505,1.152,0.892
			c0.312,0.387,0.553,0.853,0.721,1.397c0.166,0.545,0.25,1.151,0.25,1.819c0,0.744-0.096,1.422-0.285,2.035
			c-0.191,0.612-0.462,1.138-0.813,1.578s-0.778,0.781-1.278,1.024c-0.502,0.243-1.062,0.365-1.684,0.365
			c-1.271,0-2.218-0.554-2.839-1.661H778.874z M778.874,16.87c0,0.41,0.068,0.795,0.206,1.156s0.33,0.677,0.576,0.949
			s0.543,0.488,0.893,0.646c0.348,0.158,0.733,0.237,1.155,0.237c0.451,0,0.858-0.095,1.222-0.286s0.672-0.461,0.928-0.813
			c0.254-0.352,0.45-0.776,0.588-1.274s0.207-1.055,0.207-1.67c0-0.527-0.064-1.003-0.193-1.428s-0.312-0.787-0.549-1.085
			c-0.238-0.299-0.525-0.527-0.861-0.686c-0.338-0.158-0.714-0.237-1.13-0.237c-0.469,0-0.891,0.086-1.266,0.259
			s-0.694,0.409-0.958,0.708s-0.466,0.649-0.606,1.05s-0.211,0.828-0.211,1.279V16.87z"/>
		<path fill="#2F2F2F" d="M793.922,20.614v-1.529h-0.035c-0.609,1.16-1.556,1.74-2.839,1.74c-2.139,0-3.208-1.307-3.208-3.92v-5.291
			h1.125v5.08c0,1.078,0.191,1.875,0.575,2.391s0.972,0.773,1.763,0.773c0.387,0,0.739-0.075,1.06-0.224
			c0.318-0.149,0.594-0.36,0.826-0.633c0.23-0.272,0.411-0.599,0.54-0.98s0.193-0.803,0.193-1.266v-5.142h1.125v9H793.922z"/>
		<path fill="#2F2F2F" d="M802.008,8.354c-0.252-0.164-0.577-0.246-0.976-0.246c-1.055,0-1.582,0.688-1.582,2.065v1.441h2.241v0.984
			h-2.241v8.016h-1.125v-8.016h-1.573v-0.984h1.573v-1.512c0-0.451,0.058-0.86,0.171-1.226c0.115-0.366,0.283-0.68,0.506-0.94
			s0.502-0.461,0.84-0.602c0.336-0.141,0.725-0.211,1.164-0.211c0.422,0,0.756,0.056,1.002,0.167V8.354z"/>
		<path fill="#2F2F2F" d="M807.915,8.354c-0.252-0.164-0.577-0.246-0.976-0.246c-1.055,0-1.582,0.688-1.582,2.065v1.441h2.241v0.984
			h-2.241v8.016h-1.125v-8.016h-1.573v-0.984h1.573v-1.512c0-0.451,0.058-0.86,0.171-1.226c0.115-0.366,0.283-0.68,0.506-0.94
			s0.502-0.461,0.84-0.602c0.336-0.141,0.725-0.211,1.164-0.211c0.422,0,0.756,0.056,1.002,0.167V8.354z"/>
		<path fill="#2F2F2F" d="M809.42,16.316c0.006,0.551,0.079,1.046,0.22,1.485s0.343,0.812,0.606,1.116s0.584,0.538,0.963,0.699
			c0.377,0.161,0.804,0.242,1.278,0.242c1.014,0,1.972-0.354,2.874-1.063v1.107c-0.861,0.615-1.904,0.923-3.129,0.923
			c-0.604,0-1.151-0.105-1.644-0.316s-0.911-0.517-1.257-0.918s-0.612-0.895-0.8-1.481s-0.281-1.254-0.281-2.004
			c0-0.674,0.103-1.298,0.308-1.872s0.489-1.071,0.853-1.49s0.794-0.747,1.292-0.984s1.043-0.356,1.635-0.356
			c0.58,0,1.093,0.101,1.538,0.303s0.818,0.491,1.12,0.866s0.532,0.832,0.69,1.371s0.237,1.143,0.237,1.811v0.562H809.42z
			 M814.764,15.332c-0.018-0.938-0.24-1.664-0.668-2.18s-1.022-0.773-1.784-0.773c-0.381,0-0.733,0.067-1.06,0.202
			c-0.324,0.135-0.61,0.33-0.856,0.584s-0.45,0.565-0.61,0.932c-0.162,0.366-0.274,0.778-0.339,1.235H814.764z"/>
		<path fill="#2F2F2F" d="M822.508,12.766c-0.264-0.193-0.604-0.29-1.02-0.29c-0.299,0-0.562,0.057-0.791,0.171
			s-0.43,0.268-0.603,0.461s-0.319,0.417-0.439,0.672s-0.217,0.52-0.289,0.795c-0.074,0.275-0.127,0.554-0.158,0.835
			c-0.033,0.281-0.049,0.548-0.049,0.8v4.403h-1.116v-9h1.116v1.925h0.035c0.105-0.328,0.238-0.623,0.4-0.883
			c0.16-0.261,0.347-0.48,0.558-0.659s0.44-0.315,0.69-0.409c0.248-0.094,0.511-0.141,0.786-0.141c0.182,0,0.344,0.012,0.487,0.035
			s0.274,0.059,0.392,0.105V12.766z"/>
		<path fill="#2F2F2F" d="M830.198,19.164v5.59h-1.125v-13.14h1.125v1.723h0.035c0.334-0.627,0.78-1.106,1.341-1.437
			c0.559-0.331,1.19-0.497,1.894-0.497c0.574,0,1.088,0.104,1.542,0.312s0.838,0.502,1.152,0.883
			c0.312,0.381,0.553,0.844,0.721,1.389c0.166,0.545,0.25,1.157,0.25,1.837c0,0.744-0.094,1.422-0.281,2.035
			s-0.457,1.138-0.809,1.578s-0.777,0.781-1.279,1.024c-0.5,0.243-1.064,0.365-1.691,0.365c-1.266,0-2.212-0.554-2.839-1.661
			H830.198z M830.198,16.87c0,0.41,0.068,0.795,0.206,1.156s0.33,0.677,0.576,0.949s0.543,0.488,0.893,0.646
			c0.348,0.158,0.733,0.237,1.155,0.237c0.451,0,0.858-0.095,1.222-0.286s0.672-0.461,0.928-0.813
			c0.254-0.352,0.45-0.776,0.588-1.274s0.207-1.055,0.207-1.67c0-0.527-0.064-1.003-0.193-1.428s-0.312-0.787-0.549-1.085
			c-0.238-0.299-0.525-0.527-0.861-0.686c-0.338-0.158-0.714-0.237-1.13-0.237c-0.469,0-0.891,0.086-1.266,0.259
			s-0.694,0.409-0.958,0.708s-0.466,0.649-0.606,1.05s-0.211,0.828-0.211,1.279V16.87z"/>
		<path fill="#2F2F2F" d="M843.091,20.825c-0.668,0-1.268-0.111-1.797-0.334c-0.531-0.223-0.983-0.538-1.358-0.945
			s-0.662-0.895-0.861-1.463s-0.299-1.198-0.299-1.89c0-0.75,0.105-1.421,0.316-2.013s0.511-1.094,0.901-1.507
			c0.389-0.413,0.859-0.728,1.41-0.945s1.166-0.325,1.846-0.325c0.65,0,1.236,0.107,1.758,0.321s0.964,0.523,1.327,0.927
			s0.642,0.896,0.835,1.477s0.29,1.239,0.29,1.978c0,0.703-0.101,1.343-0.304,1.92c-0.201,0.577-0.49,1.074-0.865,1.49
			s-0.832,0.738-1.371,0.967S843.771,20.825,843.091,20.825z M843.179,12.379c-0.492,0-0.938,0.085-1.336,0.255
			s-0.74,0.417-1.023,0.743c-0.285,0.325-0.503,0.724-0.655,1.195s-0.229,1.006-0.229,1.604c0,0.562,0.076,1.069,0.229,1.521
			s0.367,0.838,0.646,1.16s0.617,0.57,1.016,0.743s0.844,0.259,1.336,0.259c0.504,0,0.949-0.083,1.336-0.25s0.715-0.41,0.984-0.729
			s0.473-0.71,0.611-1.173c0.137-0.463,0.206-0.99,0.206-1.582c0-1.213-0.27-2.14-0.809-2.782S844.181,12.379,843.179,12.379z"/>
		<path fill="#2F2F2F" d="M853.373,20.825c-0.668,0-1.268-0.111-1.797-0.334c-0.531-0.223-0.983-0.538-1.358-0.945
			s-0.662-0.895-0.861-1.463s-0.299-1.198-0.299-1.89c0-0.75,0.105-1.421,0.316-2.013s0.511-1.094,0.901-1.507
			c0.389-0.413,0.859-0.728,1.41-0.945s1.166-0.325,1.846-0.325c0.65,0,1.236,0.107,1.758,0.321s0.964,0.523,1.327,0.927
			s0.642,0.896,0.835,1.477s0.29,1.239,0.29,1.978c0,0.703-0.101,1.343-0.304,1.92c-0.201,0.577-0.49,1.074-0.865,1.49
			s-0.832,0.738-1.371,0.967S854.053,20.825,853.373,20.825z M853.461,12.379c-0.492,0-0.938,0.085-1.336,0.255
			s-0.74,0.417-1.023,0.743c-0.285,0.325-0.503,0.724-0.655,1.195s-0.229,1.006-0.229,1.604c0,0.562,0.076,1.069,0.229,1.521
			s0.367,0.838,0.646,1.16s0.617,0.57,1.016,0.743s0.844,0.259,1.336,0.259c0.504,0,0.949-0.083,1.336-0.25s0.715-0.41,0.984-0.729
			s0.473-0.71,0.611-1.173c0.137-0.463,0.206-0.99,0.206-1.582c0-1.213-0.27-2.14-0.809-2.782S854.463,12.379,853.461,12.379z"/>
		<path fill="#2F2F2F" d="M859.906,20.614V7.29h1.125v13.324H859.906z"/>
	</g>
	<g>
		<path fill="#FFFFFF" d="M845.477,239.483h5.344v2.303h-8.385v-0.949c0-0.645,0.108-1.223,0.325-1.736s0.489-0.973,0.817-1.38
			s0.687-0.768,1.077-1.081c0.389-0.313,0.76-0.596,1.111-0.848c0.369-0.264,0.692-0.516,0.971-0.756s0.513-0.479,0.703-0.716
			s0.333-0.478,0.427-0.721s0.141-0.502,0.141-0.778c0-0.539-0.152-0.946-0.457-1.222s-0.771-0.413-1.397-0.413
			c-1.084,0-2.121,0.431-3.111,1.292v-2.443c1.096-0.709,2.332-1.063,3.709-1.063c0.639,0,1.211,0.083,1.719,0.25
			c0.506,0.167,0.936,0.406,1.287,0.716s0.619,0.687,0.805,1.129c0.184,0.442,0.276,0.936,0.276,1.481
			c0,0.58-0.09,1.096-0.269,1.547s-0.416,0.861-0.711,1.23c-0.297,0.369-0.638,0.708-1.024,1.015s-0.788,0.605-1.204,0.892
			c-0.281,0.199-0.553,0.397-0.812,0.593c-0.262,0.196-0.491,0.39-0.69,0.58s-0.357,0.376-0.475,0.558
			S845.477,239.319,845.477,239.483z"/>
	</g>
	<g>
		<path fill="#3C3C41" d="M816.693,241.373v-2.417c0.844,0.615,1.828,0.923,2.953,0.923c0.709,0,1.261-0.152,1.657-0.457
			c0.395-0.305,0.593-0.729,0.593-1.274c0-0.562-0.245-0.996-0.733-1.301c-0.49-0.305-1.162-0.457-2.018-0.457h-1.169v-2.127h1.081
			c1.641,0,2.461-0.545,2.461-1.635c0-1.025-0.63-1.538-1.89-1.538c-0.844,0-1.664,0.272-2.461,0.817v-2.268
			c0.885-0.445,1.916-0.668,3.094-0.668c1.289,0,2.292,0.29,3.011,0.87c0.717,0.58,1.076,1.333,1.076,2.259
			c0,1.646-0.835,2.678-2.505,3.094v0.044c0.891,0.111,1.594,0.435,2.109,0.971s0.773,1.194,0.773,1.973
			c0,1.178-0.431,2.109-1.292,2.795s-2.051,1.028-3.568,1.028C818.565,242.006,817.508,241.795,816.693,241.373z"/>
	</g>
</g>
<g id="Layer_1">
	<g>
	</g>
	<g>
	</g>
	<g>
	</g>
	<g>
	</g>
	<g>
	</g>
	<g>
	</g>
	<g>
	</g>
	<g>
	</g>
	<g>
	</g>
	<g>
	</g>
	<g>
	</g>
	<g>
	</g>
	<g>
	</g>
	<g>
	</g>
	<g>
	</g>
	<g>
	</g>
	<g>
	</g>
	<g>
	</g>
	<g>
	</g>
	<g>
	</g>
	<g>
	</g>
	<g>
	</g>
	<g>
	</g>
	<g>
	</g>
	<g>
	</g>
	<g>
	</g>
	<g>
	</g>
	<g>
	</g>
	<g>
	</g>
	<g>
	</g>
	<g>
	</g>
	<g>
	</g>
	<g>
	</g>
	<g>
	</g>
	<g>
	</g>
	<g>
	</g>
	<g>
	</g>
</g>
</svg>
