<svg xmlns="http://www.w3.org/2000/svg" viewBox="0 0 298 110">
  <title>3 - business-continuity</title>
  <g id="background_blue" data-name="background blue">
    <rect width="298" height="110" fill="#e4edf1"/>
  </g>
  <g id="Shapes">
    <g>
      <path d="M134.691,19.58,128.8,15.392l-4.881,5.469,4.417-5.807L126.174,13.5l-4.341,6.418,3.4-6.689-3.71,1.221-1.934,4.119,1.237-3.917-2.633.877L116.26,31.606l-.619.6,8.124,5.132,7.433-4.255h0l.854-2.771,1.239-4.053,1.4-4.795a2.956,2.956,0,0,0-3.411,1.759l-2.088,6.01-3.411,1.21-.464-5.6L128.96,18.5l1.933,1.416A2.987,2.987,0,0,0,134.691,19.58Z" fill="#f6caa7"/>
      <polygon points="114.866 31.74 112.469 34.708 121.913 40.653 124.389 37.748 114.866 31.74" fill="#fff"/>
      <path d="M122.3,40.857,112.16,34.5c-11.308,14.188-9.057,33.162,4.412,45.117a11.053,11.053,0,0,1,4.957-1.146,13.34,13.34,0,0,1,2.864.336,13.144,13.144,0,0,1,3.8-4.726C116.569,66.183,113.939,51.659,122.3,40.857Z" fill="#0078d7"/>
      <path d="M118.2,42.677a1,1,0,0,0,1.08-.9l0-.039a1.008,1.008,0,0,0-1-1.015q-.042,0-.084,0a1.035,1.035,0,0,0-1.157.894.936.936,0,0,0-.008.118C117.033,42.273,117.5,42.677,118.2,42.677Z" fill="#40cdf5"/>
      <path d="M166.815,76.45h0l-.854,2.775-1.237,4.053-1.392,4.789a2.951,2.951,0,0,0,3.4-1.754l2.1-6.015,3.4-1.21.466,5.67-3.637,6.284-1.941-1.423a2.974,2.974,0,0,0-3.791.336l5.887,4.189,4.952-5.471-4.488,5.814,2.167,1.551,4.412-6.419-3.563,6.69,3.8-1.215,1.933-4.118-1.236,3.917,2.633-.884,2.007-16.071.542-.614-8.129-5.131Z" fill="#f6caa7"/>
      <path d="M175.955,25.792a47.875,47.875,0,0,0-5.578-2.833v12.9c11.146,8.041,13.55,22.22,5.344,32.821l10.14,6.351C198.558,59.024,194.227,37.074,175.955,25.792Z" fill="#0078d7"/>
      <path d="M179.825,66.859a1,1,0,0,0-1.082.9l0,.041a1.008,1.008,0,0,0,1,1.015c.029,0,.057,0,.085,0a.992.992,0,1,0,0-1.956Z" fill="#40cdf5"/>
      <rect x="141.807" y="12.216" width="13.319" height="25.194" fill="#004880"/>
      <path d="M144.133,14.045s-.925,0-.925.74v.135s0,.742.925.742h8.672s.925,0,.925-.742v-.134s0-.74-.925-.74h-8.672Z" fill="#409ae1"/>
      <path d="M144.133,16.878s-.925,0-.925.743v.134s0,.747.925.747h8.672s.925,0,.925-.747v-.134s0-.743-.925-.743Z" fill="#409ae1"/>
      <path d="M144.133,19.716s-.925,0-.925.742v.134s0,.743.925.743h8.672s.925,0,.925-.743v-.134s0-.742-.925-.742Z" fill="#409ae1"/>
      <path d="M144.133,22.621s-.925,0-.925.676v.136s0,.742.925.742h8.672s.925,0,.925-.742V23.3s0-.676-.925-.676h-8.672Z" fill="#409ae1"/>
      <path d="M144.133,25.387s-.925,0-.925.743v.134s0,.747.925.747h8.672s.925,0,.925-.747V26.13s0-.743-.925-.743Z" fill="#409ae1"/>
      <path d="M144.133,28.227s-.925,0-.925.742v.2s0,.674.925.674h8.672s.925,0,.925-.674v-.2s0-.742-.925-.742Z" fill="#409ae1"/>
      <path d="M144.133,31.064s-.925,0-.925.742v.135s0,.742.925.742h8.672s.925,0,.925-.742v-.135s0-.742-.925-.742Z" fill="#409ae1"/>
      <path d="M144.133,33.9s-.925,0-.925.741v.134s0,.749.925.749h8.672s.925,0,.925-.749v-.134s0-.741-.925-.741Z" fill="#409ae1"/>
      <path d="M152.263,15.259a.448.448,0,1,0,.021-.879l-.021,0a.549.549,0,0,0-.539.472C151.724,15.055,152.032,15.259,152.263,15.259Z" fill="#40cdf5"/>
      <path d="M152.263,18.167a.5.5,0,0,0,.541-.462V17.69a.547.547,0,0,0-.542-.473.618.618,0,0,0-.539.473A.553.553,0,0,0,152.263,18.167Z" fill="#40cdf5"/>
      <path d="M152.263,21a.476.476,0,0,0,.127-.944.45.45,0,0,0-.127,0,.476.476,0,1,0,0,.944Z" fill="#40cdf5"/>
      <path d="M152.263,23.768c.309,0,.542-.135.542-.405a.5.5,0,0,0-.523-.471h-.019a.548.548,0,0,0-.539.47C151.724,23.633,152.032,23.768,152.263,23.768Z" fill="#40cdf5"/>
      <path d="M152.263,26.607c.309,0,.542-.142.542-.411s-.233-.4-.542-.4c-.231,0-.539.134-.539.4S152.032,26.607,152.263,26.607Z" fill="#40cdf5"/>
      <path d="M152.263,29.508a.449.449,0,1,0,.191-.877.44.44,0,0,0-.191,0c-.231,0-.539.2-.539.4A.549.549,0,0,0,152.263,29.508Z" fill="#40cdf5"/>
      <path d="M152.263,32.346a.448.448,0,1,0,.191-.875.44.44,0,0,0-.191,0c-.231,0-.539.2-.539.4A.548.548,0,0,0,152.263,32.346Z" fill="#40cdf5"/>
      <path d="M152.263,35.185a.5.5,0,0,0,.541-.462v-.015a.5.5,0,0,0-.542-.405c-.231,0-.539.2-.539.405A.553.553,0,0,0,152.263,35.185Z" fill="#40cdf5"/>
      <rect x="157.06" y="12.216" width="13.319" height="25.194" fill="#004880"/>
      <path d="M159.386,14.045s-.853,0-.853.74v.135a.768.768,0,0,0,.788.747c.022,0,.044,0,.065,0h8.749s.854,0,.854-.742v-.134a.765.765,0,0,0-.783-.745c-.024,0-.048,0-.071,0h-8.749Z" fill="#409ae1"/>
      <path d="M159.386,16.878s-.853,0-.853.743v.134a.77.77,0,0,0,.789.752c.022,0,.043,0,.064-.005h8.749s.854,0,.854-.747v-.134a.768.768,0,0,0-.784-.748l-.07,0Z" fill="#409ae1"/>
      <path d="M159.386,19.716s-.853,0-.853.742v.134a.767.767,0,0,0,.788.747c.022,0,.044,0,.065,0h8.749s.854,0,.854-.743v-.134a.767.767,0,0,0-.784-.747.536.536,0,0,0-.07.005Z" fill="#409ae1"/>
      <path d="M159.386,22.621s-.853,0-.853.676v.136a.768.768,0,0,0,.788.747c.022,0,.044,0,.065,0h8.749s.854,0,.854-.742V23.3s0-.676-.854-.676h-8.749Z" fill="#409ae1"/>
      <path d="M159.386,25.387s-.853,0-.853.743v.134a.77.77,0,0,0,.789.752c.022,0,.043,0,.064,0h8.749s.854,0,.854-.747V26.13a.768.768,0,0,0-.784-.748l-.07,0Z" fill="#409ae1"/>
      <path d="M159.386,28.227s-.853,0-.853.742v.2s0,.674.853.674h8.749s.854,0,.854-.674v-.2a.767.767,0,0,0-.784-.747.536.536,0,0,0-.07,0Z" fill="#409ae1"/>
      <path d="M159.386,31.064s-.853,0-.853.742v.135a.768.768,0,0,0,.788.747l.065-.005h8.749s.854,0,.854-.742v-.135a.767.767,0,0,0-.784-.747c-.024,0-.047,0-.07,0Z" fill="#409ae1"/>
      <path d="M159.386,33.9s-.853,0-.853.741v.134a.773.773,0,0,0,.79.754c.021,0,.042,0,.063-.005h8.749s.854,0,.854-.749v-.134a.766.766,0,0,0-.783-.746l-.071.005Z" fill="#409ae1"/>
      <path d="M167.6,15.259a.474.474,0,0,0,.464-.405.479.479,0,0,0-.464-.472.5.5,0,0,0-.545.446l0,.026A.5.5,0,0,0,167.6,15.259Z" fill="#40cdf5"/>
      <path d="M167.6,18.167a.483.483,0,0,0,.464-.477.533.533,0,0,0-.464-.473.547.547,0,0,0-.547.473.5.5,0,0,0,.526.479Z" fill="#40cdf5"/>
      <path d="M167.6,21a.477.477,0,1,0-.137,0A.524.524,0,0,0,167.6,21Z" fill="#40cdf5"/>
      <path d="M167.6,23.768a.422.422,0,0,0,.462-.378l0-.027a.478.478,0,0,0-.464-.47.5.5,0,0,0-.545.446l0,.024C167.047,23.633,167.278,23.768,167.6,23.768Z" fill="#40cdf5"/>
      <path d="M167.6,26.607a.411.411,0,1,0,.108-.815.391.391,0,0,0-.108,0c-.317,0-.547.134-.547.4S167.278,26.607,167.6,26.607Z" fill="#40cdf5"/>
      <path d="M167.6,29.508a.479.479,0,0,0,.464-.472.47.47,0,0,0-.464-.4.45.45,0,1,0-.2.877.441.441,0,0,0,.2,0Z" fill="#40cdf5"/>
      <path d="M167.6,32.346a.478.478,0,0,0,.464-.471.47.47,0,0,0-.464-.4.449.449,0,0,0-.2.875A.468.468,0,0,0,167.6,32.346Z" fill="#40cdf5"/>
      <path d="M167.6,35.185a.484.484,0,0,0,.464-.477.47.47,0,0,0-.464-.405.45.45,0,1,0-.021.883Z" fill="#40cdf5"/>
      <path d="M113.011,92.119a8.25,8.25,0,0,1-1.628-4.794c0-4.93,4.566-8.847,10.141-8.847a13.34,13.34,0,0,1,2.864.336c2.174-4.727,7.51-8.037,13.706-8.037,7.9,0,14.4,5.4,14.79,12.158,4.176.071,7.509,3.04,7.509,6.75a5.578,5.578,0,0,1-.54,2.436Z" fill="#b1e1f2"/>
      <polygon points="183.074 77.735 185.555 74.829 175.955 68.815 173.55 71.789 183.074 77.735" fill="#fff"/>
      <path d="M146.224,9.991c-3.8-.882-7.742.946-8.826,4.191a5.594,5.594,0,0,0,.233,4.053l-3.954,1.752L129.5,21.808s-.773.336-.388,1.016v.135a.9.9,0,0,0,1.239.269l8.206-3.579a7.019,7.019,0,0,0,3.636,2.225c3.721.95,7.666-.877,8.753-4.187C152.109,14.45,149.937,11,146.224,9.991Z" fill="#0078d7"/>
      <path d="M151.8,99.551c3.791.877,7.742-.95,8.824-4.188a5.6,5.6,0,0,0-.233-4.056l3.945-1.759,4.185-1.82s.772-.338.464-1.012l-.077-.135a.831.831,0,0,0-1.143-.28l-.017.011-8.284,3.575a7.415,7.415,0,0,0-3.642-2.228c-3.715-.943-7.665.878-8.748,4.19C145.991,95.094,148.079,98.532,151.8,99.551Z" fill="#0078d7"/>
      <path d="M155.515,88.606c-3.173-.878-6.506.742-7.436,3.513s.93,5.67,4.03,6.481c3.172.815,6.5-.742,7.433-3.509C160.547,92.319,158.685,89.415,155.515,88.606Z" fill="#002050"/>
      <path d="M150.167,15.933c0,2.905-2.71,5.2-5.958,5.2-3.333,0-6.042-2.294-6.042-5.2,0-2.838,2.709-5.2,6.042-5.2C147.462,10.733,150.167,13.1,150.167,15.933Z" fill="#002050"/>
      <path d="M138.946,16.067c-.155,0-.234.071-.234.2v.742h-.387V14.786a4.132,4.132,0,0,0,.157,2.562h.464c.076,0,.231,0,.231-.2v-.876C139.176,16.136,139.1,16.067,138.946,16.067Zm3.015-4.388c-.154,0-.154.066-.154.2v.743h-.465V11.342a1.722,1.722,0,0,1-.387.2v1.078h-.619c-.154,0-.23,0-.23.2,0,.066.076.135.23.135h1.625c.155,0,.234-.071.234-.135V11.88C142.2,11.745,142.2,11.679,141.961,11.679Zm-.154,5.337H140.57V14.854h1.237Zm0-2.5H140.57c-.233,0-.464.135-.464.338v2.159c0,.2.231.336.464.336h1.237a.345.345,0,0,0,.385-.3.231.231,0,0,0,0-.037V14.854a.344.344,0,0,0-.348-.34l-.04,0Zm0,4.391H140.57c-.233,0-.464.135-.464.338v.539c.155.067.309.2.464.27v-.812h1.237v1.484c.078.071.233.071.388.134V19.245a.344.344,0,0,0-.348-.341l-.04,0Zm3.022-8.177v1.89h-1.314v-1.89a.636.636,0,0,1-.385.072v1.818a.343.343,0,0,0,.347.34l.038,0h1.314a.344.344,0,0,0,.385-.3.28.28,0,0,0,0-.04V10.8A.645.645,0,0,1,144.829,10.733Zm.155,5.338c-.155,0-.155.071-.155.2v.742h-.462v-2.5h-1.006c-.155,0-.231.072-.231.2s.076.134.231.134h.614v2.159h-.618c-.154,0-.231,0-.231.134,0,.2.077.2.231.2h1.625c.154,0,.233,0,.233-.2v-.876c0-.135-.075-.2-.23-.2Zm-.155,2.839h-1.314a.345.345,0,0,0-.383.3c0,.013,0,.025,0,.038v1.82a3.873,3.873,0,0,1,.385.067v-1.89h1.314v1.886a.968.968,0,0,0,.388-.066v-1.82a.344.344,0,0,0-.348-.341l-.04,0Zm3.018-7.093v.806h-.464V11.545c-.154-.071-.233-.135-.387-.2v1.281h-.619c-.078,0-.233,0-.233.2,0,.066.154.134.233.134h1.7a.156.156,0,0,0,.155-.134v-.743Zm0,5.2h-1.314V14.854h1.315Zm0-2.5h-1.314a.345.345,0,0,0-.385.3.256.256,0,0,0,0,.039v2.159a.344.344,0,0,0,.35.338l.038,0h1.315a.345.345,0,0,0,.383-.3c0-.012,0-.025,0-.037V14.854a.344.344,0,0,0-.347-.34l-.037,0Zm-1.469,4.391c-.078,0-.234.071-.234.2s.155.134.234.134H147v1.281c.155,0,.234-.134.388-.2V18.909Zm3.248-4.053h.388a.536.536,0,0,0-.078-.338h-.309a.345.345,0,0,0-.385.3.256.256,0,0,0,0,.039v2.159a.345.345,0,0,0,.351.338l.037,0h.309c0-.135.078-.2.078-.336h-.388Z" fill="#f3f3f3"/>
      <path d="M157.757,96.576c-.234,0-.464.135-.464.338v.875a1.649,1.649,0,0,0,.464-.27v-.606h.618a.7.7,0,0,0,.309-.338Zm1.234-1.889h-1.234V92.523h1.234Zm0-2.5h-1.234c-.234,0-.464.135-.464.338v2.164c0,.2.23.338.464.338h1.234a.348.348,0,0,0,.39-.3l0-.041V92.523a.348.348,0,0,0-.353-.34.269.269,0,0,0-.04,0Zm-.854-2.231V90.3h-.619c-.154,0-.23,0-.23.137s.076.2.23.2h1.245a5.328,5.328,0,0,0-.62-.68Zm-3.4,8.785a7.968,7.968,0,0,0,1.239-.274Zm1.239-2.163h-1.234c-.231,0-.464.135-.464.338v1.894c.154,0,.309-.071.464-.071V96.911h1.239v1.552a1.389,1.389,0,0,1,.385-.135V96.912a.344.344,0,0,0-.349-.338l-.036,0Zm.154-2.839c-.154,0-.154.071-.154.134v.816h-.388v-2.5h-1.077c-.155,0-.234,0-.234.2,0,.134.078.134.234.134h.618v2.164h-.618c-.155,0-.234,0-.234.134s.078.2.234.2h1.624c.076,0,.231-.071.231-.2v-.95c0-.066-.076-.134-.23-.134Zm-.154-5V90.3h-1.234V88.471a1.1,1.1,0,0,0-.464-.071v1.894c0,.2.233.338.464.338h1.239a.344.344,0,0,0,.382-.3.243.243,0,0,0,0-.038V88.871c-.076-.064-.23-.064-.385-.13Zm-2.864,9.386c-.076,0-.23.072-.23.2v.409c.154,0,.308.071.464.071v-.477c.005-.138-.074-.207-.228-.207Zm-1.624-1.551c-.077,0-.234.071-.234.135,0,.2.157.2.234.2h.618V98.6h0c.154,0,.309.071.464.071v-2.1Zm1.624-2.839c-.076,0-.23.071-.23.134v.816h-.307v-2.5H151.49c-.076,0-.233,0-.233.2,0,.134.157.134.233.134h.619v2.164h-.619c-.076,0-.233,0-.233.134s.157.2.233.2h1.625c.154,0,.233-.071.233-.2v-.95c0-.066-.079-.134-.233-.134Zm-.23-5.338v1.894h-1.155V88.737a1.222,1.222,0,0,0-.466.135V90.3c0,.2.233.338.466.338h1.16c.231,0,.464-.134.464-.338v-1.89Zm-3.018,8.177h-.931a1.655,1.655,0,0,0,.309.338h.622v.606a1.6,1.6,0,0,0,.464.269v-.874C150.325,96.711,150.091,96.576,149.861,96.576Zm.23-2.839c-.154,0-.23.071-.23.134v.816h-.388v-2.5h-1.006c-.077,0-.234,0-.234.2,0,.134.157.134.234.134h.618v2.164h-.618c-.077,0-.234,0-.234.134s.157.2.234.2h1.624c.155,0,.234-.071.234-.2v-.95C150.325,93.805,150.246,93.737,150.091,93.737Zm.155-4.322c-.077.071-.231.134-.385.27V90.3h-.388v-.274a4.051,4.051,0,0,0-.543.612h1.161c.155,0,.234-.067.234-.2V89.55C150.325,89.483,150.325,89.415,150.246,89.415Z" fill="#f3f3f3"/>
    </g>
  </g>
</svg>
