<svg xmlns="http://www.w3.org/2000/svg" viewBox="0 0 298 110">
  <title>3 - database-design</title>
  <g id="background_blue" data-name="background blue">
    <rect width="298" height="110" fill="#e4edf1"/>
  </g>
  <g id="Shapes">
    <circle cx="187.393" cy="40.817" r="25.457" transform="translate(146.381 228.168) rotate(-89.94)" fill="#d2d2d2" stroke="#fff" stroke-linecap="round" stroke-linejoin="round" stroke-width="0.066" opacity="0.8" style="isolation: isolate"/>
    <path d="M98.553,63.81l-4.591-.641c-.328-.977-.328-1.954-.649-2.923l3.934-2.275a1.19,1.19,0,0,0,.7-1.533c-.014-.037-.03-.074-.047-.109l-1.306-2.6c0-.649-.649-.977-1.306-.977l-4.557,1.3a7.077,7.077,0,0,0-1.643-2.6l2.6-3.9a.985.985,0,0,0,0-1.3L89.413,43.97a.994.994,0,0,0-1.306,0l-3.876,2.595c-.649-.649-1.643-.977-2.275-1.642l.977-4.55c.329-.328,0-.977-.649-1.3l-2.6-.977a1.428,1.428,0,0,0-1.642.328l-2.275,3.9c-.978-.329-1.955-.329-3.285-.649L71.83,37.13a1.036,1.036,0,0,0-.977-.978H67.568a1.034,1.034,0,0,0-.977.978l-.551,4.582c-.977.328-1.954.328-2.931.649l-2.275-3.9c-.329-.649-.977-.649-1.643-.649l-2.931,1.3c-.329,0-.649.648-.649,1.3l1.306,4.55a7.079,7.079,0,0,0-2.6,1.642L50.4,44A.994.994,0,0,0,49.1,44l-2.274,2.274a.986.986,0,0,0,0,1.3L49.4,51.492c-.648.649-.977,1.642-1.642,2.275L43.2,52.79c-.328-.329-.977,0-1.306.648l-1.314,2.579c0,.649,0,1.3.649,1.642l3.909,2.275c-.328.977-.328,2.275-.649,3.285l-4.525.591a1.035,1.035,0,0,0-.977.977v3.285a.862.862,0,0,0,.73.977.852.852,0,0,0,.247,0l4.558.649a9.476,9.476,0,0,0,.649,2.923L41.264,74.9a1.19,1.19,0,0,0-.7,1.533c.014.037.03.074.047.109l1.306,2.874c0,.329.649.649,1.306.649l4.557-1.3a7.085,7.085,0,0,0,1.643,2.6l-2.6,3.9a1.454,1.454,0,0,0,0,1.643L49.1,88.864c.329.329.978.649,1.306.329l3.909-2.924a5.856,5.856,0,0,0,2.275,1.643l-.977,4.549c-.329.328,0,.977.649,1.3l2.578,1.257c.649,0,1.306,0,1.643-.649l2.274-3.884a9.65,9.65,0,0,0,3.285.649l.649,4.549a1.035,1.035,0,0,0,.977.977h3.285a1.035,1.035,0,0,0,.978-.977l.648-4.549a9.525,9.525,0,0,0,2.932-.649l2.275,3.9a1.19,1.19,0,0,0,1.533.7.967.967,0,0,0,.109-.047l2.932-1.3c.329,0,.649-.649.649-1.3l-1.363-4.557a7.085,7.085,0,0,0,2.6-1.643l3.909,2.924c.329.328.977,0,1.306-.329l2.275-1.954a1.454,1.454,0,0,0,0-1.643l-2.6-3.9a13.763,13.763,0,0,0,1.643-2.275l4.558,1.3a1.741,1.741,0,0,0,1.3-.978l1.306-2.6c0-.648,0-1.3-.649-1.642l-3.909-2.275c.329-.977.329-1.954.649-3.284l4.558-.649a.862.862,0,0,0,.977-.73.852.852,0,0,0,0-.247V64.664A1.034,1.034,0,0,0,98.553,63.81ZM87.811,71.291a1.495,1.495,0,0,1-2.275.977L78.047,67.39c-.978-.328-.978-1.3,0-1.954l7.489-4.878a1.642,1.642,0,0,1,2.192.769,1.554,1.554,0,0,1,.083.208,23.668,23.668,0,0,1,.649,4.878A19.935,19.935,0,0,1,87.811,71.291ZM85.857,56.657a1.5,1.5,0,0,1-.978,2.275l-8.787,1.954c-.977.329-1.642-.328-1.306-1.3l1.93-8.77c.329-1.3,1.306-1.643,2.275-.977A21.44,21.44,0,0,1,82.9,52.765a21.443,21.443,0,0,1,2.932,3.9ZM64.4,47.567a23.806,23.806,0,0,1,4.878-.649,23.806,23.806,0,0,1,4.878.649,1.5,1.5,0,0,1,.961,2.283l-4.878,7.8c-.649.977-1.643.977-1.955,0L63.4,49.85a1.495,1.495,0,0,1,1-2.283Zm9.764,18.887a4.927,4.927,0,1,1-4.216-4.216A4.882,4.882,0,0,1,74.162,66.454ZM59.471,49.521a1.494,1.494,0,0,1,2.274.977L63.7,59.277c.328.977-.329,1.642-1.643,1.642L53.6,58.645c-1.306-.329-1.643-1.3-.978-2.275a11.754,11.754,0,0,1,2.932-3.9A21.486,21.486,0,0,1,59.471,49.521ZM50.38,70.971a19.887,19.887,0,0,1-.649-4.878,23.668,23.668,0,0,1,.649-4.878,1.4,1.4,0,0,1,2.274-.649l7.81,4.55a1.248,1.248,0,0,1,0,2.274l-7.81,4.558C51.677,72.6,50.7,72.276,50.38,70.971Zm1.954,5.2a1.437,1.437,0,0,1,.977-2.275L62.1,71.619c.978-.328,1.643.329,1.643,1.643l-2.3,8.762a1.643,1.643,0,0,1-2.067,1.06A1.7,1.7,0,0,1,59.167,83a21.457,21.457,0,0,1-3.909-2.924,48.334,48.334,0,0,1-2.932-3.9Zm21.483,8.778a20.026,20.026,0,0,1-4.878.649,23.806,23.806,0,0,1-4.878-.649,1.641,1.641,0,0,1-1.056-2.068,1.673,1.673,0,0,1,.071-.182l4.878-7.481c.649-.977,1.642-.977,1.954,0L74.786,82.7c.649.977.329,1.954-.977,2.275ZM78.7,82.993c-.978.648-1.955.328-2.275-.978l-1.955-8.762c-.328-.977.329-1.642,1.643-1.3L84.9,73.91a1.643,1.643,0,0,1,1.06,2.067,1.7,1.7,0,0,1-.083.208,21.478,21.478,0,0,1-2.932,3.9,33.726,33.726,0,0,1-4.229,2.923Z" fill="#d2d2d2"/>
    <polygon points="120.94 94.194 98.832 56.009 120.94 17.824 165.163 17.824 187.27 56.009 165.163 94.194 120.94 94.194" fill="#f3f8d6" stroke="#bad80a" stroke-miterlimit="10" stroke-width="1.642"/>
    <circle cx="229.005" cy="53.956" r="29.974" fill="#d1e55c"/>
    <path d="M203.166,82.382l-1.507-.286a6.11,6.11,0,0,0-.117-1.062l1.284-.758a.4.4,0,0,0,.255-.5l-.011-.029-.34-.939a.34.34,0,0,0-.433-.208.306.306,0,0,0-.049.022l-1.534.26-.451-.838.929-1.12a.41.41,0,0,0,0-.531l-.722-.8a.491.491,0,0,0-.531,0l-1.236.812c-.266-.175-.579-.4-.844-.583l.409-1.555a.372.372,0,0,0-.2-.446l-.907-.419a.346.346,0,0,0-.478.1.282.282,0,0,0-.021.038l-.876,1.321a3.112,3.112,0,0,0-.965-.265l-.149-1.528a.37.37,0,0,0-.344-.4h-1.052c-.164-.059-.334.095-.392.254l-.345,1.56a3.217,3.217,0,0,0-.987.17l-.754-1.39a.529.529,0,0,0-.483-.186l-1,.393a.365.365,0,0,0-.239.424l.313,1.486c-.276.149-.563.409-.844.563l-1.2-.982a.35.35,0,0,0-.489.032l-.472.43-.265.244h0a.349.349,0,0,0-.069.477l.865,1.306a4.443,4.443,0,0,0-.637.9l-1.5-.5a.484.484,0,0,0-.5.25l-.424.907a.472.472,0,0,0,.2.531l1.268.817c-.122.324-.137.647-.265.971l-1.528.148a.479.479,0,0,0-.345.42l-.043.976a.472.472,0,0,0,.3.451l1.592.234a6.41,6.41,0,0,0,.164,1.093l-1.416.769a.345.345,0,0,0-.2.443.287.287,0,0,0,.018.04l.339.939a.532.532,0,0,0,.478.292l1.539-.366.451.838-.982,1.2a.532.532,0,0,0,.032.493l.727.791a.407.407,0,0,0,.483.079l1.295-.87c.265.175.578.409.844.584l-.393,1.507a.366.366,0,0,0,.2.44l.955.478a.469.469,0,0,0,.5-.143l.817-1.269c.329,0,.648.138.972.154l.09,1.592a.472.472,0,0,0,.419.345l1.03.1a.655.655,0,0,0,.4-.361l.291-1.512c.382-.037.711-.133,1.094-.17l.7,1.337a.377.377,0,0,0,.483.186l.939-.34a.444.444,0,0,0,.3-.477l-.313-1.481a3.819,3.819,0,0,0,.844-.562l1.205.982a.366.366,0,0,0,.517.013l.013-.013.679-.621.059-.053a.362.362,0,0,0,.021-.542l-.865-1.294a2.662,2.662,0,0,0,.637-.892l1.5.5a.37.37,0,0,0,.44-.2l.483-.955a.533.533,0,0,0-.143-.5l-1.322-.876a2.707,2.707,0,0,0,.207-.918l1.592-.2c.165-.048.335-.2.34-.313l.048-1.061a.372.372,0,0,0-.355-.388Zm-9.913,2.9a2.6,2.6,0,1,1,.005,0Z" fill="#80def9"/>
    <g>
      <path d="M111.561,39.035a22.739,22.739,0,1,1,0-.231Q111.563,38.92,111.561,39.035Z" fill="#50e6ff"/>
      <path d="M111.561,39.035a22.741,22.741,0,0,1-6.808,16.259l-32.307-32.3a22.846,22.846,0,0,1,39.123,16.046Z" fill="#aae9fb"/>
    </g>
    <g>
      <path d="M88.435,22.127h0a6.98,6.98,0,0,1,6.981,6.98v4.927a6.98,6.98,0,0,1-6.981,6.98h0a6.98,6.98,0,0,1-6.98-6.98V29.107A6.98,6.98,0,0,1,88.435,22.127Z" fill="none" stroke="#2e6ca4" stroke-miterlimit="10" stroke-width="1.642"/>
      <path d="M99.522,51.311a1.01,1.01,0,0,1-1.018,1H77.538a1.01,1.01,0,0,1-1.019-1h0V35.249a1.011,1.011,0,0,1,1.019-1H98.487a1.01,1.01,0,0,1,1.018,1h0Z" fill="#fff"/>
      <path d="M99.842,35.381V51.87L82.276,34.313h16.5a1.068,1.068,0,0,1,1.067,1.068Z" fill="#e5e5e5"/>
      <path d="M99.522,51.311a1.01,1.01,0,0,1-1.018,1H77.538a1.01,1.01,0,0,1-1.019-1h0V35.249a1.011,1.011,0,0,1,1.019-1H98.487a1.01,1.01,0,0,1,1.018,1h0Z" fill="none" stroke="#2e6ca4" stroke-miterlimit="10" stroke-width="1.642"/>
    </g>
    <g>
      <g>
        <path d="M243.565,49.79a8.018,8.018,0,0,0,1.856-8.479l-3.758,3.743-4.271-.472-.473-4.26,3.753-3.747A8.034,8.034,0,0,0,230.319,46.9L213.666,63.517a2.682,2.682,0,0,0,0,3.788l.473.472a2.7,2.7,0,0,0,3.8,0l16.47-16.425A8.067,8.067,0,0,0,243.565,49.79Z" fill="#fff" stroke="#2e6ca4" stroke-miterlimit="10" stroke-width="1.016"/>
        <polygon points="214.612 63.517 216.985 61.151 220.307 64.464 217.934 66.83 214.612 63.517" fill="#e5e5e5"/>
      </g>
      <g>
        <path d="M233.019,52.944l-2.492,2.485-9.966-9.939-.422-3.433-6.061-3.043L212.085,41l2.99,5.963,3.488.507,9.966,9.94-2.5,2.49,2.491,2.484,1.5-1.49c.936.933,1.068,3.042.6,3.585l5.8,5.781c1.525,1.521,4.042,2.084,5.059,1.07l2.99-2.982c1.017-1.014.234-3.742-1.307-5.279l-5.593-5.578c-.509.507-2.624.365-3.559-.568l1.494-1.491Z" fill="#2e6ca4"/>
        <polygon points="231.525 61.39 232.521 60.396 240.992 68.844 239.996 69.838 231.525 61.39" fill="#fff"/>
        <polygon points="233.519 59.405 234.515 58.412 242.986 66.86 241.99 67.853 233.519 59.405" fill="#fff"/>
      </g>
    </g>
    <g>
      <rect x="123.69" y="31.009" width="41.247" height="50" fill-opacity="0"/>
      <rect x="125.702" y="31.009" width="37.626" height="50" fill-opacity="0"/>
      <path d="M125.7,37.85V74.168c0,3.722,8.45,6.841,18.812,6.841V37.85Z" fill="#0072c6"/>
      <path d="M144.213,81.009h.3c10.463,0,18.813-3.019,18.813-6.841V37.85H144.213V81.009Z" fill="#0072c6"/>
      <path d="M144.213,81.009h.3c10.463,0,18.813-3.019,18.813-6.841V37.85H144.213V81.009Z" fill="#fff" opacity="0.15" style="isolation: isolate"/>
      <path d="M163.327,37.85c0,3.722-8.45,6.841-18.813,6.841S125.7,41.673,125.7,37.85c0-3.723,8.45-6.841,18.812-6.841S163.327,34.127,163.327,37.85Z" fill="#fff"/>
      <path d="M159.5,37.548c0,2.414-6.74,4.426-14.99,4.426s-14.989-2.012-14.989-4.426c0-2.515,6.74-4.527,14.989-4.527S159.5,35.033,159.5,37.548Z" fill="#7fba00"/>
      <path d="M156.386,40.264c2.012-.8,3.118-1.71,3.118-2.716,0-2.515-6.74-4.527-14.99-4.527s-14.989,2.012-14.989,4.527c0,1.006,1.207,2.012,3.118,2.716,2.717-1.106,7.042-1.71,11.871-1.71A31.888,31.888,0,0,1,156.386,40.264Z" fill="#b8d432"/>
      <rect x="123.69" y="48.111" width="41.247" height="22.133" fill-opacity="0"/>
      <path d="M131.22,63.8V61.445a4.6,4.6,0,0,0,1.392.81,4.528,4.528,0,0,0,1.518.265,3.318,3.318,0,0,0,.781-.081,1.828,1.828,0,0,0,.56-.221,1.015,1.015,0,0,0,.339-.339.861.861,0,0,0,.111-.427.919.919,0,0,0-.177-.553,1.867,1.867,0,0,0-.487-.449,4.824,4.824,0,0,0-.722-.4q-.42-.192-.906-.39A4.647,4.647,0,0,1,131.78,58.4a2.759,2.759,0,0,1-.6-1.8,2.749,2.749,0,0,1,1.231-2.395,4.02,4.02,0,0,1,1.326-.56,6.66,6.66,0,0,1,1.592-.184,9.148,9.148,0,0,1,1.459.1,5.587,5.587,0,0,1,1.179.3v2.2a3.467,3.467,0,0,0-.582-.324,4.107,4.107,0,0,0-.641-.229,4.79,4.79,0,0,0-.664-.14,4.657,4.657,0,0,0-.619-.044,3.1,3.1,0,0,0-.736.081,1.818,1.818,0,0,0-.56.214,1.049,1.049,0,0,0-.354.339.774.774,0,0,0-.125.435.853.853,0,0,0,.14.479,1.693,1.693,0,0,0,.4.4,4.687,4.687,0,0,0,.627.369c.245.118.523.241.832.368a8.632,8.632,0,0,1,1.135.568,3.934,3.934,0,0,1,.87.67,2.621,2.621,0,0,1,.552.862,3.407,3.407,0,0,1-.147,2.609,2.723,2.723,0,0,1-.906.972,4,4,0,0,1-1.341.531,7.687,7.687,0,0,1-1.607.162,9.043,9.043,0,0,1-1.658-.147A5.038,5.038,0,0,1,131.22,63.8Zm13.41.589a4.923,4.923,0,0,1-3.7-1.474,5.33,5.33,0,0,1-1.429-3.853,5.7,5.7,0,0,1,1.451-4.053,5.01,5.01,0,0,1,3.847-1.547,4.78,4.78,0,0,1,3.654,1.481,5.432,5.432,0,0,1,1.4,3.905,5.6,5.6,0,0,1-1.451,4.016c-.035.034-.067.069-.1.1s-.061.059-.1.088l2.675,2.572h-3.331l-1.4-1.422A5.913,5.913,0,0,1,144.63,64.392Zm.1-8.879a2.4,2.4,0,0,0-1.989.943,3.9,3.9,0,0,0-.737,2.483,3.839,3.839,0,0,0,.737,2.483,2.359,2.359,0,0,0,1.93.914,2.386,2.386,0,0,0,1.953-.884,3.838,3.838,0,0,0,.722-2.468,4.138,4.138,0,0,0-.7-2.557A2.27,2.27,0,0,0,144.733,55.513Zm13.175,8.7h-6.293V53.642H154v8.635h3.913Z" fill="#fff"/>
    </g>
  </g>
</svg>
