<svg xmlns="http://www.w3.org/2000/svg" viewBox="0 0 50 45.102">
  <title>download-sql-server</title>
  <g id="Shapes">
    <polygon points="42.768 11.996 42.768 0 37.946 0 37.946 11.996 30.713 4.764 30.713 11.996 40.357 21.64 50 11.996 50 4.764 42.768 11.996" fill="#75757a" opacity="0.5"/>
    <g>
      <rect y="1.189" width="36.226" height="43.913" fill-opacity="0"/>
      <rect x="1.767" y="1.189" width="33.045" height="43.913" fill-opacity="0"/>
      <path d="M1.767,7.2v31.9c0,3.269,7.422,6.008,16.523,6.008V7.2Z" fill="#0072c6"/>
      <path d="M18.025,45.1h.265c9.189,0,16.522-2.651,16.522-6.008V7.2H18.025V45.1Z" fill="#0072c6"/>
      <path d="M18.025,45.1h.265c9.189,0,16.522-2.651,16.522-6.008V7.2H18.025V45.1Z" fill="#fff" opacity="0.15" style="isolation: isolate"/>
      <path d="M34.812,7.2c0,3.269-7.422,6.008-16.522,6.008S1.767,10.555,1.767,7.2c0-3.269,7.422-6.008,16.523-6.008S34.812,3.928,34.812,7.2Z" fill="#fff"/>
      <path d="M31.455,6.932c0,2.121-5.92,3.888-13.165,3.888S5.125,9.053,5.125,6.932c0-2.209,5.919-3.976,13.165-3.976S31.455,4.723,31.455,6.932Z" fill="#7fba00"/>
      <path d="M28.716,9.318c1.767-.707,2.739-1.5,2.739-2.386,0-2.209-5.92-3.976-13.165-3.976S5.125,4.723,5.125,6.932c0,.884,1.06,1.767,2.739,2.386a29.946,29.946,0,0,1,10.426-1.5A27.982,27.982,0,0,1,28.716,9.318Z" fill="#b8d432"/>
      <rect y="16.21" width="36.226" height="19.438" fill-opacity="0"/>
      <path d="M6.613,29.991V27.92a4.048,4.048,0,0,0,1.223.712,3.99,3.99,0,0,0,1.333.233,2.877,2.877,0,0,0,.686-.072,1.6,1.6,0,0,0,.492-.194.889.889,0,0,0,.3-.3.761.761,0,0,0,.1-.376.806.806,0,0,0-.155-.485,1.656,1.656,0,0,0-.427-.395,4.249,4.249,0,0,0-.635-.349q-.369-.169-.8-.343a4.093,4.093,0,0,1-1.624-1.107,2.425,2.425,0,0,1-.531-1.579,2.5,2.5,0,0,1,.292-1.242,2.468,2.468,0,0,1,.789-.861,3.544,3.544,0,0,1,1.165-.492,5.848,5.848,0,0,1,1.4-.162A7.974,7.974,0,0,1,11.5,21a4.891,4.891,0,0,1,1.036.265V23.2a3.074,3.074,0,0,0-.512-.285,3.552,3.552,0,0,0-.563-.2,4.174,4.174,0,0,0-1.126-.162,2.751,2.751,0,0,0-.647.071,1.6,1.6,0,0,0-.492.188.941.941,0,0,0-.31.3.68.68,0,0,0-.11.382.75.75,0,0,0,.123.421,1.477,1.477,0,0,0,.349.349,4.105,4.105,0,0,0,.55.324q.324.155.731.324a7.589,7.589,0,0,1,1,.5,3.441,3.441,0,0,1,.764.589,2.3,2.3,0,0,1,.485.757,3,3,0,0,1-.129,2.291,2.413,2.413,0,0,1-.8.854,3.513,3.513,0,0,1-1.178.466,6.744,6.744,0,0,1-1.411.142A7.943,7.943,0,0,1,7.8,30.379,4.408,4.408,0,0,1,6.613,29.991Zm11.778.517a4.323,4.323,0,0,1-3.248-1.294,4.684,4.684,0,0,1-1.256-3.385,5.005,5.005,0,0,1,1.275-3.559,4.4,4.4,0,0,1,3.378-1.359,4.2,4.2,0,0,1,3.21,1.3,4.773,4.773,0,0,1,1.229,3.43,4.923,4.923,0,0,1-1.274,3.527c-.031.03-.059.06-.085.09a1.073,1.073,0,0,1-.084.078L23.885,31.6H20.96l-1.229-1.249A5.248,5.248,0,0,1,18.391,30.508Zm.091-7.8a2.109,2.109,0,0,0-1.747.829,3.419,3.419,0,0,0-.648,2.18,3.374,3.374,0,0,0,.648,2.181,2.072,2.072,0,0,0,1.7.8,2.1,2.1,0,0,0,1.715-.777,3.368,3.368,0,0,0,.634-2.168,3.633,3.633,0,0,0-.615-2.245A1.992,1.992,0,0,0,18.482,22.71Zm11.571,7.637H24.526v-9.28h2.09v7.584h3.437Z" fill="#fff"/>
    </g>
  </g>
</svg>
