<svg xmlns="http://www.w3.org/2000/svg" viewBox="0 0 49.961 50">
  <title>download-ssms</title>
  <g id="Shapes">
    <g>
      <g>
        <path d="M29.8,5.483l-7.905.068L5.511,5.685V30.614c0,2.555,5.729,4.757,13.176,4.891h.287c1.008,0,1.982-.056,2.916-.146A23.25,23.25,0,0,0,29.8,33.471c1.673-.823,2.641-1.82,2.641-2.857V5.461Z" fill="#ffb900"/>
        <path d="M29.8,5.483V33.46a23.274,23.274,0,0,1-7.905,1.888V5.551Z" fill="#ffdc80"/>
        <path d="M18.688,36.468c-7.036-.126-14.139-2.177-14.139-5.854V5.685H6.474V30.614c0,1.549,4.653,3.792,12.23,3.929h.269c7.741-.1,12.5-2.354,12.5-3.929V5.461H33.4V30.614c0,3.725-7.251,5.764-14.413,5.854Z" fill="#ffb900"/>
        <g>
          <path d="M32.471,5.752c0,2.628-6.027,4.757-13.463,4.757S5.546,8.38,5.546,5.752,11.75,1,19.186,1,32.471,3.131,32.471,5.758" fill="#d2d2d2"/>
          <path d="M19.008,11.471c-7.168,0-14.425-1.964-14.425-5.718,0-3.712,7.524-5.714,14.6-5.714S33.427,2,33.434,5.753h0v0C33.426,9.509,26.173,11.471,19.008,11.471Zm.178-9.507c-7.739,0-12.678,2.244-12.678,3.789s4.87,3.793,12.5,3.793S31.5,7.3,31.508,5.755C31.5,4.171,26.815,1.964,19.186,1.964Z" fill="#ffb900"/>
        </g>
      </g>
      <g id="paths">
        <g id="Azure_SDK" data-name="Azure SDK">
          <g>
            <path d="M28.461,35.58a6.551,6.551,0,0,1-1.659.212h0a6.8,6.8,0,0,1-4.734-1.927,6.343,6.343,0,0,1-1.743-6.3l.326-1.124,3.915,3.842,2.523-.667.659-2.448-3.975-3.828L25,23.03a6.988,6.988,0,0,1,1.7-.207A6.813,6.813,0,0,1,31.444,24.7a6.28,6.28,0,0,1,1.787,5.891l2.226,2.136-1.1.366a2.065,2.065,0,0,1-.719.1h-.318l-.018,0-1.814,1.771,1.521,1.518-1.793,1.793Z" fill="#fff"/>
            <path d="M28.656,34.793h0l2.553,2.491.809-.81L30.96,35.416l-.5-.436,2.615-2.553.311.062h.249a1.381,1.381,0,0,0,.5-.062l-1.557-1.5-.125-.124a5.6,5.6,0,0,0-1.494-5.6,6.232,6.232,0,0,0-5.792-1.494l3.363,3.238-.872,3.238-3.3.872L21,27.756a5.669,5.669,0,0,0,1.557,5.6A6.06,6.06,0,0,0,28.656,34.793Z" fill="#3c3c41"/>
            <path d="M44.535,49.753a3.442,3.442,0,0,1-2.488-1.015l.99-.989a2.16,2.16,0,0,0,3,0,1.938,1.938,0,0,0,.014-2.858L39.539,38.6l-.3.3-2.686,2.561,2.867,2.794-.977,1-5.426-5.289,1.794-1.8,1.557,1.5.138-.138,1.728-1.605,0-.08a3.646,3.646,0,0,1,.083-.916l.294-1.176,8.406,8.128a3.336,3.336,0,0,1-.006,4.872A3.428,3.428,0,0,1,44.535,49.753Z" fill="#fff"/>
            <path d="M42.542,48.243a2.856,2.856,0,0,0,3.985,0,2.636,2.636,0,0,0,0-3.86L38.993,37.1a3,3,0,0,0-.063.747l.063.312-.249.249L37,40.024l-.623.622L34.82,39.152l-.809.809,4.919,4.8" fill="#3c3c41"/>
            <path d="M20.91,48.587l2.8-4.31L25.724,42.7l.2.2L32.5,36.6l-1.555-1.492L33.44,32.7l.313.024c.063,0,.126.008.189.008A2.449,2.449,0,0,0,35.6,32.1a2.216,2.216,0,0,0,.583-1.733l-.026-.328L44.47,21.99l5.308,5.079-8.432,8.158L41,35.173a1.646,1.646,0,0,0-.255-.019,2.216,2.216,0,0,0-1.51.631,2.044,2.044,0,0,0-.612,1.7l.055.358-2.489,2.4-1.553-1.491-6.422,6.314.2.2-1.663,2.014L22.324,50Z" fill="#fff"/>
            <path d="M34.634,37.782l1.556,1.494L37.934,37.6a2.734,2.734,0,0,1,.81-2.3,2.855,2.855,0,0,1,2.366-.809l7.659-7.411-4.3-4.11-7.6,7.348a2.934,2.934,0,0,1-.809,2.3,3.155,3.155,0,0,1-2.366.81L31.956,35.1,33.513,36.6l-7.6,7.286-.249-.25-1.433,1.121-2.428,3.737.623.622,3.86-2.366,1.183-1.432-.249-.249Z" fill="#3c3c41"/>
          </g>
        </g>
      </g>
      <path d="M11.168,49.774H9.3v-1.68h1.864Zm-3.107,0H6.2v-1.68H8.061Zm-3.106,0H3.091v-1.68H4.955Z" fill="#107b10"/>
      <path d="M1.68,46.683H0V44.82H1.68Zm0-3.106H0V41.713H1.68Zm0-3.107H0V38.606H1.68Z" fill="#107b10"/>
      <polygon points="1.68 47.926 1.481 47.926 0 47.926 0 49.774 1.848 49.774 1.848 48.293 1.848 48.094 1.848 47.926 1.68 47.926" fill="#107b10"/>
      <g>
        <path d="M38.793,0h1.864V1.68H38.793ZM41.9,0h1.864V1.68H41.9Zm3.107,0h1.864V1.68H45.007Z" fill="#107b10"/>
        <path d="M48.281,3.091h1.68V4.955h-1.68Zm0,3.107h1.68V8.061h-1.68Zm0,3.106h1.68v1.864h-1.68Z" fill="#107b10"/>
        <polygon points="48.281 1.848 48.48 1.848 49.961 1.848 49.961 0 48.113 0 48.113 1.481 48.113 1.68 48.113 1.848 48.281 1.848" fill="#107b10"/>
      </g>
    </g>
  </g>
</svg>
