<svg xmlns="http://www.w3.org/2000/svg" viewBox="0 0 50 35.085">
  <title>get-azure-sql-vm</title>
  <g id="Shapes">
    <g>
      <path d="M39.353,28.553H31.126c.968,3.448-.363,3.992-6.17,3.992V34.36H44.677V32.545C38.93,32.545,38.385,32.061,39.353,28.553Z" fill="#7a7a7a"/>
      <path d="M48.185,6.533h-26.8a1.679,1.679,0,0,0-1.634,1.694V26.859a1.68,1.68,0,0,0,1.634,1.694h26.8A1.842,1.842,0,0,0,50,26.859V8.227A1.841,1.841,0,0,0,48.185,6.533Zm-.484,2.3V26.193H22.052V8.832L47.7,8.771Z" fill="#3e3e3e"/>
      <polygon points="47.641 8.832 47.641 26.254 22.052 26.254 22.052 8.832 47.701 8.832 47.641 8.832" fill="#00bbf1"/>
      <path d="M22.052,26.254h0V8.832H45.463l2.722-2.3h-26.8a1.679,1.679,0,0,0-1.634,1.694V26.859a1.68,1.68,0,0,0,1.634,1.694h.665l2.783-2.3Z" fill="#7a7a7a"/>
      <polygon points="22.052 26.254 22.052 26.254 22.052 8.832 45.463 8.832 45.463 8.832 22.052 8.832 22.052 26.254" fill="#59b4d9"/>
      <rect x="25.016" y="32.545" width="19.781" height="1.815" fill="#b0b0b0"/>
      <path d="M34.877,17.24h-.061l-5.323-3.085c-.061,0-.061-.06-.061-.121a.213.213,0,0,1,.061-.121l5.263-3.025h.181l5.324,3.086c.06,0,.06.06.06.121s0,.121-.06.121L35,17.24Z" fill="#fff" opacity="0.9" style="isolation: isolate"/>
      <path d="M34.09,24.681h-.06l-5.324-3.025c-.06,0-.06-.06-.06-.121v-6.17c0-.061,0-.121.06-.121h.182l5.323,3.025c.061,0,.061.06.061.121V24.5a.209.209,0,0,1-.061.121C34.151,24.681,34.151,24.681,34.09,24.681Z" fill="#fff" opacity="0.8" style="isolation: isolate"/>
      <path d="M35.6,24.681h-.061c-.06,0-.06-.061-.06-.121V18.45a.214.214,0,0,1,.06-.121L40.866,15.3h.181c.06,0,.06.061.06.121v6.11a.21.21,0,0,1-.06.121l-5.323,3.025Z" fill="#fff" opacity="0.5" style="isolation: isolate"/>
    </g>
    <g>
      <rect width="28.944" height="35.085" fill-opacity="0"/>
      <rect x="1.412" width="26.402" height="35.085" fill-opacity="0"/>
      <path d="M1.412,4.8V30.285c0,2.612,5.93,4.8,13.2,4.8V4.8Z" fill="#0072c6"/>
      <path d="M14.4,35.085h.212c7.342,0,13.2-2.117,13.2-4.8V4.8H14.4V35.085Z" fill="#0072c6"/>
      <path d="M14.4,35.085h.212c7.342,0,13.2-2.117,13.2-4.8V4.8H14.4V35.085Z" fill="#fff" opacity="0.15" style="isolation: isolate"/>
      <path d="M27.814,4.8c0,2.612-5.93,4.8-13.2,4.8s-13.2-2.118-13.2-4.8c0-2.612,5.93-4.8,13.2-4.8S27.814,2.188,27.814,4.8Z" fill="#fff"/>
      <path d="M25.132,4.589c0,1.694-4.73,3.106-10.519,3.106S4.094,6.283,4.094,4.589c0-1.765,4.73-3.177,10.519-3.177S25.132,2.824,25.132,4.589Z" fill="#7fba00"/>
      <path d="M22.943,6.5c1.412-.565,2.189-1.2,2.189-1.906,0-1.765-4.73-3.177-10.519-3.177S4.094,2.824,4.094,4.589C4.094,5.3,4.942,6,6.283,6.5a23.92,23.92,0,0,1,8.33-1.2A22.347,22.347,0,0,1,22.943,6.5Z" fill="#b8d432"/>
      <rect y="12.001" width="28.944" height="15.531" fill-opacity="0"/>
      <path d="M5.284,23.012V21.357a3.233,3.233,0,0,0,.977.569,3.186,3.186,0,0,0,1.065.186,2.318,2.318,0,0,0,.548-.057,1.279,1.279,0,0,0,.393-.155.711.711,0,0,0,.238-.238.6.6,0,0,0,.078-.3.645.645,0,0,0-.124-.387,1.331,1.331,0,0,0-.342-.316,3.492,3.492,0,0,0-.506-.279q-.3-.135-.636-.274a3.268,3.268,0,0,1-1.3-.884,1.937,1.937,0,0,1-.424-1.262,1.932,1.932,0,0,1,.863-1.68,2.84,2.84,0,0,1,.931-.393,4.691,4.691,0,0,1,1.117-.129,6.475,6.475,0,0,1,1.024.072,3.924,3.924,0,0,1,.827.212v1.546a2.47,2.47,0,0,0-.409-.228,2.991,2.991,0,0,0-.449-.16,3.223,3.223,0,0,0-.466-.1,3.154,3.154,0,0,0-.434-.031,2.171,2.171,0,0,0-.517.057,1.259,1.259,0,0,0-.393.15.737.737,0,0,0-.248.238.54.54,0,0,0-.088.305.6.6,0,0,0,.1.336,1.226,1.226,0,0,0,.279.279,3.288,3.288,0,0,0,.44.258q.258.125.584.259a6.147,6.147,0,0,1,.8.4,2.751,2.751,0,0,1,.61.471,1.813,1.813,0,0,1,.388.605,2.386,2.386,0,0,1-.1,1.83,1.908,1.908,0,0,1-.636.682,2.8,2.8,0,0,1-.941.373,5.377,5.377,0,0,1-1.127.113,6.326,6.326,0,0,1-1.164-.1A3.506,3.506,0,0,1,5.284,23.012Zm9.41.413a3.452,3.452,0,0,1-2.6-1.034,3.739,3.739,0,0,1-1-2.7,4,4,0,0,1,1.018-2.844,3.519,3.519,0,0,1,2.7-1.085A3.358,3.358,0,0,1,17.378,16.8a3.813,3.813,0,0,1,.982,2.74,3.926,3.926,0,0,1-1.019,2.818c-.024.024-.046.048-.067.073s-.043.041-.067.062l1.877,1.8H16.747l-.983-1A4.157,4.157,0,0,1,14.694,23.425Zm.073-6.23a1.687,1.687,0,0,0-1.4.662,2.735,2.735,0,0,0-.518,1.742,2.7,2.7,0,0,0,.518,1.743,1.656,1.656,0,0,0,1.354.641,1.674,1.674,0,0,0,1.37-.621A2.688,2.688,0,0,0,16.6,19.63a2.909,2.909,0,0,0-.491-1.794A1.593,1.593,0,0,0,14.767,17.2Zm9.244,6.1H19.6V15.882h1.67v6.06h2.745Z" fill="#fff"/>
    </g>
  </g>
</svg>
