<svg xmlns="http://www.w3.org/2000/svg" xmlns:xlink="http://www.w3.org/1999/xlink" viewBox="0 0 298 110">
  <defs>
    <linearGradient id="linear-gradient" x1="20.847" y1="46.001" x2="114.786" y2="46.001" gradientTransform="translate(46.767)" gradientUnits="userSpaceOnUse">
      <stop offset="0" stop-color="#e4edf1"/>
      <stop offset="0.996" stop-color="#e4edf1" stop-opacity="0.15"/>
    </linearGradient>
  </defs>
  <title>3 - install-or-upgrade</title>
  <g id="background_blue" data-name="background blue">
    <rect width="298" height="110" fill="#e4edf1"/>
  </g>
  <g id="Shapes">
    <g>
      <polygon points="217.895 19.891 213.964 15.961 212.251 14.349 212.049 14.349 183.225 14.349 183.225 52.646 219.507 52.646 219.507 21.806 219.507 21.605 217.895 19.891" fill="#0072c6"/>
      <polygon points="211.445 16.364 185.24 16.364 185.24 50.631 217.491 50.631 217.491 22.411 211.445 22.411 211.445 16.364" fill="#fff" opacity="0.8" style="isolation: isolate"/>
      <polygon points="213.108 26.593 209.177 22.663 207.464 21.051 207.262 21.051 178.438 21.051 178.438 59.349 214.72 59.349 214.72 28.508 214.72 28.307 213.108 26.593" fill="#0072c6"/>
      <polygon points="206.658 23.066 180.453 23.066 180.453 57.333 212.704 57.333 212.704 29.113 206.658 29.113 206.658 23.066" fill="#fff" opacity="0.8" style="isolation: isolate"/>
      <path d="M193.493,49.535q-3.5-.04-3.5-3.064V43.5q0-1.995-1.532-2.095V39.934q1.533-.1,1.532-2.136V34.907q0-3.064,3.5-3.1v1.561q-1.566.041-1.566,1.925v2.842a2.332,2.332,0,0,1-1.958,2.507v.031a2.3,2.3,0,0,1,1.958,2.489V45.97a2.584,2.584,0,0,0,.35,1.532,1.484,1.484,0,0,0,1.216.479Z" fill="#0072c6"/>
      <path d="M205.48,41.4q-1.527.1-1.526,2.095v2.968q0,3.023-3.484,3.064V47.983a1.5,1.5,0,0,0,1.216-.479,2.542,2.542,0,0,0,.359-1.532V43.157a2.3,2.3,0,0,1,1.938-2.489v-.031a2.327,2.327,0,0,1-1.938-2.507V35.289q0-1.884-1.575-1.925V31.8q3.483.04,3.484,3.1V37.8q0,2.036,1.526,2.136Z" fill="#0072c6"/>
    </g>
    <g>
      <path d="M136.96,77.653H113.308c2.783,9.913-1.043,11.478-17.739,11.478v5.218h56.7V89.131C135.743,89.131,134.178,87.74,136.96,77.653Z" fill="#7a7a7a"/>
      <path d="M162.352,14.349H85.308a4.825,4.825,0,0,0-4.7,4.869V72.783a4.826,4.826,0,0,0,4.7,4.87h77.044c2.608,0,5.217-2.261,5.217-4.87V19.218C167.569,16.609,164.96,14.349,162.352,14.349Zm-1.392,6.608V70.87H87.221V20.957l73.739-.174Z" fill="#3e3e3e"/>
      <polygon points="160.786 20.957 160.786 71.044 87.221 71.044 87.221 20.957 160.96 20.957 160.786 20.957" fill="#00bbf1"/>
      <path d="M87.221,71.044h0V20.957h67.305l7.826-6.608H85.308a4.825,4.825,0,0,0-4.7,4.869V72.783a4.826,4.826,0,0,0,4.7,4.87h1.913l8-6.609Z" fill="#7a7a7a"/>
      <polygon points="87.221 71.044 87.221 71.044 87.221 20.957 154.526 20.957 154.526 20.957 87.221 20.957 87.221 71.044" fill="#59b4d9"/>
      <rect x="95.743" y="89.131" width="56.87" height="5.217" fill="#b0b0b0"/>
    </g>
    <rect x="67.614" y="20.957" width="93.939" height="50.087" fill="url(#linear-gradient)"/>
    <g>
      <polygon points="76.354 64.005 89.076 51.283 69.692 51.283 69.692 40.371 89.076 40.371 76.354 27.648 92.512 27.648 110.692 45.827 92.512 64.005 76.354 64.005" fill="#e4edf1"/>
      <polygon points="92.01 41.586 70.906 41.586 70.906 50.068 92.01 50.068 79.287 62.791 92.01 62.791 108.973 45.827 92.01 28.863 79.287 28.863 92.01 41.586" fill="#2e6ca4"/>
    </g>
    <g>
      <g>
        <circle cx="134.245" cy="45.827" r="14.568" fill="#2e6ca4"/>
        <circle cx="134.245" cy="45.827" r="13.415" fill="#4c81b1"/>
        <circle cx="134.245" cy="45.827" r="12.262" fill="#6b97be"/>
        <circle cx="134.245" cy="45.827" r="11.108" fill="#89accb"/>
        <circle cx="134.245" cy="45.827" r="9.955" fill="#a7c2d7"/>
        <circle cx="134.245" cy="45.827" r="8.802" fill="#c6d7e4"/>
        <circle cx="134.245" cy="45.827" r="7.649" fill="#e4edf1"/>
      </g>
      <path d="M117.313,52.5A17.991,17.991,0,0,1,142.9,30.177l-.52.917a16.956,16.956,0,1,0,7.65,9.261l-1.837,4.161-.969-.425,2.561-5.788,5.591,2.967-.5.935-3.8-2.019A17.98,17.98,0,0,1,117.313,52.5Z" fill="#3c3c41"/>
    </g>
  </g>
</svg>
