<svg xmlns="http://www.w3.org/2000/svg" viewBox="0 0 298 110">
  <title>3 - learn-sql</title>
  <g id="background_blue" data-name="background blue">
    <rect width="298" height="110" fill="#e4edf1"/>
  </g>
  <g id="Shapes">
    <g>
      <path d="M204.559,26.382V75.813a1.3,1.3,0,0,1-1.3,1.3H126.51a1.3,1.3,0,0,1-1.3-1.3V26.382a1.3,1.3,0,0,1,1.3-1.3h76.748A1.3,1.3,0,0,1,204.559,26.382Z" fill="#fff"/>
      <path d="M134.965,25.732V77.114H126.51a1.306,1.306,0,0,1-.65-.189V25.732Z" fill="#80def9" opacity="0.7" style="isolation: isolate"/>
      <path d="M195.453,25.732V77.114h8.455a1.313,1.313,0,0,0,.651-.189V25.732Z" fill="#80def9" opacity="0.7" style="isolation: isolate"/>
      <path d="M203.284,77.764H126.536a1.953,1.953,0,0,1-1.951-1.951V26.382a1.953,1.953,0,0,1,1.951-1.951h76.748a1.953,1.953,0,0,1,1.951,1.951V75.813A1.953,1.953,0,0,1,203.284,77.764ZM126.536,25.732a.651.651,0,0,0-.65.65V75.813a.651.651,0,0,0,.65.651h76.748a.651.651,0,0,0,.65-.651V26.382a.651.651,0,0,0-.65-.65Z" fill="#3c3c41"/>
      <rect x="121.307" y="23.13" width="87.805" height="3.252" fill="#3c3c41"/>
      <path d="M83.583,69.914V95H90.8c1-8.559,2.342-19.883,2.563-21.353a1.7,1.7,0,0,1,3.33,0c.228,1.47,1.782,12.794,2.894,21.353h6.764V68.333h3.9l-.215-8.019L109.6,43.943l5.477,1.424a2.99,2.99,0,0,0,2.218-.084l12.357-6.146a2.953,2.953,0,1,0-2.439-5.379h0L116.4,38.2l-10.341-3.044c-.605-.182-1.243-.371-1.912-.559h0c-1.34-.377-2.719-.755-3.766-1.034l-1.756-.469-3.9,8.117H94.64l-3.9-8.117s-3.753.846-6.433,1.555l-1.06.286a5.751,5.751,0,0,0-3.564,2.816,7.431,7.431,0,0,0-.833,2.875c-.4,4.137-.39,13.392-.728,17.112-.124,1.3-.13,5.568,1.346,7.467A57.734,57.734,0,0,0,83.583,69.914Z" fill="#2e6ca4"/>
      <path d="M129.658,39.117,117.3,45.263a2.92,2.92,0,0,1-.962.248,2.963,2.963,0,0,1-1.256-.163L109.6,43.943l.436,16.39.215,8L79.681,37.764a5.751,5.751,0,0,1,3.61-2.849l1.06-.286c2.679-.709,6.432-1.554,6.432-1.554l3.9,8.117h.065l3.9-8.117,1.756.468c1.047.28,2.426.65,3.766,1.034h0c.65.189,1.3.377,1.912.56l10.342,3.043,10.816-4.442a2.953,2.953,0,0,1,2.439,5.379Z" fill="#fff" opacity="0.2" style="isolation: isolate"/>
      <ellipse cx="94.627" cy="23.104" rx="6.504" ry="8.104" fill="#2e6ca4"/>
      <g>
        <path d="M148.208,41.992h-.937V34.909a2.123,2.123,0,0,1-.319.247,5.259,5.259,0,0,1-.468.28c-.173.091-.356.178-.546.26a4.041,4.041,0,0,1-.566.189v-.95a5.356,5.356,0,0,0,.65-.234,5.2,5.2,0,0,0,.651-.325q.3-.183.65-.378a5.04,5.04,0,0,0,.514-.383h.351Z" fill="#2e6ca4"/>
        <path d="M149.2,47.65a1.7,1.7,0,0,0-.117-.65,1.3,1.3,0,0,0-.8-.741,1.888,1.888,0,0,0-.592-.092,1.974,1.974,0,0,0-.54.072,2.627,2.627,0,0,0-.513.208,3.255,3.255,0,0,0-.482.312,3.562,3.562,0,0,0-.429.4V46.154a2.808,2.808,0,0,1,.885-.585,3.116,3.116,0,0,1,1.19-.2,2.879,2.879,0,0,1,.93.144,2.127,2.127,0,0,1,.741.422,1.952,1.952,0,0,1,.5.69,2.344,2.344,0,0,1,.182.943,3.253,3.253,0,0,1-.111.878,2.73,2.73,0,0,1-.338.741,3.586,3.586,0,0,1-.566.651,7.982,7.982,0,0,1-.806.65q-.579.41-.95.7a4.083,4.083,0,0,0-.592.546,1.554,1.554,0,0,0-.3.507,1.77,1.77,0,0,0-.092.586h4.085V53.7h-5.06v-.4a3.39,3.39,0,0,1,.117-.924,2.419,2.419,0,0,1,.377-.761,4.21,4.21,0,0,1,.69-.722q.422-.357,1.04-.813a6.537,6.537,0,0,0,.748-.611,3.18,3.18,0,0,0,.482-.585,2.114,2.114,0,0,0,.26-.592A2.493,2.493,0,0,0,149.2,47.65Z" fill="#2e6ca4"/>
        <path d="M150.23,63.735a2.382,2.382,0,0,1-.208,1.008,2.237,2.237,0,0,1-.585.781,2.742,2.742,0,0,1-.911.5,3.658,3.658,0,0,1-1.17.176,3.405,3.405,0,0,1-1.867-.449v-1a2.988,2.988,0,0,0,1.9.651,2.6,2.6,0,0,0,.774-.111,1.745,1.745,0,0,0,.592-.312,1.4,1.4,0,0,0,.384-.495,1.563,1.563,0,0,0,.136-.65q0-1.606-2.289-1.606h-.651V61.42h.651q2.022,0,2.023-1.509,0-1.392-1.542-1.392a2.6,2.6,0,0,0-1.626.585v-.911a3.568,3.568,0,0,1,1.867-.468,2.878,2.878,0,0,1,.93.143,2.13,2.13,0,0,1,.715.4,1.753,1.753,0,0,1,.462.617,1.9,1.9,0,0,1,.163.794,2,2,0,0,1-1.633,2.081h0a2.594,2.594,0,0,1,.774.2,2.055,2.055,0,0,1,.612.41,1.826,1.826,0,0,1,.4.591A1.89,1.89,0,0,1,150.23,63.735Z" fill="#2e6ca4"/>
        <rect x="155.778" y="38.09" width="21.463" height="1.301" fill="#868787"/>
        <rect x="155.778" y="49.146" width="21.463" height="1.301" fill="#868787"/>
        <rect x="155.778" y="60.203" width="21.463" height="1.301" fill="#868787"/>
      </g>
      <g>
        <rect x="181.795" y="63.826" width="1.301" height="16.26" rx="0.325" ry="0.325" fill="#2e6ca4"/>
        <path d="M217.567,64.431l-18.862-7.109-18.862,7.109,5.854,2.6V77.27c0,3.616,5.958,6.673,13.008,6.673s13.008-3.057,13.008-6.673V67.033Z" fill="#fff"/>
        <polygon points="180.182 64.431 199.043 57.322 217.255 64.431 199.043 72.236 180.182 64.431" fill="#e5e5e5"/>
        <polygon points="212.422 66.824 199.043 72.522 186.406 67.182 186.23 70.135 199.043 75.553 212.422 69.901 212.422 66.824" fill="#bad80a"/>
        <path d="M199.355,84.594c-7.531,0-13.658-3.286-13.658-7.324V67.455l-6.916-3.074,20.574-7.754,20.575,7.754-6.916,3.074V77.27C213.014,81.308,206.887,84.594,199.355,84.594ZM182.207,64.481,187,66.61V77.27c0,3.208,5.775,6.023,12.357,6.023s12.358-2.815,12.358-6.023V66.61l4.791-2.129-17.149-6.464Z" fill="#2e6ca4"/>
        <path d="M181.144,80.366v-2.6c0-1.431.468-2.6,1.041-2.6h.52c.573,0,1.041,1.17,1.041,2.6v2.6Z" fill="#2e6ca4"/>
        <polygon points="199.039 72.938 185.273 67.25 185.77 66.048 199.048 71.534 213.6 65.745 214.081 66.954 199.039 72.938" fill="#2e6ca4"/>
      </g>
    </g>
  </g>
</svg>
