<svg xmlns="http://www.w3.org/2000/svg" viewBox="0 0 298 110">
  <title>3 - load-move-data</title>
  <g id="background_blue" data-name="background blue">
    <rect width="298" height="110" fill="#e4edf1"/>
  </g>
  <g id="Shapes">
    <g>
      <path d="M102.764,56.432c-.693-8.629-7.434-15.418-15.656-15.418A15.6,15.6,0,0,0,73.13,50.186a15.22,15.22,0,0,0-8.351-2.5c-7.413,0-13.659,5.384-15.54,12.7a14.222,14.222,0,0,0-4.514-.733c-8.147,0-14.766,6.884-14.766,15.377a15.43,15.43,0,0,0,8.52,13.931,13.6,13.6,0,0,0,4.6,1.358l.373.034a85.548,85.548,0,0,0,9.451.6h47.767a13.163,13.163,0,0,0,3.1-.76c7.339-1.521,12.9-8.459,12.9-16.789C116.647,64.694,110.6,57.512,102.764,56.432Z" fill="#2e6ca4" opacity="0.8" style="isolation: isolate"/>
      <g>
        <circle cx="104.402" cy="54.8" r="36.321" fill="#fff"/>
        <path d="M104.4,91.8a37,37,0,1,1,37-37A37.041,37.041,0,0,1,104.4,91.8Zm0-72.642A35.642,35.642,0,1,0,140.045,54.8,35.683,35.683,0,0,0,104.4,19.158Z" fill="#2e6ca4"/>
      </g>
      <g>
        <path d="M109.238,35.8H44L64.487,22.811l39.78,6.588,4.971,4.593ZM51.429,33.644h54.255l-2.407-2.224L64.946,25.072Z" fill="#75757a"/>
        <g>
          <polygon points="68.198 21.786 72.51 85.388 57.418 85.388 62.808 21.786 68.198 21.786" fill="#fff"/>
          <path d="M73.664,86.466H56.245l5.572-65.758h7.388ZM58.591,84.31H71.356L67.19,22.864H63.8Z" fill="#75757a"/>
        </g>
        <rect x="103.772" y="33.816" width="2.156" height="20.913" fill="#75757a"/>
        <g>
          <rect x="55.211" y="78.22" width="18.751" height="2.156" transform="translate(-37.155 68.895) rotate(-45)" fill="#75757a"/>
          <rect x="64.339" y="70.104" width="2.156" height="18.538" transform="translate(-36.965 69.506) rotate(-45.001)" fill="#75757a"/>
        </g>
        <g>
          <rect x="56.587" y="65.537" width="16.572" height="2.156" transform="translate(-28.103 65.383) rotate(-45)" fill="#75757a"/>
          <rect x="64.085" y="59.047" width="2.156" height="15.351" transform="translate(-28.094 65.618) rotate(-44.999)" fill="#75757a"/>
        </g>
        <g>
          <rect x="57.334" y="53.399" width="14.559" height="2.156" transform="translate(-19.596 61.645) rotate(-45)" fill="#75757a"/>
          <rect x="64.56" y="47.322" width="2.156" height="14.956" transform="translate(-19.524 62.465) rotate(-45.001)" fill="#75757a"/>
        </g>
        <g>
          <rect x="58.861" y="41.06" width="12.432" height="2.157" transform="translate(-10.719 58.437) rotate(-45.059)" fill="#75757a"/>
          <rect x="64.478" y="36.941" width="2.157" height="11.808" transform="translate(-11.105 58.856) rotate(-44.964)" fill="#75757a"/>
        </g>
        <g>
          <rect x="60.301" y="31.272" width="9.757" height="2.156" transform="translate(-3.784 55.564) rotate(-45)" fill="#75757a"/>
          <rect x="64.554" y="27.831" width="2.156" height="8.995" transform="translate(-3.635 55.881) rotate(-45.002)" fill="#75757a"/>
        </g>
        <path d="M112.4,56.282v7.546a2.029,2.029,0,0,1-.2.884,2.154,2.154,0,0,1-1.962,1.272H99.46A2.156,2.156,0,0,1,97.3,63.828V56.282a2.156,2.156,0,0,1,2.156-2.156h10.78A2.157,2.157,0,0,1,112.4,56.282Z" fill="#50e6ff"/>
        <path d="M112.4,56.282v7.546a2.029,2.029,0,0,1-.2.884L101.616,54.126h8.624A2.157,2.157,0,0,1,112.4,56.282Z" fill="#55d2f6"/>
        <path d="M54.184,84.31H75.205a2.156,2.156,0,0,1,2.156,2.156h0a2.156,2.156,0,0,1-2.156,2.156H54.184a2.156,2.156,0,0,1-2.156-2.156h0A2.156,2.156,0,0,1,54.184,84.31Z" fill="#75757a"/>
      </g>
    </g>
    <g>
      <g>
        <path d="M106.681,74.8H97.015c-5.316,0-9.666-4.63-9.666-10.289v-9.25A10.319,10.319,0,0,1,97.638,44.97H207.95" fill="none" stroke="#75757a" stroke-miterlimit="10" stroke-width="1.286" stroke-dasharray="3.858 3.858"/>
        <polygon points="203.688 50.23 202.811 49.288 207.456 44.971 202.811 40.653 203.688 39.711 209.344 44.971 203.688 50.23" fill="#75757a"/>
      </g>
      <g>
        <path d="M213.043,44.97H223.83a10.319,10.319,0,0,1,10.288,10.289v9.25A10.319,10.319,0,0,1,223.83,74.8H114.267" fill="none" stroke="#75757a" stroke-miterlimit="10" stroke-width="1.286" stroke-dasharray="3.858 3.858"/>
        <polygon points="118.529 69.538 119.406 70.48 114.761 74.796 119.406 79.114 118.529 80.056 112.873 74.796 118.529 69.538" fill="#75757a"/>
      </g>
    </g>
    <g>
      <rect x="218.646" y="25.056" width="49.497" height="60" fill-opacity="0"/>
      <rect x="221.06" y="25.056" width="45.151" height="60" fill-opacity="0"/>
      <path d="M221.06,33.265V76.846c0,4.467,10.141,8.21,22.576,8.21V33.265Z" fill="#0072c6"/>
      <path d="M243.274,85.056h.362c12.555,0,22.575-3.622,22.575-8.21V33.265H243.274V85.056Z" fill="#0072c6"/>
      <path d="M243.274,85.056h.362c12.555,0,22.575-3.622,22.575-8.21V33.265H243.274V85.056Z" fill="#fff" opacity="0.15" style="isolation: isolate"/>
      <path d="M266.211,33.265c0,4.467-10.141,8.209-22.575,8.209s-22.576-3.622-22.576-8.209c0-4.467,10.141-8.209,22.576-8.209S266.211,28.8,266.211,33.265Z" fill="#fff"/>
      <path d="M261.624,32.9c0,2.9-8.089,5.311-17.988,5.311S225.648,35.8,225.648,32.9c0-3.018,8.088-5.433,17.988-5.433S261.624,29.885,261.624,32.9Z" fill="#7fba00"/>
      <path d="M257.881,36.162c2.415-.966,3.743-2.052,3.743-3.259,0-3.018-8.089-5.433-17.988-5.433s-17.988,2.415-17.988,5.433c0,1.207,1.449,2.414,3.742,3.259,3.26-1.328,8.451-2.052,14.246-2.052C249.431,33.989,254.622,34.834,257.881,36.162Z" fill="#b8d432"/>
      <rect x="218.646" y="45.579" width="49.497" height="26.559" fill-opacity="0"/>
      <path d="M227.682,64.408V61.579a5.517,5.517,0,0,0,1.671.972,5.422,5.422,0,0,0,1.822.319,3.97,3.97,0,0,0,.937-.1,2.2,2.2,0,0,0,.672-.265,1.215,1.215,0,0,0,.407-.407,1.042,1.042,0,0,0,.132-.512,1.1,1.1,0,0,0-.212-.664,2.27,2.27,0,0,0-.584-.539,5.773,5.773,0,0,0-.866-.477q-.5-.231-1.088-.469a5.6,5.6,0,0,1-2.219-1.512,3.316,3.316,0,0,1-.725-2.157,3.411,3.411,0,0,1,.4-1.7,3.37,3.37,0,0,1,1.079-1.176,4.811,4.811,0,0,1,1.591-.672,7.967,7.967,0,0,1,1.91-.221,10.948,10.948,0,0,1,1.751.124,6.663,6.663,0,0,1,1.414.362v2.644a4.22,4.22,0,0,0-.7-.389,4.916,4.916,0,0,0-.769-.274,5.7,5.7,0,0,0-1.539-.221,3.717,3.717,0,0,0-.884.1,2.2,2.2,0,0,0-.672.256,1.276,1.276,0,0,0-.424.407.926.926,0,0,0-.151.522,1.022,1.022,0,0,0,.168.574,2,2,0,0,0,.478.478,5.591,5.591,0,0,0,.751.442q.442.213,1,.442a10.409,10.409,0,0,1,1.362.681,4.679,4.679,0,0,1,1.043.8,3.143,3.143,0,0,1,.664,1.034,4.1,4.1,0,0,1-.177,3.13,3.264,3.264,0,0,1-1.088,1.167,4.793,4.793,0,0,1-1.609.637,9.192,9.192,0,0,1-1.928.195,10.807,10.807,0,0,1-1.989-.177A5.991,5.991,0,0,1,227.682,64.408Zm16.093.708a5.909,5.909,0,0,1-4.439-1.769,6.4,6.4,0,0,1-1.715-4.624,6.837,6.837,0,0,1,1.741-4.863A6.014,6.014,0,0,1,243.978,52a5.742,5.742,0,0,1,4.386,1.777,6.523,6.523,0,0,1,1.68,4.686,6.721,6.721,0,0,1-1.742,4.819c-.041.042-.08.083-.115.124s-.074.071-.115.106l3.21,3.086h-4l-1.68-1.706A7.126,7.126,0,0,1,243.775,65.116Zm.123-10.655a2.884,2.884,0,0,0-2.387,1.132,4.677,4.677,0,0,0-.884,2.979,4.611,4.611,0,0,0,.884,2.98,2.833,2.833,0,0,0,2.317,1.1,2.868,2.868,0,0,0,2.343-1.061,4.612,4.612,0,0,0,.866-2.963,4.969,4.969,0,0,0-.84-3.068A2.723,2.723,0,0,0,243.9,54.461ZM259.708,64.9h-7.551V52.215h2.856V62.578h4.7Z" fill="#fff"/>
    </g>
  </g>
</svg>
