<svg xmlns="http://www.w3.org/2000/svg" xmlns:xlink="http://www.w3.org/1999/xlink" viewBox="0 0 298 110">
  <defs>
    <symbol id="IZ_AzureMonitoring" data-name="IZ_AzureMonitoring" viewBox="0 0 50 50">
      <path d="M26.25,50A14.141,14.141,0,0,1,12.125,35.875V28.912h4v6.963A10.136,10.136,0,0,0,26.25,46h3.094A10.136,10.136,0,0,0,39.469,35.875v-17.5h4v17.5A14.142,14.142,0,0,1,29.344,50Z" fill="#3999c6"/>
      <circle cx="41.469" cy="18.131" r="8.531" fill="#a0a1a2"/>
      <g opacity="0.5">
        <circle cx="41.469" cy="18.131" r="8.531" fill="#e5e5e5"/>
      </g>
      <circle cx="41.469" cy="18.131" r="3.656" fill="#7a7a7a"/>
      <g opacity="0.23">
        <path d="M35.436,24.164A8.531,8.531,0,0,1,47.5,12.1Z" fill="#fff"/>
      </g>
      <path d="M14.125,30.912A14.141,14.141,0,0,1,0,16.787V3.287a2,2,0,0,1,2-2H6.781v4H4v11.5a10.125,10.125,0,0,0,20.25,0V5.287H20.531v-4H26.25a2,2,0,0,1,2,2v13.5A14.141,14.141,0,0,1,14.125,30.912Z" fill="#a0a1a2"/>
      <g opacity="0.5">
        <path d="M14.125,30.912A14.141,14.141,0,0,1,0,16.787V3.287a2,2,0,0,1,2-2H6.781v4H4v11.5a10.125,10.125,0,0,0,20.25,0V5.287H20.531v-4H26.25a2,2,0,0,1,2,2v13.5A14.141,14.141,0,0,1,14.125,30.912Z" fill="#e5e5e5"/>
      </g>
      <g>
        <path d="M5.552,6.575H7.314A3.288,3.288,0,0,0,7.314,0H5.552Z" fill="#7a7a7a"/>
        <path d="M22.7,0H20.936a3.287,3.287,0,0,0,0,6.574H22.7Z" fill="#7a7a7a"/>
      </g>
      <path d="M14.125,30.912A14.1,14.1,0,0,1,3.331,25.89l3.057-2.58a10.109,10.109,0,0,0,15.474,0l3.057,2.58A14.1,14.1,0,0,1,14.125,30.912Z" fill="#3999c6"/>
    </symbol>
  </defs>
  <title>3 - manage-monitor-tune</title>
  <g id="background_blue" data-name="background blue">
    <rect width="298" height="110" fill="#e4edf1"/>
  </g>
  <g id="Shapes">
    <path d="M175.829,50.839a32.028,32.028,0,0,0-7.658,1.277c-.64-12.091-11.5-22.268-23.638-22.268a24.264,24.264,0,0,0-17.862,7.631c.558-.624-.142-.809-1.705-.668a23.4,23.4,0,0,0-20.02-10.793c-12.742,0-23.073,9.65-23.073,21.526a20.314,20.314,0,0,0,.268,3.3H80.005a23.539,23.539,0,0,0-23.637,23.44v.1c0,12.73,10.858,22.906,23.637,22.906h95.824c13.4,0,23.638-10.183,23.638-22.906A23.145,23.145,0,0,0,175.829,50.839Z" fill="#389cd6"/>
    <path d="M195.81,39.995v-.482a19.554,19.554,0,0,0-.633-4.862,17.674,17.674,0,0,0-29.026-12.507c-4.3-5.4-9.772-8.076-17.118-8.076-12.906,0-22.67,11.245-22.871,23.916,0,.875.216,1.529.216,2.4-6.788,3.274-10.733,8.959-10.733,16.167,0,10.3,8.128,18.556,18.9,19.165.99,7.155,7.443,13.8,18.435,13.8,9.3,0,14.834.742,21.584-6.858a22.892,22.892,0,0,0,10.807,2.969c13.024,0,23.578-11.505,23.578-24.5A23.508,23.508,0,0,0,195.81,39.995Z" fill="#fff" stroke="#bad80a" stroke-miterlimit="10" stroke-width="1.487"/>
    <g>
      <g>
        <path d="M249.668,55.451a8.018,8.018,0,0,0,1.856-8.479l-3.758,3.742-4.271-.471-.473-4.26,3.752-3.748A8.035,8.035,0,0,0,236.422,52.56L219.769,69.178a2.682,2.682,0,0,0,0,3.788l.473.472a2.7,2.7,0,0,0,3.8,0l16.47-16.425A8.067,8.067,0,0,0,249.668,55.451Z" fill="#fff" stroke="#2e6ca4" stroke-miterlimit="10" stroke-width="1.016"/>
        <polygon points="220.715 69.178 223.088 66.811 226.41 70.125 224.037 72.491 220.715 69.178" fill="#e5e5e5"/>
      </g>
      <g>
        <path d="M239.122,58.605,236.63,61.09l-9.966-9.94-.422-3.433-6.061-3.042-1.993,1.988,2.99,5.963,3.488.507,9.966,9.939-2.5,2.49,2.492,2.485,1.5-1.491c.935.933,1.068,3.043.6,3.586l5.8,5.781c1.525,1.521,4.042,2.084,5.059,1.07l2.99-2.982c1.017-1.014.234-3.743-1.307-5.279l-5.593-5.578c-.509.507-2.624.365-3.56-.568l1.5-1.491Z" fill="#2e6ca4"/>
        <polygon points="237.628 67.05 238.624 66.057 247.095 74.505 246.099 75.498 237.628 67.05" fill="#fff"/>
        <polygon points="239.622 65.066 240.618 64.072 249.088 72.521 248.093 73.514 239.622 65.066" fill="#fff"/>
      </g>
    </g>
    <g>
      <path d="M83.493,49.7H68.013a1.919,1.919,0,0,0-1.936,1.886V58.2a1.919,1.919,0,0,0,1.936,1.893h-.447V51.181H83.94v8.907h0c1.064,0,1.488-.854,1.488-1.886v-6.62A1.918,1.918,0,0,0,83.493,49.7Z" fill="#2e6ca4"/>
      <path d="M96.592,56.3H55.062a4.7,4.7,0,0,0-4.614,4.765V85.1a1.4,1.4,0,0,0,1.384,1.41H99.815a1.344,1.344,0,0,0,.744-.178,1.485,1.485,0,0,0,.67-1.232V61.067A4.7,4.7,0,0,0,96.6,56.3Z" fill="#fff"/>
      <rect x="50.448" y="68.995" width="50.61" height="3.711" fill="#2bc7f4"/>
      <rect x="50.597" y="80.277" width="50.759" height="6.532" fill="#e5e5e5"/>
      <path d="M96.533,56.376H55.122a4.712,4.712,0,0,0-4.6,4.8V85.384a1.4,1.4,0,0,0,1.369,1.424H99.778a1.327,1.327,0,0,0,.744-.178,1.484,1.484,0,0,0,.662-1.24V61.179a4.711,4.711,0,0,0-4.62-4.8Z" fill="none" stroke="#2e6ca4" stroke-miterlimit="10" stroke-width="1.487"/>
      <path d="M61.612,66.026h2.977a1.486,1.486,0,0,1,1.488,1.484v8.165a1.486,1.486,0,0,1-1.488,1.484H61.612a1.486,1.486,0,0,1-1.489-1.484V67.51A1.486,1.486,0,0,1,61.612,66.026Z" fill="#fff" stroke="#2e6ca4" stroke-miterlimit="10" stroke-width="1.487"/>
      <line x1="63.1" y1="68.252" x2="63.1" y2="74.933" fill="none" stroke="#2e6ca4" stroke-miterlimit="10" stroke-width="1.487"/>
      <path d="M86.917,66.026h2.977a1.486,1.486,0,0,1,1.488,1.484v8.165a1.486,1.486,0,0,1-1.488,1.484H86.917a1.486,1.486,0,0,1-1.489-1.484V67.51A1.486,1.486,0,0,1,86.917,66.026Z" fill="#fff" stroke="#2e6ca4" stroke-miterlimit="10" stroke-width="1.487"/>
      <line x1="88.405" y1="68.252" x2="88.405" y2="74.933" fill="none" stroke="#2e6ca4" stroke-miterlimit="10" stroke-width="1.487"/>
    </g>
  </g>
  <g id="Not_In_Framework" data-name="Not In Framework">
    <use width="50" height="50" transform="translate(137.296 27.051)" xlink:href="#IZ_AzureMonitoring"/>
  </g>
</svg>
