<svg xmlns="http://www.w3.org/2000/svg" viewBox="0 0 298 110">
  <title>3 - query-data</title>
  <g id="background_blue" data-name="background blue">
    <rect width="298" height="110" fill="#e4edf1"/>
  </g>
  <g id="Shapes">
    <g>
      <path d="M200.45,13.378H151.487l-24.481,42.5,24.481,42.5H200.45l24.482-42.5ZM173.618,35.705h11.36V47.064h-11.36Zm0,14.1h11.36v11.36h-11.36Zm0,14.3h11.36v11.36h-11.36Zm-14.3-28.4h11.36V47.064h-11.36Zm0,14.1h11.36v11.36h-11.36Zm0,14.3h11.36v11.36h-11.36Zm39.758,17.431H152.858V35.313H155.8V78.4h43.283Zm0-6.071H187.72V64.1h11.359Zm0-14.3H187.72V49.806h11.359Zm0-14.1H187.72V35.705h11.359Z" fill="#59b4d9"/>
      <rect x="173.618" y="35.705" width="11.359" height="11.359" fill="#0072c6"/>
      <rect x="173.618" y="49.806" width="11.359" height="11.359" fill="#0072c6"/>
      <rect x="173.618" y="64.103" width="11.359" height="11.359" fill="#0072c6"/>
      <rect x="159.321" y="35.705" width="11.359" height="11.359" fill="#0072c6"/>
      <rect x="159.321" y="49.806" width="11.359" height="11.359" fill="#0072c6"/>
      <rect x="159.321" y="64.103" width="11.359" height="11.359" fill="#0072c6"/>
      <rect x="187.72" y="64.103" width="11.359" height="11.359" fill="#0072c6"/>
      <rect x="187.72" y="49.806" width="11.359" height="11.359" fill="#0072c6"/>
      <rect x="187.72" y="35.705" width="11.359" height="11.359" fill="#0072c6"/>
    </g>
    <g>
      <path d="M83.365,90.7,111.485,59.1a2.331,2.331,0,0,0-.192-3.281l-5.145-4.577a2.331,2.331,0,0,0-3.281.191L74.747,83.036a2.33,2.33,0,0,0,.192,3.281L80.084,90.9a2.331,2.331,0,0,0,3.281-.192" fill="#505050"/>
      <path d="M95.087,60.1l-.61.651c-1.361,1.635,0,4.269,2.407,6.413s5.292,2.726,6.356,1.382l.609-.651" fill="#2e2e2e"/>
      <path d="M94.057,48.3A19.141,19.141,0,1,0,113.2,29.156,19.141,19.141,0,0,0,94.057,48.3" fill="#a9efff"/>
      <path d="M113.2,63.546A15.053,15.053,0,1,1,128.25,48.493,15.053,15.053,0,0,1,113.2,63.546m0-38.178a23.126,23.126,0,1,0,23.125,23.125A23.125,23.125,0,0,0,113.2,25.368" fill="#505050"/>
    </g>
  </g>
</svg>
