<svg xmlns="http://www.w3.org/2000/svg" viewBox="0 0 298 110">
  <title>3 - secure-sql-server</title>
  <g id="background_blue" data-name="background blue">
    <rect width="298" height="110" fill="#e4edf1"/>
  </g>
  <g id="Shapes">
    <g>
      <g>
        <path d="M227.128,33.188a20,20,0,1,1-20-20A19.9,19.9,0,0,1,227.128,33.188Z" fill="#bad80a" fill-rule="evenodd"/>
        <path d="M227.128,33.188a19.9,19.9,0,0,1-5.956,14.226l-28.278-28.27a20,20,0,0,1,34.234,14.044Z" fill="#c6df33" fill-rule="evenodd"/>
      </g>
      <g>
        <rect x="200.783" y="18.394" width="12.217" height="16.529" rx="3.054" ry="3.054" fill="none" stroke="#556a8a" stroke-miterlimit="10" stroke-width="0.862"/>
        <path d="M216.593,43.93a.886.886,0,0,1-.894.878H197.365a.886.886,0,0,1-.894-.878V29.876a.886.886,0,0,1,.894-.878H215.7a.886.886,0,0,1,.894.878Z" fill="#fff"/>
        <path d="M216.869,29.987V44.423L201.5,29.056h14.437A.934.934,0,0,1,216.869,29.987Z" fill="#e5e5e5"/>
        <path d="M216.593,43.93a.886.886,0,0,1-.894.878H197.365a.886.886,0,0,1-.894-.878V29.876a.886.886,0,0,1,.894-.878H215.7a.886.886,0,0,1,.894.878Z" fill="none" stroke="#556a8a" stroke-miterlimit="10" stroke-width="0.862"/>
      </g>
    </g>
    <g>
      <rect x="116.231" y="16.356" width="65.996" height="80" fill-opacity="0"/>
      <rect x="119.451" y="16.356" width="60.201" height="80" fill-opacity="0"/>
      <path d="M119.451,27.3V85.41c0,5.956,13.521,10.946,30.1,10.946V27.3Z" fill="#0072c6"/>
      <path d="M149.068,96.356h.483c16.741,0,30.1-4.829,30.1-10.946V27.3H149.068V96.356Z" fill="#0072c6"/>
      <path d="M149.068,96.356h.483c16.741,0,30.1-4.829,30.1-10.946V27.3H149.068V96.356Z" fill="#fff" opacity="0.15" style="isolation: isolate"/>
      <path d="M179.652,27.3c0,5.956-13.521,10.945-30.1,10.945s-30.1-4.829-30.1-10.945c0-5.956,13.521-10.946,30.1-10.946S179.652,21.346,179.652,27.3Z" fill="#fff"/>
      <path d="M173.535,26.819c0,3.863-10.784,7.082-23.984,7.082s-23.984-3.219-23.984-7.082c0-4.024,10.785-7.244,23.984-7.244S173.535,22.8,173.535,26.819Z" fill="#7fba00"/>
      <path d="M168.545,31.165c3.22-1.288,4.99-2.736,4.99-4.346,0-4.024-10.784-7.244-23.984-7.244s-23.984,3.22-23.984,7.244c0,1.61,1.932,3.219,4.99,4.346,4.347-1.771,11.268-2.736,18.994-2.736C157.278,28.268,164.2,29.394,168.545,31.165Z" fill="#b8d432"/>
      <rect x="116.231" y="43.72" width="65.996" height="35.412" fill-opacity="0"/>
      <path d="M128.28,68.826V65.054a7.333,7.333,0,0,0,2.228,1.3,7.245,7.245,0,0,0,2.428.424,5.281,5.281,0,0,0,1.25-.13,2.954,2.954,0,0,0,.9-.353,1.622,1.622,0,0,0,.542-.543,1.384,1.384,0,0,0,.177-.684,1.466,1.466,0,0,0-.283-.884,3.007,3.007,0,0,0-.778-.719,7.826,7.826,0,0,0-1.155-.637q-.672-.306-1.45-.624a7.443,7.443,0,0,1-2.959-2.016,4.417,4.417,0,0,1-.967-2.877,4.4,4.4,0,0,1,1.969-3.832,6.449,6.449,0,0,1,2.122-.895,10.632,10.632,0,0,1,2.546-.3,14.674,14.674,0,0,1,2.335.165,8.957,8.957,0,0,1,1.886.483v3.525a5.591,5.591,0,0,0-.931-.518,6.552,6.552,0,0,0-1.026-.366,7.615,7.615,0,0,0-2.051-.3,4.984,4.984,0,0,0-1.179.13,2.9,2.9,0,0,0-.9.342,1.7,1.7,0,0,0-.566.542,1.242,1.242,0,0,0-.2.7,1.37,1.37,0,0,0,.224.766,2.74,2.74,0,0,0,.637.637,7.509,7.509,0,0,0,1,.589q.59.284,1.332.59a14.027,14.027,0,0,1,1.816.907,6.3,6.3,0,0,1,1.391,1.073,4.184,4.184,0,0,1,.884,1.38,5.445,5.445,0,0,1-.236,4.173,4.352,4.352,0,0,1-1.45,1.556,6.385,6.385,0,0,1-2.146.849,12.27,12.27,0,0,1-2.57.26,14.433,14.433,0,0,1-2.652-.236A7.962,7.962,0,0,1,128.28,68.826Zm21.456.944a7.88,7.88,0,0,1-5.918-2.358,8.532,8.532,0,0,1-2.287-6.166,9.119,9.119,0,0,1,2.322-6.484,8.018,8.018,0,0,1,6.155-2.476,7.653,7.653,0,0,1,5.847,2.37A8.7,8.7,0,0,1,158.1,60.9a8.961,8.961,0,0,1-2.322,6.425c-.055.055-.107.11-.154.165s-.1.094-.153.142l4.28,4.114h-5.329l-2.24-2.275A9.506,9.506,0,0,1,149.736,69.77Zm.165-14.207a3.848,3.848,0,0,0-3.183,1.509,6.242,6.242,0,0,0-1.179,3.973,6.151,6.151,0,0,0,1.179,3.973,3.777,3.777,0,0,0,3.089,1.462,3.818,3.818,0,0,0,3.124-1.415,6.132,6.132,0,0,0,1.156-3.949,6.63,6.63,0,0,0-1.12-4.091A3.635,3.635,0,0,0,149.9,55.563Zm21.08,13.912H160.913V52.569h3.808V66.386h6.26Z" fill="#fff"/>
    </g>
  </g>
</svg>
