<?xml version="1.0" encoding="utf-8"?>
<!-- Generator: Adobe Illustrator 21.0.0, SVG Export Plug-In . SVG Version: 6.00 Build 0)  -->
<svg version="1.1" xmlns="http://www.w3.org/2000/svg" xmlns:xlink="http://www.w3.org/1999/xlink" x="0px" y="0px"
	 viewBox="0 0 400 140" style="enable-background:new 0 0 400 140;" xml:space="preserve">
<style type="text/css">
	.st0{display:none;}
	.st1{display:inline;fill:#E1E5EA;}
	.st2{fill:#AAD2F2;}
	.st3{fill:#FFFFFF;}
	.st4{fill:#CCCCCC;}
	.st5{fill:#2E2E2E;}
	.st6{fill:#AFD3AF;}
	.st7{fill:#5D5F5E;}
	.st8{opacity:0.25;fill:#FFFFFF;}
	.st9{fill:#909090;}
	.st10{fill:none;stroke:#909090;stroke-miterlimit:10;stroke-dasharray:2,2;}
	.st11{fill-rule:evenodd;clip-rule:evenodd;fill:#999999;}
	.st12{fill:#60A860;}
	.st13{fill:#88BE88;}
	.st14{fill:#231F20;}
	.st15{display:none;fill:#7DB912;}
	.st16{fill:#666666;}
	.st17{fill:#1A1A1A;}
	.st18{fill:#0072C6;}
	.st19{opacity:0.1;fill:#FFFFFF;enable-background:new    ;}
	.st20{fill:#7FBA00;}
	.st21{fill:#B8D432;}
	.st22{fill:#999999;}
	.st23{fill:none;stroke:#000000;stroke-width:4;stroke-miterlimit:10;}
	.st24{fill:#80A58E;}
	.st25{fill:none;stroke:#000000;stroke-width:3;stroke-miterlimit:10;}
	.st26{fill:#20598C;}
	.st27{fill:#333333;}
	.st28{fill:none;stroke:#32145A;stroke-width:4;stroke-miterlimit:10;}
	.st29{fill:none;stroke:#FFFFFF;stroke-width:4;stroke-miterlimit:10;}
	.st30{fill:none;stroke:#FFFFFF;stroke-width:3;stroke-miterlimit:10;}
	.st31{fill:#DF5C2B;}
	.st32{fill:#316389;}
	.st33{fill:#638AA5;}
	.st34{fill:#633BA3;}
	.st35{fill:#5C2D91;}
	.st36{display:inline;fill:#FFFFFF;}
	.st37{fill:#998AAD;}
	.st38{fill:#BBB1C8;}
	.st39{fill:#80BCEB;}
	.st40{fill:#006020;}
	.st41{fill:#004B1C;}
	.st42{fill:#D38080;}
	.st43{fill:#E2AAAA;}
	.st44{fill:#C14949;}
	.st45{fill:#B72B2B;}
	.st46{fill:#0078D7;}
	.st47{opacity:0.25;}
	.st48{fill:#808080;}
	.st49{fill:#B3B3B3;}
	.st50{fill:#AD464C;}
	.st51{fill:#366A83;}
	.st52{fill:#619BB5;}
	.st53{fill:#395B71;}
	.st54{fill:#2C3E58;}
	.st55{fill:#FFFFFF;stroke:#60A860;stroke-width:4;stroke-miterlimit:10;}
</style>
<g id="bg_color" class="st0">
	<rect class="st1" width="400" height="140"/>
</g>
<g id="titles">
	<g>
		<polygon class="st3" points="228,25 228,32 217,32 217,115 326,115 326,32 314,32 314,25 278,25 271.5,32.5 263.5,25.5 		"/>
		<g>
			<path id="outline_2_" class="st4" d="M317,30v-7h-37.5c-2.9,0-6.3,5.1-8.5,7c-2.3-1.9-4.5-7-7.4-7H226v7h-11v87h113V30H317z
				 M313,27v78h-34c-2.4,0-5.1,3.5-7,4.5V32c1.9-1.5,4.5-5,7-5H313z M230,27h33.2c2.5,0,4.9,3.5,6.8,5v77.6
				c-1.9-1.1-4.4-4.6-6.8-4.6H230V27z M219,34h7v75h38c4,0,7,4,7,4h-52V34z M324,113h-53c0,0,3-4,7.6-4H317V34h7V113z"/>
		</g>
	</g>
	<g>
		<g>
			<circle class="st34" cx="269.7" cy="68" r="30"/>
			<path class="st35" d="M248.9,46.4c-5.7,5.5-9.2,13.1-9.2,21.6c0,16.6,13.4,30,30,30c8.5,0,16.2-3.5,21.6-9.2L248.9,46.4z"/>
			<g class="st0">
				<path class="st36" d="M260.2,77.5l-11.1-16c-0.1-0.2-0.3-0.4-0.4-0.6c-0.1-0.2-0.2-0.4-0.3-0.6h-0.1c0,0.2,0,0.4,0,0.7
					c0,0.3,0,0.7,0,1.1v15.5h-1.9v-20h2l10.9,15.8c0.2,0.3,0.3,0.5,0.5,0.7c0.1,0.2,0.3,0.4,0.4,0.6h0.1c0-0.3-0.1-0.6-0.1-1
					c0-0.4,0-0.8,0-1.3V57.6h1.9v20H260.2z"/>
				<path class="st36" d="M267.3,77.5v-20h9.7v1.7h-7.9v7.3h7.3v1.7h-7.3v7.6h8.3v1.7H267.3z"/>
				<path class="st36" d="M287.4,59.3v18.3h-1.9V59.3h-5.7v-1.7h13.4v1.7H287.4z"/>
			</g>
		</g>
		<g>
			<path class="st3" d="M246.9,77.6c-0.4,0-0.7-0.1-0.9-0.4s-0.4-0.5-0.4-0.9c0-0.4,0.1-0.7,0.4-0.9s0.5-0.4,0.9-0.4
				c0.2,0,0.3,0,0.5,0.1s0.3,0.2,0.4,0.3s0.2,0.2,0.3,0.4s0.1,0.3,0.1,0.5c0,0.2,0,0.3-0.1,0.5s-0.2,0.3-0.3,0.4s-0.2,0.2-0.4,0.3
				S247,77.6,246.9,77.6z"/>
			<path class="st3" d="M263.9,77.3l-10.5-15.2c-0.1-0.2-0.3-0.4-0.4-0.6s-0.2-0.4-0.3-0.6h-0.1c0,0.2,0,0.4,0,0.7s0,0.6,0,1.1v14.6
				h-1.8V58.4h1.9l10.3,15c0.2,0.2,0.3,0.5,0.4,0.7s0.2,0.4,0.3,0.6h0.1c0-0.3-0.1-0.6-0.1-1s0-0.8,0-1.2V58.4h1.8v18.9H263.9z"/>
			<path class="st3" d="M269.2,77.3V58.4h9.2V60H271V67h6.9v1.6H271v7.2h7.9v1.6H269.2z"/>
			<path class="st3" d="M288.3,60v17.3h-1.8V60h-5.4v-1.6h12.7V60H288.3z"/>
		</g>
	</g>
	<path class="st37" d="M170,85.5c-0.4,0.3-0.3,0.8-0.2,1.1l0.9,1.7c0.3,0.4,0.7,0.5,1.3,0.3l2.2-0.9c0.8-0.4,1.2-0.2,1.7,0.2
		c0.4,0.2,0.7,0.5,1.1,0.7c0.3,0.4,0.6,0.7,0.5,1.6l-0.4,2.6c0,0.5,0.4,0.8,0.5,0.9l2,0.6c0.2,0.1,0.7-0.2,1-0.7l0.9-2.4
		c0.3-0.8,0.8-0.8,1.3-0.9L183,90c0.4,0.2,0.9,0.1,1.1,0c0.6-0.2,1.2-0.2,1.8,0.7l1.3,1.9c0.5,0.4,1,0.4,1.3,0.3l1.8-1.1
		c0.3-0.1,0.5-0.7,0.2-1.1l-0.9-2.2c-0.4-0.8-0.1-1.4,0.2-1.7c0.2-0.4,0.5-0.7,0.7-1.1c0.4-0.3,0.7-0.6,1.7-0.7l2.3,0.5
		c0.7,0,1-0.3,1.2-0.7l0.3-1.9c0.2-0.4-0.1-0.9-0.5-1.1l-2.4-0.8c-0.8-0.3-1-0.9-1.1-1.3c0-0.5-0.1-0.9-0.2-1.2l0.1-0.2
		c0-0.5-0.1-0.9,0.6-1.6l2.2-1.4c0.4-0.3,0.3-0.8,0.2-1.1l-1.1-1.8c-0.1-0.3-0.7-0.5-1.1-0.2l-2.4,0.9c-0.8,0.4-1.2,0.2-1.5-0.2
		c-0.4-0.2-0.7-0.5-1.1-0.7c-0.5-0.4-0.8-0.8-0.7-1.7l0.6-2.5c0-0.5-0.4-0.8-0.7-1l-2-0.6c-0.3,0.1-0.7,0.2-1,0.7l-0.9,2.4
		c-0.3,0.8-0.7,1.1-1.3,0.9c-0.3,0.1-0.7,0.2-1.3,0.4c-0.5,0-0.9,0.1-1.5-0.8l-1.5-2c-0.3-0.4-0.8-0.3-1.1-0.2l-1.8,1.1
		c-0.3,0.1-0.5,0.7-0.4,1l1.1,2.3c0.4,0.8,0.2,1.2-0.2,1.5c-0.4,0.5-0.6,0.9-0.9,1.2c-0.2,0.6-0.8,0.8-1.5,0.8l-2.5-0.6
		c-0.5,0-0.8,0.4-1,0.7l-0.5,1.8c-0.2,0.4,0.1,0.9,0.5,1.1l2.4,0.8c0.8,0.3,1,0.9,1.1,1.3c0,0.5,0.1,0.9,0.1,1.4
		c0.2,0.5,0.1,0.9-0.6,1.6L170,85.5 M184.9,84.9c-2.4,1.3-5.5,0.5-7-1.9c-1.5-2.4-0.7-5.5,1.9-7c2.4-1.3,5.5-0.5,6.8,1.8
		C188.1,80.2,187.3,83.3,184.9,84.9"/>
	<path class="st38" d="M165.1,106.3c0.6,0.2,1.2-0.2,1.4-0.6l1.1-2.7c0.2-0.4-0.1-0.9-0.6-1.4l-3.5-2.1c0.1-0.9,0.3-1.9,0.4-2.8
		l4.2-0.8c0.5,0,0.9-0.5,0.9-1l0-2.7c0-0.7-0.5-1.1-0.9-1.1l-4.3-0.6c-0.1-0.9-0.2-1.9-0.5-2.7l3.6-2.2c0.6-0.2,0.8-0.8,0.6-1.4
		l-1.3-2.6c0-0.5-0.6-0.7-1.1-0.7l-4.3,1c-0.4-0.8-1-1.5-1.6-2.2l2.6-3.5c0.2-0.4,0.2-1.1-0.1-1.4l-2.2-2c-0.3-0.4-1-0.4-1.3-0.1
		l-3.3,2.5c-0.7-0.5-1.7-0.9-2.4-1.4l1-4.2c0.2-0.4-0.1-0.9-0.7-1.2l-2.6-1c-0.6-0.2-1.1,0-1.3,0.4l-2.2,3.7c-1.1-0.2-2-0.6-3-0.5
		l-0.5-4.3c-0.2-0.6-0.5-0.9-1.2-0.9l-2.8,0c-0.5,0-1.1,0.5-1.1,1.1l-0.5,4.1c-0.9,0.1-1.8,0.4-2.7,0.5l-2.2-3.6
		c-0.3-0.4-0.9-0.6-1.5-0.4l-2.5,1.1c-0.6,0.2-0.8,0.8-0.7,1.3l1.3,4.2c-0.9,0.5-1.8,1.1-2.5,1.7l-3.5-2.6c-0.3-0.4-1-0.4-1.4,0.1
		l-1.9,2c-0.4,0.3-0.4,1-0.2,1.5l2.7,3.4c-0.5,0.7-1,1.4-1.5,2.1l-4.2-1c-0.5,0-1,0.3-1.2,0.7l-1.1,2.7c-0.2,0.4,0,1.1,0.4,1.3
		l3.7,2.2c-0.1,0.9-0.3,1.9-0.4,2.8l-4.2,0.8c-0.5,0-0.9,0.5-0.9,1l0,2.9c0,0.5,0.4,0.8,0.9,1.1l4.1,0.5c0.4,0.8,0.4,1.8,0.8,2.6
		l-3.8,2.1c-0.4,0.3-0.6,0.9-0.4,1.5l1,2.7c0.3,0.4,0.9,0.6,1.4,0.6l4.1-1.1c0.6,0.9,1.2,1.6,1.7,2.5l-2.5,3.3
		c-0.4,0.5-0.2,1.1,0.1,1.4l2,1.9c0.5,0.4,1.2,0.5,1.5,0.2l3.3-2.5c0.7,0.5,1.4,1,2.4,1.4l-1,4.2c-0.2,0.6,0,1.1,0.6,1.4l2.6,1
		c0.6,0.2,1.1,0,1.4-0.6l2.2-3.7c1,0.4,1.8,0.5,3,0.5l0.5,4.3c0,0.5,0.5,0.9,1,0.9l2.9,0c0.5,0,0.9-0.5,1.1-0.9l0.6-4.3
		c0.9-0.1,1.7-0.2,2.5-0.6l2.4,3.7c0.3,0.4,0.9,0.6,1.2,0.5l2.8-1.2c0.6-0.2,0.8-0.8,0.6-1.4l-1.1-4.1c0.9-0.5,1.7-0.9,2.4-1.5
		l3.4,2.3c0.5,0.4,1.2,0.5,1.6,0l1.9-2c0.4-0.3,0.4-1-0.1-1.4l-2.5-3.5c0.5-0.7,1-1.4,1.5-2.1L165.1,106.3 M145.1,95.5
		c-0.9,2.4-3.4,3.4-5.8,2.5c-2.2-0.9-3.2-3.3-2.3-5.7c0.9-2.2,3.4-3.4,5.6-2.5C145,90.7,145.9,93.4,145.1,95.5"/>
	<g>
		<path class="st18" d="M103,43.3C103,43.3,103,43.3,103,43.3c-0.8,0-30,0-30,0V100c0,5.8,13.4,10.6,30,10.7v0h-0.2
			c0.1,0,0.1,0,0.2,0v0c16.6,0,30-4.8,30-10.7V43.3H103z"/>
		<path class="st19" d="M102.9,110.7h0.4c16.3,0,29.5-4.8,29.5-10.7V43.3h-29.9V110.7z"/>
		<path class="st3" d="M133,41.3c0,5.9-13.4,10.6-30,10.6s-30-4.8-30-10.6s13.4-10.6,30-10.6S133,35.5,133,41.3"/>
		<path class="st20" d="M127.8,41.7c0,3.9-11.2,7-24.9,7S78,45.5,78,41.7c0-3.9,11.2-7,24.9-7S127.8,37.8,127.8,41.7"/>
		<path class="st21" d="M122.6,46c3.3-1.2,5.2-2.7,5.2-4.3c0-3.9-11.2-7-24.9-7c-13.8,0-24.9,3.1-24.9,7c0,1.6,2,3.1,5.2,4.3
			c4.6-1.7,11.7-2.7,19.7-2.7C110.9,43.3,118.1,44.3,122.6,46"/>
	</g>
</g>
</svg>
