<svg id="titles" xmlns="http://www.w3.org/2000/svg" xmlns:xlink="http://www.w3.org/1999/xlink" viewBox="0 0 400 140"><defs><style>.cls-1,.cls-3{fill:none;}.cls-2{clip-path:url(#clip-path);}.cls-3{stroke:#fff;stroke-miterlimit:10;stroke-dasharray:2 2;}.cls-4{fill:#e6e6e6;}.cls-12,.cls-13,.cls-5{fill:#fff;}.cls-5{opacity:0.15;}.cls-6{fill:#5e5e5e;}.cls-7{fill:#2e2e2e;}.cls-8{fill:#221f1f;}.cls-9{fill:#999;}.cls-10{fill:#aad2f2;}.cls-11{fill:#316389;}.cls-13{opacity:0.1;isolation:isolate;}.cls-14{fill:#638aa5;}.cls-15{fill:#175d87;}.cls-16{fill:#377093;}</style><clipPath id="clip-path"><rect class="cls-1" x="194.33" y="51.99" width="32" height="8"/></clipPath></defs><title>sql-2</title><g class="cls-2"><line class="cls-3" x1="245.33" y1="57.49" x2="162.33" y2="57.35"/></g><rect class="cls-4" x="183.73" y="24.89" width="151.71" height="83.26"/><polygon class="cls-5" points="335.44 68.95 335.44 23.57 290.06 23.57 335.44 68.95"/><polygon class="cls-6" points="293.33 126.33 227.85 126.33 231.69 121.99 289.49 121.99 293.33 126.33"/><path class="cls-7" d="M290.74,128.76H230.55a2.57,2.57,0,0,1-2.83-2.45h65.61S293.66,128.76,290.74,128.76Z"/><polygon class="cls-7" points="274.79 123.52 246.39 123.52 248.69 110.48 272.48 110.48 274.79 123.52"/><path class="cls-8" d="M336.8,23H183.87a3.54,3.54,0,0,0-3.54,3.54v81.68a3.54,3.54,0,0,0,3.54,3.54H336.8a3.54,3.54,0,0,0,3.54-3.54V26.54A3.54,3.54,0,0,0,336.8,23ZM335,105.58H185.56v-78H335Z"/><path class="cls-9" d="M151.14,28.23a1,1,0,0,0-.29-1.25l-2.16-1.34a1.14,1.14,0,0,0-1.25.3l-2.28,2.65c-.71-.23-1.58-.55-2.29-.78l-.07-3.68a.88.88,0,0,0-.74-.88l-2.33-.37a.81.81,0,0,0-1,.64l-1.14,3.57a7.46,7.46,0,0,0-2.36,0l-1.32-3.38a.88.88,0,0,0-1.08-.67l-2.34.69c-.4,0-.69.43-.73.83l.23,3.78a7.54,7.54,0,0,0-2.13,1l-2.61-2.68a1.29,1.29,0,0,0-1.21-.11l-2,1.53a.88.88,0,0,0-.26,1.12l1.67,3.17c-.54.52-1,1.3-1.55,1.82l-3.37-1.44a.83.83,0,0,0-1.09.39l-1.24,2a.83.83,0,0,0,.14,1.16l2.8,2.37a10.52,10.52,0,0,0-.87,2.45L114.48,41a1.12,1.12,0,0,0-1,.89l-.37,2.34a1.11,1.11,0,0,0,.79,1.13l3.41,1c-.07.81.1,1.56,0,2.37L114,50.13a1.12,1.12,0,0,0-.51,1.18l.53,2.25a1.12,1.12,0,0,0,1,.82l3.71-.48a15.17,15.17,0,0,0,1.09,2.38l-2.68,2.62a.81.81,0,0,0-.11,1.22L118.38,62a1.2,1.2,0,0,0,1.27.36l3.26-1.83,1.57,1.61L123,65.56a1.21,1.21,0,0,0,.39,1.1L125.58,68a1,1,0,0,0,1.15-.14L129.1,65c.71.23,1.58.55,2.29.78l.08,3.68a.87.87,0,0,0,.73.88l2.48.47a1.1,1.1,0,0,0,1-.64l1-3.42c.75-.18,1.56-.11,2.31-.28L140.3,70a1.11,1.11,0,0,0,1.18.51l2.4-.44a1.55,1.55,0,0,0,.67-1.08l-.33-3.62c.84-.33,1.53-.76,2.38-1.09L149,66.91a.88.88,0,0,0,1.21.11l1.92-1.38a1,1,0,0,0,.36-1.28l-1.67-3.17a9.23,9.23,0,0,0,1.55-1.82l3.37,1.45a.86.86,0,0,0,1.25-.3l1.24-2a.86.86,0,0,0-.29-1.25l-2.8-2.38a6.43,6.43,0,0,0,.87-2.45l3.73.17a.87.87,0,0,0,.88-.74l.47-2.49a1.3,1.3,0,0,0-.64-1l-3.56-1.14A6.57,6.57,0,0,0,156.8,45l3.47-1.49c.34-.21.63-.68.57-.93l-.59-2.5a.88.88,0,0,0-1.08-.67l-3.61.33a14,14,0,0,0-.93-2.29l2.43-2.56a.94.94,0,0,0,.2-1.37l-1.37-1.92a.81.81,0,0,0-1.21-.11l-3.32,1.58-1.57-1.61,1.35-3.23M139.09,43.65a3.73,3.73,0,0,1,1.24,5.25A3.68,3.68,0,0,1,135.18,50a3.73,3.73,0,1,1,3.91-6.34"/><path class="cls-10" d="M52,53.7a11.6,11.6,0,0,1,5.56,1.41A18.25,18.25,0,0,1,87.41,43.17a26.79,26.79,0,0,1,53.13,3.28A15.53,15.53,0,1,1,144.47,77H52a11.65,11.65,0,1,1,0-23.3Z"/><rect class="cls-11" x="65" y="91" width="24" height="6"/><polygon class="cls-11" points="80 75.29 80 54 74 54 74 75.29 65 66.33 65 75.3 77 87.13 89 75.3 89 66.33 80 75.29"/><path class="cls-12" d="M117.61,55.64a.83.83,0,0,0,.91.34l1.66-.53a.89.89,0,0,0,.44-1.07l-.49-2.09a1.24,1.24,0,0,1,.47-1.49c.2-.32.56-.55.76-.87a1.5,1.5,0,0,1,1.47-.21l2.23.71a1,1,0,0,0,.88-.35l.84-1.71c.1-.16,0-.68-.51-1l-1.93-1.19a1.09,1.09,0,0,1-.57-1.24l-.16-.1a1.45,1.45,0,0,0,.18-1c-.12-.52,0-1.11.9-1.45l1.86-.86a1.06,1.06,0,0,0,.44-1.07l-.69-1.77a.66.66,0,0,0-.91-.34l-2.09.49a1.28,1.28,0,0,1-1.49-.47c-.32-.2-.55-.56-.87-.76a2.15,2.15,0,0,1-.37-1.56l.77-2a1,1,0,0,0-.41-1.14l-1.65-.57a.82.82,0,0,0-1,.25l-1,2a1.37,1.37,0,0,1-1.34.73,4.15,4.15,0,0,0-1.11,0l-.16-.1a1.41,1.41,0,0,1-1.29-.8l-.91-2.13a.83.83,0,0,0-.91-.34l-1.77.69a.66.66,0,0,0-.34.91l.39,2.25c.19.78,0,1.1-.37,1.33-.2.32-.56.55-.76.87a1.41,1.41,0,0,1-1.56.37l-2.13-.87a1,1,0,0,0-1,.51l-.84,1.71a1.18,1.18,0,0,0,.51,1L105.57,42c.65.4.87.76.57,1.24.06.26,0,.68.15,1.21,0,.42-.08.84-1,1.19l-2,1a.84.84,0,0,0-.34.91l.69,1.76a.85.85,0,0,0,.81.5l2.19-.66c.78-.18,1.1,0,1.33.37a12,12,0,0,1,.93,1,1.2,1.2,0,0,1,.47,1.4l-.87,2.14a1,1,0,0,0,.51,1l1.55.73a.82.82,0,0,0,1-.25l1-2a1.37,1.37,0,0,1,1.34-.73l1.27.11c.52-.12.84.08,1.29.8l1,2m1.7-13.21a4.71,4.71,0,0,1-2.74,5.88,4.38,4.38,0,0,1-5.88-2.74,4.5,4.5,0,0,1,2.64-5.72,4.56,4.56,0,0,1,6,2.58"/><path class="cls-11" d="M260.5,47.17H238V89.71c0,4.38,10,7.94,22.5,8h0c12.43,0,22.5-3.58,22.5-8V47.17Z"/><path class="cls-13" d="M260.44,97.71h.3c12.22,0,22.13-3.58,22.13-8V47.17H260.44Z"/><path class="cls-14" d="M283,45.66c0,4.39-10.07,8-22.5,8s-22.5-3.56-22.5-8,10.07-8,22.5-8,22.5,3.56,22.5,8"/><path class="cls-15" d="M279.14,45.93c0,2.9-8.37,5.26-18.7,5.26s-18.7-2.35-18.7-5.26,8.37-5.26,18.7-5.26,18.7,2.35,18.7,5.26"/><path class="cls-16" d="M275.22,49.16c2.45-.89,3.92-2,3.92-3.21,0-2.9-8.37-5.25-18.7-5.25s-18.7,2.35-18.7,5.25c0,1.21,1.47,2.32,3.92,3.21,3.42-1.24,8.76-2,14.78-2s11.36.8,14.78,2"/><path class="cls-12" d="M245.64,77.17V75a3.3,3.3,0,0,0,.69.47,5.29,5.29,0,0,0,.85.36,6.68,6.68,0,0,0,.9.22,4.79,4.79,0,0,0,.83.08,3.53,3.53,0,0,0,2-.44,1.45,1.45,0,0,0,.65-1.27,1.39,1.39,0,0,0-.22-.78,2.26,2.26,0,0,0-.6-.6,6.33,6.33,0,0,0-.91-.52L248.67,72q-.64-.34-1.2-.69a5.11,5.11,0,0,1-1-.78,3.24,3.24,0,0,1-.64-1,3.13,3.13,0,0,1-.23-1.26,2.89,2.89,0,0,1,.4-1.54,3.36,3.36,0,0,1,1.05-1.08,4.82,4.82,0,0,1,1.49-.63,7.07,7.07,0,0,1,1.71-.21,6.88,6.88,0,0,1,2.88.45v2.07a4.6,4.6,0,0,0-2.76-.77,4.93,4.93,0,0,0-.93.09,2.74,2.74,0,0,0-.83.29,1.78,1.78,0,0,0-.59.52,1.27,1.27,0,0,0-.23.76A1.45,1.45,0,0,0,248,69a1.88,1.88,0,0,0,.51.56,5.3,5.3,0,0,0,.83.5q.49.24,1.13.52t1.24.72a5.91,5.91,0,0,1,1,.83,3.71,3.71,0,0,1,.7,1,3,3,0,0,1,.26,1.27,3,3,0,0,1-1.43,2.69,4.64,4.64,0,0,1-1.51.6,8.5,8.5,0,0,1-1.8.18,7.63,7.63,0,0,1-.78,0c-.31,0-.62-.08-.95-.14a8.69,8.69,0,0,1-.91-.22A2.89,2.89,0,0,1,245.64,77.17Z"/><path class="cls-12" d="M261.22,77.88a6.31,6.31,0,0,1-2.47-.46,5.42,5.42,0,0,1-1.89-1.31,5.9,5.9,0,0,1-1.21-2,7.43,7.43,0,0,1-.43-2.58,8.21,8.21,0,0,1,.43-2.74,6,6,0,0,1,1.24-2.1,5.44,5.44,0,0,1,2-1.34,6.7,6.7,0,0,1,2.58-.47,6.07,6.07,0,0,1,2.41.47,5.37,5.37,0,0,1,1.86,1.31,5.93,5.93,0,0,1,1.2,2,7.49,7.49,0,0,1,.43,2.58,8,8,0,0,1-.62,3.27,5.62,5.62,0,0,1-1.76,2.25l3.66,2.64h-3.18l-2.25-1.75a7.71,7.71,0,0,1-.93.19A7,7,0,0,1,261.22,77.88Zm.1-11.19a3.64,3.64,0,0,0-1.58.34,3.59,3.59,0,0,0-1.24,1,4.45,4.45,0,0,0-.8,1.48,6,6,0,0,0-.29,1.92,6.24,6.24,0,0,0,.28,1.91,4.45,4.45,0,0,0,.78,1.47A3.47,3.47,0,0,0,261.23,76a4,4,0,0,0,1.63-.32,3.38,3.38,0,0,0,1.23-.91,4.15,4.15,0,0,0,.78-1.45,6.49,6.49,0,0,0,.27-2,7,7,0,0,0-.26-2,4.23,4.23,0,0,0-.76-1.48,3.24,3.24,0,0,0-1.2-.92A3.86,3.86,0,0,0,261.31,66.69Z"/><path class="cls-12" d="M276.61,77.67h-7V65.06h2.09V75.9h4.89Z"/></svg>