<?xml version="1.0" encoding="utf-8"?>
<!-- Generator: Adobe Illustrator 21.0.0, SVG Export Plug-In . SVG Version: 6.00 Build 0)  -->
<svg version="1.1" xmlns="http://www.w3.org/2000/svg" xmlns:xlink="http://www.w3.org/1999/xlink" x="0px" y="0px"
	 viewBox="0 0 400 140" style="enable-background:new 0 0 400 140;" xml:space="preserve">
<style type="text/css">
	.st0{display:none;}
	.st1{display:inline;fill:#E1E5EA;}
	.st2{fill:#FFFFFF;}
	.st3{fill:#88BE88;}
	.st4{fill:none;stroke:#32145A;stroke-width:4;stroke-miterlimit:10;}
	.st5{fill:none;stroke:#FFFFFF;stroke-width:4;stroke-miterlimit:10;}
	.st6{fill:none;stroke:#FFFFFF;stroke-width:3;stroke-miterlimit:10;}
	.st7{fill:#AFD3AF;}
	.st8{fill:#FFFFFF;stroke:#60A860;stroke-width:4;stroke-miterlimit:10;}
	.st9{fill:#60A860;}
	.st10{fill:#AAD2F2;}
	.st11{fill:#666666;}
	.st12{fill:#1A1A1A;}
	.st13{fill:#DF5C2B;}
	.st14{fill:#333333;}
	.st15{fill:#316389;}
	.st16{fill:#638AA5;}
	.st17{fill:#CCCCCC;}
	.st18{fill:#80BCEB;}
	.st19{fill:#0072C6;}
	.st20{opacity:0.1;fill:#FFFFFF;enable-background:new    ;}
	.st21{fill:#7FBA00;}
	.st22{fill:#B8D432;}
	.st23{fill:#0078D7;}
	.st24{opacity:0.25;}
	.st25{fill:#D38080;}
	.st26{fill:#E2AAAA;}
	.st27{fill:#C14949;}
	.st28{fill:#B72B2B;}
	.st29{fill:#2E2E2E;}
	.st30{fill:#5D5F5E;}
	.st31{opacity:0.25;fill:#FFFFFF;}
	.st32{fill:#3999C6;}
	.st33{fill:#7FBB42;}
	.st34{opacity:0.8;fill:#B8D433;enable-background:new    ;}
	.st35{fill:#5AB4D9;}
	.st36{fill:#B8D433;}
</style>
<g id="Layer_1" class="st0">
	<rect class="st1" width="400" height="140"/>
</g>
<g id="titles">
	<g>
		<polygon class="st2" points="234,26 234,33 223,33 223,116 332,116 332,33 320,33 320,26 284,26 277.5,33.5 269.5,26.5 		"/>
		<g>
			<path id="outline_6_" class="st17" d="M323,31v-7h-37.5c-2.9,0-6.3,5.1-8.5,7c-2.3-1.9-4.5-7-7.4-7H232v7h-11v87h113V31H323z
				 M319,28v78h-34c-2.4,0-5.1,3.5-7,4.5V33c1.9-1.5,4.5-5,7-5H319z M236,28h33.2c2.5,0,4.9,3.5,6.8,5v77.6
				c-1.9-1.1-4.4-4.6-6.8-4.6H236V28z M225,35h7v75h38c4,0,7,4,7,4h-52V35z M330,114h-53c0,0,3-4,7.6-4H323V35h7V114z"/>
		</g>
	</g>
	<path class="st18" d="M176,86.5c-0.4,0.3-0.3,0.8-0.2,1.1l0.9,1.7c0.3,0.4,0.7,0.5,1.3,0.3l2.2-0.9c0.8-0.4,1.2-0.2,1.7,0.2
		c0.4,0.2,0.7,0.5,1.1,0.7c0.3,0.4,0.6,0.7,0.5,1.6l-0.4,2.6c0,0.5,0.4,0.8,0.5,0.9l2,0.6c0.2,0.1,0.7-0.2,1-0.7l0.9-2.4
		c0.3-0.8,0.8-0.8,1.3-0.9L189,91c0.4,0.2,0.9,0.1,1.1,0c0.6-0.2,1.2-0.2,1.8,0.7l1.3,1.9c0.5,0.4,1,0.4,1.3,0.3l1.8-1.1
		c0.3-0.1,0.5-0.7,0.2-1.1l-0.9-2.2c-0.4-0.8-0.1-1.4,0.2-1.7c0.2-0.4,0.5-0.7,0.7-1.1c0.4-0.3,0.7-0.6,1.7-0.7l2.3,0.5
		c0.7,0,1-0.3,1.2-0.7l0.3-1.9c0.2-0.4-0.1-0.9-0.5-1.1l-2.4-0.8c-0.8-0.3-1-0.9-1.1-1.3c0-0.5-0.1-0.9-0.2-1.2l0.1-0.2
		c0-0.5-0.1-0.9,0.6-1.6l2.2-1.4c0.4-0.3,0.3-0.8,0.2-1.1l-1.1-1.8c-0.1-0.3-0.7-0.5-1.1-0.2l-2.4,0.9c-0.8,0.4-1.2,0.2-1.5-0.2
		c-0.4-0.2-0.7-0.5-1.1-0.7c-0.5-0.4-0.8-0.8-0.7-1.7l0.6-2.5c0-0.5-0.4-0.8-0.7-1l-2-0.6c-0.3,0.1-0.7,0.2-1,0.7l-0.9,2.4
		c-0.3,0.8-0.7,1.1-1.3,0.9c-0.3,0.1-0.7,0.2-1.3,0.4c-0.5,0-0.9,0.1-1.5-0.8l-1.5-2c-0.3-0.4-0.8-0.3-1.1-0.2l-1.8,1.1
		c-0.3,0.1-0.5,0.7-0.4,1l1.1,2.3c0.4,0.8,0.2,1.2-0.2,1.5c-0.4,0.5-0.6,0.9-0.9,1.2c-0.2,0.6-0.8,0.8-1.5,0.8l-2.5-0.6
		c-0.5,0-0.8,0.4-1,0.7l-0.5,1.8c-0.2,0.4,0.1,0.9,0.5,1.1l2.4,0.8c0.8,0.3,1,0.9,1.1,1.3c0,0.5,0.1,0.9,0.1,1.4
		c0.2,0.5,0.1,0.9-0.6,1.6L176,86.5 M190.9,85.9c-2.4,1.3-5.5,0.5-7-1.9c-1.5-2.4-0.7-5.5,1.9-7c2.4-1.3,5.5-0.5,6.8,1.8
		C194.1,81.2,193.3,84.3,190.9,85.9"/>
	<path class="st10" d="M171.1,107.3c0.6,0.2,1.2-0.2,1.4-0.6l1.1-2.7c0.2-0.4-0.1-0.9-0.6-1.4l-3.5-2.1c0.1-0.9,0.3-1.9,0.4-2.8
		l4.2-0.8c0.5,0,0.9-0.5,0.9-1l0-2.7c0-0.7-0.5-1.1-0.9-1.1l-4.3-0.6c-0.1-0.9-0.2-1.9-0.5-2.7l3.6-2.2c0.6-0.2,0.8-0.8,0.6-1.4
		l-1.3-2.6c0-0.5-0.6-0.7-1.1-0.7l-4.3,1c-0.4-0.8-1-1.5-1.6-2.2l2.6-3.5c0.2-0.4,0.2-1.1-0.1-1.4l-2.2-2c-0.3-0.4-1-0.4-1.3-0.1
		l-3.3,2.5c-0.7-0.5-1.7-0.9-2.4-1.4l1-4.2c0.2-0.4-0.1-0.9-0.7-1.2l-2.6-1c-0.6-0.2-1.1,0-1.3,0.4l-2.2,3.7c-1.1-0.2-2-0.6-3-0.5
		l-0.5-4.3c-0.2-0.6-0.5-0.9-1.2-0.9l-2.8,0c-0.5,0-1.1,0.5-1.1,1.1l-0.5,4.1c-0.9,0.1-1.8,0.4-2.7,0.5l-2.2-3.6
		c-0.3-0.4-0.9-0.6-1.5-0.4l-2.5,1.1c-0.6,0.2-0.8,0.8-0.7,1.3l1.3,4.2c-0.9,0.5-1.8,1.1-2.5,1.7l-3.5-2.6c-0.3-0.4-1-0.4-1.4,0.1
		l-1.9,2c-0.4,0.3-0.4,1-0.2,1.5l2.7,3.4c-0.5,0.7-1,1.4-1.5,2.1l-4.2-1c-0.5,0-1,0.3-1.2,0.7l-1.1,2.7c-0.2,0.4,0,1.1,0.4,1.3
		l3.7,2.2c-0.1,0.9-0.3,1.9-0.4,2.8l-4.2,0.8c-0.5,0-0.9,0.5-0.9,1l0,2.9c0,0.5,0.4,0.8,0.9,1.1l4.1,0.5c0.4,0.8,0.4,1.8,0.8,2.6
		l-3.8,2.1c-0.4,0.3-0.6,0.9-0.4,1.5l1,2.7c0.3,0.4,0.9,0.6,1.4,0.6l4.1-1.1c0.6,0.9,1.2,1.6,1.7,2.5l-2.5,3.3
		c-0.4,0.5-0.2,1.1,0.1,1.4l2,1.9c0.5,0.4,1.2,0.5,1.5,0.2l3.3-2.5c0.7,0.5,1.4,1,2.4,1.4l-1,4.2c-0.2,0.6,0,1.1,0.6,1.4l2.6,1
		c0.6,0.2,1.1,0,1.4-0.6l2.2-3.7c1,0.4,1.8,0.5,3,0.5l0.5,4.3c0,0.5,0.5,0.9,1,0.9l2.9,0c0.5,0,0.9-0.5,1.1-0.9l0.6-4.3
		c0.9-0.1,1.7-0.2,2.5-0.6l2.4,3.7c0.3,0.4,0.9,0.6,1.2,0.5l2.8-1.2c0.6-0.2,0.8-0.8,0.6-1.4l-1.1-4.1c0.9-0.5,1.7-0.9,2.4-1.5
		l3.4,2.3c0.5,0.4,1.2,0.5,1.6,0l1.9-2c0.4-0.3,0.4-1-0.1-1.4l-2.5-3.5c0.5-0.7,1-1.4,1.5-2.1L171.1,107.3 M151.1,96.5
		c-0.9,2.4-3.4,3.4-5.8,2.5c-2.2-0.9-3.2-3.3-2.3-5.7c0.9-2.2,3.4-3.4,5.6-2.5C151,91.7,151.9,94.4,151.1,96.5"/>
	<g>
		<path class="st19" d="M109,44.3C109,44.3,109,44.3,109,44.3c-0.8,0-30,0-30,0V101c0,5.8,13.4,10.6,30,10.7v0h-0.2
			c0.1,0,0.1,0,0.2,0v0c16.6,0,30-4.8,30-10.7V44.3H109z"/>
		<path class="st20" d="M108.9,111.7h0.4c16.3,0,29.5-4.8,29.5-10.7V44.3h-29.9V111.7z"/>
		<path class="st2" d="M139,42.3c0,5.9-13.4,10.6-30,10.6s-30-4.8-30-10.6s13.4-10.6,30-10.6S139,36.5,139,42.3"/>
		<path class="st21" d="M133.8,42.7c0,3.9-11.2,7-24.9,7S84,46.5,84,42.7c0-3.9,11.2-7,24.9-7S133.8,38.8,133.8,42.7"/>
		<path class="st22" d="M128.6,47c3.3-1.2,5.2-2.7,5.2-4.3c0-3.9-11.2-7-24.9-7c-13.8,0-24.9,3.1-24.9,7c0,1.6,2,3.1,5.2,4.3
			c4.6-1.7,11.7-2.7,19.7-2.7C116.9,44.3,124.1,45.3,128.6,47"/>
	</g>
	<g>
		<g>
			<path class="st23" d="M295.6,92.2h-45.6c-2.1,0-3.5-1.5-3.2-3.4l6.8-40.6c0.3-1.9,2.3-3.4,4.4-3.4h45.6c2.1,0,3.5,1.5,3.2,3.4
				L300,88.8C299.7,90.7,297.7,92.2,295.6,92.2z"/>
		</g>
		<g>
			<path class="st2" d="M262.7,87c-0.7,0-1.4-0.3-1.9-0.9c-0.8-1-0.5-2.5,0.5-3.2l19.6-14.4l-14.1-13.3c-0.9-0.9-1-2.3-0.1-3.3
				c0.9-0.9,2.4-1,3.3-0.1L286.1,67c0.5,0.5,0.8,1.1,0.7,1.8c0,0.7-0.4,1.3-0.9,1.7l-21.8,16C263.7,86.8,263.2,87,262.7,87z"/>
		</g>
		<g>
			<path class="st2" d="M287.8,86.8h-11.2c-1.3,0-2.4-1.1-2.4-2.4s1.1-2.4,2.4-2.4h11.2c1.3,0,2.4,1.1,2.4,2.4
				S289.2,86.8,287.8,86.8z"/>
		</g>
		<g class="st24">
			<path class="st2" d="M303.5,44.8H258c-1.6,0-3.1,0.8-3.8,2.1c11.3,10.8,34.1,33.1,44.9,43.7c0.5-0.5,0.8-1.2,0.9-1.9l6.8-40.5
				C307,46.3,305.6,44.8,303.5,44.8z"/>
		</g>
	</g>
</g>
</svg>
