<?xml version="1.0" encoding="utf-8"?>
<!-- Generator: Adobe Illustrator 21.0.0, SVG Export Plug-In . SVG Version: 6.00 Build 0)  -->
<svg version="1.1" xmlns="http://www.w3.org/2000/svg" xmlns:xlink="http://www.w3.org/1999/xlink" x="0px" y="0px"
	 viewBox="0 0 400 140" style="enable-background:new 0 0 400 140;" xml:space="preserve">
<style type="text/css">
	.st0{display:none;}
	.st1{display:inline;fill:#E1E5EA;}
	.st2{fill:#AAD2F2;}
	.st3{fill:#FFFFFF;}
	.st4{fill:#CCCCCC;}
	.st5{fill:#2E2E2E;}
	.st6{fill:#AFD3AF;}
	.st7{fill:#5D5F5E;}
	.st8{opacity:0.25;fill:#FFFFFF;}
	.st9{fill:#909090;}
	.st10{fill:none;stroke:#909090;stroke-miterlimit:10;stroke-dasharray:2,2;}
	.st11{fill-rule:evenodd;clip-rule:evenodd;fill:#999999;}
	.st12{fill:#60A860;}
	.st13{fill:#88BE88;}
	.st14{fill:#231F20;}
	.st15{display:none;fill:#7DB912;}
	.st16{fill:#666666;}
	.st17{fill:#1A1A1A;}
	.st18{fill:#0072C6;}
	.st19{opacity:0.1;fill:#FFFFFF;enable-background:new    ;}
	.st20{fill:#7FBA00;}
	.st21{fill:#B8D432;}
	.st22{fill:#999999;}
	.st23{fill:none;stroke:#000000;stroke-width:4;stroke-miterlimit:10;}
	.st24{fill:#80A58E;}
	.st25{fill:none;stroke:#000000;stroke-width:3;stroke-miterlimit:10;}
	.st26{fill:#20598C;}
	.st27{fill:#333333;}
	.st28{fill:none;stroke:#32145A;stroke-width:4;stroke-miterlimit:10;}
	.st29{fill:none;stroke:#FFFFFF;stroke-width:4;stroke-miterlimit:10;}
	.st30{fill:none;stroke:#FFFFFF;stroke-width:3;stroke-miterlimit:10;}
	.st31{fill:#DF5C2B;}
	.st32{fill:#316389;}
	.st33{fill:#638AA5;}
	.st34{fill:#633BA3;}
	.st35{fill:#5C2D91;}
	.st36{display:inline;fill:#FFFFFF;}
	.st37{fill:#998AAD;}
	.st38{fill:#BBB1C8;}
	.st39{fill:#80BCEB;}
	.st40{fill:#006020;}
	.st41{fill:#004B1C;}
	.st42{fill:#D38080;}
	.st43{fill:#E2AAAA;}
	.st44{fill:#C14949;}
	.st45{fill:#B72B2B;}
	.st46{fill:#0078D7;}
	.st47{opacity:0.25;}
	.st48{fill:#808080;}
	.st49{fill:#B3B3B3;}
	.st50{fill:#AD464C;}
	.st51{fill:#366A83;}
	.st52{fill:#619BB5;}
	.st53{fill:#395B71;}
	.st54{fill:#2C3E58;}
	.st55{fill:#FFFFFF;stroke:#60A860;stroke-width:4;stroke-miterlimit:10;}
</style>
<g id="bg_color" class="st0">
	<rect x="-0.3" class="st1" width="400" height="140"/>
</g>
<g id="titles">
	<circle class="st15" cx="93.2" cy="56.6" r="47.4"/>
	<path class="st2" d="M97.3,47.1C99,26.9,115.3,11,135.2,11c14.8,0,27.5,8.7,33.9,21.5c5.9-3.7,12.8-5.9,20.2-5.9
		c18,0,33.1,12.6,37.6,29.7c5-1.6,10.4-2.2,16.1-1.4c15.9,2.3,28.6,15.4,30.4,31.5c1.8,16.2-7.1,30.5-20.4,36.8
		c-3.4,1.4-6.1,2.6-11.1,3.1c-0.3,0-0.6,0.1-0.9,0.1c-5.2,0.5-12.2,0.5-22.9,0.5H102.4c-2.6,0-5.1-0.3-7.5-0.9
		c-17.8-3.6-31.2-19.8-31.2-39.3C63.7,66.4,78.3,49.6,97.3,47.1z"/>
	<g>
		<path class="st16" d="M288.7,66.3V54.4c0-1.3-1.1-2.4-2.4-2.4h-80.2c-1.3,0-2.4,1.1-2.4,2.4v54.2c0,1.3,1.1,2.4,2.4,2.4h80.2
			c1.3,0,2.4-1.1,2.4-2.4V95.8l35,12.9V53.4L288.7,66.3z"/>
		<circle class="st3" cx="246.7" cy="83.1" r="19.4"/>
		<path class="st17" d="M258.3,84.9l-16.4,9.8c-1.4,0.8-3.2-0.2-3.2-1.8V73.3c0-1.6,1.8-2.7,3.2-1.8l16.4,9.8
			C259.6,82.1,259.6,84.1,258.3,84.9z"/>
	</g>
	<g>
		<g>
			<circle class="st3" cx="143.5" cy="81.9" r="35"/>
		</g>
		<g>
			<rect x="124.7" y="65" class="st12" width="6" height="35"/>
			<rect x="133.7" y="65" class="st12" width="6" height="35"/>
			<rect x="142.7" y="65" class="st12" width="6" height="35"/>
			<rect x="154" y="64.4" transform="matrix(0.9835 -0.181 0.181 0.9835 -12.2318 29.7702)" class="st12" width="6" height="35"/>
		</g>
	</g>
</g>
</svg>
