<?xml version="1.0" encoding="utf-8"?>
<!-- Generator: Adobe Illustrator 21.0.0, SVG Export Plug-In . SVG Version: 6.00 Build 0)  -->
<svg version="1.1" xmlns="http://www.w3.org/2000/svg" xmlns:xlink="http://www.w3.org/1999/xlink" x="0px" y="0px"
	 viewBox="0 0 400 140" style="enable-background:new 0 0 400 140;" xml:space="preserve">
<style type="text/css">
	.st0{display:none;}
	.st1{display:inline;fill:#E1E5EA;}
	.st2{fill:#424242;}
	.st3{fill:#909090;}
	.st4{fill:none;stroke:#909090;stroke-miterlimit:10;stroke-dasharray:2,2;}
	.st5{fill:#CCCCCC;}
	.st6{opacity:0.15;fill:#FFFFFF;}
	.st7{fill:#5D5D5D;}
	.st8{fill:#171717;}
	.st9{fill:#7DB912;}
	.st10{fill:#2E2E2E;}
	.st11{fill:#5D5F5E;}
	.st12{fill:#FFFFFF;}
	.st13{fill:#AAD2F2;}
	.st14{fill:#2B456D;}
	.st15{fill:#B3B3B3;}
	.st16{opacity:0.25;fill:#FFFFFF;}
	.st17{clip-path:url(#SVGID_2_);}
	.st18{fill:none;stroke:#FFFFFF;stroke-miterlimit:10;stroke-dasharray:2,2;}
	.st19{clip-path:url(#SVGID_4_);}
	.st20{fill:#AFD3AF;}
	.st21{fill:none;}
	.st22{fill:#0072C6;}
	.st23{fill:#60A860;}
	.st24{fill:#316389;}
	.st25{opacity:0.1;fill:#FFFFFF;enable-background:new    ;}
	.st26{fill:#7FBA00;}
	.st27{fill:#B8D432;}
	.st28{fill:#638AA5;}
	.st29{fill:#175D87;}
	.st30{fill:#377093;}
	.st31{fill:#333333;}
	.st32{fill:#88BE88;}
	.st33{fill:none;stroke:#32145A;stroke-width:4;stroke-miterlimit:10;}
	.st34{fill:none;stroke:#FFFFFF;stroke-width:4;stroke-miterlimit:10;}
	.st35{fill:none;stroke:#FFFFFF;stroke-width:3;stroke-miterlimit:10;}
	.st36{fill:#E2E2E2;}
	.st37{fill:#8090A8;}
	.st38{fill:#D4DAE2;}
	.st39{fill:none;stroke:#808080;stroke-width:2;stroke-miterlimit:10;}
	.st40{fill:#808080;}
	.st41{fill:#FFFFFF;stroke:#808080;stroke-width:2;stroke-miterlimit:10;}
	.st42{fill:none;stroke:#808080;stroke-width:2;stroke-linejoin:bevel;stroke-miterlimit:10;}
	.st43{fill:#FFFFFF;stroke:#60A860;stroke-width:1.7237;stroke-miterlimit:10;}
</style>
<g id="Layer_1" class="st0">
	<rect x="-0.3" class="st1" width="400" height="140"/>
</g>
<g id="titles">
	<path class="st13" d="M97.4,11h91.4c1.6,0,2.9,1.3,2.9,2.9v60.2c0,1.6-1.3,2.9-2.9,2.9h-9.1v23l-22.8-23H97.6
		c-1.6,0-2.9-1.3-2.9-2.9V13.7C94.7,12.2,95.9,11,97.4,11z"/>
	<path class="st20" d="M304,40h-91.4c-1.6,0-2.9,1.3-2.9,2.9v60.2c0,1.6,1.3,2.9,2.9,2.9h9.1v23l22.8-23h59.3c1.6,0,2.9-1.3,2.9-2.9
		V42.7C306.7,41.2,305.5,40,304,40z"/>
	<rect x="232.7" y="52" class="st21" width="42" height="42"/>
	<g>
		<path class="st22" d="M138.7,54c-0.2-0.5-0.3-1.1-0.5-1.9c-0.1-0.8-0.2-1.6-0.2-2.4c0-1.2,0.2-2.3,0.7-3.3c0.5-1,1.1-1.9,1.8-2.8
			c0.7-0.9,1.5-1.7,2.4-2.5c0.8-0.8,1.6-1.6,2.4-2.3c0.7-0.8,1.3-1.5,1.8-2.4c0.5-0.8,0.7-1.7,0.7-2.7c0-0.9-0.2-1.7-0.5-2.3
			c-0.4-0.7-0.8-1.2-1.5-1.7c-0.6-0.4-1.3-0.8-2.1-1c-0.8-0.2-1.7-0.3-2.6-0.3c-3,0-5.8,1.3-8.5,4v-6.9c3.3-1.9,6.6-2.9,10.1-2.9
			c1.6,0,3.1,0.2,4.6,0.6c1.4,0.4,2.7,1,3.8,1.8c1.1,0.8,1.9,1.8,2.5,3c0.6,1.2,0.9,2.6,0.9,4.2c0,1.5-0.3,2.9-0.8,4.1
			c-0.5,1.2-1.2,2.3-1.9,3.3c-0.8,1-1.6,1.9-2.5,2.7c-0.9,0.8-1.7,1.5-2.5,2.3c-0.8,0.8-1.4,1.6-1.9,2.4c-0.5,0.8-0.8,1.8-0.8,2.8
			c0,0.9,0.1,1.6,0.3,2.3c0.2,0.7,0.4,1.3,0.7,1.8H138.7z M142.5,66.9c-1.1,0-2.1-0.4-3-1.2c-0.8-0.8-1.3-1.7-1.3-2.8
			c0-1.1,0.4-2.1,1.3-2.8c0.9-0.8,1.9-1.2,3-1.2c1.1,0,2.1,0.4,3,1.2c0.8,0.7,1.3,1.7,1.3,2.8c0,1.1-0.4,2-1.3,2.8
			C144.6,66.5,143.6,66.9,142.5,66.9z"/>
	</g>
	<g>
		<path class="st43" d="M275.2,64.4L275.2,64.4v-0.3c0-7.9-6.7-14.4-15-14.5c-0.2-0.3-4.9,0.1-4.9,0.1l0,0
			c-7.5,0.9-13.3,7.2-13.3,14.4c0,0.2-0.8,5.9,5,10.7c2.7,2.4,5.4,8.7,5.8,10.5l0.3,0.6H264l0.3-0.6c0.4-1.8,3.3-8.2,5.8-10.4
			C275.9,70.1,275.2,64.6,275.2,64.4z"/>
		<rect x="252.7" y="90" class="st23" width="12" height="3"/>
		<polygon class="st23" points="256.1,100 261.2,100 264.2,96 253.2,96 		"/>
		<g>
			<path class="st23" d="M262.2,86h-2V73h-2v13h-2V73h-2c0,0-3.8-2-3.8-4c0-2,1.6-3.8,3.8-3.8c2.1,0,3.8,1.7,4,3.8v2h2v-1.6
				c0-1.5,0.7-2.9,2.1-3.5c3-1.5,6.2,1.5,5.1,4.6c-0.5,1.6-2.1,2.5-3.8,2.5l-1.4,0V86z M254.5,67.5c-1,0-2,0.9-1.7,2.2
				c0.2,0.8,0.9,1.3,1.7,1.3h1.7v-1.7C256.1,68.3,255.4,67.5,254.5,67.5z M262.2,69.4V71l1.7,0c0.6,0,1.2-0.3,1.5-0.8
				c0.7-1.3-0.2-2.8-1.7-2.7C262.9,67.6,262.2,68.4,262.2,69.4z"/>
		</g>
	</g>
</g>
</svg>
