<svg id="titles" xmlns="http://www.w3.org/2000/svg" viewBox="0 0 400 140"><defs><style>.cls-1{fill:#2e2e2e;}.cls-2{fill:#316389;}.cls-3{fill:#5d5f5e;}.cls-4,.cls-6{fill:#fff;}.cls-4,.cls-7{opacity:0.15;}.cls-5{opacity:0.1;}.cls-8,.cls-9{fill:none;stroke-linecap:round;stroke-miterlimit:10;stroke-width:2px;}.cls-8{stroke:#88be88;}.cls-9{stroke:#ffb255;}.cls-10{fill:#aad5d0;}.cls-11{fill:#2b978a;}.cls-12{fill:#88be88;}.cls-13{fill:#aab2da;}.cls-14{fill:#f7b0b6;}.cls-15{fill:#d4e1d9;}.cls-16{fill:#ffe8aa;}.cls-17{fill:#ffb255;}.cls-18{fill:#aae9fb;}.cls-19{fill:#757575;}</style></defs><title>sql-7</title><rect class="cls-1" x="114" y="16" width="140" height="98" rx="2.16" ry="2.16"/><rect class="cls-2" x="122" y="23" width="124" height="84"/><polygon class="cls-3" points="249 66.37 252 66.75 252 63.64 249 64.02 249 66.37"/><polygon class="cls-4" points="246 75.11 246 23 189.97 23 246 75.11"/><g class="cls-5"><rect class="cls-6" x="128" y="28" width="54" height="4"/><rect class="cls-6" x="128" y="34" width="54" height="4"/><rect class="cls-6" x="128" y="40" width="54" height="4"/><rect class="cls-6" x="128" y="46" width="54" height="4"/><rect class="cls-6" x="128" y="52" width="54" height="4"/></g><g class="cls-7"><rect class="cls-6" x="186" y="28" width="54" height="4"/><rect class="cls-6" x="186" y="34" width="54" height="4"/><rect class="cls-6" x="186" y="40" width="54" height="4"/><rect class="cls-6" x="186" y="46" width="54" height="4"/><rect class="cls-6" x="186" y="52" width="54" height="4"/></g><polyline class="cls-8" points="130 39 138.33 39 146.67 43 155 39 163.33 47 171.67 34 180 43"/><polyline class="cls-8" points="188 50 196.33 32 204.67 43 213 50 221.33 40 229.67 31 238 41"/><polyline class="cls-9" points="188 39 196.33 34 204.67 32 213 39 221.33 37 229.67 42 238 30"/><rect class="cls-10" x="131.99" y="75" width="4" height="23.53"/><rect class="cls-10" x="137.99" y="84" width="4" height="14.53"/><rect class="cls-10" x="143.99" y="73" width="4" height="25.53"/><rect class="cls-10" x="149.99" y="69.92" width="4" height="28.61"/><rect class="cls-10" x="155.99" y="78" width="4" height="20.53"/><rect class="cls-10" x="161.99" y="73" width="4" height="25.53"/><rect class="cls-10" x="167.99" y="69.92" width="4" height="28.61"/><rect class="cls-10" x="173.99" y="69.92" width="4" height="28.61"/><g class="cls-7"><rect class="cls-6" x="128" y="99" width="54" height="1"/></g><path class="cls-11" d="M199.66,95.06a18.07,18.07,0,0,0,2.6,2.36A18.09,18.09,0,0,1,199.66,95.06Z"/><path class="cls-11" d="M198.67,93.86a18,18,0,0,1-2.57-4.72A17.93,17.93,0,0,0,198.67,93.86Z"/><path class="cls-12" d="M213,65v8a10,10,0,0,1,2.54,19.66l2,7.72.54-.15.37-.11c.32-.1.63-.21.94-.33l.21-.08c.36-.14.72-.3,1.07-.47l.45-.23.6-.32.49-.29.53-.33.47-.31.54-.39.4-.3c.3-.24.6-.49.89-.75l.22-.2c.28-.26.55-.54.82-.82l.29-.32c.24-.27.48-.54.7-.82l.31-.41c.21-.28.41-.55.6-.84s.2-.34.31-.51q.41-.67.77-1.38c.14-.27.27-.54.4-.82s.18-.44.26-.66.23-.59.33-.89.14-.44.2-.66.17-.64.25-1,.1-.43.14-.64c.07-.37.12-.74.17-1.11,0-.18.05-.37.07-.55.05-.56.09-1.13.09-1.71A18,18,0,0,0,213,65Z"/><path class="cls-13" d="M217.58,100.39l.54-.16-.54.15Z"/><path class="cls-10" d="M215.54,92.66a9.93,9.93,0,0,1-11.93-6.25l-7.51,2.73h0a18,18,0,0,0,2.57,4.72l.06.08q.38.49.79,1l.14.16a18.09,18.09,0,0,0,2.6,2.36l.4.3c.24.17.49.33.74.49l.61.37.7.39c.27.14.55.27.83.4l.57.26q.7.29,1.43.52l.5.14c.36.1.72.2,1.09.28l.57.11c.37.07.75.13,1.13.17l.52.06c.55.05,1.11.08,1.67.08s1,0,1.52-.08l.66-.07.61-.09c.54-.09,1.07-.2,1.59-.33l.19-.05Z"/><path class="cls-14" d="M217.38,100.43l.19,0h0Z"/><path class="cls-15" d="M203,83a9.94,9.94,0,0,1,2-6l-6.37-4.83h0q-.38.5-.72,1l-.13.21q-.27.43-.52.87l-.15.27q-.24.44-.45.9l-.11.23c-.17.38-.33.77-.48,1.17-.06.16-.12.32-.18.48s-.18.58-.26.87-.14.51-.2.77-.11.5-.16.76-.11.67-.15,1-.06.4-.08.61c-.05.56-.09,1.12-.09,1.69s0,1.13.09,1.69c0,.34.09.68.14,1s.05.37.09.56q.13.67.3,1.31l0,.16q.2.72.45,1.41h0l7.51-2.73A9.93,9.93,0,0,1,203,83Z"/><path class="cls-16" d="M198.67,72.14v0h0Z"/><path class="cls-17" d="M205,77a10,10,0,0,1,8-4V65c-.56,0-1.11,0-1.66.08l-.3,0c-.51.06-1,.13-1.51.23l-.37.08c-.48.11-1,.22-1.43.37l-.34.12c-.36.12-.72.25-1.07.39l-.49.2c-.37.16-.74.34-1.1.53l-.64.35-.61.37c-.36.23-.71.46-1.05.71l-.32.24c-.48.37-.94.76-1.39,1.17l0,0c-.34.32-.66.65-1,1l-.2.22c-.29.33-.57.66-.83,1l0,0Z"/><path class="cls-18" d="M198.71,72.09l0,0h0Z"/><path class="cls-1" d="M279.13,128.5c-2.72.61-7.34,1.19-15.59,1.19s-14.34-.6-16.66-1.2-3.88-2-3.88-4.19V54.68c0-2.24,1.48-3.59,4-4a132.49,132.49,0,0,1,16.45-1,96.75,96.75,0,0,1,15.59,1c2.69.43,4,1.82,4,4.06v69.54C283,126.51,281.84,127.89,279.13,128.5Z"/><rect class="cls-2" x="245" y="58.51" width="36" height="63"/><circle class="cls-19" cx="263" cy="53.6" r="0.78"/><circle class="cls-19" cx="250.63" cy="54.22" r="0.63"/><polygon class="cls-4" points="281 89.45 281 58.51 247.26 58.51 281 89.45"/><g class="cls-5"><rect class="cls-6" x="250" y="63" width="27" height="2"/><rect class="cls-6" x="250" y="66" width="27" height="2"/><rect class="cls-6" x="250" y="69" width="27" height="2"/><rect class="cls-6" x="250" y="72" width="27" height="2"/><rect class="cls-6" x="250" y="75" width="27" height="2"/></g><polyline class="cls-8" points="251 68.5 255.17 68.5 259.33 70.5 263.5 68.5 267.67 72.5 271.83 66 276 70.5"/><g class="cls-7"><rect class="cls-6" x="250" y="82" width="27" height="2"/><rect class="cls-6" x="250" y="85" width="27" height="2"/><rect class="cls-6" x="250" y="88" width="27" height="2"/><rect class="cls-6" x="250" y="91" width="27" height="2"/><rect class="cls-6" x="250" y="94" width="27" height="2"/></g><polyline class="cls-8" points="251 93 255.17 84 259.33 89.5 263.5 93 267.67 88 271.83 83.5 276 88.5"/><polyline class="cls-9" points="251 87.5 255.17 85 259.33 84 263.5 87.5 267.67 86.5 271.83 89 276 83"/><rect class="cls-10" x="252.05" y="104.59" width="2.06" height="12.11"/><rect class="cls-10" x="255.14" y="109.22" width="2.06" height="7.48"/><rect class="cls-10" x="258.23" y="103.56" width="2.06" height="13.14"/><rect class="cls-10" x="261.32" y="101.97" width="2.06" height="14.73"/><rect class="cls-10" x="264.41" y="106.13" width="2.06" height="10.57"/><rect class="cls-10" x="267.5" y="103.56" width="2.06" height="13.14"/><rect class="cls-10" x="270.59" y="101.97" width="2.06" height="14.73"/><rect class="cls-10" x="273.68" y="101.97" width="2.06" height="14.73"/><g class="cls-7"><rect class="cls-6" x="250" y="116.94" width="27.8" height="0.51"/></g></svg>