<?xml version="1.0" encoding="utf-8"?>
<!-- Generator: Adobe Illustrator 21.0.0, SVG Export Plug-In . SVG Version: 6.00 Build 0)  -->
<svg version="1.1" xmlns="http://www.w3.org/2000/svg" xmlns:xlink="http://www.w3.org/1999/xlink" x="0px" y="0px"
	 viewBox="0 0 400 140" style="enable-background:new 0 0 400 140;" xml:space="preserve">
<style type="text/css">
	.st0{display:none;}
	.st1{display:inline;fill:#E1E5EA;}
	.st2{fill:#424242;}
	.st3{fill:#909090;}
	.st4{fill:none;stroke:#909090;stroke-miterlimit:10;stroke-dasharray:2,2;}
	.st5{fill:#CCCCCC;}
	.st6{opacity:0.15;fill:#FFFFFF;}
	.st7{fill:#5D5D5D;}
	.st8{fill:#171717;}
	.st9{fill:#7DB912;}
	.st10{fill:#2E2E2E;}
	.st11{fill:#5D5F5E;}
	.st12{fill:#333333;}
	.st13{font-family:'SegoeUI-Semilight';}
	.st14{font-size:23.3397px;}
	.st15{fill:#FFFFFF;}
	.st16{font-size:26px;}
	.st17{fill:#AAD2F2;}
	.st18{fill:#2B456D;}
	.st19{fill:#B3B3B3;}
	.st20{opacity:0.25;fill:#FFFFFF;}
	.st21{clip-path:url(#SVGID_2_);}
	.st22{fill:none;stroke:#FFFFFF;stroke-miterlimit:10;stroke-dasharray:2,2;}
	.st23{clip-path:url(#SVGID_4_);}
	.st24{fill:#AFD3AF;}
	.st25{fill:none;}
	.st26{fill:#0072C6;}
	.st27{fill:#60A860;}
	.st28{fill:#316389;}
	.st29{opacity:0.1;fill:#FFFFFF;enable-background:new    ;}
	.st30{fill:#7FBA00;}
	.st31{fill:#B8D432;}
	.st32{fill:#638AA5;}
	.st33{fill:#175D87;}
	.st34{fill:#377093;}
	.st35{fill:#88BE88;}
	.st36{fill:none;stroke:#32145A;stroke-width:4;stroke-miterlimit:10;}
	.st37{fill:none;stroke:#FFFFFF;stroke-width:4;stroke-miterlimit:10;}
	.st38{fill:none;stroke:#FFFFFF;stroke-width:3;stroke-miterlimit:10;}
	.st39{fill:#E2E2E2;}
	.st40{fill:#8090A8;}
	.st41{fill:#D4DAE2;}
	.st42{fill:none;stroke:#808080;stroke-width:2;stroke-miterlimit:10;}
	.st43{fill:#808080;}
	.st44{fill:#FFFFFF;stroke:#808080;stroke-width:2;stroke-miterlimit:10;}
	.st45{fill:none;stroke:#808080;stroke-width:2;stroke-linejoin:bevel;stroke-miterlimit:10;}
	.st46{fill:#FFFFFF;stroke:#60A860;stroke-width:1.7237;stroke-miterlimit:10;}
</style>
<g id="Layer_1" class="st0">
	<rect class="st1" width="400" height="140"/>
</g>
<g id="titles">
	<g>
		<rect x="77" y="54" class="st2" width="43" height="68"/>
		<rect x="83" y="60" class="st3" width="31" height="6"/>
		<rect x="83" y="72" class="st3" width="31" height="6"/>
		<rect x="107" y="110" class="st3" width="7" height="6"/>
	</g>
	<polyline class="st4" points="184.4,43.5 120.1,81.9 311,109 	"/>
	<line class="st4" x1="241" y1="57" x2="120.1" y2="81.9"/>
	<g>
		<rect x="237" y="20" class="st5" width="79" height="44"/>
		<polygon class="st6" points="315,22 287.1,22 315,47.6 		"/>
		<g>
			<polygon class="st7" points="293.4,72 260,72 262,70 291.5,70 			"/>
			<path class="st8" d="M292.1,73c-1.5,0-29.3,0-30.7,0c-1.4,0-1.4-1-1.4-1h33.5C293.4,72,293.6,73,292.1,73z"/>
			<polygon class="st8" points="284,71 269.5,71 270.6,64 282.8,64 			"/>
			<path class="st8" d="M318,20.8c0-1-0.8-1.8-1.8-1.8h-78.4c-1,0-1.8,0.8-1.8,1.8v41.4c0,1,0.8,1.8,1.8,1.8h78.4
				c1,0,1.8-0.8,1.8-1.8V20.8z M315,61h-76V22h76V61z"/>
			<polygon class="st7" points="308.7,79 245.6,79 249.3,74 305,74 			"/>
			<polygon class="st8" points="302.9,77 251.3,77 253.2,75 301.1,75 			"/>
			<path class="st8" d="M306.2,80c-2.8,0-55.4,0-58.1,0c-2.7,0-2.7-1-2.7-1h63.3C308.7,79,309,80,306.2,80z"/>
		</g>
	</g>
	<circle class="st9" cx="120.1" cy="82.4" r="7"/>
	<g>
		<g>
			<g>
				<path class="st10" d="M363,127V92.2c0-0.8-0.7-1.2-1.5-1.2h-50.8c-0.8,0-1.7,0.5-1.7,1.2V127H363z"/>
				<rect x="311" y="93" class="st5" width="50" height="31"/>
				<path class="st10" d="M367.3,129c-1.6,0-60.2,0-62.3,0c-2.1,0-2.4-3-2.4-3h67.1C369.8,126,369,129,367.3,129z"/>
				<rect x="335.8" y="92.1" class="st11" width="0.8" height="0.8"/>
				<polygon class="st6" points="361,93 338.7,93 361,114.2 				"/>
			</g>
		</g>
		<text transform="matrix(1 0 0 1 316.3311 115.507)" class="st12 st13 st14">&lt;/&gt;</text>
	</g>
	<text transform="matrix(1 0 0 1 255.7301 49.6211)" class="st12 st13 st16">&lt;/&gt;</text>
	<g>
		<g>
			<g>
				<path class="st10" d="M213,43V8.2c0-0.8-0.7-1.2-1.5-1.2h-50.8c-0.8,0-1.7,0.5-1.7,1.2V43H213z"/>
				<rect x="161" y="9" class="st5" width="50" height="31"/>
				<path class="st10" d="M217.3,45c-1.6,0-60.2,0-62.3,0c-2.1,0-2.4-3-2.4-3h67.1C219.8,42,219,45,217.3,45z"/>
				<rect x="185.8" y="8.1" class="st11" width="0.8" height="0.8"/>
				<polygon class="st6" points="211,9 188.7,9 211,30.2 				"/>
			</g>
		</g>
		<text transform="matrix(1 0 0 1 166.3311 31.507)" class="st12 st13 st14">&lt;/&gt;</text>
	</g>
	<g>
		<path class="st26" d="M63.5,79.3C63.5,79.3,63.5,79.3,63.5,79.3c-0.6,0-22.5,0-22.5,0v42.5c0,4.4,10,7.9,22.5,8v0h-0.1
			c0,0,0.1,0,0.1,0v0c12.4,0,22.5-3.6,22.5-8V79.3H63.5z"/>
		<path class="st29" d="M63.4,129.9h0.3c12.2,0,22.1-3.6,22.1-8V79.3H63.4V129.9z"/>
		<path class="st15" d="M86,78.8c0,4.4-10.1,8-22.5,8S41,83.2,41,78.8s10.1-8,22.5-8S86,74.4,86,78.8"/>
		<path class="st30" d="M82.1,79.1c0,2.9-8.4,5.3-18.7,5.3S44.7,82,44.7,79.1c0-2.9,8.4-5.3,18.7-5.3S82.1,76.2,82.1,79.1"/>
		<path class="st31" d="M78.2,82.3c2.4-0.9,3.9-2,3.9-3.2c0-2.9-8.4-5.3-18.7-5.3c-10.3,0-18.7,2.4-18.7,5.3c0,1.2,1.5,2.3,3.9,3.2
			c3.4-1.2,8.8-2,14.8-2C69.5,80.3,74.8,81.1,78.2,82.3"/>
	</g>
</g>
</svg>
