<svg id="titles" xmlns="http://www.w3.org/2000/svg" viewBox="0 0 400 140"><defs><style>.cls-1{fill:#5d5d5d;}.cls-2{fill:#171717;}.cls-3{fill:#2e2e2e;}.cls-4{fill:#6d6e70;}.cls-5{fill:#5d5f5e;}.cls-6{fill:#1772b8;}.cls-7{fill:#929090;}.cls-8{fill:#767778;}.cls-9{fill:#a86527;}.cls-10{fill:#048273;}.cls-11{fill:none;stroke:#6d6e70;stroke-miterlimit:10;}.cls-12{fill:#fff;opacity:0.15;}</style></defs><title>sql-4</title><polygon class="cls-1" points="233 120.33 167.52 120.33 171.35 115.99 229.16 115.99 233 120.33"/><path class="cls-2" d="M230.41,122.76H170.22a2.57,2.57,0,0,1-2.83-2.45H233S233.33,122.76,230.41,122.76Z"/><polygon class="cls-2" points="214.45 117.52 186.06 117.52 188.36 104.48 212.15 104.48 214.45 117.52"/><path class="cls-2" d="M276.46,17H123.54A3.54,3.54,0,0,0,120,20.54v81.92a3.54,3.54,0,0,0,3.54,3.54H276.46a3.54,3.54,0,0,0,3.54-3.54V20.54A3.54,3.54,0,0,0,276.46,17ZM275,100H125V22H275Z"/><rect class="cls-3" x="125" y="21" width="150" height="79"/><rect class="cls-4" x="125" y="21" width="29" height="2"/><rect class="cls-4" x="125" y="29" width="29" height="2"/><rect class="cls-5" x="215" y="23" width="2" height="1"/><rect class="cls-5" x="215" y="25" width="2" height="1"/><rect class="cls-5" x="215" y="27" width="2" height="1"/><rect class="cls-5" x="215" y="29" width="2" height="1"/><rect class="cls-5" x="215" y="31" width="2" height="1"/><rect class="cls-5" x="215" y="33" width="2" height="1"/><rect class="cls-5" x="215" y="35" width="2" height="1"/><rect class="cls-5" x="215" y="37" width="2" height="1"/><rect class="cls-5" x="215" y="39" width="2" height="1"/><rect class="cls-5" x="215" y="41" width="2" height="1"/><rect class="cls-5" x="215" y="43" width="2" height="1"/><rect class="cls-5" x="215" y="45" width="2" height="1"/><rect class="cls-5" x="215" y="47" width="2" height="1"/><rect class="cls-5" x="215" y="50" width="2" height="1"/><rect class="cls-5" x="215" y="52" width="2" height="1"/><rect class="cls-5" x="215" y="54" width="2" height="1"/><rect class="cls-5" x="215" y="56" width="2" height="1"/><rect class="cls-5" x="215" y="58" width="2" height="1"/><rect class="cls-5" x="215" y="60" width="2" height="1"/><rect class="cls-5" x="215" y="62" width="2" height="1"/><rect class="cls-5" x="215" y="64" width="2" height="1"/><rect class="cls-5" x="215" y="66" width="2" height="1"/><rect class="cls-5" x="215" y="68" width="2" height="1"/><rect class="cls-5" x="215" y="70" width="2" height="1"/><rect class="cls-5" x="215" y="72" width="2" height="1"/><rect class="cls-5" x="215" y="74" width="2" height="1"/><rect class="cls-6" x="217" y="23" width="2" height="1"/><rect class="cls-6" x="217" y="25" width="2" height="1"/><rect class="cls-6" x="217" y="27" width="2" height="1"/><rect class="cls-6" x="217" y="29" width="2" height="1"/><rect class="cls-5" x="220" y="23" width="21" height="1"/><rect class="cls-5" x="220" y="25" width="13" height="1"/><rect class="cls-5" x="220" y="27" width="17" height="1"/><rect class="cls-5" x="220" y="29" width="10" height="1"/><rect class="cls-6" x="159" y="23" width="2" height="1"/><rect class="cls-6" x="159" y="25" width="2" height="1"/><rect class="cls-6" x="159" y="27" width="2" height="1"/><rect class="cls-6" x="128" y="25" width="2" height="1"/><rect class="cls-6" x="128" y="27" width="2" height="1"/><rect class="cls-6" x="159" y="29" width="2" height="1"/><rect class="cls-5" x="162" y="23" width="21" height="1"/><rect class="cls-5" x="161" y="25" width="13" height="1"/><rect class="cls-5" x="162" y="27" width="17" height="1"/><rect class="cls-5" x="162" y="29" width="10" height="1"/><rect class="cls-7" x="218" y="33" width="19" height="1"/><rect class="cls-7" x="218" y="35" width="37" height="1"/><rect class="cls-7" x="218" y="37" width="25" height="1"/><rect class="cls-7" x="217" y="39" width="42" height="1"/><rect class="cls-7" x="217" y="41" width="8" height="1"/><rect class="cls-7" x="226" y="41" width="23" height="1"/><rect class="cls-7" x="250" y="41" width="3" height="1"/><rect class="cls-7" x="217" y="43" width="27" height="1"/><rect class="cls-7" x="217" y="45" width="46" height="1"/><rect class="cls-7" x="217" y="47" width="28" height="1"/><rect class="cls-5" x="217" y="50" width="25" height="1"/><rect class="cls-5" x="217" y="52" width="28" height="1"/><rect class="cls-5" x="217" y="54" width="31" height="1"/><rect class="cls-7" x="222" y="56" width="2" height="1"/><rect class="cls-7" x="222" y="58" width="2" height="1"/><rect class="cls-7" x="222" y="60" width="2" height="1"/><rect class="cls-7" x="226" y="56" width="12" height="1"/><rect class="cls-7" x="240" y="56" width="12" height="1"/><rect class="cls-7" x="227" y="58" width="9" height="1"/><rect class="cls-7" x="238" y="58" width="9" height="1"/><rect class="cls-7" x="225" y="60" width="3" height="1"/><rect class="cls-7" x="159" y="33" width="19" height="1"/><rect class="cls-8" x="180" y="33" width="14" height="1"/><rect class="cls-7" x="159" y="35" width="19" height="1"/><rect class="cls-7" x="159" y="37" width="8" height="1"/><rect class="cls-7" x="159" y="39" width="8" height="1"/><rect class="cls-7" x="159" y="41" width="8" height="1"/><rect class="cls-9" x="168" y="37" width="23" height="1"/><rect class="cls-9" x="168" y="39" width="40" height="1"/><rect class="cls-9" x="168" y="41" width="23" height="1"/><rect class="cls-6" x="191" y="41" width="3" height="1"/><rect class="cls-5" x="159" y="43" width="2" height="1"/><rect class="cls-10" x="159" y="45" width="22" height="1"/><rect class="cls-10" x="159" y="47" width="28" height="1"/><rect class="cls-5" x="159" y="50" width="25" height="1"/><rect class="cls-5" x="159" y="52" width="28" height="1"/><rect class="cls-5" x="159" y="54" width="31" height="1"/><rect class="cls-10" x="163" y="56" width="2" height="1"/><rect class="cls-10" x="163" y="58" width="2" height="1"/><rect class="cls-10" x="163" y="60" width="2" height="1"/><rect class="cls-10" x="168" y="56" width="9" height="1"/><rect class="cls-10" x="168" y="58" width="9" height="1"/><rect class="cls-10" x="166" y="60" width="3" height="1"/><rect class="cls-5" x="222" y="62" width="35" height="1"/><rect class="cls-5" x="225" y="64" width="26" height="1"/><rect class="cls-5" x="225" y="66" width="38" height="1"/><rect class="cls-5" x="225" y="68" width="26" height="1"/><rect class="cls-5" x="227" y="70" width="17" height="1"/><rect class="cls-5" x="225" y="72" width="2" height="1"/><rect class="cls-5" x="222" y="74" width="2" height="1"/><rect class="cls-5" x="164" y="62" width="35" height="1"/><rect class="cls-5" x="166" y="64" width="26" height="1"/><rect class="cls-5" x="166" y="66" width="38" height="1"/><rect class="cls-5" x="166" y="68" width="26" height="1"/><rect class="cls-5" x="169" y="70" width="17" height="1"/><rect class="cls-5" x="167" y="72" width="2" height="1"/><rect class="cls-5" x="159" y="76" width="2" height="1"/><rect class="cls-5" x="164" y="74" width="2" height="1"/><rect class="cls-5" x="161" y="76" width="2" height="1"/><rect class="cls-6" x="159" y="81" width="2" height="1"/><rect class="cls-5" x="162" y="81" width="15" height="1"/><rect class="cls-6" x="178" y="81" width="7" height="1"/><rect class="cls-6" x="161" y="83" width="2" height="1"/><rect class="cls-6" x="161" y="85" width="2" height="1"/><rect class="cls-5" x="164" y="83" width="19" height="1"/><rect class="cls-5" x="164" y="85" width="19" height="1"/><rect class="cls-5" x="156" y="22" width="2" height="1"/><rect class="cls-5" x="156" y="24" width="2" height="1"/><rect class="cls-5" x="156" y="26" width="2" height="1"/><rect class="cls-5" x="156" y="28" width="2" height="1"/><rect class="cls-5" x="156" y="31" width="2" height="1"/><rect class="cls-5" x="156" y="33" width="2" height="1"/><rect class="cls-5" x="156" y="35" width="2" height="1"/><rect class="cls-5" x="156" y="37" width="2" height="1"/><rect class="cls-5" x="156" y="39" width="2" height="1"/><rect class="cls-5" x="156" y="41" width="2" height="1"/><rect class="cls-5" x="156" y="43" width="2" height="1"/><rect class="cls-5" x="156" y="45" width="2" height="1"/><rect class="cls-5" x="156" y="47" width="2" height="1"/><rect class="cls-5" x="156" y="49" width="2" height="1"/><rect class="cls-5" x="156" y="51" width="2" height="1"/><rect class="cls-5" x="156" y="53" width="2" height="1"/><rect class="cls-5" x="156" y="55" width="2" height="1"/><rect class="cls-5" x="156" y="57" width="2" height="1"/><rect class="cls-5" x="156" y="60" width="2" height="1"/><rect class="cls-5" x="156" y="62" width="2" height="1"/><rect class="cls-5" x="156" y="64" width="2" height="1"/><rect class="cls-5" x="156" y="66" width="2" height="1"/><rect class="cls-5" x="156" y="68" width="2" height="1"/><rect class="cls-5" x="156" y="70" width="2" height="1"/><rect class="cls-5" x="156" y="72" width="2" height="1"/><rect class="cls-5" x="156" y="74" width="2" height="1"/><rect class="cls-5" x="156" y="76" width="2" height="1"/><rect class="cls-5" x="156" y="78" width="2" height="1"/><rect class="cls-5" x="156" y="80" width="2" height="1"/><rect class="cls-5" x="156" y="82" width="2" height="1"/><rect class="cls-5" x="156" y="84" width="2" height="1"/><rect class="cls-5" x="131" y="25" width="13" height="1"/><rect class="cls-5" x="131" y="27" width="17" height="1"/><rect class="cls-5" x="125" y="24" width="2" height="1"/><rect class="cls-5" x="125" y="26" width="2" height="1"/><rect class="cls-5" x="125" y="33" width="2" height="1"/><rect class="cls-5" x="125" y="35" width="2" height="1"/><rect class="cls-5" x="125" y="37" width="2" height="1"/><rect class="cls-5" x="128" y="33" width="10" height="1"/><rect class="cls-5" x="128" y="35" width="10" height="1"/><rect class="cls-5" x="128" y="37" width="10" height="1"/><line class="cls-11" x1="212.5" y1="21" x2="212.5" y2="99"/><polygon class="cls-12" points="273.91 66.5 273.91 21.12 228.53 21.12 273.91 66.5"/></svg>