<?xml version="1.0" encoding="utf-8"?>
<!-- Generator: Adobe Illustrator 21.0.0, SVG Export Plug-In . SVG Version: 6.00 Build 0)  -->
<svg version="1.1" xmlns="http://www.w3.org/2000/svg" xmlns:xlink="http://www.w3.org/1999/xlink" x="0px" y="0px"
	 viewBox="0 0 400 140" style="enable-background:new 0 0 400 140;" xml:space="preserve">
<style type="text/css">
	.st0{display:none;}
	.st1{display:inline;fill:#E1E5EA;}
	.st2{fill:#D4F2ED;}
	.st3{opacity:0.15;fill:#FFFFFF;}
	.st4{fill:#5E5E5E;}
	.st5{fill:#2E2E2E;}
	.st6{fill:#221F1F;}
	.st7{clip-path:url(#SVGID_2_);fill:none;stroke:#FFFFFF;stroke-miterlimit:10;stroke-dasharray:2,2;}
	.st8{fill:#316389;}
	.st9{fill:#FFFFFF;}
	.st10{fill:#CCCCCC;}
	.st11{clip-path:url(#SVGID_4_);fill:none;stroke:#FFFFFF;stroke-miterlimit:10;stroke-dasharray:2,2;}
	.st12{fill:#E6E6E6;}
	.st13{fill:#333333;}
	.st14{fill:#AAD2F2;}
	.st15{fill:#AFD3AF;}
	.st16{fill:#5D5F5E;}
	.st17{opacity:0.25;fill:#FFFFFF;}
	.st18{fill:#60A860;}
	.st19{opacity:0.1;fill:#FFFFFF;enable-background:new    ;}
	.st20{fill:#638AA5;}
	.st21{fill:#175D87;}
	.st22{fill:#377093;}
	.st23{fill:#999999;}
	.st24{fill:#5D5D5D;}
	.st25{fill:#171717;}
	.st26{fill:#6D6E70;}
	.st27{fill:#1772B8;}
	.st28{fill:#929090;}
	.st29{fill:#767778;}
	.st30{fill:#A86527;}
	.st31{fill:#048273;}
	.st32{fill:none;stroke:#6D6E70;stroke-miterlimit:10;}
	.st33{clip-path:url(#SVGID_8_);fill:none;stroke:#FFFFFF;stroke-miterlimit:10;stroke-dasharray:2,2;}
	.st34{clip-path:url(#SVGID_10_);fill:none;stroke:#FFFFFF;stroke-miterlimit:10;stroke-dasharray:2,2;}
	.st35{clip-path:url(#SVGID_12_);fill:none;stroke:#FFFFFF;stroke-miterlimit:10;stroke-dasharray:2,2;}
	.st36{fill:#959595;}
	.st37{fill:none;stroke:#FFFFFF;stroke-width:3.1482;stroke-miterlimit:10;}
	.st38{fill:none;}
	.st39{fill:#737374;}
	.st40{fill:#515050;}
	.st41{fill:#D93F26;}
	.st42{fill:#969696;}
	.st43{fill:#008A00;}
	.st44{fill:#FFB900;}
	.st45{fill:#FF8C00;}
	.st46{fill-rule:evenodd;clip-rule:evenodd;fill:#2E2E2E;}
	.st47{fill:#0078D7;}
</style>
<g id="Layer_1" class="st0">
	<rect x="0" class="st1" width="400" height="140"/>
</g>
<g id="titles">
	<g>
		<g>
			<defs>
				<rect id="SVGID_1_" x="94" y="52" width="32" height="8"/>
			</defs>
			<clipPath id="SVGID_2_">
				<use xlink:href="#SVGID_1_"  style="overflow:visible;"/>
			</clipPath>
			<line class="st7" x1="145" y1="57.5" x2="62" y2="57.3"/>
		</g>
		<g>
			<g>
				<rect x="83.4" y="24.9" class="st8" width="151.7" height="83.3"/>
				<polygon class="st3" points="235.1,69 235.1,23.6 189.7,23.6 				"/>
				<polygon class="st4" points="193,126.3 127.5,126.3 131.4,122 189.2,122 				"/>
				<path class="st5" d="M190.4,128.8c-2.9,0-57.4,0-60.2,0c-2.8,0-2.8-2.4-2.8-2.4H193C193,126.3,193.3,128.8,190.4,128.8z"/>
				<polygon class="st5" points="174.5,123.5 146.1,123.5 148.4,110.5 172.1,110.5 				"/>
				<path class="st6" d="M236.5,23H83.5c-2,0-3.5,1.6-3.5,3.5v81.7c0,2,1.6,3.5,3.5,3.5h152.9c2,0,3.5-1.6,3.5-3.5V26.5
					C240,24.6,238.4,23,236.5,23z M234.6,105.6H85.2v-78h149.4V105.6z"/>
			</g>
			<g>
				<path class="st9" d="M166.2,40.7c-3.7,3.7-4.6,9.2-2.8,13.9l-28.7,28.7c-1.8,1.8-1.8,4.6,0,6.5h0.9c1.9,1.8,4.6,1.8,6.5,0
					L170.8,62c4.6,0.9,10.2,0,13.9-3.7c3.7-2.8,4.6-8.3,2.8-13l-9.3,9.3l-5.6-1.9l-1.8-5.6l9.3-9.2C175.4,36.1,169.9,37,166.2,40.7
					 M136.5,84.2c1.9-0.9,3.7-0.9,4.6,0c0.9,0.9,0.9,2.8,0,3.7c-0.9,1.8-2.8,1.8-4.6,0C135.6,86.9,135.6,85.1,136.5,84.2"/>
				<path class="st10" d="M186.1,86.5l-2.8,2.8c-1.9,1.8-4.6,1.8-5.6,0l-19.4-18.5c-1.8-1.8-1.8-4.6,0-5.5l-13-12.9l-4.6-0.9
					l-6.5-10.2l3.7-2.8l9.3,6.5l1.9,4.6l12,12c1.8-0.9,4.6-0.9,5.6,0l19.4,19.4C187.9,82.8,187.9,85.6,186.1,86.5"/>
			</g>
		</g>
	</g>
	<g>
		<path class="st13" d="M330.3,89.9c-2.1,0.1-3.5,0-3.4,3.4c0.1,4.7,0.2,8.4-1,15.8s0.3,10.4,5,10.9c5.5,0.5,7.8-3.3,12.4-6.3
			c3.7-2.4,8-5,10.1-6.2c2.1-1.1,2.3-3.4-1.4-6.2c-3.1-2.3-4.9-3.6-5-7.2c-0.1-3.6-1.7-4.4-3.3-2.1c-1.6,2.4-4.4,4.9-8,4.1
			c-2.7-0.6-3.3-2.1-3.2-3.9C332.5,90.6,331.7,89.9,330.3,89.9z"/>
		<path class="st13" d="M324.5,103.7l-1.5,11.5c0,0-5.4-0.4-8.8-0.4c-3.4,0-9.4,0.4-9.4,0.4l-0.3-5c0,0,5.7,1.1,11.3-1
			C321.5,107,324.5,103.7,324.5,103.7z"/>
		<path class="st13" d="M291.1,90.6c0,0,6.6,10,8.1,11.9c2.3,2.9,5.2-1,1.3-4.2C295.3,93.9,291.1,90.6,291.1,90.6z"/>
		<path class="st13" d="M272.2,96.4c4.5-1.5,5.3-0.9,9.3-6c4-5.1,5.6-2.2,8.2,1.3c2.6,3.5,9.9,14,11.8,16.8c1.9,2.8,1.8,7-0.7,8.9
			c-2.5,2-4.7,3.9-10.7,1.2s-13.2-3.7-15.9-4.4c-2.8-0.7-4.6-1.4-4.1-5.3c0.5-4,0.7-6.3,0.3-8.5S269.8,97.2,272.2,96.4z"/>
		<ellipse transform="matrix(0.909 -0.4169 0.4169 0.909 10.0229 131.6475)" class="st13" cx="306.4" cy="42.9" rx="1" ry="0.4"/>
		<path class="st13" d="M333.6,88.5c-0.1,0.1-0.2,0.1-0.3,0.2c0.5,0.5,0.9,1.4,0.7,3c-0.3,2.2,1.4,3.4,3.4,3
			c3.2-0.5,5.1-3.9,5.7-5.1C339.8,87.4,334.7,87.7,333.6,88.5z"/>
		<path class="st13" d="M318.1,44c-0.5-0.2-1-0.4-1.5-0.6c2.6-1.4,2.8-4.3,0.8-5.8c-1.8-1.3-3.5,0.2-3.7,1.7c-0.1,0.9-0.1,2,0.1,2.9
			c-1.9-0.8-3.4-1.2-5.1-1.2c-0.9,0-2.1,0.5-3.3,1.2c0.2-4.1-0.9-5.5-2.9-4.7c-2,0.7-1.6,4,0.8,6.1c-0.8,0.6-1.6,1.3-2.1,1.9
			c-1.5,1.8-2,2.8,0.8,5.9c3.4,3.7,6.7,4.9,11.2,2.5c5.1-2.7,7.5-4.2,7.6-6.3C320.9,45.4,319.6,44.6,318.1,44z M316.4,38.2
			c0.2-0.2,0.6,0,1,0.4c0.3,0.4,0.5,0.9,0.3,1.1c-0.2,0.2-0.6,0-1-0.4C316.3,38.9,316.2,38.4,316.4,38.2z M310,42.4
			c0.1-0.2,0.6-0.3,1.1-0.1c0.5,0.2,0.9,0.5,0.8,0.7s-0.6,0.3-1.1,0.1S310,42.7,310,42.4z M303.5,38c0.2-0.1,0.6,0.2,0.8,0.7
			c0.2,0.5,0.2,1,0,1.1c-0.2,0.1-0.6-0.2-0.8-0.7C303.3,38.6,303.3,38.1,303.5,38z M318.2,47.8c-2.7,1.7-8,4.7-10.7,4.4
			c-2.7-0.3-4.9-1.3-6.2-2.6c-1.1-1-1-1.8,0.2-0.8c1.2,0.9,3,2,5.9,2.2s7.7-2.8,10.4-4.1C319.6,46,320.9,46.1,318.2,47.8z"/>
		<path class="st13" d="M335.4,58.1c-7.1-9.1-6.6-14.4-7.2-21.3c-0.5-6.9-3.1-18.5-18.4-17.4c-14.2,1-12.4,15.1-11.9,21.7
			s1.5,12-3.1,17.5c-4.6,5.5-10,15.1-11.7,19.8c-2.1,5.6-1.5,9.3-1.5,9.3s1.1-1.5,3.7-1.7c0.6,0,1.2,0.1,1.6,0.2
			c-2.1-5.7,2.4-14.6,3.9-16.5c0.7-0.8,1-1.3,0.5-0.1c-1.9,4.2-5.1,10.9-3.1,17.2c0.7,0.4,1.1,0.9,1.1,0.9s-1.1-9.6,5.4-18.8
			c1.7-2.4,4.9-3.2,4.9-3.2s-5.6-0.9-0.5-7.2c2.4-2.9,1.5-7.2,1.5-7.2s-1.8-1-1.8-3.6s2.4-4.1,2.4-4.1s-1.9-2.9-0.9-6.8
			c1-3.9,3.9-4,5.9-1.5c2,2.5,0.9,4.6,0.9,4.6h4.1c0,0-0.5-2.5,0.3-4s2.1-3,4.4-3.1c2.4-0.1,5.3,2,5.4,5.5c0.1,3.4-0.9,5.3-0.9,5.3
			s2.5,1.5,1.5,4.3c-1,2.8-0.7,3.2-0.3,4.1c0.4,0.9,2.8,6.3,7.3,16.7s3,19.3,3,19.3s0.6,0,1.1,0.4c0-0.1,0.1-0.1,0.1-0.2
			c0.2-0.3,1-0.7,2.3-1c6-10.8-0.9-17.9-3.2-19.6c-1-0.7-0.4-0.4,0.1-0.1c6.8,3.6,7.9,11.7,4.6,19.5c2-0.2,4.4,0.2,6.8,2.2
			c0.7,0.1,2.1,0.1,2.5-0.8C349.4,80.5,342.4,67.2,335.4,58.1z M318.9,27.1c-1.1,0.7-1.7-0.7-1.7-1.2c0-1.6,1.4-2.4,2.3-1.3
			C320.4,25.7,319.9,26.4,318.9,27.1z M328,52.7c-1.2,1.2-3.1,0.5-3.9-2.1c-0.4-1.2,0-1.8,1.5-1C327.1,50.3,329.3,51.4,328,52.7z"/>
	</g>
</g>
</svg>
