<?xml version="1.0" encoding="utf-8"?>
<!-- Generator: Adobe Illustrator 21.0.0, SVG Export Plug-In . SVG Version: 6.00 Build 0)  -->
<svg version="1.1" xmlns="http://www.w3.org/2000/svg" xmlns:xlink="http://www.w3.org/1999/xlink" x="0px" y="0px"
	 viewBox="0 0 400 140" style="enable-background:new 0 0 400 140;" xml:space="preserve">
<style type="text/css">
	.st0{display:none;}
	.st1{display:inline;fill:#E1E5EA;}
	.st2{fill:#424242;}
	.st3{fill:#909090;}
	.st4{fill:none;stroke:#909090;stroke-miterlimit:10;stroke-dasharray:2,2;}
	.st5{fill:#CCCCCC;}
	.st6{opacity:0.15;fill:#FFFFFF;}
	.st7{fill:#5D5D5D;}
	.st8{fill:#171717;}
	.st9{fill:#7DB912;}
	.st10{fill:#2E2E2E;}
	.st11{fill:#5D5F5E;}
	.st12{fill:#FFFFFF;}
	.st13{fill:#AAD2F2;}
	.st14{fill:#2B456D;}
	.st15{fill:#B3B3B3;}
	.st16{opacity:0.25;fill:#FFFFFF;}
	.st17{clip-path:url(#SVGID_2_);}
	.st18{fill:none;stroke:#FFFFFF;stroke-miterlimit:10;stroke-dasharray:2,2;}
	.st19{clip-path:url(#SVGID_4_);}
	.st20{fill:#AFD3AF;}
	.st21{fill:none;}
	.st22{fill:#0072C6;}
	.st23{fill:#60A860;}
	.st24{fill:#316389;}
	.st25{opacity:0.1;fill:#FFFFFF;enable-background:new    ;}
	.st26{fill:#7FBA00;}
	.st27{fill:#B8D432;}
	.st28{fill:#638AA5;}
	.st29{fill:#175D87;}
	.st30{fill:#377093;}
	.st31{fill:#333333;}
	.st32{fill:#88BE88;}
	.st33{fill:none;stroke:#32145A;stroke-width:4;stroke-miterlimit:10;}
	.st34{fill:none;stroke:#FFFFFF;stroke-width:4;stroke-miterlimit:10;}
	.st35{fill:none;stroke:#FFFFFF;stroke-width:3;stroke-miterlimit:10;}
	.st36{fill:#E2E2E2;}
	.st37{fill:#8090A8;}
	.st38{fill:#D4DAE2;}
	.st39{fill:none;stroke:#808080;stroke-width:2;stroke-miterlimit:10;}
	.st40{fill:#808080;}
	.st41{fill:#FFFFFF;stroke:#808080;stroke-width:2;stroke-miterlimit:10;}
	.st42{fill:none;stroke:#808080;stroke-width:2;stroke-linejoin:bevel;stroke-miterlimit:10;}
	.st43{fill:#FFFFFF;stroke:#60A860;stroke-width:1.7237;stroke-miterlimit:10;}
</style>
<g id="Layer_1" class="st0">
	<rect x="0.7" class="st1" width="400" height="140"/>
</g>
<g id="titles">
	<path class="st13" d="M279.6,42.7c0.8-9.4,8.4-16.7,17.7-16.7c6.9,0,12.8,4,15.8,9.9c2.7-1.7,6-2.7,9.4-2.7
		c8.4,0,15.4,5.8,17.5,13.8c1.6-0.5,3.3-0.8,5.1-0.8c9.2,0,16.7,7.5,16.7,16.7c0,6.7-3.9,12.5-9.6,15.1c-1.6,0.7-2.8,1.2-5.2,1.5
		c-0.1,0-0.3,0-0.4,0c-2.4,0.2-5.7,0.2-10.7,0.2h-53.9c-1.2,0-2.4-0.1-3.5-0.4c-8.3-1.7-14.6-9.2-14.6-18.2
		C263.9,51.7,270.7,43.9,279.6,42.7z"/>
	<g>
		<path class="st22" d="M314.2,23C314.2,23,314.2,23,314.2,23c-0.6,0-22.5,0-22.5,0v42.5c0,4.4,10,7.9,22.5,8V74H314
			c0,0,0.1,0,0.1,0v0c12.4,0,22.5-3.6,22.5-8.1V23H314.2z"/>
		<path class="st25" d="M314.7,74h0.3c12,0,21.7-3.6,21.7-8.1V23h-22V74z"/>
		<path class="st12" d="M337.3,22.1c0,4.4-10.1,8-22.5,8c-12.4,0-22.5-3.6-22.5-8s10.1-8,22.5-8C327.2,14.1,337.3,17.7,337.3,22.1"
			/>
		<path class="st26" d="M333.4,22.4c0,2.9-8.4,5.3-18.7,5.3c-10.3,0-18.7-2.4-18.7-5.3c0-2.9,8.4-5.3,18.7-5.3
			C325.1,17.1,333.4,19.5,333.4,22.4"/>
		<path class="st27" d="M329.5,25.6c2.4-0.9,3.9-2,3.9-3.2c0-2.9-8.4-5.3-18.7-5.3c-10.3,0-18.7,2.4-18.7,5.3c0,1.2,1.5,2.3,3.9,3.2
			c3.4-1.2,8.8-2,14.8-2C320.8,23.6,326.1,24.4,329.5,25.6"/>
	</g>
	<g>
		<polyline class="st15" points="106.7,128 54.7,128 55.7,61.9 55.7,47 106.7,47 106.7,128 		"/>
		<rect x="90.7" y="54" class="st36" width="4" height="8"/>
		<rect x="78.7" y="54" class="st36" width="4" height="8"/>
		<rect x="66.7" y="54" class="st36" width="4" height="8"/>
		<rect x="90.7" y="68" class="st36" width="4" height="8"/>
		<rect x="78.7" y="68" class="st36" width="4" height="8"/>
		<rect x="65.7" y="68" class="st36" width="4" height="8"/>
		<rect x="90.7" y="84" class="st36" width="4" height="8"/>
		<rect x="78.7" y="84" class="st36" width="4" height="8"/>
		<rect x="65.7" y="84" class="st36" width="4" height="8"/>
		<rect x="90.7" y="98" class="st36" width="4" height="8"/>
		<rect x="78.7" y="98" class="st36" width="4" height="8"/>
		<rect x="65.7" y="98" class="st36" width="4" height="8"/>
		<rect x="40.7" y="101" transform="matrix(-1 -4.503565e-11 4.503565e-11 -1 110.3333 229)" class="st7" width="29" height="27"/>
		<polygon class="st37" points="77.7,128 77.7,62 33.7,62 33.7,128 47.7,128 47.7,106 62.7,106 62.7,128 		"/>
		<g>
			<rect x="65.7" y="72" class="st38" width="4" height="8"/>
			<rect x="53.7" y="72" class="st38" width="4" height="8"/>
			<rect x="41.7" y="72" class="st38" width="4" height="8"/>
		</g>
		<g>
			<rect x="65.7" y="87" class="st38" width="4" height="8"/>
			<rect x="53.7" y="87" class="st38" width="4" height="8"/>
			<rect x="41.7" y="87" class="st38" width="4" height="8"/>
		</g>
	</g>
	<g>
		<path class="st22" d="M119.7,74C119.7,74,119.7,74,119.7,74c-0.6,0-22,0-22,0v42.5c0,4.4,9.8,7.9,22,8v0.5h-0.1c0,0,0.1,0,0.1,0v0
			c12.7,0,23-3.6,23-8.1V74H119.7z"/>
		<path class="st25" d="M120.1,125.5h0.3c12.2,0,22.1-3.6,22.1-8V75h-22.4V125.5z"/>
		<path class="st12" d="M142.7,72.5c0,4.4-10.1,8-22.5,8s-22.5-3.6-22.5-8s10.1-8,22.5-8S142.7,68.1,142.7,72.5"/>
		<path class="st26" d="M138.8,72.7c0,2.9-8.4,5.3-18.7,5.3s-18.7-2.4-18.7-5.3c0-2.9,8.4-5.3,18.7-5.3S138.8,69.8,138.8,72.7"/>
		<path class="st27" d="M134.9,76c2.4-0.9,3.9-2,3.9-3.2c0-2.9-8.4-5.3-18.7-5.3c-10.3,0-18.7,2.4-18.7,5.3c0,1.2,1.5,2.3,3.9,3.2
			c3.4-1.2,8.8-2,14.8-2C126.1,73.9,131.5,74.7,134.9,76"/>
	</g>
	<g>
		<g>
			<path class="st39" d="M227,70.6c1.3,13.5-8.1,25.8-21.7,28c-14.2,2.2-27.5-7.5-29.9-21.7c-2.3-14.2,7.3-27.5,21.4-29.7
				c11-1.7,21.6,3.8,26.8,13"/>
			<g>
				<polygon class="st40" points="220.6,76.3 221.8,77.3 226.9,71.3 232.5,76.8 233.6,75.6 226.8,68.9 				"/>
			</g>
		</g>
	</g>
	<g>
		<polyline class="st41" points="192.7,65 189.7,65 189.7,87 206.7,87 206.7,82 		"/>
		<polyline class="st41" points="196.7,61 193.7,61 193.7,83 210.7,83 210.7,78 		"/>
		<g>
			<polygon class="st41" points="214.7,79 197.7,79 197.7,57 207.7,57 211.7,61 214.7,64 			"/>
			<polygon class="st42" points="207.7,57 211.7,61 214.7,64 207.7,64 			"/>
		</g>
	</g>
</g>
</svg>
