<?xml version="1.0" encoding="utf-8"?>
<!-- Generator: Adobe Illustrator 21.0.0, SVG Export Plug-In . SVG Version: 6.00 Build 0)  -->
<svg version="1.1" xmlns="http://www.w3.org/2000/svg" xmlns:xlink="http://www.w3.org/1999/xlink" x="0px" y="0px"
	 viewBox="0 0 400 140" style="enable-background:new 0 0 400 140;" xml:space="preserve">
<style type="text/css">
	.st0{display:none;}
	.st1{display:inline;fill:#E1E5EA;}
	.st2{fill:#D4F2ED;}
	.st3{opacity:0.15;fill:#FFFFFF;}
	.st4{fill:#5E5E5E;}
	.st5{fill:#2E2E2E;}
	.st6{fill:#221F1F;}
	.st7{clip-path:url(#SVGID_2_);fill:none;stroke:#FFFFFF;stroke-miterlimit:10;stroke-dasharray:2,2;}
	.st8{fill:#316389;}
	.st9{fill:#FFFFFF;}
	.st10{fill:#CCCCCC;}
	.st11{clip-path:url(#SVGID_4_);fill:none;stroke:#FFFFFF;stroke-miterlimit:10;stroke-dasharray:2,2;}
	.st12{fill:#E6E6E6;}
	.st13{fill:#333333;}
	.st14{fill:#AAD2F2;}
	.st15{fill:#AFD3AF;}
	.st16{fill:#5D5F5E;}
	.st17{opacity:0.25;fill:#FFFFFF;}
	.st18{fill:#60A860;}
	.st19{opacity:0.1;fill:#FFFFFF;enable-background:new    ;}
	.st20{fill:#638AA5;}
	.st21{fill:#175D87;}
	.st22{fill:#377093;}
	.st23{fill:#999999;}
	.st24{fill:#5D5D5D;}
	.st25{fill:#171717;}
	.st26{fill:#6D6E70;}
	.st27{fill:#1772B8;}
	.st28{fill:#929090;}
	.st29{fill:#767778;}
	.st30{fill:#A86527;}
	.st31{fill:#048273;}
	.st32{fill:none;stroke:#6D6E70;stroke-miterlimit:10;}
	.st33{clip-path:url(#SVGID_8_);fill:none;stroke:#FFFFFF;stroke-miterlimit:10;stroke-dasharray:2,2;}
	.st34{clip-path:url(#SVGID_10_);fill:none;stroke:#FFFFFF;stroke-miterlimit:10;stroke-dasharray:2,2;}
	.st35{clip-path:url(#SVGID_12_);fill:none;stroke:#FFFFFF;stroke-miterlimit:10;stroke-dasharray:2,2;}
	.st36{fill:#959595;}
	.st37{fill:none;stroke:#FFFFFF;stroke-width:3.1482;stroke-miterlimit:10;}
	.st38{fill:none;}
	.st39{fill:#737374;}
	.st40{fill:#515050;}
	.st41{fill:#D93F26;}
	.st42{fill:#969696;}
	.st43{fill:#008A00;}
	.st44{fill:#FFB900;}
	.st45{fill:#FF8C00;}
	.st46{fill-rule:evenodd;clip-rule:evenodd;fill:#2E2E2E;}
	.st47{fill:#0078D7;}
</style>
<g id="Layer_1" class="st0">
	<rect class="st1" width="400" height="140"/>
</g>
<g id="titles">
	<g>
		<g>
			<defs>
				<rect id="SVGID_9_" x="194.3" y="52" width="32" height="8"/>
			</defs>
			<clipPath id="SVGID_2_">
				<use xlink:href="#SVGID_9_"  style="overflow:visible;"/>
			</clipPath>
			<line class="st7" x1="245.3" y1="57.5" x2="162.3" y2="57.3"/>
		</g>
		<g>
			<g>
				<rect x="183.7" y="24.9" class="st12" width="151.7" height="83.3"/>
				<polygon class="st3" points="335.4,69 335.4,23.6 290.1,23.6 				"/>
				<polygon class="st4" points="293.3,126.3 227.8,126.3 231.7,122 289.5,122 				"/>
				<path class="st5" d="M290.7,128.8c-2.9,0-57.4,0-60.2,0c-2.8,0-2.8-2.4-2.8-2.4h65.6C293.3,126.3,293.7,128.8,290.7,128.8z"/>
				<polygon class="st5" points="274.8,123.5 246.4,123.5 248.7,110.5 272.5,110.5 				"/>
				<path class="st6" d="M336.8,23H183.9c-2,0-3.5,1.6-3.5,3.5v81.7c0,2,1.6,3.5,3.5,3.5h152.9c2,0,3.5-1.6,3.5-3.5V26.5
					C340.3,24.6,338.7,23,336.8,23z M335,105.6H185.6v-78H335V105.6z"/>
			</g>
		</g>
	</g>
	<g>
		<path class="st23" d="M151.1,28.2c0.3-0.5,0-1.1-0.3-1.3l-2.2-1.3c-0.3-0.2-0.8-0.1-1.2,0.3l-2.3,2.7c-0.7-0.2-1.6-0.6-2.3-0.8
			l-0.1-3.7c0-0.4-0.3-0.8-0.7-0.9l-2.3-0.4c-0.6-0.1-1,0.2-1,0.6l-1.1,3.6c-0.8-0.1-1.6-0.1-2.4,0l-1.3-3.4
			c-0.1-0.5-0.6-0.8-1.1-0.7l-2.3,0.7c-0.4,0-0.7,0.4-0.7,0.8l0.2,3.8c-0.7,0.2-1.4,0.6-2.1,1l-2.6-2.7c-0.3-0.2-0.9-0.3-1.2-0.1
			l-2,1.5c-0.3,0.2-0.5,0.8-0.3,1.1l1.7,3.2c-0.5,0.5-1,1.3-1.5,1.8l-3.4-1.4c-0.3-0.2-0.8-0.1-1.1,0.4l-1.2,2
			c-0.3,0.5-0.2,1,0.1,1.2l2.8,2.4c-0.3,0.9-0.8,1.6-0.9,2.5l-3.7-0.2c-0.5,0.1-0.8,0.3-1,0.9l-0.4,2.3c0,0.4,0.2,1,0.8,1.1l3.4,1
			c-0.1,0.8,0.1,1.6,0,2.4l-3.4,1.3c-0.3,0.2-0.6,0.7-0.5,1.2l0.5,2.3c0.1,0.5,0.6,0.8,1,0.8l3.7-0.5c0.3,0.8,0.7,1.7,1.1,2.4
			l-2.7,2.6c-0.3,0.2-0.5,0.8-0.1,1.2l1.4,1.9c0.2,0.3,0.8,0.5,1.3,0.4l3.3-1.8c0.5,0.5,1,1.1,1.6,1.6l-1.4,3.4
			c0,0.4,0.1,0.9,0.4,1.1l2.2,1.3c0.3,0.2,1,0.2,1.2-0.1l2.4-2.8c0.7,0.2,1.6,0.6,2.3,0.8l0.1,3.7c0,0.4,0.3,0.8,0.7,0.9l2.5,0.5
			c0.4,0,0.7-0.2,1-0.6l1-3.4c0.7-0.2,1.6-0.1,2.3-0.3l1.2,3.5c0.2,0.3,0.7,0.6,1.2,0.5l2.4-0.4c0.3-0.2,0.6-0.7,0.7-1.1l-0.3-3.6
			c0.8-0.3,1.5-0.8,2.4-1.1l2.5,2.6c0.4,0.4,0.9,0.3,1.2,0.1l1.9-1.4c0.4-0.4,0.6-0.9,0.4-1.3l-1.7-3.2c0.5-0.5,1.1-1,1.5-1.8
			l3.4,1.4c0.5,0.3,1,0.2,1.2-0.3l1.2-2c0.3-0.5,0.2-1-0.3-1.3l-2.8-2.4c0.5-0.8,0.7-1.5,0.9-2.5l3.7,0.2c0.4,0,0.8-0.3,0.9-0.7
			l0.5-2.5c0-0.4-0.3-0.8-0.6-1l-3.6-1.1c0.1-0.8,0.1-1.5-0.1-2.2l3.5-1.5c0.3-0.2,0.6-0.7,0.6-0.9l-0.6-2.5
			c-0.1-0.5-0.6-0.8-1.1-0.7l-3.6,0.3c-0.3-0.8-0.5-1.6-0.9-2.3l2.4-2.6c0.4-0.4,0.6-0.9,0.2-1.4l-1.4-1.9c-0.2-0.3-0.8-0.5-1.2-0.1
			l-3.3,1.6c-0.5-0.5-1-1.1-1.6-1.6L151.1,28.2 M139.1,43.6c1.9,1.1,2.4,3.4,1.2,5.3c-1,1.7-3.3,2.2-5.1,1.1
			c-1.7-1.1-2.4-3.4-1.3-5.1C135,43,137.4,42.6,139.1,43.6"/>
		<path class="st14" d="M52,53.7c2,0,3.9,0.5,5.6,1.4c1-9.1,8.8-16.2,18.1-16.2c4.4,0,8.5,1.6,11.7,4.2
			c2.2-12.6,13.2-22.1,26.4-22.1c14.3,0,26,11.2,26.8,25.4c1.3-0.3,2.6-0.5,3.9-0.5c8.6,0,15.5,7,15.5,15.5S153,77,144.5,77H52
			c-6.4,0-11.7-5.2-11.7-11.7C40.4,58.9,45.6,53.7,52,53.7z"/>
		<g>
			<rect x="65" y="91" class="st8" width="24" height="6"/>
			<polygon class="st8" points="80,75.3 80,54 74,54 74,75.3 65,66.3 65,75.3 77,87.1 89,75.3 89,66.3 			"/>
		</g>
		<path class="st9" d="M117.6,55.6c0.2,0.4,0.6,0.4,0.9,0.3l1.7-0.5c0.4-0.2,0.6-0.5,0.4-1.1l-0.5-2.1c-0.2-0.8,0-1.1,0.5-1.5
			c0.2-0.3,0.6-0.5,0.8-0.9c0.4-0.2,0.7-0.4,1.5-0.2l2.2,0.7c0.4,0,0.8-0.2,0.9-0.3l0.8-1.7c0.1-0.2,0-0.7-0.5-1l-1.9-1.2
			c-0.6-0.4-0.6-0.8-0.6-1.2l-0.2-0.1c0.2-0.3,0.2-0.7,0.2-1c-0.1-0.5,0-1.1,0.9-1.5l1.9-0.9c0.5-0.4,0.5-0.8,0.4-1.1l-0.7-1.8
			c-0.1-0.3-0.5-0.6-0.9-0.3l-2.1,0.5c-0.8,0.2-1.3-0.1-1.5-0.5c-0.3-0.2-0.5-0.6-0.9-0.8c-0.2-0.4-0.4-0.7-0.4-1.6l0.8-2
			c0.1-0.6-0.1-0.9-0.4-1.1l-1.7-0.6c-0.3-0.2-0.8-0.1-1,0.2l-1,2c-0.4,0.6-0.9,0.8-1.3,0.7c-0.4,0-0.8-0.1-1.1,0l-0.2-0.1
			c-0.4,0-0.8-0.1-1.3-0.8l-0.9-2.1c-0.2-0.4-0.6-0.4-0.9-0.3l-1.8,0.7c-0.3,0.1-0.6,0.5-0.3,0.9l0.4,2.2c0.2,0.8,0,1.1-0.4,1.3
			c-0.2,0.3-0.6,0.5-0.8,0.9c-0.5,0.4-0.8,0.6-1.6,0.4l-2.1-0.9c-0.4,0-0.8,0.2-1,0.5l-0.8,1.7c0.1,0.3,0,0.7,0.5,1l1.9,1.2
			c0.6,0.4,0.9,0.8,0.6,1.2c0.1,0.3,0,0.7,0.1,1.2c0,0.4-0.1,0.8-1,1.2l-2,1c-0.4,0.2-0.4,0.6-0.3,0.9l0.7,1.8
			c0.1,0.3,0.5,0.6,0.8,0.5l2.2-0.7c0.8-0.2,1.1,0,1.3,0.4c0.4,0.5,0.7,0.7,0.9,1c0.5,0.3,0.6,0.8,0.5,1.4l-0.9,2.1
			c0,0.4,0.2,0.8,0.5,1l1.6,0.7c0.3,0.2,0.8,0.1,1-0.2l1-2c0.4-0.6,0.9-0.8,1.3-0.7c0.4,0,0.8,0.1,1.3,0.1c0.5-0.1,0.8,0.1,1.3,0.8
			L117.6,55.6 M119.3,42.4c0.8,2.3-0.4,4.9-2.7,5.9c-2.4,1-5-0.2-5.9-2.7c-0.8-2.3,0.4-4.9,2.6-5.7C115.7,38.9,118.3,40,119.3,42.4"
			/>
	</g>
	<g>
		<g>
			<path class="st9" d="M250.3,74.6c-2.1-3.7-8.5-15.9-8.5-15.9S241,57.9,241,56V42h-2.5h-2.1H234v14c0,1.7-0.8,2.8-0.8,2.8
				s-6.4,12.2-8.7,15.9c-1.7,3.1,0.9,7.4,4.2,7.4h7.8h2.1h8.5C249.9,82,252.2,77.8,250.3,74.6"/>
			<path class="st36" d="M243.6,42.4c0,1.4-1,2.6-2.4,2.6h-7.5c-1,0-1.9-0.5-2.3-1.4c-0.9-2,0.6-3.6,2.3-3.6h7.4
				C242.6,40,243.6,41,243.6,42.4"/>
			<path class="st36" d="M249.8,74.7c-1.5-2.7-5.3-10-7.2-13.7h-10.4c-1.9,3.6-5.7,11-7.3,13.7c-1.7,3.1,0.9,7.3,4,7.3h7.5h2h8.3
				C249.5,82,251.7,77.8,249.8,74.7z"/>
		</g>
		<path class="st39" d="M293,72V47.7c0,0,3.6-3.3,3.7-5.8c0.3-5-3.6-5.2-4.7-6.4V43h-4v-7.4c-2.8,1.1-4.7,3.5-4.7,6.3
			c0,2.4,2.7,5.8,2.7,5.8v24.1c0,0-2.9,3.2-2.9,5.8c0,2.8,3.9,6.2,3.9,6.2l0-7.7l5,0l0,7.7c2.4-0.9,4.1-3.3,4.1-6.1
			c0-2.6-1.3-4.7-3.1-5.8"/>
		<path class="st36" d="M256.3,39.4c0,1,0.2,2,0.6,3c0,0,0,0.2,0.2,0.4c1.8,3,2.2,6.5,1.8,8.3h2.2v-4.9v-3.4v-9.9
			C258.4,32.8,256.3,36.8,256.3,39.4"/>
		<polygon class="st40" points="261,39 258.2,39 261,32.9 		"/>
		<polygon class="st38" points="261,39 258.2,39 261,32.9 		"/>
		<path class="st36" d="M265.6,39.8c0,1-0.2,1.9-0.6,2.9c0,0-0.2,0.2-0.2,0.4h-0.2c-1.5,2.9-1.9,6.3-1.5,8H261v-4.8V43v-9.5
			C263.5,33.5,265.6,37.3,265.6,39.8"/>
		<polygon class="st13" points="261,39 263.8,39 261,32.9 		"/>
		<polygon class="st38" points="261,39 263.8,39 261,32.9 		"/>
		<path class="st41" d="M253.6,85.4c1,0,1.6-0.8,1.6-1.6c0-14,2.8-20.5,4.7-25.9h-3.4c-2,5.3-4.5,12.2-4.5,25.9
			C252,84.6,252.8,85.4,253.6,85.4"/>
		<path class="st36" d="M262.1,58L262.1,58h3.6c-0.2-0.4-0.4-0.8-0.6-1.2c-1.4-3.4-2.4-6.1-2.4-9.7c0,3.2-0.8,5.5-1.6,8.1
			C261.5,56.2,261.7,57,262.1,58"/>
		<path class="st41" d="M266.8,83.9c0,0.8,0.8,1.6,1.6,1.6c1,0,1.6-0.8,1.6-1.6c0-13.6-2.4-20.5-4.3-25.9h-3.6
			C264.3,63.3,266.8,69.8,266.8,83.9"/>
		<path class="st36" d="M262.7,46.7c0-0.8-0.8-1.6-1.6-1.6c-1,0-1.6,0.8-1.6,1.6c0,3.2,0.6,5.5,1.6,8.1
			C261.9,52.3,262.7,49.9,262.7,46.7"/>
		<path class="st40" d="M265.1,43v0.2c0-0.2,0.2-0.4,0.2-0.4c0.2-0.8,0.4-1.4,0.6-2.8H262v4.2c-0.5,0-0.1,3.2,1.3,7.3
			c-0.4-1.8,0-5.3,1.6-8.5H265.1z"/>
		<polygon class="st13" points="261,39 263.8,39 261,32.9 		"/>
		<polygon class="st38" points="261,39 263.8,39 261,32.9 		"/>
		<path class="st36" d="M263.9,42.2c0,1.6-1.2,2.8-2.8,2.8c-1.6,0-2.8-1.2-2.8-2.8c0-1.4,1.2-2.8,2.8-2.8
			C262.7,39.4,263.9,40.8,263.9,42.2"/>
		<path class="st36" d="M257.2,56.8c-0.2,0.4-0.4,0.8-0.6,1.2h3.4c0.2-0.2,0.2-0.6,0.4-0.8l-1.6-4.7
			C258.3,53.9,257.7,55.2,257.2,56.8"/>
		<path class="st36" d="M259.5,46.7c0,1,0,1.8-0.2,2.6c0.2,0.8,0.6,1.6,0.8,2.4C259.7,50.3,259.5,48.5,259.5,46.7"/>
		<path class="st40" d="M260.1,51.7c0.2,1.2,0.6,2.2,1,3.2C261.1,54.8,260.7,53.5,260.1,51.7"/>
		<path class="st40" d="M260.1,51.7c-0.2-0.8-0.6-1.6-0.8-2.4c-0.2,0.8-0.4,1.8-0.6,2.8l1.6,4.7c0.2-0.6,0.6-1.4,0.8-2
			C260.7,53.8,260.3,52.9,260.1,51.7"/>
		<rect x="252" y="33" class="st38" width="18" height="52"/>
		<rect x="275" y="36" class="st42" width="1" height="32"/>
		<rect x="275" y="36" class="st38" width="1" height="32"/>
		<rect x="275" y="36" class="st42" width="1" height="32"/>
		<rect x="275" y="36" class="st23" width="2" height="32"/>
		<rect x="275" y="36" class="st42" width="1" height="1"/>
		<rect x="275" y="36" class="st38" width="1" height="1"/>
		<path class="st43" d="M278,85h-4v3c0.3,0.2,0.6,0.3,1.1,1h1.2c0.5-0.6,0.8-0.8,1.7-1V85z"/>
		<rect x="273" y="61" class="st44" width="6" height="20"/>
		<rect x="274" y="61" class="st45" width="4" height="20"/>
		<rect x="272" y="32" class="st38" width="6" height="57"/>
		<path class="st46" d="M310,101c0-9,0-15.8,0-15.8c0-2.9-2.7-5.2-5.9-5.2c-11.5,0-11.1,0-11.1,0c0-7.6,0-7.4,0-7.4
			c0-4-4-6.6-8.7-6.6c-42.5,0-42.5,0-42.5,0c-4.6,0-7.9,2.6-7.9,6.6c0,7.2,0,7.4,0,7.4c-11.2,0-12.2,0-12.2,0
			c-3.2,0-5.8,2.6-5.8,5.8V101H310z M238,73c0-0.7,1.2-2,3.4-2c42.5,0,42.5,0,42.5,0c1.8,0,3.1,1.3,3.1,2v7c-49,0-49,0-49,0
			C238,72.8,238,73,238,73z"/>
	</g>
</g>
</svg>
