<?xml version="1.0" encoding="utf-8"?>
<!-- Generator: Adobe Illustrator 21.0.0, SVG Export Plug-In . SVG Version: 6.00 Build 0)  -->
<svg version="1.1" xmlns="http://www.w3.org/2000/svg" xmlns:xlink="http://www.w3.org/1999/xlink" x="0px" y="0px"
	 viewBox="0 0 400 140" style="enable-background:new 0 0 400 140;" xml:space="preserve">
<style type="text/css">
	.st0{display:none;}
	.st1{display:inline;fill:#E1E5EA;}
	.st2{fill:#FFFFFF;}
	.st3{fill:#88BE88;}
	.st4{fill:none;stroke:#32145A;stroke-width:4;stroke-miterlimit:10;}
	.st5{fill:none;stroke:#FFFFFF;stroke-width:4;stroke-miterlimit:10;}
	.st6{fill:none;stroke:#FFFFFF;stroke-width:3;stroke-miterlimit:10;}
	.st7{fill:#AFD3AF;}
	.st8{fill:#FFFFFF;stroke:#60A860;stroke-width:4;stroke-miterlimit:10;}
	.st9{fill:#60A860;}
	.st10{fill:#AAD2F2;}
	.st11{fill:#666666;}
	.st12{fill:#1A1A1A;}
	.st13{fill:#DF5C2B;}
	.st14{fill:#333333;}
	.st15{fill:#316389;}
	.st16{fill:#638AA5;}
	.st17{fill:#CCCCCC;}
	.st18{fill:#80BCEB;}
	.st19{fill:#0072C6;}
	.st20{opacity:0.1;fill:#FFFFFF;enable-background:new    ;}
	.st21{fill:#7FBA00;}
	.st22{fill:#B8D432;}
	.st23{fill:#0078D7;}
	.st24{opacity:0.25;}
	.st25{fill:#D38080;}
	.st26{fill:#E2AAAA;}
	.st27{fill:#C14949;}
	.st28{fill:#B72B2B;}
	.st29{fill:#2E2E2E;}
	.st30{fill:#5D5F5E;}
	.st31{opacity:0.25;fill:#FFFFFF;}
	.st32{fill:#3999C6;}
	.st33{fill:#7FBB42;}
	.st34{opacity:0.8;fill:#B8D433;enable-background:new    ;}
	.st35{fill:#5AB4D9;}
	.st36{fill:#B8D433;}
</style>
<g id="Layer_1" class="st0">
	<rect x="0" class="st1" width="400" height="140"/>
</g>
<g id="titles">
	<path class="st10" d="M230.6,64.5c1.9,0,3.8,0.5,5.4,1.4c1-8.8,8.5-15.6,17.5-15.6c4.3,0,8.2,1.5,11.3,4.1
		c2.1-12.1,12.7-21.3,25.5-21.3c13.8,0,25.1,10.8,25.8,24.5c1.2-0.3,2.5-0.5,3.8-0.5c8.3,0,15,6.7,15,15s-6.7,15-15,15h-89.2
		c-6.2,0-11.2-5-11.2-11.2C219.4,69.5,224.4,64.5,230.6,64.5z"/>
	<path class="st10" d="M38.6,100.5c1.9,0,3.8,0.5,5.4,1.4c1-8.8,8.5-15.6,17.5-15.6c4.3,0,8.2,1.5,11.3,4.1
		C74.9,78.2,85.5,69,98.3,69c13.8,0,25.1,10.8,25.8,24.5c1.2-0.3,2.5-0.5,3.8-0.5c8.3,0,15,6.7,15,15s-6.7,15-15,15H38.6
		c-6.2,0-11.2-5-11.2-11.2C27.4,105.5,32.4,100.5,38.6,100.5z"/>
	<g>
		<path class="st13" d="M174.8,98.9c0,0-14.5-5.2-22,25.7c29.8-8,24.4-23.4,24.4-23.4L174.8,98.9z"/>
		<polygon class="st14" points="194.7,97.1 179.7,82 173.3,88.5 177.9,93.2 167.4,95.1 181.5,109.3 183.5,98.8 188.2,103.5 		"/>
		<path class="st11" d="M187.7,60.4c0,0-16.1-9.6-23.7-1.1s-12.6,16.3-12.6,16.3l2.8,2.4c0,0,9-9.8,16.4-10
			c4.4-0.1,12.2,4.3,12.2,4.3L187.7,60.4z"/>
		<path class="st11" d="M218.2,89.2c0,0,9.6,16.3,1,23.9c-8.6,7.6-16.3,12.5-16.3,12.5l-2.4-2.8c0,0,9.9-9,10.1-16.3
			c0.1-4.4-4.2-12.2-4.2-12.2L218.2,89.2z"/>
		<g>
			<path class="st15" d="M254.9,22.4l0.1-0.1c0,0,0,0-0.1,0c0-0.1,0-0.1,0-0.1L254.9,22.4c-3.1,0.3-39.8,5.5-56.3,22
				c-17.2,17.1-20.1,36.4-20.1,36.4l17.7,17.8c0,0,19.2-2.9,36.4-20C249,62.1,254.5,25.3,254.9,22.4z"/>
		</g>
		<g>
			<path class="st16" d="M254.9,22.4l0.1-0.1c0,0,0,0-0.1,0c0-0.1,0-0.1,0-0.1L254.9,22.4c-2.2,0.2-20.6,2.8-37.2,9.9
				c-7.2,3.1,24.2,33.7,27.4,26.1C252,42.1,254.6,24.4,254.9,22.4z"/>
		</g>
	</g>
</g>
</svg>
