<?xml version="1.0" encoding="utf-8"?>
<!-- Generator: Adobe Illustrator 21.0.0, SVG Export Plug-In . SVG Version: 6.00 Build 0)  -->
<svg version="1.1" xmlns="http://www.w3.org/2000/svg" xmlns:xlink="http://www.w3.org/1999/xlink" x="0px" y="0px"
	 viewBox="0 0 400 140" style="enable-background:new 0 0 400 140;" xml:space="preserve">
<style type="text/css">
	.st0{display:none;}
	.st1{display:inline;fill:#E1E5EA;}
	.st2{fill:#424242;}
	.st3{fill:#909090;}
	.st4{fill:none;stroke:#909090;stroke-miterlimit:10;stroke-dasharray:2,2;}
	.st5{fill:#CCCCCC;}
	.st6{opacity:0.15;fill:#FFFFFF;}
	.st7{fill:#5D5D5D;}
	.st8{fill:#171717;}
	.st9{fill:#7DB912;}
	.st10{fill:#2E2E2E;}
	.st11{fill:#5D5F5E;}
	.st12{fill:#FFFFFF;}
	.st13{fill:#AAD2F2;}
	.st14{fill:#2B456D;}
	.st15{fill:#B3B3B3;}
	.st16{opacity:0.25;fill:#FFFFFF;}
	.st17{clip-path:url(#SVGID_2_);}
	.st18{fill:none;stroke:#FFFFFF;stroke-miterlimit:10;stroke-dasharray:2,2;}
	.st19{clip-path:url(#SVGID_4_);}
	.st20{fill:#AFD3AF;}
	.st21{fill:none;}
	.st22{fill:#0072C6;}
	.st23{fill:#60A860;}
	.st24{fill:#316389;}
	.st25{opacity:0.1;fill:#FFFFFF;enable-background:new    ;}
	.st26{fill:#7FBA00;}
	.st27{fill:#B8D432;}
	.st28{fill:#638AA5;}
	.st29{fill:#175D87;}
	.st30{fill:#377093;}
	.st31{fill:#333333;}
	.st32{fill:#88BE88;}
	.st33{fill:none;stroke:#32145A;stroke-width:4;stroke-miterlimit:10;}
	.st34{fill:none;stroke:#FFFFFF;stroke-width:4;stroke-miterlimit:10;}
	.st35{fill:none;stroke:#FFFFFF;stroke-width:3;stroke-miterlimit:10;}
	.st36{fill:#E2E2E2;}
	.st37{fill:#8090A8;}
	.st38{fill:#D4DAE2;}
	.st39{fill:none;stroke:#808080;stroke-width:2;stroke-miterlimit:10;}
	.st40{fill:#808080;}
	.st41{fill:#FFFFFF;stroke:#808080;stroke-width:2;stroke-miterlimit:10;}
	.st42{fill:none;stroke:#808080;stroke-width:2;stroke-linejoin:bevel;stroke-miterlimit:10;}
	.st43{fill:#FFFFFF;stroke:#60A860;stroke-width:1.7237;stroke-miterlimit:10;}
</style>
<g id="Layer_1" class="st0">
	<rect class="st1" width="400" height="140"/>
</g>
<g id="titles">
	<path class="st13" d="M89.4,62.7c2.9,0,5.6,0.7,8,2c1.5-13.1,12.6-23.3,26.2-23.3c6.4,0,12.3,2.3,16.9,6.1
		c3.2-18.1,19-31.9,38.1-31.9c20.7,0,37.5,16.2,38.6,36.6c1.8-0.5,3.7-0.7,5.7-0.7c12.4,0,22.4,10,22.4,22.4s-10,22.4-22.4,22.4
		H89.4c-9.3,0-16.8-7.5-16.8-16.8C72.6,70.2,80.1,62.7,89.4,62.7z"/>
	<g>
		<g>
			<g>
				<path class="st10" d="M311.2,131.3V44.8c0-2-1.6-3.5-3.5-3.5H182.7c-2,0-3.5,1.6-3.5,3.5v86.5H311.2z"/>
				<rect x="183.2" y="46.3" class="st20" width="123" height="77"/>
				<path class="st10" d="M321.5,134.3c-3.9,0-147.4,0-152.4,0s-5.9-7-5.9-7h164.3C327.4,127.3,325.5,134.3,321.5,134.3z"/>
				<rect x="244.2" y="44.3" class="st11" width="2" height="2"/>
				<polygon class="st16" points="306.2,46.3 250.9,46.3 306.2,98 				"/>
				<g>
					<defs>
						<rect id="SVGID_5_" x="183.2" y="46.3" width="123" height="77"/>
					</defs>
					<clipPath id="SVGID_2_">
						<use xlink:href="#SVGID_5_"  style="overflow:visible;"/>
					</clipPath>
				</g>
			</g>
		</g>
	</g>
	<g>
		<path class="st12" d="M245.2,63.3c0,0-6-4-7-4s-12-1-12,0s2,4,0,4s-10,0-10,0v46h57v-46h-11v-4h-11L245.2,63.3z"/>
		<g>
			<path id="outline_1_" class="st23" d="M265.2,61.3v-4h-12.5c-2.9,0-6.3,2.1-8.5,4c-2.3-1.9-4.5-4-7.4-4h-12.6v4h-10v50h61v-50
				H265.2z M261.2,61.3v39h-9c-2.4,0-5.1,2.5-7,3.5V64.3c1.9-1.5,4.5-3,7-3H261.2z M228.2,61.3h8.2c2.5,0,4.9,1.5,6.8,3v39.6
				c-1.9-1.1-4.4-3.6-6.8-3.6h-8.2V61.3z M218.2,65.3h6v39h13c4,0,7,3,7,3h-26V65.3z M271.2,107.3h-27c0,0,3-3,7.6-3h13.4v-39h6
				V107.3z"/>
		</g>
	</g>
	<g>
		<rect x="107.2" y="115.3" class="st24" width="32" height="8"/>
		<polygon class="st24" points="127.2,94.7 127.2,66.3 119.2,66.3 119.2,94.7 107.2,82.7 107.2,94.7 123.2,110.5 139.2,94.7 
			139.2,82.7 		"/>
	</g>
</g>
</svg>
