<?xml version="1.0" encoding="utf-8"?>
<!-- Generator: Adobe Illustrator 21.0.0, SVG Export Plug-In . SVG Version: 6.00 Build 0)  -->
<svg version="1.1" xmlns="http://www.w3.org/2000/svg" xmlns:xlink="http://www.w3.org/1999/xlink" x="0px" y="0px"
	 viewBox="0 0 400 140" style="enable-background:new 0 0 400 140;" xml:space="preserve">
<style type="text/css">
	.st0{display:none;}
	.st1{display:inline;fill:#E1E5EA;}
	.st2{fill:#424242;}
	.st3{fill:#909090;}
	.st4{fill:none;stroke:#909090;stroke-miterlimit:10;stroke-dasharray:2,2;}
	.st5{fill:#CCCCCC;}
	.st6{opacity:0.15;fill:#FFFFFF;}
	.st7{fill:#5D5D5D;}
	.st8{fill:#171717;}
	.st9{fill:#7DB912;}
	.st10{fill:#2E2E2E;}
	.st11{fill:#5D5F5E;}
	.st12{fill:#FFFFFF;}
	.st13{fill:#AAD2F2;}
	.st14{fill:#2B456D;}
	.st15{fill:#B3B3B3;}
	.st16{opacity:0.25;fill:#FFFFFF;}
	.st17{clip-path:url(#SVGID_2_);}
	.st18{fill:none;stroke:#FFFFFF;stroke-miterlimit:10;stroke-dasharray:2,2;}
	.st19{clip-path:url(#SVGID_4_);}
	.st20{fill:#AFD3AF;}
	.st21{fill:none;}
	.st22{fill:#0072C6;}
	.st23{fill:#60A860;}
	.st24{fill:#316389;}
	.st25{opacity:0.1;fill:#FFFFFF;enable-background:new    ;}
	.st26{fill:#7FBA00;}
	.st27{fill:#B8D432;}
	.st28{fill:#638AA5;}
	.st29{fill:#175D87;}
	.st30{fill:#377093;}
	.st31{fill:#333333;}
	.st32{fill:#88BE88;}
	.st33{fill:none;stroke:#32145A;stroke-width:4;stroke-miterlimit:10;}
	.st34{fill:none;stroke:#FFFFFF;stroke-width:4;stroke-miterlimit:10;}
	.st35{fill:none;stroke:#FFFFFF;stroke-width:3;stroke-miterlimit:10;}
	.st36{fill:#E2E2E2;}
	.st37{fill:#8090A8;}
	.st38{fill:#D4DAE2;}
	.st39{fill:none;stroke:#808080;stroke-width:2;stroke-miterlimit:10;}
	.st40{fill:#808080;}
	.st41{fill:#FFFFFF;stroke:#808080;stroke-width:2;stroke-miterlimit:10;}
	.st42{fill:none;stroke:#808080;stroke-width:2;stroke-linejoin:bevel;stroke-miterlimit:10;}
	.st43{fill:#FFFFFF;stroke:#60A860;stroke-width:1.7237;stroke-miterlimit:10;}
</style>
<g id="Layer_1" class="st0">
	<rect class="st1" width="400" height="140"/>
</g>
<g id="titles">
	<g>
		<path class="st13" d="M199.9,56.3c1.2-14.8,13.3-26.4,28-26.4c10.9,0,20.3,6.4,25,15.7c4.3-2.7,9.4-4.3,14.9-4.3
			c13.2,0,24.4,9.2,27.7,21.8c2.5-0.8,5.2-1.3,8.1-1.3c14.6,0,26.4,11.8,26.4,26.4c0,10.6-6.2,19.7-15.2,23.9
			c-2.5,1-4.5,1.9-8.2,2.3c-0.2,0-0.4,0-0.7,0.1c-3.8,0.3-9,0.4-16.9,0.4h-85.3c-1.9,0-3.7-0.2-5.5-0.7c-13.1-2.6-23-14.5-23-28.8
			C175.1,70.4,185.9,58.1,199.9,56.3z"/>
		<g>
			<rect x="252" y="25" class="st31" width="46" height="73"/>
			<rect x="259" y="32" class="st3" width="32" height="6"/>
			<rect x="259" y="46" class="st3" width="32" height="6"/>
			<rect x="284" y="86" class="st3" width="7" height="6"/>
		</g>
		<g>
			<path class="st22" d="M237.5,58.2C237.5,58.2,237.5,58.2,237.5,58.2c-0.6,0-22.5,0-22.5,0v42.5c0,4.4,10,7.9,22.5,8v0h-0.1
				c0,0,0.1,0,0.1,0v0c12.4,0,22.5-3.6,22.5-8V58.2H237.5z"/>
			<path class="st25" d="M237.4,108.7h0.3c12.2,0,22.1-3.6,22.1-8V58.2h-22.4V108.7z"/>
			<path class="st12" d="M260,56.7c0,4.4-10.1,8-22.5,8s-22.5-3.6-22.5-8s10.1-8,22.5-8S260,52.3,260,56.7"/>
			<path class="st26" d="M256.1,56.9c0,2.9-8.4,5.3-18.7,5.3c-10.3,0-18.7-2.4-18.7-5.3c0-2.9,8.4-5.3,18.7-5.3
				C247.8,51.7,256.1,54,256.1,56.9"/>
			<path class="st27" d="M252.2,60.2c2.4-0.9,3.9-2,3.9-3.2c0-2.9-8.4-5.3-18.7-5.3c-10.3,0-18.7,2.4-18.7,5.3
				c0,1.2,1.5,2.3,3.9,3.2c3.4-1.2,8.8-2,14.8-2C243.5,58.1,248.8,58.9,252.2,60.2"/>
		</g>
	</g>
	<g>
		<circle class="st32" cx="109.5" cy="70.8" r="42"/>
	</g>
	<g>
		<g>
			<circle class="st34" cx="93.5" cy="63.5" r="6.5"/>
			<path class="st34" d="M85.5,78.4c0-4.2,3.4-7.6,7.6-7.6s7.6,3.4,7.6,7.6"/>
		</g>
		<circle class="st35" cx="93.5" cy="89.5" r="5"/>
		<circle class="st35" cx="104.5" cy="89.5" r="5"/>
		<circle class="st35" cx="115.5" cy="89.5" r="5"/>
		<circle class="st35" cx="126.5" cy="89.5" r="5"/>
		<line class="st34" x1="99" y1="69" x2="133" y2="69"/>
		<polyline class="st34" points="128,69 128,47 94,47 94,58 		"/>
	</g>
</g>
</svg>
