<?xml version="1.0" encoding="utf-8"?>
<!-- Generator: Adobe Illustrator 21.0.0, SVG Export Plug-In . SVG Version: 6.00 Build 0)  -->
<svg version="1.1" xmlns="http://www.w3.org/2000/svg" xmlns:xlink="http://www.w3.org/1999/xlink" x="0px" y="0px"
	 viewBox="0 0 400 140" style="enable-background:new 0 0 400 140;" xml:space="preserve">
<style type="text/css">
	.st0{display:none;}
	.st1{display:inline;fill:#E1E5EA;}
	.st2{fill:#FFFFFF;}
	.st3{fill:#88BE88;}
	.st4{fill:none;stroke:#32145A;stroke-width:4;stroke-miterlimit:10;}
	.st5{fill:none;stroke:#FFFFFF;stroke-width:4;stroke-miterlimit:10;}
	.st6{fill:none;stroke:#FFFFFF;stroke-width:3;stroke-miterlimit:10;}
	.st7{fill:#AFD3AF;}
	.st8{fill:#FFFFFF;stroke:#60A860;stroke-width:4;stroke-miterlimit:10;}
	.st9{fill:#60A860;}
	.st10{fill:#AAD2F2;}
	.st11{fill:#666666;}
	.st12{fill:#1A1A1A;}
	.st13{fill:#DF5C2B;}
	.st14{fill:#333333;}
	.st15{fill:#316389;}
	.st16{fill:#638AA5;}
	.st17{fill:#CCCCCC;}
	.st18{fill:#80BCEB;}
	.st19{fill:#0072C6;}
	.st20{opacity:0.1;fill:#FFFFFF;enable-background:new    ;}
	.st21{fill:#7FBA00;}
	.st22{fill:#B8D432;}
	.st23{fill:#0078D7;}
	.st24{opacity:0.25;}
	.st25{fill:#D38080;}
	.st26{fill:#E2AAAA;}
	.st27{fill:#C14949;}
	.st28{fill:#B72B2B;}
	.st29{fill:#2E2E2E;}
	.st30{fill:#5D5F5E;}
	.st31{opacity:0.25;fill:#FFFFFF;}
	.st32{fill:#3999C6;}
	.st33{fill:#7FBB42;}
	.st34{opacity:0.8;fill:#B8D433;enable-background:new    ;}
	.st35{fill:#5AB4D9;}
	.st36{fill:#B8D433;}
</style>
<g id="Layer_1" class="st0">
	<rect class="st1" width="400" height="140"/>
</g>
<g id="titles">
	<path class="st2" d="M198.2,41.3c1.5-17.8,15.8-31.7,33.2-31.7c12.9,0,24.1,7.7,29.7,18.9c5.2-3.3,11.2-5.1,17.7-5.1
		c15.7,0,29,11.1,33,26.1c3-1,6.2-1.5,9.6-1.5c17.3,0,31.3,14.2,31.3,31.6c0,12.7-7.4,23.6-18.1,28.7c-3,1.3-5.3,2.3-9.8,2.8
		c-0.3,0-0.5,0.1-0.8,0.1c-4.5,0.4-10.7,0.5-20.1,0.5H202.6c-2.3,0-4.4-0.3-6.6-0.8c-15.6-3.1-27.4-17.4-27.4-34.6
		C168.7,58.3,181.6,43.5,198.2,41.3z"/>
	<g>
		<circle class="st3" cx="109.5" cy="70.8" r="42"/>
	</g>
	<g>
		<g>
			<circle class="st5" cx="93.5" cy="63.5" r="6.5"/>
			<path class="st5" d="M85.5,78.4c0-4.2,3.4-7.6,7.6-7.6s7.6,3.4,7.6,7.6"/>
		</g>
		<circle class="st6" cx="93.5" cy="89.5" r="5"/>
		<circle class="st6" cx="104.5" cy="89.5" r="5"/>
		<circle class="st6" cx="115.5" cy="89.5" r="5"/>
		<circle class="st6" cx="126.5" cy="89.5" r="5"/>
		<line class="st5" x1="99" y1="69" x2="133" y2="69"/>
		<polyline class="st5" points="128,69 128,47 94,47 94,58 		"/>
	</g>
	<g id="Layer_4">
		<polygon class="st32" points="241.8,23.1 202.7,43.9 202.7,50 210.7,50 210.7,92 217.7,92 217.7,50 266.7,50 266.7,89 273.7,89 
			273.7,50 280.7,50 280.7,43.9 		"/>
		<g>
			<rect x="227.7" y="55" class="st33" width="10" height="10"/>
			<polygon class="st34" points="229.2,65 227.7,65 227.7,63.9 236.3,55 237.7,55 237.7,56 			"/>
		</g>
		<g>
			<rect x="246.7" y="68" class="st33" width="10" height="10"/>
			<polygon class="st34" points="248.2,78 246.7,78 246.7,76.9 255.3,68 256.7,68 256.7,69 			"/>
		</g>
		<rect x="220.7" y="68" class="st33" width="10" height="10"/>
		<polygon class="st34" points="222.2,78 220.7,78 220.7,76.9 229.3,68 230.7,68 230.7,69 		"/>
		<rect x="233.7" y="68" class="st33" width="10" height="10"/>
		<polygon class="st34" points="235.2,78 233.7,78 233.7,76.9 242.3,68 243.7,68 243.7,69 		"/>
		<g>
			<rect x="246.7" y="81" class="st33" width="10" height="10"/>
			<polygon class="st34" points="248.2,91 246.7,91 246.7,89.9 255.3,81 256.7,81 256.7,82 			"/>
		</g>
		<rect x="220.7" y="81" class="st33" width="10" height="10"/>
		<polygon class="st34" points="222.2,91 220.7,91 220.7,89.9 229.3,81 230.7,81 230.7,82 		"/>
		<rect x="233.7" y="81" class="st33" width="10" height="10"/>
		<polygon class="st34" points="235.2,91 233.7,91 233.7,89.9 242.3,81 243.7,81 243.7,82 		"/>
		<g>
			<path class="st32" d="M260.7,74v42.8c0,4.5,9.9,8.1,22,8.1V74H260.7z"/>
			<path class="st35" d="M281.7,125h0.3c12.5,0,22.7-3.7,22.7-8.1V74h-23V125L281.7,125z"/>
			<path class="st2" d="M305,74.1c0,4.5-10.1,8.1-22.5,8.1c-12.4,0-22.5-3.6-22.5-8.1c0-4.5,10.1-8.1,22.5-8.1S305,69.6,305,74.1"/>
			<path class="st33" d="M300.4,73.7c0,2.9-8,5.4-17.9,5.4s-17.9-2.4-17.9-5.4c0-2.9,8-5.4,17.9-5.4S300.4,70.7,300.4,73.7"/>
			<path class="st36" d="M296.6,76.9c2.3-0.9,3.7-2.1,3.7-3.3c0-2.9-8-5.4-17.9-5.4s-17.9,2.4-17.9,5.4c0,1.3,1.4,2.4,3.7,3.3
				c3.3-1.3,8.4-2.1,14.2-2.1C288.2,74.8,293.3,75.7,296.6,76.9"/>
			<g>
				<path class="st2" d="M265.6,105.2v-3.1c0.5,0.5,1.1,0.8,1.8,1.1c0.7,0.2,1.3,0.3,1.9,0.3c0.4,0,0.7-0.1,1-0.1
					c0.3-0.1,0.5-0.1,0.7-0.3s0.3-0.3,0.4-0.5c0.1-0.2,0.1-0.3,0.1-0.5c0-0.3-0.1-0.5-0.2-0.7c-0.1-0.2-0.3-0.4-0.6-0.6
					c-0.3-0.2-0.6-0.3-0.9-0.5c-0.3-0.1-0.7-0.3-1.2-0.5c-1.1-0.5-1.9-1-2.4-1.6c-0.5-0.7-0.8-1.4-0.8-2.3c0-0.7,0.1-1.3,0.4-1.8
					c0.3-0.5,0.7-0.9,1.1-1.3c0.5-0.3,1.1-0.6,1.7-0.7c0.7-0.1,1.3-0.2,2.1-0.2s1.3,0.1,1.9,0.1c0.5,0.1,1.1,0.2,1.5,0.4v2.9
					c-0.2-0.1-0.5-0.3-0.7-0.4c-0.3-0.1-0.5-0.2-0.8-0.3c-0.3-0.1-0.6-0.1-0.9-0.2c-0.3-0.1-0.5-0.1-0.8-0.1c-0.3,0-0.7,0-0.9,0.1
					c-0.3,0.1-0.5,0.1-0.7,0.3s-0.3,0.3-0.5,0.4c-0.1,0.2-0.1,0.3-0.1,0.5s0.1,0.4,0.2,0.6c0.1,0.2,0.3,0.3,0.5,0.5
					c0.2,0.1,0.5,0.3,0.8,0.5c0.3,0.1,0.7,0.3,1.1,0.5c0.5,0.2,1.1,0.5,1.5,0.7c0.5,0.3,0.8,0.5,1.1,0.9c0.3,0.3,0.5,0.7,0.7,1.1
					c0.1,0.4,0.3,0.9,0.3,1.5c0,0.7-0.1,1.4-0.4,1.9c-0.3,0.5-0.7,0.9-1.2,1.3c-0.5,0.3-1.1,0.5-1.7,0.7s-1.3,0.2-2.1,0.2
					s-1.5-0.1-2.1-0.2C266.7,105.6,266.1,105.4,265.6,105.2z"/>
				<path class="st2" d="M282.9,106c-1.9,0-3.5-0.7-4.8-1.9c-1.2-1.3-1.9-2.9-1.9-5c0-2.1,0.6-3.9,1.9-5.2c1.3-1.3,2.9-2,4.9-2
					c1.9,0,3.5,0.7,4.7,1.9c1.2,1.3,1.8,2.9,1.8,5.1s-0.6,3.9-1.9,5.2c-0.1,0.1-0.1,0.1-0.1,0.1c-0.1,0.1-0.1,0.1-0.1,0.1l3.5,3.3
					h-4.3l-1.8-1.9C284.3,105.9,283.6,106,282.9,106z M283,94.5c-1.1,0-1.9,0.4-2.6,1.2c-0.7,0.8-0.9,1.9-0.9,3.2
					c0,1.3,0.3,2.4,0.9,3.2c0.7,0.8,1.5,1.2,2.5,1.2c1.1,0,1.9-0.4,2.5-1.1c0.6-0.8,0.9-1.9,0.9-3.2c0-1.4-0.3-2.5-0.9-3.3
					C284.9,94.9,284.1,94.5,283,94.5z"/>
				<path class="st2" d="M300,105.7h-8.1V92h3.1v11.1h5.1V105.7L300,105.7z"/>
			</g>
		</g>
	</g>
</g>
</svg>
