<?xml version="1.0" encoding="UTF-8"?>
<svg xmlns="http://www.w3.org/2000/svg" xmlns:xlink="http://www.w3.org/1999/xlink" version="1.1" viewBox="0 0 501.6 189.2">
  <defs>
    <linearGradient id="linear-gradient" x1="55.166666" y1="-94.8" x2="55.166666" y2="-78.753341" gradientTransform="translate(0 -15.6) scale(1 -1)" gradientUnits="userSpaceOnUse">
      <stop offset="0" stop-color="#0078d4"/>
      <stop offset=".82" stop-color="#5ea0ef"/>
    </linearGradient>
    <linearGradient id="linear-gradient-2" x1="55.166669" y1="-100.986663" x2="55.166669" y2="-94.8" gradientTransform="translate(0 -15.6) scale(1 -1)" gradientUnits="userSpaceOnUse">
      <stop offset=".151" stop-color="#ccc"/>
      <stop offset="1" stop-color="#707070"/>
    </linearGradient>
    <linearGradient id="linear-gradient-3" y1="-151.748886" y2="-135.702227" xlink:href="#linear-gradient"/>
    <linearGradient id="linear-gradient-4" y1="-157.93555" y2="-151.748886" xlink:href="#linear-gradient-2"/>
  </defs>
  <g isolation="isolate">
    <g id="Shapes">
      <rect width="501.6" height="189.2" fill="#fff" stroke-width="0"/>
      <g>
        <g mix-blend-mode="multiply" opacity=".23">
          <rect x="18.6" y="40.6" width="250.8" height="132" fill="#000" stroke-width="0"/>
        </g>
        <rect x="17.6" y="39.6" width="250.8" height="132" fill="#d7d2cb" stroke-width="0"/>
      </g>
      <g>
        <g mix-blend-mode="multiply" opacity=".23">
          <rect x="283.426191" y="80.2" width="199.1" height="39.6" fill="#000" stroke-width="0"/>
          <rect x="283.426191" y="80.2" width="199.1" height="39.6" fill="#000" opacity=".25" stroke-width="0"/>
        </g>
        <g>
          <rect x="282.426191" y="79.2" width="199.1" height="39.6" fill="#fff" stroke-width="0"/>
          <rect x="282.426191" y="79.2" width="199.1" height="39.6" fill="#ffe452" opacity=".25" stroke-width="0"/>
        </g>
      </g>
      <g>
        <g mix-blend-mode="multiply" opacity=".23">
          <rect x="31.8" y="53.8" width="224.4" height="48.4" fill="#000" stroke-width="0"/>
        </g>
        <rect x="30.8" y="52.8" width="224.4" height="48.4" fill="#fff" stroke-width="0"/>
      </g>
      <g>
        <g mix-blend-mode="multiply" opacity=".23">
          <rect x="31.8" y="111" width="224.4" height="48.4" fill="#000" stroke-width="0"/>
        </g>
        <rect x="30.8" y="110" width="224.4" height="48.4" fill="#fff" stroke-width="0"/>
      </g>
      <g id="a6736b46-5abc-4b60-9819-eb5a3df3404e">
        <path d="M69.414992,88.476662c-.266666,1.166666-1.724999,2.318333-4.361665,3.215-6.595163,1.939219-13.607749,1.949052-20.208323.028334-2.428331-.856669-3.73833-1.950001-3.94333-3.066667-.036667-.196667,0-3.276664,0-3.276664l28.559985-.266666s-.013332,3.224998-.046666,3.366664Z" fill="#5ea0ef" stroke-width="0"/>
        <ellipse cx="55.168263" cy="85.309997" rx="14.293325" ry="4.941663" transform="translate(-.853349 .557936) rotate(-.575001)" fill="#50e6ff" stroke-width="0"/>
        <rect x="43.131672" y="63.153341" width="24.069989" height="16.046659" rx=".801666" ry=".801666" fill="url(#linear-gradient)" stroke-width="0"/>
        <path d="M59.999996,84.05333c-2.379998-.373333-2.473332-2.085-2.473332-4.85333h-4.726663c0,2.768332-.08,4.479997-2.459999,4.85333-.679902.073504-1.193961.649481-1.189999,1.333333h12.033328c.004325-.681568-.506077-1.256669-1.183334-1.333333Z" fill="url(#linear-gradient-2)" stroke-width="0"/>
        <path d="M60.499996,72.395003v-4.979998h-1.433332v6.081664h3.619998v-1.101666h-2.186666ZM50.000002,69.933337c-.271497-.110432-.524877-.260999-.751667-.446666-.126955-.129249-.194039-.305722-.185-.486667-.004908-.1776.081199-.345414.228333-.445.182203-.118411.398351-.173473.615-.156667.508426-.015738,1.008488.132061,1.426666.421667v-1.263333c-.457226-.164914-.940681-.245113-1.426666-.236666-.580771-.027459-1.152803.149458-1.616666.5-.398333.318387-.621665.807118-.601666,1.316666.027493.790317.52299,1.488339,1.259999,1.774999.325115.130378.629003.308441.901666.528333.146685.112788.231363.288323.228333.473333.000658.180291-.084019.350265-.228333.458333-.178337.118782-.387401.183065-.601666.185-.593141-.006173-1.163265-.230425-1.601666-.629999v1.426666c.487145.245165,1.028339.363265,1.573332.343333.622628.007474,1.230668-.188573,1.731666-.558333.417971-.317801.653414-.820453.629999-1.345.017676-.379046-.116026-.749577-.371667-1.03-.342537-.356257-.754303-.638708-1.209998-.829999ZM57.641665,72.280003c.336222-.560927.505078-1.206283.486666-1.859999.007718-.561448-.119758-1.116511-.371666-1.618332-.230174-.458683-.587813-.841205-1.03-1.101666-.439248-.247118-.934348-.37792-1.438334-.379999-.555393-.006747-1.102913.131713-1.588333.401666-.468374.265196-.847231.663779-1.088333,1.144999-.285896.514817-.438847,1.092823-.445,1.681666-.0055.534509.11197,1.063126.343333,1.544999.231544.44994.583516.826723,1.016666,1.088333.431994.263393.92438.411453,1.429999.43l1.259999,1.429999h1.783334l-1.731667-1.666666c.570887-.191579,1.05521-.579628,1.366667-1.094999h.006668ZM56.211666,71.908336c-.267539.341513-.68322.533222-1.116666.515-.43717.019886-.855652-.178737-1.116666-.529999-.304654-.412464-.456643-.917913-.43-1.429999-.023613-.512232.128059-1.017214.43-1.431666.278722-.3448.701761-.540617,1.145-.53.433124-.020521.847385.178776,1.101667.53.284549.421525.425423.923644.401667,1.431666.056752.50899-.070341,1.021499-.358333,1.444999h-.056667Z" fill="#fff" stroke-width="0"/>
      </g>
      <g id="a6736b46-5abc-4b60-9819-eb5a3df3404e-2" data-name="a6736b46-5abc-4b60-9819-eb5a3df3404e">
        <path d="M69.414992,145.425548c-.266666,1.166666-1.724999,2.318333-4.361665,3.215-6.595163,1.939219-13.607749,1.949052-20.208323.028334-2.428331-.856669-3.73833-1.950001-3.94333-3.066667-.036667-.196667,0-3.276664,0-3.276664l28.559985-.266666s-.013332,3.224998-.046666,3.366664Z" fill="#5ea0ef" stroke-width="0"/>
        <ellipse cx="55.168263" cy="142.258884" rx="14.293325" ry="4.941663" transform="translate(-1.424859 .560804) rotate(-.575001)" fill="#50e6ff" stroke-width="0"/>
        <rect x="43.131672" y="120.102227" width="24.069989" height="16.046659" rx=".801666" ry=".801666" fill="url(#linear-gradient-3)" stroke-width="0"/>
        <path d="M59.999996,141.002217c-2.379998-.373333-2.473332-2.085-2.473332-4.85333h-4.726663c0,2.768332-.08,4.479997-2.459999,4.85333-.679902.073504-1.193961.649481-1.189999,1.333333h12.033328c.004325-.681568-.506077-1.256669-1.183334-1.333333Z" fill="url(#linear-gradient-4)" stroke-width="0"/>
        <path d="M60.499996,129.343889v-4.979998h-1.433332v6.081664h3.619998v-1.101666h-2.186666ZM50.000002,126.882224c-.271497-.110432-.524877-.260999-.751667-.446666-.126955-.129249-.194039-.305722-.185-.486667-.004908-.1776.081199-.345414.228333-.445.182203-.118411.398351-.173473.615-.156667.508426-.015738,1.008488.132061,1.426666.421667v-1.263333c-.457226-.164914-.940681-.245113-1.426666-.236666-.580771-.027459-1.152803.149458-1.616666.5-.398333.318387-.621665.807118-.601666,1.316666.027493.790317.52299,1.488339,1.259999,1.774999.325115.130378.629003.308441.901666.528333.146685.112788.231363.288323.228333.473333.000658.180291-.084019.350265-.228333.458333-.178337.118782-.387401.183065-.601666.185-.593141-.006173-1.163265-.230425-1.601666-.629999v1.426666c.487145.245165,1.028339.363265,1.573332.343333.622628.007474,1.230668-.188573,1.731666-.558333.417971-.317801.653414-.820453.629999-1.345.017676-.379046-.116026-.749577-.371667-1.03-.342537-.356257-.754303-.638708-1.209998-.829999ZM57.641665,129.228889c.336222-.560927.505078-1.206283.486666-1.859999.007718-.561448-.119758-1.116511-.371666-1.618332-.230174-.458683-.587813-.841205-1.03-1.101666-.439248-.247118-.934348-.37792-1.438334-.379999-.555393-.006747-1.102913.131713-1.588333.401666-.468374.265196-.847231.663779-1.088333,1.144999-.285896.514817-.438847,1.092823-.445,1.681666-.0055.534509.11197,1.063126.343333,1.544999.231544.44994.583516.826723,1.016666,1.088333.431994.263393.92438.411453,1.429999.43l1.259999,1.429999h1.783334l-1.731667-1.666666c.570887-.191579,1.05521-.579628,1.366667-1.094999h.006668ZM56.211666,128.857223c-.267539.341513-.68322.533222-1.116666.515-.43717.019886-.855652-.178737-1.116666-.529999-.304654-.412464-.456643-.917913-.43-1.429999-.023613-.512232.128059-1.017214.43-1.431666.278722-.3448.701761-.540617,1.145-.53.433124-.020521.847385.178776,1.101667.53.284549.421525.425423.923644.401667,1.431666.056752.50899-.070341,1.021499-.358333,1.444999h-.056667Z" fill="#fff" stroke-width="0"/>
      </g>
    </g>
    <g id="Text">
      <g>
        <path d="M24.108203,20.996875v6.179688h1.175781v1.613281h-1.175781v2.009766h-1.96875v-2.009766h-4.272461v-1.688477c.378418-.423828.77002-.887695,1.175781-1.390625.405762-.503906.797363-1.022461,1.175781-1.555664s.730469-1.069336,1.056152-1.609375.602539-1.056641.830566-1.548828h2.00293ZM19.801562,27.176563h2.337891v-3.424805c-.159668.296875-.33252.595703-.519531.899414-.187012.302734-.382812.601562-.587891.895508s-.412598.578125-.62207.854492c-.209473.275391-.412598.53418-.608398.775391Z" fill="#2f2f2f" stroke-width="0"/>
        <path d="M29.680957,30.970508c-2.333496,0-3.5-1.637695-3.5-4.915039,0-1.699219.31543-2.995117.946777-3.885742.631348-.891602,1.545898-1.336914,2.744629-1.336914,2.278809,0,3.417969,1.666016,3.417969,4.99707,0,1.65918-.311035,2.930664-.933105,3.814453-.62207.884766-1.51416,1.326172-2.67627,1.326172ZM29.77666,22.480273c-.934082,0-1.401367,1.173828-1.401367,3.520508,0,2.210938.458008,3.31543,1.374023,3.31543.893066,0,1.339844-1.138672,1.339844-3.417969,0-2.27832-.4375-3.417969-1.3125-3.417969Z" fill="#2f2f2f" stroke-width="0"/>
        <path d="M38.600391,27.819141h-3.739258v-1.510742h3.739258v1.510742Z" fill="#2f2f2f" stroke-width="0"/>
        <path d="M45.770312,30.54668c-.487793.283203-1.191895.423828-2.112305.423828-1.075684,0-1.945801-.325195-2.611328-.977539-.665527-.651367-.998047-1.492188-.998047-2.522461,0-1.189453.356445-2.126953,1.069824-2.8125.713379-.686523,1.666992-1.029297,2.86084-1.029297.824707,0,1.421875.109375,1.791016.328125v1.832031c-.451172-.336914-.95459-.505859-1.510742-.505859-.619629,0-1.11084.181641-1.473145.543945s-.543457.862305-.543457,1.5c0,.620117.17334,1.106445.519531,1.459961.346191.352539.822754.529297,1.428711.529297.537598,0,1.063965-.167969,1.579102-.505859v1.736328Z" fill="#2f2f2f" stroke-width="0"/>
        <path d="M50.500293,30.970508c-1.166504,0-2.083984-.327148-2.751465-.980469-.66748-.654297-1.001465-1.541992-1.001465-2.663086,0-1.157227.346191-2.063477,1.039062-2.716797.692871-.654297,1.629395-.981445,2.80957-.981445,1.162109,0,2.07373.327148,2.734375.981445.660645.65332.991211,1.518555.991211,2.59375,0,1.162109-.34082,2.081055-1.021973,2.754883-.681152.674805-1.614258,1.011719-2.799316,1.011719ZM50.55498,25.283008c-.510254,0-.906738.175781-1.189453.526367-.282715.351562-.423828.847656-.423828,1.490234,0,1.344727.54248,2.016602,1.626953,2.016602,1.034668,0,1.551758-.69043,1.551758-2.071289,0-1.307617-.521973-1.961914-1.56543-1.961914Z" fill="#2f2f2f" stroke-width="0"/>
        <path d="M60.268359,25.747852c-.259766-.140625-.562988-.211914-.90918-.211914-.469238,0-.836426.171875-1.100586.516602-.26416.34375-.396484.8125-.396484,1.404297v3.342773h-2.160156v-7h2.160156v1.298828h.027344c.341797-.947266.957031-1.421875,1.845703-1.421875.228027,0,.405762.027344.533203.082031v1.989258Z" fill="#2f2f2f" stroke-width="0"/>
        <path d="M67.64043,27.914844h-4.566406c.072754,1.016602.713379,1.524414,1.920898,1.524414.77002,0,1.446777-.181641,2.030273-.546875v1.558594c-.646973.34668-1.487793.519531-2.522461.519531-1.130371,0-2.007324-.313477-2.631836-.939453-.624512-.626953-.936523-1.500977-.936523-2.62207,0-1.162109.337402-2.082031,1.011719-2.761719.674316-.678711,1.503906-1.018555,2.488281-1.018555,1.020996,0,1.810547.303711,2.368652.90918.558105.606445.837402,1.428711.837402,2.467773v.90918ZM65.6375,26.588672c0-1.001953-.405762-1.503906-1.216797-1.503906-.346191,0-.645996.143555-.898926.430664s-.406738.645508-.461426,1.073242h2.577148Z" fill="#2f2f2f" stroke-width="0"/>
        <path d="M77.142383,30.970508c-1.403809,0-2.547363-.457031-3.431641-1.370117-.884277-.914062-1.326172-2.104492-1.326172-3.572266,0-1.548828.44873-2.802734,1.34668-3.759766s2.087402-1.435547,3.568359-1.435547c1.398926,0,2.530273.458008,3.394043,1.374023s1.29541,2.124023,1.29541,3.623047c0,1.541016-.447754,2.782227-1.343262,3.725586s-2.063477,1.415039-3.503418,1.415039ZM77.238086,22.733203c-.774902,0-1.390137.291016-1.845703.87207s-.683594,1.349609-.683594,2.306641c0,.970703.228027,1.739258.683594,2.303711.455566.56543,1.052734.847656,1.791016.847656.76123,0,1.364746-.274414,1.811523-.823242.446777-.549805.669922-1.311523.669922-2.287109,0-1.015625-.216309-1.806641-.649414-2.37207-.433105-.564453-1.025391-.847656-1.777344-.847656Z" fill="#2f2f2f" stroke-width="0"/>
        <path d="M83.099414,30.423633v-2.1875c.396484.333008.827148.582031,1.291992.749023.464844.166016.934082.249023,1.408203.249023.277832,0,.520508-.024414.728027-.075195.20752-.049805.380371-.119141.519531-.208008s.242676-.194336.311035-.314453c.068359-.121094.102539-.251953.102539-.393555,0-.191406-.054688-.362305-.164062-.512695s-.258789-.289062-.447754-.416992c-.188965-.126953-.413574-.25-.67334-.369141-.259766-.118164-.540039-.239258-.84082-.362305-.765625-.318359-1.336426-.708008-1.712402-1.168945-.375977-.459961-.563965-1.015625-.563965-1.667969,0-.509766.102539-.949219.307617-1.31543.205078-.367188.484375-.668945.837402-.90625.353027-.236328.762207-.411133,1.227051-.522461.464844-.112305.957031-.167969,1.476562-.167969.510254,0,.962891.03125,1.356934.092773s.757812.15625,1.090332.283203v2.043945c-.164062-.113281-.342773-.213867-.536621-.300781-.193848-.085938-.393066-.158203-.598145-.214844-.205078-.057617-.40918-.099609-.611816-.126953s-.395508-.041016-.577637-.041016c-.250488,0-.478516.024414-.683594.072266s-.378418.115234-.519531.201172c-.141113.086914-.250488.19043-.328125.311523-.077637.120117-.116211.255859-.116211.40625,0,.164062.043457.311523.129883.441406s.209473.25293.369141.369141.353027.229492.581055.341797c.228027.111328.485352.226562.772461.344727.39209.164062.744141.338867,1.056152.523438s.580078.392578.803223.625.394043.498047.512695.796875c.118652.297852.177734.645508.177734,1.041992,0,.546875-.103516,1.005859-.311035,1.37793-.20752.371094-.48877.671875-.844238.902344-.355469.229492-.769043.395508-1.240723.495117-.47168.100586-.969727.150391-1.493652.150391-.537598,0-1.049316-.044922-1.534668-.136719-.485352-.09082-.905762-.227539-1.26123-.410156Z" fill="#2f2f2f" stroke-width="0"/>
        <path d="M97.248828,30.799609h-5.878906v-9.802734h5.65332v1.797852h-3.445312v2.180664h3.206055v1.791016h-3.206055v2.242188h3.670898v1.791016Z" fill="#2f2f2f" stroke-width="0"/>
      </g>
      <g>
        <path d="M80.027148,83.203906v-1.353516c.154785.136719.34082.259766.557129.369141s.444336.201172.683594.276367.479492.133789.721191.174805.464844.061523.669922.061523c.706543,0,1.233887-.130859,1.58252-.393555.348633-.261719.522949-.638672.522949-1.130859,0-.264648-.058105-.495117-.174316-.69043-.116211-.196289-.276855-.375-.481934-.537109-.205078-.161133-.447754-.316406-.728027-.464844-.280273-.147461-.582031-.303711-.905762-.467773-.341797-.173828-.660645-.348633-.957031-.526367s-.553711-.374023-.772461-.587891c-.21875-.214844-.390625-.457031-.516113-.728516-.125488-.270508-.187988-.588867-.187988-.953125,0-.447266.098145-.834961.293945-1.166016.195801-.330078.453613-.602539.772461-.816406.318848-.214844.682617-.374023,1.090332-.478516.407715-.105469.82373-.157227,1.247559-.157227.966309,0,1.67041.116211,2.112305.348633v1.291992c-.578613-.401367-1.321777-.601562-2.228516-.601562-.250488,0-.501465.026367-.751953.078125-.250488.052734-.474121.137695-.669922.256836-.195801.118164-.355469.270508-.478516.458008-.123047.186523-.18457.414062-.18457.683594,0,.25.046875.466797.140137.649414.093262.181641.231445.348633.413574.499023s.404297.295898.666504.4375c.262207.140625.563965.295898.905762.464844.351074.172852.683594.355469.998047.546875s.590332.40332.827148.635742.424805.489258.563965.772461c.13916.282227.208496.605469.208496.970703,0,.482422-.094727.891602-.283691,1.226562s-.444336.607422-.765625.817383c-.321289.208984-.691406.361328-1.11084.454102-.419434.09375-.861328.140625-1.326172.140625-.154785,0-.346191-.012695-.574219-.038086-.228027-.024414-.460449-.061523-.697266-.109375s-.461426-.106445-.67334-.177734c-.211914-.070312-.381836-.149414-.509277-.235352Z" fill="#2f2f2f" stroke-width="0"/>
        <path d="M91.733691,83.764453c-1.385254,0-2.499512-.458008-3.342773-1.374023-.833984-.916016-1.250977-2.108398-1.250977-3.575195,0-1.582031.42627-2.839844,1.27832-3.773438.856934-.939453,2.016602-1.408203,3.479492-1.408203,1.349121,0,2.437988.455078,3.267578,1.367188.82959.911133,1.244141,2.102539,1.244141,3.575195,0,1.599609-.423828,2.864258-1.271484,3.793945-.200684.222656-.414551.414062-.642578.574219l2.754883,1.975586h-2.084961l-1.845703-1.380859c-.48291.150391-1.011719.225586-1.585938.225586ZM91.815723,74.672656c-1.029785,0-1.866211.371094-2.508789,1.114258-.642578.742188-.963867,1.717773-.963867,2.925781,0,1.203125.312012,2.175781.936523,2.918945.628906.733398,1.446777,1.100586,2.454102,1.100586,1.075684,0,1.92334-.351562,2.542969-1.052734.619629-.702148.929688-1.68457.929688-2.946289,0-1.298828-.300781-2.299805-.902344-3.000977-.601562-.707031-1.431152-1.05957-2.488281-1.05957Z" fill="#2f2f2f" stroke-width="0"/>
        <path d="M103.303027,83.600391h-5.085938v-9.802734h1.148438v8.763672h3.9375v1.039062Z" fill="#2f2f2f" stroke-width="0"/>
        <path d="M108.183887,83.203906v-1.353516c.154785.136719.34082.259766.557129.369141s.444336.201172.683594.276367.479492.133789.721191.174805.464844.061523.669922.061523c.706543,0,1.233887-.130859,1.58252-.393555.348633-.261719.522949-.638672.522949-1.130859,0-.264648-.058105-.495117-.174316-.69043-.116211-.196289-.276855-.375-.481934-.537109-.205078-.161133-.447754-.316406-.728027-.464844-.280273-.147461-.582031-.303711-.905762-.467773-.341797-.173828-.660645-.348633-.957031-.526367s-.553711-.374023-.772461-.587891c-.21875-.214844-.390625-.457031-.516113-.728516-.125488-.270508-.187988-.588867-.187988-.953125,0-.447266.098145-.834961.293945-1.166016.195801-.330078.453613-.602539.772461-.816406.318848-.214844.682617-.374023,1.090332-.478516.407715-.105469.82373-.157227,1.247559-.157227.966309,0,1.67041.116211,2.112305.348633v1.291992c-.578613-.401367-1.321777-.601562-2.228516-.601562-.250488,0-.501465.026367-.751953.078125-.250488.052734-.474121.137695-.669922.256836-.195801.118164-.355469.270508-.478516.458008-.123047.186523-.18457.414062-.18457.683594,0,.25.046875.466797.140137.649414.093262.181641.231445.348633.413574.499023s.404297.295898.666504.4375c.262207.140625.563965.295898.905762.464844.351074.172852.683594.355469.998047.546875s.590332.40332.827148.635742.424805.489258.563965.772461c.13916.282227.208496.605469.208496.970703,0,.482422-.094727.891602-.283691,1.226562s-.444336.607422-.765625.817383c-.321289.208984-.691406.361328-1.11084.454102-.419434.09375-.861328.140625-1.326172.140625-.154785,0-.346191-.012695-.574219-.038086-.228027-.024414-.460449-.061523-.697266-.109375s-.461426-.106445-.67334-.177734c-.211914-.070312-.381836-.149414-.509277-.235352Z" fill="#2f2f2f" stroke-width="0"/>
        <path d="M121.505664,80.380664h-4.942383c.018066.779297.228027,1.380859.628906,1.804688s.952637.635742,1.654297.635742c.788574,0,1.513184-.259766,2.173828-.779297v1.052734c-.615234.446289-1.428711.669922-2.44043.669922-.98877,0-1.766113-.318359-2.331055-.954102s-.847656-1.530273-.847656-2.682617c0-1.089844.308594-1.976562.92627-2.663086.617676-.685547,1.384277-1.02832,2.300293-1.02832s1.624512.295898,2.125977.888672c.501465.591797.751953,1.415039.751953,2.467773v.587891ZM120.357227,79.430469c-.004395-.647461-.160645-1.151367-.468262-1.510742-.307617-.360352-.734863-.540039-1.281738-.540039-.528809,0-.977539.188477-1.34668.567383-.369141.37793-.597168.87207-.683594,1.483398h3.780273Z" fill="#2f2f2f" stroke-width="0"/>
        <path d="M126.83916,77.735156c-.195801-.150391-.478516-.225586-.847656-.225586-.478516,0-.878418.225586-1.199707.676758s-.481934,1.066406-.481934,1.845703v3.568359h-1.121094v-7h1.121094v1.442383h.027344c.159668-.492188.40332-.875977.731445-1.152344.328125-.275391.694824-.413086,1.100586-.413086.291504,0,.515137.03125.669922.095703v1.162109Z" fill="#2f2f2f" stroke-width="0"/>
        <path d="M134.111621,76.600391l-2.789062,7h-1.100586l-2.652344-7h1.230469l1.777344,5.085938c.132324.373047.214355.699219.246094.977539h.027344c.04541-.351562.118652-.667969.21875-.950195l1.859375-5.113281h1.182617Z" fill="#2f2f2f" stroke-width="0"/>
        <path d="M140.753223,80.380664h-4.942383c.018066.779297.228027,1.380859.628906,1.804688s.952637.635742,1.654297.635742c.788574,0,1.513184-.259766,2.173828-.779297v1.052734c-.615234.446289-1.428711.669922-2.44043.669922-.98877,0-1.766113-.318359-2.331055-.954102s-.847656-1.530273-.847656-2.682617c0-1.089844.308594-1.976562.92627-2.663086.617676-.685547,1.384277-1.02832,2.300293-1.02832s1.624512.295898,2.125977.888672c.501465.591797.751953,1.415039.751953,2.467773v.587891ZM139.604785,79.430469c-.004395-.647461-.160645-1.151367-.468262-1.510742-.307617-.360352-.734863-.540039-1.281738-.540039-.528809,0-.977539.188477-1.34668.567383-.369141.37793-.597168.87207-.683594,1.483398h3.780273Z" fill="#2f2f2f" stroke-width="0"/>
        <path d="M146.08623,77.735156c-.195801-.150391-.478516-.225586-.847656-.225586-.478516,0-.878418.225586-1.199707.676758s-.481934,1.066406-.481934,1.845703v3.568359h-1.121094v-7h1.121094v1.442383h.027344c.159668-.492188.40332-.875977.731445-1.152344.328125-.275391.694824-.413086,1.100586-.413086.291504,0,.515137.03125.669922.095703v1.162109Z" fill="#2f2f2f" stroke-width="0"/>
        <path d="M151.712207,74.823047c-.200684,0-.371582-.068359-.512695-.205078s-.211914-.310547-.211914-.519531c0-.209961.070801-.383789.211914-.523438.141113-.138672.312012-.208008.512695-.208008.205078,0,.379395.069336.522949.208008.143555.139648.215332.313477.215332.523438,0,.200195-.071777.371094-.215332.512695-.143555.140625-.317871.211914-.522949.211914ZM152.259082,83.600391h-1.121094v-7h1.121094v7Z" fill="#2f2f2f" stroke-width="0"/>
        <path d="M160.187793,83.600391h-1.121094v-3.992188c0-1.486328-.54248-2.228516-1.626953-2.228516-.560547,0-1.024414.210938-1.391113.631836-.366699.421875-.550293.954102-.550293,1.59668v3.992188h-1.121094v-7h1.121094v1.162109h.027344c.528809-.884766,1.294434-1.326172,2.296875-1.326172.765625,0,1.351074.24707,1.756836.741211.405762.495117.608398,1.208984.608398,2.143555v4.279297Z" fill="#2f2f2f" stroke-width="0"/>
        <path d="M161.835742,83.347461v-1.203125c.61084.451172,1.282715.676758,2.016602.676758.984375,0,1.476562-.328125,1.476562-.984375,0-.1875-.041992-.345703-.126465-.475586s-.198242-.245117-.341797-.344727c-.143555-.100586-.312012-.19043-.505859-.270508-.193848-.079102-.402344-.163086-.625488-.249023-.310059-.123047-.582031-.24707-.816895-.373047-.234863-.125-.430664-.266602-.587891-.423828s-.275879-.335938-.355469-.536133c-.07959-.201172-.119629-.435547-.119629-.704102,0-.328125.075195-.619141.225586-.87207s.351074-.464844.601562-.635742.536621-.299805.85791-.385742c.321289-.086914.652832-.129883.994629-.129883.605957,0,1.148438.104492,1.626953.314453v1.134766c-.515137-.337891-1.107422-.505859-1.777344-.505859-.209473,0-.398926.023438-.567383.071289s-.313477.115234-.434082.202148c-.120605.085938-.214355.19043-.280273.310547-.065918.121094-.099121.253906-.099121.400391,0,.181641.033203.334961.099121.458008s.163086.232422.290527.328125.282715.181641.464844.259766c.182129.077148.389648.161133.62207.25293.310059.118164.587891.240234.833984.365234.246094.125977.455566.266602.628906.423828s.306641.338867.399902.543945.140137.448242.140137.731445c0,.345703-.076172.646484-.229004.902344-.152832.254883-.356445.466797-.611816.635742-.255371.167969-.549316.293945-.881836.375977s-.681152.123047-1.045898.123047c-.720215,0-1.344238-.139648-1.873047-.416992Z" fill="#2f2f2f" stroke-width="0"/>
        <path d="M171.489062,83.532031c-.26416.145508-.612793.21875-1.045898.21875-1.226074,0-1.838867-.683594-1.838867-2.050781v-4.142578h-1.203125v-.957031h1.203125v-1.708984l1.121094-.362305v2.071289h1.763672v.957031h-1.763672v3.944336c0,.46875.07959.803711.239258,1.004883.159668.200195.423828.300781.792969.300781.282715,0,.526367-.078125.731445-.232422v.957031Z" fill="#2f2f2f" stroke-width="0"/>
        <path d="M178.10625,83.600391h-1.121094v-1.09375h-.027344c-.487793.837891-1.205566,1.257812-2.15332,1.257812-.697266,0-1.243164-.18457-1.637207-.553711s-.591309-.859375-.591309-1.469727c0-1.308594.77002-2.069336,2.310547-2.283203l2.098633-.293945c0-1.189453-.480957-1.78418-1.442383-1.78418-.843262,0-1.604004.287109-2.283203.861328v-1.148438c.687988-.4375,1.480957-.65625,2.378906-.65625,1.64502,0,2.467773.870117,2.467773,2.611328v4.552734ZM176.985156,80.059375l-1.688477.232422c-.519531.072266-.911621.201172-1.175781.385742s-.396484.511719-.396484.981445c0,.341797.12207.621094.365723.836914.243652.216797.568359.325195.974121.325195.556152,0,1.015137-.195312,1.377441-.584961s.543457-.882812.543457-1.479492v-.697266Z" fill="#2f2f2f" stroke-width="0"/>
        <path d="M185.938281,83.600391h-1.121094v-3.992188c0-1.486328-.54248-2.228516-1.626953-2.228516-.560547,0-1.024414.210938-1.391113.631836-.366699.421875-.550293.954102-.550293,1.59668v3.992188h-1.121094v-7h1.121094v1.162109h.027344c.528809-.884766,1.294434-1.326172,2.296875-1.326172.765625,0,1.351074.24707,1.756836.741211.405762.495117.608398,1.208984.608398,2.143555v4.279297Z" fill="#2f2f2f" stroke-width="0"/>
        <path d="M192.786914,83.279102c-.537598.323242-1.175781.485352-1.914062.485352-.998047,0-1.803711-.325195-2.416504-.974609s-.919434-1.491211-.919434-2.525391c0-1.15332.330566-2.079102.991211-2.779297.660645-.699219,1.54248-1.048828,2.645508-1.048828.615234,0,1.157715.113281,1.626953.341797v1.148438c-.519531-.365234-1.075684-.546875-1.667969-.546875-.715332,0-1.302246.255859-1.760254.768555s-.687012,1.186523-.687012,2.020508c0,.820312.215332,1.466797.645996,1.941406.430664.473633,1.008301.710938,1.73291.710938.61084,0,1.185059-.203125,1.722656-.608398v1.066406Z" fill="#2f2f2f" stroke-width="0"/>
        <path d="M199.956836,80.380664h-4.942383c.018066.779297.228027,1.380859.628906,1.804688s.952637.635742,1.654297.635742c.788574,0,1.513184-.259766,2.173828-.779297v1.052734c-.615234.446289-1.428711.669922-2.44043.669922-.98877,0-1.766113-.318359-2.331055-.954102s-.847656-1.530273-.847656-2.682617c0-1.089844.308594-1.976562.92627-2.663086.617676-.685547,1.384277-1.02832,2.300293-1.02832s1.624512.295898,2.125977.888672c.501465.591797.751953,1.415039.751953,2.467773v.587891ZM198.808398,79.430469c-.004395-.647461-.160645-1.151367-.468262-1.510742-.307617-.360352-.734863-.540039-1.281738-.540039-.528809,0-.977539.188477-1.34668.567383-.369141.37793-.597168.87207-.683594,1.483398h3.780273Z" fill="#2f2f2f" stroke-width="0"/>
        <path d="M210.832812,83.600391h-5.195312v-9.802734h4.976562v1.039062h-3.828125v3.260742h3.541016v1.032227h-3.541016v3.431641h4.046875v1.039062Z" fill="#2f2f2f" stroke-width="0"/>
        <path d="M217.668262,83.600391h-5.194824v-9.802734h4.976074v1.039062h-3.827637v3.260742h3.540527v1.032227h-3.540527v3.431641h4.046387v1.039062Z" fill="#2f2f2f" stroke-width="0"/>
      </g>
      <g>
        <path d="M80.027148,140.403125v-1.353516c.154785.136719.34082.259766.557129.369141s.444336.202148.683594.277344.479492.132812.721191.173828.464844.061523.669922.061523c.706543,0,1.233887-.130859,1.58252-.392578.348633-.262695.522949-.639648.522949-1.131836,0-.263672-.058105-.494141-.174316-.69043-.116211-.195312-.276855-.375-.481934-.536133-.205078-.162109-.447754-.317383-.728027-.464844-.280273-.148438-.582031-.304688-.905762-.46875-.341797-.172852-.660645-.348633-.957031-.526367s-.553711-.373047-.772461-.587891c-.21875-.213867-.390625-.457031-.516113-.727539-.125488-.271484-.187988-.588867-.187988-.954102,0-.446289.098145-.834961.293945-1.165039.195801-.331055.453613-.602539.772461-.817383.318848-.213867.682617-.373047,1.090332-.478516.407715-.104492.82373-.157227,1.247559-.157227.966309,0,1.67041.116211,2.112305.348633v1.291992c-.578613-.400391-1.321777-.601562-2.228516-.601562-.250488,0-.501465.026367-.751953.079102-.250488.051758-.474121.137695-.669922.255859-.195801.119141-.355469.271484-.478516.458008-.123047.1875-.18457.415039-.18457.683594,0,.250977.046875.467773.140137.649414.093262.182617.231445.348633.413574.499023s.404297.296875.666504.4375c.262207.141602.563965.296875.905762.464844.351074.173828.683594.355469.998047.546875s.590332.40332.827148.635742.424805.490234.563965.772461c.13916.283203.208496.606445.208496.970703,0,.483398-.094727.892578-.283691,1.227539s-.444336.607422-.765625.816406c-.321289.209961-.691406.361328-1.11084.455078-.419434.092773-.861328.139648-1.326172.139648-.154785,0-.346191-.012695-.574219-.037109-.228027-.025391-.460449-.061523-.697266-.109375s-.461426-.107422-.67334-.177734c-.211914-.071289-.381836-.149414-.509277-.236328Z" fill="#2f2f2f" stroke-width="0"/>
        <path d="M91.733691,140.963672c-1.385254,0-2.499512-.458008-3.342773-1.374023-.833984-.916016-1.250977-2.107422-1.250977-3.575195,0-1.581055.42627-2.838867,1.27832-3.773438.856934-.938477,2.016602-1.408203,3.479492-1.408203,1.349121,0,2.437988.456055,3.267578,1.367188.82959.912109,1.244141,2.103516,1.244141,3.575195,0,1.599609-.423828,2.864258-1.271484,3.793945-.200684.223633-.414551.415039-.642578.574219l2.754883,1.975586h-2.084961l-1.845703-1.380859c-.48291.150391-1.011719.225586-1.585938.225586ZM91.815723,131.871875c-1.029785,0-1.866211.37207-2.508789,1.114258-.642578.743164-.963867,1.71875-.963867,2.925781,0,1.203125.312012,2.176758.936523,2.918945.628906.734375,1.446777,1.100586,2.454102,1.100586,1.075684,0,1.92334-.350586,2.542969-1.052734.619629-.701172.929688-1.683594.929688-2.946289,0-1.298828-.300781-2.298828-.902344-3.000977-.601562-.706055-1.431152-1.05957-2.488281-1.05957Z" fill="#2f2f2f" stroke-width="0"/>
        <path d="M103.303027,140.799609h-5.085938v-9.802734h1.148438v8.763672h3.9375v1.039062Z" fill="#2f2f2f" stroke-width="0"/>
        <path d="M108.183887,140.403125v-1.353516c.154785.136719.34082.259766.557129.369141s.444336.202148.683594.277344.479492.132812.721191.173828.464844.061523.669922.061523c.706543,0,1.233887-.130859,1.58252-.392578.348633-.262695.522949-.639648.522949-1.131836,0-.263672-.058105-.494141-.174316-.69043-.116211-.195312-.276855-.375-.481934-.536133-.205078-.162109-.447754-.317383-.728027-.464844-.280273-.148438-.582031-.304688-.905762-.46875-.341797-.172852-.660645-.348633-.957031-.526367s-.553711-.373047-.772461-.587891c-.21875-.213867-.390625-.457031-.516113-.727539-.125488-.271484-.187988-.588867-.187988-.954102,0-.446289.098145-.834961.293945-1.165039.195801-.331055.453613-.602539.772461-.817383.318848-.213867.682617-.373047,1.090332-.478516.407715-.104492.82373-.157227,1.247559-.157227.966309,0,1.67041.116211,2.112305.348633v1.291992c-.578613-.400391-1.321777-.601562-2.228516-.601562-.250488,0-.501465.026367-.751953.079102-.250488.051758-.474121.137695-.669922.255859-.195801.119141-.355469.271484-.478516.458008-.123047.1875-.18457.415039-.18457.683594,0,.250977.046875.467773.140137.649414.093262.182617.231445.348633.413574.499023s.404297.296875.666504.4375c.262207.141602.563965.296875.905762.464844.351074.173828.683594.355469.998047.546875s.590332.40332.827148.635742.424805.490234.563965.772461c.13916.283203.208496.606445.208496.970703,0,.483398-.094727.892578-.283691,1.227539s-.444336.607422-.765625.816406c-.321289.209961-.691406.361328-1.11084.455078-.419434.092773-.861328.139648-1.326172.139648-.154785,0-.346191-.012695-.574219-.037109-.228027-.025391-.460449-.061523-.697266-.109375s-.461426-.107422-.67334-.177734c-.211914-.071289-.381836-.149414-.509277-.236328Z" fill="#2f2f2f" stroke-width="0"/>
        <path d="M121.505664,137.579883h-4.942383c.018066.779297.228027,1.380859.628906,1.804688s.952637.635742,1.654297.635742c.788574,0,1.513184-.259766,2.173828-.779297v1.052734c-.615234.447266-1.428711.669922-2.44043.669922-.98877,0-1.766113-.317383-2.331055-.953125s-.847656-1.530273-.847656-2.683594c0-1.088867.308594-1.976562.92627-2.662109.617676-.686523,1.384277-1.029297,2.300293-1.029297s1.624512.296875,2.125977.888672c.501465.592773.751953,1.415039.751953,2.467773v.587891ZM120.357227,136.629688c-.004395-.646484-.160645-1.150391-.468262-1.510742-.307617-.359375-.734863-.540039-1.281738-.540039-.528809,0-.977539.189453-1.34668.567383-.369141.378906-.597168.873047-.683594,1.483398h3.780273Z" fill="#2f2f2f" stroke-width="0"/>
        <path d="M126.83916,134.934375c-.195801-.150391-.478516-.225586-.847656-.225586-.478516,0-.878418.225586-1.199707.676758s-.481934,1.066406-.481934,1.845703v3.568359h-1.121094v-7h1.121094v1.442383h.027344c.159668-.492188.40332-.875977.731445-1.151367.328125-.276367.694824-.414062,1.100586-.414062.291504,0,.515137.032227.669922.095703v1.162109Z" fill="#2f2f2f" stroke-width="0"/>
        <path d="M134.111621,133.799609l-2.789062,7h-1.100586l-2.652344-7h1.230469l1.777344,5.085938c.132324.374023.214355.700195.246094.977539h.027344c.04541-.350586.118652-.666992.21875-.950195l1.859375-5.113281h1.182617Z" fill="#2f2f2f" stroke-width="0"/>
        <path d="M140.753223,137.579883h-4.942383c.018066.779297.228027,1.380859.628906,1.804688s.952637.635742,1.654297.635742c.788574,0,1.513184-.259766,2.173828-.779297v1.052734c-.615234.447266-1.428711.669922-2.44043.669922-.98877,0-1.766113-.317383-2.331055-.953125s-.847656-1.530273-.847656-2.683594c0-1.088867.308594-1.976562.92627-2.662109.617676-.686523,1.384277-1.029297,2.300293-1.029297s1.624512.296875,2.125977.888672c.501465.592773.751953,1.415039.751953,2.467773v.587891ZM139.604785,136.629688c-.004395-.646484-.160645-1.150391-.468262-1.510742-.307617-.359375-.734863-.540039-1.281738-.540039-.528809,0-.977539.189453-1.34668.567383-.369141.378906-.597168.873047-.683594,1.483398h3.780273Z" fill="#2f2f2f" stroke-width="0"/>
        <path d="M146.08623,134.934375c-.195801-.150391-.478516-.225586-.847656-.225586-.478516,0-.878418.225586-1.199707.676758s-.481934,1.066406-.481934,1.845703v3.568359h-1.121094v-7h1.121094v1.442383h.027344c.159668-.492188.40332-.875977.731445-1.151367.328125-.276367.694824-.414062,1.100586-.414062.291504,0,.515137.032227.669922.095703v1.162109Z" fill="#2f2f2f" stroke-width="0"/>
        <path d="M151.712207,132.022266c-.200684,0-.371582-.068359-.512695-.205078s-.211914-.30957-.211914-.519531c0-.208984.070801-.383789.211914-.522461.141113-.139648.312012-.208984.512695-.208984.205078,0,.379395.069336.522949.208984.143555.138672.215332.313477.215332.522461,0,.201172-.071777.37207-.215332.512695-.143555.141602-.317871.211914-.522949.211914ZM152.259082,140.799609h-1.121094v-7h1.121094v7Z" fill="#2f2f2f" stroke-width="0"/>
        <path d="M160.187793,140.799609h-1.121094v-3.992188c0-1.485352-.54248-2.228516-1.626953-2.228516-.560547,0-1.024414.210938-1.391113.632812-.366699.420898-.550293.953125-.550293,1.595703v3.992188h-1.121094v-7h1.121094v1.162109h.027344c.528809-.883789,1.294434-1.326172,2.296875-1.326172.765625,0,1.351074.24707,1.756836.742188.405762.494141.608398,1.208984.608398,2.142578v4.279297Z" fill="#2f2f2f" stroke-width="0"/>
        <path d="M161.835742,140.54668v-1.203125c.61084.451172,1.282715.676758,2.016602.676758.984375,0,1.476562-.328125,1.476562-.984375,0-.186523-.041992-.344727-.126465-.474609s-.198242-.245117-.341797-.345703c-.143555-.099609-.312012-.19043-.505859-.269531-.193848-.080078-.402344-.163086-.625488-.25-.310059-.123047-.582031-.24707-.816895-.37207-.234863-.125977-.430664-.266602-.587891-.423828s-.275879-.335938-.355469-.537109c-.07959-.200195-.119629-.43457-.119629-.704102,0-.328125.075195-.618164.225586-.871094s.351074-.464844.601562-.635742.536621-.299805.85791-.386719c.321289-.085938.652832-.129883.994629-.129883.605957,0,1.148438.105469,1.626953.314453v1.134766c-.515137-.336914-1.107422-.505859-1.777344-.505859-.209473,0-.398926.024414-.567383.072266s-.313477.115234-.434082.201172c-.120605.086914-.214355.19043-.280273.311523-.065918.120117-.099121.253906-.099121.399414,0,.182617.033203.334961.099121.458008s.163086.232422.290527.328125.282715.182617.464844.259766c.182129.078125.389648.162109.62207.25293.310059.119141.587891.240234.833984.366211.246094.125.455566.266602.628906.423828s.306641.337891.399902.542969.140137.449219.140137.731445c0,.34668-.076172.647461-.229004.902344-.152832.255859-.356445.467773-.611816.635742-.255371.168945-.549316.293945-.881836.375977s-.681152.123047-1.045898.123047c-.720215,0-1.344238-.138672-1.873047-.416992Z" fill="#2f2f2f" stroke-width="0"/>
        <path d="M171.489062,140.73125c-.26416.146484-.612793.21875-1.045898.21875-1.226074,0-1.838867-.683594-1.838867-2.050781v-4.142578h-1.203125v-.957031h1.203125v-1.708984l1.121094-.362305v2.071289h1.763672v.957031h-1.763672v3.944336c0,.469727.07959.804688.239258,1.004883.159668.201172.423828.300781.792969.300781.282715,0,.526367-.077148.731445-.232422v.957031Z" fill="#2f2f2f" stroke-width="0"/>
        <path d="M178.10625,140.799609h-1.121094v-1.09375h-.027344c-.487793.838867-1.205566,1.257812-2.15332,1.257812-.697266,0-1.243164-.18457-1.637207-.553711s-.591309-.858398-.591309-1.469727c0-1.307617.77002-2.068359,2.310547-2.283203l2.098633-.293945c0-1.189453-.480957-1.78418-1.442383-1.78418-.843262,0-1.604004.287109-2.283203.861328v-1.148438c.687988-.4375,1.480957-.65625,2.378906-.65625,1.64502,0,2.467773.871094,2.467773,2.611328v4.552734ZM176.985156,137.258594l-1.688477.232422c-.519531.073242-.911621.202148-1.175781.386719s-.396484.511719-.396484.980469c0,.341797.12207.621094.365723.837891.243652.21582.568359.324219.974121.324219.556152,0,1.015137-.194336,1.377441-.583984s.543457-.882812.543457-1.480469v-.697266Z" fill="#2f2f2f" stroke-width="0"/>
        <path d="M185.938281,140.799609h-1.121094v-3.992188c0-1.485352-.54248-2.228516-1.626953-2.228516-.560547,0-1.024414.210938-1.391113.632812-.366699.420898-.550293.953125-.550293,1.595703v3.992188h-1.121094v-7h1.121094v1.162109h.027344c.528809-.883789,1.294434-1.326172,2.296875-1.326172.765625,0,1.351074.24707,1.756836.742188.405762.494141.608398,1.208984.608398,2.142578v4.279297Z" fill="#2f2f2f" stroke-width="0"/>
        <path d="M192.786914,140.47832c-.537598.324219-1.175781.485352-1.914062.485352-.998047,0-1.803711-.324219-2.416504-.973633s-.919434-1.491211-.919434-2.526367c0-1.152344.330566-2.079102.991211-2.77832.660645-.700195,1.54248-1.049805,2.645508-1.049805.615234,0,1.157715.114258,1.626953.341797v1.148438c-.519531-.364258-1.075684-.546875-1.667969-.546875-.715332,0-1.302246.256836-1.760254.769531s-.687012,1.185547-.687012,2.019531c0,.820312.215332,1.467773.645996,1.941406.430664.474609,1.008301.710938,1.73291.710938.61084,0,1.185059-.202148,1.722656-.608398v1.066406Z" fill="#2f2f2f" stroke-width="0"/>
        <path d="M199.956836,137.579883h-4.942383c.018066.779297.228027,1.380859.628906,1.804688s.952637.635742,1.654297.635742c.788574,0,1.513184-.259766,2.173828-.779297v1.052734c-.615234.447266-1.428711.669922-2.44043.669922-.98877,0-1.766113-.317383-2.331055-.953125s-.847656-1.530273-.847656-2.683594c0-1.088867.308594-1.976562.92627-2.662109.617676-.686523,1.384277-1.029297,2.300293-1.029297s1.624512.296875,2.125977.888672c.501465.592773.751953,1.415039.751953,2.467773v.587891ZM198.808398,136.629688c-.004395-.646484-.160645-1.150391-.468262-1.510742-.307617-.359375-.734863-.540039-1.281738-.540039-.528809,0-.977539.189453-1.34668.567383-.369141.378906-.597168.873047-.683594,1.483398h3.780273Z" fill="#2f2f2f" stroke-width="0"/>
        <path d="M205.179492,140.403125v-1.353516c.154785.136719.34082.259766.557129.369141s.444336.202148.683594.277344.479492.132812.721191.173828.464844.061523.669922.061523c.706543,0,1.233887-.130859,1.58252-.392578.348633-.262695.522949-.639648.522949-1.131836,0-.263672-.058105-.494141-.174316-.69043-.116211-.195312-.276855-.375-.481934-.536133-.205078-.162109-.447754-.317383-.728027-.464844-.280273-.148438-.582031-.304688-.905762-.46875-.341797-.172852-.660645-.348633-.957031-.526367s-.553711-.373047-.772461-.587891c-.21875-.213867-.390625-.457031-.516113-.727539-.125488-.271484-.187988-.588867-.187988-.954102,0-.446289.098145-.834961.293945-1.165039.195801-.331055.453613-.602539.772461-.817383.318848-.213867.682617-.373047,1.090332-.478516.407715-.104492.82373-.157227,1.247559-.157227.966309,0,1.67041.116211,2.112305.348633v1.291992c-.578613-.400391-1.321777-.601562-2.228516-.601562-.250488,0-.501465.026367-.751953.079102-.250488.051758-.474121.137695-.669922.255859-.195801.119141-.355469.271484-.478516.458008-.123047.1875-.18457.415039-.18457.683594,0,.250977.046875.467773.140137.649414.093262.182617.231445.348633.413574.499023s.404297.296875.666504.4375c.262207.141602.563965.296875.905762.464844.351074.173828.683594.355469.998047.546875s.590332.40332.827148.635742.424805.490234.563965.772461c.13916.283203.208496.606445.208496.970703,0,.483398-.094727.892578-.283691,1.227539s-.444336.607422-.765625.816406c-.321289.209961-.691406.361328-1.11084.455078-.419434.092773-.861328.139648-1.326172.139648-.154785,0-.346191-.012695-.574219-.037109-.228027-.025391-.460449-.061523-.697266-.109375s-.461426-.107422-.67334-.177734c-.211914-.071289-.381836-.149414-.509277-.236328Z" fill="#2f2f2f" stroke-width="0"/>
        <path d="M218.06084,140.799609h-5.195801v-9.802734h4.977051v1.039062h-3.828613v3.260742h3.541504v1.032227h-3.541504v3.431641h4.047363v1.039062Z" fill="#2f2f2f" stroke-width="0"/>
      </g>
      <g>
        <path d="M313.487598,49.962695h-5.085938v-9.802734h1.148438v8.763672h3.9375v1.039062Z" fill="#2f2f2f" stroke-width="0"/>
        <path d="M315.37041,41.185352c-.200684,0-.371582-.068359-.512695-.205078s-.211914-.30957-.211914-.519531c0-.208984.070801-.383789.211914-.522461.141113-.139648.312012-.208984.512695-.208984.205078,0,.379395.069336.522949.208984.143555.138672.215332.313477.215332.522461,0,.201172-.071777.37207-.215332.512695-.143555.141602-.317871.211914-.522949.211914ZM315.917285,49.962695h-1.121094v-7h1.121094v7Z" fill="#2f2f2f" stroke-width="0"/>
        <path d="M322.829395,49.641406c-.537598.324219-1.175781.485352-1.914062.485352-.998047,0-1.803711-.324219-2.416504-.973633s-.919434-1.491211-.919434-2.526367c0-1.152344.330566-2.079102.991211-2.77832.660645-.700195,1.54248-1.049805,2.645508-1.049805.615234,0,1.157715.114258,1.626953.341797v1.148438c-.519531-.364258-1.075684-.546875-1.667969-.546875-.715332,0-1.302246.256836-1.760254.769531s-.687012,1.185547-.687012,2.019531c0,.820312.215332,1.467773.645996,1.941406.430664.474609,1.008301.710938,1.73291.710938.61084,0,1.185059-.202148,1.722656-.608398v1.066406Z" fill="#2f2f2f" stroke-width="0"/>
        <path d="M329.999805,46.742969h-4.942383c.018066.779297.228027,1.380859.628906,1.804688s.952637.635742,1.654297.635742c.788574,0,1.513184-.259766,2.173828-.779297v1.052734c-.615234.447266-1.428711.669922-2.44043.669922-.98877,0-1.766113-.317383-2.331055-.953125s-.847656-1.530273-.847656-2.683594c0-1.088867.308594-1.976562.92627-2.662109.617676-.686523,1.384277-1.029297,2.300293-1.029297s1.624512.296875,2.125977.888672c.501465.592773.751953,1.415039.751953,2.467773v.587891ZM328.851367,45.792773c-.004395-.646484-.160645-1.150391-.468262-1.510742-.307617-.359375-.734863-.540039-1.281738-.540039-.528809,0-.977539.189453-1.34668.567383-.369141.378906-.597168.873047-.683594,1.483398h3.780273Z" fill="#2f2f2f" stroke-width="0"/>
        <path d="M337.492969,49.962695h-1.121094v-3.992188c0-1.485352-.54248-2.228516-1.626953-2.228516-.560547,0-1.024414.210938-1.391113.632812-.366699.420898-.550293.953125-.550293,1.595703v3.992188h-1.121094v-7h1.121094v1.162109h.027344c.528809-.883789,1.294434-1.326172,2.296875-1.326172.765625,0,1.351074.24707,1.756836.742188.405762.494141.608398,1.208984.608398,2.142578v4.279297Z" fill="#2f2f2f" stroke-width="0"/>
        <path d="M339.140918,49.709766v-1.203125c.61084.451172,1.282715.676758,2.016602.676758.984375,0,1.476562-.328125,1.476562-.984375,0-.186523-.041992-.344727-.126465-.474609s-.198242-.245117-.341797-.345703c-.143555-.099609-.312012-.19043-.505859-.269531-.193848-.080078-.402344-.163086-.625488-.25-.310059-.123047-.582031-.24707-.816895-.37207-.234863-.125977-.430664-.266602-.587891-.423828s-.275879-.335938-.355469-.537109c-.07959-.200195-.119629-.43457-.119629-.704102,0-.328125.075195-.618164.225586-.871094s.351074-.464844.601562-.635742.536621-.299805.85791-.386719c.321289-.085938.652832-.129883.994629-.129883.605957,0,1.148438.105469,1.626953.314453v1.134766c-.515137-.336914-1.107422-.505859-1.777344-.505859-.209473,0-.398926.024414-.567383.072266s-.313477.115234-.434082.201172c-.120605.086914-.214355.19043-.280273.311523-.065918.120117-.099121.253906-.099121.399414,0,.182617.033203.334961.099121.458008s.163086.232422.290527.328125.282715.182617.464844.259766c.182129.078125.389648.162109.62207.25293.310059.119141.587891.240234.833984.366211.246094.125.455566.266602.628906.423828s.306641.337891.399902.542969.140137.449219.140137.731445c0,.34668-.076172.647461-.229004.902344-.152832.255859-.356445.467773-.611816.635742-.255371.168945-.549316.293945-.881836.375977s-.681152.123047-1.045898.123047c-.720215,0-1.344238-.138672-1.873047-.416992Z" fill="#2f2f2f" stroke-width="0"/>
        <path d="M345.932422,41.185352c-.200684,0-.371582-.068359-.512695-.205078s-.211914-.30957-.211914-.519531c0-.208984.070801-.383789.211914-.522461.141113-.139648.312012-.208984.512695-.208984.205078,0,.379395.069336.522949.208984.143555.138672.215332.313477.215332.522461,0,.201172-.071777.37207-.215332.512695-.143555.141602-.317871.211914-.522949.211914ZM346.479297,49.962695h-1.121094v-7h1.121094v7Z" fill="#2f2f2f" stroke-width="0"/>
        <path d="M354.412402,49.962695h-1.121094v-3.992188c0-1.485352-.54248-2.228516-1.626953-2.228516-.560547,0-1.024414.210938-1.391113.632812-.366699.420898-.550293.953125-.550293,1.595703v3.992188h-1.121094v-7h1.121094v1.162109h.027344c.528809-.883789,1.294434-1.326172,2.296875-1.326172.765625,0,1.351074.24707,1.756836.742188.405762.494141.608398,1.208984.608398,2.142578v4.279297Z" fill="#2f2f2f" stroke-width="0"/>
        <path d="M362.486621,49.402148c0,2.570312-1.230469,3.855469-3.691406,3.855469-.865723,0-1.622559-.164062-2.269531-.492188v-1.121094c.788574.4375,1.540527.65625,2.255859.65625,1.722656,0,2.583984-.916016,2.583984-2.748047v-.765625h-.027344c-.533203.893555-1.335449,1.339844-2.40625,1.339844-.870605,0-1.571289-.310547-2.102051-.932617s-.796387-1.457031-.796387-2.505859c0-1.189453.286133-2.134766.85791-2.836914.571777-.701172,1.354492-1.052734,2.348145-1.052734.943359,0,1.643066.378906,2.098633,1.134766h.027344v-.970703h1.121094v6.439453ZM361.365527,46.797656v-1.032227c0-.555664-.187988-1.032227-.563965-1.428711s-.844238-.594727-1.404785-.594727c-.692871,0-1.234863.251953-1.626953.755859-.39209.50293-.587891,1.208984-.587891,2.115234,0,.779297.187988,1.402344.563965,1.870117.375977.466797.874023.700195,1.493652.700195.628906,0,1.140625-.222656,1.534668-.669922.394043-.446289.591309-1.018555.591309-1.71582Z" fill="#2f2f2f" stroke-width="0"/>
        <path d="M371.838184,49.894336c-.26416.146484-.612793.21875-1.045898.21875-1.226074,0-1.838867-.683594-1.838867-2.050781v-4.142578h-1.203125v-.957031h1.203125v-1.708984l1.121094-.362305v2.071289h1.763672v.957031h-1.763672v3.944336c0,.469727.07959.804688.239258,1.004883.159668.201172.423828.300781.792969.300781.282715,0,.526367-.077148.731445-.232422v.957031Z" fill="#2f2f2f" stroke-width="0"/>
        <path d="M379.02959,49.962695h-1.121094v-4.033203c0-1.458008-.54248-2.1875-1.626953-2.1875-.546875,0-1.007324.210938-1.380859.632812-.373535.420898-.560547.962891-.560547,1.623047v3.964844h-1.121094v-10.363281h1.121094v4.525391h.027344c.537598-.883789,1.303223-1.326172,2.296875-1.326172,1.57666,0,2.365234.950195,2.365234,2.850586v4.313477Z" fill="#2f2f2f" stroke-width="0"/>
        <path d="M386.732715,46.742969h-4.942383c.018555.779297.227539,1.380859.628906,1.804688s.952148.635742,1.654297.635742c.788086,0,1.512695-.259766,2.173828-.779297v1.052734c-.615234.447266-1.428711.669922-2.44043.669922-.989258,0-1.765625-.317383-2.331055-.953125s-.847656-1.530273-.847656-2.683594c0-1.088867.308594-1.976562.925781-2.662109.618164-.686523,1.384766-1.029297,2.300781-1.029297s1.625.296875,2.125977.888672c.500977.592773.751953,1.415039.751953,2.467773v.587891ZM385.584277,45.792773c-.004883-.646484-.161133-1.150391-.467773-1.510742-.308594-.359375-.735352-.540039-1.282227-.540039-.52832,0-.977539.189453-1.34668.567383-.369141.378906-.59668.873047-.683594,1.483398h3.780273Z" fill="#2f2f2f" stroke-width="0"/>
        <path d="M397.888965,46.742969h-4.942383c.018555.779297.227539,1.380859.628906,1.804688s.952148.635742,1.654297.635742c.788086,0,1.512695-.259766,2.173828-.779297v1.052734c-.615234.447266-1.428711.669922-2.44043.669922-.989258,0-1.765625-.317383-2.331055-.953125s-.847656-1.530273-.847656-2.683594c0-1.088867.308594-1.976562.925781-2.662109.618164-.686523,1.384766-1.029297,2.300781-1.029297s1.625.296875,2.125977.888672c.500977.592773.751953,1.415039.751953,2.467773v.587891ZM396.740527,45.792773c-.004883-.646484-.161133-1.150391-.467773-1.510742-.308594-.359375-.735352-.540039-1.282227-.540039-.52832,0-.977539.189453-1.34668.567383-.369141.378906-.59668.873047-.683594,1.483398h3.780273Z" fill="#2f2f2f" stroke-width="0"/>
        <path d="M405.382129,49.962695h-1.121094v-3.992188c0-1.485352-.541992-2.228516-1.626953-2.228516-.560547,0-1.024414.210938-1.390625.632812-.367188.420898-.550781.953125-.550781,1.595703v3.992188h-1.121094v-7h1.121094v1.162109h.027344c.52832-.883789,1.293945-1.326172,2.296875-1.326172.765625,0,1.351562.24707,1.756836.742188.405273.494141.608398,1.208984.608398,2.142578v4.279297Z" fill="#2f2f2f" stroke-width="0"/>
        <path d="M410.611621,49.894336c-.264648.146484-.613281.21875-1.045898.21875-1.225586,0-1.838867-.683594-1.838867-2.050781v-4.142578h-1.203125v-.957031h1.203125v-1.708984l1.121094-.362305v2.071289h1.763672v.957031h-1.763672v3.944336c0,.469727.080078.804688.239258,1.004883.15918.201172.423828.300781.792969.300781.282227,0,.526367-.077148.731445-.232422v.957031Z" fill="#2f2f2f" stroke-width="0"/>
        <path d="M412.566699,41.185352c-.200195,0-.371094-.068359-.512695-.205078s-.211914-.30957-.211914-.519531c0-.208984.070312-.383789.211914-.522461.141602-.139648.3125-.208984.512695-.208984.205078,0,.378906.069336.523438.208984.142578.138672.214844.313477.214844.522461,0,.201172-.072266.37207-.214844.512695-.144531.141602-.318359.211914-.523438.211914ZM413.113574,49.962695h-1.121094v-7h1.121094v7Z" fill="#2f2f2f" stroke-width="0"/>
        <path d="M418.882129,44.097461c-.196289-.150391-.478516-.225586-.847656-.225586-.478516,0-.878906.225586-1.199219.676758-.322266.451172-.482422,1.066406-.482422,1.845703v3.568359h-1.121094v-7h1.121094v1.442383h.027344c.15918-.492188.40332-.875977.731445-1.151367.328125-.276367.695312-.414062,1.100586-.414062.291992,0,.514648.032227.669922.095703v1.162109Z" fill="#2f2f2f" stroke-width="0"/>
        <path d="M425.724902,46.742969h-4.942383c.018555.779297.227539,1.380859.628906,1.804688s.952148.635742,1.654297.635742c.788086,0,1.512695-.259766,2.173828-.779297v1.052734c-.615234.447266-1.428711.669922-2.44043.669922-.989258,0-1.765625-.317383-2.331055-.953125s-.847656-1.530273-.847656-2.683594c0-1.088867.308594-1.976562.925781-2.662109.618164-.686523,1.384766-1.029297,2.300781-1.029297s1.625.296875,2.125977.888672c.500977.592773.751953,1.415039.751953,2.467773v.587891ZM424.576465,45.792773c-.004883-.646484-.161133-1.150391-.467773-1.510742-.308594-.359375-.735352-.540039-1.282227-.540039-.52832,0-.977539.189453-1.34668.567383-.369141.378906-.59668.873047-.683594,1.483398h3.780273Z" fill="#2f2f2f" stroke-width="0"/>
        <path d="M437.065723,49.962695h-1.121094v-4.033203c0-1.458008-.541992-2.1875-1.626953-2.1875-.546875,0-1.006836.210938-1.380859.632812-.374023.420898-.560547.962891-.560547,1.623047v3.964844h-1.121094v-10.363281h1.121094v4.525391h.027344c.538086-.883789,1.303711-1.326172,2.296875-1.326172,1.577148,0,2.365234.950195,2.365234,2.850586v4.313477Z" fill="#2f2f2f" stroke-width="0"/>
        <path d="M442.068652,50.126758c-1.03418,0-1.860352-.327148-2.478516-.980469-.617188-.654297-.925781-1.521484-.925781-2.601562,0-1.175781.321289-2.09375.963867-2.754883.642578-.660156,1.510742-.991211,2.604492-.991211,1.043945,0,1.858398.321289,2.443359.963867.585938.642578.878906,1.53418.878906,2.672852,0,1.117188-.31543,2.010742-.947266,2.683594-.630859.671875-1.477539,1.007812-2.539062,1.007812ZM442.150684,43.741992c-.719727,0-1.290039.245117-1.708984.735352-.418945.489258-.628906,1.165039-.628906,2.026367,0,.830078.211914,1.483398.635742,1.961914s.991211.717773,1.702148.717773c.724609,0,1.28125-.234375,1.671875-.704102.388672-.46875.583984-1.136719.583984-2.00293,0-.875-.195312-1.548828-.583984-2.023438-.390625-.473633-.947266-.710938-1.671875-.710938Z" fill="#2f2f2f" stroke-width="0"/>
        <path d="M446.820605,49.709766v-1.203125c.610352.451172,1.283203.676758,2.016602.676758.984375,0,1.476562-.328125,1.476562-.984375,0-.186523-.041992-.344727-.125977-.474609-.084961-.129883-.199219-.245117-.341797-.345703-.144531-.099609-.3125-.19043-.505859-.269531-.194336-.080078-.402344-.163086-.625977-.25-.30957-.123047-.582031-.24707-.817383-.37207-.234375-.125977-.429688-.266602-.587891-.423828-.15625-.157227-.275391-.335938-.355469-.537109-.079102-.200195-.119141-.43457-.119141-.704102,0-.328125.075195-.618164.225586-.871094s.350586-.464844.601562-.635742.536133-.299805.858398-.386719c.320312-.085938.652344-.129883.994141-.129883.606445,0,1.148438.105469,1.626953.314453v1.134766c-.514648-.336914-1.107422-.505859-1.777344-.505859-.209961,0-.398438.024414-.567383.072266s-.313477.115234-.43457.201172c-.120117.086914-.213867.19043-.279297.311523-.066406.120117-.099609.253906-.099609.399414,0,.182617.033203.334961.099609.458008.06543.123047.162109.232422.290039.328125s.282227.182617.464844.259766c.182617.078125.389648.162109.62207.25293.30957.119141.587891.240234.833984.366211.246094.125.456055.266602.628906.423828s.306641.337891.400391.542969c.092773.205078.139648.449219.139648.731445,0,.34668-.076172.647461-.229492.902344-.152344.255859-.356445.467773-.611328.635742-.254883.168945-.548828.293945-.881836.375977s-.681641.123047-1.045898.123047c-.719727,0-1.344727-.138672-1.873047-.416992Z" fill="#2f2f2f" stroke-width="0"/>
        <path d="M456.473926,49.894336c-.264648.146484-.613281.21875-1.045898.21875-1.225586,0-1.838867-.683594-1.838867-2.050781v-4.142578h-1.203125v-.957031h1.203125v-1.708984l1.121094-.362305v2.071289h1.763672v.957031h-1.763672v3.944336c0,.469727.080078.804688.239258,1.004883.15918.201172.423828.300781.792969.300781.282227,0,.526367-.077148.731445-.232422v.957031Z" fill="#2f2f2f" stroke-width="0"/>
        <path d="M325.02959,59.7625l-2.098633,7h-1.162109l-1.442383-5.010742c-.054688-.191406-.091309-.407227-.109375-.649414h-.027344c-.013672.164062-.061523.375977-.143555.635742l-1.56543,5.024414h-1.121094l-2.119141-7h1.175781l1.449219,5.263672c.04541.160156.077637.369141.095703.628906h.054688c.013672-.200195.054688-.414062.123047-.642578l1.613281-5.25h1.025391l1.449219,5.277344c.04541.168945.07959.378906.102539.628906h.054688c.009277-.177734.047852-.386719.116211-.628906l1.421875-5.277344h1.107422Z" fill="#2f2f2f" stroke-width="0"/>
        <path d="M326.887012,57.985156c-.200684,0-.371582-.068359-.512695-.205078s-.211914-.30957-.211914-.519531c0-.208984.070801-.383789.211914-.522461.141113-.139648.312012-.208984.512695-.208984.205078,0,.379395.069336.522949.208984.143555.138672.215332.313477.215332.522461,0,.201172-.071777.37207-.215332.512695-.143555.141602-.317871.211914-.522949.211914ZM327.433887,66.7625h-1.121094v-7h1.121094v7Z" fill="#2f2f2f" stroke-width="0"/>
        <path d="M332.882129,66.694141c-.26416.146484-.612793.21875-1.045898.21875-1.226074,0-1.838867-.683594-1.838867-2.050781v-4.142578h-1.203125v-.957031h1.203125v-1.708984l1.121094-.362305v2.071289h1.763672v.957031h-1.763672v3.944336c0,.469727.07959.804688.239258,1.004883.159668.201172.423828.300781.792969.300781.282715,0,.526367-.077148.731445-.232422v.957031Z" fill="#2f2f2f" stroke-width="0"/>
        <path d="M340.073535,66.7625h-1.121094v-4.033203c0-1.458008-.54248-2.1875-1.626953-2.1875-.546875,0-1.007324.210938-1.380859.632812-.373535.420898-.560547.962891-.560547,1.623047v3.964844h-1.121094v-10.363281h1.121094v4.525391h.027344c.537598-.883789,1.303223-1.326172,2.296875-1.326172,1.57666,0,2.365234.950195,2.365234,2.850586v4.313477Z" fill="#2f2f2f" stroke-width="0"/>
        <path d="M345.076465,66.926563c-1.034668,0-1.860352-.327148-2.478027-.980469-.617676-.654297-.92627-1.521484-.92627-2.601562,0-1.175781.321289-2.09375.963867-2.754883.642578-.660156,1.510742-.991211,2.604492-.991211,1.043457,0,1.858398.321289,2.443848.963867s.878418,1.53418.878418,2.672852c0,1.117188-.31543,2.010742-.946777,2.683594-.631348.671875-1.477539,1.007812-2.539551,1.007812ZM345.158496,60.541797c-.720215,0-1.289551.245117-1.708984.735352-.419434.489258-.628906,1.165039-.628906,2.026367,0,.830078.211914,1.483398.635742,1.961914s.991211.717773,1.702148.717773c.724609,0,1.281738-.234375,1.671387-.704102.389648-.46875.584473-1.136719.584473-2.00293,0-.875-.194824-1.548828-.584473-2.023438-.389648-.473633-.946777-.710938-1.671387-.710938Z" fill="#2f2f2f" stroke-width="0"/>
        <path d="M355.971973,66.7625h-1.121094v-1.107422h-.027344c-.464844.847656-1.185059,1.271484-2.160156,1.271484-1.667969,0-2.501953-.993164-2.501953-2.980469v-4.183594h1.114258v4.005859c0,1.476562.564941,2.214844,1.695312,2.214844.546875,0,.99707-.201172,1.350098-.604492s.529785-.930664.529785-1.583008v-4.033203h1.121094v7Z" fill="#2f2f2f" stroke-width="0"/>
        <path d="M361.414844,66.694141c-.26416.146484-.612793.21875-1.045898.21875-1.226074,0-1.838867-.683594-1.838867-2.050781v-4.142578h-1.203125v-.957031h1.203125v-1.708984l1.121094-.362305v2.071289h1.763672v.957031h-1.763672v3.944336c0,.469727.07959.804688.239258,1.004883.159668.201172.423828.300781.792969.300781.282715,0,.526367-.077148.731445-.232422v.957031Z" fill="#2f2f2f" stroke-width="0"/>
        <path d="M374.184375,56.959766l-3.629883,9.802734h-1.264648l-3.554688-9.802734h1.27832l2.713867,7.772461c.086426.250977.152832.540039.198242.868164h.027344c.036621-.273438.111816-.567383.225586-.881836l2.768555-7.758789h1.237305Z" fill="#2f2f2f" stroke-width="0"/>
        <path d="M385.511035,66.7625h-1.141602v-6.576172c0-.519531.032227-1.155273.095703-1.907227h-.027344c-.109375.442383-.207031.758789-.293945.950195l-3.349609,7.533203h-.560547l-3.342773-7.478516c-.095703-.21875-.193848-.553711-.293945-1.004883h-.027344c.036621.392578.054688,1.032227.054688,1.920898v6.5625h-1.107422v-9.802734h1.517578l3.007812,6.835938c.232422.524414.382812.916016.451172,1.175781h.041016c.196289-.537109.353516-.938477.47168-1.203125l3.069336-6.808594h1.435547v9.802734Z" fill="#2f2f2f" stroke-width="0"/>
        <path d="M387.43291,66.50957v-1.203125c.610352.451172,1.283203.676758,2.016602.676758.984375,0,1.476562-.328125,1.476562-.984375,0-.186523-.041992-.344727-.125977-.474609-.084961-.129883-.199219-.245117-.341797-.345703-.144531-.099609-.3125-.19043-.505859-.269531-.194336-.080078-.402344-.163086-.625977-.25-.30957-.123047-.582031-.24707-.817383-.37207-.234375-.125977-.429688-.266602-.587891-.423828-.15625-.157227-.275391-.335938-.355469-.537109-.079102-.200195-.119141-.43457-.119141-.704102,0-.328125.075195-.618164.225586-.871094s.350586-.464844.601562-.635742.536133-.299805.858398-.386719c.320312-.085938.652344-.129883.994141-.129883.606445,0,1.148438.105469,1.626953.314453v1.134766c-.514648-.336914-1.107422-.505859-1.777344-.505859-.209961,0-.398438.024414-.567383.072266s-.313477.115234-.43457.201172c-.120117.086914-.213867.19043-.279297.311523-.066406.120117-.099609.253906-.099609.399414,0,.182617.033203.334961.099609.458008.06543.123047.162109.232422.290039.328125s.282227.182617.464844.259766c.182617.078125.389648.162109.62207.25293.30957.119141.587891.240234.833984.366211.246094.125.456055.266602.628906.423828s.306641.337891.400391.542969c.092773.205078.139648.449219.139648.731445,0,.34668-.076172.647461-.229492.902344-.152344.255859-.356445.467773-.611328.635742-.254883.168945-.548828.293945-.881836.375977s-.681641.123047-1.045898.123047c-.719727,0-1.344727-.138672-1.873047-.416992Z" fill="#2f2f2f" stroke-width="0"/>
        <path d="M401.28252,60.897266c-.196289-.150391-.478516-.225586-.847656-.225586-.478516,0-.878906.225586-1.199219.676758-.322266.451172-.482422,1.066406-.482422,1.845703v3.568359h-1.121094v-7h1.121094v1.442383h.027344c.15918-.492188.40332-.875977.731445-1.151367.328125-.276367.695312-.414062,1.100586-.414062.291992,0,.514648.032227.669922.095703v1.162109Z" fill="#2f2f2f" stroke-width="0"/>
        <path d="M408.125293,63.542773h-4.942383c.018555.779297.227539,1.380859.628906,1.804688s.952148.635742,1.654297.635742c.788086,0,1.512695-.259766,2.173828-.779297v1.052734c-.615234.447266-1.428711.669922-2.44043.669922-.989258,0-1.765625-.317383-2.331055-.953125s-.847656-1.530273-.847656-2.683594c0-1.088867.308594-1.976562.925781-2.662109.618164-.686523,1.384766-1.029297,2.300781-1.029297s1.625.296875,2.125977.888672c.500977.592773.751953,1.415039.751953,2.467773v.587891ZM406.976855,62.592578c-.004883-.646484-.161133-1.150391-.467773-1.510742-.308594-.359375-.735352-.540039-1.282227-.540039-.52832,0-.977539.189453-1.34668.567383-.369141.378906-.59668.873047-.683594,1.483398h3.780273Z" fill="#2f2f2f" stroke-width="0"/>
        <path d="M415.825488,69.982227h-1.121094v-4.422852h-.027344c-.487305.912109-1.285156,1.367188-2.392578,1.367188-.879883,0-1.584961-.313477-2.115234-.939453-.53125-.626953-.796875-1.480469-.796875-2.560547,0-1.162109.291992-2.09082.875-2.785156.583008-.695312,1.367188-1.042969,2.351562-1.042969.957031,0,1.649414.378906,2.078125,1.134766h.027344v-.970703h1.121094v10.219727ZM414.704395,63.611133v-1.018555c0-.574219-.1875-1.05957-.564453-1.456055-.375-.396484-.852539-.594727-1.431641-.594727-.674805,0-1.208008.25-1.599609.749023s-.587891,1.202148-.587891,2.108398c0,.806641.189453,1.439453.567383,1.897461s.866211.686523,1.462891.686523c.65625,0,1.178711-.224609,1.569336-.672852.388672-.449219.583984-1.015625.583984-1.699219Z" fill="#2f2f2f" stroke-width="0"/>
        <path d="M423.653613,66.7625h-1.121094v-1.107422h-.027344c-.464844.847656-1.18457,1.271484-2.160156,1.271484-1.667969,0-2.501953-.993164-2.501953-2.980469v-4.183594h1.114258v4.005859c0,1.476562.56543,2.214844,1.695312,2.214844.546875,0,.99707-.201172,1.350586-.604492.352539-.40332.529297-.930664.529297-1.583008v-4.033203h1.121094v7Z" fill="#2f2f2f" stroke-width="0"/>
        <path d="M426.34209,57.985156c-.200195,0-.371094-.068359-.512695-.205078s-.211914-.30957-.211914-.519531c0-.208984.070312-.383789.211914-.522461.141602-.139648.3125-.208984.512695-.208984.205078,0,.378906.069336.523438.208984.142578.138672.214844.313477.214844.522461,0,.201172-.072266.37207-.214844.512695-.144531.141602-.318359.211914-.523438.211914ZM426.888965,66.7625h-1.121094v-7h1.121094v7Z" fill="#2f2f2f" stroke-width="0"/>
        <path d="M432.660449,60.897266c-.196289-.150391-.478516-.225586-.847656-.225586-.478516,0-.878906.225586-1.199219.676758-.322266.451172-.482422,1.066406-.482422,1.845703v3.568359h-1.121094v-7h1.121094v1.442383h.027344c.15918-.492188.40332-.875977.731445-1.151367.328125-.276367.695312-.414062,1.100586-.414062.291992,0,.514648.032227.669922.095703v1.162109Z" fill="#2f2f2f" stroke-width="0"/>
        <path d="M439.503223,63.542773h-4.942383c.018555.779297.227539,1.380859.628906,1.804688s.952148.635742,1.654297.635742c.788086,0,1.512695-.259766,2.173828-.779297v1.052734c-.615234.447266-1.428711.669922-2.44043.669922-.989258,0-1.765625-.317383-2.331055-.953125s-.847656-1.530273-.847656-2.683594c0-1.088867.308594-1.976562.925781-2.662109.618164-.686523,1.384766-1.029297,2.300781-1.029297s1.625.296875,2.125977.888672c.500977.592773.751953,1.415039.751953,2.467773v.587891ZM438.354785,62.592578c-.004883-.646484-.161133-1.150391-.467773-1.510742-.308594-.359375-.735352-.540039-1.282227-.540039-.52832,0-.977539.189453-1.34668.567383-.369141.378906-.59668.873047-.683594,1.483398h3.780273Z" fill="#2f2f2f" stroke-width="0"/>
        <path d="M440.74541,66.50957v-1.203125c.610352.451172,1.283203.676758,2.016602.676758.984375,0,1.476562-.328125,1.476562-.984375,0-.186523-.041992-.344727-.125977-.474609-.084961-.129883-.199219-.245117-.341797-.345703-.144531-.099609-.3125-.19043-.505859-.269531-.194336-.080078-.402344-.163086-.625977-.25-.30957-.123047-.582031-.24707-.817383-.37207-.234375-.125977-.429688-.266602-.587891-.423828-.15625-.157227-.275391-.335938-.355469-.537109-.079102-.200195-.119141-.43457-.119141-.704102,0-.328125.075195-.618164.225586-.871094s.350586-.464844.601562-.635742.536133-.299805.858398-.386719c.320312-.085938.652344-.129883.994141-.129883.606445,0,1.148438.105469,1.626953.314453v1.134766c-.514648-.336914-1.107422-.505859-1.777344-.505859-.209961,0-.398438.024414-.567383.072266s-.313477.115234-.43457.201172c-.120117.086914-.213867.19043-.279297.311523-.066406.120117-.099609.253906-.099609.399414,0,.182617.033203.334961.099609.458008.06543.123047.162109.232422.290039.328125s.282227.182617.464844.259766c.182617.078125.389648.162109.62207.25293.30957.119141.587891.240234.833984.366211.246094.125.456055.266602.628906.423828s.306641.337891.400391.542969c.092773.205078.139648.449219.139648.731445,0,.34668-.076172.647461-.229492.902344-.152344.255859-.356445.467773-.611328.635742-.254883.168945-.548828.293945-.881836.375977s-.681641.123047-1.045898.123047c-.719727,0-1.344727-.138672-1.873047-.416992Z" fill="#2f2f2f" stroke-width="0"/>
        <path d="M447.365527,61.129688c-.209961,0-.388672-.075195-.536133-.225586-.148438-.150391-.222656-.330078-.222656-.540039,0-.208984.074219-.386719.222656-.533203.147461-.145508.326172-.21875.536133-.21875.213867,0,.396484.073242.546875.21875.150391.146484.225586.324219.225586.533203,0,.209961-.075195.389648-.225586.540039s-.333008.225586-.546875.225586ZM447.365527,66.912891c-.209961,0-.388672-.075195-.536133-.225586-.148438-.150391-.222656-.330078-.222656-.540039,0-.208984.074219-.390625.222656-.542969.147461-.15332.326172-.229492.536133-.229492.213867,0,.396484.076172.546875.229492.150391.152344.225586.333984.225586.542969,0,.209961-.075195.389648-.225586.540039s-.333008.225586-.546875.225586Z" fill="#2f2f2f" stroke-width="0"/>
      </g>
      <g>
        <path d="M309.15166,93.960742v6.179688h1.175781v1.613281h-1.175781v2.009766h-1.96875v-2.009766h-4.272461v-1.688477c.378418-.423828.77002-.887695,1.175781-1.391602.405762-.50293.797363-1.021484,1.175781-1.554688s.730469-1.070312,1.056152-1.610352.602539-1.055664.830566-1.547852h2.00293ZM304.84502,100.14043h2.337891v-3.424805c-.159668.295898-.33252.595703-.519531.898438-.187012.303711-.382812.601562-.587891.895508s-.412598.579102-.62207.854492c-.209473.276367-.412598.53418-.608398.776367Z" fill="#2f2f2f" stroke-width="0"/>
        <path d="M314.724414,103.934375c-2.333496,0-3.5-1.638672-3.5-4.915039,0-1.700195.31543-2.995117.946777-3.886719.631348-.890625,1.545898-1.335938,2.744629-1.335938,2.278809,0,3.417969,1.665039,3.417969,4.99707,0,1.658203-.311035,2.929688-.933105,3.814453-.62207.883789-1.51416,1.326172-2.67627,1.326172ZM314.820117,95.444141c-.934082,0-1.401367,1.172852-1.401367,3.520508,0,2.209961.458008,3.31543,1.374023,3.31543.893066,0,1.339844-1.139648,1.339844-3.417969,0-2.279297-.4375-3.417969-1.3125-3.417969Z" fill="#2f2f2f" stroke-width="0"/>
        <path d="M325.764453,102.95h-.027344v4.033203h-2.160156v-10.219727h2.160156v1.052734h.027344c.533203-.816406,1.282715-1.223633,2.249023-1.223633.906738,0,1.607422.310547,2.102051.932617s.741699,1.46875.741699,2.540039c0,1.166016-.288086,2.102539-.864746,2.80957-.57666.706055-1.343262,1.05957-2.300293,1.05957-.843262,0-1.48584-.328125-1.927734-.984375ZM325.70293,100.078906v.560547c0,.482422.127441.876953.382812,1.182617.255371.304688.590332.458008,1.004883.458008.492188,0,.874023-.19043,1.14502-.571289.270996-.379883.406738-.918945.406738-1.616211,0-1.230469-.478516-1.845703-1.435547-1.845703-.441895,0-.803223.166992-1.083496.501953s-.42041.77832-.42041,1.330078Z" fill="#2f2f2f" stroke-width="0"/>
        <path d="M336.082812,100.783008h-3.739258v-1.510742h3.739258v1.510742Z" fill="#2f2f2f" stroke-width="0"/>
        <path d="M343.256641,103.510547c-.487793.282227-1.191895.423828-2.112305.423828-1.075684,0-1.945801-.326172-2.611328-.977539-.665527-.652344-.998047-1.493164-.998047-2.522461,0-1.189453.356445-2.126953,1.069824-2.813477.713379-.685547,1.666992-1.02832,2.86084-1.02832.824707,0,1.421875.109375,1.791016.328125v1.832031c-.451172-.337891-.95459-.505859-1.510742-.505859-.619629,0-1.11084.180664-1.473145.542969s-.543457.862305-.543457,1.500977c0,.619141.17334,1.106445.519531,1.458984.346191.353516.822754.530273,1.428711.530273.537598,0,1.063965-.168945,1.579102-.505859v1.736328Z" fill="#2f2f2f" stroke-width="0"/>
        <path d="M347.986621,103.934375c-1.166504,0-2.083984-.327148-2.751465-.981445-.66748-.65332-1.001465-1.541016-1.001465-2.662109,0-1.158203.346191-2.063477,1.039062-2.717773.692871-.65332,1.629395-.980469,2.80957-.980469,1.162109,0,2.07373.327148,2.734375.980469.660645.654297.991211,1.518555.991211,2.594727,0,1.162109-.34082,2.080078-1.021973,2.754883-.681152.673828-1.614258,1.011719-2.799316,1.011719ZM348.041309,98.246875c-.510254,0-.906738.174805-1.189453.526367-.282715.350586-.423828.847656-.423828,1.490234,0,1.34375.54248,2.016602,1.626953,2.016602,1.034668,0,1.551758-.69043,1.551758-2.071289,0-1.308594-.521973-1.961914-1.56543-1.961914Z" fill="#2f2f2f" stroke-width="0"/>
        <path d="M357.754687,98.711719c-.259766-.141602-.562988-.211914-.90918-.211914-.469238,0-.836426.171875-1.100586.515625-.26416.344727-.396484.8125-.396484,1.405273v3.342773h-2.160156v-7h2.160156v1.298828h.027344c.341797-.948242.957031-1.421875,1.845703-1.421875.228027,0,.405762.027344.533203.082031v1.989258Z" fill="#2f2f2f" stroke-width="0"/>
        <path d="M365.127246,100.878711h-4.566406c.072754,1.015625.713379,1.524414,1.920898,1.524414.77002,0,1.446777-.182617,2.030273-.546875v1.558594c-.646973.345703-1.487793.519531-2.522461.519531-1.130371,0-2.007324-.313477-2.631836-.94043-.624512-.625977-.936523-1.5-.936523-2.621094,0-1.162109.337402-2.083008,1.011719-2.761719.674316-.679688,1.503906-1.018555,2.488281-1.018555,1.020996,0,1.810547.302734,2.368652.90918.558105.605469.837402,1.428711.837402,2.467773v.90918ZM363.124316,99.552539c0-1.00293-.405762-1.503906-1.216797-1.503906-.346191,0-.645996.143555-.898926.430664s-.406738.644531-.461426,1.073242h2.577148Z" fill="#2f2f2f" stroke-width="0"/>
        <path d="M366.115527,103.578906v-1.75c.355469.213867.709961.373047,1.062988.478516.353027.104492.687012.157227,1.001465.157227.382812,0,.68457-.052734.905762-.157227.221191-.105469.331543-.264648.331543-.478516,0-.136719-.050293-.250977-.150391-.341797-.100098-.091797-.229004-.170898-.38623-.239258s-.329102-.129883-.516113-.18457-.366699-.116211-.540039-.18457c-.277832-.105469-.522949-.217773-.734863-.338867-.211914-.120117-.389648-.260742-.533203-.419922-.143555-.160156-.25293-.344727-.328125-.553711-.075195-.209961-.112793-.458008-.112793-.745117,0-.392578.085449-.729492.256348-1.011719.170898-.283203.398926-.513672.683594-.694336.284668-.179688.61084-.311523.977539-.396484.366699-.083984.748535-.125977,1.14502-.125977.310059,0,.624512.023438.943359.071289s.633301.117188.943359.208984v1.667969c-.273438-.160156-.566406-.279297-.878418-.359375-.312012-.079102-.618652-.119141-.919434-.119141-.141113,0-.274414.012695-.399902.037109-.125488.025391-.23584.061523-.331543.109375s-.170898.109375-.225586.18457-.082031.161133-.082031.256836c0,.126953.041016.236328.123047.328125.082031.09082.188965.169922.321289.235352.132324.066406.279297.125977.440918.177734.161621.052734.322266.106445.481934.161133.287109.099609.546875.208984.779297.328125.232422.118164.431641.256836.598145.416992.166504.15918.293945.345703.382812.560547.088867.213867.133301.46875.133301.765625,0,.414062-.089844.768555-.27002,1.0625s-.419434.533203-.717773.717773-.642578.319336-1.032227.40332c-.389648.084961-.793945.126953-1.213379.126953-.77002,0-1.483398-.119141-2.139648-.355469Z" fill="#2f2f2f" stroke-width="0"/>
        <path d="M383.355762,96.763477l-2.310547,3.390625,2.296875,3.609375h-2.488281l-1.011719-1.886719c-.082031-.150391-.180176-.362305-.293945-.635742h-.027344c-.068359.191406-.161621.396484-.280273.615234l-1.018555,1.907227h-2.481445l2.365234-3.486328-2.22168-3.513672h2.501953l.998047,1.961914c.132324.259766.225586.478516.280273.65625h.027344c.072754-.214844.170898-.4375.293945-.669922l1.018555-1.948242h2.351562Z" fill="#2f2f2f" stroke-width="0"/>
        <path d="M393.787891,93.960742v6.179688h1.175781v1.613281h-1.175781v2.009766h-1.96875v-2.009766h-4.272461v-1.688477c.37793-.423828.770508-.887695,1.175781-1.391602.405273-.50293.797852-1.021484,1.175781-1.554688s.730469-1.070312,1.055664-1.610352c.326172-.540039.603516-1.055664.831055-1.547852h2.00293ZM389.48125,100.14043h2.337891v-3.424805c-.15918.295898-.333008.595703-.519531.898438-.186523.303711-.382812.601562-.587891.895508s-.412109.579102-.62207.854492c-.209961.276367-.412109.53418-.608398.776367Z" fill="#2f2f2f" stroke-width="0"/>
        <path d="M407.480273,98.97832h-6.658203v-1.401367h6.658203v1.401367ZM407.480273,101.945117h-6.658203v-1.387695h6.658203v1.387695Z" fill="#2f2f2f" stroke-width="0"/>
        <path d="M418.643359,93.741992v10.021484h-2.15332v-7.587891c-.118164.104492-.258789.204102-.420898.296875-.161133.09375-.333008.177734-.515625.25293s-.371094.139648-.567383.191406c-.196289.052734-.389648.089844-.581055.113281v-1.818359c.560547-.164062,1.088867-.374023,1.585938-.628906.49707-.255859.945312-.536133,1.34668-.84082h1.305664Z" fill="#2f2f2f" stroke-width="0"/>
        <path d="M427.879687,100.502734c0,.482422-.083984.933594-.25293,1.353516-.168945.418945-.40332.782227-.704102,1.089844s-.658203.549805-1.073242.724609c-.415039.175781-.868164.263672-1.360352.263672-.551758,0-1.044922-.102539-1.480469-.307617-.43457-.205078-.802734-.50293-1.103516-.892578s-.53125-.867188-.69043-1.431641c-.15918-.56543-.239258-1.206055-.239258-1.920898,0-.84375.103516-1.607422.310547-2.293945.208008-.685547.503906-1.272461.888672-1.759766.385742-.488281.851562-.865234,1.398438-1.131836s1.162109-.399414,1.845703-.399414c.756836,0,1.344727.088867,1.763672.266602v1.804688c-.49707-.283203-1.039062-.423828-1.626953-.423828-.364258,0-.695312.070312-.991211.211914-.295898.140625-.549805.341797-.762695.601562-.210938.259766-.37793.573242-.498047.939453-.121094.367188-.186523.776367-.195312,1.227539h.041016c.464844-.642578,1.150391-.963867,2.057617-.963867.405273,0,.772461.072266,1.100586.21875.328125.145508.608398.351562.84082.618164s.412109.586914.540039.960938c.12793.373047.191406.788086.191406,1.244141ZM425.767383,100.639453c0-1.052734-.430664-1.579102-1.291992-1.579102-.196289,0-.374023.036133-.533203.109375-.15918.072266-.295898.174805-.410156.307617-.114258.131836-.201172.288086-.263672.467773-.060547.180664-.091797.379883-.091797.598633,0,.241211.032227.466797.095703.676758.063477.208984.154297.392578.269531.549805.117188.157227.254883.28125.414062.373047.15918.09082.336914.136719.533203.136719s.373047-.040039.529297-.120117c.158203-.079102.291992-.191406.404297-.334961.111328-.143555.196289-.316406.255859-.519531.05957-.202148.088867-.424805.088867-.666016Z" fill="#2f2f2f" stroke-width="0"/>
        <path d="M432.380664,103.934375c-2.333008,0-3.5-1.638672-3.5-4.915039,0-1.700195.31543-2.995117.946289-3.886719.631836-.890625,1.546875-1.335938,2.745117-1.335938,2.27832,0,3.417969,1.665039,3.417969,4.99707,0,1.658203-.311523,2.929688-.932617,3.814453-.623047.883789-1.514648,1.326172-2.676758,1.326172ZM432.476367,95.444141c-.93457,0-1.401367,1.172852-1.401367,3.520508,0,2.209961.458008,3.31543,1.374023,3.31543.893555,0,1.339844-1.139648,1.339844-3.417969,0-2.279297-.4375-3.417969-1.3125-3.417969Z" fill="#2f2f2f" stroke-width="0"/>
        <path d="M450.263477,103.763477h-2.228516l-4.040039-6.15918c-.237305-.360352-.401367-.631836-.492188-.813477h-.027344c.036133.345703.054688.875.054688,1.585938v5.386719h-2.084961v-9.802734h2.378906l3.889648,5.967773c.177734.268555.341797.535156.492188.799805h.027344c-.036133-.228516-.054688-.676758-.054688-1.34668v-5.420898h2.084961v9.802734Z" fill="#2f2f2f" stroke-width="0"/>
        <path d="M459.468555,103.414844c-.71582.345703-1.649414.519531-2.802734.519531-1.503906,0-2.686523-.442383-3.547852-1.326172-.861328-.884766-1.291992-2.0625-1.291992-3.53418,0-1.568359.484375-2.839844,1.453125-3.814453.967773-.975586,2.224609-1.462891,3.769531-1.462891.957031,0,1.763672.120117,2.419922.362305v2.125977c-.65625-.392578-1.40332-.587891-2.242188-.587891-.920898,0-1.663086.289062-2.228516.868164-.56543.578125-.847656,1.362305-.847656,2.351562,0,.947266.266602,1.703125.799805,2.265625.533203.563477,1.250977.844727,2.15332.844727.861328,0,1.649414-.209961,2.365234-.628906v2.016602Z" fill="#2f2f2f" stroke-width="0"/>
        <path d="M460.549609,103.578906v-1.75c.355469.213867.709961.373047,1.0625.478516.353516.104492.6875.157227,1.001953.157227.382812,0,.68457-.052734.90625-.157227.220703-.105469.331055-.264648.331055-.478516,0-.136719-.049805-.250977-.150391-.341797-.100586-.091797-.229492-.170898-.385742-.239258-.158203-.068359-.330078-.129883-.516602-.18457s-.367188-.116211-.540039-.18457c-.27832-.105469-.523438-.217773-.734375-.338867-.212891-.120117-.390625-.260742-.533203-.419922-.144531-.160156-.253906-.344727-.328125-.553711-.076172-.209961-.113281-.458008-.113281-.745117,0-.392578.085938-.729492.255859-1.011719.171875-.283203.399414-.513672.683594-.694336.285156-.179688.611328-.311523.978516-.396484.366211-.083984.748047-.125977,1.144531-.125977.30957,0,.624023.023438.943359.071289s.633789.117188.943359.208984v1.667969c-.273438-.160156-.566406-.279297-.878906-.359375-.311523-.079102-.618164-.119141-.918945-.119141-.141602,0-.274414.012695-.399414.037109-.125977.025391-.236328.061523-.332031.109375s-.170898.109375-.225586.18457-.082031.161133-.082031.256836c0,.126953.041016.236328.123047.328125.082031.09082.189453.169922.321289.235352.131836.066406.279297.125977.441406.177734.161133.052734.322266.106445.481445.161133.287109.099609.546875.208984.779297.328125.232422.118164.431641.256836.598633.416992.166016.15918.292969.345703.382812.560547.087891.213867.132812.46875.132812.765625,0,.414062-.089844.768555-.269531,1.0625-.180664.293945-.419922.533203-.71875.717773-.297852.18457-.642578.319336-1.03125.40332-.390625.084961-.794922.126953-1.213867.126953-.770508,0-1.483398-.119141-2.139648-.355469Z" fill="#2f2f2f" stroke-width="0"/>
      </g>
    </g>
  </g>
</svg>