<svg xmlns="http://www.w3.org/2000/svg" viewBox="0 0 298 110">
  <title>4 - adm-service</title>
  <g id="background_blue" data-name="background blue">
    <rect y="-0.181" width="298" height="110" fill="#e4edf1"/>
  </g>
  <g id="Shapes">
    <g>
      <path d="M183.551,45.7h-1.26a25.071,25.071,0,0,0,.9-7.367,27.681,27.681,0,0,0-53.982-9,17.654,17.654,0,0,0-6.122-1.075,19.119,19.119,0,0,0-19.07,19.166V47.5a18.9,18.9,0,0,0,18.743,19.044v-8.81c0-8.674,14.575-12.629,28.116-12.629s28.115,3.94,28.115,12.614v8.825h5.279a10.433,10.433,0,0,0-.72-20.839Z" fill="#0072c6"/>
      <path d="M126.51,57.718V91.405c0,4.873,10.733,8.8,24.033,8.865h.334c13.458,0,24.367-3.977,24.367-8.873V57.722H126.51Z" fill="#59b4d9"/>
      <path d="M150.877,57.718v42.564c13.458,0,24.367-3.978,24.367-8.874V57.722H150.877Z" fill="#3999c6"/>
      <path d="M175.244,57.718c0,4.9-10.909,8.874-24.367,8.874s-24.367-3.974-24.367-8.874,10.909-8.88,24.367-8.88,24.367,3.977,24.367,8.88" fill="#b8d432"/>
      <path d="M111.515,53.737a20.293,20.293,0,0,1,29.9-17.893,28.015,28.015,0,0,1,38.148-10.693q.3.169.6.347a27.643,27.643,0,0,0-50.949,3.857,17.658,17.658,0,0,0-6.122-1.075,19.144,19.144,0,0,0-8.416,36.3A20.206,20.206,0,0,1,111.515,53.737Z" fill="#ecf0f1" opacity="0.19" style="isolation: isolate"/>
      <polygon points="150.877 21.558 135.882 36.553 145.254 36.553 145.254 59.045 156.5 59.045 156.5 36.553 165.872 36.553 150.877 21.558" fill="#fff"/>
    </g>
  </g>
</svg>
