<svg xmlns="http://www.w3.org/2000/svg" viewBox="0 0 298 110">
  <title>db_exp</title>
  <g id="background_blue" data-name="background blue">
    <rect width="298" height="110" fill="#e4edf1"/>
  </g>
  <g id="Shapes">
    <g>
      <g>
        <path d="M186.675,80.27H42.273a8.024,8.024,0,0,1-8-8V36a8.024,8.024,0,0,1,8-8H56.524" fill="none" stroke="#75757a" stroke-miterlimit="10" stroke-dasharray="3 3"/>
        <polygon points="53.208 32.087 52.526 31.355 56.138 27.998 52.526 24.641 53.208 23.908 57.606 27.998 53.208 32.087" fill="#75757a"/>
      </g>
      <g>
        <path d="M110.474,28H255.7a8.024,8.024,0,0,1,8,8V57.991c0,4.4-2.724,8-6.053,8H241.133" fill="none" stroke="#75757a" stroke-miterlimit="10" stroke-dasharray="3 3"/>
        <polygon points="244.449 61.901 245.131 62.633 241.519 65.99 245.131 69.347 244.449 70.079 240.051 65.99 244.449 61.901" fill="#75757a"/>
      </g>
    </g>
    <g>
      <g>
        <path d="M107.413,58.247a2.228,2.228,0,0,1-2.25,2.25H83.293a2.228,2.228,0,0,1-2.25-2.25v-40.5a2.228,2.228,0,0,1,2.25-2.25h21.87a2.228,2.228,0,0,1,2.25,2.25Z" fill="#3e3e3e"/>
        <path d="M84.823,39.8a2.843,2.843,0,0,1,2.88-2.88h13.14a2.843,2.843,0,0,1,2.88,2.88h0a2.843,2.843,0,0,1-2.88,2.88H87.7a2.9,2.9,0,0,1-2.88-2.88Z" fill="#1e1e1e"/>
        <circle cx="87.883" cy="39.797" r="1.89" fill="#b8d432"/>
        <path d="M84.823,31.247a2.843,2.843,0,0,1,2.88-2.88h13.14a2.843,2.843,0,0,1,2.88,2.88h0a2.843,2.843,0,0,1-2.88,2.88H87.7a2.9,2.9,0,0,1-2.88-2.88Z" fill="#1e1e1e"/>
        <circle cx="87.883" cy="31.247" r="1.89" fill="#b8d432"/>
        <path d="M84.823,22.787a2.843,2.843,0,0,1,2.88-2.88h13.14a2.843,2.843,0,0,1,2.88,2.88h0a2.843,2.843,0,0,1-2.88,2.88H87.7a2.961,2.961,0,0,1-2.88-2.88Z" fill="#1e1e1e"/>
        <circle cx="87.883" cy="22.787" r="1.89" fill="#b8d432"/>
      </g>
      <g>
        <rect x="57.269" y="15.497" width="22.274" height="27" fill-opacity="0"/>
        <rect x="58.355" y="15.497" width="20.318" height="27" fill-opacity="0"/>
        <path d="M58.355,19.191V38.8c0,2.01,4.564,3.694,10.159,3.694V19.191Z" fill="#0072c6"/>
        <path d="M68.351,42.5h.163c5.65,0,10.159-1.63,10.159-3.694V19.191H68.351V42.5Z" fill="#0072c6"/>
        <path d="M68.351,42.5h.163c5.65,0,10.159-1.63,10.159-3.694V19.191H68.351V42.5Z" fill="#fff" opacity="0.15" style="isolation: isolate"/>
        <path d="M78.673,19.191c0,2.01-4.563,3.694-10.159,3.694s-10.159-1.629-10.159-3.694c0-2.01,4.564-3.694,10.159-3.694S78.673,17.181,78.673,19.191Z" fill="#fff"/>
        <path d="M76.609,19.028c0,1.3-3.64,2.391-8.095,2.391s-8.094-1.087-8.094-2.391c0-1.358,3.64-2.444,8.094-2.444S76.609,17.67,76.609,19.028Z" fill="#7fba00"/>
        <path d="M74.925,20.5c1.086-.434,1.684-.923,1.684-1.467,0-1.358-3.64-2.444-8.095-2.444S60.42,17.67,60.42,19.028c0,.544.652,1.087,1.684,1.467a18.431,18.431,0,0,1,6.41-.923A17.215,17.215,0,0,1,74.925,20.5Z" fill="#b8d432"/>
        <rect x="57.269" y="24.733" width="22.274" height="11.952" fill-opacity="0"/>
        <path d="M61.335,33.206V31.933a2.485,2.485,0,0,0,.752.437,2.439,2.439,0,0,0,.82.144,1.79,1.79,0,0,0,.421-.044.977.977,0,0,0,.3-.12.551.551,0,0,0,.183-.183.462.462,0,0,0,.06-.23.494.494,0,0,0-.1-.3,1.037,1.037,0,0,0-.263-.243,2.612,2.612,0,0,0-.389-.214c-.152-.069-.315-.14-.49-.211a2.531,2.531,0,0,1-1-.681,1.493,1.493,0,0,1-.326-.971,1.481,1.481,0,0,1,.665-1.293,2.179,2.179,0,0,1,.716-.3,3.611,3.611,0,0,1,.859-.1,4.965,4.965,0,0,1,.788.056,3.075,3.075,0,0,1,.637.163v1.19a1.868,1.868,0,0,0-.315-.175,2.156,2.156,0,0,0-.346-.124,2.506,2.506,0,0,0-.358-.075,2.465,2.465,0,0,0-.334-.024,1.684,1.684,0,0,0-.4.044.981.981,0,0,0-.3.115.579.579,0,0,0-.191.183.42.42,0,0,0-.068.235.46.46,0,0,0,.076.259.9.9,0,0,0,.214.214,2.433,2.433,0,0,0,.339.2q.2.1.449.2a4.729,4.729,0,0,1,.613.307,2.129,2.129,0,0,1,.47.362,1.408,1.408,0,0,1,.3.465,1.845,1.845,0,0,1-.08,1.409,1.465,1.465,0,0,1-.489.525,2.161,2.161,0,0,1-.724.287,4.174,4.174,0,0,1-.868.087,4.87,4.87,0,0,1-.9-.079A2.7,2.7,0,0,1,61.335,33.206Zm7.242.318a2.66,2.66,0,0,1-2-.8,2.88,2.88,0,0,1-.772-2.081,3.08,3.08,0,0,1,.784-2.188,2.706,2.706,0,0,1,2.077-.836,2.585,2.585,0,0,1,1.974.8,2.937,2.937,0,0,1,.756,2.109,3.028,3.028,0,0,1-.784,2.169c-.019.018-.036.037-.052.055s-.033.032-.052.048l1.445,1.389h-1.8l-.756-.768A3.212,3.212,0,0,1,68.577,33.524Zm.055-4.794a1.3,1.3,0,0,0-1.074.509,2.109,2.109,0,0,0-.4,1.341,2.078,2.078,0,0,0,.4,1.341,1.275,1.275,0,0,0,1.043.493,1.29,1.29,0,0,0,1.054-.477,2.073,2.073,0,0,0,.39-1.333,2.237,2.237,0,0,0-.378-1.381A1.225,1.225,0,0,0,68.632,28.73Zm7.115,4.695h-3.4V27.719h1.285v4.663h2.113Z" fill="#fff"/>
      </g>
    </g>
    <g>
      <g>
        <path d="M215.824,96.241a2.228,2.228,0,0,1-2.25,2.25H191.7a2.228,2.228,0,0,1-2.25-2.25v-40.5a2.228,2.228,0,0,1,2.25-2.25h21.87a2.228,2.228,0,0,1,2.25,2.25Z" fill="#3e3e3e"/>
        <path d="M193.234,77.791a2.843,2.843,0,0,1,2.88-2.88h13.14a2.843,2.843,0,0,1,2.88,2.88h0a2.843,2.843,0,0,1-2.88,2.88h-13.14a2.9,2.9,0,0,1-2.88-2.88Z" fill="#1e1e1e"/>
        <circle cx="196.294" cy="77.791" r="1.89" fill="#b8d432"/>
        <path d="M193.234,69.241a2.843,2.843,0,0,1,2.88-2.88h13.14a2.843,2.843,0,0,1,2.88,2.88h0a2.843,2.843,0,0,1-2.88,2.88h-13.14a2.9,2.9,0,0,1-2.88-2.88Z" fill="#1e1e1e"/>
        <circle cx="196.294" cy="69.241" r="1.89" fill="#b8d432"/>
        <path d="M193.234,60.781a2.843,2.843,0,0,1,2.88-2.88h13.14a2.843,2.843,0,0,1,2.88,2.88h0a2.843,2.843,0,0,1-2.88,2.88h-13.14a2.961,2.961,0,0,1-2.88-2.88Z" fill="#1e1e1e"/>
        <circle cx="196.294" cy="60.781" r="1.89" fill="#b8d432"/>
      </g>
      <g>
        <rect x="217.911" y="53.491" width="22.274" height="27" fill-opacity="0"/>
        <rect x="218.997" y="53.491" width="20.318" height="27" fill-opacity="0"/>
        <path d="M219,57.185V76.8c0,2.01,4.564,3.695,10.159,3.695V57.185Z" fill="#0072c6"/>
        <path d="M228.993,80.491h.163c5.65,0,10.159-1.63,10.159-3.695V57.185H228.993V80.491Z" fill="#0072c6"/>
        <path d="M228.993,80.491h.163c5.65,0,10.159-1.63,10.159-3.695V57.185H228.993V80.491Z" fill="#fff" opacity="0.15" style="isolation: isolate"/>
        <path d="M239.315,57.185c0,2.01-4.563,3.694-10.159,3.694S219,59.249,219,57.185c0-2.01,4.564-3.694,10.159-3.694S239.315,55.175,239.315,57.185Z" fill="#fff"/>
        <path d="M237.251,57.022c0,1.3-3.64,2.39-8.095,2.39s-8.094-1.086-8.094-2.39c0-1.358,3.64-2.445,8.094-2.445S237.251,55.664,237.251,57.022Z" fill="#7fba00"/>
        <path d="M235.567,58.489c1.086-.435,1.684-.924,1.684-1.467,0-1.358-3.64-2.445-8.095-2.445s-8.094,1.087-8.094,2.445c0,.543.652,1.086,1.684,1.467a18.4,18.4,0,0,1,6.41-.924A17.213,17.213,0,0,1,235.567,58.489Z" fill="#b8d432"/>
        <rect x="217.911" y="62.726" width="22.274" height="11.952" fill-opacity="0"/>
        <path d="M221.977,71.2V69.926a2.412,2.412,0,0,0,1.572.581,1.805,1.805,0,0,0,.422-.044,1.007,1.007,0,0,0,.3-.119.551.551,0,0,0,.183-.183.468.468,0,0,0,.06-.231.491.491,0,0,0-.1-.3,1,1,0,0,0-.262-.243,2.677,2.677,0,0,0-.39-.215q-.228-.1-.49-.211a2.518,2.518,0,0,1-1-.68,1.49,1.49,0,0,1-.327-.971,1.539,1.539,0,0,1,.179-.764,1.521,1.521,0,0,1,.486-.529,2.18,2.18,0,0,1,.716-.3,3.617,3.617,0,0,1,.859-.1,4.85,4.85,0,0,1,.788.056,2.954,2.954,0,0,1,.637.163v1.189a1.973,1.973,0,0,0-.314-.175,2.3,2.3,0,0,0-.347-.123,2.509,2.509,0,0,0-.358-.076,2.454,2.454,0,0,0-.334-.024,1.69,1.69,0,0,0-.4.044.981.981,0,0,0-.3.116.56.56,0,0,0-.191.183.419.419,0,0,0-.068.234.457.457,0,0,0,.076.259.91.91,0,0,0,.215.215,2.458,2.458,0,0,0,.338.2q.2.1.449.2a4.546,4.546,0,0,1,.613.306,2.129,2.129,0,0,1,.47.362,1.422,1.422,0,0,1,.3.466,1.835,1.835,0,0,1-.079,1.408,1.488,1.488,0,0,1-.49.526,2.16,2.16,0,0,1-.724.286,4.164,4.164,0,0,1-.867.088,4.88,4.88,0,0,1-.9-.08A2.7,2.7,0,0,1,221.977,71.2Zm7.242.319a2.663,2.663,0,0,1-2-.8,2.883,2.883,0,0,1-.772-2.081,3.083,3.083,0,0,1,.784-2.189,2.707,2.707,0,0,1,2.077-.835,2.58,2.58,0,0,1,1.974.8,2.933,2.933,0,0,1,.756,2.108,3.024,3.024,0,0,1-.784,2.169c-.018.019-.036.037-.052.056s-.033.032-.051.047l1.444,1.389h-1.8l-.756-.768A3.205,3.205,0,0,1,229.219,71.518Zm.056-4.8a1.3,1.3,0,0,0-1.075.509,2.109,2.109,0,0,0-.4,1.341,2.078,2.078,0,0,0,.4,1.341,1.275,1.275,0,0,0,1.043.493,1.29,1.29,0,0,0,1.054-.477,2.073,2.073,0,0,0,.39-1.333,2.237,2.237,0,0,0-.378-1.381A1.224,1.224,0,0,0,229.275,66.723Zm7.114,4.7h-3.4V65.712h1.285v4.664h2.113Z" fill="#fff"/>
      </g>
    </g>
    <g>
      <g>
        <path d="M133.647,20.2a4.318,4.318,0,1,0-4.318-4.317A4.317,4.317,0,0,0,133.647,20.2Z" fill="#008313"/>
        <path d="M150.817,49.55,144.7,26.305c1.164-.733,1.874-1.478,1.723-2.083-.315-1.233-3.934-1.385-8.146-.349s-7.273,2.9-6.982,4.131c.151.617,1.163.966,2.595,1.024l6.075,23.091a20.745,20.745,0,1,0,10.851-2.569Zm-11.306-8.175c.314-1.373,2.7-.978,3.689-1.874,1.164-1.059,2.258-2.7,1.373-6.644,1.738,6.594,3.209,12.311,4.333,16.708a20.6,20.6,0,0,0-6.828,1.528C140.92,47.292,139.371,42.008,139.511,41.375Z" fill="#fff"/>
        <path d="M139.969,33.582a2.106,2.106,0,1,0-2.92-.589A2.106,2.106,0,0,0,139.969,33.582Z" fill="#008313"/>
      </g>
      <path d="M159,56.324c-.2-.136-.415-.252-.623-.379s-.4-.252-.61-.365a16.128,16.128,0,0,0-7.762-2c-1.164-4.655-3.038-11.881-5.353-20.714.884,3.945-.186,5.574-1.373,6.645-.99.9-3.375.5-3.689,1.874-.233.989,3.782,13.638,3.782,13.638-.222.1-.434.217-.65.327A16.364,16.364,0,1,0,159,56.324Z" fill="#008313"/>
    </g>
  </g>
</svg>
