<svg xmlns="http://www.w3.org/2000/svg" viewBox="0 0 298 110">
  <title>4 - dma-assist</title>
  <g id="background_blue" data-name="background blue">
    <rect width="298" height="110" fill="#e4edf1"/>
  </g>
  <g id="Shapes">
    <g>
      <rect x="35.38" y="39.047" width="49.497" height="60" fill-opacity="0"/>
      <rect x="37.795" y="39.047" width="45.151" height="60" fill-opacity="0"/>
      <path d="M37.8,47.256V90.838c0,4.467,10.141,8.209,22.575,8.209V47.256Z" fill="#0072c6"/>
      <path d="M60.008,99.047h.362c12.556,0,22.576-3.622,22.576-8.209V47.256H60.008V99.047Z" fill="#0072c6"/>
      <path d="M60.008,99.047h.362c12.556,0,22.576-3.622,22.576-8.209V47.256H60.008V99.047Z" fill="#fff" opacity="0.15" style="isolation: isolate"/>
      <path d="M82.946,47.256c0,4.467-10.141,8.21-22.576,8.21S37.8,51.844,37.8,47.256c0-4.466,10.141-8.209,22.575-8.209S82.946,42.79,82.946,47.256Z" fill="#fff"/>
      <path d="M78.358,46.894c0,2.9-8.088,5.312-17.988,5.312s-17.988-2.414-17.988-5.312c0-3.018,8.089-5.432,17.988-5.432S78.358,43.876,78.358,46.894Z" fill="#7fba00"/>
      <path d="M74.616,50.154c2.414-.966,3.742-2.053,3.742-3.26,0-3.018-8.088-5.432-17.988-5.432s-17.988,2.414-17.988,5.432c0,1.207,1.449,2.415,3.743,3.26,3.259-1.328,8.45-2.053,14.245-2.053C66.165,47.981,71.356,48.826,74.616,50.154Z" fill="#b8d432"/>
      <rect x="35.38" y="59.57" width="49.497" height="26.559" fill-opacity="0"/>
      <path d="M44.416,78.4V75.57a5.369,5.369,0,0,0,3.493,1.291,3.968,3.968,0,0,0,.937-.1,2.227,2.227,0,0,0,.672-.265,1.215,1.215,0,0,0,.407-.407,1.044,1.044,0,0,0,.133-.513,1.1,1.1,0,0,0-.213-.663,2.247,2.247,0,0,0-.583-.539A5.836,5.836,0,0,0,48.4,73.9q-.5-.23-1.087-.468a5.592,5.592,0,0,1-2.22-1.513,3.314,3.314,0,0,1-.725-2.157,3.3,3.3,0,0,1,1.477-2.874,4.859,4.859,0,0,1,1.592-.672,8.009,8.009,0,0,1,1.909-.221,11.057,11.057,0,0,1,1.751.124,6.733,6.733,0,0,1,1.415.363v2.643a4.19,4.19,0,0,0-.7-.389,4.982,4.982,0,0,0-.769-.274,5.614,5.614,0,0,0-.8-.168,5.558,5.558,0,0,0-.742-.053,3.778,3.778,0,0,0-.885.1,2.2,2.2,0,0,0-.672.257A1.275,1.275,0,0,0,47.52,69a.932.932,0,0,0-.15.521,1.027,1.027,0,0,0,.168.575,2.029,2.029,0,0,0,.477.477,5.605,5.605,0,0,0,.752.443q.441.212,1,.442a10.331,10.331,0,0,1,1.361.681,4.705,4.705,0,0,1,1.044.8,3.139,3.139,0,0,1,.663,1.035,4.088,4.088,0,0,1-.177,3.13,3.286,3.286,0,0,1-1.087,1.167,4.8,4.8,0,0,1-1.61.637,9.251,9.251,0,0,1-1.927.194,10.81,10.81,0,0,1-1.99-.177A5.991,5.991,0,0,1,44.416,78.4Zm16.093.707a5.91,5.91,0,0,1-4.439-1.768,6.4,6.4,0,0,1-1.715-4.625A6.837,6.837,0,0,1,56.1,67.851a6.012,6.012,0,0,1,4.615-1.857A5.741,5.741,0,0,1,65.1,67.772a6.521,6.521,0,0,1,1.68,4.686,6.722,6.722,0,0,1-1.742,4.819c-.041.041-.079.082-.115.124s-.073.07-.115.106l3.21,3.086h-4l-1.68-1.707A7.126,7.126,0,0,1,60.509,79.107Zm.124-10.655a2.89,2.89,0,0,0-2.388,1.132,4.686,4.686,0,0,0-.884,2.98,4.617,4.617,0,0,0,.884,2.98,2.834,2.834,0,0,0,2.317,1.1,2.864,2.864,0,0,0,2.343-1.061,4.6,4.6,0,0,0,.867-2.962,4.967,4.967,0,0,0-.84-3.068A2.725,2.725,0,0,0,60.633,68.452Zm15.81,10.434H68.891V66.207h2.856V76.57h4.7Z" fill="#fff"/>
    </g>
    <g>
      <rect x="213.894" y="11.033" width="49.497" height="60" fill-opacity="0"/>
      <rect x="216.309" y="11.033" width="45.151" height="60" fill-opacity="0"/>
      <path d="M216.309,19.242V62.824c0,4.467,10.14,8.209,22.575,8.209V19.242Z" fill="#0072c6"/>
      <path d="M238.522,71.033h.362c12.555,0,22.575-3.622,22.575-8.209V19.242H238.522V71.033Z" fill="#0072c6"/>
      <path d="M238.522,71.033h.362c12.555,0,22.575-3.622,22.575-8.209V19.242H238.522V71.033Z" fill="#fff" opacity="0.15" style="isolation: isolate"/>
      <path d="M261.459,19.242c0,4.467-10.14,8.21-22.575,8.21s-22.575-3.622-22.575-8.21c0-4.466,10.14-8.209,22.575-8.209S261.459,14.776,261.459,19.242Z" fill="#fff"/>
      <path d="M256.872,18.88c0,2.9-8.089,5.312-17.988,5.312S220.9,21.778,220.9,18.88c0-3.018,8.089-5.432,17.988-5.432S256.872,15.862,256.872,18.88Z" fill="#7fba00"/>
      <path d="M253.129,22.14c2.415-.966,3.743-2.053,3.743-3.26,0-3.018-8.089-5.432-17.988-5.432S220.9,15.862,220.9,18.88c0,1.207,1.449,2.415,3.742,3.26,3.26-1.328,8.451-2.053,14.246-2.053C244.679,19.967,249.87,20.812,253.129,22.14Z" fill="#b8d432"/>
      <rect x="213.894" y="31.556" width="49.497" height="26.559" fill-opacity="0"/>
      <path d="M222.93,50.386v-2.83a5.364,5.364,0,0,0,3.493,1.291,3.974,3.974,0,0,0,.937-.1,2.227,2.227,0,0,0,.672-.265,1.224,1.224,0,0,0,.407-.407,1.043,1.043,0,0,0,.132-.513,1.1,1.1,0,0,0-.212-.663,2.247,2.247,0,0,0-.583-.539,5.836,5.836,0,0,0-.867-.478q-.5-.229-1.088-.468a5.6,5.6,0,0,1-2.219-1.512,3.318,3.318,0,0,1-.725-2.158,3.3,3.3,0,0,1,1.477-2.874,4.854,4.854,0,0,1,1.591-.672,8.024,8.024,0,0,1,1.91-.221,11.066,11.066,0,0,1,1.751.124,6.749,6.749,0,0,1,1.415.363V41.11a4.23,4.23,0,0,0-.7-.389,5.02,5.02,0,0,0-.769-.274,5.644,5.644,0,0,0-.8-.168,5.561,5.561,0,0,0-.743-.053,3.769,3.769,0,0,0-.884.1,2.2,2.2,0,0,0-.672.257,1.266,1.266,0,0,0-.424.407.925.925,0,0,0-.151.521,1.027,1.027,0,0,0,.168.575,2.016,2.016,0,0,0,.478.477,5.652,5.652,0,0,0,.751.443q.442.212,1,.442a10.457,10.457,0,0,1,1.361.681,4.705,4.705,0,0,1,1.044.8,3.155,3.155,0,0,1,.663,1.035,4.088,4.088,0,0,1-.177,3.13,3.28,3.28,0,0,1-1.088,1.167,4.785,4.785,0,0,1-1.609.637,9.258,9.258,0,0,1-1.927.194,10.81,10.81,0,0,1-1.99-.177A5.991,5.991,0,0,1,222.93,50.386Zm16.093.707a5.91,5.91,0,0,1-4.439-1.768,6.4,6.4,0,0,1-1.715-4.625,6.841,6.841,0,0,1,1.741-4.863,6.014,6.014,0,0,1,4.616-1.857,5.741,5.741,0,0,1,4.386,1.778,6.523,6.523,0,0,1,1.68,4.686,6.722,6.722,0,0,1-1.742,4.819c-.041.041-.08.082-.115.124s-.074.07-.115.106l3.21,3.086h-4l-1.68-1.707A7.083,7.083,0,0,1,239.023,51.093Zm.124-10.655a2.889,2.889,0,0,0-2.388,1.132,4.686,4.686,0,0,0-.884,2.98,4.617,4.617,0,0,0,.884,2.98,2.834,2.834,0,0,0,2.317,1.1,2.865,2.865,0,0,0,2.343-1.061,4.6,4.6,0,0,0,.867-2.962,4.974,4.974,0,0,0-.84-3.068A2.726,2.726,0,0,0,239.147,40.438Zm15.809,10.434h-7.551V38.193h2.856V48.556h4.695Z" fill="#fff"/>
    </g>
    <g>
      <path d="M183.935,33.812a.61.61,0,0,0,.57.42h1.28a.66.66,0,0,0,.52-.67l.07-1.57a.909.909,0,0,1,.63-1c.21-.19.5-.27.71-.46a1.1,1.1,0,0,1,1.08.15l1.43,1a.743.743,0,0,0,.69-.07l.93-1a.68.68,0,0,0-.16-.8l-1.12-1.23a.8.8,0,0,1-.15-1l-.09-.1a1.063,1.063,0,0,0,.33-.67c0-.39.23-.78.92-.84l1.49-.23a.781.781,0,0,0,.52-.66l-.13-1.38a.48.48,0,0,0-.528-.427l-.042.007-1.57-.07a.941.941,0,0,1-1-.63c-.19-.21-.27-.5-.46-.71a1.576,1.576,0,0,1,.05-1.18l.94-1.24a.71.71,0,0,0-.06-.89l-1-.74a.6.6,0,0,0-.79,0l-1.14,1.23a1,1,0,0,1-1.09.25,3,3,0,0,0-.78-.23l-.09-.1a1,1,0,0,1-.75-.82l-.22-1.68a.609.609,0,0,0-.57-.42l-1.39.13a.48.48,0,0,0-.427.528c0,.014,0,.028.007.042l-.18,1.67c0,.59-.23.78-.53.86a1.715,1.715,0,0,0-.71.46,1,1,0,0,1-1.18-.05l-1.33-1a.759.759,0,0,0-.79.16l-.93,1a.87.87,0,0,0,.16.79l1.12,1.23c.38.41.46.71.15,1,0,.2-.12.49-.14.88s-.22.58-.92.65l-1.59.32a.61.61,0,0,0-.42.57l.13,1.38a.63.63,0,0,0,.47.51h1.67c.59,0,.78.23.86.53a8.737,8.737,0,0,1,.45.91.88.88,0,0,1,0,1.09l-1,1.33a.761.761,0,0,0,.16.79l.95.83a.6.6,0,0,0,.79,0l1.14-1.23a1,1,0,0,1,1.09-.25l.87.33c.39,0,.58.22.75.82l.32,1.59m3.86-9a3.461,3.461,0,0,1-3.06,3.52,3.209,3.209,0,0,1-3.6-3.12,3.3,3.3,0,0,1,3-3.5,3.339,3.339,0,0,1,3.694,2.943l.006.057" fill="#bad80a"/>
      <path d="M112.838,93.814a.61.61,0,0,0,.57.42h1.28a.66.66,0,0,0,.52-.67l.07-1.57a.909.909,0,0,1,.63-1c.21-.19.5-.27.71-.46a1.1,1.1,0,0,1,1.08.15l1.43,1a.743.743,0,0,0,.69-.07l.93-1a.68.68,0,0,0-.16-.8l-1.12-1.23a.8.8,0,0,1-.15-1l-.09-.1a1.063,1.063,0,0,0,.33-.67c0-.39.23-.78.92-.84l1.49-.23a.781.781,0,0,0,.52-.66l-.13-1.38a.481.481,0,0,0-.529-.427l-.041.007-1.59-.16a.941.941,0,0,1-1-.63c-.19-.21-.27-.5-.46-.71a1.576,1.576,0,0,1,.05-1.18l.94-1.24a.71.71,0,0,0-.06-.89l-1-.74a.6.6,0,0,0-.79,0l-1.1,1.19a1,1,0,0,1-1.09.25,3,3,0,0,0-.78-.23l-.09-.1a1,1,0,0,1-.75-.82l-.22-1.68a.609.609,0,0,0-.57-.42l-1.39.13a.48.48,0,0,0-.427.528c0,.014,0,.028.007.042l-.18,1.67c0,.59-.23.78-.53.86a1.715,1.715,0,0,0-.71.46,1,1,0,0,1-1.18-.05l-1.33-1a.758.758,0,0,0-.79.16l-.93,1a.867.867,0,0,0,.16.79l1.12,1.23c.38.41.46.71.15,1,0,.2-.12.49-.14.88s-.22.58-.92.65l-1.59.32a.609.609,0,0,0-.42.57l.13,1.38a.63.63,0,0,0,.47.51h1.67c.59,0,.78.23.86.53a8.94,8.94,0,0,1,.45.91.88.88,0,0,1,0,1.09l-1,1.33a.759.759,0,0,0,.16.79l.95.83a.6.6,0,0,0,.79,0l1.14-1.23a1,1,0,0,1,1.09-.25l.87.33c.39,0,.58.22.75.82l.32,1.59m3.86-9a3.46,3.46,0,0,1-3.12,3.6,3.209,3.209,0,0,1-3.6-3.12,3.3,3.3,0,0,1,3-3.5,3.339,3.339,0,0,1,3.694,2.943l.006.057" fill="#2dbceb"/>
      <g>
        <path d="M177.35,77.594a4.347,4.347,0,0,1-6.014,6.279L150.576,64.03c-.241.085-.482.168-.733.235a10.026,10.026,0,0,1-12.276-7.089,9.91,9.91,0,0,1-.138-4.5l5.195,3.793a4.346,4.346,0,1,0,5.167-6.989l-5.144-3.757a10.024,10.024,0,0,1,14.325,6.291,9.93,9.93,0,0,1-.231,5.879Zm-2.333,5.888a2.855,2.855,0,1,0-3.5-2.025A2.855,2.855,0,0,0,175.017,83.482Z" fill="#0078d7"/>
        <path d="M145.877,26.671a.64.64,0,0,1-.1-1.272,27.979,27.979,0,0,1,3.259-.319.639.639,0,1,1,.05,1.278,26.814,26.814,0,0,0-3.11.3A.562.562,0,0,1,145.877,26.671Zm9.554.188a.669.669,0,0,1-.125-.012,26.781,26.781,0,0,0-3.095-.428.64.64,0,1,1,.1-1.276,28.3,28.3,0,0,1,3.244.449.64.64,0,0,1-.125,1.267Zm-13.408.713a.64.64,0,0,1-.192-1.25c.247-.078.5-.152.747-.222a.64.64,0,1,1,.348,1.231c-.238.067-.476.138-.711.212A.639.639,0,0,1,142.023,27.572ZM161.5,28.837a.651.651,0,0,1-.269-.059,26.319,26.319,0,0,0-2.907-1.142.64.64,0,1,1,.4-1.216,27.712,27.712,0,0,1,3.05,1.2.64.64,0,0,1-.271,1.22Zm5.436,3.355a.642.642,0,0,1-.4-.139,26.5,26.5,0,0,0-2.555-1.8.64.64,0,1,1,.673-1.088,27.79,27.79,0,0,1,2.681,1.883.64.64,0,0,1-.4,1.14Zm4.5,4.533a.64.64,0,0,1-.5-.246,26.776,26.776,0,0,0-2.067-2.341.64.64,0,0,1,.909-.9,27.974,27.974,0,0,1,2.167,2.454.64.64,0,0,1-.5,1.034Zm3.31,5.455a.642.642,0,0,1-.584-.376,26.229,26.229,0,0,0-1.456-2.759.64.64,0,0,1,1.095-.663,27.382,27.382,0,0,1,1.528,2.894.642.642,0,0,1-.583.9Zm1.928,6.081a.64.64,0,0,1-.628-.519,27.017,27.017,0,0,0-.765-3.026.64.64,0,1,1,1.22-.386,27.841,27.841,0,0,1,.8,3.172.641.641,0,0,1-.509.749A.714.714,0,0,1,176.678,48.261Zm.452,6.367H177.1a.64.64,0,0,1-.61-.669q.03-.626.03-1.252c0-.621-.022-1.25-.066-1.869a.64.64,0,0,1,1.277-.09c.046.649.07,1.308.07,1.959q0,.657-.031,1.312A.641.641,0,0,1,177.13,54.628Zm-1.05,6.3a.62.62,0,0,1-.179-.026.639.639,0,0,1-.436-.793,26.8,26.8,0,0,0,.694-3.043.64.64,0,0,1,1.263.21,27.6,27.6,0,0,1-.728,3.191A.64.64,0,0,1,176.08,60.924Z" fill="#acd1ef"/>
        <path d="M153.968,38.3a.617.617,0,0,1-.158-.02,15.033,15.033,0,0,0-3.031-.443.64.64,0,0,1,.054-1.279,16.239,16.239,0,0,1,3.292.483.639.639,0,0,1-.157,1.259Zm-9.438.561a.64.64,0,0,1-.23-1.237,16.3,16.3,0,0,1,3.212-.869.64.64,0,1,1,.206,1.263,15.04,15.04,0,0,0-2.958.8A.641.641,0,0,1,144.53,38.865ZM159.675,41.1a.636.636,0,0,1-.393-.136,14.821,14.821,0,0,0-2.6-1.624.64.64,0,1,1,.564-1.149,16.075,16.075,0,0,1,2.82,1.765.64.64,0,0,1-.394,1.144Zm4.112,4.845a.64.64,0,0,1-.563-.334,14.806,14.806,0,0,0-1.733-2.526.64.64,0,0,1,.977-.828A16.093,16.093,0,0,1,164.349,45a.639.639,0,0,1-.562.944Zm1.817,6.087a.639.639,0,0,1-.637-.586,14.945,14.945,0,0,0-.57-3.008.64.64,0,0,1,1.227-.366,16.134,16.134,0,0,1,.618,3.267.639.639,0,0,1-.584.691A.487.487,0,0,1,165.6,52.031Zm-.766,6.306a.64.64,0,0,1-.607-.845,14.908,14.908,0,0,0,.679-2.986.64.64,0,0,1,1.271.154,16.156,16.156,0,0,1-.737,3.242A.639.639,0,0,1,164.838,58.337Z" fill="#acd1ef"/>
        <path d="M119.7,52.28a.629.629,0,0,1-.1-.009.64.64,0,0,1-.527-.736,27.852,27.852,0,0,1,.728-3.191.64.64,0,0,1,1.229.358,26.718,26.718,0,0,0-.694,3.044A.64.64,0,0,1,119.7,52.28Zm-.3,6.375a.64.64,0,0,1-.638-.595c-.046-.649-.069-1.308-.069-1.959q0-.657.031-1.312a.631.631,0,0,1,.67-.609.64.64,0,0,1,.609.669q-.03.624-.029,1.252c0,.62.022,1.249.065,1.869a.639.639,0,0,1-.593.683Zm1.2,6.269a.64.64,0,0,1-.61-.448,28.2,28.2,0,0,1-.8-3.171.641.641,0,0,1,1.259-.24,26.589,26.589,0,0,0,.765,3.026.64.64,0,0,1-.418.8A.647.647,0,0,1,120.6,64.924Zm2.639,5.809a.642.642,0,0,1-.549-.308,27.96,27.96,0,0,1-1.528-2.894A.64.64,0,0,1,122.325,67a26.436,26.436,0,0,0,1.457,2.759.641.641,0,0,1-.547.971Zm3.933,5.026a.635.635,0,0,1-.454-.19,27.923,27.923,0,0,1-2.167-2.453.641.641,0,0,1,1.01-.788,26.725,26.725,0,0,0,2.066,2.341.64.64,0,0,1-.455,1.09Zm5,3.975a.641.641,0,0,1-.336-.095,27.729,27.729,0,0,1-2.681-1.884.64.64,0,1,1,.8-1,26.5,26.5,0,0,0,2.555,1.8.64.64,0,0,1-.336,1.184Zm5.8,2.685a.651.651,0,0,1-.2-.032,27.712,27.712,0,0,1-3.05-1.2.64.64,0,0,1,.539-1.161,26.412,26.412,0,0,0,2.908,1.142.64.64,0,0,1-.2,1.248Zm15.774.312a.64.64,0,0,1-.173-1.256c.238-.067.475-.137.711-.212a.64.64,0,0,1,.383,1.222c-.249.077-.5.151-.746.222A.659.659,0,0,1,153.739,82.731Zm-9.508.934-.052,0a28.252,28.252,0,0,1-3.243-.448.64.64,0,1,1,.25-1.255,26.563,26.563,0,0,0,3.095.427.64.64,0,0,1-.05,1.278Zm3.2.063a.64.64,0,0,1-.025-1.279,26.974,26.974,0,0,0,3.109-.3.639.639,0,1,1,.2,1.263,27.824,27.824,0,0,1-3.26.32Z" fill="#acd1ef"/>
        <path d="M130.946,54.863a.679.679,0,0,1-.078,0,.64.64,0,0,1-.559-.713,16.259,16.259,0,0,1,.737-3.24.641.641,0,0,1,1.214.409,14.839,14.839,0,0,0-.679,2.986A.641.641,0,0,1,130.946,54.863Zm.533,6.33a.638.638,0,0,1-.613-.457,16.137,16.137,0,0,1-.618-3.266.64.64,0,0,1,1.275-.107,14.958,14.958,0,0,0,.57,3.008.641.641,0,0,1-.431.8A.685.685,0,0,1,131.479,61.193Zm3.033,5.583a.64.64,0,0,1-.489-.226,16.134,16.134,0,0,1-1.881-2.742.64.64,0,0,1,1.126-.61A14.832,14.832,0,0,0,135,65.723a.64.64,0,0,1-.488,1.053Zm5.012,3.906a.633.633,0,0,1-.282-.066,16.011,16.011,0,0,1-2.82-1.764.639.639,0,1,1,.787-1.008,14.88,14.88,0,0,0,2.6,1.624.64.64,0,0,1-.282,1.214Zm9.352,1.373a.64.64,0,0,1-.1-1.271,14.984,14.984,0,0,0,2.958-.8.64.64,0,1,1,.46,1.2,16.307,16.307,0,0,1-3.212.868A.6.6,0,0,1,148.876,72.055Zm-3.19.189h-.028a16.248,16.248,0,0,1-3.292-.482.64.64,0,1,1,.315-1.24,15.044,15.044,0,0,0,3.032.444.639.639,0,0,1-.027,1.278Z" fill="#acd1ef"/>
      </g>
    </g>
  </g>
</svg>
