<svg xmlns="http://www.w3.org/2000/svg" viewBox="0 0 298 110">
  <title>4 - dma</title>
  <g id="background_blue" data-name="background blue">
    <rect x="0.001" y="-0.107" width="298" height="110" fill="#e4edf1"/>
  </g>
  <g id="Shapes">
    <g>
      <ellipse cx="148.869" cy="55.306" rx="14.992" ry="15.524" fill="none" stroke="#0072c6" stroke-miterlimit="10" stroke-width="1.14"/>
      <ellipse cx="148.869" cy="55.306" rx="11.244" ry="11.643" fill="none" stroke="#0072c6" stroke-miterlimit="10" stroke-width="1.14"/>
      <ellipse cx="148.869" cy="55.306" rx="7.496" ry="7.762" fill="none" stroke="#0072c6" stroke-miterlimit="10" stroke-width="1.14"/>
      <ellipse cx="148.869" cy="55.306" rx="3.748" ry="3.881" fill="none" stroke="#0072c6" stroke-miterlimit="10" stroke-width="1.14"/>
    </g>
    <g>
      <line x1="148.474" y1="39.782" x2="207.981" y2="39.782" fill="none" stroke="#0072c6" stroke-miterlimit="10" stroke-width="1.14"/>
      <polygon points="204.203 44.445 203.425 43.61 207.543 39.783 203.425 35.955 204.203 35.12 209.217 39.783 204.203 44.445" fill="#0072c6"/>
    </g>
    <g>
      <line x1="86.557" y1="70.83" x2="138.181" y2="70.83" fill="none" stroke="#0072c6" stroke-miterlimit="10" stroke-width="1.14"/>
      <polygon points="134.403 75.493 133.625 74.658 137.743 70.831 133.625 67.003 134.403 66.167 139.417 70.831 134.403 75.493" fill="#0072c6"/>
    </g>
    <g>
      <rect x="34.998" y="25.103" width="49.497" height="60" fill-opacity="0"/>
      <rect x="37.413" y="25.103" width="45.151" height="60" fill-opacity="0"/>
      <path d="M37.413,33.312V76.893c0,4.467,10.14,8.21,22.575,8.21V33.312Z" fill="#0072c6"/>
      <path d="M59.626,85.1h.362c12.555,0,22.575-3.622,22.575-8.21V33.312H59.626V85.1Z" fill="#0072c6"/>
      <path d="M59.626,85.1h.362c12.555,0,22.575-3.622,22.575-8.21V33.312H59.626V85.1Z" fill="#fff" opacity="0.15" style="isolation: isolate"/>
      <path d="M82.563,33.312c0,4.467-10.14,8.209-22.575,8.209S37.413,37.9,37.413,33.312c0-4.467,10.14-8.209,22.575-8.209S82.563,28.845,82.563,33.312Z" fill="#fff"/>
      <path d="M77.976,32.95c0,2.9-8.089,5.312-17.988,5.312S42,35.847,42,32.95c0-3.018,8.089-5.433,17.988-5.433S77.976,29.932,77.976,32.95Z" fill="#7fba00"/>
      <path d="M74.234,36.209c2.414-.966,3.742-2.052,3.742-3.259,0-3.018-8.089-5.433-17.988-5.433S42,29.932,42,32.95c0,1.207,1.449,2.414,3.743,3.259,3.259-1.328,8.45-2.052,14.245-2.052C65.783,34.036,70.974,34.881,74.234,36.209Z" fill="#b8d432"/>
      <rect x="34.998" y="45.626" width="49.497" height="26.559" fill-opacity="0"/>
      <path d="M44.034,64.455V61.626a5.541,5.541,0,0,0,1.671.973,5.45,5.45,0,0,0,1.822.318,4.028,4.028,0,0,0,.937-.1,2.227,2.227,0,0,0,.672-.266,1.222,1.222,0,0,0,.407-.406,1.048,1.048,0,0,0,.132-.513,1.093,1.093,0,0,0-.212-.663,2.25,2.25,0,0,0-.583-.54,5.838,5.838,0,0,0-.867-.477q-.5-.231-1.087-.469a5.584,5.584,0,0,1-2.22-1.512,3.314,3.314,0,0,1-.725-2.157,3.414,3.414,0,0,1,.4-1.7,3.37,3.37,0,0,1,1.079-1.176,4.82,4.82,0,0,1,1.591-.672,8.024,8.024,0,0,1,1.91-.221,10.948,10.948,0,0,1,1.751.124,6.688,6.688,0,0,1,1.415.362V55.18a4.23,4.23,0,0,0-.7-.389,4.982,4.982,0,0,0-.769-.274,5.7,5.7,0,0,0-1.539-.221,3.717,3.717,0,0,0-.884.1,2.2,2.2,0,0,0-.672.256,1.276,1.276,0,0,0-.424.407.926.926,0,0,0-.151.522,1.027,1.027,0,0,0,.168.575,2.035,2.035,0,0,0,.478.477,5.655,5.655,0,0,0,.751.442q.443.213,1,.442a10.393,10.393,0,0,1,1.361.681,4.709,4.709,0,0,1,1.044.8,3.141,3.141,0,0,1,.663,1.034,4.088,4.088,0,0,1-.177,3.13,3.275,3.275,0,0,1-1.088,1.168,4.783,4.783,0,0,1-1.609.636,9.19,9.19,0,0,1-1.927.195,10.81,10.81,0,0,1-1.99-.177A5.991,5.991,0,0,1,44.034,64.455Zm16.093.708a5.911,5.911,0,0,1-4.439-1.769,6.4,6.4,0,0,1-1.715-4.624,6.835,6.835,0,0,1,1.742-4.863A6.011,6.011,0,0,1,60.33,52.05a5.74,5.74,0,0,1,4.386,1.777,6.523,6.523,0,0,1,1.68,4.686,6.721,6.721,0,0,1-1.742,4.819c-.041.042-.08.083-.115.124s-.074.071-.115.106l3.21,3.086h-4l-1.68-1.706A7.126,7.126,0,0,1,60.127,65.163Zm.124-10.655a2.886,2.886,0,0,0-2.388,1.132,4.684,4.684,0,0,0-.884,2.98,4.616,4.616,0,0,0,.884,2.979,2.835,2.835,0,0,0,2.317,1.1,2.868,2.868,0,0,0,2.343-1.061,4.6,4.6,0,0,0,.867-2.962,4.977,4.977,0,0,0-.84-3.069A2.728,2.728,0,0,0,60.251,54.508ZM76.06,64.942H68.509V52.262h2.856V62.625h4.7Z" fill="#fff"/>
    </g>
    <g>
      <rect x="212.56" y="25.103" width="49.497" height="60" fill-opacity="0"/>
      <rect x="214.975" y="25.103" width="45.151" height="60" fill-opacity="0"/>
      <path d="M214.975,33.312V76.893c0,4.467,10.141,8.21,22.575,8.21V33.312Z" fill="#0072c6"/>
      <path d="M237.188,85.1h.362c12.556,0,22.576-3.622,22.576-8.21V33.312H237.188V85.1Z" fill="#0072c6"/>
      <path d="M237.188,85.1h.362c12.556,0,22.576-3.622,22.576-8.21V33.312H237.188V85.1Z" fill="#fff" opacity="0.15" style="isolation: isolate"/>
      <path d="M260.126,33.312c0,4.467-10.141,8.209-22.576,8.209s-22.575-3.622-22.575-8.209c0-4.467,10.141-8.209,22.575-8.209S260.126,28.845,260.126,33.312Z" fill="#fff"/>
      <path d="M255.538,32.95c0,2.9-8.088,5.312-17.988,5.312s-17.988-2.415-17.988-5.312c0-3.018,8.089-5.433,17.988-5.433S255.538,29.932,255.538,32.95Z" fill="#7fba00"/>
      <path d="M251.8,36.209c2.414-.966,3.742-2.052,3.742-3.259,0-3.018-8.088-5.433-17.988-5.433s-17.988,2.415-17.988,5.433c0,1.207,1.449,2.414,3.743,3.259,3.259-1.328,8.451-2.052,14.245-2.052C243.345,34.036,248.536,34.881,251.8,36.209Z" fill="#b8d432"/>
      <rect x="212.56" y="45.626" width="49.497" height="26.559" fill-opacity="0"/>
      <path d="M221.6,64.455V61.626a5.534,5.534,0,0,0,1.672.973,5.44,5.44,0,0,0,1.821.318,4.022,4.022,0,0,0,.937-.1,2.227,2.227,0,0,0,.672-.266,1.213,1.213,0,0,0,.407-.406,1.038,1.038,0,0,0,.133-.513,1.094,1.094,0,0,0-.213-.663,2.25,2.25,0,0,0-.583-.54,5.838,5.838,0,0,0-.867-.477q-.5-.231-1.087-.469a5.591,5.591,0,0,1-2.22-1.512,3.314,3.314,0,0,1-.725-2.157,3.414,3.414,0,0,1,.4-1.7,3.38,3.38,0,0,1,1.079-1.176,4.817,4.817,0,0,1,1.592-.672,8.009,8.009,0,0,1,1.909-.221,10.939,10.939,0,0,1,1.751.124,6.673,6.673,0,0,1,1.415.362V55.18a4.19,4.19,0,0,0-.7-.389,4.982,4.982,0,0,0-.769-.274,5.7,5.7,0,0,0-1.538-.221,3.725,3.725,0,0,0-.885.1,2.2,2.2,0,0,0-.672.256,1.285,1.285,0,0,0-.424.407.933.933,0,0,0-.15.522,1.027,1.027,0,0,0,.168.575,2.029,2.029,0,0,0,.477.477,5.608,5.608,0,0,0,.752.442c.294.142.628.289,1,.442a10.409,10.409,0,0,1,1.362.681,4.725,4.725,0,0,1,1.043.8,3.125,3.125,0,0,1,.663,1.034,4.088,4.088,0,0,1-.177,3.13,3.281,3.281,0,0,1-1.087,1.168,4.8,4.8,0,0,1-1.61.636,9.183,9.183,0,0,1-1.927.195,10.81,10.81,0,0,1-1.99-.177A6,6,0,0,1,221.6,64.455Zm16.093.708a5.911,5.911,0,0,1-4.439-1.769,6.4,6.4,0,0,1-1.715-4.624,6.84,6.84,0,0,1,1.742-4.863,6.012,6.012,0,0,1,4.615-1.857,5.74,5.74,0,0,1,4.386,1.777,6.523,6.523,0,0,1,1.68,4.686,6.721,6.721,0,0,1-1.742,4.819c-.041.042-.079.083-.115.124a1.488,1.488,0,0,1-.115.106l3.21,3.086h-4l-1.68-1.706A7.126,7.126,0,0,1,237.689,65.163Zm.124-10.655a2.887,2.887,0,0,0-2.388,1.132,4.684,4.684,0,0,0-.884,2.98,4.616,4.616,0,0,0,.884,2.979,2.835,2.835,0,0,0,2.317,1.1,2.865,2.865,0,0,0,2.343-1.061,4.6,4.6,0,0,0,.867-2.962,4.971,4.971,0,0,0-.84-3.069A2.727,2.727,0,0,0,237.813,54.508Zm15.81,10.434h-7.552V52.262h2.856V62.625h4.7Z" fill="#fff"/>
    </g>
  </g>
</svg>
