<svg xmlns="http://www.w3.org/2000/svg" xmlns:xlink="http://www.w3.org/1999/xlink" viewBox="0 0 298 110">
  <defs>
    <linearGradient id="linear-gradient" x1="141.182" y1="52.238" x2="197.545" y2="52.238" gradientTransform="translate(46.767)" gradientUnits="userSpaceOnUse">
      <stop offset="0" stop-color="#e4edf1"/>
      <stop offset="0.996" stop-color="#e4edf1" stop-opacity="0.15"/>
    </linearGradient>
  </defs>
  <title>4 - install-ssis</title>
  <g id="background_blue" data-name="background blue">
    <rect width="298" height="110" fill="#e4edf1"/>
  </g>
  <g id="Shapes">
    <path d="M179.046,96.789H228.71c22.122,0,40.049-18.54,40.049-41.406S250.824,13.977,228.71,13.977H70.319c-22.114,0-40.049,18.541-40.049,41.406S48.2,96.789,70.319,96.789H179.046Z" fill="none" stroke="#666" stroke-miterlimit="10" stroke-dasharray="2 2"/>
    <g>
      <rect x="51.998" y="29.331" width="41.247" height="50" fill-opacity="0"/>
      <rect x="54.01" y="29.331" width="37.626" height="50" fill-opacity="0"/>
      <path d="M54.01,36.172V72.489c0,3.723,8.451,6.842,18.813,6.842V36.172Z" fill="#0072c6"/>
      <path d="M72.521,79.331h.3c10.463,0,18.813-3.019,18.813-6.842V36.172H72.521V79.331Z" fill="#0072c6"/>
      <path d="M72.521,79.331h.3c10.463,0,18.813-3.019,18.813-6.842V36.172H72.521V79.331Z" fill="#fff" opacity="0.15" style="isolation: isolate"/>
      <path d="M91.636,36.172c0,3.722-8.451,6.841-18.813,6.841S54.01,39.995,54.01,36.172c0-3.723,8.451-6.841,18.813-6.841S91.636,32.449,91.636,36.172Z" fill="#fff"/>
      <path d="M87.813,35.87c0,2.414-6.74,4.426-14.99,4.426s-14.99-2.012-14.99-4.426c0-2.515,6.741-4.527,14.99-4.527S87.813,33.355,87.813,35.87Z" fill="#7fba00"/>
      <path d="M84.694,38.586c2.012-.8,3.119-1.71,3.119-2.716,0-2.515-6.74-4.527-14.99-4.527s-14.99,2.012-14.99,4.527c0,1.006,1.207,2.012,3.119,2.716,2.716-1.107,7.042-1.71,11.871-1.71A31.859,31.859,0,0,1,84.694,38.586Z" fill="#b8d432"/>
      <rect x="51.998" y="46.433" width="41.247" height="22.133" fill-opacity="0"/>
      <path d="M59.528,62.125V59.767a4.618,4.618,0,0,0,1.393.81,4.528,4.528,0,0,0,1.518.265,3.324,3.324,0,0,0,.781-.081,1.838,1.838,0,0,0,.56-.221,1.015,1.015,0,0,0,.339-.339.871.871,0,0,0,.11-.427.917.917,0,0,0-.177-.553,1.878,1.878,0,0,0-.486-.449,4.824,4.824,0,0,0-.722-.4q-.42-.192-.906-.391a4.64,4.64,0,0,1-1.85-1.26,2.759,2.759,0,0,1-.6-1.8,2.751,2.751,0,0,1,1.23-2.4,4.035,4.035,0,0,1,1.327-.56,6.651,6.651,0,0,1,1.591-.184,9.13,9.13,0,0,1,1.459.1,5.556,5.556,0,0,1,1.179.3v2.2a3.467,3.467,0,0,0-.582-.324,4.071,4.071,0,0,0-.641-.229,4.746,4.746,0,0,0-.663-.14,4.668,4.668,0,0,0-.619-.044,3.11,3.11,0,0,0-.737.081,1.828,1.828,0,0,0-.56.214,1.068,1.068,0,0,0-.354.339.78.78,0,0,0-.125.435.855.855,0,0,0,.14.478,1.683,1.683,0,0,0,.4.4,4.735,4.735,0,0,0,.626.369q.369.177.833.368a8.7,8.7,0,0,1,1.135.568,3.9,3.9,0,0,1,.869.67,2.624,2.624,0,0,1,.553.862,3.414,3.414,0,0,1-.148,2.609,2.723,2.723,0,0,1-.906.972,3.981,3.981,0,0,1-1.341.531,7.678,7.678,0,0,1-1.606.162,9.036,9.036,0,0,1-1.658-.147A5.034,5.034,0,0,1,59.528,62.125Zm13.411.589a4.923,4.923,0,0,1-3.7-1.474,5.332,5.332,0,0,1-1.43-3.853,5.7,5.7,0,0,1,1.452-4.053,5.009,5.009,0,0,1,3.846-1.547,4.783,4.783,0,0,1,3.655,1.481,5.436,5.436,0,0,1,1.4,3.905,5.6,5.6,0,0,1-1.452,4.016c-.034.034-.066.069-.095.1s-.062.059-.1.088l2.674,2.572h-3.33l-1.4-1.422A5.919,5.919,0,0,1,72.939,62.714Zm.1-8.879a2.407,2.407,0,0,0-1.99.943,3.9,3.9,0,0,0-.736,2.483,3.844,3.844,0,0,0,.736,2.483,2.36,2.36,0,0,0,1.931.914,2.392,2.392,0,0,0,1.953-.884,3.839,3.839,0,0,0,.722-2.469,4.143,4.143,0,0,0-.7-2.556A2.272,2.272,0,0,0,73.042,53.835Zm13.175,8.7H79.924V51.963H82.3V60.6h3.913Z" fill="#fff"/>
    </g>
    <g>
      <g>
        <path d="M229.556,71.229H215.365c1.67,5.948-.626,6.887-10.643,6.887v3.131h34.017V78.116C228.826,78.116,227.887,77.281,229.556,71.229Z" fill="#7a7a7a"/>
        <path d="M244.791,33.247H198.565a2.9,2.9,0,0,0-2.817,2.921V68.307a2.9,2.9,0,0,0,2.817,2.922h46.226a3.178,3.178,0,0,0,3.131-2.922V36.168A3.177,3.177,0,0,0,244.791,33.247Zm-.835,3.965V67.16H199.713V37.212l44.243-.105Z" fill="#3e3e3e"/>
        <polygon points="243.852 37.212 243.852 67.264 199.713 67.264 199.713 37.212 243.956 37.212 243.852 37.212" fill="#00bbf1"/>
        <path d="M199.713,67.264h0V37.212H240.1l4.695-3.965H198.565a2.9,2.9,0,0,0-2.817,2.921V68.307a2.9,2.9,0,0,0,2.817,2.922h1.148l4.8-3.965Z" fill="#7a7a7a"/>
        <polygon points="199.713 67.264 199.713 67.264 199.713 37.212 240.096 37.212 240.096 37.212 199.713 37.212 199.713 67.264" fill="#59b4d9"/>
        <rect x="204.826" y="78.116" width="34.122" height="3.13" fill="#b0b0b0"/>
      </g>
      <rect x="187.949" y="37.212" width="56.364" height="30.052" fill="url(#linear-gradient)"/>
      <g>
        <polygon points="193.193 63.041 200.826 55.407 189.195 55.407 189.195 48.86 200.826 48.86 193.193 41.226 202.888 41.226 213.795 52.134 202.888 63.041 193.193 63.041" fill="#e4edf1"/>
        <polygon points="202.586 49.589 189.924 49.589 189.924 54.678 202.586 54.678 194.952 62.312 202.586 62.312 212.764 52.134 202.586 41.955 194.952 41.955 202.586 49.589" fill="#2e6ca4"/>
      </g>
    </g>
  </g>
  <g id="Captions">
    <g>
      <path d="M112.651,66.319V64.112a11.235,11.235,0,0,0,6.094,1.914,7.843,7.843,0,0,0,4.98-1.357,4.587,4.587,0,0,0,1.7-3.8,4.962,4.962,0,0,0-1.142-3.428,22.586,22.586,0,0,0-4.952-3.486q-4.257-2.48-5.39-4.15a6.71,6.71,0,0,1-1.133-3.858,6.527,6.527,0,0,1,2.3-5.039,8.86,8.86,0,0,1,6.152-2.07,15.616,15.616,0,0,1,5,.84V41.71A12.6,12.6,0,0,0,121.01,40.6a6.674,6.674,0,0,0-4.521,1.445,4.643,4.643,0,0,0-1.67,3.672,4.92,4.92,0,0,0,1.142,3.418,22.536,22.536,0,0,0,4.932,3.457,17.641,17.641,0,0,1,5.225,3.955,6.439,6.439,0,0,1,1.3,3.975,6.771,6.771,0,0,1-2.236,5.254,9.067,9.067,0,0,1-6.318,2.031,14.6,14.6,0,0,1-3.33-.449A10.787,10.787,0,0,1,112.651,66.319Z" fill="#2e6ca4"/>
      <path d="M131.43,66.319V64.112a11.235,11.235,0,0,0,6.094,1.914,7.843,7.843,0,0,0,4.98-1.357,4.587,4.587,0,0,0,1.7-3.8,4.957,4.957,0,0,0-1.142-3.428,22.6,22.6,0,0,0-4.951-3.486q-4.259-2.48-5.391-4.15a6.71,6.71,0,0,1-1.133-3.858,6.527,6.527,0,0,1,2.3-5.039,8.86,8.86,0,0,1,6.152-2.07,15.616,15.616,0,0,1,5,.84V41.71a12.6,12.6,0,0,0-5.254-1.113,6.674,6.674,0,0,0-4.521,1.445,4.646,4.646,0,0,0-1.67,3.672,4.915,4.915,0,0,0,1.143,3.418,22.5,22.5,0,0,0,4.931,3.457,17.627,17.627,0,0,1,5.225,3.955,6.44,6.44,0,0,1,1.3,3.975,6.769,6.769,0,0,1-2.237,5.254,9.065,9.065,0,0,1-6.318,2.031,14.6,14.6,0,0,1-3.33-.449A10.787,10.787,0,0,1,131.43,66.319Z" fill="#2e6ca4"/>
      <path d="M150.9,67.316V39.308h1.933V67.316Z" fill="#2e6ca4"/>
      <path d="M157.965,66.319V64.112a11.235,11.235,0,0,0,6.094,1.914,7.841,7.841,0,0,0,4.98-1.357,4.588,4.588,0,0,0,1.7-3.8,4.957,4.957,0,0,0-1.143-3.428,22.6,22.6,0,0,0-4.951-3.486q-4.258-2.48-5.391-4.15a6.71,6.71,0,0,1-1.133-3.858,6.527,6.527,0,0,1,2.3-5.039,8.86,8.86,0,0,1,6.152-2.07,15.611,15.611,0,0,1,5,.84V41.71a12.6,12.6,0,0,0-5.253-1.113,6.675,6.675,0,0,0-4.522,1.445,4.646,4.646,0,0,0-1.67,3.672,4.915,4.915,0,0,0,1.143,3.418,22.5,22.5,0,0,0,4.931,3.457,17.613,17.613,0,0,1,5.225,3.955,6.44,6.44,0,0,1,1.3,3.975,6.771,6.771,0,0,1-2.236,5.254,9.07,9.07,0,0,1-6.319,2.031,14.6,14.6,0,0,1-3.33-.449A10.787,10.787,0,0,1,157.965,66.319Z" fill="#2e6ca4"/>
    </g>
  </g>
</svg>
