<svg xmlns="http://www.w3.org/2000/svg" xmlns:xlink="http://www.w3.org/1999/xlink" viewBox="0 0 298 110">
  <defs>
    <linearGradient id="linear-gradient" x1="67.808" y1="46.652" x2="161.747" y2="46.652" gradientTransform="translate(46.767)" gradientUnits="userSpaceOnUse">
      <stop offset="0" stop-color="#e4edf1"/>
      <stop offset="0.996" stop-color="#e4edf1" stop-opacity="0.15"/>
    </linearGradient>
  </defs>
  <title>4 - install-sql</title>
  <g id="background_blue" data-name="background blue">
    <rect width="298" height="110" fill="#e4edf1"/>
  </g>
  <g id="Shapes">
    <g>
      <g>
        <path d="M183.921,78.3H160.269c2.782,9.913-1.044,11.479-17.74,11.479V95h56.7V89.783C182.7,89.783,181.138,88.391,183.921,78.3Z" fill="#7a7a7a"/>
        <path d="M209.312,15H132.269a4.827,4.827,0,0,0-4.7,4.87V73.435a4.827,4.827,0,0,0,4.7,4.869h77.043c2.609,0,5.217-2.261,5.217-4.869V19.87C214.529,17.261,211.921,15,209.312,15Zm-1.391,6.609V71.522H134.182V21.609l73.739-.174Z" fill="#3e3e3e"/>
        <polygon points="207.747 21.609 207.747 71.696 134.182 71.696 134.182 21.609 207.921 21.609 207.747 21.609" fill="#00bbf1"/>
        <path d="M134.182,71.7h0V21.609h67.3L209.312,15H132.269a4.827,4.827,0,0,0-4.7,4.87V73.435a4.827,4.827,0,0,0,4.7,4.869h1.913l8-6.608Z" fill="#7a7a7a"/>
        <polygon points="134.182 71.696 134.182 71.696 134.182 21.609 201.486 21.609 201.486 21.609 134.182 21.609 134.182 71.696" fill="#59b4d9"/>
        <rect x="142.703" y="89.783" width="56.87" height="5.217" fill="#b0b0b0"/>
      </g>
      <rect x="114.575" y="21.609" width="93.939" height="50.087" fill="url(#linear-gradient)"/>
      <g>
        <polygon points="123.314 64.657 136.037 51.934 116.652 51.934 116.652 41.022 136.037 41.022 123.314 28.299 139.473 28.299 157.652 46.478 139.473 64.657 123.314 64.657" fill="#e4edf1"/>
        <polygon points="138.97 42.237 117.867 42.237 117.867 50.719 138.97 50.719 126.247 63.442 138.97 63.442 155.934 46.478 138.97 29.514 126.247 29.514 138.97 42.237" fill="#2e6ca4"/>
      </g>
      <g>
        <rect x="84.746" y="55" width="32.998" height="40" fill-opacity="0"/>
        <rect x="86.356" y="55" width="30.101" height="40" fill-opacity="0"/>
        <path d="M86.356,60.473V89.527c0,2.978,6.76,5.473,15.05,5.473V60.473Z" fill="#0072c6"/>
        <path d="M101.165,95h.241c8.37,0,15.05-2.414,15.05-5.473V60.473H101.165V95Z" fill="#0072c6"/>
        <path d="M101.165,95h.241c8.37,0,15.05-2.414,15.05-5.473V60.473H101.165V95Z" fill="#fff" opacity="0.15" style="isolation: isolate"/>
        <path d="M116.456,60.473c0,2.978-6.76,5.473-15.05,5.473s-15.05-2.415-15.05-5.473c0-2.978,6.76-5.473,15.05-5.473S116.456,57.5,116.456,60.473Z" fill="#fff"/>
        <path d="M113.4,60.231c0,1.932-5.392,3.542-11.992,3.542s-11.992-1.61-11.992-3.542c0-2.012,5.393-3.621,11.992-3.621S113.4,58.219,113.4,60.231Z" fill="#7fba00"/>
        <path d="M110.9,62.4c1.61-.643,2.495-1.368,2.495-2.173,0-2.012-5.392-3.621-11.992-3.621s-11.992,1.609-11.992,3.621c0,.8.966,1.61,2.5,2.173a27.29,27.29,0,0,1,9.5-1.368A25.518,25.518,0,0,1,110.9,62.4Z" fill="#b8d432"/>
        <rect x="84.746" y="68.682" width="32.998" height="17.706" fill-opacity="0"/>
        <path d="M90.77,81.235V79.349A3.661,3.661,0,0,0,91.884,80a3.616,3.616,0,0,0,1.215.212,2.662,2.662,0,0,0,.624-.064,1.505,1.505,0,0,0,.448-.177.818.818,0,0,0,.272-.271.692.692,0,0,0,.088-.342.733.733,0,0,0-.141-.442,1.512,1.512,0,0,0-.389-.36,3.926,3.926,0,0,0-.578-.318c-.224-.1-.466-.207-.725-.313a3.727,3.727,0,0,1-1.48-1.008,2.21,2.21,0,0,1-.483-1.438,2.2,2.2,0,0,1,.984-1.916,3.251,3.251,0,0,1,1.061-.448,5.353,5.353,0,0,1,1.274-.147,7.339,7.339,0,0,1,1.167.082,4.471,4.471,0,0,1,.943.242v1.763a2.788,2.788,0,0,0-.466-.26,3.473,3.473,0,0,0-.513-.183,3.679,3.679,0,0,0-.53-.112,3.764,3.764,0,0,0-.5-.035,2.5,2.5,0,0,0-.59.065,1.444,1.444,0,0,0-.448.171.857.857,0,0,0-.283.271.619.619,0,0,0-.1.348.682.682,0,0,0,.112.383,1.366,1.366,0,0,0,.318.318,3.71,3.71,0,0,0,.5.3c.2.094.419.193.667.3a6.966,6.966,0,0,1,.907.454,3.163,3.163,0,0,1,.7.536,2.09,2.09,0,0,1,.442.69,2.728,2.728,0,0,1-.118,2.086,2.183,2.183,0,0,1-.725.779,3.188,3.188,0,0,1-1.073.424,6.172,6.172,0,0,1-1.285.13,7.252,7.252,0,0,1-1.326-.118A4.019,4.019,0,0,1,90.77,81.235Zm10.729.472a3.938,3.938,0,0,1-2.959-1.179A4.265,4.265,0,0,1,97.4,77.445,4.56,4.56,0,0,1,98.557,74.2a4.006,4.006,0,0,1,3.077-1.238,3.827,3.827,0,0,1,2.924,1.185,4.347,4.347,0,0,1,1.12,3.124,4.483,4.483,0,0,1-1.161,3.213c-.028.027-.053.055-.077.082s-.049.047-.077.071L106.5,82.7h-2.664l-1.12-1.138A4.71,4.71,0,0,1,101.5,81.707Zm.082-7.1a1.923,1.923,0,0,0-1.591.754,3.121,3.121,0,0,0-.59,1.987,3.074,3.074,0,0,0,.59,1.986,1.888,1.888,0,0,0,1.544.731,1.912,1.912,0,0,0,1.562-.707,3.072,3.072,0,0,0,.578-1.975,3.319,3.319,0,0,0-.56-2.046A1.817,1.817,0,0,0,101.581,74.6Zm10.54,6.955h-5.034V73.106h1.9v6.909h3.13Z" fill="#fff"/>
      </g>
    </g>
  </g>
</svg>
