<svg xmlns="http://www.w3.org/2000/svg" xmlns:xlink="http://www.w3.org/1999/xlink" viewBox="0 0 298 110">
  <defs>
    <linearGradient id="linear-gradient" x1="141.264" y1="52.487" x2="197.628" y2="52.487" gradientTransform="translate(46.767)" gradientUnits="userSpaceOnUse">
      <stop offset="0" stop-color="#e4edf1"/>
      <stop offset="0.996" stop-color="#e4edf1" stop-opacity="0.15"/>
    </linearGradient>
  </defs>
  <title>4 - install-ssas</title>
  <g id="background_blue" data-name="background blue">
    <rect width="298" height="110" fill="#e4edf1"/>
  </g>
  <g id="Shapes">
    <path d="M179.046,96.789H228.71c22.122,0,40.049-18.54,40.049-41.406S250.824,13.977,228.71,13.977H70.319c-22.114,0-40.049,18.541-40.049,41.406S48.2,96.789,70.319,96.789H179.046Z" fill="none" stroke="#666" stroke-miterlimit="10" stroke-dasharray="2 2"/>
    <g>
      <rect x="52.081" y="29.58" width="41.247" height="50" fill-opacity="0"/>
      <rect x="54.093" y="29.58" width="37.626" height="50" fill-opacity="0"/>
      <path d="M54.093,36.421V72.739c0,3.722,8.45,6.841,18.812,6.841V36.421Z" fill="#0072c6"/>
      <path d="M72.6,79.58h.3c10.463,0,18.813-3.018,18.813-6.841V36.421H72.6V79.58Z" fill="#0072c6"/>
      <path d="M72.6,79.58h.3c10.463,0,18.813-3.018,18.813-6.841V36.421H72.6V79.58Z" fill="#fff" opacity="0.15" style="isolation: isolate"/>
      <path d="M91.718,36.421c0,3.722-8.45,6.841-18.813,6.841s-18.812-3.018-18.812-6.841c0-3.722,8.45-6.841,18.812-6.841S91.718,32.7,91.718,36.421Z" fill="#fff"/>
      <path d="M87.9,36.119c0,2.415-6.74,4.427-14.99,4.427s-14.989-2.012-14.989-4.427c0-2.515,6.74-4.527,14.989-4.527S87.9,33.6,87.9,36.119Z" fill="#7fba00"/>
      <path d="M84.777,38.835c2.012-.8,3.118-1.71,3.118-2.716,0-2.515-6.74-4.527-14.99-4.527S57.916,33.6,57.916,36.119c0,1.006,1.207,2.012,3.118,2.716,2.717-1.106,7.043-1.71,11.871-1.71A31.909,31.909,0,0,1,84.777,38.835Z" fill="#b8d432"/>
      <rect x="52.081" y="46.683" width="41.247" height="22.133" fill-opacity="0"/>
      <path d="M59.611,62.374V60.016a4.466,4.466,0,0,0,2.91,1.076,3.318,3.318,0,0,0,.781-.081,1.853,1.853,0,0,0,.56-.221,1.033,1.033,0,0,0,.339-.339.865.865,0,0,0,.111-.428.914.914,0,0,0-.177-.552,1.887,1.887,0,0,0-.487-.45,4.915,4.915,0,0,0-.722-.4c-.28-.127-.582-.258-.906-.39a4.656,4.656,0,0,1-1.849-1.26,2.762,2.762,0,0,1-.6-1.8A2.749,2.749,0,0,1,60.8,52.78a4.042,4.042,0,0,1,1.326-.56,6.66,6.66,0,0,1,1.592-.184,9.148,9.148,0,0,1,1.459.1,5.649,5.649,0,0,1,1.179.3v2.2a3.614,3.614,0,0,0-.582-.324,4.208,4.208,0,0,0-.641-.228,4.751,4.751,0,0,0-1.283-.184,3.1,3.1,0,0,0-.736.081,1.828,1.828,0,0,0-.56.213,1.068,1.068,0,0,0-.354.339.774.774,0,0,0-.125.435.851.851,0,0,0,.14.479,1.7,1.7,0,0,0,.4.4,4.611,4.611,0,0,0,.626.368q.368.177.832.369a8.633,8.633,0,0,1,1.135.567,3.907,3.907,0,0,1,.87.671,2.6,2.6,0,0,1,.552.862,3.4,3.4,0,0,1-.147,2.608,2.735,2.735,0,0,1-.906.973,4.017,4.017,0,0,1-1.341.53,7.687,7.687,0,0,1-1.607.162,9.043,9.043,0,0,1-1.658-.147A5,5,0,0,1,59.611,62.374Zm13.41.589a4.926,4.926,0,0,1-3.7-1.473,5.334,5.334,0,0,1-1.429-3.854,5.7,5.7,0,0,1,1.451-4.053,5.014,5.014,0,0,1,3.847-1.547,4.783,4.783,0,0,1,3.654,1.481,5.432,5.432,0,0,1,1.4,3.9,5.6,5.6,0,0,1-1.451,4.016c-.035.035-.067.069-.1.1s-.061.059-.1.089L79.277,64.2H75.946l-1.4-1.422A5.913,5.913,0,0,1,73.021,62.963Zm.1-8.879a2.4,2.4,0,0,0-1.989.944,3.9,3.9,0,0,0-.737,2.483,3.846,3.846,0,0,0,.737,2.483,2.361,2.361,0,0,0,1.93.914,2.387,2.387,0,0,0,1.953-.885,3.838,3.838,0,0,0,.722-2.468A4.138,4.138,0,0,0,75.04,55,2.27,2.27,0,0,0,73.124,54.084Zm13.175,8.7H80.006V52.213h2.38v8.636H86.3Z" fill="#fff"/>
    </g>
    <g>
      <g>
        <path d="M229.639,71.479H215.448c1.669,5.947-.627,6.887-10.644,6.887V81.5h34.017v-3.13C228.908,78.366,227.969,77.531,229.639,71.479Z" fill="#7a7a7a"/>
        <path d="M244.874,33.5H198.648a2.9,2.9,0,0,0-2.818,2.922V68.557a2.9,2.9,0,0,0,2.818,2.922h46.226A3.177,3.177,0,0,0,248,68.557V36.418A3.177,3.177,0,0,0,244.874,33.5Zm-.835,3.965V67.409H199.8V37.461l44.244-.1Z" fill="#3e3e3e"/>
        <polygon points="243.935 37.461 243.935 67.513 199.795 67.513 199.795 37.461 244.039 37.461 243.935 37.461" fill="#00bbf1"/>
        <path d="M199.8,67.513h0V37.461h40.383l4.7-3.965H198.648a2.9,2.9,0,0,0-2.818,2.922V68.557a2.9,2.9,0,0,0,2.818,2.922H199.8l4.8-3.966Z" fill="#7a7a7a"/>
        <polygon points="199.795 67.513 199.795 67.513 199.795 37.461 240.178 37.461 240.178 37.461 199.795 37.461 199.795 67.513" fill="#59b4d9"/>
        <rect x="204.908" y="78.366" width="34.122" height="3.13" fill="#b0b0b0"/>
      </g>
      <rect x="188.031" y="37.461" width="56.364" height="30.052" fill="url(#linear-gradient)"/>
      <g>
        <polygon points="193.275 63.29 200.909 55.656 189.278 55.656 189.278 49.109 200.909 49.109 193.275 41.476 202.97 41.476 213.878 52.383 202.97 63.29 193.275 63.29" fill="#e4edf1"/>
        <polygon points="202.668 49.838 190.006 49.838 190.006 54.927 202.668 54.927 195.035 62.561 202.668 62.561 212.847 52.383 202.668 42.205 195.035 42.205 202.668 49.838" fill="#2e6ca4"/>
      </g>
    </g>
  </g>
  <g id="Captions">
    <g>
      <path d="M106.04,67.82V65.613a11.243,11.243,0,0,0,6.094,1.914,7.843,7.843,0,0,0,4.98-1.358,4.587,4.587,0,0,0,1.7-3.8,4.956,4.956,0,0,0-1.142-3.427,22.557,22.557,0,0,0-4.951-3.487q-4.258-2.48-5.391-4.15a6.707,6.707,0,0,1-1.133-3.857,6.526,6.526,0,0,1,2.305-5.04,8.865,8.865,0,0,1,6.152-2.07,15.616,15.616,0,0,1,5,.84V43.21A12.6,12.6,0,0,0,114.4,42.1a6.669,6.669,0,0,0-4.521,1.445,4.643,4.643,0,0,0-1.67,3.672,4.921,4.921,0,0,0,1.142,3.418,22.536,22.536,0,0,0,4.932,3.457,17.658,17.658,0,0,1,5.225,3.955,6.441,6.441,0,0,1,1.3,3.975,6.773,6.773,0,0,1-2.236,5.254,9.067,9.067,0,0,1-6.318,2.031,14.6,14.6,0,0,1-3.33-.449A10.826,10.826,0,0,1,106.04,67.82Z" fill="#3c3c41"/>
      <path d="M124.819,67.82V65.613a11.243,11.243,0,0,0,6.094,1.914,7.841,7.841,0,0,0,4.98-1.358,4.588,4.588,0,0,0,1.7-3.8,4.951,4.951,0,0,0-1.143-3.427,22.557,22.557,0,0,0-4.951-3.487q-4.258-2.48-5.391-4.15a6.707,6.707,0,0,1-1.133-3.857,6.526,6.526,0,0,1,2.305-5.04,8.865,8.865,0,0,1,6.152-2.07,15.616,15.616,0,0,1,5,.84V43.21a12.6,12.6,0,0,0-5.253-1.113,6.67,6.67,0,0,0-4.522,1.445,4.646,4.646,0,0,0-1.67,3.672,4.917,4.917,0,0,0,1.143,3.418,22.5,22.5,0,0,0,4.931,3.457,17.63,17.63,0,0,1,5.225,3.955,6.442,6.442,0,0,1,1.3,3.975,6.77,6.77,0,0,1-2.237,5.254A9.065,9.065,0,0,1,131.03,69.3a14.6,14.6,0,0,1-3.33-.449A10.826,10.826,0,0,1,124.819,67.82Z" fill="#3c3c41"/>
      <path d="M162.907,68.816l-3.2-8.711H147.555l-3.2,8.711h-2.129L152.79,40.808h1.836l10.449,28.008Zm-8.594-23.438a10.46,10.46,0,0,1-.351-1.152c-.091-.325-.189-.652-.293-.977h-.078a19.06,19.06,0,0,1-.645,2.09l-4.707,12.988h10.8Z" fill="#3c3c41"/>
      <path d="M168.678,67.82V65.613a11.24,11.24,0,0,0,6.093,1.914,7.844,7.844,0,0,0,4.981-1.358,4.587,4.587,0,0,0,1.7-3.8,4.951,4.951,0,0,0-1.143-3.427,22.531,22.531,0,0,0-4.951-3.487q-4.258-2.48-5.39-4.15a6.707,6.707,0,0,1-1.133-3.857,6.525,6.525,0,0,1,2.3-5.04,8.867,8.867,0,0,1,6.153-2.07,15.616,15.616,0,0,1,5,.84V43.21a12.6,12.6,0,0,0-5.254-1.113,6.674,6.674,0,0,0-4.522,1.445,4.645,4.645,0,0,0-1.669,3.672,4.917,4.917,0,0,0,1.142,3.418,22.51,22.51,0,0,0,4.932,3.457,17.637,17.637,0,0,1,5.224,3.955,6.436,6.436,0,0,1,1.3,3.975,6.773,6.773,0,0,1-2.236,5.254,9.068,9.068,0,0,1-6.319,2.031,14.611,14.611,0,0,1-3.33-.449A10.83,10.83,0,0,1,168.678,67.82Z" fill="#3c3c41"/>
    </g>
  </g>
</svg>
