<svg xmlns="http://www.w3.org/2000/svg" xmlns:xlink="http://www.w3.org/1999/xlink" viewBox="0 0 298 110">
  <defs>
    <linearGradient id="linear-gradient" x1="141.74" y1="52.404" x2="198.104" y2="52.404" gradientTransform="translate(46.767)" gradientUnits="userSpaceOnUse">
      <stop offset="0" stop-color="#e4edf1"/>
      <stop offset="0.996" stop-color="#e4edf1" stop-opacity="0.15"/>
    </linearGradient>
  </defs>
  <title>4 - install-ssrs</title>
  <g id="background_blue" data-name="background blue">
    <rect width="298" height="110" fill="#e4edf1"/>
  </g>
  <g id="Shapes">
    <path d="M178.419,96.58h49.665c22.121,0,40.048-18.541,40.048-41.406S250.2,13.768,228.084,13.768H69.692c-22.114,0-40.049,18.54-40.049,41.406S47.57,96.58,69.692,96.58H178.419Z" fill="none" stroke="#666" stroke-miterlimit="10" stroke-dasharray="2 2"/>
    <g>
      <rect x="52.557" y="29.37" width="41.247" height="50" fill-opacity="0"/>
      <rect x="54.569" y="29.37" width="37.626" height="50" fill-opacity="0"/>
      <path d="M54.569,36.211V72.529c0,3.723,8.45,6.841,18.813,6.841V36.211Z" fill="#0072c6"/>
      <path d="M73.08,79.37h.3c10.462,0,18.812-3.018,18.812-6.841V36.211H73.08V79.37Z" fill="#0072c6"/>
      <path d="M73.08,79.37h.3c10.462,0,18.812-3.018,18.812-6.841V36.211H73.08V79.37Z" fill="#fff" opacity="0.15" style="isolation: isolate"/>
      <path d="M92.194,36.211c0,3.723-8.45,6.841-18.812,6.841s-18.813-3.018-18.813-6.841c0-3.722,8.45-6.841,18.813-6.841S92.194,32.489,92.194,36.211Z" fill="#fff"/>
      <path d="M88.371,35.91c0,2.414-6.74,4.426-14.989,4.426s-14.99-2.012-14.99-4.426c0-2.516,6.74-4.528,14.99-4.528S88.371,33.394,88.371,35.91Z" fill="#7fba00"/>
      <path d="M85.253,38.626c2.012-.8,3.118-1.71,3.118-2.716,0-2.516-6.74-4.528-14.989-4.528s-14.99,2.012-14.99,4.528c0,1.006,1.207,2.012,3.118,2.716,2.717-1.107,7.043-1.71,11.872-1.71A31.862,31.862,0,0,1,85.253,38.626Z" fill="#b8d432"/>
      <rect x="52.557" y="46.473" width="41.247" height="22.133" fill-opacity="0"/>
      <path d="M60.087,62.164V59.806a4.584,4.584,0,0,0,1.392.811A4.528,4.528,0,0,0,63,60.882a3.318,3.318,0,0,0,.781-.081,1.853,1.853,0,0,0,.56-.221,1.006,1.006,0,0,0,.339-.339.864.864,0,0,0,.111-.427.915.915,0,0,0-.177-.553,1.878,1.878,0,0,0-.486-.449,4.8,4.8,0,0,0-.723-.4q-.42-.192-.906-.391a4.656,4.656,0,0,1-1.849-1.26,2.76,2.76,0,0,1-.6-1.8,2.749,2.749,0,0,1,1.231-2.394,4,4,0,0,1,1.326-.56,6.659,6.659,0,0,1,1.592-.185,9.266,9.266,0,0,1,1.459.1,5.587,5.587,0,0,1,1.179.3v2.2a3.467,3.467,0,0,0-.582-.324,4.107,4.107,0,0,0-.641-.229,4.751,4.751,0,0,0-1.282-.184,3.1,3.1,0,0,0-.737.081,1.8,1.8,0,0,0-.56.214,1.058,1.058,0,0,0-.354.339.769.769,0,0,0-.125.434.848.848,0,0,0,.14.479,1.665,1.665,0,0,0,.4.4,4.671,4.671,0,0,0,.626.369q.369.175.833.368a8.807,8.807,0,0,1,1.134.567,3.937,3.937,0,0,1,.87.671,2.611,2.611,0,0,1,.552.862,3.4,3.4,0,0,1-.147,2.608,2.726,2.726,0,0,1-.906.973,3.989,3.989,0,0,1-1.341.531,7.687,7.687,0,0,1-1.607.162,8.955,8.955,0,0,1-1.658-.148A4.969,4.969,0,0,1,60.087,62.164Zm13.41.59a4.927,4.927,0,0,1-3.7-1.474,5.332,5.332,0,0,1-1.429-3.854,5.7,5.7,0,0,1,1.451-4.052,5.011,5.011,0,0,1,3.847-1.548,4.783,4.783,0,0,1,3.654,1.481,5.436,5.436,0,0,1,1.4,3.906,5.6,5.6,0,0,1-1.451,4.015c-.035.035-.067.069-.1.1s-.061.059-.1.088l2.675,2.572H76.422l-1.4-1.422A5.957,5.957,0,0,1,73.5,62.754Zm.1-8.879a2.4,2.4,0,0,0-1.989.943,3.9,3.9,0,0,0-.737,2.483,3.846,3.846,0,0,0,.737,2.483,2.361,2.361,0,0,0,1.93.914,2.389,2.389,0,0,0,1.953-.884,3.841,3.841,0,0,0,.722-2.469,4.142,4.142,0,0,0-.7-2.557A2.27,2.27,0,0,0,73.6,53.875Zm13.175,8.7H80.482V52h2.38v8.636h3.913Z" fill="#fff"/>
    </g>
    <g>
      <g>
        <path d="M230.115,71.4H215.924c1.669,5.948-.626,6.887-10.644,6.887v3.131H239.3V78.282C229.385,78.282,228.445,77.448,230.115,71.4Z" fill="#7a7a7a"/>
        <path d="M245.35,33.413H199.124a2.9,2.9,0,0,0-2.818,2.922V68.474a2.9,2.9,0,0,0,2.818,2.921H245.35a3.177,3.177,0,0,0,3.13-2.921V36.335A3.177,3.177,0,0,0,245.35,33.413Zm-.835,3.965V67.326H200.271V37.378l44.244-.1Z" fill="#3e3e3e"/>
        <polygon points="244.411 37.378 244.411 67.43 200.271 67.43 200.271 37.378 244.515 37.378 244.411 37.378" fill="#00bbf1"/>
        <path d="M200.271,67.43h0V37.378h40.383l4.7-3.965H199.124a2.9,2.9,0,0,0-2.818,2.922V68.474a2.9,2.9,0,0,0,2.818,2.921h1.147l4.8-3.965Z" fill="#7a7a7a"/>
        <polygon points="200.271 67.43 200.271 67.43 200.271 37.378 240.654 37.378 240.654 37.378 200.271 37.378 200.271 67.43" fill="#59b4d9"/>
        <rect x="205.385" y="78.282" width="34.122" height="3.13" fill="#b0b0b0"/>
      </g>
      <rect x="188.507" y="37.378" width="56.364" height="30.052" fill="url(#linear-gradient)"/>
      <g>
        <polygon points="193.751 63.207 201.385 55.573 189.754 55.573 189.754 49.026 201.385 49.026 193.751 41.392 203.446 41.392 214.354 52.3 203.446 63.207 193.751 63.207" fill="#e4edf1"/>
        <polygon points="203.144 49.755 190.482 49.755 190.482 54.844 203.144 54.844 195.511 62.478 203.144 62.478 213.323 52.3 203.144 42.121 195.511 42.121 203.144 49.755" fill="#2e6ca4"/>
      </g>
    </g>
  </g>
  <g id="Captions">
    <g>
      <path d="M108.432,67.61V65.4a11.243,11.243,0,0,0,6.094,1.914,7.836,7.836,0,0,0,4.98-1.358,4.584,4.584,0,0,0,1.7-3.8,4.955,4.955,0,0,0-1.142-3.428,22.529,22.529,0,0,0-4.951-3.486q-4.258-2.481-5.391-4.151a6.707,6.707,0,0,1-1.133-3.857,6.526,6.526,0,0,1,2.305-5.039,8.861,8.861,0,0,1,6.152-2.071,15.644,15.644,0,0,1,5,.84V43a12.6,12.6,0,0,0-5.254-1.113,6.67,6.67,0,0,0-4.521,1.446A4.642,4.642,0,0,0,110.6,47a4.92,4.92,0,0,0,1.142,3.418,22.536,22.536,0,0,0,4.932,3.457,17.644,17.644,0,0,1,5.225,3.955,6.442,6.442,0,0,1,1.3,3.975,6.771,6.771,0,0,1-2.237,5.254,9.065,9.065,0,0,1-6.318,2.031,14.6,14.6,0,0,1-3.33-.449A10.791,10.791,0,0,1,108.432,67.61Z" fill="#0072c6"/>
      <path d="M127.211,67.61V65.4a11.243,11.243,0,0,0,6.094,1.914,7.835,7.835,0,0,0,4.98-1.358,4.584,4.584,0,0,0,1.7-3.8,4.956,4.956,0,0,0-1.143-3.428,22.529,22.529,0,0,0-4.951-3.486q-4.258-2.481-5.391-4.151a6.707,6.707,0,0,1-1.133-3.857,6.526,6.526,0,0,1,2.3-5.039,8.861,8.861,0,0,1,6.153-2.071,15.648,15.648,0,0,1,5,.84V43a12.6,12.6,0,0,0-5.254-1.113,6.671,6.671,0,0,0-4.522,1.446A4.642,4.642,0,0,0,129.379,47a4.915,4.915,0,0,0,1.143,3.418,22.5,22.5,0,0,0,4.931,3.457,17.63,17.63,0,0,1,5.225,3.955,6.442,6.442,0,0,1,1.3,3.975,6.77,6.77,0,0,1-2.236,5.254,9.07,9.07,0,0,1-6.319,2.031,14.6,14.6,0,0,1-3.33-.449A10.791,10.791,0,0,1,127.211,67.61Z" fill="#0072c6"/>
      <path d="M161.016,68.606l-3.731-8.2a8.909,8.909,0,0,0-2.3-3.408,4.67,4.67,0,0,0-2.891-.87h-3.476V68.606H146.68V40.6h7.773a8.151,8.151,0,0,1,5.83,2,6.927,6.927,0,0,1,2.12,5.283,7.5,7.5,0,0,1-1.739,5.059,8.129,8.129,0,0,1-4.863,2.617v.078q1.661.664,3.242,4.043l4.16,8.926Zm-12.4-26.231V54.368h4.824a7.367,7.367,0,0,0,5.088-1.68,5.856,5.856,0,0,0,1.884-4.609,5.321,5.321,0,0,0-1.7-4.19,7.077,7.077,0,0,0-4.863-1.514Z" fill="#0072c6"/>
      <path d="M167.237,67.61V65.4a11.24,11.24,0,0,0,6.093,1.914,7.838,7.838,0,0,0,4.981-1.358,4.584,4.584,0,0,0,1.7-3.8,4.956,4.956,0,0,0-1.143-3.428,22.5,22.5,0,0,0-4.951-3.486q-4.258-2.481-5.39-4.151a6.707,6.707,0,0,1-1.133-3.857A6.523,6.523,0,0,1,169.7,42.2a8.859,8.859,0,0,1,6.152-2.071,15.644,15.644,0,0,1,5,.84V43a12.6,12.6,0,0,0-5.254-1.113,6.67,6.67,0,0,0-4.521,1.446A4.639,4.639,0,0,0,169.405,47a4.915,4.915,0,0,0,1.142,3.418,22.51,22.51,0,0,0,4.932,3.457,17.637,17.637,0,0,1,5.224,3.955,6.436,6.436,0,0,1,1.3,3.975,6.77,6.77,0,0,1-2.236,5.254,9.067,9.067,0,0,1-6.318,2.031,14.612,14.612,0,0,1-3.331-.449A10.8,10.8,0,0,1,167.237,67.61Z" fill="#0072c6"/>
    </g>
  </g>
</svg>
