<svg xmlns="http://www.w3.org/2000/svg" viewBox="0 0 298 110">
  <title>4 - ssma</title>
  <g id="background_blue" data-name="background blue">
    <rect x="0.001" y="-0.181" width="298" height="110" fill="#e4edf1"/>
  </g>
  <g id="Shapes">
    <path d="M85.32,39.072h8.941c14.83,0,12.67,10.18,12.67,18v15c0,6.15,4,13,13,13s14-7.42,14-12.78V42.072c.05-5.36,4-13,13-13s13,6.85,13,13v31c0,8.55,6.82,13,13,13s12.91-5.89,12.91-15c0-7.82-2.09-18,12.75-18h17.16" fill="none" stroke="#2e6ca4" stroke-miterlimit="10" stroke-width="2" stroke-dasharray="3 3"/>
    <path d="M146.161,52.442a.61.61,0,0,0,.57.42h1.28a.659.659,0,0,0,.52-.67l.07-1.57a.909.909,0,0,1,.63-1c.21-.19.5-.27.71-.46a1.1,1.1,0,0,1,1.08.15l1.43,1a.737.737,0,0,0,.69-.07l.93-1a.681.681,0,0,0-.16-.8l-1.12-1.23a.8.8,0,0,1-.15-1l-.09-.1a1.063,1.063,0,0,0,.33-.67c0-.39.23-.78.92-.84l1.49-.23a.78.78,0,0,0,.52-.66l-.13-1.38a.48.48,0,0,0-.528-.426l-.042.006-1.57-.07a.94.94,0,0,1-1-.63c-.19-.21-.27-.5-.46-.71a1.576,1.576,0,0,1,.05-1.18l.94-1.24a.71.71,0,0,0-.06-.89l-1-.74a.6.6,0,0,0-.79,0l-1.14,1.23a1,1,0,0,1-1.09.25,3.042,3.042,0,0,0-.78-.23l-.09-.1a1,1,0,0,1-.75-.82l-.22-1.68a.61.61,0,0,0-.57-.42l-1.39.13a.48.48,0,0,0-.427.528c0,.014,0,.028.007.042l-.18,1.67c0,.59-.23.78-.53.86a1.715,1.715,0,0,0-.71.46,1,1,0,0,1-1.18-.05l-1.33-1a.761.761,0,0,0-.79.16l-.93,1a.869.869,0,0,0,.16.79l1.12,1.23c.38.41.46.71.15,1,0,.2-.12.49-.14.88s-.22.58-.92.65l-1.59.32a.61.61,0,0,0-.42.57l.13,1.38a.627.627,0,0,0,.47.51h1.67c.59,0,.78.23.86.53a9.044,9.044,0,0,1,.45.91.88.88,0,0,1,0,1.09l-1,1.33a.761.761,0,0,0,.16.79l.95.83a.6.6,0,0,0,.79,0l1.14-1.23a1,1,0,0,1,1.09-.25l.87.33c.39,0,.58.22.75.82l.32,1.59m3.86-9a3.46,3.46,0,0,1-3.06,3.52,3.208,3.208,0,0,1-3.6-3.12,3.3,3.3,0,0,1,3-3.5,3.34,3.34,0,0,1,3.694,2.944l.006.056" fill="#7fba00"/>
    <path d="M119.571,79.962a.61.61,0,0,0,.57.42h1.28a.659.659,0,0,0,.52-.67l.07-1.57a.909.909,0,0,1,.63-1c.21-.19.5-.27.71-.46a1.1,1.1,0,0,1,1.08.15l1.43,1a.737.737,0,0,0,.69-.07l.93-1a.681.681,0,0,0-.16-.8l-1.12-1.23a.8.8,0,0,1-.15-1l-.09-.1a1.063,1.063,0,0,0,.33-.67c0-.39.23-.78.92-.84l1.49-.23a.78.78,0,0,0,.52-.66l-.13-1.38a.48.48,0,0,0-.528-.426.3.3,0,0,0-.042.006l-1.59-.16a.94.94,0,0,1-1-.63c-.19-.21-.27-.5-.46-.71a1.576,1.576,0,0,1,.05-1.18l.94-1.24a.71.71,0,0,0-.06-.89l-1-.74a.6.6,0,0,0-.79,0l-1.1,1.19a1,1,0,0,1-1.09.25,3,3,0,0,0-.78-.23l-.09-.1a1,1,0,0,1-.75-.82l-.22-1.68a.61.61,0,0,0-.57-.42l-1.39.13a.48.48,0,0,0-.427.528c0,.014,0,.028.007.042l-.18,1.67c0,.59-.23.78-.53.86a1.715,1.715,0,0,0-.71.46,1,1,0,0,1-1.18-.05l-1.33-1a.76.76,0,0,0-.79.16l-.93,1a.869.869,0,0,0,.16.79l1.12,1.23c.38.41.46.71.15,1,0,.2-.12.49-.14.88s-.22.58-.92.65l-1.59.32a.61.61,0,0,0-.42.57l.13,1.38a.627.627,0,0,0,.47.51h1.67c.59,0,.78.23.86.53a9.044,9.044,0,0,1,.45.91.88.88,0,0,1,0,1.09l-1,1.33a.761.761,0,0,0,.16.79l.95.83a.6.6,0,0,0,.79,0l1.14-1.23a1,1,0,0,1,1.09-.25l.87.33c.39,0,.58.22.75.82l.32,1.59m3.86-9a3.46,3.46,0,0,1-3.12,3.6,3.208,3.208,0,0,1-3.6-3.12,3.3,3.3,0,0,1,3-3.5,3.34,3.34,0,0,1,3.694,2.944l.006.056" fill="#2e6ca4"/>
    <g>
      <rect x="224.871" y="22.092" width="53.622" height="65" fill-opacity="0"/>
      <rect x="227.487" y="22.092" width="48.913" height="65" fill-opacity="0"/>
      <path d="M227.487,30.985V78.2c0,4.839,10.986,8.894,24.456,8.894V30.985Z" fill="#0072c6"/>
      <path d="M251.551,87.092h.392c13.6,0,24.457-3.924,24.457-8.894V30.985H251.551V87.092Z" fill="#0072c6"/>
      <path d="M251.551,87.092h.392c13.6,0,24.457-3.924,24.457-8.894V30.985H251.551V87.092Z" fill="#fff" opacity="0.15" style="isolation: isolate"/>
      <path d="M276.4,30.985c0,4.839-10.986,8.894-24.457,8.894s-24.456-3.924-24.456-8.894c0-4.839,10.986-8.893,24.456-8.893S276.4,26.146,276.4,30.985Z" fill="#fff"/>
      <path d="M271.43,30.593c0,3.139-8.762,5.754-19.487,5.754s-19.487-2.615-19.487-5.754c0-3.27,8.763-5.885,19.487-5.885S271.43,27.323,271.43,30.593Z" fill="#7fba00"/>
      <path d="M267.376,34.124c2.616-1.046,4.054-2.223,4.054-3.531,0-3.27-8.762-5.885-19.487-5.885s-19.487,2.615-19.487,5.885c0,1.308,1.57,2.616,4.055,3.531,3.531-1.439,9.155-2.223,15.432-2.223C258.221,31.77,263.845,32.685,267.376,34.124Z" fill="#b8d432"/>
      <rect x="224.871" y="44.325" width="53.622" height="28.773" fill-opacity="0"/>
      <path d="M234.66,64.724V61.659a5.973,5.973,0,0,0,1.81,1.053,5.9,5.9,0,0,0,1.974.345,4.326,4.326,0,0,0,1.015-.105,2.409,2.409,0,0,0,.728-.287,1.324,1.324,0,0,0,.441-.441,1.137,1.137,0,0,0,.143-.556,1.186,1.186,0,0,0-.23-.718,2.445,2.445,0,0,0-.632-.585,6.389,6.389,0,0,0-.938-.517c-.365-.166-.757-.335-1.179-.507a6.053,6.053,0,0,1-2.4-1.638,3.591,3.591,0,0,1-.786-2.338,3.577,3.577,0,0,1,1.6-3.113,5.24,5.24,0,0,1,1.724-.728A8.652,8.652,0,0,1,240,51.285a11.844,11.844,0,0,1,1.9.134,7.314,7.314,0,0,1,1.533.392v2.865a4.553,4.553,0,0,0-.757-.422,5.46,5.46,0,0,0-.833-.3,6.162,6.162,0,0,0-1.667-.239,4.051,4.051,0,0,0-.958.1,2.363,2.363,0,0,0-.728.278,1.39,1.39,0,0,0-.46.44,1.019,1.019,0,0,0-.163.566,1.111,1.111,0,0,0,.182.622,2.206,2.206,0,0,0,.518.518,6.03,6.03,0,0,0,.814.478c.319.154.68.313,1.082.48a11.2,11.2,0,0,1,1.475.737,5.08,5.08,0,0,1,1.131.872,3.387,3.387,0,0,1,.718,1.121,4.432,4.432,0,0,1-.191,3.39,3.557,3.557,0,0,1-1.179,1.265,5.205,5.205,0,0,1-1.743.69,10.015,10.015,0,0,1-2.088.21,11.79,11.79,0,0,1-2.156-.191A6.523,6.523,0,0,1,234.66,64.724Zm17.434.766a6.4,6.4,0,0,1-4.809-1.915,6.934,6.934,0,0,1-1.858-5.01,7.412,7.412,0,0,1,1.887-5.269,6.512,6.512,0,0,1,5-2.011,6.218,6.218,0,0,1,4.751,1.925,7.069,7.069,0,0,1,1.82,5.077A7.279,7.279,0,0,1,257,63.507c-.045.045-.086.09-.124.134s-.08.077-.125.115l3.477,3.344H255.9l-1.82-1.849A7.73,7.73,0,0,1,252.094,65.49Zm.134-11.542a3.126,3.126,0,0,0-2.587,1.226,5.075,5.075,0,0,0-.957,3.228,5,5,0,0,0,.957,3.228,3.071,3.071,0,0,0,2.51,1.188,3.1,3.1,0,0,0,2.539-1.15,4.991,4.991,0,0,0,.938-3.209,5.384,5.384,0,0,0-.91-3.324A2.951,2.951,0,0,0,252.228,53.948Zm17.127,11.3h-8.18V51.515h3.093V62.741h5.087Z" fill="#fff"/>
    </g>
    <g>
      <path d="M54.7,23.062a3.954,3.954,0,0,0-.615.049A7.372,7.372,0,0,0,39.6,21.585a5.449,5.449,0,0,0-9.3,3.275A5.036,5.036,0,0,0,27.7,26.065a3.028,3.028,0,1,0-2.458,4.8h29.69v-.008a3.9,3.9,0,0,0-.237-7.791Z" fill="#00abec" opacity="0.23" style="isolation: isolate"/>
      <path d="M37.518,47.077a3.5,3.5,0,0,0-.354.018A3.423,3.423,0,1,0,30.7,45.172a3.423,3.423,0,0,0-5.96,2.114,3.423,3.423,0,1,0-1.184,6.637H37.518a3.423,3.423,0,0,0,0-6.846Z" fill="#00abec" opacity="0.23" style="isolation: isolate"/>
      <circle cx="54.949" cy="36.676" r="16.743" fill="#83cfea"/>
      <path d="M46.572,31.694c-.655-1.038-1.642-2.115-1.336-3.3.389-1.511,2.456-1.765,3.529-2.9a3.326,3.326,0,0,0-.188-4.364,5.41,5.41,0,0,0-4.4-1.5A8.011,8.011,0,0,0,39.63,21.49a11.191,11.191,0,0,0-3.324,5.754,18.591,18.591,0,0,0,.026,9.558c.385,1.437.558,2.493,1.938,3.042a12.594,12.594,0,0,0,5.511.386,4.426,4.426,0,0,0,2.05-.609,3.734,3.734,0,0,0,1.274-1.712A6.9,6.9,0,0,0,46.572,31.694Z" fill="#8ec152"/>
      <path d="M74.068,28.026c-.447-1.582-1.622-4.223-3.345-4.8-1.513-.507-4.376.226-5.73.956-1.6.864-2.771,2.812-2.137,4.514.45,1.211,1.673,2.013,2.1,3.232a5.988,5.988,0,0,1,.084,2.617,14.09,14.09,0,0,0,.484,6.374,6.224,6.224,0,0,0,4.557,4.134,1.533,1.533,0,0,0,.833-.048,1.67,1.67,0,0,0,.613-.531c2.158-2.679,2.712-6.283,2.949-9.713A19.827,19.827,0,0,0,74.068,28.026Z" fill="#8ec152"/>
      <path d="M54.147,40.235a6.438,6.438,0,0,0-2.315-.521,4.09,4.09,0,0,0-3.914,2.136,3.6,3.6,0,0,0-.239,2.554,2.2,2.2,0,0,0,1.5,1.539c.633.155,1.454.052,1.751.723a3.922,3.922,0,0,1,.167.942,2.7,2.7,0,0,0,1.925,2.077,1.283,1.283,0,0,0,.585.089,1.383,1.383,0,0,0,.721-.394,3.173,3.173,0,0,0,.951-2.154c.028-.888-.609-1.34-.636-2.116-.037-1.02.967-1.909.974-2.981A2.136,2.136,0,0,0,54.147,40.235Z" fill="#8ec152"/>
      <path d="M64.44,47.43a2.637,2.637,0,0,0-1.829.917,3,3,0,0,0-.393,1.24L61.6,53.4c2.645-1.926,5-3.678,7.585-5.57A9.98,9.98,0,0,0,64.44,47.43Z" fill="#8ec152"/>
      <path d="M69.187,47.825c.26.088.518.186.77.294a1.1,1.1,0,0,0,.067-.905Z" fill="#8ec152"/>
      <path d="M57.006,50.839A16.739,16.739,0,0,1,42.947,25.007,16.74,16.74,0,1,0,69.008,45.764,16.685,16.685,0,0,1,57.006,50.839Z" opacity="0.1" style="isolation: isolate"/>
      <path d="M79.78,49.937l-.111,0a7.87,7.87,0,0,0-15.682-.872A5.451,5.451,0,1,0,59.708,57.9H79.781a3.98,3.98,0,0,0,0-7.959Z" fill="#00abec" opacity="0.23" style="isolation: isolate"/>
    </g>
    <g>
      <rect x="40.378" y="65.419" width="23.099" height="28" fill-opacity="0"/>
      <rect x="41.505" y="65.419" width="21.07" height="28" fill-opacity="0"/>
      <path d="M41.505,69.25V89.588c0,2.085,4.732,3.831,10.535,3.831V69.25Z" fill="#75757a"/>
      <path d="M51.871,93.419h.169c5.859,0,10.535-1.69,10.535-3.831V69.25h-10.7V93.419Z" fill="#75757a"/>
      <path d="M51.871,93.419h.169c5.859,0,10.535-1.69,10.535-3.831V69.25h-10.7V93.419Z" fill="#fff" opacity="0.15" style="isolation: isolate"/>
      <path d="M62.575,69.25c0,2.085-4.732,3.831-10.535,3.831s-10.535-1.69-10.535-3.831c0-2.084,4.732-3.831,10.535-3.831S62.575,67.166,62.575,69.25Z" fill="#fff"/>
      <path d="M60.434,69.081c0,1.352-3.774,2.479-8.394,2.479s-8.394-1.127-8.394-2.479c0-1.408,3.774-2.535,8.394-2.535S60.434,67.673,60.434,69.081Z" fill="#7fba00"/>
      <path d="M58.688,70.6c1.127-.45,1.746-.957,1.746-1.521,0-1.408-3.774-2.535-8.394-2.535s-8.394,1.127-8.394,2.535c0,.564.676,1.127,1.746,1.521a19.117,19.117,0,0,1,6.648-.957A17.855,17.855,0,0,1,58.688,70.6Z" fill="#b8d432"/>
    </g>
  </g>
  <g id="Text">
    <polygon points="212.031 60.821 210.671 59.361 217.891 52.641 210.671 45.931 212.031 44.461 220.831 52.641 212.031 60.821" fill="#556a8a" stroke="#2e6ca4" stroke-miterlimit="10"/>
  </g>
</svg>
