<svg xmlns="http://www.w3.org/2000/svg" xmlns:xlink="http://www.w3.org/1999/xlink" viewBox="0 0 298 110">
  <defs>
    <symbol id="IZ_Versions" data-name="IZ_Versions" viewBox="0 0 50 44.501">
      <path d="M0,31.283a1.545,1.545,0,0,0,1.545,1.545h35.41A1.545,1.545,0,0,0,38.5,31.283V7.16H0Z" fill="#59b4d9"/>
      <path d="M36.955,0H1.545A1.544,1.544,0,0,0,0,1.545V7.418H38.5V1.545A1.546,1.546,0,0,0,36.955,0" fill="#a0a1a2"/>
      <path d="M1.551,0A1.545,1.545,0,0,0,.006,1.545V31.283a1.545,1.545,0,0,0,1.545,1.545H3.236L33.588,0Z" fill="#fff" opacity="0.2" style="isolation: isolate"/>
      <path d="M11.5,42.956A1.545,1.545,0,0,0,13.044,44.5h35.41A1.545,1.545,0,0,0,50,42.956V18.832H11.5Z" fill="#0072c6"/>
      <path d="M48.455,11.673H13.045A1.544,1.544,0,0,0,11.5,13.218v5.873H50V13.218a1.545,1.545,0,0,0-1.545-1.545" fill="#3e3e3e"/>
      <path d="M13.05,11.673a1.545,1.545,0,0,0-1.545,1.545V42.956A1.545,1.545,0,0,0,13.05,44.5h1.685L45.087,11.672H13.05Z" fill="#fff" opacity="0.2" style="isolation: isolate"/>
    </symbol>
  </defs>
  <title>4 - ssma-assist</title>
  <g id="background_blue" data-name="background blue">
    <rect width="298" height="110" fill="#e4edf1"/>
  </g>
  <g id="Shapes">
    <use width="50" height="44.501" transform="translate(30.887 32.99) scale(1.4)" xlink:href="#IZ_Versions"/>
    <g>
      <rect x="218.599" y="13.225" width="49.497" height="60" fill-opacity="0"/>
      <rect x="221.014" y="13.225" width="45.151" height="60" fill-opacity="0"/>
      <path d="M221.014,21.435V65.016c0,4.467,10.141,8.209,22.575,8.209V21.435Z" fill="#0072c6"/>
      <path d="M243.227,73.225h.362c12.556,0,22.576-3.621,22.576-8.209V21.435H243.227v51.79Z" fill="#0072c6"/>
      <path d="M243.227,73.225h.362c12.556,0,22.576-3.621,22.576-8.209V21.435H243.227v51.79Z" fill="#fff" opacity="0.15" style="isolation: isolate"/>
      <path d="M266.165,21.435c0,4.467-10.141,8.209-22.576,8.209s-22.575-3.622-22.575-8.209c0-4.467,10.141-8.21,22.575-8.21S266.165,16.968,266.165,21.435Z" fill="#fff"/>
      <path d="M261.577,21.073c0,2.9-8.088,5.311-17.988,5.311S225.6,23.97,225.6,21.073c0-3.019,8.089-5.433,17.988-5.433S261.577,18.054,261.577,21.073Z" fill="#7fba00"/>
      <path d="M257.835,24.332c2.414-.966,3.742-2.052,3.742-3.259,0-3.019-8.088-5.433-17.988-5.433S225.6,18.054,225.6,21.073c0,1.207,1.449,2.414,3.743,3.259C232.6,23,237.8,22.28,243.589,22.28,249.384,22.159,254.575,23,257.835,24.332Z" fill="#b8d432"/>
      <rect x="218.599" y="33.749" width="49.497" height="26.559" fill-opacity="0"/>
      <path d="M227.635,52.578V49.749a5.51,5.51,0,0,0,1.672.972,5.416,5.416,0,0,0,1.821.319,3.964,3.964,0,0,0,.937-.1,2.2,2.2,0,0,0,.672-.265,1.206,1.206,0,0,0,.407-.407,1.043,1.043,0,0,0,.133-.512,1.1,1.1,0,0,0-.213-.664,2.264,2.264,0,0,0-.583-.539,5.838,5.838,0,0,0-.867-.477q-.5-.231-1.087-.469a5.6,5.6,0,0,1-2.22-1.512,3.316,3.316,0,0,1-.725-2.158,3.41,3.41,0,0,1,.4-1.7,3.37,3.37,0,0,1,1.079-1.176,4.817,4.817,0,0,1,1.592-.672,7.958,7.958,0,0,1,1.909-.221,11.066,11.066,0,0,1,1.751.123,6.733,6.733,0,0,1,1.415.363V43.3a4.12,4.12,0,0,0-.7-.389,4.88,4.88,0,0,0-.769-.274,5.7,5.7,0,0,0-1.538-.221,3.725,3.725,0,0,0-.885.1,2.2,2.2,0,0,0-.672.256,1.285,1.285,0,0,0-.424.407.933.933,0,0,0-.15.522,1.024,1.024,0,0,0,.168.574,2.032,2.032,0,0,0,.477.478,5.608,5.608,0,0,0,.752.442c.294.141.628.289,1,.442a10.409,10.409,0,0,1,1.362.681,4.725,4.725,0,0,1,1.043.8,3.125,3.125,0,0,1,.663,1.034,4.088,4.088,0,0,1-.177,3.13,3.27,3.27,0,0,1-1.087,1.167,4.8,4.8,0,0,1-1.61.637,9.183,9.183,0,0,1-1.927.2,10.81,10.81,0,0,1-1.99-.177A5.991,5.991,0,0,1,227.635,52.578Zm16.093.708a5.911,5.911,0,0,1-4.439-1.769,6.4,6.4,0,0,1-1.715-4.624,6.838,6.838,0,0,1,1.742-4.863,6.012,6.012,0,0,1,4.615-1.857,5.74,5.74,0,0,1,4.386,1.777A6.523,6.523,0,0,1,250,46.636a6.721,6.721,0,0,1-1.742,4.819c-.041.042-.079.083-.115.124s-.073.071-.115.106l3.21,3.086h-4l-1.68-1.706A7.126,7.126,0,0,1,243.728,53.286Zm.124-10.655a2.887,2.887,0,0,0-2.388,1.132,4.683,4.683,0,0,0-.884,2.979,4.617,4.617,0,0,0,.884,2.98,2.835,2.835,0,0,0,2.317,1.1,2.865,2.865,0,0,0,2.343-1.061,4.606,4.606,0,0,0,.867-2.963,4.969,4.969,0,0,0-.84-3.068A2.724,2.724,0,0,0,243.852,42.631Zm15.81,10.434H252.11V40.385h2.856V50.748h4.7Z" fill="#fff"/>
    </g>
    <g>
      <path d="M195.64,36a.61.61,0,0,0,.57.42h1.28a.66.66,0,0,0,.52-.67l.07-1.57a.911.911,0,0,1,.63-1c.21-.19.5-.27.71-.46a1.1,1.1,0,0,1,1.08.15l1.43,1a.74.74,0,0,0,.69-.07l.93-1a.681.681,0,0,0-.16-.8l-1.12-1.23a.8.8,0,0,1-.15-1l-.09-.1a1.058,1.058,0,0,0,.33-.67c0-.39.23-.78.92-.84l1.49-.23a.78.78,0,0,0,.52-.66l-.13-1.38a.48.48,0,0,0-.528-.426.3.3,0,0,0-.042.006l-1.57-.07a.94.94,0,0,1-1-.63c-.19-.21-.27-.5-.46-.71a1.585,1.585,0,0,1,.05-1.18l.94-1.24a.71.71,0,0,0-.06-.89l-1-.74a.6.6,0,0,0-.79,0l-1.14,1.23a1,1,0,0,1-1.09.25,2.991,2.991,0,0,0-.78-.23l-.09-.1a1,1,0,0,1-.75-.82l-.22-1.68a.61.61,0,0,0-.57-.42l-1.39.13a.48.48,0,0,0-.426.528.3.3,0,0,0,.006.042l-.18,1.67c0,.59-.23.78-.53.86a1.715,1.715,0,0,0-.71.46,1,1,0,0,1-1.18-.05l-1.33-1a.761.761,0,0,0-.79.16l-.93,1a.872.872,0,0,0,.16.79l1.12,1.23c.38.41.46.71.15,1,0,.2-.12.49-.14.88s-.22.58-.92.65l-1.59.32a.61.61,0,0,0-.42.57l.13,1.38a.631.631,0,0,0,.47.51h1.67c.59,0,.78.23.86.53a8.543,8.543,0,0,1,.45.91.88.88,0,0,1,0,1.09l-1,1.33a.761.761,0,0,0,.16.79l.95.83a.6.6,0,0,0,.79,0l1.14-1.23a1,1,0,0,1,1.09-.25l.87.33c.39,0,.58.22.75.82l.32,1.59m3.86-9a3.459,3.459,0,0,1-3.06,3.52,3.208,3.208,0,0,1-3.6-3.12,3.3,3.3,0,0,1,3-3.5,3.34,3.34,0,0,1,3.694,2.944l.006.056" fill="#bad80a"/>
      <path d="M122.733,97.461a.61.61,0,0,0,.57.42h1.28a.659.659,0,0,0,.52-.67l.07-1.57a.911.911,0,0,1,.63-1c.21-.19.5-.27.71-.46a1.1,1.1,0,0,1,1.08.15l1.43,1a.737.737,0,0,0,.69-.07l.93-1a.681.681,0,0,0-.16-.8l-1.12-1.23a.8.8,0,0,1-.15-1l-.09-.1a1.058,1.058,0,0,0,.33-.67c0-.39.23-.78.92-.84l1.49-.23a.78.78,0,0,0,.52-.66l-.13-1.38a.48.48,0,0,0-.528-.426l-.042.006-1.59-.16a.94.94,0,0,1-1-.63c-.19-.21-.27-.5-.46-.71a1.585,1.585,0,0,1,.05-1.18l.94-1.24a.71.71,0,0,0-.06-.89l-1-.74a.6.6,0,0,0-.79,0l-1.1,1.19a1,1,0,0,1-1.09.25,3.03,3.03,0,0,0-.78-.23l-.09-.1a1,1,0,0,1-.75-.82l-.22-1.68a.61.61,0,0,0-.57-.42l-1.39.13a.481.481,0,0,0-.426.529.29.29,0,0,0,.006.041l-.18,1.67c0,.59-.23.78-.53.86a1.715,1.715,0,0,0-.71.46,1,1,0,0,1-1.18-.05l-1.33-1a.761.761,0,0,0-.79.16l-.93,1a.872.872,0,0,0,.16.79l1.12,1.23c.38.41.46.71.15,1,0,.2-.12.49-.14.88s-.22.58-.92.65l-1.59.32a.61.61,0,0,0-.42.57l.13,1.38a.63.63,0,0,0,.47.51h1.67c.59,0,.78.23.86.53a8.638,8.638,0,0,1,.45.91.88.88,0,0,1,0,1.09l-1,1.33a.76.76,0,0,0,.16.79l.95.83a.6.6,0,0,0,.79,0l1.14-1.23a1,1,0,0,1,1.09-.25l.87.33c.39,0,.58.22.75.82l.32,1.59m3.86-9a3.46,3.46,0,0,1-3.12,3.6,3.208,3.208,0,0,1-3.6-3.12,3.3,3.3,0,0,1,3-3.5,3.34,3.34,0,0,1,3.694,2.944l.006.056" fill="#2dbceb"/>
      <g>
        <path d="M189.055,79.786a4.347,4.347,0,0,1-6.013,6.28L162.281,66.222c-.241.085-.481.169-.732.235a10.027,10.027,0,0,1-12.277-7.089,9.9,9.9,0,0,1-.137-4.5l5.2,3.793a4.346,4.346,0,1,0,5.166-6.99l-5.144-3.757a10.165,10.165,0,0,1,2.048-.8,10.029,10.029,0,0,1,12.277,7.09,9.919,9.919,0,0,1-.231,5.878Zm-2.333,5.888a2.855,2.855,0,1,0-3.5-2.024A2.854,2.854,0,0,0,186.722,85.674Z" fill="#0078d7"/>
        <path d="M157.582,28.864a.64.64,0,0,1-.1-1.272,27.786,27.786,0,0,1,3.259-.32.639.639,0,1,1,.05,1.278,26.581,26.581,0,0,0-3.109.306A.687.687,0,0,1,157.582,28.864Zm9.555.188a.6.6,0,0,1-.126-.013,26.781,26.781,0,0,0-3.095-.428.64.64,0,1,1,.1-1.275,28.252,28.252,0,0,1,3.243.448.64.64,0,0,1-.124,1.268Zm-13.409.713a.639.639,0,0,1-.191-1.25c.246-.078.5-.152.746-.223a.64.64,0,1,1,.348,1.232q-.357.1-.711.211A.636.636,0,0,1,153.728,29.765ZM173.21,31.03a.645.645,0,0,1-.269-.06,26.39,26.39,0,0,0-2.907-1.141.64.64,0,1,1,.4-1.217,27.84,27.84,0,0,1,3.05,1.2.64.64,0,0,1-.27,1.22Zm5.435,3.355a.643.643,0,0,1-.4-.14,26.254,26.254,0,0,0-2.555-1.8.64.64,0,1,1,.673-1.088,27.729,27.729,0,0,1,2.681,1.884.64.64,0,0,1-.4,1.14Zm4.5,4.532a.639.639,0,0,1-.505-.245,26.469,26.469,0,0,0-2.067-2.341.64.64,0,0,1,.91-.9,28.1,28.1,0,0,1,2.166,2.453.64.64,0,0,1-.5,1.034Zm3.311,5.455a.64.64,0,0,1-.584-.375,26.351,26.351,0,0,0-1.457-2.76.64.64,0,0,1,1.095-.662,27.367,27.367,0,0,1,1.528,2.893.638.638,0,0,1-.319.846A.616.616,0,0,1,186.456,44.372Zm1.928,6.082a.641.641,0,0,1-.629-.52,26.785,26.785,0,0,0-.765-3.025.64.64,0,0,1,1.221-.386,27.978,27.978,0,0,1,.8,3.171.641.641,0,0,1-.509.749A.616.616,0,0,1,188.384,50.454Zm.451,6.366H188.8a.64.64,0,0,1-.609-.67q.029-.626.029-1.251c0-.622-.022-1.25-.066-1.87a.64.64,0,0,1,1.277-.09c.046.649.07,1.308.07,1.96q0,.655-.031,1.312A.64.64,0,0,1,188.835,56.82Zm-1.05,6.3a.655.655,0,0,1-.179-.025.641.641,0,0,1-.436-.794,26.537,26.537,0,0,0,.694-3.043.641.641,0,0,1,1.264.211,28.048,28.048,0,0,1-.728,3.19A.64.64,0,0,1,187.785,63.116Z" fill="#acd1ef"/>
        <path d="M165.673,40.5a.664.664,0,0,1-.158-.02,15.034,15.034,0,0,0-3.031-.444.64.64,0,1,1,.054-1.278,16.3,16.3,0,0,1,3.292.482.64.64,0,0,1-.157,1.26Zm-9.437.561a.64.64,0,0,1-.231-1.237,16.219,16.219,0,0,1,3.213-.869.633.633,0,0,1,.735.529.64.64,0,0,1-.529.734,14.894,14.894,0,0,0-2.959.8A.636.636,0,0,1,156.236,41.058Zm15.144,2.233a.632.632,0,0,1-.393-.136,14.838,14.838,0,0,0-2.6-1.623.64.64,0,1,1,.565-1.149,16.143,16.143,0,0,1,2.82,1.764.64.64,0,0,1-.4,1.144Zm4.112,4.846a.641.641,0,0,1-.563-.335,14.85,14.85,0,0,0-1.732-2.525.64.64,0,1,1,.976-.828,16.108,16.108,0,0,1,1.882,2.743.641.641,0,0,1-.563.945Zm1.817,6.087a.64.64,0,0,1-.637-.586,15.009,15.009,0,0,0-.569-3.009.64.64,0,1,1,1.227-.365,16.2,16.2,0,0,1,.617,3.266.638.638,0,0,1-.584.691A.475.475,0,0,1,177.309,54.224Zm-.766,6.305a.641.641,0,0,1-.607-.845,14.9,14.9,0,0,0,.679-2.985.641.641,0,0,1,1.272.154,16.285,16.285,0,0,1-.737,3.241A.642.642,0,0,1,176.543,60.529Z" fill="#acd1ef"/>
        <path d="M131.407,54.472a.542.542,0,0,1-.106-.009.638.638,0,0,1-.526-.736,27.783,27.783,0,0,1,.727-3.19.64.64,0,0,1,1.23.357,26.557,26.557,0,0,0-.695,3.044A.639.639,0,0,1,131.407,54.472Zm-.3,6.375a.638.638,0,0,1-.637-.594c-.046-.65-.07-1.309-.07-1.96q0-.655.031-1.312a.631.631,0,0,1,.67-.609.641.641,0,0,1,.61.669q-.03.626-.03,1.252c0,.621.022,1.25.065,1.87a.639.639,0,0,1-.592.683Zm1.2,6.269a.64.64,0,0,1-.61-.448,27.978,27.978,0,0,1-.8-3.171.64.64,0,0,1,1.258-.239,26.785,26.785,0,0,0,.765,3.025.64.64,0,0,1-.417.8A.623.623,0,0,1,132.3,67.116Zm2.639,5.809a.644.644,0,0,1-.549-.308,27.945,27.945,0,0,1-1.528-2.893.641.641,0,0,1,1.168-.529,26.328,26.328,0,0,0,1.456,2.759.64.64,0,0,1-.547.971Zm3.934,5.026a.639.639,0,0,1-.455-.189,27.924,27.924,0,0,1-2.166-2.454.641.641,0,0,1,1.01-.788,26.55,26.55,0,0,0,2.065,2.341.639.639,0,0,1-.454,1.09Zm5,3.975a.635.635,0,0,1-.336-.095,27.853,27.853,0,0,1-2.681-1.884.64.64,0,0,1,.8-1,26.217,26.217,0,0,0,2.556,1.8.64.64,0,0,1-.337,1.184Zm5.8,2.685a.626.626,0,0,1-.2-.032,27.619,27.619,0,0,1-3.049-1.2.64.64,0,1,1,.539-1.161,26.4,26.4,0,0,0,2.907,1.142.64.64,0,0,1-.2,1.248Zm15.774.312a.639.639,0,0,1-.173-1.255c.239-.068.476-.138.711-.212a.64.64,0,1,1,.383,1.221c-.248.077-.5.152-.746.222A.659.659,0,0,1,165.444,84.923Zm-9.508.934a.435.435,0,0,1-.051,0,27.8,27.8,0,0,1-3.244-.448.64.64,0,1,1,.25-1.255,26.565,26.565,0,0,0,3.095.428.639.639,0,0,1-.05,1.277Zm3.2.063a.64.64,0,0,1-.024-1.279,26.58,26.58,0,0,0,3.109-.305.639.639,0,1,1,.2,1.263,27.594,27.594,0,0,1-3.259.32Z" fill="#acd1ef"/>
        <path d="M142.651,57.056a.49.49,0,0,1-.077,0,.639.639,0,0,1-.559-.712,16.2,16.2,0,0,1,.737-3.241.64.64,0,0,1,1.213.409,14.986,14.986,0,0,0-.679,2.987A.639.639,0,0,1,142.651,57.056Zm.533,6.33a.64.64,0,0,1-.613-.458,16.28,16.28,0,0,1-.618-3.265.64.64,0,1,1,1.276-.108,14.887,14.887,0,0,0,.569,3.008.64.64,0,0,1-.43.8A.656.656,0,0,1,143.184,63.386Zm3.033,5.583a.64.64,0,0,1-.489-.226A16.161,16.161,0,0,1,143.847,66a.64.64,0,0,1,1.126-.61,14.908,14.908,0,0,0,1.732,2.525.641.641,0,0,1-.488,1.054Zm5.012,3.906a.633.633,0,0,1-.282-.066,16.149,16.149,0,0,1-2.82-1.765.64.64,0,1,1,.788-1.008,14.812,14.812,0,0,0,2.6,1.624.64.64,0,0,1-.282,1.215Zm9.352,1.372a.64.64,0,0,1-.1-1.271,14.991,14.991,0,0,0,2.957-.8.64.64,0,1,1,.461,1.194,16.257,16.257,0,0,1-3.212.868A.607.607,0,0,1,160.581,74.247Zm-3.189.19h-.029a16.178,16.178,0,0,1-3.292-.482.639.639,0,1,1,.315-1.239,14.982,14.982,0,0,0,3.032.443.64.64,0,0,1-.026,1.279Z" fill="#acd1ef"/>
      </g>
    </g>
  </g>
</svg>
