<svg xmlns="http://www.w3.org/2000/svg" viewBox="0 0 298 110">
  <title>4 - upgrade-sql</title>
  <g id="background_blue" data-name="background blue">
    <rect width="298" height="110" fill="#e4edf1"/>
  </g>
  <g id="Shapes">
    <g>
      <rect x="178.097" y="55.426" width="32.998" height="40" fill-opacity="0"/>
      <rect x="179.707" y="55.426" width="30.101" height="40" fill-opacity="0"/>
      <path d="M179.707,60.9V89.953c0,2.978,6.76,5.473,15.05,5.473V60.9Z" fill="#0072c6"/>
      <path d="M194.516,95.426h.241c8.37,0,15.05-2.414,15.05-5.473V60.9H194.516V95.426Z" fill="#0072c6"/>
      <path d="M194.516,95.426h.241c8.37,0,15.05-2.414,15.05-5.473V60.9H194.516V95.426Z" fill="#fff" opacity="0.15" style="isolation: isolate"/>
      <path d="M209.807,60.9c0,2.978-6.76,5.473-15.05,5.473s-15.05-2.415-15.05-5.473c0-2.978,6.76-5.473,15.05-5.473S209.807,57.921,209.807,60.9Z" fill="#fff"/>
      <path d="M206.749,60.658c0,1.931-5.392,3.541-11.992,3.541s-11.992-1.61-11.992-3.541c0-2.012,5.393-3.622,11.992-3.622S206.749,58.646,206.749,60.658Z" fill="#7fba00"/>
      <path d="M204.254,62.831c1.61-.644,2.5-1.369,2.5-2.173,0-2.012-5.392-3.622-11.992-3.622s-11.992,1.61-11.992,3.622c0,.8.966,1.609,2.5,2.173a27.263,27.263,0,0,1,9.5-1.369A25.5,25.5,0,0,1,204.254,62.831Z" fill="#b8d432"/>
      <rect x="178.097" y="69.108" width="32.998" height="17.706" fill-opacity="0"/>
      <path d="M184.121,81.661V79.775a3.672,3.672,0,0,0,1.114.648,3.617,3.617,0,0,0,1.215.213,2.673,2.673,0,0,0,.625-.065,1.457,1.457,0,0,0,.447-.177.818.818,0,0,0,.272-.271.692.692,0,0,0,.088-.342.735.735,0,0,0-.141-.442,1.512,1.512,0,0,0-.389-.36,3.926,3.926,0,0,0-.578-.318q-.336-.153-.725-.312a3.748,3.748,0,0,1-1.48-1.008,2.212,2.212,0,0,1-.483-1.439,2.2,2.2,0,0,1,.984-1.916,3.26,3.26,0,0,1,1.061-.448,5.353,5.353,0,0,1,1.274-.147,7.33,7.33,0,0,1,1.167.083,4.471,4.471,0,0,1,.943.241v1.763a2.861,2.861,0,0,0-.466-.26,3.358,3.358,0,0,0-.513-.182,3.549,3.549,0,0,0-.53-.112,3.607,3.607,0,0,0-.5-.036,2.5,2.5,0,0,0-.59.065,1.444,1.444,0,0,0-.448.171.857.857,0,0,0-.283.271.619.619,0,0,0-.1.348.682.682,0,0,0,.112.383,1.366,1.366,0,0,0,.318.318,3.71,3.71,0,0,0,.5.3q.3.142.667.3a6.9,6.9,0,0,1,.907.454,3.163,3.163,0,0,1,.7.536,2.111,2.111,0,0,1,.442.69,2.73,2.73,0,0,1-.118,2.087,2.188,2.188,0,0,1-.725.778,3.188,3.188,0,0,1-1.073.424,6.105,6.105,0,0,1-1.285.13,7.165,7.165,0,0,1-1.326-.118A3.985,3.985,0,0,1,184.121,81.661Zm10.729.472a3.938,3.938,0,0,1-2.959-1.179,4.263,4.263,0,0,1-1.144-3.083,4.56,4.56,0,0,1,1.161-3.242,4.01,4.01,0,0,1,3.077-1.238,3.827,3.827,0,0,1,2.924,1.185,4.347,4.347,0,0,1,1.12,3.124,4.483,4.483,0,0,1-1.161,3.213c-.028.027-.053.055-.077.082s-.049.047-.076.071l2.139,2.057H197.19l-1.12-1.137A4.75,4.75,0,0,1,194.85,82.133Zm.082-7.1a1.923,1.923,0,0,0-1.591.754,3.123,3.123,0,0,0-.59,1.987,3.074,3.074,0,0,0,.59,1.986,1.886,1.886,0,0,0,1.544.731,1.909,1.909,0,0,0,1.562-.707,3.072,3.072,0,0,0,.578-1.975,3.313,3.313,0,0,0-.56-2.045A1.815,1.815,0,0,0,194.932,75.03Zm10.54,6.956h-5.034V73.533h1.9v6.908h3.13Z" fill="#fff"/>
    </g>
    <g>
      <path d="M143.075,78.731H119.423c2.783,9.913-1.044,11.478-17.739,11.478v5.217h56.695V90.209C141.858,90.209,140.292,88.818,143.075,78.731Z" fill="#7a7a7a"/>
      <path d="M168.466,15.426H91.423a4.827,4.827,0,0,0-4.7,4.87V73.861a4.827,4.827,0,0,0,4.7,4.87h77.043c2.609,0,5.218-2.261,5.218-4.87V20.3C173.684,17.687,171.075,15.426,168.466,15.426Zm-1.391,6.609V71.948H93.336V22.035l73.739-.174Z" fill="#3e3e3e"/>
      <g>
        <polygon points="166.901 22.035 166.901 72.122 93.336 72.122 93.336 22.035 167.075 22.035 166.901 22.035" fill="#fff"/>
        <polygon points="166.901 22.035 166.901 72.122 93.336 72.122 93.336 22.035 167.075 22.035 166.901 22.035" fill="#00bbf1" opacity="0.7"/>
      </g>
      <path d="M93.336,72.122h0V22.035h67.3l7.826-6.609H91.423a4.827,4.827,0,0,0-4.7,4.87V73.861a4.827,4.827,0,0,0,4.7,4.87h1.913l8-6.609Z" fill="#7a7a7a"/>
      <polygon points="93.336 72.122 93.336 72.122 93.336 22.035 160.64 22.035 160.64 22.035 93.336 22.035 93.336 72.122" fill="#59b4d9"/>
      <rect x="101.858" y="90.209" width="56.87" height="5.217" fill="#b0b0b0"/>
    </g>
    <g>
      <g>
        <circle cx="132.569" cy="47.078" r="16.191" fill="#2e6ca4"/>
        <circle cx="132.569" cy="47.078" r="14.909" fill="#4c81b1"/>
        <circle cx="132.569" cy="47.078" r="13.628" fill="#6b97be"/>
        <circle cx="132.569" cy="47.078" r="12.346" fill="#89accb"/>
        <circle cx="132.569" cy="47.078" r="11.064" fill="#a7c2d7"/>
        <circle cx="132.569" cy="47.078" r="9.782" fill="#c6d7e4"/>
        <circle cx="132.569" cy="47.078" r="8.501" fill="#e4edf1"/>
      </g>
      <path d="M113.751,54.493a19.995,19.995,0,0,1,28.432-24.808L141.6,30.7A18.846,18.846,0,1,0,150.108,41l-2.042,4.624-1.077-.472,2.846-6.434,6.214,3.3-.551,1.039-4.217-2.244a19.982,19.982,0,0,1-37.53,13.684Z" fill="#3c3c41"/>
    </g>
  </g>
</svg>
