<svg xmlns="http://www.w3.org/2000/svg" viewBox="0 0 298 110">
  <title>4 - upgrade-ssis</title>
  <g id="background_blue" data-name="background blue">
    <rect width="298" height="110" fill="#e4edf1"/>
  </g>
  <g id="Shapes">
    <path d="M179.046,96.8H228.71c22.122,0,40.049-18.541,40.049-41.406S250.824,13.991,228.71,13.991H70.319c-22.114,0-40.049,18.54-40.049,41.406S48.2,96.8,70.319,96.8H179.046Z" fill="none" stroke="#666" stroke-miterlimit="10" stroke-dasharray="2 2"/>
    <g>
      <rect x="51.998" y="29.126" width="41.247" height="50" fill-opacity="0"/>
      <rect x="54.01" y="29.126" width="37.626" height="50" fill-opacity="0"/>
      <path d="M54.01,35.967V72.285c0,3.722,8.451,6.841,18.813,6.841V35.967Z" fill="#0072c6"/>
      <path d="M72.521,79.126h.3c10.463,0,18.813-3.018,18.813-6.841V35.967H72.521V79.126Z" fill="#0072c6"/>
      <path d="M72.521,79.126h.3c10.463,0,18.813-3.018,18.813-6.841V35.967H72.521V79.126Z" fill="#fff" opacity="0.15" style="isolation: isolate"/>
      <path d="M91.636,35.967c0,3.723-8.451,6.841-18.813,6.841S54.01,39.79,54.01,35.967c0-3.722,8.451-6.841,18.813-6.841S91.636,32.245,91.636,35.967Z" fill="#fff"/>
      <path d="M87.813,35.665c0,2.415-6.74,4.427-14.99,4.427s-14.99-2.012-14.99-4.427c0-2.515,6.741-4.527,14.99-4.527S87.813,33.15,87.813,35.665Z" fill="#7fba00"/>
      <path d="M84.694,38.382c2.012-.8,3.119-1.711,3.119-2.717,0-2.515-6.74-4.527-14.99-4.527s-14.99,2.012-14.99,4.527c0,1.006,1.207,2.012,3.119,2.717,2.716-1.107,7.042-1.711,11.871-1.711A31.877,31.877,0,0,1,84.694,38.382Z" fill="#b8d432"/>
      <rect x="51.998" y="46.229" width="41.247" height="22.133" fill-opacity="0"/>
      <path d="M59.528,61.92V59.562a4.6,4.6,0,0,0,1.393.811,4.528,4.528,0,0,0,1.518.265,3.324,3.324,0,0,0,.781-.081,1.864,1.864,0,0,0,.56-.221A1.015,1.015,0,0,0,64.119,60a.873.873,0,0,0,.11-.427.915.915,0,0,0-.177-.553,1.9,1.9,0,0,0-.486-.45,4.825,4.825,0,0,0-.722-.4q-.42-.192-.906-.391a4.661,4.661,0,0,1-1.85-1.26,2.759,2.759,0,0,1-.6-1.8,2.751,2.751,0,0,1,1.23-2.395,4.056,4.056,0,0,1,1.327-.56,6.7,6.7,0,0,1,1.591-.184,9.248,9.248,0,0,1,1.459.1,5.617,5.617,0,0,1,1.179.3v2.2a3.542,3.542,0,0,0-.582-.325,4.17,4.17,0,0,0-.641-.228,4.476,4.476,0,0,0-.663-.14,4.668,4.668,0,0,0-.619-.044,3.11,3.11,0,0,0-.737.081,1.828,1.828,0,0,0-.56.213,1.088,1.088,0,0,0-.354.339.782.782,0,0,0-.125.435.856.856,0,0,0,.14.479,1.7,1.7,0,0,0,.4.4,4.631,4.631,0,0,0,.626.368q.369.177.833.369a8.823,8.823,0,0,1,1.135.567,3.907,3.907,0,0,1,.869.671,2.614,2.614,0,0,1,.553.862,3.411,3.411,0,0,1-.148,2.608,2.735,2.735,0,0,1-.906.973,3.98,3.98,0,0,1-1.341.53,7.61,7.61,0,0,1-1.606.163,9.034,9.034,0,0,1-1.658-.148A4.965,4.965,0,0,1,59.528,61.92Zm13.411.59a4.927,4.927,0,0,1-3.7-1.474,5.333,5.333,0,0,1-1.43-3.854,5.7,5.7,0,0,1,1.452-4.052,5.01,5.01,0,0,1,3.846-1.548,4.787,4.787,0,0,1,3.655,1.481,5.438,5.438,0,0,1,1.4,3.906,5.6,5.6,0,0,1-1.452,4.015c-.034.035-.066.069-.095.1s-.062.059-.1.089l2.674,2.571h-3.33l-1.4-1.422A5.918,5.918,0,0,1,72.939,62.51Zm.1-8.879a2.407,2.407,0,0,0-1.99.943,3.9,3.9,0,0,0-.736,2.483,3.846,3.846,0,0,0,.736,2.483,2.363,2.363,0,0,0,1.931.914,2.392,2.392,0,0,0,1.953-.884,3.843,3.843,0,0,0,.722-2.469,4.146,4.146,0,0,0-.7-2.557A2.271,2.271,0,0,0,73.042,53.631Zm13.175,8.694H79.924V51.759H82.3V60.4h3.913Z" fill="#fff"/>
    </g>
    <g>
      <g>
        <circle cx="216" cy="55.026" r="19.424" fill="#2e6ca4"/>
        <circle cx="216" cy="55.026" r="17.887" fill="#4c81b1"/>
        <circle cx="216" cy="55.026" r="16.349" fill="#6b97be"/>
        <circle cx="216" cy="55.026" r="14.811" fill="#89accb"/>
        <circle cx="216" cy="55.026" r="13.273" fill="#a7c2d7"/>
        <circle cx="216" cy="55.026" r="11.736" fill="#c6d7e4"/>
        <circle cx="216" cy="55.026" r="10.198" fill="#e4edf1"/>
      </g>
      <path d="M193.425,63.922a23.988,23.988,0,0,1,34.11-29.762l-.694,1.222a22.608,22.608,0,1,0,10.2,12.349l-2.449,5.548-1.293-.567,3.415-7.718,7.454,3.956-.661,1.248-5.059-2.693a23.973,23.973,0,0,1-45.024,16.417Z" fill="#3c3c41"/>
    </g>
  </g>
  <g id="Captions">
    <g>
      <path d="M114.619,67.832V65.625a11.232,11.232,0,0,0,6.093,1.914,7.844,7.844,0,0,0,4.981-1.357,4.587,4.587,0,0,0,1.7-3.8,4.956,4.956,0,0,0-1.143-3.428,22.572,22.572,0,0,0-4.951-3.486q-4.258-2.479-5.39-4.15a6.71,6.71,0,0,1-1.133-3.858,6.526,6.526,0,0,1,2.3-5.039,8.863,8.863,0,0,1,6.153-2.07,15.616,15.616,0,0,1,5,.84v2.031a12.6,12.6,0,0,0-5.254-1.113,6.679,6.679,0,0,0-4.522,1.445,4.645,4.645,0,0,0-1.669,3.672,4.915,4.915,0,0,0,1.142,3.418,22.51,22.51,0,0,0,4.932,3.457,17.62,17.62,0,0,1,5.224,3.955,6.433,6.433,0,0,1,1.3,3.975,6.769,6.769,0,0,1-2.236,5.253,9.064,9.064,0,0,1-6.319,2.032,14.611,14.611,0,0,1-3.33-.449A10.791,10.791,0,0,1,114.619,67.832Z" fill="#2e6ca4"/>
      <path d="M133.4,67.832V65.625a11.235,11.235,0,0,0,6.094,1.914,7.843,7.843,0,0,0,4.98-1.357,4.587,4.587,0,0,0,1.7-3.8,4.96,4.96,0,0,0-1.142-3.428,22.6,22.6,0,0,0-4.951-3.486q-4.258-2.479-5.391-4.15a6.71,6.71,0,0,1-1.133-3.858,6.527,6.527,0,0,1,2.305-5.039,8.86,8.86,0,0,1,6.152-2.07,15.616,15.616,0,0,1,5,.84v2.031a12.6,12.6,0,0,0-5.254-1.113,6.674,6.674,0,0,0-4.521,1.445,4.643,4.643,0,0,0-1.67,3.672,4.92,4.92,0,0,0,1.142,3.418A22.536,22.536,0,0,0,141.64,54.1a17.641,17.641,0,0,1,5.225,3.955,6.439,6.439,0,0,1,1.3,3.975,6.769,6.769,0,0,1-2.236,5.253,9.063,9.063,0,0,1-6.318,2.032,14.6,14.6,0,0,1-3.33-.449A10.787,10.787,0,0,1,133.4,67.832Z" fill="#2e6ca4"/>
      <path d="M152.863,68.828V40.821H154.8V68.828Z" fill="#2e6ca4"/>
      <path d="M159.933,67.832V65.625a11.235,11.235,0,0,0,6.094,1.914,7.843,7.843,0,0,0,4.98-1.357,4.587,4.587,0,0,0,1.7-3.8,4.955,4.955,0,0,0-1.142-3.428,22.6,22.6,0,0,0-4.951-3.486q-4.258-2.479-5.391-4.15a6.71,6.71,0,0,1-1.133-3.858,6.527,6.527,0,0,1,2.305-5.039,8.86,8.86,0,0,1,6.152-2.07,15.616,15.616,0,0,1,5,.84v2.031a12.6,12.6,0,0,0-5.254-1.113,6.674,6.674,0,0,0-4.521,1.445,4.646,4.646,0,0,0-1.67,3.672,4.915,4.915,0,0,0,1.143,3.418,22.5,22.5,0,0,0,4.931,3.457,17.627,17.627,0,0,1,5.225,3.955,6.44,6.44,0,0,1,1.3,3.975,6.77,6.77,0,0,1-2.237,5.253,9.061,9.061,0,0,1-6.318,2.032,14.6,14.6,0,0,1-3.33-.449A10.787,10.787,0,0,1,159.933,67.832Z" fill="#2e6ca4"/>
    </g>
  </g>
</svg>
