<svg xmlns="http://www.w3.org/2000/svg" viewBox="0 0 298 110">
  <title>4 - upgrade-ssas</title>
  <g id="background_blue" data-name="background blue">
    <rect width="298" height="110" fill="#e4edf1"/>
  </g>
  <g id="Shapes">
    <path d="M178.584,96.9h49.664C250.37,96.9,268.3,78.363,268.3,55.5s-17.935-41.406-40.049-41.406H69.857c-22.114,0-40.049,18.541-40.049,41.406S47.735,96.9,69.857,96.9H178.584Z" fill="none" stroke="#666" stroke-miterlimit="10" stroke-dasharray="2 2"/>
    <g>
      <rect x="52.081" y="28.227" width="41.247" height="50" fill-opacity="0"/>
      <rect x="54.093" y="28.227" width="37.626" height="50" fill-opacity="0"/>
      <path d="M54.093,35.068V71.386c0,3.722,8.45,6.841,18.812,6.841V35.068Z" fill="#0072c6"/>
      <path d="M72.6,78.227h.3c10.463,0,18.813-3.018,18.813-6.841V35.068H72.6V78.227Z" fill="#0072c6"/>
      <path d="M72.6,78.227h.3c10.463,0,18.813-3.018,18.813-6.841V35.068H72.6V78.227Z" fill="#fff" opacity="0.15" style="isolation: isolate"/>
      <path d="M91.718,35.068c0,3.722-8.45,6.841-18.813,6.841s-18.812-3.018-18.812-6.841c0-3.722,8.45-6.841,18.812-6.841S91.718,31.346,91.718,35.068Z" fill="#fff"/>
      <path d="M87.9,34.766c0,2.415-6.74,4.427-14.99,4.427s-14.989-2.012-14.989-4.427c0-2.515,6.74-4.527,14.989-4.527S87.9,32.251,87.9,34.766Z" fill="#7fba00"/>
      <path d="M84.777,37.483c2.012-.8,3.118-1.711,3.118-2.717,0-2.515-6.74-4.527-14.99-4.527s-14.989,2.012-14.989,4.527c0,1.006,1.207,2.012,3.118,2.717,2.717-1.107,7.043-1.711,11.871-1.711A31.886,31.886,0,0,1,84.777,37.483Z" fill="#b8d432"/>
      <rect x="52.081" y="45.33" width="41.247" height="22.133" fill-opacity="0"/>
      <path d="M59.611,61.021V58.663a4.466,4.466,0,0,0,2.91,1.076,3.318,3.318,0,0,0,.781-.081,1.853,1.853,0,0,0,.56-.221A1.015,1.015,0,0,0,64.2,59.1a.865.865,0,0,0,.111-.428.914.914,0,0,0-.177-.552,1.887,1.887,0,0,0-.487-.45,4.915,4.915,0,0,0-.722-.4q-.42-.191-.906-.39a4.656,4.656,0,0,1-1.849-1.26,2.762,2.762,0,0,1-.6-1.8,2.749,2.749,0,0,1,1.231-2.4,4.042,4.042,0,0,1,1.326-.56,6.66,6.66,0,0,1,1.592-.184,9.148,9.148,0,0,1,1.459.1,5.649,5.649,0,0,1,1.179.3v2.2a3.542,3.542,0,0,0-.582-.325,4.208,4.208,0,0,0-.641-.228,4.751,4.751,0,0,0-1.283-.184,3.1,3.1,0,0,0-.736.081,1.828,1.828,0,0,0-.56.213,1.068,1.068,0,0,0-.354.339.774.774,0,0,0-.125.435.848.848,0,0,0,.14.479,1.683,1.683,0,0,0,.4.4,4.509,4.509,0,0,0,.626.368q.368.177.832.369A8.758,8.758,0,0,1,65.2,55.8a3.937,3.937,0,0,1,.87.671,2.611,2.611,0,0,1,.552.862,3.4,3.4,0,0,1-.147,2.608,2.735,2.735,0,0,1-.906.973,4.017,4.017,0,0,1-1.341.53,7.687,7.687,0,0,1-1.607.162,9.043,9.043,0,0,1-1.658-.147A5,5,0,0,1,59.611,61.021Zm13.41.589a4.926,4.926,0,0,1-3.7-1.473,5.334,5.334,0,0,1-1.429-3.854,5.7,5.7,0,0,1,1.451-4.053,5.014,5.014,0,0,1,3.847-1.547,4.783,4.783,0,0,1,3.654,1.481,5.433,5.433,0,0,1,1.4,3.905,5.6,5.6,0,0,1-1.451,4.016c-.035.035-.067.069-.1.1s-.061.059-.1.089l2.675,2.571H75.946l-1.4-1.422A5.913,5.913,0,0,1,73.021,61.61Zm.1-8.879a2.4,2.4,0,0,0-1.989.944,3.9,3.9,0,0,0-.737,2.483,3.846,3.846,0,0,0,.737,2.483,2.361,2.361,0,0,0,1.93.914,2.387,2.387,0,0,0,1.953-.885A3.838,3.838,0,0,0,75.74,56.2a4.138,4.138,0,0,0-.7-2.557A2.27,2.27,0,0,0,73.124,52.731Zm13.175,8.7H80.006V50.86h2.38V59.5H86.3Z" fill="#fff"/>
    </g>
    <g>
      <g>
        <circle cx="216.083" cy="56.067" r="19.424" fill="#2e6ca4"/>
        <circle cx="216.083" cy="56.067" r="17.887" fill="#4c81b1"/>
        <circle cx="216.083" cy="56.067" r="16.349" fill="#6b97be"/>
        <circle cx="216.083" cy="56.067" r="14.811" fill="#89accb"/>
        <circle cx="216.083" cy="56.067" r="13.273" fill="#a7c2d7"/>
        <circle cx="216.083" cy="56.067" r="11.736" fill="#c6d7e4"/>
        <circle cx="216.083" cy="56.067" r="10.198" fill="#e4edf1"/>
      </g>
      <path d="M193.507,64.962A23.988,23.988,0,0,1,227.617,35.2l-.693,1.223a22.608,22.608,0,1,0,10.2,12.348l-2.45,5.548-1.292-.566,3.414-7.719,7.455,3.956-.661,1.248-5.06-2.692a23.972,23.972,0,0,1-45.024,16.416Z" fill="#3c3c41"/>
    </g>
  </g>
  <g id="Captions">
    <g>
      <path d="M106.04,66.934V64.727a11.243,11.243,0,0,0,6.094,1.914,7.843,7.843,0,0,0,4.98-1.358,4.587,4.587,0,0,0,1.7-3.8,4.957,4.957,0,0,0-1.142-3.427,22.557,22.557,0,0,0-4.951-3.487q-4.258-2.479-5.391-4.15a6.708,6.708,0,0,1-1.133-3.858,6.527,6.527,0,0,1,2.305-5.039,8.865,8.865,0,0,1,6.152-2.07,15.616,15.616,0,0,1,5,.84v2.031a12.6,12.6,0,0,0-5.254-1.113,6.674,6.674,0,0,0-4.521,1.445,4.643,4.643,0,0,0-1.67,3.672,4.92,4.92,0,0,0,1.142,3.418,22.536,22.536,0,0,0,4.932,3.457,17.641,17.641,0,0,1,5.225,3.955,6.441,6.441,0,0,1,1.3,3.975,6.771,6.771,0,0,1-2.236,5.254,9.067,9.067,0,0,1-6.318,2.031,14.6,14.6,0,0,1-3.33-.449A10.826,10.826,0,0,1,106.04,66.934Z" fill="#3c3c41"/>
      <path d="M124.819,66.934V64.727a11.243,11.243,0,0,0,6.094,1.914,7.841,7.841,0,0,0,4.98-1.358,4.588,4.588,0,0,0,1.7-3.8,4.953,4.953,0,0,0-1.143-3.427A22.557,22.557,0,0,0,131.5,54.57q-4.258-2.479-5.391-4.15a6.708,6.708,0,0,1-1.133-3.858,6.527,6.527,0,0,1,2.305-5.039,8.865,8.865,0,0,1,6.152-2.07,15.616,15.616,0,0,1,5,.84v2.031a12.6,12.6,0,0,0-5.253-1.113,6.675,6.675,0,0,0-4.522,1.445,4.646,4.646,0,0,0-1.67,3.672,4.915,4.915,0,0,0,1.143,3.418,22.5,22.5,0,0,0,4.931,3.457,17.613,17.613,0,0,1,5.225,3.955,6.442,6.442,0,0,1,1.3,3.975,6.769,6.769,0,0,1-2.237,5.254,9.065,9.065,0,0,1-6.318,2.031,14.6,14.6,0,0,1-3.33-.449A10.826,10.826,0,0,1,124.819,66.934Z" fill="#3c3c41"/>
      <path d="M162.907,67.93l-3.2-8.711H147.555l-3.2,8.711h-2.129L152.79,39.922h1.836L165.075,67.93Zm-8.594-23.438a10.46,10.46,0,0,1-.351-1.152q-.136-.488-.293-.977h-.078a19.06,19.06,0,0,1-.645,2.09l-4.707,12.988h10.8Z" fill="#3c3c41"/>
      <path d="M168.678,66.934V64.727a11.24,11.24,0,0,0,6.093,1.914,7.844,7.844,0,0,0,4.981-1.358,4.587,4.587,0,0,0,1.7-3.8,4.953,4.953,0,0,0-1.143-3.427,22.531,22.531,0,0,0-4.951-3.487q-4.258-2.479-5.39-4.15a6.708,6.708,0,0,1-1.133-3.858,6.526,6.526,0,0,1,2.3-5.039,8.867,8.867,0,0,1,6.153-2.07,15.616,15.616,0,0,1,5,.84v2.031a12.6,12.6,0,0,0-5.254-1.113,6.679,6.679,0,0,0-4.522,1.445,4.645,4.645,0,0,0-1.669,3.672,4.915,4.915,0,0,0,1.142,3.418A22.51,22.51,0,0,0,176.92,53.2a17.62,17.62,0,0,1,5.224,3.955,6.436,6.436,0,0,1,1.3,3.975,6.771,6.771,0,0,1-2.236,5.254,9.068,9.068,0,0,1-6.319,2.031,14.611,14.611,0,0,1-3.33-.449A10.83,10.83,0,0,1,168.678,66.934Z" fill="#3c3c41"/>
    </g>
  </g>
</svg>
