<svg xmlns="http://www.w3.org/2000/svg" viewBox="0 0 298 110">
  <title>4 - upgrade-ssrs</title>
  <g id="background_blue" data-name="background blue">
    <rect width="298" height="110" fill="#e4edf1"/>
  </g>
  <g id="Shapes">
    <path d="M178.584,96.789h49.664c22.122,0,40.049-18.54,40.049-41.406s-17.935-41.406-40.049-41.406H69.857c-22.114,0-40.049,18.541-40.049,41.406S47.735,96.789,69.857,96.789H178.584Z" fill="none" stroke="#666" stroke-miterlimit="10" stroke-dasharray="2 2"/>
    <g>
      <rect x="52.377" y="29.113" width="41.247" height="50" fill-opacity="0"/>
      <rect x="54.389" y="29.113" width="37.626" height="50" fill-opacity="0"/>
      <path d="M54.389,35.954V72.272c0,3.722,8.45,6.841,18.813,6.841V35.954Z" fill="#0072c6"/>
      <path d="M72.9,79.113h.3c10.462,0,18.812-3.018,18.812-6.841V35.954H72.9V79.113Z" fill="#0072c6"/>
      <path d="M72.9,79.113h.3c10.462,0,18.812-3.018,18.812-6.841V35.954H72.9V79.113Z" fill="#fff" opacity="0.15" style="isolation: isolate"/>
      <path d="M92.014,35.954c0,3.722-8.45,6.841-18.812,6.841s-18.813-3.018-18.813-6.841c0-3.722,8.45-6.841,18.813-6.841S92.014,32.232,92.014,35.954Z" fill="#fff"/>
      <path d="M88.191,35.652c0,2.415-6.74,4.427-14.989,4.427s-14.99-2.012-14.99-4.427c0-2.515,6.74-4.527,14.99-4.527S88.191,33.137,88.191,35.652Z" fill="#7fba00"/>
      <path d="M85.073,38.369c2.012-.8,3.118-1.711,3.118-2.717,0-2.515-6.74-4.527-14.989-4.527s-14.99,2.012-14.99,4.527c0,1.006,1.207,2.012,3.118,2.717,2.717-1.107,7.043-1.711,11.872-1.711A31.884,31.884,0,0,1,85.073,38.369Z" fill="#b8d432"/>
      <rect x="52.377" y="46.216" width="41.247" height="22.133" fill-opacity="0"/>
      <path d="M59.907,61.907V59.549a4.466,4.466,0,0,0,2.91,1.076,3.318,3.318,0,0,0,.781-.081,1.853,1.853,0,0,0,.56-.221,1.033,1.033,0,0,0,.339-.339.865.865,0,0,0,.111-.428A.914.914,0,0,0,64.431,59a1.887,1.887,0,0,0-.487-.45,4.915,4.915,0,0,0-.722-.4q-.42-.19-.906-.39a4.656,4.656,0,0,1-1.849-1.26,2.762,2.762,0,0,1-.6-1.8,2.749,2.749,0,0,1,1.231-2.395,4.042,4.042,0,0,1,1.326-.56,6.66,6.66,0,0,1,1.592-.184,9.148,9.148,0,0,1,1.459.1,5.649,5.649,0,0,1,1.179.3v2.2a3.614,3.614,0,0,0-.582-.324,4.208,4.208,0,0,0-.641-.228,4.751,4.751,0,0,0-1.283-.184,3.1,3.1,0,0,0-.736.081,1.828,1.828,0,0,0-.56.213,1.068,1.068,0,0,0-.354.339.774.774,0,0,0-.125.435.851.851,0,0,0,.14.479,1.7,1.7,0,0,0,.4.4,4.509,4.509,0,0,0,.626.368c.245.118.523.241.832.369a8.758,8.758,0,0,1,1.135.567,3.937,3.937,0,0,1,.87.671,2.611,2.611,0,0,1,.552.862,3.4,3.4,0,0,1-.147,2.608,2.735,2.735,0,0,1-.906.973,4.009,4.009,0,0,1-1.341.53,7.687,7.687,0,0,1-1.607.162,9.043,9.043,0,0,1-1.658-.147A5,5,0,0,1,59.907,61.907Zm13.41.589a4.926,4.926,0,0,1-3.7-1.473,5.334,5.334,0,0,1-1.429-3.854,5.7,5.7,0,0,1,1.451-4.053,5.014,5.014,0,0,1,3.847-1.547,4.783,4.783,0,0,1,3.654,1.481,5.433,5.433,0,0,1,1.4,3.905,5.6,5.6,0,0,1-1.451,4.016c-.035.035-.067.069-.1.1s-.061.059-.1.089l2.675,2.571H76.242l-1.4-1.422A5.913,5.913,0,0,1,73.317,62.5Zm.1-8.879a2.4,2.4,0,0,0-1.989.944,3.9,3.9,0,0,0-.737,2.483,3.846,3.846,0,0,0,.737,2.483,2.361,2.361,0,0,0,1.93.914,2.387,2.387,0,0,0,1.953-.885,3.838,3.838,0,0,0,.722-2.468,4.138,4.138,0,0,0-.7-2.557A2.27,2.27,0,0,0,73.42,53.617Zm13.175,8.7H80.3V51.746h2.38v8.636H86.6Z" fill="#fff"/>
    </g>
    <g>
      <g>
        <circle cx="216.379" cy="57.029" r="19.424" fill="#2e6ca4"/>
        <circle cx="216.379" cy="57.029" r="17.887" fill="#4c81b1"/>
        <circle cx="216.379" cy="57.029" r="16.349" fill="#6b97be"/>
        <circle cx="216.379" cy="57.029" r="14.811" fill="#89accb"/>
        <circle cx="216.379" cy="57.029" r="13.273" fill="#a7c2d7"/>
        <circle cx="216.379" cy="57.029" r="11.736" fill="#c6d7e4"/>
        <circle cx="216.379" cy="57.029" r="10.198" fill="#e4edf1"/>
      </g>
      <path d="M193.8,65.925a23.988,23.988,0,0,1,34.11-29.762l-.693,1.222a22.608,22.608,0,1,0,10.2,12.349l-2.45,5.547-1.292-.566L237.093,47l7.455,3.956-.661,1.247-5.06-2.692A23.973,23.973,0,0,1,193.8,65.925Z" fill="#3c3c41"/>
    </g>
  </g>
  <g id="Captions">
    <g>
      <path d="M108.253,67.819V65.612a11.235,11.235,0,0,0,6.094,1.914,7.843,7.843,0,0,0,4.98-1.357,4.587,4.587,0,0,0,1.7-3.8,4.96,4.96,0,0,0-1.142-3.428,22.6,22.6,0,0,0-4.951-3.486q-4.259-2.48-5.391-4.15a6.71,6.71,0,0,1-1.133-3.858,6.527,6.527,0,0,1,2.3-5.039,8.86,8.86,0,0,1,6.152-2.07,15.616,15.616,0,0,1,5,.84V43.21a12.6,12.6,0,0,0-5.254-1.113,6.674,6.674,0,0,0-4.521,1.445,4.643,4.643,0,0,0-1.67,3.672,4.92,4.92,0,0,0,1.142,3.418,22.536,22.536,0,0,0,4.932,3.457,17.641,17.641,0,0,1,5.225,3.955,6.439,6.439,0,0,1,1.3,3.975,6.773,6.773,0,0,1-2.236,5.254,9.067,9.067,0,0,1-6.318,2.031,14.6,14.6,0,0,1-3.33-.449A10.787,10.787,0,0,1,108.253,67.819Z" fill="#0072c6"/>
      <path d="M127.032,67.819V65.612a11.235,11.235,0,0,0,6.094,1.914,7.841,7.841,0,0,0,4.98-1.357,4.588,4.588,0,0,0,1.7-3.8,4.956,4.956,0,0,0-1.143-3.428,22.6,22.6,0,0,0-4.951-3.486q-4.258-2.48-5.391-4.15a6.71,6.71,0,0,1-1.133-3.858,6.527,6.527,0,0,1,2.3-5.039,8.86,8.86,0,0,1,6.152-2.07,15.616,15.616,0,0,1,5,.84V43.21a12.6,12.6,0,0,0-5.253-1.113,6.675,6.675,0,0,0-4.522,1.445,4.646,4.646,0,0,0-1.67,3.672,4.915,4.915,0,0,0,1.143,3.418,22.5,22.5,0,0,0,4.931,3.457,17.613,17.613,0,0,1,5.225,3.955,6.44,6.44,0,0,1,1.3,3.975,6.77,6.77,0,0,1-2.237,5.254,9.065,9.065,0,0,1-6.318,2.031,14.6,14.6,0,0,1-3.33-.449A10.787,10.787,0,0,1,127.032,67.819Z" fill="#0072c6"/>
      <path d="M160.837,68.815l-3.731-8.2a8.925,8.925,0,0,0-2.3-3.408,4.67,4.67,0,0,0-2.891-.869h-3.476v12.48H146.5V40.808h7.773a8.147,8.147,0,0,1,5.83,2,6.925,6.925,0,0,1,2.12,5.283,7.506,7.506,0,0,1-1.739,5.058,8.125,8.125,0,0,1-4.863,2.618v.078q1.659.664,3.242,4.043l4.16,8.925Zm-12.4-26.23V54.577h4.824a7.368,7.368,0,0,0,5.088-1.679,5.861,5.861,0,0,0,1.884-4.61,5.319,5.319,0,0,0-1.7-4.189,7.077,7.077,0,0,0-4.863-1.514Z" fill="#0072c6"/>
      <path d="M167.058,67.819V65.612a11.232,11.232,0,0,0,6.093,1.914,7.844,7.844,0,0,0,4.981-1.357,4.587,4.587,0,0,0,1.7-3.8,4.956,4.956,0,0,0-1.143-3.428,22.572,22.572,0,0,0-4.951-3.486q-4.258-2.48-5.39-4.15a6.71,6.71,0,0,1-1.133-3.858,6.526,6.526,0,0,1,2.3-5.039,8.863,8.863,0,0,1,6.153-2.07,15.616,15.616,0,0,1,5,.84V43.21a12.6,12.6,0,0,0-5.254-1.113,6.679,6.679,0,0,0-4.522,1.445,4.645,4.645,0,0,0-1.669,3.672,4.915,4.915,0,0,0,1.142,3.418,22.51,22.51,0,0,0,4.932,3.457,17.62,17.62,0,0,1,5.224,3.955,6.433,6.433,0,0,1,1.3,3.975,6.773,6.773,0,0,1-2.236,5.254,9.068,9.068,0,0,1-6.319,2.031,14.611,14.611,0,0,1-3.33-.449A10.791,10.791,0,0,1,167.058,67.819Z" fill="#0072c6"/>
    </g>
  </g>
</svg>
