<svg xmlns="http://www.w3.org/2000/svg" viewBox="0 0 298 110">
  <title>1 - availability-groups</title>
  <g id="background_blue" data-name="background blue">
    <rect x="0.007" y="-0.205" width="298" height="110" fill="#e4edf1"/>
  </g>
  <g id="Shapes">
    <g>
      <g>
        <path d="M159.005,75.065H111.081a8.024,8.024,0,0,1-8-8V43.573a8.024,8.024,0,0,1,8-8H132.6" fill="none" stroke="#75757a" stroke-miterlimit="10" stroke-dasharray="3 3"/>
        <polygon points="129.28 39.662 128.597 38.93 132.209 35.574 128.597 32.216 129.28 31.484 133.678 35.574 129.28 39.662" fill="#75757a"/>
      </g>
      <g>
        <path d="M138.936,35.573H186.9a8.024,8.024,0,0,1,8,8V67.065a8.024,8.024,0,0,1-8,8H165.383" fill="none" stroke="#75757a" stroke-miterlimit="10" stroke-dasharray="3 3"/>
        <polygon points="168.701 70.975 169.383 71.708 165.771 75.064 169.383 78.421 168.701 79.154 164.303 75.064 168.701 70.975" fill="#75757a"/>
      </g>
    </g>
    <g>
      <path d="M154.12,48.263a9.558,9.558,0,0,1,4.126,12.092,10.155,10.155,0,0,1-13.126,5.216,9.716,9.716,0,0,1-6.164-8.919,9.331,9.331,0,0,1,.776-3.787,9.75,9.75,0,0,1,3.708-4.348" fill="none" stroke="#0072c6" stroke-linecap="round" stroke-miterlimit="10" stroke-width="3"/>
      <line x1="148.99" y1="44.324" x2="148.99" y2="52.088" fill="none" stroke="#0072c6" stroke-linecap="round" stroke-miterlimit="10" stroke-width="3"/>
    </g>
    <g>
      <g>
        <path d="M70.362,83.511a3.466,3.466,0,0,1-3.5,3.5H32.842a3.466,3.466,0,0,1-3.5-3.5v-63a3.466,3.466,0,0,1,3.5-3.5h34.02a3.466,3.466,0,0,1,3.5,3.5Z" fill="#3e3e3e"/>
        <path d="M35.222,54.811a4.423,4.423,0,0,1,4.48-4.48h20.44a4.423,4.423,0,0,1,4.48,4.48h0a4.423,4.423,0,0,1-4.48,4.48H39.7a4.511,4.511,0,0,1-4.48-4.48Z" fill="#1e1e1e"/>
        <circle cx="39.982" cy="54.811" r="2.94" fill="#b8d432"/>
        <path d="M35.222,41.511a4.423,4.423,0,0,1,4.48-4.48h20.44a4.423,4.423,0,0,1,4.48,4.48h0a4.423,4.423,0,0,1-4.48,4.48H39.7a4.511,4.511,0,0,1-4.48-4.48Z" fill="#1e1e1e"/>
        <circle cx="39.982" cy="41.511" r="2.94" fill="#b8d432"/>
        <path d="M35.222,28.351a4.423,4.423,0,0,1,4.48-4.48h20.44a4.423,4.423,0,0,1,4.48,4.48h0a4.423,4.423,0,0,1-4.48,4.48H39.7a4.606,4.606,0,0,1-4.48-4.48Z" fill="#1e1e1e"/>
        <circle cx="39.982" cy="28.351" r="2.94" fill="#b8d432"/>
      </g>
      <g>
        <rect x="62.274" y="51.011" width="32.998" height="40" fill-opacity="0"/>
        <rect x="63.883" y="51.011" width="30.101" height="40" fill-opacity="0"/>
        <path d="M63.883,56.483V85.538c0,2.978,6.761,5.473,15.051,5.473V56.483Z" fill="#0072c6"/>
        <path d="M78.692,91.011h.242c8.37,0,15.05-2.415,15.05-5.473V56.483H78.692V91.011Z" fill="#0072c6"/>
        <path d="M78.692,91.011h.242c8.37,0,15.05-2.415,15.05-5.473V56.483H78.692V91.011Z" fill="#fff" opacity="0.15" style="isolation: isolate"/>
        <path d="M93.984,56.483c0,2.978-6.761,5.473-15.05,5.473s-15.051-2.414-15.051-5.473c0-2.977,6.761-5.472,15.051-5.472S93.984,53.506,93.984,56.483Z" fill="#fff"/>
        <path d="M90.926,56.242c0,1.932-5.393,3.541-11.992,3.541s-11.992-1.609-11.992-3.541c0-2.012,5.392-3.622,11.992-3.622S90.926,54.23,90.926,56.242Z" fill="#7fba00"/>
        <path d="M88.431,58.415c1.609-.644,2.5-1.368,2.5-2.173,0-2.012-5.393-3.622-11.992-3.622s-11.992,1.61-11.992,3.622c0,.8.965,1.61,2.5,2.173a27.286,27.286,0,0,1,9.5-1.368A25.5,25.5,0,0,1,88.431,58.415Z" fill="#b8d432"/>
        <rect x="62.274" y="64.693" width="32.998" height="17.706" fill-opacity="0"/>
        <path d="M68.3,77.246V75.359a3.684,3.684,0,0,0,1.114.649,3.635,3.635,0,0,0,1.214.212,2.667,2.667,0,0,0,.625-.065,1.464,1.464,0,0,0,.448-.177.805.805,0,0,0,.271-.271.692.692,0,0,0,.089-.342.736.736,0,0,0-.142-.442,1.511,1.511,0,0,0-.389-.359,3.966,3.966,0,0,0-.578-.319c-.224-.1-.465-.206-.725-.312a3.723,3.723,0,0,1-1.479-1.008,2.2,2.2,0,0,1-.484-1.438,2.27,2.27,0,0,1,.266-1.132,2.234,2.234,0,0,1,.719-.784,3.2,3.2,0,0,1,1.061-.448,5.344,5.344,0,0,1,1.273-.148,7.33,7.33,0,0,1,1.167.083,4.455,4.455,0,0,1,.943.242v1.762a2.736,2.736,0,0,0-.465-.259,3.258,3.258,0,0,0-.513-.183,3.721,3.721,0,0,0-.531-.112,3.6,3.6,0,0,0-.5-.035,2.442,2.442,0,0,0-.589.065,1.47,1.47,0,0,0-.448.17.86.86,0,0,0-.283.272.618.618,0,0,0-.1.347.683.683,0,0,0,.112.384,1.328,1.328,0,0,0,.318.318,3.8,3.8,0,0,0,.5.3q.294.141.666.294a7.045,7.045,0,0,1,.908.454,3.106,3.106,0,0,1,.695.537,2.1,2.1,0,0,1,.443.689,2.73,2.73,0,0,1-.118,2.087,2.189,2.189,0,0,1-.725.778,3.206,3.206,0,0,1-1.073.425,6.173,6.173,0,0,1-1.285.129,7.184,7.184,0,0,1-1.327-.118A3.978,3.978,0,0,1,68.3,77.246Zm10.728.471a3.939,3.939,0,0,1-2.959-1.179,4.266,4.266,0,0,1-1.144-3.083,4.556,4.556,0,0,1,1.162-3.242,4.01,4.01,0,0,1,3.077-1.238,3.829,3.829,0,0,1,2.924,1.185,4.352,4.352,0,0,1,1.12,3.124A4.481,4.481,0,0,1,82.044,76.5c-.027.028-.053.055-.076.083s-.049.047-.077.07l2.14,2.058H81.366l-1.12-1.138A4.75,4.75,0,0,1,79.026,77.717Zm.083-7.1a1.926,1.926,0,0,0-1.592.755,3.12,3.12,0,0,0-.589,1.986,3.079,3.079,0,0,0,.589,1.987,1.89,1.89,0,0,0,1.545.731,1.91,1.91,0,0,0,1.562-.708,3.067,3.067,0,0,0,.577-1.974,3.308,3.308,0,0,0-.56-2.046A1.815,1.815,0,0,0,79.109,70.614Zm10.54,6.956H84.614V69.117h1.9v6.909h3.131Z" fill="#fff"/>
      </g>
    </g>
    <g>
      <g>
        <path d="M246.292,83.511a3.466,3.466,0,0,1-3.5,3.5h-34.02a3.466,3.466,0,0,1-3.5-3.5v-63a3.466,3.466,0,0,1,3.5-3.5h34.02a3.466,3.466,0,0,1,3.5,3.5Z" fill="#3e3e3e"/>
        <path d="M211.152,54.811a4.423,4.423,0,0,1,4.48-4.48h20.44a4.423,4.423,0,0,1,4.48,4.48h0a4.423,4.423,0,0,1-4.48,4.48h-20.44a4.511,4.511,0,0,1-4.48-4.48Z" fill="#1e1e1e"/>
        <circle cx="215.912" cy="54.811" r="2.94" fill="#b8d432"/>
        <path d="M211.152,41.511a4.423,4.423,0,0,1,4.48-4.48h20.44a4.423,4.423,0,0,1,4.48,4.48h0a4.423,4.423,0,0,1-4.48,4.48h-20.44a4.511,4.511,0,0,1-4.48-4.48Z" fill="#1e1e1e"/>
        <circle cx="215.912" cy="41.511" r="2.94" fill="#b8d432"/>
        <path d="M211.152,28.351a4.423,4.423,0,0,1,4.48-4.48h20.44a4.423,4.423,0,0,1,4.48,4.48h0a4.423,4.423,0,0,1-4.48,4.48h-20.44a4.606,4.606,0,0,1-4.48-4.48Z" fill="#1e1e1e"/>
        <circle cx="215.912" cy="28.351" r="2.94" fill="#b8d432"/>
      </g>
      <g>
        <rect x="238.203" y="51.011" width="32.998" height="40" fill-opacity="0"/>
        <rect x="239.813" y="51.011" width="30.101" height="40" fill-opacity="0"/>
        <path d="M239.813,56.483V85.538c0,2.978,6.76,5.473,15.05,5.473V56.483Z" fill="#0072c6"/>
        <path d="M254.622,91.011h.241c8.37,0,15.05-2.415,15.05-5.473V56.483H254.622V91.011Z" fill="#0072c6"/>
        <path d="M254.622,91.011h.241c8.37,0,15.05-2.415,15.05-5.473V56.483H254.622V91.011Z" fill="#fff" opacity="0.15" style="isolation: isolate"/>
        <path d="M269.913,56.483c0,2.978-6.76,5.473-15.05,5.473s-15.05-2.414-15.05-5.473c0-2.977,6.76-5.472,15.05-5.472S269.913,53.506,269.913,56.483Z" fill="#fff"/>
        <path d="M266.855,56.242c0,1.932-5.392,3.541-11.992,3.541s-11.992-1.609-11.992-3.541c0-2.012,5.393-3.622,11.992-3.622S266.855,54.23,266.855,56.242Z" fill="#7fba00"/>
        <path d="M264.36,58.415c1.61-.644,2.5-1.368,2.5-2.173,0-2.012-5.392-3.622-11.992-3.622s-11.992,1.61-11.992,3.622c0,.8.966,1.61,2.5,2.173a27.29,27.29,0,0,1,9.5-1.368A25.5,25.5,0,0,1,264.36,58.415Z" fill="#b8d432"/>
        <rect x="238.203" y="64.693" width="32.998" height="17.706" fill-opacity="0"/>
        <path d="M244.227,77.246V75.359a3.684,3.684,0,0,0,1.114.649,3.641,3.641,0,0,0,1.215.212,2.658,2.658,0,0,0,.624-.065,1.454,1.454,0,0,0,.448-.177.809.809,0,0,0,.272-.271.692.692,0,0,0,.088-.342.735.735,0,0,0-.141-.442,1.516,1.516,0,0,0-.39-.359,3.951,3.951,0,0,0-.577-.319q-.336-.153-.725-.312a3.727,3.727,0,0,1-1.48-1.008,2.21,2.21,0,0,1-.483-1.438,2.2,2.2,0,0,1,.984-1.916,3.208,3.208,0,0,1,1.061-.448,5.353,5.353,0,0,1,1.274-.148,7.33,7.33,0,0,1,1.167.083,4.471,4.471,0,0,1,.943.242v1.762a2.785,2.785,0,0,0-.466-.259,3.258,3.258,0,0,0-.513-.183,3.679,3.679,0,0,0-.53-.112,3.6,3.6,0,0,0-.5-.035,2.445,2.445,0,0,0-.59.065,1.47,1.47,0,0,0-.448.17.86.86,0,0,0-.283.272.618.618,0,0,0-.1.347.683.683,0,0,0,.112.384,1.366,1.366,0,0,0,.318.318,3.933,3.933,0,0,0,.5.3q.3.141.666.294a7.045,7.045,0,0,1,.908.454,3.136,3.136,0,0,1,.7.537,2.1,2.1,0,0,1,.442.689,2.73,2.73,0,0,1-.118,2.087,2.18,2.18,0,0,1-.725.778,3.2,3.2,0,0,1-1.073.425,6.173,6.173,0,0,1-1.285.129,7.165,7.165,0,0,1-1.326-.118A3.985,3.985,0,0,1,244.227,77.246Zm10.729.471A3.942,3.942,0,0,1,252,76.538a4.265,4.265,0,0,1-1.143-3.083,4.56,4.56,0,0,1,1.161-3.242,4.01,4.01,0,0,1,3.077-1.238,3.827,3.827,0,0,1,2.924,1.185,4.348,4.348,0,0,1,1.12,3.124,4.48,4.48,0,0,1-1.161,3.213c-.028.028-.053.055-.077.083s-.049.047-.077.07l2.14,2.058H257.3l-1.12-1.138A4.755,4.755,0,0,1,254.956,77.717Zm.082-7.1a1.922,1.922,0,0,0-1.591.755,3.12,3.12,0,0,0-.59,1.986,3.079,3.079,0,0,0,.59,1.987,1.888,1.888,0,0,0,1.544.731,1.91,1.91,0,0,0,1.562-.708,3.067,3.067,0,0,0,.578-1.974,3.315,3.315,0,0,0-.56-2.046A1.819,1.819,0,0,0,255.038,70.614Zm10.54,6.956h-5.034V69.117h1.9v6.909h3.13Z" fill="#fff"/>
      </g>
    </g>
  </g>
</svg>
