<svg xmlns="http://www.w3.org/2000/svg" viewBox="0 0 298 110">
  <title>1 - backup-restore</title>
  <g id="background_blue" data-name="background blue">
    <rect y="-0.181" width="298" height="110" fill="#e4edf1"/>
  </g>
  <g id="Shapes">
    <g>
      <g>
        <path d="M176.557,78.456H42.178a8.024,8.024,0,0,1-8-8V34.182a8.024,8.024,0,0,1,8-8H76.43" fill="none" stroke="#75757a" stroke-miterlimit="10" stroke-dasharray="3 3"/>
        <polygon points="73.113 30.272 72.431 29.54 76.043 26.183 72.431 22.826 73.113 22.093 77.511 26.183 73.113 30.272" fill="#75757a"/>
      </g>
      <g>
        <path d="M138.355,26.182H255.6a8.024,8.024,0,0,1,8,8V56.176a8.024,8.024,0,0,1-8,8H221.039" fill="none" stroke="#75757a" stroke-miterlimit="10" stroke-dasharray="3 3"/>
        <polygon points="224.354 60.086 225.037 60.818 221.425 64.175 225.037 67.532 224.354 68.265 219.956 64.175 224.354 60.086" fill="#75757a"/>
      </g>
    </g>
    <g>
      <g>
        <path d="M134.795,58.682a2.476,2.476,0,0,1-2.5,2.5H108a2.476,2.476,0,0,1-2.5-2.5v-45a2.476,2.476,0,0,1,2.5-2.5h24.3a2.476,2.476,0,0,1,2.5,2.5Z" fill="#3e3e3e"/>
        <path d="M109.7,38.182a3.159,3.159,0,0,1,3.2-3.2h14.6a3.159,3.159,0,0,1,3.2,3.2h0a3.159,3.159,0,0,1-3.2,3.2H112.9a3.222,3.222,0,0,1-3.2-3.2Z" fill="#1e1e1e"/>
        <circle cx="113.095" cy="38.182" r="2.1" fill="#b8d432"/>
        <path d="M109.7,28.682a3.159,3.159,0,0,1,3.2-3.2h14.6a3.159,3.159,0,0,1,3.2,3.2h0a3.159,3.159,0,0,1-3.2,3.2H112.9a3.222,3.222,0,0,1-3.2-3.2Z" fill="#1e1e1e"/>
        <circle cx="113.095" cy="28.682" r="2.1" fill="#b8d432"/>
        <path d="M109.7,19.282a3.159,3.159,0,0,1,3.2-3.2h14.6a3.159,3.159,0,0,1,3.2,3.2h0a3.159,3.159,0,0,1-3.2,3.2H112.9a3.29,3.29,0,0,1-3.2-3.2Z" fill="#1e1e1e"/>
        <circle cx="113.095" cy="19.282" r="2.1" fill="#b8d432"/>
      </g>
      <g>
        <rect x="79.08" y="11.182" width="24.748" height="30" fill-opacity="0"/>
        <rect x="80.287" y="11.182" width="22.575" height="30" fill-opacity="0"/>
        <path d="M80.287,15.287V37.078c0,2.233,5.07,4.1,11.288,4.1v-25.9Z" fill="#0072c6"/>
        <path d="M91.394,41.182h.181c6.277,0,11.287-1.811,11.287-4.1V15.287H91.394v25.9Z" fill="#0072c6"/>
        <path d="M91.394,41.182h.181c6.277,0,11.287-1.811,11.287-4.1V15.287H91.394v25.9Z" fill="#fff" opacity="0.15" style="isolation: isolate"/>
        <path d="M102.862,15.287c0,2.233-5.07,4.1-11.287,4.1s-11.288-1.81-11.288-4.1c0-2.234,5.07-4.105,11.288-4.105S102.862,13.053,102.862,15.287Z" fill="#fff"/>
        <path d="M100.569,15.106c0,1.448-4.045,2.656-8.994,2.656s-8.994-1.208-8.994-2.656c0-1.509,4.044-2.717,8.994-2.717S100.569,13.6,100.569,15.106Z" fill="#7fba00"/>
        <path d="M98.7,16.736c1.208-.483,1.872-1.027,1.872-1.63,0-1.509-4.045-2.717-8.994-2.717s-8.994,1.208-8.994,2.717c0,.6.724,1.207,1.871,1.63a20.458,20.458,0,0,1,7.123-1.027A19.125,19.125,0,0,1,98.7,16.736Z" fill="#b8d432"/>
        <rect x="79.08" y="21.444" width="24.748" height="13.28" fill-opacity="0"/>
        <path d="M83.6,30.859V29.444a2.756,2.756,0,0,0,.835.486,2.727,2.727,0,0,0,.911.159,2.02,2.02,0,0,0,.469-.048,1.138,1.138,0,0,0,.336-.133.614.614,0,0,0,.2-.2.523.523,0,0,0,.066-.257.545.545,0,0,0-.106-.331,1.122,1.122,0,0,0-.291-.27,2.925,2.925,0,0,0-.434-.239c-.168-.076-.349-.155-.544-.234a2.783,2.783,0,0,1-1.109-.756,1.656,1.656,0,0,1-.363-1.079A1.647,1.647,0,0,1,84.31,25.1a2.424,2.424,0,0,1,.8-.336,4.038,4.038,0,0,1,.955-.11,5.427,5.427,0,0,1,.876.062,3.309,3.309,0,0,1,.707.181v1.322a2.057,2.057,0,0,0-.349-.2,2.551,2.551,0,0,0-.385-.137,2.793,2.793,0,0,0-.4-.084,2.849,2.849,0,0,0-.371-.026,1.883,1.883,0,0,0-.442.048,1.1,1.1,0,0,0-.336.129.627.627,0,0,0-.212.2.462.462,0,0,0-.076.261.511.511,0,0,0,.084.287,1.019,1.019,0,0,0,.239.239,2.836,2.836,0,0,0,.376.221c.147.071.314.144.5.221a5.317,5.317,0,0,1,.68.34,2.318,2.318,0,0,1,.522.4,1.575,1.575,0,0,1,.332.517,1.818,1.818,0,0,1,.115.672,1.8,1.8,0,0,1-.2.893,1.637,1.637,0,0,1-.544.584,2.4,2.4,0,0,1-.8.318,4.6,4.6,0,0,1-.964.1,5.409,5.409,0,0,1-1-.088A3.032,3.032,0,0,1,83.6,30.859Zm8.046.353a2.956,2.956,0,0,1-2.219-.884,3.2,3.2,0,0,1-.858-2.312,3.42,3.42,0,0,1,.871-2.432,3.007,3.007,0,0,1,2.308-.928,2.872,2.872,0,0,1,2.193.888,3.264,3.264,0,0,1,.84,2.344,3.362,3.362,0,0,1-.871,2.409c-.021.021-.04.041-.058.062s-.037.035-.057.053l1.6,1.543h-2l-.84-.853A3.586,3.586,0,0,1,91.644,31.212Zm.062-5.327a1.442,1.442,0,0,0-1.194.566,2.345,2.345,0,0,0-.442,1.49,2.314,2.314,0,0,0,.442,1.49,1.528,1.528,0,0,0,2.33.017,2.3,2.3,0,0,0,.434-1.481,2.492,2.492,0,0,0-.42-1.534A1.365,1.365,0,0,0,91.706,25.885ZM99.611,31.1H95.835v-6.34h1.428v5.181h2.348Z" fill="#fff"/>
      </g>
    </g>
    <g>
      <path d="M190.841,96.676a2.476,2.476,0,0,1-2.5,2.5h-24.3a2.476,2.476,0,0,1-2.5-2.5v-45a2.476,2.476,0,0,1,2.5-2.5h24.3a2.476,2.476,0,0,1,2.5,2.5Z" fill="#3e3e3e"/>
      <path d="M165.741,76.176a3.159,3.159,0,0,1,3.2-3.2h14.6a3.159,3.159,0,0,1,3.2,3.2h0a3.159,3.159,0,0,1-3.2,3.2h-14.6a3.222,3.222,0,0,1-3.2-3.2Z" fill="#1e1e1e"/>
      <circle cx="169.141" cy="76.176" r="2.1" fill="#b8d432"/>
      <path d="M165.741,66.676a3.159,3.159,0,0,1,3.2-3.2h14.6a3.159,3.159,0,0,1,3.2,3.2h0a3.159,3.159,0,0,1-3.2,3.2h-14.6a3.222,3.222,0,0,1-3.2-3.2Z" fill="#1e1e1e"/>
      <circle cx="169.141" cy="66.676" r="2.1" fill="#b8d432"/>
      <path d="M165.741,57.276a3.159,3.159,0,0,1,3.2-3.2h14.6a3.159,3.159,0,0,1,3.2,3.2h0a3.159,3.159,0,0,1-3.2,3.2h-14.6a3.29,3.29,0,0,1-3.2-3.2Z" fill="#1e1e1e"/>
      <circle cx="169.141" cy="57.276" r="2.1" fill="#b8d432"/>
    </g>
    <g>
      <rect x="193.16" y="49.176" width="24.748" height="30" fill-opacity="0"/>
      <rect x="194.367" y="49.176" width="22.575" height="30" fill-opacity="0"/>
      <path d="M194.367,53.28V75.071c0,2.233,5.071,4.105,11.288,4.105V53.28Z" fill="#0072c6"/>
      <path d="M205.474,79.176h.181c6.278,0,11.288-1.811,11.288-4.105V53.28H205.474v25.9Z" fill="#0072c6"/>
      <path d="M205.474,79.176h.181c6.278,0,11.288-1.811,11.288-4.105V53.28H205.474v25.9Z" fill="#fff" opacity="0.15" style="isolation: isolate"/>
      <path d="M216.943,53.28c0,2.234-5.071,4.1-11.288,4.1s-11.288-1.811-11.288-4.1c0-2.233,5.071-4.1,11.288-4.1S216.943,51.047,216.943,53.28Z" fill="#fff"/>
      <path d="M214.649,53.1c0,1.449-4.044,2.656-8.994,2.656s-8.994-1.207-8.994-2.656c0-1.509,4.044-2.716,8.994-2.716S214.649,51.59,214.649,53.1Z" fill="#7fba00"/>
      <path d="M212.778,54.729c1.207-.483,1.871-1.026,1.871-1.63,0-1.509-4.044-2.716-8.994-2.716s-8.994,1.207-8.994,2.716c0,.6.724,1.207,1.871,1.63a20.465,20.465,0,0,1,7.123-1.026A19.116,19.116,0,0,1,212.778,54.729Z" fill="#b8d432"/>
      <rect x="193.16" y="59.437" width="24.748" height="13.28" fill-opacity="0"/>
      <path d="M197.678,68.852V67.437a2.752,2.752,0,0,0,.836.487,2.717,2.717,0,0,0,.91.159,1.964,1.964,0,0,0,.469-.049,1.09,1.09,0,0,0,.336-.133.6.6,0,0,0,.2-.2.51.51,0,0,0,.067-.256.555.555,0,0,0-.106-.332,1.145,1.145,0,0,0-.292-.27,2.912,2.912,0,0,0-.433-.238c-.168-.077-.35-.155-.544-.235a2.794,2.794,0,0,1-1.11-.756,1.652,1.652,0,0,1-.362-1.078,1.714,1.714,0,0,1,.2-.849,1.691,1.691,0,0,1,.54-.588,2.43,2.43,0,0,1,.8-.336,3.98,3.98,0,0,1,.955-.111,5.531,5.531,0,0,1,.875.062,3.37,3.37,0,0,1,.707.181v1.322a2.125,2.125,0,0,0-.349-.194,2.445,2.445,0,0,0-.385-.137,2.554,2.554,0,0,0-.4-.084,2.716,2.716,0,0,0-.372-.027,1.835,1.835,0,0,0-.442.049,1.076,1.076,0,0,0-.336.128.646.646,0,0,0-.212.2.469.469,0,0,0-.075.261.516.516,0,0,0,.084.288,1.011,1.011,0,0,0,.238.238,2.792,2.792,0,0,0,.376.221c.148.071.314.145.5.221a5.4,5.4,0,0,1,.681.341,2.361,2.361,0,0,1,.521.4,1.563,1.563,0,0,1,.332.518,2.041,2.041,0,0,1-.089,1.565,1.631,1.631,0,0,1-.543.583,2.384,2.384,0,0,1-.805.318,4.6,4.6,0,0,1-.964.1,5.389,5.389,0,0,1-.994-.089A2.993,2.993,0,0,1,197.678,68.852Zm8.046.354a2.954,2.954,0,0,1-2.219-.885,3.2,3.2,0,0,1-.858-2.312,3.422,3.422,0,0,1,.871-2.431,3.008,3.008,0,0,1,2.308-.929,2.869,2.869,0,0,1,2.193.889,3.26,3.26,0,0,1,.84,2.343,3.362,3.362,0,0,1-.871,2.41c-.021.02-.04.041-.058.061a.585.585,0,0,1-.057.053l1.605,1.543h-2l-.84-.853A3.549,3.549,0,0,1,205.724,69.206Zm.062-5.328a1.442,1.442,0,0,0-1.193.566,2.341,2.341,0,0,0-.443,1.49,2.3,2.3,0,0,0,.443,1.49,1.415,1.415,0,0,0,1.158.548,1.433,1.433,0,0,0,1.171-.53,2.3,2.3,0,0,0,.434-1.481,2.482,2.482,0,0,0-.42-1.534A1.361,1.361,0,0,0,205.786,63.878Zm7.905,5.217h-3.775v-6.34h1.428v5.182h2.347Z" fill="#fff"/>
    </g>
  </g>
</svg>
