<svg xmlns="http://www.w3.org/2000/svg" viewBox="0 0 298 110">
  <title>1 - backup-restore_1</title>
  <g id="background_blue" data-name="background blue">
    <rect x="0.001" y="-0.181" width="298" height="110" fill="#e4edf1"/>
  </g>
  <g id="Shapes">
    <g>
      <path d="M245.685,74.819a20,20,0,1,1,20-20A20.023,20.023,0,0,1,245.685,74.819Zm0-38.667a18.667,18.667,0,1,0,18.667,18.667A18.687,18.687,0,0,0,245.685,36.152Z" fill="#2e6ca4"/>
      <path d="M245.685,71.486a16.667,16.667,0,1,1,16.667-16.667A16.685,16.685,0,0,1,245.685,71.486Zm0-32a15.333,15.333,0,1,0,15.334,15.333A15.35,15.35,0,0,0,245.685,39.486Z" fill="#2e6ca4"/>
      <path d="M245.685,68.152a13.333,13.333,0,1,1,13.334-13.333A13.348,13.348,0,0,1,245.685,68.152Zm0-25.333a12,12,0,1,0,12,12A12.014,12.014,0,0,0,245.685,42.819Z" fill="#2e6ca4"/>
      <path d="M245.685,64.819a10,10,0,1,1,10-10A10.011,10.011,0,0,1,245.685,64.819Zm0-18.667a8.667,8.667,0,1,0,8.667,8.667A8.677,8.677,0,0,0,245.685,46.152Z" fill="#2e6ca4"/>
      <path d="M245.685,61.486a6.667,6.667,0,1,1,6.667-6.667A6.674,6.674,0,0,1,245.685,61.486Zm0-12a5.333,5.333,0,1,0,5.334,5.333A5.339,5.339,0,0,0,245.685,49.486Z" fill="#2e6ca4"/>
    </g>
    <g>
      <path d="M50.815,74.819a20,20,0,1,1,20-20A20.022,20.022,0,0,1,50.815,74.819Zm0-38.667A18.667,18.667,0,1,0,69.481,54.819,18.688,18.688,0,0,0,50.815,36.152Z" fill="#2e6ca4"/>
      <path d="M50.815,71.486A16.667,16.667,0,1,1,67.481,54.819,16.686,16.686,0,0,1,50.815,71.486Zm0-32A15.333,15.333,0,1,0,66.148,54.819,15.351,15.351,0,0,0,50.815,39.486Z" fill="#2e6ca4"/>
      <path d="M50.815,68.152A13.333,13.333,0,1,1,64.148,54.819,13.349,13.349,0,0,1,50.815,68.152Zm0-25.333a12,12,0,1,0,12,12A12.013,12.013,0,0,0,50.815,42.819Z" fill="#2e6ca4"/>
      <path d="M50.815,64.819a10,10,0,1,1,10-10A10.011,10.011,0,0,1,50.815,64.819Zm0-18.667a8.667,8.667,0,1,0,8.666,8.667A8.677,8.677,0,0,0,50.815,46.152Z" fill="#2e6ca4"/>
      <path d="M50.815,61.486a6.667,6.667,0,1,1,6.666-6.667A6.674,6.674,0,0,1,50.815,61.486Zm0-12a5.333,5.333,0,1,0,5.333,5.333A5.339,5.339,0,0,0,50.815,49.486Z" fill="#2e6ca4"/>
    </g>
    <line x1="50.815" y1="74.125" x2="116.504" y2="74.125" fill="none" stroke="#2e6ca4" stroke-linecap="round" stroke-miterlimit="10"/>
    <g>
      <line x1="72.114" y1="74.125" x2="115.505" y2="74.125" fill="none" stroke="#2e6ca4" stroke-miterlimit="10"/>
      <polygon points="75.427 78.215 76.109 77.483 72.497 74.126 76.109 70.769 75.427 70.037 71.029 74.126 75.427 78.215" fill="#2e6ca4"/>
    </g>
    <g>
      <line x1="179.081" y1="74.125" x2="245.685" y2="74.125" fill="none" stroke="#2e6ca4" stroke-miterlimit="10"/>
      <polygon points="182.394 78.215 183.077 77.483 179.465 74.126 183.077 70.769 182.394 70.037 177.996 74.126 182.394 78.215" fill="#2e6ca4"/>
    </g>
    <line x1="180.466" y1="35.319" x2="224.942" y2="35.319" fill="none" stroke="#2e6ca4" stroke-linecap="round" stroke-miterlimit="10"/>
    <line x1="224.942" y1="35.319" x2="245.685" y2="35.319" fill="none" stroke="#2e6ca4" stroke-linecap="round" stroke-miterlimit="10"/>
    <g>
      <line x1="50.815" y1="35.319" x2="117.998" y2="35.319" fill="none" stroke="#2e6ca4" stroke-miterlimit="10"/>
      <polygon points="114.684 39.409 114.002 38.676 117.614 35.32 114.002 31.962 114.684 31.23 119.082 35.32 114.684 39.409" fill="#2e6ca4"/>
    </g>
    <g>
      <line x1="217.063" y1="35.319" x2="224.356" y2="35.319" fill="none" stroke="#2e6ca4" stroke-miterlimit="10"/>
      <polygon points="221.042 39.409 220.36 38.676 223.972 35.32 220.36 31.962 221.042 31.23 225.44 35.32 221.042 39.409" fill="#2e6ca4"/>
    </g>
    <g>
      <rect x="119.127" y="19.634" width="57.746" height="70" fill-opacity="0"/>
      <rect x="121.944" y="19.634" width="52.676" height="70" fill-opacity="0"/>
      <path d="M121.944,29.212V80.057c0,5.211,11.831,9.577,26.338,9.577V29.212Z" fill="#0072c6"/>
      <path d="M147.859,89.634h.423c14.648,0,26.338-4.225,26.338-9.577V29.212H147.859V89.634Z" fill="#0072c6"/>
      <path d="M147.859,89.634h.423c14.648,0,26.338-4.225,26.338-9.577V29.212H147.859V89.634Z" fill="#fff" opacity="0.15" style="isolation: isolate"/>
      <path d="M174.62,29.212c0,5.211-11.831,9.577-26.338,9.577s-26.338-4.225-26.338-9.577c0-5.212,11.831-9.578,26.338-9.578S174.62,24,174.62,29.212Z" fill="#fff"/>
      <path d="M169.268,28.789c0,3.38-9.437,6.2-20.986,6.2s-20.986-2.817-20.986-6.2c0-3.521,9.436-6.338,20.986-6.338S169.268,25.268,169.268,28.789Z" fill="#7fba00"/>
      <path d="M164.9,32.592c2.817-1.127,4.367-2.395,4.367-3.8,0-3.521-9.437-6.338-20.986-6.338S127.3,25.268,127.3,28.789c0,1.408,1.69,2.817,4.366,3.8,3.8-1.549,9.859-2.395,16.62-2.395C155.042,30.057,161.1,31.043,164.9,32.592Z" fill="#b8d432"/>
      <rect x="119.127" y="43.578" width="57.746" height="30.986" fill-opacity="0"/>
      <path d="M129.669,65.546v-3.3a6.417,6.417,0,0,0,1.949,1.134,6.34,6.34,0,0,0,2.126.372,4.621,4.621,0,0,0,1.093-.114,2.59,2.59,0,0,0,.784-.309,1.421,1.421,0,0,0,.474-.475,1.2,1.2,0,0,0,.155-.6,1.283,1.283,0,0,0-.247-.774,2.638,2.638,0,0,0-.681-.629,6.786,6.786,0,0,0-1.011-.557q-.588-.269-1.269-.547a6.517,6.517,0,0,1-2.589-1.764,3.865,3.865,0,0,1-.846-2.517,3.848,3.848,0,0,1,1.723-3.353,5.675,5.675,0,0,1,1.856-.784,9.34,9.34,0,0,1,2.229-.257,12.861,12.861,0,0,1,2.042.144,7.789,7.789,0,0,1,1.651.423v3.084a4.912,4.912,0,0,0-.815-.454,5.8,5.8,0,0,0-.9-.319,6.651,6.651,0,0,0-1.8-.258,4.376,4.376,0,0,0-1.031.113,2.571,2.571,0,0,0-.784.3,1.5,1.5,0,0,0-.5.475,1.089,1.089,0,0,0-.176.609,1.2,1.2,0,0,0,.2.67,2.385,2.385,0,0,0,.557.557,6.589,6.589,0,0,0,.877.516q.516.248,1.166.516a12.108,12.108,0,0,1,1.588.794,5.48,5.48,0,0,1,1.218.939,3.64,3.64,0,0,1,.773,1.207,4.762,4.762,0,0,1-.206,3.651,3.809,3.809,0,0,1-1.269,1.362,5.576,5.576,0,0,1-1.877.743,10.772,10.772,0,0,1-2.249.227,12.662,12.662,0,0,1-2.321-.206A7.005,7.005,0,0,1,129.669,65.546Zm18.775.825a6.9,6.9,0,0,1-5.179-2.063,7.468,7.468,0,0,1-2-5.4,7.978,7.978,0,0,1,2.032-5.674,7.016,7.016,0,0,1,5.385-2.166,6.7,6.7,0,0,1,5.116,2.073,7.608,7.608,0,0,1,1.96,5.467,7.842,7.842,0,0,1-2.032,5.623c-.048.048-.093.1-.134.144s-.086.082-.134.124l3.745,3.6h-4.663l-1.96-1.991A8.29,8.29,0,0,1,148.444,66.371Zm.144-12.431a3.365,3.365,0,0,0-2.785,1.321,5.459,5.459,0,0,0-1.032,3.476,5.383,5.383,0,0,0,1.032,3.477,3.305,3.305,0,0,0,2.7,1.279,3.345,3.345,0,0,0,2.734-1.238A5.372,5.372,0,0,0,152.25,58.8a5.8,5.8,0,0,0-.98-3.58A3.178,3.178,0,0,0,148.588,53.94Zm18.445,12.173h-8.81V51.32h3.332V63.41h5.478Z" fill="#fff"/>
    </g>
  </g>
</svg>
