<svg xmlns="http://www.w3.org/2000/svg" viewBox="0 0 298 110">
  <title>1 - db-mirroring</title>
  <g id="background_blue" data-name="background blue">
    <rect x="0.001" y="-0.181" width="298" height="110" fill="#e4edf1"/>
  </g>
  <g id="Shapes">
    <g>
      <polygon points="211.137 80.056 87.454 64.415 87.454 50.345 211.137 34.704 211.137 80.056" fill="#fff"/>
      <polygon points="211.137 80.056 87.454 64.415 87.454 50.345 211.137 34.704 211.137 80.056" fill="#556a8a" opacity="0.3"/>
    </g>
    <g>
      <rect x="36.107" y="25.38" width="49.497" height="60" fill-opacity="0"/>
      <rect x="38.521" y="25.38" width="45.151" height="60" fill-opacity="0"/>
      <path d="M38.521,33.589V77.171c0,4.467,10.141,8.209,22.576,8.209V33.589Z" fill="#0072c6"/>
      <path d="M60.735,85.38H61.1c12.555,0,22.575-3.622,22.575-8.209V33.589H60.735V85.38Z" fill="#0072c6"/>
      <path d="M60.735,85.38H61.1c12.555,0,22.575-3.622,22.575-8.209V33.589H60.735V85.38Z" fill="#fff" opacity="0.15" style="isolation: isolate"/>
      <path d="M83.672,33.589c0,4.467-10.141,8.21-22.575,8.21s-22.576-3.622-22.576-8.21c0-4.467,10.141-8.209,22.576-8.209S83.672,29.122,83.672,33.589Z" fill="#fff"/>
      <path d="M79.085,33.227c0,2.9-8.089,5.312-17.988,5.312s-17.988-2.415-17.988-5.312c0-3.018,8.088-5.433,17.988-5.433S79.085,30.209,79.085,33.227Z" fill="#7fba00"/>
      <path d="M75.342,36.487c2.415-.966,3.743-2.053,3.743-3.26,0-3.018-8.089-5.433-17.988-5.433s-17.988,2.415-17.988,5.433c0,1.207,1.449,2.415,3.742,3.26,3.26-1.328,8.451-2.053,14.246-2.053C66.892,34.314,72.083,35.159,75.342,36.487Z" fill="#b8d432"/>
      <rect x="36.107" y="45.903" width="49.497" height="26.559" fill-opacity="0"/>
    </g>
    <g>
      <rect x="213.891" y="25.38" width="49.497" height="60" fill-opacity="0"/>
      <rect x="216.305" y="25.38" width="45.151" height="60" fill-opacity="0"/>
      <path d="M216.305,33.589V77.171c0,4.467,10.141,8.209,22.576,8.209V33.589Z" fill="#0072c6"/>
      <path d="M238.519,85.38h.362c12.555,0,22.575-3.622,22.575-8.209V33.589H238.519V85.38Z" fill="#0072c6"/>
      <path d="M238.519,85.38h.362c12.555,0,22.575-3.622,22.575-8.209V33.589H238.519V85.38Z" fill="#fff" opacity="0.15" style="isolation: isolate"/>
      <path d="M261.456,33.589c0,4.467-10.141,8.21-22.575,8.21s-22.576-3.622-22.576-8.21c0-4.467,10.141-8.209,22.576-8.209S261.456,29.122,261.456,33.589Z" fill="#fff"/>
      <path d="M256.869,33.227c0,2.9-8.089,5.312-17.988,5.312s-17.988-2.415-17.988-5.312c0-3.018,8.088-5.433,17.988-5.433S256.869,30.209,256.869,33.227Z" fill="#7fba00"/>
      <path d="M253.126,36.487c2.415-.966,3.743-2.053,3.743-3.26,0-3.018-8.089-5.433-17.988-5.433s-17.988,2.415-17.988,5.433c0,1.207,1.449,2.415,3.742,3.26,3.26-1.328,8.451-2.053,14.246-2.053C244.676,34.314,249.867,35.159,253.126,36.487Z" fill="#b8d432"/>
      <rect x="213.891" y="45.903" width="49.497" height="26.559" fill-opacity="0"/>
    </g>
  </g>
</svg>
