<svg xmlns="http://www.w3.org/2000/svg" viewBox="0 0 298 110">
  <title>1 - failover-cluster</title>
  <g id="background_blue" data-name="background blue">
    <rect x="0.005" y="-0.181" width="298" height="110" fill="#e4edf1"/>
  </g>
  <g id="Shapes">
    <g>
      <g>
        <path d="M176.166,83.359H42.788a8.024,8.024,0,0,1-8-8V39.085a8.024,8.024,0,0,1,8-8h85.779" fill="none" stroke="#75757a" stroke-miterlimit="10" stroke-dasharray="3 3"/>
        <polygon points="125.253 35.175 124.571 34.443 128.183 31.086 124.571 27.729 125.253 26.997 129.651 31.086 125.253 35.175" fill="#75757a"/>
      </g>
      <g>
        <path d="M169.663,31.085h86.549a8.024,8.024,0,0,1,8,8V75.359a8.024,8.024,0,0,1-8,8H206.5" fill="none" stroke="#75757a" stroke-miterlimit="10" stroke-dasharray="3 3"/>
        <polygon points="209.812 79.269 210.494 80.001 206.883 83.358 210.494 86.715 209.812 87.448 205.414 83.358 209.812 79.269" fill="#75757a"/>
      </g>
    </g>
    <g>
      <path d="M149.231,75.546a8.569,8.569,0,0,1-3.4-.706,8.986,8.986,0,0,1-5.377-8.253,9.09,9.09,0,0,1,.674-3.5,8.927,8.927,0,0,1,3.233-4.027,1.421,1.421,0,0,1,1.6,2.347,6.086,6.086,0,0,0-2.2,2.752,6.232,6.232,0,0,0-.464,2.41,6.147,6.147,0,0,0,3.659,5.66,5.708,5.708,0,0,0,4.457.039,6,6,0,0,0,3.287-3.336,6.287,6.287,0,0,0-2.449-7.685,1.42,1.42,0,1,1,1.481-2.423A9.152,9.152,0,0,1,157.333,70a8.822,8.822,0,0,1-4.841,4.9A8.578,8.578,0,0,1,149.231,75.546Z" fill="#0072c6"/>
      <path d="M149.233,64.441a1.421,1.421,0,0,1-1.421-1.42V56.966a1.421,1.421,0,0,1,2.841,0v6.055A1.42,1.42,0,0,1,149.233,64.441Z" fill="#0072c6"/>
    </g>
    <g>
      <path d="M202.536,98.475a2.228,2.228,0,0,1-2.25,2.25h-21.87a2.228,2.228,0,0,1-2.25-2.25v-40.5a2.228,2.228,0,0,1,2.25-2.25h21.87a2.228,2.228,0,0,1,2.25,2.25Z" fill="#3e3e3e"/>
      <path d="M179.946,80.025a2.843,2.843,0,0,1,2.88-2.88h13.14a2.843,2.843,0,0,1,2.88,2.88h0a2.843,2.843,0,0,1-2.88,2.88h-13.14a2.9,2.9,0,0,1-2.88-2.88Z" fill="#1e1e1e"/>
      <circle cx="183.006" cy="80.025" r="1.89" fill="#b8d432"/>
      <path d="M179.946,71.475a2.843,2.843,0,0,1,2.88-2.88h13.14a2.843,2.843,0,0,1,2.88,2.88h0a2.843,2.843,0,0,1-2.88,2.88h-13.14a2.9,2.9,0,0,1-2.88-2.88Z" fill="#1e1e1e"/>
      <circle cx="183.006" cy="71.475" r="1.89" fill="#b8d432"/>
      <path d="M179.946,63.015a2.843,2.843,0,0,1,2.88-2.88h13.14a2.843,2.843,0,0,1,2.88,2.88h0a2.843,2.843,0,0,1-2.88,2.88h-13.14a2.961,2.961,0,0,1-2.88-2.88Z" fill="#1e1e1e"/>
      <circle cx="183.006" cy="63.015" r="1.89" fill="#b8d432"/>
    </g>
    <g>
      <path d="M121.157,98.475a2.228,2.228,0,0,1-2.25,2.25H97.037a2.228,2.228,0,0,1-2.25-2.25v-40.5a2.228,2.228,0,0,1,2.25-2.25h21.87a2.228,2.228,0,0,1,2.25,2.25Z" fill="#3e3e3e"/>
      <path d="M98.567,80.025a2.843,2.843,0,0,1,2.88-2.88h13.14a2.843,2.843,0,0,1,2.88,2.88h0a2.843,2.843,0,0,1-2.88,2.88h-13.14a2.9,2.9,0,0,1-2.88-2.88Z" fill="#1e1e1e"/>
      <circle cx="101.627" cy="80.025" r="1.89" fill="#b8d432"/>
      <path d="M98.567,71.475a2.843,2.843,0,0,1,2.88-2.88h13.14a2.843,2.843,0,0,1,2.88,2.88h0a2.843,2.843,0,0,1-2.88,2.88h-13.14a2.9,2.9,0,0,1-2.88-2.88Z" fill="#1e1e1e"/>
      <circle cx="101.627" cy="71.475" r="1.89" fill="#b8d432"/>
      <path d="M98.567,63.015a2.843,2.843,0,0,1,2.88-2.88h13.14a2.843,2.843,0,0,1,2.88,2.88h0a2.843,2.843,0,0,1-2.88,2.88h-13.14a2.961,2.961,0,0,1-2.88-2.88Z" fill="#1e1e1e"/>
      <circle cx="101.627" cy="63.015" r="1.89" fill="#b8d432"/>
    </g>
    <g>
      <rect x="132.729" y="9.585" width="32.998" height="40" fill-opacity="0"/>
      <rect x="134.339" y="9.585" width="30.101" height="40" fill-opacity="0"/>
      <path d="M134.339,15.058V44.113c0,2.977,6.76,5.472,15.05,5.472V15.058Z" fill="#0072c6"/>
      <path d="M149.148,49.585h.241c8.37,0,15.05-2.414,15.05-5.472V15.058H149.148V49.585Z" fill="#0072c6"/>
      <path d="M149.148,49.585h.241c8.37,0,15.05-2.414,15.05-5.472V15.058H149.148V49.585Z" fill="#fff" opacity="0.15" style="isolation: isolate"/>
      <path d="M164.439,15.058c0,2.978-6.76,5.473-15.05,5.473s-15.05-2.414-15.05-5.473c0-2.978,6.76-5.473,15.05-5.473S164.439,12.08,164.439,15.058Z" fill="#fff"/>
      <path d="M161.381,14.817c0,1.931-5.392,3.541-11.992,3.541S137.4,16.748,137.4,14.817c0-2.012,5.393-3.622,11.992-3.622S161.381,12.805,161.381,14.817Z" fill="#7fba00"/>
      <path d="M158.886,16.99c1.61-.644,2.5-1.368,2.5-2.173,0-2.012-5.392-3.622-11.992-3.622S137.4,12.805,137.4,14.817c0,.8.966,1.609,2.5,2.173a27.29,27.29,0,0,1,9.5-1.368A25.5,25.5,0,0,1,158.886,16.99Z" fill="#b8d432"/>
      <rect x="132.729" y="23.268" width="32.998" height="17.706" fill-opacity="0"/>
      <path d="M138.753,35.821V33.934a3.684,3.684,0,0,0,1.114.649,3.641,3.641,0,0,0,1.215.212,2.673,2.673,0,0,0,.625-.065,1.457,1.457,0,0,0,.447-.177.809.809,0,0,0,.272-.271.692.692,0,0,0,.088-.342.735.735,0,0,0-.141-.442,1.53,1.53,0,0,0-.389-.36,3.926,3.926,0,0,0-.578-.318q-.336-.153-.725-.312A3.727,3.727,0,0,1,139.2,31.5a2.212,2.212,0,0,1-.483-1.439,2.2,2.2,0,0,1,.984-1.915,3.208,3.208,0,0,1,1.061-.448,5.3,5.3,0,0,1,1.274-.148,7.33,7.33,0,0,1,1.167.083,4.471,4.471,0,0,1,.943.241v1.763a2.785,2.785,0,0,0-.466-.259,3.258,3.258,0,0,0-.513-.183,3.549,3.549,0,0,0-.53-.112,3.607,3.607,0,0,0-.5-.036,2.5,2.5,0,0,0-.59.065,1.5,1.5,0,0,0-.448.171.857.857,0,0,0-.283.271.624.624,0,0,0-.1.348.68.68,0,0,0,.112.383,1.369,1.369,0,0,0,.318.319,3.821,3.821,0,0,0,.5.294q.3.142.667.3a7.094,7.094,0,0,1,.907.454,3.136,3.136,0,0,1,.7.537,2.1,2.1,0,0,1,.442.689,2.73,2.73,0,0,1-.118,2.087,2.18,2.18,0,0,1-.725.778,3.189,3.189,0,0,1-1.073.425,6.173,6.173,0,0,1-1.285.129,7.165,7.165,0,0,1-1.326-.118A3.985,3.985,0,0,1,138.753,35.821Zm10.729.471a3.938,3.938,0,0,1-2.959-1.179,4.263,4.263,0,0,1-1.144-3.083,4.56,4.56,0,0,1,1.161-3.242,4.01,4.01,0,0,1,3.077-1.238,3.827,3.827,0,0,1,2.924,1.185,4.348,4.348,0,0,1,1.12,3.124,4.48,4.48,0,0,1-1.161,3.213c-.028.027-.053.055-.077.082s-.049.048-.076.071l2.139,2.058h-2.664l-1.12-1.138A4.75,4.75,0,0,1,149.482,36.292Zm.082-7.1a1.921,1.921,0,0,0-1.591.755,3.12,3.12,0,0,0-.59,1.986,3.079,3.079,0,0,0,.59,1.987,1.887,1.887,0,0,0,1.544.73,1.909,1.909,0,0,0,1.562-.707,3.068,3.068,0,0,0,.578-1.975,3.313,3.313,0,0,0-.56-2.045A1.817,1.817,0,0,0,149.564,29.189Zm10.54,6.956H155.07V27.692h1.9V34.6h3.13Z" fill="#fff"/>
    </g>
  </g>
</svg>
