<svg xmlns="http://www.w3.org/2000/svg" viewBox="0 0 298 110">
  <title>1 - log-shipping</title>
  <g id="background_blue" data-name="background blue">
    <rect x="0.001" y="-0.181" width="298" height="110" fill="#e4edf1"/>
  </g>
  <g id="Shapes">
    <g>
      <line x1="87.421" y1="59.942" x2="209.6" y2="59.942" fill="none" stroke="#75757a" stroke-linecap="round" stroke-miterlimit="10"/>
      <polygon points="206.286 64.032 205.604 63.3 209.216 59.943 205.604 56.586 206.286 55.854 210.685 59.943 206.286 64.032" fill="#75757a"/>
    </g>
    <g>
      <polygon points="125.188 41.928 119.399 35.694 119.399 33.913 126.969 36.585 128.305 39.528 125.188 41.928" fill="#2e6ca4"/>
      <polygon points="125.188 47.272 119.399 53.506 119.399 55.287 126.969 52.615 128.305 49.672 125.188 47.272" fill="#2e6ca4"/>
      <polygon points="118.954 46.381 118.954 42.819 121.626 43.709 121.626 45.491 118.954 46.381" fill="#2e6ca4"/>
      <path d="M145.225,44.6s-7.614-5.882-13.358-5.789a17.26,17.26,0,0,0-9.8,3.117v5.344a17.26,17.26,0,0,0,9.8,3.117C137.611,50.482,145.225,44.6,145.225,44.6Z" fill="#fff"/>
      <path d="M131.649,50.389a17.157,17.157,0,0,1-9.485-2.939l-.093-.067V44.711l.093-.066a17.184,17.184,0,0,1,9.485-2.939,14.789,14.789,0,0,1,5.789,1.385,36.408,36.408,0,0,1,5.419,2.956A36.325,36.325,0,0,1,137.433,49,14.763,14.763,0,0,1,131.649,50.389Z" fill="#e5e5e5"/>
      <path d="M137.656,48.781V40.419a39.171,39.171,0,0,1,6.951,4.007l.249.174-.249.183A39.128,39.128,0,0,1,137.656,48.781Z" fill="#2bc7f4"/>
      <path d="M132,50.835h-.144a17.611,17.611,0,0,1-10.044-3.2l-.19-.134V41.7l.19-.133a17.608,17.608,0,0,1,10.048-3.2h.144c5.808,0,13.176,5.641,13.49,5.883l.456.352-.456.352C145.184,45.194,137.815,50.835,132,50.835Zm-9.488-3.8a16.727,16.727,0,0,0,9.354,2.905c4.723.082,10.864-4.088,12.6-5.343C142.75,43.357,136.7,39.256,132,39.256h-.13a16.73,16.73,0,0,0-9.358,2.905Z" fill="#2e6ca4"/>
      <g>
        <circle cx="134.093" cy="44.6" r="2.226" fill="#fff"/>
        <path d="M134.093,47.272a2.672,2.672,0,1,1,2.672-2.672A2.675,2.675,0,0,1,134.093,47.272Zm0-4.453a1.781,1.781,0,1,0,1.782,1.781A1.783,1.783,0,0,0,134.093,42.819Z" fill="#2e6ca4"/>
      </g>
      <rect x="121.18" y="42.374" width="0.891" height="4.453" fill="#556a8a"/>
    </g>
    <g>
      <rect x="35.654" y="24.488" width="49.497" height="60" fill-opacity="0"/>
      <rect x="38.069" y="24.488" width="45.151" height="60" fill-opacity="0"/>
      <path d="M38.069,32.7V76.279c0,4.467,10.14,8.209,22.575,8.209V32.7Z" fill="#0072c6"/>
      <path d="M60.282,84.488h.362c12.555,0,22.575-3.622,22.575-8.209V32.7H60.282V84.488Z" fill="#0072c6"/>
      <path d="M60.282,84.488h.362c12.555,0,22.575-3.622,22.575-8.209V32.7H60.282V84.488Z" fill="#fff" opacity="0.15" style="isolation: isolate"/>
      <path d="M83.219,32.7c0,4.467-10.14,8.21-22.575,8.21S38.069,37.285,38.069,32.7c0-4.466,10.14-8.209,22.575-8.209S83.219,28.231,83.219,32.7Z" fill="#fff"/>
      <path d="M78.632,32.335c0,2.9-8.089,5.312-17.988,5.312s-17.988-2.414-17.988-5.312c0-3.018,8.089-5.432,17.988-5.432S78.632,29.317,78.632,32.335Z" fill="#7fba00"/>
      <path d="M74.889,35.6c2.415-.966,3.743-2.053,3.743-3.26,0-3.018-8.089-5.432-17.988-5.432s-17.988,2.414-17.988,5.432c0,1.207,1.449,2.415,3.742,3.26,3.26-1.328,8.451-2.053,14.246-2.053C66.439,33.422,71.63,34.267,74.889,35.6Z" fill="#b8d432"/>
      <rect x="35.654" y="45.011" width="49.497" height="26.559" fill-opacity="0"/>
    </g>
    <g>
      <rect x="213.438" y="24.488" width="49.497" height="60" fill-opacity="0"/>
      <rect x="215.853" y="24.488" width="45.151" height="60" fill-opacity="0"/>
      <path d="M215.853,32.7V76.279c0,4.467,10.14,8.209,22.575,8.209V32.7Z" fill="#0072c6"/>
      <path d="M238.066,84.488h.362c12.555,0,22.575-3.622,22.575-8.209V32.7H238.066V84.488Z" fill="#0072c6"/>
      <path d="M238.066,84.488h.362c12.555,0,22.575-3.622,22.575-8.209V32.7H238.066V84.488Z" fill="#fff" opacity="0.15" style="isolation: isolate"/>
      <path d="M261,32.7c0,4.467-10.14,8.21-22.575,8.21s-22.575-3.622-22.575-8.21c0-4.466,10.14-8.209,22.575-8.209S261,28.231,261,32.7Z" fill="#fff"/>
      <path d="M256.416,32.335c0,2.9-8.089,5.312-17.988,5.312s-17.988-2.414-17.988-5.312c0-3.018,8.089-5.432,17.988-5.432S256.416,29.317,256.416,32.335Z" fill="#7fba00"/>
      <path d="M252.673,35.6c2.415-.966,3.743-2.053,3.743-3.26,0-3.018-8.089-5.432-17.988-5.432s-17.988,2.414-17.988,5.432c0,1.207,1.449,2.415,3.743,3.26,3.259-1.328,8.45-2.053,14.245-2.053C244.223,33.422,249.414,34.267,252.673,35.6Z" fill="#b8d432"/>
      <rect x="213.438" y="45.011" width="49.497" height="26.559" fill-opacity="0"/>
    </g>
  </g>
</svg>
