<svg xmlns="http://www.w3.org/2000/svg" viewBox="0 0 298 110">
  <title>1 - t-log-mgmt</title>
  <g id="background_blue" data-name="background blue">
    <rect x="0.001" y="-0.181" width="298" height="110" fill="#e4edf1"/>
  </g>
  <g id="Shapes">
    <ellipse cx="149.047" cy="54.856" rx="44.338" ry="44.25" fill="none" stroke="#75757a" stroke-miterlimit="10" stroke-width="1.5" stroke-dasharray="3 3"/>
    <g>
      <path d="M165.755,30.107h0c-14.313-1.59-16.708-7.751-16.708-7.751s-3.224,8.116-23.826,8.116V63.766c0,4.022,2.238,7.8,5.335,11.092h0c7.024,7.47,18.491,12.5,18.491,12.5s23.825-10.434,23.825-23.59V30.472A64.828,64.828,0,0,1,165.755,30.107Z" fill="#7fba00"/>
      <path d="M154.944,43.864l10.83-13.757c-14.332-1.59-16.727-7.751-16.727-7.751s-3.224,8.116-23.826,8.116V63.766c0,4.022,2.238,7.8,5.335,11.092l7.995-10.167Z" fill="#b8d432" opacity="0.4" style="isolation: isolate"/>
      <path d="M158.933,70.616a1.737,1.737,0,0,1-1.72,1.752h-17.05a1.737,1.737,0,0,1-1.751-1.721V39.123a1.736,1.736,0,0,1,1.72-1.751h17.049a1.737,1.737,0,0,1,1.752,1.72V70.616Z" fill="#3e3e3e"/>
      <path d="M141.361,56.268a2.209,2.209,0,0,1,2.181-2.237h10.267a2.21,2.21,0,0,1,2.237,2.181v.056h0a2.21,2.21,0,0,1-2.181,2.238H143.6a2.256,2.256,0,0,1-2.243-2.238Z" fill="#1e1e1e"/>
      <circle cx="143.743" cy="56.268" r="1.473" fill="#b8d432"/>
      <path d="M141.361,49.616a2.209,2.209,0,0,1,2.193-2.225h10.255a2.21,2.21,0,0,1,2.237,2.181v.056h0a2.209,2.209,0,0,1-2.181,2.237H143.6a2.245,2.245,0,0,1-2.243-2.237Z" fill="#1e1e1e"/>
      <circle cx="143.743" cy="49.616" r="1.473" fill="#b8d432"/>
      <path d="M141.361,43.038a2.209,2.209,0,0,1,2.181-2.237.523.523,0,0,1,.056,0h10.211a2.209,2.209,0,0,1,2.237,2.181v.056h0a2.21,2.21,0,0,1-2.181,2.237H143.6a2.3,2.3,0,0,1-2.243-2.237Z" fill="#1e1e1e"/>
      <circle cx="143.743" cy="43.038" r="1.473" fill="#b8d432"/>
      <line x1="138.557" y1="64.691" x2="158.933" y2="39.123" fill="none"/>
      <path d="M138.557,64.691l16.369-20.827,3.96-5.041a1.729,1.729,0,0,0-1.723-1.451H140.176a1.737,1.737,0,0,0-1.752,1.72V64.864Z" fill="#fff" opacity="0.1" style="isolation: isolate"/>
    </g>
  </g>
</svg>
