<svg xmlns="http://www.w3.org/2000/svg" viewBox="0 0 298 110">
  <title>5 - bcp</title>
  <g id="background_blue" data-name="background blue">
    <rect width="298" height="110" fill="#e4edf1"/>
  </g>
  <g id="Shapes">
    <g>
      <polygon points="205.646 28.669 205.646 55.884 178.957 55.884 178.957 16.278 193.891 16.278 205.646 28.669" fill="#fff"/>
      <polygon points="205.646 28.852 193.721 28.852 193.721 16.278 205.646 28.852" fill="#50e6ff"/>
      <path d="M204.794,56.2H179.809a1.2,1.2,0,0,1-1.136-1.258V17.221a1.2,1.2,0,0,1,1.136-1.257h14.357L205.929,28.5V54.941A1.2,1.2,0,0,1,204.794,56.2ZM179.809,17.221v37.72h24.985v-25.9L193.708,17.221Z" fill="#2e6ca4"/>
      <rect x="179.809" y="17.221" width="9.085" height="37.72" fill="#e5e5e5"/>
      <polygon points="205.362 29.795 192.869 29.795 192.869 16.593 194.005 16.593 194.005 28.537 205.362 28.537 205.362 29.795" fill="#2e6ca4"/>
      <rect x="183.216" y="28.537" width="7.382" height="1.257" fill="#2e6ca4"/>
      <rect x="183.216" y="34.195" width="18.171" height="1.257" fill="#2e6ca4"/>
      <rect x="183.216" y="39.853" width="18.171" height="1.257" fill="#2e6ca4"/>
      <rect x="183.216" y="45.511" width="18.171" height="1.257" fill="#2e6ca4"/>
    </g>
    <g>
      <path d="M163.878,70.7a20.543,20.543,0,0,0,17.066-10.629" fill="none" stroke="#75757a" stroke-miterlimit="10"/>
      <polygon points="167.527 74.399 168.143 73.611 164.255 70.579 167.562 66.922 166.82 66.251 162.792 70.706 167.527 74.399" fill="#75757a"/>
    </g>
    <g>
      <rect x="94.7" y="20.79" width="61.871" height="75" fill-opacity="0"/>
      <rect x="97.718" y="20.79" width="56.439" height="75" fill-opacity="0"/>
      <path d="M97.718,31.052V85.529c0,5.583,12.676,10.261,28.22,10.261V31.052Z" fill="#0072c6"/>
      <path d="M125.485,95.79h.453c15.694,0,28.219-4.527,28.219-10.261V31.052H125.485V95.79Z" fill="#0072c6"/>
      <path d="M125.485,95.79h.453c15.694,0,28.219-4.527,28.219-10.261V31.052H125.485V95.79Z" fill="#fff" opacity="0.15" style="isolation: isolate"/>
      <path d="M154.157,31.052c0,5.583-12.676,10.261-28.219,10.261s-28.22-4.527-28.22-10.261c0-5.584,12.676-10.262,28.22-10.262S154.157,25.468,154.157,31.052Z" fill="#fff"/>
      <path d="M148.422,30.6c0,3.622-10.11,6.64-22.484,6.64s-22.485-3.018-22.485-6.64c0-3.772,10.11-6.791,22.485-6.791S148.422,26.827,148.422,30.6Z" fill="#7fba00"/>
      <path d="M143.744,34.674c3.019-1.208,4.678-2.566,4.678-4.075,0-3.772-10.11-6.791-22.484-6.791s-22.485,3.019-22.485,6.791c0,1.509,1.811,3.018,4.678,4.075,4.074-1.66,10.563-2.566,17.807-2.566C133.181,31.957,139.67,33.014,143.744,34.674Z" fill="#b8d432"/>
      <rect x="94.7" y="46.444" width="61.871" height="33.199" fill-opacity="0"/>
      <path d="M106,69.981V66.444a6.88,6.88,0,0,0,2.089,1.216,6.784,6.784,0,0,0,2.277.4,4.986,4.986,0,0,0,1.172-.121,2.809,2.809,0,0,0,.84-.332,1.522,1.522,0,0,0,.508-.509,1.29,1.29,0,0,0,.166-.641,1.382,1.382,0,0,0-.265-.829,2.834,2.834,0,0,0-.73-.674,7.352,7.352,0,0,0-1.083-.6q-.63-.287-1.36-.585a7,7,0,0,1-2.774-1.89,4.145,4.145,0,0,1-.906-2.7,4.269,4.269,0,0,1,.5-2.122,4.225,4.225,0,0,1,1.349-1.47,6.052,6.052,0,0,1,1.989-.84,9.965,9.965,0,0,1,2.387-.277,13.769,13.769,0,0,1,2.189.155,8.4,8.4,0,0,1,1.768.453v3.305a5.231,5.231,0,0,0-.873-.486,6.167,6.167,0,0,0-.961-.343,6.812,6.812,0,0,0-1-.21,6.912,6.912,0,0,0-.928-.066,4.667,4.667,0,0,0-1.106.121,2.757,2.757,0,0,0-.84.321,1.6,1.6,0,0,0-.53.508,1.16,1.16,0,0,0-.188.652,1.283,1.283,0,0,0,.21.719,2.552,2.552,0,0,0,.6.6,7.075,7.075,0,0,0,.939.552q.553.265,1.249.553a13.035,13.035,0,0,1,1.7.851,5.874,5.874,0,0,1,1.3,1.006,3.911,3.911,0,0,1,.829,1.293,5.106,5.106,0,0,1-.221,3.913,4.085,4.085,0,0,1-1.359,1.458,5.981,5.981,0,0,1-2.012.8,11.52,11.52,0,0,1-2.409.243,13.458,13.458,0,0,1-2.487-.221A7.476,7.476,0,0,1,106,69.981Zm20.116.884a7.385,7.385,0,0,1-5.548-2.21,8,8,0,0,1-2.145-5.781A8.549,8.549,0,0,1,120.6,56.8a7.517,7.517,0,0,1,5.769-2.321,7.176,7.176,0,0,1,5.482,2.222,8.154,8.154,0,0,1,2.1,5.858,8.4,8.4,0,0,1-2.177,6.024c-.052.051-.1.1-.144.154s-.092.089-.143.133l4.012,3.857h-5l-2.1-2.133A8.9,8.9,0,0,1,126.111,70.865Zm.155-13.318a3.608,3.608,0,0,0-2.984,1.415,5.849,5.849,0,0,0-1.106,3.725,5.764,5.764,0,0,0,1.106,3.724,3.539,3.539,0,0,0,2.9,1.371,3.581,3.581,0,0,0,2.929-1.327,5.755,5.755,0,0,0,1.083-3.7,6.209,6.209,0,0,0-1.05-3.835A3.4,3.4,0,0,0,126.266,57.547Zm19.762,13.042h-9.439V54.74h3.57V67.693h5.869Z" fill="#fff"/>
    </g>
  </g>
</svg>
