<svg xmlns="http://www.w3.org/2000/svg" viewBox="0 0 298 110">
  <title>5 - flat-file-import-wizard</title>
  <g id="background_blue" data-name="background blue">
    <rect width="298" height="110" fill="#e4edf1"/>
  </g>
  <g id="Shapes">
    <g>
      <g>
        <g>
          <path d="M234.454,62.193l-19.4-2.883,3.272,19.168-.233.078L206.521,62.934l-11.57,15.622-.233-.078,3.271-19.168-19.361,2.883-.117-.311,15.972-11.259L178.705,38.975l.078-.234,19.206,3.351-2.96-19.324.351-.078,11.141,15.817L217.7,22.69l.311.078-2.96,19.324L234.3,38.741l.078.234L218.6,50.623l15.934,11.259Z" fill="#fff"/>
          <path d="M234.454,62.193l-19.4-2.883,3.272,19.168-.233.078L206.521,62.934l-11.57,15.622-.233-.078,3.271-19.168-19.361,2.883-.117-.311,15.972-11.259L178.705,38.975l.078-.234,19.206,3.351-2.96-19.324.351-.078,11.141,15.817L217.7,22.69l.311.078-2.96,19.324L234.3,38.741l.078.234L218.6,50.623l15.934,11.259Z" fill="#7fba00"/>
        </g>
        <path d="M172.621,46.8a3.468,3.468,0,1,1-2.4.985A3.28,3.28,0,0,1,172.621,46.8Zm3.66-16.9a3.191,3.191,0,0,1,2.348,1.044,3.3,3.3,0,0,1,.961,2.4,3.4,3.4,0,1,1-5.752-2.481A3.354,3.354,0,0,1,176.281,29.891Zm-3.917,37.252a3.4,3.4,0,0,1,6.8.085,3.382,3.382,0,0,1-1.022,2.4,3.153,3.153,0,0,1-2.374,1.008,3.466,3.466,0,0,1-3.4-3.489ZM190,16.465a3.388,3.388,0,0,1,2.31,5.837,3.354,3.354,0,0,1-2.443.961,3.3,3.3,0,0,1-2.372-1.022,3.184,3.184,0,0,1-.985-2.373,3.466,3.466,0,0,1,3.49-3.4Zm-4.26,64.4a3.148,3.148,0,0,1,1.068-2.348,3.382,3.382,0,0,1,2.42-.961,3.4,3.4,0,0,1-.086,6.8,3.464,3.464,0,0,1-3.4-3.49Zm24.607-64.141a3.4,3.4,0,1,1-5.754-2.457,3.4,3.4,0,0,1,5.754,2.457Zm-7.655,67.8a3.466,3.466,0,1,1,.984,2.4A3.274,3.274,0,0,1,202.694,84.524Zm24.56-64.141a3.384,3.384,0,0,1-3.394,3.309,3.354,3.354,0,0,1-2.419-1.022,3.411,3.411,0,0,1,2.457-5.776,3.236,3.236,0,0,1,2.4,1.045A3.359,3.359,0,0,1,227.254,20.383Zm-4.213,64.4a3.4,3.4,0,0,1,.086-6.8A3.3,3.3,0,0,1,225.5,79a3.188,3.188,0,0,1,.985,2.373,3.354,3.354,0,0,1-1.022,2.419A3.236,3.236,0,0,1,223.041,84.781ZM240.679,34.1a3.4,3.4,0,0,1-6.8-.086,3.3,3.3,0,0,1,1.021-2.372,3.187,3.187,0,0,1,2.374-.985,3.359,3.359,0,0,1,2.418,1.022A3.242,3.242,0,0,1,240.679,34.1Zm-3.918,37.3a3.19,3.19,0,0,1-2.348-1.045,3.306,3.306,0,0,1-.961-2.4,3.357,3.357,0,0,1,1.022-2.418A3.412,3.412,0,0,1,240.251,68a3.469,3.469,0,0,1-3.49,3.4Zm3.661-16.952a3.47,3.47,0,1,1,2.4-.985A3.279,3.279,0,0,1,240.422,54.451Z" fill="#0072c6"/>
      </g>
      <path d="M160.55,98.28a1.607,1.607,0,0,1-1.136-2.742l27.7-27.7a1.606,1.606,0,0,1,2.272,2.271l-27.7,27.7A1.6,1.6,0,0,1,160.55,98.28Z" fill="#0072c6"/>
    </g>
    <g>
      <g>
        <g>
          <polygon points="86.946 37.255 86.946 67.19 54.446 67.19 54.446 23.626 72.633 23.626 86.946 37.255" fill="#fff"/>
          <polygon points="86.946 37.456 72.425 37.456 72.425 23.626 86.946 37.456" fill="#ebebeb"/>
          <path d="M85.909,67.535H55.484A1.384,1.384,0,0,1,54.1,66.152V24.663a1.385,1.385,0,0,1,1.383-1.383H72.967L87.292,37.071V66.152A1.384,1.384,0,0,1,85.909,67.535ZM55.484,24.663V66.152H85.909V37.66l-13.5-13Z" fill="#3c3c41"/>
          <polygon points="86.601 38.493 71.388 38.493 71.388 23.972 72.771 23.972 72.771 37.11 86.601 37.11 86.601 38.493" fill="#3c3c41"/>
        </g>
        <g>
          <polygon points="98.01 58 98.01 87.935 65.51 87.935 65.51 44.371 83.696 44.371 98.01 58" fill="#fff"/>
          <polygon points="98.01 58.201 83.489 58.201 83.489 44.371 98.01 58.201" fill="#ebebeb"/>
          <path d="M96.973,88.28H66.547A1.385,1.385,0,0,1,65.164,86.9V45.408a1.385,1.385,0,0,1,1.383-1.383H84.03L98.356,57.816V86.9A1.385,1.385,0,0,1,96.973,88.28ZM66.547,45.408V86.9H96.973V58.405l-13.5-13Z" fill="#3c3c41"/>
          <polygon points="97.664 59.238 82.452 59.238 82.452 44.716 83.835 44.716 83.835 57.855 97.664 57.855 97.664 59.238" fill="#3c3c41"/>
        </g>
      </g>
      <polygon points="120.787 40.876 120.787 23.28 113.715 23.28 113.715 40.876 103.107 30.268 103.107 40.876 117.251 55.019 131.395 40.876 131.395 30.268 120.787 40.876" fill="#75757a"/>
    </g>
  </g>
</svg>
