<svg xmlns="http://www.w3.org/2000/svg" viewBox="0 0 298 110">
  <title>5 - import-export-wizard</title>
  <g id="background_blue" data-name="background blue">
    <rect y="-0.181" width="298" height="110" fill="#e4edf1"/>
  </g>
  <g id="Shapes">
    <g>
      <g>
        <g>
          <path d="M182.1,61.4,162.7,58.52l3.273,19.168-.234.077L154.17,62.144,142.6,77.765l-.233-.077,3.271-19.168L126.276,61.4l-.117-.312,15.973-11.258L126.353,38.185l.079-.234,19.2,3.35-2.959-19.323.35-.078L154.17,37.717,165.35,21.9l.312.078L162.7,41.3l19.245-3.35.079.234L166.247,49.833l15.934,11.258Z" fill="#fff"/>
          <path d="M182.1,61.4,162.7,58.52l3.273,19.168-.234.077L154.17,62.144,142.6,77.765l-.233-.077,3.271-19.168L126.276,61.4l-.117-.312,15.973-11.258L126.353,38.185l.079-.234,19.2,3.35-2.959-19.323.35-.078L154.17,37.717,165.35,21.9l.312.078L162.7,41.3l19.245-3.35.079.234L166.247,49.833l15.934,11.258Z" fill="#7fba00"/>
        </g>
        <path d="M120.269,46.005a3.47,3.47,0,1,1-2.4.985A3.279,3.279,0,0,1,120.269,46.005Zm3.66-16.9a3.19,3.19,0,0,1,2.348,1.045,3.3,3.3,0,0,1,.961,2.4,3.4,3.4,0,1,1-5.752-2.481A3.355,3.355,0,0,1,123.929,29.1Zm-3.917,37.252a3.4,3.4,0,0,1,6.8.086,3.376,3.376,0,0,1-1.022,2.395,3.147,3.147,0,0,1-2.373,1.009,3.468,3.468,0,0,1-3.4-3.49ZM137.65,15.675a3.388,3.388,0,0,1,2.31,5.837,3.357,3.357,0,0,1-2.443.961,3.3,3.3,0,0,1-2.372-1.022,3.184,3.184,0,0,1-.985-2.373,3.464,3.464,0,0,1,3.49-3.4Zm-4.26,64.4a3.153,3.153,0,0,1,1.068-2.347,3.386,3.386,0,0,1,2.421-.961,3.4,3.4,0,0,1-.086,6.8,3.464,3.464,0,0,1-3.4-3.49ZM158,15.932a3.4,3.4,0,1,1-5.753-2.457A3.4,3.4,0,0,1,158,15.932Zm-7.655,67.8a3.466,3.466,0,1,1,.984,2.4A3.277,3.277,0,0,1,150.342,83.733Zm24.56-64.14a3.386,3.386,0,0,1-3.394,3.309,3.355,3.355,0,0,1-2.418-1.022,3.411,3.411,0,0,1,2.457-5.777,3.239,3.239,0,0,1,2.394,1.046A3.354,3.354,0,0,1,174.9,19.593Zm-4.213,64.4a3.4,3.4,0,0,1,.086-6.8,3.3,3.3,0,0,1,2.371,1.022,3.187,3.187,0,0,1,.986,2.373,3.359,3.359,0,0,1-1.022,2.419A3.239,3.239,0,0,1,170.689,83.99Zm17.638-50.677a3.4,3.4,0,0,1-6.8-.086,3.3,3.3,0,0,1,1.022-2.371,3.184,3.184,0,0,1,2.373-.985,3.355,3.355,0,0,1,2.418,1.022A3.236,3.236,0,0,1,188.327,33.313Zm-3.918,37.3a3.182,3.182,0,0,1-2.347-1.044,3.3,3.3,0,0,1-.962-2.4,3.358,3.358,0,0,1,1.023-2.419A3.411,3.411,0,0,1,187.9,67.21a3.466,3.466,0,0,1-3.49,3.4Zm3.661-16.951a3.468,3.468,0,1,1,2.4-.985A3.28,3.28,0,0,1,188.07,53.661Z" fill="#0072c6"/>
      </g>
      <path d="M108.2,97.49a1.607,1.607,0,0,1-1.136-2.742l27.7-27.7a1.607,1.607,0,0,1,2.272,2.272l-27.7,27.7A1.6,1.6,0,0,1,108.2,97.49Z" fill="#0072c6"/>
    </g>
    <polygon points="62.847 51.283 45.252 51.283 45.252 58.355 62.847 58.355 52.239 68.963 62.847 68.963 76.991 54.819 62.847 40.675 52.239 40.675 62.847 51.283" fill="#75757a"/>
    <polygon points="240.631 51.283 223.036 51.283 223.036 58.355 240.631 58.355 230.023 68.963 240.631 68.963 254.775 54.819 240.631 40.675 230.023 40.675 240.631 51.283" fill="#75757a"/>
  </g>
</svg>
