<svg xmlns="http://www.w3.org/2000/svg" viewBox="0 0 298 110">
  <title>5 - linked-servers</title>
  <g id="background_blue" data-name="background blue">
    <rect y="-0.181" width="298" height="110" fill="#e4edf1"/>
  </g>
  <g id="Shapes">
    <g>
      <path d="M117.285,61.412h-.97V60.121h.968a8.065,8.065,0,1,0,0-16.129h-9.03a8.065,8.065,0,1,0,0,16.129h.965v1.291h-.967a9.355,9.355,0,0,1,0-18.71h9.034a9.355,9.355,0,0,1,0,18.71Z" fill="#2e6ca4"/>
      <path d="M129.543,68.508h-9.034a9.355,9.355,0,0,1,0-18.709h.969v1.29h-.967a8.065,8.065,0,1,0,0,16.129h9.03a8.065,8.065,0,1,0,0-16.129h-.966V49.8h.968a9.355,9.355,0,0,1,0,18.709Z" fill="#2e6ca4"/>
    </g>
    <g>
      <g>
        <path d="M182.37,78.105a2.476,2.476,0,0,1-2.5,2.5h-24.3a2.476,2.476,0,0,1-2.5-2.5v-45a2.476,2.476,0,0,1,2.5-2.5h24.3a2.476,2.476,0,0,1,2.5,2.5Z" fill="#3e3e3e"/>
        <path d="M157.27,57.605a3.159,3.159,0,0,1,3.2-3.2h14.6a3.159,3.159,0,0,1,3.2,3.2h0a3.159,3.159,0,0,1-3.2,3.2h-14.6a3.222,3.222,0,0,1-3.2-3.2Z" fill="#1e1e1e"/>
        <circle cx="160.67" cy="57.605" r="2.1" fill="#b8d432"/>
        <path d="M157.27,48.105a3.159,3.159,0,0,1,3.2-3.2h14.6a3.159,3.159,0,0,1,3.2,3.2h0a3.159,3.159,0,0,1-3.2,3.2h-14.6a3.222,3.222,0,0,1-3.2-3.2Z" fill="#1e1e1e"/>
        <circle cx="160.67" cy="48.105" r="2.1" fill="#b8d432"/>
        <path d="M157.27,38.705a3.159,3.159,0,0,1,3.2-3.2h14.6a3.159,3.159,0,0,1,3.2,3.2h0a3.159,3.159,0,0,1-3.2,3.2h-14.6a3.29,3.29,0,0,1-3.2-3.2Z" fill="#1e1e1e"/>
        <circle cx="160.67" cy="38.705" r="2.1" fill="#b8d432"/>
      </g>
      <g>
        <path d="M223.022,78.105a2.476,2.476,0,0,1-2.5,2.5h-24.3a2.476,2.476,0,0,1-2.5-2.5v-45a2.476,2.476,0,0,1,2.5-2.5h24.3a2.476,2.476,0,0,1,2.5,2.5Z" fill="#3e3e3e"/>
        <path d="M197.922,57.605a3.159,3.159,0,0,1,3.2-3.2h14.6a3.159,3.159,0,0,1,3.2,3.2h0a3.159,3.159,0,0,1-3.2,3.2h-14.6a3.222,3.222,0,0,1-3.2-3.2Z" fill="#1e1e1e"/>
        <circle cx="201.322" cy="57.605" r="2.1" fill="#b8d432"/>
        <path d="M197.922,48.105a3.159,3.159,0,0,1,3.2-3.2h14.6a3.159,3.159,0,0,1,3.2,3.2h0a3.159,3.159,0,0,1-3.2,3.2h-14.6a3.222,3.222,0,0,1-3.2-3.2Z" fill="#1e1e1e"/>
        <circle cx="201.322" cy="48.105" r="2.1" fill="#b8d432"/>
        <path d="M197.922,38.705a3.159,3.159,0,0,1,3.2-3.2h14.6a3.159,3.159,0,0,1,3.2,3.2h0a3.159,3.159,0,0,1-3.2,3.2h-14.6a3.29,3.29,0,0,1-3.2-3.2Z" fill="#1e1e1e"/>
        <circle cx="201.322" cy="38.705" r="2.1" fill="#b8d432"/>
      </g>
      <g>
        <path d="M263.675,78.105a2.476,2.476,0,0,1-2.5,2.5h-24.3a2.476,2.476,0,0,1-2.5-2.5v-45a2.476,2.476,0,0,1,2.5-2.5h24.3a2.476,2.476,0,0,1,2.5,2.5Z" fill="#3e3e3e"/>
        <path d="M238.575,57.605a3.159,3.159,0,0,1,3.2-3.2h14.6a3.159,3.159,0,0,1,3.2,3.2h0a3.159,3.159,0,0,1-3.2,3.2h-14.6a3.222,3.222,0,0,1-3.2-3.2Z" fill="#1e1e1e"/>
        <circle cx="241.975" cy="57.605" r="2.1" fill="#b8d432"/>
        <path d="M238.575,48.105a3.159,3.159,0,0,1,3.2-3.2h14.6a3.159,3.159,0,0,1,3.2,3.2h0a3.159,3.159,0,0,1-3.2,3.2h-14.6a3.222,3.222,0,0,1-3.2-3.2Z" fill="#1e1e1e"/>
        <circle cx="241.975" cy="48.105" r="2.1" fill="#b8d432"/>
        <path d="M238.575,38.705a3.159,3.159,0,0,1,3.2-3.2h14.6a3.159,3.159,0,0,1,3.2,3.2h0a3.159,3.159,0,0,1-3.2,3.2h-14.6a3.29,3.29,0,0,1-3.2-3.2Z" fill="#1e1e1e"/>
        <circle cx="241.975" cy="38.705" r="2.1" fill="#b8d432"/>
      </g>
    </g>
    <g>
      <rect x="36.371" y="25.605" width="49.497" height="60" fill-opacity="0"/>
      <rect x="38.786" y="25.605" width="45.151" height="60" fill-opacity="0"/>
      <path d="M38.786,33.814V77.4c0,4.467,10.141,8.209,22.575,8.209V33.814Z" fill="#0072c6"/>
      <path d="M61,85.605h.362c12.556,0,22.576-3.622,22.576-8.209V33.814H61V85.605Z" fill="#0072c6"/>
      <path d="M61,85.605h.362c12.556,0,22.576-3.622,22.576-8.209V33.814H61V85.605Z" fill="#fff" opacity="0.15" style="isolation: isolate"/>
      <path d="M83.937,33.814c0,4.467-10.141,8.21-22.576,8.21S38.786,38.4,38.786,33.814c0-4.466,10.141-8.209,22.575-8.209S83.937,29.348,83.937,33.814Z" fill="#fff"/>
      <path d="M79.349,33.452c0,2.9-8.088,5.312-17.988,5.312S43.373,36.35,43.373,33.452c0-3.018,8.089-5.432,17.988-5.432S79.349,30.434,79.349,33.452Z" fill="#7fba00"/>
      <path d="M75.607,36.712c2.414-.966,3.742-2.052,3.742-3.26,0-3.018-8.088-5.432-17.988-5.432s-17.988,2.414-17.988,5.432c0,1.208,1.449,2.415,3.743,3.26,3.259-1.328,8.451-2.052,14.245-2.052C67.156,34.539,72.347,35.384,75.607,36.712Z" fill="#b8d432"/>
      <rect x="36.371" y="46.128" width="49.497" height="26.559" fill-opacity="0"/>
      <path d="M45.408,64.958v-2.83A5.364,5.364,0,0,0,48.9,63.419a3.968,3.968,0,0,0,.937-.1,2.206,2.206,0,0,0,.672-.265,1.215,1.215,0,0,0,.407-.407,1.033,1.033,0,0,0,.133-.513,1.1,1.1,0,0,0-.212-.663,2.27,2.27,0,0,0-.584-.539,5.967,5.967,0,0,0-.866-.478q-.506-.229-1.088-.468a5.6,5.6,0,0,1-2.219-1.512,3.314,3.314,0,0,1-.726-2.158,3.3,3.3,0,0,1,1.477-2.874,4.859,4.859,0,0,1,1.592-.672,8.018,8.018,0,0,1,1.91-.221,11.052,11.052,0,0,1,1.75.124,6.733,6.733,0,0,1,1.415.363v2.644a4.224,4.224,0,0,0-.7-.39,5.031,5.031,0,0,0-.77-.274,5.614,5.614,0,0,0-.8-.168,5.546,5.546,0,0,0-.742-.053,3.709,3.709,0,0,0-.884.1,2.168,2.168,0,0,0-.673.256,1.285,1.285,0,0,0-.424.407.932.932,0,0,0-.15.521,1.025,1.025,0,0,0,.168.575,2.051,2.051,0,0,0,.477.478,5.783,5.783,0,0,0,.752.442q.442.212,1,.442a10.409,10.409,0,0,1,1.362.681,4.722,4.722,0,0,1,1.043.8,3.139,3.139,0,0,1,.663,1.035,4.088,4.088,0,0,1-.177,3.13,3.277,3.277,0,0,1-1.087,1.167,4.79,4.79,0,0,1-1.61.637,9.251,9.251,0,0,1-1.927.194,10.81,10.81,0,0,1-1.99-.177A5.949,5.949,0,0,1,45.408,64.958Zm16.092.707A5.911,5.911,0,0,1,57.061,63.9a6.4,6.4,0,0,1-1.715-4.625,6.841,6.841,0,0,1,1.742-4.863A6.013,6.013,0,0,1,61.7,52.552a5.74,5.74,0,0,1,4.385,1.778,6.523,6.523,0,0,1,1.68,4.686,6.716,6.716,0,0,1-1.742,4.819c-.041.041-.079.083-.115.124s-.073.07-.115.106l3.21,3.086h-4l-1.68-1.707A7.083,7.083,0,0,1,61.5,65.665Zm.124-10.654a2.886,2.886,0,0,0-2.387,1.131,4.68,4.68,0,0,0-.885,2.98,4.611,4.611,0,0,0,.885,2.98,2.831,2.831,0,0,0,2.316,1.1A2.863,2.863,0,0,0,63.9,62.137a4.6,4.6,0,0,0,.867-2.962,4.967,4.967,0,0,0-.84-3.068A2.724,2.724,0,0,0,61.624,55.011Zm15.81,10.433H69.882V52.765h2.856V63.128h4.7Z" fill="#fff"/>
    </g>
  </g>
</svg>
