<svg xmlns="http://www.w3.org/2000/svg" viewBox="0 0 298 110">
  <title>5 - replication</title>
  <g id="background_blue" data-name="background blue">
    <rect y="-0.181" width="298" height="110" fill="#e4edf1"/>
  </g>
  <g id="Shapes">
    <g>
      <path d="M61.113,60.734v-24.6a9.9,9.9,0,0,1,10-9.895s15.064.158,19.264,0" fill="none" stroke="#75757a" stroke-miterlimit="10"/>
      <polygon points="65.203 57.421 64.47 56.739 61.114 60.351 57.756 56.739 57.024 57.421 61.114 61.819 65.203 57.421" fill="#75757a"/>
      <polygon points="87.228 30.401 86.516 29.697 89.984 26.193 86.236 22.989 86.887 22.229 91.451 26.132 87.228 30.401" fill="#75757a"/>
    </g>
    <g>
      <path d="M238.2,48.681v24.6a9.9,9.9,0,0,1-10,9.9s-15.064-.158-19.264,0" fill="none" stroke="#75757a" stroke-miterlimit="10"/>
      <polygon points="234.107 51.995 234.839 52.677 238.195 49.065 241.553 52.677 242.285 51.995 238.195 47.597 234.107 51.995" fill="#75757a"/>
      <polygon points="212.082 79.015 212.794 79.718 209.325 83.222 213.073 86.426 212.422 87.187 207.858 83.283 212.082 79.015" fill="#75757a"/>
    </g>
    <g>
      <line x1="217.916" y1="26.131" x2="127.886" y2="26.131" fill="none" stroke="#75757a" stroke-miterlimit="10"/>
      <polygon points="214.602 22.041 213.92 22.774 217.532 26.13 213.92 29.488 214.602 30.22 219 26.13 214.602 22.041" fill="#75757a"/>
      <polygon points="131.2 22.041 131.882 22.774 128.27 26.13 131.882 29.488 131.2 30.22 126.802 26.13 131.2 22.041" fill="#75757a"/>
    </g>
    <g>
      <line x1="167.702" y1="83.284" x2="80.084" y2="83.284" fill="none" stroke="#75757a" stroke-miterlimit="10"/>
      <polygon points="164.389 79.195 163.707 79.927 167.318 83.283 163.707 86.641 164.389 87.373 168.787 83.283 164.389 79.195" fill="#75757a"/>
      <polygon points="83.398 79.195 84.08 79.927 80.468 83.283 84.08 86.641 83.398 87.373 79 83.283 83.398 79.195" fill="#75757a"/>
    </g>
    <g>
      <path d="M224.728,14.365V39.788c0,2.605,5.915,4.789,13.169,4.789V14.365Z" fill="#0072c6"/>
      <path d="M237.686,44.577h.211c7.324,0,13.169-2.113,13.169-4.789V14.365h-13.38Z" fill="#0072c6"/>
      <path d="M237.686,44.577h.211c7.324,0,13.169-2.113,13.169-4.789V14.365h-13.38Z" fill="#fff" opacity="0.15" style="isolation: isolate"/>
      <path d="M251.066,14.365c0,2.606-5.916,4.789-13.169,4.789s-13.169-2.113-13.169-4.789c0-2.605,5.915-4.788,13.169-4.788s13.169,2.183,13.169,4.788" fill="#fff"/>
      <path d="M248.39,14.154c0,1.69-4.719,3.1-10.493,3.1s-10.493-1.409-10.493-3.1c0-1.761,4.718-3.169,10.493-3.169s10.493,1.408,10.493,3.169" fill="#7fba00"/>
      <path d="M246.207,16.055c1.408-.563,2.183-1.2,2.183-1.9,0-1.761-4.719-3.169-10.493-3.169S227.4,12.393,227.4,14.154c0,.7.845,1.408,2.183,1.9a23.884,23.884,0,0,1,8.31-1.2,22.34,22.34,0,0,1,8.31,1.2" fill="#b8d432"/>
      <path d="M236.981,23.591a4.6,4.6,0,0,1,1.2,1.76,31.087,31.087,0,0,1,.986,3.169l1.479-2.183a9.679,9.679,0,0,1,1.409-1.549,4.851,4.851,0,0,1,1.479-.986,2.2,2.2,0,0,1,1.971.211,1.241,1.241,0,0,1,.423.916c0,.422-.07.7-.282.845a1.434,1.434,0,0,1-1.056.422,3.608,3.608,0,0,1-.775-.141,2.9,2.9,0,0,0-1.056-.281,1.324,1.324,0,0,0-.916.493,13.619,13.619,0,0,0-2.464,3.31l1.338,5.7a4.718,4.718,0,0,0,.563,1.549c.141.141.282.282.423.282a1.956,1.956,0,0,0,.845-.352,6.247,6.247,0,0,0,1.549-1.972l.563.282a9.309,9.309,0,0,1-2.676,3.239,2.66,2.66,0,0,1-1.549.7,1.625,1.625,0,0,1-1.479-1.056,53.274,53.274,0,0,1-1.479-5.564c-1.76,3.029-3.1,4.93-4.155,5.775a3.194,3.194,0,0,1-1.972.845,1.65,1.65,0,0,1-1.2-.493,1.183,1.183,0,0,1-.422-.986A1.207,1.207,0,0,1,231,36.267a1.888,1.888,0,0,1,1.127.563.951.951,0,0,0,.634.352c.141,0,.282-.07.493-.281a14.385,14.385,0,0,0,2.113-2.747,24.7,24.7,0,0,0,1.76-3.028c-.7-2.676-1.056-4.085-1.127-4.3a3.669,3.669,0,0,0-.986-1.549,3.19,3.19,0,0,0-1.831-.423h-.845V24.3Z" fill="#fff"/>
    </g>
    <g>
      <path d="M96.944,14.365V39.788c0,2.605,5.915,4.789,13.169,4.789V14.365Z" fill="#0072c6"/>
      <path d="M109.9,44.577h.212c7.324,0,13.169-2.113,13.169-4.789V14.365H109.9Z" fill="#0072c6"/>
      <path d="M109.9,44.577h.212c7.324,0,13.169-2.113,13.169-4.789V14.365H109.9Z" fill="#fff" opacity="0.15" style="isolation: isolate"/>
      <path d="M123.282,14.365c0,2.606-5.916,4.789-13.169,4.789s-13.169-2.113-13.169-4.789c0-2.605,5.915-4.788,13.169-4.788s13.169,2.183,13.169,4.788" fill="#fff"/>
      <path d="M120.606,14.154c0,1.69-4.719,3.1-10.493,3.1s-10.493-1.409-10.493-3.1c0-1.761,4.718-3.169,10.493-3.169s10.493,1.408,10.493,3.169" fill="#7fba00"/>
      <path d="M118.423,16.055c1.408-.563,2.183-1.2,2.183-1.9,0-1.761-4.719-3.169-10.493-3.169S99.62,12.393,99.62,14.154c0,.7.845,1.408,2.183,1.9a23.884,23.884,0,0,1,8.31-1.2,22.34,22.34,0,0,1,8.31,1.2" fill="#b8d432"/>
      <path d="M109.2,23.591a4.6,4.6,0,0,1,1.2,1.76,31.087,31.087,0,0,1,.986,3.169l1.479-2.183a9.679,9.679,0,0,1,1.409-1.549,4.851,4.851,0,0,1,1.479-.986,2.2,2.2,0,0,1,1.971.211,1.241,1.241,0,0,1,.423.916c0,.422-.07.7-.282.845a1.434,1.434,0,0,1-1.056.422,3.608,3.608,0,0,1-.775-.141,2.9,2.9,0,0,0-1.056-.281,1.324,1.324,0,0,0-.916.493,13.619,13.619,0,0,0-2.464,3.31l1.338,5.7a4.718,4.718,0,0,0,.563,1.549c.141.141.282.282.423.282a1.956,1.956,0,0,0,.845-.352,6.247,6.247,0,0,0,1.549-1.972l.563.282a9.309,9.309,0,0,1-2.676,3.239,2.66,2.66,0,0,1-1.549.7,1.625,1.625,0,0,1-1.479-1.056,53.274,53.274,0,0,1-1.479-5.564c-1.76,3.029-3.1,4.93-4.155,5.775a3.194,3.194,0,0,1-1.972.845,1.65,1.65,0,0,1-1.2-.493,1.183,1.183,0,0,1-.422-.986,1.207,1.207,0,0,1,1.267-1.267,1.888,1.888,0,0,1,1.127.563.951.951,0,0,0,.634.352c.141,0,.282-.07.493-.281a14.385,14.385,0,0,0,2.113-2.747,24.7,24.7,0,0,0,1.76-3.028c-.7-2.676-1.056-4.085-1.127-4.3a3.669,3.669,0,0,0-.986-1.549,3.19,3.19,0,0,0-1.831-.423h-.845V24.3Z" fill="#fff"/>
    </g>
    <g>
      <path d="M174.728,69.441V94.863c0,2.606,5.915,4.789,13.169,4.789V69.441Z" fill="#0072c6"/>
      <path d="M187.686,99.652h.211c7.324,0,13.169-2.112,13.169-4.789V69.441h-13.38Z" fill="#0072c6"/>
      <path d="M187.686,99.652h.211c7.324,0,13.169-2.112,13.169-4.789V69.441h-13.38Z" fill="#fff" opacity="0.15" style="isolation: isolate"/>
      <path d="M201.066,69.441c0,2.606-5.916,4.789-13.169,4.789s-13.169-2.113-13.169-4.789c0-2.606,5.915-4.789,13.169-4.789s13.169,2.183,13.169,4.789" fill="#fff"/>
      <path d="M198.39,69.23c0,1.69-4.719,3.1-10.493,3.1S177.4,70.92,177.4,69.23c0-1.761,4.718-3.169,10.493-3.169s10.493,1.408,10.493,3.169" fill="#7fba00"/>
      <path d="M196.207,71.131c1.408-.563,2.183-1.2,2.183-1.9,0-1.761-4.719-3.169-10.493-3.169S177.4,67.469,177.4,69.23c0,.7.845,1.408,2.183,1.9a23.86,23.86,0,0,1,8.31-1.2,22.3,22.3,0,0,1,8.31,1.2" fill="#b8d432"/>
      <path d="M186.981,78.666a4.613,4.613,0,0,1,1.2,1.761,31,31,0,0,1,.986,3.169l1.479-2.183a9.643,9.643,0,0,1,1.409-1.55,4.826,4.826,0,0,1,1.479-.985,2.2,2.2,0,0,1,1.971.211,1.237,1.237,0,0,1,.423.915c0,.423-.07.7-.282.845a1.431,1.431,0,0,1-1.056.423,3.671,3.671,0,0,1-.775-.141,2.912,2.912,0,0,0-1.056-.282,1.324,1.324,0,0,0-.916.493,13.639,13.639,0,0,0-2.464,3.31l1.338,5.7a4.728,4.728,0,0,0,.563,1.55c.141.141.282.281.423.281a1.943,1.943,0,0,0,.845-.352,6.236,6.236,0,0,0,1.549-1.972l.563.282a9.312,9.312,0,0,1-2.676,3.24,2.66,2.66,0,0,1-1.549.7,1.625,1.625,0,0,1-1.479-1.057,53.133,53.133,0,0,1-1.479-5.563c-1.76,3.028-3.1,4.93-4.155,5.775a3.194,3.194,0,0,1-1.972.845,1.65,1.65,0,0,1-1.2-.493,1.184,1.184,0,0,1-.422-.986A1.207,1.207,0,0,1,181,91.342a1.891,1.891,0,0,1,1.127.564.956.956,0,0,0,.634.352c.141,0,.282-.071.493-.282a14.335,14.335,0,0,0,2.113-2.746,24.772,24.772,0,0,0,1.76-3.029c-.7-2.676-1.056-4.084-1.127-4.295a3.673,3.673,0,0,0-.986-1.55,3.2,3.2,0,0,0-1.831-.422h-.845V79.37Z" fill="#fff"/>
    </g>
    <g>
      <path d="M46.944,69.441V94.863c0,2.606,5.915,4.789,13.169,4.789V69.441Z" fill="#0072c6"/>
      <path d="M59.9,99.652h.212c7.324,0,13.169-2.112,13.169-4.789V69.441H59.9Z" fill="#0072c6"/>
      <path d="M59.9,99.652h.212c7.324,0,13.169-2.112,13.169-4.789V69.441H59.9Z" fill="#fff" opacity="0.15" style="isolation: isolate"/>
      <path d="M73.282,69.441c0,2.606-5.916,4.789-13.169,4.789s-13.169-2.113-13.169-4.789c0-2.606,5.915-4.789,13.169-4.789s13.169,2.183,13.169,4.789" fill="#fff"/>
      <path d="M70.606,69.23c0,1.69-4.719,3.1-10.493,3.1S49.62,70.92,49.62,69.23c0-1.761,4.718-3.169,10.493-3.169s10.493,1.408,10.493,3.169" fill="#7fba00"/>
      <path d="M68.423,71.131c1.408-.563,2.183-1.2,2.183-1.9,0-1.761-4.719-3.169-10.493-3.169S49.62,67.469,49.62,69.23c0,.7.845,1.408,2.183,1.9a23.86,23.86,0,0,1,8.31-1.2,22.3,22.3,0,0,1,8.31,1.2" fill="#b8d432"/>
      <path d="M59.2,78.666a4.613,4.613,0,0,1,1.2,1.761A31,31,0,0,1,61.38,83.6l1.479-2.183a9.643,9.643,0,0,1,1.409-1.55,4.826,4.826,0,0,1,1.479-.985,2.2,2.2,0,0,1,1.971.211,1.237,1.237,0,0,1,.423.915c0,.423-.07.7-.282.845a1.431,1.431,0,0,1-1.056.423,3.671,3.671,0,0,1-.775-.141,2.912,2.912,0,0,0-1.056-.282,1.324,1.324,0,0,0-.916.493,13.639,13.639,0,0,0-2.464,3.31l1.338,5.7a4.728,4.728,0,0,0,.563,1.55c.141.141.282.281.423.281a1.943,1.943,0,0,0,.845-.352,6.236,6.236,0,0,0,1.549-1.972l.563.282a9.312,9.312,0,0,1-2.676,3.24,2.66,2.66,0,0,1-1.549.7,1.625,1.625,0,0,1-1.479-1.057,53.133,53.133,0,0,1-1.479-5.563c-1.76,3.028-3.1,4.93-4.155,5.775a3.194,3.194,0,0,1-1.972.845,1.65,1.65,0,0,1-1.2-.493,1.184,1.184,0,0,1-.422-.986,1.207,1.207,0,0,1,1.267-1.268,1.891,1.891,0,0,1,1.127.564.956.956,0,0,0,.634.352c.141,0,.282-.071.493-.282a14.335,14.335,0,0,0,2.113-2.746,24.772,24.772,0,0,0,1.76-3.029c-.7-2.676-1.056-4.084-1.127-4.295a3.673,3.673,0,0,0-.986-1.55,3.2,3.2,0,0,0-1.831-.422h-.845V79.37Z" fill="#fff"/>
    </g>
  </g>
</svg>
