<svg xmlns="http://www.w3.org/2000/svg" viewBox="0 0 298 110">
  <title>5 - ssis</title>
  <g id="background_blue" data-name="background blue">
    <rect width="298" height="110" fill="#e4edf1"/>
  </g>
  <g id="Shapes">
    <g>
      <path d="M197.209,30.728a7.857,7.857,0,0,0-3.324,2.384l-5.193-13.946L174.746,24.4a7.9,7.9,0,1,0-12.8,4.805l-13.982,5.275,5.8,15.463a7.9,7.9,0,1,1,3.667,9.764l5.8,15.418,40.645-15.264-5.23-13.946a7.9,7.9,0,1,0-1.481-15.183Z" fill="#2bc7f4"/>
      <path d="M142.112,52.36a7.857,7.857,0,0,0-3.324,2.384L133.6,40.8l-15.464,5.8a7.9,7.9,0,1,1-10.219,4.527,8.221,8.221,0,0,1,.392-.86l-15.436,5.8,15.265,40.645,13.946-5.229,1.517-.569a7.9,7.9,0,1,1,10.187-4.6,8.045,8.045,0,0,1-.423.932l1.517-.569,13.937-5.23L143.584,67.5A7.9,7.9,0,1,0,142.1,52.315Z" fill="#80cee9"/>
    </g>
  </g>
</svg>
