<svg xmlns="http://www.w3.org/2000/svg" xmlns:xlink="http://www.w3.org/1999/xlink" version="1.1" width="64" height="64" style="" xml:space="preserve"><rect id="backgroundrect" width="100%" height="100%" x="0" y="0" fill="none" stroke="none"/>

<g class="currentLayer" style=""><title>Layer 1</title>
	
	
	
	
	
	
		
	
	
	
		
	
		
	
		
	
	
	
<g class="selected"><g id="svg_2" class="">
		<path style="fill:#FCD100;" d="M0,8.295v36.741c0,4.584,9.551,8.297,21.333,8.297s21.333-3.713,21.333-8.297V8.295H0z" id="svg_3"/>
		<path style="opacity:0.4;fill:#FFFFFF;enable-background:new    ;" d="M21.333,8.295H0v36.741c0,4.584,9.551,8.297,21.333,8.297    V8.295z" id="svg_4"/>
		<path style="fill:#FEE087;" d="M42.667,8.295c0,4.582-9.551,8.297-21.333,8.297S0,12.877,0,8.295S9.551,0,21.333,0    S42.667,3.713,42.667,8.295z" id="svg_5"/>
		<path style="opacity:0.4;fill:#DD5900;enable-background:new    ;" d="M42.667,8.295c0,4.582-9.551,8.297-21.333,8.297    S0,12.877,0,8.295S9.551,0,21.333,0S42.667,3.713,42.667,8.295z" id="svg_6"/>
	</g><polygon style="fill:#FFFFFF;enable-background:new    ;" points="42.667,64 53.336,64 64,57.844 64,33.207 49.333,24.741    48,23.971 46.667,24.741 30.667,33.977 29.333,34.747 29.333,36.286 29.333,54.763 29.333,56.302 30.667,57.073  " id="svg_7" class=""/><polygon style="fill:#FCD100;" points="64,36.286 48,27.051 32,36.286 48,45.526  " id="svg_8" class=""/><polygon style="opacity:0.4;fill:#FFFFFF;enable-background:new    ;" points="64,36.286 48,27.051 32,36.286 48,45.526  " id="svg_9" class=""/><polygon style="fill:#FFFFFF;" points="57.094,0 49.792,0 47.786,2.004 23.23,26.562 22.785,27.008 22.587,27.604 20.702,33.261    19.014,38.32 24.074,36.636 29.73,34.75 30.327,34.55 30.772,34.104 55.328,9.547 59.099,5.775 60.984,3.889 59.099,2.004  " id="svg_10" class=""/><rect x="21.915000915527344" y="15.387999534606934" transform="matrix(0.7071,-0.7071,0.7071,0.7071,-1.2616,33.0638) " style="fill:#FEE087;" width="34.72800064086914" height="5.333000183105469" id="svg_11" class=""/><polygon style="fill:#FEE087;" points="23.23,34.104 28.887,32.219 25.116,28.448  " id="svg_12" class=""/><polygon style="opacity:0.4;fill:#FFFFFF;enable-background:new    ;" points="23.23,34.104 28.887,32.219 25.116,28.448  " id="svg_13" class=""/><rect x="50.7760009765625" y="1.222000002861023" transform="matrix(0.707,-0.7072,0.7072,0.707,12.9075,38.9342) " style="fill:#DD5900;" width="5.334000110626221" height="5.334000110626221" id="svg_14" class=""/><rect x="21.915000915527344" y="15.387999534606934" transform="matrix(0.7071,-0.7071,0.7071,0.7071,-1.2616,33.0638) " style="opacity:0.4;fill:#DD5900;enable-background:new    ;" width="34.72800064086914" height="5.333000183105469" id="svg_15" class=""/><rect x="21.06100082397461" y="15.741999626159668" transform="matrix(0.7071,-0.7071,0.7071,0.7071,-0.907,32.2089) " style="opacity:0.4;fill:#FFFFFF;enable-background:new    ;" width="34.72800064086914" height="2.9149999618530273" id="svg_16" class=""/><polygon style="fill:#FEE087;" points="48,45.526 64,36.286 64,54.763 48,64  " id="svg_17" class=""/><polygon style="opacity:0.4;fill:#DD5900;enable-background:new    ;" points="48,45.526 64,36.286 64,54.763 48,64  " id="svg_18" class=""/><g id="svg_19" class="">
		<polygon style="fill:#FCD100;" points="48,45.526 32,36.286 32,54.763 48,64   " id="svg_20"/>
	</g></g></g></svg>