<svg xmlns="http://www.w3.org/2000/svg" width="66" height="64"><rect id="backgroundrect" width="100%" height="100%" x="0" y="0" fill="none" stroke="none" class="" style=""/><title>ssms_icon_v18</title><g class="currentLayer" style=""><title>Layer 1</title><g class=""><path d="M43.29521399215531,6.7921599928380445 c0,3.7604662621292104 -8.02779387504542,6.792159992838032 -17.905859944339227,6.792159992838032 s-17.905859944339227,-2.9150901256815587 -17.905859944339227,-6.792159992838032 S15.511287978522304,0 25.3893540478161,0 S43.29521399215531,2.9150901256815587 43.29521399215531,6.7921599928380445 z" fill="#fee087" id="svg_1" class=""/><g style="isolation:isolate" id="svg_2" class=""><path d="M42.280548595309426,32.85306571643116 l-2.3277617927640994,2.2737702980316157 a0.328274098979553,0.3206599138249719 0 0 0 0,0.437263518852234 l2.9843099907232045,2.9150901256815587 a2.9843099907232045,2.9150901256815587 0 0 0 0.4476464986084812,-1.4866959640975947 V31.861935073699456 z" fill="#fff" id="svg_3"/></g><g style="isolation:isolate" id="svg_4" class=""><path d="M24.016571452083426,41.97729780981447 l-2.1188600934134763,-2.0697139892339074 L24.016571452083426,37.89617163386026 l2.3277617927640994,-2.2737702980316157 l0.23874479925785663,-0.23320721005452494 l2.1188600934134763,-2.0697139892339074 l4.178033987012486,-4.081126175954181 l2.9843099907232045,-2.9150901256815587 l2.1188600934134763,-2.0697139892339074 l2.1188600934134763,2.0697139892339074 l2.3277617927640994,2.2737702980316157 l1.0146653968458903,0.9911306427317306 V6.7921599928380445 C43.29521399215531,2.9150901256815587 35.26742011710991,0 25.3893540478161,0 S7.483494103476886,2.9150901256815587 7.483494103476886,6.7921599928380445 V36.93419189238533 C7.483494103476886,40.81126175954182 15.511287978522304,43.72635188522338 25.3893540478161,43.72635188522338 h0.4178033987012489 z" fill="#fff" id="svg_5"/></g><polygon points="47.74894714355469,0 47.74894714355469,5.830181121826172 59.686187744140625,5.830181121826172 59.686187744140625,17.490535736083984 65.65481567382812,17.490535736083984 65.65481567382812,0 47.74894714355469,0 " fill="#4a9f49" id="svg_6" class=""/><polygon points="17.905860900878906,64.13198471069336 17.905860900878906,58.30180740356445 5.968620300292969,58.30180740356445 5.968620300292969,46.64143753051758 0,46.64143753051758 0,64.13198471069336 17.905860900878906,64.13198471069336 " fill="#4a9f49" id="svg_7" class=""/><path d="M55.23245395504813,34.2231580755015 l4.028818487476326,-3.9353716696701047 a6.56548197959105,6.41319827649943 0 0 0 -7.371245677086316,9.474042908465066 l-5.968619981446409,5.830180251363117 l-8.17700937458158,-7.987346944367472 a3.3125840897027574,3.2357500395065313 0 0 1 0,-4.5766914973200485 l2.3277617927640994,-2.2737702980316157 l-2.3277617927640994,-2.2737702980316157 l-2.9843099907232045,2.9150901256815587 l-4.178033987012486,4.081126175954181 a1.6413704948977625,1.6032995691248577 0 0 1 -2.3277617927640994,2.2737702980316157 l-2.3277617927640994,2.2737702980316157 l4.685366685435431,4.5766914973200485 l2.3277617927640994,-2.2737702980316157 a1.6413704948977625,1.6032995691248577 0 1 1 2.3277617927640994,-2.3029211992884315 l8.17700937458158,7.987346944367472 L33.14856002369642,58.30180251363117 l2.3277617927640994,2.2737702980316157 l10.534614267252913,-10.290268143655902 l10.534614267252913,10.290268143655902 l2.3277617927640994,-2.2737702980316157 L48.368540976384736,47.9240816662048 l5.968619981446409,-5.830180251363117 A6.56548197959105,6.41319827649943 0 0 0 64.18538392721774,34.981081508178704 L60.067036140019724,38.770698671564716 z" fill="#0072c6" id="svg_8" class=""/><path d="M42.280548595309426,32.85306571643116 l-2.3277617927640994,2.2737702980316157 a0.328274098979553,0.3206599138249719 0 0 0 0,0.437263518852234 l2.9843099907232045,2.9150901256815587 a2.9843099907232045,2.9150901256815587 0 0 0 0.4476464986084812,-1.4866959640975947 V31.861935073699456 z" fill="#fcd100" id="svg_9" class=""/><path d="M24.016571452083426,41.97729780981447 l-2.1188600934134763,-2.0697139892339074 L24.016571452083426,37.89617163386026 l2.3277617927640994,-2.2737702980316157 l0.23874479925785663,-0.23320721005452494 l2.1188600934134763,-2.0697139892339074 l4.178033987012486,-4.081126175954181 l2.9843099907232045,-2.9150901256815587 l2.1188600934134763,-2.0697139892339074 l2.1188600934134763,2.0697139892339074 l2.3277617927640994,2.2737702980316157 l1.0146653968458903,0.9911306427317306 V6.7921599928380445 H7.483494103476886 V36.93419189238533 C7.483494103476886,40.81126175954182 15.511287978522304,43.72635188522338 25.3893540478161,43.72635188522338 h0.4178033987012489 z" fill="#fcd100" id="svg_10" class=""/><path d="M46.73974334905921,59.73419204696221 l-2.1188600934134763,-2.069713989233908 L46.73974334905921,55.653065871007996 L48.11252594479191,54.282973511937655 V24.549054229985785 H30.2066660004527 V54.69108612953306 C30.2066660004527,58.568155996689555 38.23445987549812,61.48324612237111 48.11252594479191,61.48324612237111 v-0.4081126175954186 z" fill="#fff" opacity="0.4" style="isolation:isolate" id="svg_11" class=""/><path d="M43.29521399215531,6.7921599928380445 c0,3.7604662621292104 -8.02779387504542,6.792159992838032 -17.905859944339227,6.792159992838032 s-17.905859944339227,-2.9150901256815587 -17.905859944339227,-6.792159992838032 S15.511287978522304,0 25.3893540478161,0 S43.29521399215531,2.9150901256815587 43.29521399215531,6.7921599928380445 z" fill="#f0aa51" id="svg_12" class=""/></g></g></svg>