<svg xmlns="http://www.w3.org/2000/svg" viewBox="0 0 418.3 211.3">
  <g id="Shapes">
    <g>
      <rect x="0.15" y="0.15" width="418" height="211" fill="#fff"/>
      <g opacity="0.65">
        <path d="M418.15.15v211H.15V.15h418M418.3,0H0V211.3H418.3V0Z" fill="#505050"/>
      </g>
    </g>
    <g>
      <rect x="127.75" y="87.95" width="52.8" height="70.4" fill="#fff"/>
      <rect x="127.75" y="87.95" width="52.8" height="70.4" fill="#0078d4" opacity="0.1"/>
    </g>
    <g>
      <rect x="171.75" y="114.35" width="140.8" height="57.2" fill="#fff"/>
      <rect x="171.75" y="114.35" width="140.8" height="57.2" fill="#0078d4" opacity="0.1"/>
    </g>
    <g>
      <rect x="294.95" y="127.55" width="70.4" height="44" fill="#fff"/>
      <rect x="294.95" y="127.55" width="70.4" height="44" fill="#0078d4" opacity="0.1"/>
    </g>
    <g>
      <rect x="360.95" y="74.75" width="22" height="96.8" fill="#fff"/>
      <rect x="360.95" y="74.75" width="22" height="96.8" fill="#0078d4" opacity="0.1"/>
    </g>
    <g>
      <rect x="70.55" y="149.55" width="312.4" height="22" fill="#fff"/>
      <rect x="70.55" y="149.55" width="312.4" height="22" fill="#0078d4" opacity="0.1"/>
    </g>
    <g>
      <polyline points="127.75 158.35 127.75 171.55 66.15 171.55 66.15 71.33" fill="none" stroke="#3c3c41" stroke-miterlimit="10"/>
      <polygon points="69.89 72.43 66.15 65.95 62.41 72.43 69.89 72.43" fill="#3c3c41"/>
    </g>
    <line x1="70.55" y1="171.55" x2="70.55" y2="149.55" fill="none" stroke="#3c3c41" stroke-miterlimit="10"/>
    <g>
      <rect x="100.85" y="169.05" width="1" height="2.5" fill="#0078d4"/>
      <path d="M101.85,167.19h-1v-4.65h1Zm0-6.51h-1V156h1Zm0-6.52h-1v-4.65h1Z" fill="#0078d4"/>
      <rect x="100.85" y="145.15" width="1" height="2.5" fill="#0078d4"/>
    </g>
    <g>
      <rect x="131.65" y="169.05" width="1" height="2.5" fill="#0078d4"/>
      <path d="M132.65,167h-1v-5.08h1Zm0-7.12h-1v-5.08h1Zm0-7.11h-1v-5.08h1Zm0-7.11h-1v-5.09h1Zm0-7.12h-1v-5.08h1Zm0-7.11h-1v-5.08h1Zm0-7.12h-1v-5.08h1Zm0-7.11h-1v-5.08h1Zm0-7.11h-1V105h1Zm0-7.12h-1V97.91h1Zm0-7.11h-1V90.8h1Zm0-7.12h-1V83.68h1Z" fill="#0078d4"/>
      <rect x="131.65" y="79.15" width="1" height="2.5" fill="#0078d4"/>
    </g>
    <g>
      <rect x="140.45" y="169.05" width="1" height="2.5" fill="#0078d4"/>
      <path d="M141.45,167.11h-1v-4.85h1Zm0-6.79h-1v-4.84h1Zm0-6.78h-1v-4.85h1Zm0-6.79h-1V141.9h1Zm0-6.78h-1v-4.85h1Zm0-6.79h-1v-4.85h1Zm0-6.79h-1v-4.84h1Zm0-6.78h-1v-4.85h1Zm0-6.79h-1V108h1Zm0-6.78h-1v-4.85h1Z" fill="#0078d4"/>
      <rect x="140.45" y="96.75" width="1" height="2.5" fill="#0078d4"/>
    </g>
    <g>
      <rect x="175.65" y="169.05" width="1" height="2.5" fill="#0078d4"/>
      <path d="M176.65,167h-1v-5.08h1Zm0-7.12h-1v-5.08h1Zm0-7.11h-1v-5.08h1Zm0-7.11h-1v-5.09h1Zm0-7.12h-1v-5.08h1Zm0-7.11h-1v-5.08h1Zm0-7.12h-1v-5.08h1Zm0-7.11h-1v-5.08h1Zm0-7.11h-1V105h1Zm0-7.12h-1V97.91h1Zm0-7.11h-1V90.8h1Zm0-7.12h-1V83.68h1Z" fill="#0078d4"/>
      <rect x="175.65" y="79.15" width="1" height="2.5" fill="#0078d4"/>
    </g>
    <g>
      <rect x="162.45" y="169.05" width="1" height="2.5" fill="#0078d4"/>
      <path d="M163.45,167h-1v-5.26h1Zm0-7.37h-1v-5.25h1Zm0-7.36h-1V147h1Zm0-7.36h-1V139.6h1Zm0-7.36h-1v-5.26h1Zm0-7.36h-1v-5.26h1Zm0-7.37h-1v-5.25h1Zm0-7.36h-1v-5.26h1Z" fill="#0078d4"/>
      <rect x="162.45" y="105.55" width="1" height="2.5" fill="#0078d4"/>
    </g>
    <g>
      <rect x="206.45" y="169.05" width="1" height="2.5" fill="#0078d4"/>
      <path d="M207.45,167.1h-1v-4.88h1Zm0-6.83h-1v-4.88h1Zm0-6.83h-1v-4.88h1Zm0-6.83h-1v-4.88h1Zm0-6.84h-1V134.9h1Zm0-6.83h-1v-4.88h1Zm0-6.83h-1v-4.88h1Zm0-6.83h-1V114.4h1Z" fill="#0078d4"/>
      <rect x="206.45" y="109.95" width="1" height="2.5" fill="#0078d4"/>
    </g>
    <g>
      <rect x="215.25" y="169.05" width="1" height="2.5" fill="#0078d4"/>
      <path d="M216.25,167.18h-1v-4.69h1Zm0-6.57h-1v-4.68h1Zm0-6.56h-1v-4.68h1Zm0-6.56h-1v-4.68h1Zm0-6.56h-1v-4.68h1Zm0-6.56h-1v-4.68h1Zm0-6.56h-1v-4.69h1Z" fill="#0078d4"/>
      <rect x="215.25" y="118.75" width="1" height="2.5" fill="#0078d4"/>
    </g>
    <g>
      <rect x="246.05" y="169.05" width="1" height="2.5" fill="#0078d4"/>
      <path d="M247.05,167.1h-1v-4.88h1Zm0-6.83h-1v-4.88h1Zm0-6.83h-1v-4.88h1Zm0-6.83h-1v-4.88h1Zm0-6.84h-1V134.9h1Zm0-6.83h-1v-4.88h1Zm0-6.83h-1v-4.88h1Zm0-6.83h-1V114.4h1Z" fill="#0078d4"/>
      <rect x="246.05" y="109.95" width="1" height="2.5" fill="#0078d4"/>
    </g>
    <g>
      <rect x="272.45" y="169.05" width="1" height="2.5" fill="#0078d4"/>
      <path d="M273.45,167h-1v-5.15h1Zm0-7.22h-1v-5.15h1Zm0-7.21h-1v-5.15h1Zm0-7.21h-1v-5.16h1Zm0-7.22h-1V133h1Zm0-7.21h-1v-5.15h1Zm0-7.21h-1v-5.16h1Zm0-7.22h-1v-5.15h1Zm0-7.21h-1v-5.15h1Zm0-7.22h-1V96.91h1Z" fill="#0078d4"/>
      <rect x="272.45" y="92.35" width="1" height="2.5" fill="#0078d4"/>
    </g>
    <g>
      <rect x="298.85" y="169.05" width="1" height="2.5" fill="#0078d4"/>
      <path d="M299.85,166.94h-1v-5.27h1Zm0-7.38h-1v-5.27h1Zm0-7.37h-1v-5.28h1Zm0-7.38h-1v-5.27h1Zm0-7.38h-1v-5.27h1Z" fill="#0078d4"/>
      <rect x="298.85" y="127.55" width="1" height="2.5" fill="#0078d4"/>
    </g>
    <g>
      <rect x="307.65" y="169.05" width="1" height="2.5" fill="#0078d4"/>
      <path d="M308.65,167.1h-1v-4.88h1Zm0-6.83h-1v-4.88h1Zm0-6.83h-1v-4.88h1Zm0-6.83h-1v-4.88h1Zm0-6.84h-1V134.9h1Zm0-6.83h-1v-4.88h1Zm0-6.83h-1v-4.88h1Zm0-6.83h-1V114.4h1Z" fill="#0078d4"/>
      <rect x="307.65" y="109.95" width="1" height="2.5" fill="#0078d4"/>
    </g>
    <g>
      <rect x="316.45" y="169.05" width="1" height="2.5" fill="#0078d4"/>
      <path d="M317.45,167.19h-1v-4.65h1Zm0-6.51h-1V156h1Zm0-6.52h-1v-4.65h1Z" fill="#0078d4"/>
      <rect x="316.45" y="145.15" width="1" height="2.5" fill="#0078d4"/>
    </g>
    <g>
      <rect x="351.65" y="169.05" width="1" height="2.5" fill="#0078d4"/>
      <path d="M352.65,167.18h-1v-4.69h1Zm0-6.57h-1v-4.68h1Zm0-6.56h-1v-4.68h1Zm0-6.56h-1v-4.68h1Zm0-6.56h-1v-4.68h1Zm0-6.56h-1v-4.68h1Zm0-6.56h-1v-4.69h1Z" fill="#0078d4"/>
      <rect x="351.65" y="118.75" width="1" height="2.5" fill="#0078d4"/>
    </g>
    <g>
      <rect x="369.25" y="169.05" width="1" height="2.5" fill="#0078d4"/>
      <path d="M370.25,167h-1v-5.08h1Zm0-7.12h-1v-5.08h1Zm0-7.11h-1v-5.08h1Zm0-7.11h-1v-5.09h1Zm0-7.12h-1v-5.08h1Zm0-7.11h-1v-5.08h1Zm0-7.12h-1v-5.08h1Zm0-7.11h-1v-5.08h1Zm0-7.11h-1V105h1Zm0-7.12h-1V97.91h1Zm0-7.11h-1V90.8h1Zm0-7.12h-1V83.68h1Z" fill="#0078d4"/>
      <rect x="369.25" y="79.15" width="1" height="2.5" fill="#0078d4"/>
    </g>
    <g>
      <rect x="373.65" y="169.05" width="1" height="2.5" fill="#0078d4"/>
      <path d="M374.65,167h-1v-5.17h1Zm0-7.24h-1v-5.17h1Zm0-7.24h-1v-5.17h1Zm0-7.24h-1v-5.17h1Zm0-7.24h-1v-5.17h1Zm0-7.24h-1v-5.17h1Zm0-7.24h-1v-5.18h1Zm0-7.24h-1v-5.18h1Zm0-7.25h-1v-5.17h1Zm0-7.24h-1V96.64h1Zm0-7.24h-1V89.4h1Zm0-7.24h-1V82.16h1Zm0-7.24h-1V74.92h1Z" fill="#0078d4"/>
      <rect x="373.65" y="70.35" width="1" height="2.5" fill="#0078d4"/>
    </g>
    <g>
      <rect x="237.25" y="169.05" width="1" height="2.5" fill="#0078d4"/>
      <path d="M238.25,167.18h-1v-4.69h1Zm0-6.57h-1v-4.68h1Zm0-6.56h-1v-4.68h1Zm0-6.56h-1v-4.68h1Zm0-6.56h-1v-4.68h1Zm0-6.56h-1v-4.68h1Zm0-6.56h-1v-4.69h1Z" fill="#0078d4"/>
      <rect x="237.25" y="118.75" width="1" height="2.5" fill="#0078d4"/>
    </g>
    <g>
      <rect x="114.05" y="169.05" width="1" height="2.5" fill="#0078d4"/>
      <rect x="114.05" y="162.67" width="1" height="4.56" fill="#0078d4"/>
      <rect x="114.05" y="158.35" width="1" height="2.5" fill="#0078d4"/>
    </g>
    <line x1="180.55" y1="171.55" x2="180.55" y2="61.55" fill="none" stroke="#3c3c41" stroke-miterlimit="10"/>
    <line x1="360.95" y1="171.55" x2="360.95" y2="123.15" fill="none" stroke="#3c3c41" stroke-miterlimit="10"/>
    <line x1="382.95" y1="171.55" x2="382.95" y2="70.35" fill="none" stroke="#3c3c41" stroke-miterlimit="10"/>
    <line x1="127.75" y1="171.55" x2="312.55" y2="171.55" fill="none" stroke="#a3a3a3"/>
    <g>
      <rect x="312.05" y="188.65" width="1" height="0.5" fill="#767676"/>
      <path d="M313.05,186.7h-1v-1h1Zm0-2.93h-1v-1h1Zm0-2.93h-1v-1h1Zm0-2.93h-1v-1h1Zm0-2.93h-1v-1h1Z" fill="#767676"/>
      <rect x="312.05" y="171.55" width="1" height="0.5" fill="#767676"/>
    </g>
    <g>
      <rect x="312.05" y="83.65" width="1" height="0.5" fill="#767676"/>
      <path d="M313.05,81.7h-1v-1h1Zm0-2.93h-1v-1h1Zm0-2.93h-1v-1h1Zm0-2.93h-1v-1h1Zm0-2.93h-1V69h1Z" fill="#767676"/>
      <rect x="312.05" y="66.55" width="1" height="0.5" fill="#767676"/>
    </g>
    <g>
      <line x1="226.95" y1="114.35" x2="226.95" y2="113.85" fill="none" stroke="#767676" stroke-miterlimit="10"/>
      <line x1="226.95" y1="111.85" x2="226.95" y2="49.85" fill="none" stroke="#767676" stroke-miterlimit="10" stroke-dasharray="1 2"/>
      <line x1="226.95" y1="48.85" x2="226.95" y2="48.35" fill="none" stroke="#767676" stroke-miterlimit="10"/>
    </g>
    <g>
      <polyline points="312.55 87.95 312.55 171.55 395.17 171.55" fill="none" stroke="#3c3c41" stroke-miterlimit="10"/>
      <polygon points="394.07 175.29 400.55 171.55 394.07 167.81 394.07 175.29" fill="#3c3c41"/>
    </g>
    <g>
      <rect x="0.15" y="0.15" width="418" height="22" fill="#fff"/>
      <rect x="0.15" y="0.15" width="418" height="22" fill="#505050" opacity="0.14"/>
    </g>
    <g>
      <path d="M232.16,44h-1.09l-.89-2.36h-3.57L225.77,44h-1.09l3.22-8.4h1Zm-2.31-3.24-1.32-3.58a3.91,3.91,0,0,1-.12-.56h0a3.36,3.36,0,0,1-.13.56l-1.31,3.58Z" fill="#1e1e1e"/>
      <path d="M237.75,38l-2.39,6h-1l-2.27-6h1.05l1.53,4.36a4.27,4.27,0,0,1,.21.84h0a3.8,3.8,0,0,1,.19-.82L236.73,38Z" fill="#1e1e1e"/>
      <path d="M243.6,41.19h-4.24a2.3,2.3,0,0,0,.54,1.55,1.88,1.88,0,0,0,1.42.54,2.89,2.89,0,0,0,1.86-.67v.91a3.47,3.47,0,0,1-2.09.57,2.53,2.53,0,0,1-2-.82,3.35,3.35,0,0,1-.72-2.3,3.28,3.28,0,0,1,.79-2.28,2.54,2.54,0,0,1,2-.88,2.24,2.24,0,0,1,1.82.76,3.18,3.18,0,0,1,.65,2.12Zm-1-.81a1.91,1.91,0,0,0-.4-1.3,1.36,1.36,0,0,0-1.1-.46,1.56,1.56,0,0,0-1.15.48,2.25,2.25,0,0,0-.59,1.28Z" fill="#1e1e1e"/>
      <path d="M248.18,38.92a1.18,1.18,0,0,0-.73-.19,1.2,1.2,0,0,0-1,.58,2.64,2.64,0,0,0-.42,1.58V44h-1V38h1v1.24h0a2,2,0,0,1,.62-1,1.43,1.43,0,0,1,1-.36,1.41,1.41,0,0,1,.57.09Z" fill="#1e1e1e"/>
      <path d="M253.52,44h-1V43h0a2,2,0,0,1-1.84,1.08,2,2,0,0,1-1.4-.47,1.65,1.65,0,0,1-.51-1.26c0-1.13.66-1.78,2-2l1.8-.25c0-1-.41-1.53-1.24-1.53a2.94,2.94,0,0,0-2,.74v-1a3.76,3.76,0,0,1,2-.56c1.41,0,2.12.75,2.12,2.24Zm-1-3-1.45.2a2.65,2.65,0,0,0-1,.33,1,1,0,0,0-.34.85.9.9,0,0,0,.32.71,1.18,1.18,0,0,0,.83.28,1.55,1.55,0,0,0,1.18-.5,1.8,1.8,0,0,0,.47-1.27Z" fill="#1e1e1e"/>
      <path d="M260.45,43.47q0,3.3-3.16,3.3a4.28,4.28,0,0,1-2-.42v-1a4,4,0,0,0,1.93.56c1.48,0,2.22-.78,2.22-2.35v-.66h0a2.43,2.43,0,0,1-3.87.35,3.22,3.22,0,0,1-.68-2.15,3.73,3.73,0,0,1,.73-2.43,2.49,2.49,0,0,1,2-.9,2,2,0,0,1,1.8,1h0V38h1Zm-1-2.23v-.89a1.72,1.72,0,0,0-.48-1.22,1.62,1.62,0,0,0-1.21-.51,1.64,1.64,0,0,0-1.39.65,2.85,2.85,0,0,0-.51,1.81,2.48,2.48,0,0,0,.49,1.6,1.56,1.56,0,0,0,1.28.6,1.65,1.65,0,0,0,1.31-.57A2.16,2.16,0,0,0,259.49,41.24Z" fill="#1e1e1e"/>
      <path d="M267.22,41.19H263a2.3,2.3,0,0,0,.54,1.55,1.87,1.87,0,0,0,1.42.54,2.91,2.91,0,0,0,1.86-.67v.91a3.5,3.5,0,0,1-2.09.57,2.53,2.53,0,0,1-2-.82A3.35,3.35,0,0,1,262,41a3.28,3.28,0,0,1,.79-2.28,2.54,2.54,0,0,1,2-.88,2.24,2.24,0,0,1,1.82.76,3.18,3.18,0,0,1,.65,2.12Zm-1-.81a1.91,1.91,0,0,0-.4-1.3,1.36,1.36,0,0,0-1.1-.46,1.56,1.56,0,0,0-1.15.48,2.25,2.25,0,0,0-.59,1.28Z" fill="#1e1e1e"/>
      <path d="M272.68,45.69h-5V45h5Z" fill="#1e1e1e"/>
      <path d="M276.78,38.92a1.18,1.18,0,0,0-.73-.19,1.2,1.2,0,0,0-1,.58,2.64,2.64,0,0,0-.42,1.58V44h-1V38h1v1.24h0a2,2,0,0,1,.62-1,1.43,1.43,0,0,1,.95-.36,1.41,1.41,0,0,1,.57.09Z" fill="#1e1e1e"/>
      <path d="M282.12,44h-1V43h0a2,2,0,0,1-1.84,1.08,2,2,0,0,1-1.4-.47,1.65,1.65,0,0,1-.51-1.26c0-1.13.66-1.78,2-2l1.8-.25c0-1-.41-1.53-1.24-1.53a2.94,2.94,0,0,0-2,.74v-1a3.76,3.76,0,0,1,2-.56c1.41,0,2.12.75,2.12,2.24Zm-1-3-1.45.2a2.65,2.65,0,0,0-1,.33,1,1,0,0,0-.34.85.9.9,0,0,0,.32.71,1.18,1.18,0,0,0,.83.28,1.55,1.55,0,0,0,1.18-.5,1.8,1.8,0,0,0,.47-1.27Z" fill="#1e1e1e"/>
      <path d="M288.91,44h-1V40.53c0-1.28-.47-1.91-1.4-1.91a1.52,1.52,0,0,0-1.19.54,2,2,0,0,0-.47,1.37V44h-1V38h1v1h0a2.17,2.17,0,0,1,2-1.14,1.85,1.85,0,0,1,1.51.63,2.84,2.84,0,0,1,.52,1.84Z" fill="#1e1e1e"/>
      <path d="M295.84,43.47q0,3.3-3.16,3.3a4.31,4.31,0,0,1-1.95-.42v-1a4,4,0,0,0,1.94.56c1.47,0,2.21-.78,2.21-2.35v-.66h0a2.43,2.43,0,0,1-3.87.35,3.22,3.22,0,0,1-.68-2.15,3.73,3.73,0,0,1,.74-2.43,2.46,2.46,0,0,1,2-.9,2,2,0,0,1,1.8,1h0V38h1Zm-1-2.23v-.89a1.72,1.72,0,0,0-.48-1.22,1.62,1.62,0,0,0-1.21-.51,1.64,1.64,0,0,0-1.39.65,2.85,2.85,0,0,0-.51,1.81,2.48,2.48,0,0,0,.49,1.6,1.56,1.56,0,0,0,1.28.6,1.65,1.65,0,0,0,1.31-.57A2.16,2.16,0,0,0,294.88,41.24Z" fill="#1e1e1e"/>
      <path d="M302.61,41.19h-4.24a2.3,2.3,0,0,0,.54,1.55,1.88,1.88,0,0,0,1.42.54,2.89,2.89,0,0,0,1.86-.67v.91a3.47,3.47,0,0,1-2.09.57,2.53,2.53,0,0,1-2-.82,3.35,3.35,0,0,1-.72-2.3,3.28,3.28,0,0,1,.79-2.28,2.54,2.54,0,0,1,2-.88,2.24,2.24,0,0,1,1.82.76,3.18,3.18,0,0,1,.65,2.12Zm-1-.81a1.91,1.91,0,0,0-.4-1.3,1.36,1.36,0,0,0-1.1-.46,1.56,1.56,0,0,0-1.15.48,2.25,2.25,0,0,0-.59,1.28Z" fill="#1e1e1e"/>
      <path d="M308.07,45.69h-5V45h5Z" fill="#1e1e1e"/>
      <path d="M312.17,38.92a1.18,1.18,0,0,0-.73-.19,1.2,1.2,0,0,0-1,.58,2.64,2.64,0,0,0-.42,1.58V44h-1V38h1v1.24h0a2,2,0,0,1,.62-1,1.45,1.45,0,0,1,1-.36,1.41,1.41,0,0,1,.57.09Z" fill="#1e1e1e"/>
      <path d="M315.72,44.09a2.79,2.79,0,0,1-2.12-.84,3.11,3.11,0,0,1-.8-2.23,3.25,3.25,0,0,1,.83-2.36,3,3,0,0,1,2.23-.85,2.66,2.66,0,0,1,2.1.83,3.77,3.77,0,0,1-.06,4.59A2.87,2.87,0,0,1,315.72,44.09Zm.07-5.47a1.83,1.83,0,0,0-1.46.63,2.58,2.58,0,0,0-.54,1.73,2.47,2.47,0,0,0,.54,1.69,1.86,1.86,0,0,0,1.46.61,1.79,1.79,0,0,0,1.44-.6,3.23,3.23,0,0,0,0-3.45A1.76,1.76,0,0,0,315.79,38.62Z" fill="#1e1e1e"/>
      <path d="M327.8,38,326,44h-1l-1.24-4.3a2.74,2.74,0,0,1-.09-.55h0a3.4,3.4,0,0,1-.13.54L322.19,44h-1l-1.82-6h1l1.24,4.51a3,3,0,0,1,.09.54h0a2.43,2.43,0,0,1,.11-.55l1.38-4.5h.88l1.24,4.52a3.36,3.36,0,0,1,.09.54h.05a2.08,2.08,0,0,1,.1-.54L326.86,38Z" fill="#1e1e1e"/>
      <path d="M328.55,43.73v-1a2.84,2.84,0,0,0,1.73.58c.85,0,1.27-.28,1.27-.84a.76.76,0,0,0-.11-.41,1.17,1.17,0,0,0-.29-.3,3,3,0,0,0-.44-.23l-.53-.21a6.76,6.76,0,0,1-.7-.32,2.55,2.55,0,0,1-.51-.36,1.52,1.52,0,0,1-.3-.46,1.63,1.63,0,0,1-.1-.61,1.38,1.38,0,0,1,.19-.74,1.78,1.78,0,0,1,.51-.55,2.49,2.49,0,0,1,.74-.33,3.59,3.59,0,0,1,2.25.16v1a2.71,2.71,0,0,0-1.53-.43,1.75,1.75,0,0,0-.48.06,1.15,1.15,0,0,0-.37.17.76.76,0,0,0-.24.27.67.67,0,0,0-.09.34.75.75,0,0,0,.09.39.81.81,0,0,0,.24.29,2.48,2.48,0,0,0,.4.22l.54.21c.26.11.5.21.71.32a2.82,2.82,0,0,1,.54.36,1.41,1.41,0,0,1,.34.47,1.46,1.46,0,0,1,.12.62,1.5,1.5,0,0,1-.19.78,1.61,1.61,0,0,1-.53.54,2.3,2.3,0,0,1-.75.32,3.36,3.36,0,0,1-.9.11A3.41,3.41,0,0,1,328.55,43.73Z" fill="#1e1e1e"/>
    </g>
    <g>
      <path d="M66.86,188.81v-1.16a2.23,2.23,0,0,0,.48.32,3.69,3.69,0,0,0,.58.23,3.5,3.5,0,0,0,.62.15,3.07,3.07,0,0,0,.57.06,2.29,2.29,0,0,0,1.36-.34,1.15,1.15,0,0,0,.45-1,1.13,1.13,0,0,0-.15-.59,1.76,1.76,0,0,0-.41-.46,4.57,4.57,0,0,0-.63-.4l-.77-.4c-.3-.15-.57-.3-.82-.45a3.57,3.57,0,0,1-.67-.51,2.26,2.26,0,0,1-.44-.62,1.91,1.91,0,0,1-.16-.82,1.93,1.93,0,0,1,.25-1,2.32,2.32,0,0,1,.66-.7,3.19,3.19,0,0,1,.94-.41,4.29,4.29,0,0,1,1.07-.13,4.08,4.08,0,0,1,1.81.3V182a3.31,3.31,0,0,0-1.91-.51,2.88,2.88,0,0,0-.65.07,1.77,1.77,0,0,0-.57.21,1.42,1.42,0,0,0-.41.4,1,1,0,0,0-.16.58,1.22,1.22,0,0,0,.12.56,1.31,1.31,0,0,0,.36.43,3,3,0,0,0,.57.37c.22.12.48.26.77.4s.59.31.86.47a4,4,0,0,1,.71.54,2.42,2.42,0,0,1,.48.67A1.84,1.84,0,0,1,72,187a2.14,2.14,0,0,1-.24,1.05,1.93,1.93,0,0,1-.66.7,2.8,2.8,0,0,1-1,.39,5.24,5.24,0,0,1-1.14.12l-.49,0a4.42,4.42,0,0,1-.6-.1,4.74,4.74,0,0,1-.57-.15A1.83,1.83,0,0,1,66.86,188.81Z" fill="#1e1e1e"/>
      <path d="M76,189.29a2.79,2.79,0,0,1-2.13-.84,3.1,3.1,0,0,1-.79-2.23,3.24,3.24,0,0,1,.82-2.36,3,3,0,0,1,2.24-.85,2.66,2.66,0,0,1,2.09.83,3.77,3.77,0,0,1-.06,4.59A2.85,2.85,0,0,1,76,189.29Zm.07-5.47a1.84,1.84,0,0,0-1.47.63,2.59,2.59,0,0,0-.54,1.74,2.41,2.41,0,0,0,.55,1.68,1.85,1.85,0,0,0,1.46.61,1.77,1.77,0,0,0,1.43-.6,3.23,3.23,0,0,0,0-3.45A1.74,1.74,0,0,0,76.08,183.82Z" fill="#1e1e1e"/>
      <path d="M83.66,184.12a1.18,1.18,0,0,0-.73-.19,1.23,1.23,0,0,0-1,.58,2.72,2.72,0,0,0-.41,1.58v3.06h-1v-6h1v1.24h0a2.12,2.12,0,0,1,.63-1,1.42,1.42,0,0,1,.94-.36,1.5,1.5,0,0,1,.58.09Z" fill="#1e1e1e"/>
      <path d="M87.48,189.09a1.76,1.76,0,0,1-.89.19c-1,0-1.58-.59-1.58-1.76V184H84v-.82h1v-1.46l1-.32v1.78h1.51V184H86v3.38a1.37,1.37,0,0,0,.21.86.81.81,0,0,0,.68.26,1,1,0,0,0,.62-.2Z" fill="#1e1e1e"/>
      <path d="M93.59,186.39H89.35a2.3,2.3,0,0,0,.54,1.55,1.88,1.88,0,0,0,1.42.54,2.89,2.89,0,0,0,1.86-.67v.91a3.47,3.47,0,0,1-2.09.57,2.53,2.53,0,0,1-2-.82,3.35,3.35,0,0,1-.72-2.3,3.28,3.28,0,0,1,.79-2.28,2.54,2.54,0,0,1,2-.88,2.22,2.22,0,0,1,1.82.76,3.18,3.18,0,0,1,.65,2.12Zm-1-.81a2,2,0,0,0-.41-1.3,1.35,1.35,0,0,0-1.09-.46,1.57,1.57,0,0,0-1.16.48,2.25,2.25,0,0,0-.59,1.28Z" fill="#1e1e1e"/>
      <path d="M100.16,189.15h-1v-1h0a2.42,2.42,0,0,1-3.87.35,3.28,3.28,0,0,1-.68-2.19,3.57,3.57,0,0,1,.75-2.38,2.48,2.48,0,0,1,2-.9,1.93,1.93,0,0,1,1.8,1h0v-3.71h1Zm-1-2.71v-.89a1.73,1.73,0,0,0-.48-1.23,1.62,1.62,0,0,0-1.22-.5,1.66,1.66,0,0,0-1.38.64,2.81,2.81,0,0,0-.5,1.78,2.54,2.54,0,0,0,.48,1.64,1.59,1.59,0,0,0,1.3.6,1.63,1.63,0,0,0,1.3-.58A2.11,2.11,0,0,0,99.2,186.44Z" fill="#1e1e1e"/>
      <path d="M109.49,188.87a3.13,3.13,0,0,1-1.64.42,2.76,2.76,0,0,1-2.08-.83,3.06,3.06,0,0,1-.78-2.17,3.3,3.3,0,0,1,.85-2.38,3,3,0,0,1,2.26-.9,3.24,3.24,0,0,1,1.4.29v1a2.4,2.4,0,0,0-1.43-.47,1.92,1.92,0,0,0-1.51.66,2.5,2.5,0,0,0-.59,1.73,2.36,2.36,0,0,0,.55,1.66,1.91,1.91,0,0,0,1.49.61,2.43,2.43,0,0,0,1.48-.52Z" fill="#1e1e1e"/>
      <path d="M113.45,189.29a2.79,2.79,0,0,1-2.13-.84,3.1,3.1,0,0,1-.79-2.23,3.21,3.21,0,0,1,.83-2.36,3,3,0,0,1,2.23-.85,2.66,2.66,0,0,1,2.09.83,3.73,3.73,0,0,1-.06,4.59A2.85,2.85,0,0,1,113.45,189.29Zm.07-5.47a1.84,1.84,0,0,0-1.47.63,2.59,2.59,0,0,0-.54,1.74,2.41,2.41,0,0,0,.55,1.68,1.85,1.85,0,0,0,1.46.61,1.75,1.75,0,0,0,1.43-.6,3.23,3.23,0,0,0,0-3.45A1.73,1.73,0,0,0,113.52,183.82Z" fill="#1e1e1e"/>
      <path d="M118.93,189.15h-1v-8.88h1Z" fill="#1e1e1e"/>
      <path d="M125.73,189.15h-1v-1h0a2,2,0,0,1-1.85,1.09c-1.43,0-2.14-.85-2.14-2.55v-3.59h1v3.43c0,1.27.49,1.9,1.46,1.9a1.45,1.45,0,0,0,1.15-.52,1.92,1.92,0,0,0,.46-1.35v-3.46h1Z" fill="#1e1e1e"/>
      <path d="M136.19,189.15h-1V185.7a2.65,2.65,0,0,0-.31-1.44,1.19,1.19,0,0,0-1-.44,1.28,1.28,0,0,0-1,.56,2.14,2.14,0,0,0-.43,1.35v3.42h-1v-3.56c0-1.18-.46-1.77-1.37-1.77a1.24,1.24,0,0,0-1,.53,2.2,2.2,0,0,0-.41,1.38v3.42h-1v-6h1v.95h0a2,2,0,0,1,1.87-1.09,1.71,1.71,0,0,1,1.69,1.24,2.14,2.14,0,0,1,2-1.24c1.32,0,2,.81,2,2.44Z" fill="#1e1e1e"/>
      <path d="M143,189.15h-1v-3.42c0-1.28-.46-1.91-1.39-1.91a1.5,1.5,0,0,0-1.19.54,2,2,0,0,0-.48,1.37v3.42h-1v-6h1v1h0a2.16,2.16,0,0,1,2-1.14,1.82,1.82,0,0,1,1.5.64,2.79,2.79,0,0,1,.52,1.83Z" fill="#1e1e1e"/>
      <path d="M152.8,183.15l-2.39,6h-.95l-2.27-6h1.06l1.52,4.36a4.27,4.27,0,0,1,.21.84h0a4.5,4.5,0,0,1,.19-.82l1.59-4.38Z" fill="#1e1e1e"/>
      <path d="M158.12,189.15h-1v-.94h0a2.2,2.2,0,0,1-3.25.61,1.65,1.65,0,0,1-.51-1.26c0-1.12.66-1.78,2-2l1.8-.25q0-1.53-1.23-1.53a2.91,2.91,0,0,0-2,.74v-1a3.76,3.76,0,0,1,2-.56c1.41,0,2.11.75,2.11,2.24Zm-1-3-1.44.2a2.43,2.43,0,0,0-1,.34.93.93,0,0,0-.34.84.89.89,0,0,0,.31.71,1.2,1.2,0,0,0,.84.28,1.53,1.53,0,0,0,1.18-.5,1.79,1.79,0,0,0,.46-1.27Z" fill="#1e1e1e"/>
      <path d="M160.9,189.15h-1v-8.88h1Z" fill="#1e1e1e"/>
      <path d="M167.69,189.15h-1v-1h0a2,2,0,0,1-1.85,1.09c-1.43,0-2.15-.85-2.15-2.55v-3.59h1v3.43c0,1.27.48,1.9,1.45,1.9a1.46,1.46,0,0,0,1.16-.52,2,2,0,0,0,.45-1.35v-3.46h1Z" fill="#1e1e1e"/>
      <path d="M174.45,186.39h-4.23a2.21,2.21,0,0,0,.54,1.55,1.85,1.85,0,0,0,1.42.54,2.93,2.93,0,0,0,1.86-.67v.91a3.52,3.52,0,0,1-2.09.57,2.52,2.52,0,0,1-2-.82,3.81,3.81,0,0,1,.07-4.58,2.53,2.53,0,0,1,2-.88,2.25,2.25,0,0,1,1.82.76,3.18,3.18,0,0,1,.64,2.12Zm-1-.81a2,2,0,0,0-.4-1.3,1.36,1.36,0,0,0-1.1-.46,1.55,1.55,0,0,0-1.15.48,2.19,2.19,0,0,0-.59,1.28Z" fill="#1e1e1e"/>
      <path d="M175.54,188.93v-1a2.84,2.84,0,0,0,1.73.58c.85,0,1.27-.28,1.27-.84a.76.76,0,0,0-.11-.41,1,1,0,0,0-.29-.29,2.28,2.28,0,0,0-.44-.24l-.53-.21a6.76,6.76,0,0,1-.7-.32,2.55,2.55,0,0,1-.51-.36,1.52,1.52,0,0,1-.3-.46,1.63,1.63,0,0,1-.1-.61,1.38,1.38,0,0,1,.19-.74,1.7,1.7,0,0,1,.52-.55,2.43,2.43,0,0,1,.73-.33,3.59,3.59,0,0,1,2.25.16v1a2.71,2.71,0,0,0-1.53-.43,1.75,1.75,0,0,0-.48.06,1.15,1.15,0,0,0-.37.17.76.76,0,0,0-.24.27.67.67,0,0,0-.09.34.75.75,0,0,0,.09.39.93.93,0,0,0,.24.29,2.48,2.48,0,0,0,.4.22l.54.21c.26.11.5.21.71.32a2.82,2.82,0,0,1,.54.36,1.41,1.41,0,0,1,.34.47,1.46,1.46,0,0,1,.12.62,1.5,1.5,0,0,1-.19.78,1.61,1.61,0,0,1-.53.54,2.55,2.55,0,0,1-.75.33,3.82,3.82,0,0,1-.9.1A3.41,3.41,0,0,1,175.54,188.93Z" fill="#1e1e1e"/>
    </g>
    <g>
      <path d="M317.17,201.85H316l-1.4-2.36a5.74,5.74,0,0,0-.38-.55,1.68,1.68,0,0,0-.37-.38,1.36,1.36,0,0,0-.41-.22,1.9,1.9,0,0,0-.5-.06h-.8v3.57h-1v-8.4h2.51a3.36,3.36,0,0,1,1,.14,2.24,2.24,0,0,1,.8.41,2.06,2.06,0,0,1,.54.7,2.33,2.33,0,0,1,.19,1,2.28,2.28,0,0,1-.13.8,2.25,2.25,0,0,1-.37.66,2.3,2.3,0,0,1-.59.48,3,3,0,0,1-.77.32v0a1.81,1.81,0,0,1,.66.5,2.75,2.75,0,0,1,.28.37l.31.48Zm-5-7.51v3h1.33a1.87,1.87,0,0,0,.68-.12,1.59,1.59,0,0,0,.55-.32,1.26,1.26,0,0,0,.35-.51,1.6,1.6,0,0,0,.13-.67,1.31,1.31,0,0,0-.43-1.05,1.87,1.87,0,0,0-1.27-.38Z" fill="#1e1e1e"/>
      <path d="M322.49,201.85h-1v-.94h0a2.2,2.2,0,0,1-3.25.61,1.65,1.65,0,0,1-.51-1.26c0-1.12.66-1.78,2-2l1.8-.25q0-1.53-1.23-1.53a2.91,2.91,0,0,0-2,.74v-1a3.76,3.76,0,0,1,2-.56c1.41,0,2.11.75,2.11,2.24Zm-1-3-1.44.19a2.43,2.43,0,0,0-1,.34.93.93,0,0,0-.34.84.89.89,0,0,0,.31.71,1.2,1.2,0,0,0,.84.28,1.53,1.53,0,0,0,1.18-.5,1.79,1.79,0,0,0,.46-1.27Z" fill="#1e1e1e"/>
      <path d="M329.29,201.85h-1v-3.42c0-1.28-.46-1.91-1.39-1.91a1.5,1.5,0,0,0-1.19.54,2,2,0,0,0-.47,1.37v3.42h-1v-6h1v1h0a2.16,2.16,0,0,1,2-1.14,1.81,1.81,0,0,1,1.5.64,2.79,2.79,0,0,1,.53,1.83Z" fill="#1e1e1e"/>
      <path d="M336.22,201.37q0,3.3-3.17,3.3a4.23,4.23,0,0,1-1.94-.42v-1a3.92,3.92,0,0,0,1.93.56c1.48,0,2.22-.78,2.22-2.35v-.66h0a2.42,2.42,0,0,1-3.86.35,3.17,3.17,0,0,1-.68-2.15,3.73,3.73,0,0,1,.73-2.43,2.46,2.46,0,0,1,2-.9,2,2,0,0,1,1.8,1h0v-.83h1Zm-1-2.23v-.89a1.69,1.69,0,0,0-.49-1.22,1.58,1.58,0,0,0-1.2-.51,1.67,1.67,0,0,0-1.4.65,2.91,2.91,0,0,0-.5,1.81,2.48,2.48,0,0,0,.48,1.6,1.57,1.57,0,0,0,1.28.6,1.69,1.69,0,0,0,1.32-.57A2.14,2.14,0,0,0,335.26,199.14Z" fill="#1e1e1e"/>
      <path d="M343,199.09h-4.23a2.21,2.21,0,0,0,.54,1.55,1.85,1.85,0,0,0,1.42.54,2.93,2.93,0,0,0,1.86-.67v.91a3.52,3.52,0,0,1-2.09.57,2.52,2.52,0,0,1-2-.82,3.81,3.81,0,0,1,.07-4.58,2.53,2.53,0,0,1,2-.88,2.25,2.25,0,0,1,1.82.76,3.18,3.18,0,0,1,.64,2.12Zm-1-.81a2,2,0,0,0-.4-1.3,1.36,1.36,0,0,0-1.1-.46,1.55,1.55,0,0,0-1.15.48,2.19,2.19,0,0,0-.59,1.28Z" fill="#1e1e1e"/>
      <path d="M348.45,203.59h-5v-.7h5Z" fill="#1e1e1e"/>
      <path d="M354.4,201.85h-1v-3.46c0-1.25-.47-1.87-1.4-1.87a1.51,1.51,0,0,0-1.18.54,2,2,0,0,0-.48,1.39v3.4h-1V193h1v3.88h0a2.18,2.18,0,0,1,2-1.14c1.35,0,2,.81,2,2.44Z" fill="#1e1e1e"/>
      <path d="M356.7,194.33a.6.6,0,0,1-.44-.18.59.59,0,0,1-.18-.44.61.61,0,0,1,.18-.45.6.6,0,0,1,.44-.18.62.62,0,0,1,.63.63.62.62,0,0,1-.18.44A.61.61,0,0,1,356.7,194.33Zm.47,7.52h-1v-6h1Z" fill="#1e1e1e"/>
      <path d="M364.24,201.37q0,3.3-3.17,3.3a4.23,4.23,0,0,1-1.94-.42v-1a3.92,3.92,0,0,0,1.93.56c1.48,0,2.22-.78,2.22-2.35v-.66h0a2.42,2.42,0,0,1-3.86.35,3.17,3.17,0,0,1-.68-2.15,3.73,3.73,0,0,1,.73-2.43,2.46,2.46,0,0,1,2-.9,2,2,0,0,1,1.8,1h0v-.83h1Zm-1-2.23v-.89a1.73,1.73,0,0,0-.49-1.22,1.58,1.58,0,0,0-1.2-.51,1.66,1.66,0,0,0-1.4.65,2.91,2.91,0,0,0-.5,1.81,2.48,2.48,0,0,0,.48,1.6,1.57,1.57,0,0,0,1.28.6,1.69,1.69,0,0,0,1.32-.57A2.14,2.14,0,0,0,363.28,199.14Z" fill="#1e1e1e"/>
      <path d="M371.16,201.85h-1v-3.46c0-1.25-.46-1.87-1.39-1.87a1.53,1.53,0,0,0-1.19.54,2,2,0,0,0-.48,1.39v3.4h-1V193h1v3.88h0a2.17,2.17,0,0,1,2-1.14c1.35,0,2,.81,2,2.44Z" fill="#1e1e1e"/>
      <path d="M377,203.59h-5v-.7h5Z" fill="#1e1e1e"/>
      <path d="M382.93,201.85h-1.34L378.94,199h0v2.88h-1V193h1v5.63h0l2.52-2.75h1.26l-2.79,2.89Z" fill="#1e1e1e"/>
      <path d="M388.74,199.09H384.5a2.3,2.3,0,0,0,.54,1.55,1.88,1.88,0,0,0,1.42.54,2.89,2.89,0,0,0,1.86-.67v.91a3.47,3.47,0,0,1-2.09.57,2.54,2.54,0,0,1-2-.82,3.35,3.35,0,0,1-.72-2.3,3.28,3.28,0,0,1,.79-2.28,2.54,2.54,0,0,1,2-.88,2.26,2.26,0,0,1,1.83.76,3.18,3.18,0,0,1,.64,2.12Zm-1-.81a2,2,0,0,0-.4-1.3,1.37,1.37,0,0,0-1.1-.46,1.57,1.57,0,0,0-1.16.48,2.24,2.24,0,0,0-.58,1.28Z" fill="#1e1e1e"/>
      <path d="M395,195.85l-2.76,7q-.73,1.86-2.07,1.86a2.28,2.28,0,0,1-.63-.07v-.86a1.76,1.76,0,0,0,.57.1,1.19,1.19,0,0,0,1.09-.86l.48-1.14-2.35-6h1.07l1.62,4.62.13.45h0c0-.09.06-.24.12-.44l1.7-4.63Z" fill="#1e1e1e"/>
    </g>
    <g>
      <path d="M315.6,61.55h-4.45v-8.4h4.27V54h-3.28v2.79h3v.89h-3v2.94h3.46Z" fill="#1e1e1e"/>
      <path d="M322.21,64.31h-1V60.52h0a2.15,2.15,0,0,1-2.05,1.17,2.26,2.26,0,0,1-1.82-.81,3.28,3.28,0,0,1-.68-2.19,3.6,3.6,0,0,1,.75-2.39,2.51,2.51,0,0,1,2-.89,1.89,1.89,0,0,1,1.78,1h0v-.83h1Zm-1-5.46V58a1.74,1.74,0,0,0-.48-1.25,1.61,1.61,0,0,0-1.23-.51,1.64,1.64,0,0,0-1.37.64,2.85,2.85,0,0,0-.5,1.81,2.48,2.48,0,0,0,.48,1.62,1.55,1.55,0,0,0,1.26.59,1.66,1.66,0,0,0,1.34-.58A2.1,2.1,0,0,0,321.25,58.85Z" fill="#1e1e1e"/>
      <path d="M329,61.55h-1V60.6h0a2,2,0,0,1-1.86,1.09c-1.43,0-2.14-.85-2.14-2.55V55.55h1V59c0,1.27.49,1.9,1.46,1.9a1.47,1.47,0,0,0,1.16-.52,2,2,0,0,0,.45-1.35V55.55h1Z" fill="#1e1e1e"/>
      <path d="M335.24,61.55h-1v-.94h0a2.2,2.2,0,0,1-3.25.61A1.65,1.65,0,0,1,330.5,60c0-1.12.66-1.78,2-2l1.8-.25q0-1.53-1.23-1.53a2.91,2.91,0,0,0-2,.74V56a3.76,3.76,0,0,1,2-.56c1.41,0,2.11.75,2.11,2.24Zm-1-3-1.44.2a2.43,2.43,0,0,0-1,.34.93.93,0,0,0-.34.84.89.89,0,0,0,.31.71,1.2,1.2,0,0,0,.84.28,1.56,1.56,0,0,0,1.18-.5,1.79,1.79,0,0,0,.46-1.27Z" fill="#1e1e1e"/>
      <path d="M338,61.55h-1V52.67h1Z" fill="#1e1e1e"/>
      <path d="M344,63.29h-5v-.7h5Z" fill="#1e1e1e"/>
      <path d="M348.07,56.52a1.18,1.18,0,0,0-.73-.19,1.2,1.2,0,0,0-1,.58,2.64,2.64,0,0,0-.42,1.58v3.06h-1v-6h1v1.24h0a2,2,0,0,1,.62-1,1.43,1.43,0,0,1,.95-.36,1.41,1.41,0,0,1,.57.09Z" fill="#1e1e1e"/>
      <path d="M351.62,61.69a2.77,2.77,0,0,1-2.12-.84,3.11,3.11,0,0,1-.8-2.23,3.25,3.25,0,0,1,.83-2.36,3,3,0,0,1,2.23-.85,2.66,2.66,0,0,1,2.1.83,3.77,3.77,0,0,1-.06,4.59A2.87,2.87,0,0,1,351.62,61.69Zm.07-5.47a1.81,1.81,0,0,0-1.46.63,2.59,2.59,0,0,0-.54,1.74,2.46,2.46,0,0,0,.54,1.68,1.86,1.86,0,0,0,1.46.61,1.75,1.75,0,0,0,1.43-.6,3.17,3.17,0,0,0,0-3.45A1.73,1.73,0,0,0,351.69,56.22Z" fill="#1e1e1e"/>
      <path d="M363.7,55.55l-1.8,6h-1l-1.24-4.3a2.74,2.74,0,0,1-.09-.55h0a3.4,3.4,0,0,1-.13.54l-1.34,4.31h-1l-1.82-6h1l1.24,4.51a3,3,0,0,1,.09.54h0a2.43,2.43,0,0,1,.11-.55l1.38-4.5h.88l1.24,4.52a3.36,3.36,0,0,1,.09.54h.05a2.08,2.08,0,0,1,.1-.54l1.21-4.52Z" fill="#1e1e1e"/>
      <path d="M364.45,61.33v-1a2.84,2.84,0,0,0,1.73.58c.85,0,1.27-.28,1.27-.84a.76.76,0,0,0-.11-.41,1,1,0,0,0-.29-.29,2.28,2.28,0,0,0-.44-.24l-.53-.21a6.76,6.76,0,0,1-.7-.32,2.55,2.55,0,0,1-.51-.36,1.52,1.52,0,0,1-.3-.46,1.63,1.63,0,0,1-.1-.61,1.38,1.38,0,0,1,.19-.74,1.78,1.78,0,0,1,.51-.55,2.49,2.49,0,0,1,.74-.33,3.59,3.59,0,0,1,2.25.16v1a2.71,2.71,0,0,0-1.53-.43,1.75,1.75,0,0,0-.48.06,1.33,1.33,0,0,0-.38.17,1,1,0,0,0-.24.27.77.77,0,0,0-.08.34.87.87,0,0,0,.08.39,1,1,0,0,0,.25.29,2.48,2.48,0,0,0,.4.22l.54.21c.26.11.5.21.71.32a2.82,2.82,0,0,1,.54.36,1.41,1.41,0,0,1,.34.47,1.46,1.46,0,0,1,.12.62,1.5,1.5,0,0,1-.19.78,1.61,1.61,0,0,1-.53.54,2.55,2.55,0,0,1-.75.33,3.82,3.82,0,0,1-.9.1A3.41,3.41,0,0,1,364.45,61.33Z" fill="#1e1e1e"/>
    </g>
  </g>
  <g id="Text">
    <g>
      <path d="M68.21,14.8h-1.9V11.37H62.83V14.8H60.94V6.39h1.89V9.74h3.48V6.39h1.9Z" fill="#1e1e1e"/>
      <path d="M70.83,7.85a1.12,1.12,0,0,1-.77-.28.91.91,0,0,1-.3-.68.85.85,0,0,1,.3-.68,1.11,1.11,0,0,1,.77-.27,1.1,1.1,0,0,1,.77.27.85.85,0,0,1,.3.68.89.89,0,0,1-.3.69A1.1,1.1,0,0,1,70.83,7.85Zm.91,7H69.89v-6h1.85Z" fill="#1e1e1e"/>
      <path d="M73,14.64v-1.5a3.87,3.87,0,0,0,.91.41,3,3,0,0,0,.86.13,1.84,1.84,0,0,0,.77-.13.44.44,0,0,0,.29-.41.42.42,0,0,0-.13-.3,1.7,1.7,0,0,0-.33-.2,4.72,4.72,0,0,0-.45-.16l-.46-.16a3.71,3.71,0,0,1-.63-.29,1.84,1.84,0,0,1-.46-.36,1.47,1.47,0,0,1-.28-.47,2,2,0,0,1-.09-.64,1.61,1.61,0,0,1,.22-.87,1.72,1.72,0,0,1,.58-.59,2.6,2.6,0,0,1,.84-.34,4.46,4.46,0,0,1,1-.11,5.52,5.52,0,0,1,.81.06,5.88,5.88,0,0,1,.81.18v1.43a3,3,0,0,0-.75-.31,3.17,3.17,0,0,0-.79-.1,2,2,0,0,0-.35,0,1.15,1.15,0,0,0-.28.09.62.62,0,0,0-.19.16.36.36,0,0,0-.07.22.39.39,0,0,0,.1.28.89.89,0,0,0,.28.21l.38.15.41.14a5.19,5.19,0,0,1,.67.28,2.18,2.18,0,0,1,.51.35,1.51,1.51,0,0,1,.33.49,1.8,1.8,0,0,1,.11.65,1.73,1.73,0,0,1-.23.91,1.84,1.84,0,0,1-.62.62,2.65,2.65,0,0,1-.88.34,4.42,4.42,0,0,1-1,.11A5.4,5.4,0,0,1,73,14.64Z" fill="#1e1e1e"/>
      <path d="M82.26,14.73a2.85,2.85,0,0,1-1.24.21c-1.3,0-2-.68-2-2V10.16h-1V8.8h1V7.5L80.91,7V8.8h1.35v1.36H80.91v2.43c0,.62.25.93.74.93a1.2,1.2,0,0,0,.61-.17Z" fill="#1e1e1e"/>
      <path d="M86.15,14.94a3.24,3.24,0,0,1-2.36-.84,3,3,0,0,1-.85-2.28,3,3,0,0,1,.89-2.33,3.34,3.34,0,0,1,2.4-.84,3.2,3.2,0,0,1,2.35.84,3,3,0,0,1,.85,2.22,3.13,3.13,0,0,1-.88,2.36A3.24,3.24,0,0,1,86.15,14.94Zm0-4.87a1.23,1.23,0,0,0-1,.45,2,2,0,0,0-.36,1.28c0,1.15.46,1.72,1.39,1.72s1.33-.59,1.33-1.77S87.09,10.07,86.2,10.07Z" fill="#1e1e1e"/>
      <path d="M96.54,14.11a3.39,3.39,0,0,1-1,2.59,3.9,3.9,0,0,1-2.8.91,4.43,4.43,0,0,1-1.92-.34V15.71a3.68,3.68,0,0,0,1.87.54,2,2,0,0,0,1.45-.5,1.74,1.74,0,0,0,.52-1.34v-.48h0a2.07,2.07,0,0,1-1.87,1A2.26,2.26,0,0,1,91,14.13,3.26,3.26,0,0,1,90.3,12a3.63,3.63,0,0,1,.75-2.42,2.44,2.44,0,0,1,2-.9,1.84,1.84,0,0,1,1.65.84h0V8.8h1.85Zm-1.83-2.2v-.47a1.48,1.48,0,0,0-.33-1,1.1,1.1,0,0,0-.88-.4,1.15,1.15,0,0,0-1,.48,2.28,2.28,0,0,0-.35,1.35,1.87,1.87,0,0,0,.34,1.19,1.07,1.07,0,0,0,.91.43,1.13,1.13,0,0,0,.93-.44A1.83,1.83,0,0,0,94.71,11.91Z" fill="#1e1e1e"/>
      <path d="M102,10.47a1.5,1.5,0,0,0-.78-.19,1.12,1.12,0,0,0-.94.45,1.88,1.88,0,0,0-.34,1.2V14.8H98.06v-6h1.85V9.91h0a1.61,1.61,0,0,1,1.59-1.22,1.12,1.12,0,0,1,.45.07Z" fill="#1e1e1e"/>
      <path d="M107.75,14.8H106v-.87h0a1.94,1.94,0,0,1-1.79,1,1.85,1.85,0,0,1-1.37-.49,1.79,1.79,0,0,1-.5-1.32c0-1.17.69-1.84,2.07-2l1.63-.22c0-.65-.36-1-1.07-1a3.64,3.64,0,0,0-2,.64V9.15A4.67,4.67,0,0,1,104,8.8a5.63,5.63,0,0,1,1.22-.15,2.27,2.27,0,0,1,2.57,2.56ZM106,12.36V12l-1.09.14c-.6.08-.91.35-.91.82a.71.71,0,0,0,.22.52.89.89,0,0,0,.6.2,1.1,1.1,0,0,0,.85-.36A1.29,1.29,0,0,0,106,12.36Z" fill="#1e1e1e"/>
      <path d="M118.74,14.8h-1.85V11.37c0-.87-.32-1.3-1-1.3a.88.88,0,0,0-.74.39,1.63,1.63,0,0,0-.29,1V14.8h-1.85V11.34c0-.85-.32-1.27-.94-1.27a.9.9,0,0,0-.76.37,1.65,1.65,0,0,0-.29,1V14.8h-1.85v-6h1.85v.93h0a2.22,2.22,0,0,1,.8-.78,2.26,2.26,0,0,1,1.14-.3,1.74,1.74,0,0,1,1.74,1.12,2.2,2.2,0,0,1,2-1.12c1.31,0,2,.8,2,2.41Z" fill="#1e1e1e"/>
      <path d="M124.45,7.85a1.12,1.12,0,0,1-.77-.28.9.9,0,0,1-.29-.68.84.84,0,0,1,.29-.68,1.11,1.11,0,0,1,.77-.27,1.1,1.1,0,0,1,.77.27.85.85,0,0,1,.3.68.89.89,0,0,1-.3.69A1.1,1.1,0,0,1,124.45,7.85Zm.92,7h-1.86v-6h1.86Z" fill="#1e1e1e"/>
      <path d="M126.61,14.64v-1.5a4.06,4.06,0,0,0,.91.41,3,3,0,0,0,.86.13,1.78,1.78,0,0,0,.77-.13.44.44,0,0,0,.29-.41.38.38,0,0,0-.13-.3,1.7,1.7,0,0,0-.33-.2l-.44-.16-.47-.16a4.6,4.6,0,0,1-.63-.29,1.62,1.62,0,0,1-.45-.36,1.18,1.18,0,0,1-.28-.47,1.76,1.76,0,0,1-.1-.64,1.61,1.61,0,0,1,.22-.87,1.82,1.82,0,0,1,.58-.59,2.6,2.6,0,0,1,.84-.34,4.53,4.53,0,0,1,1-.11,5.52,5.52,0,0,1,.81.06,5.3,5.3,0,0,1,.81.18v1.43a2.76,2.76,0,0,0-.75-.31,3.11,3.11,0,0,0-.79-.1,1.79,1.79,0,0,0-.34,0,1.23,1.23,0,0,0-.29.09.77.77,0,0,0-.19.16.36.36,0,0,0-.07.22.39.39,0,0,0,.1.28,1.21,1.21,0,0,0,.28.21l.38.15.41.14a4.66,4.66,0,0,1,.67.28,2.18,2.18,0,0,1,.51.35,1.51,1.51,0,0,1,.33.49,1.61,1.61,0,0,1,.11.65,1.64,1.64,0,0,1-.23.91,1.9,1.9,0,0,1-.61.62,2.7,2.7,0,0,1-.89.34,4.42,4.42,0,0,1-1,.11A5.4,5.4,0,0,1,126.61,14.64Z" fill="#1e1e1e"/>
      <path d="M140.14,14.58a3.69,3.69,0,0,1-1.81.36,3.06,3.06,0,0,1-2.24-.84,2.88,2.88,0,0,1-.86-2.16,3.19,3.19,0,0,1,.92-2.41,3.38,3.38,0,0,1,2.45-.88,3.14,3.14,0,0,1,1.54.28V10.5a2.12,2.12,0,0,0-1.3-.43,1.7,1.7,0,0,0-1.26.46,1.75,1.75,0,0,0-.47,1.29,1.69,1.69,0,0,0,.45,1.25,1.65,1.65,0,0,0,1.22.45,2.43,2.43,0,0,0,1.36-.43Z" fill="#1e1e1e"/>
      <path d="M146.44,14.8h-1.76v-.87h0a1.94,1.94,0,0,1-1.79,1,1.85,1.85,0,0,1-1.37-.49,1.75,1.75,0,0,1-.5-1.32c0-1.17.69-1.84,2.07-2l1.62-.22c0-.65-.35-1-1.06-1a3.59,3.59,0,0,0-2,.64V9.15a4.67,4.67,0,0,1,1.06-.35,5.56,5.56,0,0,1,1.22-.15,2.27,2.27,0,0,1,2.57,2.56Zm-1.75-2.44V12l-1.08.14c-.61.08-.91.35-.91.82a.71.71,0,0,0,.22.52.89.89,0,0,0,.6.2,1.11,1.11,0,0,0,.85-.36A1.28,1.28,0,0,0,144.69,12.36Z" fill="#1e1e1e"/>
      <path d="M149.75,14.8H147.9V5.91h1.85Z" fill="#1e1e1e"/>
      <path d="M155.86,14.58a3.69,3.69,0,0,1-1.81.36,3,3,0,0,1-2.24-.84,2.88,2.88,0,0,1-.86-2.16,3.19,3.19,0,0,1,.92-2.41,3.38,3.38,0,0,1,2.45-.88,3.14,3.14,0,0,1,1.54.28V10.5a2.12,2.12,0,0,0-1.3-.43,1.7,1.7,0,0,0-1.26.46,1.75,1.75,0,0,0-.47,1.29,1.69,1.69,0,0,0,.45,1.25,1.64,1.64,0,0,0,1.22.45,2.45,2.45,0,0,0,1.36-.43Z" fill="#1e1e1e"/>
      <path d="M162.85,14.8H161v-.92h0a2.08,2.08,0,0,1-1.83,1.06c-1.39,0-2.09-.84-2.09-2.52V8.8h1.85v3.45c0,.85.33,1.27,1,1.27a1,1,0,0,0,.79-.34,1.42,1.42,0,0,0,.3-.95V8.8h1.85Z" fill="#1e1e1e"/>
      <path d="M166.22,14.8h-1.85V5.91h1.85Z" fill="#1e1e1e"/>
      <path d="M172.8,14.8h-1.75v-.87h0a1.94,1.94,0,0,1-1.79,1,1.85,1.85,0,0,1-1.37-.49,1.75,1.75,0,0,1-.5-1.32c0-1.17.69-1.84,2.06-2l1.63-.22c0-.65-.35-1-1.06-1a3.59,3.59,0,0,0-2,.64V9.15A4.67,4.67,0,0,1,169,8.8a5.56,5.56,0,0,1,1.22-.15,2.26,2.26,0,0,1,2.56,2.56Zm-1.74-2.44V12l-1.09.14c-.6.08-.9.35-.9.82a.67.67,0,0,0,.22.52.89.89,0,0,0,.6.2,1.07,1.07,0,0,0,.84-.36A1.29,1.29,0,0,0,171.06,12.36Z" fill="#1e1e1e"/>
      <path d="M177.81,14.73a2.85,2.85,0,0,1-1.24.21,1.77,1.77,0,0,1-2-2V10.16h-1V8.8h1V7.5L176.46,7V8.8h1.35v1.36h-1.35v2.43c0,.62.25.93.74.93a1.2,1.2,0,0,0,.61-.17Z" fill="#1e1e1e"/>
      <path d="M184.23,12.32h-3.91c.06.87.61,1.31,1.64,1.31a3.24,3.24,0,0,0,1.74-.47V14.5a4.63,4.63,0,0,1-2.16.44,3,3,0,0,1-2.25-.8,3,3,0,0,1-.81-2.25,3.2,3.2,0,0,1,.87-2.37,2.9,2.9,0,0,1,2.13-.87,2.6,2.6,0,0,1,2,.78,3,3,0,0,1,.72,2.11Zm-1.71-1.13q0-1.29-1.05-1.29a1,1,0,0,0-.77.37,1.58,1.58,0,0,0-.39.92Z" fill="#1e1e1e"/>
      <path d="M191.31,14.8h-1.85V14h0a2.06,2.06,0,0,1-1.85,1,2.26,2.26,0,0,1-1.81-.79,3.28,3.28,0,0,1-.69-2.22,3.52,3.52,0,0,1,.76-2.38,2.45,2.45,0,0,1,2-.9,1.68,1.68,0,0,1,1.61.83h0V5.91h1.85Zm-1.82-2.92v-.45a1.43,1.43,0,0,0-.34-1,1.13,1.13,0,0,0-.88-.38,1.12,1.12,0,0,0-1,.48,2.26,2.26,0,0,0-.35,1.33,2,2,0,0,0,.33,1.22,1.14,1.14,0,0,0,.93.42,1.12,1.12,0,0,0,.92-.45A1.91,1.91,0,0,0,189.49,11.88Z" fill="#1e1e1e"/>
      <path d="M200.09,7.33a2,2,0,0,0-.68-.14c-.6,0-.89.32-.89,1V8.8h1.37v1.36h-1.37V14.8h-1.85V10.16h-1V8.8h1V8.05a2.15,2.15,0,0,1,.67-1.65,2.52,2.52,0,0,1,1.81-.63,3.11,3.11,0,0,1,.94.12Z" fill="#1e1e1e"/>
      <path d="M204.67,10.47a1.49,1.49,0,0,0-.77-.19,1.12,1.12,0,0,0-1,.45,1.94,1.94,0,0,0-.34,1.2V14.8h-1.85v-6h1.85V9.91h0a1.6,1.6,0,0,1,1.58-1.22,1.09,1.09,0,0,1,.45.07Z" fill="#1e1e1e"/>
      <path d="M208.48,14.94a3.23,3.23,0,0,1-2.36-.84,3.05,3.05,0,0,1-.86-2.28,3.07,3.07,0,0,1,.89-2.33,3.37,3.37,0,0,1,2.41-.84,3.18,3.18,0,0,1,2.34.84,3,3,0,0,1,.85,2.22,3.16,3.16,0,0,1-.87,2.36A3.27,3.27,0,0,1,208.48,14.94Zm0-4.87a1.26,1.26,0,0,0-1,.45,2,2,0,0,0-.36,1.28c0,1.15.47,1.72,1.39,1.72s1.33-.59,1.33-1.77S209.42,10.07,208.52,10.07Z" fill="#1e1e1e"/>
      <path d="M222.47,14.8h-1.84V11.37c0-.87-.32-1.3-1-1.3a.89.89,0,0,0-.75.39,1.63,1.63,0,0,0-.29,1V14.8h-1.85V11.34c0-.85-.31-1.27-.94-1.27a.9.9,0,0,0-.76.37,1.65,1.65,0,0,0-.28,1V14.8h-1.86v-6h1.86v.93h0a2.17,2.17,0,0,1,.81-.78,2.2,2.2,0,0,1,1.13-.3,1.72,1.72,0,0,1,1.74,1.12,2.22,2.22,0,0,1,2-1.12c1.3,0,1.95.8,1.95,2.41Z" fill="#1e1e1e"/>
      <path d="M226.86,14.64v-1.5a3.87,3.87,0,0,0,.91.41,3,3,0,0,0,.85.13,1.86,1.86,0,0,0,.78-.13.44.44,0,0,0,.29-.41.42.42,0,0,0-.13-.3,1.7,1.7,0,0,0-.33-.2,4.72,4.72,0,0,0-.45-.16l-.46-.16a3.71,3.71,0,0,1-.63-.29,1.84,1.84,0,0,1-.46-.36,1.47,1.47,0,0,1-.28-.47,2,2,0,0,1-.09-.64,1.7,1.7,0,0,1,.21-.87,1.85,1.85,0,0,1,.59-.59,2.43,2.43,0,0,1,.84-.34,4.46,4.46,0,0,1,1-.11,5.52,5.52,0,0,1,.81.06,5.88,5.88,0,0,1,.81.18v1.43a3,3,0,0,0-.76-.31,3,3,0,0,0-.78-.1,2,2,0,0,0-.35,0,1.15,1.15,0,0,0-.28.09.62.62,0,0,0-.19.16.36.36,0,0,0-.07.22.39.39,0,0,0,.1.28.89.89,0,0,0,.28.21l.37.15.42.14a5.19,5.19,0,0,1,.67.28,2.41,2.41,0,0,1,.51.35,1.51,1.51,0,0,1,.33.49,1.8,1.8,0,0,1,.11.65,1.73,1.73,0,0,1-.23.91,1.93,1.93,0,0,1-.62.62,2.65,2.65,0,0,1-.88.34,4.42,4.42,0,0,1-1,.11A5.4,5.4,0,0,1,226.86,14.64Z" fill="#1e1e1e"/>
      <path d="M237.64,14.8h-1.76v-.87h0a1.94,1.94,0,0,1-1.79,1,1.85,1.85,0,0,1-1.37-.49,1.79,1.79,0,0,1-.5-1.32c0-1.17.69-1.84,2.07-2l1.63-.22c0-.65-.36-1-1.07-1a3.61,3.61,0,0,0-2,.64V9.15a4.67,4.67,0,0,1,1.06-.35,5.63,5.63,0,0,1,1.22-.15,2.27,2.27,0,0,1,2.57,2.56Zm-1.74-2.44V12l-1.09.14c-.61.08-.91.35-.91.82a.71.71,0,0,0,.22.52.89.89,0,0,0,.6.2,1.1,1.1,0,0,0,.85-.36A1.29,1.29,0,0,0,235.9,12.36Z" fill="#1e1e1e"/>
      <path d="M248.63,14.8h-1.85V11.37c0-.87-.32-1.3-1-1.3a.88.88,0,0,0-.74.39,1.63,1.63,0,0,0-.29,1V14.8h-1.85V11.34c0-.85-.32-1.27-.94-1.27a.9.9,0,0,0-.76.37,1.65,1.65,0,0,0-.29,1V14.8H239.1v-6H241v.93h0a2.22,2.22,0,0,1,.8-.78,2.26,2.26,0,0,1,1.14-.3,1.74,1.74,0,0,1,1.74,1.12,2.19,2.19,0,0,1,2-1.12c1.31,0,2,.8,2,2.41Z" fill="#1e1e1e"/>
      <path d="M252,14.1h0v3.46h-1.85V8.8h1.85v.9h0a2.36,2.36,0,0,1,3.73-.25,3.43,3.43,0,0,1,.63,2.18,3.63,3.63,0,0,1-.74,2.4,2.4,2.4,0,0,1-2,.91A1.87,1.87,0,0,1,252,14.1Zm-.05-2.46v.48a1.51,1.51,0,0,0,.32,1,1.08,1.08,0,0,0,.87.39,1.14,1.14,0,0,0,1-.49,2.34,2.34,0,0,0,.35-1.38c0-1.06-.42-1.58-1.24-1.58a1.14,1.14,0,0,0-.92.43A1.69,1.69,0,0,0,251.92,11.64Z" fill="#1e1e1e"/>
      <path d="M259.42,14.8h-1.85V5.91h1.85Z" fill="#1e1e1e"/>
      <path d="M266.39,12.32h-3.92c.06.87.61,1.31,1.65,1.31a3.24,3.24,0,0,0,1.74-.47V14.5a4.68,4.68,0,0,1-2.16.44,3.09,3.09,0,0,1-2.26-.8,3,3,0,0,1-.8-2.25,3.24,3.24,0,0,1,.86-2.37,2.9,2.9,0,0,1,2.14-.87,2.63,2.63,0,0,1,2,.78,3,3,0,0,1,.72,2.11Zm-1.72-1.13c0-.86-.35-1.29-1-1.29a1,1,0,0,0-.77.37,1.65,1.65,0,0,0-.4.92Z" fill="#1e1e1e"/>
      <path d="M273.46,14.8h-1.85V14h0a2.09,2.09,0,0,1-1.86,1,2.26,2.26,0,0,1-1.81-.79,3.28,3.28,0,0,1-.69-2.22A3.52,3.52,0,0,1,268,9.55a2.45,2.45,0,0,1,2-.9,1.7,1.7,0,0,1,1.62.83h0V5.91h1.85Zm-1.82-2.92v-.45a1.43,1.43,0,0,0-.34-1,1.13,1.13,0,0,0-.88-.38,1.12,1.12,0,0,0-1,.48,2.26,2.26,0,0,0-.35,1.33,1.92,1.92,0,0,0,.34,1.22,1.19,1.19,0,0,0,1.84,0A1.85,1.85,0,0,0,271.64,11.88Z" fill="#1e1e1e"/>
      <path d="M282.88,14.58a3.69,3.69,0,0,1-1.81.36,3,3,0,0,1-2.24-.84,2.88,2.88,0,0,1-.86-2.16,3.19,3.19,0,0,1,.92-2.41,3.38,3.38,0,0,1,2.45-.88,3.14,3.14,0,0,1,1.54.28V10.5a2.12,2.12,0,0,0-1.3-.43,1.7,1.7,0,0,0-1.26.46,1.75,1.75,0,0,0-.47,1.29,1.69,1.69,0,0,0,.45,1.25,1.64,1.64,0,0,0,1.22.45,2.45,2.45,0,0,0,1.36-.43Z" fill="#1e1e1e"/>
      <path d="M286.94,14.94a3.23,3.23,0,0,1-2.36-.84,3.05,3.05,0,0,1-.86-2.28,3.07,3.07,0,0,1,.89-2.33A3.38,3.38,0,0,1,287,8.65a3.2,3.2,0,0,1,2.35.84,3,3,0,0,1,.85,2.22,3.17,3.17,0,0,1-.88,2.36A3.24,3.24,0,0,1,286.94,14.94Zm.05-4.87a1.23,1.23,0,0,0-1,.45,2,2,0,0,0-.36,1.28c0,1.15.46,1.72,1.39,1.72s1.33-.59,1.33-1.77S287.88,10.07,287,10.07Z" fill="#1e1e1e"/>
      <path d="M293.27,14.8h-1.85V5.91h1.85Z" fill="#1e1e1e"/>
      <path d="M300.53,14.8h-1.85v-.92h0a2.07,2.07,0,0,1-1.83,1.06c-1.39,0-2.09-.84-2.09-2.52V8.8h1.85v3.45c0,.85.34,1.27,1,1.27a1,1,0,0,0,.79-.34,1.42,1.42,0,0,0,.3-.95V8.8h1.85Z" fill="#1e1e1e"/>
      <path d="M311.58,14.8h-1.84V11.37c0-.87-.32-1.3-1-1.3a.89.89,0,0,0-.75.39,1.63,1.63,0,0,0-.29,1V14.8h-1.85V11.34c0-.85-.31-1.27-.94-1.27a.9.9,0,0,0-.76.37,1.65,1.65,0,0,0-.28,1V14.8h-1.85v-6h1.85v.93h0a2.17,2.17,0,0,1,.81-.78,2.2,2.2,0,0,1,1.13-.3,1.72,1.72,0,0,1,1.74,1.12,2.22,2.22,0,0,1,2-1.12c1.3,0,1.95.8,1.95,2.41Z" fill="#1e1e1e"/>
      <path d="M318.84,14.8H317V11.46c0-.93-.34-1.39-1-1.39a1,1,0,0,0-.79.37,1.36,1.36,0,0,0-.31.93V14.8h-1.85v-6h1.85v.94h0a2.12,2.12,0,0,1,1.93-1.09c1.33,0,2,.82,2,2.47Z" fill="#1e1e1e"/>
      <path d="M329.33,8.8l-2.23,6H325l-2.13-6h2l1.05,3.69a6.07,6.07,0,0,1,.2,1.07h0a6,6,0,0,1,.22-1L327.4,8.8Z" fill="#1e1e1e"/>
      <path d="M335,14.8h-1.75v-.87h0a1.94,1.94,0,0,1-1.79,1,1.85,1.85,0,0,1-1.37-.49,1.75,1.75,0,0,1-.5-1.32c0-1.17.69-1.84,2.07-2l1.62-.22c0-.65-.35-1-1.06-1a3.59,3.59,0,0,0-2,.64V9.15a4.67,4.67,0,0,1,1.06-.35,5.56,5.56,0,0,1,1.22-.15A2.26,2.26,0,0,1,335,11.21Zm-1.74-2.44V12l-1.09.14c-.6.08-.9.35-.9.82a.71.71,0,0,0,.22.52.89.89,0,0,0,.6.2,1.11,1.11,0,0,0,.85-.36A1.33,1.33,0,0,0,333.3,12.36Z" fill="#1e1e1e"/>
      <path d="M338.36,14.8h-1.85V5.91h1.85Z" fill="#1e1e1e"/>
      <path d="M345.62,14.8h-1.85v-.92h0a2.09,2.09,0,0,1-1.84,1.06c-1.39,0-2.08-.84-2.08-2.52V8.8h1.84v3.45c0,.85.34,1.27,1,1.27a1,1,0,0,0,.8-.34,1.42,1.42,0,0,0,.29-.95V8.8h1.85Z" fill="#1e1e1e"/>
      <path d="M352.58,12.32h-3.92c.07.87.61,1.31,1.65,1.31a3.24,3.24,0,0,0,1.74-.47V14.5a4.68,4.68,0,0,1-2.16.44,3.09,3.09,0,0,1-2.26-.8,3.08,3.08,0,0,1-.8-2.25,3.2,3.2,0,0,1,.87-2.37,2.87,2.87,0,0,1,2.13-.87,2.63,2.63,0,0,1,2,.78,3,3,0,0,1,.72,2.11Zm-1.72-1.13c0-.86-.35-1.29-1-1.29a1,1,0,0,0-.77.37,1.65,1.65,0,0,0-.4.92Z" fill="#1e1e1e"/>
      <path d="M353.43,14.64v-1.5a4.27,4.27,0,0,0,.91.41,3,3,0,0,0,.86.13,1.86,1.86,0,0,0,.78-.13.43.43,0,0,0,.28-.41.38.38,0,0,0-.13-.3,1.25,1.25,0,0,0-.33-.2,3.72,3.72,0,0,0-.44-.16l-.46-.16a3.71,3.71,0,0,1-.63-.29,1.67,1.67,0,0,1-.46-.36,1.31,1.31,0,0,1-.28-.47,1.76,1.76,0,0,1-.1-.64,1.7,1.7,0,0,1,.22-.87,1.75,1.75,0,0,1,.59-.59,2.43,2.43,0,0,1,.84-.34,4.46,4.46,0,0,1,1-.11,5.73,5.73,0,0,1,.81.06,5.45,5.45,0,0,1,.8.18v1.43a2.76,2.76,0,0,0-.75-.31,3.11,3.11,0,0,0-.79-.1,1.87,1.87,0,0,0-.34,0,1,1,0,0,0-.28.09.67.67,0,0,0-.2.16.44.44,0,0,0-.07.22.39.39,0,0,0,.11.28,1,1,0,0,0,.27.21l.38.15.41.14a4.66,4.66,0,0,1,.67.28,2.49,2.49,0,0,1,.52.35,1.34,1.34,0,0,1,.32.49A1.6,1.6,0,0,1,358,13a1.73,1.73,0,0,1-.23.91,1.93,1.93,0,0,1-.62.62,2.65,2.65,0,0,1-.88.34,4.48,4.48,0,0,1-1,.11A5.46,5.46,0,0,1,353.43,14.64Z" fill="#1e1e1e"/>
    </g>
    <g>
      <path d="M18.61,114.43h-1V108.8c0-.45,0-1,.08-1.64h0a5.38,5.38,0,0,1-.26.82l-2.87,6.45h-.48L11.22,108a4.31,4.31,0,0,1-.26-.86h0c0,.34.05.89.05,1.65v5.62H10V106h1.3l2.58,5.86a6,6,0,0,1,.38,1h0c.17-.46.3-.81.4-1L17.37,106h1.24Z" fill="#1e1e1e"/>
      <path d="M25,114.43H24v-.93h0a2,2,0,0,1-1.85,1.07,1.93,1.93,0,0,1-1.4-.47,1.65,1.65,0,0,1-.51-1.26c0-1.12.66-1.77,2-2l1.8-.25c0-1-.41-1.53-1.24-1.53a3,3,0,0,0-2,.74v-1a3.75,3.75,0,0,1,2-.56c1.41,0,2.12.75,2.12,2.24Zm-1-3-1.45.2a2.35,2.35,0,0,0-1,.33,1,1,0,0,0-.34.84.93.93,0,0,0,.32.72,1.22,1.22,0,0,0,.83.27,1.51,1.51,0,0,0,1.18-.5A1.77,1.77,0,0,0,24,112Z" fill="#1e1e1e"/>
      <path d="M29.57,114.37a1.76,1.76,0,0,1-.89.19c-1.05,0-1.58-.58-1.58-1.76v-3.55h-1v-.82h1V107l1-.31v1.77h1.51v.82H28.06v3.38a1.41,1.41,0,0,0,.21.87.81.81,0,0,0,.68.25.94.94,0,0,0,.62-.2Z" fill="#1e1e1e"/>
      <path d="M35,114.16a3.19,3.19,0,0,1-1.64.41,2.72,2.72,0,0,1-2.08-.83,3.06,3.06,0,0,1-.78-2.17,3.32,3.32,0,0,1,.85-2.38,3,3,0,0,1,2.26-.9,3.1,3.1,0,0,1,1.4.3v1a2.47,2.47,0,0,0-1.43-.47,1.93,1.93,0,0,0-1.51.66,2.52,2.52,0,0,0-.59,1.73,2.45,2.45,0,0,0,.55,1.67,1.94,1.94,0,0,0,1.49.6,2.41,2.41,0,0,0,1.48-.52Z" fill="#1e1e1e"/>
      <path d="M41.38,114.43h-1V111c0-1.25-.47-1.88-1.4-1.88a1.53,1.53,0,0,0-1.18.54,2,2,0,0,0-.48,1.39v3.4h-1v-8.88h1v3.88h0a2.19,2.19,0,0,1,2-1.14c1.35,0,2,.82,2,2.45Z" fill="#1e1e1e"/>
      <path d="M43.68,106.91a.6.6,0,0,1-.44-.18.57.57,0,0,1-.18-.44.61.61,0,0,1,.18-.45.6.6,0,0,1,.44-.18.61.61,0,0,1,.45.18.62.62,0,0,1,0,.89A.61.61,0,0,1,43.68,106.91Zm.47,7.52h-1v-6h1Z" fill="#1e1e1e"/>
      <path d="M51.08,114.43h-1V111c0-1.27-.47-1.91-1.4-1.91a1.5,1.5,0,0,0-1.19.54,2,2,0,0,0-.47,1.37v3.42h-1v-6h1v1h0a2.16,2.16,0,0,1,2-1.14,1.83,1.83,0,0,1,1.51.64,2.85,2.85,0,0,1,.52,1.83Z" fill="#1e1e1e"/>
      <path d="M58,114c0,2.21-1.06,3.31-3.16,3.31a4.25,4.25,0,0,1-2-.42v-1a4,4,0,0,0,1.93.57c1.48,0,2.22-.79,2.22-2.36v-.66h0a2.42,2.42,0,0,1-3.86.35,3.21,3.21,0,0,1-.68-2.14,3.77,3.77,0,0,1,.73-2.44,2.46,2.46,0,0,1,2-.9,2,2,0,0,1,1.79,1h0v-.83h1Zm-1-2.23v-.88a1.73,1.73,0,0,0-.48-1.23,1.62,1.62,0,0,0-1.21-.51,1.66,1.66,0,0,0-1.39.65,2.85,2.85,0,0,0-.51,1.81,2.43,2.43,0,0,0,.49,1.6,1.55,1.55,0,0,0,1.28.6,1.67,1.67,0,0,0,1.31-.57A2.12,2.12,0,0,0,57.05,111.72Z" fill="#1e1e1e"/>
      <path d="M31.75,121.63l-2.39,6h-.94l-2.27-6H27.2L28.72,126a3.75,3.75,0,0,1,.22.84h0a3.7,3.7,0,0,1,.19-.81l1.59-4.39Z" fill="#1e1e1e"/>
      <path d="M37.08,127.63h-1v-.93h0a2,2,0,0,1-1.85,1.07,1.93,1.93,0,0,1-1.4-.47,1.65,1.65,0,0,1-.51-1.26c0-1.12.66-1.77,2-2l1.8-.25c0-1-.41-1.53-1.24-1.53a3,3,0,0,0-2,.74v-1a3.73,3.73,0,0,1,2-.56c1.41,0,2.12.75,2.12,2.24Zm-1-3-1.45.2a2.35,2.35,0,0,0-1,.33,1,1,0,0,0-.34.84.93.93,0,0,0,.32.72,1.22,1.22,0,0,0,.83.28,1.52,1.52,0,0,0,1.18-.51,1.77,1.77,0,0,0,.47-1.26Z" fill="#1e1e1e"/>
      <path d="M39.85,127.63h-1v-8.88h1Z" fill="#1e1e1e"/>
      <path d="M46.65,127.63h-1v-.95h0a2,2,0,0,1-1.85,1.09c-1.43,0-2.14-.85-2.14-2.55v-3.59h.95v3.44c0,1.26.49,1.9,1.46,1.9a1.48,1.48,0,0,0,1.15-.52,2,2,0,0,0,.46-1.36v-3.46h1Z" fill="#1e1e1e"/>
      <path d="M53.41,124.87H49.17a2.28,2.28,0,0,0,.54,1.55,1.89,1.89,0,0,0,1.42.55A3,3,0,0,0,53,126.3v.9a3.47,3.47,0,0,1-2.09.57,2.56,2.56,0,0,1-2-.81,3.37,3.37,0,0,1-.72-2.3,3.29,3.29,0,0,1,.79-2.29,2.58,2.58,0,0,1,2-.88,2.29,2.29,0,0,1,1.83.76,3.25,3.25,0,0,1,.64,2.12Zm-1-.81a2,2,0,0,0-.41-1.3,1.38,1.38,0,0,0-1.09-.46,1.54,1.54,0,0,0-1.16.49,2.15,2.15,0,0,0-.58,1.27Z" fill="#1e1e1e"/>
      <path d="M54.5,127.42v-1a2.88,2.88,0,0,0,1.73.58c.84,0,1.26-.29,1.26-.85a.78.78,0,0,0-.1-.41,1,1,0,0,0-.3-.29,2.18,2.18,0,0,0-.43-.23l-.54-.22a5.79,5.79,0,0,1-.7-.32,1.74,1.74,0,0,1-.5-.36,1.29,1.29,0,0,1-.31-.46,1.79,1.79,0,0,1-.1-.6,1.55,1.55,0,0,1,.19-.75,1.82,1.82,0,0,1,.52-.55,2.77,2.77,0,0,1,.74-.33,3.56,3.56,0,0,1,2.24.16v1a2.78,2.78,0,0,0-1.52-.43,1.88,1.88,0,0,0-.49.06,1.06,1.06,0,0,0-.37.18.85.85,0,0,0-.24.26.68.68,0,0,0-.08.34.82.82,0,0,0,.08.4.94.94,0,0,0,.25.28,2.11,2.11,0,0,0,.4.22l.53.22a6.21,6.21,0,0,1,.72.31,2.44,2.44,0,0,1,.54.37,1.36,1.36,0,0,1,.46,1.09,1.5,1.5,0,0,1-.2.77,1.7,1.7,0,0,1-.52.55,2.49,2.49,0,0,1-.76.32,3.68,3.68,0,0,1-.89.1A3.51,3.51,0,0,1,54.5,127.42Z" fill="#1e1e1e"/>
    </g>
  </g>
</svg>
