<?xml version="1.0" encoding="utf-8"?>
<!-- Generator: Adobe Illustrator 26.3.1, SVG Export Plug-In . SVG Version: 6.00 Build 0)  -->
<svg version="1.1" xmlns="http://www.w3.org/2000/svg" xmlns:xlink="http://www.w3.org/1999/xlink" x="0px" y="0px"
	 viewBox="0 0 510.4 184.8" enable-background="new 0 0 510.4 184.8" xml:space="preserve">
<symbol  id="PIPELINE" viewBox="-32 -12.266 64 24.531">
	<linearGradient id="SVGID_1_" gradientUnits="userSpaceOnUse" x1="0" y1="-12.2655" x2="1.502093e-15" y2="12.2655">
		<stop  offset="0" style="stop-color:#1B89B2"/>
		<stop  offset="1" style="stop-color:#51C8E8"/>
	</linearGradient>
	<path fill="url(#SVGID_1_)" d="M26.096,12.266h-51.448v0h0C-29.08,12.265-32,6.878-32,0s2.92-12.265,6.648-12.265h0v0h51.448
		C29.356-12.266,32-6.363,32,0S29.356,12.266,26.096,12.266z"/>
	<g>
		
			<linearGradient id="SVGID_00000155121795419343348700000004428089574190233784_" gradientUnits="userSpaceOnUse" x1="-31.461" y1="-6.1136" x2="-19.2338" y2="6.1136">
			<stop  offset="0" style="stop-color:#B3B4B4"/>
			<stop  offset="1" style="stop-color:#4F4F4F"/>
		</linearGradient>
		<ellipse fill="url(#SVGID_00000155121795419343348700000004428089574190233784_)" cx="-25.347" cy="0" rx="5.575" ry="10.879"/>
	</g>
</symbol>
<g id="Shapes">
	<rect fill="#FFFFFF" width="510.4" height="184.8"/>
	<g id="Wrench_tool_x28_s_x29_">
	</g>
	<g id="user2">
	</g>
	<g id="user2_1_">
	</g>
	<g id="user2_4_">
	</g>
	<g id="user2_3_">
	</g>
	<g id="user2_2_">
	</g>
	<g id="Internet_2">
	</g>
	<g id="Enterprise">
	</g>
	<g id="Tunnel__x28_stackable_x29_">
	</g>
	<g id="New_Symbol">
	</g>
	<g id="New_Symbol_1">
	</g>
	<g id="Files">
	</g>
	<g id="BlobBlock">
	</g>
	<g id="E_x5F_Enterprise">
	</g>
	<g id="E_x5F_AD_FS">
	</g>
	<g id="C_x5F_Azure_Active_Directory">
	</g>
	<g>
		<g opacity="0.3">
			<rect x="5.4" y="5.4" fill="#212121" width="198" height="57.2"/>
			<rect x="5.4" y="5.4" opacity="0.35" fill="#212121" width="198" height="57.2"/>
		</g>
		<g>
			<rect x="4.4" y="4.4" fill="#FFFFFF" width="198" height="57.2"/>
			<rect x="4.4" y="4.4" opacity="0.35" fill="#1B93EB" width="198" height="57.2"/>
		</g>
	</g>
	<g>
		<g opacity="0.3">
			<rect x="5.4" y="62.6" fill="#212121" width="198" height="39.6"/>
			<rect x="5.4" y="62.6" opacity="0.15" fill="#212121" width="198" height="39.6"/>
		</g>
		<g>
			<rect x="4.4" y="61.6" fill="#FFFFFF" width="198" height="39.6"/>
			<rect x="4.4" y="61.6" opacity="0.15" fill="#1B93EB" width="198" height="39.6"/>
		</g>
	</g>
	<g>
		<g opacity="0.3">
			<rect x="309" y="5.4" fill="#212121" width="198" height="57.2"/>
			<rect x="309" y="5.4" opacity="0.35" fill="#212121" width="198" height="57.2"/>
		</g>
		<g>
			<rect x="308" y="4.4" fill="#FFFFFF" width="198" height="57.2"/>
			<rect x="308" y="4.4" opacity="0.35" fill="#1B93EB" width="198" height="57.2"/>
		</g>
	</g>
	<g>
		<g opacity="0.3">
			<rect x="309" y="62.6" fill="#212121" width="198" height="39.6"/>
			<rect x="309" y="62.6" opacity="0.15" fill="#212121" width="198" height="39.6"/>
		</g>
		<g>
			<rect x="308" y="61.6" fill="#FFFFFF" width="198" height="39.6"/>
			<rect x="308" y="61.6" opacity="0.15" fill="#1B93EB" width="198" height="39.6"/>
		</g>
	</g>
	<g>
		<g opacity="0.3">
			<rect x="309" y="102.2" fill="#212121" width="198" height="39.6"/>
			<rect x="309" y="102.2" opacity="0.15" fill="#212121" width="198" height="39.6"/>
		</g>
		<g>
			<rect x="308" y="101.2" fill="#FFFFFF" width="198" height="39.6"/>
			<rect x="308" y="101.2" opacity="0.15" fill="#1B93EB" width="198" height="39.6"/>
		</g>
	</g>
	<line fill="none" stroke="#A3A3A3" stroke-width="0.75" stroke-miterlimit="10" x1="308" y1="101.2" x2="506" y2="101.2"/>
	<g>
		<g opacity="0.3">
			<rect x="309" y="142.529" fill="#212121" width="198" height="39.6"/>
			<rect x="309" y="142.529" opacity="0.15" fill="#212121" width="198" height="39.6"/>
		</g>
		<g>
			<rect x="308" y="141.529" fill="#FFFFFF" width="198" height="39.6"/>
			<rect x="308" y="141.529" opacity="0.15" fill="#1B93EB" width="198" height="39.6"/>
		</g>
	</g>
	<line fill="none" stroke="#A3A3A3" stroke-width="0.75" stroke-miterlimit="10" x1="308" y1="141.529" x2="506" y2="141.529"/>
	<g>
		<polyline fill="none" stroke="#005CA1" points="203.409,78.96 221.243,78.96 221.243,161.329 308,161.329 		"/>
		<line fill="none" stroke="#005CA1" x1="211.033" y1="73.46" x2="211.033" y2="84.46"/>
		<line fill="none" stroke="#005CA1" x1="299.033" y1="155.829" x2="299.033" y2="166.829"/>
		<polygon fill="#005CA1" points="202.967,75.154 202.967,82.766 209.261,78.854 		"/>
	</g>
</g>
<g id="Text">
	<g>
		<rect x="35.782" y="20.1" fill="none" width="135.236" height="41.5"/>
		<path d="M43.82,29.759l-0.041-1.025c-0.146,0.178-0.296,0.339-0.451,0.485s-0.321,0.27-0.499,0.373s-0.368,0.182-0.571,0.239
			s-0.427,0.085-0.673,0.085c-0.41,0-0.775-0.082-1.094-0.246s-0.587-0.397-0.803-0.701s-0.382-0.671-0.496-1.104
			s-0.171-0.916-0.171-1.449c0-0.638,0.09-1.19,0.27-1.658s0.43-0.854,0.749-1.162s0.697-0.536,1.135-0.684s0.914-0.222,1.429-0.222
			c0.173,0,0.348,0.011,0.523,0.034s0.332,0.052,0.468,0.089V20.1h1.668v9.659H43.82z M40.772,26.341
			c0,0.383,0.026,0.71,0.079,0.981s0.13,0.493,0.232,0.667s0.229,0.3,0.379,0.379s0.321,0.12,0.513,0.12
			c0.283,0,0.551-0.114,0.807-0.342s0.526-0.54,0.813-0.937v-3.035c-0.132-0.05-0.295-0.091-0.489-0.123s-0.389-0.048-0.584-0.048
			c-0.269,0-0.51,0.055-0.725,0.164s-0.397,0.264-0.55,0.465s-0.27,0.445-0.352,0.735S40.772,25.982,40.772,26.341z"/>
		<path d="M52.317,29.759v-4.73c0-0.173-0.004-0.325-0.014-0.455s-0.027-0.238-0.055-0.325s-0.067-0.151-0.12-0.195
			s-0.124-0.065-0.215-0.065c-0.141,0-0.28,0.096-0.417,0.287s-0.292,0.517-0.465,0.978v4.505h-1.429v-4.73
			c0-0.173-0.004-0.325-0.014-0.455s-0.027-0.238-0.055-0.325s-0.068-0.151-0.123-0.195s-0.127-0.065-0.219-0.065
			c-0.119,0-0.25,0.096-0.396,0.287s-0.308,0.517-0.485,0.978v4.505h-1.442v-6.945h1.237l0.027,1.012
			c0.1-0.205,0.201-0.38,0.301-0.526s0.208-0.266,0.321-0.359s0.236-0.161,0.366-0.202s0.277-0.062,0.441-0.062
			c0.387,0,0.683,0.102,0.885,0.304s0.318,0.484,0.345,0.844c0.109-0.205,0.218-0.38,0.325-0.526s0.219-0.266,0.335-0.359
			s0.242-0.161,0.376-0.202s0.284-0.062,0.448-0.062c0.506,0,0.879,0.177,1.121,0.53s0.362,0.876,0.362,1.569v4.983H52.317z"/>
		<path d="M54.541,32.562v-1.319h7.697v1.319H54.541z"/>
		<path d="M68.717,21.515c-0.201-0.064-0.438-0.117-0.714-0.161s-0.557-0.065-0.844-0.065c-0.196,0-0.378,0.026-0.547,0.079
			s-0.314,0.136-0.438,0.25s-0.22,0.259-0.291,0.434s-0.106,0.389-0.106,0.639v1.121h2.728v1.299h-2.728v4.648h-1.682v-4.648h-2.017
			v-1.299h2.017v-1.053c0-0.492,0.072-0.915,0.215-1.268s0.346-0.643,0.608-0.868s0.578-0.391,0.947-0.496s0.782-0.157,1.237-0.157
			c0.301,0,0.587,0.02,0.858,0.058s0.523,0.085,0.755,0.14V21.515z"/>
		<path d="M75.978,29.691c-0.301,0.068-0.604,0.123-0.909,0.164s-0.595,0.062-0.868,0.062c-0.456,0-0.849-0.048-1.179-0.144
			s-0.604-0.242-0.82-0.438s-0.376-0.445-0.479-0.749s-0.154-0.664-0.154-1.083v-3.391h-1.866v-1.299h1.866v-1.777l1.709-0.444
			v2.222h2.7v1.299h-2.7v3.268c0,0.396,0.091,0.696,0.273,0.899s0.488,0.304,0.916,0.304c0.273,0,0.54-0.023,0.8-0.068
			s0.497-0.098,0.711-0.157V29.691z"/>
		<path d="M83.261,27.715c0,0.396-0.088,0.735-0.263,1.015s-0.408,0.508-0.697,0.684s-0.618,0.303-0.984,0.383
			s-0.742,0.12-1.125,0.12c-0.51,0-0.971-0.024-1.381-0.072s-0.797-0.117-1.162-0.208v-1.504c0.428,0.178,0.855,0.307,1.282,0.386
			s0.828,0.12,1.207,0.12c0.438,0,0.765-0.069,0.981-0.208s0.325-0.32,0.325-0.543c0-0.105-0.023-0.201-0.068-0.287
			s-0.131-0.17-0.256-0.25s-0.302-0.162-0.53-0.246s-0.526-0.179-0.896-0.284c-0.342-0.096-0.642-0.204-0.899-0.325
			s-0.471-0.263-0.639-0.427s-0.295-0.354-0.379-0.571s-0.126-0.471-0.126-0.762c0-0.283,0.064-0.549,0.191-0.8
			s0.318-0.471,0.571-0.66s0.568-0.338,0.947-0.448s0.82-0.164,1.326-0.164c0.438,0,0.825,0.023,1.162,0.068s0.636,0.096,0.896,0.15
			v1.36c-0.396-0.127-0.769-0.218-1.118-0.27s-0.694-0.079-1.036-0.079s-0.616,0.062-0.824,0.185s-0.311,0.294-0.311,0.513
			c0,0.105,0.021,0.198,0.062,0.28s0.122,0.162,0.243,0.239s0.29,0.158,0.506,0.243s0.502,0.177,0.858,0.277
			c0.401,0.114,0.738,0.236,1.012,0.366s0.493,0.277,0.66,0.441s0.286,0.351,0.359,0.561S83.261,27.446,83.261,27.715z"/>
		<path d="M84.177,32.562v-1.319h7.697v1.319H84.177z"/>
		<path d="M99.41,26.164c0,0.638-0.09,1.189-0.27,1.654s-0.431,0.851-0.752,1.159s-0.701,0.536-1.138,0.684
			s-0.914,0.222-1.429,0.222c-0.173,0-0.346-0.011-0.52-0.034s-0.331-0.052-0.472-0.089v2.714h-1.668v-9.659h1.442l0.041,1.025
			c0.141-0.178,0.288-0.339,0.441-0.485s0.318-0.27,0.496-0.373s0.369-0.181,0.574-0.236s0.435-0.082,0.69-0.082
			c0.41,0,0.775,0.082,1.094,0.246s0.587,0.397,0.803,0.701s0.382,0.67,0.496,1.101S99.41,25.626,99.41,26.164z M97.66,26.232
			c0-0.383-0.027-0.708-0.082-0.978s-0.133-0.49-0.236-0.663s-0.228-0.3-0.376-0.379s-0.318-0.12-0.509-0.12
			c-0.283,0-0.553,0.114-0.81,0.342s-0.53,0.538-0.817,0.93v3.035c0.132,0.05,0.295,0.091,0.489,0.123s0.391,0.048,0.591,0.048
			c0.264,0,0.505-0.055,0.721-0.164s0.401-0.264,0.554-0.465s0.27-0.445,0.352-0.735S97.66,26.592,97.66,26.232z"/>
		<path d="M107.248,26.232c0,0.547-0.078,1.047-0.232,1.5s-0.378,0.842-0.67,1.166s-0.649,0.574-1.073,0.752
			s-0.907,0.267-1.449,0.267c-0.515,0-0.975-0.075-1.381-0.226s-0.75-0.375-1.032-0.673s-0.499-0.672-0.649-1.121
			s-0.226-0.972-0.226-1.569c0-0.551,0.079-1.053,0.236-1.504s0.383-0.836,0.677-1.155s0.653-0.566,1.077-0.742
			s0.902-0.263,1.436-0.263c0.52,0,0.982,0.076,1.388,0.229s0.75,0.379,1.032,0.68s0.498,0.673,0.646,1.118
			S107.248,25.649,107.248,26.232z M105.511,26.273c0-0.72-0.136-1.261-0.407-1.624s-0.671-0.543-1.2-0.543
			c-0.292,0-0.54,0.057-0.745,0.171s-0.374,0.27-0.506,0.468s-0.229,0.43-0.291,0.694s-0.092,0.547-0.092,0.848
			c0,0.725,0.146,1.271,0.438,1.637s0.69,0.55,1.196,0.55c0.278,0,0.52-0.056,0.725-0.167s0.372-0.267,0.499-0.465
			s0.223-0.432,0.287-0.701S105.511,26.583,105.511,26.273z"/>
		<path d="M114.997,26.164c0,0.638-0.09,1.189-0.27,1.654c-0.181,0.465-0.431,0.851-0.752,1.159s-0.701,0.536-1.139,0.684
			s-0.914,0.222-1.429,0.222c-0.173,0-0.346-0.011-0.52-0.034s-0.331-0.052-0.472-0.089v2.714h-1.668v-9.659h1.442l0.041,1.025
			c0.141-0.178,0.288-0.339,0.441-0.485s0.318-0.27,0.496-0.373s0.369-0.181,0.574-0.236s0.435-0.082,0.69-0.082
			c0.41,0,0.775,0.082,1.094,0.246c0.319,0.164,0.587,0.397,0.804,0.701c0.216,0.303,0.382,0.67,0.495,1.101
			C114.94,25.142,114.997,25.626,114.997,26.164z M113.247,26.232c0-0.383-0.027-0.708-0.082-0.978s-0.133-0.49-0.235-0.663
			c-0.103-0.173-0.229-0.3-0.376-0.379s-0.318-0.12-0.509-0.12c-0.283,0-0.553,0.114-0.81,0.342s-0.53,0.538-0.817,0.93v3.035
			c0.132,0.05,0.295,0.091,0.489,0.123s0.391,0.048,0.591,0.048c0.264,0,0.505-0.055,0.721-0.164s0.401-0.264,0.554-0.465
			s0.27-0.445,0.352-0.735S113.247,26.592,113.247,26.232z"/>
		<path d="M118.145,22.814v4.525c0,0.378,0.071,0.664,0.212,0.858c0.142,0.194,0.355,0.291,0.643,0.291
			c0.278,0,0.546-0.115,0.804-0.345c0.257-0.23,0.529-0.541,0.816-0.933v-4.396h1.668v6.945h-1.442l-0.041-1.025
			c-0.146,0.178-0.294,0.339-0.444,0.485s-0.313,0.27-0.488,0.373c-0.176,0.103-0.367,0.182-0.574,0.239
			c-0.208,0.057-0.437,0.085-0.688,0.085c-0.355,0-0.666-0.058-0.933-0.174s-0.489-0.281-0.667-0.496s-0.311-0.471-0.399-0.769
			s-0.134-0.632-0.134-1.001v-4.662H118.145z"/>
		<path d="M126.086,21.399h-1.962V20.1h3.671v8.36h2.003v1.299h-5.913v-1.299h2.201V21.399z"/>
		<path d="M135.74,29.759l-0.041-0.909c-0.146,0.155-0.298,0.297-0.458,0.427c-0.159,0.13-0.335,0.243-0.526,0.338
			s-0.399,0.17-0.625,0.222s-0.473,0.079-0.742,0.079c-0.355,0-0.667-0.052-0.937-0.157c-0.269-0.105-0.494-0.25-0.677-0.438
			c-0.182-0.187-0.32-0.413-0.413-0.677c-0.094-0.264-0.141-0.556-0.141-0.875c0-0.328,0.069-0.631,0.209-0.909
			c0.139-0.278,0.351-0.517,0.636-0.718c0.284-0.201,0.64-0.358,1.066-0.472c0.426-0.114,0.926-0.171,1.5-0.171h0.909v-0.417
			c0-0.178-0.024-0.338-0.075-0.482c-0.05-0.144-0.131-0.266-0.242-0.366c-0.112-0.1-0.257-0.178-0.435-0.232
			s-0.396-0.082-0.656-0.082c-0.41,0-0.814,0.047-1.213,0.14c-0.399,0.093-0.785,0.225-1.159,0.393v-1.333
			c0.333-0.132,0.717-0.242,1.152-0.328c0.435-0.086,0.888-0.13,1.356-0.13c0.516,0,0.957,0.049,1.326,0.147
			s0.674,0.245,0.913,0.441s0.416,0.441,0.529,0.735c0.114,0.294,0.171,0.637,0.171,1.029v4.744H135.74z M135.501,26.69h-1.019
			c-0.282,0-0.521,0.027-0.718,0.082c-0.195,0.055-0.355,0.13-0.479,0.226s-0.213,0.206-0.27,0.332
			c-0.058,0.125-0.086,0.259-0.086,0.4c0,0.283,0.092,0.498,0.273,0.646c0.183,0.148,0.431,0.222,0.745,0.222
			c0.232,0,0.475-0.084,0.725-0.253c0.251-0.168,0.526-0.41,0.827-0.725V26.69z"/>
		<path d="M144.719,29.691c-0.301,0.068-0.604,0.123-0.909,0.164c-0.306,0.041-0.595,0.062-0.868,0.062
			c-0.456,0-0.849-0.048-1.18-0.144c-0.33-0.096-0.604-0.242-0.82-0.438c-0.216-0.196-0.376-0.445-0.479-0.749
			s-0.153-0.664-0.153-1.083v-3.391h-1.866v-1.299h1.866v-1.777l1.709-0.444v2.222h2.7v1.299h-2.7v3.268
			c0,0.396,0.091,0.696,0.273,0.899c0.182,0.203,0.487,0.304,0.916,0.304c0.273,0,0.54-0.023,0.8-0.068s0.496-0.098,0.711-0.157
			V29.691z"/>
		<path d="M148.557,24.113h-1.962v-1.299h3.671v5.646h2.003v1.299h-5.913v-1.299h2.201V24.113z M150.403,20.914
			c0,0.15-0.027,0.292-0.082,0.424s-0.131,0.247-0.229,0.345c-0.099,0.098-0.213,0.175-0.346,0.232
			c-0.132,0.057-0.275,0.085-0.431,0.085c-0.154,0-0.3-0.028-0.434-0.085c-0.135-0.057-0.251-0.134-0.349-0.232
			c-0.099-0.098-0.175-0.213-0.229-0.345s-0.082-0.273-0.082-0.424s0.027-0.292,0.082-0.424s0.131-0.249,0.229-0.349
			c0.098-0.1,0.214-0.179,0.349-0.236c0.134-0.057,0.279-0.085,0.434-0.085c0.155,0,0.299,0.028,0.431,0.085
			c0.133,0.057,0.247,0.136,0.346,0.236c0.098,0.1,0.174,0.216,0.229,0.349S150.403,20.763,150.403,20.914z"/>
		<path d="M160.079,26.232c0,0.547-0.078,1.047-0.232,1.5c-0.155,0.454-0.379,0.842-0.67,1.166
			c-0.292,0.324-0.649,0.574-1.073,0.752s-0.907,0.267-1.449,0.267c-0.516,0-0.976-0.075-1.381-0.226
			c-0.406-0.15-0.75-0.375-1.032-0.673c-0.283-0.298-0.499-0.672-0.649-1.121s-0.226-0.972-0.226-1.569
			c0-0.551,0.078-1.053,0.235-1.504s0.383-0.836,0.677-1.155s0.653-0.566,1.077-0.742s0.902-0.263,1.436-0.263
			c0.52,0,0.981,0.076,1.388,0.229c0.405,0.153,0.749,0.379,1.032,0.68c0.282,0.301,0.498,0.673,0.646,1.118
			C160.004,25.135,160.079,25.649,160.079,26.232z M158.342,26.273c0-0.72-0.136-1.261-0.407-1.624
			c-0.271-0.362-0.671-0.543-1.199-0.543c-0.292,0-0.54,0.057-0.745,0.171s-0.374,0.27-0.506,0.468
			c-0.133,0.198-0.229,0.43-0.291,0.694s-0.092,0.547-0.092,0.848c0,0.725,0.146,1.271,0.438,1.637
			c0.291,0.367,0.69,0.55,1.196,0.55c0.277,0,0.52-0.056,0.725-0.167s0.371-0.267,0.499-0.465c0.127-0.198,0.223-0.432,0.287-0.701
			C158.31,26.872,158.342,26.583,158.342,26.273z"/>
		<path d="M165.722,29.759v-4.525c0-0.761-0.282-1.142-0.848-1.142c-0.282,0-0.553,0.114-0.81,0.342
			c-0.258,0.228-0.53,0.538-0.817,0.93v4.396h-1.668v-6.945h1.442l0.041,1.025c0.142-0.178,0.288-0.339,0.441-0.485
			c0.152-0.146,0.317-0.27,0.495-0.373s0.369-0.181,0.574-0.236s0.436-0.082,0.69-0.082c0.355,0,0.666,0.058,0.93,0.174
			c0.265,0.116,0.485,0.28,0.663,0.492s0.312,0.467,0.4,0.766s0.133,0.632,0.133,1.001v4.662H165.722z"/>
		<path d="M76.917,49.362v-1.319h7.697v1.319H76.917z"/>
		<path d="M90.005,42.315c0.009-0.26-0.003-0.481-0.038-0.663s-0.089-0.333-0.164-0.451s-0.167-0.205-0.277-0.26
			s-0.235-0.082-0.376-0.082c-0.246,0-0.5,0.102-0.762,0.304s-0.55,0.537-0.865,1.001v4.396h-1.709v-6.945h1.511l0.062,1.012
			c0.114-0.178,0.243-0.337,0.386-0.479s0.303-0.263,0.479-0.366s0.37-0.181,0.584-0.236s0.449-0.082,0.704-0.082
			c0.351,0,0.662,0.061,0.933,0.181s0.499,0.3,0.684,0.537s0.321,0.534,0.41,0.892s0.126,0.771,0.113,1.241H90.005z"/>
		<path d="M97.254,46.56l-0.041-0.909c-0.146,0.155-0.298,0.297-0.458,0.427s-0.335,0.243-0.526,0.338s-0.4,0.17-0.625,0.222
			s-0.473,0.079-0.742,0.079c-0.355,0-0.667-0.052-0.937-0.157s-0.495-0.25-0.677-0.438s-0.32-0.413-0.414-0.677
			s-0.14-0.556-0.14-0.875c0-0.328,0.069-0.631,0.208-0.909s0.351-0.517,0.636-0.718s0.64-0.358,1.066-0.472s0.926-0.171,1.5-0.171
			h0.909v-0.417c0-0.178-0.025-0.338-0.075-0.482s-0.131-0.266-0.243-0.366s-0.256-0.178-0.434-0.232s-0.396-0.082-0.656-0.082
			c-0.41,0-0.814,0.047-1.213,0.14s-0.785,0.225-1.159,0.393v-1.333c0.333-0.132,0.717-0.242,1.152-0.328s0.888-0.13,1.357-0.13
			c0.515,0,0.957,0.049,1.326,0.147s0.673,0.245,0.913,0.441s0.416,0.441,0.53,0.735s0.171,0.637,0.171,1.029v4.744H97.254z
			 M97.015,43.49h-1.019c-0.283,0-0.522,0.027-0.718,0.082s-0.355,0.13-0.479,0.226s-0.213,0.206-0.27,0.332s-0.085,0.259-0.085,0.4
			c0,0.283,0.091,0.498,0.273,0.646s0.431,0.222,0.745,0.222c0.232,0,0.474-0.084,0.725-0.253s0.526-0.41,0.827-0.725V43.49z"/>
		<path d="M104.708,46.56v-4.525c0-0.761-0.283-1.142-0.848-1.142c-0.283,0-0.553,0.114-0.81,0.342s-0.53,0.538-0.817,0.93v4.396
			h-1.668v-6.945h1.442l0.041,1.025c0.141-0.178,0.288-0.339,0.441-0.485s0.318-0.27,0.496-0.373s0.369-0.181,0.574-0.236
			s0.435-0.082,0.69-0.082c0.355,0,0.666,0.058,0.93,0.174s0.485,0.28,0.663,0.492s0.311,0.467,0.4,0.766s0.133,0.632,0.133,1.001
			v4.662H104.708z"/>
		<path d="M113.365,40.831c0.128,0.16,0.218,0.327,0.271,0.502c0.052,0.175,0.078,0.354,0.078,0.537
			c0,0.387-0.067,0.729-0.201,1.025c-0.135,0.296-0.324,0.544-0.567,0.745c-0.244,0.201-0.536,0.352-0.875,0.455
			s-0.714,0.154-1.125,0.154c-0.242,0-0.465-0.024-0.67-0.072s-0.36-0.104-0.465-0.167c-0.078,0.078-0.144,0.163-0.198,0.256
			s-0.082,0.199-0.082,0.318c0,0.073,0.018,0.146,0.055,0.219s0.09,0.138,0.161,0.195s0.155,0.104,0.253,0.14
			s0.208,0.057,0.332,0.062l1.647,0.062c0.369,0.009,0.703,0.056,1.002,0.14c0.298,0.084,0.555,0.204,0.769,0.359
			c0.215,0.155,0.38,0.343,0.496,0.564s0.174,0.473,0.174,0.755c0,0.324-0.072,0.629-0.219,0.916
			c-0.146,0.287-0.365,0.537-0.659,0.749s-0.66,0.379-1.098,0.502s-0.946,0.185-1.524,0.185c-0.561,0-1.042-0.044-1.446-0.133
			s-0.734-0.213-0.991-0.373s-0.448-0.35-0.571-0.571s-0.185-0.464-0.185-0.728c0-0.16,0.021-0.308,0.062-0.444
			s0.103-0.268,0.185-0.393s0.185-0.247,0.308-0.366s0.269-0.237,0.438-0.355c-0.223-0.127-0.393-0.292-0.509-0.492
			s-0.174-0.415-0.174-0.643c0-0.155,0.021-0.3,0.062-0.434s0.095-0.263,0.161-0.386s0.143-0.242,0.229-0.355
			s0.178-0.226,0.273-0.335c-0.168-0.168-0.309-0.373-0.42-0.612s-0.167-0.539-0.167-0.899c0-0.387,0.069-0.732,0.208-1.036
			s0.332-0.558,0.578-0.766s0.539-0.365,0.878-0.472s0.71-0.161,1.111-0.161c0.205,0,0.402,0.01,0.591,0.031
			s0.361,0.056,0.516,0.106h2.406v1.217H113.365z M109.434,47.483c0,0.269,0.136,0.467,0.407,0.595s0.653,0.191,1.145,0.191
			c0.314,0,0.58-0.03,0.796-0.089s0.393-0.137,0.53-0.232s0.235-0.208,0.294-0.335s0.089-0.26,0.089-0.396
			c0-0.123-0.028-0.227-0.085-0.311s-0.137-0.155-0.239-0.212s-0.223-0.1-0.362-0.13s-0.293-0.049-0.461-0.058l-1.47-0.027
			c-0.132,0.091-0.24,0.178-0.325,0.26s-0.15,0.163-0.198,0.243s-0.08,0.161-0.096,0.243S109.434,47.391,109.434,47.483z
			 M109.714,41.911c0,0.369,0.108,0.662,0.325,0.878s0.519,0.325,0.906,0.325c0.205,0,0.384-0.034,0.537-0.103
			s0.279-0.16,0.379-0.273s0.175-0.246,0.226-0.396s0.075-0.308,0.075-0.472c0-0.387-0.108-0.689-0.325-0.906
			s-0.519-0.325-0.906-0.325c-0.205,0-0.384,0.034-0.537,0.103s-0.279,0.161-0.379,0.277s-0.175,0.252-0.226,0.407
			S109.714,41.743,109.714,41.911z"/>
		<path d="M121.72,42.554c0,0.114-0.004,0.262-0.011,0.444s-0.017,0.353-0.03,0.513h-4.566c0,0.305,0.047,0.574,0.14,0.807
			c0.094,0.232,0.226,0.427,0.396,0.584s0.376,0.277,0.615,0.359s0.505,0.123,0.797,0.123c0.337,0,0.698-0.026,1.083-0.079
			c0.386-0.052,0.785-0.138,1.2-0.256v1.326c-0.178,0.05-0.372,0.096-0.581,0.137c-0.21,0.041-0.424,0.078-0.643,0.109
			s-0.44,0.056-0.663,0.072c-0.224,0.016-0.44,0.024-0.649,0.024c-0.529,0-1.003-0.075-1.422-0.226
			c-0.42-0.15-0.775-0.373-1.066-0.667c-0.292-0.294-0.516-0.657-0.67-1.09c-0.155-0.433-0.232-0.934-0.232-1.504
			c0-0.565,0.077-1.079,0.232-1.542c0.154-0.462,0.373-0.859,0.656-1.189c0.282-0.331,0.625-0.585,1.028-0.766
			s0.854-0.27,1.351-0.27c0.492,0,0.927,0.076,1.306,0.229c0.378,0.153,0.694,0.366,0.95,0.639c0.255,0.273,0.448,0.599,0.581,0.978
			C121.654,41.688,121.72,42.103,121.72,42.554z M120.025,42.315c0.004-0.273-0.03-0.512-0.103-0.714
			c-0.073-0.203-0.172-0.37-0.298-0.502c-0.125-0.132-0.271-0.23-0.438-0.294c-0.166-0.064-0.345-0.096-0.536-0.096
			c-0.42,0-0.764,0.14-1.032,0.42c-0.27,0.28-0.429,0.676-0.479,1.186H120.025z"/>
		<path d="M128.865,44.516c0,0.396-0.088,0.735-0.263,1.015c-0.176,0.28-0.408,0.508-0.697,0.684
			c-0.29,0.175-0.618,0.303-0.984,0.383c-0.367,0.08-0.742,0.12-1.125,0.12c-0.51,0-0.971-0.024-1.381-0.072
			s-0.797-0.117-1.162-0.208v-1.504c0.429,0.178,0.855,0.307,1.282,0.386c0.426,0.08,0.828,0.12,1.206,0.12
			c0.438,0,0.765-0.069,0.981-0.208c0.216-0.139,0.324-0.32,0.324-0.543c0-0.105-0.022-0.201-0.068-0.287
			c-0.045-0.086-0.131-0.17-0.256-0.25c-0.126-0.08-0.302-0.162-0.53-0.246c-0.228-0.084-0.526-0.179-0.896-0.284
			c-0.342-0.096-0.642-0.204-0.898-0.325c-0.258-0.121-0.471-0.263-0.64-0.427c-0.168-0.164-0.295-0.354-0.379-0.571
			c-0.085-0.216-0.127-0.471-0.127-0.762c0-0.283,0.064-0.549,0.191-0.8c0.128-0.25,0.318-0.471,0.571-0.66s0.568-0.338,0.946-0.448
			c0.379-0.109,0.82-0.164,1.326-0.164c0.438,0,0.825,0.023,1.162,0.068c0.338,0.045,0.636,0.096,0.896,0.15v1.36
			c-0.396-0.127-0.769-0.218-1.117-0.27s-0.694-0.079-1.036-0.079s-0.616,0.062-0.823,0.185c-0.208,0.123-0.312,0.294-0.312,0.513
			c0,0.105,0.021,0.198,0.062,0.28s0.122,0.162,0.243,0.239c0.12,0.078,0.289,0.158,0.506,0.243
			c0.216,0.084,0.502,0.177,0.857,0.277c0.401,0.114,0.738,0.236,1.012,0.366c0.273,0.13,0.493,0.277,0.66,0.441
			c0.166,0.164,0.286,0.351,0.358,0.561C128.829,44.007,128.865,44.247,128.865,44.516z"/>
	</g>
	<g>
		<rect x="312.4" y="30.125" fill="none" width="189.2" height="20.75"/>
		<path d="M324.336,39.785l-0.041-1.025c-0.146,0.178-0.296,0.339-0.451,0.485c-0.154,0.146-0.321,0.27-0.499,0.373
			s-0.368,0.182-0.57,0.239c-0.203,0.057-0.428,0.085-0.674,0.085c-0.41,0-0.774-0.082-1.094-0.246
			c-0.318-0.164-0.587-0.397-0.803-0.701c-0.217-0.303-0.382-0.671-0.496-1.104c-0.113-0.433-0.171-0.916-0.171-1.449
			c0-0.638,0.09-1.19,0.271-1.658c0.18-0.467,0.43-0.854,0.748-1.162c0.319-0.308,0.697-0.536,1.135-0.684s0.914-0.222,1.429-0.222
			c0.174,0,0.348,0.011,0.523,0.034c0.175,0.023,0.331,0.052,0.468,0.089v-2.714h1.668v9.659H324.336z M321.287,36.367
			c0,0.383,0.026,0.71,0.079,0.981c0.052,0.271,0.13,0.493,0.232,0.667s0.229,0.3,0.379,0.379s0.321,0.12,0.513,0.12
			c0.283,0,0.552-0.114,0.807-0.342c0.256-0.228,0.526-0.54,0.813-0.937V34.2c-0.132-0.05-0.295-0.091-0.488-0.123
			c-0.194-0.032-0.389-0.048-0.585-0.048c-0.269,0-0.51,0.055-0.725,0.164c-0.214,0.109-0.397,0.264-0.55,0.465
			c-0.153,0.201-0.271,0.445-0.353,0.735S321.287,36.007,321.287,36.367z"/>
		<path d="M332.833,39.785v-4.73c0-0.173-0.005-0.325-0.014-0.455c-0.01-0.13-0.027-0.238-0.055-0.325s-0.067-0.151-0.12-0.195
			c-0.052-0.043-0.124-0.065-0.215-0.065c-0.142,0-0.28,0.096-0.417,0.287s-0.292,0.517-0.465,0.978v4.505h-1.429v-4.73
			c0-0.173-0.005-0.325-0.014-0.455c-0.01-0.13-0.027-0.238-0.055-0.325s-0.068-0.151-0.123-0.195s-0.128-0.065-0.219-0.065
			c-0.119,0-0.251,0.096-0.396,0.287c-0.146,0.191-0.308,0.517-0.485,0.978v4.505h-1.442v-6.945h1.237l0.027,1.012
			c0.1-0.205,0.2-0.38,0.301-0.526c0.1-0.146,0.207-0.266,0.321-0.359c0.113-0.093,0.235-0.161,0.365-0.202s0.277-0.062,0.441-0.062
			c0.387,0,0.683,0.102,0.885,0.304c0.203,0.203,0.318,0.484,0.346,0.844c0.109-0.205,0.218-0.38,0.324-0.526
			c0.107-0.146,0.219-0.266,0.335-0.359s0.242-0.161,0.376-0.202c0.135-0.041,0.284-0.062,0.448-0.062
			c0.506,0,0.879,0.177,1.121,0.53c0.241,0.353,0.362,0.876,0.362,1.569v4.983H332.833z"/>
		<path d="M335.056,42.588v-1.319h7.697v1.319H335.056z"/>
		<path d="M349.232,31.541c-0.2-0.064-0.438-0.117-0.714-0.161c-0.276-0.043-0.558-0.065-0.845-0.065
			c-0.195,0-0.378,0.026-0.547,0.079c-0.168,0.052-0.314,0.136-0.438,0.25s-0.22,0.259-0.29,0.434
			c-0.071,0.175-0.106,0.389-0.106,0.639v1.121h2.728v1.299h-2.728v4.648h-1.682v-4.648h-2.017v-1.299h2.017v-1.053
			c0-0.492,0.072-0.915,0.216-1.268s0.346-0.643,0.608-0.868c0.262-0.226,0.577-0.391,0.946-0.496s0.782-0.157,1.237-0.157
			c0.301,0,0.587,0.02,0.858,0.058c0.271,0.039,0.522,0.085,0.755,0.14V31.541z"/>
		<path d="M356.494,39.716c-0.301,0.068-0.604,0.123-0.909,0.164c-0.306,0.041-0.595,0.062-0.868,0.062
			c-0.456,0-0.849-0.048-1.18-0.144c-0.33-0.096-0.604-0.242-0.82-0.438c-0.216-0.196-0.376-0.445-0.479-0.749
			s-0.153-0.664-0.153-1.083v-3.391h-1.866v-1.299h1.866v-1.777l1.709-0.444v2.222h2.7v1.299h-2.7v3.268
			c0,0.396,0.091,0.696,0.273,0.899c0.182,0.203,0.487,0.304,0.916,0.304c0.273,0,0.54-0.023,0.8-0.068s0.496-0.098,0.711-0.157
			V39.716z"/>
		<path d="M363.777,37.741c0,0.396-0.088,0.735-0.264,1.015c-0.175,0.28-0.407,0.508-0.697,0.684
			c-0.289,0.175-0.617,0.303-0.984,0.383c-0.366,0.08-0.741,0.12-1.124,0.12c-0.511,0-0.971-0.024-1.381-0.072
			s-0.798-0.117-1.162-0.208v-1.504c0.428,0.178,0.855,0.307,1.281,0.386c0.427,0.08,0.828,0.12,1.207,0.12
			c0.438,0,0.765-0.069,0.98-0.208c0.217-0.139,0.325-0.32,0.325-0.543c0-0.105-0.023-0.201-0.068-0.287
			c-0.046-0.086-0.131-0.17-0.257-0.25c-0.125-0.08-0.302-0.162-0.529-0.246c-0.229-0.084-0.526-0.179-0.896-0.284
			c-0.342-0.096-0.642-0.204-0.899-0.325c-0.257-0.121-0.471-0.263-0.639-0.427c-0.169-0.164-0.295-0.354-0.38-0.571
			c-0.084-0.216-0.126-0.471-0.126-0.762c0-0.283,0.063-0.549,0.191-0.8c0.127-0.25,0.317-0.471,0.57-0.66s0.568-0.338,0.947-0.448
			c0.378-0.109,0.82-0.164,1.326-0.164c0.438,0,0.824,0.023,1.162,0.068c0.337,0.045,0.636,0.096,0.896,0.15v1.36
			c-0.396-0.127-0.77-0.218-1.118-0.27s-0.693-0.079-1.035-0.079s-0.616,0.062-0.824,0.185c-0.207,0.123-0.311,0.294-0.311,0.513
			c0,0.105,0.021,0.198,0.062,0.28s0.122,0.162,0.242,0.239c0.121,0.078,0.29,0.158,0.506,0.243
			c0.217,0.084,0.503,0.177,0.858,0.277c0.4,0.114,0.738,0.236,1.012,0.366s0.493,0.277,0.659,0.441
			c0.167,0.164,0.286,0.351,0.359,0.561C363.74,37.233,363.777,37.472,363.777,37.741z"/>
		<path d="M364.693,42.588v-1.319h7.697v1.319H364.693z"/>
		<path d="M375.527,34.138h-1.962v-1.299h3.671v5.646h2.003v1.299h-5.913v-1.299h2.201V34.138z M377.373,30.939
			c0,0.15-0.027,0.292-0.082,0.424s-0.131,0.247-0.229,0.345c-0.098,0.098-0.213,0.175-0.345,0.232
			c-0.133,0.057-0.276,0.085-0.431,0.085c-0.155,0-0.3-0.028-0.435-0.085c-0.134-0.057-0.25-0.134-0.349-0.232
			c-0.098-0.098-0.174-0.213-0.229-0.345s-0.082-0.273-0.082-0.424s0.027-0.292,0.082-0.424s0.131-0.249,0.229-0.349
			c0.099-0.1,0.215-0.179,0.349-0.236c0.135-0.057,0.279-0.085,0.435-0.085c0.154,0,0.298,0.028,0.431,0.085
			c0.132,0.057,0.247,0.136,0.345,0.236c0.099,0.1,0.175,0.216,0.229,0.349S377.373,30.789,377.373,30.939z"/>
		<path d="M384.884,39.785v-4.525c0-0.761-0.282-1.142-0.848-1.142c-0.282,0-0.553,0.114-0.81,0.342
			c-0.258,0.228-0.53,0.538-0.817,0.93v4.396h-1.668v-6.945h1.442l0.041,1.025c0.142-0.178,0.288-0.339,0.441-0.485
			c0.152-0.146,0.317-0.27,0.495-0.373s0.369-0.181,0.574-0.236s0.436-0.082,0.69-0.082c0.355,0,0.666,0.058,0.93,0.174
			c0.265,0.116,0.485,0.28,0.663,0.492s0.312,0.467,0.4,0.766s0.133,0.632,0.133,1.001v4.662H384.884z"/>
		<path d="M392.852,39.785l-0.041-1.025c-0.146,0.178-0.296,0.339-0.451,0.485c-0.154,0.146-0.321,0.27-0.499,0.373
			s-0.368,0.182-0.57,0.239c-0.203,0.057-0.428,0.085-0.674,0.085c-0.41,0-0.774-0.082-1.094-0.246
			c-0.318-0.164-0.587-0.397-0.803-0.701c-0.217-0.303-0.382-0.671-0.496-1.104c-0.113-0.433-0.171-0.916-0.171-1.449
			c0-0.638,0.09-1.19,0.271-1.658c0.18-0.467,0.43-0.854,0.748-1.162c0.319-0.308,0.697-0.536,1.135-0.684s0.914-0.222,1.429-0.222
			c0.174,0,0.348,0.011,0.523,0.034c0.175,0.023,0.331,0.052,0.468,0.089v-2.714h1.668v9.659H392.852z M389.803,36.367
			c0,0.383,0.026,0.71,0.079,0.981c0.052,0.271,0.13,0.493,0.232,0.667s0.229,0.3,0.379,0.379s0.321,0.12,0.513,0.12
			c0.283,0,0.552-0.114,0.807-0.342c0.256-0.228,0.526-0.54,0.813-0.937V34.2c-0.132-0.05-0.295-0.091-0.488-0.123
			c-0.194-0.032-0.389-0.048-0.585-0.048c-0.269,0-0.51,0.055-0.725,0.164c-0.214,0.109-0.397,0.264-0.55,0.465
			c-0.153,0.201-0.271,0.445-0.353,0.735S389.803,36.007,389.803,36.367z"/>
		<path d="M402.192,35.779c0,0.114-0.003,0.262-0.01,0.444s-0.018,0.353-0.031,0.513h-4.566c0,0.305,0.047,0.574,0.141,0.807
			c0.093,0.232,0.226,0.427,0.396,0.584s0.376,0.277,0.615,0.359s0.505,0.123,0.796,0.123c0.338,0,0.698-0.026,1.084-0.079
			c0.385-0.052,0.785-0.138,1.199-0.256V39.6c-0.178,0.05-0.371,0.096-0.581,0.137c-0.209,0.041-0.424,0.078-0.643,0.109
			s-0.439,0.056-0.663,0.072c-0.223,0.016-0.439,0.024-0.649,0.024c-0.528,0-1.002-0.075-1.422-0.226
			c-0.419-0.15-0.774-0.373-1.066-0.667c-0.291-0.294-0.515-0.657-0.67-1.09c-0.154-0.433-0.232-0.934-0.232-1.504
			c0-0.565,0.078-1.079,0.232-1.542c0.155-0.462,0.374-0.859,0.656-1.189c0.283-0.331,0.626-0.585,1.029-0.766s0.854-0.27,1.35-0.27
			c0.492,0,0.928,0.076,1.306,0.229c0.379,0.153,0.695,0.366,0.95,0.639c0.256,0.273,0.449,0.599,0.581,0.978
			C402.127,34.913,402.192,35.328,402.192,35.779z M400.497,35.54c0.005-0.273-0.029-0.512-0.103-0.714
			c-0.072-0.203-0.172-0.37-0.297-0.502c-0.126-0.132-0.271-0.23-0.438-0.294c-0.167-0.064-0.346-0.096-0.537-0.096
			c-0.419,0-0.763,0.14-1.032,0.42c-0.269,0.28-0.428,0.676-0.479,1.186H400.497z"/>
		<path d="M408.29,39.785l-1.586-2.338l-1.593,2.338h-2.017l2.604-3.5l-2.468-3.445h2.03l1.559,2.283l1.538-2.283h1.873
			l-2.393,3.432l2.522,3.514H408.29z"/>
		<path d="M410.833,42.588v-1.319h7.697v1.319H410.833z"/>
		<path d="M426.066,36.189c0,0.638-0.09,1.189-0.271,1.654c-0.18,0.465-0.431,0.851-0.752,1.159s-0.7,0.536-1.138,0.684
			s-0.914,0.222-1.429,0.222c-0.174,0-0.347-0.011-0.52-0.034c-0.174-0.023-0.331-0.052-0.472-0.089v2.714h-1.668v-9.659h1.442
			l0.041,1.025c0.141-0.178,0.288-0.339,0.44-0.485c0.153-0.146,0.318-0.27,0.496-0.373s0.369-0.181,0.574-0.236
			s0.435-0.082,0.69-0.082c0.41,0,0.774,0.082,1.094,0.246c0.318,0.164,0.587,0.397,0.803,0.701c0.217,0.303,0.382,0.67,0.496,1.101
			C426.008,35.167,426.066,35.651,426.066,36.189z M424.316,36.257c0-0.383-0.027-0.708-0.082-0.978s-0.134-0.49-0.236-0.663
			s-0.228-0.3-0.376-0.379c-0.147-0.08-0.317-0.12-0.509-0.12c-0.283,0-0.553,0.114-0.811,0.342
			c-0.257,0.228-0.529,0.538-0.816,0.93v3.035c0.132,0.05,0.295,0.091,0.488,0.123c0.194,0.032,0.391,0.048,0.592,0.048
			c0.264,0,0.505-0.055,0.721-0.164c0.217-0.109,0.401-0.264,0.554-0.465c0.153-0.201,0.271-0.445,0.353-0.735
			S424.316,36.617,424.316,36.257z"/>
		<path d="M433.903,36.257c0,0.547-0.077,1.047-0.232,1.5c-0.154,0.454-0.378,0.842-0.67,1.166
			c-0.291,0.324-0.649,0.574-1.073,0.752s-0.906,0.267-1.449,0.267c-0.515,0-0.975-0.075-1.381-0.226
			c-0.405-0.15-0.749-0.375-1.032-0.673c-0.282-0.298-0.499-0.672-0.649-1.121s-0.226-0.972-0.226-1.569
			c0-0.551,0.079-1.053,0.236-1.504s0.383-0.836,0.677-1.155s0.652-0.566,1.076-0.742s0.902-0.263,1.436-0.263
			c0.52,0,0.982,0.076,1.388,0.229c0.406,0.153,0.75,0.379,1.032,0.68c0.283,0.301,0.498,0.673,0.646,1.118
			C433.829,35.16,433.903,35.674,433.903,36.257z M432.167,36.298c0-0.72-0.136-1.261-0.406-1.624
			c-0.271-0.362-0.671-0.543-1.2-0.543c-0.291,0-0.54,0.057-0.745,0.171s-0.373,0.27-0.506,0.468
			c-0.132,0.198-0.229,0.43-0.29,0.694s-0.093,0.547-0.093,0.848c0,0.725,0.146,1.271,0.438,1.637c0.292,0.367,0.69,0.55,1.196,0.55
			c0.278,0,0.52-0.056,0.725-0.167s0.372-0.267,0.499-0.465c0.128-0.198,0.224-0.432,0.287-0.701
			C432.135,36.898,432.167,36.608,432.167,36.298z"/>
		<path d="M441.652,36.189c0,0.638-0.09,1.189-0.27,1.654c-0.181,0.465-0.431,0.851-0.752,1.159s-0.701,0.536-1.139,0.684
			s-0.913,0.222-1.429,0.222c-0.173,0-0.346-0.011-0.52-0.034c-0.173-0.023-0.33-0.052-0.472-0.089v2.714h-1.668v-9.659h1.442
			l0.041,1.025c0.142-0.178,0.288-0.339,0.441-0.485c0.152-0.146,0.317-0.27,0.495-0.373s0.369-0.181,0.574-0.236
			s0.436-0.082,0.69-0.082c0.41,0,0.775,0.082,1.094,0.246c0.319,0.164,0.587,0.397,0.804,0.701c0.216,0.303,0.382,0.67,0.495,1.101
			C441.595,35.167,441.652,35.651,441.652,36.189z M439.902,36.257c0-0.383-0.027-0.708-0.082-0.978s-0.133-0.49-0.235-0.663
			s-0.229-0.3-0.376-0.379c-0.148-0.08-0.318-0.12-0.51-0.12c-0.282,0-0.553,0.114-0.81,0.342c-0.258,0.228-0.53,0.538-0.817,0.93
			v3.035c0.133,0.05,0.295,0.091,0.489,0.123c0.193,0.032,0.391,0.048,0.591,0.048c0.265,0,0.505-0.055,0.722-0.164
			c0.216-0.109,0.4-0.264,0.554-0.465c0.152-0.201,0.27-0.445,0.352-0.735S439.902,36.617,439.902,36.257z"/>
		<path d="M444.8,32.839v4.525c0,0.378,0.071,0.664,0.212,0.858c0.142,0.194,0.355,0.291,0.643,0.291
			c0.278,0,0.546-0.115,0.804-0.345c0.257-0.23,0.529-0.541,0.816-0.933v-4.396h1.668v6.945h-1.442l-0.041-1.025
			c-0.146,0.178-0.294,0.339-0.444,0.485s-0.313,0.27-0.488,0.373c-0.176,0.103-0.367,0.182-0.574,0.239
			c-0.208,0.057-0.437,0.085-0.688,0.085c-0.355,0-0.666-0.058-0.933-0.174s-0.489-0.281-0.667-0.496s-0.311-0.471-0.399-0.769
			s-0.134-0.632-0.134-1.001v-4.662H444.8z"/>
		<path d="M452.742,31.424h-1.962v-1.299h3.671v8.36h2.003v1.299h-5.913v-1.299h2.201V31.424z"/>
		<path d="M462.395,39.785l-0.041-0.909c-0.146,0.155-0.298,0.297-0.458,0.427c-0.159,0.13-0.335,0.243-0.526,0.338
			s-0.399,0.17-0.625,0.222s-0.473,0.079-0.742,0.079c-0.355,0-0.667-0.052-0.937-0.157c-0.269-0.105-0.494-0.25-0.677-0.438
			c-0.182-0.187-0.32-0.413-0.413-0.677c-0.094-0.264-0.141-0.556-0.141-0.875c0-0.328,0.069-0.631,0.209-0.909
			c0.139-0.278,0.351-0.517,0.636-0.718c0.284-0.201,0.64-0.358,1.066-0.472c0.426-0.114,0.926-0.171,1.5-0.171h0.909v-0.417
			c0-0.178-0.024-0.338-0.075-0.482c-0.05-0.144-0.131-0.266-0.242-0.366c-0.112-0.1-0.257-0.178-0.435-0.232
			s-0.396-0.082-0.656-0.082c-0.41,0-0.814,0.047-1.213,0.14c-0.399,0.093-0.785,0.225-1.159,0.393v-1.333
			c0.333-0.132,0.717-0.242,1.152-0.328c0.435-0.086,0.888-0.13,1.356-0.13c0.516,0,0.957,0.049,1.326,0.147
			s0.674,0.245,0.913,0.441s0.416,0.441,0.529,0.735c0.114,0.294,0.171,0.637,0.171,1.029v4.744H462.395z M462.156,36.715h-1.019
			c-0.282,0-0.521,0.027-0.718,0.082c-0.195,0.055-0.355,0.13-0.479,0.226s-0.213,0.206-0.27,0.332
			c-0.058,0.125-0.086,0.259-0.086,0.4c0,0.283,0.092,0.498,0.273,0.646c0.183,0.148,0.431,0.222,0.745,0.222
			c0.232,0,0.475-0.084,0.725-0.253c0.251-0.168,0.526-0.41,0.827-0.725V36.715z"/>
		<path d="M471.375,39.716c-0.301,0.068-0.604,0.123-0.909,0.164c-0.306,0.041-0.595,0.062-0.868,0.062
			c-0.456,0-0.849-0.048-1.18-0.144c-0.33-0.096-0.604-0.242-0.82-0.438c-0.216-0.196-0.376-0.445-0.479-0.749
			s-0.153-0.664-0.153-1.083v-3.391h-1.866v-1.299h1.866v-1.777l1.709-0.444v2.222h2.7v1.299h-2.7v3.268
			c0,0.396,0.091,0.696,0.273,0.899c0.182,0.203,0.487,0.304,0.916,0.304c0.273,0,0.54-0.023,0.8-0.068s0.496-0.098,0.711-0.157
			V39.716z"/>
		<path d="M475.212,34.138h-1.962v-1.299h3.671v5.646h2.003v1.299h-5.913v-1.299h2.201V34.138z M477.058,30.939
			c0,0.15-0.027,0.292-0.082,0.424s-0.131,0.247-0.229,0.345c-0.099,0.098-0.213,0.175-0.346,0.232
			c-0.132,0.057-0.275,0.085-0.431,0.085c-0.154,0-0.3-0.028-0.434-0.085c-0.135-0.057-0.251-0.134-0.349-0.232
			c-0.099-0.098-0.175-0.213-0.229-0.345s-0.082-0.273-0.082-0.424s0.027-0.292,0.082-0.424s0.131-0.249,0.229-0.349
			c0.098-0.1,0.214-0.179,0.349-0.236c0.134-0.057,0.279-0.085,0.434-0.085c0.155,0,0.299,0.028,0.431,0.085
			c0.133,0.057,0.247,0.136,0.346,0.236c0.098,0.1,0.174,0.216,0.229,0.349S477.058,30.789,477.058,30.939z"/>
		<path d="M486.734,36.257c0,0.547-0.078,1.047-0.232,1.5c-0.155,0.454-0.379,0.842-0.67,1.166
			c-0.292,0.324-0.649,0.574-1.073,0.752s-0.907,0.267-1.449,0.267c-0.516,0-0.976-0.075-1.381-0.226
			c-0.406-0.15-0.75-0.375-1.032-0.673c-0.283-0.298-0.499-0.672-0.649-1.121s-0.226-0.972-0.226-1.569
			c0-0.551,0.078-1.053,0.235-1.504s0.383-0.836,0.677-1.155s0.653-0.566,1.077-0.742s0.902-0.263,1.436-0.263
			c0.52,0,0.981,0.076,1.388,0.229c0.405,0.153,0.749,0.379,1.032,0.68c0.282,0.301,0.498,0.673,0.646,1.118
			C486.66,35.16,486.734,35.674,486.734,36.257z M484.998,36.298c0-0.72-0.136-1.261-0.407-1.624
			c-0.271-0.362-0.671-0.543-1.199-0.543c-0.292,0-0.54,0.057-0.745,0.171s-0.374,0.27-0.506,0.468
			c-0.133,0.198-0.229,0.43-0.291,0.694s-0.092,0.547-0.092,0.848c0,0.725,0.146,1.271,0.438,1.637
			c0.291,0.367,0.69,0.55,1.196,0.55c0.277,0,0.52-0.056,0.725-0.167s0.371-0.267,0.499-0.465c0.127-0.198,0.223-0.432,0.287-0.701
			C484.965,36.898,484.998,36.608,484.998,36.298z"/>
		<path d="M492.378,39.785v-4.525c0-0.761-0.282-1.142-0.848-1.142c-0.282,0-0.553,0.114-0.81,0.342
			c-0.258,0.228-0.53,0.538-0.817,0.93v4.396h-1.668v-6.945h1.442l0.041,1.025c0.142-0.178,0.288-0.339,0.441-0.485
			c0.152-0.146,0.317-0.27,0.495-0.373s0.369-0.181,0.574-0.236s0.436-0.082,0.69-0.082c0.355,0,0.666,0.058,0.93,0.174
			c0.265,0.116,0.485,0.28,0.663,0.492s0.312,0.467,0.4,0.766s0.133,0.632,0.133,1.001v4.662H492.378z"/>
	</g>
	<g>
		<rect x="8.8" y="74.8" fill="none" width="189.2" height="22"/>
		<path d="M29.456,80.905c0,0.611-0.085,1.144-0.256,1.6s-0.407,0.834-0.708,1.135s-0.656,0.526-1.066,0.677
			s-0.854,0.226-1.333,0.226c-0.219,0-0.437-0.011-0.653-0.034s-0.437-0.062-0.66-0.116v2.871h-1.189v-9.666h1.06l0.075,1.148
			c0.342-0.469,0.707-0.799,1.094-0.988s0.807-0.284,1.258-0.284c0.392,0,0.736,0.082,1.032,0.246s0.544,0.396,0.745,0.694
			s0.351,0.659,0.451,1.08S29.456,80.386,29.456,80.905z M28.239,80.96c0-0.36-0.026-0.69-0.079-0.991s-0.136-0.558-0.25-0.772
			s-0.26-0.382-0.438-0.502s-0.39-0.181-0.636-0.181c-0.15,0-0.303,0.024-0.458,0.072s-0.315,0.127-0.482,0.239
			s-0.342,0.26-0.526,0.444s-0.382,0.414-0.591,0.687v3.329c0.219,0.091,0.449,0.163,0.69,0.215s0.479,0.079,0.711,0.079
			c0.643,0,1.146-0.218,1.511-0.653S28.239,81.835,28.239,80.96z"/>
		<path d="M35.568,84.46l-0.027-0.923c-0.374,0.369-0.753,0.636-1.138,0.8s-0.79,0.246-1.213,0.246c-0.392,0-0.727-0.05-1.005-0.15
			c-0.278-0.1-0.507-0.238-0.687-0.414s-0.312-0.382-0.396-0.619s-0.126-0.495-0.126-0.772c0-0.688,0.256-1.227,0.769-1.617
			c0.513-0.39,1.271-0.584,2.273-0.584h1.422v-0.602c0-0.406-0.13-0.73-0.39-0.974s-0.656-0.366-1.189-0.366
			c-0.387,0-0.769,0.043-1.145,0.13s-0.765,0.209-1.166,0.369v-1.073c0.15-0.055,0.318-0.108,0.502-0.161
			c0.185-0.052,0.379-0.099,0.584-0.14s0.419-0.074,0.643-0.099s0.449-0.038,0.677-0.038c0.415,0,0.789,0.045,1.121,0.137
			s0.614,0.23,0.844,0.417s0.407,0.421,0.53,0.704s0.185,0.615,0.185,0.998v4.73H35.568z M35.439,81.336h-1.511
			c-0.296,0-0.551,0.03-0.766,0.089s-0.39,0.144-0.526,0.253s-0.238,0.24-0.304,0.393s-0.099,0.325-0.099,0.516
			c0,0.132,0.021,0.259,0.062,0.379s0.107,0.228,0.198,0.321s0.209,0.167,0.355,0.222s0.324,0.082,0.533,0.082
			c0.273,0,0.587-0.083,0.94-0.25s0.726-0.43,1.118-0.79V81.336z"/>
		<path d="M38.946,77.597h1.087l0.034,1.265c0.406-0.488,0.806-0.841,1.2-1.06s0.792-0.328,1.193-0.328
			c0.711,0,1.25,0.23,1.617,0.69s0.537,1.144,0.509,2.051h-1.203c0.014-0.602-0.074-1.038-0.263-1.309s-0.466-0.407-0.831-0.407
			c-0.16,0-0.32,0.028-0.482,0.085s-0.328,0.148-0.499,0.273s-0.352,0.286-0.543,0.482s-0.396,0.433-0.615,0.711v4.409h-1.203
			V77.597z"/>
		<path d="M52.158,80.666c0,0.168-0.002,0.31-0.007,0.424s-0.011,0.221-0.021,0.321h-4.819c0,0.702,0.196,1.241,0.588,1.617
			s0.957,0.564,1.695,0.564c0.201,0,0.401-0.008,0.602-0.024s0.394-0.038,0.581-0.065s0.366-0.058,0.537-0.092
			s0.329-0.072,0.475-0.113v0.978c-0.324,0.091-0.689,0.165-1.097,0.222s-0.831,0.085-1.268,0.085c-0.588,0-1.094-0.08-1.518-0.239
			s-0.771-0.391-1.042-0.694s-0.472-0.674-0.602-1.114s-0.195-0.938-0.195-1.494c0-0.483,0.069-0.94,0.208-1.371
			s0.342-0.809,0.608-1.135s0.594-0.584,0.981-0.776s0.827-0.287,1.319-0.287c0.479,0,0.902,0.075,1.271,0.226
			s0.68,0.363,0.933,0.639s0.444,0.611,0.574,1.005S52.158,80.178,52.158,80.666z M50.921,80.495
			c0.014-0.305-0.016-0.584-0.089-0.837s-0.186-0.471-0.338-0.653s-0.343-0.325-0.571-0.427s-0.492-0.154-0.793-0.154
			c-0.26,0-0.497,0.05-0.711,0.15s-0.399,0.242-0.554,0.424s-0.28,0.401-0.376,0.656s-0.155,0.536-0.178,0.841H50.921z"/>
		<path d="M54.017,77.597h1.06l0.048,1.107c0.201-0.237,0.394-0.434,0.581-0.591s0.37-0.284,0.55-0.379s0.363-0.163,0.55-0.202
			s0.38-0.058,0.581-0.058c0.707,0,1.241,0.208,1.603,0.625s0.543,1.045,0.543,1.883v4.478h-1.189v-4.382
			c0-0.538-0.1-0.936-0.301-1.193s-0.499-0.386-0.896-0.386c-0.146,0-0.288,0.021-0.427,0.065s-0.284,0.119-0.434,0.226
			s-0.313,0.252-0.489,0.434s-0.373,0.41-0.591,0.684v4.553h-1.189V77.597z"/>
		<path d="M67.172,84.364c-0.269,0.068-0.547,0.117-0.834,0.147s-0.579,0.044-0.875,0.044c-0.861,0-1.504-0.195-1.928-0.584
			S62.9,82.983,62.9,82.177v-3.582h-1.921v-0.998H62.9V75.71l1.189-0.308v2.194h3.083v0.998h-3.083v3.486
			c0,0.492,0.131,0.86,0.393,1.104s0.648,0.366,1.159,0.366c0.219,0,0.458-0.017,0.718-0.051s0.531-0.088,0.813-0.161V84.364z"/>
		<path d="M75.906,87.263h-7.697v-0.984h7.697V87.263z"/>
		<path d="M82.275,84.46v-4.929c0-0.214-0.008-0.39-0.024-0.526s-0.041-0.245-0.075-0.325s-0.078-0.136-0.13-0.167
			s-0.117-0.048-0.195-0.048c-0.091,0-0.175,0.027-0.253,0.082s-0.161,0.144-0.25,0.267s-0.187,0.286-0.294,0.489
			s-0.233,0.452-0.379,0.749v4.409h-1.087v-4.799c0-0.25-0.008-0.454-0.024-0.608s-0.041-0.276-0.075-0.362
			s-0.079-0.146-0.133-0.178s-0.121-0.048-0.198-0.048c-0.082,0-0.16,0.023-0.232,0.068s-0.154,0.127-0.243,0.246
			s-0.188,0.28-0.297,0.485s-0.239,0.467-0.39,0.786v4.409h-1.094v-6.863h0.909l0.055,1.306c0.119-0.26,0.233-0.481,0.345-0.663
			s0.227-0.329,0.345-0.441s0.245-0.194,0.379-0.246s0.284-0.079,0.448-0.079c0.369,0,0.649,0.121,0.841,0.362
			s0.287,0.615,0.287,1.121c0.109-0.237,0.216-0.448,0.321-0.632s0.218-0.339,0.338-0.465s0.254-0.221,0.4-0.287
			s0.314-0.099,0.506-0.099c0.861,0,1.292,0.663,1.292,1.989v4.997H82.275z"/>
		<path d="M91.072,80.666c0,0.168-0.002,0.31-0.007,0.424s-0.011,0.221-0.021,0.321h-4.819c0,0.702,0.196,1.241,0.588,1.617
			s0.957,0.564,1.695,0.564c0.201,0,0.401-0.008,0.602-0.024s0.394-0.038,0.581-0.065s0.366-0.058,0.537-0.092
			s0.329-0.072,0.475-0.113v0.978c-0.324,0.091-0.689,0.165-1.097,0.222s-0.831,0.085-1.268,0.085c-0.588,0-1.094-0.08-1.518-0.239
			s-0.771-0.391-1.042-0.694s-0.472-0.674-0.602-1.114s-0.195-0.938-0.195-1.494c0-0.483,0.069-0.94,0.208-1.371
			s0.342-0.809,0.608-1.135s0.594-0.584,0.981-0.776s0.827-0.287,1.319-0.287c0.479,0,0.902,0.075,1.271,0.226
			s0.68,0.363,0.933,0.639s0.444,0.611,0.574,1.005S91.072,80.178,91.072,80.666z M89.835,80.495
			c0.014-0.305-0.016-0.584-0.089-0.837s-0.186-0.471-0.338-0.653s-0.343-0.325-0.571-0.427s-0.492-0.154-0.793-0.154
			c-0.26,0-0.497,0.05-0.711,0.15s-0.399,0.242-0.554,0.424s-0.28,0.401-0.376,0.656s-0.155,0.536-0.178,0.841H89.835z"/>
		<path d="M98.072,84.46v-4.929c0-0.214-0.008-0.39-0.024-0.526s-0.041-0.245-0.075-0.325s-0.078-0.136-0.13-0.167
			s-0.117-0.048-0.195-0.048c-0.091,0-0.175,0.027-0.253,0.082s-0.161,0.144-0.25,0.267s-0.187,0.286-0.294,0.489
			s-0.233,0.452-0.379,0.749v4.409h-1.087v-4.799c0-0.25-0.008-0.454-0.024-0.608s-0.041-0.276-0.075-0.362
			s-0.079-0.146-0.133-0.178s-0.121-0.048-0.198-0.048c-0.082,0-0.16,0.023-0.232,0.068s-0.154,0.127-0.243,0.246
			s-0.188,0.28-0.297,0.485s-0.239,0.467-0.39,0.786v4.409h-1.094v-6.863h0.909l0.055,1.306c0.119-0.26,0.233-0.481,0.345-0.663
			s0.227-0.329,0.345-0.441s0.245-0.194,0.379-0.246s0.284-0.079,0.448-0.079c0.369,0,0.649,0.121,0.841,0.362
			s0.287,0.615,0.287,1.121c0.109-0.237,0.216-0.448,0.321-0.632s0.218-0.339,0.338-0.465s0.254-0.221,0.4-0.287
			s0.314-0.099,0.506-0.099c0.861,0,1.292,0.663,1.292,1.989v4.997H98.072z"/>
		<path d="M107.118,80.974c0,0.533-0.075,1.022-0.226,1.466s-0.367,0.825-0.649,1.142s-0.626,0.563-1.032,0.738
			s-0.866,0.263-1.381,0.263c-0.492,0-0.933-0.076-1.323-0.229s-0.72-0.377-0.991-0.673s-0.479-0.663-0.622-1.101
			s-0.215-0.941-0.215-1.511c0-0.533,0.075-1.02,0.226-1.459s0.367-0.818,0.649-1.135s0.626-0.563,1.032-0.738
			s0.866-0.263,1.381-0.263c0.492,0,0.933,0.076,1.323,0.229s0.72,0.376,0.991,0.67s0.479,0.66,0.622,1.097
			S107.118,80.409,107.118,80.974z M105.901,81.028c0-0.424-0.047-0.794-0.14-1.111s-0.227-0.581-0.4-0.793
			s-0.384-0.372-0.632-0.479s-0.525-0.161-0.831-0.161c-0.355,0-0.66,0.069-0.913,0.208s-0.46,0.325-0.622,0.557
			s-0.28,0.502-0.355,0.81s-0.113,0.63-0.113,0.967c0,0.424,0.047,0.795,0.14,1.114s0.227,0.584,0.4,0.796s0.383,0.372,0.629,0.479
			s0.524,0.161,0.834,0.161c0.355,0,0.66-0.069,0.913-0.208s0.46-0.325,0.622-0.557s0.28-0.502,0.355-0.81
			S105.901,81.37,105.901,81.028z"/>
		<path d="M109.024,77.597h1.087l0.034,1.265c0.406-0.488,0.806-0.841,1.2-1.06s0.792-0.328,1.193-0.328
			c0.711,0,1.25,0.23,1.617,0.69c0.366,0.46,0.536,1.144,0.509,2.051h-1.203c0.014-0.602-0.074-1.038-0.263-1.309
			c-0.189-0.271-0.466-0.407-0.831-0.407c-0.16,0-0.32,0.028-0.482,0.085s-0.328,0.148-0.499,0.273s-0.352,0.286-0.543,0.482
			s-0.396,0.433-0.615,0.711v4.409h-1.203V77.597z"/>
		<path d="M122.466,77.597l-2.338,6.139c-0.242,0.625-0.491,1.162-0.749,1.613c-0.257,0.451-0.539,0.821-0.844,1.111
			c-0.306,0.29-0.641,0.502-1.005,0.639c-0.365,0.137-0.772,0.205-1.224,0.205c-0.119,0-0.226-0.002-0.321-0.007
			s-0.201-0.011-0.314-0.021v-1.08c0.1,0.014,0.209,0.026,0.328,0.038c0.118,0.011,0.243,0.017,0.376,0.017
			c0.219,0,0.423-0.032,0.611-0.096c0.189-0.064,0.368-0.167,0.537-0.311c0.168-0.144,0.33-0.329,0.485-0.557
			c0.154-0.228,0.305-0.503,0.451-0.827l-2.741-6.863h1.354l1.736,4.539l0.349,1.066l0.396-1.094l1.606-4.512H122.466z"/>
		<path d="M131.352,87.263h-7.697v-0.984h7.697V87.263z"/>
		<path d="M136.97,84.46l-0.027-0.923c-0.374,0.369-0.753,0.636-1.139,0.8c-0.385,0.164-0.789,0.246-1.213,0.246
			c-0.393,0-0.728-0.05-1.005-0.15c-0.278-0.1-0.507-0.238-0.688-0.414c-0.18-0.175-0.312-0.382-0.396-0.619
			c-0.084-0.237-0.126-0.495-0.126-0.772c0-0.688,0.256-1.227,0.769-1.617s1.271-0.584,2.273-0.584h1.422v-0.602
			c0-0.406-0.13-0.73-0.39-0.974s-0.656-0.366-1.189-0.366c-0.388,0-0.77,0.043-1.146,0.13s-0.765,0.209-1.165,0.369v-1.073
			c0.15-0.055,0.317-0.108,0.502-0.161s0.38-0.099,0.585-0.14s0.419-0.074,0.643-0.099c0.223-0.025,0.448-0.038,0.677-0.038
			c0.414,0,0.788,0.045,1.121,0.137c0.332,0.091,0.614,0.23,0.844,0.417c0.23,0.187,0.407,0.421,0.53,0.704s0.185,0.615,0.185,0.998
			v4.73H136.97z M136.84,81.336h-1.511c-0.297,0-0.552,0.03-0.766,0.089c-0.215,0.059-0.39,0.144-0.526,0.253
			s-0.238,0.24-0.305,0.393c-0.065,0.153-0.099,0.325-0.099,0.516c0,0.132,0.021,0.259,0.062,0.379s0.106,0.228,0.198,0.321
			c0.091,0.093,0.209,0.167,0.355,0.222c0.146,0.055,0.323,0.082,0.533,0.082c0.273,0,0.587-0.083,0.939-0.25
			c0.354-0.167,0.726-0.43,1.118-0.79V81.336z"/>
		<path d="M139.883,81.172c0-0.583,0.079-1.102,0.239-1.555c0.159-0.454,0.386-0.836,0.68-1.148s0.647-0.549,1.06-0.711
			c0.413-0.162,0.872-0.243,1.378-0.243c0.219,0,0.434,0.014,0.646,0.041s0.421,0.071,0.626,0.13v-2.885h1.196v9.659h-1.066
			l-0.041-1.299c-0.333,0.483-0.693,0.841-1.08,1.073c-0.388,0.232-0.807,0.349-1.258,0.349c-0.393,0-0.737-0.082-1.036-0.246
			c-0.298-0.164-0.547-0.396-0.745-0.694s-0.348-0.657-0.447-1.077C139.933,82.147,139.883,81.682,139.883,81.172z M141.1,81.097
			c0,0.83,0.122,1.448,0.365,1.856c0.244,0.408,0.589,0.612,1.036,0.612c0.301,0,0.618-0.134,0.953-0.403s0.688-0.667,1.057-1.196
			v-3.186c-0.196-0.091-0.413-0.161-0.649-0.208c-0.237-0.048-0.472-0.072-0.704-0.072c-0.647,0-1.152,0.209-1.515,0.629
			S141.1,80.204,141.1,81.097z"/>
		<path d="M147.575,81.172c0-0.583,0.079-1.102,0.239-1.555c0.159-0.454,0.386-0.836,0.68-1.148s0.647-0.549,1.06-0.711
			c0.413-0.162,0.872-0.243,1.378-0.243c0.219,0,0.434,0.014,0.646,0.041s0.421,0.071,0.626,0.13v-2.885h1.196v9.659h-1.066
			l-0.041-1.299c-0.333,0.483-0.693,0.841-1.08,1.073c-0.388,0.232-0.807,0.349-1.258,0.349c-0.393,0-0.737-0.082-1.036-0.246
			c-0.298-0.164-0.547-0.396-0.745-0.694s-0.348-0.657-0.447-1.077C147.625,82.147,147.575,81.682,147.575,81.172z M148.792,81.097
			c0,0.83,0.122,1.448,0.365,1.856c0.244,0.408,0.589,0.612,1.036,0.612c0.301,0,0.618-0.134,0.953-0.403s0.688-0.667,1.057-1.196
			v-3.186c-0.196-0.091-0.413-0.161-0.649-0.208c-0.237-0.048-0.472-0.072-0.704-0.072c-0.647,0-1.152,0.209-1.515,0.629
			S148.792,80.204,148.792,81.097z"/>
		<path d="M155.716,77.597h1.087l0.034,1.265c0.405-0.488,0.806-0.841,1.199-1.06c0.395-0.219,0.792-0.328,1.193-0.328
			c0.711,0,1.25,0.23,1.616,0.69c0.367,0.46,0.537,1.144,0.51,2.051h-1.203c0.014-0.602-0.074-1.038-0.264-1.309
			c-0.188-0.271-0.466-0.407-0.83-0.407c-0.16,0-0.32,0.028-0.482,0.085c-0.161,0.057-0.328,0.148-0.499,0.273
			s-0.352,0.286-0.543,0.482s-0.396,0.433-0.615,0.711v4.409h-1.203V77.597z"/>
		<path d="M168.927,80.666c0,0.168-0.003,0.31-0.007,0.424c-0.005,0.114-0.012,0.221-0.021,0.321h-4.819
			c0,0.702,0.195,1.241,0.588,1.617c0.392,0.376,0.957,0.564,1.695,0.564c0.2,0,0.4-0.008,0.602-0.024
			c0.2-0.016,0.394-0.038,0.581-0.065c0.187-0.027,0.365-0.058,0.536-0.092s0.329-0.072,0.476-0.113v0.978
			c-0.324,0.091-0.689,0.165-1.098,0.222c-0.407,0.057-0.83,0.085-1.268,0.085c-0.588,0-1.094-0.08-1.518-0.239
			s-0.771-0.391-1.043-0.694c-0.271-0.303-0.472-0.674-0.602-1.114s-0.194-0.938-0.194-1.494c0-0.483,0.069-0.94,0.208-1.371
			c0.14-0.431,0.342-0.809,0.608-1.135s0.594-0.584,0.981-0.776c0.387-0.191,0.827-0.287,1.319-0.287
			c0.479,0,0.902,0.075,1.271,0.226s0.68,0.363,0.933,0.639s0.444,0.611,0.574,1.005S168.927,80.178,168.927,80.666z M167.69,80.495
			c0.014-0.305-0.017-0.584-0.089-0.837c-0.073-0.253-0.186-0.471-0.339-0.653c-0.152-0.182-0.343-0.325-0.57-0.427
			c-0.229-0.103-0.492-0.154-0.793-0.154c-0.26,0-0.497,0.05-0.711,0.15c-0.215,0.1-0.399,0.242-0.554,0.424
			c-0.155,0.182-0.28,0.401-0.376,0.656s-0.155,0.536-0.178,0.841H167.69z"/>
		<path d="M175.917,82.587c0,0.242-0.041,0.458-0.123,0.649s-0.194,0.361-0.335,0.509c-0.142,0.148-0.306,0.274-0.492,0.379
			c-0.188,0.105-0.387,0.191-0.599,0.26s-0.43,0.119-0.652,0.15c-0.224,0.032-0.442,0.048-0.656,0.048
			c-0.465,0-0.893-0.021-1.282-0.062s-0.771-0.107-1.145-0.198V83.23c0.4,0.114,0.8,0.201,1.196,0.26s0.79,0.089,1.183,0.089
			c0.569,0,0.991-0.078,1.265-0.232s0.41-0.376,0.41-0.663c0-0.123-0.021-0.233-0.065-0.332c-0.043-0.098-0.122-0.191-0.235-0.28
			c-0.114-0.089-0.291-0.181-0.53-0.277s-0.566-0.205-0.98-0.328c-0.311-0.091-0.596-0.195-0.858-0.311
			c-0.262-0.116-0.488-0.254-0.68-0.414s-0.342-0.346-0.451-0.561s-0.164-0.467-0.164-0.759c0-0.191,0.044-0.401,0.133-0.629
			s0.24-0.44,0.455-0.636c0.214-0.196,0.503-0.359,0.868-0.489c0.364-0.13,0.82-0.195,1.367-0.195c0.269,0,0.567,0.015,0.896,0.044
			s0.67,0.081,1.025,0.154v1.06c-0.374-0.091-0.729-0.158-1.063-0.202s-0.625-0.065-0.871-0.065c-0.297,0-0.546,0.023-0.749,0.068
			c-0.202,0.045-0.366,0.108-0.492,0.188c-0.125,0.08-0.215,0.173-0.27,0.28s-0.082,0.222-0.082,0.345s0.023,0.235,0.071,0.335
			s0.137,0.197,0.267,0.291s0.312,0.187,0.544,0.28s0.535,0.195,0.909,0.304c0.405,0.119,0.747,0.243,1.025,0.373
			c0.277,0.13,0.503,0.274,0.677,0.434c0.173,0.16,0.297,0.339,0.372,0.54S175.917,82.332,175.917,82.587z"/>
		<path d="M183.133,82.587c0,0.242-0.041,0.458-0.123,0.649s-0.193,0.361-0.335,0.509c-0.141,0.148-0.305,0.274-0.492,0.379
			c-0.187,0.105-0.386,0.191-0.598,0.26s-0.43,0.119-0.653,0.15c-0.223,0.032-0.441,0.048-0.656,0.048
			c-0.465,0-0.892-0.021-1.281-0.062s-0.771-0.107-1.146-0.198V83.23c0.401,0.114,0.8,0.201,1.196,0.26s0.791,0.089,1.183,0.089
			c0.57,0,0.991-0.078,1.265-0.232s0.41-0.376,0.41-0.663c0-0.123-0.021-0.233-0.064-0.332c-0.044-0.098-0.122-0.191-0.236-0.28
			c-0.113-0.089-0.29-0.181-0.529-0.277s-0.566-0.205-0.981-0.328c-0.31-0.091-0.596-0.195-0.857-0.311
			c-0.263-0.116-0.489-0.254-0.681-0.414s-0.342-0.346-0.451-0.561s-0.164-0.467-0.164-0.759c0-0.191,0.045-0.401,0.134-0.629
			s0.24-0.44,0.454-0.636c0.215-0.196,0.504-0.359,0.868-0.489c0.365-0.13,0.82-0.195,1.367-0.195c0.27,0,0.567,0.015,0.896,0.044
			s0.67,0.081,1.025,0.154v1.06c-0.373-0.091-0.728-0.158-1.062-0.202s-0.626-0.065-0.872-0.065c-0.296,0-0.546,0.023-0.748,0.068
			c-0.203,0.045-0.367,0.108-0.492,0.188c-0.126,0.08-0.216,0.173-0.271,0.28s-0.082,0.222-0.082,0.345s0.024,0.235,0.072,0.335
			s0.137,0.197,0.267,0.291s0.311,0.187,0.543,0.28s0.536,0.195,0.909,0.304c0.406,0.119,0.748,0.243,1.025,0.373
			c0.278,0.13,0.504,0.274,0.677,0.434c0.174,0.16,0.298,0.339,0.373,0.54S183.133,82.332,183.133,82.587z"/>
	</g>
	<g>
		<rect x="312.4" y="74.8" fill="none" width="189.2" height="22"/>
		<path d="M375.52,84.207c-0.311,0.119-0.628,0.206-0.954,0.263c-0.325,0.057-0.662,0.085-1.008,0.085
			c-1.085,0-1.92-0.294-2.506-0.882c-0.585-0.588-0.878-1.447-0.878-2.577c0-0.542,0.084-1.035,0.253-1.477
			c0.168-0.442,0.405-0.82,0.711-1.135c0.305-0.314,0.67-0.557,1.094-0.728s0.891-0.256,1.401-0.256
			c0.355,0,0.688,0.025,0.998,0.075c0.31,0.05,0.605,0.132,0.889,0.246v1.135c-0.297-0.155-0.599-0.268-0.906-0.338
			s-0.625-0.106-0.953-0.106c-0.306,0-0.594,0.058-0.865,0.174c-0.271,0.116-0.509,0.284-0.714,0.502s-0.367,0.485-0.485,0.8
			c-0.119,0.314-0.178,0.67-0.178,1.066c0,0.83,0.201,1.45,0.604,1.863s0.963,0.619,1.679,0.619c0.323,0,0.637-0.037,0.939-0.109
			c0.304-0.073,0.596-0.182,0.879-0.328V84.207z"/>
		<path d="M381.947,84.46l-0.027-0.923c-0.373,0.369-0.753,0.636-1.138,0.8c-0.386,0.164-0.79,0.246-1.214,0.246
			c-0.392,0-0.727-0.05-1.005-0.15c-0.277-0.1-0.507-0.238-0.687-0.414c-0.181-0.175-0.312-0.382-0.396-0.619
			c-0.085-0.237-0.127-0.495-0.127-0.772c0-0.688,0.257-1.227,0.77-1.617s1.271-0.584,2.272-0.584h1.422v-0.602
			c0-0.406-0.13-0.73-0.39-0.974s-0.656-0.366-1.189-0.366c-0.387,0-0.769,0.043-1.145,0.13s-0.765,0.209-1.166,0.369v-1.073
			c0.15-0.055,0.318-0.108,0.503-0.161s0.379-0.099,0.584-0.14s0.42-0.074,0.643-0.099c0.224-0.025,0.449-0.038,0.677-0.038
			c0.415,0,0.789,0.045,1.121,0.137c0.333,0.091,0.614,0.23,0.845,0.417c0.229,0.187,0.406,0.421,0.529,0.704
			s0.185,0.615,0.185,0.998v4.73H381.947z M381.817,81.336h-1.511c-0.296,0-0.551,0.03-0.766,0.089
			c-0.214,0.059-0.39,0.144-0.526,0.253s-0.238,0.24-0.304,0.393c-0.066,0.153-0.1,0.325-0.1,0.516c0,0.132,0.021,0.259,0.062,0.379
			s0.107,0.228,0.198,0.321c0.092,0.093,0.21,0.167,0.355,0.222c0.146,0.055,0.324,0.082,0.533,0.082c0.273,0,0.587-0.083,0.94-0.25
			c0.353-0.167,0.726-0.43,1.117-0.79V81.336z"/>
		<path d="M390.678,84.364c-0.269,0.068-0.547,0.117-0.834,0.147s-0.578,0.044-0.875,0.044c-0.861,0-1.504-0.195-1.928-0.584
			s-0.636-0.988-0.636-1.794v-3.582h-1.921v-0.998h1.921V75.71l1.189-0.308v2.194h3.083v0.998h-3.083v3.486
			c0,0.492,0.131,0.86,0.394,1.104c0.262,0.244,0.648,0.366,1.158,0.366c0.219,0,0.458-0.017,0.718-0.051s0.531-0.088,0.813-0.161
			V84.364z"/>
		<path d="M397.007,84.46l-0.027-0.923c-0.374,0.369-0.753,0.636-1.139,0.8c-0.385,0.164-0.789,0.246-1.213,0.246
			c-0.393,0-0.728-0.05-1.005-0.15c-0.278-0.1-0.507-0.238-0.688-0.414c-0.18-0.175-0.312-0.382-0.396-0.619
			c-0.084-0.237-0.126-0.495-0.126-0.772c0-0.688,0.256-1.227,0.769-1.617s1.271-0.584,2.273-0.584h1.422v-0.602
			c0-0.406-0.13-0.73-0.39-0.974s-0.656-0.366-1.189-0.366c-0.388,0-0.77,0.043-1.146,0.13s-0.765,0.209-1.165,0.369v-1.073
			c0.15-0.055,0.317-0.108,0.502-0.161s0.38-0.099,0.585-0.14s0.419-0.074,0.643-0.099c0.223-0.025,0.448-0.038,0.677-0.038
			c0.414,0,0.788,0.045,1.121,0.137c0.332,0.091,0.614,0.23,0.844,0.417c0.23,0.187,0.407,0.421,0.53,0.704s0.185,0.615,0.185,0.998
			v4.73H397.007z M396.878,81.336h-1.511c-0.297,0-0.552,0.03-0.766,0.089c-0.215,0.059-0.39,0.144-0.526,0.253
			s-0.238,0.24-0.305,0.393c-0.065,0.153-0.099,0.325-0.099,0.516c0,0.132,0.021,0.259,0.062,0.379s0.106,0.228,0.198,0.321
			c0.091,0.093,0.209,0.167,0.355,0.222c0.146,0.055,0.323,0.082,0.533,0.082c0.273,0,0.587-0.083,0.939-0.25
			c0.354-0.167,0.726-0.43,1.118-0.79V81.336z"/>
		<path d="M402.244,75.778h-2.03v-0.978h3.233v8.668h2.044v0.991h-5.503v-0.991h2.256V75.778z"/>
		<path d="M413.273,80.974c0,0.533-0.075,1.022-0.226,1.466s-0.367,0.825-0.649,1.142c-0.283,0.317-0.627,0.563-1.032,0.738
			c-0.406,0.175-0.866,0.263-1.381,0.263c-0.492,0-0.934-0.076-1.323-0.229s-0.72-0.377-0.991-0.673
			c-0.271-0.296-0.479-0.663-0.622-1.101s-0.215-0.941-0.215-1.511c0-0.533,0.075-1.02,0.226-1.459s0.366-0.818,0.649-1.135
			c0.282-0.317,0.626-0.563,1.032-0.738c0.405-0.175,0.865-0.263,1.381-0.263c0.492,0,0.933,0.076,1.322,0.229
			s0.721,0.376,0.991,0.67c0.271,0.294,0.479,0.66,0.622,1.097S413.273,80.409,413.273,80.974z M412.056,81.028
			c0-0.424-0.047-0.794-0.141-1.111c-0.093-0.317-0.227-0.581-0.399-0.793c-0.174-0.212-0.384-0.372-0.633-0.479
			c-0.248-0.107-0.525-0.161-0.83-0.161c-0.355,0-0.66,0.069-0.913,0.208s-0.46,0.325-0.622,0.557
			c-0.161,0.232-0.28,0.502-0.355,0.81s-0.112,0.63-0.112,0.967c0,0.424,0.047,0.795,0.14,1.114c0.094,0.319,0.227,0.584,0.4,0.796
			c0.173,0.212,0.383,0.372,0.629,0.479s0.523,0.161,0.834,0.161c0.355,0,0.659-0.069,0.912-0.208s0.461-0.325,0.622-0.557
			c0.162-0.232,0.28-0.502,0.355-0.81S412.056,81.37,412.056,81.028z"/>
		<path d="M419.897,78.567c0.127,0.16,0.227,0.345,0.297,0.557c0.071,0.212,0.106,0.441,0.106,0.687c0,0.355-0.065,0.68-0.195,0.974
			s-0.313,0.546-0.55,0.755c-0.237,0.209-0.521,0.373-0.852,0.489c-0.33,0.116-0.693,0.174-1.09,0.174
			c-0.287,0-0.557-0.031-0.807-0.092c-0.251-0.062-0.449-0.138-0.595-0.229c-0.087,0.127-0.16,0.249-0.219,0.362
			c-0.06,0.114-0.089,0.242-0.089,0.383c0,0.173,0.083,0.317,0.249,0.431c0.167,0.114,0.387,0.175,0.66,0.185l1.805,0.068
			c0.342,0.009,0.657,0.052,0.946,0.13c0.29,0.078,0.538,0.189,0.745,0.335c0.208,0.146,0.369,0.326,0.485,0.54
			s0.175,0.462,0.175,0.745c0,0.305-0.066,0.595-0.198,0.868c-0.133,0.273-0.336,0.514-0.612,0.721
			c-0.275,0.208-0.625,0.373-1.049,0.496s-0.928,0.185-1.511,0.185c-0.557,0-1.029-0.044-1.419-0.133s-0.71-0.212-0.96-0.369
			c-0.251-0.157-0.434-0.344-0.547-0.561c-0.114-0.216-0.171-0.455-0.171-0.714c0-0.333,0.077-0.625,0.232-0.875
			c0.154-0.25,0.394-0.492,0.718-0.725c-0.119-0.055-0.222-0.123-0.308-0.205c-0.087-0.082-0.157-0.172-0.212-0.27
			s-0.096-0.202-0.123-0.311s-0.041-0.216-0.041-0.321c0-0.296,0.069-0.567,0.208-0.813c0.14-0.246,0.305-0.479,0.496-0.697
			c-0.087-0.105-0.163-0.208-0.229-0.308c-0.065-0.1-0.123-0.208-0.171-0.325s-0.084-0.242-0.109-0.376
			c-0.024-0.134-0.037-0.288-0.037-0.461c0-0.355,0.064-0.68,0.194-0.974s0.312-0.546,0.547-0.755
			c0.235-0.209,0.518-0.373,0.848-0.489c0.331-0.116,0.696-0.174,1.098-0.174c0.168,0,0.33,0.011,0.485,0.034
			c0.154,0.023,0.291,0.052,0.41,0.089h2.488v0.971H419.897z M415.768,85.451c0,0.324,0.168,0.56,0.506,0.708
			c0.337,0.148,0.807,0.222,1.408,0.222c0.378,0,0.696-0.034,0.953-0.103c0.258-0.068,0.465-0.158,0.622-0.27
			s0.271-0.239,0.339-0.383s0.103-0.291,0.103-0.441c0-0.278-0.114-0.483-0.342-0.615c-0.229-0.132-0.577-0.209-1.046-0.232
			l-1.791-0.062c-0.15,0.1-0.274,0.198-0.373,0.294c-0.098,0.096-0.174,0.192-0.229,0.291s-0.094,0.196-0.116,0.294
			C415.779,85.252,415.768,85.351,415.768,85.451z M416.13,79.839c0,0.219,0.036,0.419,0.109,0.602
			c0.072,0.182,0.175,0.337,0.308,0.465c0.132,0.127,0.288,0.227,0.468,0.297c0.181,0.071,0.38,0.106,0.599,0.106
			c0.236,0,0.447-0.04,0.632-0.12s0.34-0.188,0.465-0.325c0.126-0.137,0.222-0.294,0.287-0.472c0.066-0.178,0.1-0.362,0.1-0.554
			c0-0.219-0.037-0.419-0.109-0.602c-0.073-0.182-0.176-0.337-0.308-0.465c-0.133-0.127-0.288-0.227-0.469-0.297
			c-0.18-0.071-0.379-0.106-0.598-0.106c-0.237,0-0.448,0.041-0.633,0.123s-0.339,0.19-0.465,0.325
			c-0.125,0.134-0.221,0.291-0.287,0.468C416.164,79.463,416.13,79.648,416.13,79.839z"/>
		<path d="M429.911,87.263h-7.697v-0.984h7.697V87.263z"/>
		<path d="M433.24,78.581h-2.03v-0.984h3.233v5.872h2.044v0.991h-5.503v-0.991h2.256V78.581z M433.657,74.719
			c0.133,0,0.256,0.024,0.369,0.072c0.114,0.048,0.213,0.115,0.298,0.202c0.084,0.086,0.15,0.186,0.198,0.297
			s0.071,0.233,0.071,0.366c0,0.127-0.023,0.249-0.071,0.362s-0.114,0.214-0.198,0.301c-0.085,0.086-0.184,0.154-0.298,0.202
			c-0.113,0.048-0.236,0.072-0.369,0.072c-0.132,0-0.255-0.024-0.369-0.072c-0.113-0.048-0.213-0.115-0.297-0.202
			c-0.085-0.086-0.15-0.187-0.198-0.301s-0.072-0.235-0.072-0.362c0-0.132,0.024-0.254,0.072-0.366s0.113-0.211,0.198-0.297
			c0.084-0.086,0.184-0.154,0.297-0.202C433.402,74.743,433.525,74.719,433.657,74.719z"/>
		<path d="M437.954,81.172c0-0.583,0.08-1.102,0.239-1.555c0.16-0.454,0.387-0.836,0.681-1.148s0.646-0.549,1.06-0.711
			c0.412-0.162,0.871-0.243,1.377-0.243c0.219,0,0.435,0.014,0.646,0.041s0.42,0.071,0.625,0.13v-2.885h1.196v9.659h-1.066
			l-0.041-1.299c-0.332,0.483-0.692,0.841-1.08,1.073c-0.387,0.232-0.807,0.349-1.258,0.349c-0.392,0-0.737-0.082-1.035-0.246
			c-0.299-0.164-0.547-0.396-0.745-0.694s-0.348-0.657-0.448-1.077C438.004,82.147,437.954,81.682,437.954,81.172z M439.171,81.097
			c0,0.83,0.122,1.448,0.366,1.856c0.243,0.408,0.589,0.612,1.035,0.612c0.301,0,0.619-0.134,0.954-0.403s0.687-0.667,1.056-1.196
			v-3.186c-0.195-0.091-0.412-0.161-0.649-0.208c-0.236-0.048-0.472-0.072-0.704-0.072c-0.646,0-1.151,0.209-1.514,0.629
			S439.171,80.204,439.171,81.097z"/>
	</g>
	<g>
		<rect x="312.4" y="114.4" fill="none" width="189.2" height="22"/>
		<path d="M366.318,120.772c0-0.583,0.08-1.102,0.239-1.555c0.16-0.454,0.387-0.836,0.681-1.148s0.646-0.549,1.06-0.711
			c0.412-0.162,0.871-0.243,1.377-0.243c0.219,0,0.435,0.014,0.646,0.041s0.42,0.071,0.625,0.13V114.4h1.196v9.659h-1.066
			l-0.041-1.299c-0.332,0.483-0.692,0.841-1.08,1.073c-0.387,0.232-0.807,0.349-1.258,0.349c-0.392,0-0.737-0.082-1.035-0.246
			c-0.299-0.164-0.547-0.396-0.745-0.694s-0.348-0.657-0.448-1.077C366.369,121.747,366.318,121.282,366.318,120.772z
			 M367.535,120.696c0,0.83,0.122,1.448,0.366,1.856c0.243,0.408,0.589,0.612,1.035,0.612c0.301,0,0.619-0.134,0.954-0.403
			s0.687-0.667,1.056-1.196v-3.186c-0.195-0.091-0.412-0.161-0.649-0.208c-0.236-0.048-0.472-0.072-0.704-0.072
			c-0.646,0-1.151,0.209-1.514,0.629S367.535,119.803,367.535,120.696z"/>
		<path d="M378.575,124.06l-0.027-0.923c-0.374,0.369-0.753,0.636-1.139,0.8c-0.385,0.164-0.789,0.246-1.213,0.246
			c-0.393,0-0.728-0.05-1.005-0.15c-0.278-0.1-0.507-0.238-0.688-0.414c-0.18-0.175-0.312-0.382-0.396-0.619
			c-0.084-0.237-0.126-0.495-0.126-0.772c0-0.688,0.256-1.227,0.769-1.617s1.271-0.584,2.273-0.584h1.422v-0.602
			c0-0.406-0.13-0.73-0.39-0.974s-0.656-0.366-1.189-0.366c-0.388,0-0.77,0.043-1.146,0.13s-0.765,0.209-1.165,0.369v-1.073
			c0.15-0.055,0.317-0.108,0.502-0.161s0.38-0.099,0.585-0.14s0.419-0.074,0.643-0.099c0.223-0.025,0.448-0.038,0.677-0.038
			c0.414,0,0.788,0.045,1.121,0.137c0.332,0.091,0.614,0.23,0.844,0.417c0.23,0.187,0.407,0.421,0.53,0.704s0.185,0.615,0.185,0.998
			v4.73H378.575z M378.445,120.936h-1.511c-0.297,0-0.552,0.03-0.766,0.089c-0.215,0.059-0.39,0.144-0.526,0.253
			s-0.238,0.24-0.305,0.393c-0.065,0.153-0.099,0.325-0.099,0.516c0,0.132,0.021,0.259,0.062,0.379s0.106,0.228,0.198,0.321
			c0.091,0.093,0.209,0.167,0.355,0.222c0.146,0.055,0.323,0.082,0.533,0.082c0.273,0,0.587-0.083,0.939-0.25
			c0.354-0.167,0.726-0.43,1.118-0.79V120.936z"/>
		<path d="M387.306,123.964c-0.27,0.068-0.547,0.117-0.834,0.147s-0.579,0.044-0.875,0.044c-0.861,0-1.504-0.195-1.928-0.584
			s-0.636-0.988-0.636-1.794v-3.582h-1.921v-0.998h1.921v-1.887l1.189-0.308v2.194h3.083v0.998h-3.083v3.486
			c0,0.492,0.131,0.86,0.393,1.104c0.263,0.244,0.648,0.366,1.159,0.366c0.219,0,0.458-0.017,0.718-0.051s0.53-0.088,0.813-0.161
			V123.964z"/>
		<path d="M393.634,124.06l-0.027-0.923c-0.373,0.369-0.753,0.636-1.138,0.8c-0.386,0.164-0.79,0.246-1.214,0.246
			c-0.392,0-0.727-0.05-1.005-0.15c-0.277-0.1-0.507-0.238-0.687-0.414c-0.181-0.175-0.312-0.382-0.396-0.619
			c-0.085-0.237-0.127-0.495-0.127-0.772c0-0.688,0.257-1.227,0.77-1.617s1.271-0.584,2.272-0.584h1.422v-0.602
			c0-0.406-0.13-0.73-0.39-0.974s-0.656-0.366-1.189-0.366c-0.387,0-0.769,0.043-1.145,0.13s-0.765,0.209-1.166,0.369v-1.073
			c0.15-0.055,0.318-0.108,0.503-0.161s0.379-0.099,0.584-0.14s0.42-0.074,0.643-0.099c0.224-0.025,0.449-0.038,0.677-0.038
			c0.415,0,0.789,0.045,1.121,0.137c0.333,0.091,0.614,0.23,0.845,0.417c0.229,0.187,0.406,0.421,0.529,0.704
			s0.185,0.615,0.185,0.998v4.73H393.634z M393.504,120.936h-1.511c-0.296,0-0.551,0.03-0.766,0.089
			c-0.214,0.059-0.39,0.144-0.526,0.253s-0.238,0.24-0.304,0.393c-0.066,0.153-0.1,0.325-0.1,0.516c0,0.132,0.021,0.259,0.062,0.379
			s0.107,0.228,0.198,0.321c0.092,0.093,0.21,0.167,0.355,0.222c0.146,0.055,0.324,0.082,0.533,0.082c0.273,0,0.587-0.083,0.94-0.25
			c0.353-0.167,0.726-0.43,1.117-0.79V120.936z"/>
		<path d="M402.732,120.505c0,0.57-0.079,1.079-0.236,1.528s-0.38,0.83-0.67,1.142c-0.289,0.312-0.642,0.551-1.056,0.718
			c-0.415,0.167-0.882,0.25-1.401,0.25c-0.406,0-0.82-0.039-1.244-0.116s-0.844-0.201-1.258-0.369V114.4h1.189v2.659l-0.055,1.271
			c0.342-0.46,0.707-0.785,1.097-0.974s0.808-0.284,1.255-0.284c0.392,0,0.735,0.082,1.032,0.246
			c0.296,0.164,0.544,0.396,0.745,0.694c0.2,0.298,0.351,0.659,0.451,1.08C402.681,119.515,402.732,119.985,402.732,120.505z
			 M401.515,120.56c0-0.36-0.026-0.69-0.079-0.991c-0.052-0.301-0.136-0.558-0.249-0.772c-0.114-0.214-0.26-0.382-0.438-0.502
			s-0.39-0.181-0.636-0.181c-0.15,0-0.304,0.024-0.458,0.072c-0.155,0.048-0.315,0.127-0.482,0.239
			c-0.166,0.112-0.342,0.26-0.526,0.444s-0.382,0.414-0.591,0.687v3.329c0.232,0.091,0.469,0.163,0.711,0.215
			c0.241,0.052,0.472,0.079,0.69,0.079c0.273,0,0.534-0.043,0.782-0.13c0.249-0.086,0.468-0.231,0.656-0.434
			c0.189-0.203,0.34-0.472,0.451-0.807C401.46,121.472,401.515,121.056,401.515,120.56z"/>
		<path d="M408.837,124.06l-0.027-0.923c-0.374,0.369-0.753,0.636-1.139,0.8c-0.385,0.164-0.789,0.246-1.213,0.246
			c-0.393,0-0.728-0.05-1.005-0.15c-0.278-0.1-0.507-0.238-0.688-0.414c-0.18-0.175-0.312-0.382-0.396-0.619
			c-0.084-0.237-0.126-0.495-0.126-0.772c0-0.688,0.256-1.227,0.769-1.617s1.271-0.584,2.273-0.584h1.422v-0.602
			c0-0.406-0.13-0.73-0.39-0.974s-0.656-0.366-1.189-0.366c-0.388,0-0.77,0.043-1.146,0.13s-0.765,0.209-1.165,0.369v-1.073
			c0.15-0.055,0.317-0.108,0.502-0.161s0.38-0.099,0.585-0.14s0.419-0.074,0.643-0.099c0.223-0.025,0.448-0.038,0.677-0.038
			c0.414,0,0.788,0.045,1.121,0.137c0.332,0.091,0.614,0.23,0.844,0.417c0.23,0.187,0.407,0.421,0.53,0.704s0.185,0.615,0.185,0.998
			v4.73H408.837z M408.708,120.936h-1.511c-0.297,0-0.552,0.03-0.766,0.089c-0.215,0.059-0.39,0.144-0.526,0.253
			s-0.238,0.24-0.305,0.393c-0.065,0.153-0.099,0.325-0.099,0.516c0,0.132,0.021,0.259,0.062,0.379s0.106,0.228,0.198,0.321
			c0.091,0.093,0.209,0.167,0.355,0.222c0.146,0.055,0.323,0.082,0.533,0.082c0.273,0,0.587-0.083,0.939-0.25
			c0.354-0.167,0.726-0.43,1.118-0.79V120.936z"/>
		<path d="M417.192,122.187c0,0.242-0.041,0.458-0.123,0.649s-0.194,0.361-0.335,0.509c-0.142,0.148-0.306,0.274-0.492,0.379
			c-0.188,0.105-0.387,0.191-0.599,0.26s-0.43,0.119-0.652,0.15c-0.224,0.032-0.442,0.048-0.656,0.048
			c-0.465,0-0.893-0.021-1.282-0.062s-0.771-0.107-1.145-0.198v-1.094c0.4,0.114,0.8,0.201,1.196,0.26s0.79,0.089,1.183,0.089
			c0.569,0,0.991-0.078,1.265-0.232s0.41-0.376,0.41-0.663c0-0.123-0.021-0.233-0.065-0.332c-0.043-0.098-0.122-0.191-0.235-0.28
			c-0.114-0.089-0.291-0.181-0.53-0.277s-0.566-0.205-0.98-0.328c-0.311-0.091-0.596-0.195-0.858-0.311
			c-0.262-0.116-0.488-0.254-0.68-0.414s-0.342-0.346-0.451-0.561s-0.164-0.467-0.164-0.759c0-0.191,0.044-0.401,0.133-0.629
			s0.24-0.44,0.455-0.636c0.214-0.196,0.503-0.359,0.868-0.489c0.364-0.13,0.82-0.195,1.367-0.195c0.269,0,0.567,0.015,0.896,0.044
			s0.67,0.081,1.025,0.154v1.06c-0.374-0.091-0.729-0.158-1.063-0.202s-0.625-0.065-0.871-0.065c-0.297,0-0.546,0.023-0.749,0.068
			c-0.202,0.045-0.366,0.108-0.492,0.188c-0.125,0.08-0.215,0.173-0.27,0.28s-0.082,0.222-0.082,0.345s0.023,0.235,0.071,0.335
			s0.137,0.197,0.267,0.291s0.312,0.187,0.544,0.28s0.535,0.195,0.909,0.304c0.405,0.119,0.747,0.243,1.025,0.373
			c0.277,0.13,0.503,0.274,0.677,0.434c0.173,0.16,0.297,0.339,0.372,0.54S417.192,121.931,417.192,122.187z"/>
		<path d="M424.982,120.266c0,0.168-0.002,0.31-0.007,0.424c-0.004,0.114-0.011,0.221-0.021,0.321h-4.819
			c0,0.702,0.196,1.241,0.588,1.617c0.393,0.376,0.957,0.564,1.695,0.564c0.201,0,0.401-0.008,0.602-0.024
			c0.201-0.016,0.395-0.038,0.581-0.065c0.188-0.027,0.366-0.058,0.537-0.092s0.329-0.072,0.475-0.113v0.978
			c-0.323,0.091-0.689,0.165-1.097,0.222c-0.408,0.057-0.831,0.085-1.269,0.085c-0.588,0-1.094-0.08-1.518-0.239
			s-0.771-0.391-1.042-0.694c-0.271-0.303-0.472-0.674-0.602-1.114s-0.195-0.938-0.195-1.494c0-0.483,0.069-0.94,0.209-1.371
			c0.139-0.431,0.342-0.809,0.608-1.135s0.594-0.584,0.98-0.776c0.388-0.191,0.827-0.287,1.319-0.287
			c0.479,0,0.902,0.075,1.271,0.226s0.681,0.363,0.934,0.639s0.444,0.611,0.574,1.005S424.982,119.778,424.982,120.266z
			 M423.745,120.095c0.014-0.305-0.016-0.584-0.089-0.837c-0.072-0.253-0.186-0.471-0.338-0.653
			c-0.153-0.182-0.343-0.325-0.571-0.427c-0.228-0.103-0.492-0.154-0.793-0.154c-0.26,0-0.496,0.05-0.711,0.15
			c-0.214,0.1-0.398,0.242-0.554,0.424c-0.154,0.182-0.28,0.401-0.376,0.656s-0.154,0.536-0.178,0.841H423.745z"/>
		<path d="M433.431,126.862h-7.697v-0.984h7.697V126.862z"/>
		<path d="M436.761,118.181h-2.03v-0.984h3.233v5.872h2.044v0.991h-5.503v-0.991h2.256V118.181z M437.178,114.318
			c0.132,0,0.255,0.024,0.369,0.072c0.113,0.048,0.213,0.115,0.297,0.202c0.085,0.086,0.15,0.186,0.198,0.297
			s0.072,0.233,0.072,0.366c0,0.127-0.024,0.249-0.072,0.362s-0.113,0.214-0.198,0.301c-0.084,0.086-0.184,0.154-0.297,0.202
			c-0.114,0.048-0.237,0.072-0.369,0.072c-0.133,0-0.256-0.024-0.369-0.072c-0.114-0.048-0.213-0.115-0.298-0.202
			c-0.084-0.086-0.15-0.187-0.198-0.301s-0.071-0.235-0.071-0.362c0-0.132,0.023-0.254,0.071-0.366s0.114-0.211,0.198-0.297
			c0.085-0.086,0.184-0.154,0.298-0.202C436.922,114.342,437.046,114.318,437.178,114.318z"/>
		<path d="M441.475,120.772c0-0.583,0.079-1.102,0.239-1.555c0.159-0.454,0.386-0.836,0.68-1.148s0.647-0.549,1.06-0.711
			c0.413-0.162,0.872-0.243,1.378-0.243c0.219,0,0.434,0.014,0.646,0.041s0.421,0.071,0.626,0.13V114.4h1.196v9.659h-1.066
			l-0.041-1.299c-0.333,0.483-0.693,0.841-1.08,1.073c-0.388,0.232-0.807,0.349-1.258,0.349c-0.393,0-0.737-0.082-1.036-0.246
			c-0.298-0.164-0.547-0.396-0.745-0.694s-0.348-0.657-0.447-1.077C441.525,121.747,441.475,121.282,441.475,120.772z
			 M442.692,120.696c0,0.83,0.122,1.448,0.365,1.856c0.244,0.408,0.589,0.612,1.036,0.612c0.301,0,0.618-0.134,0.953-0.403
			s0.688-0.667,1.057-1.196v-3.186c-0.196-0.091-0.413-0.161-0.649-0.208c-0.237-0.048-0.472-0.072-0.704-0.072
			c-0.647,0-1.152,0.209-1.515,0.629S442.692,119.803,442.692,120.696z"/>
	</g>
	<g>
		<rect x="312.4" y="154.729" fill="none" width="189.2" height="22"/>
		<path d="M358.981,164.389v-4.929c0-0.214-0.008-0.39-0.024-0.526c-0.016-0.137-0.041-0.245-0.075-0.325s-0.077-0.136-0.13-0.167
			c-0.052-0.032-0.117-0.048-0.194-0.048c-0.092,0-0.176,0.027-0.253,0.082c-0.078,0.055-0.161,0.144-0.25,0.267
			s-0.187,0.286-0.294,0.489c-0.106,0.203-0.233,0.452-0.379,0.749v4.409h-1.087v-4.799c0-0.25-0.008-0.454-0.024-0.608
			c-0.016-0.155-0.041-0.276-0.075-0.362s-0.078-0.146-0.133-0.178s-0.121-0.048-0.198-0.048c-0.082,0-0.16,0.023-0.232,0.068
			c-0.073,0.045-0.154,0.127-0.243,0.246s-0.188,0.28-0.297,0.485s-0.239,0.467-0.39,0.786v4.409h-1.094v-6.863h0.909l0.055,1.306
			c0.118-0.26,0.233-0.481,0.345-0.663c0.112-0.182,0.227-0.329,0.346-0.441c0.118-0.112,0.245-0.194,0.379-0.246
			c0.135-0.052,0.284-0.079,0.448-0.079c0.369,0,0.649,0.121,0.841,0.362s0.287,0.615,0.287,1.121
			c0.109-0.237,0.216-0.448,0.321-0.632c0.104-0.185,0.218-0.339,0.338-0.465c0.121-0.125,0.254-0.221,0.4-0.287
			c0.146-0.066,0.314-0.099,0.506-0.099c0.861,0,1.292,0.663,1.292,1.989v4.997H358.981z"/>
		<path d="M367.778,160.595c0,0.168-0.003,0.31-0.007,0.424c-0.005,0.114-0.012,0.221-0.021,0.321h-4.819
			c0,0.702,0.195,1.241,0.588,1.617c0.392,0.376,0.957,0.564,1.695,0.564c0.2,0,0.4-0.008,0.602-0.024
			c0.2-0.016,0.394-0.038,0.581-0.065c0.187-0.027,0.365-0.058,0.536-0.092s0.329-0.072,0.476-0.113v0.978
			c-0.324,0.091-0.689,0.165-1.098,0.222c-0.407,0.057-0.83,0.085-1.268,0.085c-0.588,0-1.094-0.08-1.518-0.239
			s-0.771-0.391-1.043-0.694c-0.271-0.303-0.472-0.674-0.602-1.114s-0.194-0.938-0.194-1.494c0-0.483,0.069-0.94,0.208-1.371
			c0.14-0.431,0.342-0.809,0.608-1.135s0.594-0.584,0.981-0.776c0.387-0.191,0.827-0.287,1.319-0.287
			c0.479,0,0.902,0.075,1.271,0.226s0.68,0.363,0.933,0.639s0.444,0.611,0.574,1.005S367.778,160.107,367.778,160.595z
			 M366.541,160.424c0.014-0.305-0.017-0.584-0.089-0.837c-0.073-0.253-0.186-0.471-0.339-0.653
			c-0.152-0.182-0.343-0.325-0.57-0.427c-0.229-0.103-0.492-0.154-0.793-0.154c-0.26,0-0.497,0.05-0.711,0.15
			c-0.215,0.1-0.399,0.242-0.554,0.424c-0.155,0.182-0.28,0.401-0.376,0.656s-0.155,0.536-0.178,0.841H366.541z"/>
		<path d="M374.777,164.389v-4.929c0-0.214-0.008-0.39-0.023-0.526c-0.017-0.137-0.041-0.245-0.075-0.325s-0.078-0.136-0.13-0.167
			c-0.053-0.032-0.117-0.048-0.195-0.048c-0.091,0-0.175,0.027-0.253,0.082c-0.077,0.055-0.16,0.144-0.249,0.267
			s-0.188,0.286-0.294,0.489c-0.107,0.203-0.233,0.452-0.38,0.749v4.409h-1.087v-4.799c0-0.25-0.008-0.454-0.023-0.608
			c-0.017-0.155-0.041-0.276-0.075-0.362s-0.079-0.146-0.134-0.178s-0.12-0.048-0.198-0.048c-0.082,0-0.159,0.023-0.232,0.068
			c-0.072,0.045-0.153,0.127-0.242,0.246s-0.188,0.28-0.298,0.485s-0.239,0.467-0.39,0.786v4.409h-1.094v-6.863h0.909l0.055,1.306
			c0.119-0.26,0.233-0.481,0.346-0.663c0.111-0.182,0.227-0.329,0.345-0.441c0.119-0.112,0.245-0.194,0.38-0.246
			c0.134-0.052,0.283-0.079,0.447-0.079c0.369,0,0.649,0.121,0.841,0.362s0.287,0.615,0.287,1.121
			c0.109-0.237,0.217-0.448,0.321-0.632c0.105-0.185,0.218-0.339,0.339-0.465c0.12-0.125,0.254-0.221,0.399-0.287
			c0.146-0.066,0.314-0.099,0.506-0.099c0.861,0,1.292,0.663,1.292,1.989v4.997H374.777z"/>
		<path d="M383.823,160.902c0,0.533-0.075,1.022-0.226,1.466s-0.366,0.825-0.649,1.142c-0.282,0.317-0.626,0.563-1.032,0.738
			c-0.405,0.175-0.865,0.263-1.381,0.263c-0.492,0-0.933-0.076-1.322-0.229s-0.721-0.377-0.991-0.673
			c-0.271-0.296-0.479-0.663-0.622-1.101s-0.216-0.941-0.216-1.511c0-0.533,0.075-1.02,0.226-1.459s0.367-0.818,0.649-1.135
			c0.283-0.317,0.627-0.563,1.032-0.738c0.406-0.175,0.866-0.263,1.381-0.263c0.492,0,0.934,0.076,1.323,0.229
			s0.72,0.376,0.991,0.67c0.271,0.294,0.479,0.66,0.622,1.097S383.823,160.337,383.823,160.902z M382.606,160.957
			c0-0.424-0.047-0.794-0.14-1.111c-0.094-0.317-0.227-0.581-0.4-0.793c-0.173-0.212-0.384-0.372-0.632-0.479
			c-0.249-0.107-0.525-0.161-0.831-0.161c-0.355,0-0.659,0.069-0.912,0.208s-0.461,0.325-0.622,0.557
			c-0.162,0.232-0.28,0.502-0.355,0.81s-0.113,0.63-0.113,0.967c0,0.424,0.047,0.795,0.141,1.114
			c0.093,0.319,0.227,0.584,0.399,0.796c0.174,0.212,0.383,0.372,0.629,0.479s0.524,0.161,0.834,0.161
			c0.355,0,0.66-0.069,0.913-0.208s0.46-0.325,0.622-0.557c0.161-0.232,0.28-0.502,0.355-0.81S382.606,161.299,382.606,160.957z"/>
		<path d="M385.73,157.525h1.087l0.034,1.265c0.405-0.488,0.806-0.841,1.199-1.06c0.395-0.219,0.792-0.328,1.193-0.328
			c0.711,0,1.25,0.23,1.616,0.69c0.367,0.46,0.537,1.144,0.51,2.051h-1.203c0.014-0.602-0.074-1.038-0.264-1.309
			c-0.188-0.271-0.466-0.407-0.83-0.407c-0.16,0-0.32,0.028-0.482,0.085c-0.161,0.057-0.328,0.148-0.499,0.273
			s-0.352,0.286-0.543,0.482s-0.396,0.433-0.615,0.711v4.409h-1.203V157.525z"/>
		<path d="M399.171,157.525l-2.338,6.139c-0.242,0.625-0.491,1.162-0.749,1.613c-0.257,0.451-0.539,0.821-0.844,1.111
			c-0.306,0.29-0.641,0.502-1.005,0.639c-0.365,0.137-0.772,0.205-1.224,0.205c-0.119,0-0.226-0.002-0.321-0.007
			s-0.201-0.011-0.314-0.021v-1.08c0.1,0.014,0.209,0.026,0.328,0.038c0.118,0.011,0.243,0.017,0.376,0.017
			c0.219,0,0.423-0.032,0.611-0.096c0.189-0.064,0.368-0.167,0.537-0.311c0.168-0.144,0.33-0.329,0.485-0.557
			c0.154-0.228,0.305-0.503,0.451-0.827l-2.741-6.863h1.354l1.736,4.539l0.349,1.066l0.396-1.094l1.606-4.512H399.171z"/>
		<path d="M408.058,167.191h-7.697v-0.984h7.697V167.191z"/>
		<path d="M413.675,164.389l-0.027-0.923c-0.373,0.369-0.753,0.636-1.138,0.8c-0.386,0.164-0.79,0.246-1.214,0.246
			c-0.392,0-0.727-0.05-1.005-0.15c-0.277-0.1-0.507-0.238-0.687-0.414c-0.181-0.175-0.312-0.382-0.396-0.619
			c-0.085-0.237-0.127-0.495-0.127-0.772c0-0.688,0.257-1.227,0.77-1.617s1.271-0.584,2.272-0.584h1.422v-0.602
			c0-0.406-0.13-0.73-0.39-0.974s-0.656-0.366-1.189-0.366c-0.387,0-0.769,0.043-1.145,0.13s-0.765,0.209-1.166,0.369v-1.073
			c0.15-0.055,0.318-0.108,0.503-0.161s0.379-0.099,0.584-0.14s0.42-0.074,0.643-0.099c0.224-0.025,0.449-0.038,0.677-0.038
			c0.415,0,0.789,0.045,1.121,0.137c0.333,0.091,0.614,0.23,0.845,0.417c0.229,0.187,0.406,0.421,0.529,0.704
			s0.185,0.615,0.185,0.998v4.73H413.675z M413.546,161.265h-1.511c-0.296,0-0.551,0.03-0.766,0.089
			c-0.214,0.059-0.39,0.144-0.526,0.253s-0.238,0.24-0.304,0.393c-0.066,0.153-0.1,0.325-0.1,0.516c0,0.132,0.021,0.259,0.062,0.379
			s0.107,0.228,0.198,0.321c0.092,0.093,0.21,0.167,0.355,0.222c0.146,0.055,0.324,0.082,0.533,0.082c0.273,0,0.587-0.083,0.94-0.25
			c0.353-0.167,0.726-0.43,1.117-0.79V161.265z"/>
		<path d="M416.588,161.101c0-0.583,0.079-1.102,0.239-1.555c0.159-0.454,0.386-0.836,0.68-1.148s0.647-0.549,1.06-0.711
			c0.413-0.162,0.872-0.243,1.378-0.243c0.219,0,0.434,0.014,0.646,0.041s0.421,0.071,0.626,0.13v-2.885h1.196v9.659h-1.066
			l-0.041-1.299c-0.333,0.483-0.693,0.841-1.08,1.073c-0.388,0.232-0.807,0.349-1.258,0.349c-0.393,0-0.737-0.082-1.036-0.246
			c-0.298-0.164-0.547-0.396-0.745-0.694s-0.348-0.657-0.447-1.077C416.638,162.076,416.588,161.611,416.588,161.101z
			 M417.805,161.025c0,0.83,0.122,1.448,0.365,1.856c0.244,0.408,0.589,0.612,1.036,0.612c0.301,0,0.618-0.134,0.953-0.403
			s0.688-0.667,1.057-1.196v-3.186c-0.196-0.091-0.413-0.161-0.649-0.208c-0.237-0.048-0.472-0.072-0.704-0.072
			c-0.647,0-1.152,0.209-1.515,0.629S417.805,160.132,417.805,161.025z"/>
		<path d="M424.28,161.101c0-0.583,0.08-1.102,0.239-1.555c0.16-0.454,0.387-0.836,0.681-1.148s0.646-0.549,1.06-0.711
			c0.412-0.162,0.871-0.243,1.377-0.243c0.219,0,0.435,0.014,0.646,0.041s0.42,0.071,0.625,0.13v-2.885h1.196v9.659h-1.066
			l-0.041-1.299c-0.332,0.483-0.692,0.841-1.08,1.073c-0.387,0.232-0.807,0.349-1.258,0.349c-0.392,0-0.737-0.082-1.035-0.246
			c-0.299-0.164-0.547-0.396-0.745-0.694s-0.348-0.657-0.448-1.077C424.331,162.076,424.28,161.611,424.28,161.101z
			 M425.497,161.025c0,0.83,0.122,1.448,0.366,1.856c0.243,0.408,0.589,0.612,1.035,0.612c0.301,0,0.619-0.134,0.954-0.403
			s0.687-0.667,1.056-1.196v-3.186c-0.195-0.091-0.412-0.161-0.649-0.208c-0.236-0.048-0.472-0.072-0.704-0.072
			c-0.646,0-1.151,0.209-1.514,0.629S425.497,160.132,425.497,161.025z"/>
		<path d="M432.421,157.525h1.087l0.034,1.265c0.405-0.488,0.806-0.841,1.199-1.06c0.395-0.219,0.792-0.328,1.193-0.328
			c0.711,0,1.25,0.23,1.616,0.69c0.367,0.46,0.537,1.144,0.51,2.051h-1.203c0.014-0.602-0.074-1.038-0.264-1.309
			c-0.188-0.271-0.466-0.407-0.83-0.407c-0.16,0-0.32,0.028-0.482,0.085c-0.161,0.057-0.328,0.148-0.499,0.273
			s-0.352,0.286-0.543,0.482s-0.396,0.433-0.615,0.711v4.409h-1.203V157.525z"/>
		<path d="M445.632,160.595c0,0.168-0.002,0.31-0.007,0.424c-0.004,0.114-0.011,0.221-0.021,0.321h-4.819
			c0,0.702,0.196,1.241,0.588,1.617c0.393,0.376,0.957,0.564,1.695,0.564c0.201,0,0.401-0.008,0.602-0.024
			c0.201-0.016,0.395-0.038,0.581-0.065c0.188-0.027,0.366-0.058,0.537-0.092s0.329-0.072,0.475-0.113v0.978
			c-0.323,0.091-0.689,0.165-1.097,0.222c-0.408,0.057-0.831,0.085-1.269,0.085c-0.588,0-1.094-0.08-1.518-0.239
			s-0.771-0.391-1.042-0.694c-0.271-0.303-0.472-0.674-0.602-1.114s-0.195-0.938-0.195-1.494c0-0.483,0.069-0.94,0.209-1.371
			c0.139-0.431,0.342-0.809,0.608-1.135s0.594-0.584,0.98-0.776c0.388-0.191,0.827-0.287,1.319-0.287
			c0.479,0,0.902,0.075,1.271,0.226s0.681,0.363,0.934,0.639s0.444,0.611,0.574,1.005S445.632,160.107,445.632,160.595z
			 M444.395,160.424c0.014-0.305-0.016-0.584-0.089-0.837c-0.072-0.253-0.186-0.471-0.338-0.653
			c-0.153-0.182-0.343-0.325-0.571-0.427c-0.228-0.103-0.492-0.154-0.793-0.154c-0.26,0-0.496,0.05-0.711,0.15
			c-0.214,0.1-0.398,0.242-0.554,0.424c-0.154,0.182-0.28,0.401-0.376,0.656s-0.154,0.536-0.178,0.841H444.395z"/>
		<path d="M452.622,162.516c0,0.242-0.041,0.458-0.123,0.649s-0.194,0.361-0.335,0.509c-0.142,0.148-0.306,0.274-0.492,0.379
			c-0.188,0.105-0.387,0.191-0.599,0.26s-0.43,0.119-0.652,0.15c-0.224,0.032-0.442,0.048-0.656,0.048
			c-0.465,0-0.893-0.021-1.282-0.062s-0.771-0.107-1.145-0.198v-1.094c0.4,0.114,0.8,0.201,1.196,0.26s0.79,0.089,1.183,0.089
			c0.569,0,0.991-0.078,1.265-0.232s0.41-0.376,0.41-0.663c0-0.123-0.021-0.233-0.065-0.332c-0.043-0.098-0.122-0.191-0.235-0.28
			c-0.114-0.089-0.291-0.181-0.53-0.277s-0.566-0.205-0.98-0.328c-0.311-0.091-0.596-0.195-0.858-0.311
			c-0.262-0.116-0.488-0.254-0.68-0.414s-0.342-0.346-0.451-0.561s-0.164-0.467-0.164-0.759c0-0.191,0.044-0.401,0.133-0.629
			s0.24-0.44,0.455-0.636c0.214-0.196,0.503-0.359,0.868-0.489c0.364-0.13,0.82-0.195,1.367-0.195c0.269,0,0.567,0.015,0.896,0.044
			s0.67,0.081,1.025,0.154v1.06c-0.374-0.091-0.729-0.158-1.063-0.202s-0.625-0.065-0.871-0.065c-0.297,0-0.546,0.023-0.749,0.068
			c-0.202,0.045-0.366,0.108-0.492,0.188c-0.125,0.08-0.215,0.173-0.27,0.28s-0.082,0.222-0.082,0.345s0.023,0.235,0.071,0.335
			s0.137,0.197,0.267,0.291s0.312,0.187,0.544,0.28s0.535,0.195,0.909,0.304c0.405,0.119,0.747,0.243,1.025,0.373
			c0.277,0.13,0.503,0.274,0.677,0.434c0.173,0.16,0.297,0.339,0.372,0.54S452.622,162.26,452.622,162.516z"/>
		<path d="M459.838,162.516c0,0.242-0.041,0.458-0.123,0.649s-0.193,0.361-0.335,0.509c-0.141,0.148-0.305,0.274-0.492,0.379
			c-0.187,0.105-0.386,0.191-0.598,0.26s-0.43,0.119-0.653,0.15c-0.223,0.032-0.441,0.048-0.656,0.048
			c-0.465,0-0.892-0.021-1.281-0.062s-0.771-0.107-1.146-0.198v-1.094c0.401,0.114,0.8,0.201,1.196,0.26s0.791,0.089,1.183,0.089
			c0.57,0,0.991-0.078,1.265-0.232s0.41-0.376,0.41-0.663c0-0.123-0.021-0.233-0.064-0.332c-0.044-0.098-0.122-0.191-0.236-0.28
			c-0.113-0.089-0.29-0.181-0.529-0.277s-0.566-0.205-0.981-0.328c-0.31-0.091-0.596-0.195-0.857-0.311
			c-0.263-0.116-0.489-0.254-0.681-0.414s-0.342-0.346-0.451-0.561s-0.164-0.467-0.164-0.759c0-0.191,0.045-0.401,0.134-0.629
			s0.24-0.44,0.454-0.636c0.215-0.196,0.504-0.359,0.868-0.489c0.365-0.13,0.82-0.195,1.367-0.195c0.27,0,0.567,0.015,0.896,0.044
			s0.67,0.081,1.025,0.154v1.06c-0.373-0.091-0.728-0.158-1.062-0.202s-0.626-0.065-0.872-0.065c-0.296,0-0.546,0.023-0.748,0.068
			c-0.203,0.045-0.367,0.108-0.492,0.188c-0.126,0.08-0.216,0.173-0.271,0.28s-0.082,0.222-0.082,0.345s0.024,0.235,0.072,0.335
			s0.137,0.197,0.267,0.291s0.311,0.187,0.543,0.28s0.536,0.195,0.909,0.304c0.406,0.119,0.748,0.243,1.025,0.373
			c0.278,0.13,0.504,0.274,0.677,0.434c0.174,0.16,0.298,0.339,0.373,0.54S459.838,162.26,459.838,162.516z"/>
	</g>
</g>
<g id="Layer_1">
</g>
</svg>
