<?xml version="1.0" encoding="utf-8"?>
<!-- Generator: Adobe Illustrator 26.3.1, SVG Export Plug-In . SVG Version: 6.00 Build 0)  -->
<svg version="1.1" xmlns="http://www.w3.org/2000/svg" xmlns:xlink="http://www.w3.org/1999/xlink" x="0px" y="0px"
	 viewBox="0 0 510.4 105.6" enable-background="new 0 0 510.4 105.6" xml:space="preserve">
<symbol  id="PIPELINE" viewBox="-32 -12.266 64 24.531">
	<linearGradient id="SVGID_1_" gradientUnits="userSpaceOnUse" x1="0" y1="-12.2655" x2="1.502093e-15" y2="12.2655">
		<stop  offset="0" style="stop-color:#1B89B2"/>
		<stop  offset="1" style="stop-color:#51C8E8"/>
	</linearGradient>
	<path fill="url(#SVGID_1_)" d="M26.096,12.266h-51.448v0h0C-29.08,12.265-32,6.878-32,0s2.92-12.265,6.648-12.265h0v0h51.448
		C29.356-12.266,32-6.363,32,0S29.356,12.266,26.096,12.266z"/>
	<g>
		
			<linearGradient id="SVGID_00000008841771732974893090000002264352903526989488_" gradientUnits="userSpaceOnUse" x1="-31.461" y1="-6.1136" x2="-19.2338" y2="6.1136">
			<stop  offset="0" style="stop-color:#B3B4B4"/>
			<stop  offset="1" style="stop-color:#4F4F4F"/>
		</linearGradient>
		<ellipse fill="url(#SVGID_00000008841771732974893090000002264352903526989488_)" cx="-25.347" cy="0" rx="5.575" ry="10.879"/>
	</g>
</symbol>
<g id="Shapes">
	<rect fill="#FFFFFF" width="510.4" height="105.6"/>
	<g id="Wrench_tool_x28_s_x29_">
	</g>
	<g id="user2">
	</g>
	<g id="user2_1_">
	</g>
	<g id="user2_4_">
	</g>
	<g id="user2_3_">
	</g>
	<g id="user2_2_">
	</g>
	<g id="Internet_2">
	</g>
	<g id="Enterprise">
	</g>
	<g id="Tunnel__x28_stackable_x29_">
	</g>
	<g id="New_Symbol">
	</g>
	<g id="New_Symbol_1">
	</g>
	<g id="Files">
	</g>
	<g id="BlobBlock">
	</g>
	<g id="E_x5F_Enterprise">
	</g>
	<g id="E_x5F_AD_FS">
	</g>
	<g id="C_x5F_Azure_Active_Directory">
	</g>
	<g>
		<g opacity="0.3">
			<rect x="5.4" y="5.578" fill="#212121" width="198" height="57.2"/>
			<rect x="5.4" y="5.578" opacity="0.35" fill="#212121" width="198" height="57.2"/>
		</g>
		<g>
			<rect x="4.4" y="4.578" fill="#FFFFFF" width="198" height="57.2"/>
			<rect x="4.4" y="4.578" opacity="0.35" fill="#1B93EB" width="198" height="57.2"/>
		</g>
	</g>
	<g>
		<g opacity="0.3">
			<rect x="5.4" y="62.778" fill="#212121" width="198" height="39.6"/>
			<rect x="5.4" y="62.778" opacity="0.15" fill="#212121" width="198" height="39.6"/>
		</g>
		<g>
			<rect x="4.4" y="61.778" fill="#FFFFFF" width="198" height="39.6"/>
			<rect x="4.4" y="61.778" opacity="0.15" fill="#1B93EB" width="198" height="39.6"/>
		</g>
	</g>
	<g>
		<g opacity="0.3">
			<rect x="309" y="5.578" fill="#212121" width="198" height="57.2"/>
			<rect x="309" y="5.578" opacity="0.35" fill="#212121" width="198" height="57.2"/>
		</g>
		<g>
			<rect x="308" y="4.578" fill="#FFFFFF" width="198" height="57.2"/>
			<rect x="308" y="4.578" opacity="0.35" fill="#1B93EB" width="198" height="57.2"/>
		</g>
	</g>
	<g>
		<g opacity="0.3">
			<rect x="309" y="62.778" fill="#212121" width="198" height="39.6"/>
			<rect x="309" y="62.778" opacity="0.15" fill="#212121" width="198" height="39.6"/>
		</g>
		<g>
			<rect x="308" y="61.778" fill="#FFFFFF" width="198" height="39.6"/>
			<rect x="308" y="61.778" opacity="0.15" fill="#1B93EB" width="198" height="39.6"/>
		</g>
	</g>
	<g>
		<line fill="none" stroke="#005CA1" x1="203.577" y1="83.778" x2="308" y2="83.778"/>
		<line fill="none" stroke="#005CA1" x1="211.2" y1="78.278" x2="211.2" y2="89.278"/>
		<line fill="none" stroke="#005CA1" x1="299.2" y1="78.278" x2="299.2" y2="89.278"/>
		<polygon fill="#005CA1" points="203.135,79.972 203.135,87.585 209.428,83.672 		"/>
	</g>
</g>
<g id="Text">
	<g>
		<rect x="8.559" y="28.578" fill="none" width="189.683" height="17.6"/>
		<path d="M27.48,38.238l-0.041-1.025c-0.146,0.178-0.296,0.339-0.451,0.485c-0.155,0.146-0.321,0.27-0.499,0.372
			s-0.368,0.183-0.571,0.239c-0.203,0.058-0.427,0.086-0.673,0.086c-0.41,0-0.775-0.082-1.094-0.246s-0.587-0.397-0.803-0.701
			c-0.216-0.303-0.382-0.671-0.496-1.104c-0.114-0.434-0.171-0.916-0.171-1.449c0-0.639,0.09-1.19,0.27-1.658
			c0.18-0.467,0.43-0.854,0.749-1.162s0.697-0.535,1.135-0.684c0.438-0.147,0.914-0.222,1.429-0.222
			c0.173,0,0.348,0.011,0.523,0.034c0.175,0.022,0.332,0.052,0.468,0.089v-2.714h1.668v9.659H27.48z M24.431,34.82
			c0,0.383,0.026,0.71,0.079,0.98c0.052,0.271,0.13,0.493,0.232,0.667c0.103,0.173,0.229,0.3,0.379,0.379
			c0.15,0.08,0.321,0.12,0.513,0.12c0.283,0,0.551-0.114,0.807-0.342c0.255-0.229,0.526-0.54,0.813-0.937v-3.035
			c-0.132-0.051-0.295-0.092-0.489-0.123c-0.194-0.032-0.389-0.048-0.584-0.048c-0.269,0-0.51,0.055-0.725,0.164
			s-0.397,0.264-0.55,0.465c-0.153,0.2-0.27,0.445-0.352,0.734C24.472,34.136,24.431,34.46,24.431,34.82z"/>
		<path d="M35.977,38.238v-4.73c0-0.174-0.004-0.325-0.014-0.455s-0.027-0.238-0.055-0.324c-0.027-0.087-0.067-0.151-0.12-0.195
			c-0.052-0.043-0.124-0.064-0.215-0.064c-0.141,0-0.28,0.096-0.417,0.287s-0.292,0.517-0.465,0.978v4.505h-1.429v-4.73
			c0-0.174-0.004-0.325-0.014-0.455s-0.027-0.238-0.055-0.324c-0.027-0.087-0.068-0.151-0.123-0.195
			c-0.055-0.043-0.127-0.064-0.219-0.064c-0.119,0-0.25,0.096-0.396,0.287s-0.308,0.517-0.485,0.978v4.505h-1.442v-6.945h1.237
			l0.027,1.012c0.1-0.205,0.201-0.381,0.301-0.526c0.1-0.146,0.208-0.266,0.321-0.359c0.114-0.093,0.236-0.16,0.366-0.201
			s0.277-0.062,0.441-0.062c0.387,0,0.683,0.102,0.885,0.304c0.203,0.203,0.318,0.484,0.345,0.845
			c0.109-0.205,0.218-0.381,0.325-0.526c0.107-0.146,0.219-0.266,0.335-0.359c0.116-0.093,0.242-0.16,0.376-0.201
			s0.284-0.062,0.448-0.062c0.506,0,0.879,0.177,1.121,0.529c0.242,0.354,0.362,0.876,0.362,1.569v4.983H35.977z"/>
		<path d="M38.2,41.041v-1.319h7.697v1.319H38.2z"/>
		<path d="M52.377,29.994c-0.201-0.064-0.438-0.117-0.714-0.161c-0.276-0.043-0.557-0.064-0.844-0.064
			c-0.196,0-0.378,0.026-0.547,0.078c-0.168,0.053-0.314,0.136-0.438,0.25c-0.123,0.113-0.22,0.259-0.291,0.434
			c-0.071,0.176-0.106,0.389-0.106,0.64v1.121h2.728v1.299h-2.728v4.648h-1.682V33.59h-2.017v-1.299h2.017v-1.053
			c0-0.492,0.072-0.915,0.215-1.269c0.144-0.353,0.346-0.643,0.608-0.868s0.578-0.391,0.947-0.495
			c0.369-0.105,0.782-0.157,1.237-0.157c0.301,0,0.587,0.02,0.858,0.058c0.271,0.039,0.523,0.086,0.755,0.141V29.994z"/>
		<path d="M59.638,38.17c-0.301,0.068-0.604,0.123-0.909,0.164s-0.595,0.062-0.868,0.062c-0.456,0-0.849-0.048-1.179-0.144
			s-0.604-0.242-0.82-0.438c-0.216-0.196-0.376-0.445-0.479-0.749c-0.103-0.303-0.154-0.664-0.154-1.083v-3.391h-1.866v-1.299h1.866
			v-1.777l1.709-0.444v2.222h2.7v1.299h-2.7v3.268c0,0.396,0.091,0.696,0.273,0.898c0.182,0.203,0.488,0.305,0.916,0.305
			c0.273,0,0.54-0.023,0.8-0.068c0.26-0.046,0.497-0.099,0.711-0.157V38.17z"/>
		<path d="M66.921,36.194c0,0.396-0.088,0.734-0.263,1.015s-0.408,0.509-0.697,0.684c-0.29,0.176-0.618,0.304-0.984,0.383
			c-0.367,0.08-0.742,0.12-1.125,0.12c-0.51,0-0.971-0.024-1.381-0.072s-0.797-0.117-1.162-0.208v-1.504
			c0.428,0.178,0.855,0.307,1.282,0.386c0.426,0.08,0.828,0.12,1.207,0.12c0.438,0,0.765-0.069,0.981-0.209
			c0.216-0.139,0.325-0.32,0.325-0.543c0-0.105-0.023-0.201-0.068-0.287c-0.045-0.087-0.131-0.17-0.256-0.25
			c-0.125-0.079-0.302-0.161-0.53-0.246c-0.228-0.084-0.526-0.179-0.896-0.283c-0.342-0.096-0.642-0.204-0.899-0.325
			c-0.257-0.12-0.471-0.263-0.639-0.427s-0.295-0.354-0.379-0.571c-0.084-0.216-0.126-0.471-0.126-0.762
			c0-0.283,0.064-0.55,0.191-0.8c0.127-0.251,0.318-0.471,0.571-0.66c0.253-0.188,0.568-0.338,0.947-0.447s0.82-0.164,1.326-0.164
			c0.438,0,0.825,0.022,1.162,0.068c0.337,0.045,0.636,0.096,0.896,0.15v1.36c-0.396-0.128-0.769-0.218-1.118-0.271
			c-0.349-0.052-0.694-0.078-1.036-0.078c-0.342,0-0.616,0.062-0.824,0.185s-0.311,0.294-0.311,0.513
			c0,0.104,0.021,0.198,0.062,0.28s0.122,0.161,0.243,0.239c0.121,0.077,0.29,0.158,0.506,0.242
			c0.216,0.085,0.502,0.177,0.858,0.277c0.401,0.113,0.738,0.235,1.012,0.365s0.493,0.277,0.66,0.441s0.286,0.351,0.359,0.561
			C66.884,35.686,66.921,35.925,66.921,36.194z"/>
		<path d="M67.837,41.041v-1.319h7.697v1.319H67.837z"/>
		<path d="M81.771,38.238v-4.73c0-0.174-0.004-0.325-0.014-0.455s-0.027-0.238-0.055-0.324c-0.027-0.087-0.067-0.151-0.12-0.195
			c-0.052-0.043-0.124-0.064-0.215-0.064c-0.141,0-0.28,0.096-0.417,0.287s-0.292,0.517-0.465,0.978v4.505h-1.429v-4.73
			c0-0.174-0.004-0.325-0.014-0.455s-0.027-0.238-0.055-0.324c-0.027-0.087-0.068-0.151-0.123-0.195
			c-0.055-0.043-0.127-0.064-0.219-0.064c-0.119,0-0.25,0.096-0.396,0.287s-0.308,0.517-0.485,0.978v4.505h-1.442v-6.945h1.237
			l0.027,1.012c0.1-0.205,0.201-0.381,0.301-0.526c0.1-0.146,0.208-0.266,0.321-0.359c0.114-0.093,0.236-0.16,0.366-0.201
			s0.277-0.062,0.441-0.062c0.387,0,0.683,0.102,0.885,0.304c0.203,0.203,0.318,0.484,0.345,0.845
			c0.109-0.205,0.218-0.381,0.325-0.526c0.107-0.146,0.219-0.266,0.335-0.359c0.116-0.093,0.242-0.16,0.376-0.201
			s0.284-0.062,0.448-0.062c0.506,0,0.879,0.177,1.121,0.529c0.242,0.354,0.362,0.876,0.362,1.569v4.983H81.771z"/>
		<path d="M90.824,34.232c0,0.113-0.003,0.262-0.01,0.444c-0.007,0.182-0.017,0.353-0.031,0.513h-4.566
			c0,0.305,0.047,0.574,0.14,0.807s0.226,0.427,0.396,0.584s0.376,0.277,0.615,0.359s0.505,0.123,0.796,0.123
			c0.337,0,0.698-0.026,1.083-0.079c0.385-0.052,0.785-0.138,1.2-0.256v1.326c-0.178,0.05-0.372,0.096-0.581,0.137
			s-0.424,0.077-0.643,0.109c-0.219,0.031-0.44,0.056-0.663,0.071c-0.223,0.017-0.44,0.024-0.649,0.024
			c-0.529,0-1.002-0.075-1.422-0.226s-0.775-0.373-1.066-0.667s-0.515-0.657-0.67-1.09c-0.155-0.434-0.232-0.935-0.232-1.504
			c0-0.565,0.078-1.079,0.232-1.542c0.155-0.462,0.374-0.858,0.656-1.189c0.283-0.33,0.625-0.585,1.029-0.766
			c0.403-0.18,0.854-0.27,1.35-0.27c0.492,0,0.927,0.076,1.306,0.229c0.378,0.153,0.695,0.366,0.95,0.64s0.449,0.599,0.581,0.978
			C90.758,33.366,90.824,33.781,90.824,34.232z M89.129,33.993c0.004-0.273-0.03-0.512-0.103-0.715
			c-0.073-0.202-0.172-0.37-0.297-0.502c-0.125-0.133-0.271-0.23-0.438-0.294c-0.167-0.064-0.345-0.096-0.537-0.096
			c-0.419,0-0.763,0.14-1.032,0.42s-0.428,0.676-0.479,1.187H89.129z"/>
		<path d="M97.64,38.238v-4.73c0-0.174-0.004-0.325-0.014-0.455s-0.027-0.238-0.055-0.324c-0.027-0.087-0.067-0.151-0.12-0.195
			c-0.052-0.043-0.124-0.064-0.215-0.064c-0.141,0-0.28,0.096-0.417,0.287s-0.292,0.517-0.465,0.978v4.505h-1.429v-4.73
			c0-0.174-0.004-0.325-0.014-0.455s-0.027-0.238-0.055-0.324c-0.027-0.087-0.068-0.151-0.123-0.195
			c-0.055-0.043-0.127-0.064-0.219-0.064c-0.119,0-0.25,0.096-0.396,0.287s-0.308,0.517-0.485,0.978v4.505h-1.442v-6.945h1.237
			l0.027,1.012c0.1-0.205,0.201-0.381,0.301-0.526c0.1-0.146,0.208-0.266,0.321-0.359c0.114-0.093,0.236-0.16,0.366-0.201
			s0.277-0.062,0.441-0.062c0.387,0,0.683,0.102,0.885,0.304c0.203,0.203,0.318,0.484,0.345,0.845
			c0.109-0.205,0.218-0.381,0.325-0.526c0.107-0.146,0.219-0.266,0.335-0.359c0.116-0.093,0.242-0.16,0.376-0.201
			s0.284-0.062,0.448-0.062c0.506,0,0.879,0.177,1.121,0.529c0.242,0.354,0.362,0.876,0.362,1.569v4.983H97.64z"/>
		<path d="M107.017,34.711c0,0.547-0.078,1.047-0.232,1.5c-0.155,0.454-0.378,0.842-0.67,1.166
			c-0.292,0.323-0.649,0.574-1.073,0.752s-0.907,0.267-1.449,0.267c-0.515,0-0.975-0.075-1.381-0.226s-0.75-0.375-1.032-0.674
			c-0.283-0.298-0.499-0.672-0.649-1.121c-0.15-0.448-0.226-0.972-0.226-1.568c0-0.552,0.079-1.053,0.236-1.504
			s0.383-0.837,0.677-1.155c0.294-0.319,0.653-0.566,1.077-0.742c0.424-0.175,0.902-0.263,1.436-0.263
			c0.52,0,0.982,0.076,1.388,0.229c0.406,0.153,0.75,0.38,1.032,0.681s0.498,0.673,0.646,1.117S107.017,34.127,107.017,34.711z
			 M105.281,34.752c0-0.721-0.136-1.262-0.407-1.624s-0.671-0.543-1.2-0.543c-0.292,0-0.54,0.057-0.745,0.171
			c-0.205,0.113-0.374,0.27-0.506,0.468s-0.229,0.43-0.291,0.694c-0.062,0.264-0.092,0.547-0.092,0.848
			c0,0.725,0.146,1.271,0.438,1.637c0.292,0.367,0.69,0.551,1.196,0.551c0.278,0,0.52-0.056,0.725-0.168
			c0.205-0.111,0.372-0.267,0.499-0.465s0.223-0.432,0.287-0.7C105.249,35.351,105.281,35.062,105.281,34.752z"/>
		<path d="M112.849,33.993c0.009-0.26-0.003-0.481-0.038-0.663c-0.034-0.183-0.089-0.333-0.164-0.451
			c-0.075-0.119-0.167-0.205-0.277-0.26s-0.235-0.082-0.376-0.082c-0.246,0-0.5,0.102-0.762,0.304
			c-0.262,0.203-0.55,0.537-0.865,1.002v4.396h-1.709v-6.945h1.511l0.062,1.012c0.114-0.178,0.243-0.338,0.386-0.479
			c0.144-0.142,0.303-0.264,0.479-0.366s0.37-0.181,0.584-0.235s0.449-0.082,0.704-0.082c0.351,0,0.662,0.061,0.933,0.181
			c0.271,0.121,0.499,0.3,0.684,0.537c0.185,0.236,0.321,0.534,0.41,0.892c0.089,0.358,0.126,0.771,0.113,1.241H112.849z"/>
		<path d="M120.223,37.479c-0.242,0.602-0.493,1.129-0.755,1.582c-0.262,0.454-0.55,0.832-0.865,1.135
			c-0.314,0.304-0.664,0.531-1.049,0.684c-0.385,0.153-0.817,0.229-1.295,0.229c-0.114,0-0.238-0.006-0.373-0.018
			c-0.134-0.011-0.272-0.028-0.414-0.051v-1.415c0.055,0.009,0.117,0.02,0.188,0.03c0.071,0.012,0.145,0.021,0.222,0.027
			s0.156,0.013,0.236,0.018c0.08,0.004,0.154,0.007,0.222,0.007c0.191,0,0.369-0.037,0.533-0.109
			c0.164-0.073,0.315-0.175,0.455-0.305s0.266-0.284,0.379-0.465c0.114-0.18,0.214-0.377,0.301-0.591l-2.755-6.945h1.859
			l1.442,3.938l0.431,1.271l0.424-1.217l1.456-3.992h1.791L120.223,37.479z"/>
		<path d="M123.538,41.041v-1.319h7.697v1.319H123.538z"/>
		<path d="M138.544,34.643c0,0.638-0.09,1.189-0.27,1.654s-0.431,0.851-0.752,1.158s-0.701,0.536-1.138,0.684
			c-0.438,0.148-0.914,0.223-1.429,0.223c-0.506,0-0.977-0.038-1.412-0.113s-0.851-0.177-1.248-0.304v-9.365h1.668v2.27
			l-0.068,1.367c0.25-0.324,0.543-0.584,0.878-0.779c0.335-0.196,0.737-0.294,1.207-0.294c0.41,0,0.775,0.082,1.094,0.246
			s0.587,0.397,0.803,0.7c0.216,0.304,0.382,0.67,0.496,1.101S138.544,34.104,138.544,34.643z M136.794,34.711
			c0-0.383-0.027-0.709-0.082-0.978c-0.055-0.27-0.133-0.49-0.236-0.663c-0.103-0.174-0.228-0.3-0.376-0.38
			c-0.148-0.079-0.318-0.119-0.509-0.119c-0.283,0-0.553,0.113-0.81,0.342c-0.257,0.228-0.53,0.537-0.817,0.93v3.035
			c0.132,0.05,0.295,0.091,0.489,0.123c0.194,0.031,0.391,0.048,0.591,0.048c0.264,0,0.505-0.055,0.721-0.164
			s0.401-0.265,0.554-0.465c0.153-0.201,0.27-0.445,0.352-0.735C136.753,35.396,136.794,35.07,136.794,34.711z"/>
		<path d="M141.693,31.293v4.525c0,0.378,0.071,0.664,0.212,0.857c0.141,0.194,0.355,0.291,0.643,0.291
			c0.278,0,0.546-0.115,0.803-0.346c0.257-0.229,0.53-0.541,0.817-0.933v-4.396h1.668v6.945h-1.442l-0.041-1.025
			c-0.146,0.178-0.294,0.339-0.444,0.485c-0.15,0.146-0.313,0.27-0.489,0.372s-0.367,0.183-0.574,0.239
			c-0.208,0.058-0.437,0.086-0.687,0.086c-0.355,0-0.667-0.059-0.933-0.175s-0.489-0.281-0.667-0.495
			c-0.178-0.215-0.311-0.471-0.4-0.77c-0.089-0.298-0.133-0.632-0.133-1.001v-4.662H141.693z"/>
		<path d="M153.842,29.994c-0.201-0.064-0.438-0.117-0.714-0.161c-0.276-0.043-0.557-0.064-0.844-0.064
			c-0.196,0-0.378,0.026-0.547,0.078c-0.168,0.053-0.314,0.136-0.438,0.25c-0.123,0.113-0.22,0.259-0.291,0.434
			c-0.071,0.176-0.106,0.389-0.106,0.64v1.121h2.728v1.299h-2.728v4.648h-1.682V33.59h-2.017v-1.299h2.017v-1.053
			c0-0.492,0.072-0.915,0.215-1.269c0.144-0.353,0.346-0.643,0.608-0.868s0.578-0.391,0.947-0.495
			c0.369-0.105,0.782-0.157,1.237-0.157c0.301,0,0.587,0.02,0.858,0.058c0.271,0.039,0.523,0.086,0.755,0.141V29.994z"/>
		<path d="M161.533,29.994c-0.201-0.064-0.438-0.117-0.714-0.161c-0.276-0.043-0.557-0.064-0.844-0.064
			c-0.196,0-0.378,0.026-0.547,0.078c-0.168,0.053-0.314,0.136-0.438,0.25c-0.123,0.113-0.22,0.259-0.291,0.434
			c-0.071,0.176-0.106,0.389-0.106,0.64v1.121h2.728v1.299h-2.728v4.648h-1.682V33.59h-2.017v-1.299h2.017v-1.053
			c0-0.492,0.072-0.915,0.215-1.269c0.144-0.353,0.346-0.643,0.608-0.868s0.578-0.391,0.947-0.495
			c0.369-0.105,0.782-0.157,1.237-0.157c0.301,0,0.587,0.02,0.858,0.058c0.271,0.039,0.523,0.086,0.755,0.141V29.994z"/>
		<path d="M168.905,34.232c0,0.113-0.003,0.262-0.01,0.444c-0.007,0.182-0.017,0.353-0.031,0.513h-4.566
			c0,0.305,0.047,0.574,0.14,0.807s0.226,0.427,0.396,0.584s0.376,0.277,0.615,0.359s0.505,0.123,0.796,0.123
			c0.337,0,0.698-0.026,1.083-0.079c0.385-0.052,0.785-0.138,1.2-0.256v1.326c-0.178,0.05-0.372,0.096-0.581,0.137
			s-0.424,0.077-0.643,0.109c-0.219,0.031-0.44,0.056-0.663,0.071c-0.223,0.017-0.44,0.024-0.649,0.024
			c-0.529,0-1.002-0.075-1.422-0.226s-0.775-0.373-1.066-0.667s-0.515-0.657-0.67-1.09c-0.155-0.434-0.232-0.935-0.232-1.504
			c0-0.565,0.078-1.079,0.232-1.542c0.155-0.462,0.374-0.858,0.656-1.189c0.283-0.33,0.625-0.585,1.029-0.766
			c0.403-0.18,0.854-0.27,1.35-0.27c0.492,0,0.927,0.076,1.306,0.229c0.378,0.153,0.695,0.366,0.95,0.64s0.449,0.599,0.581,0.978
			C168.84,33.366,168.905,33.781,168.905,34.232z M167.21,33.993c0.004-0.273-0.03-0.512-0.103-0.715
			c-0.073-0.202-0.172-0.37-0.297-0.502c-0.125-0.133-0.271-0.23-0.438-0.294c-0.167-0.064-0.345-0.096-0.537-0.096
			c-0.419,0-0.763,0.14-1.032,0.42s-0.428,0.676-0.479,1.187H167.21z"/>
		<path d="M174.877,33.993c0.009-0.26-0.003-0.481-0.038-0.663c-0.034-0.183-0.089-0.333-0.164-0.451
			c-0.075-0.119-0.167-0.205-0.277-0.26s-0.235-0.082-0.376-0.082c-0.246,0-0.5,0.102-0.762,0.304
			c-0.262,0.203-0.55,0.537-0.865,1.002v4.396h-1.709v-6.945h1.511l0.062,1.012c0.114-0.178,0.243-0.338,0.386-0.479
			c0.144-0.142,0.303-0.264,0.479-0.366s0.37-0.181,0.584-0.235s0.449-0.082,0.704-0.082c0.351,0,0.662,0.061,0.933,0.181
			c0.271,0.121,0.499,0.3,0.684,0.537c0.185,0.236,0.321,0.534,0.41,0.892c0.089,0.358,0.126,0.771,0.113,1.241H174.877z"/>
		<path d="M183.62,36.194c0,0.396-0.088,0.734-0.263,1.015s-0.408,0.509-0.697,0.684c-0.29,0.176-0.618,0.304-0.984,0.383
			c-0.367,0.08-0.742,0.12-1.125,0.12c-0.51,0-0.971-0.024-1.381-0.072s-0.797-0.117-1.162-0.208v-1.504
			c0.428,0.178,0.855,0.307,1.282,0.386c0.426,0.08,0.828,0.12,1.207,0.12c0.438,0,0.765-0.069,0.981-0.209
			c0.216-0.139,0.325-0.32,0.325-0.543c0-0.105-0.023-0.201-0.068-0.287c-0.045-0.087-0.131-0.17-0.256-0.25
			c-0.125-0.079-0.302-0.161-0.53-0.246c-0.228-0.084-0.526-0.179-0.896-0.283c-0.342-0.096-0.642-0.204-0.899-0.325
			c-0.257-0.12-0.471-0.263-0.639-0.427s-0.295-0.354-0.379-0.571c-0.084-0.216-0.126-0.471-0.126-0.762
			c0-0.283,0.064-0.55,0.191-0.8c0.127-0.251,0.318-0.471,0.571-0.66c0.253-0.188,0.568-0.338,0.947-0.447s0.82-0.164,1.326-0.164
			c0.438,0,0.825,0.022,1.162,0.068c0.337,0.045,0.636,0.096,0.896,0.15v1.36c-0.396-0.128-0.769-0.218-1.118-0.271
			c-0.349-0.052-0.694-0.078-1.036-0.078s-0.616,0.062-0.824,0.185s-0.311,0.294-0.311,0.513c0,0.104,0.021,0.198,0.062,0.28
			s0.122,0.161,0.243,0.239c0.121,0.077,0.29,0.158,0.506,0.242c0.216,0.085,0.502,0.177,0.858,0.277
			c0.401,0.113,0.738,0.235,1.012,0.365s0.493,0.277,0.66,0.441s0.286,0.351,0.359,0.561
			C183.584,35.686,183.62,35.925,183.62,36.194z"/>
	</g>
	<g>
		<rect x="8.8" y="74.978" fill="none" width="189.2" height="22"/>
		<path d="M83.74,81.084c0,0.61-0.085,1.144-0.256,1.6c-0.171,0.455-0.407,0.834-0.708,1.135s-0.656,0.526-1.066,0.677
			s-0.854,0.226-1.333,0.226c-0.219,0-0.437-0.012-0.653-0.034c-0.216-0.023-0.437-0.062-0.66-0.116v2.871h-1.189v-9.666h1.06
			l0.075,1.148c0.342-0.47,0.707-0.799,1.094-0.988c0.387-0.188,0.807-0.283,1.258-0.283c0.392,0,0.736,0.082,1.032,0.246
			s0.544,0.396,0.745,0.693c0.201,0.299,0.351,0.659,0.451,1.08C83.69,80.094,83.74,80.564,83.74,81.084z M82.523,81.139
			c0-0.36-0.026-0.69-0.079-0.991s-0.136-0.559-0.25-0.772c-0.114-0.215-0.26-0.382-0.438-0.503c-0.178-0.12-0.39-0.181-0.636-0.181
			c-0.15,0-0.303,0.023-0.458,0.071s-0.315,0.128-0.482,0.239c-0.167,0.112-0.342,0.26-0.526,0.444s-0.382,0.414-0.591,0.688v3.329
			c0.219,0.091,0.449,0.163,0.69,0.215c0.242,0.053,0.479,0.079,0.711,0.079c0.643,0,1.146-0.218,1.511-0.653
			C82.341,82.669,82.523,82.014,82.523,81.139z"/>
		<path d="M91.628,81.152c0,0.533-0.075,1.021-0.226,1.466s-0.367,0.825-0.649,1.142c-0.283,0.317-0.626,0.563-1.032,0.738
			c-0.406,0.176-0.866,0.264-1.381,0.264c-0.492,0-0.933-0.076-1.323-0.229c-0.39-0.152-0.72-0.377-0.991-0.673
			c-0.271-0.297-0.479-0.663-0.622-1.101s-0.215-0.941-0.215-1.511c0-0.533,0.075-1.02,0.226-1.46
			c0.15-0.439,0.367-0.817,0.649-1.135c0.283-0.316,0.626-0.562,1.032-0.738c0.406-0.175,0.866-0.263,1.381-0.263
			c0.492,0,0.933,0.076,1.323,0.229c0.39,0.153,0.72,0.376,0.991,0.67s0.479,0.66,0.622,1.098S91.628,80.587,91.628,81.152z
			 M90.411,81.207c0-0.424-0.047-0.794-0.14-1.111c-0.093-0.316-0.227-0.581-0.4-0.793s-0.384-0.371-0.632-0.479
			c-0.249-0.106-0.525-0.16-0.831-0.16c-0.355,0-0.66,0.069-0.913,0.208c-0.253,0.14-0.46,0.325-0.622,0.558s-0.28,0.502-0.355,0.81
			s-0.113,0.63-0.113,0.968c0,0.424,0.047,0.795,0.14,1.114c0.093,0.318,0.227,0.584,0.4,0.796s0.383,0.372,0.629,0.479
			c0.246,0.107,0.524,0.161,0.834,0.161c0.355,0,0.66-0.069,0.913-0.209c0.253-0.139,0.46-0.324,0.622-0.557s0.28-0.503,0.355-0.811
			S90.411,81.549,90.411,81.207z"/>
		<path d="M99.457,81.152c0,0.533-0.075,1.021-0.226,1.466s-0.367,0.825-0.649,1.142c-0.283,0.317-0.626,0.563-1.032,0.738
			c-0.406,0.176-0.866,0.264-1.381,0.264c-0.492,0-0.933-0.076-1.323-0.229c-0.39-0.152-0.72-0.377-0.991-0.673
			c-0.271-0.297-0.479-0.663-0.622-1.101s-0.215-0.941-0.215-1.511c0-0.533,0.075-1.02,0.226-1.46
			c0.15-0.439,0.367-0.817,0.649-1.135c0.283-0.316,0.626-0.562,1.032-0.738c0.406-0.175,0.866-0.263,1.381-0.263
			c0.492,0,0.933,0.076,1.323,0.229c0.39,0.153,0.72,0.376,0.991,0.67s0.479,0.66,0.622,1.098S99.457,80.587,99.457,81.152z
			 M98.24,81.207c0-0.424-0.047-0.794-0.14-1.111c-0.093-0.316-0.227-0.581-0.4-0.793s-0.384-0.371-0.632-0.479
			c-0.249-0.106-0.525-0.16-0.831-0.16c-0.355,0-0.66,0.069-0.913,0.208c-0.253,0.14-0.46,0.325-0.622,0.558s-0.28,0.502-0.355,0.81
			s-0.113,0.63-0.113,0.968c0,0.424,0.047,0.795,0.14,1.114c0.093,0.318,0.227,0.584,0.4,0.796s0.383,0.372,0.629,0.479
			c0.246,0.107,0.524,0.161,0.834,0.161c0.355,0,0.66-0.069,0.913-0.209c0.253-0.139,0.46-0.324,0.622-0.557s0.28-0.503,0.355-0.811
			S98.24,81.549,98.24,81.207z"/>
		<path d="M103.086,75.957h-2.03v-0.978h3.233v8.668h2.044v0.991h-5.503v-0.991h2.256V75.957z"/>
		<path d="M115.024,87.441h-7.697v-0.984h7.697V87.441z"/>
		<path d="M118.353,78.76h-2.03v-0.984h3.233v5.872h2.044v0.991h-5.503v-0.991h2.256V78.76z M118.77,74.897
			c0.132,0,0.255,0.023,0.369,0.071s0.213,0.115,0.297,0.202c0.084,0.086,0.15,0.186,0.198,0.297
			c0.048,0.112,0.072,0.233,0.072,0.366c0,0.127-0.024,0.248-0.072,0.362c-0.048,0.113-0.114,0.214-0.198,0.301
			c-0.084,0.086-0.184,0.153-0.297,0.201s-0.237,0.072-0.369,0.072s-0.255-0.024-0.369-0.072s-0.213-0.115-0.297-0.201
			c-0.084-0.087-0.15-0.188-0.198-0.301c-0.048-0.114-0.072-0.235-0.072-0.362c0-0.133,0.024-0.254,0.072-0.366
			c0.048-0.111,0.114-0.211,0.198-0.297c0.084-0.087,0.184-0.154,0.297-0.202S118.638,74.897,118.77,74.897z"/>
		<path d="M123.067,81.351c0-0.584,0.08-1.102,0.239-1.556c0.16-0.453,0.386-0.836,0.68-1.148c0.294-0.312,0.647-0.549,1.06-0.711
			c0.413-0.161,0.872-0.242,1.377-0.242c0.219,0,0.434,0.014,0.646,0.041s0.42,0.07,0.625,0.13v-2.885h1.196v9.659h-1.066
			l-0.041-1.299c-0.333,0.482-0.693,0.841-1.08,1.073s-0.807,0.349-1.258,0.349c-0.392,0-0.737-0.082-1.036-0.246
			s-0.547-0.396-0.745-0.694c-0.198-0.298-0.348-0.657-0.448-1.076C123.117,82.325,123.067,81.86,123.067,81.351z M124.284,81.275
			c0,0.829,0.122,1.448,0.366,1.855c0.244,0.408,0.589,0.612,1.036,0.612c0.301,0,0.619-0.135,0.954-0.403
			c0.335-0.27,0.687-0.668,1.056-1.196v-3.186c-0.196-0.092-0.413-0.161-0.649-0.209s-0.472-0.071-0.704-0.071
			c-0.647,0-1.152,0.209-1.514,0.629C124.465,79.726,124.284,80.382,124.284,81.275z"/>
	</g>
	<g>
		<rect x="316.8" y="28.578" fill="none" width="180.4" height="17.6"/>
		<path d="M338.554,38.238l-0.041-1.025c-0.146,0.178-0.296,0.34-0.451,0.485c-0.155,0.146-0.321,0.271-0.499,0.373
			s-0.368,0.182-0.571,0.239c-0.203,0.057-0.427,0.085-0.673,0.085c-0.41,0-0.775-0.082-1.094-0.246s-0.587-0.397-0.803-0.7
			c-0.216-0.304-0.382-0.671-0.496-1.104c-0.114-0.433-0.171-0.916-0.171-1.449c0-0.638,0.09-1.19,0.27-1.657
			c0.18-0.468,0.43-0.854,0.749-1.162s0.697-0.536,1.135-0.684c0.438-0.148,0.914-0.223,1.429-0.223
			c0.173,0,0.348,0.012,0.523,0.034c0.175,0.023,0.332,0.053,0.468,0.089v-2.714h1.668v9.659H338.554z M335.505,34.82
			c0,0.383,0.026,0.71,0.079,0.981c0.052,0.271,0.13,0.493,0.232,0.666c0.103,0.174,0.229,0.3,0.379,0.38
			c0.15,0.079,0.321,0.119,0.513,0.119c0.283,0,0.551-0.113,0.807-0.342c0.255-0.228,0.526-0.54,0.813-0.937v-3.035
			c-0.132-0.05-0.295-0.091-0.489-0.123c-0.194-0.031-0.389-0.048-0.584-0.048c-0.269,0-0.51,0.055-0.725,0.164
			s-0.397,0.265-0.55,0.465c-0.153,0.201-0.27,0.445-0.352,0.735C335.546,34.136,335.505,34.461,335.505,34.82z"/>
		<path d="M347.05,38.238v-4.73c0-0.173-0.004-0.324-0.014-0.454s-0.027-0.238-0.055-0.325c-0.027-0.086-0.067-0.151-0.12-0.194
			c-0.052-0.044-0.124-0.065-0.215-0.065c-0.141,0-0.28,0.096-0.417,0.287s-0.292,0.518-0.465,0.978v4.505h-1.429v-4.73
			c0-0.173-0.004-0.324-0.014-0.454s-0.027-0.238-0.055-0.325c-0.027-0.086-0.068-0.151-0.123-0.194
			c-0.055-0.044-0.127-0.065-0.219-0.065c-0.119,0-0.25,0.096-0.396,0.287s-0.308,0.518-0.485,0.978v4.505h-1.442v-6.945h1.237
			l0.027,1.012c0.1-0.205,0.201-0.38,0.301-0.526c0.1-0.146,0.208-0.266,0.321-0.358c0.114-0.094,0.236-0.161,0.366-0.202
			s0.277-0.062,0.441-0.062c0.387,0,0.683,0.102,0.885,0.305c0.203,0.202,0.318,0.484,0.345,0.844
			c0.109-0.205,0.218-0.38,0.325-0.526c0.107-0.146,0.219-0.266,0.335-0.358c0.116-0.094,0.242-0.161,0.376-0.202
			s0.284-0.062,0.448-0.062c0.506,0,0.879,0.177,1.121,0.53c0.242,0.353,0.362,0.876,0.362,1.568v4.983H347.05z"/>
		<path d="M349.274,41.041v-1.319h7.697v1.319H349.274z"/>
		<path d="M363.45,29.994c-0.201-0.063-0.438-0.117-0.714-0.16c-0.276-0.044-0.557-0.065-0.844-0.065
			c-0.196,0-0.378,0.026-0.547,0.079c-0.168,0.052-0.314,0.136-0.438,0.249c-0.123,0.114-0.22,0.259-0.291,0.435
			c-0.071,0.175-0.106,0.389-0.106,0.639v1.121h2.728v1.299h-2.728v4.648h-1.682V33.59h-2.017v-1.299h2.017v-1.053
			c0-0.492,0.072-0.915,0.215-1.268c0.144-0.354,0.346-0.643,0.608-0.868s0.578-0.391,0.947-0.496
			c0.369-0.104,0.782-0.157,1.237-0.157c0.301,0,0.587,0.02,0.858,0.059c0.271,0.038,0.523,0.085,0.755,0.14V29.994z"/>
		<path d="M370.712,38.17c-0.301,0.068-0.604,0.123-0.909,0.164s-0.595,0.062-0.868,0.062c-0.456,0-0.849-0.048-1.179-0.144
			s-0.604-0.241-0.82-0.438c-0.216-0.195-0.376-0.445-0.479-0.748c-0.103-0.304-0.154-0.664-0.154-1.084v-3.391h-1.866v-1.299h1.866
			v-1.777l1.709-0.444v2.222h2.7v1.299h-2.7v3.268c0,0.396,0.091,0.696,0.273,0.899c0.182,0.202,0.488,0.304,0.916,0.304
			c0.273,0,0.54-0.022,0.8-0.068c0.26-0.045,0.497-0.098,0.711-0.157V38.17z"/>
		<path d="M377.995,36.194c0,0.396-0.088,0.735-0.263,1.016s-0.408,0.508-0.697,0.684c-0.29,0.175-0.618,0.303-0.984,0.383
			c-0.367,0.079-0.742,0.119-1.125,0.119c-0.51,0-0.971-0.023-1.381-0.071s-0.797-0.117-1.162-0.209v-1.504
			c0.428,0.178,0.855,0.307,1.282,0.387c0.426,0.079,0.828,0.119,1.207,0.119c0.438,0,0.765-0.069,0.981-0.208
			c0.216-0.14,0.325-0.32,0.325-0.544c0-0.104-0.023-0.2-0.068-0.287c-0.045-0.086-0.131-0.17-0.256-0.249
			c-0.125-0.08-0.302-0.162-0.53-0.246c-0.228-0.085-0.526-0.179-0.896-0.284c-0.342-0.096-0.642-0.204-0.899-0.324
			c-0.257-0.121-0.471-0.264-0.639-0.428s-0.295-0.354-0.379-0.57c-0.084-0.217-0.126-0.471-0.126-0.763
			c0-0.282,0.064-0.549,0.191-0.8c0.127-0.25,0.318-0.471,0.571-0.659c0.253-0.189,0.568-0.339,0.947-0.448s0.82-0.164,1.326-0.164
			c0.438,0,0.825,0.023,1.162,0.068c0.337,0.046,0.636,0.096,0.896,0.15v1.36c-0.396-0.127-0.769-0.218-1.118-0.27
			c-0.349-0.053-0.694-0.079-1.036-0.079s-0.616,0.062-0.824,0.185s-0.311,0.294-0.311,0.513c0,0.105,0.021,0.198,0.062,0.28
			s0.122,0.162,0.243,0.239c0.121,0.078,0.29,0.158,0.506,0.243c0.216,0.084,0.502,0.177,0.858,0.276
			c0.401,0.114,0.738,0.236,1.012,0.366s0.493,0.276,0.66,0.44s0.286,0.352,0.359,0.561
			C377.958,35.687,377.995,35.926,377.995,36.194z"/>
		<path d="M378.911,41.041v-1.319h7.697v1.319H378.911z"/>
		<path d="M392.845,38.238v-4.73c0-0.173-0.004-0.324-0.014-0.454s-0.027-0.238-0.055-0.325c-0.027-0.086-0.067-0.151-0.12-0.194
			c-0.052-0.044-0.124-0.065-0.215-0.065c-0.141,0-0.28,0.096-0.417,0.287s-0.292,0.518-0.465,0.978v4.505h-1.429v-4.73
			c0-0.173-0.004-0.324-0.014-0.454s-0.027-0.238-0.055-0.325c-0.027-0.086-0.068-0.151-0.123-0.194
			c-0.055-0.044-0.127-0.065-0.219-0.065c-0.119,0-0.25,0.096-0.396,0.287s-0.308,0.518-0.485,0.978v4.505h-1.442v-6.945h1.237
			l0.027,1.012c0.1-0.205,0.201-0.38,0.301-0.526c0.1-0.146,0.208-0.266,0.321-0.358c0.114-0.094,0.236-0.161,0.366-0.202
			s0.277-0.062,0.441-0.062c0.387,0,0.683,0.102,0.885,0.305c0.203,0.202,0.318,0.484,0.345,0.844
			c0.109-0.205,0.218-0.38,0.325-0.526c0.107-0.146,0.219-0.266,0.335-0.358c0.116-0.094,0.242-0.161,0.376-0.202
			s0.284-0.062,0.448-0.062c0.506,0,0.879,0.177,1.121,0.53c0.242,0.353,0.362,0.876,0.362,1.568v4.983H392.845z"/>
		<path d="M401.898,34.232c0,0.114-0.003,0.263-0.01,0.444c-0.007,0.183-0.017,0.354-0.031,0.513h-4.566
			c0,0.306,0.047,0.574,0.14,0.807s0.226,0.428,0.396,0.585s0.376,0.276,0.615,0.358s0.505,0.123,0.796,0.123
			c0.337,0,0.698-0.026,1.083-0.078c0.385-0.053,0.785-0.138,1.2-0.257v1.326c-0.178,0.051-0.372,0.096-0.581,0.137
			s-0.424,0.078-0.643,0.109c-0.219,0.032-0.44,0.056-0.663,0.072c-0.223,0.016-0.44,0.023-0.649,0.023
			c-0.529,0-1.002-0.075-1.422-0.226s-0.775-0.372-1.066-0.666s-0.515-0.657-0.67-1.091c-0.155-0.433-0.232-0.934-0.232-1.504
			c0-0.564,0.078-1.079,0.232-1.541c0.155-0.463,0.374-0.859,0.656-1.189c0.283-0.331,0.625-0.586,1.029-0.766
			c0.403-0.181,0.854-0.271,1.35-0.271c0.492,0,0.927,0.076,1.306,0.229c0.378,0.152,0.695,0.365,0.95,0.639s0.449,0.6,0.581,0.978
			C401.832,33.367,401.898,33.781,401.898,34.232z M400.202,33.993c0.004-0.273-0.03-0.512-0.103-0.714
			c-0.073-0.203-0.172-0.37-0.297-0.503c-0.125-0.132-0.271-0.229-0.438-0.294c-0.167-0.063-0.345-0.096-0.537-0.096
			c-0.419,0-0.763,0.141-1.032,0.421s-0.428,0.676-0.479,1.186H400.202z"/>
		<path d="M408.714,38.238v-4.73c0-0.173-0.004-0.324-0.014-0.454s-0.027-0.238-0.055-0.325c-0.027-0.086-0.067-0.151-0.12-0.194
			c-0.052-0.044-0.124-0.065-0.215-0.065c-0.141,0-0.28,0.096-0.417,0.287s-0.292,0.518-0.465,0.978v4.505H406v-4.73
			c0-0.173-0.004-0.324-0.014-0.454s-0.027-0.238-0.055-0.325c-0.027-0.086-0.068-0.151-0.123-0.194
			c-0.055-0.044-0.127-0.065-0.219-0.065c-0.119,0-0.25,0.096-0.396,0.287s-0.308,0.518-0.485,0.978v4.505h-1.442v-6.945h1.237
			l0.027,1.012c0.1-0.205,0.201-0.38,0.301-0.526c0.1-0.146,0.208-0.266,0.321-0.358c0.114-0.094,0.236-0.161,0.366-0.202
			s0.277-0.062,0.441-0.062c0.387,0,0.683,0.102,0.885,0.305c0.203,0.202,0.318,0.484,0.345,0.844
			c0.109-0.205,0.218-0.38,0.325-0.526c0.107-0.146,0.219-0.266,0.335-0.358c0.116-0.094,0.242-0.161,0.376-0.202
			s0.284-0.062,0.448-0.062c0.506,0,0.879,0.177,1.121,0.53c0.242,0.353,0.362,0.876,0.362,1.568v4.983H408.714z"/>
		<path d="M418.091,34.711c0,0.547-0.078,1.047-0.232,1.501c-0.155,0.453-0.378,0.842-0.67,1.165
			c-0.292,0.324-0.649,0.574-1.073,0.752s-0.907,0.267-1.449,0.267c-0.515,0-0.975-0.075-1.381-0.226s-0.75-0.375-1.032-0.673
			c-0.283-0.299-0.499-0.673-0.649-1.121c-0.15-0.449-0.226-0.972-0.226-1.569c0-0.551,0.079-1.053,0.236-1.504
			s0.383-0.836,0.677-1.155c0.294-0.318,0.653-0.566,1.077-0.741c0.424-0.176,0.902-0.264,1.436-0.264
			c0.52,0,0.982,0.076,1.388,0.229c0.406,0.152,0.75,0.379,1.032,0.68s0.498,0.674,0.646,1.118S418.091,34.128,418.091,34.711z
			 M416.355,34.752c0-0.72-0.136-1.261-0.407-1.623s-0.671-0.544-1.2-0.544c-0.292,0-0.54,0.058-0.745,0.171
			c-0.205,0.114-0.374,0.271-0.506,0.469s-0.229,0.43-0.291,0.693c-0.062,0.265-0.092,0.547-0.092,0.848
			c0,0.725,0.146,1.271,0.438,1.638c0.292,0.366,0.69,0.55,1.196,0.55c0.278,0,0.52-0.056,0.725-0.167
			c0.205-0.112,0.372-0.267,0.499-0.465s0.223-0.432,0.287-0.701C416.323,35.352,416.355,35.062,416.355,34.752z"/>
		<path d="M423.923,33.993c0.009-0.26-0.003-0.48-0.038-0.663c-0.034-0.182-0.089-0.332-0.164-0.451
			c-0.075-0.118-0.167-0.205-0.277-0.26s-0.235-0.082-0.376-0.082c-0.246,0-0.5,0.102-0.762,0.305
			c-0.262,0.202-0.55,0.536-0.865,1.001v4.396h-1.709v-6.945h1.511l0.062,1.012c0.114-0.178,0.243-0.337,0.386-0.479
			c0.144-0.141,0.303-0.263,0.479-0.365s0.37-0.182,0.584-0.236s0.449-0.082,0.704-0.082c0.351,0,0.662,0.061,0.933,0.182
			c0.271,0.12,0.499,0.3,0.684,0.536c0.185,0.237,0.321,0.534,0.41,0.893c0.089,0.357,0.126,0.771,0.113,1.24H423.923z"/>
		<path d="M431.297,37.479c-0.242,0.602-0.493,1.129-0.755,1.583c-0.262,0.453-0.55,0.831-0.865,1.135
			c-0.314,0.303-0.664,0.53-1.049,0.684c-0.385,0.152-0.817,0.229-1.295,0.229c-0.114,0-0.238-0.006-0.373-0.017
			c-0.134-0.012-0.272-0.028-0.414-0.052v-1.415c0.055,0.01,0.117,0.02,0.188,0.031c0.071,0.011,0.145,0.021,0.222,0.027
			s0.156,0.013,0.236,0.017c0.08,0.005,0.154,0.007,0.222,0.007c0.191,0,0.369-0.036,0.533-0.109
			c0.164-0.072,0.315-0.174,0.455-0.304s0.266-0.285,0.379-0.465c0.114-0.181,0.214-0.377,0.301-0.592l-2.755-6.945h1.859
			l1.442,3.938l0.431,1.271l0.424-1.217l1.456-3.992h1.791L431.297,37.479z"/>
		<path d="M434.612,41.041v-1.319h7.697v1.319H434.612z"/>
		<path d="M449.845,34.643c0,0.639-0.09,1.189-0.27,1.654s-0.431,0.852-0.752,1.159s-0.701,0.535-1.138,0.684
			c-0.438,0.147-0.914,0.222-1.429,0.222c-0.173,0-0.346-0.011-0.52-0.034c-0.173-0.022-0.331-0.052-0.472-0.089v2.714h-1.668
			v-9.659h1.442l0.041,1.025c0.141-0.178,0.288-0.339,0.441-0.485c0.153-0.146,0.318-0.27,0.496-0.372s0.369-0.182,0.574-0.236
			s0.435-0.082,0.69-0.082c0.41,0,0.775,0.082,1.094,0.246s0.587,0.397,0.803,0.701c0.216,0.303,0.382,0.67,0.496,1.101
			S449.845,34.105,449.845,34.643z M448.095,34.711c0-0.383-0.027-0.708-0.082-0.978c-0.055-0.269-0.133-0.489-0.236-0.663
			c-0.103-0.173-0.228-0.3-0.376-0.379c-0.148-0.08-0.318-0.12-0.509-0.12c-0.283,0-0.553,0.114-0.81,0.342
			c-0.257,0.229-0.53,0.538-0.817,0.93v3.035c0.132,0.051,0.295,0.092,0.489,0.123c0.194,0.032,0.391,0.048,0.591,0.048
			c0.264,0,0.505-0.055,0.721-0.164s0.401-0.264,0.554-0.465c0.153-0.2,0.27-0.445,0.352-0.734
			C448.054,35.396,448.095,35.071,448.095,34.711z"/>
		<path d="M457.682,34.711c0,0.547-0.078,1.047-0.232,1.501c-0.155,0.453-0.378,0.842-0.67,1.165
			c-0.292,0.324-0.649,0.574-1.073,0.752s-0.907,0.267-1.449,0.267c-0.515,0-0.975-0.075-1.381-0.226s-0.75-0.375-1.032-0.673
			c-0.283-0.299-0.499-0.673-0.649-1.121c-0.15-0.449-0.226-0.972-0.226-1.569c0-0.551,0.079-1.053,0.236-1.504
			s0.383-0.836,0.677-1.155c0.294-0.318,0.653-0.566,1.077-0.741c0.424-0.176,0.902-0.264,1.436-0.264
			c0.52,0,0.982,0.076,1.388,0.229c0.406,0.152,0.75,0.379,1.032,0.68s0.498,0.674,0.646,1.118S457.682,34.128,457.682,34.711z
			 M455.945,34.752c0-0.72-0.136-1.261-0.407-1.623s-0.671-0.544-1.2-0.544c-0.292,0-0.54,0.058-0.745,0.171
			c-0.205,0.114-0.374,0.271-0.506,0.469s-0.229,0.43-0.291,0.693c-0.062,0.265-0.092,0.547-0.092,0.848
			c0,0.725,0.146,1.271,0.438,1.638c0.292,0.366,0.69,0.55,1.196,0.55c0.278,0,0.52-0.056,0.725-0.167
			c0.205-0.112,0.372-0.267,0.499-0.465s0.223-0.432,0.287-0.701C455.914,35.352,455.945,35.062,455.945,34.752z"/>
		<path d="M465.512,34.711c0,0.547-0.078,1.047-0.232,1.501c-0.155,0.453-0.378,0.842-0.67,1.165
			c-0.292,0.324-0.649,0.574-1.073,0.752s-0.907,0.267-1.449,0.267c-0.515,0-0.975-0.075-1.381-0.226s-0.75-0.375-1.032-0.673
			c-0.283-0.299-0.499-0.673-0.649-1.121c-0.15-0.449-0.226-0.972-0.226-1.569c0-0.551,0.079-1.053,0.236-1.504
			s0.383-0.836,0.677-1.155c0.294-0.318,0.653-0.566,1.077-0.741c0.424-0.176,0.902-0.264,1.436-0.264
			c0.52,0,0.982,0.076,1.388,0.229c0.406,0.152,0.75,0.379,1.032,0.68s0.498,0.674,0.646,1.118S465.512,34.128,465.512,34.711z
			 M463.776,34.752c0-0.72-0.136-1.261-0.407-1.623s-0.671-0.544-1.2-0.544c-0.292,0-0.54,0.058-0.745,0.171
			c-0.205,0.114-0.374,0.271-0.506,0.469s-0.229,0.43-0.291,0.693c-0.062,0.265-0.092,0.547-0.092,0.848
			c0,0.725,0.146,1.271,0.438,1.638c0.292,0.366,0.69,0.55,1.196,0.55c0.278,0,0.52-0.056,0.725-0.167
			c0.205-0.112,0.372-0.267,0.499-0.465s0.223-0.432,0.287-0.701C463.744,35.352,463.776,35.062,463.776,34.752z"/>
		<path d="M468.865,29.878h-1.962v-1.299h3.671v8.36h2.003v1.299h-5.913v-1.299h2.201V29.878z"/>
		<path d="M479.746,36.194c0,0.396-0.088,0.735-0.263,1.016s-0.408,0.508-0.697,0.684c-0.29,0.175-0.618,0.303-0.984,0.383
			c-0.367,0.079-0.742,0.119-1.125,0.119c-0.51,0-0.971-0.023-1.381-0.071s-0.797-0.117-1.162-0.209v-1.504
			c0.428,0.178,0.855,0.307,1.282,0.387c0.426,0.079,0.828,0.119,1.207,0.119c0.438,0,0.765-0.069,0.981-0.208
			c0.216-0.14,0.325-0.32,0.325-0.544c0-0.104-0.023-0.2-0.068-0.287c-0.045-0.086-0.131-0.17-0.256-0.249
			c-0.125-0.08-0.302-0.162-0.53-0.246c-0.228-0.085-0.526-0.179-0.896-0.284c-0.342-0.096-0.642-0.204-0.899-0.324
			c-0.257-0.121-0.471-0.264-0.639-0.428s-0.295-0.354-0.379-0.57c-0.084-0.217-0.126-0.471-0.126-0.763
			c0-0.282,0.064-0.549,0.191-0.8c0.127-0.25,0.318-0.471,0.571-0.659c0.253-0.189,0.568-0.339,0.947-0.448s0.82-0.164,1.326-0.164
			c0.438,0,0.825,0.023,1.162,0.068c0.337,0.046,0.636,0.096,0.896,0.15v1.36c-0.396-0.127-0.769-0.218-1.118-0.27
			c-0.349-0.053-0.694-0.079-1.036-0.079s-0.616,0.062-0.824,0.185s-0.311,0.294-0.311,0.513c0,0.105,0.021,0.198,0.062,0.28
			s0.122,0.162,0.243,0.239c0.121,0.078,0.29,0.158,0.506,0.243c0.216,0.084,0.502,0.177,0.858,0.276
			c0.401,0.114,0.738,0.236,1.012,0.366s0.493,0.276,0.66,0.44s0.286,0.352,0.359,0.561
			C479.709,35.687,479.746,35.926,479.746,36.194z"/>
	</g>
	<g>
		<rect x="312.4" y="74.978" fill="none" width="189.2" height="22"/>
		<path d="M387.34,81.084c0,0.61-0.085,1.144-0.256,1.6c-0.171,0.455-0.407,0.834-0.708,1.135s-0.656,0.526-1.066,0.677
			s-0.854,0.226-1.333,0.226c-0.219,0-0.437-0.012-0.653-0.034c-0.216-0.023-0.437-0.062-0.66-0.116v2.871h-1.189v-9.666h1.06
			l0.075,1.148c0.342-0.47,0.707-0.799,1.094-0.988c0.387-0.188,0.807-0.283,1.258-0.283c0.392,0,0.736,0.082,1.032,0.246
			s0.544,0.396,0.745,0.693c0.201,0.299,0.351,0.659,0.451,1.08C387.29,80.094,387.34,80.564,387.34,81.084z M386.123,81.139
			c0-0.36-0.026-0.69-0.079-0.991s-0.136-0.559-0.25-0.772c-0.114-0.215-0.26-0.382-0.438-0.503c-0.178-0.12-0.39-0.181-0.636-0.181
			c-0.15,0-0.303,0.023-0.458,0.071s-0.315,0.128-0.482,0.239c-0.167,0.112-0.342,0.26-0.526,0.444s-0.382,0.414-0.591,0.688v3.329
			c0.219,0.091,0.449,0.163,0.69,0.215c0.242,0.053,0.479,0.079,0.711,0.079c0.643,0,1.146-0.218,1.511-0.653
			C385.941,82.669,386.123,82.014,386.123,81.139z"/>
		<path d="M395.228,81.152c0,0.533-0.075,1.021-0.226,1.466s-0.367,0.825-0.649,1.142c-0.283,0.317-0.626,0.563-1.032,0.738
			c-0.406,0.176-0.866,0.264-1.381,0.264c-0.492,0-0.933-0.076-1.323-0.229c-0.39-0.152-0.72-0.377-0.991-0.673
			c-0.271-0.297-0.479-0.663-0.622-1.101s-0.215-0.941-0.215-1.511c0-0.533,0.075-1.02,0.226-1.46
			c0.15-0.439,0.367-0.817,0.649-1.135c0.283-0.316,0.626-0.562,1.032-0.738c0.406-0.175,0.866-0.263,1.381-0.263
			c0.492,0,0.933,0.076,1.323,0.229c0.39,0.153,0.72,0.376,0.991,0.67s0.479,0.66,0.622,1.098S395.228,80.587,395.228,81.152z
			 M394.011,81.207c0-0.424-0.047-0.794-0.14-1.111c-0.093-0.316-0.227-0.581-0.4-0.793s-0.384-0.371-0.632-0.479
			c-0.249-0.106-0.525-0.16-0.831-0.16c-0.355,0-0.66,0.069-0.913,0.208c-0.253,0.14-0.46,0.325-0.622,0.558s-0.28,0.502-0.355,0.81
			s-0.113,0.63-0.113,0.968c0,0.424,0.047,0.795,0.14,1.114c0.093,0.318,0.227,0.584,0.4,0.796s0.383,0.372,0.629,0.479
			c0.246,0.107,0.524,0.161,0.834,0.161c0.355,0,0.66-0.069,0.913-0.209c0.253-0.139,0.46-0.324,0.622-0.557s0.28-0.503,0.355-0.811
			S394.011,81.549,394.011,81.207z"/>
		<path d="M403.057,81.152c0,0.533-0.075,1.021-0.226,1.466s-0.367,0.825-0.649,1.142c-0.283,0.317-0.626,0.563-1.032,0.738
			c-0.406,0.176-0.866,0.264-1.381,0.264c-0.492,0-0.933-0.076-1.323-0.229c-0.39-0.152-0.72-0.377-0.991-0.673
			c-0.271-0.297-0.479-0.663-0.622-1.101s-0.215-0.941-0.215-1.511c0-0.533,0.075-1.02,0.226-1.46
			c0.15-0.439,0.367-0.817,0.649-1.135c0.283-0.316,0.626-0.562,1.032-0.738c0.406-0.175,0.866-0.263,1.381-0.263
			c0.492,0,0.933,0.076,1.323,0.229c0.39,0.153,0.72,0.376,0.991,0.67s0.479,0.66,0.622,1.098S403.057,80.587,403.057,81.152z
			 M401.84,81.207c0-0.424-0.047-0.794-0.14-1.111c-0.093-0.316-0.227-0.581-0.4-0.793s-0.384-0.371-0.632-0.479
			c-0.249-0.106-0.525-0.16-0.831-0.16c-0.355,0-0.66,0.069-0.913,0.208c-0.253,0.14-0.46,0.325-0.622,0.558s-0.28,0.502-0.355,0.81
			s-0.113,0.63-0.113,0.968c0,0.424,0.047,0.795,0.14,1.114c0.093,0.318,0.227,0.584,0.4,0.796s0.383,0.372,0.629,0.479
			c0.246,0.107,0.524,0.161,0.834,0.161c0.355,0,0.66-0.069,0.913-0.209c0.253-0.139,0.46-0.324,0.622-0.557s0.28-0.503,0.355-0.811
			S401.84,81.549,401.84,81.207z"/>
		<path d="M406.686,75.957h-2.03v-0.978h3.233v8.668h2.044v0.991h-5.503v-0.991h2.256V75.957z"/>
		<path d="M418.624,87.441h-7.697v-0.984h7.697V87.441z"/>
		<path d="M421.953,78.76h-2.03v-0.984h3.233v5.872h2.044v0.991h-5.503v-0.991h2.256V78.76z M422.37,74.897
			c0.132,0,0.255,0.023,0.369,0.071s0.213,0.115,0.297,0.202c0.084,0.086,0.15,0.186,0.198,0.297
			c0.048,0.112,0.072,0.233,0.072,0.366c0,0.127-0.024,0.248-0.072,0.362c-0.048,0.113-0.114,0.214-0.198,0.301
			c-0.084,0.086-0.184,0.153-0.297,0.201s-0.237,0.072-0.369,0.072s-0.255-0.024-0.369-0.072s-0.213-0.115-0.297-0.201
			c-0.084-0.087-0.15-0.188-0.198-0.301c-0.048-0.114-0.072-0.235-0.072-0.362c0-0.133,0.024-0.254,0.072-0.366
			c0.048-0.111,0.114-0.211,0.198-0.297c0.084-0.087,0.184-0.154,0.297-0.202S422.238,74.897,422.37,74.897z"/>
		<path d="M426.667,81.351c0-0.584,0.08-1.102,0.239-1.556c0.16-0.453,0.386-0.836,0.68-1.148c0.294-0.312,0.647-0.549,1.06-0.711
			c0.413-0.161,0.872-0.242,1.377-0.242c0.219,0,0.434,0.014,0.646,0.041s0.42,0.07,0.625,0.13v-2.885h1.196v9.659h-1.066
			l-0.041-1.299c-0.333,0.482-0.693,0.841-1.08,1.073s-0.807,0.349-1.258,0.349c-0.392,0-0.737-0.082-1.036-0.246
			s-0.547-0.396-0.745-0.694c-0.198-0.298-0.348-0.657-0.448-1.076C426.717,82.325,426.667,81.86,426.667,81.351z M427.884,81.275
			c0,0.829,0.122,1.448,0.366,1.855c0.244,0.408,0.589,0.612,1.036,0.612c0.301,0,0.619-0.135,0.954-0.403
			c0.335-0.27,0.687-0.668,1.056-1.196v-3.186c-0.196-0.092-0.413-0.161-0.649-0.209s-0.472-0.071-0.704-0.071
			c-0.647,0-1.152,0.209-1.514,0.629C428.065,79.726,427.884,80.382,427.884,81.275z"/>
	</g>
</g>
<g id="Layer_1">
</g>
</svg>
