<?xml version="1.0" encoding="utf-8"?>
<!-- Generator: Adobe Illustrator 26.3.1, SVG Export Plug-In . SVG Version: 6.00 Build 0)  -->
<svg version="1.1" xmlns="http://www.w3.org/2000/svg" xmlns:xlink="http://www.w3.org/1999/xlink" x="0px" y="0px"
	 viewBox="0 0 510.4 105.6" enable-background="new 0 0 510.4 105.6" xml:space="preserve">
<symbol  id="PIPELINE" viewBox="-32 -12.266 64 24.531">
	<linearGradient id="SVGID_1_" gradientUnits="userSpaceOnUse" x1="0" y1="-12.2655" x2="1.502093e-15" y2="12.2655">
		<stop  offset="0" style="stop-color:#1B89B2"/>
		<stop  offset="1" style="stop-color:#51C8E8"/>
	</linearGradient>
	<path fill="url(#SVGID_1_)" d="M26.096,12.266h-51.448v0h0C-29.08,12.265-32,6.878-32,0s2.92-12.265,6.648-12.265h0v0h51.448
		C29.356-12.266,32-6.363,32,0S29.356,12.266,26.096,12.266z"/>
	<g>
		
			<linearGradient id="SVGID_00000008124408469109029330000016114589777433012914_" gradientUnits="userSpaceOnUse" x1="-31.461" y1="-6.1136" x2="-19.2338" y2="6.1136">
			<stop  offset="0" style="stop-color:#B3B4B4"/>
			<stop  offset="1" style="stop-color:#4F4F4F"/>
		</linearGradient>
		<ellipse fill="url(#SVGID_00000008124408469109029330000016114589777433012914_)" cx="-25.347" cy="0" rx="5.575" ry="10.879"/>
	</g>
</symbol>
<g id="Shapes">
	<rect fill="#FFFFFF" width="510.4" height="105.6"/>
	<g id="Wrench_tool_x28_s_x29_">
	</g>
	<g id="user2">
	</g>
	<g id="user2_1_">
	</g>
	<g id="user2_4_">
	</g>
	<g id="user2_3_">
	</g>
	<g id="user2_2_">
	</g>
	<g id="Internet_2">
	</g>
	<g id="Enterprise">
	</g>
	<g id="Tunnel__x28_stackable_x29_">
	</g>
	<g id="New_Symbol">
	</g>
	<g id="New_Symbol_1">
	</g>
	<g id="Files">
	</g>
	<g id="BlobBlock">
	</g>
	<g id="E_x5F_Enterprise">
	</g>
	<g id="E_x5F_AD_FS">
	</g>
	<g id="C_x5F_Azure_Active_Directory">
	</g>
	<g>
		<g opacity="0.3">
			<rect x="5.4" y="5.4" fill="#212121" width="198" height="57.2"/>
			<rect x="5.4" y="5.4" opacity="0.35" fill="#212121" width="198" height="57.2"/>
		</g>
		<g>
			<rect x="4.4" y="4.4" fill="#FFFFFF" width="198" height="57.2"/>
			<rect x="4.4" y="4.4" opacity="0.35" fill="#1B93EB" width="198" height="57.2"/>
		</g>
	</g>
	<g>
		<g opacity="0.3">
			<rect x="5.4" y="62.6" fill="#212121" width="198" height="39.6"/>
			<rect x="5.4" y="62.6" opacity="0.15" fill="#212121" width="198" height="39.6"/>
		</g>
		<g>
			<rect x="4.4" y="61.6" fill="#FFFFFF" width="198" height="39.6"/>
			<rect x="4.4" y="61.6" opacity="0.15" fill="#1B93EB" width="198" height="39.6"/>
		</g>
	</g>
	<g>
		<g opacity="0.3">
			<rect x="309" y="5.4" fill="#212121" width="198" height="57.2"/>
			<rect x="309" y="5.4" opacity="0.35" fill="#212121" width="198" height="57.2"/>
		</g>
		<g>
			<rect x="308" y="4.4" fill="#FFFFFF" width="198" height="57.2"/>
			<rect x="308" y="4.4" opacity="0.35" fill="#1B93EB" width="198" height="57.2"/>
		</g>
	</g>
	<g>
		<g opacity="0.3">
			<rect x="309" y="62.6" fill="#212121" width="198" height="39.6"/>
			<rect x="309" y="62.6" opacity="0.15" fill="#212121" width="198" height="39.6"/>
		</g>
		<g>
			<rect x="308" y="61.6" fill="#FFFFFF" width="198" height="39.6"/>
			<rect x="308" y="61.6" opacity="0.15" fill="#1B93EB" width="198" height="39.6"/>
		</g>
	</g>
	<line fill="none" stroke="#005CA1" x1="202.4" y1="83.6" x2="308" y2="83.6"/>
	<line fill="none" stroke="#005CA1" x1="211.2" y1="78.1" x2="211.2" y2="89.1"/>
	<line fill="none" stroke="#005CA1" x1="299.2" y1="78.1" x2="299.2" y2="89.1"/>
</g>
<g id="Text">
	<g>
		<rect x="30.8" y="19.6" fill="none" width="145.2" height="39.6"/>
		<path d="M36.16,29.26l-0.041-1.025c-0.146,0.178-0.296,0.339-0.451,0.485s-0.321,0.27-0.499,0.373s-0.368,0.182-0.571,0.239
			s-0.427,0.085-0.673,0.085c-0.41,0-0.775-0.082-1.094-0.246s-0.587-0.397-0.803-0.701s-0.382-0.671-0.496-1.104
			s-0.171-0.916-0.171-1.449c0-0.638,0.09-1.19,0.27-1.658s0.43-0.854,0.749-1.162s0.697-0.536,1.135-0.684s0.914-0.222,1.429-0.222
			c0.173,0,0.348,0.011,0.523,0.034s0.332,0.052,0.468,0.089v-2.714h1.668v9.659H36.16z M33.111,25.842
			c0,0.383,0.026,0.71,0.079,0.981s0.13,0.493,0.232,0.667s0.229,0.3,0.379,0.379s0.321,0.12,0.513,0.12
			c0.283,0,0.551-0.114,0.807-0.342s0.526-0.54,0.813-0.937v-3.035c-0.132-0.05-0.295-0.091-0.489-0.123s-0.389-0.048-0.584-0.048
			c-0.269,0-0.51,0.055-0.725,0.164s-0.397,0.264-0.55,0.465s-0.27,0.445-0.352,0.735S33.111,25.482,33.111,25.842z"/>
		<path d="M44.656,29.26v-4.73c0-0.173-0.004-0.325-0.014-0.455s-0.027-0.238-0.055-0.325s-0.067-0.151-0.12-0.195
			s-0.124-0.065-0.215-0.065c-0.141,0-0.28,0.096-0.417,0.287s-0.292,0.517-0.465,0.978v4.505h-1.429v-4.73
			c0-0.173-0.004-0.325-0.014-0.455s-0.027-0.238-0.055-0.325s-0.068-0.151-0.123-0.195s-0.127-0.065-0.219-0.065
			c-0.119,0-0.25,0.096-0.396,0.287s-0.308,0.517-0.485,0.978v4.505h-1.442v-6.945h1.237l0.027,1.012
			c0.1-0.205,0.201-0.38,0.301-0.526s0.208-0.266,0.321-0.359s0.236-0.161,0.366-0.202s0.277-0.062,0.441-0.062
			c0.387,0,0.683,0.102,0.885,0.304s0.318,0.484,0.345,0.844c0.109-0.205,0.218-0.38,0.325-0.526s0.219-0.266,0.335-0.359
			s0.242-0.161,0.376-0.202s0.284-0.062,0.448-0.062c0.506,0,0.879,0.177,1.121,0.53s0.362,0.876,0.362,1.569v4.983H44.656z"/>
		<path d="M46.88,32.063v-1.319h7.697v1.319H46.88z"/>
		<path d="M61.45,25.254c0,0.114-0.003,0.262-0.01,0.444s-0.017,0.353-0.031,0.513h-4.566c0,0.305,0.047,0.574,0.14,0.807
			s0.226,0.427,0.396,0.584s0.376,0.277,0.615,0.359s0.505,0.123,0.796,0.123c0.337,0,0.698-0.026,1.083-0.079
			s0.785-0.138,1.2-0.256v1.326c-0.178,0.05-0.372,0.096-0.581,0.137s-0.424,0.078-0.643,0.109s-0.44,0.056-0.663,0.072
			s-0.44,0.024-0.649,0.024c-0.529,0-1.002-0.075-1.422-0.226s-0.775-0.373-1.066-0.667s-0.515-0.657-0.67-1.09
			s-0.232-0.934-0.232-1.504c0-0.565,0.078-1.079,0.232-1.542s0.374-0.859,0.656-1.189s0.625-0.585,1.029-0.766
			s0.854-0.27,1.35-0.27c0.492,0,0.927,0.076,1.306,0.229s0.695,0.366,0.95,0.639s0.449,0.599,0.581,0.978
			S61.45,24.803,61.45,25.254z M59.755,25.015c0.004-0.273-0.03-0.512-0.103-0.714s-0.172-0.37-0.297-0.502s-0.271-0.23-0.438-0.294
			s-0.345-0.096-0.537-0.096c-0.419,0-0.763,0.14-1.032,0.42s-0.428,0.676-0.479,1.186H59.755z"/>
		<path d="M67.547,29.26l-1.586-2.338l-1.593,2.338h-2.017l2.604-3.5l-2.468-3.445h2.03l1.559,2.283l1.538-2.283h1.873l-2.393,3.432
			l2.522,3.514H67.547z"/>
		<path d="M76.503,25.254c0,0.114-0.003,0.262-0.01,0.444s-0.017,0.353-0.031,0.513h-4.566c0,0.305,0.047,0.574,0.14,0.807
			s0.226,0.427,0.396,0.584s0.376,0.277,0.615,0.359s0.505,0.123,0.796,0.123c0.337,0,0.698-0.026,1.083-0.079
			s0.785-0.138,1.2-0.256v1.326c-0.178,0.05-0.372,0.096-0.581,0.137s-0.424,0.078-0.643,0.109s-0.44,0.056-0.663,0.072
			s-0.44,0.024-0.649,0.024c-0.529,0-1.002-0.075-1.422-0.226s-0.775-0.373-1.066-0.667s-0.515-0.657-0.67-1.09
			S70.2,26.501,70.2,25.931c0-0.565,0.078-1.079,0.232-1.542s0.374-0.859,0.656-1.189s0.625-0.585,1.029-0.766s0.854-0.27,1.35-0.27
			c0.492,0,0.927,0.076,1.306,0.229s0.695,0.366,0.95,0.639s0.449,0.599,0.581,0.978S76.503,24.803,76.503,25.254z M74.807,25.015
			c0.004-0.273-0.03-0.512-0.103-0.714s-0.172-0.37-0.297-0.502s-0.271-0.23-0.438-0.294s-0.345-0.096-0.537-0.096
			c-0.419,0-0.763,0.14-1.032,0.42s-0.428,0.676-0.479,1.186H74.807z"/>
		<path d="M83.593,28.993c-0.328,0.132-0.667,0.23-1.019,0.294s-0.718,0.096-1.101,0.096c-0.551,0-1.046-0.075-1.483-0.226
			s-0.809-0.374-1.114-0.67s-0.539-0.663-0.701-1.101s-0.243-0.943-0.243-1.518c0-0.556,0.088-1.06,0.263-1.511
			s0.423-0.836,0.742-1.155s0.703-0.565,1.152-0.738s0.949-0.26,1.5-0.26c0.451,0,0.831,0.024,1.138,0.072s0.584,0.108,0.831,0.181
			v1.62c-0.283-0.141-0.589-0.25-0.919-0.328s-0.644-0.116-0.94-0.116c-0.31,0-0.588,0.052-0.834,0.157s-0.454,0.25-0.622,0.438
			s-0.297,0.414-0.386,0.68s-0.133,0.56-0.133,0.878c0,0.333,0.048,0.631,0.144,0.896s0.231,0.489,0.407,0.673
			s0.386,0.326,0.632,0.424s0.52,0.147,0.82,0.147c0.146,0,0.3-0.01,0.461-0.031s0.324-0.05,0.485-0.089s0.321-0.083,0.479-0.133
			s0.304-0.105,0.441-0.164V28.993z"/>
		<path d="M84.714,32.063v-1.319h7.697v1.319H84.714z"/>
		<path d="M98.748,28.993c-0.328,0.132-0.667,0.23-1.019,0.294s-0.718,0.096-1.101,0.096c-0.551,0-1.046-0.075-1.483-0.226
			s-0.809-0.374-1.114-0.67s-0.539-0.663-0.701-1.101s-0.243-0.943-0.243-1.518c0-0.556,0.088-1.06,0.263-1.511
			s0.423-0.836,0.742-1.155s0.703-0.565,1.152-0.738s0.949-0.26,1.5-0.26c0.451,0,0.831,0.024,1.138,0.072s0.584,0.108,0.831,0.181
			v1.62c-0.283-0.141-0.589-0.25-0.919-0.328s-0.644-0.116-0.94-0.116c-0.31,0-0.588,0.052-0.834,0.157s-0.454,0.25-0.622,0.438
			s-0.297,0.414-0.386,0.68s-0.133,0.56-0.133,0.878c0,0.333,0.048,0.631,0.144,0.896s0.231,0.489,0.407,0.673
			s0.386,0.326,0.632,0.424s0.52,0.147,0.82,0.147c0.146,0,0.3-0.01,0.461-0.031s0.324-0.05,0.485-0.089s0.321-0.083,0.479-0.133
			s0.304-0.105,0.441-0.164V28.993z"/>
		<path d="M104.871,29.26l-0.041-0.909c-0.146,0.155-0.298,0.297-0.458,0.427s-0.335,0.243-0.526,0.338s-0.4,0.17-0.625,0.222
			s-0.473,0.079-0.742,0.079c-0.355,0-0.667-0.052-0.937-0.157s-0.495-0.25-0.677-0.438s-0.32-0.413-0.414-0.677
			s-0.14-0.556-0.14-0.875c0-0.328,0.069-0.631,0.208-0.909s0.351-0.517,0.636-0.718s0.64-0.358,1.066-0.472s0.926-0.171,1.5-0.171
			h0.909v-0.417c0-0.178-0.025-0.338-0.075-0.482s-0.131-0.266-0.243-0.366s-0.256-0.178-0.434-0.232s-0.396-0.082-0.656-0.082
			c-0.41,0-0.814,0.047-1.213,0.14s-0.785,0.225-1.159,0.393v-1.333c0.333-0.132,0.717-0.242,1.152-0.328s0.888-0.13,1.357-0.13
			c0.515,0,0.957,0.049,1.326,0.147s0.673,0.245,0.913,0.441s0.416,0.441,0.53,0.735s0.171,0.637,0.171,1.029v4.744H104.871z
			 M104.632,26.191h-1.019c-0.283,0-0.522,0.027-0.718,0.082s-0.355,0.13-0.479,0.226s-0.213,0.206-0.27,0.332
			s-0.085,0.259-0.085,0.4c0,0.283,0.091,0.498,0.273,0.646s0.431,0.222,0.745,0.222c0.232,0,0.474-0.084,0.725-0.253
			s0.526-0.41,0.827-0.725V26.191z"/>
		<path d="M113.63,28.993c-0.328,0.132-0.667,0.23-1.019,0.294s-0.718,0.096-1.101,0.096c-0.551,0-1.046-0.075-1.483-0.226
			s-0.809-0.374-1.114-0.67s-0.539-0.663-0.701-1.101s-0.243-0.943-0.243-1.518c0-0.556,0.088-1.06,0.263-1.511
			s0.423-0.836,0.742-1.155s0.703-0.565,1.152-0.738s0.949-0.26,1.5-0.26c0.451,0,0.831,0.024,1.138,0.072s0.584,0.108,0.831,0.181
			v1.62c-0.283-0.141-0.589-0.25-0.919-0.328s-0.644-0.116-0.94-0.116c-0.31,0-0.588,0.052-0.834,0.157s-0.454,0.25-0.622,0.438
			s-0.297,0.414-0.386,0.68s-0.133,0.56-0.133,0.878c0,0.333,0.048,0.631,0.144,0.896s0.231,0.489,0.407,0.673
			s0.386,0.326,0.632,0.424s0.52,0.147,0.82,0.147c0.146,0,0.3-0.01,0.461-0.031s0.324-0.05,0.485-0.089s0.321-0.083,0.479-0.133
			s0.304-0.105,0.441-0.164V28.993z"/>
		<path d="M119.634,29.26v-4.525c0-0.761-0.283-1.142-0.848-1.142c-0.283,0-0.553,0.114-0.81,0.342s-0.53,0.538-0.817,0.93v4.396
			h-1.668v-9.659h1.668v2.379l-0.082,1.258c0.141-0.168,0.285-0.32,0.431-0.455s0.303-0.247,0.472-0.338s0.351-0.161,0.547-0.208
			s0.413-0.072,0.649-0.072c0.355,0,0.666,0.058,0.93,0.174s0.485,0.28,0.663,0.492s0.311,0.467,0.4,0.766s0.133,0.632,0.133,1.001
			v4.662H119.634z"/>
		<path d="M129.178,25.254c0,0.114-0.003,0.262-0.01,0.444s-0.017,0.353-0.031,0.513h-4.566c0,0.305,0.047,0.574,0.14,0.807
			s0.226,0.427,0.396,0.584s0.376,0.277,0.615,0.359s0.505,0.123,0.796,0.123c0.337,0,0.698-0.026,1.083-0.079
			s0.785-0.138,1.2-0.256v1.326c-0.178,0.05-0.372,0.096-0.581,0.137s-0.424,0.078-0.643,0.109s-0.44,0.056-0.663,0.072
			s-0.44,0.024-0.649,0.024c-0.529,0-1.002-0.075-1.422-0.226s-0.775-0.373-1.066-0.667s-0.515-0.657-0.67-1.09
			s-0.232-0.934-0.232-1.504c0-0.565,0.078-1.079,0.232-1.542s0.374-0.859,0.656-1.189s0.625-0.585,1.029-0.766
			s0.854-0.27,1.35-0.27c0.492,0,0.927,0.076,1.306,0.229s0.695,0.366,0.95,0.639s0.449,0.599,0.581,0.978
			S129.178,24.803,129.178,25.254z M127.483,25.015c0.004-0.273-0.03-0.512-0.103-0.714s-0.172-0.37-0.297-0.502
			s-0.271-0.23-0.438-0.294s-0.345-0.096-0.537-0.096c-0.419,0-0.763,0.14-1.032,0.42s-0.428,0.676-0.479,1.186H127.483z"/>
		<path d="M135.208,29.26l-0.041-1.025c-0.146,0.178-0.296,0.339-0.451,0.485s-0.321,0.27-0.499,0.373s-0.368,0.182-0.571,0.239
			s-0.427,0.085-0.673,0.085c-0.41,0-0.775-0.082-1.094-0.246s-0.587-0.397-0.803-0.701s-0.382-0.671-0.496-1.104
			s-0.171-0.916-0.171-1.449c0-0.638,0.09-1.19,0.27-1.658s0.43-0.854,0.749-1.162s0.697-0.536,1.135-0.684s0.914-0.222,1.429-0.222
			c0.173,0,0.348,0.011,0.523,0.034s0.332,0.052,0.468,0.089v-2.714h1.668v9.659H135.208z M132.159,25.842
			c0,0.383,0.026,0.71,0.079,0.981s0.13,0.493,0.232,0.667s0.229,0.3,0.379,0.379s0.321,0.12,0.513,0.12
			c0.283,0,0.551-0.114,0.807-0.342s0.526-0.54,0.813-0.937v-3.035c-0.132-0.05-0.295-0.091-0.489-0.123s-0.389-0.048-0.584-0.048
			c-0.269,0-0.51,0.055-0.725,0.164s-0.397,0.264-0.55,0.465s-0.27,0.445-0.352,0.735S132.159,25.482,132.159,25.842z"/>
		<path d="M137.697,32.063v-1.319h7.697v1.319H137.697z"/>
		<path d="M152.93,25.664c0,0.638-0.09,1.189-0.27,1.654s-0.431,0.851-0.752,1.159s-0.701,0.536-1.138,0.684
			s-0.914,0.222-1.429,0.222c-0.173,0-0.346-0.011-0.52-0.034s-0.331-0.052-0.472-0.089v2.714h-1.668v-9.659h1.442l0.041,1.025
			c0.141-0.178,0.288-0.339,0.441-0.485s0.318-0.27,0.496-0.373s0.369-0.181,0.574-0.236s0.435-0.082,0.69-0.082
			c0.41,0,0.775,0.082,1.094,0.246s0.587,0.397,0.803,0.701s0.382,0.67,0.496,1.101S152.93,25.127,152.93,25.664z M151.18,25.733
			c0-0.383-0.027-0.708-0.082-0.978s-0.133-0.49-0.236-0.663s-0.228-0.3-0.376-0.379s-0.318-0.12-0.509-0.12
			c-0.283,0-0.553,0.114-0.81,0.342s-0.53,0.538-0.817,0.93V27.9c0.132,0.05,0.295,0.091,0.489,0.123s0.391,0.048,0.591,0.048
			c0.264,0,0.505-0.055,0.721-0.164s0.401-0.264,0.554-0.465s0.27-0.445,0.352-0.735S151.18,26.092,151.18,25.733z"/>
		<path d="M156.276,20.9h-1.962v-1.299h3.671v8.36h2.003v1.299h-5.913v-1.299h2.201V20.9z"/>
		<path d="M165.93,29.26l-0.041-0.909c-0.146,0.155-0.298,0.297-0.458,0.427s-0.335,0.243-0.526,0.338s-0.4,0.17-0.625,0.222
			s-0.473,0.079-0.742,0.079c-0.355,0-0.667-0.052-0.937-0.157s-0.495-0.25-0.677-0.438s-0.32-0.413-0.414-0.677
			s-0.14-0.556-0.14-0.875c0-0.328,0.069-0.631,0.208-0.909s0.351-0.517,0.636-0.718s0.64-0.358,1.066-0.472s0.926-0.171,1.5-0.171
			h0.909v-0.417c0-0.178-0.025-0.338-0.075-0.482s-0.131-0.266-0.243-0.366s-0.256-0.178-0.434-0.232s-0.396-0.082-0.656-0.082
			c-0.41,0-0.814,0.047-1.213,0.14s-0.785,0.225-1.159,0.393v-1.333c0.333-0.132,0.717-0.242,1.152-0.328s0.888-0.13,1.357-0.13
			c0.515,0,0.957,0.049,1.326,0.147s0.673,0.245,0.913,0.441s0.416,0.441,0.53,0.735s0.171,0.637,0.171,1.029v4.744H165.93z
			 M165.691,26.191h-1.019c-0.283,0-0.522,0.027-0.718,0.082s-0.355,0.13-0.479,0.226s-0.213,0.206-0.27,0.332
			s-0.085,0.259-0.085,0.4c0,0.283,0.091,0.498,0.273,0.646s0.431,0.222,0.745,0.222c0.232,0,0.474-0.084,0.725-0.253
			s0.526-0.41,0.827-0.725V26.191z"/>
		<path d="M173.383,29.26v-4.525c0-0.761-0.283-1.142-0.848-1.142c-0.283,0-0.553,0.114-0.81,0.342s-0.53,0.538-0.817,0.93v4.396
			h-1.668v-6.945h1.442l0.041,1.025c0.141-0.178,0.288-0.339,0.441-0.485s0.318-0.27,0.496-0.373s0.369-0.181,0.574-0.236
			s0.435-0.082,0.69-0.082c0.355,0,0.666,0.058,0.93,0.174s0.485,0.28,0.663,0.492s0.311,0.467,0.4,0.766s0.133,0.632,0.133,1.001
			v4.662H173.383z"/>
		<path d="M34.84,48.863v-1.319h7.697v1.319H34.84z"/>
		<path d="M47.891,46.06l-0.041-1.025c-0.146,0.178-0.296,0.339-0.451,0.485s-0.321,0.27-0.499,0.373s-0.368,0.182-0.571,0.239
			s-0.427,0.085-0.673,0.085c-0.41,0-0.775-0.082-1.094-0.246s-0.587-0.397-0.803-0.701s-0.382-0.671-0.496-1.104
			s-0.171-0.916-0.171-1.449c0-0.638,0.09-1.19,0.27-1.658s0.43-0.854,0.749-1.162s0.697-0.536,1.135-0.684s0.914-0.222,1.429-0.222
			c0.173,0,0.348,0.011,0.523,0.034s0.332,0.052,0.468,0.089v-2.714h1.668v9.659H47.891z M44.842,42.642
			c0,0.383,0.026,0.71,0.079,0.981s0.13,0.493,0.232,0.667s0.229,0.3,0.379,0.379s0.321,0.12,0.513,0.12
			c0.283,0,0.551-0.114,0.807-0.342s0.526-0.54,0.813-0.937v-3.035c-0.132-0.05-0.295-0.091-0.489-0.123s-0.389-0.048-0.584-0.048
			c-0.269,0-0.51,0.055-0.725,0.164s-0.397,0.264-0.55,0.465s-0.27,0.445-0.352,0.735S44.842,42.282,44.842,42.642z"/>
		<path d="M57.23,42.054c0,0.114-0.003,0.262-0.01,0.444s-0.017,0.353-0.031,0.513h-4.566c0,0.305,0.047,0.574,0.14,0.807
			s0.226,0.427,0.396,0.584s0.376,0.277,0.615,0.359s0.505,0.123,0.796,0.123c0.337,0,0.698-0.026,1.083-0.079
			s0.785-0.138,1.2-0.256v1.326c-0.178,0.05-0.372,0.096-0.581,0.137s-0.424,0.078-0.643,0.109s-0.44,0.056-0.663,0.072
			s-0.44,0.024-0.649,0.024c-0.529,0-1.002-0.075-1.422-0.226s-0.775-0.373-1.066-0.667s-0.515-0.657-0.67-1.09
			s-0.232-0.934-0.232-1.504c0-0.565,0.078-1.079,0.232-1.542s0.374-0.859,0.656-1.189s0.625-0.585,1.029-0.766
			s0.854-0.27,1.35-0.27c0.492,0,0.927,0.076,1.306,0.229s0.695,0.366,0.95,0.639s0.449,0.599,0.581,0.978
			S57.23,41.603,57.23,42.054z M55.535,41.815c0.004-0.273-0.03-0.512-0.103-0.714s-0.172-0.37-0.297-0.502s-0.271-0.23-0.438-0.294
			s-0.345-0.096-0.537-0.096c-0.419,0-0.763,0.14-1.032,0.42s-0.428,0.676-0.479,1.186H55.535z"/>
		<path d="M65.119,42.465c0,0.638-0.09,1.189-0.27,1.654s-0.431,0.851-0.752,1.159c-0.321,0.308-0.701,0.536-1.138,0.684
			s-0.914,0.222-1.429,0.222c-0.173,0-0.346-0.011-0.52-0.034s-0.331-0.052-0.472-0.089v2.714h-1.668v-9.659h1.442l0.041,1.025
			c0.141-0.178,0.288-0.339,0.441-0.485s0.318-0.27,0.496-0.373s0.369-0.181,0.574-0.236s0.435-0.082,0.69-0.082
			c0.41,0,0.775,0.082,1.094,0.246s0.587,0.397,0.803,0.701s0.382,0.67,0.496,1.101S65.119,41.927,65.119,42.465z M63.369,42.533
			c0-0.383-0.027-0.708-0.082-0.978s-0.133-0.49-0.236-0.663s-0.228-0.3-0.376-0.379s-0.318-0.12-0.509-0.12
			c-0.283,0-0.553,0.114-0.81,0.342s-0.53,0.538-0.817,0.93V44.7c0.132,0.05,0.295,0.091,0.489,0.123s0.391,0.048,0.591,0.048
			c0.264,0,0.505-0.055,0.721-0.164s0.401-0.264,0.554-0.465s0.27-0.445,0.352-0.735S63.369,42.893,63.369,42.533z"/>
		<path d="M72.653,42.054c0,0.114-0.003,0.262-0.01,0.444s-0.017,0.353-0.031,0.513h-4.566c0,0.305,0.047,0.574,0.14,0.807
			s0.226,0.427,0.396,0.584s0.376,0.277,0.615,0.359s0.505,0.123,0.796,0.123c0.337,0,0.698-0.026,1.083-0.079
			s0.785-0.138,1.2-0.256v1.326c-0.178,0.05-0.372,0.096-0.581,0.137s-0.424,0.078-0.643,0.109s-0.44,0.056-0.663,0.072
			s-0.44,0.024-0.649,0.024c-0.529,0-1.002-0.075-1.422-0.226s-0.775-0.373-1.066-0.667s-0.515-0.657-0.67-1.09
			s-0.232-0.934-0.232-1.504c0-0.565,0.078-1.079,0.232-1.542s0.374-0.859,0.656-1.189s0.625-0.585,1.029-0.766
			s0.854-0.27,1.35-0.27c0.492,0,0.927,0.076,1.306,0.229s0.695,0.366,0.95,0.639s0.449,0.599,0.581,0.978
			S72.653,41.603,72.653,42.054z M70.958,41.815c0.004-0.273-0.03-0.512-0.103-0.714s-0.172-0.37-0.297-0.502
			s-0.271-0.23-0.438-0.294s-0.345-0.096-0.537-0.096c-0.419,0-0.763,0.14-1.032,0.42s-0.428,0.676-0.479,1.186H70.958z"/>
		<path d="M78.436,46.06v-4.525c0-0.761-0.283-1.142-0.848-1.142c-0.283,0-0.553,0.114-0.81,0.342s-0.53,0.538-0.817,0.93v4.396
			h-1.668v-6.945h1.442l0.041,1.025c0.141-0.178,0.288-0.339,0.441-0.485s0.318-0.27,0.496-0.373s0.369-0.181,0.574-0.236
			s0.435-0.082,0.69-0.082c0.355,0,0.666,0.058,0.93,0.174s0.485,0.28,0.663,0.492s0.311,0.467,0.4,0.766s0.133,0.632,0.133,1.001
			v4.662H78.436z"/>
		<path d="M86.404,46.06l-0.041-1.025c-0.146,0.178-0.296,0.339-0.451,0.485s-0.321,0.27-0.499,0.373s-0.368,0.182-0.571,0.239
			s-0.427,0.085-0.673,0.085c-0.41,0-0.775-0.082-1.094-0.246s-0.587-0.397-0.803-0.701s-0.382-0.671-0.496-1.104
			s-0.171-0.916-0.171-1.449c0-0.638,0.09-1.19,0.27-1.658s0.43-0.854,0.749-1.162s0.697-0.536,1.135-0.684s0.914-0.222,1.429-0.222
			c0.173,0,0.348,0.011,0.523,0.034s0.332,0.052,0.468,0.089v-2.714h1.668v9.659H86.404z M83.355,42.642
			c0,0.383,0.026,0.71,0.079,0.981s0.13,0.493,0.232,0.667s0.229,0.3,0.379,0.379s0.321,0.12,0.513,0.12
			c0.283,0,0.551-0.114,0.807-0.342s0.526-0.54,0.813-0.937v-3.035c-0.132-0.05-0.295-0.091-0.489-0.123s-0.389-0.048-0.584-0.048
			c-0.269,0-0.51,0.055-0.725,0.164s-0.397,0.264-0.55,0.465s-0.27,0.445-0.352,0.735S83.355,42.282,83.355,42.642z"/>
		<path d="M95.743,42.054c0,0.114-0.003,0.262-0.01,0.444s-0.017,0.353-0.031,0.513h-4.566c0,0.305,0.047,0.574,0.14,0.807
			s0.226,0.427,0.396,0.584s0.376,0.277,0.615,0.359s0.505,0.123,0.796,0.123c0.337,0,0.698-0.026,1.083-0.079
			s0.785-0.138,1.2-0.256v1.326c-0.178,0.05-0.372,0.096-0.581,0.137s-0.424,0.078-0.643,0.109s-0.44,0.056-0.663,0.072
			s-0.44,0.024-0.649,0.024c-0.529,0-1.002-0.075-1.422-0.226s-0.775-0.373-1.066-0.667s-0.515-0.657-0.67-1.09
			s-0.232-0.934-0.232-1.504c0-0.565,0.078-1.079,0.232-1.542s0.374-0.859,0.656-1.189s0.625-0.585,1.029-0.766
			s0.854-0.27,1.35-0.27c0.492,0,0.927,0.076,1.306,0.229s0.695,0.366,0.95,0.639s0.449,0.599,0.581,0.978
			S95.743,41.603,95.743,42.054z M94.048,41.815c0.004-0.273-0.03-0.512-0.103-0.714s-0.172-0.37-0.297-0.502
			s-0.271-0.23-0.438-0.294s-0.345-0.096-0.537-0.096c-0.419,0-0.763,0.14-1.032,0.42s-0.428,0.676-0.479,1.186H94.048z"/>
		<path d="M101.527,46.06v-4.525c0-0.761-0.283-1.142-0.848-1.142c-0.283,0-0.553,0.114-0.81,0.342s-0.53,0.538-0.817,0.93v4.396
			h-1.668v-6.945h1.442l0.041,1.025c0.141-0.178,0.288-0.339,0.441-0.485s0.318-0.27,0.496-0.373s0.369-0.181,0.574-0.236
			s0.435-0.082,0.69-0.082c0.355,0,0.666,0.058,0.93,0.174s0.485,0.28,0.663,0.492s0.311,0.467,0.4,0.766s0.133,0.632,0.133,1.001
			v4.662H101.527z"/>
		<path d="M110.731,45.992c-0.301,0.068-0.604,0.123-0.909,0.164s-0.595,0.062-0.868,0.062c-0.456,0-0.849-0.048-1.179-0.144
			s-0.604-0.242-0.82-0.438s-0.376-0.445-0.479-0.749s-0.154-0.664-0.154-1.083v-3.391h-1.866v-1.299h1.866v-1.777l1.709-0.444
			v2.222h2.7v1.299h-2.7v3.268c0,0.396,0.091,0.696,0.273,0.899s0.488,0.304,0.916,0.304c0.273,0,0.54-0.023,0.8-0.068
			s0.497-0.098,0.711-0.157V45.992z"/>
		<path d="M111.825,48.863v-1.319h7.697v1.319H111.825z"/>
		<path d="M126.698,42.533c0,0.547-0.078,1.047-0.232,1.5s-0.378,0.842-0.67,1.166s-0.649,0.574-1.073,0.752
			s-0.907,0.267-1.449,0.267c-0.515,0-0.975-0.075-1.381-0.226s-0.75-0.375-1.032-0.673s-0.499-0.672-0.649-1.121
			s-0.226-0.972-0.226-1.569c0-0.551,0.079-1.053,0.236-1.504s0.383-0.836,0.677-1.155s0.653-0.566,1.077-0.742
			s0.902-0.263,1.436-0.263c0.52,0,0.982,0.076,1.388,0.229s0.75,0.379,1.032,0.68s0.498,0.673,0.646,1.118
			S126.698,41.949,126.698,42.533z M124.962,42.574c0-0.72-0.136-1.261-0.407-1.624s-0.671-0.543-1.2-0.543
			c-0.292,0-0.54,0.057-0.745,0.171s-0.374,0.27-0.506,0.468s-0.229,0.43-0.291,0.694s-0.092,0.547-0.092,0.848
			c0,0.725,0.146,1.271,0.438,1.637s0.69,0.55,1.196,0.55c0.278,0,0.52-0.056,0.725-0.167s0.372-0.267,0.499-0.465
			s0.223-0.432,0.287-0.701S124.962,42.884,124.962,42.574z"/>
		<path d="M134.447,42.465c0,0.638-0.09,1.189-0.27,1.654s-0.431,0.851-0.752,1.159s-0.701,0.536-1.138,0.684
			s-0.914,0.222-1.429,0.222c-0.506,0-0.977-0.038-1.412-0.113s-0.851-0.177-1.248-0.304v-9.365h1.668v2.27l-0.068,1.367
			c0.25-0.324,0.543-0.583,0.878-0.779s0.737-0.294,1.207-0.294c0.41,0,0.775,0.082,1.094,0.246s0.587,0.397,0.803,0.701
			s0.382,0.67,0.496,1.101S134.447,41.927,134.447,42.465z M132.697,42.533c0-0.383-0.027-0.708-0.082-0.978
			s-0.133-0.49-0.236-0.663s-0.228-0.3-0.376-0.379s-0.318-0.12-0.509-0.12c-0.283,0-0.553,0.114-0.81,0.342s-0.53,0.538-0.817,0.93
			V44.7c0.132,0.05,0.295,0.091,0.489,0.123s0.391,0.048,0.591,0.048c0.264,0,0.505-0.055,0.721-0.164s0.401-0.264,0.554-0.465
			s0.27-0.445,0.352-0.735S132.697,42.893,132.697,42.533z"/>
		<path d="M140.686,45.862c0,0.52-0.076,0.972-0.229,1.357s-0.372,0.704-0.656,0.957s-0.626,0.442-1.025,0.567
			s-0.844,0.188-1.336,0.188c-0.401,0-0.775-0.034-1.121-0.103s-0.631-0.15-0.854-0.246v-1.531c0.127,0.068,0.272,0.136,0.434,0.202
			s0.331,0.125,0.506,0.178s0.354,0.093,0.537,0.123s0.362,0.044,0.54,0.044c0.506,0,0.884-0.146,1.135-0.438
			s0.376-0.72,0.376-1.285v-5.462h-3.302v-1.299h4.997V45.862z M140.822,37.215c0,0.15-0.027,0.292-0.082,0.424
			s-0.131,0.247-0.229,0.345s-0.214,0.175-0.349,0.232s-0.279,0.085-0.434,0.085s-0.298-0.028-0.431-0.085s-0.247-0.134-0.345-0.232
			s-0.174-0.213-0.229-0.345s-0.082-0.273-0.082-0.424s0.027-0.292,0.082-0.424s0.131-0.249,0.229-0.349s0.213-0.179,0.345-0.236
			s0.276-0.085,0.431-0.085s0.3,0.028,0.434,0.085s0.25,0.136,0.349,0.236s0.174,0.216,0.229,0.349S140.822,37.064,140.822,37.215z"
			/>
		<path d="M148.917,42.054c0,0.114-0.003,0.262-0.01,0.444s-0.017,0.353-0.031,0.513h-4.566c0,0.305,0.047,0.574,0.14,0.807
			s0.226,0.427,0.396,0.584s0.376,0.277,0.615,0.359s0.505,0.123,0.796,0.123c0.337,0,0.698-0.026,1.083-0.079
			s0.785-0.138,1.2-0.256v1.326c-0.178,0.05-0.372,0.096-0.581,0.137s-0.424,0.078-0.643,0.109s-0.44,0.056-0.663,0.072
			s-0.44,0.024-0.649,0.024c-0.529,0-1.002-0.075-1.422-0.226s-0.775-0.373-1.066-0.667s-0.515-0.657-0.67-1.09
			s-0.232-0.934-0.232-1.504c0-0.565,0.078-1.079,0.232-1.542s0.374-0.859,0.656-1.189s0.625-0.585,1.029-0.766
			s0.854-0.27,1.35-0.27c0.492,0,0.927,0.076,1.306,0.229s0.695,0.366,0.95,0.639s0.449,0.599,0.581,0.978
			S148.917,41.603,148.917,42.054z M147.222,41.815c0.004-0.273-0.03-0.512-0.103-0.714s-0.172-0.37-0.297-0.502
			s-0.271-0.23-0.438-0.294s-0.345-0.096-0.537-0.096c-0.419,0-0.763,0.14-1.032,0.42s-0.428,0.676-0.479,1.186H147.222z"/>
		<path d="M156.008,45.794c-0.328,0.132-0.667,0.23-1.019,0.294s-0.718,0.096-1.101,0.096c-0.551,0-1.046-0.075-1.483-0.226
			s-0.809-0.374-1.114-0.67s-0.539-0.663-0.701-1.101s-0.243-0.943-0.243-1.518c0-0.556,0.088-1.06,0.263-1.511
			s0.423-0.836,0.742-1.155s0.703-0.565,1.152-0.738s0.949-0.26,1.5-0.26c0.451,0,0.831,0.024,1.138,0.072s0.584,0.108,0.831,0.181
			v1.62c-0.283-0.141-0.589-0.25-0.919-0.328s-0.644-0.116-0.94-0.116c-0.31,0-0.588,0.052-0.834,0.157s-0.454,0.25-0.622,0.438
			s-0.297,0.414-0.386,0.68s-0.133,0.56-0.133,0.878c0,0.333,0.048,0.631,0.144,0.896s0.231,0.489,0.407,0.673
			s0.386,0.326,0.632,0.424s0.52,0.147,0.82,0.147c0.146,0,0.3-0.01,0.461-0.031s0.324-0.05,0.485-0.089s0.321-0.083,0.479-0.133
			s0.304-0.105,0.441-0.164V45.794z"/>
		<path d="M163.658,45.992c-0.301,0.068-0.604,0.123-0.909,0.164s-0.595,0.062-0.868,0.062c-0.456,0-0.849-0.048-1.179-0.144
			s-0.604-0.242-0.82-0.438s-0.376-0.445-0.479-0.749s-0.154-0.664-0.154-1.083v-3.391h-1.866v-1.299h1.866v-1.777l1.709-0.444
			v2.222h2.7v1.299h-2.7v3.268c0,0.396,0.091,0.696,0.273,0.899s0.488,0.304,0.916,0.304c0.273,0,0.54-0.023,0.8-0.068
			s0.497-0.098,0.711-0.157V45.992z"/>
		<path d="M170.942,44.016c0,0.396-0.088,0.735-0.263,1.015s-0.408,0.508-0.697,0.684s-0.618,0.303-0.984,0.383
			s-0.742,0.12-1.125,0.12c-0.51,0-0.971-0.024-1.381-0.072s-0.797-0.117-1.162-0.208v-1.504c0.428,0.178,0.855,0.307,1.282,0.386
			s0.828,0.12,1.207,0.12c0.438,0,0.765-0.069,0.981-0.208s0.325-0.32,0.325-0.543c0-0.105-0.023-0.201-0.068-0.287
			s-0.131-0.17-0.256-0.25s-0.302-0.162-0.53-0.246s-0.526-0.179-0.896-0.284c-0.342-0.096-0.642-0.204-0.899-0.325
			s-0.471-0.263-0.639-0.427s-0.295-0.354-0.379-0.571s-0.126-0.471-0.126-0.762c0-0.283,0.064-0.549,0.191-0.8
			s0.318-0.471,0.571-0.66s0.568-0.338,0.947-0.448s0.82-0.164,1.326-0.164c0.438,0,0.825,0.023,1.162,0.068s0.636,0.096,0.896,0.15
			v1.36c-0.396-0.127-0.769-0.218-1.118-0.27s-0.694-0.079-1.036-0.079s-0.616,0.062-0.824,0.185s-0.311,0.294-0.311,0.513
			c0,0.105,0.021,0.198,0.062,0.28s0.122,0.162,0.243,0.239s0.29,0.158,0.506,0.243s0.502,0.177,0.858,0.277
			c0.401,0.114,0.738,0.236,1.012,0.366s0.493,0.277,0.66,0.441s0.286,0.351,0.359,0.561S170.942,43.747,170.942,44.016z"/>
	</g>
	<g>
		<rect x="8.8" y="74.8" fill="none" width="189.2" height="22"/>
		<path d="M28.988,84.46v-4.929c0-0.214-0.008-0.39-0.024-0.526s-0.041-0.245-0.075-0.325s-0.078-0.136-0.13-0.167
			s-0.117-0.048-0.195-0.048c-0.091,0-0.175,0.027-0.253,0.082s-0.161,0.144-0.25,0.267s-0.187,0.286-0.294,0.489
			s-0.233,0.452-0.379,0.749v4.409h-1.087v-4.799c0-0.25-0.008-0.454-0.024-0.608s-0.041-0.276-0.075-0.362
			s-0.079-0.146-0.133-0.178s-0.121-0.048-0.198-0.048c-0.082,0-0.16,0.023-0.232,0.068s-0.154,0.127-0.243,0.246
			s-0.188,0.28-0.297,0.485s-0.239,0.467-0.39,0.786v4.409h-1.094v-6.863h0.909l0.055,1.306c0.119-0.26,0.233-0.481,0.345-0.663
			s0.227-0.329,0.345-0.441s0.245-0.194,0.379-0.246s0.284-0.079,0.448-0.079c0.369,0,0.649,0.121,0.841,0.362
			s0.287,0.615,0.287,1.121c0.109-0.237,0.216-0.448,0.321-0.632s0.218-0.339,0.338-0.465s0.254-0.221,0.4-0.287
			s0.314-0.099,0.506-0.099c0.861,0,1.292,0.663,1.292,1.989v4.997H28.988z"/>
		<path d="M37.785,80.666c0,0.168-0.002,0.31-0.007,0.424s-0.011,0.221-0.021,0.321h-4.819c0,0.702,0.196,1.241,0.588,1.617
			s0.957,0.564,1.695,0.564c0.201,0,0.401-0.008,0.602-0.024s0.394-0.038,0.581-0.065s0.366-0.058,0.537-0.092
			s0.329-0.072,0.475-0.113v0.978c-0.324,0.091-0.689,0.165-1.097,0.222s-0.831,0.085-1.268,0.085c-0.588,0-1.094-0.08-1.518-0.239
			s-0.771-0.391-1.042-0.694s-0.472-0.674-0.602-1.114s-0.195-0.938-0.195-1.494c0-0.483,0.069-0.94,0.208-1.371
			s0.342-0.809,0.608-1.135s0.594-0.584,0.981-0.776s0.827-0.287,1.319-0.287c0.479,0,0.902,0.075,1.271,0.226
			s0.68,0.363,0.933,0.639s0.444,0.611,0.574,1.005S37.785,80.178,37.785,80.666z M36.548,80.495
			c0.014-0.305-0.016-0.584-0.089-0.837s-0.186-0.471-0.338-0.653s-0.343-0.325-0.571-0.427s-0.492-0.154-0.793-0.154
			c-0.26,0-0.497,0.05-0.711,0.15s-0.399,0.242-0.554,0.424s-0.28,0.401-0.376,0.656s-0.155,0.536-0.178,0.841H36.548z"/>
		<path d="M44.785,84.46v-4.929c0-0.214-0.008-0.39-0.024-0.526s-0.041-0.245-0.075-0.325s-0.078-0.136-0.13-0.167
			s-0.117-0.048-0.195-0.048c-0.091,0-0.175,0.027-0.253,0.082s-0.161,0.144-0.25,0.267s-0.187,0.286-0.294,0.489
			s-0.233,0.452-0.379,0.749v4.409h-1.087v-4.799c0-0.25-0.008-0.454-0.024-0.608s-0.041-0.276-0.075-0.362
			s-0.079-0.146-0.133-0.178s-0.121-0.048-0.198-0.048c-0.082,0-0.16,0.023-0.232,0.068s-0.154,0.127-0.243,0.246
			s-0.188,0.28-0.297,0.485s-0.239,0.467-0.39,0.786v4.409h-1.094v-6.863h0.909l0.055,1.306c0.119-0.26,0.233-0.481,0.345-0.663
			s0.227-0.329,0.345-0.441s0.245-0.194,0.379-0.246s0.284-0.079,0.448-0.079c0.369,0,0.649,0.121,0.841,0.362
			s0.287,0.615,0.287,1.121c0.109-0.237,0.216-0.448,0.321-0.632s0.218-0.339,0.338-0.465s0.254-0.221,0.4-0.287
			s0.314-0.099,0.506-0.099c0.861,0,1.292,0.663,1.292,1.989v4.997H44.785z"/>
		<path d="M53.831,80.973c0,0.533-0.075,1.022-0.226,1.466s-0.367,0.825-0.649,1.142s-0.626,0.563-1.032,0.738
			s-0.866,0.263-1.381,0.263c-0.492,0-0.933-0.076-1.323-0.229s-0.72-0.377-0.991-0.673s-0.479-0.663-0.622-1.101
			s-0.215-0.941-0.215-1.511c0-0.533,0.075-1.02,0.226-1.459s0.367-0.818,0.649-1.135s0.626-0.563,1.032-0.738
			s0.866-0.263,1.381-0.263c0.492,0,0.933,0.076,1.323,0.229s0.72,0.376,0.991,0.67s0.479,0.66,0.622,1.097
			S53.831,80.408,53.831,80.973z M52.614,81.028c0-0.424-0.047-0.794-0.14-1.111s-0.227-0.581-0.4-0.793s-0.384-0.372-0.632-0.479
			s-0.525-0.161-0.831-0.161c-0.355,0-0.66,0.069-0.913,0.208s-0.46,0.325-0.622,0.557s-0.28,0.502-0.355,0.81
			s-0.113,0.63-0.113,0.967c0,0.424,0.047,0.795,0.14,1.114s0.227,0.584,0.4,0.796s0.383,0.372,0.629,0.479s0.524,0.161,0.834,0.161
			c0.355,0,0.66-0.069,0.913-0.208s0.46-0.325,0.622-0.557s0.28-0.502,0.355-0.81S52.614,81.37,52.614,81.028z"/>
		<path d="M55.737,77.596h1.087l0.034,1.265c0.406-0.488,0.806-0.841,1.2-1.06s0.792-0.328,1.193-0.328
			c0.711,0,1.25,0.23,1.617,0.69s0.537,1.144,0.509,2.051h-1.203c0.014-0.602-0.074-1.038-0.263-1.309s-0.466-0.407-0.831-0.407
			c-0.16,0-0.32,0.028-0.482,0.085s-0.328,0.148-0.499,0.273s-0.352,0.286-0.543,0.482s-0.396,0.433-0.615,0.711v4.409h-1.203
			V77.596z"/>
		<path d="M69.179,77.596l-2.338,6.139c-0.242,0.625-0.491,1.162-0.749,1.613s-0.539,0.821-0.844,1.111s-0.64,0.502-1.005,0.639
			c-0.365,0.137-0.772,0.205-1.224,0.205c-0.119,0-0.226-0.002-0.321-0.007s-0.201-0.011-0.314-0.021v-1.08
			c0.1,0.014,0.209,0.026,0.328,0.038s0.244,0.017,0.376,0.017c0.219,0,0.423-0.032,0.612-0.096s0.368-0.167,0.537-0.311
			s0.331-0.329,0.485-0.557s0.305-0.503,0.451-0.827l-2.741-6.863h1.354l1.736,4.539l0.349,1.066l0.396-1.094l1.606-4.512H69.179z"
			/>
		<path d="M78.066,87.262h-7.697v-0.984h7.697V87.262z"/>
		<path d="M85.17,80.973c0,0.533-0.075,1.022-0.226,1.466s-0.367,0.825-0.649,1.142s-0.626,0.563-1.032,0.738
			s-0.866,0.263-1.381,0.263c-0.492,0-0.933-0.076-1.323-0.229s-0.72-0.377-0.991-0.673s-0.479-0.663-0.622-1.101
			s-0.215-0.941-0.215-1.511c0-0.533,0.075-1.02,0.226-1.459s0.367-0.818,0.649-1.135s0.626-0.563,1.032-0.738
			s0.866-0.263,1.381-0.263c0.492,0,0.933,0.076,1.323,0.229s0.72,0.376,0.991,0.67s0.479,0.66,0.622,1.097
			S85.17,80.408,85.17,80.973z M83.953,81.028c0-0.424-0.047-0.794-0.14-1.111s-0.227-0.581-0.4-0.793s-0.384-0.372-0.632-0.479
			s-0.525-0.161-0.831-0.161c-0.355,0-0.66,0.069-0.913,0.208s-0.46,0.325-0.622,0.557s-0.28,0.502-0.355,0.81
			s-0.113,0.63-0.113,0.967c0,0.424,0.047,0.795,0.14,1.114s0.227,0.584,0.4,0.796s0.383,0.372,0.629,0.479s0.524,0.161,0.834,0.161
			c0.355,0,0.66-0.069,0.913-0.208s0.46-0.325,0.622-0.557s0.28-0.502,0.355-0.81S83.953,81.37,83.953,81.028z"/>
		<path d="M92.801,80.905c0,0.57-0.079,1.079-0.236,1.528s-0.38,0.83-0.67,1.142s-0.642,0.551-1.056,0.718s-0.882,0.25-1.401,0.25
			c-0.406,0-0.82-0.039-1.244-0.116s-0.843-0.201-1.258-0.369V74.8h1.189v2.659l-0.055,1.271c0.342-0.46,0.708-0.785,1.097-0.974
			s0.808-0.284,1.254-0.284c0.392,0,0.736,0.082,1.032,0.246s0.544,0.396,0.745,0.694s0.351,0.659,0.451,1.08
			S92.801,80.385,92.801,80.905z M91.585,80.96c0-0.36-0.026-0.69-0.079-0.991s-0.136-0.558-0.25-0.772s-0.26-0.382-0.438-0.502
			s-0.39-0.181-0.636-0.181c-0.15,0-0.303,0.024-0.458,0.072s-0.315,0.127-0.482,0.239s-0.342,0.26-0.526,0.444
			s-0.382,0.414-0.591,0.687v3.329c0.232,0.091,0.469,0.163,0.711,0.215s0.472,0.079,0.69,0.079c0.273,0,0.534-0.043,0.783-0.13
			s0.467-0.231,0.656-0.434s0.339-0.472,0.451-0.807S91.585,81.456,91.585,80.96z"/>
		<path d="M98.907,77.596v6.74c0,0.479-0.068,0.903-0.205,1.275s-0.333,0.685-0.588,0.94s-0.568,0.449-0.94,0.581
			s-0.79,0.198-1.254,0.198c-0.337,0-0.667-0.031-0.988-0.092s-0.612-0.147-0.872-0.256v-1.135c0.141,0.073,0.293,0.139,0.455,0.198
			s0.328,0.109,0.499,0.15s0.343,0.072,0.516,0.092s0.342,0.031,0.506,0.031c0.52,0,0.927-0.164,1.224-0.492
			s0.444-0.811,0.444-1.449v-5.797h-3.363v-0.984H98.907z M98.189,74.718c0.132,0,0.255,0.024,0.369,0.072s0.213,0.115,0.297,0.202
			s0.15,0.187,0.198,0.301s0.072,0.235,0.072,0.362c0,0.132-0.024,0.254-0.072,0.366s-0.114,0.211-0.198,0.297
			s-0.184,0.154-0.297,0.202s-0.237,0.072-0.369,0.072s-0.255-0.024-0.369-0.072s-0.213-0.115-0.297-0.202s-0.15-0.186-0.198-0.297
			s-0.072-0.233-0.072-0.366c0-0.127,0.024-0.249,0.072-0.362s0.114-0.214,0.198-0.301s0.184-0.154,0.297-0.202
			S98.057,74.718,98.189,74.718z"/>
		<path d="M107.267,80.666c0,0.168-0.002,0.31-0.007,0.424s-0.011,0.221-0.021,0.321h-4.819c0,0.702,0.196,1.241,0.588,1.617
			s0.957,0.564,1.695,0.564c0.201,0,0.401-0.008,0.602-0.024s0.394-0.038,0.581-0.065s0.366-0.058,0.537-0.092
			s0.329-0.072,0.475-0.113v0.978c-0.324,0.091-0.689,0.165-1.097,0.222s-0.831,0.085-1.268,0.085c-0.588,0-1.094-0.08-1.518-0.239
			s-0.771-0.391-1.042-0.694s-0.472-0.674-0.602-1.114s-0.195-0.938-0.195-1.494c0-0.483,0.069-0.94,0.208-1.371
			s0.342-0.809,0.608-1.135s0.594-0.584,0.981-0.776s0.827-0.287,1.319-0.287c0.479,0,0.902,0.075,1.271,0.226
			s0.68,0.363,0.933,0.639s0.444,0.611,0.574,1.005S107.267,80.178,107.267,80.666z M106.029,80.495
			c0.014-0.305-0.016-0.584-0.089-0.837s-0.186-0.471-0.338-0.653s-0.343-0.325-0.571-0.427s-0.492-0.154-0.793-0.154
			c-0.26,0-0.497,0.05-0.711,0.15s-0.399,0.242-0.554,0.424s-0.28,0.401-0.376,0.656s-0.155,0.536-0.178,0.841H106.029z"/>
		<path d="M114.314,84.207c-0.31,0.119-0.628,0.206-0.954,0.263s-0.662,0.085-1.008,0.085c-1.084,0-1.92-0.294-2.505-0.882
			s-0.878-1.447-0.878-2.577c0-0.542,0.084-1.035,0.253-1.477s0.406-0.82,0.711-1.135s0.67-0.557,1.094-0.728
			s0.891-0.256,1.401-0.256c0.355,0,0.688,0.025,0.998,0.075s0.606,0.132,0.889,0.246v1.135c-0.296-0.155-0.598-0.268-0.906-0.338
			s-0.625-0.106-0.954-0.106c-0.305,0-0.594,0.058-0.865,0.174s-0.509,0.284-0.714,0.502s-0.367,0.485-0.485,0.8
			s-0.178,0.67-0.178,1.066c0,0.83,0.202,1.45,0.605,1.863s0.963,0.619,1.678,0.619c0.324,0,0.637-0.037,0.94-0.109
			s0.596-0.182,0.878-0.328V84.207z"/>
		<path d="M122.116,84.364c-0.269,0.068-0.547,0.117-0.834,0.147s-0.579,0.044-0.875,0.044c-0.861,0-1.504-0.195-1.928-0.584
			s-0.636-0.988-0.636-1.794v-3.582h-1.921v-0.998h1.921V75.71l1.189-0.308v2.194h3.083v0.998h-3.083v3.486
			c0,0.492,0.131,0.86,0.393,1.104s0.648,0.366,1.159,0.366c0.219,0,0.458-0.017,0.718-0.051s0.531-0.088,0.813-0.161V84.364z"/>
		<path d="M130.85,87.262h-7.697v-0.984h7.697V87.262z"/>
		<path d="M136.468,84.46l-0.027-0.923c-0.374,0.369-0.753,0.636-1.138,0.8s-0.79,0.246-1.213,0.246c-0.392,0-0.727-0.05-1.005-0.15
			s-0.507-0.238-0.687-0.414s-0.312-0.382-0.396-0.619s-0.126-0.495-0.126-0.772c0-0.688,0.256-1.227,0.769-1.617
			s1.271-0.584,2.273-0.584h1.422v-0.602c0-0.406-0.13-0.73-0.39-0.974s-0.656-0.366-1.189-0.366c-0.387,0-0.769,0.043-1.145,0.13
			s-0.765,0.209-1.166,0.369v-1.073c0.15-0.055,0.318-0.108,0.502-0.161s0.379-0.099,0.584-0.14s0.419-0.074,0.643-0.099
			s0.449-0.038,0.677-0.038c0.415,0,0.789,0.045,1.121,0.137s0.614,0.23,0.844,0.417s0.407,0.421,0.53,0.704
			s0.185,0.615,0.185,0.998v4.73H136.468z M136.338,81.336h-1.511c-0.296,0-0.551,0.03-0.766,0.089s-0.39,0.144-0.526,0.253
			s-0.238,0.24-0.304,0.393s-0.099,0.325-0.099,0.516c0,0.132,0.021,0.259,0.062,0.379s0.107,0.228,0.198,0.321
			s0.209,0.167,0.355,0.222s0.324,0.082,0.533,0.082c0.273,0,0.587-0.083,0.94-0.25s0.726-0.43,1.118-0.79V81.336z"/>
		<path d="M139.381,81.172c0-0.583,0.08-1.102,0.239-1.555s0.386-0.836,0.68-1.148s0.647-0.549,1.06-0.711s0.872-0.243,1.377-0.243
			c0.219,0,0.434,0.014,0.646,0.041s0.42,0.071,0.625,0.13V74.8h1.196v9.659h-1.066l-0.041-1.299
			c-0.333,0.483-0.693,0.841-1.08,1.073s-0.807,0.349-1.258,0.349c-0.392,0-0.737-0.082-1.036-0.246s-0.547-0.396-0.745-0.694
			s-0.348-0.657-0.448-1.077S139.381,81.682,139.381,81.172z M140.597,81.096c0,0.83,0.122,1.448,0.366,1.856
			s0.589,0.612,1.036,0.612c0.301,0,0.619-0.134,0.954-0.403s0.687-0.667,1.056-1.196v-3.186c-0.196-0.091-0.413-0.161-0.649-0.208
			s-0.472-0.072-0.704-0.072c-0.647,0-1.152,0.209-1.514,0.629S140.597,80.203,140.597,81.096z"/>
		<path d="M147.072,81.172c0-0.583,0.08-1.102,0.239-1.555s0.386-0.836,0.68-1.148s0.647-0.549,1.06-0.711s0.872-0.243,1.377-0.243
			c0.219,0,0.434,0.014,0.646,0.041s0.42,0.071,0.625,0.13V74.8h1.196v9.659h-1.066l-0.041-1.299
			c-0.333,0.483-0.693,0.841-1.08,1.073s-0.807,0.349-1.258,0.349c-0.392,0-0.737-0.082-1.036-0.246s-0.547-0.396-0.745-0.694
			s-0.348-0.657-0.448-1.077S147.072,81.682,147.072,81.172z M148.289,81.096c0,0.83,0.122,1.448,0.366,1.856
			s0.589,0.612,1.036,0.612c0.301,0,0.619-0.134,0.954-0.403s0.687-0.667,1.056-1.196v-3.186c-0.196-0.091-0.413-0.161-0.649-0.208
			s-0.472-0.072-0.704-0.072c-0.647,0-1.152,0.209-1.514,0.629S148.289,80.203,148.289,81.096z"/>
		<path d="M155.214,77.596h1.087l0.034,1.265c0.406-0.488,0.806-0.841,1.2-1.06s0.792-0.328,1.193-0.328
			c0.711,0,1.25,0.23,1.617,0.69s0.537,1.144,0.509,2.051h-1.203c0.014-0.602-0.074-1.038-0.263-1.309s-0.466-0.407-0.831-0.407
			c-0.16,0-0.32,0.028-0.482,0.085s-0.328,0.148-0.499,0.273s-0.352,0.286-0.543,0.482s-0.396,0.433-0.615,0.711v4.409h-1.203
			V77.596z"/>
		<path d="M168.425,80.666c0,0.168-0.002,0.31-0.007,0.424s-0.011,0.221-0.021,0.321h-4.819c0,0.702,0.196,1.241,0.588,1.617
			s0.957,0.564,1.695,0.564c0.201,0,0.401-0.008,0.602-0.024s0.394-0.038,0.581-0.065s0.366-0.058,0.537-0.092
			s0.329-0.072,0.475-0.113v0.978c-0.324,0.091-0.689,0.165-1.097,0.222s-0.831,0.085-1.268,0.085c-0.588,0-1.094-0.08-1.518-0.239
			s-0.771-0.391-1.042-0.694s-0.472-0.674-0.602-1.114s-0.195-0.938-0.195-1.494c0-0.483,0.069-0.94,0.208-1.371
			s0.342-0.809,0.608-1.135s0.594-0.584,0.981-0.776s0.827-0.287,1.319-0.287c0.479,0,0.902,0.075,1.271,0.226
			s0.68,0.363,0.933,0.639s0.444,0.611,0.574,1.005S168.425,80.178,168.425,80.666z M167.188,80.495
			c0.014-0.305-0.016-0.584-0.089-0.837s-0.186-0.471-0.338-0.653s-0.343-0.325-0.571-0.427s-0.492-0.154-0.793-0.154
			c-0.26,0-0.497,0.05-0.711,0.15s-0.399,0.242-0.554,0.424s-0.28,0.401-0.376,0.656s-0.155,0.536-0.178,0.841H167.188z"/>
		<path d="M175.414,82.587c0,0.242-0.041,0.458-0.123,0.649s-0.194,0.361-0.335,0.509s-0.305,0.274-0.492,0.379
			s-0.386,0.191-0.598,0.26s-0.43,0.119-0.653,0.15s-0.442,0.048-0.656,0.048c-0.465,0-0.892-0.021-1.282-0.062
			s-0.771-0.107-1.145-0.198v-1.094c0.401,0.114,0.8,0.201,1.196,0.26s0.791,0.089,1.183,0.089c0.57,0,0.991-0.078,1.265-0.232
			s0.41-0.376,0.41-0.663c0-0.123-0.021-0.233-0.065-0.332s-0.122-0.191-0.236-0.28s-0.291-0.181-0.53-0.277
			s-0.566-0.205-0.981-0.328c-0.31-0.091-0.596-0.195-0.858-0.311s-0.489-0.254-0.68-0.414s-0.342-0.346-0.451-0.561
			s-0.164-0.467-0.164-0.759c0-0.191,0.044-0.401,0.133-0.629s0.24-0.44,0.455-0.636s0.503-0.359,0.868-0.489
			s0.82-0.195,1.367-0.195c0.269,0,0.567,0.015,0.896,0.044s0.67,0.081,1.025,0.154v1.06c-0.374-0.091-0.728-0.158-1.063-0.202
			s-0.625-0.065-0.872-0.065c-0.296,0-0.546,0.023-0.749,0.068s-0.367,0.108-0.492,0.188s-0.215,0.173-0.27,0.28
			s-0.082,0.222-0.082,0.345s0.024,0.235,0.072,0.335s0.137,0.197,0.267,0.291s0.311,0.187,0.543,0.28s0.536,0.195,0.909,0.304
			c0.406,0.119,0.748,0.243,1.025,0.373s0.503,0.274,0.677,0.434s0.297,0.339,0.373,0.54S175.414,82.331,175.414,82.587z"/>
		<path d="M182.631,82.587c0,0.242-0.041,0.458-0.123,0.649s-0.194,0.361-0.335,0.509s-0.305,0.274-0.492,0.379
			s-0.386,0.191-0.598,0.26s-0.43,0.119-0.653,0.15s-0.442,0.048-0.656,0.048c-0.465,0-0.892-0.021-1.282-0.062
			s-0.771-0.107-1.145-0.198v-1.094c0.401,0.114,0.8,0.201,1.196,0.26s0.791,0.089,1.183,0.089c0.57,0,0.991-0.078,1.265-0.232
			s0.41-0.376,0.41-0.663c0-0.123-0.021-0.233-0.065-0.332s-0.122-0.191-0.236-0.28s-0.291-0.181-0.53-0.277
			s-0.566-0.205-0.981-0.328c-0.31-0.091-0.596-0.195-0.858-0.311s-0.489-0.254-0.68-0.414s-0.342-0.346-0.451-0.561
			s-0.164-0.467-0.164-0.759c0-0.191,0.044-0.401,0.133-0.629s0.24-0.44,0.455-0.636s0.503-0.359,0.868-0.489
			s0.82-0.195,1.367-0.195c0.269,0,0.567,0.015,0.896,0.044s0.67,0.081,1.025,0.154v1.06c-0.374-0.091-0.728-0.158-1.063-0.202
			s-0.625-0.065-0.872-0.065c-0.296,0-0.546,0.023-0.749,0.068s-0.367,0.108-0.492,0.188s-0.215,0.173-0.27,0.28
			s-0.082,0.222-0.082,0.345s0.024,0.235,0.072,0.335s0.137,0.197,0.267,0.291s0.311,0.187,0.543,0.28s0.536,0.195,0.909,0.304
			c0.406,0.119,0.748,0.243,1.025,0.373s0.503,0.274,0.677,0.434s0.297,0.339,0.373,0.54S182.631,82.331,182.631,82.587z"/>
	</g>
	<g>
		<rect x="316.8" y="28.4" fill="none" width="180.4" height="17.6"/>
		<path d="M334.994,38.06l-0.041-1.025c-0.146,0.178-0.296,0.339-0.451,0.485s-0.321,0.27-0.499,0.373s-0.368,0.182-0.571,0.239
			s-0.427,0.085-0.673,0.085c-0.41,0-0.775-0.082-1.094-0.246s-0.587-0.397-0.803-0.701s-0.382-0.671-0.496-1.104
			s-0.171-0.916-0.171-1.449c0-0.638,0.09-1.19,0.27-1.658s0.43-0.854,0.749-1.162s0.697-0.536,1.135-0.684s0.914-0.222,1.429-0.222
			c0.173,0,0.348,0.011,0.523,0.034s0.332,0.052,0.468,0.089v-2.714h1.668v9.659H334.994z M331.945,34.642
			c0,0.383,0.026,0.71,0.079,0.981s0.13,0.493,0.232,0.667s0.229,0.3,0.379,0.379s0.321,0.12,0.513,0.12
			c0.283,0,0.551-0.114,0.807-0.342s0.526-0.54,0.813-0.937v-3.035c-0.132-0.05-0.295-0.091-0.489-0.123s-0.389-0.048-0.584-0.048
			c-0.269,0-0.51,0.055-0.725,0.164s-0.397,0.264-0.55,0.465s-0.27,0.445-0.352,0.735S331.945,34.282,331.945,34.642z"/>
		<path d="M343.491,38.06v-4.73c0-0.173-0.004-0.325-0.014-0.455s-0.027-0.238-0.055-0.325s-0.067-0.151-0.12-0.195
			s-0.124-0.065-0.215-0.065c-0.141,0-0.28,0.096-0.417,0.287s-0.292,0.517-0.465,0.978v4.505h-1.429v-4.73
			c0-0.173-0.004-0.325-0.014-0.455s-0.027-0.238-0.055-0.325s-0.068-0.151-0.123-0.195s-0.127-0.065-0.219-0.065
			c-0.119,0-0.25,0.096-0.396,0.287s-0.308,0.517-0.485,0.978v4.505h-1.442v-6.945h1.237l0.027,1.012
			c0.1-0.205,0.201-0.38,0.301-0.526s0.208-0.266,0.321-0.359s0.236-0.161,0.366-0.202s0.277-0.062,0.441-0.062
			c0.387,0,0.683,0.102,0.885,0.304s0.318,0.484,0.345,0.844c0.109-0.205,0.218-0.38,0.325-0.526s0.219-0.266,0.335-0.359
			s0.242-0.161,0.376-0.202s0.284-0.062,0.448-0.062c0.506,0,0.879,0.177,1.121,0.53s0.362,0.876,0.362,1.569v4.983H343.491z"/>
		<path d="M345.715,40.862v-1.319h7.697v1.319H345.715z"/>
		<path d="M360.588,34.532c0,0.547-0.078,1.047-0.232,1.5s-0.378,0.842-0.67,1.166s-0.649,0.574-1.073,0.752
			s-0.907,0.267-1.449,0.267c-0.515,0-0.975-0.075-1.381-0.226s-0.75-0.375-1.032-0.673s-0.499-0.672-0.649-1.121
			s-0.226-0.972-0.226-1.569c0-0.551,0.079-1.053,0.236-1.504s0.383-0.836,0.677-1.155s0.653-0.566,1.077-0.742
			s0.902-0.263,1.436-0.263c0.52,0,0.982,0.076,1.388,0.229s0.75,0.379,1.032,0.68s0.498,0.673,0.646,1.118
			S360.588,33.949,360.588,34.532z M358.851,34.573c0-0.72-0.136-1.261-0.407-1.624s-0.671-0.543-1.2-0.543
			c-0.292,0-0.54,0.057-0.745,0.171s-0.374,0.27-0.506,0.468s-0.229,0.43-0.291,0.694s-0.092,0.547-0.092,0.848
			c0,0.725,0.146,1.271,0.438,1.637s0.69,0.55,1.196,0.55c0.278,0,0.52-0.056,0.725-0.167s0.372-0.267,0.499-0.465
			s0.223-0.432,0.287-0.701S358.851,34.883,358.851,34.573z"/>
		<path d="M367.572,36.016c0,0.396-0.088,0.735-0.263,1.015s-0.408,0.508-0.697,0.684s-0.618,0.303-0.984,0.383
			s-0.742,0.12-1.125,0.12c-0.51,0-0.971-0.024-1.381-0.072s-0.797-0.117-1.162-0.208v-1.504c0.428,0.178,0.855,0.307,1.282,0.386
			s0.828,0.12,1.207,0.12c0.438,0,0.765-0.069,0.981-0.208s0.325-0.32,0.325-0.543c0-0.105-0.023-0.201-0.068-0.287
			s-0.131-0.17-0.256-0.25s-0.302-0.162-0.53-0.246s-0.526-0.179-0.896-0.284c-0.342-0.096-0.642-0.204-0.899-0.325
			s-0.471-0.263-0.639-0.427s-0.295-0.354-0.379-0.571s-0.126-0.471-0.126-0.762c0-0.283,0.064-0.549,0.191-0.8
			s0.318-0.471,0.571-0.66s0.568-0.338,0.947-0.448s0.82-0.164,1.326-0.164c0.438,0,0.825,0.023,1.162,0.068s0.636,0.096,0.896,0.15
			v1.36c-0.396-0.127-0.769-0.218-1.118-0.27s-0.694-0.079-1.036-0.079s-0.616,0.062-0.824,0.185s-0.311,0.294-0.311,0.513
			c0,0.105,0.021,0.198,0.062,0.28s0.122,0.162,0.243,0.239s0.29,0.158,0.506,0.243s0.502,0.177,0.858,0.277
			c0.401,0.114,0.738,0.236,1.012,0.366s0.493,0.277,0.66,0.441s0.286,0.351,0.359,0.561S367.572,35.747,367.572,36.016z"/>
		<path d="M368.488,40.862v-1.319h7.697v1.319H368.488z"/>
		<path d="M382.423,38.06v-4.73c0-0.173-0.004-0.325-0.014-0.455s-0.027-0.238-0.055-0.325s-0.067-0.151-0.12-0.195
			s-0.124-0.065-0.215-0.065c-0.141,0-0.28,0.096-0.417,0.287s-0.292,0.517-0.465,0.978v4.505h-1.429v-4.73
			c0-0.173-0.004-0.325-0.014-0.455s-0.027-0.238-0.055-0.325s-0.068-0.151-0.123-0.195s-0.127-0.065-0.219-0.065
			c-0.119,0-0.25,0.096-0.396,0.287s-0.308,0.517-0.485,0.978v4.505h-1.442v-6.945h1.237l0.027,1.012
			c0.1-0.205,0.201-0.38,0.301-0.526s0.208-0.266,0.321-0.359s0.236-0.161,0.366-0.202s0.277-0.062,0.441-0.062
			c0.387,0,0.683,0.102,0.885,0.304s0.318,0.484,0.345,0.844c0.109-0.205,0.218-0.38,0.325-0.526s0.219-0.266,0.335-0.359
			s0.242-0.161,0.376-0.202s0.284-0.062,0.448-0.062c0.506,0,0.879,0.177,1.121,0.53s0.362,0.876,0.362,1.569v4.983H382.423z"/>
		<path d="M391.475,34.054c0,0.114-0.003,0.262-0.01,0.444s-0.017,0.353-0.031,0.513h-4.566c0,0.305,0.047,0.574,0.14,0.807
			s0.226,0.427,0.396,0.584s0.376,0.277,0.615,0.359s0.505,0.123,0.796,0.123c0.337,0,0.698-0.026,1.083-0.079
			s0.785-0.138,1.2-0.256v1.326c-0.178,0.05-0.372,0.096-0.581,0.137s-0.424,0.078-0.643,0.109s-0.44,0.056-0.663,0.072
			s-0.44,0.024-0.649,0.024c-0.529,0-1.002-0.075-1.422-0.226s-0.775-0.373-1.066-0.667s-0.515-0.657-0.67-1.09
			s-0.232-0.934-0.232-1.504c0-0.565,0.078-1.079,0.232-1.542s0.374-0.859,0.656-1.189s0.625-0.585,1.029-0.766
			s0.854-0.27,1.35-0.27c0.492,0,0.927,0.076,1.306,0.229s0.695,0.366,0.95,0.639s0.449,0.599,0.581,0.978
			S391.475,33.603,391.475,34.054z M389.78,33.815c0.004-0.273-0.03-0.512-0.103-0.714s-0.172-0.37-0.297-0.502
			s-0.271-0.23-0.438-0.294s-0.345-0.096-0.537-0.096c-0.419,0-0.763,0.14-1.032,0.42s-0.428,0.676-0.479,1.186H389.78z"/>
		<path d="M398.292,38.06v-4.73c0-0.173-0.004-0.325-0.014-0.455s-0.027-0.238-0.055-0.325s-0.067-0.151-0.12-0.195
			s-0.124-0.065-0.215-0.065c-0.141,0-0.28,0.096-0.417,0.287s-0.292,0.517-0.465,0.978v4.505h-1.429v-4.73
			c0-0.173-0.004-0.325-0.014-0.455s-0.027-0.238-0.055-0.325s-0.068-0.151-0.123-0.195s-0.127-0.065-0.219-0.065
			c-0.119,0-0.25,0.096-0.396,0.287s-0.308,0.517-0.485,0.978v4.505h-1.442v-6.945h1.237l0.027,1.012
			c0.1-0.205,0.201-0.38,0.301-0.526s0.208-0.266,0.321-0.359s0.236-0.161,0.366-0.202s0.277-0.062,0.441-0.062
			c0.387,0,0.683,0.102,0.885,0.304s0.318,0.484,0.345,0.844c0.109-0.205,0.218-0.38,0.325-0.526s0.219-0.266,0.335-0.359
			s0.242-0.161,0.376-0.202s0.284-0.062,0.448-0.062c0.506,0,0.879,0.177,1.121,0.53s0.362,0.876,0.362,1.569v4.983H398.292z"/>
		<path d="M407.669,34.532c0,0.547-0.078,1.047-0.232,1.5s-0.378,0.842-0.67,1.166s-0.649,0.574-1.073,0.752
			s-0.907,0.267-1.449,0.267c-0.515,0-0.975-0.075-1.381-0.226s-0.75-0.375-1.032-0.673s-0.499-0.672-0.649-1.121
			s-0.226-0.972-0.226-1.569c0-0.551,0.079-1.053,0.236-1.504s0.383-0.836,0.677-1.155s0.653-0.566,1.077-0.742
			s0.902-0.263,1.436-0.263c0.52,0,0.982,0.076,1.388,0.229s0.75,0.379,1.032,0.68s0.498,0.673,0.646,1.118
			S407.669,33.949,407.669,34.532z M405.932,34.573c0-0.72-0.136-1.261-0.407-1.624s-0.671-0.543-1.2-0.543
			c-0.292,0-0.54,0.057-0.745,0.171s-0.374,0.27-0.506,0.468s-0.229,0.43-0.291,0.694s-0.092,0.547-0.092,0.848
			c0,0.725,0.146,1.271,0.438,1.637s0.69,0.55,1.196,0.55c0.278,0,0.52-0.056,0.725-0.167s0.372-0.267,0.499-0.465
			s0.223-0.432,0.287-0.701S405.932,34.883,405.932,34.573z"/>
		<path d="M413.5,33.815c0.009-0.26-0.003-0.481-0.038-0.663s-0.089-0.333-0.164-0.451s-0.167-0.205-0.277-0.26
			s-0.235-0.082-0.376-0.082c-0.246,0-0.5,0.102-0.762,0.304s-0.55,0.537-0.865,1.001v4.396h-1.709v-6.945h1.511l0.062,1.012
			c0.114-0.178,0.243-0.337,0.386-0.479s0.303-0.263,0.479-0.366s0.37-0.181,0.584-0.236s0.449-0.082,0.704-0.082
			c0.351,0,0.662,0.061,0.933,0.181s0.499,0.3,0.684,0.537s0.321,0.534,0.41,0.892s0.126,0.771,0.113,1.241H413.5z"/>
		<path d="M420.874,37.301c-0.242,0.602-0.493,1.129-0.755,1.583s-0.55,0.832-0.865,1.135s-0.664,0.531-1.049,0.684
			s-0.817,0.229-1.295,0.229c-0.114,0-0.238-0.006-0.373-0.017s-0.272-0.028-0.414-0.051v-1.415c0.055,0.009,0.117,0.02,0.188,0.031
			s0.145,0.021,0.222,0.027s0.156,0.013,0.236,0.017s0.154,0.007,0.222,0.007c0.191,0,0.369-0.037,0.533-0.109
			s0.315-0.174,0.455-0.304s0.266-0.285,0.379-0.465s0.214-0.377,0.301-0.591l-2.755-6.945h1.859l1.442,3.938l0.431,1.271
			l0.424-1.217l1.456-3.992h1.791L420.874,37.301z"/>
		<path d="M424.189,40.862v-1.319h7.697v1.319H424.189z"/>
		<path d="M439.062,34.532c0,0.547-0.078,1.047-0.232,1.5s-0.378,0.842-0.67,1.166s-0.649,0.574-1.073,0.752
			s-0.907,0.267-1.449,0.267c-0.515,0-0.975-0.075-1.381-0.226s-0.75-0.375-1.032-0.673s-0.499-0.672-0.649-1.121
			s-0.226-0.972-0.226-1.569c0-0.551,0.079-1.053,0.236-1.504s0.383-0.836,0.677-1.155s0.653-0.566,1.077-0.742
			s0.902-0.263,1.436-0.263c0.52,0,0.982,0.076,1.388,0.229s0.75,0.379,1.032,0.68s0.498,0.673,0.646,1.118
			S439.062,33.949,439.062,34.532z M437.326,34.573c0-0.72-0.136-1.261-0.407-1.624s-0.671-0.543-1.2-0.543
			c-0.292,0-0.54,0.057-0.745,0.171s-0.374,0.27-0.506,0.468s-0.229,0.43-0.291,0.694s-0.092,0.547-0.092,0.848
			c0,0.725,0.146,1.271,0.438,1.637s0.69,0.55,1.196,0.55c0.278,0,0.52-0.056,0.725-0.167s0.372-0.267,0.499-0.465
			s0.223-0.432,0.287-0.701S437.326,34.883,437.326,34.573z"/>
		<path d="M446.812,34.464c0,0.638-0.09,1.189-0.27,1.654s-0.431,0.851-0.752,1.159s-0.701,0.536-1.138,0.684
			s-0.914,0.222-1.429,0.222c-0.506,0-0.977-0.038-1.412-0.113s-0.851-0.177-1.248-0.304v-9.365h1.668v2.27l-0.068,1.367
			c0.25-0.324,0.543-0.583,0.878-0.779s0.737-0.294,1.207-0.294c0.41,0,0.775,0.082,1.094,0.246s0.587,0.397,0.803,0.701
			s0.382,0.67,0.496,1.101S446.812,33.926,446.812,34.464z M445.062,34.532c0-0.383-0.027-0.708-0.082-0.978
			s-0.133-0.49-0.236-0.663s-0.228-0.3-0.376-0.379s-0.318-0.12-0.509-0.12c-0.283,0-0.553,0.114-0.81,0.342s-0.53,0.538-0.817,0.93
			v3.035c0.132,0.05,0.295,0.091,0.489,0.123s0.391,0.048,0.591,0.048c0.264,0,0.505-0.055,0.721-0.164s0.401-0.264,0.554-0.465
			s0.27-0.445,0.352-0.735S445.062,34.892,445.062,34.532z"/>
		<path d="M453.05,37.862c0,0.52-0.076,0.972-0.229,1.357s-0.372,0.704-0.656,0.957s-0.626,0.442-1.025,0.567
			s-0.844,0.188-1.336,0.188c-0.401,0-0.775-0.034-1.121-0.103s-0.631-0.15-0.854-0.246v-1.531c0.127,0.068,0.272,0.136,0.434,0.202
			s0.331,0.125,0.506,0.178s0.354,0.093,0.537,0.123s0.362,0.044,0.54,0.044c0.506,0,0.884-0.146,1.135-0.438
			s0.376-0.72,0.376-1.285v-5.462h-3.302v-1.299h4.997V37.862z M453.187,29.214c0,0.15-0.027,0.292-0.082,0.424
			s-0.131,0.247-0.229,0.345s-0.214,0.175-0.349,0.232s-0.279,0.085-0.434,0.085s-0.298-0.028-0.431-0.085s-0.247-0.134-0.345-0.232
			s-0.174-0.213-0.229-0.345s-0.082-0.273-0.082-0.424s0.027-0.292,0.082-0.424s0.131-0.249,0.229-0.349s0.213-0.179,0.345-0.236
			s0.276-0.085,0.431-0.085s0.3,0.028,0.434,0.085s0.25,0.136,0.349,0.236s0.174,0.216,0.229,0.349S453.187,29.064,453.187,29.214z"
			/>
		<path d="M461.281,34.054c0,0.114-0.003,0.262-0.01,0.444s-0.017,0.353-0.031,0.513h-4.566c0,0.305,0.047,0.574,0.14,0.807
			s0.226,0.427,0.396,0.584s0.376,0.277,0.615,0.359s0.505,0.123,0.796,0.123c0.337,0,0.698-0.026,1.083-0.079
			s0.785-0.138,1.2-0.256v1.326c-0.178,0.05-0.372,0.096-0.581,0.137s-0.424,0.078-0.643,0.109s-0.44,0.056-0.663,0.072
			s-0.44,0.024-0.649,0.024c-0.529,0-1.002-0.075-1.422-0.226s-0.775-0.373-1.066-0.667s-0.515-0.657-0.67-1.09
			s-0.232-0.934-0.232-1.504c0-0.565,0.078-1.079,0.232-1.542s0.374-0.859,0.656-1.189s0.625-0.585,1.029-0.766
			s0.854-0.27,1.35-0.27c0.492,0,0.927,0.076,1.306,0.229s0.695,0.366,0.95,0.639s0.449,0.599,0.581,0.978
			S461.281,33.603,461.281,34.054z M459.586,33.815c0.004-0.273-0.03-0.512-0.103-0.714s-0.172-0.37-0.297-0.502
			s-0.271-0.23-0.438-0.294s-0.345-0.096-0.537-0.096c-0.419,0-0.763,0.14-1.032,0.42s-0.428,0.676-0.479,1.186H459.586z"/>
		<path d="M468.371,37.793c-0.328,0.132-0.667,0.23-1.019,0.294s-0.718,0.096-1.101,0.096c-0.551,0-1.046-0.075-1.483-0.226
			s-0.809-0.374-1.114-0.67s-0.539-0.663-0.701-1.101s-0.243-0.943-0.243-1.518c0-0.556,0.088-1.06,0.263-1.511
			s0.423-0.836,0.742-1.155s0.703-0.565,1.152-0.738s0.949-0.26,1.5-0.26c0.451,0,0.831,0.024,1.138,0.072s0.584,0.108,0.831,0.181
			v1.62c-0.283-0.141-0.589-0.25-0.919-0.328s-0.644-0.116-0.94-0.116c-0.31,0-0.588,0.052-0.834,0.157s-0.454,0.25-0.622,0.438
			s-0.297,0.414-0.386,0.68s-0.133,0.56-0.133,0.878c0,0.333,0.048,0.631,0.144,0.896s0.231,0.489,0.407,0.673
			s0.386,0.326,0.632,0.424s0.52,0.147,0.82,0.147c0.146,0,0.3-0.01,0.461-0.031s0.324-0.05,0.485-0.089s0.321-0.083,0.479-0.133
			s0.304-0.105,0.441-0.164V37.793z"/>
		<path d="M476.023,37.991c-0.301,0.068-0.604,0.123-0.909,0.164s-0.595,0.062-0.868,0.062c-0.456,0-0.849-0.048-1.179-0.144
			s-0.604-0.242-0.82-0.438s-0.376-0.445-0.479-0.749s-0.154-0.664-0.154-1.083v-3.391h-1.866v-1.299h1.866v-1.777l1.709-0.444
			v2.222h2.7v1.299h-2.7v3.268c0,0.396,0.091,0.696,0.273,0.899s0.488,0.304,0.916,0.304c0.273,0,0.54-0.023,0.8-0.068
			s0.497-0.098,0.711-0.157V37.991z"/>
		<path d="M483.305,36.016c0,0.396-0.088,0.735-0.263,1.015s-0.408,0.508-0.697,0.684s-0.618,0.303-0.984,0.383
			s-0.742,0.12-1.125,0.12c-0.51,0-0.971-0.024-1.381-0.072s-0.797-0.117-1.162-0.208v-1.504c0.428,0.178,0.855,0.307,1.282,0.386
			s0.828,0.12,1.207,0.12c0.438,0,0.765-0.069,0.981-0.208s0.325-0.32,0.325-0.543c0-0.105-0.023-0.201-0.068-0.287
			s-0.131-0.17-0.256-0.25s-0.302-0.162-0.53-0.246s-0.526-0.179-0.896-0.284c-0.342-0.096-0.642-0.204-0.899-0.325
			s-0.471-0.263-0.639-0.427s-0.295-0.354-0.379-0.571s-0.126-0.471-0.126-0.762c0-0.283,0.064-0.549,0.191-0.8
			s0.318-0.471,0.571-0.66s0.568-0.338,0.947-0.448s0.82-0.164,1.326-0.164c0.438,0,0.825,0.023,1.162,0.068s0.636,0.096,0.896,0.15
			v1.36c-0.396-0.127-0.769-0.218-1.118-0.27s-0.694-0.079-1.036-0.079s-0.616,0.062-0.824,0.185s-0.311,0.294-0.311,0.513
			c0,0.105,0.021,0.198,0.062,0.28s0.122,0.162,0.243,0.239s0.29,0.158,0.506,0.243s0.502,0.177,0.858,0.277
			c0.401,0.114,0.738,0.236,1.012,0.366s0.493,0.277,0.66,0.441s0.286,0.351,0.359,0.561S483.305,35.747,483.305,36.016z"/>
	</g>
	<g>
		<rect x="312.4" y="74.8" fill="none" width="189.2" height="22"/>
		<path d="M332.589,84.46v-4.929c0-0.214-0.008-0.39-0.024-0.526s-0.041-0.245-0.075-0.325s-0.078-0.136-0.13-0.167
			s-0.117-0.048-0.195-0.048c-0.091,0-0.175,0.027-0.253,0.082s-0.161,0.144-0.25,0.267s-0.187,0.286-0.294,0.489
			s-0.233,0.452-0.379,0.749v4.409h-1.087v-4.799c0-0.25-0.008-0.454-0.024-0.608s-0.041-0.276-0.075-0.362
			s-0.079-0.146-0.133-0.178s-0.121-0.048-0.198-0.048c-0.082,0-0.16,0.023-0.232,0.068s-0.154,0.127-0.243,0.246
			s-0.188,0.28-0.297,0.485s-0.239,0.467-0.39,0.786v4.409h-1.094v-6.863h0.909l0.055,1.306c0.119-0.26,0.233-0.481,0.345-0.663
			s0.227-0.329,0.345-0.441s0.245-0.194,0.379-0.246s0.284-0.079,0.448-0.079c0.369,0,0.649,0.121,0.841,0.362
			s0.287,0.615,0.287,1.121c0.109-0.237,0.216-0.448,0.321-0.632s0.218-0.339,0.338-0.465s0.254-0.221,0.4-0.287
			s0.314-0.099,0.506-0.099c0.861,0,1.292,0.663,1.292,1.989v4.997H332.589z"/>
		<path d="M341.385,80.666c0,0.168-0.002,0.31-0.007,0.424s-0.011,0.221-0.021,0.321h-4.819c0,0.702,0.196,1.241,0.588,1.617
			s0.957,0.564,1.695,0.564c0.201,0,0.401-0.008,0.602-0.024s0.394-0.038,0.581-0.065s0.366-0.058,0.537-0.092
			s0.329-0.072,0.475-0.113v0.978c-0.324,0.091-0.689,0.165-1.097,0.222s-0.831,0.085-1.268,0.085c-0.588,0-1.094-0.08-1.518-0.239
			s-0.771-0.391-1.042-0.694s-0.472-0.674-0.602-1.114s-0.195-0.938-0.195-1.494c0-0.483,0.069-0.94,0.208-1.371
			s0.342-0.809,0.608-1.135s0.594-0.584,0.981-0.776s0.827-0.287,1.319-0.287c0.479,0,0.902,0.075,1.271,0.226
			s0.68,0.363,0.933,0.639s0.444,0.611,0.574,1.005S341.385,80.178,341.385,80.666z M340.148,80.495
			c0.014-0.305-0.016-0.584-0.089-0.837s-0.186-0.471-0.338-0.653s-0.343-0.325-0.571-0.427s-0.492-0.154-0.793-0.154
			c-0.26,0-0.497,0.05-0.711,0.15s-0.399,0.242-0.554,0.424s-0.28,0.401-0.376,0.656s-0.155,0.536-0.178,0.841H340.148z"/>
		<path d="M348.385,84.46v-4.929c0-0.214-0.008-0.39-0.024-0.526s-0.041-0.245-0.075-0.325s-0.078-0.136-0.13-0.167
			s-0.117-0.048-0.195-0.048c-0.091,0-0.175,0.027-0.253,0.082s-0.161,0.144-0.25,0.267s-0.187,0.286-0.294,0.489
			s-0.233,0.452-0.379,0.749v4.409h-1.087v-4.799c0-0.25-0.008-0.454-0.024-0.608s-0.041-0.276-0.075-0.362
			s-0.079-0.146-0.133-0.178s-0.121-0.048-0.198-0.048c-0.082,0-0.16,0.023-0.232,0.068s-0.154,0.127-0.243,0.246
			s-0.188,0.28-0.297,0.485s-0.239,0.467-0.39,0.786v4.409h-1.094v-6.863h0.909l0.055,1.306c0.119-0.26,0.233-0.481,0.345-0.663
			s0.227-0.329,0.345-0.441s0.245-0.194,0.379-0.246s0.284-0.079,0.448-0.079c0.369,0,0.649,0.121,0.841,0.362
			s0.287,0.615,0.287,1.121c0.109-0.237,0.216-0.448,0.321-0.632s0.218-0.339,0.338-0.465s0.254-0.221,0.4-0.287
			s0.314-0.099,0.506-0.099c0.861,0,1.292,0.663,1.292,1.989v4.997H348.385z"/>
		<path d="M357.431,80.973c0,0.533-0.075,1.022-0.226,1.466s-0.367,0.825-0.649,1.142s-0.626,0.563-1.032,0.738
			s-0.866,0.263-1.381,0.263c-0.492,0-0.933-0.076-1.323-0.229s-0.72-0.377-0.991-0.673s-0.479-0.663-0.622-1.101
			s-0.215-0.941-0.215-1.511c0-0.533,0.075-1.02,0.226-1.459s0.367-0.818,0.649-1.135s0.626-0.563,1.032-0.738
			s0.866-0.263,1.381-0.263c0.492,0,0.933,0.076,1.323,0.229s0.72,0.376,0.991,0.67s0.479,0.66,0.622,1.097
			S357.431,80.408,357.431,80.973z M356.214,81.028c0-0.424-0.047-0.794-0.14-1.111s-0.227-0.581-0.4-0.793
			s-0.384-0.372-0.632-0.479s-0.525-0.161-0.831-0.161c-0.355,0-0.66,0.069-0.913,0.208s-0.46,0.325-0.622,0.557
			s-0.28,0.502-0.355,0.81s-0.113,0.63-0.113,0.967c0,0.424,0.047,0.795,0.14,1.114s0.227,0.584,0.4,0.796s0.383,0.372,0.629,0.479
			s0.524,0.161,0.834,0.161c0.355,0,0.66-0.069,0.913-0.208s0.46-0.325,0.622-0.557s0.28-0.502,0.355-0.81
			S356.214,81.37,356.214,81.028z"/>
		<path d="M359.338,77.596h1.087l0.034,1.265c0.406-0.488,0.806-0.841,1.2-1.06s0.792-0.328,1.193-0.328
			c0.711,0,1.25,0.23,1.617,0.69s0.537,1.144,0.509,2.051h-1.203c0.014-0.602-0.074-1.038-0.263-1.309s-0.466-0.407-0.831-0.407
			c-0.16,0-0.32,0.028-0.482,0.085s-0.328,0.148-0.499,0.273s-0.352,0.286-0.543,0.482s-0.396,0.433-0.615,0.711v4.409h-1.203
			V77.596z"/>
		<path d="M372.779,77.596l-2.338,6.139c-0.242,0.625-0.491,1.162-0.749,1.613s-0.539,0.821-0.844,1.111s-0.64,0.502-1.005,0.639
			s-0.772,0.205-1.224,0.205c-0.119,0-0.226-0.002-0.321-0.007s-0.201-0.011-0.314-0.021v-1.08c0.1,0.014,0.209,0.026,0.328,0.038
			s0.244,0.017,0.376,0.017c0.219,0,0.423-0.032,0.612-0.096s0.368-0.167,0.537-0.311s0.331-0.329,0.485-0.557
			s0.305-0.503,0.451-0.827l-2.741-6.863h1.354l1.736,4.539l0.349,1.066l0.396-1.094l1.606-4.512H372.779z"/>
		<path d="M381.666,87.262h-7.697v-0.984h7.697V87.262z"/>
		<path d="M388.77,80.973c0,0.533-0.075,1.022-0.226,1.466s-0.367,0.825-0.649,1.142s-0.626,0.563-1.032,0.738
			s-0.866,0.263-1.381,0.263c-0.492,0-0.933-0.076-1.323-0.229s-0.72-0.377-0.991-0.673s-0.479-0.663-0.622-1.101
			s-0.215-0.941-0.215-1.511c0-0.533,0.075-1.02,0.226-1.459s0.367-0.818,0.649-1.135s0.626-0.563,1.032-0.738
			s0.866-0.263,1.381-0.263c0.492,0,0.933,0.076,1.323,0.229s0.72,0.376,0.991,0.67s0.479,0.66,0.622,1.097
			S388.77,80.408,388.77,80.973z M387.553,81.028c0-0.424-0.047-0.794-0.14-1.111s-0.227-0.581-0.4-0.793s-0.384-0.372-0.632-0.479
			s-0.525-0.161-0.831-0.161c-0.355,0-0.66,0.069-0.913,0.208s-0.46,0.325-0.622,0.557s-0.28,0.502-0.355,0.81
			s-0.113,0.63-0.113,0.967c0,0.424,0.047,0.795,0.14,1.114s0.227,0.584,0.4,0.796s0.383,0.372,0.629,0.479s0.524,0.161,0.834,0.161
			c0.355,0,0.66-0.069,0.913-0.208s0.46-0.325,0.622-0.557s0.28-0.502,0.355-0.81S387.553,81.37,387.553,81.028z"/>
		<path d="M396.402,80.905c0,0.57-0.079,1.079-0.236,1.528s-0.38,0.83-0.67,1.142s-0.642,0.551-1.056,0.718s-0.882,0.25-1.401,0.25
			c-0.406,0-0.82-0.039-1.244-0.116s-0.843-0.201-1.258-0.369V74.8h1.189v2.659l-0.055,1.271c0.342-0.46,0.708-0.785,1.097-0.974
			s0.808-0.284,1.254-0.284c0.392,0,0.736,0.082,1.032,0.246s0.544,0.396,0.745,0.694s0.351,0.659,0.451,1.08
			S396.402,80.385,396.402,80.905z M395.185,80.96c0-0.36-0.026-0.69-0.079-0.991s-0.136-0.558-0.25-0.772s-0.26-0.382-0.438-0.502
			s-0.39-0.181-0.636-0.181c-0.15,0-0.303,0.024-0.458,0.072s-0.315,0.127-0.482,0.239s-0.342,0.26-0.526,0.444
			s-0.382,0.414-0.591,0.687v3.329c0.232,0.091,0.469,0.163,0.711,0.215s0.472,0.079,0.69,0.079c0.273,0,0.534-0.043,0.783-0.13
			s0.467-0.231,0.656-0.434s0.339-0.472,0.451-0.807S395.185,81.456,395.185,80.96z"/>
		<path d="M402.507,77.596v6.74c0,0.479-0.068,0.903-0.205,1.275s-0.333,0.685-0.588,0.94s-0.568,0.449-0.94,0.581
			s-0.79,0.198-1.254,0.198c-0.337,0-0.667-0.031-0.988-0.092s-0.612-0.147-0.872-0.256v-1.135c0.141,0.073,0.293,0.139,0.455,0.198
			s0.328,0.109,0.499,0.15s0.343,0.072,0.516,0.092s0.342,0.031,0.506,0.031c0.52,0,0.927-0.164,1.224-0.492
			s0.444-0.811,0.444-1.449v-5.797h-3.363v-0.984H402.507z M401.789,74.718c0.132,0,0.255,0.024,0.369,0.072
			s0.213,0.115,0.297,0.202s0.15,0.187,0.198,0.301s0.072,0.235,0.072,0.362c0,0.132-0.024,0.254-0.072,0.366
			s-0.114,0.211-0.198,0.297s-0.184,0.154-0.297,0.202s-0.237,0.072-0.369,0.072s-0.255-0.024-0.369-0.072s-0.213-0.115-0.297-0.202
			s-0.15-0.186-0.198-0.297s-0.072-0.233-0.072-0.366c0-0.127,0.024-0.249,0.072-0.362s0.114-0.214,0.198-0.301
			s0.184-0.154,0.297-0.202S401.657,74.718,401.789,74.718z"/>
		<path d="M410.867,80.666c0,0.168-0.002,0.31-0.007,0.424s-0.011,0.221-0.021,0.321h-4.819c0,0.702,0.196,1.241,0.588,1.617
			s0.957,0.564,1.695,0.564c0.201,0,0.401-0.008,0.602-0.024s0.394-0.038,0.581-0.065s0.366-0.058,0.537-0.092
			s0.329-0.072,0.475-0.113v0.978c-0.324,0.091-0.689,0.165-1.097,0.222s-0.831,0.085-1.268,0.085c-0.588,0-1.094-0.08-1.518-0.239
			s-0.771-0.391-1.042-0.694s-0.472-0.674-0.602-1.114s-0.195-0.938-0.195-1.494c0-0.483,0.069-0.94,0.208-1.371
			s0.342-0.809,0.608-1.135s0.594-0.584,0.981-0.776s0.827-0.287,1.319-0.287c0.479,0,0.902,0.075,1.271,0.226
			s0.68,0.363,0.933,0.639s0.444,0.611,0.574,1.005S410.867,80.178,410.867,80.666z M409.63,80.495
			c0.014-0.305-0.016-0.584-0.089-0.837s-0.186-0.471-0.338-0.653s-0.343-0.325-0.571-0.427s-0.492-0.154-0.793-0.154
			c-0.26,0-0.497,0.05-0.711,0.15s-0.399,0.242-0.554,0.424s-0.28,0.401-0.376,0.656s-0.155,0.536-0.178,0.841H409.63z"/>
		<path d="M417.914,84.207c-0.31,0.119-0.628,0.206-0.954,0.263s-0.662,0.085-1.008,0.085c-1.084,0-1.92-0.294-2.505-0.882
			s-0.878-1.447-0.878-2.577c0-0.542,0.084-1.035,0.253-1.477s0.406-0.82,0.711-1.135s0.67-0.557,1.094-0.728
			s0.891-0.256,1.401-0.256c0.355,0,0.688,0.025,0.998,0.075s0.606,0.132,0.889,0.246v1.135c-0.296-0.155-0.598-0.268-0.906-0.338
			s-0.625-0.106-0.954-0.106c-0.305,0-0.594,0.058-0.865,0.174s-0.509,0.284-0.714,0.502s-0.367,0.485-0.485,0.8
			s-0.178,0.67-0.178,1.066c0,0.83,0.202,1.45,0.605,1.863s0.963,0.619,1.678,0.619c0.324,0,0.637-0.037,0.94-0.109
			s0.596-0.182,0.878-0.328V84.207z"/>
		<path d="M425.716,84.364c-0.269,0.068-0.547,0.117-0.834,0.147s-0.579,0.044-0.875,0.044c-0.861,0-1.504-0.195-1.928-0.584
			s-0.636-0.988-0.636-1.794v-3.582h-1.921v-0.998h1.921V75.71l1.189-0.308v2.194h3.083v0.998h-3.083v3.486
			c0,0.492,0.131,0.86,0.393,1.104s0.648,0.366,1.159,0.366c0.219,0,0.458-0.017,0.718-0.051s0.531-0.088,0.813-0.161V84.364z"/>
		<path d="M434.45,87.262h-7.697v-0.984h7.697V87.262z"/>
		<path d="M440.068,84.46l-0.027-0.923c-0.374,0.369-0.753,0.636-1.138,0.8s-0.79,0.246-1.213,0.246c-0.392,0-0.727-0.05-1.005-0.15
			s-0.507-0.238-0.687-0.414s-0.312-0.382-0.396-0.619s-0.126-0.495-0.126-0.772c0-0.688,0.256-1.227,0.769-1.617
			s1.271-0.584,2.273-0.584h1.422v-0.602c0-0.406-0.13-0.73-0.39-0.974s-0.656-0.366-1.189-0.366c-0.387,0-0.769,0.043-1.145,0.13
			s-0.765,0.209-1.166,0.369v-1.073c0.15-0.055,0.318-0.108,0.502-0.161s0.379-0.099,0.584-0.14s0.419-0.074,0.643-0.099
			s0.449-0.038,0.677-0.038c0.415,0,0.789,0.045,1.121,0.137s0.614,0.23,0.844,0.417s0.407,0.421,0.53,0.704
			s0.185,0.615,0.185,0.998v4.73H440.068z M439.938,81.336h-1.511c-0.296,0-0.551,0.03-0.766,0.089s-0.39,0.144-0.526,0.253
			s-0.238,0.24-0.304,0.393s-0.099,0.325-0.099,0.516c0,0.132,0.021,0.259,0.062,0.379s0.107,0.228,0.198,0.321
			s0.209,0.167,0.355,0.222s0.324,0.082,0.533,0.082c0.273,0,0.587-0.083,0.94-0.25s0.726-0.43,1.118-0.79V81.336z"/>
		<path d="M442.981,81.172c0-0.583,0.08-1.102,0.239-1.555s0.386-0.836,0.68-1.148s0.647-0.549,1.06-0.711s0.872-0.243,1.377-0.243
			c0.219,0,0.434,0.014,0.646,0.041s0.42,0.071,0.625,0.13V74.8h1.196v9.659h-1.066l-0.041-1.299
			c-0.333,0.483-0.693,0.841-1.08,1.073s-0.807,0.349-1.258,0.349c-0.392,0-0.737-0.082-1.036-0.246s-0.547-0.396-0.745-0.694
			s-0.348-0.657-0.448-1.077S442.981,81.682,442.981,81.172z M444.197,81.096c0,0.83,0.122,1.448,0.366,1.856
			s0.589,0.612,1.036,0.612c0.301,0,0.619-0.134,0.954-0.403s0.687-0.667,1.056-1.196v-3.186c-0.196-0.091-0.413-0.161-0.649-0.208
			s-0.472-0.072-0.704-0.072c-0.647,0-1.152,0.209-1.514,0.629S444.197,80.203,444.197,81.096z"/>
		<path d="M450.673,81.172c0-0.583,0.08-1.102,0.239-1.555s0.386-0.836,0.68-1.148s0.647-0.549,1.06-0.711s0.872-0.243,1.377-0.243
			c0.219,0,0.434,0.014,0.646,0.041s0.42,0.071,0.625,0.13V74.8h1.196v9.659h-1.066l-0.041-1.299
			c-0.333,0.483-0.693,0.841-1.08,1.073s-0.807,0.349-1.258,0.349c-0.392,0-0.737-0.082-1.036-0.246s-0.547-0.396-0.745-0.694
			s-0.348-0.657-0.448-1.077S450.673,81.682,450.673,81.172z M451.889,81.096c0,0.83,0.122,1.448,0.366,1.856
			s0.589,0.612,1.036,0.612c0.301,0,0.619-0.134,0.954-0.403s0.687-0.667,1.056-1.196v-3.186c-0.196-0.091-0.413-0.161-0.649-0.208
			s-0.472-0.072-0.704-0.072c-0.647,0-1.152,0.209-1.514,0.629S451.889,80.203,451.889,81.096z"/>
		<path d="M458.814,77.596h1.087l0.034,1.265c0.406-0.488,0.806-0.841,1.2-1.06s0.792-0.328,1.193-0.328
			c0.711,0,1.25,0.23,1.617,0.69s0.537,1.144,0.509,2.051h-1.203c0.014-0.602-0.074-1.038-0.263-1.309s-0.466-0.407-0.831-0.407
			c-0.16,0-0.32,0.028-0.482,0.085s-0.328,0.148-0.499,0.273s-0.352,0.286-0.543,0.482s-0.396,0.433-0.615,0.711v4.409h-1.203
			V77.596z"/>
		<path d="M472.025,80.666c0,0.168-0.002,0.31-0.007,0.424s-0.011,0.221-0.021,0.321h-4.819c0,0.702,0.196,1.241,0.588,1.617
			s0.957,0.564,1.695,0.564c0.201,0,0.401-0.008,0.602-0.024s0.394-0.038,0.581-0.065s0.366-0.058,0.537-0.092
			s0.329-0.072,0.475-0.113v0.978c-0.324,0.091-0.689,0.165-1.097,0.222s-0.831,0.085-1.268,0.085c-0.588,0-1.094-0.08-1.518-0.239
			s-0.771-0.391-1.042-0.694s-0.472-0.674-0.602-1.114s-0.195-0.938-0.195-1.494c0-0.483,0.069-0.94,0.208-1.371
			s0.342-0.809,0.608-1.135s0.594-0.584,0.981-0.776s0.827-0.287,1.319-0.287c0.479,0,0.902,0.075,1.271,0.226
			s0.68,0.363,0.933,0.639s0.444,0.611,0.574,1.005S472.025,80.178,472.025,80.666z M470.788,80.495
			c0.014-0.305-0.016-0.584-0.089-0.837s-0.186-0.471-0.338-0.653s-0.343-0.325-0.571-0.427s-0.492-0.154-0.793-0.154
			c-0.26,0-0.497,0.05-0.711,0.15s-0.399,0.242-0.554,0.424s-0.28,0.401-0.376,0.656s-0.155,0.536-0.178,0.841H470.788z"/>
		<path d="M479.014,82.587c0,0.242-0.041,0.458-0.123,0.649s-0.194,0.361-0.335,0.509s-0.305,0.274-0.492,0.379
			s-0.386,0.191-0.598,0.26s-0.43,0.119-0.653,0.15s-0.442,0.048-0.656,0.048c-0.465,0-0.892-0.021-1.282-0.062
			s-0.771-0.107-1.145-0.198v-1.094c0.401,0.114,0.8,0.201,1.196,0.26s0.791,0.089,1.183,0.089c0.57,0,0.991-0.078,1.265-0.232
			s0.41-0.376,0.41-0.663c0-0.123-0.021-0.233-0.065-0.332s-0.122-0.191-0.236-0.28s-0.291-0.181-0.53-0.277
			s-0.566-0.205-0.981-0.328c-0.31-0.091-0.596-0.195-0.858-0.311s-0.489-0.254-0.68-0.414s-0.342-0.346-0.451-0.561
			s-0.164-0.467-0.164-0.759c0-0.191,0.044-0.401,0.133-0.629s0.24-0.44,0.455-0.636s0.503-0.359,0.868-0.489
			s0.82-0.195,1.367-0.195c0.269,0,0.567,0.015,0.896,0.044s0.67,0.081,1.025,0.154v1.06c-0.374-0.091-0.728-0.158-1.063-0.202
			s-0.625-0.065-0.872-0.065c-0.296,0-0.546,0.023-0.749,0.068s-0.367,0.108-0.492,0.188s-0.215,0.173-0.27,0.28
			s-0.082,0.222-0.082,0.345s0.024,0.235,0.072,0.335s0.137,0.197,0.267,0.291s0.311,0.187,0.543,0.28s0.536,0.195,0.909,0.304
			c0.406,0.119,0.748,0.243,1.025,0.373s0.503,0.274,0.677,0.434s0.297,0.339,0.373,0.54S479.014,82.331,479.014,82.587z"/>
		<path d="M486.231,82.587c0,0.242-0.041,0.458-0.123,0.649s-0.194,0.361-0.335,0.509s-0.305,0.274-0.492,0.379
			s-0.386,0.191-0.598,0.26s-0.43,0.119-0.653,0.15s-0.442,0.048-0.656,0.048c-0.465,0-0.892-0.021-1.282-0.062
			s-0.771-0.107-1.145-0.198v-1.094c0.401,0.114,0.8,0.201,1.196,0.26s0.791,0.089,1.183,0.089c0.57,0,0.991-0.078,1.265-0.232
			s0.41-0.376,0.41-0.663c0-0.123-0.021-0.233-0.065-0.332s-0.122-0.191-0.236-0.28s-0.291-0.181-0.53-0.277
			s-0.566-0.205-0.981-0.328c-0.31-0.091-0.596-0.195-0.858-0.311s-0.489-0.254-0.68-0.414s-0.342-0.346-0.451-0.561
			s-0.164-0.467-0.164-0.759c0-0.191,0.044-0.401,0.133-0.629s0.24-0.44,0.455-0.636s0.503-0.359,0.868-0.489
			s0.82-0.195,1.367-0.195c0.269,0,0.567,0.015,0.896,0.044s0.67,0.081,1.025,0.154v1.06c-0.374-0.091-0.728-0.158-1.063-0.202
			s-0.625-0.065-0.872-0.065c-0.296,0-0.546,0.023-0.749,0.068s-0.367,0.108-0.492,0.188s-0.215,0.173-0.27,0.28
			s-0.082,0.222-0.082,0.345s0.024,0.235,0.072,0.335s0.137,0.197,0.267,0.291s0.311,0.187,0.543,0.28s0.536,0.195,0.909,0.304
			c0.406,0.119,0.748,0.243,1.025,0.373s0.503,0.274,0.677,0.434s0.297,0.339,0.373,0.54S486.231,82.331,486.231,82.587z"/>
	</g>
</g>
<g id="Layer_1">
</g>
</svg>
