<?xml version="1.0" encoding="utf-8"?>
<!-- Generator: Adobe Illustrator 26.3.1, SVG Export Plug-In . SVG Version: 6.00 Build 0)  -->
<svg version="1.1" xmlns="http://www.w3.org/2000/svg" xmlns:xlink="http://www.w3.org/1999/xlink" x="0px" y="0px"
	 viewBox="0 0 510.4 224.4" enable-background="new 0 0 510.4 224.4" xml:space="preserve">
<symbol  id="PIPELINE" viewBox="-32 -12.266 64 24.531">
	<linearGradient id="SVGID_1_" gradientUnits="userSpaceOnUse" x1="0" y1="-12.2655" x2="1.502093e-15" y2="12.2655">
		<stop  offset="0" style="stop-color:#1B89B2"/>
		<stop  offset="1" style="stop-color:#51C8E8"/>
	</linearGradient>
	<path fill="url(#SVGID_1_)" d="M26.096,12.266h-51.448v0h0C-29.08,12.265-32,6.878-32,0s2.92-12.265,6.648-12.265h0v0h51.448
		C29.356-12.266,32-6.363,32,0S29.356,12.266,26.096,12.266z"/>
	<g>
		
			<linearGradient id="SVGID_00000142869838936719980290000000644160517141841056_" gradientUnits="userSpaceOnUse" x1="-31.461" y1="-6.1136" x2="-19.2338" y2="6.1136">
			<stop  offset="0" style="stop-color:#B3B4B4"/>
			<stop  offset="1" style="stop-color:#4F4F4F"/>
		</linearGradient>
		<ellipse fill="url(#SVGID_00000142869838936719980290000000644160517141841056_)" cx="-25.347" cy="0" rx="5.575" ry="10.879"/>
	</g>
</symbol>
<g id="Shapes">
	<rect fill="#FFFFFF" width="510.4" height="224.4"/>
	<g id="Wrench_tool_x28_s_x29_">
	</g>
	<g id="user2">
	</g>
	<g id="user2_1_">
	</g>
	<g id="user2_4_">
	</g>
	<g id="user2_3_">
	</g>
	<g id="user2_2_">
	</g>
	<g id="Internet_2">
	</g>
	<g id="Enterprise">
	</g>
	<g id="Tunnel__x28_stackable_x29_">
	</g>
	<g id="New_Symbol">
	</g>
	<g id="New_Symbol_1">
	</g>
	<g id="Files">
	</g>
	<g id="BlobBlock">
	</g>
	<g id="E_x5F_Enterprise">
	</g>
	<g id="E_x5F_AD_FS">
	</g>
	<g id="C_x5F_Azure_Active_Directory">
	</g>
	<g>
		<polyline fill="none" stroke="#005CA1" points="203.6,80.954 220.302,80.954 220.302,121.277 309.2,121.277 		"/>
		<line fill="none" stroke="#005CA1" x1="212.4" y1="75.454" x2="212.4" y2="86.454"/>
		<line fill="none" stroke="#005CA1" x1="300.4" y1="115.783" x2="300.4" y2="126.783"/>
	</g>
	<g>
		<polyline fill="none" stroke="#3C3C41" points="203.6,121.277 232.302,121.277 232.302,161.242 309.2,161.242 		"/>
		<line fill="none" stroke="#3C3C41" x1="212.4" y1="115.418" x2="212.4" y2="126.418"/>
		<line fill="none" stroke="#3C3C41" x1="300.4" y1="155.747" x2="300.4" y2="166.747"/>
	</g>
	<g>
		<g opacity="0.3">
			<rect x="5.4" y="4.954" fill="#212121" width="198" height="57.2"/>
			<rect x="5.4" y="4.954" opacity="0.35" fill="#212121" width="198" height="57.2"/>
		</g>
		<g>
			<rect x="4.4" y="3.954" fill="#FFFFFF" width="198" height="57.2"/>
			<rect x="4.4" y="3.954" opacity="0.35" fill="#1B93EB" width="198" height="57.2"/>
		</g>
	</g>
	<g>
		<g opacity="0.3">
			<rect x="5.4" y="62.154" fill="#212121" width="198" height="39.6"/>
			<rect x="5.4" y="62.154" opacity="0.15" fill="#212121" width="198" height="39.6"/>
		</g>
		<g>
			<rect x="4.4" y="61.154" fill="#FFFFFF" width="198" height="39.6"/>
			<rect x="4.4" y="61.154" opacity="0.15" fill="#1B93EB" width="198" height="39.6"/>
		</g>
	</g>
	<g>
		<g opacity="0.3">
			<rect x="309" y="4.954" fill="#212121" width="198" height="57.2"/>
			<rect x="309" y="4.954" opacity="0.35" fill="#212121" width="198" height="57.2"/>
		</g>
		<g>
			<rect x="308" y="3.954" fill="#FFFFFF" width="198" height="57.2"/>
			<rect x="308" y="3.954" opacity="0.35" fill="#1B93EB" width="198" height="57.2"/>
		</g>
	</g>
	<g>
		<g opacity="0.3">
			<rect x="309" y="62.154" fill="#212121" width="198" height="39.6"/>
			<rect x="309" y="62.154" opacity="0.15" fill="#212121" width="198" height="39.6"/>
		</g>
		<g>
			<rect x="308" y="61.154" fill="#FFFFFF" width="198" height="39.6"/>
			<rect x="308" y="61.154" opacity="0.15" fill="#1B93EB" width="198" height="39.6"/>
		</g>
	</g>
	<g>
		<g opacity="0.3">
			<rect x="309" y="101.754" fill="#212121" width="198" height="39.6"/>
			<rect x="309" y="101.754" opacity="0.15" fill="#212121" width="198" height="39.6"/>
		</g>
		<g>
			<rect x="308" y="100.754" fill="#FFFFFF" width="198" height="39.6"/>
			<rect x="308" y="100.754" opacity="0.15" fill="#1B93EB" width="198" height="39.6"/>
		</g>
	</g>
	<line fill="none" stroke="#A3A3A3" stroke-width="0.75" stroke-miterlimit="10" x1="308" y1="100.754" x2="506" y2="100.754"/>
	<g>
		<g opacity="0.3">
			<rect x="309" y="141.8" fill="#212121" width="198" height="39.6"/>
			<rect x="309" y="141.8" opacity="0.15" fill="#212121" width="198" height="39.6"/>
		</g>
		<g>
			<rect x="308" y="140.8" fill="#FFFFFF" width="198" height="39.6"/>
			<rect x="308" y="140.8" opacity="0.15" fill="#1B93EB" width="198" height="39.6"/>
		</g>
	</g>
	<line fill="none" stroke="#A3A3A3" stroke-width="0.75" stroke-miterlimit="10" x1="308" y1="141.083" x2="506" y2="141.083"/>
	<g>
		<g opacity="0.3">
			<rect x="309" y="181.4" fill="#212121" width="198" height="39.6"/>
			<rect x="309" y="181.4" opacity="0.15" fill="#212121" width="198" height="39.6"/>
		</g>
		<g>
			<rect x="308" y="180.4" fill="#FFFFFF" width="198" height="39.6"/>
			<rect x="308" y="180.4" opacity="0.15" fill="#1B93EB" width="198" height="39.6"/>
		</g>
	</g>
	<line fill="none" stroke="#A3A3A3" stroke-width="0.75" stroke-miterlimit="10" x1="308" y1="181.129" x2="506" y2="181.129"/>
	<g>
		<g opacity="0.3">
			<rect x="5.4" y="101.754" fill="#212121" width="198" height="39.6"/>
			<rect x="5.4" y="101.754" opacity="0.15" fill="#212121" width="198" height="39.6"/>
		</g>
		<g>
			<rect x="4.4" y="100.754" fill="#FFFFFF" width="198" height="39.6"/>
			<rect x="4.4" y="100.754" opacity="0.15" fill="#1B93EB" width="198" height="39.6"/>
		</g>
	</g>
	<line fill="none" stroke="#A3A3A3" stroke-width="0.75" stroke-miterlimit="10" x1="4.4" y1="100.754" x2="202.4" y2="100.754"/>
</g>
<g id="Text">
	<g>
		<rect x="40.974" y="19.654" fill="none" width="124.852" height="41.5"/>
		<path d="M47.928,29.314l-0.041-1.025c-0.146,0.178-0.296,0.339-0.451,0.485s-0.321,0.27-0.499,0.373s-0.368,0.182-0.571,0.239
			s-0.427,0.085-0.673,0.085c-0.41,0-0.775-0.082-1.094-0.246s-0.587-0.397-0.803-0.701s-0.382-0.671-0.496-1.104
			s-0.171-0.916-0.171-1.449c0-0.638,0.09-1.19,0.27-1.658s0.43-0.854,0.749-1.162s0.697-0.536,1.135-0.684s0.914-0.222,1.429-0.222
			c0.173,0,0.348,0.011,0.523,0.034s0.332,0.052,0.468,0.089v-2.714h1.668v9.659H47.928z M44.879,25.896
			c0,0.383,0.026,0.71,0.079,0.981s0.13,0.493,0.232,0.667s0.229,0.3,0.379,0.379s0.321,0.12,0.513,0.12
			c0.283,0,0.551-0.114,0.807-0.342s0.526-0.54,0.813-0.937v-3.035c-0.132-0.05-0.295-0.091-0.489-0.123s-0.389-0.048-0.584-0.048
			c-0.269,0-0.51,0.055-0.725,0.164s-0.397,0.264-0.55,0.465s-0.27,0.445-0.352,0.735S44.879,25.536,44.879,25.896z"/>
		<path d="M56.425,29.314v-4.73c0-0.173-0.004-0.325-0.014-0.455s-0.027-0.238-0.055-0.325s-0.067-0.151-0.12-0.195
			s-0.124-0.065-0.215-0.065c-0.141,0-0.28,0.096-0.417,0.287s-0.292,0.517-0.465,0.978v4.505h-1.429v-4.73
			c0-0.173-0.004-0.325-0.014-0.455s-0.027-0.238-0.055-0.325s-0.068-0.151-0.123-0.195s-0.127-0.065-0.219-0.065
			c-0.119,0-0.25,0.096-0.396,0.287s-0.308,0.517-0.485,0.978v4.505h-1.442v-6.945h1.237l0.027,1.012
			c0.1-0.205,0.201-0.38,0.301-0.526s0.208-0.266,0.321-0.359s0.236-0.161,0.366-0.202s0.277-0.062,0.441-0.062
			c0.387,0,0.683,0.102,0.885,0.304s0.318,0.484,0.345,0.844c0.109-0.205,0.218-0.38,0.325-0.526s0.219-0.266,0.335-0.359
			s0.242-0.161,0.376-0.202s0.284-0.062,0.448-0.062c0.506,0,0.879,0.177,1.121,0.53s0.362,0.876,0.362,1.569v4.983H56.425z"/>
		<path d="M58.649,32.116v-1.319h7.697v1.319H58.649z"/>
		<path d="M71.699,29.314l-0.041-1.025c-0.146,0.178-0.296,0.339-0.451,0.485s-0.321,0.27-0.499,0.373s-0.368,0.182-0.571,0.239
			s-0.427,0.085-0.673,0.085c-0.41,0-0.775-0.082-1.094-0.246s-0.587-0.397-0.803-0.701s-0.382-0.671-0.496-1.104
			S66.9,26.504,66.9,25.971c0-0.638,0.09-1.19,0.27-1.658s0.43-0.854,0.749-1.162s0.697-0.536,1.135-0.684s0.914-0.222,1.429-0.222
			c0.173,0,0.348,0.011,0.523,0.034s0.332,0.052,0.468,0.089v-2.714h1.668v9.659H71.699z M68.65,25.896
			c0,0.383,0.026,0.71,0.079,0.981s0.13,0.493,0.232,0.667s0.229,0.3,0.379,0.379s0.321,0.12,0.513,0.12
			c0.283,0,0.551-0.114,0.807-0.342s0.526-0.54,0.813-0.937v-3.035c-0.132-0.05-0.295-0.091-0.489-0.123s-0.389-0.048-0.584-0.048
			c-0.269,0-0.51,0.055-0.725,0.164s-0.397,0.264-0.55,0.465s-0.27,0.445-0.352,0.735S68.65,25.536,68.65,25.896z"/>
		<path d="M81.269,25.718c0,0.638-0.09,1.189-0.27,1.654s-0.431,0.851-0.752,1.159s-0.701,0.536-1.138,0.684
			s-0.914,0.222-1.429,0.222c-0.506,0-0.977-0.038-1.412-0.113s-0.851-0.177-1.248-0.304v-9.365h1.668v2.27l-0.068,1.367
			c0.25-0.324,0.543-0.583,0.878-0.779s0.737-0.294,1.207-0.294c0.41,0,0.775,0.082,1.094,0.246s0.587,0.397,0.803,0.701
			s0.382,0.67,0.496,1.101S81.269,25.18,81.269,25.718z M79.519,25.786c0-0.383-0.027-0.708-0.082-0.978s-0.133-0.49-0.236-0.663
			s-0.228-0.3-0.376-0.379s-0.318-0.12-0.509-0.12c-0.283,0-0.553,0.114-0.81,0.342s-0.53,0.538-0.817,0.93v3.035
			c0.132,0.05,0.295,0.091,0.489,0.123s0.391,0.048,0.591,0.048c0.264,0,0.505-0.055,0.721-0.164s0.401-0.264,0.554-0.465
			s0.27-0.445,0.352-0.735S79.519,26.146,79.519,25.786z"/>
		<path d="M81.697,32.116v-1.319h7.697v1.319H81.697z"/>
		<path d="M95.385,29.245c-0.301,0.068-0.604,0.123-0.909,0.164s-0.595,0.062-0.868,0.062c-0.456,0-0.849-0.048-1.179-0.144
			s-0.604-0.242-0.82-0.438s-0.376-0.445-0.479-0.749s-0.154-0.664-0.154-1.083v-3.391H89.11v-1.299h1.866v-1.777l1.709-0.444v2.222
			h2.7v1.299h-2.7v3.268c0,0.396,0.091,0.696,0.273,0.899s0.488,0.304,0.916,0.304c0.273,0,0.54-0.023,0.8-0.068
			s0.497-0.098,0.711-0.157V29.245z"/>
		<path d="M101.448,29.314l-0.041-0.909c-0.146,0.155-0.298,0.297-0.458,0.427s-0.335,0.243-0.526,0.338s-0.4,0.17-0.625,0.222
			s-0.473,0.079-0.742,0.079c-0.355,0-0.667-0.052-0.937-0.157s-0.495-0.25-0.677-0.438s-0.32-0.413-0.414-0.677
			s-0.14-0.556-0.14-0.875c0-0.328,0.069-0.631,0.208-0.909s0.351-0.517,0.636-0.718s0.64-0.358,1.066-0.472s0.926-0.171,1.5-0.171
			h0.909v-0.417c0-0.178-0.025-0.338-0.075-0.482s-0.131-0.266-0.243-0.366s-0.256-0.178-0.434-0.232s-0.396-0.082-0.656-0.082
			c-0.41,0-0.814,0.047-1.213,0.14s-0.785,0.225-1.159,0.393v-1.333c0.333-0.132,0.717-0.242,1.152-0.328s0.888-0.13,1.357-0.13
			c0.515,0,0.957,0.049,1.326,0.147s0.673,0.245,0.913,0.441s0.416,0.441,0.53,0.735s0.171,0.637,0.171,1.029v4.744H101.448z
			 M101.209,26.244h-1.019c-0.283,0-0.522,0.027-0.718,0.082s-0.355,0.13-0.479,0.226s-0.213,0.206-0.27,0.332
			s-0.085,0.259-0.085,0.4c0,0.283,0.091,0.498,0.273,0.646s0.431,0.222,0.745,0.222c0.232,0,0.474-0.084,0.725-0.253
			s0.526-0.41,0.827-0.725V26.244z"/>
		<path d="M110.335,27.27c0,0.396-0.088,0.735-0.263,1.015s-0.408,0.508-0.697,0.684s-0.618,0.303-0.984,0.383
			s-0.742,0.12-1.125,0.12c-0.51,0-0.971-0.024-1.381-0.072s-0.797-0.117-1.162-0.208v-1.504c0.428,0.178,0.855,0.307,1.282,0.386
			s0.828,0.12,1.207,0.12c0.438,0,0.765-0.069,0.981-0.208s0.325-0.32,0.325-0.543c0-0.105-0.023-0.201-0.068-0.287
			s-0.131-0.17-0.256-0.25s-0.302-0.162-0.53-0.246s-0.526-0.179-0.896-0.284c-0.342-0.096-0.642-0.204-0.899-0.325
			s-0.471-0.263-0.639-0.427s-0.295-0.354-0.379-0.571s-0.126-0.471-0.126-0.762c0-0.283,0.064-0.549,0.191-0.8
			s0.318-0.471,0.571-0.66s0.568-0.338,0.947-0.448s0.82-0.164,1.326-0.164c0.438,0,0.825,0.023,1.162,0.068s0.636,0.096,0.896,0.15
			v1.36c-0.396-0.127-0.769-0.218-1.118-0.27s-0.694-0.079-1.036-0.079s-0.616,0.062-0.824,0.185s-0.311,0.294-0.311,0.513
			c0,0.105,0.021,0.198,0.062,0.28s0.122,0.162,0.243,0.239s0.29,0.158,0.506,0.243s0.502,0.177,0.858,0.277
			c0.401,0.114,0.738,0.236,1.012,0.366s0.493,0.277,0.66,0.441s0.286,0.351,0.359,0.561S110.335,27.001,110.335,27.27z"/>
		<path d="M116.299,29.314l-2.563-3.473v3.473h-1.668v-9.659h1.668v5.653l2.427-2.939h2.085l-2.816,3.165l3.049,3.78H116.299z"/>
		<path d="M118.979,32.116v-1.319h7.697v1.319H118.979z"/>
		<path d="M133.403,27.27c0,0.396-0.088,0.735-0.263,1.015c-0.176,0.28-0.408,0.508-0.697,0.684
			c-0.29,0.175-0.618,0.303-0.984,0.383c-0.367,0.08-0.742,0.12-1.125,0.12c-0.51,0-0.971-0.024-1.381-0.072
			s-0.797-0.117-1.162-0.208v-1.504c0.429,0.178,0.855,0.307,1.282,0.386c0.426,0.08,0.828,0.12,1.206,0.12
			c0.438,0,0.765-0.069,0.981-0.208c0.216-0.139,0.324-0.32,0.324-0.543c0-0.105-0.022-0.201-0.068-0.287
			c-0.045-0.086-0.131-0.17-0.256-0.25c-0.126-0.08-0.302-0.162-0.53-0.246c-0.228-0.084-0.526-0.179-0.896-0.284
			c-0.342-0.096-0.642-0.204-0.898-0.325c-0.258-0.121-0.471-0.263-0.64-0.427c-0.168-0.164-0.295-0.354-0.379-0.571
			c-0.085-0.216-0.127-0.471-0.127-0.762c0-0.283,0.064-0.549,0.191-0.8c0.128-0.25,0.318-0.471,0.571-0.66s0.568-0.338,0.946-0.448
			c0.379-0.109,0.82-0.164,1.326-0.164c0.438,0,0.825,0.023,1.162,0.068c0.338,0.045,0.636,0.096,0.896,0.15v1.36
			c-0.396-0.127-0.769-0.218-1.117-0.27s-0.694-0.079-1.036-0.079s-0.616,0.062-0.823,0.185c-0.208,0.123-0.312,0.294-0.312,0.513
			c0,0.105,0.021,0.198,0.062,0.28s0.122,0.162,0.243,0.239c0.12,0.078,0.289,0.158,0.506,0.243
			c0.216,0.084,0.502,0.177,0.857,0.277c0.401,0.114,0.738,0.236,1.012,0.366s0.493,0.277,0.66,0.441
			c0.166,0.164,0.286,0.351,0.358,0.561C133.367,26.761,133.403,27.001,133.403,27.27z"/>
		<path d="M141.351,25.718c0,0.638-0.09,1.189-0.271,1.654c-0.18,0.465-0.431,0.851-0.752,1.159s-0.7,0.536-1.138,0.684
			s-0.914,0.222-1.429,0.222c-0.174,0-0.347-0.011-0.52-0.034c-0.174-0.023-0.331-0.052-0.472-0.089v2.714h-1.668v-9.659h1.442
			l0.041,1.025c0.141-0.178,0.288-0.339,0.44-0.485c0.153-0.146,0.318-0.27,0.496-0.373s0.369-0.181,0.574-0.236
			s0.435-0.082,0.69-0.082c0.41,0,0.774,0.082,1.094,0.246c0.318,0.164,0.587,0.397,0.803,0.701c0.217,0.303,0.382,0.67,0.496,1.101
			C141.294,24.696,141.351,25.18,141.351,25.718z M139.601,25.786c0-0.383-0.027-0.708-0.082-0.978s-0.134-0.49-0.236-0.663
			s-0.228-0.3-0.376-0.379c-0.147-0.08-0.317-0.12-0.509-0.12c-0.283,0-0.553,0.114-0.811,0.342
			c-0.257,0.228-0.529,0.538-0.816,0.93v3.035c0.132,0.05,0.295,0.091,0.488,0.123c0.194,0.032,0.391,0.048,0.592,0.048
			c0.264,0,0.505-0.055,0.721-0.164c0.217-0.109,0.401-0.264,0.554-0.465c0.153-0.201,0.271-0.445,0.353-0.735
			S139.601,26.146,139.601,25.786z"/>
		<path d="M147.106,29.314l-0.041-0.909c-0.146,0.155-0.299,0.297-0.458,0.427c-0.16,0.13-0.335,0.243-0.526,0.338
			s-0.4,0.17-0.626,0.222s-0.473,0.079-0.741,0.079c-0.355,0-0.668-0.052-0.937-0.157c-0.27-0.105-0.495-0.25-0.677-0.438
			c-0.183-0.187-0.32-0.413-0.414-0.677c-0.093-0.264-0.14-0.556-0.14-0.875c0-0.328,0.069-0.631,0.208-0.909
			c0.14-0.278,0.352-0.517,0.636-0.718c0.285-0.201,0.641-0.358,1.066-0.472c0.427-0.114,0.927-0.171,1.501-0.171h0.909v-0.417
			c0-0.178-0.025-0.338-0.075-0.482c-0.051-0.144-0.131-0.266-0.243-0.366c-0.111-0.1-0.256-0.178-0.434-0.232
			s-0.396-0.082-0.656-0.082c-0.41,0-0.814,0.047-1.214,0.14c-0.398,0.093-0.785,0.225-1.158,0.393v-1.333
			c0.332-0.132,0.717-0.242,1.151-0.328c0.436-0.086,0.888-0.13,1.357-0.13c0.515,0,0.957,0.049,1.326,0.147
			s0.673,0.245,0.912,0.441s0.416,0.441,0.53,0.735c0.113,0.294,0.171,0.637,0.171,1.029v4.744H147.106z M146.867,26.244h-1.019
			c-0.283,0-0.522,0.027-0.718,0.082c-0.196,0.055-0.355,0.13-0.479,0.226s-0.213,0.206-0.271,0.332
			c-0.057,0.125-0.085,0.259-0.085,0.4c0,0.283,0.091,0.498,0.273,0.646c0.182,0.148,0.431,0.222,0.745,0.222
			c0.232,0,0.474-0.084,0.725-0.253c0.25-0.168,0.526-0.41,0.827-0.725V26.244z"/>
		<path d="M155.865,29.047c-0.328,0.132-0.668,0.23-1.019,0.294c-0.352,0.064-0.718,0.096-1.101,0.096
			c-0.552,0-1.046-0.075-1.483-0.226s-0.81-0.374-1.114-0.67c-0.306-0.296-0.539-0.663-0.701-1.101
			c-0.161-0.438-0.242-0.943-0.242-1.518c0-0.556,0.088-1.06,0.263-1.511c0.176-0.451,0.423-0.836,0.742-1.155
			c0.318-0.319,0.703-0.565,1.151-0.738c0.449-0.173,0.949-0.26,1.501-0.26c0.451,0,0.83,0.024,1.138,0.072s0.585,0.108,0.831,0.181
			v1.62c-0.283-0.141-0.589-0.25-0.92-0.328c-0.33-0.078-0.644-0.116-0.939-0.116c-0.311,0-0.588,0.052-0.834,0.157
			s-0.454,0.25-0.622,0.438c-0.169,0.187-0.298,0.414-0.387,0.68s-0.133,0.56-0.133,0.878c0,0.333,0.048,0.631,0.144,0.896
			s0.231,0.489,0.406,0.673c0.176,0.185,0.387,0.326,0.633,0.424s0.52,0.147,0.82,0.147c0.146,0,0.3-0.01,0.461-0.031
			c0.162-0.021,0.324-0.05,0.485-0.089c0.162-0.039,0.321-0.083,0.479-0.133s0.305-0.105,0.441-0.164V29.047z"/>
		<path d="M163.616,25.308c0,0.114-0.003,0.262-0.01,0.444s-0.018,0.353-0.031,0.513h-4.566c0,0.305,0.047,0.574,0.141,0.807
			c0.093,0.232,0.226,0.427,0.396,0.584s0.376,0.277,0.615,0.359s0.505,0.123,0.796,0.123c0.338,0,0.698-0.026,1.084-0.079
			c0.385-0.052,0.785-0.138,1.199-0.256v1.326c-0.178,0.05-0.371,0.096-0.581,0.137c-0.209,0.041-0.424,0.078-0.643,0.109
			s-0.439,0.056-0.663,0.072c-0.223,0.016-0.439,0.024-0.649,0.024c-0.528,0-1.002-0.075-1.422-0.226
			c-0.419-0.15-0.774-0.373-1.066-0.667c-0.291-0.294-0.515-0.657-0.67-1.09c-0.154-0.433-0.232-0.934-0.232-1.504
			c0-0.565,0.078-1.079,0.232-1.542c0.155-0.462,0.374-0.859,0.656-1.189c0.283-0.331,0.626-0.585,1.029-0.766s0.854-0.27,1.35-0.27
			c0.492,0,0.928,0.076,1.306,0.229c0.379,0.153,0.695,0.366,0.95,0.639c0.256,0.273,0.449,0.599,0.581,0.978
			C163.55,24.442,163.616,24.857,163.616,25.308z M161.921,25.069c0.005-0.273-0.029-0.512-0.103-0.714
			c-0.072-0.203-0.172-0.37-0.297-0.502c-0.126-0.132-0.271-0.23-0.438-0.294c-0.167-0.064-0.346-0.096-0.537-0.096
			c-0.419,0-0.763,0.14-1.032,0.42c-0.269,0.28-0.428,0.676-0.479,1.186H161.921z"/>
		<path d="M80.681,48.917v-1.319h7.697v1.319H80.681z"/>
		<path d="M90.955,39.169v4.525c0,0.378,0.071,0.664,0.212,0.858s0.355,0.291,0.643,0.291c0.278,0,0.546-0.115,0.803-0.345
			s0.53-0.541,0.817-0.933v-4.396h1.668v6.945h-1.442l-0.041-1.025c-0.146,0.178-0.294,0.339-0.444,0.485s-0.313,0.27-0.489,0.373
			s-0.367,0.182-0.574,0.239s-0.437,0.085-0.687,0.085c-0.355,0-0.667-0.058-0.933-0.174s-0.489-0.281-0.667-0.496
			s-0.311-0.471-0.4-0.769s-0.133-0.632-0.133-1.001v-4.662H90.955z"/>
		<path d="M102.566,44.07c0,0.396-0.088,0.735-0.263,1.015s-0.408,0.508-0.697,0.684s-0.618,0.303-0.984,0.383
			s-0.742,0.12-1.125,0.12c-0.51,0-0.971-0.024-1.381-0.072s-0.797-0.117-1.162-0.208v-1.504c0.428,0.178,0.855,0.307,1.282,0.386
			s0.828,0.12,1.207,0.12c0.438,0,0.765-0.069,0.981-0.208s0.325-0.32,0.325-0.543c0-0.105-0.023-0.201-0.068-0.287
			s-0.131-0.17-0.256-0.25s-0.302-0.162-0.53-0.246s-0.526-0.179-0.896-0.284c-0.342-0.096-0.642-0.204-0.899-0.325
			s-0.471-0.263-0.639-0.427s-0.295-0.354-0.379-0.571s-0.126-0.471-0.126-0.762c0-0.283,0.064-0.549,0.191-0.8
			s0.318-0.471,0.571-0.66s0.568-0.338,0.947-0.448s0.82-0.164,1.326-0.164c0.438,0,0.825,0.023,1.162,0.068s0.636,0.096,0.896,0.15
			v1.36c-0.396-0.127-0.769-0.218-1.118-0.27s-0.694-0.079-1.036-0.079s-0.616,0.062-0.824,0.185s-0.311,0.294-0.311,0.513
			c0,0.105,0.021,0.198,0.062,0.28s0.122,0.162,0.243,0.239s0.29,0.158,0.506,0.243s0.502,0.177,0.858,0.277
			c0.401,0.114,0.738,0.236,1.012,0.366s0.493,0.277,0.66,0.441s0.286,0.351,0.359,0.561S102.566,43.801,102.566,44.07z"/>
		<path d="M108.635,46.114l-0.041-0.909c-0.146,0.155-0.298,0.297-0.458,0.427s-0.335,0.243-0.526,0.338s-0.4,0.17-0.625,0.222
			s-0.473,0.079-0.742,0.079c-0.355,0-0.667-0.052-0.937-0.157s-0.495-0.25-0.677-0.438s-0.32-0.413-0.414-0.677
			s-0.14-0.556-0.14-0.875c0-0.328,0.069-0.631,0.208-0.909s0.351-0.517,0.636-0.718s0.64-0.358,1.066-0.472s0.926-0.171,1.5-0.171
			h0.909v-0.417c0-0.178-0.025-0.338-0.075-0.482s-0.131-0.266-0.243-0.366s-0.256-0.178-0.434-0.232s-0.396-0.082-0.656-0.082
			c-0.41,0-0.814,0.047-1.213,0.14s-0.785,0.225-1.159,0.393v-1.333c0.333-0.132,0.717-0.242,1.152-0.328s0.888-0.13,1.357-0.13
			c0.515,0,0.957,0.049,1.326,0.147s0.673,0.245,0.913,0.441s0.416,0.441,0.53,0.735s0.171,0.637,0.171,1.029v4.744H108.635z
			 M108.396,43.045h-1.019c-0.283,0-0.522,0.027-0.718,0.082s-0.355,0.13-0.479,0.226s-0.213,0.206-0.27,0.332
			s-0.085,0.259-0.085,0.4c0,0.283,0.091,0.498,0.273,0.646s0.431,0.222,0.745,0.222c0.232,0,0.474-0.084,0.725-0.253
			s0.526-0.41,0.827-0.725V43.045z"/>
		<path d="M117.067,40.385c0.127,0.16,0.218,0.327,0.27,0.502c0.053,0.175,0.079,0.354,0.079,0.537c0,0.387-0.067,0.729-0.202,1.025
			c-0.134,0.296-0.323,0.544-0.567,0.745c-0.243,0.201-0.535,0.352-0.875,0.455c-0.339,0.103-0.714,0.154-1.124,0.154
			c-0.242,0-0.465-0.024-0.67-0.072s-0.36-0.104-0.465-0.167c-0.078,0.078-0.144,0.163-0.198,0.256s-0.082,0.199-0.082,0.318
			c0,0.073,0.018,0.146,0.055,0.219c0.036,0.073,0.09,0.138,0.16,0.195c0.071,0.057,0.155,0.104,0.253,0.14
			c0.099,0.037,0.209,0.057,0.332,0.062l1.647,0.062c0.369,0.009,0.703,0.056,1.001,0.14c0.299,0.084,0.555,0.204,0.77,0.359
			c0.214,0.155,0.379,0.343,0.495,0.564s0.175,0.473,0.175,0.755c0,0.324-0.073,0.629-0.219,0.916
			c-0.146,0.287-0.366,0.537-0.66,0.749s-0.659,0.379-1.097,0.502s-0.946,0.185-1.524,0.185c-0.561,0-1.043-0.044-1.446-0.133
			s-0.734-0.213-0.991-0.373s-0.448-0.35-0.571-0.571s-0.185-0.464-0.185-0.728c0-0.16,0.021-0.308,0.062-0.444
			s0.103-0.268,0.185-0.393s0.185-0.247,0.308-0.366s0.269-0.237,0.438-0.355c-0.223-0.127-0.393-0.292-0.509-0.492
			s-0.174-0.415-0.174-0.643c0-0.155,0.021-0.3,0.062-0.434s0.095-0.263,0.161-0.386s0.143-0.242,0.229-0.355
			s0.178-0.226,0.273-0.335c-0.168-0.168-0.309-0.373-0.42-0.612s-0.167-0.539-0.167-0.899c0-0.387,0.069-0.732,0.208-1.036
			s0.332-0.558,0.578-0.766c0.247-0.208,0.54-0.365,0.878-0.472c0.34-0.107,0.71-0.161,1.111-0.161c0.205,0,0.402,0.01,0.591,0.031
			c0.189,0.021,0.361,0.056,0.517,0.106h2.406v1.217H117.067z M113.136,47.037c0,0.269,0.136,0.467,0.406,0.595
			c0.271,0.127,0.653,0.191,1.146,0.191c0.314,0,0.58-0.03,0.796-0.089c0.217-0.059,0.394-0.137,0.53-0.232s0.234-0.208,0.294-0.335
			c0.059-0.127,0.089-0.26,0.089-0.396c0-0.123-0.028-0.227-0.086-0.311c-0.057-0.084-0.137-0.155-0.239-0.212
			s-0.223-0.1-0.362-0.13c-0.139-0.03-0.293-0.049-0.461-0.058l-1.47-0.027c-0.133,0.091-0.24,0.178-0.325,0.26
			c-0.084,0.082-0.15,0.163-0.198,0.243s-0.079,0.161-0.096,0.243C113.144,46.859,113.136,46.946,113.136,47.037z M113.417,41.466
			c0,0.369,0.108,0.662,0.324,0.878c0.217,0.216,0.519,0.325,0.906,0.325c0.205,0,0.384-0.034,0.536-0.103
			c0.153-0.068,0.279-0.16,0.38-0.273c0.1-0.114,0.175-0.246,0.226-0.396c0.05-0.15,0.075-0.308,0.075-0.472
			c0-0.387-0.108-0.689-0.325-0.906c-0.216-0.216-0.519-0.325-0.905-0.325c-0.205,0-0.384,0.034-0.537,0.103
			c-0.152,0.068-0.279,0.161-0.379,0.277c-0.101,0.116-0.176,0.252-0.226,0.407C113.441,41.135,113.417,41.297,113.417,41.466z"/>
		<path d="M125.421,42.108c0,0.114-0.003,0.262-0.01,0.444s-0.018,0.353-0.031,0.513h-4.566c0,0.305,0.047,0.574,0.141,0.807
			c0.093,0.232,0.226,0.427,0.396,0.584s0.376,0.277,0.615,0.359s0.505,0.123,0.796,0.123c0.338,0,0.698-0.026,1.084-0.079
			c0.385-0.052,0.785-0.138,1.199-0.256v1.326c-0.178,0.05-0.371,0.096-0.581,0.137c-0.209,0.041-0.424,0.078-0.643,0.109
			s-0.439,0.056-0.663,0.072c-0.223,0.016-0.439,0.024-0.649,0.024c-0.528,0-1.002-0.075-1.422-0.226
			c-0.419-0.15-0.774-0.373-1.066-0.667c-0.291-0.294-0.515-0.657-0.67-1.09c-0.154-0.433-0.232-0.934-0.232-1.504
			c0-0.565,0.078-1.079,0.232-1.542c0.155-0.462,0.374-0.859,0.656-1.189c0.283-0.331,0.626-0.585,1.029-0.766s0.854-0.27,1.35-0.27
			c0.492,0,0.928,0.076,1.306,0.229c0.379,0.153,0.695,0.366,0.95,0.639c0.256,0.273,0.449,0.599,0.581,0.978
			C125.356,41.242,125.421,41.657,125.421,42.108z M123.726,41.869c0.005-0.273-0.029-0.512-0.103-0.714
			c-0.072-0.203-0.172-0.37-0.297-0.502c-0.126-0.132-0.271-0.23-0.438-0.294c-0.167-0.064-0.346-0.096-0.537-0.096
			c-0.419,0-0.763,0.14-1.032,0.42c-0.269,0.28-0.428,0.676-0.479,1.186H123.726z"/>
	</g>
	<g>
		<rect x="312.4" y="29.679" fill="none" width="189.2" height="20.75"/>
		<path d="M351.3,39.339l-0.041-1.025c-0.146,0.178-0.296,0.339-0.451,0.485c-0.154,0.146-0.321,0.27-0.499,0.373
			s-0.368,0.182-0.57,0.239c-0.203,0.057-0.428,0.085-0.674,0.085c-0.41,0-0.774-0.082-1.094-0.246
			c-0.318-0.164-0.587-0.397-0.803-0.701c-0.217-0.303-0.382-0.671-0.496-1.104c-0.113-0.433-0.171-0.916-0.171-1.449
			c0-0.638,0.09-1.19,0.271-1.658c0.18-0.467,0.43-0.854,0.748-1.162c0.319-0.308,0.697-0.536,1.135-0.684s0.914-0.222,1.429-0.222
			c0.174,0,0.348,0.011,0.523,0.034c0.175,0.023,0.331,0.052,0.468,0.089v-2.714h1.668v9.659H351.3z M348.252,35.921
			c0,0.383,0.026,0.71,0.079,0.981c0.052,0.271,0.13,0.493,0.232,0.667s0.229,0.3,0.379,0.379s0.321,0.12,0.513,0.12
			c0.283,0,0.552-0.114,0.807-0.342c0.256-0.228,0.526-0.54,0.813-0.937v-3.035c-0.132-0.05-0.295-0.091-0.488-0.123
			c-0.194-0.032-0.389-0.048-0.585-0.048c-0.269,0-0.51,0.055-0.725,0.164c-0.214,0.109-0.397,0.264-0.55,0.465
			c-0.153,0.201-0.271,0.445-0.353,0.735S348.252,35.561,348.252,35.921z"/>
		<path d="M359.797,39.339v-4.73c0-0.173-0.005-0.325-0.014-0.455c-0.01-0.13-0.027-0.238-0.055-0.325s-0.067-0.151-0.12-0.195
			c-0.052-0.043-0.124-0.065-0.215-0.065c-0.142,0-0.28,0.096-0.417,0.287s-0.292,0.517-0.465,0.978v4.505h-1.429v-4.73
			c0-0.173-0.005-0.325-0.014-0.455c-0.01-0.13-0.027-0.238-0.055-0.325s-0.068-0.151-0.123-0.195s-0.128-0.065-0.219-0.065
			c-0.119,0-0.251,0.096-0.396,0.287c-0.146,0.191-0.308,0.517-0.485,0.978v4.505h-1.442v-6.945h1.237l0.027,1.012
			c0.1-0.205,0.2-0.38,0.301-0.526c0.1-0.146,0.207-0.266,0.321-0.359c0.113-0.093,0.235-0.161,0.365-0.202s0.277-0.062,0.441-0.062
			c0.387,0,0.683,0.102,0.885,0.304c0.203,0.203,0.318,0.484,0.346,0.844c0.109-0.205,0.218-0.38,0.324-0.526
			c0.107-0.146,0.219-0.266,0.335-0.359s0.242-0.161,0.376-0.202c0.135-0.041,0.284-0.062,0.448-0.062
			c0.506,0,0.879,0.177,1.121,0.53c0.241,0.353,0.362,0.876,0.362,1.569v4.983H359.797z"/>
		<path d="M362.021,42.141v-1.319h7.697v1.319H362.021z"/>
		<path d="M376.59,35.333c0,0.114-0.003,0.262-0.01,0.444s-0.018,0.353-0.031,0.513h-4.566c0,0.305,0.047,0.574,0.141,0.807
			c0.093,0.232,0.226,0.427,0.396,0.584s0.376,0.277,0.615,0.359s0.505,0.123,0.796,0.123c0.338,0,0.698-0.026,1.084-0.079
			c0.385-0.052,0.785-0.138,1.199-0.256v1.326c-0.178,0.05-0.371,0.096-0.581,0.137c-0.209,0.041-0.424,0.078-0.643,0.109
			s-0.439,0.056-0.663,0.072c-0.223,0.016-0.439,0.024-0.649,0.024c-0.528,0-1.002-0.075-1.422-0.226
			c-0.419-0.15-0.774-0.373-1.066-0.667c-0.291-0.294-0.515-0.657-0.67-1.09c-0.154-0.433-0.232-0.934-0.232-1.504
			c0-0.565,0.078-1.079,0.232-1.542c0.155-0.462,0.374-0.859,0.656-1.189c0.283-0.331,0.626-0.585,1.029-0.766s0.854-0.27,1.35-0.27
			c0.492,0,0.928,0.076,1.306,0.229c0.379,0.153,0.695,0.366,0.95,0.639c0.256,0.273,0.449,0.599,0.581,0.978
			C376.525,34.467,376.59,34.882,376.59,35.333z M374.895,35.093c0.005-0.273-0.029-0.512-0.103-0.714
			c-0.072-0.203-0.172-0.37-0.297-0.502c-0.126-0.132-0.271-0.23-0.438-0.294c-0.167-0.064-0.346-0.096-0.537-0.096
			c-0.419,0-0.763,0.14-1.032,0.42c-0.269,0.28-0.428,0.676-0.479,1.186H374.895z"/>
		<path d="M382.688,39.339l-1.586-2.338l-1.593,2.338h-2.017l2.604-3.5l-2.468-3.445h2.03l1.559,2.283l1.538-2.283h1.873
			l-2.393,3.432l2.522,3.514H382.688z"/>
		<path d="M391.643,35.333c0,0.114-0.003,0.262-0.01,0.444s-0.018,0.353-0.031,0.513h-4.566c0,0.305,0.047,0.574,0.141,0.807
			c0.093,0.232,0.226,0.427,0.396,0.584s0.376,0.277,0.615,0.359s0.505,0.123,0.796,0.123c0.338,0,0.698-0.026,1.084-0.079
			c0.385-0.052,0.785-0.138,1.199-0.256v1.326c-0.178,0.05-0.371,0.096-0.581,0.137c-0.209,0.041-0.424,0.078-0.643,0.109
			s-0.439,0.056-0.663,0.072c-0.223,0.016-0.439,0.024-0.649,0.024c-0.528,0-1.002-0.075-1.422-0.226
			c-0.419-0.15-0.774-0.373-1.066-0.667c-0.291-0.294-0.515-0.657-0.67-1.09c-0.154-0.433-0.232-0.934-0.232-1.504
			c0-0.565,0.078-1.079,0.232-1.542c0.155-0.462,0.374-0.859,0.656-1.189c0.283-0.331,0.626-0.585,1.029-0.766s0.854-0.27,1.35-0.27
			c0.492,0,0.928,0.076,1.306,0.229c0.379,0.153,0.695,0.366,0.95,0.639c0.256,0.273,0.449,0.599,0.581,0.978
			C391.578,34.467,391.643,34.882,391.643,35.333z M389.948,35.093c0.005-0.273-0.029-0.512-0.103-0.714
			c-0.072-0.203-0.172-0.37-0.297-0.502c-0.126-0.132-0.271-0.23-0.438-0.294c-0.167-0.064-0.346-0.096-0.537-0.096
			c-0.419,0-0.763,0.14-1.032,0.42c-0.269,0.28-0.428,0.676-0.479,1.186H389.948z"/>
		<path d="M398.734,39.072c-0.328,0.132-0.668,0.23-1.019,0.294c-0.352,0.064-0.718,0.096-1.101,0.096
			c-0.552,0-1.046-0.075-1.483-0.226s-0.81-0.374-1.114-0.67c-0.306-0.296-0.539-0.663-0.701-1.101
			c-0.161-0.438-0.242-0.943-0.242-1.518c0-0.556,0.088-1.06,0.263-1.511c0.176-0.451,0.423-0.836,0.742-1.155
			c0.318-0.319,0.703-0.565,1.151-0.738c0.449-0.173,0.949-0.26,1.501-0.26c0.451,0,0.83,0.024,1.138,0.072s0.585,0.108,0.831,0.181
			v1.62c-0.283-0.141-0.589-0.25-0.92-0.328c-0.33-0.078-0.644-0.116-0.939-0.116c-0.311,0-0.588,0.052-0.834,0.157
			s-0.454,0.25-0.622,0.438c-0.169,0.187-0.298,0.414-0.387,0.68s-0.133,0.56-0.133,0.878c0,0.333,0.048,0.631,0.144,0.896
			s0.231,0.489,0.406,0.673c0.176,0.185,0.387,0.326,0.633,0.424s0.52,0.147,0.82,0.147c0.146,0,0.3-0.01,0.461-0.031
			c0.162-0.021,0.324-0.05,0.485-0.089c0.162-0.039,0.321-0.083,0.479-0.133s0.305-0.105,0.441-0.164V39.072z"/>
		<path d="M399.855,42.141v-1.319h7.697v1.319H399.855z"/>
		<path d="M412.944,35.093c0.009-0.26-0.004-0.481-0.038-0.663s-0.089-0.333-0.164-0.451s-0.167-0.205-0.276-0.26
			s-0.235-0.082-0.376-0.082c-0.246,0-0.5,0.102-0.763,0.304c-0.262,0.203-0.55,0.537-0.864,1.001v4.396h-1.709v-6.945h1.511
			l0.062,1.012c0.113-0.178,0.242-0.337,0.386-0.479s0.304-0.263,0.479-0.366c0.176-0.103,0.37-0.181,0.585-0.236
			c0.214-0.055,0.448-0.082,0.704-0.082c0.351,0,0.662,0.061,0.933,0.181c0.271,0.121,0.499,0.3,0.684,0.537s0.321,0.534,0.41,0.892
			s0.127,0.771,0.113,1.241H412.944z"/>
		<path d="M422.171,35.333c0,0.114-0.003,0.262-0.01,0.444s-0.018,0.353-0.031,0.513h-4.566c0,0.305,0.047,0.574,0.141,0.807
			c0.093,0.232,0.226,0.427,0.396,0.584s0.376,0.277,0.615,0.359s0.505,0.123,0.796,0.123c0.338,0,0.698-0.026,1.084-0.079
			c0.385-0.052,0.785-0.138,1.199-0.256v1.326c-0.178,0.05-0.371,0.096-0.581,0.137c-0.209,0.041-0.424,0.078-0.643,0.109
			s-0.439,0.056-0.663,0.072c-0.223,0.016-0.439,0.024-0.649,0.024c-0.528,0-1.002-0.075-1.422-0.226
			c-0.419-0.15-0.774-0.373-1.066-0.667c-0.291-0.294-0.515-0.657-0.67-1.09c-0.154-0.433-0.232-0.934-0.232-1.504
			c0-0.565,0.078-1.079,0.232-1.542c0.155-0.462,0.374-0.859,0.656-1.189c0.283-0.331,0.626-0.585,1.029-0.766s0.854-0.27,1.35-0.27
			c0.492,0,0.928,0.076,1.306,0.229c0.379,0.153,0.695,0.366,0.95,0.639c0.256,0.273,0.449,0.599,0.581,0.978
			C422.105,34.467,422.171,34.882,422.171,35.333z M420.475,35.093c0.005-0.273-0.029-0.512-0.103-0.714
			c-0.072-0.203-0.172-0.37-0.297-0.502c-0.126-0.132-0.271-0.23-0.438-0.294c-0.167-0.064-0.346-0.096-0.537-0.096
			c-0.419,0-0.763,0.14-1.032,0.42c-0.269,0.28-0.428,0.676-0.479,1.186H420.475z"/>
		<path d="M427.975,42.052v-2.283l0.075-1.354c-0.128,0.16-0.264,0.305-0.407,0.438s-0.301,0.246-0.472,0.342
			s-0.356,0.17-0.557,0.222c-0.201,0.052-0.417,0.079-0.649,0.079c-0.41,0-0.775-0.082-1.094-0.246
			c-0.319-0.164-0.587-0.397-0.804-0.701c-0.216-0.303-0.382-0.671-0.495-1.104c-0.114-0.433-0.171-0.916-0.171-1.449
			c0-0.551,0.075-1.056,0.226-1.514s0.375-0.851,0.673-1.179c0.299-0.328,0.671-0.582,1.118-0.762c0.446-0.18,0.968-0.27,1.565-0.27
			c0.113,0,0.239,0.007,0.376,0.021s0.273,0.031,0.41,0.051s0.268,0.045,0.393,0.075c0.126,0.03,0.236,0.061,0.332,0.092
			l1.148-0.253v9.796H427.975z M425.152,35.921c0,0.383,0.026,0.71,0.078,0.981c0.053,0.271,0.13,0.493,0.232,0.667
			s0.229,0.3,0.38,0.379s0.321,0.12,0.513,0.12c0.282,0,0.551-0.114,0.807-0.342c0.255-0.228,0.526-0.54,0.813-0.937v-3.035
			c-0.133-0.05-0.295-0.091-0.489-0.123c-0.193-0.032-0.389-0.048-0.584-0.048c-0.27,0-0.511,0.055-0.725,0.164
			c-0.215,0.109-0.397,0.264-0.551,0.465c-0.152,0.201-0.27,0.445-0.352,0.735S425.152,35.561,425.152,35.921z"/>
		<path d="M433.172,32.393v4.525c0,0.378,0.071,0.664,0.212,0.858c0.142,0.194,0.355,0.291,0.643,0.291
			c0.278,0,0.546-0.115,0.804-0.345c0.257-0.23,0.529-0.541,0.816-0.933v-4.396h1.668v6.945h-1.442l-0.041-1.025
			c-0.146,0.178-0.294,0.339-0.444,0.485s-0.313,0.27-0.488,0.373c-0.176,0.103-0.367,0.182-0.574,0.239
			c-0.208,0.057-0.437,0.085-0.688,0.085c-0.355,0-0.666-0.058-0.933-0.174s-0.489-0.281-0.667-0.496s-0.311-0.471-0.399-0.769
			s-0.134-0.632-0.134-1.001v-4.662H433.172z"/>
		<path d="M445.219,35.333c0,0.114-0.004,0.262-0.011,0.444s-0.017,0.353-0.03,0.513h-4.566c0,0.305,0.047,0.574,0.14,0.807
			c0.094,0.232,0.226,0.427,0.396,0.584s0.376,0.277,0.615,0.359s0.505,0.123,0.797,0.123c0.337,0,0.698-0.026,1.083-0.079
			c0.386-0.052,0.785-0.138,1.2-0.256v1.326c-0.178,0.05-0.372,0.096-0.581,0.137c-0.21,0.041-0.424,0.078-0.643,0.109
			s-0.44,0.056-0.663,0.072c-0.224,0.016-0.44,0.024-0.649,0.024c-0.529,0-1.003-0.075-1.422-0.226
			c-0.42-0.15-0.775-0.373-1.066-0.667c-0.292-0.294-0.516-0.657-0.67-1.09c-0.155-0.433-0.232-0.934-0.232-1.504
			c0-0.565,0.077-1.079,0.232-1.542c0.154-0.462,0.373-0.859,0.656-1.189c0.282-0.331,0.625-0.585,1.028-0.766
			s0.854-0.27,1.351-0.27c0.492,0,0.927,0.076,1.306,0.229c0.378,0.153,0.694,0.366,0.95,0.639c0.255,0.273,0.448,0.599,0.581,0.978
			C445.153,34.467,445.219,34.882,445.219,35.333z M443.524,35.093c0.004-0.273-0.03-0.512-0.103-0.714
			c-0.073-0.203-0.172-0.37-0.298-0.502c-0.125-0.132-0.271-0.23-0.438-0.294c-0.166-0.064-0.345-0.096-0.536-0.096
			c-0.42,0-0.764,0.14-1.032,0.42c-0.27,0.28-0.429,0.676-0.479,1.186H443.524z"/>
		<path d="M452.364,37.295c0,0.396-0.088,0.735-0.263,1.015c-0.176,0.28-0.408,0.508-0.697,0.684
			c-0.29,0.175-0.618,0.303-0.984,0.383c-0.367,0.08-0.742,0.12-1.125,0.12c-0.51,0-0.971-0.024-1.381-0.072
			s-0.797-0.117-1.162-0.208v-1.504c0.429,0.178,0.855,0.307,1.282,0.386c0.426,0.08,0.828,0.12,1.206,0.12
			c0.438,0,0.765-0.069,0.981-0.208c0.216-0.139,0.324-0.32,0.324-0.543c0-0.105-0.022-0.201-0.068-0.287
			c-0.045-0.086-0.131-0.17-0.256-0.25c-0.126-0.08-0.302-0.162-0.53-0.246c-0.228-0.084-0.526-0.179-0.896-0.284
			c-0.342-0.096-0.642-0.204-0.898-0.325c-0.258-0.121-0.471-0.263-0.64-0.427c-0.168-0.164-0.295-0.354-0.379-0.571
			c-0.085-0.216-0.127-0.471-0.127-0.762c0-0.283,0.064-0.549,0.191-0.8c0.128-0.25,0.318-0.471,0.571-0.66s0.568-0.338,0.946-0.448
			c0.379-0.109,0.82-0.164,1.326-0.164c0.438,0,0.825,0.023,1.162,0.068c0.338,0.045,0.636,0.096,0.896,0.15v1.36
			c-0.396-0.127-0.769-0.218-1.117-0.27s-0.694-0.079-1.036-0.079s-0.616,0.062-0.823,0.185c-0.208,0.123-0.312,0.294-0.312,0.513
			c0,0.105,0.021,0.198,0.062,0.28s0.122,0.162,0.243,0.239c0.12,0.078,0.289,0.158,0.506,0.243
			c0.216,0.084,0.502,0.177,0.857,0.277c0.401,0.114,0.738,0.236,1.012,0.366s0.493,0.277,0.66,0.441
			c0.166,0.164,0.286,0.351,0.358,0.561C452.328,36.786,452.364,37.026,452.364,37.295z"/>
		<path d="M459.715,39.27c-0.301,0.068-0.604,0.123-0.909,0.164c-0.305,0.041-0.595,0.062-0.868,0.062
			c-0.455,0-0.849-0.048-1.179-0.144c-0.331-0.096-0.604-0.242-0.82-0.438c-0.217-0.196-0.376-0.445-0.479-0.749
			s-0.154-0.664-0.154-1.083v-3.391h-1.866v-1.299h1.866v-1.777l1.709-0.444v2.222h2.7v1.299h-2.7v3.268
			c0,0.396,0.092,0.696,0.273,0.899c0.183,0.203,0.488,0.304,0.916,0.304c0.273,0,0.54-0.023,0.8-0.068s0.497-0.098,0.711-0.157
			V39.27z"/>
		<path d="M466.999,37.295c0,0.396-0.088,0.735-0.264,1.015c-0.175,0.28-0.407,0.508-0.697,0.684
			c-0.289,0.175-0.617,0.303-0.984,0.383c-0.366,0.08-0.741,0.12-1.124,0.12c-0.511,0-0.971-0.024-1.381-0.072
			s-0.798-0.117-1.162-0.208v-1.504c0.428,0.178,0.855,0.307,1.281,0.386c0.427,0.08,0.828,0.12,1.207,0.12
			c0.438,0,0.765-0.069,0.98-0.208c0.217-0.139,0.325-0.32,0.325-0.543c0-0.105-0.023-0.201-0.068-0.287
			c-0.046-0.086-0.131-0.17-0.257-0.25c-0.125-0.08-0.302-0.162-0.529-0.246c-0.229-0.084-0.526-0.179-0.896-0.284
			c-0.342-0.096-0.642-0.204-0.899-0.325c-0.257-0.121-0.471-0.263-0.639-0.427c-0.169-0.164-0.295-0.354-0.38-0.571
			c-0.084-0.216-0.126-0.471-0.126-0.762c0-0.283,0.063-0.549,0.191-0.8c0.127-0.25,0.317-0.471,0.57-0.66s0.568-0.338,0.947-0.448
			c0.378-0.109,0.82-0.164,1.326-0.164c0.438,0,0.824,0.023,1.162,0.068c0.337,0.045,0.636,0.096,0.896,0.15v1.36
			c-0.396-0.127-0.77-0.218-1.118-0.27s-0.693-0.079-1.035-0.079s-0.616,0.062-0.824,0.185c-0.207,0.123-0.311,0.294-0.311,0.513
			c0,0.105,0.021,0.198,0.062,0.28s0.122,0.162,0.242,0.239c0.121,0.078,0.29,0.158,0.506,0.243
			c0.217,0.084,0.503,0.177,0.858,0.277c0.4,0.114,0.738,0.236,1.012,0.366s0.493,0.277,0.659,0.441
			c0.167,0.164,0.286,0.351,0.359,0.561C466.962,36.786,466.999,37.026,466.999,37.295z"/>
	</g>
	<g>
		<rect x="8.8" y="74.354" fill="none" width="189.2" height="22"/>
		<path d="M66.864,77.151h1.087l0.034,1.265c0.406-0.488,0.806-0.841,1.2-1.06s0.792-0.328,1.193-0.328
			c0.711,0,1.25,0.23,1.617,0.69s0.537,1.144,0.509,2.051h-1.203c0.014-0.602-0.074-1.038-0.263-1.309s-0.466-0.407-0.831-0.407
			c-0.16,0-0.32,0.028-0.482,0.085s-0.328,0.148-0.499,0.273s-0.352,0.286-0.543,0.482s-0.396,0.433-0.615,0.711v4.409h-1.203
			V77.151z"/>
		<path d="M80.075,80.22c0,0.168-0.002,0.31-0.007,0.424s-0.011,0.221-0.021,0.321h-4.819c0,0.702,0.196,1.241,0.588,1.617
			s0.957,0.564,1.695,0.564c0.201,0,0.401-0.008,0.602-0.024s0.394-0.038,0.581-0.065s0.366-0.058,0.537-0.092
			s0.329-0.072,0.475-0.113v0.978c-0.324,0.091-0.689,0.165-1.097,0.222s-0.831,0.085-1.268,0.085c-0.588,0-1.094-0.08-1.518-0.239
			s-0.771-0.391-1.042-0.694s-0.472-0.674-0.602-1.114s-0.195-0.938-0.195-1.494c0-0.483,0.069-0.94,0.208-1.371
			s0.342-0.809,0.608-1.135s0.594-0.584,0.981-0.776s0.827-0.287,1.319-0.287c0.479,0,0.902,0.075,1.271,0.226
			s0.68,0.363,0.933,0.639s0.444,0.611,0.574,1.005S80.075,79.732,80.075,80.22z M78.838,80.049
			c0.014-0.305-0.016-0.584-0.089-0.837s-0.186-0.471-0.338-0.653s-0.343-0.325-0.571-0.427s-0.492-0.154-0.793-0.154
			c-0.26,0-0.497,0.05-0.711,0.15s-0.399,0.242-0.554,0.424s-0.28,0.401-0.376,0.656s-0.155,0.536-0.178,0.841H78.838z"/>
		<path d="M81.61,80.726c0-0.492,0.065-0.959,0.195-1.401s0.331-0.831,0.602-1.166s0.619-0.601,1.042-0.796s0.93-0.294,1.518-0.294
			c0.232,0,0.462,0.018,0.69,0.055s0.469,0.093,0.725,0.171l1.053-0.267v9.789h-1.196v-2.591l0.062-1.47
			c-0.647,0.92-1.417,1.381-2.311,1.381c-0.401,0-0.75-0.082-1.046-0.246s-0.543-0.396-0.742-0.697s-0.346-0.661-0.444-1.08
			S81.61,81.232,81.61,80.726z M82.827,80.651c0,0.383,0.028,0.727,0.085,1.032s0.144,0.564,0.26,0.776s0.262,0.375,0.438,0.489
			s0.382,0.171,0.619,0.171c0.301,0,0.619-0.134,0.954-0.403s0.687-0.667,1.056-1.196v-3.186c-0.182-0.086-0.389-0.157-0.619-0.212
			s-0.475-0.082-0.735-0.082c-0.67,0-1.18,0.221-1.531,0.663S82.827,79.794,82.827,80.651z"/>
		<path d="M95.117,84.014H94.05l-0.041-1.107c-0.205,0.237-0.4,0.434-0.584,0.591s-0.368,0.284-0.55,0.379s-0.366,0.163-0.55,0.202
			s-0.379,0.058-0.584,0.058c-0.707,0-1.24-0.208-1.6-0.622s-0.54-1.042-0.54-1.88v-4.484h1.189v4.389
			c0,1.053,0.396,1.579,1.189,1.579c0.146,0,0.288-0.021,0.427-0.065s0.285-0.119,0.438-0.226s0.317-0.252,0.492-0.434
			s0.373-0.413,0.591-0.69v-4.553h1.189V84.014z"/>
		<path d="M103.061,80.22c0,0.168-0.002,0.31-0.007,0.424s-0.011,0.221-0.021,0.321h-4.819c0,0.702,0.196,1.241,0.588,1.617
			s0.957,0.564,1.695,0.564c0.201,0,0.401-0.008,0.602-0.024s0.394-0.038,0.581-0.065s0.366-0.058,0.537-0.092
			s0.329-0.072,0.475-0.113v0.978c-0.324,0.091-0.689,0.165-1.097,0.222s-0.831,0.085-1.268,0.085c-0.588,0-1.094-0.08-1.518-0.239
			s-0.771-0.391-1.042-0.694s-0.472-0.674-0.602-1.114s-0.195-0.938-0.195-1.494c0-0.483,0.069-0.94,0.208-1.371
			s0.342-0.809,0.608-1.135s0.594-0.584,0.981-0.776s0.827-0.287,1.319-0.287c0.479,0,0.902,0.075,1.271,0.226
			s0.68,0.363,0.933,0.639s0.444,0.611,0.574,1.005S103.061,79.732,103.061,80.22z M101.823,80.049
			c0.014-0.305-0.016-0.584-0.089-0.837s-0.186-0.471-0.338-0.653s-0.343-0.325-0.571-0.427s-0.492-0.154-0.793-0.154
			c-0.26,0-0.497,0.05-0.711,0.15s-0.399,0.242-0.554,0.424s-0.28,0.401-0.376,0.656s-0.155,0.536-0.178,0.841H101.823z"/>
		<path d="M110.05,82.141c0,0.242-0.041,0.458-0.123,0.649s-0.194,0.361-0.335,0.509s-0.305,0.274-0.492,0.379
			s-0.386,0.191-0.598,0.26s-0.43,0.119-0.653,0.15s-0.442,0.048-0.656,0.048c-0.465,0-0.892-0.021-1.282-0.062
			s-0.771-0.107-1.145-0.198v-1.094c0.401,0.114,0.8,0.201,1.196,0.26s0.791,0.089,1.183,0.089c0.57,0,0.991-0.078,1.265-0.232
			s0.41-0.376,0.41-0.663c0-0.123-0.021-0.233-0.065-0.332s-0.122-0.191-0.236-0.28s-0.291-0.181-0.53-0.277
			s-0.566-0.205-0.981-0.328c-0.31-0.091-0.596-0.195-0.858-0.311s-0.489-0.254-0.68-0.414s-0.342-0.346-0.451-0.561
			s-0.164-0.467-0.164-0.759c0-0.191,0.044-0.401,0.133-0.629s0.24-0.44,0.455-0.636s0.503-0.359,0.868-0.489
			s0.82-0.195,1.367-0.195c0.269,0,0.567,0.015,0.896,0.044s0.67,0.081,1.025,0.154v1.06c-0.374-0.091-0.728-0.158-1.063-0.202
			s-0.625-0.065-0.872-0.065c-0.296,0-0.546,0.023-0.749,0.068s-0.367,0.108-0.492,0.188s-0.215,0.173-0.27,0.28
			s-0.082,0.222-0.082,0.345s0.024,0.235,0.072,0.335s0.137,0.197,0.267,0.291s0.311,0.187,0.543,0.28s0.536,0.195,0.909,0.304
			c0.406,0.119,0.748,0.243,1.025,0.373s0.503,0.274,0.677,0.434s0.297,0.339,0.373,0.54S110.05,81.885,110.05,82.141z"/>
		<path d="M117.58,83.918c-0.269,0.068-0.547,0.117-0.834,0.147s-0.578,0.044-0.875,0.044c-0.861,0-1.504-0.195-1.928-0.584
			s-0.636-0.988-0.636-1.794v-3.582h-1.921v-0.998h1.921v-1.887l1.189-0.308v2.194h3.083v0.998h-3.083v3.486
			c0,0.492,0.131,0.86,0.394,1.104c0.262,0.244,0.648,0.366,1.158,0.366c0.219,0,0.458-0.017,0.718-0.051s0.531-0.088,0.813-0.161
			V83.918z"/>
		<path d="M126.314,86.817h-7.697v-0.984h7.697V86.817z"/>
		<path d="M129.643,78.135h-2.03v-0.984h3.233v5.872h2.044v0.991h-5.503v-0.991h2.256V78.135z M130.06,74.273
			c0.133,0,0.256,0.024,0.369,0.072c0.114,0.048,0.213,0.115,0.298,0.202c0.084,0.086,0.15,0.186,0.198,0.297
			s0.071,0.233,0.071,0.366c0,0.127-0.023,0.249-0.071,0.362s-0.114,0.214-0.198,0.301c-0.085,0.086-0.184,0.154-0.298,0.202
			c-0.113,0.048-0.236,0.072-0.369,0.072c-0.132,0-0.255-0.024-0.369-0.072c-0.113-0.048-0.213-0.115-0.297-0.202
			c-0.085-0.086-0.15-0.187-0.198-0.301s-0.072-0.235-0.072-0.362c0-0.132,0.024-0.254,0.072-0.366s0.113-0.211,0.198-0.297
			c0.084-0.086,0.184-0.154,0.297-0.202C129.805,74.297,129.928,74.273,130.06,74.273z"/>
		<path d="M134.357,80.726c0-0.583,0.08-1.102,0.239-1.555c0.16-0.454,0.387-0.836,0.681-1.148s0.646-0.549,1.06-0.711
			c0.412-0.162,0.871-0.243,1.377-0.243c0.219,0,0.435,0.014,0.646,0.041s0.42,0.071,0.625,0.13v-2.885h1.196v9.659h-1.066
			l-0.041-1.299c-0.332,0.483-0.692,0.841-1.08,1.073c-0.387,0.232-0.807,0.349-1.258,0.349c-0.392,0-0.737-0.082-1.035-0.246
			c-0.299-0.164-0.547-0.396-0.745-0.694s-0.348-0.657-0.448-1.077C134.408,81.701,134.357,81.236,134.357,80.726z M135.574,80.651
			c0,0.83,0.122,1.448,0.366,1.856c0.243,0.408,0.589,0.612,1.035,0.612c0.301,0,0.619-0.134,0.954-0.403s0.687-0.667,1.056-1.196
			v-3.186c-0.195-0.091-0.412-0.161-0.649-0.208c-0.236-0.048-0.472-0.072-0.704-0.072c-0.646,0-1.151,0.209-1.514,0.629
			S135.574,79.758,135.574,80.651z"/>
	</g>
	<g>
		<rect x="312.4" y="74.354" fill="none" width="189.2" height="22"/>
		<path d="M364.177,83.761c-0.31,0.119-0.628,0.206-0.953,0.263c-0.326,0.057-0.662,0.085-1.009,0.085
			c-1.084,0-1.92-0.294-2.505-0.882c-0.586-0.588-0.879-1.447-0.879-2.577c0-0.542,0.085-1.035,0.253-1.477
			c0.169-0.442,0.406-0.82,0.711-1.135c0.306-0.314,0.67-0.557,1.094-0.728s0.892-0.256,1.401-0.256
			c0.355,0,0.688,0.025,0.998,0.075c0.311,0.05,0.606,0.132,0.889,0.246v1.135c-0.296-0.155-0.598-0.268-0.905-0.338
			s-0.626-0.106-0.954-0.106c-0.305,0-0.594,0.058-0.864,0.174c-0.271,0.116-0.51,0.284-0.715,0.502s-0.366,0.485-0.485,0.8
			c-0.118,0.314-0.178,0.67-0.178,1.066c0,0.83,0.202,1.45,0.605,1.863s0.963,0.619,1.678,0.619c0.324,0,0.637-0.037,0.94-0.109
			c0.303-0.073,0.596-0.182,0.878-0.328V83.761z"/>
		<path d="M372.151,80.528c0,0.533-0.075,1.022-0.226,1.466s-0.367,0.825-0.649,1.142c-0.283,0.317-0.627,0.563-1.032,0.738
			c-0.406,0.175-0.866,0.263-1.381,0.263c-0.492,0-0.934-0.076-1.323-0.229s-0.72-0.377-0.991-0.673
			c-0.271-0.296-0.479-0.663-0.622-1.101s-0.215-0.941-0.215-1.511c0-0.533,0.075-1.02,0.226-1.459s0.366-0.818,0.649-1.135
			c0.282-0.317,0.626-0.563,1.032-0.738c0.405-0.175,0.865-0.263,1.381-0.263c0.492,0,0.933,0.076,1.322,0.229
			s0.721,0.376,0.991,0.67c0.271,0.294,0.479,0.66,0.622,1.097S372.151,79.963,372.151,80.528z M370.934,80.582
			c0-0.424-0.047-0.794-0.141-1.111c-0.093-0.317-0.227-0.581-0.399-0.793c-0.174-0.212-0.384-0.372-0.633-0.479
			c-0.248-0.107-0.525-0.161-0.83-0.161c-0.355,0-0.66,0.069-0.913,0.208s-0.46,0.325-0.622,0.557
			c-0.161,0.232-0.28,0.502-0.355,0.81s-0.112,0.63-0.112,0.967c0,0.424,0.047,0.795,0.14,1.114c0.094,0.319,0.227,0.584,0.4,0.796
			c0.173,0.212,0.383,0.372,0.629,0.479s0.523,0.161,0.834,0.161c0.355,0,0.659-0.069,0.912-0.208s0.461-0.325,0.622-0.557
			c0.162-0.232,0.28-0.502,0.355-0.81S370.934,80.924,370.934,80.582z"/>
		<path d="M373.917,77.151h1.06l0.048,1.107c0.201-0.237,0.395-0.434,0.581-0.591c0.188-0.157,0.37-0.284,0.551-0.379
			c0.18-0.096,0.363-0.163,0.55-0.202c0.188-0.039,0.381-0.058,0.581-0.058c0.707,0,1.241,0.208,1.604,0.625
			s0.543,1.045,0.543,1.883v4.478h-1.189v-4.382c0-0.538-0.1-0.936-0.301-1.193c-0.2-0.257-0.499-0.386-0.896-0.386
			c-0.146,0-0.288,0.021-0.427,0.065c-0.14,0.043-0.284,0.119-0.435,0.226s-0.313,0.252-0.488,0.434
			c-0.176,0.182-0.373,0.41-0.592,0.684v4.553h-1.189V77.151z"/>
		<path d="M381.585,77.151h1.06l0.048,1.107c0.2-0.237,0.394-0.434,0.581-0.591c0.187-0.157,0.37-0.284,0.55-0.379
			c0.181-0.096,0.363-0.163,0.551-0.202c0.187-0.039,0.38-0.058,0.581-0.058c0.706,0,1.24,0.208,1.603,0.625
			s0.544,1.045,0.544,1.883v4.478h-1.189v-4.382c0-0.538-0.101-0.936-0.301-1.193c-0.201-0.257-0.499-0.386-0.896-0.386
			c-0.146,0-0.288,0.021-0.428,0.065c-0.139,0.043-0.283,0.119-0.434,0.226s-0.313,0.252-0.489,0.434
			c-0.175,0.182-0.372,0.41-0.591,0.684v4.553h-1.189V77.151z"/>
		<path d="M395.024,80.22c0,0.168-0.002,0.31-0.007,0.424c-0.004,0.114-0.011,0.221-0.021,0.321h-4.819
			c0,0.702,0.196,1.241,0.588,1.617c0.393,0.376,0.957,0.564,1.695,0.564c0.201,0,0.401-0.008,0.602-0.024
			c0.201-0.016,0.395-0.038,0.581-0.065c0.188-0.027,0.366-0.058,0.537-0.092s0.329-0.072,0.475-0.113v0.978
			c-0.323,0.091-0.689,0.165-1.097,0.222c-0.408,0.057-0.831,0.085-1.269,0.085c-0.588,0-1.094-0.08-1.518-0.239
			s-0.771-0.391-1.042-0.694c-0.271-0.303-0.472-0.674-0.602-1.114s-0.195-0.938-0.195-1.494c0-0.483,0.069-0.94,0.209-1.371
			c0.139-0.431,0.342-0.809,0.608-1.135s0.594-0.584,0.98-0.776c0.388-0.191,0.827-0.287,1.319-0.287
			c0.479,0,0.902,0.075,1.271,0.226s0.681,0.363,0.934,0.639s0.444,0.611,0.574,1.005S395.024,79.732,395.024,80.22z
			 M393.787,80.049c0.014-0.305-0.016-0.584-0.089-0.837c-0.072-0.253-0.186-0.471-0.338-0.653
			c-0.153-0.182-0.343-0.325-0.571-0.427c-0.228-0.103-0.492-0.154-0.793-0.154c-0.26,0-0.496,0.05-0.711,0.15
			c-0.214,0.1-0.398,0.242-0.554,0.424c-0.154,0.182-0.28,0.401-0.376,0.656s-0.154,0.536-0.178,0.841H393.787z"/>
		<path d="M402.072,83.761c-0.311,0.119-0.628,0.206-0.954,0.263c-0.325,0.057-0.662,0.085-1.008,0.085
			c-1.085,0-1.92-0.294-2.506-0.882c-0.585-0.588-0.878-1.447-0.878-2.577c0-0.542,0.084-1.035,0.253-1.477
			c0.168-0.442,0.405-0.82,0.711-1.135c0.305-0.314,0.67-0.557,1.094-0.728s0.891-0.256,1.401-0.256
			c0.355,0,0.688,0.025,0.998,0.075c0.31,0.05,0.605,0.132,0.889,0.246v1.135c-0.297-0.155-0.599-0.268-0.906-0.338
			s-0.625-0.106-0.953-0.106c-0.306,0-0.594,0.058-0.865,0.174c-0.271,0.116-0.509,0.284-0.714,0.502s-0.367,0.485-0.485,0.8
			c-0.119,0.314-0.178,0.67-0.178,1.066c0,0.83,0.201,1.45,0.604,1.863s0.963,0.619,1.679,0.619c0.323,0,0.637-0.037,0.939-0.109
			c0.304-0.073,0.596-0.182,0.879-0.328V83.761z"/>
		<path d="M409.874,83.918c-0.27,0.068-0.547,0.117-0.834,0.147s-0.579,0.044-0.875,0.044c-0.861,0-1.504-0.195-1.928-0.584
			s-0.636-0.988-0.636-1.794v-3.582h-1.921v-0.998h1.921v-1.887l1.189-0.308v2.194h3.083v0.998h-3.083v3.486
			c0,0.492,0.131,0.86,0.393,1.104c0.263,0.244,0.648,0.366,1.159,0.366c0.219,0,0.458-0.017,0.718-0.051s0.53-0.088,0.813-0.161
			V83.918z"/>
		<path d="M414.017,78.135h-2.03v-0.984h3.233v5.872h2.044v0.991h-5.503v-0.991h2.256V78.135z M414.434,74.273
			c0.132,0,0.255,0.024,0.369,0.072c0.113,0.048,0.213,0.115,0.297,0.202c0.085,0.086,0.15,0.186,0.198,0.297
			s0.072,0.233,0.072,0.366c0,0.127-0.024,0.249-0.072,0.362s-0.113,0.214-0.198,0.301c-0.084,0.086-0.184,0.154-0.297,0.202
			c-0.114,0.048-0.237,0.072-0.369,0.072c-0.133,0-0.256-0.024-0.369-0.072c-0.114-0.048-0.213-0.115-0.298-0.202
			c-0.084-0.086-0.15-0.187-0.198-0.301s-0.071-0.235-0.071-0.362c0-0.132,0.023-0.254,0.071-0.366s0.114-0.211,0.198-0.297
			c0.085-0.086,0.184-0.154,0.298-0.202C414.178,74.297,414.301,74.273,414.434,74.273z"/>
		<path d="M425.046,80.528c0,0.533-0.075,1.022-0.226,1.466s-0.366,0.825-0.649,1.142c-0.282,0.317-0.626,0.563-1.032,0.738
			c-0.405,0.175-0.865,0.263-1.381,0.263c-0.492,0-0.933-0.076-1.322-0.229s-0.721-0.377-0.991-0.673
			c-0.271-0.296-0.479-0.663-0.622-1.101s-0.216-0.941-0.216-1.511c0-0.533,0.075-1.02,0.226-1.459s0.367-0.818,0.649-1.135
			c0.283-0.317,0.627-0.563,1.032-0.738c0.406-0.175,0.866-0.263,1.381-0.263c0.492,0,0.934,0.076,1.323,0.229
			s0.72,0.376,0.991,0.67c0.271,0.294,0.479,0.66,0.622,1.097S425.046,79.963,425.046,80.528z M423.829,80.582
			c0-0.424-0.047-0.794-0.14-1.111c-0.094-0.317-0.227-0.581-0.4-0.793c-0.173-0.212-0.384-0.372-0.632-0.479
			c-0.249-0.107-0.525-0.161-0.831-0.161c-0.355,0-0.659,0.069-0.912,0.208s-0.461,0.325-0.622,0.557
			c-0.162,0.232-0.28,0.502-0.355,0.81s-0.113,0.63-0.113,0.967c0,0.424,0.047,0.795,0.141,1.114
			c0.093,0.319,0.227,0.584,0.399,0.796c0.174,0.212,0.383,0.372,0.629,0.479s0.524,0.161,0.834,0.161
			c0.355,0,0.66-0.069,0.913-0.208s0.46-0.325,0.622-0.557c0.161-0.232,0.28-0.502,0.355-0.81S423.829,80.924,423.829,80.582z"/>
		<path d="M426.812,77.151h1.06l0.048,1.107c0.2-0.237,0.394-0.434,0.581-0.591c0.187-0.157,0.37-0.284,0.55-0.379
			c0.181-0.096,0.363-0.163,0.551-0.202c0.187-0.039,0.38-0.058,0.581-0.058c0.706,0,1.24,0.208,1.603,0.625
			s0.544,1.045,0.544,1.883v4.478h-1.189v-4.382c0-0.538-0.101-0.936-0.301-1.193c-0.201-0.257-0.499-0.386-0.896-0.386
			c-0.146,0-0.288,0.021-0.428,0.065c-0.139,0.043-0.283,0.119-0.434,0.226s-0.313,0.252-0.489,0.434
			c-0.175,0.182-0.372,0.41-0.591,0.684v4.553h-1.189V77.151z"/>
		<path d="M441.253,86.817h-7.697v-0.984h7.697V86.817z"/>
		<path d="M444.583,78.135h-2.03v-0.984h3.233v5.872h2.044v0.991h-5.503v-0.991h2.256V78.135z M445,74.273
			c0.132,0,0.255,0.024,0.369,0.072c0.113,0.048,0.213,0.115,0.297,0.202c0.085,0.086,0.15,0.186,0.198,0.297
			s0.072,0.233,0.072,0.366c0,0.127-0.024,0.249-0.072,0.362s-0.113,0.214-0.198,0.301c-0.084,0.086-0.184,0.154-0.297,0.202
			c-0.114,0.048-0.237,0.072-0.369,0.072c-0.133,0-0.256-0.024-0.369-0.072c-0.114-0.048-0.213-0.115-0.298-0.202
			c-0.084-0.086-0.15-0.187-0.198-0.301s-0.071-0.235-0.071-0.362c0-0.132,0.023-0.254,0.071-0.366s0.114-0.211,0.198-0.297
			c0.085-0.086,0.184-0.154,0.298-0.202C444.744,74.297,444.867,74.273,445,74.273z"/>
		<path d="M449.296,80.726c0-0.583,0.079-1.102,0.239-1.555c0.159-0.454,0.386-0.836,0.68-1.148s0.647-0.549,1.06-0.711
			c0.413-0.162,0.872-0.243,1.378-0.243c0.219,0,0.434,0.014,0.646,0.041s0.421,0.071,0.626,0.13v-2.885h1.196v9.659h-1.066
			l-0.041-1.299c-0.333,0.483-0.693,0.841-1.08,1.073c-0.388,0.232-0.807,0.349-1.258,0.349c-0.393,0-0.737-0.082-1.036-0.246
			c-0.298-0.164-0.547-0.396-0.745-0.694s-0.348-0.657-0.447-1.077C449.346,81.701,449.296,81.236,449.296,80.726z M450.513,80.651
			c0,0.83,0.122,1.448,0.365,1.856c0.244,0.408,0.589,0.612,1.036,0.612c0.301,0,0.618-0.134,0.953-0.403s0.688-0.667,1.057-1.196
			v-3.186c-0.196-0.091-0.413-0.161-0.649-0.208c-0.237-0.048-0.472-0.072-0.704-0.072c-0.647,0-1.152,0.209-1.515,0.629
			S450.513,79.758,450.513,80.651z"/>
	</g>
	<g>
		<rect x="312.4" y="114.44" fill="none" width="189.2" height="22"/>
		<path d="M370.464,117.237h1.087l0.034,1.265c0.406-0.488,0.806-0.841,1.2-1.06c0.394-0.219,0.792-0.328,1.192-0.328
			c0.711,0,1.25,0.23,1.617,0.69c0.366,0.46,0.536,1.144,0.509,2.051h-1.203c0.014-0.602-0.074-1.038-0.263-1.309
			c-0.189-0.271-0.466-0.407-0.831-0.407c-0.159,0-0.32,0.028-0.481,0.085c-0.162,0.057-0.328,0.148-0.499,0.273
			s-0.353,0.286-0.544,0.482s-0.396,0.433-0.615,0.711v4.409h-1.203V117.237z"/>
		<path d="M383.675,120.306c0,0.168-0.002,0.31-0.007,0.424c-0.004,0.114-0.011,0.221-0.021,0.321h-4.819
			c0,0.702,0.196,1.241,0.588,1.617c0.393,0.376,0.957,0.564,1.695,0.564c0.201,0,0.401-0.008,0.602-0.024
			c0.201-0.016,0.395-0.038,0.581-0.065c0.188-0.027,0.366-0.058,0.537-0.092s0.329-0.072,0.475-0.113v0.978
			c-0.323,0.091-0.689,0.165-1.097,0.222c-0.408,0.057-0.831,0.085-1.269,0.085c-0.588,0-1.094-0.08-1.518-0.239
			s-0.771-0.391-1.042-0.694c-0.271-0.303-0.472-0.674-0.602-1.114s-0.195-0.938-0.195-1.494c0-0.483,0.069-0.94,0.209-1.371
			c0.139-0.431,0.342-0.809,0.608-1.135s0.594-0.584,0.98-0.776c0.388-0.191,0.827-0.287,1.319-0.287
			c0.479,0,0.902,0.075,1.271,0.226s0.681,0.363,0.934,0.639s0.444,0.611,0.574,1.005S383.675,119.818,383.675,120.306z
			 M382.438,120.135c0.014-0.305-0.016-0.584-0.089-0.837c-0.072-0.253-0.186-0.471-0.338-0.653
			c-0.153-0.182-0.343-0.325-0.571-0.427c-0.228-0.103-0.492-0.154-0.793-0.154c-0.26,0-0.496,0.05-0.711,0.15
			c-0.214,0.1-0.398,0.242-0.554,0.424c-0.154,0.182-0.28,0.401-0.376,0.656s-0.154,0.536-0.178,0.841H382.438z"/>
		<path d="M385.211,120.812c0-0.492,0.065-0.959,0.195-1.401s0.33-0.831,0.602-1.166c0.271-0.335,0.618-0.601,1.042-0.796
			s0.93-0.294,1.518-0.294c0.232,0,0.463,0.018,0.69,0.055c0.229,0.037,0.47,0.093,0.725,0.171l1.053-0.267v9.789h-1.196v-2.591
			l0.062-1.47c-0.646,0.92-1.417,1.381-2.311,1.381c-0.4,0-0.749-0.082-1.046-0.246c-0.296-0.164-0.543-0.396-0.741-0.697
			s-0.347-0.661-0.444-1.08C385.259,121.78,385.211,121.318,385.211,120.812z M386.427,120.737c0,0.383,0.028,0.727,0.086,1.032
			c0.057,0.305,0.144,0.564,0.26,0.776s0.262,0.375,0.438,0.489c0.175,0.114,0.382,0.171,0.618,0.171
			c0.301,0,0.619-0.134,0.954-0.403s0.687-0.667,1.056-1.196v-3.186c-0.182-0.086-0.389-0.157-0.618-0.212
			c-0.23-0.055-0.476-0.082-0.735-0.082c-0.67,0-1.18,0.221-1.531,0.663C386.603,119.23,386.427,119.88,386.427,120.737z"/>
		<path d="M398.717,124.1h-1.066l-0.041-1.107c-0.205,0.237-0.4,0.434-0.585,0.591s-0.368,0.284-0.55,0.379
			c-0.183,0.096-0.366,0.163-0.551,0.202s-0.379,0.058-0.584,0.058c-0.707,0-1.24-0.208-1.6-0.622c-0.36-0.415-0.54-1.042-0.54-1.88
			v-4.484h1.189v4.389c0,1.053,0.396,1.579,1.189,1.579c0.146,0,0.288-0.021,0.427-0.065c0.14-0.043,0.285-0.119,0.438-0.226
			c0.153-0.107,0.317-0.252,0.492-0.434c0.176-0.182,0.373-0.413,0.592-0.69v-4.553h1.189V124.1z"/>
		<path d="M406.661,120.306c0,0.168-0.002,0.31-0.007,0.424c-0.004,0.114-0.011,0.221-0.021,0.321h-4.819
			c0,0.702,0.196,1.241,0.588,1.617c0.393,0.376,0.957,0.564,1.695,0.564c0.201,0,0.401-0.008,0.602-0.024
			c0.201-0.016,0.395-0.038,0.581-0.065c0.188-0.027,0.366-0.058,0.537-0.092s0.329-0.072,0.475-0.113v0.978
			c-0.323,0.091-0.689,0.165-1.097,0.222c-0.408,0.057-0.831,0.085-1.269,0.085c-0.588,0-1.094-0.08-1.518-0.239
			s-0.771-0.391-1.042-0.694c-0.271-0.303-0.472-0.674-0.602-1.114s-0.195-0.938-0.195-1.494c0-0.483,0.069-0.94,0.209-1.371
			c0.139-0.431,0.342-0.809,0.608-1.135s0.594-0.584,0.98-0.776c0.388-0.191,0.827-0.287,1.319-0.287
			c0.479,0,0.902,0.075,1.271,0.226s0.681,0.363,0.934,0.639s0.444,0.611,0.574,1.005S406.661,119.818,406.661,120.306z
			 M405.423,120.135c0.014-0.305-0.016-0.584-0.089-0.837c-0.072-0.253-0.186-0.471-0.338-0.653
			c-0.153-0.182-0.343-0.325-0.571-0.427c-0.228-0.103-0.492-0.154-0.793-0.154c-0.26,0-0.496,0.05-0.711,0.15
			c-0.214,0.1-0.398,0.242-0.554,0.424c-0.154,0.182-0.28,0.401-0.376,0.656s-0.154,0.536-0.178,0.841H405.423z"/>
		<path d="M413.65,122.227c0,0.242-0.041,0.458-0.123,0.649s-0.193,0.361-0.335,0.509c-0.141,0.148-0.305,0.274-0.492,0.379
			c-0.187,0.105-0.386,0.191-0.598,0.26s-0.43,0.119-0.653,0.15c-0.223,0.032-0.441,0.048-0.656,0.048
			c-0.465,0-0.892-0.021-1.281-0.062s-0.771-0.107-1.146-0.198v-1.094c0.401,0.114,0.8,0.201,1.196,0.26s0.791,0.089,1.183,0.089
			c0.57,0,0.991-0.078,1.265-0.232s0.41-0.376,0.41-0.663c0-0.123-0.021-0.233-0.064-0.332c-0.044-0.098-0.122-0.191-0.236-0.28
			c-0.113-0.089-0.29-0.181-0.529-0.277s-0.566-0.205-0.981-0.328c-0.31-0.091-0.596-0.195-0.857-0.311
			c-0.263-0.116-0.489-0.254-0.681-0.414s-0.342-0.346-0.451-0.561s-0.164-0.467-0.164-0.759c0-0.191,0.045-0.401,0.134-0.629
			s0.24-0.44,0.454-0.636c0.215-0.196,0.504-0.359,0.868-0.489c0.365-0.13,0.82-0.195,1.367-0.195c0.27,0,0.567,0.015,0.896,0.044
			s0.67,0.081,1.025,0.154v1.06c-0.373-0.091-0.728-0.158-1.062-0.202s-0.626-0.065-0.872-0.065c-0.296,0-0.546,0.023-0.748,0.068
			c-0.203,0.045-0.367,0.108-0.492,0.188c-0.126,0.08-0.216,0.173-0.271,0.28s-0.082,0.222-0.082,0.345s0.024,0.235,0.072,0.335
			s0.137,0.197,0.267,0.291s0.311,0.187,0.543,0.28s0.536,0.195,0.909,0.304c0.406,0.119,0.748,0.243,1.025,0.373
			c0.278,0.13,0.504,0.274,0.677,0.434c0.174,0.16,0.298,0.339,0.373,0.54S413.65,121.971,413.65,122.227z"/>
		<path d="M421.18,124.004c-0.27,0.068-0.547,0.117-0.834,0.147s-0.579,0.044-0.875,0.044c-0.861,0-1.504-0.195-1.928-0.584
			s-0.636-0.988-0.636-1.794v-3.582h-1.921v-0.998h1.921v-1.887l1.189-0.308v2.194h3.083v0.998h-3.083v3.486
			c0,0.492,0.131,0.86,0.393,1.104c0.263,0.244,0.648,0.366,1.159,0.366c0.219,0,0.458-0.017,0.718-0.051s0.53-0.088,0.813-0.161
			V124.004z"/>
		<path d="M429.915,126.903h-7.697v-0.984h7.697V126.903z"/>
		<path d="M433.244,118.221h-2.03v-0.984h3.233v5.872h2.044v0.991h-5.503v-0.991h2.256V118.221z M433.661,114.359
			c0.132,0,0.255,0.024,0.369,0.072c0.113,0.048,0.213,0.115,0.297,0.202c0.085,0.086,0.15,0.186,0.198,0.297
			s0.072,0.233,0.072,0.366c0,0.127-0.024,0.249-0.072,0.362s-0.113,0.214-0.198,0.301c-0.084,0.086-0.184,0.154-0.297,0.202
			c-0.114,0.048-0.237,0.072-0.369,0.072c-0.133,0-0.256-0.024-0.369-0.072c-0.114-0.048-0.213-0.115-0.298-0.202
			c-0.084-0.086-0.15-0.187-0.198-0.301s-0.071-0.235-0.071-0.362c0-0.132,0.023-0.254,0.071-0.366s0.114-0.211,0.198-0.297
			c0.085-0.086,0.184-0.154,0.298-0.202C433.405,114.383,433.528,114.359,433.661,114.359z"/>
		<path d="M437.958,120.812c0-0.583,0.079-1.102,0.239-1.555c0.159-0.454,0.386-0.836,0.68-1.148s0.647-0.549,1.06-0.711
			c0.413-0.162,0.872-0.243,1.378-0.243c0.219,0,0.434,0.014,0.646,0.041s0.421,0.071,0.626,0.13v-2.885h1.196v9.659h-1.066
			l-0.041-1.299c-0.333,0.483-0.693,0.841-1.08,1.073c-0.388,0.232-0.807,0.349-1.258,0.349c-0.393,0-0.737-0.082-1.036-0.246
			c-0.298-0.164-0.547-0.396-0.745-0.694s-0.348-0.657-0.447-1.077C438.007,121.787,437.958,121.322,437.958,120.812z
			 M439.174,120.737c0,0.83,0.122,1.448,0.365,1.856c0.244,0.408,0.589,0.612,1.036,0.612c0.301,0,0.618-0.134,0.953-0.403
			s0.688-0.667,1.057-1.196v-3.186c-0.196-0.091-0.413-0.161-0.649-0.208c-0.237-0.048-0.472-0.072-0.704-0.072
			c-0.647,0-1.152,0.209-1.515,0.629S439.174,119.843,439.174,120.737z"/>
	</g>
	<g>
		<rect x="312.4" y="154.243" fill="none" width="189.2" height="22"/>
		<path d="M376.083,162.03c0,0.242-0.041,0.458-0.123,0.649s-0.193,0.361-0.335,0.509c-0.141,0.148-0.305,0.274-0.492,0.379
			c-0.187,0.105-0.386,0.191-0.598,0.26s-0.43,0.119-0.653,0.15c-0.223,0.032-0.441,0.048-0.656,0.048
			c-0.465,0-0.892-0.021-1.281-0.062s-0.771-0.107-1.146-0.198v-1.094c0.401,0.114,0.8,0.201,1.196,0.26s0.791,0.089,1.183,0.089
			c0.57,0,0.991-0.078,1.265-0.232s0.41-0.376,0.41-0.663c0-0.123-0.021-0.233-0.064-0.332c-0.044-0.098-0.122-0.191-0.236-0.28
			c-0.113-0.089-0.29-0.181-0.529-0.277s-0.566-0.205-0.981-0.328c-0.31-0.091-0.596-0.195-0.857-0.311
			c-0.263-0.116-0.489-0.254-0.681-0.414s-0.342-0.346-0.451-0.561s-0.164-0.467-0.164-0.759c0-0.191,0.045-0.401,0.134-0.629
			s0.24-0.44,0.454-0.636c0.215-0.196,0.504-0.359,0.868-0.489c0.365-0.13,0.82-0.195,1.367-0.195c0.27,0,0.567,0.015,0.896,0.044
			s0.67,0.081,1.025,0.154v1.06c-0.373-0.091-0.728-0.158-1.062-0.202s-0.626-0.065-0.872-0.065c-0.296,0-0.546,0.023-0.748,0.068
			c-0.203,0.045-0.367,0.108-0.492,0.188c-0.126,0.08-0.216,0.173-0.271,0.28s-0.082,0.222-0.082,0.345s0.024,0.235,0.072,0.335
			s0.137,0.197,0.267,0.291s0.311,0.187,0.543,0.28s0.536,0.195,0.909,0.304c0.406,0.119,0.748,0.243,1.025,0.373
			c0.278,0.13,0.504,0.274,0.677,0.434c0.174,0.16,0.298,0.339,0.373,0.54S376.083,161.775,376.083,162.03z"/>
		<path d="M383.874,160.109c0,0.168-0.003,0.31-0.007,0.424c-0.005,0.114-0.012,0.221-0.021,0.321h-4.819
			c0,0.702,0.195,1.241,0.588,1.617c0.392,0.376,0.957,0.564,1.695,0.564c0.2,0,0.4-0.008,0.602-0.024
			c0.2-0.016,0.394-0.038,0.581-0.065c0.187-0.027,0.365-0.058,0.536-0.092s0.329-0.072,0.476-0.113v0.978
			c-0.324,0.091-0.689,0.165-1.098,0.222c-0.407,0.057-0.83,0.085-1.268,0.085c-0.588,0-1.094-0.08-1.518-0.239
			s-0.771-0.391-1.043-0.694c-0.271-0.303-0.472-0.674-0.602-1.114s-0.194-0.938-0.194-1.494c0-0.483,0.069-0.94,0.208-1.371
			c0.14-0.431,0.342-0.809,0.608-1.135s0.594-0.584,0.981-0.776c0.387-0.191,0.827-0.287,1.319-0.287
			c0.479,0,0.902,0.075,1.271,0.226s0.68,0.363,0.933,0.639s0.444,0.611,0.574,1.005S383.874,159.621,383.874,160.109z
			 M382.636,159.938c0.014-0.305-0.017-0.584-0.089-0.837c-0.073-0.253-0.186-0.471-0.339-0.653
			c-0.152-0.182-0.343-0.325-0.57-0.427c-0.229-0.103-0.492-0.154-0.793-0.154c-0.26,0-0.497,0.05-0.711,0.15
			c-0.215,0.1-0.399,0.242-0.554,0.424c-0.155,0.182-0.28,0.401-0.376,0.656s-0.155,0.536-0.178,0.841H382.636z"/>
		<path d="M390.863,162.03c0,0.242-0.041,0.458-0.123,0.649s-0.194,0.361-0.335,0.509c-0.142,0.148-0.306,0.274-0.492,0.379
			c-0.188,0.105-0.387,0.191-0.599,0.26s-0.43,0.119-0.652,0.15c-0.224,0.032-0.442,0.048-0.656,0.048
			c-0.465,0-0.893-0.021-1.282-0.062s-0.771-0.107-1.145-0.198v-1.094c0.4,0.114,0.8,0.201,1.196,0.26s0.79,0.089,1.183,0.089
			c0.569,0,0.991-0.078,1.265-0.232s0.41-0.376,0.41-0.663c0-0.123-0.021-0.233-0.065-0.332c-0.043-0.098-0.122-0.191-0.235-0.28
			c-0.114-0.089-0.291-0.181-0.53-0.277s-0.566-0.205-0.98-0.328c-0.311-0.091-0.596-0.195-0.858-0.311
			c-0.262-0.116-0.488-0.254-0.68-0.414s-0.342-0.346-0.451-0.561s-0.164-0.467-0.164-0.759c0-0.191,0.044-0.401,0.133-0.629
			s0.24-0.44,0.455-0.636c0.214-0.196,0.503-0.359,0.868-0.489c0.364-0.13,0.82-0.195,1.367-0.195c0.269,0,0.567,0.015,0.896,0.044
			s0.67,0.081,1.025,0.154v1.06c-0.374-0.091-0.729-0.158-1.063-0.202s-0.625-0.065-0.871-0.065c-0.297,0-0.546,0.023-0.749,0.068
			c-0.202,0.045-0.366,0.108-0.492,0.188c-0.125,0.08-0.215,0.173-0.27,0.28s-0.082,0.222-0.082,0.345s0.023,0.235,0.071,0.335
			s0.137,0.197,0.267,0.291s0.312,0.187,0.544,0.28s0.535,0.195,0.909,0.304c0.405,0.119,0.747,0.243,1.025,0.373
			c0.277,0.13,0.503,0.274,0.677,0.434c0.173,0.16,0.297,0.339,0.372,0.54S390.863,161.775,390.863,162.03z"/>
		<path d="M398.08,162.03c0,0.242-0.041,0.458-0.123,0.649s-0.193,0.361-0.335,0.509c-0.141,0.148-0.305,0.274-0.492,0.379
			c-0.187,0.105-0.386,0.191-0.598,0.26s-0.43,0.119-0.653,0.15c-0.223,0.032-0.441,0.048-0.656,0.048
			c-0.465,0-0.892-0.021-1.281-0.062s-0.771-0.107-1.146-0.198v-1.094c0.401,0.114,0.8,0.201,1.196,0.26s0.791,0.089,1.183,0.089
			c0.57,0,0.991-0.078,1.265-0.232s0.41-0.376,0.41-0.663c0-0.123-0.021-0.233-0.064-0.332c-0.044-0.098-0.122-0.191-0.236-0.28
			c-0.113-0.089-0.29-0.181-0.529-0.277s-0.566-0.205-0.981-0.328c-0.31-0.091-0.596-0.195-0.857-0.311
			c-0.263-0.116-0.489-0.254-0.681-0.414s-0.342-0.346-0.451-0.561s-0.164-0.467-0.164-0.759c0-0.191,0.045-0.401,0.134-0.629
			s0.24-0.44,0.454-0.636c0.215-0.196,0.504-0.359,0.868-0.489c0.365-0.13,0.82-0.195,1.367-0.195c0.27,0,0.567,0.015,0.896,0.044
			s0.67,0.081,1.025,0.154v1.06c-0.373-0.091-0.728-0.158-1.062-0.202s-0.626-0.065-0.872-0.065c-0.296,0-0.546,0.023-0.748,0.068
			c-0.203,0.045-0.367,0.108-0.492,0.188c-0.126,0.08-0.216,0.173-0.271,0.28s-0.082,0.222-0.082,0.345s0.024,0.235,0.072,0.335
			s0.137,0.197,0.267,0.291s0.311,0.187,0.543,0.28s0.536,0.195,0.909,0.304c0.406,0.119,0.748,0.243,1.025,0.373
			c0.278,0.13,0.504,0.274,0.677,0.434c0.174,0.16,0.298,0.339,0.373,0.54S398.08,161.775,398.08,162.03z"/>
		<path d="M402.214,158.024h-2.03v-0.984h3.233v5.872h2.044v0.991h-5.503v-0.991h2.256V158.024z M402.631,154.162
			c0.132,0,0.255,0.024,0.369,0.072c0.113,0.048,0.213,0.115,0.297,0.202c0.085,0.086,0.15,0.186,0.198,0.297
			s0.072,0.233,0.072,0.366c0,0.127-0.024,0.249-0.072,0.362s-0.113,0.214-0.198,0.301c-0.084,0.086-0.184,0.154-0.297,0.202
			c-0.114,0.048-0.237,0.072-0.369,0.072c-0.133,0-0.256-0.024-0.369-0.072c-0.114-0.048-0.213-0.115-0.298-0.202
			c-0.084-0.086-0.15-0.187-0.198-0.301s-0.071-0.235-0.071-0.362c0-0.132,0.023-0.254,0.071-0.366s0.114-0.211,0.198-0.297
			c0.085-0.086,0.184-0.154,0.298-0.202C402.376,154.186,402.499,154.162,402.631,154.162z"/>
		<path d="M413.243,160.417c0,0.533-0.075,1.022-0.226,1.466s-0.366,0.825-0.649,1.142c-0.282,0.317-0.626,0.563-1.032,0.738
			c-0.405,0.175-0.865,0.263-1.381,0.263c-0.492,0-0.933-0.076-1.322-0.229s-0.721-0.377-0.991-0.673
			c-0.271-0.296-0.479-0.663-0.622-1.101s-0.216-0.941-0.216-1.511c0-0.533,0.075-1.02,0.226-1.459s0.367-0.818,0.649-1.135
			c0.283-0.317,0.627-0.563,1.032-0.738c0.406-0.175,0.866-0.263,1.381-0.263c0.492,0,0.934,0.076,1.323,0.229
			s0.72,0.376,0.991,0.67c0.271,0.294,0.479,0.66,0.622,1.097S413.243,159.852,413.243,160.417z M412.026,160.471
			c0-0.424-0.047-0.794-0.14-1.111c-0.094-0.317-0.227-0.581-0.4-0.793c-0.173-0.212-0.384-0.372-0.632-0.479
			c-0.249-0.107-0.525-0.161-0.831-0.161c-0.355,0-0.659,0.069-0.912,0.208s-0.461,0.325-0.622,0.557
			c-0.162,0.232-0.28,0.502-0.355,0.81s-0.113,0.63-0.113,0.967c0,0.424,0.047,0.795,0.141,1.114
			c0.093,0.319,0.227,0.584,0.399,0.796c0.174,0.212,0.383,0.372,0.629,0.479s0.524,0.161,0.834,0.161
			c0.355,0,0.66-0.069,0.913-0.208s0.46-0.325,0.622-0.557c0.161-0.232,0.28-0.502,0.355-0.81S412.026,160.813,412.026,160.471z"/>
		<path d="M415.009,157.04h1.06l0.048,1.107c0.2-0.237,0.394-0.434,0.581-0.591c0.187-0.157,0.37-0.284,0.55-0.379
			c0.181-0.096,0.363-0.163,0.551-0.202c0.187-0.039,0.38-0.058,0.581-0.058c0.706,0,1.24,0.208,1.603,0.625
			s0.544,1.045,0.544,1.883v4.478h-1.189v-4.382c0-0.538-0.101-0.936-0.301-1.193c-0.201-0.257-0.499-0.386-0.896-0.386
			c-0.146,0-0.288,0.021-0.428,0.065c-0.139,0.043-0.283,0.119-0.434,0.226s-0.313,0.252-0.489,0.434
			c-0.175,0.182-0.372,0.41-0.591,0.684v4.553h-1.189V157.04z"/>
		<path d="M429.45,166.706h-7.697v-0.984h7.697V166.706z"/>
		<path d="M432.779,158.024h-2.03v-0.984h3.233v5.872h2.044v0.991h-5.503v-0.991h2.256V158.024z M433.196,154.162
			c0.133,0,0.256,0.024,0.369,0.072c0.114,0.048,0.213,0.115,0.298,0.202c0.084,0.086,0.15,0.186,0.198,0.297
			s0.071,0.233,0.071,0.366c0,0.127-0.023,0.249-0.071,0.362s-0.114,0.214-0.198,0.301c-0.085,0.086-0.184,0.154-0.298,0.202
			c-0.113,0.048-0.236,0.072-0.369,0.072c-0.132,0-0.255-0.024-0.369-0.072c-0.113-0.048-0.213-0.115-0.297-0.202
			c-0.085-0.086-0.15-0.187-0.198-0.301s-0.072-0.235-0.072-0.362c0-0.132,0.024-0.254,0.072-0.366s0.113-0.211,0.198-0.297
			c0.084-0.086,0.184-0.154,0.297-0.202C432.941,154.186,433.064,154.162,433.196,154.162z"/>
		<path d="M437.493,160.615c0-0.583,0.08-1.102,0.239-1.555c0.16-0.454,0.387-0.836,0.681-1.148s0.646-0.549,1.06-0.711
			c0.412-0.162,0.871-0.243,1.377-0.243c0.219,0,0.435,0.014,0.646,0.041s0.42,0.071,0.625,0.13v-2.885h1.196v9.659h-1.066
			l-0.041-1.299c-0.332,0.483-0.692,0.841-1.08,1.073c-0.387,0.232-0.807,0.349-1.258,0.349c-0.392,0-0.737-0.082-1.035-0.246
			c-0.299-0.164-0.547-0.396-0.745-0.694s-0.348-0.657-0.448-1.077C437.544,161.59,437.493,161.125,437.493,160.615z M438.71,160.54
			c0,0.83,0.122,1.448,0.366,1.856c0.243,0.408,0.589,0.612,1.035,0.612c0.301,0,0.619-0.134,0.954-0.403s0.687-0.667,1.056-1.196
			v-3.186c-0.195-0.091-0.412-0.161-0.649-0.208c-0.236-0.048-0.472-0.072-0.704-0.072c-0.646,0-1.151,0.209-1.514,0.629
			S438.71,159.647,438.71,160.54z"/>
	</g>
	<g>
		<rect x="312.4" y="193.6" fill="none" width="189.2" height="22"/>
		<path d="M361.09,203.164c-0.27,0.068-0.547,0.117-0.834,0.147s-0.579,0.044-0.875,0.044c-0.861,0-1.504-0.195-1.928-0.584
			s-0.636-0.988-0.636-1.794v-3.582h-1.921v-0.998h1.921v-1.887l1.189-0.308v2.194h3.083v0.998h-3.083v3.486
			c0,0.492,0.131,0.86,0.393,1.104c0.263,0.244,0.648,0.366,1.159,0.366c0.219,0,0.458-0.017,0.718-0.051s0.53-0.088,0.813-0.161
			V203.164z"/>
		<path d="M363.071,196.397h1.087l0.034,1.265c0.406-0.488,0.806-0.841,1.2-1.06c0.394-0.219,0.792-0.328,1.192-0.328
			c0.711,0,1.25,0.23,1.617,0.69c0.366,0.46,0.536,1.144,0.509,2.051h-1.203c0.014-0.602-0.074-1.038-0.263-1.309
			c-0.189-0.271-0.466-0.407-0.831-0.407c-0.159,0-0.32,0.028-0.481,0.085c-0.162,0.057-0.328,0.148-0.499,0.273
			s-0.353,0.286-0.544,0.482s-0.396,0.433-0.615,0.711v4.409h-1.203V196.397z"/>
		<path d="M374.536,203.26l-0.027-0.923c-0.373,0.369-0.753,0.636-1.138,0.8c-0.386,0.164-0.79,0.246-1.214,0.246
			c-0.392,0-0.727-0.05-1.005-0.15c-0.277-0.1-0.507-0.238-0.687-0.414c-0.181-0.175-0.312-0.382-0.396-0.619
			c-0.085-0.237-0.127-0.495-0.127-0.772c0-0.688,0.257-1.227,0.77-1.617s1.271-0.584,2.272-0.584h1.422v-0.602
			c0-0.406-0.13-0.73-0.39-0.974s-0.656-0.366-1.189-0.366c-0.387,0-0.769,0.043-1.145,0.13s-0.765,0.209-1.166,0.369v-1.073
			c0.15-0.055,0.318-0.108,0.503-0.161s0.379-0.099,0.584-0.14s0.42-0.074,0.643-0.099c0.224-0.025,0.449-0.038,0.677-0.038
			c0.415,0,0.789,0.045,1.121,0.137c0.333,0.091,0.614,0.23,0.845,0.417c0.229,0.187,0.406,0.421,0.529,0.704
			s0.185,0.615,0.185,0.998v4.73H374.536z M374.406,200.136h-1.511c-0.296,0-0.551,0.03-0.766,0.089
			c-0.214,0.059-0.39,0.144-0.526,0.253s-0.238,0.24-0.304,0.393c-0.066,0.153-0.1,0.325-0.1,0.516c0,0.132,0.021,0.259,0.062,0.379
			s0.107,0.228,0.198,0.321c0.092,0.093,0.21,0.167,0.355,0.222c0.146,0.055,0.324,0.082,0.533,0.082c0.273,0,0.587-0.083,0.94-0.25
			c0.353-0.167,0.726-0.43,1.117-0.79V200.136z"/>
		<path d="M377.774,196.397h1.06l0.048,1.107c0.2-0.237,0.394-0.434,0.581-0.591c0.187-0.157,0.37-0.284,0.55-0.379
			c0.181-0.096,0.363-0.163,0.551-0.202c0.187-0.039,0.38-0.058,0.581-0.058c0.706,0,1.24,0.208,1.603,0.625
			s0.544,1.045,0.544,1.883v4.478h-1.189v-4.382c0-0.538-0.101-0.936-0.301-1.193c-0.201-0.257-0.499-0.386-0.896-0.386
			c-0.146,0-0.288,0.021-0.428,0.065c-0.139,0.043-0.283,0.119-0.434,0.226s-0.313,0.252-0.489,0.434
			c-0.175,0.182-0.372,0.41-0.591,0.684v4.553h-1.189V196.397z"/>
		<path d="M390.558,201.387c0,0.242-0.041,0.458-0.123,0.649s-0.193,0.361-0.335,0.509c-0.141,0.148-0.305,0.274-0.492,0.379
			c-0.187,0.105-0.386,0.191-0.598,0.26s-0.43,0.119-0.653,0.15c-0.223,0.032-0.441,0.048-0.656,0.048
			c-0.465,0-0.892-0.021-1.281-0.062s-0.771-0.107-1.146-0.198v-1.094c0.401,0.114,0.8,0.201,1.196,0.26s0.791,0.089,1.183,0.089
			c0.57,0,0.991-0.078,1.265-0.232s0.41-0.376,0.41-0.663c0-0.123-0.021-0.233-0.064-0.332c-0.044-0.098-0.122-0.191-0.236-0.28
			c-0.113-0.089-0.29-0.181-0.529-0.277s-0.566-0.205-0.981-0.328c-0.31-0.091-0.596-0.195-0.857-0.311
			c-0.263-0.116-0.489-0.254-0.681-0.414s-0.342-0.346-0.451-0.561s-0.164-0.467-0.164-0.759c0-0.191,0.045-0.401,0.134-0.629
			s0.24-0.44,0.454-0.636c0.215-0.196,0.504-0.359,0.868-0.489c0.365-0.13,0.82-0.195,1.367-0.195c0.27,0,0.567,0.015,0.896,0.044
			s0.67,0.081,1.025,0.154v1.06c-0.373-0.091-0.728-0.158-1.062-0.202s-0.626-0.065-0.872-0.065c-0.296,0-0.546,0.023-0.748,0.068
			c-0.203,0.045-0.367,0.108-0.492,0.188c-0.126,0.08-0.216,0.173-0.271,0.28s-0.082,0.222-0.082,0.345s0.024,0.235,0.072,0.335
			s0.137,0.197,0.267,0.291s0.311,0.187,0.543,0.28s0.536,0.195,0.909,0.304c0.406,0.119,0.748,0.243,1.025,0.373
			c0.278,0.13,0.504,0.274,0.677,0.434c0.174,0.16,0.298,0.339,0.373,0.54S390.558,201.132,390.558,201.387z"/>
		<path d="M396.955,203.26l-0.027-0.923c-0.374,0.369-0.753,0.636-1.139,0.8c-0.385,0.164-0.789,0.246-1.213,0.246
			c-0.393,0-0.728-0.05-1.005-0.15c-0.278-0.1-0.507-0.238-0.688-0.414c-0.18-0.175-0.312-0.382-0.396-0.619
			c-0.084-0.237-0.126-0.495-0.126-0.772c0-0.688,0.256-1.227,0.769-1.617s1.271-0.584,2.273-0.584h1.422v-0.602
			c0-0.406-0.13-0.73-0.39-0.974s-0.656-0.366-1.189-0.366c-0.388,0-0.77,0.043-1.146,0.13s-0.765,0.209-1.165,0.369v-1.073
			c0.15-0.055,0.317-0.108,0.502-0.161s0.38-0.099,0.585-0.14s0.419-0.074,0.643-0.099c0.223-0.025,0.448-0.038,0.677-0.038
			c0.414,0,0.788,0.045,1.121,0.137c0.332,0.091,0.614,0.23,0.844,0.417c0.23,0.187,0.407,0.421,0.53,0.704s0.185,0.615,0.185,0.998
			v4.73H396.955z M396.825,200.136h-1.511c-0.297,0-0.552,0.03-0.766,0.089c-0.215,0.059-0.39,0.144-0.526,0.253
			s-0.238,0.24-0.305,0.393c-0.065,0.153-0.099,0.325-0.099,0.516c0,0.132,0.021,0.259,0.062,0.379s0.106,0.228,0.198,0.321
			c0.091,0.093,0.209,0.167,0.355,0.222c0.146,0.055,0.323,0.082,0.533,0.082c0.273,0,0.587-0.083,0.939-0.25
			c0.354-0.167,0.726-0.43,1.118-0.79V200.136z"/>
		<path d="M405.358,203.007c-0.311,0.119-0.628,0.206-0.954,0.263c-0.325,0.057-0.662,0.085-1.008,0.085
			c-1.085,0-1.92-0.294-2.506-0.882c-0.585-0.588-0.878-1.447-0.878-2.577c0-0.542,0.084-1.035,0.253-1.477
			c0.168-0.442,0.405-0.82,0.711-1.135c0.305-0.314,0.67-0.557,1.094-0.728s0.891-0.256,1.401-0.256
			c0.355,0,0.688,0.025,0.998,0.075c0.31,0.05,0.605,0.132,0.889,0.246v1.135c-0.297-0.155-0.599-0.268-0.906-0.338
			s-0.625-0.106-0.953-0.106c-0.306,0-0.594,0.058-0.865,0.174c-0.271,0.116-0.509,0.284-0.714,0.502s-0.367,0.485-0.485,0.8
			c-0.119,0.314-0.178,0.67-0.178,1.066c0,0.83,0.201,1.45,0.604,1.863s0.963,0.619,1.679,0.619c0.323,0,0.637-0.037,0.939-0.109
			c0.304-0.073,0.596-0.182,0.879-0.328V203.007z"/>
		<path d="M413.16,203.164c-0.27,0.068-0.547,0.117-0.834,0.147s-0.579,0.044-0.875,0.044c-0.861,0-1.504-0.195-1.928-0.584
			s-0.636-0.988-0.636-1.794v-3.582h-1.921v-0.998h1.921v-1.887l1.189-0.308v2.194h3.083v0.998h-3.083v3.486
			c0,0.492,0.131,0.86,0.393,1.104c0.263,0.244,0.648,0.366,1.159,0.366c0.219,0,0.458-0.017,0.718-0.051s0.53-0.088,0.813-0.161
			V203.164z"/>
		<path d="M417.303,197.381h-2.03v-0.984h3.233v5.872h2.044v0.991h-5.503v-0.991h2.256V197.381z M417.72,193.519
			c0.132,0,0.255,0.024,0.369,0.072c0.113,0.048,0.213,0.115,0.297,0.202c0.085,0.086,0.15,0.186,0.198,0.297
			s0.072,0.233,0.072,0.366c0,0.127-0.024,0.249-0.072,0.362s-0.113,0.214-0.198,0.301c-0.084,0.086-0.184,0.154-0.297,0.202
			c-0.114,0.048-0.237,0.072-0.369,0.072c-0.133,0-0.256-0.024-0.369-0.072c-0.114-0.048-0.213-0.115-0.298-0.202
			c-0.084-0.086-0.15-0.187-0.198-0.301s-0.071-0.235-0.071-0.362c0-0.132,0.023-0.254,0.071-0.366s0.114-0.211,0.198-0.297
			c0.085-0.086,0.184-0.154,0.298-0.202C417.464,193.543,417.587,193.519,417.72,193.519z"/>
		<path d="M428.332,199.774c0,0.533-0.075,1.022-0.226,1.466s-0.366,0.825-0.649,1.142c-0.282,0.317-0.626,0.563-1.032,0.738
			c-0.405,0.175-0.865,0.263-1.381,0.263c-0.492,0-0.933-0.076-1.322-0.229s-0.721-0.377-0.991-0.673
			c-0.271-0.296-0.479-0.663-0.622-1.101s-0.216-0.941-0.216-1.511c0-0.533,0.075-1.02,0.226-1.459s0.367-0.818,0.649-1.135
			c0.283-0.317,0.627-0.563,1.032-0.738c0.406-0.175,0.866-0.263,1.381-0.263c0.492,0,0.934,0.076,1.323,0.229
			s0.72,0.376,0.991,0.67c0.271,0.294,0.479,0.66,0.622,1.097S428.332,199.209,428.332,199.774z M427.115,199.828
			c0-0.424-0.047-0.794-0.14-1.111c-0.094-0.317-0.227-0.581-0.4-0.793c-0.173-0.212-0.384-0.372-0.632-0.479
			c-0.249-0.107-0.525-0.161-0.831-0.161c-0.355,0-0.659,0.069-0.912,0.208s-0.461,0.325-0.622,0.557
			c-0.162,0.232-0.28,0.502-0.355,0.81s-0.113,0.63-0.113,0.967c0,0.424,0.047,0.795,0.141,1.114
			c0.093,0.319,0.227,0.584,0.399,0.796c0.174,0.212,0.383,0.372,0.629,0.479s0.524,0.161,0.834,0.161
			c0.355,0,0.66-0.069,0.913-0.208s0.46-0.325,0.622-0.557c0.161-0.232,0.28-0.502,0.355-0.81S427.115,200.17,427.115,199.828z"/>
		<path d="M430.098,196.397h1.06l0.048,1.107c0.2-0.237,0.394-0.434,0.581-0.591c0.187-0.157,0.37-0.284,0.55-0.379
			c0.181-0.096,0.363-0.163,0.551-0.202c0.187-0.039,0.38-0.058,0.581-0.058c0.706,0,1.24,0.208,1.603,0.625
			s0.544,1.045,0.544,1.883v4.478h-1.189v-4.382c0-0.538-0.101-0.936-0.301-1.193c-0.201-0.257-0.499-0.386-0.896-0.386
			c-0.146,0-0.288,0.021-0.428,0.065c-0.139,0.043-0.283,0.119-0.434,0.226s-0.313,0.252-0.489,0.434
			c-0.175,0.182-0.372,0.41-0.591,0.684v4.553h-1.189V196.397z"/>
		<path d="M444.539,206.063h-7.697v-0.984h7.697V206.063z"/>
		<path d="M447.868,197.381h-2.03v-0.984h3.233v5.872h2.044v0.991h-5.503v-0.991h2.256V197.381z M448.285,193.519
			c0.133,0,0.256,0.024,0.369,0.072c0.114,0.048,0.213,0.115,0.298,0.202c0.084,0.086,0.15,0.186,0.198,0.297
			s0.071,0.233,0.071,0.366c0,0.127-0.023,0.249-0.071,0.362s-0.114,0.214-0.198,0.301c-0.085,0.086-0.184,0.154-0.298,0.202
			c-0.113,0.048-0.236,0.072-0.369,0.072c-0.132,0-0.255-0.024-0.369-0.072c-0.113-0.048-0.213-0.115-0.297-0.202
			c-0.085-0.086-0.15-0.187-0.198-0.301s-0.072-0.235-0.072-0.362c0-0.132,0.024-0.254,0.072-0.366s0.113-0.211,0.198-0.297
			c0.084-0.086,0.184-0.154,0.297-0.202C448.03,193.543,448.153,193.519,448.285,193.519z"/>
		<path d="M452.583,199.972c0-0.583,0.079-1.102,0.239-1.555c0.159-0.454,0.386-0.836,0.68-1.148s0.647-0.549,1.06-0.711
			c0.413-0.162,0.872-0.243,1.378-0.243c0.219,0,0.434,0.014,0.646,0.041s0.421,0.071,0.626,0.13v-2.885h1.196v9.659h-1.066
			l-0.041-1.299c-0.333,0.483-0.693,0.841-1.08,1.073c-0.388,0.232-0.807,0.349-1.258,0.349c-0.393,0-0.737-0.082-1.036-0.246
			c-0.298-0.164-0.547-0.396-0.745-0.694s-0.348-0.657-0.447-1.077C452.632,200.947,452.583,200.482,452.583,199.972z
			 M453.799,199.897c0,0.83,0.122,1.448,0.365,1.856c0.244,0.408,0.589,0.612,1.036,0.612c0.301,0,0.618-0.134,0.953-0.403
			s0.688-0.667,1.057-1.196v-3.186c-0.196-0.091-0.413-0.161-0.649-0.208c-0.237-0.048-0.472-0.072-0.704-0.072
			c-0.647,0-1.152,0.209-1.515,0.629S453.799,199.004,453.799,199.897z"/>
	</g>
	<g>
		<rect x="8.8" y="113.954" fill="none" width="189.2" height="22"/>
		<path d="M72.483,121.74c0,0.242-0.041,0.458-0.123,0.649s-0.194,0.361-0.335,0.509s-0.305,0.274-0.492,0.379
			s-0.386,0.191-0.598,0.26s-0.43,0.119-0.653,0.15s-0.442,0.048-0.656,0.048c-0.465,0-0.892-0.021-1.282-0.062
			s-0.771-0.107-1.145-0.198v-1.094c0.401,0.114,0.8,0.201,1.196,0.26s0.791,0.089,1.183,0.089c0.57,0,0.991-0.078,1.265-0.232
			s0.41-0.376,0.41-0.663c0-0.123-0.021-0.233-0.065-0.332s-0.122-0.191-0.236-0.28s-0.291-0.181-0.53-0.277
			s-0.566-0.205-0.981-0.328c-0.31-0.091-0.596-0.195-0.858-0.311s-0.489-0.254-0.68-0.414s-0.342-0.346-0.451-0.561
			s-0.164-0.467-0.164-0.759c0-0.191,0.044-0.401,0.133-0.629s0.24-0.44,0.455-0.636s0.503-0.359,0.868-0.489
			s0.82-0.195,1.367-0.195c0.269,0,0.567,0.015,0.896,0.044s0.67,0.081,1.025,0.154v1.06c-0.374-0.091-0.728-0.158-1.063-0.202
			s-0.625-0.065-0.872-0.065c-0.296,0-0.546,0.023-0.749,0.068s-0.367,0.108-0.492,0.188s-0.215,0.173-0.27,0.28
			s-0.082,0.222-0.082,0.345s0.024,0.235,0.072,0.335s0.137,0.197,0.267,0.291s0.311,0.187,0.543,0.28s0.536,0.195,0.909,0.304
			c0.406,0.119,0.748,0.243,1.025,0.373s0.503,0.274,0.677,0.434s0.297,0.339,0.373,0.54S72.483,121.485,72.483,121.74z"/>
		<path d="M80.273,119.82c0,0.168-0.002,0.31-0.007,0.424s-0.011,0.221-0.021,0.321h-4.819c0,0.702,0.196,1.241,0.588,1.617
			s0.957,0.564,1.695,0.564c0.201,0,0.401-0.008,0.602-0.024s0.394-0.038,0.581-0.065s0.366-0.058,0.537-0.092
			s0.329-0.072,0.475-0.113v0.978c-0.324,0.091-0.689,0.165-1.097,0.222s-0.831,0.085-1.268,0.085c-0.588,0-1.094-0.08-1.518-0.239
			s-0.771-0.391-1.042-0.694s-0.472-0.674-0.602-1.114s-0.195-0.938-0.195-1.494c0-0.483,0.069-0.94,0.208-1.371
			s0.342-0.809,0.608-1.135s0.594-0.584,0.981-0.776s0.827-0.287,1.319-0.287c0.479,0,0.902,0.075,1.271,0.226
			s0.68,0.363,0.933,0.639s0.444,0.611,0.574,1.005S80.273,119.332,80.273,119.82z M79.036,119.649
			c0.014-0.305-0.016-0.584-0.089-0.837s-0.186-0.471-0.338-0.653s-0.343-0.325-0.571-0.427s-0.492-0.154-0.793-0.154
			c-0.26,0-0.497,0.05-0.711,0.15s-0.399,0.242-0.554,0.424s-0.28,0.401-0.376,0.656s-0.155,0.536-0.178,0.841H79.036z"/>
		<path d="M87.262,121.74c0,0.242-0.041,0.458-0.123,0.649s-0.194,0.361-0.335,0.509s-0.305,0.274-0.492,0.379
			s-0.386,0.191-0.598,0.26s-0.43,0.119-0.653,0.15s-0.442,0.048-0.656,0.048c-0.465,0-0.892-0.021-1.282-0.062
			s-0.771-0.107-1.145-0.198v-1.094c0.401,0.114,0.8,0.201,1.196,0.26s0.791,0.089,1.183,0.089c0.57,0,0.991-0.078,1.265-0.232
			s0.41-0.376,0.41-0.663c0-0.123-0.021-0.233-0.065-0.332s-0.122-0.191-0.236-0.28s-0.291-0.181-0.53-0.277
			s-0.566-0.205-0.981-0.328c-0.31-0.091-0.596-0.195-0.858-0.311s-0.489-0.254-0.68-0.414s-0.342-0.346-0.451-0.561
			s-0.164-0.467-0.164-0.759c0-0.191,0.044-0.401,0.133-0.629s0.24-0.44,0.455-0.636s0.503-0.359,0.868-0.489
			s0.82-0.195,1.367-0.195c0.269,0,0.567,0.015,0.896,0.044s0.67,0.081,1.025,0.154v1.06c-0.374-0.091-0.728-0.158-1.063-0.202
			s-0.625-0.065-0.872-0.065c-0.296,0-0.546,0.023-0.749,0.068s-0.367,0.108-0.492,0.188s-0.215,0.173-0.27,0.28
			s-0.082,0.222-0.082,0.345s0.024,0.235,0.072,0.335s0.137,0.197,0.267,0.291s0.311,0.187,0.543,0.28s0.536,0.195,0.909,0.304
			c0.406,0.119,0.748,0.243,1.025,0.373s0.503,0.274,0.677,0.434s0.297,0.339,0.373,0.54S87.262,121.485,87.262,121.74z"/>
		<path d="M94.48,121.74c0,0.242-0.041,0.458-0.123,0.649s-0.194,0.361-0.335,0.509s-0.305,0.274-0.492,0.379
			s-0.386,0.191-0.598,0.26s-0.43,0.119-0.653,0.15s-0.442,0.048-0.656,0.048c-0.465,0-0.892-0.021-1.282-0.062
			s-0.771-0.107-1.145-0.198v-1.094c0.401,0.114,0.8,0.201,1.196,0.26s0.791,0.089,1.183,0.089c0.57,0,0.991-0.078,1.265-0.232
			s0.41-0.376,0.41-0.663c0-0.123-0.021-0.233-0.065-0.332s-0.122-0.191-0.236-0.28s-0.291-0.181-0.53-0.277
			s-0.566-0.205-0.981-0.328c-0.31-0.091-0.596-0.195-0.858-0.311s-0.489-0.254-0.68-0.414s-0.342-0.346-0.451-0.561
			s-0.164-0.467-0.164-0.759c0-0.191,0.044-0.401,0.133-0.629s0.24-0.44,0.455-0.636s0.503-0.359,0.868-0.489
			s0.82-0.195,1.367-0.195c0.269,0,0.567,0.015,0.896,0.044s0.67,0.081,1.025,0.154v1.06c-0.374-0.091-0.728-0.158-1.063-0.202
			s-0.625-0.065-0.872-0.065c-0.296,0-0.546,0.023-0.749,0.068s-0.367,0.108-0.492,0.188s-0.215,0.173-0.27,0.28
			s-0.082,0.222-0.082,0.345s0.024,0.235,0.072,0.335s0.137,0.197,0.267,0.291s0.311,0.187,0.543,0.28s0.536,0.195,0.909,0.304
			c0.406,0.119,0.748,0.243,1.025,0.373s0.503,0.274,0.677,0.434s0.297,0.339,0.373,0.54S94.48,121.485,94.48,121.74z"/>
		<path d="M98.614,117.735h-2.03v-0.984h3.233v5.872h2.044v0.991h-5.503v-0.991h2.256V117.735z M99.031,113.872
			c0.132,0,0.255,0.024,0.369,0.072s0.213,0.115,0.297,0.202s0.15,0.186,0.198,0.297s0.072,0.233,0.072,0.366
			c0,0.127-0.024,0.249-0.072,0.362s-0.114,0.214-0.198,0.301s-0.184,0.154-0.297,0.202s-0.237,0.072-0.369,0.072
			s-0.255-0.024-0.369-0.072s-0.213-0.115-0.297-0.202s-0.15-0.187-0.198-0.301s-0.072-0.235-0.072-0.362
			c0-0.132,0.024-0.254,0.072-0.366s0.114-0.211,0.198-0.297s0.184-0.154,0.297-0.202S98.899,113.872,99.031,113.872z"/>
		<path d="M109.643,120.127c0,0.533-0.075,1.022-0.226,1.466s-0.367,0.825-0.649,1.142s-0.626,0.563-1.032,0.738
			s-0.866,0.263-1.381,0.263c-0.492,0-0.933-0.076-1.323-0.229s-0.72-0.377-0.991-0.673s-0.479-0.663-0.622-1.101
			s-0.215-0.941-0.215-1.511c0-0.533,0.075-1.02,0.226-1.459s0.367-0.818,0.649-1.135s0.626-0.563,1.032-0.738
			s0.866-0.263,1.381-0.263c0.492,0,0.933,0.076,1.323,0.229s0.72,0.376,0.991,0.67s0.479,0.66,0.622,1.097
			S109.643,119.562,109.643,120.127z M108.426,120.182c0-0.424-0.047-0.794-0.14-1.111s-0.227-0.581-0.4-0.793
			s-0.384-0.372-0.632-0.479s-0.525-0.161-0.831-0.161c-0.355,0-0.66,0.069-0.913,0.208s-0.46,0.325-0.622,0.557
			s-0.28,0.502-0.355,0.81s-0.113,0.63-0.113,0.967c0,0.424,0.047,0.795,0.14,1.114s0.227,0.584,0.4,0.796s0.383,0.372,0.629,0.479
			s0.524,0.161,0.834,0.161c0.355,0,0.66-0.069,0.913-0.208s0.46-0.325,0.622-0.557s0.28-0.502,0.355-0.81
			S108.426,120.524,108.426,120.182z"/>
		<path d="M111.409,116.75h1.06l0.048,1.107c0.201-0.237,0.395-0.434,0.581-0.591c0.188-0.157,0.37-0.284,0.551-0.379
			c0.18-0.096,0.363-0.163,0.55-0.202c0.188-0.039,0.381-0.058,0.581-0.058c0.707,0,1.241,0.208,1.604,0.625
			s0.543,1.045,0.543,1.883v4.478h-1.189v-4.382c0-0.538-0.1-0.936-0.301-1.193c-0.2-0.257-0.499-0.386-0.896-0.386
			c-0.146,0-0.288,0.021-0.427,0.065c-0.14,0.043-0.284,0.119-0.435,0.226s-0.313,0.252-0.488,0.434
			c-0.176,0.182-0.373,0.41-0.592,0.684v4.553h-1.189V116.75z"/>
		<path d="M125.85,126.416h-7.697v-0.984h7.697V126.416z"/>
		<path d="M129.179,117.735h-2.03v-0.984h3.233v5.872h2.044v0.991h-5.503v-0.991h2.256V117.735z M129.596,113.872
			c0.132,0,0.255,0.024,0.369,0.072c0.113,0.048,0.213,0.115,0.297,0.202c0.085,0.086,0.15,0.186,0.198,0.297
			s0.072,0.233,0.072,0.366c0,0.127-0.024,0.249-0.072,0.362s-0.113,0.214-0.198,0.301c-0.084,0.086-0.184,0.154-0.297,0.202
			c-0.114,0.048-0.237,0.072-0.369,0.072c-0.133,0-0.256-0.024-0.369-0.072c-0.114-0.048-0.213-0.115-0.298-0.202
			c-0.084-0.086-0.15-0.187-0.198-0.301s-0.071-0.235-0.071-0.362c0-0.132,0.023-0.254,0.071-0.366s0.114-0.211,0.198-0.297
			c0.085-0.086,0.184-0.154,0.298-0.202C129.34,113.896,129.463,113.872,129.596,113.872z"/>
		<path d="M133.893,120.325c0-0.583,0.079-1.102,0.239-1.555c0.159-0.454,0.386-0.836,0.68-1.148s0.647-0.549,1.06-0.711
			c0.413-0.162,0.872-0.243,1.378-0.243c0.219,0,0.434,0.014,0.646,0.041s0.421,0.071,0.626,0.13v-2.885h1.196v9.659h-1.066
			l-0.041-1.299c-0.333,0.483-0.693,0.841-1.08,1.073c-0.388,0.232-0.807,0.349-1.258,0.349c-0.393,0-0.737-0.082-1.036-0.246
			c-0.298-0.164-0.547-0.396-0.745-0.694s-0.348-0.657-0.447-1.077C133.943,121.3,133.893,120.836,133.893,120.325z M135.11,120.25
			c0,0.83,0.122,1.448,0.365,1.856c0.244,0.408,0.589,0.612,1.036,0.612c0.301,0,0.618-0.134,0.953-0.403s0.688-0.667,1.057-1.196
			v-3.186c-0.196-0.091-0.413-0.161-0.649-0.208c-0.237-0.048-0.472-0.072-0.704-0.072c-0.647,0-1.152,0.209-1.515,0.629
			S135.11,119.357,135.11,120.25z"/>
	</g>
</g>
<g id="Layer_1">
</g>
</svg>
