<?xml version="1.0" encoding="utf-8"?>
<!-- Generator: Adobe Illustrator 26.3.1, SVG Export Plug-In . SVG Version: 6.00 Build 0)  -->
<svg version="1.1" xmlns="http://www.w3.org/2000/svg" xmlns:xlink="http://www.w3.org/1999/xlink" x="0px" y="0px"
	 viewBox="0 0 510.4 145.2" enable-background="new 0 0 510.4 145.2" xml:space="preserve">
<symbol  id="PIPELINE" viewBox="-32 -12.266 64 24.531">
	<linearGradient id="SVGID_1_" gradientUnits="userSpaceOnUse" x1="0" y1="-12.2655" x2="1.502093e-15" y2="12.2655">
		<stop  offset="0" style="stop-color:#1B89B2"/>
		<stop  offset="1" style="stop-color:#51C8E8"/>
	</linearGradient>
	<path fill="url(#SVGID_1_)" d="M26.096,12.266h-51.448v0h0C-29.08,12.265-32,6.878-32,0s2.92-12.265,6.648-12.265h0v0h51.448
		C29.356-12.266,32-6.363,32,0S29.356,12.266,26.096,12.266z"/>
	<g>
		
			<linearGradient id="SVGID_00000146461921867851294490000013915639962773349763_" gradientUnits="userSpaceOnUse" x1="-31.461" y1="-6.1136" x2="-19.2338" y2="6.1136">
			<stop  offset="0" style="stop-color:#B3B4B4"/>
			<stop  offset="1" style="stop-color:#4F4F4F"/>
		</linearGradient>
		<ellipse fill="url(#SVGID_00000146461921867851294490000013915639962773349763_)" cx="-25.347" cy="0" rx="5.575" ry="10.879"/>
	</g>
</symbol>
<g id="Shapes">
	<rect fill="#FFFFFF" width="510.4" height="145.2"/>
	<g id="Wrench_tool_x28_s_x29_">
	</g>
	<g id="user2">
	</g>
	<g id="user2_1_">
	</g>
	<g id="user2_4_">
	</g>
	<g id="user2_3_">
	</g>
	<g id="user2_2_">
	</g>
	<g id="Internet_2">
	</g>
	<g id="Enterprise">
	</g>
	<g id="Tunnel__x28_stackable_x29_">
	</g>
	<g id="New_Symbol">
	</g>
	<g id="New_Symbol_1">
	</g>
	<g id="Files">
	</g>
	<g id="BlobBlock">
	</g>
	<g id="E_x5F_Enterprise">
	</g>
	<g id="E_x5F_AD_FS">
	</g>
	<g id="C_x5F_Azure_Active_Directory">
	</g>
	<g>
		<g opacity="0.3">
			<rect x="5.4" y="5.701" fill="#212121" width="198" height="57.2"/>
			<rect x="5.4" y="5.701" opacity="0.35" fill="#212121" width="198" height="57.2"/>
		</g>
		<g>
			<rect x="4.4" y="4.701" fill="#FFFFFF" width="198" height="57.2"/>
			<rect x="4.4" y="4.701" opacity="0.35" fill="#1B93EB" width="198" height="57.2"/>
		</g>
	</g>
	<g>
		<g opacity="0.3">
			<rect x="5.4" y="62.901" fill="#212121" width="198" height="39.6"/>
			<rect x="5.4" y="62.901" opacity="0.15" fill="#212121" width="198" height="39.6"/>
		</g>
		<g>
			<rect x="4.4" y="61.901" fill="#FFFFFF" width="198" height="39.6"/>
			<rect x="4.4" y="61.901" opacity="0.15" fill="#1B93EB" width="198" height="39.6"/>
		</g>
	</g>
	<g>
		<g opacity="0.3">
			<rect x="309" y="5.701" fill="#212121" width="198" height="57.2"/>
			<rect x="309" y="5.701" opacity="0.35" fill="#212121" width="198" height="57.2"/>
		</g>
		<g>
			<rect x="308" y="4.701" fill="#FFFFFF" width="198" height="57.2"/>
			<rect x="308" y="4.701" opacity="0.35" fill="#1B93EB" width="198" height="57.2"/>
		</g>
	</g>
	<g>
		<g opacity="0.3">
			<rect x="309" y="62.901" fill="#212121" width="198" height="39.6"/>
			<rect x="309" y="62.901" opacity="0.15" fill="#212121" width="198" height="39.6"/>
		</g>
		<g>
			<rect x="308" y="61.901" fill="#FFFFFF" width="198" height="39.6"/>
			<rect x="308" y="61.901" opacity="0.15" fill="#1B93EB" width="198" height="39.6"/>
		</g>
	</g>
	<g>
		<g opacity="0.3">
			<rect x="309" y="102.501" fill="#212121" width="198" height="39.6"/>
			<rect x="309" y="102.501" opacity="0.15" fill="#212121" width="198" height="39.6"/>
		</g>
		<g>
			<rect x="308" y="101.501" fill="#FFFFFF" width="198" height="39.6"/>
			<rect x="308" y="101.501" opacity="0.15" fill="#1B93EB" width="198" height="39.6"/>
		</g>
	</g>
	<line fill="none" stroke="#005CA1" x1="202.4" y1="83.901" x2="308" y2="83.901"/>
	<line fill="none" stroke="#005CA1" x1="211.2" y1="78.401" x2="211.2" y2="89.401"/>
	<line fill="none" stroke="#005CA1" x1="299.2" y1="78.401" x2="299.2" y2="89.401"/>
	<line fill="none" stroke="#A3A3A3" stroke-width="0.75" stroke-miterlimit="10" x1="308" y1="101.501" x2="506" y2="101.501"/>
</g>
<g id="Text">
	<g>
		<rect x="43.44" y="20.401" fill="none" width="119.921" height="41.5"/>
		<path d="M50.988,30.061l-0.041-1.025c-0.146,0.178-0.296,0.339-0.451,0.485c-0.155,0.146-0.321,0.27-0.499,0.372
			s-0.368,0.183-0.571,0.239c-0.203,0.058-0.427,0.086-0.673,0.086c-0.41,0-0.775-0.082-1.094-0.246s-0.587-0.397-0.803-0.701
			c-0.216-0.303-0.382-0.671-0.496-1.104c-0.114-0.434-0.171-0.916-0.171-1.449c0-0.639,0.09-1.19,0.27-1.658
			c0.18-0.467,0.43-0.854,0.749-1.162s0.697-0.535,1.135-0.684c0.438-0.147,0.914-0.222,1.429-0.222
			c0.173,0,0.348,0.011,0.523,0.034c0.175,0.022,0.332,0.052,0.468,0.089v-2.714h1.668v9.659H50.988z M47.94,26.643
			c0,0.383,0.026,0.71,0.079,0.98c0.052,0.271,0.13,0.493,0.232,0.667c0.103,0.173,0.229,0.3,0.379,0.379
			c0.15,0.08,0.321,0.12,0.513,0.12c0.283,0,0.551-0.114,0.807-0.342c0.255-0.229,0.526-0.54,0.813-0.937v-3.035
			c-0.132-0.051-0.295-0.092-0.489-0.123c-0.194-0.032-0.389-0.048-0.584-0.048c-0.269,0-0.51,0.055-0.725,0.164
			s-0.397,0.264-0.55,0.465c-0.153,0.2-0.27,0.445-0.352,0.734C47.981,25.958,47.94,26.283,47.94,26.643z"/>
		<path d="M59.485,30.061v-4.73c0-0.174-0.004-0.325-0.014-0.455s-0.027-0.238-0.055-0.324c-0.027-0.087-0.067-0.151-0.12-0.195
			c-0.052-0.043-0.124-0.064-0.215-0.064c-0.141,0-0.28,0.096-0.417,0.287s-0.292,0.517-0.465,0.978v4.505h-1.429v-4.73
			c0-0.174-0.004-0.325-0.014-0.455s-0.027-0.238-0.055-0.324c-0.027-0.087-0.068-0.151-0.123-0.195
			c-0.055-0.043-0.127-0.064-0.219-0.064c-0.119,0-0.25,0.096-0.396,0.287s-0.308,0.517-0.485,0.978v4.505h-1.442v-6.945h1.237
			l0.027,1.012c0.1-0.205,0.201-0.381,0.301-0.526c0.1-0.146,0.208-0.266,0.321-0.359c0.114-0.093,0.236-0.16,0.366-0.201
			s0.277-0.062,0.441-0.062c0.387,0,0.683,0.102,0.885,0.304c0.203,0.203,0.318,0.484,0.345,0.845
			c0.109-0.205,0.218-0.381,0.325-0.526c0.107-0.146,0.219-0.266,0.335-0.359c0.116-0.093,0.242-0.16,0.376-0.201
			s0.284-0.062,0.448-0.062c0.506,0,0.879,0.177,1.121,0.529c0.242,0.354,0.362,0.876,0.362,1.569v4.983H59.485z"/>
		<path d="M61.709,32.864v-1.319h7.697v1.319H61.709z"/>
		<path d="M74.759,30.061l-0.041-1.025c-0.146,0.178-0.296,0.339-0.451,0.485c-0.155,0.146-0.321,0.27-0.499,0.372
			s-0.368,0.183-0.571,0.239c-0.203,0.058-0.427,0.086-0.673,0.086c-0.41,0-0.775-0.082-1.094-0.246s-0.587-0.397-0.803-0.701
			c-0.216-0.303-0.382-0.671-0.496-1.104c-0.114-0.434-0.171-0.916-0.171-1.449c0-0.639,0.09-1.19,0.27-1.658
			c0.18-0.467,0.43-0.854,0.749-1.162s0.697-0.535,1.135-0.684c0.438-0.147,0.914-0.222,1.429-0.222
			c0.173,0,0.348,0.011,0.523,0.034c0.175,0.022,0.332,0.052,0.468,0.089v-2.714h1.668v9.659H74.759z M71.711,26.643
			c0,0.383,0.026,0.71,0.079,0.98c0.052,0.271,0.13,0.493,0.232,0.667c0.103,0.173,0.229,0.3,0.379,0.379
			c0.15,0.08,0.321,0.12,0.513,0.12c0.283,0,0.551-0.114,0.807-0.342c0.255-0.229,0.526-0.54,0.813-0.937v-3.035
			c-0.132-0.051-0.295-0.092-0.489-0.123c-0.194-0.032-0.389-0.048-0.584-0.048c-0.269,0-0.51,0.055-0.725,0.164
			s-0.397,0.264-0.55,0.465c-0.153,0.2-0.27,0.445-0.352,0.734C71.752,25.958,71.711,26.283,71.711,26.643z"/>
		<path d="M84.329,26.465c0,0.638-0.09,1.189-0.27,1.654s-0.431,0.851-0.752,1.158s-0.701,0.536-1.138,0.684
			c-0.438,0.148-0.914,0.223-1.429,0.223c-0.506,0-0.977-0.038-1.412-0.113s-0.851-0.177-1.248-0.304v-9.365h1.668v2.27
			l-0.068,1.367c0.25-0.324,0.543-0.584,0.878-0.779c0.335-0.196,0.737-0.294,1.207-0.294c0.41,0,0.775,0.082,1.094,0.246
			s0.587,0.397,0.803,0.7c0.216,0.304,0.382,0.67,0.496,1.101S84.329,25.927,84.329,26.465z M82.579,26.534
			c0-0.383-0.027-0.709-0.082-0.978c-0.055-0.27-0.133-0.49-0.236-0.663c-0.103-0.174-0.228-0.3-0.376-0.38
			c-0.148-0.079-0.318-0.119-0.509-0.119c-0.283,0-0.553,0.113-0.81,0.342c-0.257,0.228-0.53,0.537-0.817,0.93v3.035
			c0.132,0.05,0.295,0.091,0.489,0.123c0.194,0.031,0.391,0.048,0.591,0.048c0.264,0,0.505-0.055,0.721-0.164
			s0.401-0.265,0.554-0.465c0.153-0.201,0.27-0.445,0.352-0.735C82.538,27.218,82.579,26.893,82.579,26.534z"/>
		<path d="M84.757,32.864v-1.319h7.697v1.319H84.757z"/>
		<path d="M98.691,30.061v-4.73c0-0.174-0.004-0.325-0.014-0.455s-0.027-0.238-0.055-0.324c-0.027-0.087-0.067-0.151-0.12-0.195
			c-0.052-0.043-0.124-0.064-0.215-0.064c-0.141,0-0.28,0.096-0.417,0.287s-0.292,0.517-0.465,0.978v4.505h-1.429v-4.73
			c0-0.174-0.004-0.325-0.014-0.455s-0.027-0.238-0.055-0.324c-0.027-0.087-0.068-0.151-0.123-0.195
			c-0.055-0.043-0.127-0.064-0.219-0.064c-0.119,0-0.25,0.096-0.396,0.287s-0.308,0.517-0.485,0.978v4.505h-1.442v-6.945h1.237
			l0.027,1.012c0.1-0.205,0.201-0.381,0.301-0.526c0.1-0.146,0.208-0.266,0.321-0.359c0.114-0.093,0.236-0.16,0.366-0.201
			s0.277-0.062,0.441-0.062c0.387,0,0.683,0.102,0.885,0.304c0.203,0.203,0.318,0.484,0.345,0.845
			c0.109-0.205,0.218-0.381,0.325-0.526c0.107-0.146,0.219-0.266,0.335-0.359c0.116-0.093,0.242-0.16,0.376-0.201
			s0.284-0.062,0.448-0.062c0.506,0,0.879,0.177,1.121,0.529c0.242,0.354,0.362,0.876,0.362,1.569v4.983H98.691z"/>
		<path d="M103.657,24.414h-1.962v-1.299h3.671v5.646h2.003v1.299h-5.913v-1.299h2.201V24.414z M105.503,21.215
			c0,0.15-0.027,0.291-0.082,0.424c-0.055,0.132-0.131,0.247-0.229,0.345c-0.098,0.099-0.213,0.176-0.345,0.232
			c-0.132,0.058-0.276,0.086-0.431,0.086s-0.3-0.028-0.434-0.086c-0.134-0.057-0.25-0.134-0.349-0.232
			c-0.098-0.098-0.174-0.213-0.229-0.345c-0.055-0.133-0.082-0.273-0.082-0.424s0.027-0.292,0.082-0.424
			c0.055-0.133,0.131-0.249,0.229-0.349c0.098-0.101,0.214-0.179,0.349-0.236c0.134-0.057,0.279-0.085,0.434-0.085
			s0.298,0.028,0.431,0.085c0.132,0.058,0.247,0.136,0.345,0.236c0.098,0.1,0.174,0.216,0.229,0.349
			C105.476,20.923,105.503,21.065,105.503,21.215z"/>
		<path d="M113.204,25.816c0.009-0.26-0.003-0.481-0.038-0.663c-0.034-0.183-0.089-0.333-0.164-0.451
			c-0.075-0.119-0.167-0.205-0.277-0.26s-0.235-0.082-0.376-0.082c-0.246,0-0.5,0.102-0.762,0.304
			c-0.262,0.203-0.55,0.537-0.865,1.002v4.396h-1.709v-6.945h1.511l0.062,1.012c0.114-0.178,0.243-0.338,0.386-0.479
			c0.144-0.142,0.303-0.264,0.479-0.366s0.37-0.181,0.584-0.235s0.449-0.082,0.704-0.082c0.351,0,0.662,0.061,0.933,0.181
			c0.271,0.121,0.499,0.3,0.684,0.537c0.185,0.236,0.321,0.534,0.41,0.892c0.089,0.358,0.126,0.771,0.113,1.241H113.204z"/>
		<path d="M120.62,25.816c0.009-0.26-0.003-0.481-0.038-0.663c-0.034-0.183-0.089-0.333-0.164-0.451
			c-0.075-0.119-0.167-0.205-0.277-0.26s-0.235-0.082-0.376-0.082c-0.246,0-0.5,0.102-0.762,0.304
			c-0.262,0.203-0.55,0.537-0.865,1.002v4.396h-1.709v-6.945h1.511l0.062,1.012c0.114-0.178,0.243-0.338,0.386-0.479
			c0.144-0.142,0.303-0.264,0.479-0.366s0.37-0.181,0.584-0.235s0.449-0.082,0.704-0.082c0.351,0,0.662,0.061,0.933,0.181
			c0.271,0.121,0.499,0.3,0.684,0.537c0.185,0.236,0.321,0.534,0.41,0.892c0.089,0.358,0.126,0.771,0.113,1.241H120.62z"/>
		<path d="M130.164,26.534c0,0.547-0.078,1.047-0.232,1.5c-0.155,0.454-0.378,0.842-0.67,1.166
			c-0.292,0.323-0.649,0.574-1.073,0.752s-0.907,0.267-1.449,0.267c-0.515,0-0.975-0.075-1.381-0.226s-0.75-0.375-1.032-0.674
			c-0.283-0.298-0.499-0.672-0.649-1.121c-0.15-0.448-0.226-0.972-0.226-1.568c0-0.552,0.079-1.053,0.236-1.504
			s0.383-0.837,0.677-1.155c0.294-0.319,0.653-0.566,1.077-0.742c0.424-0.175,0.902-0.263,1.436-0.263
			c0.52,0,0.982,0.076,1.388,0.229c0.406,0.153,0.75,0.38,1.032,0.681s0.498,0.673,0.646,1.117S130.164,25.95,130.164,26.534z
			 M128.428,26.575c0-0.721-0.136-1.262-0.407-1.624s-0.671-0.543-1.2-0.543c-0.292,0-0.54,0.057-0.745,0.171
			c-0.205,0.113-0.374,0.27-0.506,0.468s-0.229,0.43-0.291,0.694c-0.062,0.264-0.092,0.547-0.092,0.848
			c0,0.725,0.146,1.271,0.438,1.637c0.292,0.367,0.69,0.551,1.196,0.551c0.278,0,0.52-0.056,0.725-0.168
			c0.205-0.111,0.372-0.267,0.499-0.465s0.223-0.432,0.287-0.7C128.396,27.173,128.428,26.884,128.428,26.575z"/>
		<path d="M135.996,25.816c0.009-0.26-0.003-0.481-0.038-0.663c-0.034-0.183-0.089-0.333-0.164-0.451
			c-0.075-0.119-0.167-0.205-0.277-0.26s-0.235-0.082-0.376-0.082c-0.246,0-0.5,0.102-0.762,0.304
			c-0.262,0.203-0.55,0.537-0.865,1.002v4.396h-1.709v-6.945h1.511l0.062,1.012c0.114-0.178,0.243-0.338,0.386-0.479
			c0.144-0.142,0.303-0.264,0.479-0.366s0.37-0.181,0.584-0.235s0.449-0.082,0.704-0.082c0.351,0,0.662,0.061,0.933,0.181
			c0.271,0.121,0.499,0.3,0.684,0.537c0.185,0.236,0.321,0.534,0.41,0.892c0.089,0.358,0.126,0.771,0.113,1.241H135.996z"/>
		<path d="M141.128,24.414h-1.962v-1.299h3.671v5.646h2.003v1.299h-5.913v-1.299h2.201V24.414z M142.973,21.215
			c0,0.15-0.027,0.291-0.082,0.424c-0.055,0.132-0.131,0.247-0.229,0.345c-0.098,0.099-0.213,0.176-0.345,0.232
			c-0.132,0.058-0.276,0.086-0.431,0.086s-0.3-0.028-0.434-0.086c-0.134-0.057-0.25-0.134-0.349-0.232
			c-0.098-0.098-0.174-0.213-0.229-0.345c-0.055-0.133-0.082-0.273-0.082-0.424s0.027-0.292,0.082-0.424
			c0.055-0.133,0.131-0.249,0.229-0.349c0.098-0.101,0.214-0.179,0.349-0.236c0.134-0.057,0.279-0.085,0.434-0.085
			s0.298,0.028,0.431,0.085c0.132,0.058,0.247,0.136,0.345,0.236c0.098,0.1,0.174,0.216,0.229,0.349
			C142.946,20.923,142.973,21.065,142.973,21.215z"/>
		<path d="M150.486,30.061v-4.525c0-0.762-0.283-1.142-0.848-1.142c-0.283,0-0.553,0.113-0.81,0.342
			c-0.257,0.228-0.53,0.537-0.817,0.93v4.396h-1.668v-6.945h1.442l0.041,1.025c0.141-0.178,0.288-0.34,0.441-0.485
			c0.153-0.146,0.318-0.271,0.496-0.373s0.369-0.181,0.574-0.235s0.435-0.082,0.69-0.082c0.355,0,0.666,0.058,0.93,0.174
			s0.485,0.28,0.663,0.492s0.311,0.468,0.4,0.766c0.089,0.299,0.133,0.633,0.133,1.002v4.662H150.486z"/>
		<path d="M159.143,24.332c0.127,0.159,0.218,0.327,0.27,0.502c0.052,0.176,0.079,0.354,0.079,0.537
			c0,0.387-0.067,0.729-0.202,1.025c-0.134,0.296-0.324,0.544-0.567,0.745c-0.244,0.2-0.536,0.352-0.875,0.454
			s-0.714,0.154-1.125,0.154c-0.242,0-0.465-0.024-0.67-0.072s-0.36-0.104-0.465-0.167c-0.078,0.077-0.144,0.163-0.198,0.256
			c-0.055,0.094-0.082,0.199-0.082,0.318c0,0.072,0.018,0.146,0.055,0.219c0.037,0.072,0.09,0.138,0.161,0.194
			c0.071,0.058,0.155,0.104,0.253,0.141c0.098,0.036,0.208,0.057,0.332,0.062l1.647,0.062c0.369,0.009,0.703,0.056,1.001,0.14
			c0.298,0.085,0.555,0.204,0.769,0.359c0.214,0.154,0.379,0.343,0.496,0.563c0.116,0.222,0.174,0.473,0.174,0.756
			c0,0.323-0.073,0.629-0.219,0.916s-0.366,0.536-0.66,0.748s-0.66,0.38-1.097,0.503s-0.946,0.185-1.524,0.185
			c-0.561,0-1.042-0.045-1.446-0.134s-0.734-0.213-0.991-0.372c-0.257-0.16-0.448-0.35-0.571-0.571
			c-0.123-0.221-0.185-0.464-0.185-0.728c0-0.16,0.021-0.308,0.062-0.444s0.103-0.268,0.185-0.394
			c0.082-0.125,0.185-0.247,0.308-0.365c0.123-0.119,0.269-0.237,0.438-0.355c-0.223-0.128-0.393-0.292-0.509-0.492
			c-0.116-0.201-0.174-0.415-0.174-0.643c0-0.155,0.021-0.3,0.062-0.435c0.041-0.134,0.095-0.263,0.161-0.386
			s0.143-0.242,0.229-0.355c0.086-0.114,0.178-0.226,0.273-0.335c-0.168-0.169-0.309-0.373-0.42-0.612s-0.167-0.539-0.167-0.898
			c0-0.388,0.069-0.732,0.208-1.036c0.139-0.303,0.332-0.558,0.578-0.766c0.246-0.207,0.539-0.364,0.878-0.472
			c0.339-0.106,0.71-0.16,1.111-0.16c0.205,0,0.402,0.01,0.591,0.03s0.361,0.056,0.516,0.106h2.406v1.217H159.143z M155.212,30.984
			c0,0.269,0.136,0.467,0.407,0.595c0.271,0.127,0.653,0.191,1.145,0.191c0.314,0,0.58-0.03,0.796-0.089
			c0.216-0.06,0.393-0.137,0.53-0.232s0.235-0.208,0.294-0.335c0.059-0.128,0.089-0.26,0.089-0.396c0-0.123-0.028-0.227-0.085-0.312
			c-0.057-0.084-0.137-0.154-0.239-0.212c-0.103-0.057-0.223-0.1-0.362-0.13c-0.139-0.029-0.293-0.049-0.461-0.058l-1.47-0.027
			c-0.132,0.091-0.24,0.178-0.325,0.26s-0.15,0.163-0.198,0.242c-0.048,0.08-0.08,0.161-0.096,0.243S155.212,30.892,155.212,30.984z
			 M155.492,25.413c0,0.369,0.108,0.662,0.325,0.878c0.216,0.217,0.519,0.325,0.906,0.325c0.205,0,0.384-0.034,0.537-0.103
			s0.279-0.16,0.379-0.273c0.1-0.114,0.175-0.246,0.226-0.396s0.075-0.308,0.075-0.472c0-0.388-0.108-0.689-0.325-0.906
			c-0.216-0.216-0.519-0.324-0.906-0.324c-0.205,0-0.384,0.034-0.537,0.103s-0.279,0.16-0.379,0.276s-0.175,0.252-0.226,0.407
			C155.517,25.081,155.492,25.244,155.492,25.413z"/>
		<path d="M57.982,49.663v-1.319h7.697v1.319H57.982z"/>
		<path d="M72.016,46.594c-0.328,0.133-0.667,0.23-1.019,0.294c-0.351,0.064-0.718,0.096-1.101,0.096
			c-0.551,0-1.046-0.075-1.483-0.226s-0.809-0.373-1.114-0.67c-0.305-0.296-0.539-0.663-0.701-1.101s-0.243-0.943-0.243-1.518
			c0-0.556,0.088-1.06,0.263-1.511s0.423-0.836,0.742-1.155c0.319-0.318,0.703-0.564,1.152-0.738c0.449-0.173,0.949-0.26,1.5-0.26
			c0.451,0,0.831,0.024,1.138,0.072s0.584,0.108,0.831,0.181v1.62c-0.283-0.141-0.589-0.25-0.919-0.328
			c-0.331-0.077-0.644-0.116-0.94-0.116c-0.31,0-0.588,0.053-0.834,0.157c-0.246,0.105-0.454,0.251-0.622,0.438
			c-0.168,0.188-0.297,0.414-0.386,0.681s-0.133,0.56-0.133,0.878c0,0.333,0.048,0.632,0.144,0.896
			c0.096,0.265,0.231,0.489,0.407,0.674s0.386,0.325,0.632,0.424c0.246,0.098,0.52,0.146,0.82,0.146c0.146,0,0.3-0.01,0.461-0.03
			s0.324-0.051,0.485-0.089c0.162-0.039,0.321-0.083,0.479-0.134c0.157-0.05,0.304-0.104,0.441-0.164V46.594z"/>
		<path d="M80.07,43.333c0,0.547-0.078,1.047-0.232,1.501c-0.155,0.453-0.378,0.842-0.67,1.165
			c-0.292,0.324-0.649,0.574-1.073,0.752s-0.907,0.267-1.449,0.267c-0.515,0-0.975-0.075-1.381-0.226s-0.75-0.375-1.032-0.673
			c-0.283-0.299-0.499-0.673-0.649-1.121c-0.15-0.449-0.226-0.972-0.226-1.569c0-0.551,0.079-1.053,0.236-1.504
			s0.383-0.836,0.677-1.155c0.294-0.318,0.653-0.566,1.077-0.741c0.424-0.176,0.902-0.264,1.436-0.264
			c0.52,0,0.982,0.076,1.388,0.229c0.406,0.152,0.75,0.379,1.032,0.68s0.498,0.674,0.646,1.118S80.07,42.75,80.07,43.333z
			 M78.334,43.374c0-0.72-0.136-1.261-0.407-1.623s-0.671-0.544-1.2-0.544c-0.292,0-0.54,0.058-0.745,0.171
			c-0.205,0.114-0.374,0.271-0.506,0.469s-0.229,0.43-0.291,0.693c-0.062,0.265-0.092,0.547-0.092,0.848
			c0,0.725,0.146,1.271,0.438,1.638c0.292,0.366,0.69,0.55,1.196,0.55c0.278,0,0.52-0.056,0.725-0.167
			c0.205-0.112,0.372-0.267,0.499-0.465s0.223-0.432,0.287-0.701C78.302,43.974,78.334,43.685,78.334,43.374z"/>
		<path d="M85.714,46.861v-4.525c0-0.761-0.283-1.142-0.848-1.142c-0.283,0-0.553,0.114-0.81,0.342
			c-0.257,0.229-0.53,0.538-0.817,0.93v4.396h-1.668v-6.945h1.442l0.041,1.025c0.141-0.178,0.288-0.339,0.441-0.485
			c0.153-0.146,0.318-0.27,0.496-0.372s0.369-0.182,0.574-0.236s0.435-0.082,0.69-0.082c0.355,0,0.666,0.059,0.93,0.175
			s0.485,0.28,0.663,0.492s0.311,0.467,0.4,0.766c0.089,0.298,0.133,0.632,0.133,1.001v4.662H85.714z"/>
		<path d="M93.399,46.861v-4.525c0-0.761-0.283-1.142-0.848-1.142c-0.283,0-0.553,0.114-0.81,0.342
			c-0.257,0.229-0.53,0.538-0.817,0.93v4.396h-1.668v-6.945h1.442l0.041,1.025c0.141-0.178,0.288-0.339,0.441-0.485
			c0.153-0.146,0.318-0.27,0.496-0.372s0.369-0.182,0.574-0.236s0.435-0.082,0.69-0.082c0.355,0,0.666,0.059,0.93,0.175
			s0.485,0.28,0.663,0.492s0.311,0.467,0.4,0.766c0.089,0.298,0.133,0.632,0.133,1.001v4.662H93.399z"/>
		<path d="M102.943,42.855c0,0.114-0.003,0.263-0.01,0.444c-0.007,0.183-0.017,0.354-0.031,0.513h-4.566
			c0,0.306,0.047,0.574,0.14,0.807s0.226,0.428,0.396,0.585s0.376,0.276,0.615,0.358s0.505,0.123,0.796,0.123
			c0.337,0,0.698-0.026,1.083-0.078c0.385-0.053,0.785-0.138,1.2-0.257v1.326c-0.178,0.051-0.372,0.096-0.581,0.137
			s-0.424,0.078-0.643,0.109c-0.219,0.032-0.44,0.056-0.663,0.072c-0.223,0.016-0.44,0.023-0.649,0.023
			c-0.529,0-1.002-0.075-1.422-0.226s-0.775-0.372-1.066-0.666s-0.515-0.657-0.67-1.091c-0.155-0.433-0.232-0.934-0.232-1.504
			c0-0.564,0.078-1.079,0.232-1.541c0.155-0.463,0.374-0.859,0.656-1.189c0.283-0.331,0.625-0.586,1.029-0.766
			c0.403-0.181,0.854-0.271,1.35-0.271c0.492,0,0.927,0.076,1.306,0.229c0.378,0.152,0.695,0.365,0.95,0.639s0.449,0.6,0.581,0.978
			C102.877,41.99,102.943,42.404,102.943,42.855z M101.248,42.616c0.004-0.273-0.03-0.512-0.103-0.714
			c-0.073-0.203-0.172-0.37-0.297-0.503c-0.125-0.132-0.271-0.229-0.438-0.294c-0.167-0.063-0.345-0.096-0.537-0.096
			c-0.419,0-0.763,0.141-1.032,0.421s-0.428,0.676-0.479,1.186H101.248z"/>
		<path d="M110.033,46.594c-0.328,0.133-0.667,0.23-1.019,0.294c-0.351,0.064-0.718,0.096-1.101,0.096
			c-0.551,0-1.046-0.075-1.483-0.226s-0.809-0.373-1.114-0.67c-0.305-0.296-0.539-0.663-0.701-1.101s-0.243-0.943-0.243-1.518
			c0-0.556,0.088-1.06,0.263-1.511s0.423-0.836,0.742-1.155c0.319-0.318,0.703-0.564,1.152-0.738c0.449-0.173,0.949-0.26,1.5-0.26
			c0.451,0,0.831,0.024,1.138,0.072s0.584,0.108,0.831,0.181v1.62c-0.283-0.141-0.589-0.25-0.919-0.328
			c-0.331-0.077-0.644-0.116-0.94-0.116c-0.31,0-0.588,0.053-0.834,0.157c-0.246,0.105-0.454,0.251-0.622,0.438
			c-0.168,0.188-0.297,0.414-0.386,0.681s-0.133,0.56-0.133,0.878c0,0.333,0.048,0.632,0.144,0.896
			c0.096,0.265,0.231,0.489,0.407,0.674s0.386,0.325,0.632,0.424c0.246,0.098,0.52,0.146,0.82,0.146c0.146,0,0.3-0.01,0.461-0.03
			s0.324-0.051,0.485-0.089c0.162-0.039,0.321-0.083,0.479-0.134c0.157-0.05,0.304-0.104,0.441-0.164V46.594z"/>
		<path d="M117.684,46.792c-0.301,0.068-0.604,0.123-0.909,0.164s-0.595,0.062-0.868,0.062c-0.456,0-0.849-0.048-1.179-0.144
			s-0.604-0.241-0.82-0.438c-0.216-0.195-0.376-0.445-0.479-0.748c-0.103-0.304-0.154-0.664-0.154-1.084v-3.391h-1.866v-1.299h1.866
			v-1.777l1.709-0.444v2.222h2.7v1.299h-2.7v3.268c0,0.396,0.091,0.696,0.273,0.899c0.182,0.202,0.488,0.304,0.916,0.304
			c0.273,0,0.54-0.022,0.8-0.068c0.26-0.045,0.497-0.098,0.711-0.157V46.792z"/>
		<path d="M121.523,41.214h-1.962v-1.299h3.671v5.646h2.003v1.299h-5.913v-1.299h2.201V41.214z M123.369,38.015
			c0,0.15-0.027,0.292-0.082,0.424c-0.055,0.133-0.131,0.247-0.229,0.346c-0.098,0.098-0.213,0.175-0.345,0.232
			c-0.132,0.057-0.276,0.085-0.431,0.085s-0.3-0.028-0.434-0.085c-0.134-0.058-0.25-0.135-0.349-0.232
			c-0.098-0.099-0.174-0.213-0.229-0.346c-0.055-0.132-0.082-0.273-0.082-0.424s0.027-0.291,0.082-0.424
			c0.055-0.132,0.131-0.248,0.229-0.349c0.098-0.1,0.214-0.179,0.349-0.235c0.134-0.058,0.279-0.086,0.434-0.086
			s0.298,0.028,0.431,0.086c0.132,0.057,0.247,0.136,0.345,0.235c0.098,0.101,0.174,0.217,0.229,0.349
			C123.342,37.724,123.369,37.865,123.369,38.015z"/>
		<path d="M133.044,43.333c0,0.547-0.078,1.047-0.232,1.501c-0.155,0.453-0.378,0.842-0.67,1.165
			c-0.292,0.324-0.649,0.574-1.073,0.752s-0.907,0.267-1.449,0.267c-0.515,0-0.975-0.075-1.381-0.226s-0.75-0.375-1.032-0.673
			c-0.283-0.299-0.499-0.673-0.649-1.121c-0.15-0.449-0.226-0.972-0.226-1.569c0-0.551,0.079-1.053,0.236-1.504
			s0.383-0.836,0.677-1.155c0.294-0.318,0.653-0.566,1.077-0.741c0.424-0.176,0.902-0.264,1.436-0.264
			c0.52,0,0.982,0.076,1.388,0.229c0.406,0.152,0.75,0.379,1.032,0.68s0.498,0.674,0.646,1.118S133.044,42.75,133.044,43.333z
			 M131.308,43.374c0-0.72-0.136-1.261-0.407-1.623s-0.671-0.544-1.2-0.544c-0.292,0-0.54,0.058-0.745,0.171
			c-0.205,0.114-0.374,0.271-0.506,0.469s-0.229,0.43-0.291,0.693c-0.062,0.265-0.092,0.547-0.092,0.848
			c0,0.725,0.146,1.271,0.438,1.638c0.292,0.366,0.69,0.55,1.196,0.55c0.278,0,0.52-0.056,0.725-0.167
			c0.205-0.112,0.372-0.267,0.499-0.465s0.223-0.432,0.287-0.701C131.276,43.974,131.308,43.685,131.308,43.374z"/>
		<path d="M138.688,46.861v-4.525c0-0.761-0.283-1.142-0.848-1.142c-0.283,0-0.553,0.114-0.81,0.342
			c-0.257,0.229-0.53,0.538-0.817,0.93v4.396h-1.668v-6.945h1.442l0.041,1.025c0.141-0.178,0.288-0.339,0.441-0.485
			c0.153-0.146,0.318-0.27,0.496-0.372s0.369-0.182,0.574-0.236s0.435-0.082,0.69-0.082c0.355,0,0.666,0.059,0.93,0.175
			s0.485,0.28,0.663,0.492s0.311,0.467,0.4,0.766c0.089,0.298,0.133,0.632,0.133,1.001v4.662H138.688z"/>
		<path d="M147.8,44.817c0,0.396-0.088,0.735-0.263,1.016s-0.408,0.508-0.697,0.684c-0.29,0.175-0.618,0.303-0.984,0.383
			c-0.367,0.079-0.742,0.119-1.125,0.119c-0.51,0-0.971-0.023-1.381-0.071s-0.797-0.117-1.162-0.209v-1.504
			c0.428,0.178,0.855,0.307,1.282,0.387c0.426,0.079,0.828,0.119,1.207,0.119c0.438,0,0.765-0.069,0.981-0.208
			c0.216-0.14,0.325-0.32,0.325-0.544c0-0.104-0.023-0.2-0.068-0.287c-0.045-0.086-0.131-0.17-0.256-0.249
			c-0.125-0.08-0.302-0.162-0.53-0.246c-0.228-0.085-0.526-0.179-0.896-0.284c-0.342-0.096-0.642-0.204-0.899-0.324
			c-0.257-0.121-0.471-0.264-0.639-0.428s-0.295-0.354-0.379-0.57c-0.084-0.217-0.126-0.471-0.126-0.763
			c0-0.282,0.064-0.549,0.191-0.8c0.127-0.25,0.318-0.471,0.571-0.659c0.253-0.189,0.568-0.339,0.947-0.448s0.82-0.164,1.326-0.164
			c0.438,0,0.825,0.023,1.162,0.068c0.337,0.046,0.636,0.096,0.896,0.15v1.36c-0.396-0.127-0.769-0.218-1.118-0.27
			c-0.349-0.053-0.694-0.079-1.036-0.079s-0.616,0.062-0.824,0.185s-0.311,0.294-0.311,0.513c0,0.105,0.021,0.198,0.062,0.28
			s0.122,0.162,0.243,0.239c0.121,0.078,0.29,0.158,0.506,0.243c0.216,0.084,0.502,0.177,0.858,0.276
			c0.401,0.114,0.738,0.236,1.012,0.366s0.493,0.276,0.66,0.44s0.286,0.352,0.359,0.561C147.763,44.309,147.8,44.548,147.8,44.817z"
			/>
	</g>
	<g>
		<rect x="8.8" y="75.101" fill="none" width="189.2" height="22"/>
		<path d="M60.577,84.508c-0.31,0.119-0.628,0.206-0.954,0.263s-0.662,0.085-1.008,0.085c-1.084,0-1.92-0.294-2.505-0.882
			s-0.878-1.447-0.878-2.577c0-0.542,0.084-1.035,0.253-1.477s0.406-0.82,0.711-1.135s0.67-0.557,1.094-0.728
			s0.891-0.256,1.401-0.256c0.355,0,0.688,0.025,0.998,0.075s0.606,0.132,0.889,0.246v1.135c-0.296-0.155-0.598-0.268-0.906-0.338
			s-0.625-0.106-0.954-0.106c-0.305,0-0.594,0.058-0.865,0.174s-0.509,0.284-0.714,0.502s-0.367,0.485-0.485,0.8
			s-0.178,0.67-0.178,1.066c0,0.83,0.202,1.45,0.605,1.863s0.963,0.619,1.678,0.619c0.324,0,0.637-0.037,0.94-0.109
			s0.596-0.182,0.878-0.328V84.508z"/>
		<path d="M68.55,81.274c0,0.533-0.075,1.022-0.226,1.466s-0.367,0.825-0.649,1.142s-0.626,0.563-1.032,0.738
			s-0.866,0.263-1.381,0.263c-0.492,0-0.933-0.076-1.323-0.229c-0.39-0.153-0.72-0.377-0.991-0.673s-0.479-0.663-0.622-1.101
			s-0.215-0.941-0.215-1.511c0-0.533,0.075-1.02,0.226-1.459s0.367-0.818,0.649-1.135s0.626-0.563,1.032-0.738
			c0.406-0.175,0.866-0.263,1.381-0.263c0.492,0,0.933,0.076,1.323,0.229s0.72,0.376,0.991,0.67s0.479,0.66,0.622,1.097
			S68.55,80.709,68.55,81.274z M67.334,81.329c0-0.424-0.047-0.794-0.14-1.111s-0.227-0.581-0.4-0.793s-0.384-0.372-0.632-0.479
			s-0.525-0.161-0.831-0.161c-0.355,0-0.66,0.069-0.913,0.208s-0.46,0.325-0.622,0.557s-0.28,0.502-0.355,0.81
			s-0.113,0.63-0.113,0.967c0,0.424,0.047,0.795,0.14,1.114s0.227,0.584,0.4,0.796c0.173,0.212,0.383,0.372,0.629,0.479
			s0.524,0.161,0.834,0.161c0.355,0,0.66-0.069,0.913-0.208s0.46-0.325,0.622-0.557s0.28-0.502,0.355-0.81
			S67.334,81.671,67.334,81.329z"/>
		<path d="M70.317,77.897h1.06l0.048,1.107c0.201-0.237,0.394-0.434,0.581-0.591s0.37-0.284,0.55-0.379s0.363-0.163,0.55-0.202
			s0.38-0.058,0.581-0.058c0.707,0,1.241,0.208,1.603,0.625s0.543,1.045,0.543,1.883v4.478h-1.189v-4.382
			c0-0.538-0.1-0.936-0.301-1.193S73.844,78.8,73.447,78.8c-0.146,0-0.288,0.021-0.427,0.065s-0.284,0.119-0.434,0.226
			s-0.313,0.252-0.489,0.434s-0.373,0.41-0.591,0.684v4.553h-1.189V77.897z"/>
		<path d="M77.984,77.897h1.06l0.048,1.107c0.201-0.237,0.394-0.434,0.581-0.591s0.37-0.284,0.55-0.379s0.363-0.163,0.55-0.202
			s0.38-0.058,0.581-0.058c0.707,0,1.241,0.208,1.603,0.625s0.543,1.045,0.543,1.883v4.478h-1.189v-4.382
			c0-0.538-0.1-0.936-0.301-1.193S81.511,78.8,81.115,78.8c-0.146,0-0.288,0.021-0.427,0.065s-0.284,0.119-0.434,0.226
			s-0.313,0.252-0.489,0.434s-0.373,0.41-0.591,0.684v4.553h-1.189V77.897z"/>
		<path d="M91.424,80.967c0,0.168-0.002,0.31-0.007,0.424s-0.011,0.221-0.021,0.321h-4.819c0,0.702,0.196,1.241,0.588,1.617
			s0.957,0.564,1.695,0.564c0.201,0,0.401-0.008,0.602-0.024s0.394-0.038,0.581-0.065s0.366-0.058,0.537-0.092
			s0.329-0.072,0.475-0.113v0.978c-0.324,0.091-0.689,0.165-1.097,0.222s-0.831,0.085-1.268,0.085c-0.588,0-1.094-0.08-1.518-0.239
			s-0.771-0.391-1.042-0.694s-0.472-0.674-0.602-1.114s-0.195-0.938-0.195-1.494c0-0.483,0.069-0.94,0.208-1.371
			s0.342-0.809,0.608-1.135s0.594-0.584,0.981-0.776s0.827-0.287,1.319-0.287c0.479,0,0.902,0.075,1.271,0.226
			s0.68,0.363,0.933,0.639s0.444,0.611,0.574,1.005S91.424,80.479,91.424,80.967z M90.187,80.796
			c0.014-0.305-0.016-0.584-0.089-0.837s-0.186-0.471-0.338-0.653s-0.343-0.325-0.571-0.427s-0.492-0.154-0.793-0.154
			c-0.26,0-0.497,0.05-0.711,0.15s-0.399,0.242-0.554,0.424s-0.28,0.401-0.376,0.656s-0.155,0.536-0.178,0.841H90.187z"/>
		<path d="M98.471,84.508c-0.31,0.119-0.628,0.206-0.954,0.263s-0.662,0.085-1.008,0.085c-1.084,0-1.92-0.294-2.505-0.882
			s-0.878-1.447-0.878-2.577c0-0.542,0.084-1.035,0.253-1.477s0.406-0.82,0.711-1.135s0.67-0.557,1.094-0.728
			s0.891-0.256,1.401-0.256c0.355,0,0.688,0.025,0.998,0.075s0.606,0.132,0.889,0.246v1.135c-0.296-0.155-0.598-0.268-0.906-0.338
			s-0.625-0.106-0.954-0.106c-0.305,0-0.594,0.058-0.865,0.174s-0.509,0.284-0.714,0.502s-0.367,0.485-0.485,0.8
			s-0.178,0.67-0.178,1.066c0,0.83,0.202,1.45,0.605,1.863s0.963,0.619,1.678,0.619c0.324,0,0.637-0.037,0.94-0.109
			s0.596-0.182,0.878-0.328V84.508z"/>
		<path d="M106.273,84.665c-0.269,0.068-0.547,0.117-0.834,0.147s-0.579,0.044-0.875,0.044c-0.861,0-1.504-0.195-1.928-0.584
			s-0.636-0.988-0.636-1.794v-3.582h-1.921v-0.998h1.921v-1.887l1.189-0.308v2.194h3.083v0.998h-3.083v3.486
			c0,0.492,0.131,0.86,0.393,1.104s0.648,0.366,1.159,0.366c0.219,0,0.458-0.017,0.718-0.051s0.531-0.088,0.813-0.161V84.665z"/>
		<path d="M110.417,78.882h-2.03v-0.984h3.233v5.872h2.044v0.991h-5.503v-0.991h2.256V78.882z M110.834,75.019
			c0.132,0,0.255,0.024,0.369,0.072s0.213,0.115,0.297,0.202s0.15,0.186,0.198,0.297s0.072,0.233,0.072,0.366
			c0,0.127-0.024,0.249-0.072,0.362s-0.114,0.214-0.198,0.301s-0.184,0.154-0.297,0.202s-0.237,0.072-0.369,0.072
			s-0.255-0.024-0.369-0.072s-0.213-0.115-0.297-0.202s-0.15-0.187-0.198-0.301s-0.072-0.235-0.072-0.362
			c0-0.132,0.024-0.254,0.072-0.366s0.114-0.211,0.198-0.297s0.184-0.154,0.297-0.202S110.701,75.019,110.834,75.019z"/>
		<path d="M121.446,81.274c0,0.533-0.075,1.022-0.226,1.466s-0.367,0.825-0.649,1.142s-0.626,0.563-1.032,0.738
			s-0.866,0.263-1.381,0.263c-0.492,0-0.933-0.076-1.323-0.229s-0.72-0.377-0.991-0.673s-0.479-0.663-0.622-1.101
			s-0.215-0.941-0.215-1.511c0-0.533,0.075-1.02,0.226-1.459s0.367-0.818,0.649-1.135s0.626-0.563,1.032-0.738
			s0.866-0.263,1.381-0.263c0.492,0,0.933,0.076,1.323,0.229s0.72,0.376,0.991,0.67s0.479,0.66,0.622,1.097
			S121.446,80.709,121.446,81.274z M120.229,81.329c0-0.424-0.047-0.794-0.14-1.111s-0.227-0.581-0.4-0.793
			s-0.384-0.372-0.632-0.479s-0.525-0.161-0.831-0.161c-0.355,0-0.66,0.069-0.913,0.208s-0.46,0.325-0.622,0.557
			s-0.28,0.502-0.355,0.81s-0.113,0.63-0.113,0.967c0,0.424,0.047,0.795,0.14,1.114s0.227,0.584,0.4,0.796s0.383,0.372,0.629,0.479
			s0.524,0.161,0.834,0.161c0.355,0,0.66-0.069,0.913-0.208s0.46-0.325,0.622-0.557s0.28-0.502,0.355-0.81
			S120.229,81.671,120.229,81.329z"/>
		<path d="M123.212,77.897h1.06l0.048,1.107c0.201-0.237,0.394-0.434,0.581-0.591s0.37-0.284,0.55-0.379s0.363-0.163,0.55-0.202
			s0.38-0.058,0.581-0.058c0.707,0,1.241,0.208,1.603,0.625s0.543,1.045,0.543,1.883v4.478h-1.189v-4.382
			c0-0.538-0.1-0.936-0.301-1.193s-0.499-0.386-0.896-0.386c-0.146,0-0.288,0.021-0.427,0.065s-0.284,0.119-0.434,0.226
			s-0.313,0.252-0.489,0.434s-0.373,0.41-0.591,0.684v4.553h-1.189V77.897z"/>
		<path d="M137.653,87.563h-7.697v-0.984h7.697V87.563z"/>
		<path d="M140.982,78.882h-2.03v-0.984h3.233v5.872h2.044v0.991h-5.503v-0.991h2.256V78.882z M141.399,75.019
			c0.132,0,0.255,0.024,0.369,0.072s0.213,0.115,0.297,0.202s0.15,0.186,0.198,0.297s0.072,0.233,0.072,0.366
			c0,0.127-0.024,0.249-0.072,0.362s-0.114,0.214-0.198,0.301s-0.184,0.154-0.297,0.202s-0.237,0.072-0.369,0.072
			s-0.255-0.024-0.369-0.072s-0.213-0.115-0.297-0.202s-0.15-0.187-0.198-0.301s-0.072-0.235-0.072-0.362
			c0-0.132,0.024-0.254,0.072-0.366s0.114-0.211,0.198-0.297s0.184-0.154,0.297-0.202S141.267,75.019,141.399,75.019z"/>
		<path d="M145.696,81.473c0-0.583,0.08-1.102,0.239-1.555s0.386-0.836,0.68-1.148s0.647-0.549,1.06-0.711s0.872-0.243,1.377-0.243
			c0.219,0,0.434,0.014,0.646,0.041s0.42,0.071,0.625,0.13v-2.885h1.196v9.659h-1.066l-0.041-1.299
			c-0.333,0.483-0.693,0.841-1.08,1.073s-0.807,0.349-1.258,0.349c-0.392,0-0.737-0.082-1.036-0.246s-0.547-0.396-0.745-0.694
			s-0.348-0.657-0.448-1.077S145.696,81.983,145.696,81.473z M146.913,81.397c0,0.83,0.122,1.448,0.366,1.856
			s0.589,0.612,1.036,0.612c0.301,0,0.619-0.134,0.954-0.403s0.687-0.667,1.056-1.196V79.08c-0.196-0.091-0.413-0.161-0.649-0.208
			s-0.472-0.072-0.704-0.072c-0.647,0-1.152,0.209-1.514,0.629S146.913,80.504,146.913,81.397z"/>
	</g>
	<g>
		<rect x="316.8" y="28.701" fill="none" width="180.4" height="17.6"/>
		<path d="M339.964,38.36l-0.041-1.025c-0.146,0.178-0.296,0.339-0.451,0.485s-0.321,0.27-0.499,0.373s-0.368,0.182-0.571,0.239
			s-0.427,0.085-0.673,0.085c-0.41,0-0.775-0.082-1.094-0.246s-0.587-0.397-0.803-0.701s-0.382-0.671-0.496-1.104
			s-0.171-0.916-0.171-1.449c0-0.638,0.09-1.19,0.27-1.658s0.43-0.854,0.749-1.162c0.319-0.308,0.697-0.536,1.135-0.684
			s0.914-0.222,1.429-0.222c0.173,0,0.348,0.011,0.523,0.034s0.332,0.052,0.468,0.089v-2.714h1.668v9.659H339.964z M336.915,34.942
			c0,0.383,0.026,0.71,0.079,0.981s0.13,0.493,0.232,0.667s0.229,0.3,0.379,0.379s0.321,0.12,0.513,0.12
			c0.283,0,0.551-0.114,0.807-0.342s0.526-0.54,0.813-0.937v-3.035c-0.132-0.05-0.295-0.091-0.489-0.123s-0.389-0.048-0.584-0.048
			c-0.269,0-0.51,0.055-0.725,0.164s-0.397,0.264-0.55,0.465s-0.27,0.445-0.352,0.735S336.915,34.582,336.915,34.942z"/>
		<path d="M348.46,38.36v-4.73c0-0.173-0.004-0.325-0.014-0.455s-0.027-0.238-0.055-0.325s-0.067-0.151-0.12-0.195
			s-0.124-0.065-0.215-0.065c-0.141,0-0.28,0.096-0.417,0.287s-0.292,0.517-0.465,0.978v4.505h-1.429v-4.73
			c0-0.173-0.004-0.325-0.014-0.455s-0.027-0.238-0.055-0.325s-0.068-0.151-0.123-0.195s-0.127-0.065-0.219-0.065
			c-0.119,0-0.25,0.096-0.396,0.287s-0.308,0.517-0.485,0.978v4.505h-1.442v-6.945h1.237l0.027,1.012
			c0.1-0.205,0.201-0.38,0.301-0.526c0.1-0.146,0.208-0.266,0.321-0.359s0.236-0.161,0.366-0.202s0.277-0.062,0.441-0.062
			c0.387,0,0.683,0.102,0.885,0.304s0.318,0.484,0.345,0.844c0.109-0.205,0.218-0.38,0.325-0.526
			c0.107-0.146,0.219-0.266,0.335-0.359s0.242-0.161,0.376-0.202s0.284-0.062,0.448-0.062c0.506,0,0.879,0.177,1.121,0.53
			c0.242,0.353,0.362,0.876,0.362,1.569v4.983H348.46z"/>
		<path d="M350.684,41.163v-1.319h7.697v1.319H350.684z"/>
		<path d="M365.254,34.354c0,0.114-0.003,0.262-0.01,0.444s-0.017,0.353-0.031,0.513h-4.566c0,0.305,0.047,0.574,0.14,0.807
			s0.226,0.427,0.396,0.584s0.376,0.277,0.615,0.359s0.505,0.123,0.796,0.123c0.337,0,0.698-0.026,1.083-0.079
			s0.785-0.138,1.2-0.256v1.326c-0.178,0.05-0.372,0.096-0.581,0.137s-0.424,0.078-0.643,0.109s-0.44,0.056-0.663,0.072
			s-0.44,0.024-0.649,0.024c-0.529,0-1.002-0.075-1.422-0.226s-0.775-0.373-1.066-0.667s-0.515-0.657-0.67-1.09
			s-0.232-0.934-0.232-1.504c0-0.565,0.078-1.079,0.232-1.542s0.374-0.859,0.656-1.189c0.283-0.331,0.625-0.585,1.029-0.766
			s0.854-0.27,1.35-0.27c0.492,0,0.927,0.076,1.306,0.229s0.695,0.366,0.95,0.639c0.255,0.273,0.449,0.599,0.581,0.978
			S365.254,33.903,365.254,34.354z M363.558,34.115c0.004-0.273-0.03-0.512-0.103-0.714s-0.172-0.37-0.297-0.502
			s-0.271-0.23-0.438-0.294s-0.345-0.096-0.537-0.096c-0.419,0-0.763,0.14-1.032,0.42s-0.428,0.676-0.479,1.186H363.558z"/>
		<path d="M371.351,38.36l-1.586-2.338l-1.593,2.338h-2.017l2.604-3.5l-2.468-3.445h2.03l1.559,2.283l1.538-2.283h1.873
			l-2.393,3.432l2.522,3.514H371.351z"/>
		<path d="M380.306,34.354c0,0.114-0.003,0.262-0.01,0.444s-0.017,0.353-0.031,0.513h-4.566c0,0.305,0.047,0.574,0.14,0.807
			s0.226,0.427,0.396,0.584s0.376,0.277,0.615,0.359s0.505,0.123,0.796,0.123c0.337,0,0.698-0.026,1.083-0.079
			s0.785-0.138,1.2-0.256v1.326c-0.178,0.05-0.372,0.096-0.581,0.137s-0.424,0.078-0.643,0.109s-0.44,0.056-0.663,0.072
			s-0.44,0.024-0.649,0.024c-0.529,0-1.002-0.075-1.422-0.226s-0.775-0.373-1.066-0.667s-0.515-0.657-0.67-1.09
			s-0.232-0.934-0.232-1.504c0-0.565,0.078-1.079,0.232-1.542s0.374-0.859,0.656-1.189c0.283-0.331,0.625-0.585,1.029-0.766
			s0.854-0.27,1.35-0.27c0.492,0,0.927,0.076,1.306,0.229s0.695,0.366,0.95,0.639c0.255,0.273,0.449,0.599,0.581,0.978
			S380.306,33.903,380.306,34.354z M378.611,34.115c0.004-0.273-0.03-0.512-0.103-0.714s-0.172-0.37-0.297-0.502
			s-0.271-0.23-0.438-0.294s-0.345-0.096-0.537-0.096c-0.419,0-0.763,0.14-1.032,0.42s-0.428,0.676-0.479,1.186H378.611z"/>
		<path d="M387.397,38.094c-0.328,0.132-0.667,0.23-1.019,0.294s-0.718,0.096-1.101,0.096c-0.551,0-1.046-0.075-1.483-0.226
			s-0.809-0.374-1.114-0.67s-0.539-0.663-0.701-1.101s-0.243-0.943-0.243-1.518c0-0.556,0.088-1.06,0.263-1.511
			s0.423-0.836,0.742-1.155c0.319-0.319,0.703-0.565,1.152-0.738s0.949-0.26,1.5-0.26c0.451,0,0.831,0.024,1.138,0.072
			s0.584,0.108,0.831,0.181v1.62c-0.283-0.141-0.589-0.25-0.919-0.328s-0.644-0.116-0.94-0.116c-0.31,0-0.588,0.052-0.834,0.157
			s-0.454,0.25-0.622,0.438s-0.297,0.414-0.386,0.68s-0.133,0.56-0.133,0.878c0,0.333,0.048,0.631,0.144,0.896
			s0.231,0.489,0.407,0.673s0.386,0.326,0.632,0.424s0.52,0.147,0.82,0.147c0.146,0,0.3-0.01,0.461-0.031s0.324-0.05,0.485-0.089
			s0.321-0.083,0.479-0.133s0.304-0.105,0.441-0.164V38.094z"/>
		<path d="M388.518,41.163v-1.319h7.697v1.319H388.518z"/>
		<path d="M402.552,38.094c-0.328,0.132-0.667,0.23-1.019,0.294s-0.718,0.096-1.101,0.096c-0.551,0-1.046-0.075-1.483-0.226
			s-0.809-0.374-1.114-0.67s-0.539-0.663-0.701-1.101s-0.243-0.943-0.243-1.518c0-0.556,0.088-1.06,0.263-1.511
			s0.423-0.836,0.742-1.155c0.319-0.319,0.703-0.565,1.152-0.738s0.949-0.26,1.5-0.26c0.451,0,0.831,0.024,1.138,0.072
			s0.584,0.108,0.831,0.181v1.62c-0.283-0.141-0.589-0.25-0.919-0.328s-0.644-0.116-0.94-0.116c-0.31,0-0.588,0.052-0.834,0.157
			s-0.454,0.25-0.622,0.438s-0.297,0.414-0.386,0.68s-0.133,0.56-0.133,0.878c0,0.333,0.048,0.631,0.144,0.896
			s0.231,0.489,0.407,0.673s0.386,0.326,0.632,0.424s0.52,0.147,0.82,0.147c0.146,0,0.3-0.01,0.461-0.031s0.324-0.05,0.485-0.089
			s0.321-0.083,0.479-0.133s0.304-0.105,0.441-0.164V38.094z"/>
		<path d="M410.606,34.833c0,0.547-0.078,1.047-0.232,1.5s-0.378,0.842-0.67,1.166s-0.649,0.574-1.073,0.752
			s-0.907,0.267-1.449,0.267c-0.515,0-0.975-0.075-1.381-0.226s-0.75-0.375-1.032-0.673s-0.499-0.672-0.649-1.121
			s-0.226-0.972-0.226-1.569c0-0.551,0.079-1.053,0.236-1.504s0.383-0.836,0.677-1.155c0.294-0.319,0.653-0.566,1.077-0.742
			s0.902-0.263,1.436-0.263c0.52,0,0.982,0.076,1.388,0.229s0.75,0.379,1.032,0.68c0.283,0.301,0.498,0.673,0.646,1.118
			S410.606,34.249,410.606,34.833z M408.87,34.874c0-0.72-0.136-1.261-0.407-1.624s-0.671-0.543-1.2-0.543
			c-0.292,0-0.54,0.057-0.745,0.171s-0.374,0.27-0.506,0.468s-0.229,0.43-0.291,0.694s-0.092,0.547-0.092,0.848
			c0,0.725,0.146,1.271,0.438,1.637s0.69,0.55,1.196,0.55c0.278,0,0.52-0.056,0.725-0.167s0.372-0.267,0.499-0.465
			s0.223-0.432,0.287-0.701S408.87,35.184,408.87,34.874z"/>
		<path d="M416.25,38.36v-4.525c0-0.761-0.283-1.142-0.848-1.142c-0.283,0-0.553,0.114-0.81,0.342s-0.53,0.538-0.817,0.93v4.396
			h-1.668v-6.945h1.442l0.041,1.025c0.141-0.178,0.288-0.339,0.441-0.485c0.153-0.146,0.318-0.27,0.496-0.373
			s0.369-0.181,0.574-0.236s0.435-0.082,0.69-0.082c0.355,0,0.666,0.058,0.93,0.174s0.485,0.28,0.663,0.492
			c0.178,0.212,0.311,0.467,0.4,0.766s0.133,0.632,0.133,1.001v4.662H416.25z"/>
		<path d="M423.935,38.36v-4.525c0-0.761-0.283-1.142-0.848-1.142c-0.283,0-0.553,0.114-0.81,0.342s-0.53,0.538-0.817,0.93v4.396
			h-1.668v-6.945h1.442l0.041,1.025c0.141-0.178,0.288-0.339,0.441-0.485c0.153-0.146,0.318-0.27,0.496-0.373
			s0.369-0.181,0.574-0.236s0.435-0.082,0.69-0.082c0.355,0,0.666,0.058,0.93,0.174s0.485,0.28,0.663,0.492
			c0.178,0.212,0.311,0.467,0.4,0.766s0.133,0.632,0.133,1.001v4.662H423.935z"/>
		<path d="M433.479,34.354c0,0.114-0.003,0.262-0.01,0.444s-0.017,0.353-0.031,0.513h-4.566c0,0.305,0.047,0.574,0.14,0.807
			s0.226,0.427,0.396,0.584s0.376,0.277,0.615,0.359s0.505,0.123,0.796,0.123c0.337,0,0.698-0.026,1.083-0.079
			s0.785-0.138,1.2-0.256v1.326c-0.178,0.05-0.372,0.096-0.581,0.137s-0.424,0.078-0.643,0.109s-0.44,0.056-0.663,0.072
			s-0.44,0.024-0.649,0.024c-0.529,0-1.002-0.075-1.422-0.226s-0.775-0.373-1.066-0.667s-0.515-0.657-0.67-1.09
			s-0.232-0.934-0.232-1.504c0-0.565,0.078-1.079,0.232-1.542s0.374-0.859,0.656-1.189c0.283-0.331,0.625-0.585,1.029-0.766
			s0.854-0.27,1.35-0.27c0.492,0,0.927,0.076,1.306,0.229s0.695,0.366,0.95,0.639c0.255,0.273,0.449,0.599,0.581,0.978
			S433.479,33.903,433.479,34.354z M431.784,34.115c0.004-0.273-0.03-0.512-0.103-0.714s-0.172-0.37-0.297-0.502
			s-0.271-0.23-0.438-0.294s-0.345-0.096-0.537-0.096c-0.419,0-0.763,0.14-1.032,0.42s-0.428,0.676-0.479,1.186H431.784z"/>
		<path d="M440.569,38.094c-0.328,0.132-0.667,0.23-1.019,0.294s-0.718,0.096-1.101,0.096c-0.551,0-1.046-0.075-1.483-0.226
			s-0.809-0.374-1.114-0.67s-0.539-0.663-0.701-1.101s-0.243-0.943-0.243-1.518c0-0.556,0.088-1.06,0.263-1.511
			s0.423-0.836,0.742-1.155c0.319-0.319,0.703-0.565,1.152-0.738s0.949-0.26,1.5-0.26c0.451,0,0.831,0.024,1.138,0.072
			s0.584,0.108,0.831,0.181v1.62c-0.283-0.141-0.589-0.25-0.919-0.328s-0.644-0.116-0.94-0.116c-0.31,0-0.588,0.052-0.834,0.157
			s-0.454,0.25-0.622,0.438s-0.297,0.414-0.386,0.68s-0.133,0.56-0.133,0.878c0,0.333,0.048,0.631,0.144,0.896
			s0.231,0.489,0.407,0.673s0.386,0.326,0.632,0.424s0.52,0.147,0.82,0.147c0.146,0,0.3-0.01,0.461-0.031s0.324-0.05,0.485-0.089
			s0.321-0.083,0.479-0.133s0.304-0.105,0.441-0.164V38.094z"/>
		<path d="M448.22,38.292c-0.301,0.068-0.604,0.123-0.909,0.164s-0.595,0.062-0.868,0.062c-0.456,0-0.849-0.048-1.179-0.144
			s-0.604-0.242-0.82-0.438s-0.376-0.445-0.479-0.749s-0.154-0.664-0.154-1.083v-3.391h-1.866v-1.299h1.866v-1.777l1.709-0.444
			v2.222h2.7v1.299h-2.7v3.268c0,0.396,0.091,0.696,0.273,0.899s0.488,0.304,0.916,0.304c0.273,0,0.54-0.023,0.8-0.068
			s0.497-0.098,0.711-0.157V38.292z"/>
		<path d="M452.059,32.714h-1.962v-1.299h3.671v5.646h2.003v1.299h-5.913v-1.299h2.201V32.714z M453.904,29.515
			c0,0.15-0.027,0.292-0.082,0.424s-0.131,0.247-0.229,0.345s-0.213,0.175-0.345,0.232s-0.276,0.085-0.431,0.085
			s-0.3-0.028-0.434-0.085s-0.25-0.134-0.349-0.232s-0.174-0.213-0.229-0.345s-0.082-0.273-0.082-0.424s0.027-0.292,0.082-0.424
			s0.131-0.249,0.229-0.349s0.214-0.179,0.349-0.236s0.279-0.085,0.434-0.085s0.298,0.028,0.431,0.085s0.247,0.136,0.345,0.236
			s0.174,0.216,0.229,0.349S453.904,29.364,453.904,29.515z"/>
		<path d="M463.58,34.833c0,0.547-0.078,1.047-0.232,1.5s-0.378,0.842-0.67,1.166s-0.649,0.574-1.073,0.752
			s-0.907,0.267-1.449,0.267c-0.515,0-0.975-0.075-1.381-0.226s-0.75-0.375-1.032-0.673s-0.499-0.672-0.649-1.121
			s-0.226-0.972-0.226-1.569c0-0.551,0.079-1.053,0.236-1.504s0.383-0.836,0.677-1.155c0.294-0.319,0.653-0.566,1.077-0.742
			s0.902-0.263,1.436-0.263c0.52,0,0.982,0.076,1.388,0.229s0.75,0.379,1.032,0.68c0.283,0.301,0.498,0.673,0.646,1.118
			S463.58,34.249,463.58,34.833z M461.843,34.874c0-0.72-0.136-1.261-0.407-1.624s-0.671-0.543-1.2-0.543
			c-0.292,0-0.54,0.057-0.745,0.171s-0.374,0.27-0.506,0.468s-0.229,0.43-0.291,0.694s-0.092,0.547-0.092,0.848
			c0,0.725,0.146,1.271,0.438,1.637s0.69,0.55,1.196,0.55c0.278,0,0.52-0.056,0.725-0.167s0.372-0.267,0.499-0.465
			s0.223-0.432,0.287-0.701S461.843,35.184,461.843,34.874z"/>
		<path d="M469.224,38.36v-4.525c0-0.761-0.283-1.142-0.848-1.142c-0.283,0-0.553,0.114-0.81,0.342s-0.53,0.538-0.817,0.93v4.396
			h-1.668v-6.945h1.442l0.041,1.025c0.141-0.178,0.288-0.339,0.441-0.485c0.153-0.146,0.318-0.27,0.496-0.373
			s0.369-0.181,0.574-0.236s0.435-0.082,0.69-0.082c0.355,0,0.666,0.058,0.93,0.174s0.485,0.28,0.663,0.492
			c0.178,0.212,0.311,0.467,0.4,0.766s0.133,0.632,0.133,1.001v4.662H469.224z"/>
		<path d="M478.336,36.316c0,0.396-0.088,0.735-0.263,1.015s-0.408,0.508-0.697,0.684s-0.618,0.303-0.984,0.383
			s-0.742,0.12-1.125,0.12c-0.51,0-0.971-0.024-1.381-0.072s-0.797-0.117-1.162-0.208v-1.504c0.428,0.178,0.855,0.307,1.282,0.386
			s0.828,0.12,1.207,0.12c0.438,0,0.765-0.069,0.981-0.208s0.325-0.32,0.325-0.543c0-0.105-0.023-0.201-0.068-0.287
			s-0.131-0.17-0.256-0.25s-0.302-0.162-0.53-0.246s-0.526-0.179-0.896-0.284c-0.342-0.096-0.642-0.204-0.899-0.325
			s-0.471-0.263-0.639-0.427s-0.295-0.354-0.379-0.571s-0.126-0.471-0.126-0.762c0-0.283,0.064-0.549,0.191-0.8
			s0.318-0.471,0.571-0.66c0.253-0.189,0.568-0.338,0.947-0.448s0.82-0.164,1.326-0.164c0.438,0,0.825,0.023,1.162,0.068
			s0.636,0.096,0.896,0.15v1.36c-0.396-0.127-0.769-0.218-1.118-0.27s-0.694-0.079-1.036-0.079s-0.616,0.062-0.824,0.185
			s-0.311,0.294-0.311,0.513c0,0.105,0.021,0.198,0.062,0.28s0.122,0.162,0.243,0.239s0.29,0.158,0.506,0.243
			s0.502,0.177,0.858,0.277c0.401,0.114,0.738,0.236,1.012,0.366s0.493,0.277,0.66,0.441s0.286,0.351,0.359,0.561
			S478.336,36.047,478.336,36.316z"/>
	</g>
	<g>
		<rect x="312.4" y="75.101" fill="none" width="189.2" height="22"/>
		<path d="M364.177,84.508c-0.31,0.119-0.628,0.206-0.954,0.263s-0.662,0.085-1.008,0.085c-1.084,0-1.92-0.294-2.505-0.882
			s-0.878-1.447-0.878-2.577c0-0.542,0.084-1.035,0.253-1.477s0.406-0.82,0.711-1.135s0.67-0.557,1.094-0.728
			s0.891-0.256,1.401-0.256c0.355,0,0.688,0.025,0.998,0.075s0.606,0.132,0.889,0.246v1.135c-0.296-0.155-0.598-0.268-0.906-0.338
			s-0.625-0.106-0.954-0.106c-0.305,0-0.594,0.058-0.865,0.174s-0.509,0.284-0.714,0.502s-0.367,0.485-0.485,0.8
			s-0.178,0.67-0.178,1.066c0,0.83,0.202,1.45,0.605,1.863s0.963,0.619,1.678,0.619c0.324,0,0.637-0.037,0.94-0.109
			s0.596-0.182,0.878-0.328V84.508z"/>
		<path d="M372.151,81.274c0,0.533-0.075,1.022-0.226,1.466s-0.367,0.825-0.649,1.142s-0.626,0.563-1.032,0.738
			s-0.866,0.263-1.381,0.263c-0.492,0-0.933-0.076-1.323-0.229s-0.72-0.377-0.991-0.673s-0.479-0.663-0.622-1.101
			s-0.215-0.941-0.215-1.511c0-0.533,0.075-1.02,0.226-1.459s0.367-0.818,0.649-1.135s0.626-0.563,1.032-0.738
			s0.866-0.263,1.381-0.263c0.492,0,0.933,0.076,1.323,0.229s0.72,0.376,0.991,0.67s0.479,0.66,0.622,1.097
			S372.151,80.709,372.151,81.274z M370.934,81.329c0-0.424-0.047-0.794-0.14-1.111s-0.227-0.581-0.4-0.793
			s-0.384-0.372-0.632-0.479s-0.525-0.161-0.831-0.161c-0.355,0-0.66,0.069-0.913,0.208s-0.46,0.325-0.622,0.557
			s-0.28,0.502-0.355,0.81s-0.113,0.63-0.113,0.967c0,0.424,0.047,0.795,0.14,1.114s0.227,0.584,0.4,0.796s0.383,0.372,0.629,0.479
			s0.524,0.161,0.834,0.161c0.355,0,0.66-0.069,0.913-0.208s0.46-0.325,0.622-0.557s0.28-0.502,0.355-0.81
			S370.934,81.671,370.934,81.329z"/>
		<path d="M373.917,77.897h1.06l0.048,1.107c0.201-0.237,0.394-0.434,0.581-0.591s0.37-0.284,0.55-0.379s0.363-0.163,0.55-0.202
			s0.38-0.058,0.581-0.058c0.707,0,1.241,0.208,1.603,0.625s0.543,1.045,0.543,1.883v4.478h-1.189v-4.382
			c0-0.538-0.1-0.936-0.301-1.193s-0.499-0.386-0.896-0.386c-0.146,0-0.288,0.021-0.427,0.065s-0.284,0.119-0.434,0.226
			s-0.313,0.252-0.489,0.434s-0.373,0.41-0.591,0.684v4.553h-1.189V77.897z"/>
		<path d="M381.584,77.897h1.06l0.048,1.107c0.201-0.237,0.394-0.434,0.581-0.591s0.37-0.284,0.55-0.379s0.363-0.163,0.55-0.202
			s0.38-0.058,0.581-0.058c0.707,0,1.241,0.208,1.603,0.625s0.543,1.045,0.543,1.883v4.478h-1.189v-4.382
			c0-0.538-0.1-0.936-0.301-1.193s-0.499-0.386-0.896-0.386c-0.146,0-0.288,0.021-0.427,0.065s-0.284,0.119-0.434,0.226
			s-0.313,0.252-0.489,0.434s-0.373,0.41-0.591,0.684v4.553h-1.189V77.897z"/>
		<path d="M395.024,80.967c0,0.168-0.002,0.31-0.007,0.424s-0.011,0.221-0.021,0.321h-4.819c0,0.702,0.196,1.241,0.588,1.617
			s0.957,0.564,1.695,0.564c0.201,0,0.401-0.008,0.602-0.024s0.394-0.038,0.581-0.065s0.366-0.058,0.537-0.092
			s0.329-0.072,0.475-0.113v0.978c-0.324,0.091-0.689,0.165-1.097,0.222s-0.831,0.085-1.268,0.085c-0.588,0-1.094-0.08-1.518-0.239
			s-0.771-0.391-1.042-0.694s-0.472-0.674-0.602-1.114s-0.195-0.938-0.195-1.494c0-0.483,0.069-0.94,0.208-1.371
			s0.342-0.809,0.608-1.135s0.594-0.584,0.981-0.776s0.827-0.287,1.319-0.287c0.479,0,0.902,0.075,1.271,0.226
			s0.68,0.363,0.933,0.639s0.444,0.611,0.574,1.005S395.024,80.479,395.024,80.967z M393.787,80.796
			c0.014-0.305-0.016-0.584-0.089-0.837s-0.186-0.471-0.338-0.653s-0.343-0.325-0.571-0.427s-0.492-0.154-0.793-0.154
			c-0.26,0-0.497,0.05-0.711,0.15s-0.399,0.242-0.554,0.424s-0.28,0.401-0.376,0.656s-0.155,0.536-0.178,0.841H393.787z"/>
		<path d="M402.071,84.508c-0.31,0.119-0.628,0.206-0.954,0.263s-0.662,0.085-1.008,0.085c-1.084,0-1.92-0.294-2.505-0.882
			s-0.878-1.447-0.878-2.577c0-0.542,0.084-1.035,0.253-1.477s0.406-0.82,0.711-1.135s0.67-0.557,1.094-0.728
			s0.891-0.256,1.401-0.256c0.355,0,0.688,0.025,0.998,0.075s0.606,0.132,0.889,0.246v1.135c-0.296-0.155-0.598-0.268-0.906-0.338
			s-0.625-0.106-0.954-0.106c-0.305,0-0.594,0.058-0.865,0.174s-0.509,0.284-0.714,0.502s-0.367,0.485-0.485,0.8
			s-0.178,0.67-0.178,1.066c0,0.83,0.202,1.45,0.605,1.863s0.963,0.619,1.678,0.619c0.324,0,0.637-0.037,0.94-0.109
			s0.596-0.182,0.878-0.328V84.508z"/>
		<path d="M409.873,84.665c-0.269,0.068-0.547,0.117-0.834,0.147s-0.579,0.044-0.875,0.044c-0.861,0-1.504-0.195-1.928-0.584
			s-0.636-0.988-0.636-1.794v-3.582h-1.921v-0.998h1.921v-1.887l1.189-0.308v2.194h3.083v0.998h-3.083v3.486
			c0,0.492,0.131,0.86,0.393,1.104s0.648,0.366,1.159,0.366c0.219,0,0.458-0.017,0.718-0.051s0.531-0.088,0.813-0.161V84.665z"/>
		<path d="M414.017,78.882h-2.03v-0.984h3.233v5.872h2.044v0.991h-5.503v-0.991h2.256V78.882z M414.434,75.019
			c0.132,0,0.255,0.024,0.369,0.072s0.213,0.115,0.297,0.202s0.15,0.186,0.198,0.297s0.072,0.233,0.072,0.366
			c0,0.127-0.024,0.249-0.072,0.362s-0.114,0.214-0.198,0.301s-0.184,0.154-0.297,0.202s-0.237,0.072-0.369,0.072
			s-0.255-0.024-0.369-0.072s-0.213-0.115-0.297-0.202s-0.15-0.187-0.198-0.301s-0.072-0.235-0.072-0.362
			c0-0.132,0.024-0.254,0.072-0.366s0.114-0.211,0.198-0.297s0.184-0.154,0.297-0.202S414.301,75.019,414.434,75.019z"/>
		<path d="M425.046,81.274c0,0.533-0.075,1.022-0.226,1.466s-0.367,0.825-0.649,1.142s-0.626,0.563-1.032,0.738
			s-0.866,0.263-1.381,0.263c-0.492,0-0.933-0.076-1.323-0.229s-0.72-0.377-0.991-0.673s-0.479-0.663-0.622-1.101
			s-0.215-0.941-0.215-1.511c0-0.533,0.075-1.02,0.226-1.459s0.367-0.818,0.649-1.135s0.626-0.563,1.032-0.738
			s0.866-0.263,1.381-0.263c0.492,0,0.933,0.076,1.323,0.229s0.72,0.376,0.991,0.67s0.479,0.66,0.622,1.097
			S425.046,80.709,425.046,81.274z M423.829,81.329c0-0.424-0.047-0.794-0.14-1.111s-0.227-0.581-0.4-0.793
			s-0.384-0.372-0.632-0.479s-0.525-0.161-0.831-0.161c-0.355,0-0.66,0.069-0.913,0.208s-0.46,0.325-0.622,0.557
			s-0.28,0.502-0.355,0.81s-0.113,0.63-0.113,0.967c0,0.424,0.047,0.795,0.14,1.114s0.227,0.584,0.4,0.796s0.383,0.372,0.629,0.479
			s0.524,0.161,0.834,0.161c0.355,0,0.66-0.069,0.913-0.208s0.46-0.325,0.622-0.557s0.28-0.502,0.355-0.81
			S423.829,81.671,423.829,81.329z"/>
		<path d="M426.812,77.897h1.06l0.048,1.107c0.201-0.237,0.394-0.434,0.581-0.591s0.37-0.284,0.55-0.379s0.363-0.163,0.55-0.202
			s0.38-0.058,0.581-0.058c0.707,0,1.241,0.208,1.603,0.625s0.543,1.045,0.543,1.883v4.478h-1.189v-4.382
			c0-0.538-0.1-0.936-0.301-1.193s-0.499-0.386-0.896-0.386c-0.146,0-0.288,0.021-0.427,0.065s-0.284,0.119-0.434,0.226
			s-0.313,0.252-0.489,0.434s-0.373,0.41-0.591,0.684v4.553h-1.189V77.897z"/>
		<path d="M441.253,87.563h-7.697v-0.984h7.697V87.563z"/>
		<path d="M444.582,78.882h-2.03v-0.984h3.233v5.872h2.044v0.991h-5.503v-0.991h2.256V78.882z M444.999,75.019
			c0.132,0,0.255,0.024,0.369,0.072s0.213,0.115,0.297,0.202s0.15,0.186,0.198,0.297s0.072,0.233,0.072,0.366
			c0,0.127-0.024,0.249-0.072,0.362s-0.114,0.214-0.198,0.301s-0.184,0.154-0.297,0.202s-0.237,0.072-0.369,0.072
			s-0.255-0.024-0.369-0.072s-0.213-0.115-0.297-0.202s-0.15-0.187-0.198-0.301s-0.072-0.235-0.072-0.362
			c0-0.132,0.024-0.254,0.072-0.366s0.114-0.211,0.198-0.297s0.184-0.154,0.297-0.202S444.867,75.019,444.999,75.019z"/>
		<path d="M449.296,81.473c0-0.583,0.08-1.102,0.239-1.555s0.386-0.836,0.68-1.148s0.647-0.549,1.06-0.711s0.872-0.243,1.377-0.243
			c0.219,0,0.434,0.014,0.646,0.041s0.42,0.071,0.625,0.13v-2.885h1.196v9.659h-1.066l-0.041-1.299
			c-0.333,0.483-0.693,0.841-1.08,1.073s-0.807,0.349-1.258,0.349c-0.392,0-0.737-0.082-1.036-0.246s-0.547-0.396-0.745-0.694
			s-0.348-0.657-0.448-1.077S449.296,81.983,449.296,81.473z M450.513,81.397c0,0.83,0.122,1.448,0.366,1.856
			s0.589,0.612,1.036,0.612c0.301,0,0.619-0.134,0.954-0.403s0.687-0.667,1.056-1.196V79.08c-0.196-0.091-0.413-0.161-0.649-0.208
			s-0.472-0.072-0.704-0.072c-0.647,0-1.152,0.209-1.514,0.629S450.513,80.504,450.513,81.397z"/>
	</g>
	<g>
		<rect x="312.4" y="114.701" fill="none" width="189.2" height="22"/>
		<path d="M376.083,122.487c0,0.242-0.041,0.458-0.123,0.649s-0.194,0.361-0.335,0.509s-0.305,0.274-0.492,0.379
			s-0.386,0.191-0.598,0.26s-0.43,0.119-0.653,0.15s-0.442,0.048-0.656,0.048c-0.465,0-0.892-0.021-1.282-0.062
			s-0.771-0.107-1.145-0.198v-1.094c0.401,0.114,0.8,0.201,1.196,0.26s0.791,0.089,1.183,0.089c0.57,0,0.991-0.078,1.265-0.232
			s0.41-0.376,0.41-0.663c0-0.123-0.021-0.233-0.065-0.332s-0.122-0.191-0.236-0.28s-0.291-0.181-0.53-0.277
			s-0.566-0.205-0.981-0.328c-0.31-0.091-0.596-0.195-0.858-0.311s-0.489-0.254-0.68-0.414s-0.342-0.346-0.451-0.561
			s-0.164-0.467-0.164-0.759c0-0.191,0.044-0.401,0.133-0.629s0.24-0.44,0.455-0.636s0.503-0.359,0.868-0.489
			s0.82-0.195,1.367-0.195c0.269,0,0.567,0.015,0.896,0.044s0.67,0.081,1.025,0.154v1.06c-0.374-0.091-0.728-0.158-1.063-0.202
			s-0.625-0.065-0.872-0.065c-0.296,0-0.546,0.023-0.749,0.068s-0.367,0.108-0.492,0.188s-0.215,0.173-0.27,0.28
			s-0.082,0.222-0.082,0.345s0.024,0.235,0.072,0.335s0.137,0.197,0.267,0.291s0.311,0.187,0.543,0.28s0.536,0.195,0.909,0.304
			c0.406,0.119,0.748,0.243,1.025,0.373s0.503,0.274,0.677,0.434s0.297,0.339,0.373,0.54S376.083,122.232,376.083,122.487z"/>
		<path d="M383.873,120.566c0,0.168-0.002,0.31-0.007,0.424s-0.011,0.221-0.021,0.321h-4.819c0,0.702,0.196,1.241,0.588,1.617
			s0.957,0.564,1.695,0.564c0.201,0,0.401-0.008,0.602-0.024s0.394-0.038,0.581-0.065s0.366-0.058,0.537-0.092
			s0.329-0.072,0.475-0.113v0.978c-0.324,0.091-0.689,0.165-1.097,0.222s-0.831,0.085-1.268,0.085c-0.588,0-1.094-0.08-1.518-0.239
			s-0.771-0.391-1.042-0.694s-0.472-0.674-0.602-1.114s-0.195-0.938-0.195-1.494c0-0.483,0.069-0.94,0.208-1.371
			s0.342-0.809,0.608-1.135s0.594-0.584,0.981-0.776s0.827-0.287,1.319-0.287c0.479,0,0.902,0.075,1.271,0.226
			s0.68,0.363,0.933,0.639s0.444,0.611,0.574,1.005S383.873,120.079,383.873,120.566z M382.636,120.395
			c0.014-0.305-0.016-0.584-0.089-0.837s-0.186-0.471-0.338-0.653s-0.343-0.325-0.571-0.427s-0.492-0.154-0.793-0.154
			c-0.26,0-0.497,0.05-0.711,0.15s-0.399,0.242-0.554,0.424s-0.28,0.401-0.376,0.656s-0.155,0.536-0.178,0.841H382.636z"/>
		<path d="M390.862,122.487c0,0.242-0.041,0.458-0.123,0.649s-0.194,0.361-0.335,0.509s-0.305,0.274-0.492,0.379
			s-0.386,0.191-0.598,0.26s-0.43,0.119-0.653,0.15s-0.442,0.048-0.656,0.048c-0.465,0-0.892-0.021-1.282-0.062
			s-0.771-0.107-1.145-0.198v-1.094c0.401,0.114,0.8,0.201,1.196,0.26s0.791,0.089,1.183,0.089c0.57,0,0.991-0.078,1.265-0.232
			s0.41-0.376,0.41-0.663c0-0.123-0.021-0.233-0.065-0.332s-0.122-0.191-0.236-0.28s-0.291-0.181-0.53-0.277
			s-0.566-0.205-0.981-0.328c-0.31-0.091-0.596-0.195-0.858-0.311s-0.489-0.254-0.68-0.414s-0.342-0.346-0.451-0.561
			s-0.164-0.467-0.164-0.759c0-0.191,0.044-0.401,0.133-0.629s0.24-0.44,0.455-0.636s0.503-0.359,0.868-0.489
			s0.82-0.195,1.367-0.195c0.269,0,0.567,0.015,0.896,0.044s0.67,0.081,1.025,0.154v1.06c-0.374-0.091-0.728-0.158-1.063-0.202
			s-0.625-0.065-0.872-0.065c-0.296,0-0.546,0.023-0.749,0.068s-0.367,0.108-0.492,0.188s-0.215,0.173-0.27,0.28
			s-0.082,0.222-0.082,0.345s0.024,0.235,0.072,0.335s0.137,0.197,0.267,0.291s0.311,0.187,0.543,0.28s0.536,0.195,0.909,0.304
			c0.406,0.119,0.748,0.243,1.025,0.373s0.503,0.274,0.677,0.434s0.297,0.339,0.373,0.54S390.862,122.232,390.862,122.487z"/>
		<path d="M398.08,122.487c0,0.242-0.041,0.458-0.123,0.649s-0.194,0.361-0.335,0.509s-0.305,0.274-0.492,0.379
			s-0.386,0.191-0.598,0.26s-0.43,0.119-0.653,0.15s-0.442,0.048-0.656,0.048c-0.465,0-0.892-0.021-1.282-0.062
			s-0.771-0.107-1.145-0.198v-1.094c0.401,0.114,0.8,0.201,1.196,0.26s0.791,0.089,1.183,0.089c0.57,0,0.991-0.078,1.265-0.232
			s0.41-0.376,0.41-0.663c0-0.123-0.021-0.233-0.065-0.332s-0.122-0.191-0.236-0.28s-0.291-0.181-0.53-0.277
			s-0.566-0.205-0.981-0.328c-0.31-0.091-0.596-0.195-0.858-0.311s-0.489-0.254-0.68-0.414s-0.342-0.346-0.451-0.561
			s-0.164-0.467-0.164-0.759c0-0.191,0.044-0.401,0.133-0.629s0.24-0.44,0.455-0.636s0.503-0.359,0.868-0.489
			s0.82-0.195,1.367-0.195c0.269,0,0.567,0.015,0.896,0.044s0.67,0.081,1.025,0.154v1.06c-0.374-0.091-0.728-0.158-1.063-0.202
			s-0.625-0.065-0.872-0.065c-0.296,0-0.546,0.023-0.749,0.068s-0.367,0.108-0.492,0.188s-0.215,0.173-0.27,0.28
			s-0.082,0.222-0.082,0.345s0.024,0.235,0.072,0.335s0.137,0.197,0.267,0.291s0.311,0.187,0.543,0.28s0.536,0.195,0.909,0.304
			c0.406,0.119,0.748,0.243,1.025,0.373s0.503,0.274,0.677,0.434s0.297,0.339,0.373,0.54S398.08,122.232,398.08,122.487z"/>
		<path d="M402.214,118.481h-2.03v-0.984h3.233v5.872h2.044v0.991h-5.503v-0.991h2.256V118.481z M402.631,114.619
			c0.132,0,0.255,0.024,0.369,0.072s0.213,0.115,0.297,0.202s0.15,0.186,0.198,0.297s0.072,0.233,0.072,0.366
			c0,0.127-0.024,0.249-0.072,0.362s-0.114,0.214-0.198,0.301s-0.184,0.154-0.297,0.202s-0.237,0.072-0.369,0.072
			s-0.255-0.024-0.369-0.072s-0.213-0.115-0.297-0.202s-0.15-0.187-0.198-0.301s-0.072-0.235-0.072-0.362
			c0-0.132,0.024-0.254,0.072-0.366s0.114-0.211,0.198-0.297s0.184-0.154,0.297-0.202S402.499,114.619,402.631,114.619z"/>
		<path d="M413.243,120.874c0,0.533-0.075,1.022-0.226,1.466s-0.367,0.825-0.649,1.142s-0.626,0.563-1.032,0.738
			s-0.866,0.263-1.381,0.263c-0.492,0-0.933-0.076-1.323-0.229s-0.72-0.377-0.991-0.673s-0.479-0.663-0.622-1.101
			s-0.215-0.941-0.215-1.511c0-0.533,0.075-1.02,0.226-1.459s0.367-0.818,0.649-1.135s0.626-0.563,1.032-0.738
			s0.866-0.263,1.381-0.263c0.492,0,0.933,0.076,1.323,0.229s0.72,0.376,0.991,0.67s0.479,0.66,0.622,1.097
			S413.243,120.309,413.243,120.874z M412.026,120.929c0-0.424-0.047-0.794-0.14-1.111s-0.227-0.581-0.4-0.793
			s-0.384-0.372-0.632-0.479s-0.525-0.161-0.831-0.161c-0.355,0-0.66,0.069-0.913,0.208s-0.46,0.325-0.622,0.557
			s-0.28,0.502-0.355,0.81s-0.113,0.63-0.113,0.967c0,0.424,0.047,0.795,0.14,1.114s0.227,0.584,0.4,0.796s0.383,0.372,0.629,0.479
			s0.524,0.161,0.834,0.161c0.355,0,0.66-0.069,0.913-0.208s0.46-0.325,0.622-0.557s0.28-0.502,0.355-0.81
			S412.026,121.27,412.026,120.929z"/>
		<path d="M415.009,117.497h1.06l0.048,1.107c0.201-0.237,0.394-0.434,0.581-0.591s0.37-0.284,0.55-0.379s0.363-0.163,0.55-0.202
			s0.38-0.058,0.581-0.058c0.707,0,1.241,0.208,1.603,0.625s0.543,1.045,0.543,1.883v4.478h-1.189v-4.382
			c0-0.538-0.1-0.936-0.301-1.193s-0.499-0.386-0.896-0.386c-0.146,0-0.288,0.021-0.427,0.065s-0.284,0.119-0.434,0.226
			s-0.313,0.252-0.489,0.434s-0.373,0.41-0.591,0.684v4.553h-1.189V117.497z"/>
		<path d="M429.45,127.163h-7.697v-0.984h7.697V127.163z"/>
		<path d="M432.779,118.481h-2.03v-0.984h3.233v5.872h2.044v0.991h-5.503v-0.991h2.256V118.481z M433.196,114.619
			c0.132,0,0.255,0.024,0.369,0.072s0.213,0.115,0.297,0.202s0.15,0.186,0.198,0.297s0.072,0.233,0.072,0.366
			c0,0.127-0.024,0.249-0.072,0.362s-0.114,0.214-0.198,0.301s-0.184,0.154-0.297,0.202s-0.237,0.072-0.369,0.072
			s-0.255-0.024-0.369-0.072s-0.213-0.115-0.297-0.202s-0.15-0.187-0.198-0.301s-0.072-0.235-0.072-0.362
			c0-0.132,0.024-0.254,0.072-0.366s0.114-0.211,0.198-0.297s0.184-0.154,0.297-0.202S433.064,114.619,433.196,114.619z"/>
		<path d="M437.493,121.072c0-0.583,0.08-1.102,0.239-1.555s0.386-0.836,0.68-1.148s0.647-0.549,1.06-0.711s0.872-0.243,1.377-0.243
			c0.219,0,0.434,0.014,0.646,0.041s0.42,0.071,0.625,0.13v-2.885h1.196v9.659h-1.066l-0.041-1.299
			c-0.333,0.483-0.693,0.841-1.08,1.073s-0.807,0.349-1.258,0.349c-0.392,0-0.737-0.082-1.036-0.246s-0.547-0.396-0.745-0.694
			s-0.348-0.657-0.448-1.077S437.493,121.582,437.493,121.072z M438.71,120.997c0,0.83,0.122,1.448,0.366,1.856
			s0.589,0.612,1.036,0.612c0.301,0,0.619-0.134,0.954-0.403s0.687-0.667,1.056-1.196v-3.186c-0.196-0.091-0.413-0.161-0.649-0.208
			s-0.472-0.072-0.704-0.072c-0.647,0-1.152,0.209-1.514,0.629S438.71,120.104,438.71,120.997z"/>
	</g>
</g>
<g id="Layer_1">
</g>
</svg>
