<svg xmlns="http://www.w3.org/2000/svg" xmlns:xlink="http://www.w3.org/1999/xlink" viewBox="0 0 498 307.1">
  <defs>
    <linearGradient id="linear-gradient" x1="249" y1="5.5" x2="249" y2="206.5" gradientUnits="userSpaceOnUse">
      <stop offset="0" stop-color="#f0f0f0"/>
      <stop offset="0.33" stop-color="#ececec"/>
      <stop offset="0.68" stop-color="#dfdfdf"/>
      <stop offset="1" stop-color="#ccc"/>
    </linearGradient>
    <linearGradient id="linear-gradient-2" x1="89.663" y1="1629.603" x2="89.663" y2="1651.653" gradientTransform="matrix(1, 0, 0, -1, 0, 1725)" gradientUnits="userSpaceOnUse">
      <stop offset="0" stop-color="#2e76bc"/>
      <stop offset="0.502" stop-color="#4f8fcc"/>
      <stop offset="0.775" stop-color="#699cd3"/>
    </linearGradient>
    <linearGradient id="linear-gradient-3" x1="410.488" y1="1629.603" x2="410.488" y2="1651.653" xlink:href="#linear-gradient-2"/>
    <linearGradient id="linear-gradient-4" x1="162.95" y1="1535.669" x2="162.95" y2="1553.669" gradientTransform="matrix(1, 0, 0, -1, 0, 1725)" gradientUnits="userSpaceOnUse">
      <stop offset="0" stop-color="#2e76bc"/>
      <stop offset="0.817" stop-color="#699cd3"/>
    </linearGradient>
    <clipPath id="clip-path">
      <rect x="52.602" y="236.268" width="60.625" height="58.212" fill="none"/>
    </clipPath>
    <linearGradient id="linear-gradient-5" x1="-1366.042" y1="1493.689" x2="-1390.666" y2="1445.981" gradientTransform="translate(-1307.161 1725) rotate(180)" gradientUnits="userSpaceOnUse">
      <stop offset="0" stop-color="#4fc1ea"/>
      <stop offset="0.585" stop-color="#2e76bc"/>
    </linearGradient>
    <linearGradient id="linear-gradient-6" x1="92.391" y1="1476.823" x2="92.391" y2="1498.823" xlink:href="#linear-gradient-4"/>
  </defs>
  <g id="Shapes">
    <rect width="498" height="307.1" fill="#fff"/>
    <rect x="7" y="5.5" width="484" height="201" fill-opacity="0.5" stroke="#777677" stroke-width="0.25" fill="url(#linear-gradient)"/>
    <g>
      <rect x="19.263" y="18.374" width="140.8" height="92.4" fill="#fff"/>
      <rect x="19.263" y="18.374" width="140.8" height="92.4" fill="#699cd3" opacity="0.4"/>
    </g>
    <g>
      <rect x="80" y="243.5" width="411" height="58" fill="#fff"/>
      <rect x="80" y="243.5" width="411" height="58" fill="#fed402" opacity="0.25"/>
      <rect x="80" y="243.5" width="411" height="58" fill="none" stroke="#fed402" stroke-miterlimit="10" stroke-width="0.25"/>
    </g>
    <g>
      <rect x="336.8" y="18.374" width="140.8" height="92.4" fill="#fff"/>
      <rect x="336.8" y="18.374" width="140.8" height="92.4" fill="#699cd3" opacity="0.4"/>
    </g>
    <g id="fb33f902-6783-4db3-88ea-a4524e356c77">
      <g>
        <path d="M71.006,73.347h37.313v20.8a1.246,1.246,0,0,1-1.246,1.247H72.253a1.247,1.247,0,0,1-1.247-1.247v-20.8Z" fill="url(#linear-gradient-2)"/>
        <path d="M72.259,65.4h34.807a1.246,1.246,0,0,1,1.247,1.246h0v6.7H71.006v-6.7A1.246,1.246,0,0,1,72.253,65.4Z" fill="#2e76bc"/>
        <rect x="74.966" y="76.273" width="8.011" height="4.061" rx="0.621" fill="#fff" opacity="0.9" style="isolation: isolate"/>
        <rect x="85.712" y="76.215" width="8.011" height="4.061" rx="0.621" fill="#fff" opacity="0.9" style="isolation: isolate"/>
        <rect x="96.458" y="76.215" width="8.011" height="4.061" rx="0.621" fill="#fff" opacity="0.9" style="isolation: isolate"/>
        <rect x="75.084" y="82.08" width="8.011" height="4.061" rx="0.621" fill="#fff" opacity="0.9" style="isolation: isolate"/>
        <rect x="85.83" y="82.023" width="8.011" height="4.061" rx="0.621" fill="#fed402"/>
        <rect x="96.577" y="82.023" width="8.011" height="4.061" rx="0.621" fill="#fed402"/>
        <rect x="75.084" y="87.945" width="8.011" height="4.061" rx="0.621" fill="#fed402"/>
        <rect x="85.83" y="87.888" width="8.011" height="4.061" rx="0.621" fill="#fed402"/>
        <rect x="96.577" y="87.888" width="8.011" height="4.061" rx="0.621" fill="#fed402"/>
      </g>
    </g>
    <g>
      <g id="fb33f902-6783-4db3-88ea-a4524e356c77-2" data-name="fb33f902-6783-4db3-88ea-a4524e356c77">
        <g>
          <path d="M391.831,73.347h37.313v20.8A1.246,1.246,0,0,1,427.9,95.4h-34.82a1.247,1.247,0,0,1-1.247-1.247v-20.8Z" fill="url(#linear-gradient-3)"/>
          <path d="M393.084,65.4h34.807a1.246,1.246,0,0,1,1.247,1.246h0v6.7H391.831v-6.7a1.246,1.246,0,0,1,1.247-1.246Z" fill="#2e76bc"/>
          <rect x="395.79" y="76.273" width="8.011" height="4.061" rx="0.621" fill="#fff" opacity="0.9" style="isolation: isolate"/>
          <rect x="406.537" y="76.215" width="8.011" height="4.061" rx="0.621" fill="#fff" opacity="0.9" style="isolation: isolate"/>
          <rect x="417.283" y="76.215" width="8.011" height="4.061" rx="0.621" fill="#fff" opacity="0.9" style="isolation: isolate"/>
          <rect x="395.909" y="82.08" width="8.011" height="4.061" rx="0.621" fill="#fff" opacity="0.9" style="isolation: isolate"/>
          <rect x="406.655" y="82.023" width="8.011" height="4.061" rx="0.621" fill="#fed402"/>
          <rect x="417.402" y="82.023" width="8.011" height="4.061" rx="0.621" fill="#fed402"/>
          <rect x="395.909" y="87.945" width="8.011" height="4.061" rx="0.621" fill="#fed402"/>
          <rect x="406.655" y="87.888" width="8.011" height="4.061" rx="0.621" fill="#fed402"/>
          <rect x="417.402" y="87.888" width="8.011" height="4.061" rx="0.621" fill="#fed402"/>
        </g>
      </g>
      <path d="M385.581,71.47A9.94,9.94,0,0,1,376.408,85.3a9.746,9.746,0,0,1-3.265-.554,9.868,9.868,0,0,1-2.808-1.516,10.071,10.071,0,0,1-2.167-2.312,9.58,9.58,0,0,1-.792-1.4A9.742,9.742,0,0,1,366.827,78l1.195-.331a8.482,8.482,0,0,0,1.2,2.585,8.83,8.83,0,0,0,1.919,2.021,8.7,8.7,0,0,0,2.459,1.312,8.705,8.705,0,0,0,5.116.155,8.675,8.675,0,0,0,2.079-.879,8.754,8.754,0,0,0,4.008-5.2,8.738,8.738,0,0,0,0-4.621,8.675,8.675,0,0,0-.879-2.079,8.75,8.75,0,0,0-5.208-4.009,8.7,8.7,0,0,0-4.757.044A8.785,8.785,0,0,0,369.9,69.57a8.53,8.53,0,0,0-1.355,2.046h2.886v1.243h-4.975V67.884H367.7v2.663c.11-.208.229-.41.359-.608s.266-.39.408-.578a9.889,9.889,0,0,1,4.888-3.488,9.8,9.8,0,0,1,3.051-.476,9.994,9.994,0,0,1,9.173,6.073Zm-9.173-1.1v5.335l3.547,3.556-.875.874-3.916-3.906V70.372Z" fill="#1e1e1e"/>
      <path d="M449.542,74.1V85.3H434.617V74.1H437.1V70.469a5.158,5.158,0,0,1,.379-1.973,5.042,5.042,0,0,1,1.05-1.613,4.973,4.973,0,0,1,1.574-1.088,5.062,5.062,0,0,1,3.935,0,5.073,5.073,0,0,1,1.584,1.088,4.818,4.818,0,0,1,1.05,1.613,5.416,5.416,0,0,1,.379,1.973V74.1Zm-11.194,0h7.463V70.469a3.865,3.865,0,0,0-.282-1.477,4.022,4.022,0,0,0-.777-1.224,3.4,3.4,0,0,0-1.186-.826,3.881,3.881,0,0,0-1.486-.3,3.6,3.6,0,0,0-1.477.3,3.717,3.717,0,0,0-1.186.826,3.809,3.809,0,0,0-.787,1.214,3.894,3.894,0,0,0-.282,1.487Zm9.95,1.244H435.861v8.706H448.3Z"/>
    </g>
    <g>
      <line x1="146.8" y1="181.703" x2="95.582" y2="181.703" fill="none" stroke="#3c3c41" stroke-miterlimit="10"/>
      <polygon points="96.676 177.963 90.2 181.703 96.676 185.442 96.676 177.963" fill="#3c3c41"/>
    </g>
    <g id="abc3e3f9-d4db-41ad-8b60-378d1c3348f7">
      <g>
        <g>
          <path d="M163.973,171.465h-7.661a.605.605,0,0,0-.605.6h0v16.52a.605.605,0,0,0,.6.606h13.277a.6.6,0,0,0,.6-.606V177.658a.6.6,0,0,0-.6-.606h-4.406a.605.605,0,0,1-.6-.6v-4.376a.6.6,0,0,0-.594-.606Z" fill="#fff"/>
          <path d="M163.693,172.239v4.149a1.524,1.524,0,0,0,1.52,1.523h4.18v10.512H156.507V172.239h7.186m.293-.908h-7.772a.614.614,0,0,0-.614.614h0v16.77a.614.614,0,0,0,.613.615h13.473a.614.614,0,0,0,.614-.614h0v-11.1a.614.614,0,0,0-.614-.614h-4.473a.614.614,0,0,1-.613-.615h0v-4.442a.613.613,0,0,0-.613-.615Z" fill="url(#linear-gradient-4)"/>
          <path d="M170.066,177.125l-5.678-5.66v4.612a1.041,1.041,0,0,0,1.034,1.048h4.644Z" fill="#2e76bc"/>
        </g>
        <rect x="157.95" y="179.527" width="9.999" height="1.341" rx="0.603" fill="#699cd3"/>
        <rect x="157.95" y="181.93" width="9.999" height="1.341" rx="0.603" fill="#699cd3"/>
        <rect x="157.95" y="184.333" width="6.302" height="1.341" rx="0.603" fill="#699cd3"/>
      </g>
    </g>
    <g clip-path="url(#clip-path)">
      <g>
        <path d="M79.49,292.667a2.067,2.067,0,0,0,1.858.078l31.543-18.211a.551.551,0,0,0,.32-.465.77.77,0,0,0-.452-.609L92.3,261.649,59.032,280.856Z" fill="#53626b"/>
        <path d="M79.493,292.667,59.035,280.853l.069.235a3.635,3.635,0,0,0,1.719,2.184l18.67,10.78a2.079,2.079,0,0,0,1.858.078l31.537-18.212a.526.526,0,0,0,.317-.518l.006-1.33a.55.55,0,0,1-.32.464l-31.54,18.211A2.076,2.076,0,0,1,79.493,292.667Z" fill="#323e44"/>
        <path d="M85.574,236.8c.145-.238.5-.175.76-.106l-1.032-.28a.974.974,0,0,0-.741.108L53.769,254.3a2,2,0,0,0-.966,2.174l4.8,22.088a4.052,4.052,0,0,0,1.43,2.292Z" fill="#53626b"/>
        <path d="M87.067,237.462a1.006,1.006,0,0,0-1.493-.66L54.782,254.579a2,2,0,0,0-.965,2.175l5.212,24.1L92.3,261.649Z" fill="#323e44"/>
        <path d="M94.1,266.137V265.9H90.089v.232a.117.117,0,0,0,.061.106l1.74,1a.4.4,0,0,0,.407,0l1.743-1A.124.124,0,0,0,94.1,266.137Zm-.061,8.874a.12.12,0,0,0,.061-.106v-.232l-14.134,5.845v.232a.112.112,0,0,0,.06.106l1.741,1a.392.392,0,0,0,.407,0Zm5.122-5.954v-.233l-9.073,2.923v.235a.112.112,0,0,0,.061.106l1.74,1a.406.406,0,0,0,.407,0l6.8-3.927A.113.113,0,0,0,99.162,269.057Zm-2.528,4.385v-.235H92.623v.235a.113.113,0,0,0,.06.106l1.743,1a.388.388,0,0,0,.405,0l1.74-1A.119.119,0,0,0,96.634,273.442Zm2.471-1.354a.122.122,0,0,0,.06-.106v-.235H95.159v.235a.113.113,0,0,0,.061.106l1.74,1a.4.4,0,0,0,.4,0Zm2.593-1.568v-.233H97.687v.233a.112.112,0,0,0,.06.105l1.744,1.008a.391.391,0,0,0,.4,0l1.74-1.008A.131.131,0,0,0,101.7,270.52Zm-17.723,7.308v-.236H79.964v.236a.112.112,0,0,0,.06.105l1.744,1a.392.392,0,0,0,.407,0l1.74-1A.118.118,0,0,0,83.975,277.828Zm-7.655,4.488a.121.121,0,0,0,.061-.106v-.232l-6.539,1.46v.235a.115.115,0,0,0,.06.106l1.743,1a.4.4,0,0,0,.405,0Zm2.594,1.357v-.235H74.906v.235a.115.115,0,0,0,.06.106l1.743,1a.393.393,0,0,0,.405,0l1.74-1A.12.12,0,0,0,78.914,283.673Zm2.531-1.463v-.232H77.436v.232a.112.112,0,0,0,.061.106l1.74,1a.392.392,0,0,0,.407,0l1.741-1A.112.112,0,0,0,81.445,282.21Zm0-2.92v-.232H77.436v.232a.118.118,0,0,0,.061.106l1.74,1a.392.392,0,0,0,.407,0l1.741-1A.122.122,0,0,0,81.445,279.29Zm-2.531,1.46v-.235H74.906v.235a.112.112,0,0,0,.06.106l1.743,1a.388.388,0,0,0,.405,0l1.74-1A.116.116,0,0,0,78.914,280.75Zm12.6-7.2a.124.124,0,0,0,.06-.106v-.235h-4v.235a.117.117,0,0,0,.06.106l1.74,1a.386.386,0,0,0,.4,0Zm-2.531,1.46a.122.122,0,0,0,.061-.106v-.232H85.034v.232a.113.113,0,0,0,.06.106l1.741,1a.391.391,0,0,0,.4,0Zm-2.47,1.357v-.232H82.5v.232a.115.115,0,0,0,.061.106l1.74,1a.4.4,0,0,0,.407,0l1.741-1A.132.132,0,0,0,86.509,276.368Zm-10.125,8.765V284.9H72.375v.235a.114.114,0,0,0,.06.105l1.741,1a.4.4,0,0,0,.407,0l1.74-1A.12.12,0,0,0,76.384,285.133Zm-2.594-4.277a.119.119,0,0,0,.06-.106v-.232H69.842v.232a.112.112,0,0,0,.06.106l1.743,1a.388.388,0,0,0,.405,0Zm-2.525,1.463a.124.124,0,0,0,.061-.106v-.232H67.314v.232a.113.113,0,0,0,.06.106l1.741,1a.391.391,0,0,0,.4,0Zm25.306-14.614a.122.122,0,0,0,.06-.1v-.235l-6.539,1.462v.233a.111.111,0,0,0,.061.105l1.74,1a.4.4,0,0,0,.407,0Zm-5.061,2.92a.118.118,0,0,0,.06-.105v-.233H87.562v.233a.112.112,0,0,0,.06.105l1.74,1.008a.4.4,0,0,0,.407,0Zm-10.122,5.849a.124.124,0,0,0,.06-.106v-.232H77.439v.232a.114.114,0,0,0,.061.106l1.74,1a.391.391,0,0,0,.4,0Zm-2.534,1.459a.125.125,0,0,0,.06-.105V277.6H74.906v.233a.112.112,0,0,0,.06.105l1.743,1a.388.388,0,0,0,.405,0ZM76.326,279.4a.124.124,0,0,0,.061-.106v-.232H72.375v.232a.121.121,0,0,0,.06.106l1.741,1a.386.386,0,0,0,.4,0Zm12.653-7.308a.123.123,0,0,0,.061-.106v-.235H85.034v.235a.112.112,0,0,0,.06.106l1.741,1a.4.4,0,0,0,.4,0Zm-2.47,1.354v-.235H82.5v.235a.114.114,0,0,0,.061.106l1.74,1a.392.392,0,0,0,.407,0l1.741-1A.123.123,0,0,0,86.509,273.442Zm-2.594,1.569a.121.121,0,0,0,.06-.106v-.232H79.967v.232a.113.113,0,0,0,.06.106l1.741,1a.4.4,0,0,0,.407,0Zm-5.061,0a.128.128,0,0,0,.06-.106v-.232H74.906v.232a.113.113,0,0,0,.06.106l1.743,1a.393.393,0,0,0,.405,0Zm-12.593,4.273v-.235l-2.946.616v.235a.115.115,0,0,0,.06.105l.679.393a.4.4,0,0,0,.4,0l1.74-1.005A.123.123,0,0,0,66.261,279.284ZM91.57,264.671v-.235l-2.947.615v.235a.118.118,0,0,0,.061.106l.678.392a.4.4,0,0,0,.407,0l1.741-1A.118.118,0,0,0,91.57,264.671Zm-2.588,1.569a.12.12,0,0,0,.061-.106V265.9l-2.947.615v.232a.116.116,0,0,0,.06.106l.679.392a.391.391,0,0,0,.4,0ZM86.446,267.7a.115.115,0,0,0,.06-.105v-.232l-2.947.615v.232a.119.119,0,0,0,.061.106l.678.392a.4.4,0,0,0,.407,0Zm-2.471,1.355v-.236l-2.946.616v.235a.118.118,0,0,0,.06.106l.679.392a.4.4,0,0,0,.407,0l1.74-1A.12.12,0,0,0,83.975,269.057Zm-2.59,1.565a.125.125,0,0,0,.06-.105v-.233L78.5,270.9v.235a.115.115,0,0,0,.06.105l.679.392a.392.392,0,0,0,.407,0Zm-2.468,1.357v-.232l-2.947.615v.233a.119.119,0,0,0,.061.1l.678.392a.388.388,0,0,0,.405,0l1.74-1A.133.133,0,0,0,78.917,271.979Zm-2.533,1.463v-.232l-2.947.612v.233a.115.115,0,0,0,.06.105l.679.392a.392.392,0,0,0,.407,0l1.74-1A.121.121,0,0,0,76.384,273.442Zm-2.531,1.46v-.235l-2.947.615v.235a.115.115,0,0,0,.061.106l.678.392a.4.4,0,0,0,.407,0l1.741-1A.126.126,0,0,0,73.853,274.9Zm-2.53,1.463v-.232l-2.947.615v.232a.116.116,0,0,0,.06.106l.679.392a.4.4,0,0,0,.407,0l1.74-1A.134.134,0,0,0,71.323,276.365Zm-2.534,1.463V277.6l-2.947.613v.232a.118.118,0,0,0,.06.106l.679.391a.392.392,0,0,0,.407,0l1.741-1A.118.118,0,0,0,68.789,277.828Zm-.054,3.028a.125.125,0,0,0,.06-.106v-.232H64.783v.232a.113.113,0,0,0,.061.106l1.74,1a.386.386,0,0,0,.4,0Zm7.591-4.382a.123.123,0,0,0,.061-.106v-.232H72.375v.232a.116.116,0,0,0,.06.106l1.741,1a.391.391,0,0,0,.4,0Zm-2.533,1.459a.118.118,0,0,0,.06-.105V277.6H69.842v.233a.112.112,0,0,0,.06.105l1.743,1a.388.388,0,0,0,.405,0Zm12.656-7.305a.125.125,0,0,0,.06-.1v-.233H82.5v.233a.116.116,0,0,0,.061.1l1.74,1a.4.4,0,0,0,.407,0Zm-2.474,1.354v-.235H79.964v.235a.112.112,0,0,0,.06.106l1.744,1a.406.406,0,0,0,.407,0l1.74-1A.122.122,0,0,0,83.975,271.982Zm-2.53,1.46v-.235H77.436v.235a.113.113,0,0,0,.061.106l1.74,1a.392.392,0,0,0,.407,0l1.741-1A.117.117,0,0,0,81.445,273.442ZM71.265,279.4a.124.124,0,0,0,.061-.106v-.232H67.314v.232a.119.119,0,0,0,.06.106l1.741,1a.386.386,0,0,0,.4,0Zm17.714-10.231a.116.116,0,0,0,.061-.105v-.233H85.034v.233a.112.112,0,0,0,.06.105l1.741,1a.391.391,0,0,0,.4,0ZM91.57,267.6v-.235H87.562v.235a.112.112,0,0,0,.06.105l1.74,1a.4.4,0,0,0,.407,0l1.741-1A.115.115,0,0,0,91.57,267.6Z" fill="#323e44"/>
        <path d="M68.729,277.7a.125.125,0,0,0,.06-.106.115.115,0,0,0-.06-.105l-.679-.392a.386.386,0,0,0-.4,0l-1.74,1a.124.124,0,0,0-.061.106.116.116,0,0,0,.061.1l.679.392a.385.385,0,0,0,.4,0Zm7.589-4.385a.132.132,0,0,0,.06-.106.121.121,0,0,0-.06-.106l-.679-.392a.391.391,0,0,0-.4,0l-1.74,1a.12.12,0,0,0-.061.105.115.115,0,0,0,.061.106l.678.392a.4.4,0,0,0,.407,0ZM66.2,279.161a.122.122,0,0,0,.06-.106.117.117,0,0,0-.06-.105l-.679-.392a.392.392,0,0,0-.407,0l-1.741,1a.125.125,0,0,0-.06.106.122.122,0,0,0,.06.105l.679.392a.386.386,0,0,0,.4,0Zm10.182,5.74a.116.116,0,0,0-.06-.106l-1.741-1.008a.391.391,0,0,0-.4,0L72.436,284.8a.121.121,0,0,0-.06.106.115.115,0,0,0,.06.1l1.743,1a.386.386,0,0,0,.4,0l1.741-1A.121.121,0,0,0,76.384,284.9Zm-7.595-4.386a.115.115,0,0,0-.06-.1L66.986,279.4a.393.393,0,0,0-.405,0l-1.743,1.005a.125.125,0,0,0-.06.1.121.121,0,0,0,.06.106l1.743,1a.407.407,0,0,0,.405,0l1.743-1A.117.117,0,0,0,68.789,280.515ZM94.1,265.9a.116.116,0,0,0-.061-.106l-1.74-1.007a.406.406,0,0,0-.407,0l-1.74,1.007a.119.119,0,0,0-.061.106.114.114,0,0,0,.061.105l1.74,1a.4.4,0,0,0,.407,0l1.74-1A.114.114,0,0,0,94.1,265.9Zm-2.531,1.463a.116.116,0,0,0-.06-.106l-1.743-1a.388.388,0,0,0-.405,0l-1.743,1a.119.119,0,0,0-.06.106.115.115,0,0,0,.06.105l1.743,1a.393.393,0,0,0,.405,0l1.743-1A.118.118,0,0,0,91.57,267.365Zm-2.594,1.568a.128.128,0,0,0,.061-.106.114.114,0,0,0-.061-.105l-1.74-1a.392.392,0,0,0-.407,0l-1.741,1a.123.123,0,0,0,0,.211l1.741,1a.406.406,0,0,0,.407,0Zm-2.47,1.354a.115.115,0,0,0-.06-.1l-1.741-1a.4.4,0,0,0-.407,0l-1.743,1a.118.118,0,0,0-.06.1.116.116,0,0,0,.06.106l1.743,1a.392.392,0,0,0,.407,0l1.741-1A.113.113,0,0,0,86.506,270.287Zm-2.527,1.46a.122.122,0,0,0-.064-.105l-1.74-1a.41.41,0,0,0-.407,0l-1.74,1a.117.117,0,0,0-.061.105.116.116,0,0,0,.061.106l1.74,1.007a.4.4,0,0,0,.407,0l1.74-1.007A.126.126,0,0,0,83.979,271.747Zm-2.534,1.463a.118.118,0,0,0-.06-.106l-1.744-1a.391.391,0,0,0-.4,0l-1.743,1a.124.124,0,0,0,0,.212l1.743,1a.391.391,0,0,0,.4,0l1.744-1A.121.121,0,0,0,81.445,273.21Zm-2.53,1.46a.117.117,0,0,0-.061-.106l-1.743-1a.386.386,0,0,0-.4,0l-1.741,1a.123.123,0,0,0-.06.106.115.115,0,0,0,.06.1l1.741,1a.4.4,0,0,0,.4,0l1.743-1A.116.116,0,0,0,78.915,274.67Zm-2.531,1.463a.119.119,0,0,0-.06-.106l-1.741-1a.386.386,0,0,0-.4,0l-1.743,1a.121.121,0,0,0-.06.106.115.115,0,0,0,.06.105l1.743,1a.391.391,0,0,0,.4,0l1.741-1A.125.125,0,0,0,76.384,276.133Zm-2.534,1.459a.115.115,0,0,0-.06-.1l-1.743-1a.4.4,0,0,0-.4,0l-1.741,1a.129.129,0,0,0-.06.1.119.119,0,0,0,.06.106l1.741,1a.391.391,0,0,0,.4,0l1.743-1A.11.11,0,0,0,73.85,277.592Zm-2.53,1.463a.114.114,0,0,0-.061-.105l-1.74-1a.391.391,0,0,0-.4,0l-1.74,1a.126.126,0,0,0-.061.105.116.116,0,0,0,.061.106l1.74,1.007a.386.386,0,0,0,.4,0l1.74-1.007A.113.113,0,0,0,71.32,279.055Zm0,2.923a.117.117,0,0,0-.061-.106l-1.74-1a.391.391,0,0,0-.4,0l-1.74,1a.125.125,0,0,0-.061.106.117.117,0,0,0,.061.106l1.74,1a.391.391,0,0,0,.4,0l1.74-1A.114.114,0,0,0,71.32,281.978ZM96.574,267.47a.118.118,0,0,0,.06-.105.116.116,0,0,0-.06-.106l-1.743-1a.386.386,0,0,0-.4,0l-4.274,2.467a.122.122,0,0,0,0,.211l1.74,1a.406.406,0,0,0,.407,0Zm-5.064,2.923a.119.119,0,0,0,.06-.106.115.115,0,0,0-.06-.1l-1.743-1a.393.393,0,0,0-.405,0l-1.74,1a.118.118,0,0,0-.06.1.116.116,0,0,0,.06.106l1.74,1a.388.388,0,0,0,.405,0Zm-2.47,1.354a.117.117,0,0,0-.061-.105l-1.74-1a.4.4,0,0,0-.4,0l-1.74,1a.117.117,0,0,0-.061.105.116.116,0,0,0,.061.106l1.74,1.007a.391.391,0,0,0,.4,0l1.74-1.007A.116.116,0,0,0,89.04,271.747Zm-2.534,1.463a.118.118,0,0,0-.06-.106l-1.741-1a.4.4,0,0,0-.407,0l-1.743,1a.124.124,0,0,0,0,.212l1.743,1a.4.4,0,0,0,.407,0l1.741-1A.115.115,0,0,0,86.506,273.21Zm-2.527,1.46a.12.12,0,0,0-.064-.106l-1.74-1a.392.392,0,0,0-.407,0l-1.74,1a.116.116,0,0,0-.061.106.114.114,0,0,0,.061.1l1.74,1a.41.41,0,0,0,.407,0l1.74-1A.125.125,0,0,0,83.979,274.67Zm-2.534,1.463a.119.119,0,0,0-.06-.106l-1.741-1a.392.392,0,0,0-.407,0l-1.743,1a.123.123,0,0,0,0,.211l1.743,1a.4.4,0,0,0,.407,0l1.741-1A.118.118,0,0,0,81.445,276.133Zm-2.53,1.459a.116.116,0,0,0-.061-.1l-1.743-1a.4.4,0,0,0-.4,0l-1.741,1a.122.122,0,0,0-.06.1.119.119,0,0,0,.06.106l1.741,1a.391.391,0,0,0,.4,0l1.743-1A.116.116,0,0,0,78.915,277.592Zm-2.531,1.463a.115.115,0,0,0-.06-.105l-1.741-1a.391.391,0,0,0-.4,0l-1.743,1a.125.125,0,0,0-.06.105.117.117,0,0,0,.06.106l1.743,1.007a.386.386,0,0,0,.4,0l1.741-1.007A.126.126,0,0,0,76.384,279.055Zm-2.534,1.46a.115.115,0,0,0-.06-.1L72.047,279.4a.391.391,0,0,0-.4,0L69.9,280.41a.125.125,0,0,0-.06.1.121.121,0,0,0,.06.106l1.741,1a.4.4,0,0,0,.4,0l1.743-1A.117.117,0,0,0,73.85,280.515Zm2.534,1.463a.118.118,0,0,0-.06-.106l-1.741-1a.391.391,0,0,0-.4,0l-4.274,2.467a.129.129,0,0,0-.06.106.115.115,0,0,0,.06.105l1.741,1a.391.391,0,0,0,.4,0l4.274-2.467A.128.128,0,0,0,76.384,281.978ZM99.105,268.93a.122.122,0,0,0,.06-.106.115.115,0,0,0-.06-.105l-1.741-1a.392.392,0,0,0-.407,0l-6.8,3.927a.124.124,0,0,0-.061.105.116.116,0,0,0,.061.106l1.74,1.007a.4.4,0,0,0,.407,0Zm-7.535,4.28a.118.118,0,0,0-.06-.106L89.767,272.1a.393.393,0,0,0-.405,0l-1.74,1.007a.124.124,0,0,0,0,.212l1.74,1a.393.393,0,0,0,.405,0l1.743-1A.121.121,0,0,0,91.57,273.21Zm-2.591,1.568a.117.117,0,0,0,.061-.105.116.116,0,0,0-.061-.106l-1.74-1a.386.386,0,0,0-.4,0l-1.74,1a.116.116,0,0,0-.061.106.114.114,0,0,0,.061.105l1.74,1a.4.4,0,0,0,.4,0Zm-2.47,1.355a.119.119,0,0,0-.06-.106l-1.744-1a.392.392,0,0,0-.407,0l-1.743,1a.123.123,0,0,0,0,.211l1.743,1a.4.4,0,0,0,.407,0l1.744-1A.125.125,0,0,0,86.509,276.133Zm-2.53,1.459a.119.119,0,0,0-.064-.1l-1.74-1a.41.41,0,0,0-.407,0l-1.74,1a.121.121,0,0,0-.061.1.118.118,0,0,0,.061.106l1.74,1a.4.4,0,0,0,.407,0l1.74-1A.125.125,0,0,0,83.979,277.592Zm-2.534,1.463a.115.115,0,0,0-.06-.105l-1.741-1a.4.4,0,0,0-.407,0l-1.743,1a.118.118,0,0,0-.06.105.117.117,0,0,0,.06.106l1.743,1.007a.392.392,0,0,0,.407,0l1.741-1.007A.12.12,0,0,0,81.445,279.055Zm-2.53,1.46a.116.116,0,0,0-.061-.1L77.111,279.4a.391.391,0,0,0-.4,0l-1.741,1.005a.118.118,0,0,0-.06.1.121.121,0,0,0,.06.106l1.741,1a.4.4,0,0,0,.4,0l1.743-1A.117.117,0,0,0,78.915,280.515Zm22.78-10.228a.118.118,0,0,0-.06-.1l-1.743-1a.391.391,0,0,0-.4,0l-1.741,1a.118.118,0,0,0-.06.1.116.116,0,0,0,.06.106l1.741,1a.386.386,0,0,0,.4,0l1.743-1A.125.125,0,0,0,101.7,270.287Zm-2.533,1.46a.118.118,0,0,0-.06-.105l-1.741-1a.4.4,0,0,0-.4,0l-1.74,1a.119.119,0,0,0-.061.105.117.117,0,0,0,.061.106l1.74,1.007a.391.391,0,0,0,.4,0l1.741-1.007A.111.111,0,0,0,99.162,271.747Zm-2.531,1.463a.118.118,0,0,0-.06-.106L94.828,272.1a.391.391,0,0,0-.4,0L92.68,273.1a.124.124,0,0,0,0,.212l1.744,1a.391.391,0,0,0,.4,0l1.743-1A.115.115,0,0,0,96.631,273.21Zm-2.587,1.568a.118.118,0,0,0,.06-.105.117.117,0,0,0-.06-.106l-1.744-1a.392.392,0,0,0-.407,0l-11.865,6.85a.117.117,0,0,0-.061.1.119.119,0,0,0,.061.106l1.74,1a.406.406,0,0,0,.407,0Q88.106,278.2,94.044,274.778Zm-12.6,7.2a.118.118,0,0,0-.06-.106l-1.741-1a.4.4,0,0,0-.407,0l-1.743,1a.124.124,0,0,0,0,.212l1.743,1a.4.4,0,0,0,.407,0l1.741-1A.121.121,0,0,0,81.445,281.978Zm-2.53,1.463a.121.121,0,0,0-.061-.106l-1.74-1a.386.386,0,0,0-.4,0l-1.741,1a.12.12,0,0,0-.06.106.115.115,0,0,0,.06.105l1.741,1a.391.391,0,0,0,.4,0l1.74-1A.123.123,0,0,0,78.915,283.441Zm12.655-19a.117.117,0,0,0-.06-.106l-.679-.392a.391.391,0,0,0-.4,0l-1.743,1a.122.122,0,0,0-.064.1.124.124,0,0,0,.064.106l.678.392a.393.393,0,0,0,.405,0l1.743-1A.121.121,0,0,0,91.57,264.442Zm-2.591,1.568a.124.124,0,0,0,.061-.105.116.116,0,0,0-.061-.106l-.678-.392a.4.4,0,0,0-.407,0l-1.744,1a.118.118,0,0,0-.06.105.117.117,0,0,0,.06.106l.679.392a.4.4,0,0,0,.407,0Zm-2.533,1.46a.125.125,0,0,0,.06-.105.116.116,0,0,0-.06-.106l-.679-.392a.391.391,0,0,0-.4,0l-1.74,1a.126.126,0,0,0-.061.106.114.114,0,0,0,.061.105l.678.393a.4.4,0,0,0,.4,0Zm-2.531,1.46a.122.122,0,0,0,.061-.106.116.116,0,0,0-.061-.105l-.678-.392a.386.386,0,0,0-.4,0l-1.744,1a.126.126,0,0,0-.06.106.118.118,0,0,0,.06.1l.679.392a.392.392,0,0,0,.407,0Zm-2.473,1.357a.115.115,0,0,0-.06-.1l-.679-.392a.4.4,0,0,0-.4,0l-1.74,1a.124.124,0,0,0-.061.106.114.114,0,0,0,.061.105l.678.392a.386.386,0,0,0,.4,0l1.744-1A.111.111,0,0,0,81.442,270.287Zm-2.588,1.569a.127.127,0,0,0,.061-.106.116.116,0,0,0-.061-.105l-.678-.393a.393.393,0,0,0-.405,0l-1.743,1a.125.125,0,0,0-.06.105.116.116,0,0,0,.06.106l.679.392a.391.391,0,0,0,.4,0Zm-5,2.814a.117.117,0,0,0-.06-.106l-.679-.392a.391.391,0,0,0-.4,0l-1.743,1a.125.125,0,0,0-.06.1.117.117,0,0,0,.06.106l.679.392a.391.391,0,0,0,.4,0l1.743-1A.11.11,0,0,0,73.85,274.67Zm-2.527,1.46a.119.119,0,0,0-.06-.106l-.679-.392a.391.391,0,0,0-.4,0l-1.744,1a.128.128,0,0,0-.06.106.115.115,0,0,0,.06.1l.679.393a.391.391,0,0,0,.4,0l1.74-1A.114.114,0,0,0,71.323,276.13Z" fill="#53626b"/>
        <path d="M55.512,256.2q1.185,5.478,2.371,10.958t2.367,10.948q7.52-4.338,15.03-8.674t15.014-8.672c-.081-.38-.166-.763-.247-1.146-.79-3.646-1.33-6.153-2.12-9.8s-1.581-7.3-2.371-10.958q-7.5,4.333-15.014,8.671c-5.007,2.89-9.821,5.674-14.834,8.563C55.645,256.127,55.581,256.163,55.512,256.2Z" fill="url(#linear-gradient-5)"/>
        <path d="M89.685,286.713a.386.386,0,0,1-.4,0l-6.461-3.788a.112.112,0,0,1-.06-.106v-.232l18.854-3.061v.232a.118.118,0,0,1-.06.106Z" fill="#323e44"/>
        <path d="M89.685,286.445a.4.4,0,0,1-.4,0l-6.476-3.767a.117.117,0,0,1-.06-.106.115.115,0,0,1,.06-.105q5.931-3.426,11.866-6.85a.386.386,0,0,1,.4,0l6.476,3.767a.117.117,0,0,1,.06.106.118.118,0,0,1-.06.105Q95.619,283.016,89.685,286.445Z" fill="#53626b"/>
      </g>
    </g>
    <g id="abc3e3f9-d4db-41ad-8b60-378d1c3348f7-2" data-name="abc3e3f9-d4db-41ad-8b60-378d1c3348f7">
      <g>
        <g>
          <path d="M93.641,226.34H84.278a.74.74,0,0,0-.74.74h0v20.191a.74.74,0,0,0,.739.741H100.5a.739.739,0,0,0,.733-.741V233.91a.738.738,0,0,0-.733-.741H95.119a.739.739,0,0,1-.733-.74v-5.348a.734.734,0,0,0-.726-.741Z" fill="#fff"/>
          <path d="M93.3,227.286v5.071a1.864,1.864,0,0,0,1.858,1.862h5.109v12.848H84.516V227.286H93.3m.358-1.109h-9.5a.75.75,0,0,0-.75.75h0v20.5a.75.75,0,0,0,.749.752h16.467a.75.75,0,0,0,.75-.751h0V233.859a.75.75,0,0,0-.75-.75H95.157a.75.75,0,0,1-.749-.752h0v-5.429a.75.75,0,0,0-.75-.751Z" fill="url(#linear-gradient-6)"/>
          <path d="M101.088,233.258l-6.939-6.918v5.637a1.272,1.272,0,0,0,1.263,1.281h5.676Z" fill="#2e76bc"/>
        </g>
        <rect x="86.28" y="236.194" width="12.221" height="1.639" rx="0.737" fill="#699cd3"/>
        <rect x="86.28" y="239.131" width="12.221" height="1.639" rx="0.737" fill="#699cd3"/>
        <rect x="86.28" y="242.068" width="7.702" height="1.639" rx="0.737" fill="#699cd3"/>
      </g>
    </g>
    <g>
      <line x1="89.663" y1="216.394" x2="89.663" y2="161.138" fill="none" stroke="#3c3c41" stroke-miterlimit="10"/>
      <polygon points="93.402 215.3 89.663 221.777 85.923 215.3 93.402 215.3" fill="#3c3c41"/>
    </g>
    <path d="M410.8,111.1v67.6a3.009,3.009,0,0,1-3,3H340.4" fill="none" stroke="#3c3c41" stroke-miterlimit="10"/>
    <line x1="89.663" y1="125.938" x2="89.663" y2="111.1" fill="none" stroke="#3c3c41" stroke-miterlimit="10"/>
  </g>
  <g id="Text">
    <g>
      <path d="M48.3,31.1H45.5V39.1H43.284V31.1H40.5V29.3H48.3Z" fill="#2f2f2f"/>
      <path d="M54.434,36.215H49.867q.11,1.524,1.921,1.525a3.743,3.743,0,0,0,2.03-.547v1.558a5.319,5.319,0,0,1-2.522.52,3.258,3.258,0,0,1-3.568-3.562,3.746,3.746,0,0,1,1.011-2.761,3.372,3.372,0,0,1,2.489-1.019,3.061,3.061,0,0,1,2.369.909,3.507,3.507,0,0,1,.837,2.468Zm-2-1.326q0-1.5-1.217-1.5a1.163,1.163,0,0,0-.9.431,1.949,1.949,0,0,0-.461,1.073Z" fill="#2f2f2f"/>
      <path d="M66.834,39.1H64.681V35.108q0-1.524-1.121-1.525a1.031,1.031,0,0,0-.869.459,1.89,1.89,0,0,0-.335,1.141V39.1H60.2V35.067q0-1.483-1.1-1.484a1.054,1.054,0,0,0-.885.438,1.917,1.917,0,0,0-.332,1.189V39.1h-2.16v-7h2.16v1.094h.027a2.655,2.655,0,0,1,2.263-1.265,2.014,2.014,0,0,1,2.03,1.306,2.59,2.59,0,0,1,2.352-1.306q2.283,0,2.283,2.817Z" fill="#2f2f2f"/>
      <path d="M70.73,38.287H70.7V42.32h-2.16V32.1H70.7v1.053h.027a2.75,2.75,0,0,1,4.352-.291,3.977,3.977,0,0,1,.741,2.54,4.308,4.308,0,0,1-.864,2.809,2.82,2.82,0,0,1-2.3,1.06A2.181,2.181,0,0,1,70.73,38.287Zm-.061-2.871v.56a1.784,1.784,0,0,0,.383,1.183,1.249,1.249,0,0,0,1,.458,1.326,1.326,0,0,0,1.145-.571,2.758,2.758,0,0,0,.406-1.617q0-1.845-1.435-1.846a1.347,1.347,0,0,0-1.083.5A2.006,2.006,0,0,0,70.669,35.416Z" fill="#2f2f2f"/>
      <path d="M80.561,39.271a3.762,3.762,0,0,1-2.751-.981,3.555,3.555,0,0,1-1-2.663,3.556,3.556,0,0,1,1.039-2.717,3.927,3.927,0,0,1,2.809-.981,3.719,3.719,0,0,1,2.735.981,3.486,3.486,0,0,1,.991,2.594,3.7,3.7,0,0,1-1.022,2.755A3.8,3.8,0,0,1,80.561,39.271Zm.054-5.688a1.441,1.441,0,0,0-1.189.527A2.325,2.325,0,0,0,79,35.6q0,2.016,1.627,2.017,1.552,0,1.552-2.072Q82.181,33.583,80.615,33.583Z" fill="#2f2f2f"/>
      <path d="M90.35,34.048a1.879,1.879,0,0,0-.91-.212,1.308,1.308,0,0,0-1.1.517,2.252,2.252,0,0,0-.4,1.4V39.1h-2.16v-7h2.16v1.3h.028a1.868,1.868,0,0,1,1.845-1.422,1.384,1.384,0,0,1,.534.082Z" fill="#2f2f2f"/>
      <path d="M97.179,39.1H95.135V38.1h-.028a2.279,2.279,0,0,1-2.085,1.176,2.177,2.177,0,0,1-1.6-.578,2.068,2.068,0,0,1-.585-1.541q0-2.037,2.413-2.352l1.9-.253q0-1.148-1.244-1.148a4.245,4.245,0,0,0-2.379.745V32.517a5.37,5.37,0,0,1,1.235-.41,6.451,6.451,0,0,1,1.425-.178,2.644,2.644,0,0,1,2.994,2.988Zm-2.031-2.844v-.471l-1.271.164q-1.051.136-1.053.95a.785.785,0,0,0,.257.6.985.985,0,0,0,.693.236,1.276,1.276,0,0,0,.992-.421A1.517,1.517,0,0,0,95.148,36.256Z" fill="#2f2f2f"/>
      <path d="M101.048,39.1h-2.16V28.737h2.16Z" fill="#2f2f2f"/>
      <path d="M110.96,39.018a3.185,3.185,0,0,1-1.442.253q-2.283,0-2.284-2.372V33.693H106.1V32.1h1.134V30.589l2.154-.615V32.1h1.572v1.593h-1.572v2.83q0,1.093.868,1.094a1.453,1.453,0,0,0,.7-.2Z" fill="#2f2f2f"/>
      <path d="M118,39.1h-2.044V38.1h-.027a2.28,2.28,0,0,1-2.085,1.176,2.178,2.178,0,0,1-1.6-.578,2.072,2.072,0,0,1-.585-1.541q0-2.037,2.413-2.352l1.9-.253q0-1.148-1.244-1.148a4.245,4.245,0,0,0-2.379.745V32.517a5.36,5.36,0,0,1,1.234-.41,6.459,6.459,0,0,1,1.425-.178A2.644,2.644,0,0,1,118,34.917Zm-2.03-2.844v-.471l-1.272.164q-1.051.136-1.053.95a.785.785,0,0,0,.257.6.988.988,0,0,0,.694.236,1.276,1.276,0,0,0,.991-.421A1.514,1.514,0,0,0,115.971,36.256Z" fill="#2f2f2f"/>
      <path d="M121.9,38.287h-.027V39.1h-2.16V28.737h2.16v4.416h.027a2.564,2.564,0,0,1,2.277-1.224,2.5,2.5,0,0,1,2.085.93,4.007,4.007,0,0,1,.731,2.543,4.338,4.338,0,0,1-.854,2.809,2.781,2.781,0,0,1-2.283,1.06A2.208,2.208,0,0,1,121.9,38.287Zm-.061-2.954v.718a1.637,1.637,0,0,0,.39,1.121,1.264,1.264,0,0,0,1,.445,1.326,1.326,0,0,0,1.145-.571,2.758,2.758,0,0,0,.406-1.617,2.2,2.2,0,0,0-.372-1.357,1.259,1.259,0,0,0-1.063-.489,1.37,1.37,0,0,0-1.076.486A1.843,1.843,0,0,0,121.836,35.333Z" fill="#2f2f2f"/>
      <path d="M130.552,39.1h-2.16V28.737h2.16Z" fill="#2f2f2f"/>
      <path d="M138.659,36.215h-4.566q.109,1.524,1.921,1.525a3.745,3.745,0,0,0,2.03-.547v1.558a5.323,5.323,0,0,1-2.523.52,3.259,3.259,0,0,1-3.568-3.562,3.747,3.747,0,0,1,1.012-2.761,3.372,3.372,0,0,1,2.488-1.019,3.058,3.058,0,0,1,2.369.909,3.5,3.5,0,0,1,.837,2.468Zm-2-1.326q0-1.5-1.217-1.5a1.163,1.163,0,0,0-.9.431,1.957,1.957,0,0,0-.462,1.073Z" fill="#2f2f2f"/>
      <path d="M50.134,57.329h-1a8.742,8.742,0,0,1-2.119-5.968A9.071,9.071,0,0,1,49.136,45.3h1.011A9.219,9.219,0,0,0,48,51.347,9.054,9.054,0,0,0,50.134,57.329Z" fill="#2f2f2f"/>
      <path d="M56.19,54.779a3.635,3.635,0,0,1-1.914.485,3.169,3.169,0,0,1-2.416-.974,3.529,3.529,0,0,1-.92-2.526,3.882,3.882,0,0,1,.992-2.779,3.47,3.47,0,0,1,2.645-1.049,3.68,3.68,0,0,1,1.627.342v1.148a2.852,2.852,0,0,0-1.668-.547,2.256,2.256,0,0,0-1.76.769,2.919,2.919,0,0,0-.687,2.02,2.782,2.782,0,0,0,.646,1.942,2.227,2.227,0,0,0,1.733.711,2.8,2.8,0,0,0,1.722-.609Z" fill="#2f2f2f"/>
      <path d="M63.546,55.1H62.425V53.993H62.4a2.3,2.3,0,0,1-2.16,1.271q-2.5,0-2.5-2.98V48.1H58.85v4.006q0,2.215,1.7,2.215a1.719,1.719,0,0,0,1.351-.6,2.322,2.322,0,0,0,.529-1.583V48.1h1.121Z" fill="#2f2f2f"/>
      <path d="M69.459,49.235a1.366,1.366,0,0,0-.848-.226,1.43,1.43,0,0,0-1.2.677,3.13,3.13,0,0,0-.482,1.846V55.1H65.809v-7H66.93v1.442h.027a2.448,2.448,0,0,1,.731-1.151,1.671,1.671,0,0,1,1.1-.414,1.821,1.821,0,0,1,.67.1Z" fill="#2f2f2f"/>
      <path d="M74.326,49.235a1.363,1.363,0,0,0-.847-.226,1.432,1.432,0,0,0-1.2.677,3.13,3.13,0,0,0-.482,1.846V55.1H70.676v-7H71.8v1.442h.027a2.449,2.449,0,0,1,.732-1.151,1.666,1.666,0,0,1,1.1-.414,1.821,1.821,0,0,1,.67.1Z" fill="#2f2f2f"/>
      <path d="M81.169,51.88H76.227a2.622,2.622,0,0,0,.628,1.8,2.172,2.172,0,0,0,1.655.636,3.442,3.442,0,0,0,2.174-.779v1.052a4.063,4.063,0,0,1-2.441.67,2.963,2.963,0,0,1-2.331-.953,3.912,3.912,0,0,1-.848-2.684,3.825,3.825,0,0,1,.927-2.662,2.968,2.968,0,0,1,2.3-1.029,2.63,2.63,0,0,1,2.126.889,3.7,3.7,0,0,1,.752,2.467Zm-1.148-.95a2.282,2.282,0,0,0-.468-1.511,1.6,1.6,0,0,0-1.282-.54,1.809,1.809,0,0,0-1.347.568,2.576,2.576,0,0,0-.684,1.483Z" fill="#2f2f2f"/>
      <path d="M88.675,55.1H87.554V51.108q0-2.229-1.627-2.229a1.762,1.762,0,0,0-1.391.633,2.341,2.341,0,0,0-.551,1.6V55.1H82.864v-7h1.121v1.162h.028a2.528,2.528,0,0,1,2.3-1.326,2.139,2.139,0,0,1,1.756.742,3.3,3.3,0,0,1,.609,2.143Z" fill="#2f2f2f"/>
      <path d="M94.034,55.032a2.154,2.154,0,0,1-1.046.218q-1.837,0-1.839-2.05V49.057h-1.2V48.1h1.2V46.391l1.122-.362V48.1h1.763v.957H92.271V53a1.637,1.637,0,0,0,.239,1.005.954.954,0,0,0,.793.3,1.182,1.182,0,0,0,.731-.232Z" fill="#2f2f2f"/>
      <path d="M102.613,55.032a2.154,2.154,0,0,1-1.046.218q-1.837,0-1.838-2.05V49.057h-1.2V48.1h1.2V46.391l1.121-.362V48.1h1.763v.957H100.85V53a1.637,1.637,0,0,0,.239,1.005.954.954,0,0,0,.793.3,1.182,1.182,0,0,0,.731-.232Z" fill="#2f2f2f"/>
      <path d="M109.121,55.1H108V54.006h-.027a2.347,2.347,0,0,1-2.154,1.258,2.293,2.293,0,0,1-1.636-.554,1.914,1.914,0,0,1-.592-1.469q0-1.962,2.31-2.283l2.1-.294q0-1.785-1.442-1.785a3.452,3.452,0,0,0-2.284.862V48.592a4.346,4.346,0,0,1,2.379-.656q2.469,0,2.468,2.611ZM108,51.559l-1.688.233a2.721,2.721,0,0,0-1.176.386,1.114,1.114,0,0,0-.4.981,1.068,1.068,0,0,0,.366.837,1.417,1.417,0,0,0,.974.325,1.8,1.8,0,0,0,1.378-.585,2.087,2.087,0,0,0,.543-1.48Z" fill="#2f2f2f"/>
      <path d="M112.382,54.088h-.028V55.1h-1.121V44.737h1.121v4.594h.028a2.651,2.651,0,0,1,2.42-1.4,2.569,2.569,0,0,1,2.109.94,3.88,3.88,0,0,1,.762,2.519,4.332,4.332,0,0,1-.855,2.813,2.843,2.843,0,0,1-2.338,1.056A2.3,2.3,0,0,1,112.382,54.088Zm-.028-2.823v.978a2.084,2.084,0,0,0,.565,1.473,2.012,2.012,0,0,0,3.028-.174,3.577,3.577,0,0,0,.577-2.167,2.818,2.818,0,0,0-.54-1.833,1.788,1.788,0,0,0-1.463-.663,1.986,1.986,0,0,0-1.572.681A2.5,2.5,0,0,0,112.354,51.265Z" fill="#2f2f2f"/>
      <path d="M120.585,55.1h-1.121V44.737h1.121Z" fill="#2f2f2f"/>
      <path d="M128.48,51.88h-4.942a2.627,2.627,0,0,0,.629,1.8,2.168,2.168,0,0,0,1.654.636A3.44,3.44,0,0,0,128,53.542v1.052a4.06,4.06,0,0,1-2.44.67,2.96,2.96,0,0,1-2.331-.953,3.907,3.907,0,0,1-.848-2.684,3.825,3.825,0,0,1,.927-2.662,2.968,2.968,0,0,1,2.3-1.029,2.63,2.63,0,0,1,2.126.889,3.7,3.7,0,0,1,.751,2.467Zm-1.148-.95a2.277,2.277,0,0,0-.468-1.511,1.6,1.6,0,0,0-1.282-.54,1.81,1.81,0,0,0-1.347.568,2.575,2.575,0,0,0-.683,1.483Z" fill="#2f2f2f"/>
      <path d="M130.2,57.329h-1a9.054,9.054,0,0,0,2.133-5.982,9.21,9.21,0,0,0-2.147-6.05H130.2a9.031,9.031,0,0,1,2.133,6.064A8.7,8.7,0,0,1,130.2,57.329Z" fill="#2f2f2f"/>
    </g>
    <g>
      <path d="M374.826,44.9h-2.215V40.908h-4.06V44.9h-2.208V35.1h2.208v3.91h4.06V35.1h2.215Z" fill="#2f2f2f"/>
      <path d="M377.95,36.792a1.261,1.261,0,0,1-.895-.324,1.046,1.046,0,0,1-.349-.8,1.008,1.008,0,0,1,.349-.793,1.464,1.464,0,0,1,1.794,0,1.015,1.015,0,0,1,.345.793,1.041,1.041,0,0,1-.345.807A1.281,1.281,0,0,1,377.95,36.792Zm1.067,8.108h-2.161v-7h2.161Z" fill="#2f2f2f"/>
      <path d="M380.377,44.715v-1.75a4.582,4.582,0,0,0,1.062.479,3.528,3.528,0,0,0,1,.157,2.146,2.146,0,0,0,.906-.157.508.508,0,0,0,.332-.479.443.443,0,0,0-.151-.341,1.392,1.392,0,0,0-.386-.24,4.429,4.429,0,0,0-.516-.184c-.188-.055-.367-.117-.54-.185a5.236,5.236,0,0,1-.735-.338,2.131,2.131,0,0,1-.534-.421,1.656,1.656,0,0,1-.328-.553,2.217,2.217,0,0,1-.112-.745,1.917,1.917,0,0,1,.256-1.012,2.1,2.1,0,0,1,.683-.694,3.164,3.164,0,0,1,.978-.4,5.119,5.119,0,0,1,1.145-.126,6.351,6.351,0,0,1,.944.072,7.119,7.119,0,0,1,.943.208v1.668a3.421,3.421,0,0,0-.879-.359,3.728,3.728,0,0,0-.919-.119,2.051,2.051,0,0,0-.4.037,1.313,1.313,0,0,0-.331.11.613.613,0,0,0-.226.184.43.43,0,0,0-.082.257.476.476,0,0,0,.123.328,1.063,1.063,0,0,0,.322.236,3.1,3.1,0,0,0,.44.177c.162.053.322.106.482.161a6.144,6.144,0,0,1,.78.328,2.486,2.486,0,0,1,.6.417,1.63,1.63,0,0,1,.383.561,2.233,2.233,0,0,1-.137,1.828,2.15,2.15,0,0,1-.717.718,3.234,3.234,0,0,1-1.033.4,5.662,5.662,0,0,1-1.212.127A6.252,6.252,0,0,1,380.377,44.715Z" fill="#2f2f2f"/>
      <path d="M391.226,44.818a3.206,3.206,0,0,1-1.443.253q-2.283,0-2.283-2.372V39.493h-1.135V37.9H387.5V36.389l2.153-.615V37.9h1.573v1.593h-1.573v2.83q0,1.093.868,1.094a1.463,1.463,0,0,0,.7-.2Z" fill="#2f2f2f"/>
      <path d="M395.724,45.071a3.764,3.764,0,0,1-2.752-.981,4.057,4.057,0,0,1,.038-5.38,3.924,3.924,0,0,1,2.809-.981,3.719,3.719,0,0,1,2.735.981,3.49,3.49,0,0,1,.991,2.594,3.7,3.7,0,0,1-1.023,2.755A3.8,3.8,0,0,1,395.724,45.071Zm.054-5.688a1.44,1.44,0,0,0-1.189.527,2.317,2.317,0,0,0-.424,1.49q0,2.016,1.627,2.017,1.551,0,1.552-2.072Q397.344,39.383,395.778,39.383Z" fill="#2f2f2f"/>
      <path d="M405.513,39.848a1.881,1.881,0,0,0-.909-.212,1.31,1.31,0,0,0-1.1.516,2.251,2.251,0,0,0-.4,1.405V44.9h-2.16v-7h2.16v1.3h.028a1.869,1.869,0,0,1,1.845-1.422,1.39,1.39,0,0,1,.534.082Z" fill="#2f2f2f"/>
      <path d="M413.743,37.9,410.9,45.46q-1.024,2.729-3.089,2.728a3.935,3.935,0,0,1-1.292-.178V46.288a1.819,1.819,0,0,0,.936.253,1.171,1.171,0,0,0,1.162-.787l.369-.868L406.142,37.9h2.392l1.306,4.259a5.569,5.569,0,0,1,.191.936h.028a6.585,6.585,0,0,1,.225-.923L411.6,37.9Z" fill="#2f2f2f"/>
      <path d="M422.705,44.818a3.2,3.2,0,0,1-1.442.253q-2.284,0-2.284-2.372V39.493h-1.134V37.9h1.134V36.389l2.154-.615V37.9h1.572v1.593h-1.572v2.83q0,1.093.868,1.094a1.456,1.456,0,0,0,.7-.2Z" fill="#2f2f2f"/>
      <path d="M429.746,44.9H427.7v-1h-.027a2.283,2.283,0,0,1-2.085,1.176,2.183,2.183,0,0,1-1.6-.578,2.072,2.072,0,0,1-.584-1.541q0-2.037,2.413-2.352l1.9-.253q0-1.148-1.244-1.148a4.245,4.245,0,0,0-2.379.745V38.317a5.335,5.335,0,0,1,1.233-.41,6.467,6.467,0,0,1,1.426-.178,2.643,2.643,0,0,1,2.994,2.987Zm-2.03-2.844v-.472l-1.272.165q-1.053.137-1.052.95a.789.789,0,0,0,.255.605.989.989,0,0,0,.695.236,1.282,1.282,0,0,0,.991-.421A1.52,1.52,0,0,0,427.716,42.056Z" fill="#2f2f2f"/>
      <path d="M433.643,44.086h-.028V44.9h-2.16V34.537h2.16v4.416h.028a2.563,2.563,0,0,1,2.276-1.224,2.5,2.5,0,0,1,2.085.93,4.011,4.011,0,0,1,.731,2.543,4.344,4.344,0,0,1-.854,2.809,2.783,2.783,0,0,1-2.283,1.06A2.2,2.2,0,0,1,433.643,44.086Zm-.062-2.953v.718a1.637,1.637,0,0,0,.39,1.121,1.263,1.263,0,0,0,1,.445,1.323,1.323,0,0,0,1.144-.571,2.752,2.752,0,0,0,.408-1.617,2.189,2.189,0,0,0-.374-1.357,1.255,1.255,0,0,0-1.062-.489,1.372,1.372,0,0,0-1.077.486A1.846,1.846,0,0,0,433.581,41.133Z" fill="#2f2f2f"/>
      <path d="M442.3,44.9h-2.16V34.537h2.16Z" fill="#2f2f2f"/>
      <path d="M450.4,42.015h-4.566q.108,1.524,1.921,1.525a3.759,3.759,0,0,0,2.03-.547v1.558a5.337,5.337,0,0,1-2.522.52,3.259,3.259,0,0,1-3.569-3.562,3.743,3.743,0,0,1,1.012-2.761,3.366,3.366,0,0,1,2.488-1.019,3.056,3.056,0,0,1,2.368.909,3.5,3.5,0,0,1,.838,2.468Zm-2-1.326q0-1.5-1.216-1.5a1.164,1.164,0,0,0-.9.431,1.956,1.956,0,0,0-.461,1.073Z" fill="#2f2f2f"/>
    </g>
    <g>
      <path d="M181.811,178.085l-1.873.383,1.3,1.661-.752.52-1.066-1.812-1.08,1.812-.752-.52,1.3-1.661L177,178.085l.308-.854,1.791.677-.158-2.078h.944l-.157,2.078,1.8-.677Z" fill="#2f2f2f"/>
      <path d="M184.611,185.632h-1.148v-9.8h1.148Z" fill="#2f2f2f"/>
      <path d="M192.687,185.632h-1.122V181.64q0-2.229-1.627-2.228a1.767,1.767,0,0,0-1.391.632,2.347,2.347,0,0,0-.55,1.6v3.992h-1.121v-7H188v1.162h.027a2.527,2.527,0,0,1,2.3-1.326,2.141,2.141,0,0,1,1.757.742,3.309,3.309,0,0,1,.609,2.143Z" fill="#2f2f2f"/>
      <path d="M199.535,185.311a3.64,3.64,0,0,1-1.914.485,3.168,3.168,0,0,1-2.417-.974,3.533,3.533,0,0,1-.919-2.526,3.879,3.879,0,0,1,.991-2.778,3.466,3.466,0,0,1,2.646-1.05,3.683,3.683,0,0,1,1.627.342v1.148a2.856,2.856,0,0,0-1.668-.546,2.254,2.254,0,0,0-1.761.769,2.916,2.916,0,0,0-.686,2.02,2.776,2.776,0,0,0,.645,1.941,2.228,2.228,0,0,0,1.733.711,2.814,2.814,0,0,0,1.723-.608Z" fill="#2f2f2f"/>
      <path d="M202.145,185.632h-1.122V175.269h1.122Z" fill="#2f2f2f"/>
      <path d="M209.984,185.632h-1.121v-1.107h-.027a2.3,2.3,0,0,1-2.16,1.271q-2.5,0-2.5-2.98v-4.184h1.114v4.006q0,2.215,1.695,2.215a1.715,1.715,0,0,0,1.35-.605,2.31,2.31,0,0,0,.53-1.582v-4.034h1.121Z" fill="#2f2f2f"/>
      <path d="M218.153,185.632h-1.121v-1.189h-.027A2.589,2.589,0,0,1,214.6,185.8a2.616,2.616,0,0,1-2.11-.94,3.857,3.857,0,0,1-.789-2.56,4.191,4.191,0,0,1,.875-2.782,2.887,2.887,0,0,1,2.331-1.046,2.247,2.247,0,0,1,2.1,1.135h.027v-4.334h1.121Zm-1.121-3.165v-1.032a2,2,0,0,0-.56-1.435,1.877,1.877,0,0,0-1.422-.588,1.932,1.932,0,0,0-1.613.752,3.286,3.286,0,0,0-.588,2.078,2.962,2.962,0,0,0,.563,1.91,1.842,1.842,0,0,0,1.515.7,1.913,1.913,0,0,0,1.52-.677A2.52,2.52,0,0,0,217.032,182.467Z" fill="#2f2f2f"/>
      <path d="M225.975,182.413h-4.943a2.616,2.616,0,0,0,.629,1.8,2.167,2.167,0,0,0,1.654.636,3.442,3.442,0,0,0,2.174-.779v1.052a4.058,4.058,0,0,1-2.44.67,2.956,2.956,0,0,1-2.331-.953,3.9,3.9,0,0,1-.848-2.683,3.83,3.83,0,0,1,.926-2.663,2.972,2.972,0,0,1,2.3-1.029,2.634,2.634,0,0,1,2.126.889,3.706,3.706,0,0,1,.752,2.468Zm-1.149-.951a2.28,2.28,0,0,0-.469-1.51,1.593,1.593,0,0,0-1.281-.54,1.813,1.813,0,0,0-1.347.567,2.572,2.572,0,0,0-.683,1.483Z" fill="#2f2f2f"/>
      <path d="M237.315,185.632h-1.121V181.6q0-2.187-1.627-2.187a1.774,1.774,0,0,0-1.38.632,2.349,2.349,0,0,0-.561,1.623v3.965h-1.121V175.269h1.121v4.525h.027a2.545,2.545,0,0,1,2.3-1.326q2.364,0,2.365,2.851Z" fill="#2f2f2f"/>
      <path d="M239.9,176.855a.7.7,0,0,1-.512-.2.69.69,0,0,1-.212-.52.717.717,0,0,1,.724-.731.724.724,0,0,1,.523.208.7.7,0,0,1,.216.523.7.7,0,0,1-.216.513A.72.72,0,0,1,239.9,176.855Zm.547,8.777h-1.121v-7h1.121Z" fill="#2f2f2f"/>
      <path d="M242.163,185.379v-1.2a3.316,3.316,0,0,0,2.017.677q1.476,0,1.476-.984a.846.846,0,0,0-.127-.475,1.258,1.258,0,0,0-.341-.346,2.665,2.665,0,0,0-.506-.27c-.194-.079-.4-.163-.625-.249a7.942,7.942,0,0,1-.818-.373,2.468,2.468,0,0,1-.588-.424,1.583,1.583,0,0,1-.355-.536,1.915,1.915,0,0,1-.119-.7,1.678,1.678,0,0,1,.225-.872,2.006,2.006,0,0,1,.6-.636,2.8,2.8,0,0,1,.857-.386,3.842,3.842,0,0,1,1-.13,4.009,4.009,0,0,1,1.627.315v1.134a3.171,3.171,0,0,0-1.777-.5,2.1,2.1,0,0,0-.567.071,1.41,1.41,0,0,0-.435.2.93.93,0,0,0-.28.311.821.821,0,0,0-.1.4.961.961,0,0,0,.1.458,1.008,1.008,0,0,0,.291.328,2.2,2.2,0,0,0,.465.26c.181.078.389.162.622.253a8.46,8.46,0,0,1,.834.366,2.878,2.878,0,0,1,.629.423,1.661,1.661,0,0,1,.4.544,1.743,1.743,0,0,1,.141.731,1.718,1.718,0,0,1-.23.9,1.949,1.949,0,0,1-.611.635,2.808,2.808,0,0,1-.882.376,4.362,4.362,0,0,1-1.046.123A3.967,3.967,0,0,1,242.163,185.379Z" fill="#2f2f2f"/>
      <path d="M251.816,185.564a2.157,2.157,0,0,1-1.045.219q-1.84,0-1.839-2.051v-4.143h-1.2v-.957h1.2v-1.709l1.121-.362v2.071h1.763v.957h-1.763v3.945a1.634,1.634,0,0,0,.239,1,.956.956,0,0,0,.793.3,1.178,1.178,0,0,0,.731-.232Z" fill="#2f2f2f"/>
      <path d="M256.074,185.8a3.247,3.247,0,0,1-2.478-.981,3.634,3.634,0,0,1-.926-2.6,3.785,3.785,0,0,1,.964-2.755,3.467,3.467,0,0,1,2.6-.991,3.142,3.142,0,0,1,2.444.964,3.822,3.822,0,0,1,.879,2.673,3.756,3.756,0,0,1-.948,2.683A3.316,3.316,0,0,1,256.074,185.8Zm.082-6.384a2.134,2.134,0,0,0-1.709.734,3.015,3.015,0,0,0-.629,2.027,2.852,2.852,0,0,0,.636,1.962,2.159,2.159,0,0,0,1.7.718,2.048,2.048,0,0,0,1.671-.7,3.053,3.053,0,0,0,.585-2,3.1,3.1,0,0,0-.585-2.023A2.035,2.035,0,0,0,256.156,179.412Z" fill="#2f2f2f"/>
      <path d="M264.926,179.767a1.375,1.375,0,0,0-.848-.225,1.429,1.429,0,0,0-1.2.676,3.132,3.132,0,0,0-.483,1.846v3.568h-1.121v-7H262.4v1.443h.028a2.451,2.451,0,0,1,.731-1.152,1.669,1.669,0,0,1,1.1-.414,1.824,1.824,0,0,1,.67.1Z" fill="#2f2f2f"/>
      <path d="M266.744,176.855a.709.709,0,0,1-.513-.2.693.693,0,0,1-.211-.52.716.716,0,0,1,.724-.731.724.724,0,0,1,.523.208.7.7,0,0,1,.215.523.694.694,0,0,1-.215.513A.72.72,0,0,1,266.744,176.855Zm.547,8.777H266.17v-7h1.121Z" fill="#2f2f2f"/>
      <path d="M274.2,185.311a3.64,3.64,0,0,1-1.914.485,3.168,3.168,0,0,1-2.417-.974,3.533,3.533,0,0,1-.919-2.526,3.879,3.879,0,0,1,.991-2.778,3.465,3.465,0,0,1,2.646-1.05,3.683,3.683,0,0,1,1.627.342v1.148a2.856,2.856,0,0,0-1.668-.546,2.254,2.254,0,0,0-1.761.769,2.916,2.916,0,0,0-.686,2.02,2.776,2.776,0,0,0,.645,1.941,2.228,2.228,0,0,0,1.733.711,2.814,2.814,0,0,0,1.723-.608Z" fill="#2f2f2f"/>
      <path d="M280.946,185.632h-1.121v-1.093H279.8a2.346,2.346,0,0,1-2.153,1.257,2.3,2.3,0,0,1-1.637-.553,1.916,1.916,0,0,1-.592-1.47q0-1.962,2.311-2.283l2.1-.294q0-1.785-1.442-1.784a3.446,3.446,0,0,0-2.283.861v-1.148a4.334,4.334,0,0,1,2.379-.657q2.468,0,2.467,2.612Zm-1.121-3.541-1.688.233a2.726,2.726,0,0,0-1.176.386,1.116,1.116,0,0,0-.4.981,1.067,1.067,0,0,0,.367.837,1.407,1.407,0,0,0,.973.325,1.8,1.8,0,0,0,1.378-.584,2.086,2.086,0,0,0,.543-1.48Z" fill="#2f2f2f"/>
      <path d="M284.088,185.632h-1.121V175.269h1.121Z" fill="#2f2f2f"/>
      <path d="M295.7,178.632l-2.789,7h-1.1l-2.653-7h1.231l1.777,5.086a4.587,4.587,0,0,1,.246.978h.028a4.528,4.528,0,0,1,.218-.95l1.86-5.114Z" fill="#2f2f2f"/>
      <path d="M302.337,182.413H297.4a2.611,2.611,0,0,0,.628,1.8,2.169,2.169,0,0,0,1.655.636,3.446,3.446,0,0,0,2.174-.779v1.052a4.063,4.063,0,0,1-2.441.67,2.957,2.957,0,0,1-2.331-.953,3.906,3.906,0,0,1-.848-2.683,3.83,3.83,0,0,1,.926-2.663,2.972,2.972,0,0,1,2.3-1.029,2.634,2.634,0,0,1,2.126.889,3.706,3.706,0,0,1,.752,2.468Zm-1.149-.951a2.279,2.279,0,0,0-.468-1.51,1.6,1.6,0,0,0-1.282-.54,1.809,1.809,0,0,0-1.346.567,2.573,2.573,0,0,0-.684,1.483Z" fill="#2f2f2f"/>
      <path d="M307.67,179.767a1.375,1.375,0,0,0-.848-.225,1.431,1.431,0,0,0-1.2.676,3.132,3.132,0,0,0-.481,1.846v3.568H304.02v-7h1.121v1.443h.027a2.444,2.444,0,0,1,.731-1.152,1.669,1.669,0,0,1,1.1-.414,1.828,1.828,0,0,1,.67.1Z" fill="#2f2f2f"/>
      <path d="M308.671,185.379v-1.2a3.32,3.32,0,0,0,2.017.677q1.476,0,1.476-.984a.854.854,0,0,0-.126-.475,1.262,1.262,0,0,0-.342-.346,2.634,2.634,0,0,0-.506-.27c-.194-.079-.4-.163-.626-.249a7.9,7.9,0,0,1-.816-.373,2.429,2.429,0,0,1-.588-.424,1.568,1.568,0,0,1-.355-.536,1.894,1.894,0,0,1-.12-.7,1.678,1.678,0,0,1,.225-.872,2.017,2.017,0,0,1,.6-.636,2.82,2.82,0,0,1,.858-.386,3.823,3.823,0,0,1,.994-.13,4.006,4.006,0,0,1,1.627.315v1.134a3.168,3.168,0,0,0-1.777-.5,2.122,2.122,0,0,0-.568.071,1.409,1.409,0,0,0-.433.2.909.909,0,0,0-.28.311.811.811,0,0,0-.1.4.949.949,0,0,0,.1.458,1,1,0,0,0,.29.328,2.25,2.25,0,0,0,.465.26q.273.117.622.253a8.46,8.46,0,0,1,.834.366,2.823,2.823,0,0,1,.628.423,1.667,1.667,0,0,1,.4.544,1.759,1.759,0,0,1,.139.731,1.736,1.736,0,0,1-.228.9,1.952,1.952,0,0,1-.612.635,2.789,2.789,0,0,1-.882.376,4.35,4.35,0,0,1-1.046.123A3.972,3.972,0,0,1,308.671,185.379Z" fill="#2f2f2f"/>
      <path d="M315.463,176.855a.709.709,0,0,1-.513-.2.694.694,0,0,1-.212-.52.717.717,0,0,1,.725-.731.721.721,0,0,1,.522.208.7.7,0,0,1,.216.523.691.691,0,0,1-.216.513A.716.716,0,0,1,315.463,176.855Zm.547,8.777h-1.121v-7h1.121Z" fill="#2f2f2f"/>
      <path d="M321.1,185.8a3.247,3.247,0,0,1-2.478-.981,3.634,3.634,0,0,1-.926-2.6,3.785,3.785,0,0,1,.964-2.755,3.47,3.47,0,0,1,2.605-.991,3.14,3.14,0,0,1,2.443.964,3.822,3.822,0,0,1,.879,2.673,3.76,3.76,0,0,1-.947,2.683A3.319,3.319,0,0,1,321.1,185.8Zm.083-6.384a2.132,2.132,0,0,0-1.709.734,3.015,3.015,0,0,0-.629,2.027,2.856,2.856,0,0,0,.635,1.962,2.161,2.161,0,0,0,1.7.718,2.048,2.048,0,0,0,1.67-.7,3.053,3.053,0,0,0,.585-2,3.1,3.1,0,0,0-.585-2.023A2.035,2.035,0,0,0,321.187,179.412Z" fill="#2f2f2f"/>
      <path d="M332.116,185.632H331V181.64q0-2.229-1.627-2.228a1.764,1.764,0,0,0-1.39.632,2.338,2.338,0,0,0-.551,1.6v3.992h-1.121v-7h1.121v1.162h.027a2.528,2.528,0,0,1,2.3-1.326,2.139,2.139,0,0,1,1.757.742,3.3,3.3,0,0,1,.608,2.143Z" fill="#2f2f2f"/>
    </g>
    <g>
      <path d="M50.4,137.839H49.036l-1.64-2.748a6.089,6.089,0,0,0-.438-.653,2.45,2.45,0,0,0-.434-.44,1.491,1.491,0,0,0-.478-.25,1.98,1.98,0,0,0-.578-.079h-.944v4.17H43.376v-9.8H46.3a4.174,4.174,0,0,1,1.186.16,2.649,2.649,0,0,1,.944.489,2.285,2.285,0,0,1,.625.817,2.714,2.714,0,0,1,.225,1.145,2.771,2.771,0,0,1-.153.94,2.461,2.461,0,0,1-.438.762,2.659,2.659,0,0,1-.683.571,3.522,3.522,0,0,1-.9.366v.027a2.1,2.1,0,0,1,.428.249,2.492,2.492,0,0,1,.345.332,4.338,4.338,0,0,1,.325.434c.106.162.227.35.358.564Zm-5.879-8.763v3.554h1.559a2.358,2.358,0,0,0,.8-.13,1.838,1.838,0,0,0,.632-.372,1.7,1.7,0,0,0,.417-.595,2,2,0,0,0,.15-.789,1.538,1.538,0,0,0-.509-1.227,2.189,2.189,0,0,0-1.473-.441Z" fill="#2f2f2f"/>
      <path d="M57.016,134.62H52.073a2.626,2.626,0,0,0,.629,1.8,2.17,2.17,0,0,0,1.654.636,3.438,3.438,0,0,0,2.174-.779v1.052a4.058,4.058,0,0,1-2.44.67,2.958,2.958,0,0,1-2.331-.953,3.9,3.9,0,0,1-.848-2.683,3.826,3.826,0,0,1,.927-2.663,2.968,2.968,0,0,1,2.3-1.029,2.633,2.633,0,0,1,2.126.889,3.7,3.7,0,0,1,.752,2.468Zm-1.149-.951a2.274,2.274,0,0,0-.468-1.51,1.6,1.6,0,0,0-1.282-.54,1.811,1.811,0,0,0-1.346.567,2.573,2.573,0,0,0-.684,1.483Z" fill="#2f2f2f"/>
      <path d="M64.717,137.279q0,3.855-3.692,3.855a4.952,4.952,0,0,1-2.269-.492v-1.121a4.664,4.664,0,0,0,2.256.656q2.583,0,2.584-2.748v-.765h-.028a2.833,2.833,0,0,1-4.508.406,3.729,3.729,0,0,1-.8-2.5,4.363,4.363,0,0,1,.857-2.837,2.867,2.867,0,0,1,2.349-1.053,2.282,2.282,0,0,1,2.1,1.135H63.6v-.971h1.121Zm-1.121-2.6v-1.032a2.005,2.005,0,0,0-.565-1.429,1.855,1.855,0,0,0-1.4-.594,1.948,1.948,0,0,0-1.627.755,3.364,3.364,0,0,0-.588,2.116,2.893,2.893,0,0,0,.564,1.869,1.82,1.82,0,0,0,1.494.7A1.948,1.948,0,0,0,63,136.39,2.5,2.5,0,0,0,63.6,134.674Z" fill="#2f2f2f"/>
      <path d="M72.544,137.839H71.423v-1.107H71.4A2.3,2.3,0,0,1,69.235,138q-2.5,0-2.5-2.98v-4.184h1.115v4.006q0,2.215,1.7,2.215a1.719,1.719,0,0,0,1.351-.6,2.32,2.32,0,0,0,.529-1.582v-4.034h1.121Z" fill="#2f2f2f"/>
      <path d="M75.771,137.839H74.65V127.476h1.121Z" fill="#2f2f2f"/>
      <path d="M82.926,137.839H81.805v-1.093h-.028A2.348,2.348,0,0,1,79.624,138a2.305,2.305,0,0,1-1.638-.553,1.922,1.922,0,0,1-.59-1.47q0-1.962,2.31-2.283l2.1-.294q0-1.785-1.443-1.784a3.446,3.446,0,0,0-2.283.861v-1.148a4.334,4.334,0,0,1,2.379-.657q2.468,0,2.468,2.612ZM81.805,134.3l-1.689.233a2.739,2.739,0,0,0-1.176.386,1.116,1.116,0,0,0-.4.981,1.069,1.069,0,0,0,.365.837,1.413,1.413,0,0,0,.975.325,1.8,1.8,0,0,0,1.377-.584,2.091,2.091,0,0,0,.544-1.48Z" fill="#2f2f2f"/>
      <path d="M88.6,131.974a1.375,1.375,0,0,0-.848-.225,1.429,1.429,0,0,0-1.2.676,3.132,3.132,0,0,0-.483,1.846v3.568H84.946v-7h1.121v1.443H86.1a2.451,2.451,0,0,1,.731-1.152,1.667,1.667,0,0,1,1.1-.414,1.824,1.824,0,0,1,.67.1Z" fill="#2f2f2f"/>
      <path d="M99.623,141.059H98.5v-4.423h-.027A2.509,2.509,0,0,1,96.082,138a2.631,2.631,0,0,1-2.115-.94,3.832,3.832,0,0,1-.8-2.56,4.192,4.192,0,0,1,.875-2.785,2.913,2.913,0,0,1,2.351-1.043,2.208,2.208,0,0,1,2.079,1.135H98.5v-.971h1.121ZM98.5,134.688v-1.019a2.038,2.038,0,0,0-.564-1.456,1.889,1.889,0,0,0-1.432-.594,1.927,1.927,0,0,0-1.6.748,3.347,3.347,0,0,0-.588,2.109,2.9,2.9,0,0,0,.568,1.9,1.812,1.812,0,0,0,1.463.687,1.976,1.976,0,0,0,1.569-.673A2.5,2.5,0,0,0,98.5,134.688Z" fill="#2f2f2f"/>
      <path d="M107.451,137.839H106.33v-1.107H106.3a2.3,2.3,0,0,1-2.16,1.271q-2.5,0-2.5-2.98v-4.184h1.114v4.006q0,2.215,1.7,2.215a1.715,1.715,0,0,0,1.35-.6,2.315,2.315,0,0,0,.53-1.582v-4.034h1.121Z" fill="#2f2f2f"/>
      <path d="M115.271,134.62h-4.943a2.626,2.626,0,0,0,.629,1.8,2.168,2.168,0,0,0,1.654.636,3.44,3.44,0,0,0,2.174-.779v1.052a4.06,4.06,0,0,1-2.44.67,2.957,2.957,0,0,1-2.331-.953,3.9,3.9,0,0,1-.848-2.683,3.826,3.826,0,0,1,.927-2.663,2.968,2.968,0,0,1,2.3-1.029,2.633,2.633,0,0,1,2.126.889,3.7,3.7,0,0,1,.752,2.468Zm-1.149-.951a2.274,2.274,0,0,0-.468-1.51,1.6,1.6,0,0,0-1.282-.54,1.815,1.815,0,0,0-1.347.567,2.578,2.578,0,0,0-.683,1.483Z" fill="#2f2f2f"/>
      <path d="M120.6,131.974a1.372,1.372,0,0,0-.847-.225,1.43,1.43,0,0,0-1.2.676,3.125,3.125,0,0,0-.482,1.846v3.568h-1.121v-7h1.121v1.443h.028a2.444,2.444,0,0,1,.731-1.152,1.665,1.665,0,0,1,1.1-.414,1.822,1.822,0,0,1,.669.1Z" fill="#2f2f2f"/>
      <path d="M122.422,129.062a.709.709,0,0,1-.513-.205.694.694,0,0,1-.212-.52.717.717,0,0,1,.725-.731.721.721,0,0,1,.522.208.7.7,0,0,1,.216.523.691.691,0,0,1-.216.513A.716.716,0,0,1,122.422,129.062Zm.547,8.777h-1.121v-7h1.121Z" fill="#2f2f2f"/>
      <path d="M130.764,134.62h-4.943a2.616,2.616,0,0,0,.629,1.8,2.167,2.167,0,0,0,1.654.636,3.442,3.442,0,0,0,2.174-.779v1.052a4.058,4.058,0,0,1-2.44.67,2.956,2.956,0,0,1-2.331-.953,3.9,3.9,0,0,1-.848-2.683,3.83,3.83,0,0,1,.926-2.663,2.972,2.972,0,0,1,2.3-1.029,2.634,2.634,0,0,1,2.126.889,3.706,3.706,0,0,1,.752,2.468Zm-1.149-.951a2.28,2.28,0,0,0-.469-1.51,1.593,1.593,0,0,0-1.281-.54,1.809,1.809,0,0,0-1.346.567,2.566,2.566,0,0,0-.684,1.483Z" fill="#2f2f2f"/>
      <path d="M132.005,137.586v-1.2a3.32,3.32,0,0,0,2.016.677q1.478,0,1.477-.984a.854.854,0,0,0-.126-.475,1.262,1.262,0,0,0-.342-.346,2.634,2.634,0,0,0-.506-.27c-.194-.079-.4-.163-.626-.249a7.9,7.9,0,0,1-.816-.373,2.429,2.429,0,0,1-.588-.424,1.559,1.559,0,0,1-.355-.536,1.894,1.894,0,0,1-.12-.7,1.678,1.678,0,0,1,.225-.872,2.017,2.017,0,0,1,.6-.636,2.844,2.844,0,0,1,.858-.386,3.823,3.823,0,0,1,.994-.13,4.006,4.006,0,0,1,1.627.315v1.135a3.161,3.161,0,0,0-1.777-.506,2.122,2.122,0,0,0-.568.071,1.4,1.4,0,0,0-.433.2.928.928,0,0,0-.28.311.811.811,0,0,0-.1.4.949.949,0,0,0,.1.458,1,1,0,0,0,.29.328,2.268,2.268,0,0,0,.464.26c.183.078.39.162.623.253a8.7,8.7,0,0,1,.834.366,2.823,2.823,0,0,1,.628.423,1.667,1.667,0,0,1,.4.544,1.759,1.759,0,0,1,.139.731,1.736,1.736,0,0,1-.228.9,1.952,1.952,0,0,1-.612.635,2.789,2.789,0,0,1-.882.376,4.35,4.35,0,0,1-1.046.123A3.972,3.972,0,0,1,132.005,137.586Z" fill="#2f2f2f"/>
      <path d="M52.76,156.068h-1a8.735,8.735,0,0,1-2.119-5.968,9.065,9.065,0,0,1,2.119-6.063h1.011a9.211,9.211,0,0,0-2.146,6.049A9.052,9.052,0,0,0,52.76,156.068Z" fill="#2f2f2f"/>
      <path d="M58.211,153.518A3.637,3.637,0,0,1,56.3,154a3.164,3.164,0,0,1-2.416-.974,3.529,3.529,0,0,1-.92-2.526,3.883,3.883,0,0,1,.991-2.778,3.468,3.468,0,0,1,2.646-1.05,3.68,3.68,0,0,1,1.627.342v1.149a2.85,2.85,0,0,0-1.668-.547,2.253,2.253,0,0,0-1.76.769,2.918,2.918,0,0,0-.688,2.02,2.777,2.777,0,0,0,.647,1.941,2.226,2.226,0,0,0,1.732.711,2.809,2.809,0,0,0,1.723-.608Z" fill="#2f2f2f"/>
      <path d="M65.437,153.839H64.315v-1.107h-.027A2.3,2.3,0,0,1,62.128,154q-2.5,0-2.5-2.98v-4.184H60.74v4.006q0,2.215,1.7,2.215a1.717,1.717,0,0,0,1.35-.6,2.315,2.315,0,0,0,.529-1.582v-4.034h1.122Z" fill="#2f2f2f"/>
      <path d="M71.194,147.974a1.372,1.372,0,0,0-.847-.225,1.433,1.433,0,0,0-1.2.676,3.132,3.132,0,0,0-.481,1.846v3.568H67.544v-7h1.121v1.443h.027a2.453,2.453,0,0,1,.732-1.152,1.664,1.664,0,0,1,1.1-.414,1.828,1.828,0,0,1,.67.1Z" fill="#2f2f2f"/>
      <path d="M76.088,147.974a1.373,1.373,0,0,0-.848-.225,1.429,1.429,0,0,0-1.2.676,3.132,3.132,0,0,0-.482,1.846v3.568H72.438v-7h1.121v1.443h.027a2.451,2.451,0,0,1,.731-1.152,1.671,1.671,0,0,1,1.1-.414,1.821,1.821,0,0,1,.67.1Z" fill="#2f2f2f"/>
      <path d="M82.931,150.62H77.988a2.626,2.626,0,0,0,.629,1.8,2.17,2.17,0,0,0,1.654.636,3.438,3.438,0,0,0,2.174-.779v1.052a4.058,4.058,0,0,1-2.44.67,2.958,2.958,0,0,1-2.331-.953,3.9,3.9,0,0,1-.848-2.683,3.826,3.826,0,0,1,.927-2.663,2.968,2.968,0,0,1,2.3-1.029,2.633,2.633,0,0,1,2.126.889,3.7,3.7,0,0,1,.752,2.468Zm-1.149-.951a2.274,2.274,0,0,0-.468-1.51,1.6,1.6,0,0,0-1.282-.54,1.811,1.811,0,0,0-1.346.567A2.573,2.573,0,0,0,78,149.669Z" fill="#2f2f2f"/>
      <path d="M90.424,153.839H89.3v-3.992q0-2.229-1.627-2.228a1.764,1.764,0,0,0-1.391.632,2.343,2.343,0,0,0-.551,1.6v3.992H84.613v-7h1.121V148h.028a2.528,2.528,0,0,1,2.3-1.326,2.139,2.139,0,0,1,1.756.742,3.3,3.3,0,0,1,.609,2.143Z" fill="#2f2f2f"/>
      <path d="M95.653,153.771a2.159,2.159,0,0,1-1.046.219q-1.839,0-1.838-2.051V147.8h-1.2v-.957h1.2V145.13l1.121-.362v2.071h1.763v.957H93.89v3.945a1.634,1.634,0,0,0,.239,1,.956.956,0,0,0,.793.3,1.178,1.178,0,0,0,.731-.232Z" fill="#2f2f2f"/>
      <path d="M106.96,153.839h-1.121V152.65h-.027a2.826,2.826,0,0,1-4.516.413,3.857,3.857,0,0,1-.789-2.56,4.191,4.191,0,0,1,.875-2.782,2.886,2.886,0,0,1,2.331-1.046,2.247,2.247,0,0,1,2.1,1.135h.027v-4.334h1.121Zm-1.121-3.165v-1.032a2,2,0,0,0-.561-1.435,1.876,1.876,0,0,0-1.422-.588,1.934,1.934,0,0,0-1.613.752,3.292,3.292,0,0,0-.588,2.078,2.963,2.963,0,0,0,.564,1.91,1.841,1.841,0,0,0,1.514.7,1.916,1.916,0,0,0,1.521-.677A2.52,2.52,0,0,0,105.839,150.674Z" fill="#2f2f2f"/>
      <path d="M114.117,153.839H113v-1.093h-.027A2.35,2.35,0,0,1,110.815,154a2.3,2.3,0,0,1-1.637-.553,1.919,1.919,0,0,1-.591-1.47q0-1.962,2.31-2.283l2.1-.294q0-1.785-1.442-1.784a3.443,3.443,0,0,0-2.283.861v-1.148a4.328,4.328,0,0,1,2.378-.657q2.468,0,2.468,2.612ZM113,150.3l-1.688.233a2.734,2.734,0,0,0-1.176.386,1.113,1.113,0,0,0-.4.981,1.066,1.066,0,0,0,.366.837,1.41,1.41,0,0,0,.974.325,1.8,1.8,0,0,0,1.377-.584A2.091,2.091,0,0,0,113,151Z" fill="#2f2f2f"/>
      <path d="M119.376,153.771a2.162,2.162,0,0,1-1.046.219q-1.839,0-1.839-2.051V147.8h-1.2v-.957h1.2V145.13l1.121-.362v2.071h1.764v.957h-1.764v3.945a1.627,1.627,0,0,0,.24,1,.954.954,0,0,0,.793.3,1.178,1.178,0,0,0,.731-.232Z" fill="#2f2f2f"/>
      <path d="M125.992,153.839h-1.121v-1.093h-.027A2.348,2.348,0,0,1,122.69,154a2.3,2.3,0,0,1-1.636-.553,1.916,1.916,0,0,1-.592-1.47q0-1.962,2.31-2.283l2.1-.294q0-1.785-1.442-1.784a3.446,3.446,0,0,0-2.283.861v-1.148a4.333,4.333,0,0,1,2.378-.657q2.469,0,2.468,2.612Zm-1.121-3.541-1.688.233a2.734,2.734,0,0,0-1.176.386,1.116,1.116,0,0,0-.4.981,1.064,1.064,0,0,0,.367.837,1.407,1.407,0,0,0,.973.325,1.8,1.8,0,0,0,1.378-.584,2.09,2.09,0,0,0,.543-1.48Z" fill="#2f2f2f"/>
      <path d="M127.578,156.068h-1a9.052,9.052,0,0,0,2.133-5.982,9.212,9.212,0,0,0-2.147-6.049h1.012a9.03,9.03,0,0,1,2.133,6.063A8.7,8.7,0,0,1,127.578,156.068Z" fill="#2f2f2f"/>
    </g>
    <g>
      <path d="M129.117,252.734h-2.83V261.5h-1.148v-8.764h-2.824V251.7h6.8Z" fill="#2f2f2f"/>
      <path d="M135.115,258.278h-4.942a2.617,2.617,0,0,0,.629,1.805,2.168,2.168,0,0,0,1.654.636,3.435,3.435,0,0,0,2.174-.78v1.053a4.061,4.061,0,0,1-2.441.67,2.96,2.96,0,0,1-2.331-.954,3.907,3.907,0,0,1-.847-2.683,3.82,3.82,0,0,1,.927-2.662,2.966,2.966,0,0,1,2.3-1.029,2.63,2.63,0,0,1,2.126.889,3.7,3.7,0,0,1,.752,2.467Zm-1.148-.95a2.277,2.277,0,0,0-.468-1.511,1.6,1.6,0,0,0-1.282-.54,1.809,1.809,0,0,0-1.347.568,2.569,2.569,0,0,0-.683,1.483Z" fill="#2f2f2f"/>
      <path d="M146.737,261.5h-1.121v-4.019a3.036,3.036,0,0,0-.358-1.682,1.363,1.363,0,0,0-1.207-.52,1.493,1.493,0,0,0-1.22.657,2.508,2.508,0,0,0-.5,1.572V261.5h-1.121v-4.156q0-2.065-1.593-2.065a1.476,1.476,0,0,0-1.217.619,2.564,2.564,0,0,0-.478,1.61V261.5H136.8v-7h1.121v1.107h.027a2.38,2.38,0,0,1,2.174-1.271,2.024,2.024,0,0,1,1.983,1.449,2.5,2.5,0,0,1,2.324-1.449q2.311,0,2.31,2.851Z" fill="#2f2f2f"/>
      <path d="M149.913,260.486h-.027v4.232h-1.121V254.5h1.121v1.231h.027a2.65,2.65,0,0,1,2.42-1.4,2.562,2.562,0,0,1,2.112.94,3.891,3.891,0,0,1,.759,2.519,4.343,4.343,0,0,1-.854,2.813,2.848,2.848,0,0,1-2.338,1.056A2.341,2.341,0,0,1,149.913,260.486Zm-.027-2.823v.978a2.083,2.083,0,0,0,.563,1.473,2.012,2.012,0,0,0,3.029-.175,3.573,3.573,0,0,0,.578-2.167,2.828,2.828,0,0,0-.54-1.832,1.792,1.792,0,0,0-1.463-.663,1.986,1.986,0,0,0-1.573.681A2.5,2.5,0,0,0,149.886,257.663Z" fill="#2f2f2f"/>
      <path d="M159.909,261.662a3.245,3.245,0,0,1-2.477-.981,3.627,3.627,0,0,1-.927-2.6,3.784,3.784,0,0,1,.964-2.755,3.466,3.466,0,0,1,2.6-.991,3.141,3.141,0,0,1,2.445.964,3.824,3.824,0,0,1,.878,2.673,3.764,3.764,0,0,1-.947,2.683A3.319,3.319,0,0,1,159.909,261.662Zm.082-6.385a2.133,2.133,0,0,0-1.709.735,3.021,3.021,0,0,0-.629,2.027,2.854,2.854,0,0,0,.636,1.962,2.162,2.162,0,0,0,1.7.718,2.052,2.052,0,0,0,1.672-.7,3.056,3.056,0,0,0,.584-2,3.108,3.108,0,0,0-.584-2.024A2.042,2.042,0,0,0,159.991,255.277Z" fill="#2f2f2f"/>
      <path d="M168.762,255.633a1.37,1.37,0,0,0-.848-.226,1.432,1.432,0,0,0-1.2.677,3.13,3.13,0,0,0-.482,1.846V261.5h-1.121v-7h1.121v1.442h.028a2.435,2.435,0,0,1,.731-1.151,1.667,1.667,0,0,1,1.1-.414,1.832,1.832,0,0,1,.67.1Z" fill="#2f2f2f"/>
      <path d="M174.938,261.5h-1.122V260.4h-.027a2.347,2.347,0,0,1-2.153,1.258,2.3,2.3,0,0,1-1.638-.554,1.917,1.917,0,0,1-.591-1.469q0-1.962,2.311-2.284l2.1-.293q0-1.785-1.442-1.785a3.44,3.44,0,0,0-2.283.862V254.99a4.337,4.337,0,0,1,2.379-.656q2.466,0,2.468,2.611Zm-1.122-3.541-1.688.232a2.733,2.733,0,0,0-1.176.387,1.113,1.113,0,0,0-.4.981,1.07,1.07,0,0,0,.365.837,1.416,1.416,0,0,0,.975.325,1.8,1.8,0,0,0,1.376-.585,2.085,2.085,0,0,0,.544-1.48Z" fill="#2f2f2f"/>
      <path d="M178.078,261.5h-1.121V251.135h1.121Z" fill="#2f2f2f"/>
      <path d="M190.157,264.718h-1.121V260.3h-.027a2.508,2.508,0,0,1-2.393,1.367,2.631,2.631,0,0,1-2.115-.94,3.832,3.832,0,0,1-.8-2.56,4.2,4.2,0,0,1,.875-2.786,2.916,2.916,0,0,1,2.352-1.042,2.206,2.206,0,0,1,2.078,1.135h.027V254.5h1.121Zm-1.121-6.371v-1.019a2.037,2.037,0,0,0-.563-1.456,1.892,1.892,0,0,0-1.433-.6,1.928,1.928,0,0,0-1.6.749,3.347,3.347,0,0,0-.587,2.109,2.9,2.9,0,0,0,.567,1.9,1.812,1.812,0,0,0,1.463.687,1.974,1.974,0,0,0,1.569-.674A2.494,2.494,0,0,0,189.036,258.347Z" fill="#2f2f2f"/>
      <path d="M197.985,261.5h-1.121v-1.107h-.027a2.3,2.3,0,0,1-2.16,1.271q-2.5,0-2.5-2.98V254.5h1.114V258.5q0,2.214,1.7,2.215a1.715,1.715,0,0,0,1.35-.605,2.313,2.313,0,0,0,.53-1.583V254.5h1.121Z" fill="#2f2f2f"/>
      <path d="M205.805,258.278h-4.943a2.627,2.627,0,0,0,.629,1.805,2.17,2.17,0,0,0,1.655.636,3.432,3.432,0,0,0,2.173-.78v1.053a4.058,4.058,0,0,1-2.44.67,2.959,2.959,0,0,1-2.331-.954,3.9,3.9,0,0,1-.848-2.683,3.825,3.825,0,0,1,.927-2.662,2.968,2.968,0,0,1,2.3-1.029,2.63,2.63,0,0,1,2.126.889,3.7,3.7,0,0,1,.752,2.467Zm-1.149-.95a2.277,2.277,0,0,0-.468-1.511,1.6,1.6,0,0,0-1.282-.54,1.808,1.808,0,0,0-1.346.568,2.57,2.57,0,0,0-.684,1.483Z" fill="#2f2f2f"/>
      <path d="M211.139,255.633a1.37,1.37,0,0,0-.848-.226,1.431,1.431,0,0,0-1.2.677,3.13,3.13,0,0,0-.482,1.846V261.5h-1.121v-7h1.121v1.442h.028a2.435,2.435,0,0,1,.731-1.151,1.665,1.665,0,0,1,1.1-.414,1.832,1.832,0,0,1,.67.1Z" fill="#2f2f2f"/>
      <path d="M212.956,252.721a.713.713,0,0,1-.513-.205.694.694,0,0,1-.212-.52.717.717,0,0,1,.725-.731.724.724,0,0,1,.523.208.731.731,0,0,1,0,1.036A.72.72,0,0,1,212.956,252.721Zm.547,8.777h-1.121v-7H213.5Z" fill="#2f2f2f"/>
      <path d="M221.3,258.278h-4.943a2.617,2.617,0,0,0,.629,1.805,2.169,2.169,0,0,0,1.655.636,3.436,3.436,0,0,0,2.173-.78v1.053a4.058,4.058,0,0,1-2.44.67,2.956,2.956,0,0,1-2.331-.954,3.9,3.9,0,0,1-.848-2.683,3.829,3.829,0,0,1,.926-2.662,2.972,2.972,0,0,1,2.3-1.029,2.631,2.631,0,0,1,2.126.889,3.705,3.705,0,0,1,.752,2.467Zm-1.149-.95a2.282,2.282,0,0,0-.468-1.511,1.6,1.6,0,0,0-1.282-.54,1.807,1.807,0,0,0-1.346.568,2.57,2.57,0,0,0-.684,1.483Z" fill="#2f2f2f"/>
      <path d="M222.539,261.245v-1.2a3.32,3.32,0,0,0,2.017.677q1.476,0,1.476-.985a.856.856,0,0,0-.126-.475,1.259,1.259,0,0,0-.342-.345,2.655,2.655,0,0,0-.5-.27c-.195-.08-.4-.163-.626-.249a8.366,8.366,0,0,1-.817-.373,2.5,2.5,0,0,1-.588-.424,1.568,1.568,0,0,1-.355-.536,1.9,1.9,0,0,1-.12-.7,1.674,1.674,0,0,1,.225-.871,2.017,2.017,0,0,1,.6-.636,2.8,2.8,0,0,1,.858-.386,3.792,3.792,0,0,1,.994-.13,4.022,4.022,0,0,1,1.627.314v1.135a3.169,3.169,0,0,0-1.777-.506,2.074,2.074,0,0,0-.567.072,1.382,1.382,0,0,0-.434.2.909.909,0,0,0-.28.311.808.808,0,0,0-.1.4.949.949,0,0,0,.1.458,1,1,0,0,0,.29.328,2.25,2.25,0,0,0,.465.26q.273.115.622.253a8.6,8.6,0,0,1,.834.365,2.891,2.891,0,0,1,.629.424,1.657,1.657,0,0,1,.4.544,1.756,1.756,0,0,1,.14.731,1.73,1.73,0,0,1-.229.9,1.945,1.945,0,0,1-.612.636,2.789,2.789,0,0,1-.882.376,4.35,4.35,0,0,1-1.046.123A3.972,3.972,0,0,1,222.539,261.245Z" fill="#2f2f2f"/>
      <path d="M232.722,253.951l-1.873.383,1.3,1.661-.751.52-1.067-1.812-1.08,1.812L228.5,256l1.3-1.661-1.887-.383.308-.854,1.791.676-.157-2.078h.943l-.157,2.078,1.8-.676Z" fill="#2f2f2f"/>
      <path d="M128.475,269.6h-3.794v2.9h3.6v1.019h-3.6V277.5h-1.244v-8.935h5.038Z" fill="#2f2f2f"/>
      <path d="M136.506,272.973a6.806,6.806,0,0,1-.283,2.078,4.271,4.271,0,0,1-.766,1.446,3.018,3.018,0,0,1-1.128.847,3.423,3.423,0,0,1-1.364.277,3.383,3.383,0,0,1-1.5-.311,2.778,2.778,0,0,1-1.06-.9,4.109,4.109,0,0,1-.626-1.432,8.123,8.123,0,0,1-.2-1.9,6.815,6.815,0,0,1,.28-2.064,4.214,4.214,0,0,1,.763-1.446,3.043,3.043,0,0,1,1.124-.848,3.415,3.415,0,0,1,1.361-.277,3.363,3.363,0,0,1,1.5.315,2.842,2.842,0,0,1,1.062.9,4.079,4.079,0,0,1,.633,1.425A7.891,7.891,0,0,1,136.506,272.973Zm-1.265.089a8.076,8.076,0,0,0-.119-1.439,3.589,3.589,0,0,0-.387-1.125,1.983,1.983,0,0,0-.686-.731,1.888,1.888,0,0,0-1.016-.26,1.726,1.726,0,0,0-.987.277,2.148,2.148,0,0,0-.681.752,3.856,3.856,0,0,0-.4,1.114,6.845,6.845,0,0,0-.13,1.357,7.83,7.83,0,0,0,.123,1.446,3.648,3.648,0,0,0,.387,1.121,1.98,1.98,0,0,0,.679.728,1.87,1.87,0,0,0,1,.26,1.752,1.752,0,0,0,.991-.277,2.175,2.175,0,0,0,.688-.752,3.743,3.743,0,0,0,.4-1.111A6.766,6.766,0,0,0,135.241,273.062Z" fill="#2f2f2f"/>
      <path d="M143.849,277.5h-1.374l-1.333-2.857a3.281,3.281,0,0,0-.308-.544,1.488,1.488,0,0,0-.339-.342,1.218,1.218,0,0,0-.4-.181,1.985,1.985,0,0,0-.482-.054h-.574V277.5h-1.217v-8.935h2.393a4.664,4.664,0,0,1,1.34.171,2.537,2.537,0,0,1,.919.479,1.824,1.824,0,0,1,.526.742,2.636,2.636,0,0,1,.168.96,2.508,2.508,0,0,1-.123.79,2.152,2.152,0,0,1-.366.676,2.333,2.333,0,0,1-.6.527,2.73,2.73,0,0,1-.823.331,1.4,1.4,0,0,1,.638.455,4.9,4.9,0,0,1,.538.865Zm-1.949-6.48a1.287,1.287,0,0,0-.448-1.074,1.988,1.988,0,0,0-1.261-.355h-1.148v2.953h.984a2.814,2.814,0,0,0,.776-.1,1.658,1.658,0,0,0,.588-.294,1.335,1.335,0,0,0,.376-.479A1.528,1.528,0,0,0,141.9,271.018Z" fill="#2f2f2f"/>
      <path d="M158.874,275.078a2.209,2.209,0,0,1-.984,1.911,3.364,3.364,0,0,1-1.119.475,6.128,6.128,0,0,1-1.438.157q-.355,0-.708-.027t-.677-.069q-.324-.04-.611-.095c-.191-.037-.365-.076-.52-.117v-1.175a6.352,6.352,0,0,0,1.152.3,8.667,8.667,0,0,0,1.453.11,4.708,4.708,0,0,0,1-.092,1.928,1.928,0,0,0,.677-.274,1.071,1.071,0,0,0,.382-.441,1.4,1.4,0,0,0,.121-.595.967.967,0,0,0-.2-.618,1.949,1.949,0,0,0-.529-.458,4.884,4.884,0,0,0-.749-.369q-.42-.168-.857-.346t-.859-.386a3.561,3.561,0,0,1-.748-.492,2.281,2.281,0,0,1-.53-.666,1.936,1.936,0,0,1-.2-.91,2.253,2.253,0,0,1,.191-.9,2.146,2.146,0,0,1,.595-.79,3.07,3.07,0,0,1,1.035-.557,4.774,4.774,0,0,1,1.508-.212c.15,0,.313.007.488.021s.354.033.533.058.359.054.534.085.338.066.489.1V269.8a8.3,8.3,0,0,0-1.053-.229,6.948,6.948,0,0,0-1.018-.079,2.691,2.691,0,0,0-1.539.349,1.09,1.09,0,0,0-.492.936.991.991,0,0,0,.2.622,1.991,1.991,0,0,0,.531.465,4.615,4.615,0,0,0,.748.373c.28.112.566.226.858.345s.577.249.858.39a3.488,3.488,0,0,1,.749.5,2.349,2.349,0,0,1,.529.68A1.979,1.979,0,0,1,158.874,275.078Z" fill="#2f2f2f"/>
      <path d="M167.066,268.563l-3.233,5.743V277.5H162.6v-3.22l-3.234-5.715h1.47l1.777,3.268.656,1.313.6-1.19,1.8-3.391Z" fill="#2f2f2f"/>
      <path d="M173.411,275.078a2.286,2.286,0,0,1-.26,1.114,2.252,2.252,0,0,1-.724.8,3.362,3.362,0,0,1-1.117.475,6.145,6.145,0,0,1-1.44.157c-.236,0-.473-.009-.707-.027s-.461-.041-.677-.069-.421-.059-.612-.095-.364-.076-.52-.117v-1.175a6.342,6.342,0,0,0,1.153.3,8.654,8.654,0,0,0,1.452.11,4.705,4.705,0,0,0,1-.092,1.944,1.944,0,0,0,.677-.274,1.1,1.1,0,0,0,.383-.441,1.417,1.417,0,0,0,.119-.595.972.972,0,0,0-.2-.618,1.969,1.969,0,0,0-.53-.458,4.871,4.871,0,0,0-.748-.369q-.42-.168-.858-.346t-.858-.386a3.569,3.569,0,0,1-.749-.492,2.277,2.277,0,0,1-.529-.666,1.925,1.925,0,0,1-.2-.91,2.27,2.27,0,0,1,.191-.9,2.168,2.168,0,0,1,.595-.79,3.085,3.085,0,0,1,1.036-.557,4.768,4.768,0,0,1,1.507-.212q.225,0,.489.021c.175.014.353.033.533.058s.358.054.534.085.338.066.488.1V269.8a8.224,8.224,0,0,0-1.053-.229,6.938,6.938,0,0,0-1.018-.079,2.685,2.685,0,0,0-1.538.349,1.089,1.089,0,0,0-.493.936.98.98,0,0,0,.2.622,1.951,1.951,0,0,0,.529.465,4.71,4.71,0,0,0,.749.373c.28.112.566.226.857.345s.578.249.859.39a3.482,3.482,0,0,1,.748.5,2.37,2.37,0,0,1,.53.68A1.991,1.991,0,0,1,173.411,275.078Z" fill="#2f2f2f"/>
      <path d="M180.756,269.6H178.11V277.5h-1.23V269.6h-2.646v-1.04h6.522Z" fill="#2f2f2f"/>
      <path d="M187.187,277.5h-5.08v-8.935h5.08v1.026h-3.863v2.768h3.712v1.026h-3.712v3.076h3.863Z" fill="#2f2f2f"/>
      <path d="M195.378,277.5h-1.19l-.177-5.571-.075-2.14-.417,1.244-1.32,3.555h-.841l-1.257-3.418-.417-1.381-.028,2.235L189.5,277.5h-1.148l.437-8.935h1.442l1.2,3.364.389,1.135.376-1.135,1.265-3.364h1.483Z" fill="#2f2f2f"/>
      <path d="M203.667,280.3h-7.7v-.985h7.7Z" fill="#2f2f2f"/>
      <path d="M209.641,269.6H207V277.5h-1.23V269.6h-2.646v-1.04h6.522Z" fill="#2f2f2f"/>
      <path d="M212.957,269.589H210.9v-1.026h5.346v1.026h-2.057v6.87h2.057V277.5H210.9v-1.039h2.058Z" fill="#2f2f2f"/>
      <path d="M224.4,277.5h-1.189l-.178-5.571-.075-2.14-.417,1.244-1.319,3.555h-.841l-1.258-3.418-.417-1.381-.027,2.235-.158,5.476h-1.148l.437-8.935h1.443l1.2,3.364.39,1.135.376-1.135,1.264-3.364h1.484Z" fill="#2f2f2f"/>
      <path d="M230.962,277.5h-5.079v-8.935h5.079v1.026H227.1v2.768h3.712v1.026H227.1v3.076h3.862Z" fill="#2f2f2f"/>
      <path d="M129.664,293.5h-1.326l-.622-1.948H124l-.629,1.948H122.1l2.966-8.935h1.668Zm-2.3-3.035-1.511-4.778-1.51,4.778Z" fill="#2f2f2f"/>
      <path d="M136.009,293.5h-5.141v-8.935H132.1v7.9h3.9Z" fill="#2f2f2f"/>
      <path d="M142.8,293.5H137.66v-8.935H138.9v7.9h3.9Z" fill="#2f2f2f"/>
      <path d="M143.882,294.9a2.539,2.539,0,0,0,.677-.061,2.034,2.034,0,0,0,.578-.222,1.226,1.226,0,0,0,.4-.366.855.855,0,0,0,.151-.5.966.966,0,0,0-.1-.465,2.275,2.275,0,0,0-.223-.328,2.373,2.373,0,0,1-.221-.321.986.986,0,0,1-.045-.759.857.857,0,0,1,.455-.5.957.957,0,0,1,.413-.082,1.126,1.126,0,0,1,.462.1,1.062,1.062,0,0,1,.389.3,1.554,1.554,0,0,1,.267.513,2.407,2.407,0,0,1,.1.725,2.938,2.938,0,0,1-.208,1.09,2.686,2.686,0,0,1-.622.926,3.039,3.039,0,0,1-1.033.643,3.989,3.989,0,0,1-1.439.239Z" fill="#2f2f2f"/>
      <path d="M165.278,293.5h-1.326l-.622-1.948h-3.719l-.629,1.948h-1.264l2.967-8.935h1.668Zm-2.3-3.035-1.51-4.778-1.511,4.778Z" fill="#2f2f2f"/>
      <path d="M172.12,291.078a2.286,2.286,0,0,1-.26,1.114,2.252,2.252,0,0,1-.724.8,3.362,3.362,0,0,1-1.117.475,6.145,6.145,0,0,1-1.44.157c-.236,0-.473-.009-.707-.027s-.461-.041-.677-.069-.421-.059-.612-.095-.364-.076-.52-.117v-1.175a6.342,6.342,0,0,0,1.153.3,8.654,8.654,0,0,0,1.452.11,4.705,4.705,0,0,0,1-.092,1.944,1.944,0,0,0,.677-.274,1.086,1.086,0,0,0,.382-.441,1.4,1.4,0,0,0,.12-.595.972.972,0,0,0-.2-.618,1.969,1.969,0,0,0-.53-.458,4.871,4.871,0,0,0-.748-.369q-.42-.168-.858-.346t-.858-.386a3.569,3.569,0,0,1-.749-.492,2.277,2.277,0,0,1-.529-.666,1.925,1.925,0,0,1-.2-.91,2.27,2.27,0,0,1,.191-.9,2.168,2.168,0,0,1,.595-.79,3.085,3.085,0,0,1,1.036-.557,4.768,4.768,0,0,1,1.507-.212q.225,0,.489.021c.175.014.353.033.533.058s.358.054.534.085.338.066.488.1V285.8a8.224,8.224,0,0,0-1.053-.229,6.938,6.938,0,0,0-1.018-.079,2.685,2.685,0,0,0-1.538.349,1.089,1.089,0,0,0-.493.936.986.986,0,0,0,.2.622,1.971,1.971,0,0,0,.53.465,4.71,4.71,0,0,0,.749.373c.28.112.566.226.857.345s.578.249.859.39a3.482,3.482,0,0,1,.748.5,2.37,2.37,0,0,1,.53.68A1.991,1.991,0,0,1,172.12,291.078Z" fill="#2f2f2f"/>
      <path d="M188.021,288.973a6.773,6.773,0,0,1-.284,2.078,4.253,4.253,0,0,1-.765,1.446,3.034,3.034,0,0,1-1.128.847,3.424,3.424,0,0,1-1.365.277,3.383,3.383,0,0,1-1.5-.311,2.775,2.775,0,0,1-1.059-.9,4.109,4.109,0,0,1-.626-1.432,8.07,8.07,0,0,1-.205-1.9,6.815,6.815,0,0,1,.28-2.064,4.214,4.214,0,0,1,.763-1.446,3.043,3.043,0,0,1,1.124-.848,3.414,3.414,0,0,1,1.36-.277,3.363,3.363,0,0,1,1.5.315,2.845,2.845,0,0,1,1.063.9,4.06,4.06,0,0,1,.632,1.425A7.888,7.888,0,0,1,188.021,288.973Zm-1.265.089a8.076,8.076,0,0,0-.119-1.439,3.589,3.589,0,0,0-.387-1.125,1.986,1.986,0,0,0-.687-.731,1.887,1.887,0,0,0-1.015-.26,1.726,1.726,0,0,0-.987.277,2.139,2.139,0,0,0-.681.752,3.827,3.827,0,0,0-.4,1.114,6.847,6.847,0,0,0-.129,1.357,7.83,7.83,0,0,0,.123,1.446,3.674,3.674,0,0,0,.386,1.121,1.991,1.991,0,0,0,.68.728,1.865,1.865,0,0,0,1,.26,1.752,1.752,0,0,0,.991-.277,2.184,2.184,0,0,0,.688-.752,3.771,3.771,0,0,0,.4-1.111A6.766,6.766,0,0,0,186.756,289.062Z" fill="#2f2f2f"/>
      <path d="M194.5,285.6h-3.794v2.9h3.6v1.019h-3.6V293.5h-1.244v-8.935H194.5Z" fill="#2f2f2f"/>
      <path d="M194.673,294.9a2.539,2.539,0,0,0,.677-.061,2.034,2.034,0,0,0,.578-.222,1.226,1.226,0,0,0,.4-.366.855.855,0,0,0,.151-.5.966.966,0,0,0-.1-.465,2.275,2.275,0,0,0-.223-.328,2.373,2.373,0,0,1-.221-.321.9.9,0,0,1-.1-.458.928.928,0,0,1,.055-.3.857.857,0,0,1,.455-.5.957.957,0,0,1,.413-.082,1.126,1.126,0,0,1,.462.1,1.062,1.062,0,0,1,.389.3,1.554,1.554,0,0,1,.267.513,2.407,2.407,0,0,1,.1.725,2.938,2.938,0,0,1-.208,1.09,2.686,2.686,0,0,1-.622.926,3.039,3.039,0,0,1-1.033.643,3.989,3.989,0,0,1-1.439.239Z" fill="#2f2f2f"/>
      <path d="M215.386,290.825a2.5,2.5,0,0,1-.249,1.138,2.354,2.354,0,0,1-.711.838,3.315,3.315,0,0,1-1.114.519,5.516,5.516,0,0,1-1.454.178h-2.337v-8.935h2.556q2.988,0,2.987,2.174a2.2,2.2,0,0,1-.344,1.244,2.052,2.052,0,0,1-1.125.773,2.566,2.566,0,0,1,.687.232,2.1,2.1,0,0,1,.571.424,1.953,1.953,0,0,1,.389.615A2.116,2.116,0,0,1,215.386,290.825ZM213.8,286.9a1.622,1.622,0,0,0-.082-.516.943.943,0,0,0-.287-.417,1.52,1.52,0,0,0-.554-.277,3.2,3.2,0,0,0-.882-.1h-1.258v2.8h1.217a2.993,2.993,0,0,0,.756-.089,1.612,1.612,0,0,0,.581-.274,1.26,1.26,0,0,0,.376-.461A1.506,1.506,0,0,0,213.8,286.9Zm.294,3.965a1.3,1.3,0,0,0-.144-.615,1.272,1.272,0,0,0-.417-.461,2.068,2.068,0,0,0-.666-.291,3.534,3.534,0,0,0-.886-.1h-1.244v3.077h1.285a2.564,2.564,0,0,0,1.559-.39A1.431,1.431,0,0,0,214.094,290.866Z" fill="#2f2f2f"/>
      <path d="M222.041,293.5h-5.079v-8.935h5.079v1.026h-3.862v2.768h3.712v1.026h-3.712v3.076h3.862Z" fill="#2f2f2f"/>
      <path d="M229.854,285.6h-2.645V293.5h-1.23V285.6h-2.646v-1.04h6.521Z" fill="#2f2f2f"/>
      <path d="M237.762,284.563l-.6,8.935h-1.579l-1.107-3.179-.308-1.018-.321,1.1-1.026,3.1H231.3l-.615-8.935h1.148l.349,6.078.1,1.668.431-1.415,1.08-3.316h.841l1.244,3.555.417,1.176.027-1.231.356-6.515Z" fill="#2f2f2f"/>
      <path d="M244.273,293.5h-5.079v-8.935h5.079v1.026h-3.862v2.768h3.712v1.026h-3.712v3.076h3.862Z" fill="#2f2f2f"/>
      <path d="M251.116,293.5h-5.079v-8.935h5.079v1.026h-3.862v2.768h3.712v1.026h-3.712v3.076h3.862Z" fill="#2f2f2f"/>
      <path d="M258.679,293.5h-1.586l-2.605-5.571-.752-1.791V293.5H252.6v-8.935h1.565l2.481,5.278.9,2.044v-7.322h1.135Z" fill="#2f2f2f"/>
      <path d="M262.194,291.345a1.117,1.117,0,0,1,.441.089,1.1,1.1,0,0,1,.362.246,1.166,1.166,0,0,1,.243.365,1.137,1.137,0,0,1,.089.448,1.1,1.1,0,0,1-.089.438,1.151,1.151,0,0,1-.243.359,1.133,1.133,0,0,1-.362.242,1.145,1.145,0,0,1-.885,0,1.139,1.139,0,0,1-.6-.6,1.1,1.1,0,0,1-.088-.438,1.137,1.137,0,0,1,.088-.448,1.166,1.166,0,0,1,.243-.365,1.109,1.109,0,0,1,.8-.335Z" fill="#2f2f2f"/>
      <path d="M267.705,291.345a1.121,1.121,0,0,1,.441.089,1.106,1.106,0,0,1,.362.246,1.2,1.2,0,0,1,.243.365,1.137,1.137,0,0,1,.089.448,1.1,1.1,0,0,1-.089.438,1.186,1.186,0,0,1-.243.359,1.144,1.144,0,0,1-.362.242,1.121,1.121,0,0,1-.441.089,1.1,1.1,0,0,1-.444-.089,1.13,1.13,0,0,1-.6-.6,1.1,1.1,0,0,1-.089-.438,1.137,1.137,0,0,1,.089-.448,1.18,1.18,0,0,1,.242-.365,1.119,1.119,0,0,1,.36-.246A1.1,1.1,0,0,1,267.705,291.345Z" fill="#2f2f2f"/>
      <path d="M278.285,293.5h-1.326l-.622-1.948h-3.719l-.629,1.948h-1.264l2.966-8.935h1.668Zm-2.3-3.035-1.51-4.778-1.511,4.778Z" fill="#2f2f2f"/>
      <path d="M285.174,293.5h-1.586l-2.605-5.571-.752-1.791V293.5H279.1v-8.935h1.565l2.482,5.278.895,2.044v-7.322h1.135Z" fill="#2f2f2f"/>
      <path d="M293.119,288.932a7.4,7.4,0,0,1-.1,1.23,4.724,4.724,0,0,1-.318,1.094,3.714,3.714,0,0,1-.567.919,3.233,3.233,0,0,1-.855.708,4.347,4.347,0,0,1-1.176.454,6.569,6.569,0,0,1-1.524.161h-1.914v-8.935h2.3a4.127,4.127,0,0,1,3.12,1.077A4.612,4.612,0,0,1,293.119,288.932Zm-1.278.089a6.257,6.257,0,0,0-.178-1.607,2.583,2.583,0,0,0-.54-1.06,2.078,2.078,0,0,0-.909-.584,4.091,4.091,0,0,0-1.285-.181h-1.046v6.856h.909Q291.84,292.445,291.841,289.021Z" fill="#2f2f2f"/>
      <path d="M293.658,294.9a2.535,2.535,0,0,0,.677-.061,2.023,2.023,0,0,0,.578-.222,1.226,1.226,0,0,0,.4-.366.855.855,0,0,0,.151-.5.955.955,0,0,0-.1-.465,2.192,2.192,0,0,0-.222-.328,2.379,2.379,0,0,1-.222-.321.912.912,0,0,1-.1-.458.928.928,0,0,1,.055-.3.878.878,0,0,1,.168-.287.856.856,0,0,1,.287-.212.957.957,0,0,1,.413-.082,1.122,1.122,0,0,1,.462.1,1.065,1.065,0,0,1,.39.3,1.572,1.572,0,0,1,.266.513,2.375,2.375,0,0,1,.1.725,2.918,2.918,0,0,1-.208,1.09,2.686,2.686,0,0,1-.622.926,3.024,3.024,0,0,1-1.032.643,3.994,3.994,0,0,1-1.44.239Z" fill="#2f2f2f"/>
      <path d="M313.865,285.6h-3.794v2.9h3.6v1.019h-3.6V293.5h-1.244v-8.935h5.038Z" fill="#2f2f2f"/>
      <path d="M321.465,293.5h-1.374l-1.333-2.857a3.08,3.08,0,0,0-.308-.544,1.484,1.484,0,0,0-.338-.342,1.227,1.227,0,0,0-.4-.181,1.994,1.994,0,0,0-.483-.054h-.574V293.5h-1.217v-8.935h2.393a4.659,4.659,0,0,1,1.34.171,2.534,2.534,0,0,1,.92.479,1.834,1.834,0,0,1,.526.742,2.658,2.658,0,0,1,.167.96,2.508,2.508,0,0,1-.123.79,2.17,2.17,0,0,1-.365.676,2.317,2.317,0,0,1-.6.527,2.715,2.715,0,0,1-.824.331,1.411,1.411,0,0,1,.64.455,4.969,4.969,0,0,1,.536.865Zm-1.948-6.48a1.29,1.29,0,0,0-.448-1.074,1.986,1.986,0,0,0-1.261-.355h-1.149v2.953h.985a2.819,2.819,0,0,0,.776-.1,1.666,1.666,0,0,0,.588-.294,1.346,1.346,0,0,0,.376-.479A1.513,1.513,0,0,0,319.517,287.018Z" fill="#2f2f2f"/>
      <path d="M328.85,288.973a6.773,6.773,0,0,1-.284,2.078,4.253,4.253,0,0,1-.765,1.446,3.026,3.026,0,0,1-1.128.847,3.423,3.423,0,0,1-1.364.277,3.377,3.377,0,0,1-1.5-.311,2.771,2.771,0,0,1-1.06-.9,4.109,4.109,0,0,1-.626-1.432,8.07,8.07,0,0,1-.2-1.9,6.815,6.815,0,0,1,.28-2.064,4.214,4.214,0,0,1,.763-1.446,3.043,3.043,0,0,1,1.124-.848,3.414,3.414,0,0,1,1.36-.277,3.357,3.357,0,0,1,1.5.315,2.838,2.838,0,0,1,1.063.9,4.079,4.079,0,0,1,.633,1.425A7.942,7.942,0,0,1,328.85,288.973Zm-1.265.089a8.076,8.076,0,0,0-.119-1.439,3.589,3.589,0,0,0-.387-1.125,1.991,1.991,0,0,0-.686-.731,1.893,1.893,0,0,0-1.016-.26,1.726,1.726,0,0,0-.987.277,2.139,2.139,0,0,0-.681.752,3.827,3.827,0,0,0-.4,1.114,6.923,6.923,0,0,0-.129,1.357,7.83,7.83,0,0,0,.123,1.446,3.674,3.674,0,0,0,.386,1.121,1.991,1.991,0,0,0,.68.728,1.865,1.865,0,0,0,1,.26,1.752,1.752,0,0,0,.991-.277,2.184,2.184,0,0,0,.688-.752,3.771,3.771,0,0,0,.4-1.111A6.766,6.766,0,0,0,327.585,289.062Z" fill="#2f2f2f"/>
      <path d="M336.64,293.5h-1.19l-.178-5.571-.074-2.14-.418,1.244-1.318,3.555h-.842l-1.258-3.418-.417-1.381-.027,2.235-.157,5.476h-1.149l.438-8.935h1.442l1.2,3.364.389,1.135.377-1.135,1.264-3.364h1.484Z" fill="#2f2f2f"/>
      <path d="M339.884,291.345a1.132,1.132,0,0,1,.8.335,1.217,1.217,0,0,1,.242.365,1.137,1.137,0,0,1,.089.448,1.1,1.1,0,0,1-.089.438,1.2,1.2,0,0,1-.242.359,1.153,1.153,0,0,1-.364.242,1.145,1.145,0,0,1-.885,0,1.133,1.133,0,0,1-.6-.6,1.079,1.079,0,0,1-.089-.438,1.12,1.12,0,0,1,.089-.448,1.2,1.2,0,0,1,.242-.365,1.137,1.137,0,0,1,.359-.246A1.116,1.116,0,0,1,339.884,291.345Z" fill="#2f2f2f"/>
      <path d="M345.4,291.345a1.113,1.113,0,0,1,.44.089,1.1,1.1,0,0,1,.363.246,1.18,1.18,0,0,1,.242.365,1.12,1.12,0,0,1,.089.448,1.079,1.079,0,0,1-.089.438,1.165,1.165,0,0,1-.242.359,1.137,1.137,0,0,1-.363.242,1.145,1.145,0,0,1-.885,0,1.153,1.153,0,0,1-.359-.242,1.165,1.165,0,0,1-.242-.359,1.079,1.079,0,0,1-.089-.438,1.12,1.12,0,0,1,.089-.448,1.18,1.18,0,0,1,.242-.365,1.11,1.11,0,0,1,.8-.335Z" fill="#2f2f2f"/>
      <path d="M354.024,285.6h-2.645V293.5h-1.231V285.6H347.5v-1.04h6.521Z" fill="#2f2f2f"/>
      <path d="M361.386,288.973a6.773,6.773,0,0,1-.284,2.078,4.237,4.237,0,0,1-.766,1.446,3.015,3.015,0,0,1-1.127.847,3.426,3.426,0,0,1-1.364.277,3.39,3.39,0,0,1-1.5-.311,2.768,2.768,0,0,1-1.059-.9,4.091,4.091,0,0,1-.626-1.432,8.07,8.07,0,0,1-.2-1.9,6.815,6.815,0,0,1,.28-2.064,4.213,4.213,0,0,1,.762-1.446,3.046,3.046,0,0,1,1.125-.848,3.414,3.414,0,0,1,1.36-.277,3.357,3.357,0,0,1,1.5.315,2.838,2.838,0,0,1,1.063.9,4.1,4.1,0,0,1,.633,1.425A7.942,7.942,0,0,1,361.386,288.973Zm-1.265.089a8.076,8.076,0,0,0-.119-1.439,3.589,3.589,0,0,0-.387-1.125,1.978,1.978,0,0,0-.687-.731,1.885,1.885,0,0,0-1.015-.26,1.726,1.726,0,0,0-.987.277,2.139,2.139,0,0,0-.681.752,3.826,3.826,0,0,0-.4,1.114,6.771,6.771,0,0,0-.13,1.357,7.83,7.83,0,0,0,.123,1.446,3.648,3.648,0,0,0,.387,1.121,1.972,1.972,0,0,0,.679.728,1.867,1.867,0,0,0,1,.26,1.754,1.754,0,0,0,.991-.277,2.175,2.175,0,0,0,.688-.752,3.8,3.8,0,0,0,.4-1.111A6.766,6.766,0,0,0,360.121,289.062Z" fill="#2f2f2f"/>
      <path d="M361.916,294.9a2.539,2.539,0,0,0,.677-.061,2,2,0,0,0,.577-.222,1.23,1.23,0,0,0,.4-.366.855.855,0,0,0,.151-.5.943.943,0,0,0-.1-.465,2.119,2.119,0,0,0-.222-.328,2.373,2.373,0,0,1-.221-.321.9.9,0,0,1-.1-.458.928.928,0,0,1,.055-.3.857.857,0,0,1,.455-.5A.954.954,0,0,1,364,291.3a1.129,1.129,0,0,1,.462.1,1.062,1.062,0,0,1,.389.3,1.554,1.554,0,0,1,.267.513,2.375,2.375,0,0,1,.1.725,2.938,2.938,0,0,1-.208,1.09,2.675,2.675,0,0,1-.623.926,3.015,3.015,0,0,1-1.032.643,3.989,3.989,0,0,1-1.439.239Z" fill="#2f2f2f"/>
      <path d="M382.485,293.163a5.82,5.82,0,0,1-2.249.444,3.7,3.7,0,0,1-2.908-1.131,4.859,4.859,0,0,1-1.016-3.346,6.3,6.3,0,0,1,.281-1.942,4.209,4.209,0,0,1,.8-1.473,3.523,3.523,0,0,1,1.257-.933,4.031,4.031,0,0,1,1.655-.328,5.9,5.9,0,0,1,1.155.106,4.854,4.854,0,0,1,1.025.325v1.2a4.528,4.528,0,0,0-1-.407,4.359,4.359,0,0,0-1.134-.14,2.686,2.686,0,0,0-1.139.236,2.35,2.35,0,0,0-.864.684,3.187,3.187,0,0,0-.547,1.093,5.179,5.179,0,0,0-.192,1.474,4.131,4.131,0,0,0,.705,2.618,2.483,2.483,0,0,0,2.064.882,4.463,4.463,0,0,0,1.1-.134,5.171,5.171,0,0,0,1.011-.372Z" fill="#2f2f2f"/>
      <path d="M390.19,288.973a6.743,6.743,0,0,1-.284,2.078,4.218,4.218,0,0,1-.765,1.446,3.031,3.031,0,0,1-1.127.847,3.427,3.427,0,0,1-1.365.277,3.39,3.39,0,0,1-1.5-.311,2.772,2.772,0,0,1-1.058-.9,4.091,4.091,0,0,1-.626-1.432,8.07,8.07,0,0,1-.2-1.9,6.815,6.815,0,0,1,.28-2.064,4.2,4.2,0,0,1,.762-1.446,3.046,3.046,0,0,1,1.125-.848,3.41,3.41,0,0,1,1.36-.277,3.363,3.363,0,0,1,1.5.315,2.845,2.845,0,0,1,1.063.9,4.078,4.078,0,0,1,.632,1.425A7.891,7.891,0,0,1,390.19,288.973Zm-1.264.089a8.076,8.076,0,0,0-.119-1.439,3.589,3.589,0,0,0-.387-1.125,1.98,1.98,0,0,0-.688-.731,1.881,1.881,0,0,0-1.014-.26,1.732,1.732,0,0,0-.988.277,2.146,2.146,0,0,0-.68.752,3.827,3.827,0,0,0-.4,1.114,6.771,6.771,0,0,0-.13,1.357,7.83,7.83,0,0,0,.123,1.446,3.675,3.675,0,0,0,.387,1.121,1.983,1.983,0,0,0,.68.728,1.865,1.865,0,0,0,1,.26,1.754,1.754,0,0,0,.991-.277,2.172,2.172,0,0,0,.687-.752,3.772,3.772,0,0,0,.4-1.111A6.766,6.766,0,0,0,388.926,289.062Z" fill="#2f2f2f"/>
      <path d="M397.415,293.5h-1.586l-2.6-5.571-.752-1.791V293.5h-1.135v-8.935H392.9l2.482,5.278.895,2.044v-7.322h1.135Z" fill="#2f2f2f"/>
      <path d="M405.015,285.6h-2.646V293.5h-1.23V285.6h-2.646v-1.04h6.522Z" fill="#2f2f2f"/>
      <path d="M412,293.5h-1.326l-.622-1.948h-3.719L405.7,293.5h-1.264l2.966-8.935h1.668Zm-2.3-3.035-1.51-4.778-1.511,4.778Z" fill="#2f2f2f"/>
      <path d="M415.052,285.589h-2.058v-1.026h5.346v1.026h-2.058v6.87h2.058V293.5h-5.346v-1.039h2.058Z" fill="#2f2f2f"/>
      <path d="M425.782,293.5H424.2l-2.6-5.571-.752-1.791V293.5h-1.135v-8.935h1.566l2.481,5.278.895,2.044v-7.322h1.135Z" fill="#2f2f2f"/>
      <path d="M432.665,293.5h-5.079v-8.935h5.079v1.026H428.8v2.768h3.712v1.026H428.8v3.076h3.862Z" fill="#2f2f2f"/>
      <path d="M440.569,288.932a7.512,7.512,0,0,1-.1,1.23,4.774,4.774,0,0,1-.319,1.094,3.684,3.684,0,0,1-.567.919,3.217,3.217,0,0,1-.855.708,4.327,4.327,0,0,1-1.175.454,6.572,6.572,0,0,1-1.525.161h-1.914v-8.935h2.3a4.131,4.131,0,0,1,3.121,1.077A4.612,4.612,0,0,1,440.569,288.932Zm-1.278.089a6.257,6.257,0,0,0-.178-1.607,2.571,2.571,0,0,0-.54-1.06,2.073,2.073,0,0,0-.909-.584,4.087,4.087,0,0,0-1.285-.181h-1.046v6.856h.909Q439.29,292.445,439.291,289.021Z" fill="#2f2f2f"/>
      <path d="M452,285.589h-2.058v-1.026h5.346v1.026h-2.058v6.87h2.058V293.5h-5.346v-1.039H452Z" fill="#2f2f2f"/>
      <path d="M462.729,293.5h-1.585l-2.605-5.571-.752-1.791V293.5h-1.135v-8.935h1.566l2.481,5.278.9,2.044v-7.322h1.134Z" fill="#2f2f2f"/>
    </g>
  </g>
</svg>
