<svg xmlns="http://www.w3.org/2000/svg" xmlns:xlink="http://www.w3.org/1999/xlink" viewBox="0 0 494 217">
  <defs>
    <linearGradient id="linear-gradient" x1="247" y1="5.162" x2="247" y2="123.963" gradientUnits="userSpaceOnUse">
      <stop offset="0" stop-color="#f0f0f0"/>
      <stop offset="0.33" stop-color="#ececec"/>
      <stop offset="0.68" stop-color="#dfdfdf"/>
      <stop offset="1" stop-color="#ccc"/>
    </linearGradient>
    <linearGradient id="linear-gradient-2" x1="87.8" y1="1693.615" x2="87.8" y2="1715.665" gradientTransform="matrix(1, 0, 0, -1, 0, 1789)" gradientUnits="userSpaceOnUse">
      <stop offset="0" stop-color="#2e76bc"/>
      <stop offset="0.502" stop-color="#4f8fcc"/>
      <stop offset="0.775" stop-color="#699cd3"/>
    </linearGradient>
    <linearGradient id="linear-gradient-3" x1="408.688" y1="1693.615" x2="408.688" y2="1715.665" xlink:href="#linear-gradient-2"/>
    <linearGradient id="linear-gradient-4" x1="201.882" y1="1715.075" x2="201.882" y2="1733.075" gradientTransform="matrix(1, 0, 0, -1, 0, 1789)" gradientUnits="userSpaceOnUse">
      <stop offset="0" stop-color="#2e76bc"/>
      <stop offset="0.817" stop-color="#699cd3"/>
    </linearGradient>
    <clipPath id="clip-path">
      <rect x="50.604" y="152.746" width="60.625" height="58.212" fill="none"/>
    </clipPath>
    <linearGradient id="linear-gradient-5" x1="-94.044" y1="1641.21" x2="-118.667" y2="1593.503" gradientTransform="translate(-37.161 1789) rotate(180)" gradientUnits="userSpaceOnUse">
      <stop offset="0" stop-color="#4fc1ea"/>
      <stop offset="0.585" stop-color="#2e76bc"/>
    </linearGradient>
    <linearGradient id="linear-gradient-6" x1="90.393" y1="1624.345" x2="90.393" y2="1646.345" xlink:href="#linear-gradient-4"/>
  </defs>
  <g id="Shapes">
    <rect width="494" height="217" fill="#fff"/>
    <rect x="5" y="5.162" width="484" height="118.8" fill-opacity="0.5" stroke="#777677" stroke-width="0.25" fill="url(#linear-gradient)"/>
    <g>
      <rect x="18.2" y="18.362" width="140.8" height="92.4" fill="#fff"/>
      <rect x="18.2" y="18.362" width="140.8" height="92.4" fill="#699cd3" opacity="0.4"/>
    </g>
    <g>
      <rect x="335" y="18.363" width="140.8" height="92.4" fill="#fff"/>
      <rect x="335" y="18.363" width="140.8" height="92.4" fill="#699cd3" opacity="0.4"/>
    </g>
    <g id="fb33f902-6783-4db3-88ea-a4524e356c77">
      <g>
        <path d="M69.143,73.335h37.314v20.8a1.247,1.247,0,0,1-1.247,1.247H70.39a1.247,1.247,0,0,1-1.247-1.247v-20.8Z" fill="url(#linear-gradient-2)"/>
        <path d="M70.4,65.385H105.2a1.247,1.247,0,0,1,1.247,1.247h0v6.7H69.143v-6.7a1.247,1.247,0,0,1,1.247-1.247Z" fill="#2e76bc"/>
        <rect x="73.103" y="76.261" width="8.011" height="4.061" rx="0.621" fill="#fff" opacity="0.9" style="isolation: isolate"/>
        <rect x="83.849" y="76.204" width="8.011" height="4.061" rx="0.621" fill="#fff" opacity="0.9" style="isolation: isolate"/>
        <rect x="94.595" y="76.204" width="8.011" height="4.061" rx="0.621" fill="#fff" opacity="0.9" style="isolation: isolate"/>
        <rect x="73.221" y="82.068" width="8.011" height="4.061" rx="0.621" fill="#fff" opacity="0.9" style="isolation: isolate"/>
        <rect x="83.968" y="82.011" width="8.011" height="4.061" rx="0.621" fill="#fed402"/>
        <rect x="94.714" y="82.011" width="8.011" height="4.061" rx="0.621" fill="#fed402"/>
        <rect x="73.221" y="87.933" width="8.011" height="4.061" rx="0.621" fill="#fed402"/>
        <rect x="83.968" y="87.876" width="8.011" height="4.061" rx="0.621" fill="#fed402"/>
        <rect x="94.714" y="87.876" width="8.011" height="4.061" rx="0.621" fill="#fed402"/>
      </g>
    </g>
    <g>
      <g id="fb33f902-6783-4db3-88ea-a4524e356c77-2" data-name="fb33f902-6783-4db3-88ea-a4524e356c77">
        <g>
          <path d="M390.031,73.335h37.313v20.8a1.246,1.246,0,0,1-1.246,1.247h-34.82a1.247,1.247,0,0,1-1.247-1.247v-20.8Z" fill="url(#linear-gradient-3)"/>
          <path d="M391.284,65.385h34.807a1.247,1.247,0,0,1,1.247,1.247h0v6.7H390.031v-6.7a1.247,1.247,0,0,1,1.247-1.247Z" fill="#2e76bc"/>
          <rect x="393.991" y="76.261" width="8.011" height="4.061" rx="0.621" fill="#fff" opacity="0.9" style="isolation: isolate"/>
          <rect x="404.737" y="76.204" width="8.011" height="4.061" rx="0.621" fill="#fff" opacity="0.9" style="isolation: isolate"/>
          <rect x="415.483" y="76.204" width="8.011" height="4.061" rx="0.621" fill="#fff" opacity="0.9" style="isolation: isolate"/>
          <rect x="394.109" y="82.068" width="8.011" height="4.061" rx="0.621" fill="#fff" opacity="0.9" style="isolation: isolate"/>
          <rect x="404.855" y="82.011" width="8.011" height="4.061" rx="0.621" fill="#fed402"/>
          <rect x="415.602" y="82.011" width="8.011" height="4.061" rx="0.621" fill="#fed402"/>
          <rect x="394.109" y="87.933" width="8.011" height="4.061" rx="0.621" fill="#fed402"/>
          <rect x="404.855" y="87.876" width="8.011" height="4.061" rx="0.621" fill="#fed402"/>
          <rect x="415.602" y="87.876" width="8.011" height="4.061" rx="0.621" fill="#fed402"/>
        </g>
      </g>
      <path d="M383.781,71.458a9.94,9.94,0,0,1-9.173,13.827,9.75,9.75,0,0,1-3.265-.554,9.89,9.89,0,0,1-2.808-1.515,10.1,10.1,0,0,1-2.167-2.313,9.612,9.612,0,0,1-1.341-2.915l1.195-.331a8.482,8.482,0,0,0,1.2,2.585,8.83,8.83,0,0,0,1.919,2.021,8.7,8.7,0,0,0,2.459,1.312,8.7,8.7,0,0,0,5.116.156A8.76,8.76,0,0,0,383,77.648a8.765,8.765,0,0,0,0-4.621,8.743,8.743,0,0,0-6.088-6.087,8.683,8.683,0,0,0-4.757.043,8.785,8.785,0,0,0-4.057,2.575,8.55,8.55,0,0,0-1.355,2.046h2.886v1.244h-4.975V67.872H365.9v2.663c.11-.207.23-.41.359-.607s.266-.391.408-.579a9.96,9.96,0,0,1,2.138-2.1,10.072,10.072,0,0,1,2.75-1.39,9.833,9.833,0,0,1,3.051-.476,9.994,9.994,0,0,1,9.173,6.073Zm-9.173-1.1v5.335l3.547,3.556-.875.875-3.916-3.907V70.36Z" fill="#1e1e1e"/>
      <path d="M447.742,74.091V85.285H432.817V74.091h2.488V70.457a5.152,5.152,0,0,1,.378-1.972,5.031,5.031,0,0,1,1.05-1.613,4.976,4.976,0,0,1,1.574-1.089,5.062,5.062,0,0,1,3.935,0,5.076,5.076,0,0,1,1.584,1.089,4.808,4.808,0,0,1,1.05,1.613,5.411,5.411,0,0,1,.379,1.972v3.634Zm-11.194,0h7.463V70.457a3.865,3.865,0,0,0-.282-1.477,4.022,4.022,0,0,0-.777-1.224,3.408,3.408,0,0,0-1.186-.826,3.9,3.9,0,0,0-1.486-.3,3.6,3.6,0,0,0-1.477.3,3.717,3.717,0,0,0-1.186.826,3.82,3.82,0,0,0-.787,1.214,3.894,3.894,0,0,0-.282,1.487Zm9.951,1.244H434.061v8.707H446.5Z"/>
    </g>
    <g>
      <rect x="77.946" y="160.201" width="298.411" height="28.757" fill="#fff"/>
      <rect x="77.946" y="160.201" width="298.411" height="28.757" fill="#fed402" opacity="0.25"/>
      <rect x="77.946" y="160.201" width="298.411" height="28.757" fill="none" stroke="#fed402" stroke-miterlimit="10" stroke-width="0.25"/>
    </g>
    <g>
      <line x1="302.255" y1="66.242" x2="331.607" y2="66.242" fill="none" stroke="#3c3c41" stroke-miterlimit="10"/>
      <polygon points="330.512 69.981 336.989 66.242 330.512 62.502 330.512 69.981" fill="#3c3c41"/>
    </g>
    <line x1="187.168" y1="66.242" x2="159" y2="66.242" fill="none" stroke="#3c3c41" stroke-miterlimit="10"/>
    <g id="abc3e3f9-d4db-41ad-8b60-378d1c3348f7">
      <g>
        <g>
          <path d="M202.905,56.059h-7.661a.605.605,0,0,0-.6.605h0v16.52a.606.606,0,0,0,.6.606H208.52a.6.6,0,0,0,.6-.606V62.252a.6.6,0,0,0-.6-.606h-4.406a.605.605,0,0,1-.6-.605V56.665a.6.6,0,0,0-.593-.606Z" fill="#fff"/>
          <path d="M202.625,56.833v4.149a1.524,1.524,0,0,0,1.52,1.523h4.18V73.017H195.439V56.833h7.186m.293-.908h-7.772a.614.614,0,0,0-.614.614h0V73.31a.615.615,0,0,0,.613.615h13.473a.613.613,0,0,0,.614-.614h0v-11.1a.613.613,0,0,0-.614-.614h-4.473a.615.615,0,0,1-.613-.615h0V56.54a.613.613,0,0,0-.613-.615Z" fill="url(#linear-gradient-4)"/>
          <path d="M209,61.719l-5.678-5.66v4.612a1.042,1.042,0,0,0,1.034,1.048H209Z" fill="#2e76bc"/>
        </g>
        <rect x="196.882" y="64.121" width="9.999" height="1.341" rx="0.603" fill="#699cd3"/>
        <rect x="196.882" y="66.524" width="9.999" height="1.341" rx="0.603" fill="#699cd3"/>
        <rect x="196.882" y="68.927" width="6.302" height="1.341" rx="0.603" fill="#699cd3"/>
      </g>
    </g>
    <g clip-path="url(#clip-path)">
      <g>
        <path d="M77.492,209.145a2.07,2.07,0,0,0,1.858.079l31.543-18.212a.551.551,0,0,0,.32-.465.77.77,0,0,0-.453-.609L90.3,178.127,57.034,197.334Z" fill="#53626b"/>
        <path d="M77.5,209.145,57.036,197.331l.07.235a3.635,3.635,0,0,0,1.719,2.184L77.5,210.53a2.079,2.079,0,0,0,1.858.078L110.89,192.4a.53.53,0,0,0,.317-.519l.006-1.33a.549.549,0,0,1-.32.464l-31.54,18.212A2.079,2.079,0,0,1,77.5,209.145Z" fill="#323e44"/>
        <path d="M83.576,153.28c.144-.238.5-.175.76-.106l-1.032-.28a.978.978,0,0,0-.742.109L51.77,170.78a2,2,0,0,0-.965,2.174l4.8,22.088a4.044,4.044,0,0,0,1.43,2.292Z" fill="#53626b"/>
        <path d="M85.069,153.941a.974.974,0,0,0-.579-.709,1.12,1.12,0,0,0-.154-.058.968.968,0,0,0-.76.106L52.784,171.057a1.994,1.994,0,0,0-.965,2.175l5.212,24.1L90.3,178.127Z" fill="#323e44"/>
        <path d="M92.1,182.615v-.232H88.091v.232a.117.117,0,0,0,.06.106l1.741,1a.392.392,0,0,0,.407,0l1.743-1A.124.124,0,0,0,92.1,182.615Zm-.06,8.874a.12.12,0,0,0,.06-.106v-.232L77.969,197v.232a.112.112,0,0,0,.06.106l1.74,1a.392.392,0,0,0,.407,0Zm5.122-5.954V185.3l-9.073,2.922v.236a.112.112,0,0,0,.06.1l1.741,1a.41.41,0,0,0,.407,0l6.8-3.928A.115.115,0,0,0,97.164,185.535Zm-2.528,4.385v-.235H90.625v.235a.112.112,0,0,0,.06.106l1.743,1a.386.386,0,0,0,.4,0l1.741-1A.118.118,0,0,0,94.636,189.92Zm2.47-1.354a.123.123,0,0,0,.061-.1v-.236H93.161v.236a.112.112,0,0,0,.06.1l1.741,1a.4.4,0,0,0,.4,0ZM99.7,187v-.233H95.689V187a.112.112,0,0,0,.06.105l1.743,1.008a.393.393,0,0,0,.405,0l1.74-1.008A.131.131,0,0,0,99.7,187Zm-17.723,7.308v-.235H77.966v.235a.115.115,0,0,0,.06.106l1.743,1a.4.4,0,0,0,.407,0l1.741-1A.121.121,0,0,0,81.977,194.306Zm-7.655,4.488a.121.121,0,0,0,.06-.106v-.232l-6.538,1.46v.235a.113.113,0,0,0,.06.106l1.743,1a.4.4,0,0,0,.4,0Zm2.594,1.357v-.235H72.908v.235a.115.115,0,0,0,.06.106l1.743,1a.391.391,0,0,0,.4,0l1.741-1A.119.119,0,0,0,76.916,200.151Zm2.531-1.463v-.232H75.438v.232a.112.112,0,0,0,.06.106l1.741,1a.392.392,0,0,0,.407,0l1.74-1A.113.113,0,0,0,79.447,198.688Zm0-2.919v-.233H75.438v.233a.118.118,0,0,0,.06.1l1.741,1a.4.4,0,0,0,.407,0l1.74-1A.123.123,0,0,0,79.447,195.769Zm-2.531,1.459v-.235H72.908v.235a.112.112,0,0,0,.06.106l1.743,1a.386.386,0,0,0,.4,0l1.741-1A.116.116,0,0,0,76.916,197.228Zm12.6-7.2a.122.122,0,0,0,.06-.106v-.235H85.566v.235a.116.116,0,0,0,.061.106l1.74,1a.386.386,0,0,0,.4,0Zm-2.531,1.46a.12.12,0,0,0,.06-.106v-.232h-4v.232a.113.113,0,0,0,.06.106l1.741,1a.386.386,0,0,0,.4,0Zm-2.47,1.357v-.232H80.5v.232a.114.114,0,0,0,.061.106l1.74,1a.4.4,0,0,0,.407,0l1.74-1A.129.129,0,0,0,84.511,192.846Zm-10.126,8.765v-.235H70.377v.235a.115.115,0,0,0,.06.106l1.741,1a.4.4,0,0,0,.407,0l1.74-1A.124.124,0,0,0,74.385,201.611Zm-2.593-4.277a.119.119,0,0,0,.06-.106V197H67.844v.232a.111.111,0,0,0,.06.106l1.743,1a.386.386,0,0,0,.4,0ZM69.267,198.8a.126.126,0,0,0,.061-.106v-.232H65.316v.232a.112.112,0,0,0,.06.106l1.741,1a.386.386,0,0,0,.4,0Zm25.306-14.613a.124.124,0,0,0,.06-.106v-.235l-6.539,1.463v.232a.112.112,0,0,0,.06.1l1.741,1a.4.4,0,0,0,.407,0ZM89.512,187.1a.118.118,0,0,0,.06-.105v-.233H85.563V187a.113.113,0,0,0,.061.105l1.74,1.008a.4.4,0,0,0,.407,0Zm-10.123,5.849a.125.125,0,0,0,.061-.106v-.232H75.441v.232a.115.115,0,0,0,.06.106l1.741,1a.391.391,0,0,0,.4,0Zm-2.533,1.46a.128.128,0,0,0,.06-.106v-.233H72.908v.233a.115.115,0,0,0,.06.106l1.743,1a.391.391,0,0,0,.4,0Zm-2.528,1.462a.125.125,0,0,0,.06-.1v-.233H70.377v.233a.118.118,0,0,0,.06.1l1.741,1a.391.391,0,0,0,.4,0Zm12.653-7.308a.122.122,0,0,0,.06-.1v-.236h-4v.236a.112.112,0,0,0,.06.1l1.741,1a.4.4,0,0,0,.4,0Zm-2.47,1.354v-.235H80.5v.235a.112.112,0,0,0,.061.106l1.74,1a.392.392,0,0,0,.407,0l1.74-1A.12.12,0,0,0,84.511,189.92Zm-2.594,1.569a.12.12,0,0,0,.06-.106v-.232H77.969v.232a.113.113,0,0,0,.06.106l1.74,1a.392.392,0,0,0,.407,0Zm-5.061,0a.126.126,0,0,0,.06-.106v-.232H72.908v.232a.113.113,0,0,0,.06.106l1.743,1a.386.386,0,0,0,.4,0Zm-12.593,4.274v-.236l-2.946.616v.235a.116.116,0,0,0,.06.106l.678.392a.407.407,0,0,0,.405,0l1.74-1A.125.125,0,0,0,64.263,195.763Zm25.309-14.614v-.235l-2.947.615v.236a.118.118,0,0,0,.06.105l.679.392a.392.392,0,0,0,.407,0l1.741-1A.117.117,0,0,0,89.572,181.149Zm-2.588,1.569a.12.12,0,0,0,.06-.106v-.232L84.1,183v.233a.115.115,0,0,0,.06.1l.679.392a.386.386,0,0,0,.4,0Zm-2.537,1.463a.116.116,0,0,0,.061-.106v-.232l-2.947.615v.232a.119.119,0,0,0,.06.106l.679.392a.4.4,0,0,0,.407,0Zm-2.47,1.354V185.3l-2.947.615v.235a.116.116,0,0,0,.061.106l.678.392a.4.4,0,0,0,.407,0l1.741-1A.12.12,0,0,0,81.977,185.535ZM79.386,187.1a.126.126,0,0,0,.061-.1v-.233l-2.947.613v.235a.118.118,0,0,0,.06.106l.679.392a.4.4,0,0,0,.407,0Zm-2.467,1.358v-.233l-2.947.616v.232a.117.117,0,0,0,.061.1l.678.393a.391.391,0,0,0,.4,0l1.741-1A.133.133,0,0,0,76.919,188.458Zm-2.534,1.462v-.232l-2.946.612v.233a.115.115,0,0,0,.06.105l.679.392a.392.392,0,0,0,.407,0l1.74-1A.121.121,0,0,0,74.385,189.92Zm-2.53,1.46v-.235l-2.947.615V192a.114.114,0,0,0,.061.1l.678.392a.392.392,0,0,0,.407,0l1.741-1A.125.125,0,0,0,71.855,191.38Zm-2.531,1.463v-.232l-2.946.615v.232a.116.116,0,0,0,.06.106l.679.392a.4.4,0,0,0,.407,0l1.74-1A.132.132,0,0,0,69.324,192.843Zm-2.533,1.463v-.233l-2.947.613v.232a.117.117,0,0,0,.06.106l.679.392a.4.4,0,0,0,.407,0l1.74-1A.12.12,0,0,0,66.791,194.306Zm-.055,3.028a.124.124,0,0,0,.061-.106V197H62.785v.232a.114.114,0,0,0,.06.106l1.741,1a.386.386,0,0,0,.4,0Zm7.592-4.382a.124.124,0,0,0,.06-.106v-.232H70.377v.232a.115.115,0,0,0,.06.106l1.741,1a.391.391,0,0,0,.4,0Zm-2.533,1.46a.121.121,0,0,0,.06-.106v-.233H67.844v.233a.113.113,0,0,0,.06.106l1.743,1a.391.391,0,0,0,.4,0Zm12.655-7.306a.124.124,0,0,0,.061-.1v-.233H80.5V187a.114.114,0,0,0,.061.1l1.74,1a.4.4,0,0,0,.407,0Zm-2.473,1.355v-.236H77.966v.236a.112.112,0,0,0,.06.1l1.743,1a.41.41,0,0,0,.407,0l1.741-1A.122.122,0,0,0,81.977,188.461Zm-2.53,1.459v-.235H75.438v.235a.112.112,0,0,0,.06.106l1.741,1a.392.392,0,0,0,.407,0l1.74-1A.116.116,0,0,0,79.447,189.92Zm-10.18,5.954a.126.126,0,0,0,.061-.1v-.233H65.316v.233a.118.118,0,0,0,.06.1l1.741,1a.391.391,0,0,0,.4,0Zm17.714-10.231a.115.115,0,0,0,.06-.1v-.232h-4v.232a.112.112,0,0,0,.06.1l1.741,1a.391.391,0,0,0,.4,0Zm2.591-1.568v-.235H85.563v.235a.114.114,0,0,0,.061.106l1.74,1a.4.4,0,0,0,.407,0l1.741-1A.117.117,0,0,0,89.572,184.075Z" fill="#323e44"/>
        <path d="M66.731,194.179a.125.125,0,0,0,.06-.106.115.115,0,0,0-.06-.105l-.679-.392a.391.391,0,0,0-.4,0l-1.74,1a.119.119,0,0,0-.061.105.114.114,0,0,0,.061.1l.678.393a.391.391,0,0,0,.4,0Zm7.588-4.385a.129.129,0,0,0,.061-.106.117.117,0,0,0-.061-.1l-.678-.393a.391.391,0,0,0-.4,0l-1.741,1a.121.121,0,0,0-.06.105.116.116,0,0,0,.06.106l.679.392a.392.392,0,0,0,.407,0ZM64.2,195.639a.12.12,0,0,0,.061-.106.116.116,0,0,0-.061-.1l-.679-.392a.392.392,0,0,0-.407,0l-1.74,1a.126.126,0,0,0-.06.106.122.122,0,0,0,.06.105l.679.392a.386.386,0,0,0,.4,0Zm10.183,5.74a.116.116,0,0,0-.061-.106l-1.74-1.007a.391.391,0,0,0-.4,0l-1.743,1.007a.121.121,0,0,0-.061.106.117.117,0,0,0,.061.106l1.743,1a.391.391,0,0,0,.4,0l1.74-1A.123.123,0,0,0,74.386,201.379Zm-7.595-4.386a.115.115,0,0,0-.06-.1l-1.744-1a.391.391,0,0,0-.4,0l-1.743,1a.125.125,0,0,0-.06.1.118.118,0,0,0,.06.106l1.743,1a.4.4,0,0,0,.4,0l1.744-1A.117.117,0,0,0,66.791,196.993ZM92.1,182.38a.117.117,0,0,0-.061-.106l-1.74-1.007a.41.41,0,0,0-.407,0l-1.741,1.007a.12.12,0,0,0-.06.106.115.115,0,0,0,.06.105l1.741,1a.4.4,0,0,0,.407,0l1.74-1A.116.116,0,0,0,92.1,182.38Zm-2.531,1.463a.117.117,0,0,0-.06-.106l-1.744-1a.386.386,0,0,0-.4,0l-1.743,1a.121.121,0,0,0-.061.106.116.116,0,0,0,.061.105l1.743,1a.391.391,0,0,0,.4,0l1.744-1A.118.118,0,0,0,89.572,183.843Zm-2.594,1.568a.129.129,0,0,0,.06-.1.116.116,0,0,0-.06-.106l-1.74-1a.392.392,0,0,0-.407,0l-1.741,1a.123.123,0,0,0,0,.211l1.741,1a.41.41,0,0,0,.407,0Zm-2.47,1.354a.115.115,0,0,0-.06-.1l-1.741-1a.392.392,0,0,0-.407,0l-1.743,1a.119.119,0,0,0-.061.1.116.116,0,0,0,.061.106l1.743,1a.392.392,0,0,0,.407,0l1.741-1A.113.113,0,0,0,84.508,186.765Zm-2.528,1.46a.121.121,0,0,0-.063-.1l-1.74-1a.41.41,0,0,0-.407,0l-1.741,1a.118.118,0,0,0-.06.1.116.116,0,0,0,.06.106l1.741,1.007a.392.392,0,0,0,.407,0l1.74-1.007A.124.124,0,0,0,81.98,188.225Zm-2.533,1.463a.115.115,0,0,0-.06-.1l-1.744-1a.391.391,0,0,0-.4,0l-1.743,1a.117.117,0,0,0-.061.1.119.119,0,0,0,.061.106l1.743,1a.386.386,0,0,0,.4,0l1.744-1A.12.12,0,0,0,79.447,189.688Zm-2.531,1.46a.117.117,0,0,0-.06-.106l-1.743-1a.393.393,0,0,0-.405,0l-1.74,1a.123.123,0,0,0-.06.106.118.118,0,0,0,.06.106l1.74,1a.407.407,0,0,0,.405,0l1.743-1A.118.118,0,0,0,76.916,191.148Zm-2.53,1.463a.119.119,0,0,0-.061-.106l-1.74-1a.386.386,0,0,0-.4,0l-1.743,1a.121.121,0,0,0-.061.106.114.114,0,0,0,.061.105l1.743,1a.391.391,0,0,0,.4,0l1.74-1A.124.124,0,0,0,74.386,192.611Zm-2.534,1.46a.116.116,0,0,0-.06-.106l-1.743-1a.4.4,0,0,0-.405,0l-1.74,1a.129.129,0,0,0-.06.106.118.118,0,0,0,.06.1l1.74,1.005a.393.393,0,0,0,.405,0l1.743-1.005A.11.11,0,0,0,71.852,194.071Zm-2.531,1.462a.113.113,0,0,0-.06-.1l-1.74-1a.386.386,0,0,0-.4,0l-1.741,1a.125.125,0,0,0-.06.1.116.116,0,0,0,.06.106l1.741,1.008a.391.391,0,0,0,.4,0l1.74-1.008A.11.11,0,0,0,69.321,195.533Zm0,2.923a.113.113,0,0,0-.06-.1l-1.74-1a.391.391,0,0,0-.4,0l-1.741,1a.121.121,0,0,0-.06.1.118.118,0,0,0,.06.106l1.741,1a.391.391,0,0,0,.4,0l1.74-1A.111.111,0,0,0,69.321,198.456Zm25.255-14.508a.118.118,0,0,0,.06-.105.117.117,0,0,0-.06-.106l-1.744-1a.386.386,0,0,0-.4,0L88.154,185.2a.123.123,0,0,0,0,.211l1.741,1a.41.41,0,0,0,.407,0Zm-5.064,2.923a.119.119,0,0,0,.06-.106.115.115,0,0,0-.06-.1l-1.744-1a.386.386,0,0,0-.4,0l-1.74,1a.118.118,0,0,0-.06.1.116.116,0,0,0,.06.106l1.74,1a.386.386,0,0,0,.4,0Zm-2.471,1.354a.118.118,0,0,0-.06-.1l-1.74-1a.4.4,0,0,0-.4,0l-1.741,1a.118.118,0,0,0-.06.1.116.116,0,0,0,.06.106l1.741,1.007a.386.386,0,0,0,.4,0l1.74-1.007A.116.116,0,0,0,87.041,188.225Zm-2.533,1.463a.115.115,0,0,0-.06-.1l-1.741-1a.4.4,0,0,0-.407,0l-1.743,1a.119.119,0,0,0-.061.1.121.121,0,0,0,.061.106l1.743,1a.392.392,0,0,0,.407,0l1.741-1A.114.114,0,0,0,84.508,189.688Zm-2.528,1.46a.119.119,0,0,0-.063-.106l-1.74-1a.4.4,0,0,0-.407,0l-1.741,1a.124.124,0,0,0,0,.212l1.741,1a.41.41,0,0,0,.407,0l1.74-1A.127.127,0,0,0,81.98,191.148Zm-2.533,1.463a.12.12,0,0,0-.06-.106l-1.741-1a.392.392,0,0,0-.407,0l-1.743,1a.116.116,0,0,0-.061.106.114.114,0,0,0,.061.105l1.743,1a.4.4,0,0,0,.407,0l1.741-1A.118.118,0,0,0,79.447,192.611Zm-2.531,1.46a.116.116,0,0,0-.06-.106l-1.743-1a.4.4,0,0,0-.405,0l-1.74,1a.122.122,0,0,0-.06.106.118.118,0,0,0,.06.1l1.74,1.005a.393.393,0,0,0,.405,0l1.743-1.005A.115.115,0,0,0,76.916,194.071Zm-2.53,1.462a.114.114,0,0,0-.061-.1l-1.74-1a.386.386,0,0,0-.4,0l-1.743,1a.124.124,0,0,0-.061.1.115.115,0,0,0,.061.106l1.743,1.008a.391.391,0,0,0,.4,0l1.74-1.008A.124.124,0,0,0,74.386,195.533Zm-2.534,1.46a.115.115,0,0,0-.06-.1l-1.743-1a.393.393,0,0,0-.405,0l-1.74,1a.125.125,0,0,0-.06.1.12.12,0,0,0,.06.106l1.74,1a.407.407,0,0,0,.405,0l1.743-1A.117.117,0,0,0,71.852,196.993Zm2.534,1.463a.114.114,0,0,0-.061-.1l-1.74-1a.391.391,0,0,0-.4,0l-4.274,2.468a.129.129,0,0,0-.06.105.115.115,0,0,0,.06.1l1.74,1a.391.391,0,0,0,.4,0l4.274-2.467A.125.125,0,0,0,74.386,198.456Zm22.72-13.048a.121.121,0,0,0,.061-.1.115.115,0,0,0-.061-.106l-1.74-1a.392.392,0,0,0-.407,0l-6.805,3.927a.125.125,0,0,0-.06.1.116.116,0,0,0,.06.106l1.741,1.007a.392.392,0,0,0,.407,0Zm-7.534,4.28a.115.115,0,0,0-.06-.1l-1.744-1.008a.391.391,0,0,0-.4,0l-1.74,1.008a.118.118,0,0,0-.06.1.12.12,0,0,0,.06.106l1.74,1a.386.386,0,0,0,.4,0l1.744-1A.12.12,0,0,0,89.572,189.688Zm-2.591,1.569a.121.121,0,0,0,.06-.106.118.118,0,0,0-.06-.106l-1.74-1a.391.391,0,0,0-.4,0l-1.741,1a.124.124,0,0,0,0,.212l1.741,1a.4.4,0,0,0,.4,0Zm-2.47,1.354a.12.12,0,0,0-.06-.106l-1.744-1a.392.392,0,0,0-.407,0l-1.743,1a.117.117,0,0,0-.061.106.116.116,0,0,0,.061.105l1.743,1a.4.4,0,0,0,.407,0l1.744-1A.125.125,0,0,0,84.511,192.611Zm-2.531,1.46a.118.118,0,0,0-.063-.106l-1.74-1a.406.406,0,0,0-.407,0l-1.741,1a.122.122,0,0,0-.06.106.118.118,0,0,0,.06.1l1.741,1.005a.4.4,0,0,0,.407,0l1.74-1.005A.124.124,0,0,0,81.98,194.071Zm-2.533,1.462a.115.115,0,0,0-.06-.1l-1.741-1a.392.392,0,0,0-.407,0l-1.743,1a.117.117,0,0,0-.061.1.115.115,0,0,0,.061.106l1.743,1.008a.4.4,0,0,0,.407,0l1.741-1.008A.119.119,0,0,0,79.447,195.533Zm-2.531,1.46a.115.115,0,0,0-.06-.1l-1.743-1a.393.393,0,0,0-.405,0l-1.74,1a.118.118,0,0,0-.06.1.12.12,0,0,0,.06.106l1.74,1a.407.407,0,0,0,.405,0l1.743-1A.117.117,0,0,0,76.916,196.993ZM99.7,186.765a.118.118,0,0,0-.06-.1l-1.743-1a.388.388,0,0,0-.405,0l-1.74,1a.118.118,0,0,0-.06.1.116.116,0,0,0,.06.106l1.74,1a.388.388,0,0,0,.405,0l1.743-1A.125.125,0,0,0,99.7,186.765Zm-2.533,1.46a.117.117,0,0,0-.061-.1l-1.74-1a.4.4,0,0,0-.4,0l-1.74,1a.117.117,0,0,0-.061.1.115.115,0,0,0,.061.106l1.74,1.007a.386.386,0,0,0,.4,0l1.74-1.007A.11.11,0,0,0,97.164,188.225Zm-2.531,1.463a.115.115,0,0,0-.06-.1l-1.744-1.008a.391.391,0,0,0-.4,0l-1.743,1.008a.118.118,0,0,0-.06.1.12.12,0,0,0,.06.106l1.743,1a.386.386,0,0,0,.4,0l1.744-1A.114.114,0,0,0,94.633,189.688Zm-2.588,1.569a.122.122,0,0,0,.061-.106.119.119,0,0,0-.061-.106l-1.743-1a.4.4,0,0,0-.407,0l-11.866,6.85a.123.123,0,0,0,0,.211l1.741,1a.406.406,0,0,0,.407,0Q86.108,194.682,92.045,191.257Zm-12.6,7.2a.115.115,0,0,0-.06-.1l-1.741-1a.4.4,0,0,0-.407,0l-1.743,1a.114.114,0,0,0-.061.1.117.117,0,0,0,.061.106l1.743,1a.4.4,0,0,0,.407,0l1.741-1A.12.12,0,0,0,79.447,198.456Zm-2.531,1.463a.118.118,0,0,0-.06-.105l-1.74-1a.391.391,0,0,0-.4,0l-1.741,1a.118.118,0,0,0-.06.105.115.115,0,0,0,.06.1l1.741,1a.391.391,0,0,0,.4,0l1.74-1A.122.122,0,0,0,76.916,199.919Zm12.656-19a.115.115,0,0,0-.06-.1l-.679-.393a.391.391,0,0,0-.4,0l-1.743,1a.119.119,0,0,0,0,.211l.678.392a.391.391,0,0,0,.4,0l1.744-1A.12.12,0,0,0,89.572,180.92Zm-2.591,1.568a.125.125,0,0,0,.06-.1.117.117,0,0,0-.06-.106l-.679-.392a.4.4,0,0,0-.407,0l-1.743,1a.118.118,0,0,0-.06.105.116.116,0,0,0,.06.106l.679.392a.4.4,0,0,0,.407,0Zm-2.533,1.46a.125.125,0,0,0,.06-.105.117.117,0,0,0-.06-.106l-.679-.392a.391.391,0,0,0-.4,0l-1.741,1a.125.125,0,0,0-.06.105.117.117,0,0,0,.06.106l.679.392a.4.4,0,0,0,.4,0Zm-2.531,1.46a.121.121,0,0,0,.06-.1.116.116,0,0,0-.06-.106l-.679-.392a.391.391,0,0,0-.4,0l-1.743,1a.126.126,0,0,0-.06.106.118.118,0,0,0,.06.105l.679.393a.4.4,0,0,0,.407,0Zm-2.473,1.357a.115.115,0,0,0-.06-.1l-.679-.392a.4.4,0,0,0-.4,0l-1.741,1a.126.126,0,0,0-.06.106.115.115,0,0,0,.06.105l.679.392a.386.386,0,0,0,.4,0l1.744-1A.111.111,0,0,0,79.444,186.765Zm-2.588,1.569a.125.125,0,0,0,.06-.106.115.115,0,0,0-.06-.105l-.679-.392a.386.386,0,0,0-.4,0l-1.743,1a.125.125,0,0,0-.06.106.115.115,0,0,0,.06.1l.678.392a.388.388,0,0,0,.405,0Zm-5,2.814a.117.117,0,0,0-.06-.106l-.679-.392a.391.391,0,0,0-.4,0l-1.743,1a.125.125,0,0,0-.06.1.115.115,0,0,0,.06.106l.678.392a.393.393,0,0,0,.405,0l1.743-1A.112.112,0,0,0,71.852,191.148Zm-2.527,1.46a.121.121,0,0,0-.061-.106l-.678-.392a.391.391,0,0,0-.4,0l-1.744,1a.128.128,0,0,0-.06.106.114.114,0,0,0,.06.1l.679.393a.391.391,0,0,0,.4,0l1.74-1A.114.114,0,0,0,69.325,192.608Z" fill="#53626b"/>
        <path d="M53.514,172.677q1.185,5.48,2.37,10.958t2.368,10.948q7.52-4.338,15.03-8.674T88.3,177.238c-.081-.381-.166-.764-.247-1.147-.791-3.646-1.33-6.153-2.121-9.8s-1.58-7.3-2.37-10.958q-7.5,4.335-15.015,8.672c-5.007,2.889-9.82,5.673-14.833,8.562C53.647,172.605,53.583,172.641,53.514,172.677Z" fill="url(#linear-gradient-5)"/>
        <path d="M87.687,203.192a.391.391,0,0,1-.4,0L80.822,199.4a.112.112,0,0,1-.06-.1v-.232L99.616,196v.232a.115.115,0,0,1-.061.106Z" fill="#323e44"/>
        <path d="M87.687,202.923a.4.4,0,0,1-.4,0l-6.476-3.767a.123.123,0,0,1,0-.211q5.931-3.426,11.866-6.85a.391.391,0,0,1,.4,0l6.475,3.767a.116.116,0,0,1,.061.106.117.117,0,0,1-.061.105Q93.621,199.495,87.687,202.923Z" fill="#53626b"/>
      </g>
    </g>
    <g id="abc3e3f9-d4db-41ad-8b60-378d1c3348f7-2" data-name="abc3e3f9-d4db-41ad-8b60-378d1c3348f7">
      <g>
        <g>
          <path d="M91.643,142.819H82.28a.739.739,0,0,0-.74.739h0V163.75a.739.739,0,0,0,.738.741H98.506a.739.739,0,0,0,.733-.741V150.388a.739.739,0,0,0-.733-.741H93.121a.739.739,0,0,1-.734-.739v-5.349a.734.734,0,0,0-.726-.741Z" fill="#fff"/>
          <path d="M91.3,143.765v5.071a1.862,1.862,0,0,0,1.858,1.861h5.108v12.848H82.518v-19.78H91.3m.358-1.11h-9.5a.75.75,0,0,0-.751.75h0v20.5a.751.751,0,0,0,.75.752H98.626a.75.75,0,0,0,.75-.751h0V150.338a.75.75,0,0,0-.75-.751H93.159a.75.75,0,0,1-.75-.751h0v-5.43a.749.749,0,0,0-.749-.751Z" fill="url(#linear-gradient-6)"/>
          <path d="M99.09,149.736l-6.94-6.917v5.636a1.272,1.272,0,0,0,1.264,1.281H99.09Z" fill="#2e76bc"/>
        </g>
        <rect x="84.282" y="152.672" width="12.221" height="1.639" rx="0.737" fill="#699cd3"/>
        <rect x="84.282" y="155.609" width="12.221" height="1.639" rx="0.737" fill="#699cd3"/>
        <rect x="84.282" y="158.546" width="7.702" height="1.639" rx="0.737" fill="#699cd3"/>
      </g>
    </g>
    <g>
      <line x1="87.797" y1="137.163" x2="87.797" y2="116.145" fill="none" stroke="#3c3c41" stroke-miterlimit="10"/>
      <polygon points="91.536 117.239 87.797 110.763 84.057 117.239 91.536 117.239" fill="#3c3c41"/>
    </g>
  </g>
  <g id="Text">
    <g>
      <path d="M46.433,31.083h-2.8v8.005H41.422V31.083H38.64v-1.8h7.793Z" fill="#2f2f2f"/>
      <path d="M52.571,36.2H48.005q.11,1.524,1.921,1.525a3.754,3.754,0,0,0,2.03-.547v1.558a5.337,5.337,0,0,1-2.522.52A3.259,3.259,0,0,1,45.865,35.7a3.747,3.747,0,0,1,1.012-2.761,3.366,3.366,0,0,1,2.488-1.019,3.06,3.06,0,0,1,2.369.909,3.5,3.5,0,0,1,.837,2.468Zm-2-1.326q0-1.5-1.216-1.5a1.162,1.162,0,0,0-.9.431,1.957,1.957,0,0,0-.462,1.073Z" fill="#2f2f2f"/>
      <path d="M64.972,39.088H62.818V35.1q0-1.524-1.121-1.525a1.031,1.031,0,0,0-.868.458,1.884,1.884,0,0,0-.335,1.142v3.917h-2.16V35.055q0-1.483-1.1-1.484a1.054,1.054,0,0,0-.885.438,1.923,1.923,0,0,0-.331,1.189v3.89H53.856v-7h2.161v1.094h.027a2.652,2.652,0,0,1,2.263-1.265,2.016,2.016,0,0,1,2.03,1.306,2.588,2.588,0,0,1,2.351-1.306q2.283,0,2.284,2.816Z" fill="#2f2f2f"/>
      <path d="M68.868,38.274h-.027v4.034h-2.16V32.088h2.16v1.053h.027a2.749,2.749,0,0,1,4.351-.291,3.971,3.971,0,0,1,.742,2.54A4.3,4.3,0,0,1,73.1,38.2a2.817,2.817,0,0,1-2.3,1.06A2.179,2.179,0,0,1,68.868,38.274ZM68.807,35.4v.561a1.78,1.78,0,0,0,.382,1.182,1.246,1.246,0,0,0,1.005.458,1.324,1.324,0,0,0,1.145-.57,2.76,2.76,0,0,0,.407-1.617q0-1.845-1.435-1.846a1.349,1.349,0,0,0-1.084.5A2,2,0,0,0,68.807,35.4Z" fill="#2f2f2f"/>
      <path d="M78.7,39.259a3.762,3.762,0,0,1-2.751-.981,3.556,3.556,0,0,1-1-2.663A3.559,3.559,0,0,1,75.984,32.9a3.928,3.928,0,0,1,2.81-.981,3.715,3.715,0,0,1,2.734.981,3.487,3.487,0,0,1,.992,2.594A3.7,3.7,0,0,1,81.5,38.247,3.809,3.809,0,0,1,78.7,39.259Zm.055-5.688a1.443,1.443,0,0,0-1.19.527,2.323,2.323,0,0,0-.423,1.49q0,2.016,1.627,2.016,1.551,0,1.551-2.071Q80.318,33.571,78.753,33.571Z" fill="#2f2f2f"/>
      <path d="M88.487,34.036a1.875,1.875,0,0,0-.909-.212,1.309,1.309,0,0,0-1.1.516,2.251,2.251,0,0,0-.4,1.4v3.343h-2.16v-7h2.16v1.3h.027a1.869,1.869,0,0,1,1.846-1.422,1.381,1.381,0,0,1,.533.082Z" fill="#2f2f2f"/>
      <path d="M95.316,39.088H93.272V38.083h-.027a2.28,2.28,0,0,1-2.085,1.176,2.182,2.182,0,0,1-1.6-.578,2.068,2.068,0,0,1-.584-1.541q0-2.037,2.413-2.352l1.9-.253q0-1.147-1.244-1.148a4.245,4.245,0,0,0-2.379.745V32.505A5.328,5.328,0,0,1,90.9,32.1a6.459,6.459,0,0,1,1.425-.178A2.643,2.643,0,0,1,95.316,34.9Zm-2.03-2.844v-.472l-1.271.165q-1.053.136-1.053.95a.786.786,0,0,0,.256.6.988.988,0,0,0,.694.236,1.279,1.279,0,0,0,.991-.421A1.515,1.515,0,0,0,93.286,36.244Z" fill="#2f2f2f"/>
      <path d="M99.186,39.088H97.025V28.725h2.161Z" fill="#2f2f2f"/>
      <path d="M109.1,39.006a3.2,3.2,0,0,1-1.443.253q-2.283,0-2.283-2.372V33.681h-1.135V32.088h1.135V30.577l2.153-.615v2.126H109.1v1.593h-1.573v2.83q0,1.093.869,1.093a1.455,1.455,0,0,0,.7-.2Z" fill="#2f2f2f"/>
      <path d="M116.139,39.088H114.1V38.083h-.028a2.28,2.28,0,0,1-2.085,1.176,2.182,2.182,0,0,1-1.6-.578,2.072,2.072,0,0,1-.584-1.541q0-2.037,2.413-2.352l1.9-.253q0-1.147-1.244-1.148a4.245,4.245,0,0,0-2.379.745V32.505a5.328,5.328,0,0,1,1.234-.41,6.46,6.46,0,0,1,1.426-.178,2.643,2.643,0,0,1,2.994,2.987Zm-2.031-2.844v-.472l-1.271.165q-1.053.136-1.053.95a.787.787,0,0,0,.257.6.984.984,0,0,0,.693.236,1.283,1.283,0,0,0,.992-.421A1.519,1.519,0,0,0,114.108,36.244Z" fill="#2f2f2f"/>
      <path d="M120.035,38.274h-.027v.814h-2.16V28.725h2.16v4.416h.027a2.563,2.563,0,0,1,2.277-1.224,2.5,2.5,0,0,1,2.084.93,4,4,0,0,1,.732,2.543,4.339,4.339,0,0,1-.855,2.809,2.78,2.78,0,0,1-2.283,1.06A2.2,2.2,0,0,1,120.035,38.274Zm-.061-2.953v.718a1.641,1.641,0,0,0,.389,1.121,1.266,1.266,0,0,0,1,.444,1.324,1.324,0,0,0,1.145-.57,2.76,2.76,0,0,0,.407-1.617,2.2,2.2,0,0,0-.372-1.357,1.258,1.258,0,0,0-1.063-.489,1.372,1.372,0,0,0-1.077.486A1.841,1.841,0,0,0,119.974,35.321Z" fill="#2f2f2f"/>
      <path d="M128.689,39.088h-2.16V28.725h2.16Z" fill="#2f2f2f"/>
      <path d="M136.8,36.2H132.23q.109,1.524,1.921,1.525a3.76,3.76,0,0,0,2.031-.547v1.558a5.338,5.338,0,0,1-2.523.52,3.258,3.258,0,0,1-3.568-3.562,3.743,3.743,0,0,1,1.012-2.761,3.365,3.365,0,0,1,2.488-1.019,3.057,3.057,0,0,1,2.368.909,3.5,3.5,0,0,1,.838,2.468Zm-2-1.326q0-1.5-1.217-1.5a1.163,1.163,0,0,0-.9.431,1.949,1.949,0,0,0-.461,1.073Z" fill="#2f2f2f"/>
      <path d="M48.271,57.316h-1a8.737,8.737,0,0,1-2.119-5.967,9.071,9.071,0,0,1,2.119-6.064h1.012a9.214,9.214,0,0,0-2.146,6.05A9.054,9.054,0,0,0,48.271,57.316Z" fill="#2f2f2f"/>
      <path d="M54.328,54.767a3.646,3.646,0,0,1-1.914.485A3.168,3.168,0,0,1,50,54.278a3.531,3.531,0,0,1-.92-2.526,3.885,3.885,0,0,1,.991-2.779,3.467,3.467,0,0,1,2.646-1.049,3.68,3.68,0,0,1,1.627.342v1.148a2.85,2.85,0,0,0-1.668-.547,2.255,2.255,0,0,0-1.76.769,2.919,2.919,0,0,0-.687,2.02,2.778,2.778,0,0,0,.646,1.942,2.224,2.224,0,0,0,1.732.711,2.807,2.807,0,0,0,1.723-.609Z" fill="#2f2f2f"/>
      <path d="M61.684,55.088H60.562V53.98h-.027a2.3,2.3,0,0,1-2.16,1.272q-2.5,0-2.5-2.981V48.088h1.114v4.006q0,2.214,1.7,2.215a1.717,1.717,0,0,0,1.35-.6,2.317,2.317,0,0,0,.529-1.583V48.088h1.122Z" fill="#2f2f2f"/>
      <path d="M67.6,49.223A1.368,1.368,0,0,0,66.749,49a1.433,1.433,0,0,0-1.2.677,3.13,3.13,0,0,0-.482,1.846v3.568H63.946v-7h1.121V49.53H65.1a2.444,2.444,0,0,1,.731-1.152,1.671,1.671,0,0,1,1.1-.413,1.828,1.828,0,0,1,.67.1Z" fill="#2f2f2f"/>
      <path d="M72.464,49.223A1.368,1.368,0,0,0,71.616,49a1.43,1.43,0,0,0-1.2.677,3.123,3.123,0,0,0-.482,1.846v3.568H68.813v-7h1.122V49.53h.027a2.451,2.451,0,0,1,.731-1.152,1.671,1.671,0,0,1,1.1-.413,1.828,1.828,0,0,1,.67.1Z" fill="#2f2f2f"/>
      <path d="M79.307,51.868H74.364a2.619,2.619,0,0,0,.629,1.8,2.168,2.168,0,0,0,1.654.636,3.435,3.435,0,0,0,2.174-.78v1.053a4.058,4.058,0,0,1-2.44.67A2.958,2.958,0,0,1,74.05,54.3a3.9,3.9,0,0,1-.848-2.683,3.829,3.829,0,0,1,.926-2.662,2.972,2.972,0,0,1,2.3-1.029,2.634,2.634,0,0,1,2.126.888,3.71,3.71,0,0,1,.752,2.468Zm-1.149-.95a2.277,2.277,0,0,0-.468-1.511,1.6,1.6,0,0,0-1.282-.54,1.807,1.807,0,0,0-1.346.568,2.563,2.563,0,0,0-.684,1.483Z" fill="#2f2f2f"/>
      <path d="M86.812,55.088H85.691V51.1q0-2.229-1.627-2.229a1.765,1.765,0,0,0-1.391.633,2.346,2.346,0,0,0-.55,1.6v3.992H81v-7h1.121V49.25h.027a2.528,2.528,0,0,1,2.3-1.326,2.141,2.141,0,0,1,1.757.742,3.3,3.3,0,0,1,.608,2.143Z" fill="#2f2f2f"/>
      <path d="M92.172,55.02a2.159,2.159,0,0,1-1.046.218q-1.839,0-1.839-2.05V49.045h-1.2v-.957h1.2V46.379l1.121-.362v2.071h1.764v.957H90.408v3.944a1.641,1.641,0,0,0,.239,1.005.954.954,0,0,0,.793.3,1.179,1.179,0,0,0,.732-.233Z" fill="#2f2f2f"/>
      <path d="M100.751,55.02a2.159,2.159,0,0,1-1.046.218q-1.839,0-1.839-2.05V49.045h-1.2v-.957h1.2V46.379l1.121-.362v2.071h1.764v.957H98.987v3.944a1.633,1.633,0,0,0,.24,1.005.952.952,0,0,0,.793.3,1.178,1.178,0,0,0,.731-.233Z" fill="#2f2f2f"/>
      <path d="M107.259,55.088h-1.121V53.994h-.028a2.345,2.345,0,0,1-2.153,1.258,2.3,2.3,0,0,1-1.637-.554,1.918,1.918,0,0,1-.591-1.469q0-1.963,2.31-2.284l2.1-.294q0-1.783-1.443-1.784a3.442,3.442,0,0,0-2.283.862V48.58a4.342,4.342,0,0,1,2.379-.656q2.468,0,2.468,2.611Zm-1.121-3.541-1.689.232a2.743,2.743,0,0,0-1.176.387,1.112,1.112,0,0,0-.4.98,1.068,1.068,0,0,0,.366.838,1.413,1.413,0,0,0,.974.325,1.8,1.8,0,0,0,1.377-.585,2.086,2.086,0,0,0,.544-1.48Z" fill="#2f2f2f"/>
      <path d="M110.52,54.076h-.028v1.012h-1.121V44.725h1.121v4.593h.028a2.65,2.65,0,0,1,2.419-1.394,2.564,2.564,0,0,1,2.109.94,3.875,3.875,0,0,1,.763,2.519,4.337,4.337,0,0,1-.855,2.813,2.846,2.846,0,0,1-2.338,1.056A2.3,2.3,0,0,1,110.52,54.076Zm-.028-2.823v.977a2.084,2.084,0,0,0,.564,1.474,2.011,2.011,0,0,0,3.028-.175,3.566,3.566,0,0,0,.578-2.167,2.823,2.823,0,0,0-.54-1.832,1.788,1.788,0,0,0-1.463-.663,1.986,1.986,0,0,0-1.572.68A2.5,2.5,0,0,0,110.492,51.253Z" fill="#2f2f2f"/>
      <path d="M118.723,55.088H117.6V44.725h1.121Z" fill="#2f2f2f"/>
      <path d="M126.618,51.868h-4.942a2.619,2.619,0,0,0,.629,1.8,2.167,2.167,0,0,0,1.654.636,3.437,3.437,0,0,0,2.174-.78v1.053a4.061,4.061,0,0,1-2.441.67,2.959,2.959,0,0,1-2.331-.954,3.9,3.9,0,0,1-.847-2.683,3.824,3.824,0,0,1,.926-2.662,2.97,2.97,0,0,1,2.3-1.029,2.632,2.632,0,0,1,2.126.888,3.7,3.7,0,0,1,.752,2.468Zm-1.148-.95A2.282,2.282,0,0,0,125,49.407a1.593,1.593,0,0,0-1.281-.54,1.809,1.809,0,0,0-1.347.568,2.576,2.576,0,0,0-.684,1.483Z" fill="#2f2f2f"/>
      <path d="M128.341,57.316h-1a9.05,9.05,0,0,0,2.133-5.981,9.215,9.215,0,0,0-2.147-6.05h1.012a9.031,9.031,0,0,1,2.133,6.064A8.7,8.7,0,0,1,128.341,57.316Z" fill="#2f2f2f"/>
    </g>
    <g>
      <path d="M373.026,44.888h-2.215V40.9H366.75v3.992h-2.208v-9.8h2.208V39h4.061V35.085h2.215Z" fill="#2f2f2f"/>
      <path d="M376.15,36.781a1.265,1.265,0,0,1-.9-.325,1.046,1.046,0,0,1-.348-.8,1.009,1.009,0,0,1,.348-.793,1.462,1.462,0,0,1,1.795,0,1.013,1.013,0,0,1,.345.793,1.04,1.04,0,0,1-.345.806A1.282,1.282,0,0,1,376.15,36.781Zm1.066,8.107h-2.16v-7h2.16Z" fill="#2f2f2f"/>
      <path d="M378.577,44.7v-1.75a4.607,4.607,0,0,0,1.063.478,3.516,3.516,0,0,0,1,.157,2.146,2.146,0,0,0,.906-.157.507.507,0,0,0,.331-.478.443.443,0,0,0-.15-.342,1.391,1.391,0,0,0-.386-.239,4.3,4.3,0,0,0-.516-.185c-.187-.055-.367-.116-.54-.185a5.176,5.176,0,0,1-.735-.338,2.127,2.127,0,0,1-.533-.42,1.673,1.673,0,0,1-.329-.554,2.217,2.217,0,0,1-.112-.745,1.919,1.919,0,0,1,.256-1.012,2.091,2.091,0,0,1,.684-.694,3.1,3.1,0,0,1,.977-.4,5.061,5.061,0,0,1,1.145-.127,6.341,6.341,0,0,1,.944.072,6.967,6.967,0,0,1,.943.209v1.668a3.38,3.38,0,0,0-.879-.359,3.689,3.689,0,0,0-.919-.12,2.049,2.049,0,0,0-.4.038,1.3,1.3,0,0,0-.331.109.605.605,0,0,0-.226.185.421.421,0,0,0-.082.256.474.474,0,0,0,.123.328,1.07,1.07,0,0,0,.321.236,3.346,3.346,0,0,0,.441.178c.162.052.322.106.482.16a6.276,6.276,0,0,1,.779.328,2.528,2.528,0,0,1,.6.417,1.636,1.636,0,0,1,.382.561,2.239,2.239,0,0,1-.136,1.829,2.168,2.168,0,0,1-.718.717,3.262,3.262,0,0,1-1.032.4,5.746,5.746,0,0,1-1.214.126A6.275,6.275,0,0,1,378.577,44.7Z" fill="#2f2f2f"/>
      <path d="M389.425,44.806a3.187,3.187,0,0,1-1.442.253q-2.283,0-2.283-2.372V39.481h-1.135V37.888H385.7V36.377l2.153-.615v2.126h1.572v1.593h-1.572v2.83q0,1.093.868,1.094a1.463,1.463,0,0,0,.7-.2Z" fill="#2f2f2f"/>
      <path d="M393.923,45.059a3.762,3.762,0,0,1-2.751-.981,4.056,4.056,0,0,1,.037-5.38,3.928,3.928,0,0,1,2.81-.981,3.715,3.715,0,0,1,2.734.981,3.486,3.486,0,0,1,.991,2.594,3.7,3.7,0,0,1-1.021,2.755A3.805,3.805,0,0,1,393.923,45.059Zm.055-5.687a1.439,1.439,0,0,0-1.189.526,2.319,2.319,0,0,0-.424,1.49q0,2.016,1.627,2.017,1.551,0,1.551-2.072Q395.543,39.371,393.978,39.372Z" fill="#2f2f2f"/>
      <path d="M403.712,39.836a1.878,1.878,0,0,0-.909-.211,1.309,1.309,0,0,0-1.1.516,2.252,2.252,0,0,0-.4,1.4v3.343h-2.16v-7h2.16v1.3h.027a1.869,1.869,0,0,1,1.846-1.422,1.381,1.381,0,0,1,.533.082Z" fill="#2f2f2f"/>
      <path d="M411.942,37.888,409.1,45.449q-1.026,2.727-3.09,2.727A3.977,3.977,0,0,1,404.717,48V46.276a1.821,1.821,0,0,0,.936.253,1.168,1.168,0,0,0,1.162-.786l.37-.868-2.844-6.987h2.392l1.306,4.259a5.4,5.4,0,0,1,.191.936h.028a6.575,6.575,0,0,1,.225-.922l1.32-4.273Z" fill="#2f2f2f"/>
      <path d="M420.9,44.806a3.185,3.185,0,0,1-1.442.253q-2.283,0-2.283-2.372V39.481h-1.135V37.888h1.135V36.377l2.153-.615v2.126H420.9v1.593h-1.572v2.83q0,1.093.868,1.094a1.46,1.46,0,0,0,.7-.2Z" fill="#2f2f2f"/>
      <path d="M427.945,44.888H425.9v-1h-.027a2.28,2.28,0,0,1-2.085,1.176,2.174,2.174,0,0,1-1.6-.578,2.067,2.067,0,0,1-.585-1.541q0-2.037,2.413-2.352l1.9-.253q0-1.148-1.244-1.148a4.253,4.253,0,0,0-2.379.745V38.305a5.376,5.376,0,0,1,1.234-.41,6.459,6.459,0,0,1,1.425-.178,2.644,2.644,0,0,1,2.994,2.988Zm-2.03-2.844v-.471l-1.271.164q-1.053.137-1.053.95a.785.785,0,0,0,.257.605.985.985,0,0,0,.693.236,1.276,1.276,0,0,0,.991-.421A1.514,1.514,0,0,0,425.915,42.044Z" fill="#2f2f2f"/>
      <path d="M431.842,44.075h-.028v.813h-2.16V34.525h2.16v4.416h.028a2.563,2.563,0,0,1,2.276-1.224,2.5,2.5,0,0,1,2.085.93,4.007,4.007,0,0,1,.732,2.543A4.344,4.344,0,0,1,436.08,44a2.782,2.782,0,0,1-2.283,1.059A2.206,2.206,0,0,1,431.842,44.075Zm-.062-2.953v.717a1.635,1.635,0,0,0,.39,1.121,1.267,1.267,0,0,0,1,.445,1.326,1.326,0,0,0,1.145-.571,2.755,2.755,0,0,0,.407-1.617,2.2,2.2,0,0,0-.372-1.357,1.261,1.261,0,0,0-1.064-.488,1.37,1.37,0,0,0-1.076.485A1.844,1.844,0,0,0,431.78,41.122Z" fill="#2f2f2f"/>
      <path d="M440.5,44.888h-2.16V34.525h2.16Z" fill="#2f2f2f"/>
      <path d="M448.6,42h-4.567q.11,1.526,1.921,1.525a3.743,3.743,0,0,0,2.03-.547V44.54a5.332,5.332,0,0,1-2.522.519A3.259,3.259,0,0,1,441.9,41.5a3.747,3.747,0,0,1,1.012-2.762,3.372,3.372,0,0,1,2.488-1.019,3.065,3.065,0,0,1,2.37.909,3.507,3.507,0,0,1,.837,2.468Zm-2-1.326q0-1.5-1.217-1.5a1.163,1.163,0,0,0-.9.431,1.957,1.957,0,0,0-.462,1.073Z" fill="#2f2f2f"/>
    </g>
    <g>
      <path d="M218.307,63.616,216.434,64l1.3,1.661-.752.519-1.066-1.811-1.08,1.811-.752-.519,1.3-1.661-1.887-.383.308-.855,1.791.677-.157-2.078h.943l-.157,2.078,1.8-.677Z" fill="#2f2f2f"/>
      <path d="M223.894,71.327a4.3,4.3,0,0,1-3.34-1.374,5.1,5.1,0,0,1-1.254-3.576,5.4,5.4,0,0,1,1.278-3.773,4.464,4.464,0,0,1,3.48-1.408,4.206,4.206,0,0,1,3.271,1.367,5.116,5.116,0,0,1,1.24,3.575,5.416,5.416,0,0,1-1.271,3.794A4.382,4.382,0,0,1,223.894,71.327Zm.082-9.092a3.159,3.159,0,0,0-2.509,1.114,4.956,4.956,0,0,0-.024,5.841,3.064,3.064,0,0,0,2.451,1.1,3.222,3.222,0,0,0,2.543-1.052,4.307,4.307,0,0,0,.929-2.947,4.5,4.5,0,0,0-.9-3A3.1,3.1,0,0,0,223.976,62.235Z" fill="#2f2f2f"/>
      <path d="M231.468,71.163h-1.121V60.8h1.121Z" fill="#2f2f2f"/>
      <path d="M239.654,71.163h-1.121v-1.19h-.027a2.824,2.824,0,0,1-4.515.414,3.853,3.853,0,0,1-.79-2.56,4.2,4.2,0,0,1,.875-2.783A2.888,2.888,0,0,1,236.407,64a2.245,2.245,0,0,1,2.1,1.134h.027V60.8h1.121ZM238.533,68V66.965a2,2,0,0,0-.56-1.435,1.881,1.881,0,0,0-1.422-.588,1.933,1.933,0,0,0-1.613.752,3.288,3.288,0,0,0-.588,2.078,2.965,2.965,0,0,0,.564,1.911,1.842,1.842,0,0,0,1.514.7,1.916,1.916,0,0,0,1.521-.676A2.526,2.526,0,0,0,238.533,68Z" fill="#2f2f2f"/>
      <path d="M251.262,64.163l-2.789,7h-1.1l-2.652-7h1.23l1.778,5.086a4.566,4.566,0,0,1,.246.977H248a4.605,4.605,0,0,1,.219-.95l1.859-5.113Z" fill="#2f2f2f"/>
      <path d="M257.9,67.943h-4.942a2.619,2.619,0,0,0,.629,1.805,2.17,2.17,0,0,0,1.654.635,3.436,3.436,0,0,0,2.174-.779v1.053a4.06,4.06,0,0,1-2.44.67,2.96,2.96,0,0,1-2.332-.954,3.909,3.909,0,0,1-.847-2.683,3.827,3.827,0,0,1,.926-2.663,2.969,2.969,0,0,1,2.3-1.028,2.632,2.632,0,0,1,2.126.888,3.7,3.7,0,0,1,.752,2.468Zm-1.148-.95a2.288,2.288,0,0,0-.468-1.511,1.6,1.6,0,0,0-1.282-.54,1.811,1.811,0,0,0-1.347.567,2.575,2.575,0,0,0-.683,1.484Z" fill="#2f2f2f"/>
      <path d="M263.236,65.3a1.37,1.37,0,0,0-.847-.225,1.428,1.428,0,0,0-1.2.677,3.129,3.129,0,0,0-.482,1.845v3.569h-1.121v-7h1.121v1.442h.027a2.453,2.453,0,0,1,.732-1.152,1.665,1.665,0,0,1,1.1-.413,1.824,1.824,0,0,1,.67.095Z" fill="#2f2f2f"/>
      <path d="M264.238,70.91v-1.2a3.319,3.319,0,0,0,2.016.676q1.477,0,1.477-.984a.848.848,0,0,0-.127-.475,1.255,1.255,0,0,0-.341-.345,2.609,2.609,0,0,0-.506-.27q-.291-.12-.626-.25a8.145,8.145,0,0,1-.817-.372,2.5,2.5,0,0,1-.587-.424,1.575,1.575,0,0,1-.356-.537,1.914,1.914,0,0,1-.12-.7,1.679,1.679,0,0,1,.226-.872,1.992,1.992,0,0,1,.6-.635,2.8,2.8,0,0,1,.858-.387,3.822,3.822,0,0,1,.994-.129,4.026,4.026,0,0,1,1.627.314v1.135a3.164,3.164,0,0,0-1.777-.506,2.076,2.076,0,0,0-.568.072,1.414,1.414,0,0,0-.434.2.95.95,0,0,0-.28.311.821.821,0,0,0-.1.4.961.961,0,0,0,.1.458,1,1,0,0,0,.291.328,2.171,2.171,0,0,0,.464.26q.274.117.622.253a8.487,8.487,0,0,1,.834.366,2.8,2.8,0,0,1,.629.424,1.636,1.636,0,0,1,.4.543,1.745,1.745,0,0,1,.14.732,1.721,1.721,0,0,1-.229.9,1.962,1.962,0,0,1-.611.636,2.832,2.832,0,0,1-.882.376,4.356,4.356,0,0,1-1.046.123A3.972,3.972,0,0,1,264.238,70.91Z" fill="#2f2f2f"/>
      <path d="M271.029,62.385a.708.708,0,0,1-.512-.2.69.69,0,0,1-.212-.519.719.719,0,0,1,.724-.732.724.724,0,0,1,.523.209.728.728,0,0,1,0,1.035A.718.718,0,0,1,271.029,62.385Zm.547,8.778h-1.121v-7h1.121Z" fill="#2f2f2f"/>
      <path d="M276.671,71.327a3.247,3.247,0,0,1-2.478-.981,3.631,3.631,0,0,1-.926-2.6,3.786,3.786,0,0,1,.963-2.755,3.466,3.466,0,0,1,2.6-.991,3.143,3.143,0,0,1,2.444.963,3.826,3.826,0,0,1,.878,2.673,3.756,3.756,0,0,1-.947,2.683A3.313,3.313,0,0,1,276.671,71.327Zm.082-6.385a2.132,2.132,0,0,0-1.709.735,3.019,3.019,0,0,0-.629,2.027,2.855,2.855,0,0,0,.636,1.962,2.162,2.162,0,0,0,1.7.717,2.048,2.048,0,0,0,1.671-.7,3.053,3.053,0,0,0,.585-2,3.1,3.1,0,0,0-.585-2.023A2.038,2.038,0,0,0,276.753,64.942Z" fill="#2f2f2f"/>
      <path d="M287.683,71.163h-1.121V67.17q0-2.228-1.627-2.228a1.767,1.767,0,0,0-1.391.632,2.344,2.344,0,0,0-.55,1.6v3.993h-1.121v-7h1.121v1.162h.027a2.525,2.525,0,0,1,2.3-1.326,2.144,2.144,0,0,1,1.757.741,3.309,3.309,0,0,1,.608,2.143Z" fill="#2f2f2f"/>
      <path d="M289.331,70.91v-1.2a3.319,3.319,0,0,0,2.017.676q1.476,0,1.476-.984a.856.856,0,0,0-.126-.475,1.259,1.259,0,0,0-.342-.345,2.609,2.609,0,0,0-.506-.27q-.291-.12-.625-.25a8.145,8.145,0,0,1-.817-.372,2.483,2.483,0,0,1-.588-.424,1.59,1.59,0,0,1-.356-.537,1.915,1.915,0,0,1-.119-.7,1.678,1.678,0,0,1,.225-.872,2,2,0,0,1,.6-.635,2.8,2.8,0,0,1,.858-.387,3.828,3.828,0,0,1,.994-.129,4.026,4.026,0,0,1,1.627.314v1.135a3.164,3.164,0,0,0-1.777-.506,2.069,2.069,0,0,0-.567.072,1.392,1.392,0,0,0-.434.2.942.942,0,0,0-.281.311.821.821,0,0,0-.1.4.961.961,0,0,0,.1.458,1,1,0,0,0,.291.328,2.18,2.18,0,0,0,.465.26q.273.117.622.253a8.594,8.594,0,0,1,.834.366,2.845,2.845,0,0,1,.629.424,1.664,1.664,0,0,1,.4.543,1.76,1.76,0,0,1,.14.732,1.73,1.73,0,0,1-.229.9,1.975,1.975,0,0,1-.612.636,2.822,2.822,0,0,1-.882.376,4.356,4.356,0,0,1-1.046.123A3.972,3.972,0,0,1,289.331,70.91Z" fill="#2f2f2f"/>
    </g>
    <g>
      <path d="M128.493,175.012q0,4.128-3.726,4.129-3.568,0-3.568-3.972v-6h1.148v5.92q0,3.015,2.543,3.014,2.454,0,2.454-2.912v-6.022h1.149Z" fill="#2f2f2f"/>
      <path d="M131.788,177.965h-.027V182.2H130.64V171.977h1.121v1.23h.027a2.65,2.65,0,0,1,2.42-1.395,2.565,2.565,0,0,1,2.112.94,3.894,3.894,0,0,1,.759,2.519,4.341,4.341,0,0,1-.854,2.813,2.845,2.845,0,0,1-2.338,1.057A2.342,2.342,0,0,1,131.788,177.965Zm-.027-2.823v.977a2.08,2.08,0,0,0,.564,1.473,2.012,2.012,0,0,0,3.028-.174,3.577,3.577,0,0,0,.578-2.167,2.828,2.828,0,0,0-.54-1.832,1.788,1.788,0,0,0-1.463-.663,1.986,1.986,0,0,0-1.573.68A2.5,2.5,0,0,0,131.761,175.142Z" fill="#2f2f2f"/>
      <path d="M144.864,178.977h-1.121v-1.19h-.027a2.824,2.824,0,0,1-4.515.414,3.853,3.853,0,0,1-.79-2.56,4.2,4.2,0,0,1,.875-2.783,2.887,2.887,0,0,1,2.331-1.046,2.246,2.246,0,0,1,2.1,1.135h.027v-4.334h1.121Zm-1.121-3.165v-1.033a2,2,0,0,0-.56-1.435,1.881,1.881,0,0,0-1.422-.588,1.936,1.936,0,0,0-1.614.752,3.294,3.294,0,0,0-.587,2.078,2.965,2.965,0,0,0,.564,1.911,1.842,1.842,0,0,0,1.514.7,1.916,1.916,0,0,0,1.521-.676A2.526,2.526,0,0,0,143.743,175.812Z" fill="#2f2f2f"/>
      <path d="M152.021,178.977H150.9v-1.094h-.027a2.349,2.349,0,0,1-2.153,1.258,2.3,2.3,0,0,1-1.637-.554,1.916,1.916,0,0,1-.592-1.47q0-1.962,2.311-2.283l2.1-.294q0-1.783-1.442-1.784a3.446,3.446,0,0,0-2.283.861v-1.148a4.334,4.334,0,0,1,2.379-.657q2.468,0,2.467,2.612Zm-1.121-3.541-1.688.232a2.748,2.748,0,0,0-1.176.386,1.116,1.116,0,0,0-.4.981,1.072,1.072,0,0,0,.365.838,1.416,1.416,0,0,0,.974.324,1.8,1.8,0,0,0,1.378-.584,2.09,2.09,0,0,0,.543-1.48Z" fill="#2f2f2f"/>
      <path d="M157.28,178.908a2.159,2.159,0,0,1-1.046.219q-1.839,0-1.838-2.051v-4.142h-1.2v-.957h1.2v-1.709l1.121-.363v2.072h1.763v.957h-1.763v3.944a1.634,1.634,0,0,0,.239,1.005.957.957,0,0,0,.793.3,1.176,1.176,0,0,0,.731-.233Z" fill="#2f2f2f"/>
      <path d="M164.273,175.757h-4.942a2.623,2.623,0,0,0,.628,1.805,2.172,2.172,0,0,0,1.655.635,3.438,3.438,0,0,0,2.174-.779v1.053a4.07,4.07,0,0,1-2.441.67,2.958,2.958,0,0,1-2.331-.954,3.9,3.9,0,0,1-.848-2.683,3.827,3.827,0,0,1,.927-2.663,2.968,2.968,0,0,1,2.3-1.029,2.633,2.633,0,0,1,2.126.889,3.706,3.706,0,0,1,.752,2.468Zm-1.148-.95a2.282,2.282,0,0,0-.469-1.511,1.594,1.594,0,0,0-1.281-.54,1.811,1.811,0,0,0-1.347.567,2.582,2.582,0,0,0-.684,1.484Z" fill="#2f2f2f"/>
      <path d="M169.852,171.43l-1.873.382,1.3,1.662-.752.519-1.067-1.811-1.08,1.811-.752-.519,1.3-1.662-1.886-.382.307-.855,1.791.677-.157-2.078h.943l-.157,2.078,1.8-.677Z" fill="#2f2f2f"/>
      <path d="M179.75,169.174l-4.7,11.43H174l4.69-11.43Z" fill="#2f2f2f"/>
      <path d="M184.768,178.977v-9.8h2.707q5.183,0,5.182,4.778a4.816,4.816,0,0,1-1.439,3.647,5.336,5.336,0,0,1-3.852,1.378Zm1.149-8.764v7.725h1.462a4.151,4.151,0,0,0,3-1.033,3.867,3.867,0,0,0,1.074-2.926q0-3.767-4.006-3.766Z" fill="#2f2f2f"/>
      <path d="M200.033,175.757h-4.942a2.619,2.619,0,0,0,.629,1.805,2.17,2.17,0,0,0,1.654.635,3.436,3.436,0,0,0,2.174-.779v1.053a4.068,4.068,0,0,1-2.441.67,2.959,2.959,0,0,1-2.331-.954,3.9,3.9,0,0,1-.847-2.683,3.827,3.827,0,0,1,.926-2.663,2.97,2.97,0,0,1,2.3-1.029,2.633,2.633,0,0,1,2.126.889,3.7,3.7,0,0,1,.752,2.468Zm-1.148-.95a2.288,2.288,0,0,0-.468-1.511,1.6,1.6,0,0,0-1.282-.54,1.811,1.811,0,0,0-1.347.567,2.582,2.582,0,0,0-.684,1.484Z" fill="#2f2f2f"/>
      <path d="M202.829,178.977h-1.121V168.613h1.121Z" fill="#2f2f2f"/>
      <path d="M210.667,175.757h-4.942a2.619,2.619,0,0,0,.629,1.805,2.168,2.168,0,0,0,1.654.635,3.438,3.438,0,0,0,2.174-.779v1.053a4.07,4.07,0,0,1-2.441.67,2.958,2.958,0,0,1-2.331-.954,3.9,3.9,0,0,1-.848-2.683,3.827,3.827,0,0,1,.927-2.663,2.968,2.968,0,0,1,2.3-1.029,2.633,2.633,0,0,1,2.126.889,3.7,3.7,0,0,1,.752,2.468Zm-1.148-.95a2.282,2.282,0,0,0-.469-1.511,1.594,1.594,0,0,0-1.281-.54,1.811,1.811,0,0,0-1.347.567,2.582,2.582,0,0,0-.684,1.484Z" fill="#2f2f2f"/>
      <path d="M215.591,178.908a2.159,2.159,0,0,1-1.046.219q-1.839,0-1.839-2.051v-4.142h-1.2v-.957h1.2v-1.709l1.121-.363v2.072h1.764v.957h-1.764v3.944a1.641,1.641,0,0,0,.239,1.005.957.957,0,0,0,.793.3,1.179,1.179,0,0,0,.732-.233Z" fill="#2f2f2f"/>
      <path d="M222.584,175.757h-4.942a2.619,2.619,0,0,0,.629,1.805,2.168,2.168,0,0,0,1.654.635,3.438,3.438,0,0,0,2.174-.779v1.053a4.07,4.07,0,0,1-2.441.67,2.958,2.958,0,0,1-2.331-.954,3.9,3.9,0,0,1-.848-2.683,3.827,3.827,0,0,1,.927-2.663,2.968,2.968,0,0,1,2.3-1.029,2.633,2.633,0,0,1,2.126.889,3.706,3.706,0,0,1,.752,2.468Zm-1.148-.95a2.282,2.282,0,0,0-.469-1.511,1.594,1.594,0,0,0-1.281-.54,1.811,1.811,0,0,0-1.347.567,2.582,2.582,0,0,0-.684,1.484Z" fill="#2f2f2f"/>
      <path d="M228.163,171.43l-1.873.382,1.3,1.662-.752.519-1.066-1.811-1.08,1.811-.752-.519,1.3-1.662-1.887-.382.308-.855,1.791.677-.157-2.078h.943l-.157,2.078,1.8-.677Z" fill="#2f2f2f"/>
      <path d="M238.061,169.174l-4.7,11.43h-1.046L237,169.174Z" fill="#2f2f2f"/>
      <path d="M244.227,178.977h-1.148v-9.8h1.148Z" fill="#2f2f2f"/>
      <path d="M252.3,178.977h-1.121v-3.993q0-2.228-1.627-2.228a1.767,1.767,0,0,0-1.391.632,2.344,2.344,0,0,0-.55,1.6v3.993h-1.121v-7h1.121v1.162h.027a2.527,2.527,0,0,1,2.3-1.327,2.144,2.144,0,0,1,1.757.742,3.3,3.3,0,0,1,.608,2.143Z" fill="#2f2f2f"/>
      <path d="M253.95,178.724v-1.2a3.319,3.319,0,0,0,2.017.676q1.476,0,1.476-.984a.856.856,0,0,0-.126-.475,1.259,1.259,0,0,0-.342-.345,2.528,2.528,0,0,0-.506-.27c-.194-.08-.4-.164-.625-.25a7.918,7.918,0,0,1-.817-.373,2.453,2.453,0,0,1-.588-.423,1.59,1.59,0,0,1-.356-.537,1.915,1.915,0,0,1-.119-.7,1.678,1.678,0,0,1,.225-.872,2.014,2.014,0,0,1,.6-.635,2.821,2.821,0,0,1,.858-.387,3.831,3.831,0,0,1,1-.13,4.012,4.012,0,0,1,1.627.315v1.135a3.169,3.169,0,0,0-1.778-.506,2.069,2.069,0,0,0-.567.072,1.37,1.37,0,0,0-.434.2.942.942,0,0,0-.281.311.832.832,0,0,0-.1.4.973.973,0,0,0,.1.458,1.009,1.009,0,0,0,.291.328,2.225,2.225,0,0,0,.465.26q.273.117.622.253a8.594,8.594,0,0,1,.834.366,2.845,2.845,0,0,1,.629.424,1.664,1.664,0,0,1,.4.543,1.76,1.76,0,0,1,.14.732,1.723,1.723,0,0,1-.229.9,1.975,1.975,0,0,1-.612.636,2.812,2.812,0,0,1-.882.376,4.35,4.35,0,0,1-1.046.123A3.984,3.984,0,0,1,253.95,178.724Z" fill="#2f2f2f"/>
      <path d="M265.9,175.757h-4.942a2.619,2.619,0,0,0,.629,1.805,2.17,2.17,0,0,0,1.654.635,3.436,3.436,0,0,0,2.174-.779v1.053a4.068,4.068,0,0,1-2.441.67,2.959,2.959,0,0,1-2.331-.954,3.9,3.9,0,0,1-.847-2.683,3.827,3.827,0,0,1,.926-2.663,2.97,2.97,0,0,1,2.3-1.029,2.633,2.633,0,0,1,2.126.889,3.7,3.7,0,0,1,.752,2.468Zm-1.148-.95a2.288,2.288,0,0,0-.468-1.511,1.6,1.6,0,0,0-1.282-.54,1.811,1.811,0,0,0-1.347.567,2.575,2.575,0,0,0-.683,1.484Z" fill="#2f2f2f"/>
      <path d="M271.238,173.111a1.372,1.372,0,0,0-.847-.225,1.43,1.43,0,0,0-1.2.676,3.134,3.134,0,0,0-.482,1.846v3.569h-1.121v-7h1.121v1.442h.027a2.453,2.453,0,0,1,.732-1.152,1.665,1.665,0,0,1,1.1-.413,1.828,1.828,0,0,1,.67.095Z" fill="#2f2f2f"/>
      <path d="M276.157,178.908a2.159,2.159,0,0,1-1.046.219q-1.839,0-1.839-2.051v-4.142h-1.2v-.957h1.2v-1.709l1.122-.363v2.072h1.763v.957h-1.763v3.944a1.634,1.634,0,0,0,.239,1.005.956.956,0,0,0,.793.3,1.178,1.178,0,0,0,.731-.233Z" fill="#2f2f2f"/>
      <path d="M285.912,169.174l-4.7,11.43h-1.046l4.69-11.43Z" fill="#2f2f2f"/>
      <path d="M290.93,178.977v-9.8h2.789a3.045,3.045,0,0,1,2.016.622,2.008,2.008,0,0,1,.745,1.62,2.381,2.381,0,0,1-.451,1.449,2.428,2.428,0,0,1-1.244.875v.028a2.492,2.492,0,0,1,1.586.748,2.3,2.3,0,0,1,.6,1.644,2.561,2.561,0,0,1-.9,2.037,3.355,3.355,0,0,1-2.276.78Zm1.148-8.764v3.165h1.176a2.226,2.226,0,0,0,1.483-.455,1.582,1.582,0,0,0,.54-1.281q0-1.43-1.88-1.429Zm0,4.2v3.528h1.559a2.338,2.338,0,0,0,1.569-.479,1.64,1.64,0,0,0,.557-1.313q0-1.735-2.366-1.736Z" fill="#2f2f2f"/>
      <path d="M304.42,178.977H303.3v-1.108h-.028a2.3,2.3,0,0,1-2.16,1.272q-2.5,0-2.5-2.981v-4.183h1.115v4q0,2.215,1.695,2.215a1.712,1.712,0,0,0,1.35-.6,2.313,2.313,0,0,0,.53-1.582v-4.033h1.121Z" fill="#2f2f2f"/>
      <path d="M307.647,178.977h-1.121V168.613h1.121Z" fill="#2f2f2f"/>
      <path d="M315.57,178.977H314l-3.09-3.364h-.027v3.364H309.76V168.613h1.121v6.57h.027l2.94-3.206h1.469l-3.247,3.377Z" fill="#2f2f2f"/>
      <path d="M321.128,170.2a.709.709,0,0,1-.513-.205.693.693,0,0,1-.212-.519.719.719,0,0,1,.725-.732.721.721,0,0,1,.523.209.73.73,0,0,1,0,1.035A.72.72,0,0,1,321.128,170.2Zm.547,8.778h-1.121v-7h1.121Z" fill="#2f2f2f"/>
      <path d="M329.6,178.977h-1.122v-3.993q0-2.228-1.627-2.228a1.767,1.767,0,0,0-1.391.632,2.349,2.349,0,0,0-.55,1.6v3.993h-1.121v-7h1.121v1.162h.027a2.527,2.527,0,0,1,2.3-1.327,2.144,2.144,0,0,1,1.757.742,3.3,3.3,0,0,1,.609,2.143Z" fill="#2f2f2f"/>
      <path d="M331.251,178.724v-1.2a3.321,3.321,0,0,0,2.017.676q1.476,0,1.477-.984a.856.856,0,0,0-.126-.475,1.287,1.287,0,0,0-.342-.345,2.614,2.614,0,0,0-.506-.27c-.194-.08-.4-.164-.626-.25a7.918,7.918,0,0,1-.817-.373,2.474,2.474,0,0,1-.588-.423,1.59,1.59,0,0,1-.356-.537,1.915,1.915,0,0,1-.119-.7,1.669,1.669,0,0,1,.226-.872,1.988,1.988,0,0,1,.6-.635,2.805,2.805,0,0,1,.859-.387,3.817,3.817,0,0,1,.994-.13,4.012,4.012,0,0,1,1.627.315v1.135a3.167,3.167,0,0,0-1.778-.506,2.069,2.069,0,0,0-.567.072,1.4,1.4,0,0,0-.435.2.946.946,0,0,0-.279.311.821.821,0,0,0-.1.4.961.961,0,0,0,.1.458.994.994,0,0,0,.29.328,2.225,2.225,0,0,0,.465.26q.275.117.622.253a8.594,8.594,0,0,1,.834.366,2.822,2.822,0,0,1,.629.424,1.65,1.65,0,0,1,.4.543,1.76,1.76,0,0,1,.14.732,1.723,1.723,0,0,1-.229.9,1.975,1.975,0,0,1-.612.636,2.812,2.812,0,0,1-.882.376,4.354,4.354,0,0,1-1.045.123A3.989,3.989,0,0,1,331.251,178.724Z" fill="#2f2f2f"/>
      <path d="M343.207,175.757h-4.943a2.624,2.624,0,0,0,.629,1.805,2.17,2.17,0,0,0,1.654.635,3.438,3.438,0,0,0,2.174-.779v1.053a4.067,4.067,0,0,1-2.44.67,2.958,2.958,0,0,1-2.331-.954,3.9,3.9,0,0,1-.848-2.683,3.832,3.832,0,0,1,.926-2.663,2.972,2.972,0,0,1,2.3-1.029,2.633,2.633,0,0,1,2.126.889,3.706,3.706,0,0,1,.752,2.468Zm-1.149-.95a2.288,2.288,0,0,0-.468-1.511,1.6,1.6,0,0,0-1.282-.54,1.815,1.815,0,0,0-1.347.567,2.581,2.581,0,0,0-.683,1.484Z" fill="#2f2f2f"/>
      <path d="M348.54,173.111a1.377,1.377,0,0,0-.848-.225,1.427,1.427,0,0,0-1.2.676,3.12,3.12,0,0,0-.483,1.846v3.569h-1.121v-7h1.121v1.442h.028a2.444,2.444,0,0,1,.731-1.152,1.666,1.666,0,0,1,1.1-.413,1.831,1.831,0,0,1,.67.095Z" fill="#2f2f2f"/>
      <path d="M353.458,178.908a2.157,2.157,0,0,1-1.045.219q-1.839,0-1.839-2.051v-4.142h-1.2v-.957h1.2v-1.709l1.121-.363v2.072h1.763v.957H351.7v3.944a1.641,1.641,0,0,0,.239,1.005.956.956,0,0,0,.793.3,1.178,1.178,0,0,0,.731-.233Z" fill="#2f2f2f"/>
    </g>
  </g>
</svg>
