<?xml version="1.0" encoding="UTF-8" standalone="no"?>
<svg
   viewBox="0 0 385 300"
   version="1.1"
   id="svg793"
   sodipodi:docname="ad_auth_explained_3.svg"
   inkscape:version="1.1.2 (b8e25be833, 2022-02-05)"
   xmlns:inkscape="http://www.inkscape.org/namespaces/inkscape"
   xmlns:sodipodi="http://sodipodi.sourceforge.net/DTD/sodipodi-0.dtd"
   xmlns:xlink="http://www.w3.org/1999/xlink"
   xmlns="http://www.w3.org/2000/svg"
   xmlns:svg="http://www.w3.org/2000/svg">
  <sodipodi:namedview
     id="namedview795"
     pagecolor="#ffffff"
     bordercolor="#666666"
     borderopacity="1.0"
     inkscape:pageshadow="2"
     inkscape:pageopacity="0.0"
     inkscape:pagecheckerboard="0"
     showgrid="false"
     inkscape:zoom="2.53"
     inkscape:cx="192.68775"
     inkscape:cy="150"
     inkscape:window-width="1620"
     inkscape:window-height="1010"
     inkscape:window-x="-6"
     inkscape:window-y="-6"
     inkscape:window-maximized="1"
     inkscape:current-layer="svg793" />
  <defs
     id="defs469">
    <linearGradient
       id="linear-gradient"
       x1="269.53"
       y1="1779.65"
       x2="269.53"
       y2="1745.316"
       gradientTransform="matrix(1, 0, 0, -1, 0, 1920)"
       gradientUnits="userSpaceOnUse">
      <stop
         offset="0"
         stop-color="#b3b2b4"
         id="stop403" />
      <stop
         offset="0.38"
         stop-color="#b0aeaf"
         id="stop405" />
      <stop
         offset="0.76"
         stop-color="#a2a1a1"
         id="stop407" />
      <stop
         offset="1"
         stop-color="#979797"
         id="stop409" />
    </linearGradient>
    <linearGradient
       id="linear-gradient-2"
       x1="270.07"
       y1="1899"
       x2="270.07"
       y2="1863"
       xlink:href="#linear-gradient" />
    <linearGradient
       id="linear-gradient-3"
       x1="312.718"
       y1="1721.953"
       x2="335.341"
       y2="1721.953"
       gradientTransform="matrix(1,0,0,-1,0,1920)"
       gradientUnits="userSpaceOnUse">
      <stop
         offset="0"
         stop-color="#005ca1"
         id="stop413" />
      <stop
         offset="0.07"
         stop-color="#0161aa"
         id="stop415" />
      <stop
         offset="0.36"
         stop-color="#2571b8"
         id="stop417" />
      <stop
         offset="0.52"
         stop-color="#2e76bc"
         id="stop419" />
      <stop
         offset="0.64"
         stop-color="#2973ba"
         id="stop421" />
      <stop
         offset="0.82"
         stop-color="#166bb5"
         id="stop423" />
      <stop
         offset="1"
         stop-color="#005ca1"
         id="stop425" />
    </linearGradient>
    <radialGradient
       id="radial-gradient"
       cx="324.665"
       cy="1721.229"
       r="12.476"
       gradientTransform="matrix(1,0,0,-1,0,1920)"
       gradientUnits="userSpaceOnUse">
      <stop
         offset="0"
         stop-color="#f2f2f3"
         id="stop428" />
      <stop
         offset="0.58"
         stop-color="#eee"
         id="stop430" />
      <stop
         offset="1"
         stop-color="#e6e6e6"
         id="stop432" />
    </radialGradient>
    <linearGradient
       id="linear-gradient-4"
       x1="324.029"
       y1="1661.4"
       x2="324.029"
       y2="1691.4"
       gradientTransform="matrix(1, 0, 0, -1, 0, 1920)"
       gradientUnits="userSpaceOnUse">
      <stop
         offset="0"
         stop-color="#2e76bc"
         id="stop435" />
      <stop
         offset="0.817"
         stop-color="#699cd3"
         id="stop437" />
    </linearGradient>
    <linearGradient
       id="linear-gradient-5"
       x1="126.874"
       y1="1834.689"
       x2="126.874"
       y2="1864.689"
       xlink:href="#linear-gradient-4" />
    <linearGradient
       id="linear-gradient-6"
       x1="163.075"
       y1="1834.689"
       x2="163.075"
       y2="1864.689"
       xlink:href="#linear-gradient-4" />
    <linearGradient
       id="linear-gradient-7"
       x1="324.029"
       y1="1819"
       x2="324.029"
       y2="1849"
       gradientTransform="matrix(1, 0, 0, -1, 0, 1920)"
       gradientUnits="userSpaceOnUse">
      <stop
         offset="0"
         stop-color="#2e76bc"
         id="stop442" />
      <stop
         offset="0.82"
         stop-color="#699cd3"
         id="stop444" />
    </linearGradient>
    <linearGradient
       id="linear-gradient-8"
       x1="37.149"
       y1="1870.137"
       x2="37.149"
       y2="1899"
       xlink:href="#linear-gradient-7" />
    <linearGradient
       id="linear-gradient-9"
       x1="37.162"
       y1="1859"
       x2="37.162"
       y2="1870.137"
       gradientTransform="matrix(1,0,0,-1,0,1920)"
       gradientUnits="userSpaceOnUse">
      <stop
         offset="0.15"
         stop-color="#cccccb"
         id="stop448" />
      <stop
         offset="1"
         stop-color="#707071"
         id="stop450" />
    </linearGradient>
    <linearGradient
       id="linear-gradient-10"
       x1="17.288"
       y1="1877.533"
       x2="17.288"
       y2="1854.917"
       gradientTransform="matrix(1, 0, 0, -1, 0, 1920)"
       gradientUnits="userSpaceOnUse">
      <stop
         offset="0.22"
         stop-color="#50c8e9"
         id="stop453" />
      <stop
         offset="0.47"
         stop-color="#4ac7e9"
         id="stop455" />
      <stop
         offset="0.63"
         stop-color="#3bc4e7"
         id="stop457" />
      <stop
         offset="0.77"
         stop-color="#2abade"
         id="stop459" />
      <stop
         offset="0.89"
         stop-color="#21a5cb"
         id="stop461" />
      <stop
         offset="1"
         stop-color="#1b8ab3"
         id="stop463" />
    </linearGradient>
    <linearGradient
       id="linear-gradient-11"
       x1="16.638"
       y1="1889.667"
       x2="18.288"
       y2="1869.133"
       xlink:href="#linear-gradient-10" />
    <linearGradient
       id="linear-gradient-12"
       x1="126.874"
       y1="1793.767"
       x2="126.874"
       y2="1823.767"
       xlink:href="#linear-gradient-4" />
    <linearGradient
       id="linear-gradient-13"
       x1="126.874"
       y1="1694.048"
       x2="126.874"
       y2="1724.048"
       xlink:href="#linear-gradient-4" />
    <linearGradient
       inkscape:collect="always"
       xlink:href="#linear-gradient"
       id="linearGradient888"
       gradientUnits="userSpaceOnUse"
       gradientTransform="matrix(1,0,0,-1,0,1920)"
       x1="269.53"
       y1="1779.65"
       x2="269.53"
       y2="1745.316" />
    <linearGradient
       inkscape:collect="always"
       xlink:href="#linear-gradient-4"
       id="linearGradient890"
       gradientUnits="userSpaceOnUse"
       gradientTransform="matrix(1,0,0,-1,0,1920)"
       x1="324.029"
       y1="1661.4"
       x2="324.029"
       y2="1691.4" />
    <linearGradient
       inkscape:collect="always"
       xlink:href="#linear-gradient-7"
       id="linearGradient892"
       gradientUnits="userSpaceOnUse"
       gradientTransform="matrix(1,0,0,-1,0,1920)"
       x1="324.029"
       y1="1819"
       x2="324.029"
       y2="1849" />
    <linearGradient
       inkscape:collect="always"
       xlink:href="#linear-gradient-10"
       id="linearGradient894"
       gradientUnits="userSpaceOnUse"
       gradientTransform="matrix(1,0,0,-1,0,1920)"
       x1="17.288"
       y1="1877.533"
       x2="17.288"
       y2="1854.917" />
  </defs>
  <rect
     width="385"
     height="300"
     fill="#ffffff"
     id="rect471"
     x="0"
     y="0" />
  <rect
     x="105.229"
     y="187"
     width="44"
     height="48"
     fill="#fee452"
     opacity="0.35"
     id="rect473" />
  <g
     id="g479">
    <rect
       x="269.02899"
       y="167"
       width="110"
       height="127.6"
       fill="#ffffff"
       id="rect475" />
    <rect
       x="269.02899"
       y="167"
       width="110"
       height="127.6"
       fill="#767676"
       opacity="0.3"
       id="rect477" />
  </g>
  <g
     id="g491">
    <path
       d="m 280.676,173.517 a 1.236,1.236 0 0 1 -1.284,1.166 h -19.724 a 1.236,1.236 0 0 1 -1.285,-1.166 v -32 a 1.236,1.236 0 0 1 1.285,-1.165 h 19.724 a 1.236,1.236 0 0 1 1.284,1.165 z"
       fill="url(#linear-gradient)"
       id="path481"
       style="fill:url(#linearGradient888)" />
    <path
       d="m 261.666,155.031 a 2.57,2.57 0 0 1 2.379,-2.689 h 11.135 a 2.57,2.57 0 0 1 2.38,2.689 v 0 a 2.545,2.545 0 0 1 -2.292,2.776 c -0.029,0 -0.058,0.006 -0.088,0.007 h -11.087 a 2.544,2.544 0 0 1 -2.379,-2.664 z"
       fill="#1e3465"
       id="path483" />
    <path
       d="m 261.666,147.084 a 2.546,2.546 0 0 1 2.379,-2.665 h 11.135 a 2.547,2.547 0 0 1 2.38,2.665 v 0 a 2.569,2.569 0 0 1 -2.38,2.688 h -11.087 a 2.569,2.569 0 0 1 -2.379,-2.688 z"
       fill="#1e3465"
       id="path485" />
    <circle
       cx="264.78299"
       cy="147.084"
       r="1.784"
       fill="#74cfeb"
       id="circle487" />
    <circle
       cx="264.78299"
       cy="155.03101"
       r="1.784"
       fill="#74cfeb"
       id="circle489" />
  </g>
  <g
     id="g521">
    <rect
       x="269.02899"
       y="39.400002"
       width="110"
       height="88"
       fill="#ffffff"
       id="rect517" />
    <rect
       x="269.02899"
       y="39.400002"
       width="110"
       height="88"
       fill="#767676"
       opacity="0.3"
       id="rect519" />
  </g>
  <g
     id="g527">
    <rect
       x="27.565001"
       y="35"
       width="7.3179998"
       height="259.60001"
       fill="#ffffff"
       id="rect523" />
    <rect
       x="27.565001"
       y="35"
       width="7.3179998"
       height="259.60001"
       fill="#83b9f9"
       opacity="0.5"
       id="rect525" />
  </g>
  <g
     id="g539">
    <path
       d="M 281.758,55.777 A 1.3,1.3 0 0 1 280.411,57 H 259.73 a 1.3,1.3 0 0 1 -1.347,-1.222 V 22.223 A 1.3,1.3 0 0 1 259.73,21 h 20.681 a 1.3,1.3 0 0 1 1.347,1.222 z"
       fill="url(#linear-gradient-2)"
       id="path529"
       style="fill:url(#linear-gradient-2)" />
    <path
       d="m 261.825,36.393 a 2.7,2.7 0 0 1 2.5,-2.819 H 276 a 2.7,2.7 0 0 1 2.5,2.819 v 0 a 2.671,2.671 0 0 1 -2.4,2.912 l -0.092,0.007 H 264.37 a 2.67,2.67 0 0 1 -2.5,-2.794 z"
       fill="#1e3465"
       id="path531" />
    <path
       d="m 261.825,28.061 a 2.67,2.67 0 0 1 2.5,-2.794 H 276 a 2.67,2.67 0 0 1 2.5,2.794 v 0 A 2.7,2.7 0 0 1 276,30.88 h -11.63 a 2.7,2.7 0 0 1 -2.5,-2.819 z"
       fill="#1e3465"
       id="path533" />
    <circle
       cx="265.09299"
       cy="28.061001"
       r="1.8710001"
       fill="#74cfeb"
       id="circle535" />
    <circle
       cx="265.09299"
       cy="36.393002"
       r="1.8710001"
       fill="#74cfeb"
       id="circle537" />
  </g>
  <g
     id="g551">
    <path
       d="m 324.029,189.188 c -6.247,0 -11.311,-1.764 -11.311,-4.094 v 21.812 c 0,2.241 4.976,4.059 11.152,4.094 h 0.159 c 6.247,0 11.312,-1.765 11.312,-4.094 v -21.812 c 0,2.277 -5.065,4.094 -11.312,4.094 z"
       fill="url(#linear-gradient-3)"
       id="path541"
       style="fill:url(#linear-gradient-3)" />
    <path
       d="m 335.341,185.094 c 0,2.277 -5.065,4.094 -11.312,4.094 -6.247,0 -11.311,-1.764 -11.311,-4.094 0,-2.33 5.064,-4.094 11.311,-4.094 6.247,0 11.312,1.765 11.312,4.094"
       fill="#e8e8e8"
       id="path543" />
    <path
       d="m 332.712,184.759 c 0,1.447 -3.9,2.612 -8.683,2.612 -4.783,0 -8.682,-1.165 -8.682,-2.612 0,-1.447 3.9,-2.594 8.682,-2.594 4.782,0 8.683,1.164 8.683,2.594"
       fill="#74cfeb"
       id="path545" />
    <path
       d="m 324.029,185.412 a 20.369,20.369 0 0 0 -6.864,1.006 20.169,20.169 0 0 0 6.864,0.953 19.688,19.688 0 0 0 6.865,-1.024 20.867,20.867 0 0 0 -6.865,-0.935 z"
       fill="#1b8ab3"
       id="path547" />
    <path
       d="m 330.912,200.235 v -6 h -1.589 v 7.289 h 4.342 v -1.289 z m -12.6,-2.947 a 3.216,3.216 0 0 1 -0.9,-0.547 0.777,0.777 0 0 1 -0.212,-0.565 0.6,0.6 0 0 1 0.265,-0.529 1.2,1.2 0 0 1 0.741,-0.212 2.859,2.859 0 0 1 1.764,0.512 v -1.518 a 4.569,4.569 0 0 0 -1.764,-0.282 2.894,2.894 0 0 0 -1.924,0.6 1.9,1.9 0 0 0 -0.741,1.571 c 0,0.9 0.565,1.606 1.765,2.135 a 5.084,5.084 0 0 1 1.094,0.635 0.742,0.742 0 0 1 0.265,0.565 0.673,0.673 0 0 1 -0.283,0.547 1.425,1.425 0 0 1 -0.794,0.194 2.928,2.928 0 0 1 -1.923,-0.741 v 1.641 a 3.831,3.831 0 0 0 1.888,0.424 3.31,3.31 0 0 0 2.082,-0.583 1.9,1.9 0 0 0 0.583,-1.606 1.855,1.855 0 0 0 -0.442,-1.235 4.274,4.274 0 0 0 -1.464,-1.006 z m 9.247,2.806 a 3.868,3.868 0 0 0 0,-4.094 3.2,3.2 0 0 0 -1.236,-1.324 3.526,3.526 0 0 0 -1.764,-0.458 3.724,3.724 0 0 0 -1.906,0.476 3.276,3.276 0 0 0 -1.288,1.306 4.334,4.334 0 0 0 -0.459,2.012 3.971,3.971 0 0 0 0.423,1.764 3.1,3.1 0 0 0 1.218,1.306 3.638,3.638 0 0 0 1.765,0.53 l 1.517,1.764 h 2.136 l -2.171,-1.941 a 3.156,3.156 0 0 0 1.765,-1.341 z m -1.765,-0.441 a 1.662,1.662 0 0 1 -1.341,0.618 1.624,1.624 0 0 1 -1.341,-0.636 3.3,3.3 0 0 1 0,-3.529 1.762,1.762 0 0 1 1.376,-0.653 1.536,1.536 0 0 1 1.324,0.653 2.86,2.86 0 0 1 0.476,1.765 2.573,2.573 0 0 1 -0.494,1.782 z"
       fill="url(#radial-gradient)"
       id="path549"
       style="fill:url(#radial-gradient)" />
  </g>
  <g
     id="abc3e3f9-d4db-41ad-8b60-378d1c3348f7">
    <g
       id="g567">
      <g
         id="g559">
        <path
           d="m 325.734,228.823 h -12.768 a 1.008,1.008 0 0 0 -1.008,1.009 v 0 27.534 a 1.008,1.008 0 0 0 1.006,1.01 h 22.129 a 1.009,1.009 0 0 0 1,-1.01 v -18.221 a 1.009,1.009 0 0 0 -1,-1.01 h -7.344 a 1.009,1.009 0 0 1 -1,-1.008 v -7.294 a 1,1 0 0 0 -0.99,-1.01 z"
           fill="#ffffff"
           id="path553" />
        <path
           d="m 325.268,230.113 v 6.915 a 2.54,2.54 0 0 0 2.533,2.539 h 6.967 v 17.52 h -21.477 v -26.974 h 11.977 m 0.488,-1.513 H 312.8 a 1.023,1.023 0 0 0 -1.024,1.023 v 27.952 a 1.024,1.024 0 0 0 1.024,1.025 h 22.455 a 1.023,1.023 0 0 0 1.023,-1.023 v -18.5 a 1.023,1.023 0 0 0 -1.023,-1.024 H 327.8 a 1.023,1.023 0 0 1 -1.022,-1.025 v 0 -7.4 a 1.023,1.023 0 0 0 -1.021,-1.025 z"
           fill="url(#linear-gradient-4)"
           id="path555"
           style="fill:url(#linearGradient890)" />
        <path
           d="m 335.889,238.257 -9.463,-9.434 v 7.687 a 1.736,1.736 0 0 0 1.723,1.747 z"
           fill="#2e76bc"
           id="path557" />
      </g>
      <rect
         x="315.69601"
         y="242.25999"
         width="16.665001"
         height="2.2349999"
         rx="1.005"
         fill="#699cd3"
         id="rect561" />
      <rect
         x="315.69601"
         y="246.265"
         width="16.665001"
         height="2.2349999"
         rx="1.005"
         fill="#699cd3"
         id="rect563" />
      <rect
         x="315.69601"
         y="250.27"
         width="10.503"
         height="2.2349999"
         rx="1.005"
         fill="#699cd3"
         id="rect565" />
    </g>
  </g>
  <g
     id="abc3e3f9-d4db-41ad-8b60-378d1c3348f7-2"
     data-name="abc3e3f9-d4db-41ad-8b60-378d1c3348f7">
    <g
       id="g584">
      <g
         id="g576">
        <path
           d="m 128.579,55.534 h -12.768 a 1.008,1.008 0 0 0 -1.008,1.008 v 27.535 a 1.008,1.008 0 0 0 1.006,1.01 h 22.129 a 1.008,1.008 0 0 0 1,-1.01 V 65.856 a 1.008,1.008 0 0 0 -1,-1.01 h -7.344 a 1.009,1.009 0 0 1 -1,-1.009 v -7.293 a 1,1 0 0 0 -0.989,-1.01 z"
           fill="#ffffff"
           id="path570" />
        <path
           d="m 128.113,56.824 v 6.915 a 2.539,2.539 0 0 0 2.533,2.538 h 6.967 V 83.8 H 116.136 V 56.824 h 11.977 m 0.488,-1.513 h -12.953 a 1.024,1.024 0 0 0 -1.024,1.023 v 27.952 a 1.024,1.024 0 0 0 1.022,1.025 H 138.1 a 1.024,1.024 0 0 0 1.023,-1.024 v 0 -18.5 A 1.023,1.023 0 0 0 138.1,64.764 h -7.455 a 1.024,1.024 0 0 1 -1.022,-1.025 v 0 -7.4 a 1.022,1.022 0 0 0 -1.021,-1.025 z"
           fill="url(#linear-gradient-5)"
           id="path572"
           style="fill:url(#linear-gradient-5)" />
        <path
           d="m 138.734,64.967 -9.463,-9.433 v 7.687 a 1.734,1.734 0 0 0 1.723,1.746 z"
           fill="#2e76bc"
           id="path574" />
      </g>
      <rect
         x="118.541"
         y="68.971001"
         width="16.665001"
         height="2.2349999"
         rx="1.005"
         fill="#699cd3"
         id="rect578" />
      <rect
         x="118.541"
         y="72.975998"
         width="16.665001"
         height="2.2349999"
         rx="1.005"
         fill="#699cd3"
         id="rect580" />
      <rect
         x="118.541"
         y="76.981003"
         width="10.503"
         height="2.2349999"
         rx="1.005"
         fill="#699cd3"
         id="rect582" />
    </g>
  </g>
  <g
     id="abc3e3f9-d4db-41ad-8b60-378d1c3348f7-3"
     data-name="abc3e3f9-d4db-41ad-8b60-378d1c3348f7">
    <g
       id="g601">
      <g
         id="g593">
        <path
           d="M 164.78,55.534 H 152.011 A 1.008,1.008 0 0 0 151,56.542 v 27.535 a 1.008,1.008 0 0 0 1.007,1.01 h 22.128 a 1.008,1.008 0 0 0 1,-1.01 V 65.856 a 1.008,1.008 0 0 0 -1,-1.01 H 166.8 a 1.009,1.009 0 0 1 -1,-1.009 v -7.293 a 1,1 0 0 0 -0.99,-1.01 z"
           fill="#ffffff"
           id="path587" />
        <path
           d="m 164.313,56.824 v 6.915 a 2.54,2.54 0 0 0 2.533,2.538 h 6.967 V 83.8 H 152.336 V 56.824 h 11.977 m 0.488,-1.513 h -12.953 a 1.023,1.023 0 0 0 -1.023,1.023 v 27.952 a 1.023,1.023 0 0 0 1.021,1.025 H 174.3 a 1.025,1.025 0 0 0 1.024,-1.024 v 0 -18.5 A 1.024,1.024 0 0 0 174.3,64.764 h -7.455 a 1.023,1.023 0 0 1 -1.021,-1.025 v 0 -7.4 a 1.023,1.023 0 0 0 -1.022,-1.025 z"
           fill="url(#linear-gradient-6)"
           id="path589"
           style="fill:url(#linear-gradient-6)" />
        <path
           d="m 174.935,64.967 -9.464,-9.433 v 7.687 a 1.735,1.735 0 0 0 1.724,1.746 z"
           fill="#2e76bc"
           id="path591" />
      </g>
      <rect
         x="154.741"
         y="68.971001"
         width="16.665001"
         height="2.2349999"
         rx="1.005"
         fill="#699cd3"
         id="rect595" />
      <rect
         x="154.741"
         y="72.975998"
         width="16.665001"
         height="2.2349999"
         rx="1.005"
         fill="#699cd3"
         id="rect597" />
      <rect
         x="154.741"
         y="76.981003"
         width="10.503"
         height="2.2349999"
         rx="1.005"
         fill="#699cd3"
         id="rect599" />
    </g>
  </g>
  <g
     id="g613">
    <path
       d="m 325.794,71.229 h -12.829 a 1.006,1.006 0 0 0 -1.006,1.006 v 27.53 a 1.006,1.006 0 0 0 1.006,1.006 h 22.129 A 1.006,1.006 0 0 0 336.1,99.765 V 81.553 a 1.024,1.024 0 0 0 -1.006,-1.024 h -7.341 a 0.988,0.988 0 0 1 -1.006,-0.97 v -7.324 a 1.007,1.007 0 0 0 -0.953,-1.006 z"
       fill="#ffffff"
       id="path604" />
    <path
       d="m 325.265,72.518 v 6.917 a 2.54,2.54 0 0 0 2.541,2.524 h 6.97 V 99.482 H 313.282 V 72.518 h 11.983 M 325.794,71 h -12.988 a 1.024,1.024 0 0 0 -1.024,1.024 v 27.952 a 1.024,1.024 0 0 0 1.024,1.024 h 22.447 a 1.023,1.023 0 0 0 1.023,-1.024 V 81.482 a 1.023,1.023 0 0 0 -1.023,-1.023 h -7.447 a 1.024,1.024 0 0 1 -1.024,-1.024 V 72.024 A 1.023,1.023 0 0 0 325.794,71 Z"
       fill="url(#linear-gradient-7)"
       id="path606"
       style="fill:url(#linearGradient892)" />
    <path
       d="m 335.888,80.706 -9.459,-9.477 v 7.712 a 1.765,1.765 0 0 0 1.765,1.765 z"
       fill="#2e76bc"
       id="path608" />
    <path
       id="a6d81f9b-1c9b-4163-b425-427db8835c56"
       d="m 326.518,89.847 a 3.9,3.9 0 0 1 -5.171,0 l -0.318,6.406 a 0.512,0.512 0 0 0 0.883,0.388 l 1.976,-2.029 2.012,1.976 a 0.512,0.512 0 0 0 0.865,-0.388 z"
       fill="#b32025" />
    <ellipse
       id="f228121b-524c-412f-81f5-af7174f3554f"
       cx="323.99399"
       cy="86.546997"
       rx="4.6059999"
       ry="4.6240001"
       fill="#e52526" />
    <ellipse
       id="fd9247f0-1f16-45ab-bd99-d7272783472c"
       cx="323.99399"
       cy="86.546997"
       rx="3.494"
       ry="3.5120001"
       fill="#fed402" />
  </g>
  <g
     id="g629">
    <g
       id="g619">
      <rect
         x="15.508"
         y="21"
         width="43.282001"
         height="28.863001"
         rx="1.447"
         fill="url(#linear-gradient-8)"
         id="rect615"
         style="fill:url(#linear-gradient-8)" />
      <path
         d="m 45.844,58.6 c -4.29,-0.672 -4.445,-3.773 -4.445,-8.734 h -8.475 c 0,4.961 -0.155,8.062 -4.444,8.734 A 2.584,2.584 0 0 0 26.335,61 h 21.654 a 2.585,2.585 0 0 0 -2.145,-2.4 z"
         fill="url(#linear-gradient-9)"
         id="path617"
         style="fill:url(#linear-gradient-9)" />
    </g>
    <g
       id="g627">
      <path
         d="m 28.489,61 a 2.417,2.417 0 0 0 2.416,-2.417 v 0 a 0.792,0.792 0 0 0 0,-0.283 C 29.939,50.683 25.622,44.483 17.289,44.483 8.956,44.483 4.522,49.733 3.672,58.317 A 2.433,2.433 0 0 0 5.83,61 h 0.025 z"
         fill="url(#linear-gradient-10)"
         id="path621"
         style="fill:url(#linearGradient894)" />
      <path
         d="m 17.289,46.283 a 7.652,7.652 0 0 1 -4.134,-1.216 l 4.134,10.7 4.066,-10.634 a 7.541,7.541 0 0 1 -4.066,1.15 z"
         fill="#ffffff"
         opacity="0.8"
         style="isolation:isolate"
         id="path623" />
      <circle
         cx="17.305"
         cy="38.632999"
         r="7.6329999"
         fill="url(#linear-gradient-11)"
         id="circle625"
         style="fill:url(#linear-gradient-11)" />
    </g>
  </g>
  <g
     id="g642">
    <g
       id="abc3e3f9-d4db-41ad-8b60-378d1c3348f7-4"
       data-name="abc3e3f9-d4db-41ad-8b60-378d1c3348f7">
      <g
         id="g637">
        <path
           d="m 128.579,96.456 h -12.768 a 1.008,1.008 0 0 0 -1.008,1.008 V 125 a 1.008,1.008 0 0 0 1.006,1.01 h 22.129 a 1.008,1.008 0 0 0 1,-1.01 v -18.222 a 1.008,1.008 0 0 0 -1,-1.01 h -7.344 a 1.009,1.009 0 0 1 -1,-1.009 v -7.293 a 1,1 0 0 0 -0.989,-1.01 z"
           fill="#ffffff"
           id="path631" />
        <path
           d="m 128.113,97.746 v 6.915 a 2.539,2.539 0 0 0 2.533,2.538 h 6.967 v 17.52 H 116.136 V 97.746 h 11.977 m 0.488,-1.513 h -12.953 a 1.024,1.024 0 0 0 -1.024,1.023 v 27.952 a 1.024,1.024 0 0 0 1.022,1.025 H 138.1 a 1.024,1.024 0 0 0 1.023,-1.024 v 0 -18.5 a 1.023,1.023 0 0 0 -1.023,-1.023 h -7.455 a 1.024,1.024 0 0 1 -1.022,-1.025 v 0 -7.4 a 1.022,1.022 0 0 0 -1.021,-1.025 z"
           fill="url(#linear-gradient-12)"
           id="path633"
           style="fill:url(#linear-gradient-12)" />
        <path
           d="m 138.734,105.889 -9.463,-9.433 v 7.687 a 1.734,1.734 0 0 0 1.723,1.746 z"
           fill="#2e76bc"
           id="path635" />
      </g>
    </g>
    <path
       d="m 132.711,118.33 v 3.015 h -3.25 v -1.625 h -1.625 v -1.62 h -1.625 v -1.314 a 4.34,4.34 0 0 1 -2.031,0.5 4.422,4.422 0 0 1 -2.253,-0.61 4.488,4.488 0 0 1 -0.9,-0.7 4.6,4.6 0 0 1 -0.7,-0.908 4.245,4.245 0 0 1 -0.457,-1.068 4.743,4.743 0 0 1 -0.159,-1.187 4.429,4.429 0 0 1 0.61,-2.254 4.482,4.482 0 0 1 0.7,-0.9 4.6,4.6 0 0 1 0.908,-0.705 4.227,4.227 0 0 1 1.066,-0.45 4.7,4.7 0 0 1 1.187,-0.159 4.4,4.4 0 0 1 1.187,0.159 4.466,4.466 0 0 1 1.067,0.45 4.523,4.523 0 0 1 0.9,0.7 4.581,4.581 0 0 1 0.7,0.907 4.215,4.215 0 0 1 0.451,1.067 4.691,4.691 0 0 1 0.159,1.187 4.035,4.035 0 0 1 -0.051,0.641 4.358,4.358 0 0 1 -0.146,0.622 z m -0.812,0.343 -4.38,-4.38 a 5.928,5.928 0 0 0 0.228,-0.724 3.116,3.116 0 0 0 0.089,-0.755 3.576,3.576 0 0 0 -0.285,-1.422 3.635,3.635 0 0 0 -0.787,-1.162 3.769,3.769 0 0 0 -1.162,-0.78 3.623,3.623 0 0 0 -4.005,0.78 3.771,3.771 0 0 0 -0.781,1.162 3.62,3.62 0 0 0 0.781,4.005 3.755,3.755 0 0 0 1.161,0.781 3.613,3.613 0 0 0 3.7,-0.52 h 0.565 v 1.625 h 1.625 v 1.625 h 1.625 v 1.625 h 1.627 z m -8.938,-7.89 a 0.8,0.8 0 0 1 0.318,0.063 0.812,0.812 0 0 1 0.254,0.171 0.871,0.871 0 0 1 0.177,0.261 0.683,0.683 0 0 1 0.064,0.317 0.774,0.774 0 0 1 -0.064,0.317 0.8,0.8 0 0 1 -0.171,0.254 0.881,0.881 0 0 1 -0.26,0.178 0.69,0.69 0 0 1 -0.318,0.064 0.791,0.791 0 0 1 -0.317,-0.064 0.812,0.812 0 0 1 -0.254,-0.171 0.892,0.892 0 0 1 -0.178,-0.261 0.7,0.7 0 0 1 -0.063,-0.317 0.79,0.79 0 0 1 0.063,-0.317 0.82,0.82 0 0 1 0.172,-0.254 0.887,0.887 0 0 1 0.26,-0.178 0.672,0.672 0 0 1 0.317,-0.063 z"
       fill="#1f56a3"
       id="path640" />
  </g>
  <line
     x1="37.602001"
     y1="74.093002"
     x2="109.212"
     y2="74.093002"
     fill="none"
     stroke="#3c3c41"
     stroke-miterlimit="10"
     id="line644" />
  <g
     id="g650">
    <line
       x1="181.02299"
       y1="74.093002"
       x2="258.897"
       y2="74.093002"
       fill="none"
       stroke="#3c3c41"
       stroke-miterlimit="10"
       id="line646" />
    <polygon
       points="257.803,70.353 257.803,77.833 264.28,74.093 "
       fill="#3c3c41"
       id="polygon648" />
  </g>
  <g
     id="g656">
    <line
       x1="42.984001"
       y1="108.345"
       x2="109.212"
       y2="108.345"
       fill="none"
       stroke="#3c3c41"
       stroke-miterlimit="10"
       id="line652" />
    <polygon
       points="44.079,104.605 44.079,112.085 37.602,108.345 "
       fill="#3c3c41"
       id="polygon654" />
  </g>
  <line
     x1="144.825"
     y1="108.345"
     x2="264.28"
     y2="108.345"
     fill="none"
     stroke="#3c3c41"
     stroke-miterlimit="10"
     id="line658" />
  <g
     id="g671">
    <g
       id="abc3e3f9-d4db-41ad-8b60-378d1c3348f7-5"
       data-name="abc3e3f9-d4db-41ad-8b60-378d1c3348f7">
      <g
         id="g666">
        <path
           d="m 128.579,196.175 h -12.768 a 1.008,1.008 0 0 0 -1.008,1.008 v 27.535 a 1.008,1.008 0 0 0 1.006,1.01 h 22.129 a 1.008,1.008 0 0 0 1,-1.01 V 206.5 a 1.008,1.008 0 0 0 -1,-1.01 h -7.344 a 1.009,1.009 0 0 1 -1,-1.009 v -7.293 a 1,1 0 0 0 -0.989,-1.01 z"
           fill="#ffffff"
           id="path660" />
        <path
           d="m 128.113,197.465 v 6.915 a 2.538,2.538 0 0 0 2.533,2.538 h 6.967 v 17.52 h -21.477 v -26.973 h 11.977 m 0.488,-1.513 h -12.953 a 1.024,1.024 0 0 0 -1.024,1.023 v 27.952 a 1.024,1.024 0 0 0 1.022,1.025 H 138.1 a 1.023,1.023 0 0 0 1.023,-1.024 v 0 -18.5 a 1.023,1.023 0 0 0 -1.023,-1.023 h -7.455 a 1.024,1.024 0 0 1 -1.022,-1.025 v 0 -7.4 a 1.023,1.023 0 0 0 -1.021,-1.025 z"
           fill="url(#linear-gradient-13)"
           id="path662"
           style="fill:url(#linear-gradient-13)" />
        <path
           d="m 138.734,205.608 -9.463,-9.433 v 7.687 a 1.734,1.734 0 0 0 1.723,1.746 z"
           fill="#2e76bc"
           id="path664" />
      </g>
    </g>
    <path
       d="m 132.711,218.049 v 3.015 h -3.25 v -1.625 h -1.625 v -1.625 h -1.625 V 216.5 a 4.34,4.34 0 0 1 -2.031,0.5 4.422,4.422 0 0 1 -2.253,-0.61 4.488,4.488 0 0 1 -0.9,-0.7 4.6,4.6 0 0 1 -0.7,-0.908 4.229,4.229 0 0 1 -0.451,-1.066 4.743,4.743 0 0 1 -0.159,-1.187 4.422,4.422 0 0 1 0.61,-2.253 4.46,4.46 0 0 1 0.7,-0.9 4.559,4.559 0 0 1 0.908,-0.7 4.193,4.193 0 0 1 1.066,-0.451 4.7,4.7 0 0 1 1.187,-0.159 4.429,4.429 0 0 1 2.254,0.61 4.482,4.482 0 0 1 0.9,0.7 4.559,4.559 0 0 1 0.7,0.908 4.193,4.193 0 0 1 0.451,1.066 4.7,4.7 0 0 1 0.159,1.187 4.035,4.035 0 0 1 -0.051,0.641 4.358,4.358 0 0 1 -0.146,0.622 z m -0.812,0.343 -4.38,-4.38 a 5.873,5.873 0 0 0 0.228,-0.724 3.116,3.116 0 0 0 0.089,-0.755 3.576,3.576 0 0 0 -0.285,-1.422 3.646,3.646 0 0 0 -0.787,-1.162 3.769,3.769 0 0 0 -1.162,-0.78 3.623,3.623 0 0 0 -4.005,0.78 3.771,3.771 0 0 0 -0.781,1.162 3.62,3.62 0 0 0 0.781,4.005 3.738,3.738 0 0 0 1.161,0.781 3.613,3.613 0 0 0 3.7,-0.52 h 0.565 V 217 h 1.625 v 1.625 h 1.625 v 1.625 h 1.627 z m -8.938,-7.89 a 0.8,0.8 0 0 1 0.318,0.063 0.814,0.814 0 0 1 0.254,0.172 0.866,0.866 0 0 1 0.177,0.26 0.683,0.683 0 0 1 0.064,0.317 0.782,0.782 0 0 1 -0.064,0.318 0.8,0.8 0 0 1 -0.171,0.253 0.881,0.881 0 0 1 -0.26,0.178 0.69,0.69 0 0 1 -0.318,0.064 0.774,0.774 0 0 1 -0.317,-0.064 0.812,0.812 0 0 1 -0.254,-0.171 0.9,0.9 0 0 1 -0.178,-0.26 0.7,0.7 0 0 1 -0.063,-0.318 0.79,0.79 0 0 1 0.063,-0.317 0.82,0.82 0 0 1 0.172,-0.254 0.887,0.887 0 0 1 0.26,-0.178 0.685,0.685 0 0 1 0.317,-0.065 z"
       fill="#1f56a3"
       id="path669" />
  </g>
  <g
     id="g677">
    <line
       x1="37.602001"
       y1="208.064"
       x2="109.212"
       y2="208.064"
       fill="none"
       stroke="#fed402"
       stroke-miterlimit="10"
       stroke-width="6"
       id="line673" />
    <line
       x1="37.602001"
       y1="208.064"
       x2="109.212"
       y2="208.064"
       fill="none"
       stroke="#3c3c41"
       stroke-miterlimit="10"
       id="line675" />
  </g>
  <g
     id="g689">
    <g
       id="g683">
      <line
         x1="144.825"
         y1="208.877"
         x2="255.634"
         y2="208.877"
         fill="none"
         stroke="#fed402"
         stroke-miterlimit="10"
         stroke-width="6"
         id="line679" />
      <line
         x1="144.825"
         y1="208.877"
         x2="255.634"
         y2="208.877"
         fill="none"
         stroke="#3c3c41"
         stroke-miterlimit="10"
         id="line681" />
    </g>
    <polygon
       points="252.975,202.349 252.975,215.404 264.28,208.877 "
       fill="#fed402"
       id="polygon685" />
    <polygon
       points="252.975,204.377 252.975,213.377 260.768,208.877 "
       fill="#3c3c41"
       id="polygon687" />
  </g>
  <g
     id="Text">
    <g
       id="g714">
      <path
         d="M297.973,158.2h-5.838v-9.8h2.208v8.012h3.63Z"
         fill="#2f2f2f"
         id="path692" />
      <path
         d="M300.117,150.092a1.265,1.265,0,0,1-.9-.324,1.048,1.048,0,0,1-.348-.8,1.009,1.009,0,0,1,.348-.793,1.464,1.464,0,0,1,1.794,0,1.011,1.011,0,0,1,.346.793,1.041,1.041,0,0,1-.346.807A1.282,1.282,0,0,1,300.117,150.092Zm1.066,8.108h-2.16v-7h2.16Z"
         fill="#2f2f2f"
         id="path694" />
      <path
         d="M309.726,158.2h-2.153v-3.89q0-1.626-1.162-1.627a1.153,1.153,0,0,0-.923.431,1.639,1.639,0,0,0-.362,1.094V158.2h-2.161v-7h2.161v1.107h.027a2.476,2.476,0,0,1,2.249-1.278q2.324,0,2.324,2.885Z"
         fill="#2f2f2f"
         id="path696" />
      <path
         d="M318.08,158.2h-2.154v-1.067h-.034a2.443,2.443,0,0,1-2.139,1.238q-2.435,0-2.434-2.947V151.2h2.153v4.033q0,1.483,1.176,1.483a1.165,1.165,0,0,0,.93-.406,1.643,1.643,0,0,0,.348-1.1V151.2h2.154Z"
         fill="#2f2f2f"
         id="path698" />
      <path
         d="M326.666,151.2l-2.311,3.39,2.3,3.61h-2.488l-1.012-1.887a6.73,6.73,0,0,1-.294-.636h-.027a4.391,4.391,0,0,1-.281.615l-1.018,1.908H319.05l2.366-3.487-2.222-3.513h2.5l1,1.962a4.2,4.2,0,0,1,.28.656H323a4.42,4.42,0,0,1,.294-.67l1.018-1.948Z"
         fill="#2f2f2f"
         id="path700" />
      <path
         d="M331.041,158.015v-1.75a4.625,4.625,0,0,0,1.062.479,3.528,3.528,0,0,0,1,.157,2.138,2.138,0,0,0,.9-.157.508.508,0,0,0,.332-.479.445.445,0,0,0-.15-.342,1.4,1.4,0,0,0-.387-.239,4.346,4.346,0,0,0-.515-.184q-.282-.083-.54-.185a5.251,5.251,0,0,1-.736-.338,2.125,2.125,0,0,1-.533-.421,1.661,1.661,0,0,1-.328-.554,2.213,2.213,0,0,1-.112-.745,1.922,1.922,0,0,1,.255-1.011,2.1,2.1,0,0,1,.684-.694,3.144,3.144,0,0,1,.978-.4,5.119,5.119,0,0,1,1.145-.126,6.328,6.328,0,0,1,.943.072,6.978,6.978,0,0,1,.944.208v1.668a3.415,3.415,0,0,0-.879-.359,3.734,3.734,0,0,0-.919-.119,2.044,2.044,0,0,0-.4.037,1.3,1.3,0,0,0-.331.11.6.6,0,0,0-.226.184.423.423,0,0,0-.082.256.477.477,0,0,0,.123.329,1.056,1.056,0,0,0,.321.235,3.163,3.163,0,0,0,.441.178c.162.052.322.106.482.161a6.127,6.127,0,0,1,.779.328,2.473,2.473,0,0,1,.6.417,1.635,1.635,0,0,1,.383.56,2.235,2.235,0,0,1-.137,1.829,2.162,2.162,0,0,1-.718.718,3.242,3.242,0,0,1-1.032.4,5.672,5.672,0,0,1-1.213.127A6.251,6.251,0,0,1,331.041,158.015Z"
         fill="#2f2f2f"
         id="path702" />
      <path
         d="M343.99,155.315h-4.567q.111,1.524,1.921,1.524a3.746,3.746,0,0,0,2.031-.547v1.559a5.338,5.338,0,0,1-2.523.52,3.258,3.258,0,0,1-3.568-3.562,3.751,3.751,0,0,1,1.012-2.762,3.368,3.368,0,0,1,2.488-1.018,3.061,3.061,0,0,1,2.369.909,3.5,3.5,0,0,1,.837,2.468Zm-2-1.326q0-1.5-1.217-1.5a1.158,1.158,0,0,0-.9.431,1.95,1.95,0,0,0-.462,1.073Z"
         fill="#2f2f2f"
         id="path704" />
      <path
         d="M349.921,153.148a1.875,1.875,0,0,0-.909-.212,1.308,1.308,0,0,0-1.1.516,2.249,2.249,0,0,0-.4,1.405V158.2h-2.16v-7h2.16v1.3h.028a1.868,1.868,0,0,1,1.845-1.422,1.381,1.381,0,0,1,.533.082Z"
         fill="#2f2f2f"
         id="path706" />
      <path
         d="M358.02,151.2l-2.6,7h-2.461l-2.482-7h2.311L354,155.513a6.456,6.456,0,0,1,.239,1.244h.027a6.967,6.967,0,0,1,.253-1.2l1.244-4.354Z"
         fill="#2f2f2f"
         id="path708" />
      <path
         d="M365.007,155.315h-4.566q.11,1.524,1.921,1.524a3.745,3.745,0,0,0,2.03-.547v1.559a5.331,5.331,0,0,1-2.522.52,3.259,3.259,0,0,1-3.569-3.562,3.751,3.751,0,0,1,1.012-2.762,3.371,3.371,0,0,1,2.488-1.018,3.062,3.062,0,0,1,2.37.909,3.507,3.507,0,0,1,.836,2.468Zm-2-1.326q0-1.5-1.217-1.5a1.16,1.16,0,0,0-.9.431,1.957,1.957,0,0,0-.462,1.073Z"
         fill="#2f2f2f"
         id="path710" />
      <path
         d="M370.939,153.148a1.878,1.878,0,0,0-.909-.212,1.31,1.31,0,0,0-1.1.516,2.255,2.255,0,0,0-.4,1.405V158.2h-2.16v-7h2.16v1.3h.027a1.869,1.869,0,0,1,1.846-1.422,1.388,1.388,0,0,1,.533.082Z"
         fill="#2f2f2f"
         id="path712" />
    </g>
    <g
       id="g748">
      <path
         d="M292.135,16.1V6.3h3.473q5.221,0,5.223,4.778a4.831,4.831,0,0,1-1.426,3.657,5.253,5.253,0,0,1-3.8,1.368ZM294.343,8.1v6.214h1.094a2.955,2.955,0,0,0,2.252-.862,3.267,3.267,0,0,0,.817-2.345,2.965,2.965,0,0,0-.81-2.2,3.087,3.087,0,0,0-2.273-.8Z"
         fill="#2f2f2f"
         id="path716" />
      <path
         d="M305.575,16.272a3.768,3.768,0,0,1-2.752-.98,3.56,3.56,0,0,1-1-2.663,3.553,3.553,0,0,1,1.039-2.717,3.925,3.925,0,0,1,2.81-.981,3.717,3.717,0,0,1,2.734.981,3.487,3.487,0,0,1,.991,2.594,3.7,3.7,0,0,1-1.022,2.755A3.806,3.806,0,0,1,305.575,16.272Zm.055-5.687a1.44,1.44,0,0,0-1.19.526,2.32,2.32,0,0,0-.424,1.491q0,2.016,1.627,2.016,1.551,0,1.552-2.071Q307.2,10.585,305.63,10.585Z"
         fill="#2f2f2f"
         id="path718" />
      <path
         d="M321.891,16.1h-2.153V12.109q0-1.524-1.121-1.524a1.029,1.029,0,0,0-.868.458,1.884,1.884,0,0,0-.335,1.142V16.1h-2.16V12.068q0-1.482-1.1-1.483a1.056,1.056,0,0,0-.885.437,1.92,1.92,0,0,0-.332,1.19V16.1h-2.16v-7h2.16V10.2h.027a2.657,2.657,0,0,1,2.263-1.264,2.015,2.015,0,0,1,2.03,1.305,2.592,2.592,0,0,1,2.352-1.305q2.283,0,2.283,2.816Z"
         fill="#2f2f2f"
         id="path720" />
      <path
         d="M329.457,16.1h-2.044V15.1h-.028a2.28,2.28,0,0,1-2.085,1.175,2.181,2.181,0,0,1-1.6-.577,2.069,2.069,0,0,1-.585-1.542q0-2.037,2.413-2.351l1.9-.253q0-1.149-1.244-1.149a4.246,4.246,0,0,0-2.379.746V9.519a5.365,5.365,0,0,1,1.235-.411,6.506,6.506,0,0,1,1.425-.177q2.994,0,2.994,2.987Zm-2.031-2.844v-.472l-1.271.164q-1.051.138-1.053.95a.785.785,0,0,0,.257.605.981.981,0,0,0,.693.236,1.279,1.279,0,0,0,.992-.42A1.519,1.519,0,0,0,327.426,13.258Z"
         fill="#2f2f2f"
         id="path722" />
      <path
         d="M332.227,7.994a1.259,1.259,0,0,1-.895-.325,1.042,1.042,0,0,1-.349-.8,1.007,1.007,0,0,1,.349-.793,1.462,1.462,0,0,1,1.8,0,1.016,1.016,0,0,1,.344.793,1.046,1.046,0,0,1-.344.807A1.29,1.29,0,0,1,332.227,7.994Zm1.067,8.108h-2.161v-7h2.161Z"
         fill="#2f2f2f"
         id="path724" />
      <path
         d="M341.84,16.1h-2.153v-3.89q0-1.627-1.162-1.627a1.156,1.156,0,0,0-.923.431,1.641,1.641,0,0,0-.362,1.093V16.1h-2.16v-7h2.16v1.107h.027a2.477,2.477,0,0,1,2.249-1.278q2.325,0,2.324,2.884Z"
         fill="#2f2f2f"
         id="path726" />
      <path
         d="M297.228,32.648a4.267,4.267,0,0,1-2.112.424,3.569,3.569,0,0,1-2.611-.977,3.372,3.372,0,0,1-1-2.523,3.721,3.721,0,0,1,1.07-2.813,3.955,3.955,0,0,1,2.861-1.029,3.668,3.668,0,0,1,1.791.329v1.832a2.458,2.458,0,0,0-1.511-.506,1.99,1.99,0,0,0-1.473.543,2.027,2.027,0,0,0-.543,1.5,2,2,0,0,0,.519,1.459,1.911,1.911,0,0,0,1.429.53,2.847,2.847,0,0,0,1.579-.506Z"
         fill="#2f2f2f"
         id="path728" />
      <path
         d="M301.958,33.072a3.762,3.762,0,0,1-2.751-.981,3.553,3.553,0,0,1-1-2.662,3.556,3.556,0,0,1,1.039-2.718,3.932,3.932,0,0,1,2.809-.981,3.722,3.722,0,0,1,2.735.981,3.487,3.487,0,0,1,.991,2.6,3.7,3.7,0,0,1-1.022,2.755A3.8,3.8,0,0,1,301.958,33.072Zm.054-5.687a1.442,1.442,0,0,0-1.189.526,2.325,2.325,0,0,0-.424,1.49q0,2.017,1.627,2.017,1.552,0,1.552-2.071Q303.578,27.385,302.012,27.385Z"
         fill="#2f2f2f"
         id="path730" />
      <path
         d="M313.921,32.9h-2.154V29.012q0-1.628-1.162-1.627a1.152,1.152,0,0,0-.923.43,1.64,1.64,0,0,0-.362,1.094V32.9h-2.16v-7h2.16v1.108h.027A2.477,2.477,0,0,1,311.6,25.73q2.323,0,2.325,2.885Z"
         fill="#2f2f2f"
         id="path732" />
      <path
         d="M319.77,32.819a3.187,3.187,0,0,1-1.442.253q-2.284,0-2.283-2.372V27.494H314.91V25.9h1.135v-1.51l2.153-.616V25.9h1.572v1.593H318.2v2.83q0,1.093.868,1.094a1.466,1.466,0,0,0,.7-.2Z"
         fill="#2f2f2f"
         id="path734" />
      <path
         d="M325.686,27.85a1.867,1.867,0,0,0-.909-.212,1.31,1.31,0,0,0-1.1.516,2.253,2.253,0,0,0-.4,1.405V32.9h-2.16v-7h2.16v1.3h.027a1.869,1.869,0,0,1,1.846-1.422,1.408,1.408,0,0,1,.533.082Z"
         fill="#2f2f2f"
         id="path736" />
      <path
         d="M330.112,33.072a3.762,3.762,0,0,1-2.751-.981,3.553,3.553,0,0,1-1-2.662,3.56,3.56,0,0,1,1.039-2.718,3.932,3.932,0,0,1,2.81-.981,3.719,3.719,0,0,1,2.734.981,3.487,3.487,0,0,1,.991,2.6,3.707,3.707,0,0,1-1.021,2.755A3.809,3.809,0,0,1,330.112,33.072Zm.055-5.687a1.443,1.443,0,0,0-1.19.526,2.325,2.325,0,0,0-.424,1.49q0,2.017,1.627,2.017,1.552,0,1.552-2.071Q331.732,27.385,330.167,27.385Z"
         fill="#2f2f2f"
         id="path738" />
      <path
         d="M337.489,32.9h-2.16V22.538h2.16Z"
         fill="#2f2f2f"
         id="path740" />
      <path
         d="M341.414,32.9h-2.16V22.538h2.16Z"
         fill="#2f2f2f"
         id="path742" />
      <path
         d="M349.529,30.017h-4.566q.109,1.524,1.92,1.524a3.746,3.746,0,0,0,2.031-.547v1.559a5.339,5.339,0,0,1-2.523.519,3.257,3.257,0,0,1-3.568-3.561,3.749,3.749,0,0,1,1.012-2.762,3.369,3.369,0,0,1,2.488-1.019,3.062,3.062,0,0,1,2.369.91,3.5,3.5,0,0,1,.837,2.467Zm-2-1.327q0-1.5-1.217-1.5a1.16,1.16,0,0,0-.9.43,1.957,1.957,0,0,0-.462,1.073Z"
         fill="#2f2f2f"
         id="path744" />
      <path
         d="M355.461,27.85a1.871,1.871,0,0,0-.91-.212,1.308,1.308,0,0,0-1.1.516,2.247,2.247,0,0,0-.4,1.405V32.9h-2.16v-7h2.16v1.3h.028a1.868,1.868,0,0,1,1.845-1.422,1.41,1.41,0,0,1,.534.082Z"
         fill="#2f2f2f"
         id="path746" />
    </g>
    <g
       id="g774">
      <path
         d="M295.361,281.4H294.24v-4.019a3.026,3.026,0,0,0-.359-1.682,1.361,1.361,0,0,0-1.207-.519,1.491,1.491,0,0,0-1.219.656,2.508,2.508,0,0,0-.5,1.572V281.4h-1.121v-4.156q0-2.064-1.593-2.064a1.477,1.477,0,0,0-1.217.618,2.566,2.566,0,0,0-.478,1.61V281.4h-1.122v-7h1.122v1.108h.027a2.379,2.379,0,0,1,2.174-1.272,2.033,2.033,0,0,1,1.251.4,2.012,2.012,0,0,1,.731,1.05,2.5,2.5,0,0,1,2.324-1.45q2.311,0,2.311,2.851Z"
         fill="#2f2f2f"
         id="path750" />
      <path
         d="M297.013,281.147v-1.2a3.314,3.314,0,0,0,2.017.677q1.476,0,1.476-.984a.856.856,0,0,0-.126-.475,1.276,1.276,0,0,0-.342-.346,2.665,2.665,0,0,0-.506-.27c-.194-.079-.4-.163-.625-.249a7.942,7.942,0,0,1-.818-.373,2.442,2.442,0,0,1-.587-.424,1.562,1.562,0,0,1-.356-.536,1.915,1.915,0,0,1-.119-.7,1.669,1.669,0,0,1,.226-.872,1.992,1.992,0,0,1,.6-.636,2.822,2.822,0,0,1,.858-.386,3.831,3.831,0,0,1,1-.13,4.016,4.016,0,0,1,1.627.315v1.135a3.169,3.169,0,0,0-1.778-.506,2.1,2.1,0,0,0-.567.071,1.41,1.41,0,0,0-.435.2.95.95,0,0,0-.28.311.832.832,0,0,0-.1.4.973.973,0,0,0,.1.458,1.008,1.008,0,0,0,.291.328,2.2,2.2,0,0,0,.465.26c.182.078.39.162.622.253a8.594,8.594,0,0,1,.834.366,2.878,2.878,0,0,1,.629.423,1.661,1.661,0,0,1,.4.544,1.743,1.743,0,0,1,.141.731,1.715,1.715,0,0,1-.23.9,1.949,1.949,0,0,1-.611.635,2.808,2.808,0,0,1-.882.376,4.356,4.356,0,0,1-1.046.123A3.972,3.972,0,0,1,297.013,281.147Z"
         fill="#2f2f2f"
         id="path752" />
      <path
         d="M302.939,281.147v-1.2a3.314,3.314,0,0,0,2.017.677q1.476,0,1.476-.984a.856.856,0,0,0-.126-.475,1.276,1.276,0,0,0-.342-.346,2.655,2.655,0,0,0-.5-.27c-.195-.079-.4-.163-.626-.249a7.918,7.918,0,0,1-.817-.373,2.448,2.448,0,0,1-.588-.424,1.559,1.559,0,0,1-.355-.536,1.894,1.894,0,0,1-.12-.7,1.678,1.678,0,0,1,.225-.872,2.017,2.017,0,0,1,.6-.636,2.844,2.844,0,0,1,.858-.386,3.834,3.834,0,0,1,.994-.13,4.006,4.006,0,0,1,1.627.315v1.135a3.161,3.161,0,0,0-1.777-.506,2.115,2.115,0,0,0-.567.071,1.4,1.4,0,0,0-.434.2.928.928,0,0,0-.28.311.811.811,0,0,0-.1.4.949.949,0,0,0,.1.458,1,1,0,0,0,.29.328,2.25,2.25,0,0,0,.465.26q.273.117.622.253a8.594,8.594,0,0,1,.834.366,2.854,2.854,0,0,1,.629.423,1.678,1.678,0,0,1,.4.544,1.759,1.759,0,0,1,.14.731,1.724,1.724,0,0,1-.229.9,1.952,1.952,0,0,1-.612.635,2.789,2.789,0,0,1-.882.376,4.35,4.35,0,0,1-1.046.123A3.972,3.972,0,0,1,302.939,281.147Z"
         fill="#2f2f2f"
         id="path754" />
      <path
         d="M315.257,284.62h-1.121V280.2h-.027a2.508,2.508,0,0,1-2.393,1.367,2.637,2.637,0,0,1-2.116-.939,3.84,3.84,0,0,1-.8-2.561,4.187,4.187,0,0,1,.875-2.785,2.912,2.912,0,0,1,2.352-1.043,2.209,2.209,0,0,1,2.078,1.135h.027V274.4h1.121Zm-1.121-6.371V277.23a2.038,2.038,0,0,0-.564-1.456,1.89,1.89,0,0,0-1.432-.594,1.922,1.922,0,0,0-1.6.748,3.335,3.335,0,0,0-.588,2.109,2.889,2.889,0,0,0,.567,1.9,1.809,1.809,0,0,0,1.463.687,1.973,1.973,0,0,0,1.568-.673A2.5,2.5,0,0,0,314.136,278.249Z"
         fill="#2f2f2f"
         id="path756" />
      <path
         d="M318.484,281.4h-1.121V271.037h1.121Z"
         fill="#2f2f2f"
         id="path758" />
      <path
         d="M321.091,281.551a.723.723,0,0,1-.536-.226.741.741,0,0,1-.222-.54.755.755,0,0,1,.222-.543.719.719,0,0,1,.536-.229.736.736,0,0,1,.547.229.747.747,0,0,1,.226.543.734.734,0,0,1-.226.54A.741.741,0,0,1,321.091,281.551Z"
         fill="#2f2f2f"
         id="path760" />
      <path
         d="M329.5,281.4h-1.573l-3.089-3.363h-.028V281.4h-1.121V271.037h1.121v6.569h.028l2.939-3.206h1.47L326,277.777Z"
         fill="#2f2f2f"
         id="path762" />
      <path
         d="M335.921,278.181h-4.943a2.615,2.615,0,0,0,.629,1.8,2.165,2.165,0,0,0,1.654.636,3.444,3.444,0,0,0,2.174-.779V280.9a4.067,4.067,0,0,1-2.44.669,2.954,2.954,0,0,1-2.331-.953,3.9,3.9,0,0,1-.848-2.683,3.83,3.83,0,0,1,.926-2.663,2.972,2.972,0,0,1,2.3-1.029,2.634,2.634,0,0,1,2.126.889,3.706,3.706,0,0,1,.752,2.468Zm-1.149-.951a2.28,2.28,0,0,0-.469-1.51,1.593,1.593,0,0,0-1.281-.54,1.813,1.813,0,0,0-1.347.567,2.572,2.572,0,0,0-.683,1.483Z"
         fill="#2f2f2f"
         id="path764" />
      <path
         d="M343.12,274.4l-3.22,8.121q-.861,2.175-2.42,2.174a2.529,2.529,0,0,1-.731-.089v-1a2.073,2.073,0,0,0,.663.123,1.376,1.376,0,0,0,1.271-1.012l.561-1.326-2.735-6.987h1.245l1.893,5.387c.023.068.07.246.144.533h.041c.022-.109.068-.282.136-.519l1.99-5.4Z"
         fill="#2f2f2f"
         id="path766" />
      <path
         d="M348.038,281.332a2.164,2.164,0,0,1-1.046.219q-1.841,0-1.839-2.051v-4.143h-1.2V274.4h1.2v-1.709l1.121-.362V274.4h1.764v.957h-1.764V279.3a1.634,1.634,0,0,0,.239,1,.956.956,0,0,0,.793.3,1.181,1.181,0,0,0,.732-.232Z"
         fill="#2f2f2f"
         id="path768" />
      <path
         d="M354.655,281.4h-1.121v-1.093h-.028a2.348,2.348,0,0,1-2.153,1.257,2.305,2.305,0,0,1-1.638-.553,1.922,1.922,0,0,1-.59-1.47q0-1.962,2.31-2.283l2.1-.294q0-1.785-1.443-1.784a3.446,3.446,0,0,0-2.283.861v-1.148a4.334,4.334,0,0,1,2.379-.657q2.467,0,2.468,2.612Zm-1.121-3.541-1.689.233a2.729,2.729,0,0,0-1.175.386,1.113,1.113,0,0,0-.4.981,1.069,1.069,0,0,0,.365.837,1.413,1.413,0,0,0,.975.325,1.8,1.8,0,0,0,1.377-.584,2.091,2.091,0,0,0,.544-1.48Z"
         fill="#2f2f2f"
         id="path770" />
      <path
         d="M357.824,280.389H357.8V281.4h-1.121V271.037H357.8v4.594h.028a2.651,2.651,0,0,1,2.42-1.395,2.569,2.569,0,0,1,2.109.94,3.884,3.884,0,0,1,.762,2.519,4.33,4.33,0,0,1-.855,2.813,2.843,2.843,0,0,1-2.338,1.056A2.3,2.3,0,0,1,357.824,280.389Zm-.028-2.824v.978a2.081,2.081,0,0,0,.565,1.473,2.012,2.012,0,0,0,3.028-.174,3.577,3.577,0,0,0,.577-2.167,2.817,2.817,0,0,0-.54-1.832,1.785,1.785,0,0,0-1.463-.663,1.986,1.986,0,0,0-1.572.68A2.5,2.5,0,0,0,357.8,277.565Z"
         fill="#2f2f2f"
         id="path772" />
    </g>
    <g
       id="g782">
      <path
         d="M122.154,40.841h-2.83v8.764h-1.149V40.841h-2.823V39.8h6.8Z"
         fill="#2f2f2f"
         id="path776" />
      <path
         d="M130.46,48.935a6.56,6.56,0,0,1-3.282.834,4.483,4.483,0,0,1-3.393-1.353,4.966,4.966,0,0,1-1.3-3.583,5.094,5.094,0,0,1,1.439-3.735,4.905,4.905,0,0,1,3.647-1.46,6.208,6.208,0,0,1,2.686.52v1.271a5.16,5.16,0,0,0-2.816-.752,3.521,3.521,0,0,0-2.7,1.135,4.739,4.739,0,0,0-.075,5.862,3.429,3.429,0,0,0,2.652,1.063,4.1,4.1,0,0,0,1.989-.458V45.531h-2.146V44.492h3.3Z"
         fill="#2f2f2f"
         id="path778" />
      <path
         d="M138.423,40.841h-2.83v8.764h-1.148V40.841h-2.823V39.8h6.8Z"
         fill="#2f2f2f"
         id="path780" />
    </g>
    <g
       id="g790">
      <path
         d="M151.278,49.208V47.855a2.6,2.6,0,0,0,.558.369,4.434,4.434,0,0,0,.683.277,5.4,5.4,0,0,0,.721.174,4.032,4.032,0,0,0,.67.062,2.62,2.62,0,0,0,1.582-.393,1.475,1.475,0,0,0,.349-1.822,1.982,1.982,0,0,0-.482-.537,4.681,4.681,0,0,0-.729-.464c-.279-.148-.582-.3-.905-.469q-.513-.26-.957-.526a4.146,4.146,0,0,1-.772-.588,2.441,2.441,0,0,1-.516-.728,2.481,2.481,0,0,1,.106-2.119,2.5,2.5,0,0,1,.772-.817,3.514,3.514,0,0,1,1.091-.479,4.973,4.973,0,0,1,1.247-.157,4.767,4.767,0,0,1,2.112.349v1.292a3.828,3.828,0,0,0-2.228-.6,3.7,3.7,0,0,0-.752.079,2.123,2.123,0,0,0-.67.256,1.5,1.5,0,0,0-.479.458,1.217,1.217,0,0,0-.184.684,1.425,1.425,0,0,0,.139.649,1.618,1.618,0,0,0,.414.5,4.088,4.088,0,0,0,.666.438q.394.211.907.465t1,.546a4.625,4.625,0,0,1,.827.636,2.8,2.8,0,0,1,.563.773,2.155,2.155,0,0,1,.209.97,2.463,2.463,0,0,1-.283,1.227,2.332,2.332,0,0,1-.765.817,3.343,3.343,0,0,1-1.112.455,6.112,6.112,0,0,1-1.326.14,5.45,5.45,0,0,1-.574-.038c-.229-.024-.461-.061-.7-.109a5.714,5.714,0,0,1-.674-.178A2.077,2.077,0,0,1,151.278,49.208Z"
         fill="#2f2f2f"
         id="path784" />
      <path
         d="M160.112,45.9v3.7h-1.149V39.8h2.694a3.554,3.554,0,0,1,2.436.766,2.728,2.728,0,0,1,.866,2.16A2.971,2.971,0,0,1,164,45.011a3.665,3.665,0,0,1-2.594.889Zm0-5.059v4.02h1.2a2.686,2.686,0,0,0,1.815-.544,1.926,1.926,0,0,0,.625-1.534q0-1.943-2.3-1.942Z"
         fill="#2f2f2f"
         id="path786" />
      <path
         d="M174.414,49.605h-1.409l-5.044-7.813a3.284,3.284,0,0,1-.315-.616h-.041a9.988,9.988,0,0,1,.055,1.347v7.082h-1.149V39.8H168l4.908,7.691c.205.319.338.537.4.656h.028a10.435,10.435,0,0,1-.069-1.442V39.8h1.149Z"
         fill="#2f2f2f"
         id="path788" />
    </g>
  </g>
  <text
     xml:space="preserve"
     style="font-style:normal;font-weight:normal;font-size:13.3333px;line-height:0.25;font-family:sans-serif;letter-spacing:0.4px;fill:#000000;fill-opacity:1;stroke:none"
     x="17.786802"
     y="16.205183"
     id="text10820"><tspan
       sodipodi:role="line"
       id="tspan10818"
       x="17.786802"
       y="16.205183"
       style="font-style:normal;font-variant:normal;font-weight:bold;font-stretch:normal;font-size:13.3333px;font-family:Tahoma;-inkscape-font-specification:'Tahoma Bold'"
       dx="0.02">Client</tspan></text>
</svg>
