<?xml version="1.0" encoding="UTF-8" standalone="no"?>
<svg
   viewBox="0 0 385 300"
   version="1.1"
   id="svg1528"
   sodipodi:docname="ad_auth_explained_1.svg"
   inkscape:version="1.1.2 (b8e25be833, 2022-02-05)"
   xmlns:inkscape="http://www.inkscape.org/namespaces/inkscape"
   xmlns:sodipodi="http://sodipodi.sourceforge.net/DTD/sodipodi-0.dtd"
   xmlns:xlink="http://www.w3.org/1999/xlink"
   xmlns="http://www.w3.org/2000/svg"
   xmlns:svg="http://www.w3.org/2000/svg">
  <sodipodi:namedview
     id="namedview1530"
     pagecolor="#ffffff"
     bordercolor="#666666"
     borderopacity="1.0"
     inkscape:pageshadow="2"
     inkscape:pageopacity="0.0"
     inkscape:pagecheckerboard="0"
     showgrid="false"
     inkscape:zoom="1.265"
     inkscape:cx="-33.596838"
     inkscape:cy="129.24901"
     inkscape:window-width="1620"
     inkscape:window-height="1010"
     inkscape:window-x="-6"
     inkscape:window-y="-6"
     inkscape:window-maximized="1"
     inkscape:current-layer="svg1528" />
  <defs
     id="defs1248">
    <linearGradient
       id="linear-gradient"
       x1="270.686"
       y1="1779.05"
       x2="270.686"
       y2="1744.716"
       gradientTransform="matrix(1, 0, 0, -1, 0, 1920)"
       gradientUnits="userSpaceOnUse">
      <stop
         offset="0"
         stop-color="#b3b2b4"
         id="stop1184" />
      <stop
         offset="0.38"
         stop-color="#b0aeaf"
         id="stop1186" />
      <stop
         offset="0.76"
         stop-color="#a2a1a1"
         id="stop1188" />
      <stop
         offset="1"
         stop-color="#979797"
         id="stop1190" />
    </linearGradient>
    <linearGradient
       id="linear-gradient-2"
       x1="271.227"
       y1="1898.4"
       x2="271.227"
       y2="1862.4"
       xlink:href="#linear-gradient" />
    <linearGradient
       id="linear-gradient-3"
       x1="313.874"
       y1="1721.353"
       x2="336.498"
       y2="1721.353"
       gradientTransform="matrix(1,0,0,-1,0,1920)"
       gradientUnits="userSpaceOnUse">
      <stop
         offset="0"
         stop-color="#005ca1"
         id="stop1194" />
      <stop
         offset="0.07"
         stop-color="#0161aa"
         id="stop1196" />
      <stop
         offset="0.36"
         stop-color="#2571b8"
         id="stop1198" />
      <stop
         offset="0.52"
         stop-color="#2e76bc"
         id="stop1200" />
      <stop
         offset="0.64"
         stop-color="#2973ba"
         id="stop1202" />
      <stop
         offset="0.82"
         stop-color="#166bb5"
         id="stop1204" />
      <stop
         offset="1"
         stop-color="#005ca1"
         id="stop1206" />
    </linearGradient>
    <radialGradient
       id="radial-gradient"
       cx="325.821"
       cy="1720.629"
       r="12.476"
       gradientTransform="matrix(1,0,0,-1,0,1920)"
       gradientUnits="userSpaceOnUse">
      <stop
         offset="0"
         stop-color="#f2f2f3"
         id="stop1209" />
      <stop
         offset="0.58"
         stop-color="#eee"
         id="stop1211" />
      <stop
         offset="1"
         stop-color="#e6e6e6"
         id="stop1213" />
    </radialGradient>
    <linearGradient
       id="linear-gradient-4"
       x1="325.186"
       y1="1660.8"
       x2="325.186"
       y2="1690.8"
       gradientTransform="matrix(1, 0, 0, -1, 0, 1920)"
       gradientUnits="userSpaceOnUse">
      <stop
         offset="0"
         stop-color="#2e76bc"
         id="stop1216" />
      <stop
         offset="0.817"
         stop-color="#699cd3"
         id="stop1218" />
    </linearGradient>
    <linearGradient
       id="linear-gradient-5"
       x1="128.031"
       y1="1834.089"
       x2="128.031"
       y2="1864.089"
       xlink:href="#linear-gradient-4" />
    <linearGradient
       id="linear-gradient-6"
       x1="164.231"
       y1="1834.089"
       x2="164.231"
       y2="1864.089"
       xlink:href="#linear-gradient-4" />
    <linearGradient
       id="linear-gradient-7"
       x1="325.186"
       y1="1818.4"
       x2="325.186"
       y2="1848.4"
       gradientTransform="matrix(1, 0, 0, -1, 0, 1920)"
       gradientUnits="userSpaceOnUse">
      <stop
         offset="0"
         stop-color="#2e76bc"
         id="stop1223" />
      <stop
         offset="0.82"
         stop-color="#699cd3"
         id="stop1225" />
    </linearGradient>
    <linearGradient
       id="linear-gradient-8"
       x1="38.305"
       y1="1869.537"
       x2="38.305"
       y2="1898.4"
       xlink:href="#linear-gradient-7" />
    <linearGradient
       id="linear-gradient-9"
       x1="38.318"
       y1="1858.4"
       x2="38.318"
       y2="1869.537"
       gradientTransform="matrix(1,0,0,-1,0,1920)"
       gradientUnits="userSpaceOnUse">
      <stop
         offset="0.15"
         stop-color="#cccccb"
         id="stop1229" />
      <stop
         offset="1"
         stop-color="#707071"
         id="stop1231" />
    </linearGradient>
    <linearGradient
       id="linear-gradient-10"
       x1="18.444"
       y1="1876.933"
       x2="18.444"
       y2="1854.317"
       gradientTransform="matrix(1, 0, 0, -1, 0, 1920)"
       gradientUnits="userSpaceOnUse">
      <stop
         offset="0.22"
         stop-color="#50c8e9"
         id="stop1234" />
      <stop
         offset="0.47"
         stop-color="#4ac7e9"
         id="stop1236" />
      <stop
         offset="0.63"
         stop-color="#3bc4e7"
         id="stop1238" />
      <stop
         offset="0.77"
         stop-color="#2abade"
         id="stop1240" />
      <stop
         offset="0.89"
         stop-color="#21a5cb"
         id="stop1242" />
      <stop
         offset="1"
         stop-color="#1b8ab3"
         id="stop1244" />
    </linearGradient>
    <linearGradient
       id="linear-gradient-11"
       x1="17.795"
       y1="1889.067"
       x2="19.445"
       y2="1868.533"
       xlink:href="#linear-gradient-10" />
    <linearGradient
       inkscape:collect="always"
       xlink:href="#linear-gradient"
       id="linearGradient1612"
       gradientUnits="userSpaceOnUse"
       gradientTransform="matrix(1,0,0,-1,0,1920)"
       x1="270.686"
       y1="1779.05"
       x2="270.686"
       y2="1744.716" />
    <linearGradient
       inkscape:collect="always"
       xlink:href="#linear-gradient-4"
       id="linearGradient1614"
       gradientUnits="userSpaceOnUse"
       gradientTransform="matrix(1,0,0,-1,0,1920)"
       x1="325.186"
       y1="1660.8"
       x2="325.186"
       y2="1690.8" />
    <linearGradient
       inkscape:collect="always"
       xlink:href="#linear-gradient-7"
       id="linearGradient1616"
       gradientUnits="userSpaceOnUse"
       gradientTransform="matrix(1,0,0,-1,0,1920)"
       x1="325.186"
       y1="1818.4"
       x2="325.186"
       y2="1848.4" />
    <linearGradient
       inkscape:collect="always"
       xlink:href="#linear-gradient-10"
       id="linearGradient1618"
       gradientUnits="userSpaceOnUse"
       gradientTransform="matrix(1,0,0,-1,0,1920)"
       x1="18.444"
       y1="1876.933"
       x2="18.444"
       y2="1854.317" />
  </defs>
  <rect
     width="385"
     height="300"
     fill="#ffffff"
     id="rect1250"
     x="0"
     y="0" />
  <rect
     x="98.585999"
     y="31.6"
     width="92.400002"
     height="65.599998"
     fill="#fee452"
     opacity="0.35"
     id="rect1252" />
  <g
     id="g1258">
    <rect
       x="270.186"
       y="167.60001"
       width="110"
       height="127.6"
       fill="#ffffff"
       id="rect1254" />
    <rect
       x="270.186"
       y="167.60001"
       width="110"
       height="127.6"
       fill="#767676"
       opacity="0.3"
       id="rect1256" />
  </g>
  <g
     id="g1270">
    <path
       d="m 281.833,174.117 a 1.236,1.236 0 0 1 -1.285,1.166 h -19.724 a 1.237,1.237 0 0 1 -1.285,-1.166 v -32 a 1.237,1.237 0 0 1 1.285,-1.165 h 19.724 a 1.236,1.236 0 0 1 1.285,1.165 z"
       fill="url(#linear-gradient)"
       id="path1260"
       style="fill:url(#linearGradient1612)" />
    <path
       d="m 262.823,155.631 a 2.569,2.569 0 0 1 2.379,-2.689 h 11.135 a 2.57,2.57 0 0 1 2.379,2.689 v 0 a 2.545,2.545 0 0 1 -2.291,2.776 c -0.03,0 -0.059,0.006 -0.088,0.007 H 265.25 a 2.545,2.545 0 0 1 -2.38,-2.664 z"
       fill="#1e3465"
       id="path1262" />
    <path
       d="m 262.823,147.684 a 2.545,2.545 0 0 1 2.379,-2.665 h 11.135 a 2.545,2.545 0 0 1 2.379,2.665 v 0 a 2.569,2.569 0 0 1 -2.379,2.688 H 265.25 a 2.569,2.569 0 0 1 -2.38,-2.688 z"
       fill="#1e3465"
       id="path1264" />
    <circle
       cx="265.94"
       cy="147.68401"
       r="1.784"
       fill="#74cfeb"
       id="circle1266" />
    <circle
       cx="265.94"
       cy="155.631"
       r="1.784"
       fill="#74cfeb"
       id="circle1268" />
  </g>
  <g
     id="g1300">
    <rect
       x="270.186"
       y="40"
       width="110"
       height="88"
       fill="#ffffff"
       id="rect1296" />
    <rect
       x="270.186"
       y="40"
       width="110"
       height="88"
       fill="#767676"
       opacity="0.3"
       id="rect1298" />
  </g>
  <g
     id="g1306">
    <rect
       x="28.721001"
       y="35.599998"
       width="7.3179998"
       height="259.60001"
       fill="#ffffff"
       id="rect1302" />
    <rect
       x="28.721001"
       y="35.599998"
       width="7.3179998"
       height="259.60001"
       fill="#83b9f9"
       opacity="0.5"
       id="rect1304" />
  </g>
  <g
     id="g1318">
    <path
       d="m 282.914,56.377 a 1.3,1.3 0 0 1 -1.347,1.222 h -20.681 a 1.3,1.3 0 0 1 -1.347,-1.222 V 22.823 a 1.3,1.3 0 0 1 1.347,-1.222 h 20.681 a 1.3,1.3 0 0 1 1.347,1.222 z"
       fill="url(#linear-gradient-2)"
       id="path1308"
       style="fill:url(#linear-gradient-2)" />
    <path
       d="m 262.982,36.993 a 2.7,2.7 0 0 1 2.495,-2.819 h 11.675 a 2.694,2.694 0 0 1 2.494,2.819 v 0 a 2.669,2.669 0 0 1 -2.4,2.912 l -0.092,0.007 h -11.628 a 2.669,2.669 0 0 1 -2.494,-2.794 z"
       fill="#1e3465"
       id="path1310" />
    <path
       d="m 262.982,28.661 a 2.669,2.669 0 0 1 2.495,-2.794 h 11.675 a 2.669,2.669 0 0 1 2.494,2.794 v 0 a 2.694,2.694 0 0 1 -2.494,2.819 h -11.626 a 2.694,2.694 0 0 1 -2.494,-2.819 z"
       fill="#1e3465"
       id="path1312" />
    <circle
       cx="266.25"
       cy="28.660999"
       r="1.8710001"
       fill="#74cfeb"
       id="circle1314" />
    <circle
       cx="266.25"
       cy="36.993"
       r="1.8710001"
       fill="#74cfeb"
       id="circle1316" />
  </g>
  <g
     id="g1330">
    <path
       d="m 325.186,189.788 c -6.247,0 -11.312,-1.764 -11.312,-4.094 v 21.812 c 0,2.241 4.977,4.059 11.153,4.094 h 0.159 c 6.247,0 11.312,-1.765 11.312,-4.094 v -21.812 c 0.002,2.277 -5.065,4.094 -11.312,4.094 z"
       fill="url(#linear-gradient-3)"
       id="path1320"
       style="fill:url(#linear-gradient-3)" />
    <path
       d="m 336.5,185.694 c 0,2.277 -5.065,4.094 -11.312,4.094 -6.247,0 -11.312,-1.764 -11.312,-4.094 0,-2.33 5.065,-4.094 11.312,-4.094 6.247,0 11.312,1.765 11.312,4.094"
       fill="#e8e8e8"
       id="path1322" />
    <path
       d="m 333.868,185.359 c 0,1.447 -3.9,2.612 -8.682,2.612 -4.782,0 -8.683,-1.165 -8.683,-2.612 0,-1.447 3.9,-2.594 8.683,-2.594 4.783,0 8.682,1.164 8.682,2.594"
       fill="#74cfeb"
       id="path1324" />
    <path
       d="m 325.186,186.012 a 20.375,20.375 0 0 0 -6.865,1.006 20.175,20.175 0 0 0 6.865,0.953 19.692,19.692 0 0 0 6.865,-1.024 20.874,20.874 0 0 0 -6.865,-0.935 z"
       fill="#1b8ab3"
       id="path1326" />
    <path
       d="m 332.068,200.835 v -6 h -1.588 v 7.289 h 4.341 v -1.289 z m -12.6,-2.947 a 3.216,3.216 0 0 1 -0.9,-0.547 0.777,0.777 0 0 1 -0.212,-0.565 0.6,0.6 0 0 1 0.265,-0.529 1.2,1.2 0 0 1 0.741,-0.212 2.862,2.862 0 0 1 1.765,0.512 v -1.518 a 4.577,4.577 0 0 0 -1.765,-0.282 2.891,2.891 0 0 0 -1.923,0.6 1.9,1.9 0 0 0 -0.741,1.571 c 0,0.9 0.564,1.606 1.764,2.135 a 5.06,5.06 0 0 1 1.094,0.635 0.742,0.742 0 0 1 0.265,0.565 0.672,0.672 0 0 1 -0.282,0.547 1.425,1.425 0 0 1 -0.794,0.194 2.93,2.93 0 0 1 -1.924,-0.741 v 1.641 a 3.834,3.834 0 0 0 1.888,0.424 3.314,3.314 0 0 0 2.083,-0.583 1.906,1.906 0 0 0 0.582,-1.606 1.849,1.849 0 0 0 -0.441,-1.235 4.268,4.268 0 0 0 -1.465,-1.006 z m 9.247,2.806 a 3.863,3.863 0 0 0 0,-4.094 3.192,3.192 0 0 0 -1.235,-1.324 3.53,3.53 0 0 0 -1.765,-0.458 3.729,3.729 0 0 0 -1.906,0.476 3.289,3.289 0 0 0 -1.288,1.306 4.346,4.346 0 0 0 -0.459,2.012 3.986,3.986 0 0 0 0.424,1.764 3.1,3.1 0 0 0 1.217,1.306 3.641,3.641 0 0 0 1.765,0.53 l 1.518,1.764 h 2.135 l -2.17,-1.941 a 3.157,3.157 0 0 0 1.764,-1.341 z m -1.764,-0.441 a 1.664,1.664 0 0 1 -1.342,0.618 1.627,1.627 0 0 1 -1.341,-0.636 3.3,3.3 0 0 1 0,-3.529 1.765,1.765 0 0 1 1.377,-0.653 1.535,1.535 0 0 1 1.323,0.653 2.86,2.86 0 0 1 0.477,1.765 2.583,2.583 0 0 1 -0.494,1.782 z"
       fill="url(#radial-gradient)"
       id="path1328"
       style="fill:url(#radial-gradient)" />
  </g>
  <g
     id="abc3e3f9-d4db-41ad-8b60-378d1c3348f7">
    <g
       id="g1346">
      <g
         id="g1338">
        <path
           d="m 326.891,229.423 h -12.768 a 1.009,1.009 0 0 0 -1.009,1.009 v 0 27.534 a 1.008,1.008 0 0 0 1.007,1.01 h 22.128 a 1.009,1.009 0 0 0 1,-1.01 v -18.221 a 1.009,1.009 0 0 0 -1,-1.01 h -7.343 a 1.009,1.009 0 0 1 -1,-1.008 v -7.294 a 1,1 0 0 0 -0.99,-1.01 z"
           fill="#ffffff"
           id="path1332" />
        <path
           d="m 326.424,230.713 v 6.915 a 2.541,2.541 0 0 0 2.534,2.539 h 6.966 v 17.52 h -21.476 v -26.974 h 11.976 m 0.489,-1.513 h -12.954 a 1.023,1.023 0 0 0 -1.023,1.023 v 27.952 a 1.023,1.023 0 0 0 1.022,1.025 h 22.455 a 1.023,1.023 0 0 0 1.023,-1.023 v -18.5 a 1.023,1.023 0 0 0 -1.023,-1.024 h -7.455 a 1.023,1.023 0 0 1 -1.022,-1.025 v 0 -7.4 a 1.024,1.024 0 0 0 -1.022,-1.025 z"
           fill="url(#linear-gradient-4)"
           id="path1334"
           style="fill:url(#linearGradient1614)" />
        <path
           d="m 337.046,238.857 -9.463,-9.434 v 7.687 a 1.735,1.735 0 0 0 1.723,1.747 z"
           fill="#2e76bc"
           id="path1336" />
      </g>
      <rect
         x="316.853"
         y="242.86"
         width="16.665001"
         height="2.2349999"
         rx="1.005"
         fill="#699cd3"
         id="rect1340" />
      <rect
         x="316.853"
         y="246.86501"
         width="16.665001"
         height="2.2349999"
         rx="1.005"
         fill="#699cd3"
         id="rect1342" />
      <rect
         x="316.853"
         y="250.87"
         width="10.503"
         height="2.2349999"
         rx="1.005"
         fill="#699cd3"
         id="rect1344" />
    </g>
  </g>
  <g
     id="abc3e3f9-d4db-41ad-8b60-378d1c3348f7-2"
     data-name="abc3e3f9-d4db-41ad-8b60-378d1c3348f7">
    <g
       id="g1363">
      <g
         id="g1355">
        <path
           d="m 129.736,56.134 h -12.768 a 1.008,1.008 0 0 0 -1.009,1.008 v 27.535 a 1.008,1.008 0 0 0 1.007,1.01 h 22.128 a 1.007,1.007 0 0 0 1,-1.01 V 66.456 a 1.007,1.007 0 0 0 -1,-1.01 h -7.343 a 1.009,1.009 0 0 1 -1,-1.009 v -7.293 a 1,1 0 0 0 -0.99,-1.01 z"
           fill="#ffffff"
           id="path1349" />
        <path
           d="m 129.269,57.424 v 6.915 a 2.54,2.54 0 0 0 2.534,2.538 h 6.966 V 84.4 H 117.293 V 57.424 h 11.976 m 0.489,-1.513 H 116.8 a 1.023,1.023 0 0 0 -1.023,1.023 v 27.952 a 1.023,1.023 0 0 0 1.022,1.025 h 22.455 a 1.024,1.024 0 0 0 1.023,-1.024 v 0 -18.5 a 1.023,1.023 0 0 0 -1.023,-1.023 H 131.8 a 1.023,1.023 0 0 1 -1.022,-1.025 v 0 -7.4 a 1.023,1.023 0 0 0 -1.022,-1.025 z"
           fill="url(#linear-gradient-5)"
           id="path1351"
           style="fill:url(#linear-gradient-5)" />
        <path
           d="m 139.891,65.567 -9.463,-9.433 v 7.687 a 1.734,1.734 0 0 0 1.723,1.746 z"
           fill="#2e76bc"
           id="path1353" />
      </g>
      <rect
         x="119.698"
         y="69.570999"
         width="16.665001"
         height="2.2349999"
         rx="1.005"
         fill="#699cd3"
         id="rect1357" />
      <rect
         x="119.698"
         y="73.575996"
         width="16.665001"
         height="2.2349999"
         rx="1.005"
         fill="#699cd3"
         id="rect1359" />
      <rect
         x="119.698"
         y="77.581001"
         width="10.503"
         height="2.2349999"
         rx="1.005"
         fill="#699cd3"
         id="rect1361" />
    </g>
  </g>
  <g
     id="abc3e3f9-d4db-41ad-8b60-378d1c3348f7-3"
     data-name="abc3e3f9-d4db-41ad-8b60-378d1c3348f7">
    <g
       id="g1380">
      <g
         id="g1372">
        <path
           d="m 165.936,56.134 h -12.768 a 1.008,1.008 0 0 0 -1.009,1.008 v 27.535 a 1.009,1.009 0 0 0 1.007,1.01 h 22.128 a 1.007,1.007 0 0 0 1,-1.01 V 66.456 a 1.007,1.007 0 0 0 -1,-1.01 h -7.343 a 1.009,1.009 0 0 1 -1,-1.009 v -7.293 a 1,1 0 0 0 -0.99,-1.01 z"
           fill="#ffffff"
           id="path1366" />
        <path
           d="m 165.469,57.424 v 6.915 A 2.54,2.54 0 0 0 168,66.877 h 6.966 V 84.4 H 153.493 V 57.424 h 11.976 m 0.489,-1.513 H 153 a 1.023,1.023 0 0 0 -1.023,1.023 V 84.886 A 1.024,1.024 0 0 0 153,85.911 h 22.455 a 1.024,1.024 0 0 0 1.023,-1.024 v 0 -18.5 a 1.023,1.023 0 0 0 -1.023,-1.023 H 168 a 1.024,1.024 0 0 1 -1.022,-1.025 v 0 -7.4 a 1.023,1.023 0 0 0 -1.022,-1.025 z"
           fill="url(#linear-gradient-6)"
           id="path1368"
           style="fill:url(#linear-gradient-6)" />
        <path
           d="m 176.091,65.567 -9.463,-9.433 v 7.687 a 1.734,1.734 0 0 0 1.723,1.746 z"
           fill="#2e76bc"
           id="path1370" />
      </g>
      <rect
         x="155.89799"
         y="69.570999"
         width="16.665001"
         height="2.2349999"
         rx="1.005"
         fill="#699cd3"
         id="rect1374" />
      <rect
         x="155.89799"
         y="73.575996"
         width="16.665001"
         height="2.2349999"
         rx="1.005"
         fill="#699cd3"
         id="rect1376" />
      <rect
         x="155.89799"
         y="77.581001"
         width="10.503"
         height="2.2349999"
         rx="1.005"
         fill="#699cd3"
         id="rect1378" />
    </g>
  </g>
  <g
     id="g1392">
    <path
       d="m 326.951,71.829 h -12.83 a 1.007,1.007 0 0 0 -1.006,1.006 v 27.53 a 1.007,1.007 0 0 0 1.006,1.006 h 22.13 a 1.006,1.006 0 0 0 1,-1.006 V 82.153 a 1.023,1.023 0 0 0 -1,-1.024 h -7.342 a 0.988,0.988 0 0 1 -1.006,-0.97 v -7.324 a 1.006,1.006 0 0 0 -0.952,-1.006 z"
       fill="#ffffff"
       id="path1383" />
    <path
       d="m 326.421,73.118 v 6.917 a 2.542,2.542 0 0 0 2.541,2.524 h 6.971 v 17.523 H 314.439 V 73.118 h 11.982 m 0.53,-1.518 h -12.989 a 1.023,1.023 0 0 0 -1.023,1.024 v 27.952 a 1.023,1.023 0 0 0 1.023,1.024 h 22.447 a 1.023,1.023 0 0 0 1.024,-1.024 V 82.082 a 1.023,1.023 0 0 0 -1.024,-1.023 h -7.447 a 1.023,1.023 0 0 1 -1.023,-1.024 V 72.624 A 1.024,1.024 0 0 0 326.951,71.6 Z"
       fill="url(#linear-gradient-7)"
       id="path1385"
       style="fill:url(#linearGradient1616)" />
    <path
       d="m 337.045,81.306 -9.459,-9.477 v 7.712 a 1.765,1.765 0 0 0 1.765,1.765 z"
       fill="#2e76bc"
       id="path1387" />
    <path
       id="a6d81f9b-1c9b-4163-b425-427db8835c56"
       d="m 327.674,90.447 a 3.9,3.9 0 0 1 -5.171,0 l -0.317,6.406 a 0.511,0.511 0 0 0 0.882,0.388 l 1.977,-2.029 2.011,1.976 a 0.512,0.512 0 0 0 0.865,-0.388 z"
       fill="#b32025" />
    <ellipse
       id="f228121b-524c-412f-81f5-af7174f3554f"
       cx="325.151"
       cy="87.147003"
       rx="4.6059999"
       ry="4.6240001"
       fill="#e52526" />
    <ellipse
       id="fd9247f0-1f16-45ab-bd99-d7272783472c"
       cx="325.151"
       cy="87.147003"
       rx="3.494"
       ry="3.5120001"
       fill="#fed402" />
  </g>
  <g
     id="g1408">
    <g
       id="g1398">
      <rect
         x="16.664"
         y="21.6"
         width="43.282001"
         height="28.863001"
         rx="1.447"
         fill="url(#linear-gradient-8)"
         id="rect1394"
         style="fill:url(#linear-gradient-8)" />
      <path
         d="m 47,59.2 c -4.289,-0.672 -4.444,-3.773 -4.444,-8.734 h -8.475 c 0,4.961 -0.156,8.062 -4.445,8.734 a 2.584,2.584 0 0 0 -2.145,2.4 H 49.145 A 2.584,2.584 0 0 0 47,59.2 Z"
         fill="url(#linear-gradient-9)"
         id="path1396"
         style="fill:url(#linear-gradient-9)" />
    </g>
    <g
       id="g1406">
      <path
         d="m 29.645,61.6 a 2.417,2.417 0 0 0 2.417,-2.417 v 0 a 0.792,0.792 0 0 0 0,-0.283 C 31.095,51.283 26.778,45.083 18.445,45.083 c -8.333,0 -12.767,5.25 -13.617,13.834 A 2.433,2.433 0 0 0 6.986,61.6 h 0.026 z"
         fill="url(#linear-gradient-10)"
         id="path1400"
         style="fill:url(#linearGradient1618)" />
      <path
         d="m 18.445,46.883 a 7.649,7.649 0 0 1 -4.133,-1.216 l 4.133,10.7 4.067,-10.634 a 7.544,7.544 0 0 1 -4.067,1.15 z"
         fill="#ffffff"
         opacity="0.8"
         style="isolation:isolate"
         id="path1402" />
      <circle
         cx="18.462"
         cy="39.233002"
         r="7.6329999"
         fill="url(#linear-gradient-11)"
         id="circle1404"
         style="fill:url(#linear-gradient-11)" />
    </g>
  </g>
  <g
     id="g1414">
    <line
       x1="38.758999"
       y1="74.017998"
       x2="110.368"
       y2="74.017998"
       fill="none"
       stroke="#fed402"
       stroke-miterlimit="10"
       stroke-width="6"
       id="line1410" />
    <line
       x1="38.758999"
       y1="74.017998"
       x2="110.368"
       y2="74.017998"
       fill="none"
       stroke="#3c3c41"
       stroke-miterlimit="10"
       id="line1412" />
  </g>
  <g
     id="g1420">
    <line
       x1="180.976"
       y1="74.017998"
       x2="261.38599"
       y2="74.017998"
       fill="none"
       stroke="#fed402"
       stroke-miterlimit="10"
       stroke-width="6"
       id="line1416" />
    <line
       x1="180.976"
       y1="74.017998"
       x2="261.38599"
       y2="74.017998"
       fill="none"
       stroke="#3c3c41"
       stroke-miterlimit="10"
       id="line1418" />
  </g>
  <polygon
     points="258.727,67.491 258.727,80.546 270.031,74.018 "
     fill="#fed402"
     id="polygon1422" />
  <polygon
     points="258.727,69.518 258.727,78.518 266.52,74.018 "
     fill="#3c3c41"
     id="polygon1424" />
  <g
     id="g1449">
    <path
       d="m 299.13,158.8 h -5.838 V 149 h 2.208 v 8.012 h 3.63 z"
       fill="#2f2f2f"
       id="path1427" />
    <path
       d="m 301.273,150.692 a 1.262,1.262 0 0 1 -0.9,-0.324 1.049,1.049 0 0 1 -0.349,-0.8 1.011,1.011 0 0 1 0.349,-0.793 1.464,1.464 0 0 1 1.794,0 1.015,1.015 0 0 1 0.346,0.793 1.045,1.045 0 0 1 -0.346,0.807 1.284,1.284 0 0 1 -0.894,0.317 z m 1.067,8.108 h -2.16 v -7 h 2.16 z"
       fill="#2f2f2f"
       id="path1429" />
    <path
       d="m 310.883,158.8 h -2.154 v -3.89 q 0,-1.626 -1.162,-1.627 a 1.152,1.152 0 0 0 -0.922,0.431 1.639,1.639 0 0 0 -0.363,1.094 v 3.992 h -2.16 v -7 h 2.16 v 1.107 h 0.028 a 2.475,2.475 0 0 1 2.249,-1.278 q 2.323,0 2.324,2.885 z"
       fill="#2f2f2f"
       id="path1431" />
    <path
       d="m 319.236,158.8 h -2.153 v -1.067 h -0.034 a 2.444,2.444 0 0 1 -2.14,1.238 q -2.433,0 -2.433,-2.947 V 151.8 h 2.153 v 4.033 q 0,1.484 1.176,1.483 a 1.161,1.161 0 0 0 0.929,-0.406 1.637,1.637 0 0 0 0.349,-1.1 v -4.01 h 2.153 z"
       fill="#2f2f2f"
       id="path1433" />
    <path
       d="m 327.822,151.8 -2.31,3.39 2.3,3.61 h -2.492 l -1.011,-1.887 a 6.73,6.73 0 0 1 -0.294,-0.636 h -0.028 a 4.324,4.324 0 0 1 -0.28,0.616 l -1.019,1.907 h -2.481 l 2.365,-3.487 -2.221,-3.513 h 2.5 l 1,1.962 a 4.3,4.3 0 0 1 0.28,0.656 h 0.027 a 4.629,4.629 0 0 1 0.294,-0.67 l 1.019,-1.948 z"
       fill="#2f2f2f"
       id="path1435" />
    <path
       d="m 332.2,158.615 v -1.75 a 4.589,4.589 0 0 0 1.063,0.479 3.517,3.517 0 0 0 1,0.157 2.141,2.141 0 0 0 0.9,-0.157 0.507,0.507 0 0 0 0.332,-0.479 0.446,0.446 0 0 0 -0.15,-0.342 1.406,1.406 0 0 0 -0.387,-0.239 4.3,4.3 0 0 0 -0.516,-0.184 c -0.187,-0.055 -0.366,-0.117 -0.54,-0.185 a 5.289,5.289 0 0 1 -0.735,-0.338 2.125,2.125 0 0 1 -0.533,-0.421 1.656,1.656 0 0 1 -0.328,-0.553 2.217,2.217 0 0 1 -0.113,-0.746 1.913,1.913 0 0 1 0.257,-1.011 2.1,2.1 0 0 1 0.683,-0.694 3.144,3.144 0 0 1 0.978,-0.4 5.106,5.106 0 0 1 1.145,-0.126 6.328,6.328 0 0 1 0.943,0.072 7.084,7.084 0 0 1 0.943,0.208 v 1.668 a 3.394,3.394 0 0 0 -0.878,-0.359 3.74,3.74 0 0 0 -0.919,-0.119 2.044,2.044 0 0 0 -0.4,0.037 1.307,1.307 0 0 0 -0.332,0.11 0.592,0.592 0 0 0 -0.225,0.184 0.424,0.424 0 0 0 -0.082,0.257 0.476,0.476 0 0 0 0.123,0.328 1.052,1.052 0 0 0 0.321,0.235 3.114,3.114 0 0 0 0.441,0.178 q 0.242,0.078 0.482,0.161 a 6.127,6.127 0 0 1 0.779,0.328 2.493,2.493 0 0 1 0.6,0.417 1.63,1.63 0 0 1 0.383,0.561 2.243,2.243 0 0 1 -0.137,1.828 2.168,2.168 0 0 1 -0.717,0.718 3.267,3.267 0 0 1 -1.033,0.4 5.672,5.672 0 0 1 -1.213,0.127 6.261,6.261 0 0 1 -2.135,-0.35 z"
       fill="#2f2f2f"
       id="path1437" />
    <path
       d="m 345.147,155.915 h -4.566 q 0.108,1.524 1.92,1.524 a 3.759,3.759 0 0 0 2.031,-0.546 v 1.558 a 5.338,5.338 0 0 1 -2.523,0.52 3.258,3.258 0 0 1 -3.568,-3.562 3.746,3.746 0 0 1 1.012,-2.762 3.369,3.369 0 0 1 2.488,-1.018 3.061,3.061 0 0 1 2.369,0.909 3.5,3.5 0 0 1 0.837,2.468 z m -2,-1.326 q 0,-1.5 -1.217,-1.5 a 1.163,1.163 0 0 0 -0.9,0.431 1.956,1.956 0 0 0 -0.461,1.073 z"
       fill="#2f2f2f"
       id="path1439" />
    <path
       d="m 351.078,153.748 a 1.878,1.878 0 0 0 -0.909,-0.212 1.312,1.312 0 0 0 -1.1,0.516 2.255,2.255 0 0 0 -0.4,1.405 v 3.343 h -2.16 v -7 h 2.16 v 1.3 h 0.027 a 1.869,1.869 0 0 1 1.846,-1.422 1.381,1.381 0 0 1 0.533,0.082 z"
       fill="#2f2f2f"
       id="path1441" />
    <path
       d="m 359.177,151.8 -2.605,7 h -2.461 l -2.481,-7 h 2.31 l 1.217,4.313 a 6.234,6.234 0 0 1 0.239,1.244 h 0.028 a 7.063,7.063 0 0 1 0.253,-1.2 l 1.244,-4.354 z"
       fill="#2f2f2f"
       id="path1443" />
    <path
       d="M 366.165,155.915 H 361.6 q 0.109,1.524 1.921,1.524 a 3.753,3.753 0 0 0 2.03,-0.546 v 1.558 a 5.334,5.334 0 0 1 -2.522,0.52 3.259,3.259 0 0 1 -3.569,-3.562 3.751,3.751 0 0 1 1.012,-2.762 3.371,3.371 0 0 1 2.488,-1.018 3.06,3.06 0 0 1 2.369,0.909 3.5,3.5 0 0 1 0.838,2.468 z m -2,-1.326 q 0,-1.5 -1.217,-1.5 a 1.163,1.163 0 0 0 -0.9,0.431 1.957,1.957 0 0 0 -0.462,1.073 z"
       fill="#2f2f2f"
       id="path1445" />
    <path
       d="m 372.1,153.748 a 1.878,1.878 0 0 0 -0.909,-0.212 1.31,1.31 0 0 0 -1.1,0.516 2.255,2.255 0 0 0 -0.4,1.405 v 3.343 h -2.16 v -7 h 2.16 v 1.3 h 0.028 a 1.869,1.869 0 0 1 1.845,-1.422 1.387,1.387 0 0 1 0.534,0.082 z"
       fill="#2f2f2f"
       id="path1447" />
  </g>
  <g
     id="g1483">
    <path
       d="M 293.292,16.7 V 6.9 h 3.472 q 5.223,0 5.223,4.779 a 4.832,4.832 0 0 1 -1.425,3.657 5.255,5.255 0 0 1 -3.8,1.367 z m 2.208,-8 v 6.21 h 1.093 a 2.958,2.958 0 0 0 2.253,-0.861 3.271,3.271 0 0 0 0.817,-2.345 2.963,2.963 0 0 0 -0.81,-2.2 3.089,3.089 0 0 0 -2.273,-0.8 z"
       fill="#2f2f2f"
       id="path1451" />
    <path
       d="m 306.731,16.872 a 3.764,3.764 0 0 1 -2.752,-0.981 3.557,3.557 0 0 1 -1,-2.662 3.556,3.556 0 0 1 1.039,-2.718 3.926,3.926 0 0 1 2.81,-0.981 3.717,3.717 0 0 1 2.734,0.981 3.486,3.486 0 0 1 0.991,2.594 3.7,3.7 0 0 1 -1.022,2.755 3.8,3.8 0 0 1 -2.8,1.012 z m 0.055,-5.687 a 1.441,1.441 0 0 0 -1.19,0.526 2.319,2.319 0 0 0 -0.424,1.49 q 0,2.016 1.627,2.017 1.553,0 1.552,-2.072 0,-1.962 -1.565,-1.961 z"
       fill="#2f2f2f"
       id="path1453" />
    <path
       d="M 323.048,16.7 H 320.9 v -3.991 q 0,-1.524 -1.122,-1.524 a 1.028,1.028 0 0 0 -0.868,0.458 1.883,1.883 0 0 0 -0.335,1.141 V 16.7 h -2.16 v -4.032 q 0,-1.483 -1.1,-1.483 a 1.058,1.058 0 0 0 -0.886,0.437 1.926,1.926 0 0 0 -0.331,1.19 V 16.7 h -2.16 v -7 h 2.16 v 1.1 h 0.027 a 2.652,2.652 0 0 1 2.263,-1.265 2.015,2.015 0 0 1 2.03,1.306 2.589,2.589 0 0 1 2.352,-1.306 q 2.283,0 2.283,2.817 z"
       fill="#2f2f2f"
       id="path1455" />
    <path
       d="m 330.613,16.7 h -2.044 v -1 h -0.027 a 2.281,2.281 0 0 1 -2.085,1.176 2.178,2.178 0 0 1 -1.6,-0.578 2.066,2.066 0 0 1 -0.584,-1.541 q 0,-2.037 2.413,-2.352 l 1.9,-0.253 q 0,-1.148 -1.244,-1.148 a 4.253,4.253 0 0 0 -2.379,0.745 v -1.631 a 5.376,5.376 0 0 1 1.234,-0.41 6.459,6.459 0 0 1 1.425,-0.178 2.644,2.644 0 0 1 2.994,2.988 z m -2.03,-2.844 v -0.471 l -1.271,0.164 q -1.053,0.136 -1.053,0.95 a 0.784,0.784 0 0 0 0.256,0.605 0.986,0.986 0 0 0 0.694,0.236 1.276,1.276 0 0 0 0.991,-0.421 1.514,1.514 0 0 0 0.383,-1.062 z"
       fill="#2f2f2f"
       id="path1457" />
    <path
       d="m 333.384,8.594 a 1.265,1.265 0 0 1 -0.9,-0.325 1.046,1.046 0 0 1 -0.348,-0.8 1.009,1.009 0 0 1 0.348,-0.793 1.462,1.462 0 0 1 1.8,0 1.013,1.013 0 0 1 0.345,0.793 1.04,1.04 0 0 1 -0.345,0.806 1.282,1.282 0 0 1 -0.9,0.319 z m 1.066,8.106 h -2.16 v -7 h 2.16 z"
       fill="#2f2f2f"
       id="path1459" />
    <path
       d="m 343,16.7 h -2.153 v -3.888 q 0,-1.627 -1.162,-1.627 a 1.152,1.152 0 0 0 -0.923,0.43 1.639,1.639 0 0 0 -0.363,1.094 V 16.7 h -2.16 v -7 h 2.16 v 1.108 h 0.028 a 2.476,2.476 0 0 1 2.249,-1.279 Q 343,9.53 343,12.415 Z"
       fill="#2f2f2f"
       id="path1461" />
    <path
       d="m 298.384,33.248 a 4.267,4.267 0 0 1 -2.112,0.424 3.569,3.569 0 0 1 -2.611,-0.978 3.373,3.373 0 0 1 -1,-2.522 3.719,3.719 0 0 1 1.069,-2.813 3.955,3.955 0 0 1 2.861,-1.029 3.667,3.667 0 0 1 1.791,0.328 v 1.832 a 2.462,2.462 0 0 0 -1.51,-0.506 2,2 0 0 0 -1.474,0.544 2.027,2.027 0 0 0 -0.543,1.5 2,2 0 0 0 0.519,1.46 1.912,1.912 0 0 0 1.429,0.53 2.852,2.852 0 0 0 1.579,-0.506 z"
       fill="#2f2f2f"
       id="path1463" />
    <path
       d="m 303.114,33.672 a 3.762,3.762 0 0 1 -2.751,-0.981 3.556,3.556 0 0 1 -1,-2.663 3.559,3.559 0 0 1 1.039,-2.717 3.928,3.928 0 0 1 2.81,-0.981 3.715,3.715 0 0 1 2.734,0.981 3.487,3.487 0 0 1 0.992,2.594 3.7,3.7 0 0 1 -1.022,2.755 3.809,3.809 0 0 1 -2.802,1.012 z m 0.055,-5.688 a 1.443,1.443 0 0 0 -1.19,0.527 2.323,2.323 0 0 0 -0.423,1.49 q 0,2.016 1.627,2.017 1.551,0 1.551,-2.072 0,-1.962 -1.565,-1.962 z"
       fill="#2f2f2f"
       id="path1465" />
    <path
       d="m 315.077,33.5 h -2.154 v -3.89 q 0,-1.626 -1.162,-1.627 a 1.156,1.156 0 0 0 -0.923,0.431 1.644,1.644 0 0 0 -0.362,1.094 V 33.5 h -2.16 v -7 h 2.16 v 1.107 h 0.027 a 2.477,2.477 0 0 1 2.249,-1.278 q 2.325,0 2.325,2.885 z"
       fill="#2f2f2f"
       id="path1467" />
    <path
       d="m 320.926,33.419 a 3.2,3.2 0 0 1 -1.442,0.253 q -2.283,0 -2.283,-2.372 v -3.206 h -1.135 V 26.5 h 1.134 v -1.51 l 2.153,-0.615 V 26.5 h 1.572 v 1.593 h -1.572 v 2.83 q 0,1.093 0.868,1.094 a 1.453,1.453 0 0 0 0.7,-0.2 z"
       fill="#2f2f2f"
       id="path1469" />
    <path
       d="m 326.842,28.449 a 1.875,1.875 0 0 0 -0.909,-0.212 1.309,1.309 0 0 0 -1.1,0.516 2.251,2.251 0 0 0 -0.4,1.405 V 33.5 h -2.16 v -7 h 2.16 v 1.3 h 0.027 a 1.869,1.869 0 0 1 1.846,-1.422 1.381,1.381 0 0 1 0.533,0.082 z"
       fill="#2f2f2f"
       id="path1471" />
    <path
       d="m 331.269,33.672 a 3.764,3.764 0 0 1 -2.752,-0.981 3.56,3.56 0 0 1 -1,-2.663 3.556,3.556 0 0 1 1.039,-2.717 3.926,3.926 0 0 1 2.809,-0.981 3.719,3.719 0 0 1 2.735,0.981 3.49,3.49 0 0 1 0.991,2.594 3.7,3.7 0 0 1 -1.022,2.755 3.805,3.805 0 0 1 -2.8,1.012 z m 0.054,-5.688 A 1.441,1.441 0 0 0 330.134,28.511 2.317,2.317 0 0 0 329.71,30 q 0,2.016 1.627,2.017 1.553,0 1.552,-2.072 0,-1.961 -1.566,-1.961 z"
       fill="#2f2f2f"
       id="path1473" />
    <path
       d="m 338.646,33.5 h -2.161 V 23.138 h 2.161 z"
       fill="#2f2f2f"
       id="path1475" />
    <path
       d="m 342.57,33.5 h -2.16 V 23.138 h 2.16 z"
       fill="#2f2f2f"
       id="path1477" />
    <path
       d="m 350.686,30.616 h -4.567 q 0.109,1.524 1.921,1.525 a 3.754,3.754 0 0 0 2.03,-0.547 v 1.558 a 5.322,5.322 0 0 1 -2.522,0.52 3.259,3.259 0 0 1 -3.569,-3.562 3.747,3.747 0 0 1 1.012,-2.761 3.368,3.368 0 0 1 2.488,-1.019 3.06,3.06 0 0 1 2.369,0.909 3.5,3.5 0 0 1 0.838,2.468 z m -2,-1.326 q 0,-1.5 -1.217,-1.5 a 1.163,1.163 0 0 0 -0.9,0.431 1.957,1.957 0 0 0 -0.462,1.073 z"
       fill="#2f2f2f"
       id="path1479" />
    <path
       d="m 356.617,28.449 a 1.878,1.878 0 0 0 -0.909,-0.212 1.31,1.31 0 0 0 -1.1,0.516 2.257,2.257 0 0 0 -0.4,1.405 V 33.5 h -2.16 v -7 h 2.16 v 1.3 h 0.028 a 1.869,1.869 0 0 1 1.845,-1.422 1.387,1.387 0 0 1 0.534,0.082 z"
       fill="#2f2f2f"
       id="path1481" />
  </g>
  <g
     id="g1509">
    <path
       d="M 296.518,282 H 295.4 v -4.02 a 3.033,3.033 0 0 0 -0.359,-1.681 1.362,1.362 0 0 0 -1.206,-0.52 1.494,1.494 0 0 0 -1.221,0.657 2.508,2.508 0 0 0 -0.5,1.572 V 282 h -1.121 v -4.156 q 0,-2.065 -1.593,-2.065 a 1.475,1.475 0 0 0 -1.217,0.619 2.558,2.558 0 0 0 -0.478,1.61 V 282 h -1.121 v -7 h 1.116 v 1.107 h 0.027 a 2.379,2.379 0 0 1 2.174,-1.271 2.021,2.021 0 0 1 1.982,1.449 2.5,2.5 0 0 1 2.325,-1.449 q 2.31,0 2.31,2.851 z"
       fill="#2f2f2f"
       id="path1485" />
    <path
       d="m 298.17,281.747 v -1.2 a 3.32,3.32 0 0 0 2.017,0.677 q 1.476,0 1.476,-0.985 a 0.856,0.856 0 0 0 -0.126,-0.475 1.273,1.273 0 0 0 -0.342,-0.345 2.665,2.665 0 0 0 -0.506,-0.27 c -0.194,-0.08 -0.4,-0.163 -0.626,-0.25 a 8.02,8.02 0 0 1 -0.816,-0.372 2.483,2.483 0 0 1 -0.588,-0.424 1.566,1.566 0 0 1 -0.356,-0.537 1.911,1.911 0 0 1 -0.119,-0.7 1.674,1.674 0 0 1 0.225,-0.871 2.006,2.006 0 0 1 0.6,-0.636 2.774,2.774 0 0 1 0.858,-0.386 3.781,3.781 0 0 1 0.994,-0.13 4.026,4.026 0 0 1 1.627,0.314 v 1.135 a 3.171,3.171 0 0 0 -1.777,-0.506 2.064,2.064 0 0 0 -0.567,0.072 1.387,1.387 0 0 0 -0.435,0.2 0.93,0.93 0 0 0 -0.28,0.311 0.818,0.818 0 0 0 -0.1,0.4 0.961,0.961 0 0 0 0.1,0.458 1.008,1.008 0 0 0 0.291,0.328 2.2,2.2 0 0 0 0.465,0.26 q 0.273,0.115 0.622,0.252 a 8.961,8.961 0 0 1 0.834,0.366 2.884,2.884 0 0 1 0.628,0.424 1.629,1.629 0 0 1 0.4,0.544 1.923,1.923 0 0 1 -0.088,1.633 1.956,1.956 0 0 1 -0.612,0.636 2.832,2.832 0 0 1 -0.882,0.376 4.356,4.356 0 0 1 -1.046,0.123 3.972,3.972 0 0 1 -1.871,-0.422 z"
       fill="#2f2f2f"
       id="path1487" />
    <path
       d="m 304.1,281.747 v -1.2 a 3.32,3.32 0 0 0 2.017,0.677 q 1.476,0 1.476,-0.985 a 0.856,0.856 0 0 0 -0.126,-0.475 1.259,1.259 0 0 0 -0.342,-0.345 2.634,2.634 0 0 0 -0.506,-0.27 q -0.291,-0.12 -0.625,-0.25 a 8.145,8.145 0 0 1 -0.817,-0.372 2.483,2.483 0 0 1 -0.588,-0.424 1.58,1.58 0 0 1 -0.356,-0.537 1.911,1.911 0 0 1 -0.119,-0.7 1.674,1.674 0 0 1 0.225,-0.871 2.017,2.017 0 0 1 0.6,-0.636 2.8,2.8 0 0 1 0.858,-0.386 3.788,3.788 0 0 1 1,-0.13 4.029,4.029 0 0 1 1.627,0.314 v 1.135 a 3.177,3.177 0 0 0 -1.778,-0.506 2.069,2.069 0 0 0 -0.567,0.072 1.371,1.371 0 0 0 -0.434,0.2 0.923,0.923 0 0 0 -0.281,0.311 0.829,0.829 0 0 0 -0.1,0.4 0.973,0.973 0 0 0 0.1,0.458 1.019,1.019 0 0 0 0.291,0.328 2.225,2.225 0 0 0 0.465,0.26 q 0.273,0.115 0.622,0.252 a 8.846,8.846 0 0 1 0.834,0.366 2.916,2.916 0 0 1 0.629,0.424 1.657,1.657 0 0 1 0.4,0.544 1.756,1.756 0 0 1 0.14,0.731 1.721,1.721 0 0 1 -0.229,0.9 1.956,1.956 0 0 1 -0.612,0.636 2.812,2.812 0 0 1 -0.882,0.376 4.35,4.35 0 0 1 -1.046,0.123 3.972,3.972 0 0 1 -1.876,-0.42 z"
       fill="#2f2f2f"
       id="path1489" />
    <path
       d="m 316.414,285.22 h -1.121 v -4.42 h -0.027 a 2.51,2.51 0 0 1 -2.393,1.367 2.635,2.635 0 0 1 -2.116,-0.94 3.837,3.837 0 0 1 -0.8,-2.56 4.19,4.19 0 0 1 0.875,-2.786 2.914,2.914 0 0 1 2.352,-1.042 2.207,2.207 0 0 1 2.078,1.135 h 0.027 V 275 h 1.121 z m -1.121,-6.371 v -1.019 a 2.038,2.038 0 0 0 -0.564,-1.456 1.891,1.891 0 0 0 -1.432,-0.6 1.927,1.927 0 0 0 -1.6,0.749 3.341,3.341 0 0 0 -0.588,2.109 2.891,2.891 0 0 0 0.568,1.9 1.809,1.809 0 0 0 1.463,0.687 1.97,1.97 0 0 0 1.568,-0.674 2.494,2.494 0 0 0 0.585,-1.696 z"
       fill="#2f2f2f"
       id="path1491" />
    <path
       d="m 319.641,282 h -1.121 v -10.363 h 1.121 z"
       fill="#2f2f2f"
       id="path1493" />
    <path
       d="m 322.249,282.15 a 0.727,0.727 0 0 1 -0.537,-0.225 0.745,0.745 0 0 1 -0.222,-0.54 0.755,0.755 0 0 1 0.222,-0.544 0.719,0.719 0 0 1 0.537,-0.229 0.736,0.736 0 0 1 0.546,0.229 0.747,0.747 0 0 1 0.226,0.544 0.77,0.77 0 0 1 -0.772,0.765 z"
       fill="#2f2f2f"
       id="path1495" />
    <path
       d="m 330.653,282 h -1.572 l -3.09,-3.363 h -0.028 V 282 h -1.121 v -10.363 h 1.121 v 6.569 h 0.028 L 328.93,275 h 1.47 l -3.247,3.377 z"
       fill="#2f2f2f"
       id="path1497" />
    <path
       d="m 337.077,278.78 h -4.942 a 2.617,2.617 0 0 0 0.629,1.805 2.167,2.167 0 0 0 1.654,0.636 3.437,3.437 0 0 0 2.174,-0.78 v 1.053 a 4.061,4.061 0 0 1 -2.441,0.67 2.959,2.959 0 0 1 -2.331,-0.954 3.9,3.9 0 0 1 -0.847,-2.683 3.824,3.824 0 0 1 0.926,-2.662 2.97,2.97 0 0 1 2.3,-1.029 2.63,2.63 0 0 1 2.126,0.889 3.7,3.7 0 0 1 0.752,2.467 z m -1.148,-0.95 a 2.282,2.282 0 0 0 -0.469,-1.511 1.593,1.593 0 0 0 -1.281,-0.54 1.809,1.809 0 0 0 -1.347,0.568 2.576,2.576 0 0 0 -0.684,1.483 z"
       fill="#2f2f2f"
       id="path1499" />
    <path
       d="m 344.276,275 -3.219,8.121 q -0.862,2.173 -2.42,2.174 a 2.576,2.576 0 0 1 -0.732,-0.089 v -1 a 2.083,2.083 0 0 0 0.663,0.123 1.375,1.375 0 0 0 1.272,-1.012 l 0.56,-1.326 -2.734,-6.991 h 1.244 l 1.894,5.387 q 0.035,0.1 0.143,0.533 h 0.041 c 0.023,-0.109 0.069,-0.283 0.137,-0.52 l 1.989,-5.4 z"
       fill="#2f2f2f"
       id="path1501" />
    <path
       d="m 349.194,281.932 a 2.157,2.157 0 0 1 -1.046,0.218 q -1.839,0 -1.838,-2.05 v -4.143 h -1.2 V 275 h 1.2 v -1.709 l 1.121,-0.362 V 275 h 1.763 v 0.957 h -1.763 v 3.943 a 1.63,1.63 0 0 0 0.239,1 0.954,0.954 0 0 0 0.793,0.3 1.182,1.182 0 0 0 0.731,-0.232 z"
       fill="#2f2f2f"
       id="path1503" />
    <path
       d="m 355.812,282 h -1.122 v -1.094 h -0.027 a 2.346,2.346 0 0 1 -2.153,1.258 2.3,2.3 0 0 1 -1.637,-0.554 1.919,1.919 0 0 1 -0.592,-1.469 q 0,-1.962 2.311,-2.284 l 2.1,-0.294 q 0,-1.783 -1.442,-1.784 a 3.442,3.442 0 0 0 -2.283,0.862 v -1.149 a 4.342,4.342 0 0 1 2.379,-0.656 q 2.467,0 2.468,2.611 z m -1.122,-3.541 -1.688,0.232 a 2.733,2.733 0 0 0 -1.176,0.387 1.113,1.113 0 0 0 -0.4,0.981 1.07,1.07 0 0 0 0.365,0.837 1.418,1.418 0 0 0 0.975,0.325 1.8,1.8 0 0 0 1.377,-0.585 2.088,2.088 0 0 0 0.543,-1.48 z"
       fill="#2f2f2f"
       id="path1505" />
    <path
       d="m 358.981,280.988 h -0.027 V 282 h -1.121 v -10.363 h 1.121 v 4.593 h 0.027 a 2.651,2.651 0 0 1 2.42,-1.394 2.566,2.566 0 0 1 2.109,0.94 3.88,3.88 0 0 1 0.762,2.519 4.337,4.337 0 0 1 -0.855,2.813 2.844,2.844 0 0 1 -2.337,1.056 2.3,2.3 0 0 1 -2.099,-1.176 z m -0.027,-2.823 v 0.978 a 2.083,2.083 0 0 0 0.564,1.473 2.011,2.011 0 0 0 3.028,-0.175 3.573,3.573 0 0 0 0.578,-2.167 2.823,2.823 0 0 0 -0.541,-1.832 1.785,1.785 0 0 0 -1.462,-0.663 1.989,1.989 0 0 0 -1.573,0.68 2.5,2.5 0 0 0 -0.594,1.706 z"
       fill="#2f2f2f"
       id="path1507" />
  </g>
  <g
     id="g1517">
    <path
       d="m 123.311,41.441 h -2.831 v 8.764 h -1.148 v -8.764 h -2.823 V 40.4 h 6.8 z"
       fill="#2f2f2f"
       id="path1511" />
    <path
       d="m 131.617,49.535 a 6.557,6.557 0 0 1 -3.282,0.834 4.487,4.487 0 0 1 -3.394,-1.354 4.966,4.966 0 0 1 -1.3,-3.582 5.1,5.1 0 0 1 1.439,-3.736 4.9,4.9 0 0 1 3.647,-1.459 6.209,6.209 0 0 1 2.686,0.519 v 1.272 a 5.151,5.151 0 0 0 -2.816,-0.752 3.517,3.517 0 0 0 -2.7,1.135 4.737,4.737 0 0 0 -0.075,5.861 3.424,3.424 0 0 0 2.652,1.063 4.087,4.087 0 0 0 1.989,-0.458 V 46.13 h -2.146 v -1.039 h 3.295 z"
       fill="#2f2f2f"
       id="path1513" />
    <path
       d="m 139.581,41.441 h -2.831 v 8.764 h -1.15 v -8.764 h -2.823 V 40.4 h 6.8 z"
       fill="#2f2f2f"
       id="path1515" />
  </g>
  <g
     id="g1525">
    <path
       d="m 152.435,49.808 v -1.353 a 2.641,2.641 0 0 0 0.557,0.369 4.623,4.623 0 0 0 0.683,0.277 5.515,5.515 0 0 0 0.721,0.174 4.025,4.025 0 0 0 0.67,0.061 2.619,2.619 0 0 0 1.583,-0.393 1.474,1.474 0 0 0 0.351,-1.821 1.982,1.982 0 0 0 -0.482,-0.537 4.766,4.766 0 0 0 -0.728,-0.465 c -0.281,-0.148 -0.582,-0.3 -0.906,-0.468 q -0.513,-0.26 -0.957,-0.527 a 4.108,4.108 0 0 1 -0.773,-0.587 2.49,2.49 0 0 1 -0.516,-0.728 2.483,2.483 0 0 1 0.106,-2.12 2.523,2.523 0 0 1 0.773,-0.816 3.475,3.475 0 0 1 1.09,-0.479 4.987,4.987 0 0 1 1.248,-0.157 4.787,4.787 0 0 1 2.112,0.348 v 1.292 a 3.838,3.838 0 0 0 -2.229,-0.6 3.7,3.7 0 0 0 -0.752,0.078 2.134,2.134 0 0 0 -0.67,0.257 1.485,1.485 0 0 0 -0.478,0.458 1.214,1.214 0 0 0 -0.185,0.683 1.4,1.4 0 0 0 0.141,0.65 1.6,1.6 0 0 0 0.413,0.5 4.078,4.078 0 0 0 0.667,0.437 c 0.262,0.141 0.564,0.3 0.9,0.465 0.336,0.165 0.684,0.356 1,0.547 a 4.508,4.508 0 0 1 0.828,0.636 2.867,2.867 0 0 1 0.564,0.772 2.173,2.173 0 0 1 0.208,0.971 2.463,2.463 0 0 1 -0.284,1.227 2.331,2.331 0 0 1 -0.765,0.817 3.38,3.38 0 0 1 -1.111,0.455 6.112,6.112 0 0 1 -1.326,0.14 5.45,5.45 0 0 1 -0.575,-0.038 q -0.342,-0.038 -0.7,-0.109 a 5.646,5.646 0 0 1 -0.673,-0.178 2.078,2.078 0 0 1 -0.505,-0.238 z"
       fill="#2f2f2f"
       id="path1519" />
    <path
       d="m 161.269,46.5 v 3.7 h -1.149 v -9.8 h 2.693 a 3.555,3.555 0 0 1 2.437,0.765 2.734,2.734 0 0 1 0.865,2.161 2.972,2.972 0 0 1 -0.96,2.283 3.671,3.671 0 0 1 -2.594,0.889 z m 0,-5.059 v 4.019 h 1.2 a 2.692,2.692 0 0 0 1.815,-0.543 1.924,1.924 0 0 0 0.625,-1.535 q 0,-1.941 -2.3,-1.941 z"
       fill="#2f2f2f"
       id="path1521" />
    <path
       d="m 175.571,50.205 h -1.408 l -5.045,-7.814 a 3.247,3.247 0 0 1 -0.315,-0.615 h -0.041 a 9.977,9.977 0 0 1 0.055,1.347 v 7.082 h -1.149 V 40.4 h 1.491 l 4.908,7.69 q 0.307,0.479 0.4,0.657 h 0.028 a 10.291,10.291 0 0 1 -0.069,-1.443 V 40.4 h 1.149 z"
       fill="#2f2f2f"
       id="path1523" />
  </g>
  <text
     xml:space="preserve"
     style="font-style:normal;font-weight:normal;font-size:13.3333px;line-height:0.25;font-family:sans-serif;letter-spacing:0.4px;fill:#000000;fill-opacity:1;stroke:none"
     x="17.786562"
     y="16.205538"
     id="text10820"><tspan
       sodipodi:role="line"
       id="tspan10818"
       x="17.786562"
       y="16.205538"
       style="font-style:normal;font-variant:normal;font-weight:bold;font-stretch:normal;font-size:13.3333px;font-family:Tahoma;-inkscape-font-specification:'Tahoma Bold'"
       dx="0.02">Client</tspan></text>
</svg>
