<?xml version="1.0" encoding="UTF-8" standalone="no"?>
<svg
   viewBox="0 0 385 300"
   version="1.1"
   id="svg2235"
   sodipodi:docname="ad_auth_explained_4.svg"
   inkscape:version="1.1.2 (b8e25be833, 2022-02-05)"
   xmlns:inkscape="http://www.inkscape.org/namespaces/inkscape"
   xmlns:sodipodi="http://sodipodi.sourceforge.net/DTD/sodipodi-0.dtd"
   xmlns:xlink="http://www.w3.org/1999/xlink"
   xmlns="http://www.w3.org/2000/svg"
   xmlns:svg="http://www.w3.org/2000/svg">
  <sodipodi:namedview
     id="namedview2237"
     pagecolor="#ffffff"
     bordercolor="#666666"
     borderopacity="1.0"
     inkscape:pageshadow="2"
     inkscape:pageopacity="0.0"
     inkscape:pagecheckerboard="0"
     showgrid="false"
     inkscape:zoom="2.3966667"
     inkscape:cx="192.55911"
     inkscape:cy="150"
     inkscape:window-width="1620"
     inkscape:window-height="1010"
     inkscape:window-x="-6"
     inkscape:window-y="-6"
     inkscape:window-maximized="1"
     inkscape:current-layer="svg2235" />
  <defs
     id="defs1845">
    <linearGradient
       id="linear-gradient"
       x1="269.344"
       y1="1779.65"
       x2="269.344"
       y2="1745.316"
       gradientTransform="matrix(1, 0, 0, -1, 0, 1920)"
       gradientUnits="userSpaceOnUse">
      <stop
         offset="0"
         stop-color="#b3b2b4"
         id="stop1774" />
      <stop
         offset="0.38"
         stop-color="#b0aeaf"
         id="stop1776" />
      <stop
         offset="0.76"
         stop-color="#a2a1a1"
         id="stop1778" />
      <stop
         offset="1"
         stop-color="#979797"
         id="stop1780" />
    </linearGradient>
    <linearGradient
       id="linear-gradient-2"
       x1="269.885"
       y1="1899"
       x2="269.885"
       y2="1863"
       xlink:href="#linear-gradient" />
    <linearGradient
       id="linear-gradient-3"
       x1="312.532"
       y1="1721.953"
       x2="335.156"
       y2="1721.953"
       gradientTransform="matrix(1,0,0,-1,0,1920)"
       gradientUnits="userSpaceOnUse">
      <stop
         offset="0"
         stop-color="#005ca1"
         id="stop1784" />
      <stop
         offset="0.07"
         stop-color="#0161aa"
         id="stop1786" />
      <stop
         offset="0.36"
         stop-color="#2571b8"
         id="stop1788" />
      <stop
         offset="0.52"
         stop-color="#2e76bc"
         id="stop1790" />
      <stop
         offset="0.64"
         stop-color="#2973ba"
         id="stop1792" />
      <stop
         offset="0.82"
         stop-color="#166bb5"
         id="stop1794" />
      <stop
         offset="1"
         stop-color="#005ca1"
         id="stop1796" />
    </linearGradient>
    <radialGradient
       id="radial-gradient"
       cx="324.479"
       cy="1721.229"
       r="12.476"
       gradientTransform="matrix(1,0,0,-1,0,1920)"
       gradientUnits="userSpaceOnUse">
      <stop
         offset="0"
         stop-color="#f2f2f3"
         id="stop1799" />
      <stop
         offset="0.58"
         stop-color="#eee"
         id="stop1801" />
      <stop
         offset="1"
         stop-color="#e6e6e6"
         id="stop1803" />
    </radialGradient>
    <linearGradient
       id="linear-gradient-4"
       x1="323.844"
       y1="1661.4"
       x2="323.844"
       y2="1691.4"
       gradientTransform="matrix(1, 0, 0, -1, 0, 1920)"
       gradientUnits="userSpaceOnUse">
      <stop
         offset="0"
         stop-color="#2e76bc"
         id="stop1806" />
      <stop
         offset="0.817"
         stop-color="#699cd3"
         id="stop1808" />
    </linearGradient>
    <linearGradient
       id="linear-gradient-5"
       x1="126.689"
       y1="1834.689"
       x2="126.689"
       y2="1864.689"
       xlink:href="#linear-gradient-4" />
    <linearGradient
       id="linear-gradient-6"
       x1="162.889"
       y1="1834.689"
       x2="162.889"
       y2="1864.689"
       xlink:href="#linear-gradient-4" />
    <linearGradient
       id="linear-gradient-7"
       x1="323.844"
       y1="1819"
       x2="323.844"
       y2="1849"
       gradientTransform="matrix(1, 0, 0, -1, 0, 1920)"
       gradientUnits="userSpaceOnUse">
      <stop
         offset="0"
         stop-color="#2e76bc"
         id="stop1813" />
      <stop
         offset="0.82"
         stop-color="#699cd3"
         id="stop1815" />
    </linearGradient>
    <linearGradient
       id="linear-gradient-8"
       x1="36.963"
       y1="1870.137"
       x2="36.963"
       y2="1899"
       xlink:href="#linear-gradient-7" />
    <linearGradient
       id="linear-gradient-9"
       x1="36.976"
       y1="1859"
       x2="36.976"
       y2="1870.137"
       gradientTransform="matrix(1,0,0,-1,0,1920)"
       gradientUnits="userSpaceOnUse">
      <stop
         offset="0.15"
         stop-color="#cccccb"
         id="stop1819" />
      <stop
         offset="1"
         stop-color="#707071"
         id="stop1821" />
    </linearGradient>
    <linearGradient
       id="linear-gradient-10"
       x1="17.102"
       y1="1877.533"
       x2="17.102"
       y2="1854.917"
       gradientTransform="matrix(1, 0, 0, -1, 0, 1920)"
       gradientUnits="userSpaceOnUse">
      <stop
         offset="0.22"
         stop-color="#50c8e9"
         id="stop1824" />
      <stop
         offset="0.47"
         stop-color="#4ac7e9"
         id="stop1826" />
      <stop
         offset="0.63"
         stop-color="#3bc4e7"
         id="stop1828" />
      <stop
         offset="0.77"
         stop-color="#2abade"
         id="stop1830" />
      <stop
         offset="0.89"
         stop-color="#21a5cb"
         id="stop1832" />
      <stop
         offset="1"
         stop-color="#1b8ab3"
         id="stop1834" />
    </linearGradient>
    <linearGradient
       id="linear-gradient-11"
       x1="16.453"
       y1="1889.667"
       x2="18.103"
       y2="1869.133"
       xlink:href="#linear-gradient-10" />
    <linearGradient
       id="linear-gradient-12"
       x1="126.689"
       y1="1793.767"
       x2="126.689"
       y2="1823.767"
       xlink:href="#linear-gradient-4" />
    <linearGradient
       id="linear-gradient-13"
       x1="162.889"
       y1="1653.9"
       x2="162.889"
       y2="1683.9"
       xlink:href="#linear-gradient-4" />
    <linearGradient
       id="linear-gradient-14"
       x1="126.689"
       y1="1653.9"
       x2="126.689"
       y2="1683.9"
       xlink:href="#linear-gradient-4" />
    <linearGradient
       id="linear-gradient-15"
       x1="126.689"
       y1="1698.048"
       x2="126.689"
       y2="1728.048"
       xlink:href="#linear-gradient-4" />
    <symbol
       id="Success_Checked"
       data-name="Success Checked"
       viewBox="0 0 16 13.82">
      <path
         d="M.632,7.427.1,6.852a.38.38,0,0,1,.022-.538L1.657,4.9a.374.374,0,0,1,.255-.1.367.367,0,0,1,.276.123L6.406,9.441l7.258-9.3A.377.377,0,0,1,14.2.081l1.659,1.28A.362.362,0,0,1,16,1.609a.367.367,0,0,1-.081.276L6.6,13.82Z"
         fill="#7ebb42"
         id="path1842" />
    </symbol>
    <linearGradient
       inkscape:collect="always"
       xlink:href="#linear-gradient"
       id="linearGradient2250"
       gradientUnits="userSpaceOnUse"
       gradientTransform="matrix(1,0,0,-1,0,1920)"
       x1="269.344"
       y1="1779.65"
       x2="269.344"
       y2="1745.316" />
    <linearGradient
       inkscape:collect="always"
       xlink:href="#linear-gradient-4"
       id="linearGradient2252"
       gradientUnits="userSpaceOnUse"
       gradientTransform="matrix(1,0,0,-1,0,1920)"
       x1="323.844"
       y1="1661.4"
       x2="323.844"
       y2="1691.4" />
    <linearGradient
       inkscape:collect="always"
       xlink:href="#linear-gradient-7"
       id="linearGradient2254"
       gradientUnits="userSpaceOnUse"
       gradientTransform="matrix(1,0,0,-1,0,1920)"
       x1="323.844"
       y1="1819"
       x2="323.844"
       y2="1849" />
    <linearGradient
       inkscape:collect="always"
       xlink:href="#linear-gradient-10"
       id="linearGradient2256"
       gradientUnits="userSpaceOnUse"
       gradientTransform="matrix(1,0,0,-1,0,1920)"
       x1="17.102"
       y1="1877.533"
       x2="17.102"
       y2="1854.917" />
  </defs>
  <rect
     width="385"
     height="300"
     fill="#ffffff"
     id="rect1847"
     x="0"
     y="0" />
  <rect
     x="96.914001"
     y="226.23199"
     width="92.400002"
     height="52.167"
     fill="#fee452"
     opacity="0.35"
     id="rect1849" />
  <g
     id="g1855">
    <rect
       x="268.84399"
       y="167"
       width="110"
       height="127.6"
       fill="#ffffff"
       id="rect1851" />
    <rect
       x="268.84399"
       y="167"
       width="110"
       height="127.6"
       fill="#767676"
       opacity="0.3"
       id="rect1853" />
  </g>
  <g
     id="g1867">
    <path
       d="m 280.491,173.517 a 1.236,1.236 0 0 1 -1.285,1.166 h -19.724 a 1.237,1.237 0 0 1 -1.285,-1.166 v -32 a 1.237,1.237 0 0 1 1.285,-1.165 h 19.724 a 1.236,1.236 0 0 1 1.285,1.165 z"
       fill="url(#linear-gradient)"
       id="path1857"
       style="fill:url(#linearGradient2250)" />
    <path
       d="m 261.481,155.031 a 2.569,2.569 0 0 1 2.379,-2.689 H 275 a 2.57,2.57 0 0 1 2.379,2.689 v 0 a 2.545,2.545 0 0 1 -2.291,2.776 c -0.03,0 -0.059,0.006 -0.088,0.007 h -11.093 a 2.545,2.545 0 0 1 -2.379,-2.664 z"
       fill="#1e3465"
       id="path1859" />
    <path
       d="m 261.481,147.084 a 2.545,2.545 0 0 1 2.379,-2.665 H 275 a 2.545,2.545 0 0 1 2.379,2.665 v 0 A 2.569,2.569 0 0 1 275,149.772 h -11.093 a 2.569,2.569 0 0 1 -2.379,-2.688 z"
       fill="#1e3465"
       id="path1861" />
    <circle
       cx="264.59698"
       cy="147.084"
       r="1.784"
       fill="#74cfeb"
       id="circle1863" />
    <circle
       cx="264.59698"
       cy="155.03101"
       r="1.784"
       fill="#74cfeb"
       id="circle1865" />
  </g>
  <g
     id="g1897">
    <rect
       x="268.84399"
       y="39.400002"
       width="110"
       height="88"
       fill="#ffffff"
       id="rect1893" />
    <rect
       x="268.84399"
       y="39.400002"
       width="110"
       height="88"
       fill="#767676"
       opacity="0.3"
       id="rect1895" />
  </g>
  <g
     id="g1903">
    <rect
       x="27.379"
       y="35"
       width="7.3179998"
       height="259.60001"
       fill="#ffffff"
       id="rect1899" />
    <rect
       x="27.379"
       y="35"
       width="7.3179998"
       height="259.60001"
       fill="#83b9f9"
       opacity="0.5"
       id="rect1901" />
  </g>
  <g
     id="g1915">
    <path
       d="M 281.572,55.777 A 1.3,1.3 0 0 1 280.225,57 h -20.681 a 1.3,1.3 0 0 1 -1.347,-1.222 V 22.223 A 1.3,1.3 0 0 1 259.544,21 h 20.681 a 1.3,1.3 0 0 1 1.347,1.222 z"
       fill="url(#linear-gradient-2)"
       id="path1905"
       style="fill:url(#linear-gradient-2)" />
    <path
       d="m 261.64,36.393 a 2.7,2.7 0 0 1 2.5,-2.819 h 11.67 a 2.694,2.694 0 0 1 2.494,2.819 v 0 a 2.669,2.669 0 0 1 -2.4,2.912 l -0.091,0.007 h -11.629 a 2.669,2.669 0 0 1 -2.494,-2.794 z"
       fill="#1e3465"
       id="path1907" />
    <path
       d="m 261.64,28.061 a 2.669,2.669 0 0 1 2.5,-2.794 h 11.67 a 2.669,2.669 0 0 1 2.494,2.794 v 0 a 2.694,2.694 0 0 1 -2.494,2.819 h -11.626 a 2.694,2.694 0 0 1 -2.494,-2.819 z"
       fill="#1e3465"
       id="path1909" />
    <circle
       cx="264.90799"
       cy="28.061001"
       r="1.8710001"
       fill="#74cfeb"
       id="circle1911" />
    <circle
       cx="264.90799"
       cy="36.393002"
       r="1.8710001"
       fill="#74cfeb"
       id="circle1913" />
  </g>
  <g
     id="g1927">
    <path
       d="m 323.844,189.188 c -6.247,0 -11.312,-1.764 -11.312,-4.094 v 21.812 c 0,2.241 4.977,4.059 11.153,4.094 h 0.159 c 6.247,0 11.312,-1.765 11.312,-4.094 v -21.812 c 0,2.277 -5.065,4.094 -11.312,4.094 z"
       fill="url(#linear-gradient-3)"
       id="path1917"
       style="fill:url(#linear-gradient-3)" />
    <path
       d="m 335.156,185.094 c 0,2.277 -5.065,4.094 -11.312,4.094 -6.247,0 -11.312,-1.764 -11.312,-4.094 0,-2.33 5.068,-4.094 11.312,-4.094 6.244,0 11.312,1.765 11.312,4.094"
       fill="#e8e8e8"
       id="path1919" />
    <path
       d="m 332.526,184.759 c 0,1.447 -3.9,2.612 -8.682,2.612 -4.782,0 -8.683,-1.165 -8.683,-2.612 0,-1.447 3.9,-2.594 8.683,-2.594 4.783,0 8.682,1.164 8.682,2.594"
       fill="#74cfeb"
       id="path1921" />
    <path
       d="m 323.844,185.412 a 20.375,20.375 0 0 0 -6.865,1.006 20.175,20.175 0 0 0 6.865,0.953 19.692,19.692 0 0 0 6.865,-1.024 20.874,20.874 0 0 0 -6.865,-0.935 z"
       fill="#1b8ab3"
       id="path1923" />
    <path
       d="m 330.726,200.235 v -6 h -1.588 v 7.289 h 4.341 v -1.289 z m -12.6,-2.947 a 3.216,3.216 0 0 1 -0.9,-0.547 0.777,0.777 0 0 1 -0.212,-0.565 0.6,0.6 0 0 1 0.265,-0.529 1.2,1.2 0 0 1 0.741,-0.212 2.862,2.862 0 0 1 1.765,0.512 v -1.518 a 4.577,4.577 0 0 0 -1.765,-0.282 2.891,2.891 0 0 0 -1.923,0.6 1.9,1.9 0 0 0 -0.741,1.571 c 0,0.9 0.564,1.606 1.764,2.135 a 5.06,5.06 0 0 1 1.094,0.635 0.742,0.742 0 0 1 0.265,0.565 0.672,0.672 0 0 1 -0.282,0.547 1.425,1.425 0 0 1 -0.794,0.194 2.93,2.93 0 0 1 -1.924,-0.741 v 1.641 a 3.834,3.834 0 0 0 1.888,0.424 3.314,3.314 0 0 0 2.083,-0.583 1.906,1.906 0 0 0 0.582,-1.606 1.849,1.849 0 0 0 -0.441,-1.235 4.268,4.268 0 0 0 -1.465,-1.006 z m 9.247,2.806 a 3.863,3.863 0 0 0 0,-4.094 3.192,3.192 0 0 0 -1.235,-1.324 3.532,3.532 0 0 0 -1.765,-0.458 3.729,3.729 0 0 0 -1.906,0.476 3.289,3.289 0 0 0 -1.288,1.306 4.346,4.346 0 0 0 -0.459,2.012 3.986,3.986 0 0 0 0.424,1.764 3.093,3.093 0 0 0 1.217,1.306 3.638,3.638 0 0 0 1.765,0.53 l 1.518,1.764 h 2.135 l -2.17,-1.941 a 3.157,3.157 0 0 0 1.764,-1.341 z m -1.764,-0.441 a 1.664,1.664 0 0 1 -1.342,0.618 1.627,1.627 0 0 1 -1.341,-0.636 3.3,3.3 0 0 1 0,-3.529 1.765,1.765 0 0 1 1.377,-0.653 1.535,1.535 0 0 1 1.323,0.653 2.86,2.86 0 0 1 0.477,1.765 2.583,2.583 0 0 1 -0.494,1.782 z"
       fill="url(#radial-gradient)"
       id="path1925"
       style="fill:url(#radial-gradient)" />
  </g>
  <g
     id="abc3e3f9-d4db-41ad-8b60-378d1c3348f7">
    <g
       id="g1943">
      <g
         id="g1935">
        <path
           d="M 325.549,228.823 H 312.78 a 1.009,1.009 0 0 0 -1.008,1.009 v 0 27.534 a 1.008,1.008 0 0 0 1.007,1.01 h 22.128 a 1.009,1.009 0 0 0 1,-1.01 v -18.221 a 1.009,1.009 0 0 0 -1,-1.01 h -7.343 a 1.009,1.009 0 0 1 -1,-1.008 v -7.294 a 1,1 0 0 0 -0.99,-1.01 z"
           fill="#ffffff"
           id="path1929" />
        <path
           d="m 325.082,230.113 v 6.915 a 2.541,2.541 0 0 0 2.533,2.539 h 6.967 v 17.52 h -21.477 v -26.974 h 11.977 m 0.488,-1.513 h -12.953 a 1.023,1.023 0 0 0 -1.023,1.023 v 27.952 a 1.023,1.023 0 0 0 1.021,1.025 h 22.455 a 1.023,1.023 0 0 0 1.024,-1.023 v -18.5 a 1.023,1.023 0 0 0 -1.024,-1.024 h -7.455 a 1.022,1.022 0 0 1 -1.021,-1.025 v 0 -7.4 a 1.024,1.024 0 0 0 -1.022,-1.025 z"
           fill="url(#linear-gradient-4)"
           id="path1931"
           style="fill:url(#linearGradient2252)" />
        <path
           d="m 335.7,238.257 -9.464,-9.434 v 7.687 a 1.737,1.737 0 0 0 1.724,1.747 z"
           fill="#2e76bc"
           id="path1933" />
      </g>
      <rect
         x="315.51001"
         y="242.25999"
         width="16.665001"
         height="2.2349999"
         rx="1.005"
         fill="#699cd3"
         id="rect1937" />
      <rect
         x="315.51001"
         y="246.265"
         width="16.665001"
         height="2.2349999"
         rx="1.005"
         fill="#699cd3"
         id="rect1939" />
      <rect
         x="315.51001"
         y="250.27"
         width="10.503"
         height="2.2349999"
         rx="1.005"
         fill="#699cd3"
         id="rect1941" />
    </g>
  </g>
  <g
     id="abc3e3f9-d4db-41ad-8b60-378d1c3348f7-2"
     data-name="abc3e3f9-d4db-41ad-8b60-378d1c3348f7">
    <g
       id="g1960">
      <g
         id="g1952">
        <path
           d="m 128.394,55.534 h -12.768 a 1.008,1.008 0 0 0 -1.009,1.008 v 27.535 a 1.008,1.008 0 0 0 1.007,1.01 h 22.128 a 1.008,1.008 0 0 0 1,-1.01 V 65.856 a 1.008,1.008 0 0 0 -1,-1.01 h -7.343 a 1.009,1.009 0 0 1 -1,-1.009 v -7.293 a 1,1 0 0 0 -0.99,-1.01 z"
           fill="#ffffff"
           id="path1946" />
        <path
           d="m 127.927,56.824 v 6.915 a 2.54,2.54 0 0 0 2.534,2.538 h 6.966 V 83.8 H 115.951 V 56.824 h 11.976 m 0.489,-1.513 h -12.954 a 1.023,1.023 0 0 0 -1.023,1.023 v 27.952 a 1.023,1.023 0 0 0 1.022,1.025 h 22.455 a 1.024,1.024 0 0 0 1.023,-1.024 v 0 -18.5 a 1.023,1.023 0 0 0 -1.023,-1.023 h -7.455 a 1.023,1.023 0 0 1 -1.022,-1.025 v 0 -7.4 a 1.023,1.023 0 0 0 -1.022,-1.025 z"
           fill="url(#linear-gradient-5)"
           id="path1948"
           style="fill:url(#linear-gradient-5)" />
        <path
           d="m 138.549,64.967 -9.463,-9.433 v 7.687 a 1.734,1.734 0 0 0 1.723,1.746 z"
           fill="#2e76bc"
           id="path1950" />
      </g>
      <rect
         x="118.356"
         y="68.971001"
         width="16.665001"
         height="2.2349999"
         rx="1.005"
         fill="#699cd3"
         id="rect1954" />
      <rect
         x="118.356"
         y="72.975998"
         width="16.665001"
         height="2.2349999"
         rx="1.005"
         fill="#699cd3"
         id="rect1956" />
      <rect
         x="118.356"
         y="76.981003"
         width="10.503"
         height="2.2349999"
         rx="1.005"
         fill="#699cd3"
         id="rect1958" />
    </g>
  </g>
  <g
     id="abc3e3f9-d4db-41ad-8b60-378d1c3348f7-3"
     data-name="abc3e3f9-d4db-41ad-8b60-378d1c3348f7">
    <g
       id="g1977">
      <g
         id="g1969">
        <path
           d="m 164.594,55.534 h -12.768 a 1.008,1.008 0 0 0 -1.009,1.008 v 27.535 a 1.009,1.009 0 0 0 1.007,1.01 h 22.128 a 1.007,1.007 0 0 0 1,-1.01 V 65.856 a 1.007,1.007 0 0 0 -1,-1.01 h -7.343 a 1.009,1.009 0 0 1 -1,-1.009 v -7.293 a 1,1 0 0 0 -0.99,-1.01 z"
           fill="#ffffff"
           id="path1963" />
        <path
           d="m 164.127,56.824 v 6.915 a 2.54,2.54 0 0 0 2.534,2.538 h 6.966 V 83.8 H 152.151 V 56.824 h 11.976 m 0.489,-1.513 h -12.954 a 1.023,1.023 0 0 0 -1.023,1.023 v 27.952 a 1.024,1.024 0 0 0 1.022,1.025 h 22.455 a 1.024,1.024 0 0 0 1.023,-1.024 v 0 -18.5 a 1.023,1.023 0 0 0 -1.023,-1.023 h -7.455 a 1.024,1.024 0 0 1 -1.022,-1.025 v 0 -7.4 a 1.023,1.023 0 0 0 -1.022,-1.025 z"
           fill="url(#linear-gradient-6)"
           id="path1965"
           style="fill:url(#linear-gradient-6)" />
        <path
           d="m 174.749,64.967 -9.463,-9.433 v 7.687 a 1.734,1.734 0 0 0 1.723,1.746 z"
           fill="#2e76bc"
           id="path1967" />
      </g>
      <rect
         x="154.556"
         y="68.971001"
         width="16.665001"
         height="2.2349999"
         rx="1.005"
         fill="#699cd3"
         id="rect1971" />
      <rect
         x="154.556"
         y="72.975998"
         width="16.665001"
         height="2.2349999"
         rx="1.005"
         fill="#699cd3"
         id="rect1973" />
      <rect
         x="154.556"
         y="76.981003"
         width="10.503"
         height="2.2349999"
         rx="1.005"
         fill="#699cd3"
         id="rect1975" />
    </g>
  </g>
  <g
     id="g1989">
    <path
       d="m 325.609,71.229 h -12.83 a 1.007,1.007 0 0 0 -1.006,1.006 v 27.53 a 1.007,1.007 0 0 0 1.006,1.006 h 22.13 a 1.006,1.006 0 0 0 1,-1.006 V 81.553 a 1.023,1.023 0 0 0 -1,-1.024 h -7.342 a 0.988,0.988 0 0 1 -1.006,-0.97 v -7.324 a 1.006,1.006 0 0 0 -0.952,-1.006 z"
       fill="#ffffff"
       id="path1980" />
    <path
       d="m 325.079,72.518 v 6.917 a 2.542,2.542 0 0 0 2.541,2.524 h 6.971 V 99.482 H 313.1 V 72.518 h 11.982 M 325.612,71 H 312.62 a 1.023,1.023 0 0 0 -1.023,1.024 V 99.976 A 1.023,1.023 0 0 0 312.62,101 h 22.447 a 1.023,1.023 0 0 0 1.024,-1.024 V 81.482 a 1.023,1.023 0 0 0 -1.024,-1.023 h -7.447 a 1.023,1.023 0 0 1 -1.023,-1.024 V 72.024 A 1.024,1.024 0 0 0 325.609,71 Z"
       fill="url(#linear-gradient-7)"
       id="path1982"
       style="fill:url(#linearGradient2254)" />
    <path
       d="m 335.7,80.706 -9.459,-9.477 v 7.712 a 1.765,1.765 0 0 0 1.765,1.765 z"
       fill="#2e76bc"
       id="path1984" />
    <path
       id="a6d81f9b-1c9b-4163-b425-427db8835c56"
       d="m 326.332,89.847 a 3.9,3.9 0 0 1 -5.171,0 l -0.317,6.406 a 0.511,0.511 0 0 0 0.882,0.388 l 1.977,-2.029 2.011,1.976 a 0.512,0.512 0 0 0 0.865,-0.388 z"
       fill="#b32025" />
    <ellipse
       id="f228121b-524c-412f-81f5-af7174f3554f"
       cx="323.80899"
       cy="86.546997"
       rx="4.6059999"
       ry="4.6240001"
       fill="#e52526" />
    <ellipse
       id="fd9247f0-1f16-45ab-bd99-d7272783472c"
       cx="323.80899"
       cy="86.546997"
       rx="3.494"
       ry="3.5120001"
       fill="#fed402" />
  </g>
  <g
     id="g2005">
    <g
       id="g1995">
      <rect
         x="15.322"
         y="21"
         width="43.282001"
         height="28.863001"
         rx="1.447"
         fill="url(#linear-gradient-8)"
         id="rect1991"
         style="fill:url(#linear-gradient-8)" />
      <path
         d="m 45.658,58.6 c -4.289,-0.672 -4.444,-3.773 -4.444,-8.734 h -8.476 c 0,4.961 -0.155,8.062 -4.444,8.734 A 2.584,2.584 0 0 0 26.149,61 H 47.8 a 2.584,2.584 0 0 0 -2.142,-2.4 z"
         fill="url(#linear-gradient-9)"
         id="path1993"
         style="fill:url(#linear-gradient-9)" />
    </g>
    <g
       id="g2003">
      <path
         d="m 28.3,61 a 2.417,2.417 0 0 0 2.417,-2.417 v 0 a 0.792,0.792 0 0 0 0,-0.283 C 29.75,50.683 25.433,44.483 17.1,44.483 8.767,44.483 4.336,49.733 3.486,58.317 A 2.433,2.433 0 0 0 5.644,61 H 5.67 Z"
         fill="url(#linear-gradient-10)"
         id="path1997"
         style="fill:url(#linearGradient2256)" />
      <path
         d="m 17.1,46.283 a 7.646,7.646 0 0 1 -4.133,-1.216 l 4.133,10.7 4.07,-10.634 a 7.547,7.547 0 0 1 -4.07,1.15 z"
         fill="#ffffff"
         opacity="0.8"
         style="isolation:isolate"
         id="path1999" />
      <circle
         cx="17.120001"
         cy="38.632999"
         r="7.6329999"
         fill="url(#linear-gradient-11)"
         id="circle2001"
         style="fill:url(#linear-gradient-11)" />
    </g>
  </g>
  <g
     id="g2018">
    <g
       id="abc3e3f9-d4db-41ad-8b60-378d1c3348f7-4"
       data-name="abc3e3f9-d4db-41ad-8b60-378d1c3348f7">
      <g
         id="g2013">
        <path
           d="m 128.394,96.456 h -12.768 a 1.008,1.008 0 0 0 -1.009,1.008 V 125 a 1.008,1.008 0 0 0 1.007,1.01 h 22.128 a 1.008,1.008 0 0 0 1,-1.01 v -18.222 a 1.008,1.008 0 0 0 -1,-1.01 h -7.343 a 1.009,1.009 0 0 1 -1,-1.009 v -7.293 a 1,1 0 0 0 -0.99,-1.01 z"
           fill="#ffffff"
           id="path2007" />
        <path
           d="m 127.927,97.746 v 6.915 a 2.54,2.54 0 0 0 2.534,2.538 h 6.966 v 17.52 H 115.951 V 97.746 h 11.976 m 0.489,-1.513 h -12.954 a 1.023,1.023 0 0 0 -1.023,1.023 v 27.952 a 1.023,1.023 0 0 0 1.022,1.025 h 22.455 a 1.024,1.024 0 0 0 1.023,-1.024 v 0 -18.5 a 1.023,1.023 0 0 0 -1.023,-1.023 h -7.455 a 1.023,1.023 0 0 1 -1.022,-1.025 v 0 -7.4 a 1.023,1.023 0 0 0 -1.022,-1.025 z"
           fill="url(#linear-gradient-12)"
           id="path2009"
           style="fill:url(#linear-gradient-12)" />
        <path
           d="m 138.549,105.889 -9.463,-9.433 v 7.687 a 1.734,1.734 0 0 0 1.723,1.746 z"
           fill="#2e76bc"
           id="path2011" />
      </g>
    </g>
    <path
       d="m 132.526,118.33 v 3.015 h -3.25 v -1.625 h -1.625 v -1.62 h -1.625 v -1.314 a 4.342,4.342 0 0 1 -0.984,0.375 4.435,4.435 0 0 1 -3.3,-0.483 4.482,4.482 0 0 1 -0.9,-0.7 4.6,4.6 0 0 1 -0.7,-0.908 4.206,4.206 0 0 1 -0.45,-1.066 4.7,4.7 0 0 1 -0.159,-1.187 4.442,4.442 0 0 1 0.609,-2.254 4.556,4.556 0 0 1 0.7,-0.9 4.63,4.63 0 0 1 0.908,-0.705 4.233,4.233 0 0 1 1.067,-0.45 4.691,4.691 0 0 1 1.187,-0.159 4.41,4.41 0 0 1 1.187,0.159 4.424,4.424 0 0 1 1.967,1.149 4.624,4.624 0 0 1 0.7,0.907 4.252,4.252 0 0 1 0.451,1.067 4.736,4.736 0 0 1 0.158,1.187 4.155,4.155 0 0 1 -0.05,0.641 4.5,4.5 0 0 1 -0.146,0.622 z m -0.813,0.343 -4.38,-4.38 a 5.765,5.765 0 0 0 0.229,-0.724 3.166,3.166 0 0 0 0.089,-0.755 3.56,3.56 0 0 0 -0.286,-1.422 3.619,3.619 0 0 0 -0.787,-1.162 3.745,3.745 0 0 0 -1.162,-0.78 3.625,3.625 0 0 0 -4,0.78 3.789,3.789 0 0 0 -0.781,1.162 3.64,3.64 0 0 0 -0.292,1.422 3.615,3.615 0 0 0 1.073,2.583 3.76,3.76 0 0 0 1.162,0.781 3.61,3.61 0 0 0 3.7,-0.52 h 0.565 v 1.625 h 1.625 v 1.625 h 1.625 v 1.625 h 1.625 z m -8.937,-7.89 a 0.79,0.79 0 0 1 0.317,0.063 0.8,0.8 0 0 1 0.254,0.171 0.892,0.892 0 0 1 0.178,0.261 0.682,0.682 0 0 1 0.063,0.317 0.79,0.79 0 0 1 -0.063,0.317 0.8,0.8 0 0 1 -0.172,0.254 0.856,0.856 0 0 1 -0.26,0.178 0.683,0.683 0 0 1 -0.317,0.064 0.8,0.8 0 0 1 -0.571,-0.235 0.873,0.873 0 0 1 -0.178,-0.261 0.683,0.683 0 0 1 -0.064,-0.317 0.774,0.774 0 0 1 0.064,-0.317 0.8,0.8 0 0 1 0.171,-0.254 0.9,0.9 0 0 1 0.26,-0.178 0.676,0.676 0 0 1 0.318,-0.063 z"
       fill="#1f56a3"
       id="path2016" />
  </g>
  <g
     id="g2031">
    <g
       id="abc3e3f9-d4db-41ad-8b60-378d1c3348f7-5"
       data-name="abc3e3f9-d4db-41ad-8b60-378d1c3348f7">
      <g
         id="g2026">
        <path
           d="m 164.594,236.324 h -12.768 a 1.008,1.008 0 0 0 -1.009,1.008 v 27.535 a 1.009,1.009 0 0 0 1.007,1.01 h 22.128 a 1.008,1.008 0 0 0 1,-1.01 v -18.222 a 1.008,1.008 0 0 0 -1,-1.01 h -7.343 a 1.007,1.007 0 0 1 -1,-1.008 v -7.293 a 1,1 0 0 0 -0.99,-1.011 z"
           fill="#ffffff"
           id="path2020" />
        <path
           d="m 164.127,237.614 v 6.915 a 2.541,2.541 0 0 0 2.534,2.538 h 6.966 v 17.52 h -21.476 v -26.973 h 11.976 m 0.489,-1.514 h -12.954 a 1.023,1.023 0 0 0 -1.023,1.024 v 0 27.95 a 1.024,1.024 0 0 0 1.022,1.025 h 22.455 a 1.023,1.023 0 0 0 1.023,-1.023 v -18.5 a 1.023,1.023 0 0 0 -1.023,-1.023 h -7.455 a 1.024,1.024 0 0 1 -1.022,-1.025 v 0 -7.4 a 1.023,1.023 0 0 0 -1.022,-1.025 z"
           fill="url(#linear-gradient-13)"
           id="path2022"
           style="fill:url(#linear-gradient-13)" />
        <path
           d="m 174.749,245.757 -9.463,-9.433 v 7.686 a 1.735,1.735 0 0 0 1.723,1.747 z"
           fill="#2e76bc"
           id="path2024" />
      </g>
    </g>
    <polygon
       points="162.894,253.059 159.336,249.5 157.394,251.442 160.942,255 157.394,258.548 159.336,260.49 162.884,256.942 166.442,260.5 168.384,258.558 164.826,255 168.384,251.442 166.452,249.5 "
       fill="#b32025"
       id="polygon2029" />
  </g>
  <g
     id="g2044">
    <g
       id="abc3e3f9-d4db-41ad-8b60-378d1c3348f7-6"
       data-name="abc3e3f9-d4db-41ad-8b60-378d1c3348f7">
      <g
         id="g2039">
        <path
           d="m 128.394,236.324 h -12.768 a 1.008,1.008 0 0 0 -1.009,1.008 v 27.535 a 1.008,1.008 0 0 0 1.007,1.01 h 22.128 a 1.009,1.009 0 0 0 1,-1.01 v -18.222 a 1.009,1.009 0 0 0 -1,-1.01 h -7.343 a 1.007,1.007 0 0 1 -1,-1.008 v -7.293 a 1,1 0 0 0 -0.99,-1.011 z"
           fill="#ffffff"
           id="path2033" />
        <path
           d="m 127.927,237.614 v 6.915 a 2.541,2.541 0 0 0 2.534,2.538 h 6.966 v 17.52 h -21.476 v -26.973 h 11.976 m 0.489,-1.514 h -12.954 a 1.023,1.023 0 0 0 -1.023,1.024 v 0 27.95 a 1.023,1.023 0 0 0 1.022,1.025 h 22.455 a 1.023,1.023 0 0 0 1.023,-1.023 v -18.5 a 1.023,1.023 0 0 0 -1.023,-1.023 h -7.455 a 1.023,1.023 0 0 1 -1.022,-1.025 v 0 -7.4 a 1.024,1.024 0 0 0 -1.022,-1.025 z"
           fill="url(#linear-gradient-14)"
           id="path2035"
           style="fill:url(#linear-gradient-14)" />
        <path
           d="m 138.549,245.757 -9.463,-9.433 v 7.686 a 1.735,1.735 0 0 0 1.723,1.747 z"
           fill="#2e76bc"
           id="path2037" />
      </g>
    </g>
    <use
       width="16"
       height="13.82"
       transform="matrix(0.796,0,0,0.796,120.321,250.273)"
       xlink:href="#Success_Checked"
       id="use2042"
       x="0"
       y="0" />
  </g>
  <line
     x1="37.417"
     y1="74.093002"
     x2="109.026"
     y2="74.093002"
     fill="none"
     stroke="#3c3c41"
     stroke-miterlimit="10"
     id="line2046" />
  <g
     id="g2052">
    <line
       x1="180.838"
       y1="74.093002"
       x2="258.71201"
       y2="74.093002"
       fill="none"
       stroke="#3c3c41"
       stroke-miterlimit="10"
       id="line2048" />
    <polygon
       points="257.618,70.353 257.618,77.833 264.094,74.093 "
       fill="#3c3c41"
       id="polygon2050" />
  </g>
  <g
     id="g2058">
    <line
       x1="180.838"
       y1="252.89999"
       x2="264.09399"
       y2="252.89999"
       fill="none"
       stroke="#fed402"
       stroke-miterlimit="10"
       stroke-width="6"
       id="line2054" />
    <line
       x1="180.838"
       y1="252.89999"
       x2="264.09399"
       y2="252.89999"
       fill="none"
       stroke="#3c3c41"
       stroke-miterlimit="10"
       id="line2056" />
  </g>
  <g
     id="g2064">
    <line
       x1="42.799"
       y1="108.345"
       x2="109.026"
       y2="108.345"
       fill="none"
       stroke="#3c3c41"
       stroke-miterlimit="10"
       id="line2060" />
    <polygon
       points="43.893,104.605 43.893,112.085 37.417,108.345 "
       fill="#3c3c41"
       id="polygon2062" />
  </g>
  <line
     x1="144.63901"
     y1="108.345"
     x2="264.09399"
     y2="108.345"
     fill="none"
     stroke="#3c3c41"
     stroke-miterlimit="10"
     id="line2066" />
  <g
     id="g2079">
    <g
       id="abc3e3f9-d4db-41ad-8b60-378d1c3348f7-7"
       data-name="abc3e3f9-d4db-41ad-8b60-378d1c3348f7">
      <g
         id="g2074">
        <path
           d="m 128.394,192.175 h -12.768 a 1.008,1.008 0 0 0 -1.009,1.008 v 27.535 a 1.008,1.008 0 0 0 1.007,1.01 h 22.128 a 1.008,1.008 0 0 0 1,-1.01 V 202.5 a 1.008,1.008 0 0 0 -1,-1.01 h -7.343 a 1.009,1.009 0 0 1 -1,-1.009 v -7.293 a 1,1 0 0 0 -0.99,-1.01 z"
           fill="#ffffff"
           id="path2068" />
        <path
           d="m 127.927,193.465 v 6.915 a 2.539,2.539 0 0 0 2.534,2.538 h 6.966 v 17.52 h -21.476 v -26.973 h 11.976 m 0.489,-1.513 h -12.954 a 1.023,1.023 0 0 0 -1.023,1.023 v 27.952 a 1.023,1.023 0 0 0 1.022,1.025 h 22.455 a 1.023,1.023 0 0 0 1.023,-1.024 v 0 -18.5 a 1.023,1.023 0 0 0 -1.023,-1.023 h -7.455 a 1.023,1.023 0 0 1 -1.022,-1.025 v 0 -7.4 a 1.024,1.024 0 0 0 -1.022,-1.025 z"
           fill="url(#linear-gradient-15)"
           id="path2070"
           style="fill:url(#linear-gradient-15)" />
        <path
           d="m 138.549,201.608 -9.463,-9.433 v 7.687 a 1.734,1.734 0 0 0 1.723,1.746 z"
           fill="#2e76bc"
           id="path2072" />
      </g>
    </g>
    <path
       d="m 132.526,214.049 v 3.015 h -3.25 v -1.625 h -1.625 v -1.625 h -1.625 V 212.5 a 4.342,4.342 0 0 1 -0.984,0.375 4.435,4.435 0 0 1 -3.3,-0.483 4.482,4.482 0 0 1 -0.9,-0.7 4.6,4.6 0 0 1 -0.7,-0.908 4.191,4.191 0 0 1 -0.45,-1.066 4.7,4.7 0 0 1 -0.159,-1.187 4.434,4.434 0 0 1 0.609,-2.253 4.533,4.533 0 0 1 0.7,-0.9 4.588,4.588 0 0 1 0.908,-0.7 4.2,4.2 0 0 1 1.067,-0.451 4.691,4.691 0 0 1 1.187,-0.159 4.422,4.422 0 0 1 2.253,0.61 4.454,4.454 0 0 1 0.9,0.7 4.6,4.6 0 0 1 0.7,0.908 4.229,4.229 0 0 1 0.451,1.066 4.743,4.743 0 0 1 0.158,1.187 4.155,4.155 0 0 1 -0.05,0.641 4.5,4.5 0 0 1 -0.146,0.622 z m -0.813,0.343 -4.38,-4.38 a 5.714,5.714 0 0 0 0.229,-0.724 3.166,3.166 0 0 0 0.089,-0.755 3.56,3.56 0 0 0 -0.286,-1.422 3.63,3.63 0 0 0 -0.787,-1.162 3.745,3.745 0 0 0 -1.162,-0.78 3.625,3.625 0 0 0 -4,0.78 3.789,3.789 0 0 0 -0.781,1.162 3.64,3.64 0 0 0 -0.292,1.422 3.615,3.615 0 0 0 1.073,2.583 3.742,3.742 0 0 0 1.162,0.781 3.61,3.61 0 0 0 3.7,-0.52 h 0.565 V 213 h 1.625 v 1.625 h 1.625 v 1.625 h 1.625 z m -8.937,-7.89 a 0.79,0.79 0 0 1 0.317,0.063 0.8,0.8 0 0 1 0.254,0.172 0.887,0.887 0 0 1 0.178,0.26 0.682,0.682 0 0 1 0.063,0.317 0.79,0.79 0 0 1 -0.235,0.571 0.856,0.856 0 0 1 -0.26,0.178 0.683,0.683 0 0 1 -0.317,0.064 0.782,0.782 0 0 1 -0.318,-0.064 0.8,0.8 0 0 1 -0.253,-0.171 0.881,0.881 0 0 1 -0.178,-0.26 0.69,0.69 0 0 1 -0.064,-0.318 0.774,0.774 0 0 1 0.064,-0.317 0.8,0.8 0 0 1 0.171,-0.254 0.9,0.9 0 0 1 0.26,-0.178 0.689,0.689 0 0 1 0.318,-0.065 z"
       fill="#1f56a3"
       id="path2077" />
  </g>
  <line
     x1="37.417"
     y1="208.064"
     x2="109.026"
     y2="208.064"
     fill="none"
     stroke="#3c3c41"
     stroke-miterlimit="10"
     id="line2081" />
  <g
     id="g2087">
    <line
       x1="144.63901"
       y1="208.064"
       x2="258.71201"
       y2="208.064"
       fill="none"
       stroke="#3c3c41"
       stroke-miterlimit="10"
       id="line2083" />
    <polygon
       points="257.618,204.324 257.618,211.804 264.094,208.064 "
       fill="#3c3c41"
       id="polygon2085" />
  </g>
  <g
     id="g2099">
    <g
       id="g2093">
      <line
         x1="109.48"
         y1="252.505"
         x2="46.062"
         y2="252.505"
         fill="none"
         stroke="#fed402"
         stroke-miterlimit="10"
         stroke-width="6"
         id="line2089" />
      <line
         x1="109.48"
         y1="252.505"
         x2="46.062"
         y2="252.505"
         fill="none"
         stroke="#3c3c41"
         stroke-miterlimit="10"
         id="line2091" />
    </g>
    <polygon
       points="48.721,259.032 48.721,245.978 37.417,252.505 "
       fill="#fed402"
       id="polygon2095" />
    <polygon
       points="48.721,257.005 48.721,248.005 40.928,252.505 "
       fill="#3c3c41"
       id="polygon2097" />
  </g>
  <g
     id="Text">
    <g
       id="g2124">
      <path
         d="M297.788,158.2H291.95v-9.8h2.208v8.012h3.63Z"
         fill="#2f2f2f"
         id="path2102" />
      <path
         d="M299.932,150.092a1.263,1.263,0,0,1-.9-.324,1.049,1.049,0,0,1-.349-.8,1.01,1.01,0,0,1,.349-.793,1.464,1.464,0,0,1,1.794,0,1.011,1.011,0,0,1,.346.793,1.041,1.041,0,0,1-.346.807A1.282,1.282,0,0,1,299.932,150.092ZM301,158.2h-2.16v-7H301Z"
         fill="#2f2f2f"
         id="path2104" />
      <path
         d="M309.541,158.2h-2.153v-3.89q0-1.626-1.162-1.627a1.153,1.153,0,0,0-.923.431,1.639,1.639,0,0,0-.363,1.094V158.2h-2.16v-7h2.16v1.107h.028a2.474,2.474,0,0,1,2.249-1.278q2.324,0,2.324,2.885Z"
         fill="#2f2f2f"
         id="path2106" />
      <path
         d="M317.9,158.2h-2.154v-1.067h-.034a2.444,2.444,0,0,1-2.14,1.238q-2.434,0-2.433-2.947V151.2h2.153v4.033q0,1.483,1.176,1.483a1.165,1.165,0,0,0,.93-.406,1.643,1.643,0,0,0,.348-1.1V151.2H317.9Z"
         fill="#2f2f2f"
         id="path2108" />
      <path
         d="M326.48,151.2l-2.31,3.39,2.3,3.61h-2.489l-1.011-1.887a6.73,6.73,0,0,1-.294-.636h-.028a4.378,4.378,0,0,1-.28.615l-1.018,1.908h-2.482l2.365-3.487-2.221-3.513h2.5l1,1.962a4.3,4.3,0,0,1,.28.656h.027a4.629,4.629,0,0,1,.294-.67l1.019-1.948Z"
         fill="#2f2f2f"
         id="path2110" />
      <path
         d="M330.855,158.015v-1.75a4.631,4.631,0,0,0,1.063.479,3.517,3.517,0,0,0,1,.157,2.141,2.141,0,0,0,.9-.157.508.508,0,0,0,.332-.479.448.448,0,0,0-.15-.342,1.412,1.412,0,0,0-.387-.239,4.3,4.3,0,0,0-.516-.184q-.281-.083-.54-.185a5.289,5.289,0,0,1-.735-.338,2.107,2.107,0,0,1-.533-.421,1.644,1.644,0,0,1-.328-.554,2.211,2.211,0,0,1-.113-.745,1.913,1.913,0,0,1,.256-1.011,2.1,2.1,0,0,1,.684-.694,3.148,3.148,0,0,1,.977-.4,5.128,5.128,0,0,1,1.146-.126,6.328,6.328,0,0,1,.943.072,6.978,6.978,0,0,1,.944.208v1.668a3.415,3.415,0,0,0-.879-.359,3.734,3.734,0,0,0-.919-.119,2.054,2.054,0,0,0-.4.037,1.313,1.313,0,0,0-.331.11.6.6,0,0,0-.225.184.423.423,0,0,0-.082.256.477.477,0,0,0,.123.329,1.056,1.056,0,0,0,.321.235,3.114,3.114,0,0,0,.441.178c.162.052.322.106.482.161a6.127,6.127,0,0,1,.779.328,2.473,2.473,0,0,1,.6.417,1.635,1.635,0,0,1,.383.56,2.246,2.246,0,0,1-.137,1.829,2.162,2.162,0,0,1-.718.718,3.252,3.252,0,0,1-1.032.4,5.678,5.678,0,0,1-1.213.127A6.261,6.261,0,0,1,330.855,158.015Z"
         fill="#2f2f2f"
         id="path2112" />
      <path
         d="M343.805,155.315h-4.567q.111,1.524,1.921,1.524a3.743,3.743,0,0,0,2.03-.547v1.559a5.331,5.331,0,0,1-2.522.52,3.258,3.258,0,0,1-3.568-3.562,3.754,3.754,0,0,1,1.011-2.762,3.372,3.372,0,0,1,2.489-1.018,3.061,3.061,0,0,1,2.369.909,3.507,3.507,0,0,1,.837,2.468Zm-2-1.326q0-1.5-1.217-1.5a1.157,1.157,0,0,0-.9.431,1.95,1.95,0,0,0-.462,1.073Z"
         fill="#2f2f2f"
         id="path2114" />
      <path
         d="M349.736,153.148a1.875,1.875,0,0,0-.909-.212,1.306,1.306,0,0,0-1.1.516,2.249,2.249,0,0,0-.4,1.405V158.2h-2.16v-7h2.16v1.3h.027a1.869,1.869,0,0,1,1.846-1.422,1.385,1.385,0,0,1,.533.082Z"
         fill="#2f2f2f"
         id="path2116" />
      <path
         d="M357.835,151.2l-2.6,7h-2.46l-2.482-7H352.6l1.216,4.313a6.392,6.392,0,0,1,.24,1.244h.027a6.967,6.967,0,0,1,.253-1.2l1.244-4.354Z"
         fill="#2f2f2f"
         id="path2118" />
      <path
         d="M364.822,155.315h-4.566q.11,1.524,1.921,1.524a3.745,3.745,0,0,0,2.03-.547v1.559a5.331,5.331,0,0,1-2.522.52,3.259,3.259,0,0,1-3.569-3.562,3.751,3.751,0,0,1,1.012-2.762,3.371,3.371,0,0,1,2.488-1.018,3.058,3.058,0,0,1,2.369.909,3.5,3.5,0,0,1,.837,2.468Zm-2-1.326q0-1.5-1.216-1.5a1.16,1.16,0,0,0-.9.431,1.957,1.957,0,0,0-.462,1.073Z"
         fill="#2f2f2f"
         id="path2120" />
      <path
         d="M370.754,153.148a1.881,1.881,0,0,0-.909-.212,1.31,1.31,0,0,0-1.1.516,2.249,2.249,0,0,0-.4,1.405V158.2h-2.161v-7h2.161v1.3h.027a1.869,1.869,0,0,1,1.846-1.422,1.388,1.388,0,0,1,.533.082Z"
         fill="#2f2f2f"
         id="path2122" />
    </g>
    <g
       id="g2158">
      <path
         d="M291.949,16.1V6.3h3.473q5.223,0,5.223,4.778a4.831,4.831,0,0,1-1.425,3.657,5.254,5.254,0,0,1-3.8,1.368ZM294.157,8.1v6.214h1.094a2.959,2.959,0,0,0,2.253-.862,3.27,3.27,0,0,0,.816-2.345,2.964,2.964,0,0,0-.809-2.2,3.087,3.087,0,0,0-2.274-.8Z"
         fill="#2f2f2f"
         id="path2126" />
      <path
         d="M305.389,16.272a3.765,3.765,0,0,1-2.751-.98,3.556,3.556,0,0,1-1-2.663,3.553,3.553,0,0,1,1.039-2.717,3.927,3.927,0,0,1,2.809-.981,3.718,3.718,0,0,1,2.735.981,3.483,3.483,0,0,1,.991,2.594,3.7,3.7,0,0,1-1.022,2.755A3.8,3.8,0,0,1,305.389,16.272Zm.054-5.687a1.442,1.442,0,0,0-1.189.526,2.326,2.326,0,0,0-.424,1.491q0,2.016,1.627,2.016,1.553,0,1.552-2.071Q307.009,10.585,305.443,10.585Z"
         fill="#2f2f2f"
         id="path2128" />
      <path
         d="M321.706,16.1h-2.153V12.109q0-1.524-1.121-1.524a1.031,1.031,0,0,0-.869.458,1.884,1.884,0,0,0-.335,1.142V16.1h-2.16V12.068q0-1.482-1.1-1.483a1.059,1.059,0,0,0-.886.437,1.926,1.926,0,0,0-.331,1.19V16.1h-2.16v-7h2.16V10.2h.027a2.654,2.654,0,0,1,2.263-1.264,2.016,2.016,0,0,1,2.03,1.305,2.59,2.59,0,0,1,2.352-1.305q2.282,0,2.283,2.816Z"
         fill="#2f2f2f"
         id="path2130" />
      <path
         d="M329.271,16.1h-2.043V15.1H327.2a2.284,2.284,0,0,1-2.085,1.175,2.18,2.18,0,0,1-1.6-.577,2.069,2.069,0,0,1-.584-1.542q0-2.037,2.413-2.351l1.9-.253q0-1.149-1.244-1.149a4.246,4.246,0,0,0-2.379.746V9.519a5.372,5.372,0,0,1,1.234-.411,6.513,6.513,0,0,1,1.425-.177q2.994,0,2.994,2.987Zm-2.03-2.844v-.472l-1.271.164q-1.053.138-1.053.95a.784.784,0,0,0,.256.605.982.982,0,0,0,.694.236,1.28,1.28,0,0,0,.991-.42A1.52,1.52,0,0,0,327.241,13.258Z"
         fill="#2f2f2f"
         id="path2132" />
      <path
         d="M332.042,7.994a1.261,1.261,0,0,1-.9-.325,1.045,1.045,0,0,1-.348-.8,1.009,1.009,0,0,1,.348-.793,1.46,1.46,0,0,1,1.794,0,1.011,1.011,0,0,1,.346.793,1.041,1.041,0,0,1-.346.807A1.282,1.282,0,0,1,332.042,7.994Zm1.066,8.108h-2.16v-7h2.16Z"
         fill="#2f2f2f"
         id="path2134" />
      <path
         d="M341.655,16.1H339.5v-3.89q0-1.627-1.162-1.627a1.153,1.153,0,0,0-.923.431,1.636,1.636,0,0,0-.362,1.093V16.1H334.9v-7h2.16v1.107h.027a2.476,2.476,0,0,1,2.249-1.278q2.323,0,2.324,2.884Z"
         fill="#2f2f2f"
         id="path2136" />
      <path
         d="M297.042,32.648a4.262,4.262,0,0,1-2.112.424,3.573,3.573,0,0,1-2.612-.977,3.379,3.379,0,0,1-1-2.523,3.718,3.718,0,0,1,1.071-2.813,3.951,3.951,0,0,1,2.86-1.029,3.666,3.666,0,0,1,1.791.329v1.832a2.456,2.456,0,0,0-1.511-.506,1.99,1.99,0,0,0-1.472.543,2.028,2.028,0,0,0-.544,1.5,2,2,0,0,0,.519,1.459,1.912,1.912,0,0,0,1.429.53,2.844,2.844,0,0,0,1.579-.506Z"
         fill="#2f2f2f"
         id="path2138" />
      <path
         d="M301.772,33.072a3.764,3.764,0,0,1-2.752-.981,3.555,3.555,0,0,1-1-2.662,3.553,3.553,0,0,1,1.039-2.718,3.927,3.927,0,0,1,2.809-.981,3.725,3.725,0,0,1,2.735.981,3.491,3.491,0,0,1,.991,2.6,3.7,3.7,0,0,1-1.023,2.755A3.8,3.8,0,0,1,301.772,33.072Zm.055-5.687a1.438,1.438,0,0,0-1.189.526,2.313,2.313,0,0,0-.424,1.49q0,2.017,1.627,2.017,1.551,0,1.552-2.071Q303.393,27.385,301.827,27.385Z"
         fill="#2f2f2f"
         id="path2140" />
      <path
         d="M313.734,32.9h-2.153V29.012q0-1.628-1.162-1.627a1.155,1.155,0,0,0-.923.43,1.646,1.646,0,0,0-.362,1.094V32.9h-2.16v-7h2.16v1.108h.027a2.478,2.478,0,0,1,2.249-1.279q2.325,0,2.324,2.885Z"
         fill="#2f2f2f"
         id="path2142" />
      <path
         d="M319.584,32.819a3.185,3.185,0,0,1-1.442.253q-2.283,0-2.284-2.372V27.494h-1.134V25.9h1.134v-1.51l2.154-.616V25.9h1.572v1.593h-1.572v2.83q0,1.093.868,1.094a1.463,1.463,0,0,0,.7-.2Z"
         fill="#2f2f2f"
         id="path2144" />
      <path
         d="M325.5,27.85a1.867,1.867,0,0,0-.909-.212,1.312,1.312,0,0,0-1.1.516,2.259,2.259,0,0,0-.4,1.405V32.9h-2.16v-7h2.16v1.3h.027a1.869,1.869,0,0,1,1.846-1.422,1.4,1.4,0,0,1,.533.082Z"
         fill="#2f2f2f"
         id="path2146" />
      <path
         d="M329.927,33.072a3.764,3.764,0,0,1-2.752-.981,3.556,3.556,0,0,1-1-2.662,3.556,3.556,0,0,1,1.039-2.718,3.928,3.928,0,0,1,2.809-.981,3.722,3.722,0,0,1,2.735.981,3.491,3.491,0,0,1,.991,2.6,3.7,3.7,0,0,1-1.022,2.755A3.806,3.806,0,0,1,329.927,33.072Zm.054-5.687a1.439,1.439,0,0,0-1.189.526,2.319,2.319,0,0,0-.424,1.49q0,2.017,1.627,2.017,1.551,0,1.552-2.071Q331.547,27.385,329.981,27.385Z"
         fill="#2f2f2f"
         id="path2148" />
      <path
         d="M337.3,32.9h-2.16V22.538h2.16Z"
         fill="#2f2f2f"
         id="path2150" />
      <path
         d="M341.228,32.9h-2.161V22.538h2.161Z"
         fill="#2f2f2f"
         id="path2152" />
      <path
         d="M349.344,30.017h-4.567q.11,1.524,1.921,1.524a3.745,3.745,0,0,0,2.03-.547v1.559a5.337,5.337,0,0,1-2.522.519,3.257,3.257,0,0,1-3.568-3.561,3.748,3.748,0,0,1,1.011-2.762,3.371,3.371,0,0,1,2.489-1.019,3.059,3.059,0,0,1,2.368.91,3.5,3.5,0,0,1,.838,2.467Zm-2-1.327q0-1.5-1.217-1.5a1.161,1.161,0,0,0-.9.43,1.949,1.949,0,0,0-.461,1.073Z"
         fill="#2f2f2f"
         id="path2154" />
      <path
         d="M355.274,27.85a1.861,1.861,0,0,0-.909-.212,1.309,1.309,0,0,0-1.1.516,2.253,2.253,0,0,0-.4,1.405V32.9h-2.16v-7h2.16v1.3h.027a1.87,1.87,0,0,1,1.846-1.422,1.4,1.4,0,0,1,.533.082Z"
         fill="#2f2f2f"
         id="path2156" />
    </g>
    <g
       id="g2184">
      <path
         d="M295.176,281.4h-1.121v-4.019a3.026,3.026,0,0,0-.359-1.682,1.361,1.361,0,0,0-1.207-.519,1.49,1.49,0,0,0-1.219.656,2.508,2.508,0,0,0-.5,1.572V281.4h-1.122v-4.156q0-2.064-1.592-2.064a1.477,1.477,0,0,0-1.217.618,2.567,2.567,0,0,0-.479,1.61V281.4h-1.121v-7h1.121v1.108h.028a2.378,2.378,0,0,1,2.174-1.272,2.033,2.033,0,0,1,1.251.4,2.012,2.012,0,0,1,.731,1.05,2.5,2.5,0,0,1,2.324-1.45q2.312,0,2.311,2.851Z"
         fill="#2f2f2f"
         id="path2160" />
      <path
         d="M296.828,281.147v-1.2a3.31,3.31,0,0,0,2.017.677q1.476,0,1.476-.984a.848.848,0,0,0-.127-.475,1.272,1.272,0,0,0-.341-.346,2.665,2.665,0,0,0-.506-.27c-.194-.079-.4-.163-.625-.249a7.942,7.942,0,0,1-.818-.373,2.468,2.468,0,0,1-.588-.424,1.573,1.573,0,0,1-.355-.536,1.915,1.915,0,0,1-.119-.7,1.678,1.678,0,0,1,.225-.872,2.006,2.006,0,0,1,.6-.636,2.827,2.827,0,0,1,.857-.386,3.842,3.842,0,0,1,1-.13,4.009,4.009,0,0,1,1.627.315v1.135a3.164,3.164,0,0,0-1.777-.506,2.1,2.1,0,0,0-.567.071,1.41,1.41,0,0,0-.435.2.95.95,0,0,0-.28.311.821.821,0,0,0-.1.4.961.961,0,0,0,.1.458,1.008,1.008,0,0,0,.291.328,2.2,2.2,0,0,0,.465.26c.181.078.389.162.622.253a8.7,8.7,0,0,1,.834.366,2.878,2.878,0,0,1,.629.423,1.661,1.661,0,0,1,.4.544,1.743,1.743,0,0,1,.141.731,1.715,1.715,0,0,1-.23.9,1.949,1.949,0,0,1-.611.635,2.808,2.808,0,0,1-.882.376,4.362,4.362,0,0,1-1.046.123A3.967,3.967,0,0,1,296.828,281.147Z"
         fill="#2f2f2f"
         id="path2162" />
      <path
         d="M302.754,281.147v-1.2a3.313,3.313,0,0,0,2.016.677q1.478,0,1.477-.984a.856.856,0,0,0-.126-.475,1.276,1.276,0,0,0-.342-.346,2.634,2.634,0,0,0-.506-.27c-.194-.079-.4-.163-.626-.249a7.9,7.9,0,0,1-.816-.373,2.429,2.429,0,0,1-.588-.424,1.559,1.559,0,0,1-.355-.536,1.894,1.894,0,0,1-.12-.7,1.678,1.678,0,0,1,.225-.872,2.017,2.017,0,0,1,.6-.636,2.844,2.844,0,0,1,.858-.386,3.823,3.823,0,0,1,.994-.13,4.006,4.006,0,0,1,1.627.315v1.135a3.161,3.161,0,0,0-1.777-.506,2.122,2.122,0,0,0-.568.071,1.409,1.409,0,0,0-.433.2.928.928,0,0,0-.28.311.811.811,0,0,0-.1.4.949.949,0,0,0,.1.458,1,1,0,0,0,.29.328,2.268,2.268,0,0,0,.464.26c.183.078.39.162.623.253a8.7,8.7,0,0,1,.834.366,2.823,2.823,0,0,1,.628.423,1.667,1.667,0,0,1,.4.544,1.759,1.759,0,0,1,.139.731,1.733,1.733,0,0,1-.228.9,1.952,1.952,0,0,1-.612.635,2.789,2.789,0,0,1-.882.376,4.35,4.35,0,0,1-1.046.123A3.972,3.972,0,0,1,302.754,281.147Z"
         fill="#2f2f2f"
         id="path2164" />
      <path
         d="M315.072,284.62h-1.121V280.2h-.027a2.508,2.508,0,0,1-2.393,1.367,2.636,2.636,0,0,1-2.116-.939,3.84,3.84,0,0,1-.8-2.561,4.187,4.187,0,0,1,.875-2.785,2.912,2.912,0,0,1,2.352-1.043,2.209,2.209,0,0,1,2.078,1.135h.027V274.4h1.121Zm-1.121-6.371V277.23a2.038,2.038,0,0,0-.564-1.456,1.89,1.89,0,0,0-1.432-.594,1.925,1.925,0,0,0-1.6.748,3.341,3.341,0,0,0-.587,2.109,2.889,2.889,0,0,0,.567,1.9,1.809,1.809,0,0,0,1.463.687,1.973,1.973,0,0,0,1.568-.673A2.5,2.5,0,0,0,313.951,278.249Z"
         fill="#2f2f2f"
         id="path2166" />
      <path
         d="M318.3,281.4h-1.121V271.037H318.3Z"
         fill="#2f2f2f"
         id="path2168" />
      <path
         d="M320.906,281.551a.723.723,0,0,1-.536-.226.742.742,0,0,1-.223-.54.756.756,0,0,1,.223-.543.719.719,0,0,1,.536-.229.736.736,0,0,1,.547.229.751.751,0,0,1,.226.543.772.772,0,0,1-.773.766Z"
         fill="#2f2f2f"
         id="path2170" />
      <path
         d="M329.311,281.4h-1.573l-3.09-3.363h-.027V281.4H323.5V271.037h1.121v6.569h.027l2.94-3.206h1.47l-3.247,3.377Z"
         fill="#2f2f2f"
         id="path2172" />
      <path
         d="M335.735,278.181h-4.942a2.61,2.61,0,0,0,.629,1.8,2.165,2.165,0,0,0,1.654.636,3.444,3.444,0,0,0,2.174-.779V280.9a4.067,4.067,0,0,1-2.44.669,2.958,2.958,0,0,1-2.332-.953,3.9,3.9,0,0,1-.847-2.683,3.825,3.825,0,0,1,.926-2.663,2.97,2.97,0,0,1,2.3-1.029,2.634,2.634,0,0,1,2.126.889,3.706,3.706,0,0,1,.752,2.468Zm-1.148-.951a2.28,2.28,0,0,0-.469-1.51,1.593,1.593,0,0,0-1.281-.54,1.811,1.811,0,0,0-1.347.567,2.572,2.572,0,0,0-.683,1.483Z"
         fill="#2f2f2f"
         id="path2174" />
      <path
         d="M342.935,274.4l-3.22,8.121q-.861,2.175-2.42,2.174a2.541,2.541,0,0,1-.732-.089v-1a2.079,2.079,0,0,0,.664.123,1.376,1.376,0,0,0,1.271-1.012l.561-1.326-2.735-6.987h1.244l1.894,5.387q.033.1.143.533h.041q.034-.163.137-.519l1.989-5.4Z"
         fill="#2f2f2f"
         id="path2176" />
      <path
         d="M347.853,281.332a2.164,2.164,0,0,1-1.046.219q-1.841,0-1.839-2.051v-4.143h-1.2V274.4h1.2v-1.709l1.121-.362V274.4h1.764v.957h-1.764V279.3a1.634,1.634,0,0,0,.239,1,.956.956,0,0,0,.793.3,1.183,1.183,0,0,0,.732-.232Z"
         fill="#2f2f2f"
         id="path2178" />
      <path
         d="M354.47,281.4h-1.121v-1.093h-.028a2.348,2.348,0,0,1-2.153,1.257,2.305,2.305,0,0,1-1.638-.553,1.922,1.922,0,0,1-.591-1.47q0-1.962,2.311-2.283l2.1-.294q0-1.785-1.443-1.784a3.445,3.445,0,0,0-2.283.861v-1.148a4.331,4.331,0,0,1,2.379-.657q2.466,0,2.468,2.612Zm-1.121-3.541-1.689.233a2.739,2.739,0,0,0-1.176.386,1.116,1.116,0,0,0-.4.981,1.069,1.069,0,0,0,.365.837,1.411,1.411,0,0,0,.975.325,1.8,1.8,0,0,0,1.377-.584,2.091,2.091,0,0,0,.544-1.48Z"
         fill="#2f2f2f"
         id="path2180" />
      <path
         d="M357.639,280.389h-.028V281.4H356.49V271.037h1.121v4.594h.028a2.65,2.65,0,0,1,2.42-1.395,2.569,2.569,0,0,1,2.109.94,3.884,3.884,0,0,1,.762,2.519,4.335,4.335,0,0,1-.855,2.813,2.843,2.843,0,0,1-2.338,1.056A2.3,2.3,0,0,1,357.639,280.389Zm-.028-2.824v.978a2.081,2.081,0,0,0,.565,1.473,2.012,2.012,0,0,0,3.028-.174,3.577,3.577,0,0,0,.577-2.167,2.817,2.817,0,0,0-.54-1.832,1.785,1.785,0,0,0-1.463-.663,1.986,1.986,0,0,0-1.572.68A2.5,2.5,0,0,0,357.611,277.565Z"
         fill="#2f2f2f"
         id="path2182" />
    </g>
    <g
       id="g2192">
      <path
         d="M121.969,40.841h-2.83v8.764H117.99V40.841h-2.823V39.8h6.8Z"
         fill="#2f2f2f"
         id="path2186" />
      <path
         d="M130.274,48.935a6.554,6.554,0,0,1-3.281.834,4.483,4.483,0,0,1-3.393-1.353,4.962,4.962,0,0,1-1.3-3.583,5.094,5.094,0,0,1,1.439-3.735,4.905,4.905,0,0,1,3.647-1.46,6.208,6.208,0,0,1,2.686.52v1.271a5.16,5.16,0,0,0-2.816-.752,3.521,3.521,0,0,0-2.7,1.135,4.741,4.741,0,0,0-.076,5.862,3.431,3.431,0,0,0,2.653,1.063,4.1,4.1,0,0,0,1.989-.458V45.531h-2.147V44.492h3.3Z"
         fill="#2f2f2f"
         id="path2188" />
      <path
         d="M138.238,40.841h-2.83v8.764H134.26V40.841h-2.823V39.8h6.8Z"
         fill="#2f2f2f"
         id="path2190" />
    </g>
    <g
       id="g2200">
      <path
         d="M151.093,49.208V47.855a2.608,2.608,0,0,0,.556.369,4.571,4.571,0,0,0,.684.277,5.415,5.415,0,0,0,.722.174,4.023,4.023,0,0,0,.67.062,2.624,2.624,0,0,0,1.582-.393,1.473,1.473,0,0,0,.348-1.822,1.961,1.961,0,0,0-.481-.537,4.729,4.729,0,0,0-.729-.464q-.42-.222-.905-.469-.513-.26-.957-.526a4.113,4.113,0,0,1-.772-.588,2.462,2.462,0,0,1-.517-.728,2.481,2.481,0,0,1,.106-2.119,2.505,2.505,0,0,1,.773-.817,3.5,3.5,0,0,1,1.09-.479,4.987,4.987,0,0,1,1.248-.157,4.77,4.77,0,0,1,2.112.349v1.292a3.83,3.83,0,0,0-2.228-.6,3.687,3.687,0,0,0-.752.079,2.114,2.114,0,0,0-.67.256,1.479,1.479,0,0,0-.479.458,1.217,1.217,0,0,0-.184.684,1.412,1.412,0,0,0,.139.649,1.6,1.6,0,0,0,.414.5,4.088,4.088,0,0,0,.666.438q.394.211.907.465t1,.546a4.661,4.661,0,0,1,.827.636,2.825,2.825,0,0,1,.563.773,2.155,2.155,0,0,1,.209.97,2.463,2.463,0,0,1-.284,1.227,2.307,2.307,0,0,1-.766.817,3.323,3.323,0,0,1-1.11.455,6.112,6.112,0,0,1-1.326.14,5.417,5.417,0,0,1-.574-.038c-.229-.024-.461-.061-.7-.109a5.6,5.6,0,0,1-.673-.178A2.042,2.042,0,0,1,151.093,49.208Z"
         fill="#2f2f2f"
         id="path2194" />
      <path
         d="M159.927,45.9v3.7h-1.149V39.8h2.694a3.554,3.554,0,0,1,2.436.766,2.731,2.731,0,0,1,.865,2.16,2.967,2.967,0,0,1-.961,2.283,3.662,3.662,0,0,1-2.593.889Zm0-5.059v4.02h1.2a2.684,2.684,0,0,0,1.814-.544,1.924,1.924,0,0,0,.626-1.534q0-1.943-2.3-1.942Z"
         fill="#2f2f2f"
         id="path2196" />
      <path
         d="M174.228,49.605H172.82l-5.045-7.813a3.28,3.28,0,0,1-.314-.616h-.041a9.988,9.988,0,0,1,.055,1.347v7.082h-1.149V39.8h1.49l4.909,7.691c.205.319.337.537.4.656h.027a10.478,10.478,0,0,1-.068-1.442V39.8h1.148Z"
         fill="#2f2f2f"
         id="path2198" />
    </g>
    <g
       id="g2232">
      <path
         d="M95.426,294.6H94.305v-1.094h-.028a2.345,2.345,0,0,1-2.153,1.258,2.3,2.3,0,0,1-1.637-.554,1.917,1.917,0,0,1-.592-1.469q0-1.962,2.311-2.283l2.1-.294q0-1.785-1.443-1.785a3.451,3.451,0,0,0-2.283.862v-1.149a4.346,4.346,0,0,1,2.379-.656q2.468,0,2.468,2.611Zm-1.121-3.541-1.689.233a2.73,2.73,0,0,0-1.176.386,1.116,1.116,0,0,0-.4.981,1.068,1.068,0,0,0,.366.837,1.413,1.413,0,0,0,.974.325,1.8,1.8,0,0,0,1.378-.585,2.087,2.087,0,0,0,.543-1.48Z"
         fill="#2f2f2f"
         id="path2202" />
      <path
         d="M102.27,294.279a3.643,3.643,0,0,1-1.915.485,3.173,3.173,0,0,1-2.417-.974,3.532,3.532,0,0,1-.918-2.526,3.881,3.881,0,0,1,.991-2.779,3.467,3.467,0,0,1,2.645-1.049,3.683,3.683,0,0,1,1.627.342v1.148a2.855,2.855,0,0,0-1.668-.547,2.257,2.257,0,0,0-1.761.769,2.918,2.918,0,0,0-.686,2.02,2.782,2.782,0,0,0,.645,1.942,2.229,2.229,0,0,0,1.734.711,2.813,2.813,0,0,0,1.723-.609Z"
         fill="#2f2f2f"
         id="path2204" />
      <path
         d="M108.563,294.279a3.635,3.635,0,0,1-1.914.485,3.169,3.169,0,0,1-2.416-.974,3.529,3.529,0,0,1-.92-2.526,3.886,3.886,0,0,1,.992-2.779,3.47,3.47,0,0,1,2.645-1.049,3.68,3.68,0,0,1,1.627.342v1.148a2.852,2.852,0,0,0-1.668-.547,2.256,2.256,0,0,0-1.76.769,2.919,2.919,0,0,0-.687,2.02,2.782,2.782,0,0,0,.646,1.942,2.227,2.227,0,0,0,1.733.711,2.8,2.8,0,0,0,1.722-.609Z"
         fill="#2f2f2f"
         id="path2206" />
      <path
         d="M115.734,291.38h-4.942a2.617,2.617,0,0,0,.629,1.805,2.165,2.165,0,0,0,1.654.636,3.444,3.444,0,0,0,2.174-.779v1.052a4.06,4.06,0,0,1-2.44.67,2.957,2.957,0,0,1-2.331-.953,3.9,3.9,0,0,1-.848-2.684,3.824,3.824,0,0,1,.926-2.662,2.97,2.97,0,0,1,2.3-1.029,2.631,2.631,0,0,1,2.126.889,3.705,3.705,0,0,1,.752,2.467Zm-1.148-.95a2.282,2.282,0,0,0-.469-1.511,1.6,1.6,0,0,0-1.281-.54,1.809,1.809,0,0,0-1.347.568,2.569,2.569,0,0,0-.683,1.483Z"
         fill="#2f2f2f"
         id="path2208" />
      <path
         d="M118.565,293.588h-.027v4.232h-1.121V287.6h1.121v1.231h.027a2.65,2.65,0,0,1,2.42-1.4,2.566,2.566,0,0,1,2.113.94,3.9,3.9,0,0,1,.758,2.519,4.343,4.343,0,0,1-.854,2.813,2.847,2.847,0,0,1-2.338,1.056A2.343,2.343,0,0,1,118.565,293.588Zm-.027-2.823v.978a2.083,2.083,0,0,0,.564,1.473,2.012,2.012,0,0,0,3.028-.174,3.57,3.57,0,0,0,.578-2.167,2.83,2.83,0,0,0-.54-1.833,1.791,1.791,0,0,0-1.463-.663,1.984,1.984,0,0,0-1.572.681A2.494,2.494,0,0,0,118.538,290.765Z"
         fill="#2f2f2f"
         id="path2210" />
      <path
         d="M128.8,294.532a2.157,2.157,0,0,1-1.046.218q-1.839,0-1.839-2.05v-4.143h-1.2V287.6h1.2v-1.709l1.121-.362V287.6H128.8v.957h-1.764V292.5a1.637,1.637,0,0,0,.239,1,.956.956,0,0,0,.793.3,1.183,1.183,0,0,0,.732-.232Z"
         fill="#2f2f2f"
         id="path2212" />
      <path
         d="M135.792,291.38H130.85a2.612,2.612,0,0,0,.628,1.805,2.169,2.169,0,0,0,1.655.636,3.446,3.446,0,0,0,2.174-.779v1.052a4.063,4.063,0,0,1-2.441.67,2.96,2.96,0,0,1-2.331-.953,3.907,3.907,0,0,1-.848-2.684,3.829,3.829,0,0,1,.926-2.662,2.972,2.972,0,0,1,2.3-1.029,2.631,2.631,0,0,1,2.126.889,3.705,3.705,0,0,1,.752,2.467Zm-1.148-.95a2.288,2.288,0,0,0-.469-1.511,1.6,1.6,0,0,0-1.281-.54,1.807,1.807,0,0,0-1.347.568,2.57,2.57,0,0,0-.684,1.483Z"
         fill="#2f2f2f"
         id="path2214" />
      <path
         d="M143.523,294.6H142.4v-1.189h-.027a2.589,2.589,0,0,1-2.406,1.353,2.616,2.616,0,0,1-2.11-.94,3.857,3.857,0,0,1-.789-2.56,4.19,4.19,0,0,1,.875-2.782,2.887,2.887,0,0,1,2.331-1.046,2.245,2.245,0,0,1,2.1,1.135h.027v-4.334h1.121Zm-1.121-3.165V290.4a2.006,2.006,0,0,0-.56-1.436,1.881,1.881,0,0,0-1.422-.588,1.934,1.934,0,0,0-1.613.752,3.29,3.29,0,0,0-.588,2.078,2.963,2.963,0,0,0,.563,1.911,1.845,1.845,0,0,0,1.515.7,1.913,1.913,0,0,0,1.52-.677A2.52,2.52,0,0,0,142.4,291.435Z"
         fill="#2f2f2f"
         id="path2216" />
      <path
         d="M154.051,284.8l-4.7,11.43H148.3l4.689-11.43Z"
         fill="#2f2f2f"
         id="path2218" />
      <path
         d="M164.893,294.6h-1.122v-1.189h-.027a2.588,2.588,0,0,1-2.406,1.353,2.616,2.616,0,0,1-2.11-.94,3.857,3.857,0,0,1-.789-2.56,4.19,4.19,0,0,1,.875-2.782,2.887,2.887,0,0,1,2.331-1.046,2.244,2.244,0,0,1,2.1,1.135h.027v-4.334h1.122Zm-1.122-3.165V290.4a2.006,2.006,0,0,0-.56-1.436,1.881,1.881,0,0,0-1.422-.588,1.934,1.934,0,0,0-1.613.752,3.29,3.29,0,0,0-.588,2.078,2.963,2.963,0,0,0,.563,1.911,1.845,1.845,0,0,0,1.515.7,1.916,1.916,0,0,0,1.521-.677A2.524,2.524,0,0,0,163.771,291.435Z"
         fill="#2f2f2f"
         id="path2220" />
      <path
         d="M172.714,291.38h-4.943a2.617,2.617,0,0,0,.629,1.805,2.169,2.169,0,0,0,1.655.636,3.441,3.441,0,0,0,2.173-.779v1.052a4.058,4.058,0,0,1-2.44.67,2.959,2.959,0,0,1-2.331-.953,3.907,3.907,0,0,1-.848-2.684,3.829,3.829,0,0,1,.926-2.662,2.972,2.972,0,0,1,2.3-1.029,2.631,2.631,0,0,1,2.126.889,3.705,3.705,0,0,1,.752,2.467Zm-1.149-.95a2.282,2.282,0,0,0-.468-1.511,1.6,1.6,0,0,0-1.282-.54,1.807,1.807,0,0,0-1.346.568,2.57,2.57,0,0,0-.684,1.483Z"
         fill="#2f2f2f"
         id="path2222" />
      <path
         d="M180.207,294.6h-1.121v-3.992q0-2.229-1.627-2.229a1.767,1.767,0,0,0-1.392.633,2.345,2.345,0,0,0-.549,1.6V294.6H174.4v-7h1.122v1.162h.027a2.526,2.526,0,0,1,2.3-1.326,2.143,2.143,0,0,1,1.757.742,3.307,3.307,0,0,1,.608,2.143Z"
         fill="#2f2f2f"
         id="path2224" />
      <path
         d="M182.791,285.823a.716.716,0,0,1-.513-.2.7.7,0,0,1-.212-.52.717.717,0,0,1,.725-.731.723.723,0,0,1,.523.208.731.731,0,0,1,0,1.036A.718.718,0,0,1,182.791,285.823Zm.547,8.777h-1.121v-7h1.121Z"
         fill="#2f2f2f"
         id="path2226" />
      <path
         d="M191.132,291.38h-4.943a2.617,2.617,0,0,0,.629,1.805,2.167,2.167,0,0,0,1.655.636,3.441,3.441,0,0,0,2.173-.779v1.052a4.058,4.058,0,0,1-2.44.67,2.959,2.959,0,0,1-2.331-.953,3.907,3.907,0,0,1-.848-2.684,3.829,3.829,0,0,1,.926-2.662,2.972,2.972,0,0,1,2.3-1.029,2.631,2.631,0,0,1,2.126.889,3.705,3.705,0,0,1,.752,2.467Zm-1.149-.95a2.288,2.288,0,0,0-.468-1.511,1.6,1.6,0,0,0-1.282-.54,1.807,1.807,0,0,0-1.346.568,2.57,2.57,0,0,0-.684,1.483Z"
         fill="#2f2f2f"
         id="path2228" />
      <path
         d="M198.863,294.6h-1.121v-1.189h-.027a2.589,2.589,0,0,1-2.406,1.353,2.616,2.616,0,0,1-2.11-.94,3.857,3.857,0,0,1-.789-2.56,4.19,4.19,0,0,1,.875-2.782,2.886,2.886,0,0,1,2.331-1.046,2.245,2.245,0,0,1,2.1,1.135h.027v-4.334h1.121Zm-1.121-3.165V290.4a2.006,2.006,0,0,0-.56-1.436,1.881,1.881,0,0,0-1.422-.588,1.938,1.938,0,0,0-1.614.752,3.3,3.3,0,0,0-.587,2.078,2.963,2.963,0,0,0,.563,1.911,1.845,1.845,0,0,0,1.515.7,1.913,1.913,0,0,0,1.52-.677A2.52,2.52,0,0,0,197.742,291.435Z"
         fill="#2f2f2f"
         id="path2230" />
    </g>
  </g>
  <text
     xml:space="preserve"
     style="font-style:normal;font-weight:normal;font-size:13.3333px;line-height:0.25;font-family:sans-serif;letter-spacing:0.4px;fill:#000000;fill-opacity:1;stroke:none;stroke-width:1"
     x="17.786783"
     y="16.2052"
     id="text10820"><tspan
       sodipodi:role="line"
       id="tspan10818"
       x="17.786783"
       y="16.2052"
       style="font-style:normal;font-variant:normal;font-weight:bold;font-stretch:normal;font-size:13.3333px;font-family:Tahoma;-inkscape-font-specification:'Tahoma Bold';stroke-width:1"
       dx="0.02000002">Client</tspan></text>
</svg>
