<svg xmlns="http://www.w3.org/2000/svg" xmlns:xlink="http://www.w3.org/1999/xlink" viewBox="0 0 422.43 357.46">
  <defs>
    <linearGradient id="linear-gradient" x1="273.618" y1="1042.508" x2="273.618" y2="1008.174" gradientTransform="matrix(1, 0, 0, -1, 0, 1180.516)" gradientUnits="userSpaceOnUse">
      <stop offset="0" stop-color="#b3b2b4"/>
      <stop offset="0.38" stop-color="#b0aeaf"/>
      <stop offset="0.76" stop-color="#a2a1a1"/>
      <stop offset="1" stop-color="#979797"/>
    </linearGradient>
    <linearGradient id="linear-gradient-2" x1="274.158" y1="1161.858" x2="274.158" y2="1125.858" xlink:href="#linear-gradient"/>
    <linearGradient id="linear-gradient-3" x1="337.253" y1="937.211" x2="359.877" y2="937.211" gradientTransform="matrix(1, 0, 0, -1, 0, 1180.516)" gradientUnits="userSpaceOnUse">
      <stop offset="0" stop-color="#005ca1"/>
      <stop offset="0.07" stop-color="#0161aa"/>
      <stop offset="0.36" stop-color="#2571b8"/>
      <stop offset="0.52" stop-color="#2e76bc"/>
      <stop offset="0.64" stop-color="#2973ba"/>
      <stop offset="0.82" stop-color="#166bb5"/>
      <stop offset="1" stop-color="#005ca1"/>
    </linearGradient>
    <radialGradient id="radial-gradient" cx="349.2" cy="936.487" r="12.476" gradientTransform="matrix(1, 0, 0, -1, 0, 1180.516)" gradientUnits="userSpaceOnUse">
      <stop offset="0" stop-color="#f2f2f3"/>
      <stop offset="0.58" stop-color="#eee"/>
      <stop offset="1" stop-color="#e6e6e6"/>
    </radialGradient>
    <linearGradient id="linear-gradient-4" x1="348.565" y1="880.458" x2="348.565" y2="910.458" gradientTransform="matrix(1, 0, 0, -1, 0, 1180.516)" gradientUnits="userSpaceOnUse">
      <stop offset="0" stop-color="#2e76bc"/>
      <stop offset="0.817" stop-color="#699cd3"/>
    </linearGradient>
    <linearGradient id="linear-gradient-5" x1="130.962" y1="1097.547" x2="130.962" y2="1127.547" xlink:href="#linear-gradient-4"/>
    <linearGradient id="linear-gradient-6" x1="167.163" y1="1097.547" x2="167.163" y2="1127.547" xlink:href="#linear-gradient-4"/>
    <linearGradient id="linear-gradient-7" x1="328.117" y1="1081.858" x2="328.117" y2="1111.858" gradientTransform="matrix(1, 0, 0, -1, 0, 1180.516)" gradientUnits="userSpaceOnUse">
      <stop offset="0" stop-color="#2e76bc"/>
      <stop offset="0.82" stop-color="#699cd3"/>
    </linearGradient>
    <linearGradient id="linear-gradient-8" x1="41.237" y1="1132.995" x2="41.237" y2="1161.858" xlink:href="#linear-gradient-7"/>
    <linearGradient id="linear-gradient-9" x1="41.25" y1="1121.858" x2="41.25" y2="1132.995" gradientTransform="matrix(1, 0, 0, -1, 0, 1180.516)" gradientUnits="userSpaceOnUse">
      <stop offset="0.15" stop-color="#cccccb"/>
      <stop offset="1" stop-color="#707071"/>
    </linearGradient>
    <linearGradient id="linear-gradient-10" x1="21.376" y1="1140.391" x2="21.376" y2="1117.775" gradientTransform="matrix(1, 0, 0, -1, 0, 1180.516)" gradientUnits="userSpaceOnUse">
      <stop offset="0.22" stop-color="#50c8e9"/>
      <stop offset="0.47" stop-color="#4ac7e9"/>
      <stop offset="0.63" stop-color="#3bc4e7"/>
      <stop offset="0.77" stop-color="#2abade"/>
      <stop offset="0.89" stop-color="#21a5cb"/>
      <stop offset="1" stop-color="#1b8ab3"/>
    </linearGradient>
    <linearGradient id="linear-gradient-11" x1="20.726" y1="1152.525" x2="22.376" y2="1131.991" xlink:href="#linear-gradient-10"/>
    <linearGradient id="linear-gradient-12" x1="130.962" y1="1056.625" x2="130.962" y2="1086.625" xlink:href="#linear-gradient-4"/>
    <linearGradient id="linear-gradient-13" x1="167.163" y1="890.358" x2="167.163" y2="920.358" xlink:href="#linear-gradient-4"/>
    <linearGradient id="linear-gradient-14" x1="130.962" y1="890.358" x2="130.962" y2="920.358" xlink:href="#linear-gradient-4"/>
    <linearGradient id="linear-gradient-15" x1="130.962" y1="930.506" x2="130.962" y2="960.506" xlink:href="#linear-gradient-4"/>
    <symbol id="Success_Checked" data-name="Success Checked" viewBox="0 0 16 13.82">
      <path d="M.632,7.427.1,6.852a.38.38,0,0,1,.022-.538L1.657,4.9a.374.374,0,0,1,.255-.1.367.367,0,0,1,.276.123L6.406,9.441l7.258-9.3A.377.377,0,0,1,14.2.081l1.659,1.28A.362.362,0,0,1,16,1.609a.367.367,0,0,1-.081.276L6.6,13.82Z" fill="#7ebb42"/>
    </symbol>
  </defs>
  <g id="Shapes">
    <rect width="422.43" height="357.46" fill="#fff"/>
    <g>
      <rect x="273.117" y="164.658" width="143.353" height="184.8" fill="#fff"/>
      <rect x="273.117" y="164.658" width="143.353" height="184.8" fill="#767676" opacity="0.3"/>
    </g>
    <rect x="284.471" y="182.258" width="110.588" height="145.2" fill="#fff" stroke="#767676" stroke-width="0.25"/>
    <rect x="289.459" y="186.658" width="110" height="145.2" fill="#fff" stroke="#767676" stroke-width="0.25"/>
    <rect x="293.859" y="191.058" width="110" height="145.2" fill="#fff" stroke="#767676" stroke-width="0.25"/>
    <g>
      <g>
        <path d="M284.764,171.175a1.236,1.236,0,0,1-1.284,1.166H263.756a1.236,1.236,0,0,1-1.285-1.166v-32a1.236,1.236,0,0,1,1.285-1.165H283.48a1.235,1.235,0,0,1,1.284,1.165Z" fill="url(#linear-gradient)"/>
        <path d="M265.754,152.689A2.57,2.57,0,0,1,268.133,150h11.135a2.57,2.57,0,0,1,2.38,2.689h0a2.545,2.545,0,0,1-2.292,2.776c-.029,0-.058.006-.088.007H268.181a2.544,2.544,0,0,1-2.379-2.664Z" fill="#1e3465"/>
        <path d="M265.754,144.742a2.546,2.546,0,0,1,2.379-2.665h11.135a2.546,2.546,0,0,1,2.38,2.665h0a2.569,2.569,0,0,1-2.38,2.688H268.181a2.569,2.569,0,0,1-2.379-2.688Z" fill="#1e3465"/>
        <circle cx="268.871" cy="144.742" r="1.784" fill="#74cfeb"/>
        <circle cx="268.871" cy="152.689" r="1.784" fill="#74cfeb"/>
      </g>
      <g>
        <path d="M292.989,173.659h0a1.952,1.952,0,0,1-.29-.794,1.577,1.577,0,0,0-.424-.9h0a1.2,1.2,0,0,0-.161-.118,1.144,1.144,0,0,0-.166-.08,4.659,4.659,0,0,0-.149-3.182,10.69,10.69,0,0,0-1.872-2.994,4.5,4.5,0,0,1-1.342-2.9c.02-1.849.2-5.279-3.052-5.283-.132,0-.27,0-.414.017-3.637.292-2.672,4.135-2.726,5.421a4.651,4.651,0,0,1-.9,2.6,12.848,12.848,0,0,0-2.337,3.89,4.636,4.636,0,0,0-.248,2.145c-.033.03-.064.061-.095.092-.223.239-.388.528-.571.722a1.8,1.8,0,0,1-.686.333,1.229,1.229,0,0,0-.743.582h0a1.043,1.043,0,0,0-.112.5,3.16,3.16,0,0,0,.048.476,2.111,2.111,0,0,1,.033.836,1.611,1.611,0,0,0-.091,1.276,1.083,1.083,0,0,0,.808.494,8.527,8.527,0,0,1,2.388.5l.064-.121-.063.121a3.384,3.384,0,0,0,2.25.417,1.459,1.459,0,0,0,1.042-.813c.5,0,1.058-.216,1.945-.265.6-.049,1.353.214,2.217.166a1.226,1.226,0,0,0,.1.269l0,0a1.616,1.616,0,0,0,1.621.924A2.945,2.945,0,0,0,291,176.878l-.105-.088.105.087a6.987,6.987,0,0,1,2.047-1.294.971.971,0,0,0,.561-.736,1.782,1.782,0,0,0-.617-1.188" fill="#202020"/>
        <path d="M293.333,174.832c-.012.2-.159.353-.43.516a6.776,6.776,0,0,0-2.115,1.354,2.684,2.684,0,0,1-1.754,1.027,1.314,1.314,0,0,1-1.356-.776h0a2.205,2.205,0,0,1,.046-1.457,9.713,9.713,0,0,0,.4-1.635h0a8.741,8.741,0,0,1,.168-1.557,1.208,1.208,0,0,1,.551-.847l.039-.021a1.236,1.236,0,0,0,.758,1.186,1.881,1.881,0,0,0,1.545-.656c.062,0,.122-.006.18-.007a.95.95,0,0,1,.73.212h0a1.411,1.411,0,0,1,.337.756,2,2,0,0,0,.352.916h0c.423.47.56.788.548.991" fill="#ffcd00"/>
        <path d="M283.036,176.33h0v0a1.146,1.146,0,0,1-.968,1.119,3.157,3.157,0,0,1-2.062-.393h0a8.121,8.121,0,0,0-2.459-.53.82.82,0,0,1-.62-.351,1.4,1.4,0,0,1,.105-1.061v-.005a2.107,2.107,0,0,0-.023-.963,1.365,1.365,0,0,1,.036-.806v0a.928.928,0,0,1,.594-.453,1.9,1.9,0,0,0,.787-.4l0,0h0c.218-.23.382-.519.574-.724a.75.75,0,0,1,.568-.289h.009a.944.944,0,0,1,.136.011,1.413,1.413,0,0,1,.879.645l.787,1.433h0a9.806,9.806,0,0,0,1.026,1.407,2.3,2.3,0,0,1,.626,1.359" fill="#ffcd00"/>
        <path d="M286.957,162.971a.761.761,0,0,0-.411-.332h0a6.449,6.449,0,0,1-.909-.375,1.92,1.92,0,0,0-1.042-.359,1.226,1.226,0,0,0-.4.068,2,2,0,0,0-.722.5h0c-.029.027-.065.051-.154.116s-.222.163-.414.307a.418.418,0,0,0-.167.49,1.179,1.179,0,0,0,.591.616h0a4.292,4.292,0,0,1,.528.43,1.219,1.219,0,0,0,.278.173,1.135,1.135,0,0,0,.385.085,1.489,1.489,0,0,0,.869-.224,3.966,3.966,0,0,1,.668-.375h0a1.4,1.4,0,0,0,.914-.726.478.478,0,0,0-.012-.4" fill="#ffcd00"/>
        <path d="M285.759,163.668a2.873,2.873,0,0,1-1.281.433,1.77,1.77,0,0,1-1.1-.426c-.133-.105-.24-.209-.322-.285-.14-.111-.124-.267-.066-.263.1.013.112.14.173.2.083.078.186.178.311.277a1.615,1.615,0,0,0,1,.392,2.776,2.776,0,0,0,1.2-.412,6.533,6.533,0,0,0,.558-.393c.134-.1.129-.217.24-.2s.029.131-.126.267a3.506,3.506,0,0,1-.595.417" fill="#202020"/>
        <path d="M291.511,171.683c-.052,0-.1,0-.153,0h-.014c.129-.407-.156-.708-.917-1.052-.788-.346-1.417-.312-1.523.392-.006.036-.012.074-.016.112a1.311,1.311,0,0,0-.178.079,1.5,1.5,0,0,0-.685,1.021,8.867,8.867,0,0,0-.175,1.607h0a6.284,6.284,0,0,1-.274,1.165,3.972,3.972,0,0,1-4.606.282c-.1-.164-.221-.325-.343-.485-.078-.1-.158-.2-.237-.3a.953.953,0,0,0,.4-.073.5.5,0,0,0,.274-.283,1.135,1.135,0,0,0-.3-1,5.442,5.442,0,0,0-1.539-1.309h0a2.179,2.179,0,0,1-.989-1.2,2.7,2.7,0,0,1-.013-1.416,8.406,8.406,0,0,1,1.1-2.38c.092-.068.033.127-.35.837-.342.648-.982,2.146-.106,3.315a6.975,6.975,0,0,1,.556-2.474A14.818,14.818,0,0,0,283,163.98c.042.03.185.127.248.163h0a4.628,4.628,0,0,1,.507.416,1.256,1.256,0,0,0,.752.292l.1,0a1.672,1.672,0,0,0,.859-.247,4.51,4.51,0,0,1,.638-.362h0a1.715,1.715,0,0,0,.9-.6,20.742,20.742,0,0,0,1.5,3.851,8.966,8.966,0,0,1,.948,2.6,1.62,1.62,0,0,1,.441.056,3.51,3.51,0,0,0-.938-3.414c-.189-.183-.2-.265-.1-.261a4.952,4.952,0,0,1,1.417,2.372,3.043,3.043,0,0,1,.015,1.436c.058.024.117.05.177.079.889.433,1.218.809,1.06,1.323" fill="#fff"/>
        <path d="M287,161.562a1.547,1.547,0,0,1-.132.659,1.26,1.26,0,0,1-.185.309c-.024-.012-.05-.023-.076-.034-.092-.039-.172-.072-.245-.1s-.129-.046-.187-.066a.833.833,0,0,0,.156-.187,1,1,0,0,0,.075-.359v-.016a.986.986,0,0,0-.051-.347.639.639,0,0,0-.16-.271.325.325,0,0,0-.229-.1h-.013a.34.34,0,0,0-.223.089.643.643,0,0,0-.179.258,1,1,0,0,0-.075.36v.015a1.142,1.142,0,0,0,.015.206,2.59,2.59,0,0,0-.523-.178c-.008-.063-.013-.128-.015-.2v-.018a1.539,1.539,0,0,1,.13-.66,1.171,1.171,0,0,1,.37-.485.818.818,0,0,1,.51-.181h.009a.818.818,0,0,1,.5.172,1.15,1.15,0,0,1,.379.477,1.525,1.525,0,0,1,.143.639l0,.018" fill="#fff"/>
        <path d="M284.211,161.8l-.071.023a1.415,1.415,0,0,0-.338.163.9.9,0,0,0,0-.221v-.012a.971.971,0,0,0-.07-.283.54.54,0,0,0-.143-.209.229.229,0,0,0-.158-.066h-.017a.23.23,0,0,0-.162.095.556.556,0,0,0-.1.23.943.943,0,0,0-.02.3v.012a.947.947,0,0,0,.07.284.542.542,0,0,0,.142.208c.01.009.02.016.029.023-.06.047-.1.08-.151.116l-.114.084a1.04,1.04,0,0,1-.237-.353,1.592,1.592,0,0,1-.132-.563h0a1.6,1.6,0,0,1,.066-.575.99.99,0,0,1,.247-.431.529.529,0,0,1,.359-.173h.031a.534.534,0,0,1,.346.132.994.994,0,0,1,.293.4,1.528,1.528,0,0,1,.131.562v0a1.6,1.6,0,0,1,0,.25" fill="#fff"/>
        <path d="M284.828,162.3c.015.05.1.042.142.066s.073.067.119.068.112-.015.118-.058-.076-.094-.13-.115a.275.275,0,0,0-.223-.005c-.015.009-.032.028-.026.044" fill="#202020"/>
        <path d="M284.353,162.3c-.016.05-.1.042-.143.066s-.073.067-.119.068-.112-.015-.117-.058.076-.094.13-.115a.275.275,0,0,1,.223-.005c.015.009.031.028.026.044" fill="#202020"/>
      </g>
    </g>
    <g>
      <rect x="273.117" y="37.058" width="110" height="88" fill="#fff"/>
      <rect x="273.117" y="37.058" width="110" height="88" fill="#767676" opacity="0.3"/>
    </g>
    <g>
      <rect x="31.653" y="32.658" width="7.318" height="316.8" fill="#fff"/>
      <rect x="31.653" y="32.658" width="7.318" height="316.8" fill="#83b9f9" opacity="0.5"/>
    </g>
    <g>
      <path d="M285.846,53.435a1.3,1.3,0,0,1-1.347,1.222H263.818a1.3,1.3,0,0,1-1.347-1.222V19.881a1.3,1.3,0,0,1,1.347-1.222H284.5a1.3,1.3,0,0,1,1.347,1.222Z" fill="url(#linear-gradient-2)"/>
      <path d="M265.913,34.051a2.7,2.7,0,0,1,2.5-2.819h11.675a2.7,2.7,0,0,1,2.495,2.819h0a2.67,2.67,0,0,1-2.4,2.912l-.092.007H268.458a2.67,2.67,0,0,1-2.5-2.794Z" fill="#1e3465"/>
      <path d="M265.913,25.719a2.67,2.67,0,0,1,2.5-2.794h11.675a2.67,2.67,0,0,1,2.495,2.794h0a2.7,2.7,0,0,1-2.495,2.819H268.458a2.7,2.7,0,0,1-2.5-2.819Z" fill="#1e3465"/>
      <circle cx="269.181" cy="25.719" r="1.871" fill="#74cfeb"/>
      <circle cx="269.181" cy="34.051" r="1.871" fill="#74cfeb"/>
    </g>
    <g>
      <path d="M348.565,234.446c-6.247,0-11.312-1.765-11.312-4.094v21.812c0,2.241,4.977,4.059,11.153,4.094h.159c6.247,0,11.312-1.765,11.312-4.094V230.352C359.877,232.629,354.812,234.446,348.565,234.446Z" fill="url(#linear-gradient-3)"/>
      <path d="M359.877,230.352c0,2.277-5.065,4.094-11.312,4.094s-11.312-1.765-11.312-4.094,5.065-4.094,11.312-4.094,11.312,1.765,11.312,4.094" fill="#e8e8e8"/>
      <path d="M357.247,230.017c0,1.447-3.9,2.612-8.682,2.612s-8.682-1.165-8.682-2.612,3.9-2.594,8.682-2.594,8.682,1.164,8.682,2.594" fill="#74cfeb"/>
      <path d="M348.565,230.67a20.35,20.35,0,0,0-6.865,1.006,20.175,20.175,0,0,0,6.865.953,19.692,19.692,0,0,0,6.865-1.024A20.874,20.874,0,0,0,348.565,230.67Z" fill="#1b8ab3"/>
      <path d="M355.447,245.493v-6h-1.588v7.288H358.2v-1.288Zm-12.6-2.947a3.239,3.239,0,0,1-.9-.547.777.777,0,0,1-.211-.565.6.6,0,0,1,.264-.529,1.2,1.2,0,0,1,.741-.212,2.862,2.862,0,0,1,1.765.512v-1.518a4.574,4.574,0,0,0-1.765-.282,2.893,2.893,0,0,0-1.923.6,1.9,1.9,0,0,0-.741,1.571c0,.9.564,1.605,1.764,2.135a5.091,5.091,0,0,1,1.095.635.741.741,0,0,1,.264.565.672.672,0,0,1-.282.547,1.425,1.425,0,0,1-.794.194,2.93,2.93,0,0,1-1.924-.741v1.641a3.834,3.834,0,0,0,1.888.424,3.327,3.327,0,0,0,2.083-.583,1.906,1.906,0,0,0,.582-1.606,1.849,1.849,0,0,0-.441-1.235A4.268,4.268,0,0,0,342.847,242.546Zm9.247,2.806a3.863,3.863,0,0,0,0-4.094,3.192,3.192,0,0,0-1.235-1.324,3.53,3.53,0,0,0-1.765-.458,3.719,3.719,0,0,0-1.906.476,3.289,3.289,0,0,0-1.288,1.306,4.346,4.346,0,0,0-.459,2.012,3.986,3.986,0,0,0,.424,1.764,3.1,3.1,0,0,0,1.218,1.306,3.634,3.634,0,0,0,1.764.53l1.518,1.764H352.5l-2.17-1.941A3.154,3.154,0,0,0,352.094,245.352Zm-1.764-.441a1.662,1.662,0,0,1-1.342.618,1.627,1.627,0,0,1-1.341-.636,3.3,3.3,0,0,1,0-3.529,1.765,1.765,0,0,1,1.377-.653,1.534,1.534,0,0,1,1.323.653,2.86,2.86,0,0,1,.477,1.765A2.583,2.583,0,0,1,350.33,244.911Z" fill="url(#radial-gradient)"/>
    </g>
    <g id="abc3e3f9-d4db-41ad-8b60-378d1c3348f7">
      <g>
        <g>
          <path d="M350.27,270.281H337.5a1.009,1.009,0,0,0-1.009,1.009h0v27.534a1.008,1.008,0,0,0,1.007,1.01h22.128a1.008,1.008,0,0,0,1-1.01V280.6a1.008,1.008,0,0,0-1-1.01h-7.343a1.009,1.009,0,0,1-1-1.008v-7.294a1,1,0,0,0-.99-1.01Z" fill="#fff"/>
          <path d="M349.8,271.571v6.915a2.541,2.541,0,0,0,2.534,2.539H359.3v17.52H337.827V271.571H349.8m.489-1.513H337.338a1.023,1.023,0,0,0-1.023,1.023v27.952a1.023,1.023,0,0,0,1.022,1.025h22.455a1.023,1.023,0,0,0,1.023-1.023v-18.5a1.023,1.023,0,0,0-1.023-1.024h-7.455a1.023,1.023,0,0,1-1.022-1.025h0v-7.4a1.024,1.024,0,0,0-1.022-1.025Z" fill="url(#linear-gradient-4)"/>
          <path d="M360.425,279.715l-9.463-9.434v7.687a1.735,1.735,0,0,0,1.723,1.747h7.74Z" fill="#2e76bc"/>
        </g>
        <rect x="340.232" y="283.718" width="16.665" height="2.235" rx="1.005" fill="#699cd3"/>
        <rect x="340.232" y="287.723" width="16.665" height="2.235" rx="1.005" fill="#699cd3"/>
        <rect x="340.232" y="291.728" width="10.503" height="2.235" rx="1.005" fill="#699cd3"/>
      </g>
    </g>
    <g id="abc3e3f9-d4db-41ad-8b60-378d1c3348f7-2" data-name="abc3e3f9-d4db-41ad-8b60-378d1c3348f7">
      <g>
        <g>
          <path d="M132.667,53.192H119.9a1.008,1.008,0,0,0-1.008,1.008V81.735a1.008,1.008,0,0,0,1.006,1.01h22.129a1.008,1.008,0,0,0,1-1.01V63.514a1.008,1.008,0,0,0-1-1.01h-7.344a1.009,1.009,0,0,1-1-1.009V54.2a1,1,0,0,0-.989-1.01Z" fill="#fff"/>
          <path d="M132.2,54.482V61.4a2.54,2.54,0,0,0,2.533,2.538H141.7v17.52H120.224V54.482H132.2m.488-1.513H119.736a1.024,1.024,0,0,0-1.024,1.023V81.944a1.024,1.024,0,0,0,1.022,1.025h22.455a1.024,1.024,0,0,0,1.023-1.024h0v-18.5a1.023,1.023,0,0,0-1.023-1.023h-7.455a1.024,1.024,0,0,1-1.022-1.025h0v-7.4a1.022,1.022,0,0,0-1.021-1.025Z" fill="url(#linear-gradient-5)"/>
          <path d="M142.822,62.625l-9.463-9.433v7.687a1.734,1.734,0,0,0,1.723,1.746h7.74Z" fill="#2e76bc"/>
        </g>
        <rect x="122.629" y="66.629" width="16.665" height="2.235" rx="1.005" fill="#699cd3"/>
        <rect x="122.629" y="70.634" width="16.665" height="2.235" rx="1.005" fill="#699cd3"/>
        <rect x="122.629" y="74.639" width="10.503" height="2.235" rx="1.005" fill="#699cd3"/>
      </g>
    </g>
    <g id="abc3e3f9-d4db-41ad-8b60-378d1c3348f7-3" data-name="abc3e3f9-d4db-41ad-8b60-378d1c3348f7">
      <g>
        <g>
          <path d="M168.868,53.192H156.1a1.008,1.008,0,0,0-1.008,1.008V81.735a1.008,1.008,0,0,0,1.007,1.01h22.128a1.008,1.008,0,0,0,1-1.01V63.514a1.008,1.008,0,0,0-1-1.01h-7.343a1.009,1.009,0,0,1-1-1.009V54.2a1,1,0,0,0-.99-1.01Z" fill="#fff"/>
          <path d="M168.4,54.482V61.4a2.54,2.54,0,0,0,2.533,2.538H177.9v17.52H156.424V54.482H168.4m.488-1.513H155.936a1.023,1.023,0,0,0-1.023,1.023V81.944a1.023,1.023,0,0,0,1.021,1.025h22.455a1.025,1.025,0,0,0,1.024-1.024h0v-18.5a1.024,1.024,0,0,0-1.024-1.023h-7.455a1.023,1.023,0,0,1-1.021-1.025h0v-7.4a1.023,1.023,0,0,0-1.022-1.025Z" fill="url(#linear-gradient-6)"/>
          <path d="M179.023,62.625l-9.464-9.433v7.687a1.735,1.735,0,0,0,1.724,1.746h7.74Z" fill="#2e76bc"/>
        </g>
        <rect x="158.829" y="66.629" width="16.665" height="2.235" rx="1.005" fill="#699cd3"/>
        <rect x="158.829" y="70.634" width="16.665" height="2.235" rx="1.005" fill="#699cd3"/>
        <rect x="158.829" y="74.639" width="10.503" height="2.235" rx="1.005" fill="#699cd3"/>
      </g>
    </g>
    <g>
      <path d="M329.882,68.887H317.053a1.006,1.006,0,0,0-1.006,1.006v27.53a1.006,1.006,0,0,0,1.006,1.006h22.129a1.006,1.006,0,0,0,1.006-1.006V79.211a1.024,1.024,0,0,0-1.006-1.024h-7.341a.988.988,0,0,1-1.006-.97V69.893A1.007,1.007,0,0,0,329.882,68.887Z" fill="#fff"/>
      <path d="M329.353,70.176v6.917a2.54,2.54,0,0,0,2.541,2.524h6.97V97.14H317.37V70.176h11.983m.529-1.518H316.894a1.024,1.024,0,0,0-1.024,1.023V97.634a1.024,1.024,0,0,0,1.024,1.024h22.447a1.023,1.023,0,0,0,1.023-1.024V79.14a1.023,1.023,0,0,0-1.023-1.023h-7.447a1.024,1.024,0,0,1-1.024-1.024V69.681A1.023,1.023,0,0,0,329.882,68.658Z" fill="url(#linear-gradient-7)"/>
      <path d="M339.976,78.364l-9.459-9.477V76.6a1.765,1.765,0,0,0,1.765,1.765Z" fill="#2e76bc"/>
      <path id="a6d81f9b-1c9b-4163-b425-427db8835c56" d="M330.606,87.505a3.9,3.9,0,0,1-5.171,0l-.318,6.406A.512.512,0,0,0,326,94.3l1.976-2.029,2.012,1.976a.512.512,0,0,0,.865-.388Z" fill="#b32025"/>
      <ellipse id="f228121b-524c-412f-81f5-af7174f3554f" cx="328.082" cy="84.205" rx="4.606" ry="4.624" fill="#e52526"/>
      <ellipse id="fd9247f0-1f16-45ab-bd99-d7272783472c" cx="328.082" cy="84.205" rx="3.494" ry="3.512" fill="#fed402"/>
    </g>
    <g>
      <g>
        <rect x="19.596" y="18.658" width="43.282" height="28.863" rx="1.447" fill="url(#linear-gradient-8)"/>
        <path d="M49.932,56.255c-4.29-.672-4.445-3.773-4.445-8.734H37.012c0,4.961-.155,8.062-4.444,8.734a2.584,2.584,0,0,0-2.145,2.4H52.077A2.585,2.585,0,0,0,49.932,56.255Z" fill="url(#linear-gradient-9)"/>
      </g>
      <g>
        <path d="M32.577,58.658a2.417,2.417,0,0,0,2.416-2.417h0a.792.792,0,0,0,0-.283c-.966-7.617-5.283-13.817-13.616-13.817S8.61,47.391,7.76,55.975a2.433,2.433,0,0,0,2.158,2.68l.025,0Z" fill="url(#linear-gradient-10)"/>
        <path d="M21.377,43.941a7.652,7.652,0,0,1-4.134-1.216l4.134,10.7,4.066-10.634A7.541,7.541,0,0,1,21.377,43.941Z" fill="#fff" opacity="0.8" style="isolation: isolate"/>
        <circle cx="21.393" cy="36.291" r="7.633" fill="url(#linear-gradient-11)"/>
      </g>
    </g>
    <g>
      <g id="abc3e3f9-d4db-41ad-8b60-378d1c3348f7-4" data-name="abc3e3f9-d4db-41ad-8b60-378d1c3348f7">
        <g>
          <path d="M132.667,94.114H119.9a1.008,1.008,0,0,0-1.008,1.008v27.535a1.008,1.008,0,0,0,1.006,1.01h22.129a1.008,1.008,0,0,0,1-1.01V104.436a1.008,1.008,0,0,0-1-1.01h-7.344a1.009,1.009,0,0,1-1-1.009V95.124a1,1,0,0,0-.989-1.01Z" fill="#fff"/>
          <path d="M132.2,95.4v6.915a2.54,2.54,0,0,0,2.533,2.538H141.7v17.52H120.224V95.4H132.2m.488-1.513H119.736a1.024,1.024,0,0,0-1.024,1.023v27.952a1.024,1.024,0,0,0,1.022,1.025h22.455a1.024,1.024,0,0,0,1.023-1.024h0v-18.5a1.023,1.023,0,0,0-1.023-1.023h-7.455a1.024,1.024,0,0,1-1.022-1.025h0v-7.4a1.022,1.022,0,0,0-1.021-1.025Z" fill="url(#linear-gradient-12)"/>
          <path d="M142.822,103.547l-9.463-9.433V101.8a1.734,1.734,0,0,0,1.723,1.746h7.74Z" fill="#2e76bc"/>
        </g>
      </g>
      <path d="M136.8,115.988V119h-3.25v-1.625h-1.625v-1.625H130.3v-1.314a4.34,4.34,0,0,1-2.031.5,4.422,4.422,0,0,1-2.253-.61,4.525,4.525,0,0,1-.9-.7,4.664,4.664,0,0,1-.7-.908,4.245,4.245,0,0,1-.451-1.066,4.8,4.8,0,0,1-.159-1.187,4.429,4.429,0,0,1,.61-2.254,4.482,4.482,0,0,1,.7-.9,4.6,4.6,0,0,1,.908-.7,4.191,4.191,0,0,1,1.066-.45,4.7,4.7,0,0,1,1.187-.159,4.442,4.442,0,0,1,2.254.609,4.523,4.523,0,0,1,.9.7,4.594,4.594,0,0,1,.7.907,4.249,4.249,0,0,1,.45,1.067,4.691,4.691,0,0,1,.159,1.187,4.035,4.035,0,0,1-.051.641,4.39,4.39,0,0,1-.146.622Zm-.812.343-4.38-4.38a6.114,6.114,0,0,0,.229-.724,3.166,3.166,0,0,0,.088-.755,3.576,3.576,0,0,0-.285-1.422,3.635,3.635,0,0,0-.787-1.162,3.769,3.769,0,0,0-1.162-.78,3.623,3.623,0,0,0-4,.78,3.771,3.771,0,0,0-.781,1.162,3.6,3.6,0,0,0-.292,1.422,3.615,3.615,0,0,0,1.073,2.583,3.755,3.755,0,0,0,1.161.781,3.613,3.613,0,0,0,3.7-.52h.565v1.625h1.625v1.625h1.625v1.625h1.625Zm-8.938-7.89a.8.8,0,0,1,.318.063.812.812,0,0,1,.254.171.871.871,0,0,1,.177.261.683.683,0,0,1,.064.317.774.774,0,0,1-.064.317.8.8,0,0,1-.171.254.9.9,0,0,1-.26.178.69.69,0,0,1-.318.064.791.791,0,0,1-.317-.064.812.812,0,0,1-.254-.171.892.892,0,0,1-.178-.261.7.7,0,0,1-.063-.317.79.79,0,0,1,.063-.317.82.82,0,0,1,.172-.254.887.887,0,0,1,.26-.178A.672.672,0,0,1,127.049,108.441Z" fill="#1f56a3"/>
    </g>
    <g>
      <g id="abc3e3f9-d4db-41ad-8b60-378d1c3348f7-5" data-name="abc3e3f9-d4db-41ad-8b60-378d1c3348f7">
        <g>
          <path d="M168.868,260.381H156.1a1.008,1.008,0,0,0-1.008,1.009h0v27.534a1.008,1.008,0,0,0,1.007,1.01h22.128a1.009,1.009,0,0,0,1-1.01V270.7a1.009,1.009,0,0,0-1-1.01h-7.343a1.008,1.008,0,0,1-1-1.008v-7.294a1,1,0,0,0-.99-1.01Z" fill="#fff"/>
          <path d="M168.4,261.671v6.915a2.541,2.541,0,0,0,2.533,2.539H177.9v17.52H156.424V261.671H168.4m.488-1.513H155.936a1.023,1.023,0,0,0-1.023,1.023v27.952a1.023,1.023,0,0,0,1.021,1.025h22.455a1.024,1.024,0,0,0,1.024-1.023v-18.5a1.025,1.025,0,0,0-1.024-1.024h-7.455a1.022,1.022,0,0,1-1.021-1.025h0v-7.4a1.024,1.024,0,0,0-1.022-1.025Z" fill="url(#linear-gradient-13)"/>
          <path d="M179.023,269.815l-9.464-9.434v7.687a1.736,1.736,0,0,0,1.724,1.747h7.74Z" fill="#2e76bc"/>
        </g>
      </g>
      <polygon points="172.658 275.5 170.726 273.558 167.167 277.117 163.61 273.558 161.668 275.5 165.216 279.058 161.668 282.606 163.61 284.548 167.158 281 170.715 284.558 172.658 282.616 169.099 279.058 172.658 275.5" fill="#b32025"/>
    </g>
    <g>
      <g id="abc3e3f9-d4db-41ad-8b60-378d1c3348f7-6" data-name="abc3e3f9-d4db-41ad-8b60-378d1c3348f7">
        <g>
          <path d="M132.667,260.381H119.9a1.008,1.008,0,0,0-1.008,1.009h0v27.534a1.008,1.008,0,0,0,1.006,1.01h22.129a1.009,1.009,0,0,0,1-1.01V270.7a1.009,1.009,0,0,0-1-1.01h-7.344a1.009,1.009,0,0,1-1-1.008v-7.294a1,1,0,0,0-.989-1.01Z" fill="#fff"/>
          <path d="M132.2,261.671v6.915a2.541,2.541,0,0,0,2.533,2.539H141.7v17.52H120.224V261.671H132.2m.488-1.513H119.736a1.024,1.024,0,0,0-1.024,1.023v27.952a1.024,1.024,0,0,0,1.022,1.025h22.455a1.023,1.023,0,0,0,1.023-1.023v-18.5a1.024,1.024,0,0,0-1.023-1.024h-7.455a1.023,1.023,0,0,1-1.022-1.025h0v-7.4a1.023,1.023,0,0,0-1.021-1.025Z" fill="url(#linear-gradient-14)"/>
          <path d="M142.822,269.815l-9.463-9.434v7.687a1.736,1.736,0,0,0,1.723,1.747h7.74Z" fill="#2e76bc"/>
        </g>
      </g>
      <use width="16" height="13.82" transform="translate(124.595 274.331) scale(0.796 0.796)" xlink:href="#Success_Checked"/>
    </g>
    <line x1="41.69" y1="71.751" x2="113.3" y2="71.751" fill="none" stroke="#3c3c41" stroke-miterlimit="10"/>
    <g>
      <line x1="185.111" y1="71.751" x2="262.985" y2="71.751" fill="none" stroke="#3c3c41" stroke-miterlimit="10"/>
      <polygon points="261.891 75.491 268.368 71.751 261.891 68.011 261.891 75.491" fill="#3c3c41"/>
    </g>
    <g>
      <line x1="47.072" y1="276.958" x2="113.3" y2="276.958" fill="none" stroke="#3c3c41" stroke-miterlimit="10"/>
      <polygon points="48.167 280.698 41.69 276.958 48.167 273.218 48.167 280.698" fill="#3c3c41"/>
    </g>
    <line x1="185.111" y1="276.958" x2="268.368" y2="276.958" fill="none" stroke="#3c3c41" stroke-miterlimit="10"/>
    <g>
      <line x1="47.072" y1="106.003" x2="113.3" y2="106.003" fill="none" stroke="#3c3c41" stroke-miterlimit="10"/>
      <polygon points="48.167 109.743 41.69 106.003 48.167 102.263 48.167 109.743" fill="#3c3c41"/>
    </g>
    <line x1="148.913" y1="106.003" x2="268.368" y2="106.003" fill="none" stroke="#3c3c41" stroke-miterlimit="10"/>
    <g>
      <g id="abc3e3f9-d4db-41ad-8b60-378d1c3348f7-7" data-name="abc3e3f9-d4db-41ad-8b60-378d1c3348f7">
        <g>
          <path d="M132.667,220.233H119.9a1.008,1.008,0,0,0-1.008,1.008v27.535a1.008,1.008,0,0,0,1.006,1.01h22.129a1.008,1.008,0,0,0,1-1.01V230.555a1.008,1.008,0,0,0-1-1.01h-7.344a1.009,1.009,0,0,1-1-1.009v-7.293a1,1,0,0,0-.989-1.01Z" fill="#fff"/>
          <path d="M132.2,221.523v6.915a2.539,2.539,0,0,0,2.533,2.538H141.7V248.5H120.224V221.523H132.2m.488-1.513H119.736a1.024,1.024,0,0,0-1.024,1.023v27.952a1.024,1.024,0,0,0,1.022,1.025h22.455a1.024,1.024,0,0,0,1.023-1.024h0v-18.5a1.023,1.023,0,0,0-1.023-1.023h-7.455a1.024,1.024,0,0,1-1.022-1.025h0v-7.4a1.022,1.022,0,0,0-1.021-1.025Z" fill="url(#linear-gradient-15)"/>
          <path d="M142.822,229.666l-9.463-9.433v7.687a1.734,1.734,0,0,0,1.723,1.746h7.74Z" fill="#2e76bc"/>
        </g>
      </g>
      <path d="M136.8,242.107v3.015h-3.25V243.5h-1.625v-1.625H130.3v-1.314a4.34,4.34,0,0,1-2.031.5,4.422,4.422,0,0,1-2.253-.61,4.488,4.488,0,0,1-.9-.7,4.634,4.634,0,0,1-.7-.908,4.229,4.229,0,0,1-.451-1.066,4.789,4.789,0,0,1-.159-1.187,4.429,4.429,0,0,1,.61-2.254,4.482,4.482,0,0,1,.7-.9,4.559,4.559,0,0,1,.908-.7,4.193,4.193,0,0,1,1.066-.451,4.7,4.7,0,0,1,1.187-.159,4.429,4.429,0,0,1,2.254.61,4.482,4.482,0,0,1,.9.7,4.624,4.624,0,0,1,.7.907,4.249,4.249,0,0,1,.45,1.067,4.7,4.7,0,0,1,.159,1.187,4.035,4.035,0,0,1-.051.641,4.358,4.358,0,0,1-.146.622Zm-.812.343-4.38-4.38a6.114,6.114,0,0,0,.229-.724,3.166,3.166,0,0,0,.088-.755,3.576,3.576,0,0,0-.285-1.422,3.635,3.635,0,0,0-.787-1.162,3.769,3.769,0,0,0-1.162-.78,3.623,3.623,0,0,0-4,.78,3.771,3.771,0,0,0-.781,1.162,3.6,3.6,0,0,0-.292,1.422,3.615,3.615,0,0,0,1.073,2.583,3.755,3.755,0,0,0,1.161.781,3.613,3.613,0,0,0,3.7-.52h.565v1.625h1.625v1.625h1.625v1.625h1.625Zm-8.938-7.89a.8.8,0,0,1,.318.063.814.814,0,0,1,.254.172.854.854,0,0,1,.177.26.683.683,0,0,1,.064.317.782.782,0,0,1-.064.318.807.807,0,0,1-.171.253.881.881,0,0,1-.26.178.69.69,0,0,1-.318.064.791.791,0,0,1-.317-.064.812.812,0,0,1-.254-.171.9.9,0,0,1-.178-.26.7.7,0,0,1-.063-.318.79.79,0,0,1,.063-.317.82.82,0,0,1,.172-.254.887.887,0,0,1,.26-.178A.685.685,0,0,1,127.049,234.56Z" fill="#1f56a3"/>
    </g>
    <line x1="41.69" y1="232.122" x2="113.3" y2="232.122" fill="none" stroke="#3c3c41" stroke-miterlimit="10"/>
    <g>
      <line x1="148.913" y1="232.122" x2="262.985" y2="232.122" fill="none" stroke="#3c3c41" stroke-miterlimit="10"/>
      <polygon points="261.891 235.862 268.368 232.122 261.891 228.382 261.891 235.862" fill="#3c3c41"/>
    </g>
  </g>
  <g id="Text">
    <g>
      <path d="M302.061,155.858h-5.838v-9.8h2.208v8.012h3.63Z" fill="#2f2f2f"/>
      <path d="M304.205,147.751a1.265,1.265,0,0,1-.9-.325,1.047,1.047,0,0,1-.349-.8,1.01,1.01,0,0,1,.349-.793,1.462,1.462,0,0,1,1.795,0,1.016,1.016,0,0,1,.345.793,1.044,1.044,0,0,1-.345.806A1.282,1.282,0,0,1,304.205,147.751Zm1.066,8.107h-2.16v-7h2.16Z" fill="#2f2f2f"/>
      <path d="M313.814,155.858h-2.153v-3.89q0-1.626-1.162-1.627a1.153,1.153,0,0,0-.923.431,1.639,1.639,0,0,0-.363,1.094v3.992h-2.16v-7h2.16v1.107h.028a2.475,2.475,0,0,1,2.249-1.278q2.323,0,2.324,2.885Z" fill="#2f2f2f"/>
      <path d="M322.167,155.858h-2.153v-1.066h-.034a2.445,2.445,0,0,1-2.14,1.237q-2.433,0-2.433-2.946v-4.225h2.153v4.033q0,1.484,1.176,1.484a1.166,1.166,0,0,0,.93-.407,1.642,1.642,0,0,0,.348-1.1v-4.006h2.153Z" fill="#2f2f2f"/>
      <path d="M330.753,148.858l-2.31,3.391,2.3,3.609h-2.489l-1.011-1.887q-.123-.225-.294-.635h-.028a4.367,4.367,0,0,1-.28.615l-1.018,1.907h-2.482l2.365-3.486-2.221-3.514h2.5l1,1.962a4.343,4.343,0,0,1,.28.656h.027a4.678,4.678,0,0,1,.294-.67l1.019-1.948Z" fill="#2f2f2f"/>
      <path d="M335.128,155.673v-1.75a4.589,4.589,0,0,0,1.063.479,3.517,3.517,0,0,0,1,.157,2.149,2.149,0,0,0,.906-.157.507.507,0,0,0,.331-.479.442.442,0,0,0-.15-.341,1.392,1.392,0,0,0-.386-.24,4.568,4.568,0,0,0-.517-.184c-.187-.055-.366-.116-.54-.185a5.161,5.161,0,0,1-.734-.338,2.131,2.131,0,0,1-.534-.421,1.656,1.656,0,0,1-.328-.553,2.215,2.215,0,0,1-.113-.745,1.919,1.919,0,0,1,.257-1.012,2.1,2.1,0,0,1,.683-.694,3.119,3.119,0,0,1,.978-.4,5.055,5.055,0,0,1,1.145-.127,6.328,6.328,0,0,1,.943.072,7.1,7.1,0,0,1,.944.208v1.668a3.412,3.412,0,0,0-.879-.358,3.689,3.689,0,0,0-.919-.12,2.123,2.123,0,0,0-.4.037,1.307,1.307,0,0,0-.332.11.609.609,0,0,0-.225.184.426.426,0,0,0-.082.257.474.474,0,0,0,.123.328,1.07,1.07,0,0,0,.321.236,3.115,3.115,0,0,0,.441.177c.162.053.322.106.482.161a6.276,6.276,0,0,1,.779.328,2.5,2.5,0,0,1,.6.417,1.63,1.63,0,0,1,.383.561,2.243,2.243,0,0,1-.137,1.828,2.159,2.159,0,0,1-.717.718,3.243,3.243,0,0,1-1.033.4,5.665,5.665,0,0,1-1.213.127A6.261,6.261,0,0,1,335.128,155.673Z" fill="#2f2f2f"/>
      <path d="M348.078,152.973h-4.566q.108,1.524,1.921,1.525a3.748,3.748,0,0,0,2.03-.547v1.558a5.326,5.326,0,0,1-2.523.52,3.259,3.259,0,0,1-3.568-3.562,3.743,3.743,0,0,1,1.012-2.761,3.37,3.37,0,0,1,2.488-1.019,3.06,3.06,0,0,1,2.369.909,3.5,3.5,0,0,1,.837,2.468Zm-2-1.326q0-1.5-1.217-1.5a1.163,1.163,0,0,0-.9.431,1.963,1.963,0,0,0-.461,1.073Z" fill="#2f2f2f"/>
      <path d="M354.009,150.806a1.875,1.875,0,0,0-.909-.212,1.309,1.309,0,0,0-1.1.516,2.251,2.251,0,0,0-.4,1.4v3.343h-2.16v-7h2.16v1.3h.027a1.869,1.869,0,0,1,1.846-1.422,1.381,1.381,0,0,1,.533.082Z" fill="#2f2f2f"/>
      <path d="M362.108,148.858l-2.605,7h-2.461l-2.481-7h2.311l1.216,4.314a6.291,6.291,0,0,1,.24,1.244h.027a7.024,7.024,0,0,1,.253-1.2l1.244-4.355Z" fill="#2f2f2f"/>
      <path d="M369.1,152.973h-4.567q.109,1.524,1.921,1.525a3.745,3.745,0,0,0,2.03-.547v1.558a5.322,5.322,0,0,1-2.522.52,3.258,3.258,0,0,1-3.568-3.562,3.746,3.746,0,0,1,1.011-2.761,3.372,3.372,0,0,1,2.489-1.019,3.057,3.057,0,0,1,2.368.909,3.5,3.5,0,0,1,.838,2.468Zm-2-1.326q0-1.5-1.217-1.5a1.163,1.163,0,0,0-.9.431,1.949,1.949,0,0,0-.461,1.073Z" fill="#2f2f2f"/>
      <path d="M375.027,150.806a1.878,1.878,0,0,0-.909-.212,1.31,1.31,0,0,0-1.1.516,2.257,2.257,0,0,0-.4,1.4v3.343H370.46v-7h2.161v1.3h.027a1.869,1.869,0,0,1,1.846-1.422,1.385,1.385,0,0,1,.533.082Z" fill="#2f2f2f"/>
    </g>
    <g>
      <path d="M296.223,13.759v-9.8H299.7q5.223,0,5.222,4.778a4.831,4.831,0,0,1-1.425,3.657,5.253,5.253,0,0,1-3.8,1.367Zm2.208-8v6.213h1.094a2.954,2.954,0,0,0,2.252-.861,3.267,3.267,0,0,0,.817-2.345,2.963,2.963,0,0,0-.81-2.2,3.087,3.087,0,0,0-2.273-.8Z" fill="#2f2f2f"/>
      <path d="M309.663,13.93a3.764,3.764,0,0,1-2.752-.981,3.556,3.556,0,0,1-1-2.662,3.556,3.556,0,0,1,1.039-2.718,3.929,3.929,0,0,1,2.809-.98,3.723,3.723,0,0,1,2.735.98,3.491,3.491,0,0,1,.991,2.6,3.7,3.7,0,0,1-1.022,2.755A3.8,3.8,0,0,1,309.663,13.93Zm.054-5.687a1.441,1.441,0,0,0-1.189.526,2.319,2.319,0,0,0-.424,1.49q0,2.017,1.627,2.017,1.553,0,1.552-2.071Q311.283,8.243,309.717,8.243Z" fill="#2f2f2f"/>
      <path d="M325.979,13.759h-2.153V9.767q0-1.524-1.121-1.524a1.031,1.031,0,0,0-.868.458,1.883,1.883,0,0,0-.335,1.141v3.917h-2.16V9.726q0-1.484-1.1-1.483a1.056,1.056,0,0,0-.885.437,1.926,1.926,0,0,0-.332,1.19v3.889h-2.16v-7h2.16V7.853h.028a2.654,2.654,0,0,1,2.262-1.264,2.017,2.017,0,0,1,2.031,1.3,2.589,2.589,0,0,1,2.351-1.3q2.283,0,2.283,2.816Z" fill="#2f2f2f"/>
      <path d="M333.545,13.759H331.5v-1h-.027a2.284,2.284,0,0,1-2.085,1.175,2.178,2.178,0,0,1-1.6-.577,2.071,2.071,0,0,1-.585-1.542q0-2.037,2.413-2.351l1.9-.253q0-1.149-1.244-1.149a4.253,4.253,0,0,0-2.379.745V7.176a5.415,5.415,0,0,1,1.233-.41,6.522,6.522,0,0,1,1.426-.177q2.994,0,2.994,2.987Zm-2.03-2.843v-.472l-1.272.164q-1.052.136-1.053.95a.785.785,0,0,0,.257.605.986.986,0,0,0,.694.236,1.281,1.281,0,0,0,.991-.42A1.521,1.521,0,0,0,331.515,10.916Z" fill="#2f2f2f"/>
      <path d="M336.315,5.652a1.259,1.259,0,0,1-.895-.325,1.047,1.047,0,0,1-.349-.8,1.01,1.01,0,0,1,.349-.793,1.46,1.46,0,0,1,1.794,0,1.014,1.014,0,0,1,.346.793,1.045,1.045,0,0,1-.346.807A1.284,1.284,0,0,1,336.315,5.652Zm1.067,8.107h-2.16v-7h2.16Z" fill="#2f2f2f"/>
      <path d="M345.929,13.759h-2.154V9.87q0-1.627-1.162-1.627a1.155,1.155,0,0,0-.923.43,1.646,1.646,0,0,0-.362,1.094v3.992h-2.16v-7h2.16V7.867h.027A2.477,2.477,0,0,1,343.6,6.589q2.325,0,2.325,2.884Z" fill="#2f2f2f"/>
      <path d="M301.316,30.306a4.267,4.267,0,0,1-2.112.424,3.577,3.577,0,0,1-2.612-.977,3.379,3.379,0,0,1-1-2.523,3.721,3.721,0,0,1,1.07-2.813,3.953,3.953,0,0,1,2.861-1.029,3.679,3.679,0,0,1,1.791.328v1.832a2.464,2.464,0,0,0-1.511-.5,1.992,1.992,0,0,0-1.473.543,2.028,2.028,0,0,0-.543,1.5,2,2,0,0,0,.519,1.459,1.911,1.911,0,0,0,1.429.53,2.855,2.855,0,0,0,1.579-.506Z" fill="#2f2f2f"/>
      <path d="M306.046,30.73a3.764,3.764,0,0,1-2.752-.981,3.557,3.557,0,0,1-1-2.662,3.556,3.556,0,0,1,1.039-2.718,3.926,3.926,0,0,1,2.81-.981,3.717,3.717,0,0,1,2.734.981,3.487,3.487,0,0,1,.991,2.595,3.7,3.7,0,0,1-1.022,2.754A3.8,3.8,0,0,1,306.046,30.73Zm.055-5.687a1.441,1.441,0,0,0-1.19.526,2.319,2.319,0,0,0-.424,1.49q0,2.016,1.627,2.017,1.553,0,1.552-2.071Q307.666,25.042,306.1,25.043Z" fill="#2f2f2f"/>
      <path d="M318.008,30.559h-2.153V26.67q0-1.628-1.162-1.627a1.153,1.153,0,0,0-.923.43,1.639,1.639,0,0,0-.362,1.094v3.992h-2.16v-7h2.16v1.108h.027a2.477,2.477,0,0,1,2.249-1.279q2.323,0,2.324,2.885Z" fill="#2f2f2f"/>
      <path d="M323.858,30.477a3.187,3.187,0,0,1-1.442.253q-2.283,0-2.284-2.372V25.152H319V23.559h1.134V22.048l2.154-.615v2.126h1.572v1.593h-1.572v2.83q0,1.093.868,1.094a1.466,1.466,0,0,0,.7-.2Z" fill="#2f2f2f"/>
      <path d="M329.774,25.507a1.878,1.878,0,0,0-.909-.211,1.308,1.308,0,0,0-1.1.516,2.252,2.252,0,0,0-.4,1.4v3.343h-2.16v-7h2.16v1.3h.027a1.869,1.869,0,0,1,1.846-1.422,1.4,1.4,0,0,1,.533.082Z" fill="#2f2f2f"/>
      <path d="M334.2,30.73a3.762,3.762,0,0,1-2.751-.981,3.554,3.554,0,0,1-1-2.662,3.556,3.556,0,0,1,1.039-2.718,3.928,3.928,0,0,1,2.81-.981,3.715,3.715,0,0,1,2.734.981,3.487,3.487,0,0,1,.991,2.595A3.7,3.7,0,0,1,337,29.718,3.805,3.805,0,0,1,334.2,30.73Zm.055-5.687a1.443,1.443,0,0,0-1.19.526,2.325,2.325,0,0,0-.423,1.49q0,2.016,1.627,2.017,1.551,0,1.551-2.071Q335.82,25.042,334.255,25.043Z" fill="#2f2f2f"/>
      <path d="M341.577,30.559h-2.16V20.2h2.16Z" fill="#2f2f2f"/>
      <path d="M345.5,30.559h-2.16V20.2h2.16Z" fill="#2f2f2f"/>
      <path d="M353.617,27.674h-4.566q.11,1.526,1.921,1.525a3.748,3.748,0,0,0,2.03-.547v1.559a5.339,5.339,0,0,1-2.523.519,3.259,3.259,0,0,1-3.568-3.561,3.747,3.747,0,0,1,1.012-2.762,3.37,3.37,0,0,1,2.488-1.019,3.06,3.06,0,0,1,2.369.91,3.5,3.5,0,0,1,.837,2.467Zm-2-1.326q0-1.5-1.217-1.5a1.16,1.16,0,0,0-.9.431,1.957,1.957,0,0,0-.462,1.073Z" fill="#2f2f2f"/>
      <path d="M359.548,25.507a1.875,1.875,0,0,0-.909-.211,1.306,1.306,0,0,0-1.1.516,2.246,2.246,0,0,0-.4,1.4v3.343h-2.16v-7h2.16v1.3h.027a1.869,1.869,0,0,1,1.846-1.422,1.4,1.4,0,0,1,.533.082Z" fill="#2f2f2f"/>
    </g>
    <g>
      <path d="M319.9,318.128h-1.121v-4.019a3.026,3.026,0,0,0-.359-1.682,1.361,1.361,0,0,0-1.206-.52,1.493,1.493,0,0,0-1.22.657,2.508,2.508,0,0,0-.5,1.572v3.992h-1.121v-4.156q0-2.065-1.593-2.065a1.472,1.472,0,0,0-1.216.619,2.559,2.559,0,0,0-.479,1.61v3.992h-1.121v-7h1.121v1.107h.027a2.38,2.38,0,0,1,2.174-1.271,2.024,2.024,0,0,1,1.983,1.449,2.5,2.5,0,0,1,2.324-1.449q2.31,0,2.31,2.851Z" fill="#2f2f2f"/>
      <path d="M321.549,317.875v-1.2a3.32,3.32,0,0,0,2.017.677q1.476,0,1.476-.985a.856.856,0,0,0-.126-.475,1.245,1.245,0,0,0-.342-.345,2.634,2.634,0,0,0-.506-.27c-.193-.08-.4-.163-.625-.249a8.136,8.136,0,0,1-.817-.373,2.456,2.456,0,0,1-.588-.424,1.568,1.568,0,0,1-.355-.536,1.9,1.9,0,0,1-.12-.7,1.665,1.665,0,0,1,.226-.871,2,2,0,0,1,.6-.636,2.8,2.8,0,0,1,.858-.386,3.788,3.788,0,0,1,1-.13,4.029,4.029,0,0,1,1.627.314v1.135a3.177,3.177,0,0,0-1.778-.506,2.069,2.069,0,0,0-.567.072,1.371,1.371,0,0,0-.434.2.909.909,0,0,0-.28.311.819.819,0,0,0-.1.4.961.961,0,0,0,.1.458,1,1,0,0,0,.29.328,2.25,2.25,0,0,0,.465.26c.182.077.39.161.622.253a8.6,8.6,0,0,1,.834.365,2.891,2.891,0,0,1,.629.424,1.643,1.643,0,0,1,.4.544,1.756,1.756,0,0,1,.14.731,1.721,1.721,0,0,1-.229.9,1.956,1.956,0,0,1-.612.636,2.789,2.789,0,0,1-.882.376,4.35,4.35,0,0,1-1.046.123A3.972,3.972,0,0,1,321.549,317.875Z" fill="#2f2f2f"/>
      <path d="M327.476,317.875v-1.2a3.315,3.315,0,0,0,2.016.677q1.477,0,1.477-.985a.848.848,0,0,0-.127-.475,1.245,1.245,0,0,0-.342-.345,2.655,2.655,0,0,0-.5-.27q-.291-.12-.626-.249a8.136,8.136,0,0,1-.817-.373,2.476,2.476,0,0,1-.588-.424,1.568,1.568,0,0,1-.355-.536,1.9,1.9,0,0,1-.12-.7,1.665,1.665,0,0,1,.226-.871,2,2,0,0,1,.6-.636,2.8,2.8,0,0,1,.858-.386,3.794,3.794,0,0,1,1-.13,4.029,4.029,0,0,1,1.627.314v1.135a3.174,3.174,0,0,0-1.777-.506,2.076,2.076,0,0,0-.568.072,1.392,1.392,0,0,0-.434.2.92.92,0,0,0-.28.311.818.818,0,0,0-.1.4.961.961,0,0,0,.1.458,1.016,1.016,0,0,0,.29.328,2.25,2.25,0,0,0,.465.26c.182.077.39.161.622.253a8.6,8.6,0,0,1,.834.365,2.891,2.891,0,0,1,.629.424,1.643,1.643,0,0,1,.4.544,1.756,1.756,0,0,1,.14.731,1.721,1.721,0,0,1-.229.9,1.945,1.945,0,0,1-.612.636,2.793,2.793,0,0,1-.881.376,4.362,4.362,0,0,1-1.046.123A3.967,3.967,0,0,1,327.476,317.875Z" fill="#2f2f2f"/>
      <path d="M339.793,321.348h-1.121v-4.423h-.027a2.508,2.508,0,0,1-2.393,1.367,2.631,2.631,0,0,1-2.115-.94,3.832,3.832,0,0,1-.8-2.56,4.2,4.2,0,0,1,.875-2.786,2.917,2.917,0,0,1,2.352-1.042,2.206,2.206,0,0,1,2.078,1.135h.027v-.971h1.121Zm-1.121-6.371v-1.019a2.038,2.038,0,0,0-.564-1.456,1.89,1.89,0,0,0-1.432-.6,1.925,1.925,0,0,0-1.6.749,3.341,3.341,0,0,0-.588,2.109,2.9,2.9,0,0,0,.567,1.9,1.812,1.812,0,0,0,1.463.687,1.974,1.974,0,0,0,1.569-.674A2.494,2.494,0,0,0,338.672,314.977Z" fill="#2f2f2f"/>
      <path d="M343.021,318.128H341.9V307.765h1.122Z" fill="#2f2f2f"/>
      <path d="M345.628,318.278a.727.727,0,0,1-.537-.225.745.745,0,0,1-.222-.54.755.755,0,0,1,.222-.544.723.723,0,0,1,.537-.229.769.769,0,1,1,0,1.538Z" fill="#2f2f2f"/>
      <path d="M354.032,318.128H352.46l-3.09-3.363h-.027v3.363h-1.121V307.765h1.121v6.569h.027l2.94-3.206h1.469l-3.247,3.377Z" fill="#2f2f2f"/>
      <path d="M360.457,314.908h-4.943a2.617,2.617,0,0,0,.629,1.805,2.168,2.168,0,0,0,1.654.636,3.435,3.435,0,0,0,2.174-.78v1.053a4.06,4.06,0,0,1-2.44.67,2.96,2.96,0,0,1-2.331-.953,3.907,3.907,0,0,1-.848-2.684,3.829,3.829,0,0,1,.926-2.662,2.972,2.972,0,0,1,2.3-1.029,2.631,2.631,0,0,1,2.126.889,3.705,3.705,0,0,1,.752,2.467Zm-1.149-.95a2.282,2.282,0,0,0-.468-1.511,1.6,1.6,0,0,0-1.282-.54,1.81,1.81,0,0,0-1.347.568,2.569,2.569,0,0,0-.683,1.483Z" fill="#2f2f2f"/>
      <path d="M367.656,311.128l-3.22,8.121q-.861,2.173-2.42,2.174a2.569,2.569,0,0,1-.731-.089v-1a2.073,2.073,0,0,0,.663.123,1.373,1.373,0,0,0,1.271-1.011l.561-1.327-2.735-6.986h1.245l1.893,5.387q.035.1.144.533h.041c.023-.109.068-.283.136-.52l1.99-5.4Z" fill="#2f2f2f"/>
      <path d="M372.574,318.06a2.159,2.159,0,0,1-1.046.218q-1.839,0-1.839-2.05v-4.143h-1.2v-.957h1.2v-1.709l1.121-.362v2.071h1.764v.957H370.81v3.944a1.637,1.637,0,0,0,.239,1,.954.954,0,0,0,.793.3,1.185,1.185,0,0,0,.732-.232Z" fill="#2f2f2f"/>
      <path d="M379.191,318.128H378.07v-1.094h-.028a2.345,2.345,0,0,1-2.153,1.258,2.3,2.3,0,0,1-1.637-.554,1.917,1.917,0,0,1-.591-1.469q0-1.962,2.31-2.284l2.1-.293q0-1.785-1.443-1.785a3.442,3.442,0,0,0-2.283.862V311.62a4.342,4.342,0,0,1,2.379-.656q2.467,0,2.468,2.611Zm-1.121-3.541-1.689.232a2.733,2.733,0,0,0-1.175.387,1.111,1.111,0,0,0-.4.981,1.068,1.068,0,0,0,.366.837,1.413,1.413,0,0,0,.974.325,1.8,1.8,0,0,0,1.377-.585,2.085,2.085,0,0,0,.544-1.48Z" fill="#2f2f2f"/>
      <path d="M382.36,317.116h-.027v1.012h-1.121V307.765h1.121v4.594h.027a2.651,2.651,0,0,1,2.42-1.395,2.564,2.564,0,0,1,2.109.94,3.88,3.88,0,0,1,.762,2.519,4.337,4.337,0,0,1-.854,2.813,2.846,2.846,0,0,1-2.338,1.056A2.3,2.3,0,0,1,382.36,317.116Zm-.027-2.823v.978a2.083,2.083,0,0,0,.564,1.473,2.011,2.011,0,0,0,3.028-.175,3.566,3.566,0,0,0,.578-2.167,2.823,2.823,0,0,0-.54-1.832,1.791,1.791,0,0,0-1.463-.663,1.984,1.984,0,0,0-1.572.681A2.494,2.494,0,0,0,382.333,314.293Z" fill="#2f2f2f"/>
    </g>
    <g>
      <path d="M99.486,312.358H98.365v-1.094h-.027a2.347,2.347,0,0,1-2.153,1.258,2.3,2.3,0,0,1-1.638-.554,1.917,1.917,0,0,1-.591-1.469q0-1.962,2.311-2.284l2.1-.293q0-1.785-1.442-1.785A3.442,3.442,0,0,0,94.64,307V305.85a4.342,4.342,0,0,1,2.379-.656q2.468,0,2.467,2.611Zm-1.121-3.541-1.688.232a2.733,2.733,0,0,0-1.176.387,1.114,1.114,0,0,0-.4.981,1.071,1.071,0,0,0,.366.837,1.417,1.417,0,0,0,.974.325,1.8,1.8,0,0,0,1.378-.585,2.088,2.088,0,0,0,.543-1.48Z" fill="#2f2f2f"/>
      <path d="M106.33,312.037a3.649,3.649,0,0,1-1.914.485,3.17,3.17,0,0,1-2.417-.974,3.529,3.529,0,0,1-.919-2.526,3.881,3.881,0,0,1,.991-2.779,3.467,3.467,0,0,1,2.645-1.049,3.677,3.677,0,0,1,1.627.342v1.148a2.845,2.845,0,0,0-1.668-.547,2.256,2.256,0,0,0-1.76.769,2.919,2.919,0,0,0-.687,2.02,2.778,2.778,0,0,0,.646,1.942,2.227,2.227,0,0,0,1.733.711,2.809,2.809,0,0,0,1.723-.609Z" fill="#2f2f2f"/>
      <path d="M112.624,312.037a3.649,3.649,0,0,1-1.914.485,3.172,3.172,0,0,1-2.417-.974,3.533,3.533,0,0,1-.919-2.526,3.885,3.885,0,0,1,.991-2.779,3.47,3.47,0,0,1,2.646-1.049,3.683,3.683,0,0,1,1.627.342v1.148a2.85,2.85,0,0,0-1.668-.547,2.257,2.257,0,0,0-1.761.769,2.919,2.919,0,0,0-.687,2.02,2.782,2.782,0,0,0,.646,1.942,2.228,2.228,0,0,0,1.733.711,2.809,2.809,0,0,0,1.723-.609Z" fill="#2f2f2f"/>
      <path d="M119.794,309.138h-4.942a2.617,2.617,0,0,0,.629,1.805,2.168,2.168,0,0,0,1.654.636,3.437,3.437,0,0,0,2.174-.78v1.053a4.06,4.06,0,0,1-2.44.67,2.958,2.958,0,0,1-2.331-.954,3.9,3.9,0,0,1-.848-2.683,3.829,3.829,0,0,1,.926-2.662,2.97,2.97,0,0,1,2.3-1.029,2.628,2.628,0,0,1,2.125.889,3.7,3.7,0,0,1,.752,2.467Zm-1.148-.95a2.282,2.282,0,0,0-.468-1.511,1.6,1.6,0,0,0-1.282-.54,1.809,1.809,0,0,0-1.347.568,2.569,2.569,0,0,0-.683,1.483Z" fill="#2f2f2f"/>
      <path d="M122.625,311.346H122.6v4.232h-1.121v-10.22H122.6v1.231h.027a2.651,2.651,0,0,1,2.42-1.395,2.563,2.563,0,0,1,2.113.94,3.891,3.891,0,0,1,.759,2.519,4.337,4.337,0,0,1-.855,2.813,2.846,2.846,0,0,1-2.338,1.056A2.343,2.343,0,0,1,122.625,311.346Zm-.027-2.823v.978a2.083,2.083,0,0,0,.564,1.473,2.011,2.011,0,0,0,3.028-.175,3.566,3.566,0,0,0,.578-2.167,2.823,2.823,0,0,0-.54-1.832,1.791,1.791,0,0,0-1.463-.663,1.984,1.984,0,0,0-1.572.681A2.492,2.492,0,0,0,122.6,308.523Z" fill="#2f2f2f"/>
      <path d="M132.859,312.29a2.157,2.157,0,0,1-1.046.218q-1.839,0-1.838-2.05v-4.143h-1.2v-.957h1.2v-1.709l1.121-.362v2.071h1.763v.957H131.1v3.944a1.63,1.63,0,0,0,.239,1,.954.954,0,0,0,.793.3,1.182,1.182,0,0,0,.731-.232Z" fill="#2f2f2f"/>
      <path d="M139.852,309.138H134.91a2.617,2.617,0,0,0,.629,1.805,2.165,2.165,0,0,0,1.654.636,3.439,3.439,0,0,0,2.174-.78v1.053a4.063,4.063,0,0,1-2.441.67,2.959,2.959,0,0,1-2.331-.954,3.9,3.9,0,0,1-.847-2.683,3.824,3.824,0,0,1,.926-2.662,2.97,2.97,0,0,1,2.3-1.029,2.63,2.63,0,0,1,2.126.889,3.7,3.7,0,0,1,.752,2.467Zm-1.148-.95a2.282,2.282,0,0,0-.469-1.511,1.6,1.6,0,0,0-1.281-.54,1.809,1.809,0,0,0-1.347.568,2.576,2.576,0,0,0-.684,1.483Z" fill="#2f2f2f"/>
      <path d="M147.583,312.358h-1.121v-1.189h-.027a2.825,2.825,0,0,1-4.515.413,3.857,3.857,0,0,1-.79-2.56,4.2,4.2,0,0,1,.875-2.782,2.889,2.889,0,0,1,2.331-1.046,2.243,2.243,0,0,1,2.1,1.135h.027V302h1.121Zm-1.121-3.165v-1.032a2.006,2.006,0,0,0-.56-1.436,1.881,1.881,0,0,0-1.422-.588,1.936,1.936,0,0,0-1.613.752,3.3,3.3,0,0,0-.588,2.078,2.964,2.964,0,0,0,.564,1.911,1.844,1.844,0,0,0,1.514.7,1.916,1.916,0,0,0,1.521-.677A2.519,2.519,0,0,0,146.462,309.193Z" fill="#2f2f2f"/>
      <path d="M158.111,302.555l-4.7,11.43h-1.046l4.689-11.43Z" fill="#2f2f2f"/>
      <path d="M168.953,312.358h-1.121v-1.189H167.8a2.588,2.588,0,0,1-2.406,1.353,2.614,2.614,0,0,1-2.109-.94,3.857,3.857,0,0,1-.789-2.56,4.19,4.19,0,0,1,.875-2.782,2.886,2.886,0,0,1,2.331-1.046,2.242,2.242,0,0,1,2.1,1.135h.028V302h1.121Zm-1.121-3.165v-1.032a2,2,0,0,0-.561-1.436,1.881,1.881,0,0,0-1.422-.588,1.937,1.937,0,0,0-1.613.752,3.3,3.3,0,0,0-.588,2.078,2.964,2.964,0,0,0,.564,1.911,1.844,1.844,0,0,0,1.514.7,1.915,1.915,0,0,0,1.521-.677A2.52,2.52,0,0,0,167.832,309.193Z" fill="#2f2f2f"/>
      <path d="M176.774,309.138h-4.942a2.622,2.622,0,0,0,.628,1.805,2.169,2.169,0,0,0,1.655.636,3.439,3.439,0,0,0,2.174-.78v1.053a4.063,4.063,0,0,1-2.441.67,2.958,2.958,0,0,1-2.331-.954,3.9,3.9,0,0,1-.848-2.683,3.825,3.825,0,0,1,.927-2.662,2.968,2.968,0,0,1,2.3-1.029,2.63,2.63,0,0,1,2.126.889,3.705,3.705,0,0,1,.752,2.467Zm-1.149-.95a2.277,2.277,0,0,0-.468-1.511,1.6,1.6,0,0,0-1.282-.54,1.808,1.808,0,0,0-1.346.568,2.576,2.576,0,0,0-.684,1.483Z" fill="#2f2f2f"/>
      <path d="M184.267,312.358h-1.121v-3.992q0-2.229-1.627-2.229a1.763,1.763,0,0,0-1.391.633,2.341,2.341,0,0,0-.55,1.6v3.992h-1.121v-7h1.121v1.162h.027a2.527,2.527,0,0,1,2.3-1.326,2.142,2.142,0,0,1,1.757.742,3.307,3.307,0,0,1,.608,2.143Z" fill="#2f2f2f"/>
      <path d="M186.852,303.581a.713.713,0,0,1-.513-.205.694.694,0,0,1-.212-.52.717.717,0,0,1,.725-.731.724.724,0,0,1,.523.208.731.731,0,0,1,0,1.036A.72.72,0,0,1,186.852,303.581Zm.546,8.777h-1.121v-7H187.4Z" fill="#2f2f2f"/>
      <path d="M195.192,309.138H190.25a2.622,2.622,0,0,0,.628,1.805,2.169,2.169,0,0,0,1.655.636,3.439,3.439,0,0,0,2.174-.78v1.053a4.063,4.063,0,0,1-2.441.67,2.958,2.958,0,0,1-2.331-.954,3.9,3.9,0,0,1-.848-2.683,3.825,3.825,0,0,1,.927-2.662,2.968,2.968,0,0,1,2.3-1.029,2.631,2.631,0,0,1,2.126.889,3.705,3.705,0,0,1,.752,2.467Zm-1.149-.95a2.277,2.277,0,0,0-.468-1.511,1.6,1.6,0,0,0-1.282-.54,1.808,1.808,0,0,0-1.346.568,2.576,2.576,0,0,0-.684,1.483Z" fill="#2f2f2f"/>
      <path d="M202.923,312.358H201.8v-1.189h-.027a2.825,2.825,0,0,1-4.515.413,3.852,3.852,0,0,1-.79-2.56,4.2,4.2,0,0,1,.875-2.782,2.889,2.889,0,0,1,2.331-1.046,2.244,2.244,0,0,1,2.1,1.135h.027V302h1.121Zm-1.121-3.165v-1.032a2.006,2.006,0,0,0-.56-1.436,1.881,1.881,0,0,0-1.422-.588,1.936,1.936,0,0,0-1.613.752,3.29,3.29,0,0,0-.588,2.078,2.964,2.964,0,0,0,.564,1.911,1.843,1.843,0,0,0,1.514.7,1.916,1.916,0,0,0,1.521-.677A2.524,2.524,0,0,0,201.8,309.193Z" fill="#2f2f2f"/>
    </g>
    <g>
      <path d="M126.242,38.5h-2.83v8.764h-1.149V38.5H119.44V37.46h6.8Z" fill="#2f2f2f"/>
      <path d="M134.548,46.593a6.556,6.556,0,0,1-3.281.834,4.481,4.481,0,0,1-3.394-1.354,4.962,4.962,0,0,1-1.3-3.582,5.1,5.1,0,0,1,1.439-3.735,4.9,4.9,0,0,1,3.647-1.46,6.2,6.2,0,0,1,2.687.52v1.271a5.163,5.163,0,0,0-2.817-.752,3.521,3.521,0,0,0-2.7,1.135,4.739,4.739,0,0,0-.075,5.862A3.427,3.427,0,0,0,131.41,46.4a4.1,4.1,0,0,0,1.989-.458V43.189h-2.146V42.15h3.3Z" fill="#2f2f2f"/>
      <path d="M142.512,38.5h-2.83v8.764h-1.149V38.5H135.71V37.46h6.8Z" fill="#2f2f2f"/>
    </g>
    <g>
      <path d="M155.366,46.866V45.513a2.616,2.616,0,0,0,.557.369,4.56,4.56,0,0,0,.683.277,5.491,5.491,0,0,0,.722.174,4.023,4.023,0,0,0,.67.062A2.624,2.624,0,0,0,159.58,46a1.472,1.472,0,0,0,.349-1.822,1.982,1.982,0,0,0-.482-.537,4.844,4.844,0,0,0-.728-.465c-.281-.148-.582-.3-.906-.468-.341-.173-.661-.349-.957-.526a4.179,4.179,0,0,1-.772-.588,2.475,2.475,0,0,1-.517-.728,2.487,2.487,0,0,1,.107-2.119,2.5,2.5,0,0,1,.772-.817,3.5,3.5,0,0,1,1.09-.479,4.987,4.987,0,0,1,1.248-.157,4.77,4.77,0,0,1,2.112.349v1.292a3.83,3.83,0,0,0-2.228-.6,3.618,3.618,0,0,0-.752.079,2.09,2.09,0,0,0-.67.256,1.485,1.485,0,0,0-.478.458,1.218,1.218,0,0,0-.185.684,1.412,1.412,0,0,0,.14.649,1.577,1.577,0,0,0,.414.5,4.132,4.132,0,0,0,.666.438q.393.211.906.464t1,.547a4.625,4.625,0,0,1,.827.636,2.814,2.814,0,0,1,.564.773,2.166,2.166,0,0,1,.209.97,2.453,2.453,0,0,1-.285,1.227,2.314,2.314,0,0,1-.765.817,3.349,3.349,0,0,1-1.111.455,6.105,6.105,0,0,1-1.326.14,5.434,5.434,0,0,1-.574-.038c-.228-.025-.461-.061-.7-.109a5.663,5.663,0,0,1-.674-.178A2.078,2.078,0,0,1,155.366,46.866Z" fill="#2f2f2f"/>
      <path d="M164.2,43.558v3.7h-1.148v-9.8h2.693a3.553,3.553,0,0,1,2.437.766,2.731,2.731,0,0,1,.865,2.16,2.967,2.967,0,0,1-.961,2.283,3.671,3.671,0,0,1-2.594.889Zm0-5.059v4.02h1.2a2.686,2.686,0,0,0,1.815-.544,1.924,1.924,0,0,0,.626-1.534q0-1.943-2.3-1.942Z" fill="#2f2f2f"/>
      <path d="M178.5,47.263h-1.408l-5.045-7.814a3.276,3.276,0,0,1-.315-.615h-.041a9.988,9.988,0,0,1,.055,1.347v7.082H170.6v-9.8h1.49L177,45.151c.205.318.338.537.4.656h.027a10.486,10.486,0,0,1-.068-1.443v-6.9H178.5Z" fill="#2f2f2f"/>
    </g>
    <g>
      <path d="M324.555,212.709a6.472,6.472,0,0,1-2.8.52A4.721,4.721,0,0,1,318.2,211.9a4.848,4.848,0,0,1-1.292-3.534,5.175,5.175,0,0,1,1.453-3.814,5.081,5.081,0,0,1,3.77-1.463,7.068,7.068,0,0,1,2.42.362v2.126a4.291,4.291,0,0,0-2.243-.588,2.974,2.974,0,0,0-2.228.869,3.219,3.219,0,0,0-.848,2.351,3.161,3.161,0,0,0,.8,2.266,2.824,2.824,0,0,0,2.153.844,4.6,4.6,0,0,0,2.366-.628Z" fill="#2f2f2f"/>
      <path d="M329.3,213.229a3.764,3.764,0,0,1-2.752-.981,4.057,4.057,0,0,1,.038-5.38,3.926,3.926,0,0,1,2.81-.981,3.717,3.717,0,0,1,2.734.981,3.485,3.485,0,0,1,.991,2.594,3.7,3.7,0,0,1-1.022,2.755A3.805,3.805,0,0,1,329.3,213.229Zm.055-5.688a1.439,1.439,0,0,0-1.19.527,2.317,2.317,0,0,0-.424,1.49q0,2.016,1.627,2.016,1.552,0,1.552-2.071Q330.917,207.541,329.352,207.541Z" fill="#2f2f2f"/>
      <path d="M341.259,213.058h-2.153v-3.89q0-1.626-1.162-1.627a1.154,1.154,0,0,0-.923.431,1.639,1.639,0,0,0-.362,1.094v3.992H334.5v-7h2.16v1.107h.027a2.476,2.476,0,0,1,2.249-1.278q2.323,0,2.324,2.885Z" fill="#2f2f2f"/>
      <path d="M347.108,212.976a3.2,3.2,0,0,1-1.442.253q-2.283,0-2.283-2.372v-3.206h-1.135v-1.593h1.135v-1.511l2.153-.615v2.126h1.572v1.593h-1.572v2.83q0,1.094.868,1.093a1.463,1.463,0,0,0,.7-.2Z" fill="#2f2f2f"/>
      <path d="M354.29,213.058h-2.044v-1h-.028a2.28,2.28,0,0,1-2.085,1.176,2.182,2.182,0,0,1-1.6-.578,2.072,2.072,0,0,1-.584-1.541q0-2.037,2.413-2.352l1.9-.253q0-1.149-1.244-1.148a4.245,4.245,0,0,0-2.379.745v-1.627a5.328,5.328,0,0,1,1.234-.41,6.459,6.459,0,0,1,1.425-.178q3,0,3,2.987Zm-2.031-2.844v-.472l-1.271.164q-1.053.138-1.053.951a.789.789,0,0,0,.256.6.987.987,0,0,0,.694.235,1.278,1.278,0,0,0,.991-.42A1.515,1.515,0,0,0,352.259,210.214Z" fill="#2f2f2f"/>
      <path d="M357.06,204.95a1.261,1.261,0,0,1-.895-.324,1.046,1.046,0,0,1-.349-.8,1.008,1.008,0,0,1,.349-.793,1.464,1.464,0,0,1,1.794,0,1.015,1.015,0,0,1,.345.793,1.044,1.044,0,0,1-.345.807A1.286,1.286,0,0,1,357.06,204.95Zm1.066,8.108h-2.16v-7h2.16Z" fill="#2f2f2f"/>
      <path d="M366.673,213.058H364.52v-3.89q0-1.626-1.162-1.627a1.154,1.154,0,0,0-.923.431,1.639,1.639,0,0,0-.362,1.094v3.992h-2.16v-7h2.16v1.107h.027a2.476,2.476,0,0,1,2.249-1.278q2.324,0,2.324,2.885Z" fill="#2f2f2f"/>
      <path d="M374.7,210.173h-4.566q.109,1.524,1.921,1.524a3.753,3.753,0,0,0,2.03-.546v1.558a5.337,5.337,0,0,1-2.522.52,3.259,3.259,0,0,1-3.569-3.562A3.751,3.751,0,0,1,369,206.905a3.371,3.371,0,0,1,2.488-1.018,3.06,3.06,0,0,1,2.369.909,3.5,3.5,0,0,1,.837,2.468Zm-2-1.326q0-1.5-1.216-1.5a1.157,1.157,0,0,0-.9.431,1.95,1.95,0,0,0-.462,1.073Z" fill="#2f2f2f"/>
      <path d="M380.627,208.006a1.878,1.878,0,0,0-.909-.212,1.311,1.311,0,0,0-1.1.516,2.255,2.255,0,0,0-.4,1.405v3.343h-2.16v-7h2.16v1.3h.027a1.869,1.869,0,0,1,1.846-1.422,1.388,1.388,0,0,1,.533.082Z" fill="#2f2f2f"/>
    </g>
  </g>
</svg>
