<svg xmlns="http://www.w3.org/2000/svg" xmlns:xlink="http://www.w3.org/1999/xlink" viewBox="0 0 385 300">
  <defs>
    <linearGradient id="linear-gradient" x1="269.344" y1="1779.65" x2="269.344" y2="1745.316" gradientTransform="matrix(1, 0, 0, -1, 0, 1920)" gradientUnits="userSpaceOnUse">
      <stop offset="0" stop-color="#b3b2b4"/>
      <stop offset="0.38" stop-color="#b0aeaf"/>
      <stop offset="0.76" stop-color="#a2a1a1"/>
      <stop offset="1" stop-color="#979797"/>
    </linearGradient>
    <linearGradient id="linear-gradient-2" x1="269.885" y1="1899" x2="269.885" y2="1863" xlink:href="#linear-gradient"/>
    <linearGradient id="linear-gradient-3" x1="312.532" y1="1721.953" x2="335.156" y2="1721.953" gradientTransform="matrix(1, 0, 0, -1, 0, 1920)" gradientUnits="userSpaceOnUse">
      <stop offset="0" stop-color="#005ca1"/>
      <stop offset="0.07" stop-color="#0161aa"/>
      <stop offset="0.36" stop-color="#2571b8"/>
      <stop offset="0.52" stop-color="#2e76bc"/>
      <stop offset="0.64" stop-color="#2973ba"/>
      <stop offset="0.82" stop-color="#166bb5"/>
      <stop offset="1" stop-color="#005ca1"/>
    </linearGradient>
    <radialGradient id="radial-gradient" cx="324.479" cy="1721.229" r="12.476" gradientTransform="matrix(1, 0, 0, -1, 0, 1920)" gradientUnits="userSpaceOnUse">
      <stop offset="0" stop-color="#f2f2f3"/>
      <stop offset="0.58" stop-color="#eee"/>
      <stop offset="1" stop-color="#e6e6e6"/>
    </radialGradient>
    <linearGradient id="linear-gradient-4" x1="323.844" y1="1661.4" x2="323.844" y2="1691.4" gradientTransform="matrix(1, 0, 0, -1, 0, 1920)" gradientUnits="userSpaceOnUse">
      <stop offset="0" stop-color="#2e76bc"/>
      <stop offset="0.817" stop-color="#699cd3"/>
    </linearGradient>
    <linearGradient id="linear-gradient-5" x1="126.689" y1="1834.689" x2="126.689" y2="1864.689" xlink:href="#linear-gradient-4"/>
    <linearGradient id="linear-gradient-6" x1="162.889" y1="1834.689" x2="162.889" y2="1864.689" xlink:href="#linear-gradient-4"/>
    <linearGradient id="linear-gradient-7" x1="323.844" y1="1819" x2="323.844" y2="1849" gradientTransform="matrix(1, 0, 0, -1, 0, 1920)" gradientUnits="userSpaceOnUse">
      <stop offset="0" stop-color="#2e76bc"/>
      <stop offset="0.82" stop-color="#699cd3"/>
    </linearGradient>
    <linearGradient id="linear-gradient-8" x1="36.963" y1="1870.137" x2="36.963" y2="1899" xlink:href="#linear-gradient-7"/>
    <linearGradient id="linear-gradient-9" x1="36.976" y1="1859" x2="36.976" y2="1870.137" gradientTransform="matrix(1, 0, 0, -1, 0, 1920)" gradientUnits="userSpaceOnUse">
      <stop offset="0.15" stop-color="#cccccb"/>
      <stop offset="1" stop-color="#707071"/>
    </linearGradient>
    <linearGradient id="linear-gradient-10" x1="17.102" y1="1877.533" x2="17.102" y2="1854.917" gradientTransform="matrix(1, 0, 0, -1, 0, 1920)" gradientUnits="userSpaceOnUse">
      <stop offset="0.22" stop-color="#50c8e9"/>
      <stop offset="0.47" stop-color="#4ac7e9"/>
      <stop offset="0.63" stop-color="#3bc4e7"/>
      <stop offset="0.77" stop-color="#2abade"/>
      <stop offset="0.89" stop-color="#21a5cb"/>
      <stop offset="1" stop-color="#1b8ab3"/>
    </linearGradient>
    <linearGradient id="linear-gradient-11" x1="16.453" y1="1889.667" x2="18.103" y2="1869.133" xlink:href="#linear-gradient-10"/>
    <linearGradient id="linear-gradient-12" x1="126.689" y1="1793.767" x2="126.689" y2="1823.767" xlink:href="#linear-gradient-4"/>
    <linearGradient id="linear-gradient-13" x1="162.889" y1="1653.9" x2="162.889" y2="1683.9" xlink:href="#linear-gradient-4"/>
    <linearGradient id="linear-gradient-14" x1="126.689" y1="1653.9" x2="126.689" y2="1683.9" xlink:href="#linear-gradient-4"/>
    <linearGradient id="linear-gradient-15" x1="126.689" y1="1698.048" x2="126.689" y2="1728.048" xlink:href="#linear-gradient-4"/>
    <symbol id="Success_Checked" data-name="Success Checked" viewBox="0 0 16 13.82">
      <path d="M.632,7.427.1,6.852a.38.38,0,0,1,.022-.538L1.657,4.9a.374.374,0,0,1,.255-.1.367.367,0,0,1,.276.123L6.406,9.441l7.258-9.3A.377.377,0,0,1,14.2.081l1.659,1.28A.362.362,0,0,1,16,1.609a.367.367,0,0,1-.081.276L6.6,13.82Z" fill="#7ebb42"/>
    </symbol>
  </defs>
  <g id="Shapes">
    <rect width="385" height="300" fill="#fff"/>
    <rect x="96.914" y="226.232" width="92.4" height="52.167" fill="#fee452" opacity="0.35"/>
    <g>
      <rect x="268.844" y="167" width="110" height="127.6" fill="#fff"/>
      <rect x="268.844" y="167" width="110" height="127.6" fill="#767676" opacity="0.3"/>
    </g>
    <g>
      <g>
        <path d="M280.491,173.517a1.236,1.236,0,0,1-1.285,1.166H259.482a1.237,1.237,0,0,1-1.285-1.166v-32a1.237,1.237,0,0,1,1.285-1.165h19.724a1.236,1.236,0,0,1,1.285,1.165Z" fill="url(#linear-gradient)"/>
        <path d="M261.481,155.031a2.569,2.569,0,0,1,2.379-2.689H275a2.57,2.57,0,0,1,2.379,2.689h0a2.545,2.545,0,0,1-2.291,2.776c-.03,0-.059.006-.088.007H263.907a2.545,2.545,0,0,1-2.379-2.664Z" fill="#1e3465"/>
        <path d="M261.481,147.084a2.545,2.545,0,0,1,2.379-2.665H275a2.545,2.545,0,0,1,2.379,2.665h0A2.569,2.569,0,0,1,275,149.772H263.907a2.569,2.569,0,0,1-2.379-2.688Z" fill="#1e3465"/>
        <circle cx="264.597" cy="147.084" r="1.784" fill="#74cfeb"/>
        <circle cx="264.597" cy="155.031" r="1.784" fill="#74cfeb"/>
      </g>
      <g>
        <path d="M288.715,176h0a1.938,1.938,0,0,1-.29-.794,1.579,1.579,0,0,0-.425-.9h0a1.147,1.147,0,0,0-.162-.118,1.1,1.1,0,0,0-.166-.08,4.653,4.653,0,0,0-.148-3.182,10.691,10.691,0,0,0-1.873-2.994,4.5,4.5,0,0,1-1.342-2.9c.02-1.849.2-5.279-3.051-5.283-.133,0-.271,0-.414.017-3.637.292-2.673,4.135-2.727,5.421a4.649,4.649,0,0,1-.9,2.6,12.862,12.862,0,0,0-2.338,3.89,4.649,4.649,0,0,0-.248,2.145c-.033.03-.064.061-.094.093-.223.238-.388.527-.572.721a1.79,1.79,0,0,1-.685.333,1.23,1.23,0,0,0-.743.582h0a1.042,1.042,0,0,0-.111.5,3.159,3.159,0,0,0,.047.476,2.074,2.074,0,0,1,.033.836,1.61,1.61,0,0,0-.09,1.276,1.081,1.081,0,0,0,.808.494,8.513,8.513,0,0,1,2.387.5l.065-.121-.064.121a3.388,3.388,0,0,0,2.251.417,1.461,1.461,0,0,0,1.042-.813c.5,0,1.058-.216,1.945-.265.6-.049,1.352.214,2.217.166a1.132,1.132,0,0,0,.1.269v0a1.617,1.617,0,0,0,1.621.924,2.94,2.94,0,0,0,1.942-1.124l-.1-.087.106.086a6.969,6.969,0,0,1,2.046-1.294.97.97,0,0,0,.562-.736,1.789,1.789,0,0,0-.618-1.188" fill="#202020"/>
        <path d="M289.059,177.174c-.011.2-.158.353-.429.516a6.765,6.765,0,0,0-2.115,1.354,2.686,2.686,0,0,1-1.754,1.027,1.316,1.316,0,0,1-1.357-.776h0a2.213,2.213,0,0,1,.047-1.457,9.81,9.81,0,0,0,.4-1.635h0a8.751,8.751,0,0,1,.167-1.557,1.211,1.211,0,0,1,.551-.847l.04-.021a1.234,1.234,0,0,0,.757,1.186,1.884,1.884,0,0,0,1.546-.656l.18-.007a.947.947,0,0,1,.729.212h0a1.4,1.4,0,0,1,.336.756,2,2,0,0,0,.353.916h0c.424.47.56.788.548.991" fill="#ffcd00"/>
        <path d="M278.762,178.672h0v0a1.147,1.147,0,0,1-.967,1.119,3.155,3.155,0,0,1-2.062-.393h0a8.107,8.107,0,0,0-2.459-.531.821.821,0,0,1-.621-.351,1.4,1.4,0,0,1,.105-1.061v0a2.121,2.121,0,0,0-.022-.963,1.357,1.357,0,0,1,.035-.806v0a.928.928,0,0,1,.594-.453,1.893,1.893,0,0,0,.788-.4v0h0c.218-.23.382-.519.574-.724a.75.75,0,0,1,.568-.289h.008a.826.826,0,0,1,.136.012,1.413,1.413,0,0,1,.88.644l.786,1.433h0a9.871,9.871,0,0,0,1.025,1.407,2.3,2.3,0,0,1,.626,1.359" fill="#ffcd00"/>
        <path d="M282.684,165.313a.76.76,0,0,0-.412-.332h0a6.347,6.347,0,0,1-.909-.375,1.923,1.923,0,0,0-1.043-.359,1.258,1.258,0,0,0-.4.068,1.983,1.983,0,0,0-.721.5h0a1.681,1.681,0,0,1-.153.116c-.089.065-.223.163-.415.307a.419.419,0,0,0-.167.49,1.182,1.182,0,0,0,.592.616h0a4.206,4.206,0,0,1,.527.43,1.219,1.219,0,0,0,.278.173,1.136,1.136,0,0,0,.386.085,1.483,1.483,0,0,0,.868-.224,4.005,4.005,0,0,1,.668-.375h0a1.405,1.405,0,0,0,.914-.727.478.478,0,0,0-.011-.4" fill="#ffcd00"/>
        <path d="M281.486,166.01a2.881,2.881,0,0,1-1.281.433,1.771,1.771,0,0,1-1.1-.426c-.132-.1-.24-.209-.321-.285-.141-.111-.124-.267-.066-.263.1.013.111.14.172.2.083.078.187.178.312.277a1.612,1.612,0,0,0,1,.392,2.771,2.771,0,0,0,1.2-.412,6.542,6.542,0,0,0,.559-.393c.134-.1.129-.217.239-.2s.029.131-.126.267a3.5,3.5,0,0,1-.594.417" fill="#202020"/>
        <path d="M287.238,174.025c-.053,0-.1,0-.154,0h-.014c.129-.407-.156-.708-.916-1.052-.789-.346-1.417-.312-1.523.392-.007.036-.012.074-.017.112a1.248,1.248,0,0,0-.177.079,1.494,1.494,0,0,0-.685,1.021,8.778,8.778,0,0,0-.175,1.607h0a6.266,6.266,0,0,1-.274,1.165,3.974,3.974,0,0,1-4.607.282c-.1-.164-.221-.325-.343-.485-.078-.1-.158-.2-.237-.3a.977.977,0,0,0,.4-.074.5.5,0,0,0,.273-.283,1.133,1.133,0,0,0-.3-1,5.434,5.434,0,0,0-1.54-1.309h0a2.183,2.183,0,0,1-.989-1.2,2.7,2.7,0,0,1-.012-1.416,8.391,8.391,0,0,1,1.1-2.38c.093-.068.033.127-.349.837-.342.648-.983,2.146-.106,3.315a6.933,6.933,0,0,1,.556-2.474,14.818,14.818,0,0,0,1.582-4.533c.042.03.185.127.249.163h0a4.733,4.733,0,0,1,.508.416,1.253,1.253,0,0,0,.751.292l.1,0a1.675,1.675,0,0,0,.859-.247,4.456,4.456,0,0,1,.638-.362h0a1.718,1.718,0,0,0,.9-.6,20.743,20.743,0,0,0,1.5,3.851,8.958,8.958,0,0,1,.949,2.6,1.544,1.544,0,0,1,.44.056,3.508,3.508,0,0,0-.938-3.415c-.189-.183-.2-.265-.1-.261a4.937,4.937,0,0,1,1.417,2.372,3.042,3.042,0,0,1,.016,1.436c.058.024.117.05.177.079.889.433,1.218.809,1.06,1.323" fill="#fff"/>
        <path d="M282.726,163.9a1.547,1.547,0,0,1-.132.659,1.325,1.325,0,0,1-.185.309l-.077-.034c-.091-.039-.172-.071-.245-.1s-.129-.046-.187-.066a.815.815,0,0,0,.157-.187.982.982,0,0,0,.074-.358l0-.017a.986.986,0,0,0-.052-.347.639.639,0,0,0-.16-.271.322.322,0,0,0-.229-.1h-.012a.336.336,0,0,0-.223.089.635.635,0,0,0-.18.258.984.984,0,0,0-.074.36v.015a1.059,1.059,0,0,0,.014.206,2.582,2.582,0,0,0-.522-.178,1.542,1.542,0,0,1-.015-.2v-.018a1.524,1.524,0,0,1,.13-.66,1.171,1.171,0,0,1,.37-.485.816.816,0,0,1,.51-.181h.008a.818.818,0,0,1,.5.172,1.155,1.155,0,0,1,.379.478,1.548,1.548,0,0,1,.143.638l0,.018" fill="#fff"/>
        <path d="M279.938,164.146l-.071.022a1.481,1.481,0,0,0-.339.163.9.9,0,0,0,0-.221V164.1a.94.94,0,0,0-.07-.283.549.549,0,0,0-.142-.209.229.229,0,0,0-.158-.066h-.017a.228.228,0,0,0-.162.095.545.545,0,0,0-.1.23.916.916,0,0,0-.019.3v.012a.946.946,0,0,0,.069.284.532.532,0,0,0,.143.208.292.292,0,0,0,.029.023c-.061.047-.1.08-.151.116l-.114.084a1.012,1.012,0,0,1-.237-.353,1.57,1.57,0,0,1-.132-.563h0a1.582,1.582,0,0,1,.066-.575.979.979,0,0,1,.246-.431.533.533,0,0,1,.359-.173h.032a.531.531,0,0,1,.345.132,1,1,0,0,1,.294.4,1.57,1.57,0,0,1,.131.563h0a1.61,1.61,0,0,1,0,.251" fill="#fff"/>
        <path d="M280.554,164.645c.016.05.1.042.142.066s.074.067.12.068.111-.015.117-.058-.076-.094-.13-.115a.275.275,0,0,0-.223,0c-.015.009-.031.028-.026.044" fill="#202020"/>
        <path d="M280.079,164.645c-.015.05-.1.042-.142.066s-.073.067-.119.068-.112-.015-.118-.058.076-.094.13-.115a.275.275,0,0,1,.223,0c.015.009.031.028.026.044" fill="#202020"/>
      </g>
    </g>
    <g>
      <rect x="268.844" y="39.4" width="110" height="88" fill="#fff"/>
      <rect x="268.844" y="39.4" width="110" height="88" fill="#767676" opacity="0.3"/>
    </g>
    <g>
      <rect x="27.379" y="35" width="7.318" height="259.6" fill="#fff"/>
      <rect x="27.379" y="35" width="7.318" height="259.6" fill="#83b9f9" opacity="0.5"/>
    </g>
    <g>
      <path d="M281.572,55.777A1.3,1.3,0,0,1,280.225,57H259.544a1.3,1.3,0,0,1-1.347-1.222V22.223A1.3,1.3,0,0,1,259.544,21h20.681a1.3,1.3,0,0,1,1.347,1.222Z" fill="url(#linear-gradient-2)"/>
      <path d="M261.64,36.393a2.7,2.7,0,0,1,2.5-2.819H275.81a2.694,2.694,0,0,1,2.494,2.819h0a2.669,2.669,0,0,1-2.4,2.912l-.091.007H264.184a2.669,2.669,0,0,1-2.494-2.794Z" fill="#1e3465"/>
      <path d="M261.64,28.061a2.669,2.669,0,0,1,2.5-2.794H275.81a2.669,2.669,0,0,1,2.494,2.794h0a2.694,2.694,0,0,1-2.494,2.819H264.184a2.694,2.694,0,0,1-2.494-2.819Z" fill="#1e3465"/>
      <circle cx="264.908" cy="28.061" r="1.871" fill="#74cfeb"/>
      <circle cx="264.908" cy="36.393" r="1.871" fill="#74cfeb"/>
    </g>
    <g>
      <path d="M323.844,189.188c-6.247,0-11.312-1.764-11.312-4.094v21.812c0,2.241,4.977,4.059,11.153,4.094h.159c6.247,0,11.312-1.765,11.312-4.094V185.094C335.156,187.371,330.091,189.188,323.844,189.188Z" fill="url(#linear-gradient-3)"/>
      <path d="M335.156,185.094c0,2.277-5.065,4.094-11.312,4.094s-11.312-1.764-11.312-4.094S317.6,181,323.844,181s11.312,1.765,11.312,4.094" fill="#e8e8e8"/>
      <path d="M332.526,184.759c0,1.447-3.9,2.612-8.682,2.612s-8.683-1.165-8.683-2.612,3.9-2.594,8.683-2.594,8.682,1.164,8.682,2.594" fill="#74cfeb"/>
      <path d="M323.844,185.412a20.375,20.375,0,0,0-6.865,1.006,20.175,20.175,0,0,0,6.865.953,19.692,19.692,0,0,0,6.865-1.024A20.874,20.874,0,0,0,323.844,185.412Z" fill="#1b8ab3"/>
      <path d="M330.726,200.235v-6h-1.588v7.289h4.341v-1.289Zm-12.6-2.947a3.216,3.216,0,0,1-.9-.547.777.777,0,0,1-.212-.565.6.6,0,0,1,.265-.529,1.2,1.2,0,0,1,.741-.212,2.862,2.862,0,0,1,1.765.512v-1.518a4.577,4.577,0,0,0-1.765-.282,2.891,2.891,0,0,0-1.923.6,1.9,1.9,0,0,0-.741,1.571c0,.9.564,1.606,1.764,2.135a5.06,5.06,0,0,1,1.094.635.742.742,0,0,1,.265.565.672.672,0,0,1-.282.547,1.425,1.425,0,0,1-.794.194,2.93,2.93,0,0,1-1.924-.741v1.641a3.834,3.834,0,0,0,1.888.424,3.314,3.314,0,0,0,2.083-.583,1.906,1.906,0,0,0,.582-1.606,1.849,1.849,0,0,0-.441-1.235A4.268,4.268,0,0,0,318.126,197.288Zm9.247,2.806a3.863,3.863,0,0,0,0-4.094,3.192,3.192,0,0,0-1.235-1.324,3.532,3.532,0,0,0-1.765-.458,3.729,3.729,0,0,0-1.906.476A3.289,3.289,0,0,0,321.179,196a4.346,4.346,0,0,0-.459,2.012,3.986,3.986,0,0,0,.424,1.764,3.093,3.093,0,0,0,1.217,1.306,3.638,3.638,0,0,0,1.765.53l1.518,1.764h2.135l-2.17-1.941A3.157,3.157,0,0,0,327.373,200.094Zm-1.764-.441a1.664,1.664,0,0,1-1.342.618,1.627,1.627,0,0,1-1.341-.636,3.3,3.3,0,0,1,0-3.529,1.765,1.765,0,0,1,1.377-.653,1.535,1.535,0,0,1,1.323.653,2.86,2.86,0,0,1,.477,1.765A2.583,2.583,0,0,1,325.609,199.653Z" fill="url(#radial-gradient)"/>
    </g>
    <g id="abc3e3f9-d4db-41ad-8b60-378d1c3348f7">
      <g>
        <g>
          <path d="M325.549,228.823H312.78a1.009,1.009,0,0,0-1.008,1.009h0v27.534a1.008,1.008,0,0,0,1.007,1.01h22.128a1.009,1.009,0,0,0,1-1.01V239.145a1.009,1.009,0,0,0-1-1.01h-7.343a1.009,1.009,0,0,1-1-1.008v-7.294a1,1,0,0,0-.99-1.01Z" fill="#fff"/>
          <path d="M325.082,230.113v6.915a2.541,2.541,0,0,0,2.533,2.539h6.967v17.52H313.105V230.113h11.977m.488-1.513H312.617a1.023,1.023,0,0,0-1.023,1.023v27.952a1.023,1.023,0,0,0,1.021,1.025H335.07a1.023,1.023,0,0,0,1.024-1.023v-18.5a1.023,1.023,0,0,0-1.024-1.024h-7.455a1.022,1.022,0,0,1-1.021-1.025h0v-7.4a1.024,1.024,0,0,0-1.022-1.025Z" fill="url(#linear-gradient-4)"/>
          <path d="M335.7,238.257l-9.464-9.434v7.687a1.737,1.737,0,0,0,1.724,1.747h7.74Z" fill="#2e76bc"/>
        </g>
        <rect x="315.51" y="242.26" width="16.665" height="2.235" rx="1.005" fill="#699cd3"/>
        <rect x="315.51" y="246.265" width="16.665" height="2.235" rx="1.005" fill="#699cd3"/>
        <rect x="315.51" y="250.27" width="10.503" height="2.235" rx="1.005" fill="#699cd3"/>
      </g>
    </g>
    <g id="abc3e3f9-d4db-41ad-8b60-378d1c3348f7-2" data-name="abc3e3f9-d4db-41ad-8b60-378d1c3348f7">
      <g>
        <g>
          <path d="M128.394,55.534H115.626a1.008,1.008,0,0,0-1.009,1.008V84.077a1.008,1.008,0,0,0,1.007,1.01h22.128a1.008,1.008,0,0,0,1-1.01V65.856a1.008,1.008,0,0,0-1-1.01h-7.343a1.009,1.009,0,0,1-1-1.009V56.544a1,1,0,0,0-.99-1.01Z" fill="#fff"/>
          <path d="M127.927,56.824v6.915a2.54,2.54,0,0,0,2.534,2.538h6.966V83.8H115.951V56.824h11.976m.489-1.513H115.462a1.023,1.023,0,0,0-1.023,1.023V84.286a1.023,1.023,0,0,0,1.022,1.025h22.455a1.024,1.024,0,0,0,1.023-1.024h0v-18.5a1.023,1.023,0,0,0-1.023-1.023h-7.455a1.023,1.023,0,0,1-1.022-1.025h0v-7.4a1.023,1.023,0,0,0-1.022-1.025Z" fill="url(#linear-gradient-5)"/>
          <path d="M138.549,64.967l-9.463-9.433v7.687a1.734,1.734,0,0,0,1.723,1.746h7.74Z" fill="#2e76bc"/>
        </g>
        <rect x="118.356" y="68.971" width="16.665" height="2.235" rx="1.005" fill="#699cd3"/>
        <rect x="118.356" y="72.976" width="16.665" height="2.235" rx="1.005" fill="#699cd3"/>
        <rect x="118.356" y="76.981" width="10.503" height="2.235" rx="1.005" fill="#699cd3"/>
      </g>
    </g>
    <g id="abc3e3f9-d4db-41ad-8b60-378d1c3348f7-3" data-name="abc3e3f9-d4db-41ad-8b60-378d1c3348f7">
      <g>
        <g>
          <path d="M164.594,55.534H151.826a1.008,1.008,0,0,0-1.009,1.008V84.077a1.009,1.009,0,0,0,1.007,1.01h22.128a1.007,1.007,0,0,0,1-1.01V65.856a1.007,1.007,0,0,0-1-1.01h-7.343a1.009,1.009,0,0,1-1-1.009V56.544a1,1,0,0,0-.99-1.01Z" fill="#fff"/>
          <path d="M164.127,56.824v6.915a2.54,2.54,0,0,0,2.534,2.538h6.966V83.8H152.151V56.824h11.976m.489-1.513H151.662a1.023,1.023,0,0,0-1.023,1.023V84.286a1.024,1.024,0,0,0,1.022,1.025h22.455a1.024,1.024,0,0,0,1.023-1.024h0v-18.5a1.023,1.023,0,0,0-1.023-1.023h-7.455a1.024,1.024,0,0,1-1.022-1.025h0v-7.4a1.023,1.023,0,0,0-1.022-1.025Z" fill="url(#linear-gradient-6)"/>
          <path d="M174.749,64.967l-9.463-9.433v7.687a1.734,1.734,0,0,0,1.723,1.746h7.74Z" fill="#2e76bc"/>
        </g>
        <rect x="154.556" y="68.971" width="16.665" height="2.235" rx="1.005" fill="#699cd3"/>
        <rect x="154.556" y="72.976" width="16.665" height="2.235" rx="1.005" fill="#699cd3"/>
        <rect x="154.556" y="76.981" width="10.503" height="2.235" rx="1.005" fill="#699cd3"/>
      </g>
    </g>
    <g>
      <path d="M325.609,71.229h-12.83a1.007,1.007,0,0,0-1.006,1.006v27.53a1.007,1.007,0,0,0,1.006,1.006h22.13a1.006,1.006,0,0,0,1-1.006V81.553a1.023,1.023,0,0,0-1-1.024h-7.342a.988.988,0,0,1-1.006-.97V72.235A1.006,1.006,0,0,0,325.609,71.229Z" fill="#fff"/>
      <path d="M325.079,72.518v6.917a2.542,2.542,0,0,0,2.541,2.524h6.971V99.482H313.1V72.518h11.982m.53-1.518H312.62a1.023,1.023,0,0,0-1.023,1.024V99.976A1.023,1.023,0,0,0,312.62,101h22.447a1.023,1.023,0,0,0,1.024-1.024V81.482a1.023,1.023,0,0,0-1.024-1.023H327.62a1.023,1.023,0,0,1-1.023-1.024V72.024A1.024,1.024,0,0,0,325.609,71Z" fill="url(#linear-gradient-7)"/>
      <path d="M335.7,80.706l-9.459-9.477v7.712a1.765,1.765,0,0,0,1.765,1.765Z" fill="#2e76bc"/>
      <path id="a6d81f9b-1c9b-4163-b425-427db8835c56" d="M326.332,89.847a3.9,3.9,0,0,1-5.171,0l-.317,6.406a.511.511,0,0,0,.882.388l1.977-2.029,2.011,1.976a.512.512,0,0,0,.865-.388Z" fill="#b32025"/>
      <ellipse id="f228121b-524c-412f-81f5-af7174f3554f" cx="323.809" cy="86.547" rx="4.606" ry="4.624" fill="#e52526"/>
      <ellipse id="fd9247f0-1f16-45ab-bd99-d7272783472c" cx="323.809" cy="86.547" rx="3.494" ry="3.512" fill="#fed402"/>
    </g>
    <g>
      <g>
        <rect x="15.322" y="21" width="43.282" height="28.863" rx="1.447" fill="url(#linear-gradient-8)"/>
        <path d="M45.658,58.6c-4.289-.672-4.444-3.773-4.444-8.734H32.738c0,4.961-.155,8.062-4.444,8.734A2.584,2.584,0,0,0,26.149,61H47.8A2.584,2.584,0,0,0,45.658,58.6Z" fill="url(#linear-gradient-9)"/>
      </g>
      <g>
        <path d="M28.3,61a2.417,2.417,0,0,0,2.417-2.417h0a.792.792,0,0,0,0-.283c-.967-7.617-5.284-13.817-13.617-13.817S4.336,49.733,3.486,58.317A2.433,2.433,0,0,0,5.644,61l.026,0Z" fill="url(#linear-gradient-10)"/>
        <path d="M17.1,46.283a7.646,7.646,0,0,1-4.133-1.216l4.133,10.7L21.17,45.133A7.547,7.547,0,0,1,17.1,46.283Z" fill="#fff" opacity="0.8" style="isolation: isolate"/>
        <circle cx="17.12" cy="38.633" r="7.633" fill="url(#linear-gradient-11)"/>
      </g>
    </g>
    <g>
      <g id="abc3e3f9-d4db-41ad-8b60-378d1c3348f7-4" data-name="abc3e3f9-d4db-41ad-8b60-378d1c3348f7">
        <g>
          <path d="M128.394,96.456H115.626a1.008,1.008,0,0,0-1.009,1.008V125a1.008,1.008,0,0,0,1.007,1.01h22.128a1.008,1.008,0,0,0,1-1.01V106.778a1.008,1.008,0,0,0-1-1.01h-7.343a1.009,1.009,0,0,1-1-1.009V97.466a1,1,0,0,0-.99-1.01Z" fill="#fff"/>
          <path d="M127.927,97.746v6.915a2.54,2.54,0,0,0,2.534,2.538h6.966v17.52H115.951V97.746h11.976m.489-1.513H115.462a1.023,1.023,0,0,0-1.023,1.023v27.952a1.023,1.023,0,0,0,1.022,1.025h22.455a1.024,1.024,0,0,0,1.023-1.024h0v-18.5a1.023,1.023,0,0,0-1.023-1.023h-7.455a1.023,1.023,0,0,1-1.022-1.025h0v-7.4a1.023,1.023,0,0,0-1.022-1.025Z" fill="url(#linear-gradient-12)"/>
          <path d="M138.549,105.889l-9.463-9.433v7.687a1.734,1.734,0,0,0,1.723,1.746h7.74Z" fill="#2e76bc"/>
        </g>
      </g>
      <path d="M132.526,118.33v3.015h-3.25V119.72h-1.625V118.1h-1.625v-1.314a4.342,4.342,0,0,1-.984.375,4.435,4.435,0,0,1-3.3-.483,4.482,4.482,0,0,1-.9-.7,4.6,4.6,0,0,1-.7-.908,4.206,4.206,0,0,1-.45-1.066,4.7,4.7,0,0,1-.159-1.187,4.442,4.442,0,0,1,.609-2.254,4.556,4.556,0,0,1,.7-.9,4.63,4.63,0,0,1,.908-.705,4.233,4.233,0,0,1,1.067-.45,4.691,4.691,0,0,1,1.187-.159,4.41,4.41,0,0,1,1.187.159,4.424,4.424,0,0,1,1.967,1.149,4.624,4.624,0,0,1,.7.907,4.252,4.252,0,0,1,.451,1.067,4.736,4.736,0,0,1,.158,1.187,4.155,4.155,0,0,1-.05.641,4.5,4.5,0,0,1-.146.622Zm-.813.343-4.38-4.38a5.765,5.765,0,0,0,.229-.724,3.166,3.166,0,0,0,.089-.755,3.56,3.56,0,0,0-.286-1.422,3.619,3.619,0,0,0-.787-1.162,3.745,3.745,0,0,0-1.162-.78,3.625,3.625,0,0,0-4,.78,3.789,3.789,0,0,0-.781,1.162,3.64,3.64,0,0,0-.292,1.422,3.615,3.615,0,0,0,1.073,2.583,3.76,3.76,0,0,0,1.162.781,3.61,3.61,0,0,0,3.7-.52h.565v1.625h1.625v1.625h1.625v1.625h1.625Zm-8.937-7.89a.79.79,0,0,1,.317.063.8.8,0,0,1,.254.171.892.892,0,0,1,.178.261.682.682,0,0,1,.063.317.79.79,0,0,1-.063.317.8.8,0,0,1-.172.254.856.856,0,0,1-.26.178.683.683,0,0,1-.317.064.8.8,0,0,1-.571-.235.873.873,0,0,1-.178-.261.683.683,0,0,1-.064-.317.774.774,0,0,1,.064-.317.8.8,0,0,1,.171-.254.9.9,0,0,1,.26-.178A.676.676,0,0,1,122.776,110.783Z" fill="#1f56a3"/>
    </g>
    <g>
      <g id="abc3e3f9-d4db-41ad-8b60-378d1c3348f7-5" data-name="abc3e3f9-d4db-41ad-8b60-378d1c3348f7">
        <g>
          <path d="M164.594,236.324H151.826a1.008,1.008,0,0,0-1.009,1.008v27.535a1.009,1.009,0,0,0,1.007,1.01h22.128a1.008,1.008,0,0,0,1-1.01V246.645a1.008,1.008,0,0,0-1-1.01h-7.343a1.007,1.007,0,0,1-1-1.008v-7.293a1,1,0,0,0-.99-1.011Z" fill="#fff"/>
          <path d="M164.127,237.614v6.915a2.541,2.541,0,0,0,2.534,2.538h6.966v17.52H152.151V237.614h11.976m.489-1.514H151.662a1.023,1.023,0,0,0-1.023,1.024h0v27.95a1.024,1.024,0,0,0,1.022,1.025h22.455a1.023,1.023,0,0,0,1.023-1.023v-18.5a1.023,1.023,0,0,0-1.023-1.023h-7.455a1.024,1.024,0,0,1-1.022-1.025h0v-7.4a1.023,1.023,0,0,0-1.022-1.025Z" fill="url(#linear-gradient-13)"/>
          <path d="M174.749,245.757l-9.463-9.433v7.686a1.735,1.735,0,0,0,1.723,1.747h7.74Z" fill="#2e76bc"/>
        </g>
      </g>
      <polygon points="168.384 251.442 166.452 249.5 162.894 253.059 159.336 249.5 157.394 251.442 160.942 255 157.394 258.548 159.336 260.49 162.884 256.942 166.442 260.5 168.384 258.558 164.826 255 168.384 251.442" fill="#b32025"/>
    </g>
    <g>
      <g id="abc3e3f9-d4db-41ad-8b60-378d1c3348f7-6" data-name="abc3e3f9-d4db-41ad-8b60-378d1c3348f7">
        <g>
          <path d="M128.394,236.324H115.626a1.008,1.008,0,0,0-1.009,1.008v27.535a1.008,1.008,0,0,0,1.007,1.01h22.128a1.009,1.009,0,0,0,1-1.01V246.645a1.009,1.009,0,0,0-1-1.01h-7.343a1.007,1.007,0,0,1-1-1.008v-7.293a1,1,0,0,0-.99-1.011Z" fill="#fff"/>
          <path d="M127.927,237.614v6.915a2.541,2.541,0,0,0,2.534,2.538h6.966v17.52H115.951V237.614h11.976m.489-1.514H115.462a1.023,1.023,0,0,0-1.023,1.024h0v27.95a1.023,1.023,0,0,0,1.022,1.025h22.455a1.023,1.023,0,0,0,1.023-1.023v-18.5a1.023,1.023,0,0,0-1.023-1.023h-7.455a1.023,1.023,0,0,1-1.022-1.025h0v-7.4a1.024,1.024,0,0,0-1.022-1.025Z" fill="url(#linear-gradient-14)"/>
          <path d="M138.549,245.757l-9.463-9.433v7.686a1.735,1.735,0,0,0,1.723,1.747h7.74Z" fill="#2e76bc"/>
        </g>
      </g>
      <use width="16" height="13.82" transform="translate(120.321 250.273) scale(0.796 0.796)" xlink:href="#Success_Checked"/>
    </g>
    <line x1="37.417" y1="74.093" x2="109.026" y2="74.093" fill="none" stroke="#3c3c41" stroke-miterlimit="10"/>
    <g>
      <line x1="180.838" y1="74.093" x2="258.712" y2="74.093" fill="none" stroke="#3c3c41" stroke-miterlimit="10"/>
      <polygon points="257.618 77.833 264.094 74.093 257.618 70.353 257.618 77.833" fill="#3c3c41"/>
    </g>
    <g>
      <line x1="180.838" y1="252.9" x2="264.094" y2="252.9" fill="none" stroke="#fed402" stroke-miterlimit="10" stroke-width="6"/>
      <line x1="180.838" y1="252.9" x2="264.094" y2="252.9" fill="none" stroke="#3c3c41" stroke-miterlimit="10"/>
    </g>
    <g>
      <line x1="42.799" y1="108.345" x2="109.026" y2="108.345" fill="none" stroke="#3c3c41" stroke-miterlimit="10"/>
      <polygon points="43.893 112.085 37.417 108.345 43.893 104.605 43.893 112.085" fill="#3c3c41"/>
    </g>
    <line x1="144.639" y1="108.345" x2="264.094" y2="108.345" fill="none" stroke="#3c3c41" stroke-miterlimit="10"/>
    <g>
      <g id="abc3e3f9-d4db-41ad-8b60-378d1c3348f7-7" data-name="abc3e3f9-d4db-41ad-8b60-378d1c3348f7">
        <g>
          <path d="M128.394,192.175H115.626a1.008,1.008,0,0,0-1.009,1.008v27.535a1.008,1.008,0,0,0,1.007,1.01h22.128a1.008,1.008,0,0,0,1-1.01V202.5a1.008,1.008,0,0,0-1-1.01h-7.343a1.009,1.009,0,0,1-1-1.009v-7.293a1,1,0,0,0-.99-1.01Z" fill="#fff"/>
          <path d="M127.927,193.465v6.915a2.539,2.539,0,0,0,2.534,2.538h6.966v17.52H115.951V193.465h11.976m.489-1.513H115.462a1.023,1.023,0,0,0-1.023,1.023v27.952a1.023,1.023,0,0,0,1.022,1.025h22.455a1.023,1.023,0,0,0,1.023-1.024h0v-18.5a1.023,1.023,0,0,0-1.023-1.023h-7.455a1.023,1.023,0,0,1-1.022-1.025h0v-7.4a1.024,1.024,0,0,0-1.022-1.025Z" fill="url(#linear-gradient-15)"/>
          <path d="M138.549,201.608l-9.463-9.433v7.687a1.734,1.734,0,0,0,1.723,1.746h7.74Z" fill="#2e76bc"/>
        </g>
      </g>
      <path d="M132.526,214.049v3.015h-3.25v-1.625h-1.625v-1.625h-1.625V212.5a4.342,4.342,0,0,1-.984.375,4.435,4.435,0,0,1-3.3-.483,4.482,4.482,0,0,1-.9-.7,4.6,4.6,0,0,1-.7-.908,4.191,4.191,0,0,1-.45-1.066,4.7,4.7,0,0,1-.159-1.187,4.434,4.434,0,0,1,.609-2.253,4.533,4.533,0,0,1,.7-.9,4.588,4.588,0,0,1,.908-.7,4.2,4.2,0,0,1,1.067-.451,4.691,4.691,0,0,1,1.187-.159,4.422,4.422,0,0,1,2.253.61,4.454,4.454,0,0,1,.9.7,4.6,4.6,0,0,1,.7.908,4.229,4.229,0,0,1,.451,1.066,4.743,4.743,0,0,1,.158,1.187,4.155,4.155,0,0,1-.05.641,4.5,4.5,0,0,1-.146.622Zm-.813.343-4.38-4.38a5.714,5.714,0,0,0,.229-.724,3.166,3.166,0,0,0,.089-.755,3.56,3.56,0,0,0-.286-1.422,3.63,3.63,0,0,0-.787-1.162,3.745,3.745,0,0,0-1.162-.78,3.625,3.625,0,0,0-4,.78,3.789,3.789,0,0,0-.781,1.162,3.64,3.64,0,0,0-.292,1.422,3.615,3.615,0,0,0,1.073,2.583,3.742,3.742,0,0,0,1.162.781,3.61,3.61,0,0,0,3.7-.52h.565V213h1.625v1.625h1.625v1.625h1.625Zm-8.937-7.89a.79.79,0,0,1,.317.063.8.8,0,0,1,.254.172.887.887,0,0,1,.178.26.682.682,0,0,1,.063.317.79.79,0,0,1-.235.571.856.856,0,0,1-.26.178.683.683,0,0,1-.317.064.782.782,0,0,1-.318-.064.8.8,0,0,1-.253-.171.881.881,0,0,1-.178-.26.69.69,0,0,1-.064-.318.774.774,0,0,1,.064-.317.8.8,0,0,1,.171-.254.9.9,0,0,1,.26-.178A.689.689,0,0,1,122.776,206.5Z" fill="#1f56a3"/>
    </g>
    <line x1="37.417" y1="208.064" x2="109.026" y2="208.064" fill="none" stroke="#3c3c41" stroke-miterlimit="10"/>
    <g>
      <line x1="144.639" y1="208.064" x2="258.712" y2="208.064" fill="none" stroke="#3c3c41" stroke-miterlimit="10"/>
      <polygon points="257.618 211.804 264.094 208.064 257.618 204.324 257.618 211.804" fill="#3c3c41"/>
    </g>
    <g>
      <g>
        <line x1="109.48" y1="252.505" x2="46.062" y2="252.505" fill="none" stroke="#fed402" stroke-miterlimit="10" stroke-width="6"/>
        <line x1="109.48" y1="252.505" x2="46.062" y2="252.505" fill="none" stroke="#3c3c41" stroke-miterlimit="10"/>
      </g>
      <polygon points="48.721 245.978 37.417 252.505 48.721 259.032 48.721 245.978" fill="#fed402"/>
      <polygon points="48.721 248.005 40.928 252.505 48.721 257.005 48.721 248.005" fill="#3c3c41"/>
    </g>
  </g>
  <g id="Text">
    <g>
      <path d="M297.788,158.2H291.95v-9.8h2.208v8.012h3.63Z" fill="#2f2f2f"/>
      <path d="M299.932,150.092a1.263,1.263,0,0,1-.9-.324,1.049,1.049,0,0,1-.349-.8,1.01,1.01,0,0,1,.349-.793,1.464,1.464,0,0,1,1.794,0,1.011,1.011,0,0,1,.346.793,1.041,1.041,0,0,1-.346.807A1.282,1.282,0,0,1,299.932,150.092ZM301,158.2h-2.16v-7H301Z" fill="#2f2f2f"/>
      <path d="M309.541,158.2h-2.153v-3.89q0-1.626-1.162-1.627a1.153,1.153,0,0,0-.923.431,1.639,1.639,0,0,0-.363,1.094V158.2h-2.16v-7h2.16v1.107h.028a2.474,2.474,0,0,1,2.249-1.278q2.324,0,2.324,2.885Z" fill="#2f2f2f"/>
      <path d="M317.9,158.2h-2.154v-1.067h-.034a2.444,2.444,0,0,1-2.14,1.238q-2.434,0-2.433-2.947V151.2h2.153v4.033q0,1.483,1.176,1.483a1.165,1.165,0,0,0,.93-.406,1.643,1.643,0,0,0,.348-1.1V151.2H317.9Z" fill="#2f2f2f"/>
      <path d="M326.48,151.2l-2.31,3.39,2.3,3.61h-2.489l-1.011-1.887a6.73,6.73,0,0,1-.294-.636h-.028a4.378,4.378,0,0,1-.28.615l-1.018,1.908h-2.482l2.365-3.487-2.221-3.513h2.5l1,1.962a4.3,4.3,0,0,1,.28.656h.027a4.629,4.629,0,0,1,.294-.67l1.019-1.948Z" fill="#2f2f2f"/>
      <path d="M330.855,158.015v-1.75a4.631,4.631,0,0,0,1.063.479,3.517,3.517,0,0,0,1,.157,2.141,2.141,0,0,0,.9-.157.508.508,0,0,0,.332-.479.448.448,0,0,0-.15-.342,1.412,1.412,0,0,0-.387-.239,4.3,4.3,0,0,0-.516-.184q-.281-.083-.54-.185a5.289,5.289,0,0,1-.735-.338,2.107,2.107,0,0,1-.533-.421,1.644,1.644,0,0,1-.328-.554,2.211,2.211,0,0,1-.113-.745,1.913,1.913,0,0,1,.256-1.011,2.1,2.1,0,0,1,.684-.694,3.148,3.148,0,0,1,.977-.4,5.128,5.128,0,0,1,1.146-.126,6.328,6.328,0,0,1,.943.072,6.978,6.978,0,0,1,.944.208v1.668a3.415,3.415,0,0,0-.879-.359,3.734,3.734,0,0,0-.919-.119,2.054,2.054,0,0,0-.4.037,1.313,1.313,0,0,0-.331.11.6.6,0,0,0-.225.184.423.423,0,0,0-.082.256.477.477,0,0,0,.123.329,1.056,1.056,0,0,0,.321.235,3.114,3.114,0,0,0,.441.178c.162.052.322.106.482.161a6.127,6.127,0,0,1,.779.328,2.473,2.473,0,0,1,.6.417,1.635,1.635,0,0,1,.383.56,2.246,2.246,0,0,1-.137,1.829,2.162,2.162,0,0,1-.718.718,3.252,3.252,0,0,1-1.032.4,5.678,5.678,0,0,1-1.213.127A6.261,6.261,0,0,1,330.855,158.015Z" fill="#2f2f2f"/>
      <path d="M343.805,155.315h-4.567q.111,1.524,1.921,1.524a3.743,3.743,0,0,0,2.03-.547v1.559a5.331,5.331,0,0,1-2.522.52,3.258,3.258,0,0,1-3.568-3.562,3.754,3.754,0,0,1,1.011-2.762,3.372,3.372,0,0,1,2.489-1.018,3.061,3.061,0,0,1,2.369.909,3.507,3.507,0,0,1,.837,2.468Zm-2-1.326q0-1.5-1.217-1.5a1.157,1.157,0,0,0-.9.431,1.95,1.95,0,0,0-.462,1.073Z" fill="#2f2f2f"/>
      <path d="M349.736,153.148a1.875,1.875,0,0,0-.909-.212,1.306,1.306,0,0,0-1.1.516,2.249,2.249,0,0,0-.4,1.405V158.2h-2.16v-7h2.16v1.3h.027a1.869,1.869,0,0,1,1.846-1.422,1.385,1.385,0,0,1,.533.082Z" fill="#2f2f2f"/>
      <path d="M357.835,151.2l-2.6,7h-2.46l-2.482-7H352.6l1.216,4.313a6.392,6.392,0,0,1,.24,1.244h.027a6.967,6.967,0,0,1,.253-1.2l1.244-4.354Z" fill="#2f2f2f"/>
      <path d="M364.822,155.315h-4.566q.11,1.524,1.921,1.524a3.745,3.745,0,0,0,2.03-.547v1.559a5.331,5.331,0,0,1-2.522.52,3.259,3.259,0,0,1-3.569-3.562,3.751,3.751,0,0,1,1.012-2.762,3.371,3.371,0,0,1,2.488-1.018,3.058,3.058,0,0,1,2.369.909,3.5,3.5,0,0,1,.837,2.468Zm-2-1.326q0-1.5-1.216-1.5a1.16,1.16,0,0,0-.9.431,1.957,1.957,0,0,0-.462,1.073Z" fill="#2f2f2f"/>
      <path d="M370.754,153.148a1.881,1.881,0,0,0-.909-.212,1.31,1.31,0,0,0-1.1.516,2.249,2.249,0,0,0-.4,1.405V158.2h-2.161v-7h2.161v1.3h.027a1.869,1.869,0,0,1,1.846-1.422,1.388,1.388,0,0,1,.533.082Z" fill="#2f2f2f"/>
    </g>
    <g>
      <path d="M291.949,16.1V6.3h3.473q5.223,0,5.223,4.778a4.831,4.831,0,0,1-1.425,3.657,5.254,5.254,0,0,1-3.8,1.368ZM294.157,8.1v6.214h1.094a2.959,2.959,0,0,0,2.253-.862,3.27,3.27,0,0,0,.816-2.345,2.964,2.964,0,0,0-.809-2.2,3.087,3.087,0,0,0-2.274-.8Z" fill="#2f2f2f"/>
      <path d="M305.389,16.272a3.765,3.765,0,0,1-2.751-.98,3.556,3.556,0,0,1-1-2.663,3.553,3.553,0,0,1,1.039-2.717,3.927,3.927,0,0,1,2.809-.981,3.718,3.718,0,0,1,2.735.981,3.483,3.483,0,0,1,.991,2.594,3.7,3.7,0,0,1-1.022,2.755A3.8,3.8,0,0,1,305.389,16.272Zm.054-5.687a1.442,1.442,0,0,0-1.189.526,2.326,2.326,0,0,0-.424,1.491q0,2.016,1.627,2.016,1.553,0,1.552-2.071Q307.009,10.585,305.443,10.585Z" fill="#2f2f2f"/>
      <path d="M321.706,16.1h-2.153V12.109q0-1.524-1.121-1.524a1.031,1.031,0,0,0-.869.458,1.884,1.884,0,0,0-.335,1.142V16.1h-2.16V12.068q0-1.482-1.1-1.483a1.059,1.059,0,0,0-.886.437,1.926,1.926,0,0,0-.331,1.19V16.1h-2.16v-7h2.16V10.2h.027a2.654,2.654,0,0,1,2.263-1.264,2.016,2.016,0,0,1,2.03,1.305,2.59,2.59,0,0,1,2.352-1.305q2.282,0,2.283,2.816Z" fill="#2f2f2f"/>
      <path d="M329.271,16.1h-2.043V15.1H327.2a2.284,2.284,0,0,1-2.085,1.175,2.18,2.18,0,0,1-1.6-.577,2.069,2.069,0,0,1-.584-1.542q0-2.037,2.413-2.351l1.9-.253q0-1.149-1.244-1.149a4.246,4.246,0,0,0-2.379.746V9.519a5.372,5.372,0,0,1,1.234-.411,6.513,6.513,0,0,1,1.425-.177q2.994,0,2.994,2.987Zm-2.03-2.844v-.472l-1.271.164q-1.053.138-1.053.95a.784.784,0,0,0,.256.605.982.982,0,0,0,.694.236,1.28,1.28,0,0,0,.991-.42A1.52,1.52,0,0,0,327.241,13.258Z" fill="#2f2f2f"/>
      <path d="M332.042,7.994a1.261,1.261,0,0,1-.9-.325,1.045,1.045,0,0,1-.348-.8,1.009,1.009,0,0,1,.348-.793,1.46,1.46,0,0,1,1.794,0,1.011,1.011,0,0,1,.346.793,1.041,1.041,0,0,1-.346.807A1.282,1.282,0,0,1,332.042,7.994Zm1.066,8.108h-2.16v-7h2.16Z" fill="#2f2f2f"/>
      <path d="M341.655,16.1H339.5v-3.89q0-1.627-1.162-1.627a1.153,1.153,0,0,0-.923.431,1.636,1.636,0,0,0-.362,1.093V16.1H334.9v-7h2.16v1.107h.027a2.476,2.476,0,0,1,2.249-1.278q2.323,0,2.324,2.884Z" fill="#2f2f2f"/>
      <path d="M297.042,32.648a4.262,4.262,0,0,1-2.112.424,3.573,3.573,0,0,1-2.612-.977,3.379,3.379,0,0,1-1-2.523,3.718,3.718,0,0,1,1.071-2.813,3.951,3.951,0,0,1,2.86-1.029,3.666,3.666,0,0,1,1.791.329v1.832a2.456,2.456,0,0,0-1.511-.506,1.99,1.99,0,0,0-1.472.543,2.028,2.028,0,0,0-.544,1.5,2,2,0,0,0,.519,1.459,1.912,1.912,0,0,0,1.429.53,2.844,2.844,0,0,0,1.579-.506Z" fill="#2f2f2f"/>
      <path d="M301.772,33.072a3.764,3.764,0,0,1-2.752-.981,3.555,3.555,0,0,1-1-2.662,3.553,3.553,0,0,1,1.039-2.718,3.927,3.927,0,0,1,2.809-.981,3.725,3.725,0,0,1,2.735.981,3.491,3.491,0,0,1,.991,2.6,3.7,3.7,0,0,1-1.023,2.755A3.8,3.8,0,0,1,301.772,33.072Zm.055-5.687a1.438,1.438,0,0,0-1.189.526,2.313,2.313,0,0,0-.424,1.49q0,2.017,1.627,2.017,1.551,0,1.552-2.071Q303.393,27.385,301.827,27.385Z" fill="#2f2f2f"/>
      <path d="M313.734,32.9h-2.153V29.012q0-1.628-1.162-1.627a1.155,1.155,0,0,0-.923.43,1.646,1.646,0,0,0-.362,1.094V32.9h-2.16v-7h2.16v1.108h.027a2.478,2.478,0,0,1,2.249-1.279q2.325,0,2.324,2.885Z" fill="#2f2f2f"/>
      <path d="M319.584,32.819a3.185,3.185,0,0,1-1.442.253q-2.283,0-2.284-2.372V27.494h-1.134V25.9h1.134v-1.51l2.154-.616V25.9h1.572v1.593h-1.572v2.83q0,1.093.868,1.094a1.463,1.463,0,0,0,.7-.2Z" fill="#2f2f2f"/>
      <path d="M325.5,27.85a1.867,1.867,0,0,0-.909-.212,1.312,1.312,0,0,0-1.1.516,2.259,2.259,0,0,0-.4,1.405V32.9h-2.16v-7h2.16v1.3h.027a1.869,1.869,0,0,1,1.846-1.422,1.4,1.4,0,0,1,.533.082Z" fill="#2f2f2f"/>
      <path d="M329.927,33.072a3.764,3.764,0,0,1-2.752-.981,3.556,3.556,0,0,1-1-2.662,3.556,3.556,0,0,1,1.039-2.718,3.928,3.928,0,0,1,2.809-.981,3.722,3.722,0,0,1,2.735.981,3.491,3.491,0,0,1,.991,2.6,3.7,3.7,0,0,1-1.022,2.755A3.806,3.806,0,0,1,329.927,33.072Zm.054-5.687a1.439,1.439,0,0,0-1.189.526,2.319,2.319,0,0,0-.424,1.49q0,2.017,1.627,2.017,1.551,0,1.552-2.071Q331.547,27.385,329.981,27.385Z" fill="#2f2f2f"/>
      <path d="M337.3,32.9h-2.16V22.538h2.16Z" fill="#2f2f2f"/>
      <path d="M341.228,32.9h-2.161V22.538h2.161Z" fill="#2f2f2f"/>
      <path d="M349.344,30.017h-4.567q.11,1.524,1.921,1.524a3.745,3.745,0,0,0,2.03-.547v1.559a5.337,5.337,0,0,1-2.522.519,3.257,3.257,0,0,1-3.568-3.561,3.748,3.748,0,0,1,1.011-2.762,3.371,3.371,0,0,1,2.489-1.019,3.059,3.059,0,0,1,2.368.91,3.5,3.5,0,0,1,.838,2.467Zm-2-1.327q0-1.5-1.217-1.5a1.161,1.161,0,0,0-.9.43,1.949,1.949,0,0,0-.461,1.073Z" fill="#2f2f2f"/>
      <path d="M355.274,27.85a1.861,1.861,0,0,0-.909-.212,1.309,1.309,0,0,0-1.1.516,2.253,2.253,0,0,0-.4,1.405V32.9h-2.16v-7h2.16v1.3h.027a1.87,1.87,0,0,1,1.846-1.422,1.4,1.4,0,0,1,.533.082Z" fill="#2f2f2f"/>
    </g>
    <g>
      <path d="M295.176,281.4h-1.121v-4.019a3.026,3.026,0,0,0-.359-1.682,1.361,1.361,0,0,0-1.207-.519,1.49,1.49,0,0,0-1.219.656,2.508,2.508,0,0,0-.5,1.572V281.4h-1.122v-4.156q0-2.064-1.592-2.064a1.477,1.477,0,0,0-1.217.618,2.567,2.567,0,0,0-.479,1.61V281.4h-1.121v-7h1.121v1.108h.028a2.378,2.378,0,0,1,2.174-1.272,2.033,2.033,0,0,1,1.251.4,2.012,2.012,0,0,1,.731,1.05,2.5,2.5,0,0,1,2.324-1.45q2.312,0,2.311,2.851Z" fill="#2f2f2f"/>
      <path d="M296.828,281.147v-1.2a3.31,3.31,0,0,0,2.017.677q1.476,0,1.476-.984a.848.848,0,0,0-.127-.475,1.272,1.272,0,0,0-.341-.346,2.665,2.665,0,0,0-.506-.27c-.194-.079-.4-.163-.625-.249a7.942,7.942,0,0,1-.818-.373,2.468,2.468,0,0,1-.588-.424,1.573,1.573,0,0,1-.355-.536,1.915,1.915,0,0,1-.119-.7,1.678,1.678,0,0,1,.225-.872,2.006,2.006,0,0,1,.6-.636,2.827,2.827,0,0,1,.857-.386,3.842,3.842,0,0,1,1-.13,4.009,4.009,0,0,1,1.627.315v1.135a3.164,3.164,0,0,0-1.777-.506,2.1,2.1,0,0,0-.567.071,1.41,1.41,0,0,0-.435.2.95.95,0,0,0-.28.311.821.821,0,0,0-.1.4.961.961,0,0,0,.1.458,1.008,1.008,0,0,0,.291.328,2.2,2.2,0,0,0,.465.26c.181.078.389.162.622.253a8.7,8.7,0,0,1,.834.366,2.878,2.878,0,0,1,.629.423,1.661,1.661,0,0,1,.4.544,1.743,1.743,0,0,1,.141.731,1.715,1.715,0,0,1-.23.9,1.949,1.949,0,0,1-.611.635,2.808,2.808,0,0,1-.882.376,4.362,4.362,0,0,1-1.046.123A3.967,3.967,0,0,1,296.828,281.147Z" fill="#2f2f2f"/>
      <path d="M302.754,281.147v-1.2a3.313,3.313,0,0,0,2.016.677q1.478,0,1.477-.984a.856.856,0,0,0-.126-.475,1.276,1.276,0,0,0-.342-.346,2.634,2.634,0,0,0-.506-.27c-.194-.079-.4-.163-.626-.249a7.9,7.9,0,0,1-.816-.373,2.429,2.429,0,0,1-.588-.424,1.559,1.559,0,0,1-.355-.536,1.894,1.894,0,0,1-.12-.7,1.678,1.678,0,0,1,.225-.872,2.017,2.017,0,0,1,.6-.636,2.844,2.844,0,0,1,.858-.386,3.823,3.823,0,0,1,.994-.13,4.006,4.006,0,0,1,1.627.315v1.135a3.161,3.161,0,0,0-1.777-.506,2.122,2.122,0,0,0-.568.071,1.409,1.409,0,0,0-.433.2.928.928,0,0,0-.28.311.811.811,0,0,0-.1.4.949.949,0,0,0,.1.458,1,1,0,0,0,.29.328,2.268,2.268,0,0,0,.464.26c.183.078.39.162.623.253a8.7,8.7,0,0,1,.834.366,2.823,2.823,0,0,1,.628.423,1.667,1.667,0,0,1,.4.544,1.759,1.759,0,0,1,.139.731,1.733,1.733,0,0,1-.228.9,1.952,1.952,0,0,1-.612.635,2.789,2.789,0,0,1-.882.376,4.35,4.35,0,0,1-1.046.123A3.972,3.972,0,0,1,302.754,281.147Z" fill="#2f2f2f"/>
      <path d="M315.072,284.62h-1.121V280.2h-.027a2.508,2.508,0,0,1-2.393,1.367,2.636,2.636,0,0,1-2.116-.939,3.84,3.84,0,0,1-.8-2.561,4.187,4.187,0,0,1,.875-2.785,2.912,2.912,0,0,1,2.352-1.043,2.209,2.209,0,0,1,2.078,1.135h.027V274.4h1.121Zm-1.121-6.371V277.23a2.038,2.038,0,0,0-.564-1.456,1.89,1.89,0,0,0-1.432-.594,1.925,1.925,0,0,0-1.6.748,3.341,3.341,0,0,0-.587,2.109,2.889,2.889,0,0,0,.567,1.9,1.809,1.809,0,0,0,1.463.687,1.973,1.973,0,0,0,1.568-.673A2.5,2.5,0,0,0,313.951,278.249Z" fill="#2f2f2f"/>
      <path d="M318.3,281.4h-1.121V271.037H318.3Z" fill="#2f2f2f"/>
      <path d="M320.906,281.551a.723.723,0,0,1-.536-.226.742.742,0,0,1-.223-.54.756.756,0,0,1,.223-.543.719.719,0,0,1,.536-.229.736.736,0,0,1,.547.229.751.751,0,0,1,.226.543.772.772,0,0,1-.773.766Z" fill="#2f2f2f"/>
      <path d="M329.311,281.4h-1.573l-3.09-3.363h-.027V281.4H323.5V271.037h1.121v6.569h.027l2.94-3.206h1.47l-3.247,3.377Z" fill="#2f2f2f"/>
      <path d="M335.735,278.181h-4.942a2.61,2.61,0,0,0,.629,1.8,2.165,2.165,0,0,0,1.654.636,3.444,3.444,0,0,0,2.174-.779V280.9a4.067,4.067,0,0,1-2.44.669,2.958,2.958,0,0,1-2.332-.953,3.9,3.9,0,0,1-.847-2.683,3.825,3.825,0,0,1,.926-2.663,2.97,2.97,0,0,1,2.3-1.029,2.634,2.634,0,0,1,2.126.889,3.706,3.706,0,0,1,.752,2.468Zm-1.148-.951a2.28,2.28,0,0,0-.469-1.51,1.593,1.593,0,0,0-1.281-.54,1.811,1.811,0,0,0-1.347.567,2.572,2.572,0,0,0-.683,1.483Z" fill="#2f2f2f"/>
      <path d="M342.935,274.4l-3.22,8.121q-.861,2.175-2.42,2.174a2.541,2.541,0,0,1-.732-.089v-1a2.079,2.079,0,0,0,.664.123,1.376,1.376,0,0,0,1.271-1.012l.561-1.326-2.735-6.987h1.244l1.894,5.387q.033.1.143.533h.041q.034-.163.137-.519l1.989-5.4Z" fill="#2f2f2f"/>
      <path d="M347.853,281.332a2.164,2.164,0,0,1-1.046.219q-1.841,0-1.839-2.051v-4.143h-1.2V274.4h1.2v-1.709l1.121-.362V274.4h1.764v.957h-1.764V279.3a1.634,1.634,0,0,0,.239,1,.956.956,0,0,0,.793.3,1.183,1.183,0,0,0,.732-.232Z" fill="#2f2f2f"/>
      <path d="M354.47,281.4h-1.121v-1.093h-.028a2.348,2.348,0,0,1-2.153,1.257,2.305,2.305,0,0,1-1.638-.553,1.922,1.922,0,0,1-.591-1.47q0-1.962,2.311-2.283l2.1-.294q0-1.785-1.443-1.784a3.445,3.445,0,0,0-2.283.861v-1.148a4.331,4.331,0,0,1,2.379-.657q2.466,0,2.468,2.612Zm-1.121-3.541-1.689.233a2.739,2.739,0,0,0-1.176.386,1.116,1.116,0,0,0-.4.981,1.069,1.069,0,0,0,.365.837,1.411,1.411,0,0,0,.975.325,1.8,1.8,0,0,0,1.377-.584,2.091,2.091,0,0,0,.544-1.48Z" fill="#2f2f2f"/>
      <path d="M357.639,280.389h-.028V281.4H356.49V271.037h1.121v4.594h.028a2.65,2.65,0,0,1,2.42-1.395,2.569,2.569,0,0,1,2.109.94,3.884,3.884,0,0,1,.762,2.519,4.335,4.335,0,0,1-.855,2.813,2.843,2.843,0,0,1-2.338,1.056A2.3,2.3,0,0,1,357.639,280.389Zm-.028-2.824v.978a2.081,2.081,0,0,0,.565,1.473,2.012,2.012,0,0,0,3.028-.174,3.577,3.577,0,0,0,.577-2.167,2.817,2.817,0,0,0-.54-1.832,1.785,1.785,0,0,0-1.463-.663,1.986,1.986,0,0,0-1.572.68A2.5,2.5,0,0,0,357.611,277.565Z" fill="#2f2f2f"/>
    </g>
    <g>
      <path d="M121.969,40.841h-2.83v8.764H117.99V40.841h-2.823V39.8h6.8Z" fill="#2f2f2f"/>
      <path d="M130.274,48.935a6.554,6.554,0,0,1-3.281.834,4.483,4.483,0,0,1-3.393-1.353,4.962,4.962,0,0,1-1.3-3.583,5.094,5.094,0,0,1,1.439-3.735,4.905,4.905,0,0,1,3.647-1.46,6.208,6.208,0,0,1,2.686.52v1.271a5.16,5.16,0,0,0-2.816-.752,3.521,3.521,0,0,0-2.7,1.135,4.741,4.741,0,0,0-.076,5.862,3.431,3.431,0,0,0,2.653,1.063,4.1,4.1,0,0,0,1.989-.458V45.531h-2.147V44.492h3.3Z" fill="#2f2f2f"/>
      <path d="M138.238,40.841h-2.83v8.764H134.26V40.841h-2.823V39.8h6.8Z" fill="#2f2f2f"/>
    </g>
    <g>
      <path d="M151.093,49.208V47.855a2.608,2.608,0,0,0,.556.369,4.571,4.571,0,0,0,.684.277,5.415,5.415,0,0,0,.722.174,4.023,4.023,0,0,0,.67.062,2.624,2.624,0,0,0,1.582-.393,1.473,1.473,0,0,0,.348-1.822,1.961,1.961,0,0,0-.481-.537,4.729,4.729,0,0,0-.729-.464q-.42-.222-.905-.469-.513-.26-.957-.526a4.113,4.113,0,0,1-.772-.588,2.462,2.462,0,0,1-.517-.728,2.481,2.481,0,0,1,.106-2.119,2.505,2.505,0,0,1,.773-.817,3.5,3.5,0,0,1,1.09-.479,4.987,4.987,0,0,1,1.248-.157,4.77,4.77,0,0,1,2.112.349v1.292a3.83,3.83,0,0,0-2.228-.6,3.687,3.687,0,0,0-.752.079,2.114,2.114,0,0,0-.67.256,1.479,1.479,0,0,0-.479.458,1.217,1.217,0,0,0-.184.684,1.412,1.412,0,0,0,.139.649,1.6,1.6,0,0,0,.414.5,4.088,4.088,0,0,0,.666.438q.394.211.907.465t1,.546a4.661,4.661,0,0,1,.827.636,2.825,2.825,0,0,1,.563.773,2.155,2.155,0,0,1,.209.97,2.463,2.463,0,0,1-.284,1.227,2.307,2.307,0,0,1-.766.817,3.323,3.323,0,0,1-1.11.455,6.112,6.112,0,0,1-1.326.14,5.417,5.417,0,0,1-.574-.038c-.229-.024-.461-.061-.7-.109a5.6,5.6,0,0,1-.673-.178A2.042,2.042,0,0,1,151.093,49.208Z" fill="#2f2f2f"/>
      <path d="M159.927,45.9v3.7h-1.149V39.8h2.694a3.554,3.554,0,0,1,2.436.766,2.731,2.731,0,0,1,.865,2.16,2.967,2.967,0,0,1-.961,2.283,3.662,3.662,0,0,1-2.593.889Zm0-5.059v4.02h1.2a2.684,2.684,0,0,0,1.814-.544,1.924,1.924,0,0,0,.626-1.534q0-1.943-2.3-1.942Z" fill="#2f2f2f"/>
      <path d="M174.228,49.605H172.82l-5.045-7.813a3.28,3.28,0,0,1-.314-.616h-.041a9.988,9.988,0,0,1,.055,1.347v7.082h-1.149V39.8h1.49l4.909,7.691c.205.319.337.537.4.656h.027a10.478,10.478,0,0,1-.068-1.442V39.8h1.148Z" fill="#2f2f2f"/>
    </g>
    <g>
      <path d="M95.426,294.6H94.305v-1.094h-.028a2.345,2.345,0,0,1-2.153,1.258,2.3,2.3,0,0,1-1.637-.554,1.917,1.917,0,0,1-.592-1.469q0-1.962,2.311-2.283l2.1-.294q0-1.785-1.443-1.785a3.451,3.451,0,0,0-2.283.862v-1.149a4.346,4.346,0,0,1,2.379-.656q2.468,0,2.468,2.611Zm-1.121-3.541-1.689.233a2.73,2.73,0,0,0-1.176.386,1.116,1.116,0,0,0-.4.981,1.068,1.068,0,0,0,.366.837,1.413,1.413,0,0,0,.974.325,1.8,1.8,0,0,0,1.378-.585,2.087,2.087,0,0,0,.543-1.48Z" fill="#2f2f2f"/>
      <path d="M102.27,294.279a3.643,3.643,0,0,1-1.915.485,3.173,3.173,0,0,1-2.417-.974,3.532,3.532,0,0,1-.918-2.526,3.881,3.881,0,0,1,.991-2.779,3.467,3.467,0,0,1,2.645-1.049,3.683,3.683,0,0,1,1.627.342v1.148a2.855,2.855,0,0,0-1.668-.547,2.257,2.257,0,0,0-1.761.769,2.918,2.918,0,0,0-.686,2.02,2.782,2.782,0,0,0,.645,1.942,2.229,2.229,0,0,0,1.734.711,2.813,2.813,0,0,0,1.723-.609Z" fill="#2f2f2f"/>
      <path d="M108.563,294.279a3.635,3.635,0,0,1-1.914.485,3.169,3.169,0,0,1-2.416-.974,3.529,3.529,0,0,1-.92-2.526,3.886,3.886,0,0,1,.992-2.779,3.47,3.47,0,0,1,2.645-1.049,3.68,3.68,0,0,1,1.627.342v1.148a2.852,2.852,0,0,0-1.668-.547,2.256,2.256,0,0,0-1.76.769,2.919,2.919,0,0,0-.687,2.02,2.782,2.782,0,0,0,.646,1.942,2.227,2.227,0,0,0,1.733.711,2.8,2.8,0,0,0,1.722-.609Z" fill="#2f2f2f"/>
      <path d="M115.734,291.38h-4.942a2.617,2.617,0,0,0,.629,1.805,2.165,2.165,0,0,0,1.654.636,3.444,3.444,0,0,0,2.174-.779v1.052a4.06,4.06,0,0,1-2.44.67,2.957,2.957,0,0,1-2.331-.953,3.9,3.9,0,0,1-.848-2.684,3.824,3.824,0,0,1,.926-2.662,2.97,2.97,0,0,1,2.3-1.029,2.631,2.631,0,0,1,2.126.889,3.705,3.705,0,0,1,.752,2.467Zm-1.148-.95a2.282,2.282,0,0,0-.469-1.511,1.6,1.6,0,0,0-1.281-.54,1.809,1.809,0,0,0-1.347.568,2.569,2.569,0,0,0-.683,1.483Z" fill="#2f2f2f"/>
      <path d="M118.565,293.588h-.027v4.232h-1.121V287.6h1.121v1.231h.027a2.65,2.65,0,0,1,2.42-1.4,2.566,2.566,0,0,1,2.113.94,3.9,3.9,0,0,1,.758,2.519,4.343,4.343,0,0,1-.854,2.813,2.847,2.847,0,0,1-2.338,1.056A2.343,2.343,0,0,1,118.565,293.588Zm-.027-2.823v.978a2.083,2.083,0,0,0,.564,1.473,2.012,2.012,0,0,0,3.028-.174,3.57,3.57,0,0,0,.578-2.167,2.83,2.83,0,0,0-.54-1.833,1.791,1.791,0,0,0-1.463-.663,1.984,1.984,0,0,0-1.572.681A2.494,2.494,0,0,0,118.538,290.765Z" fill="#2f2f2f"/>
      <path d="M128.8,294.532a2.157,2.157,0,0,1-1.046.218q-1.839,0-1.839-2.05v-4.143h-1.2V287.6h1.2v-1.709l1.121-.362V287.6H128.8v.957h-1.764V292.5a1.637,1.637,0,0,0,.239,1,.956.956,0,0,0,.793.3,1.183,1.183,0,0,0,.732-.232Z" fill="#2f2f2f"/>
      <path d="M135.792,291.38H130.85a2.612,2.612,0,0,0,.628,1.805,2.169,2.169,0,0,0,1.655.636,3.446,3.446,0,0,0,2.174-.779v1.052a4.063,4.063,0,0,1-2.441.67,2.96,2.96,0,0,1-2.331-.953,3.907,3.907,0,0,1-.848-2.684,3.829,3.829,0,0,1,.926-2.662,2.972,2.972,0,0,1,2.3-1.029,2.631,2.631,0,0,1,2.126.889,3.705,3.705,0,0,1,.752,2.467Zm-1.148-.95a2.288,2.288,0,0,0-.469-1.511,1.6,1.6,0,0,0-1.281-.54,1.807,1.807,0,0,0-1.347.568,2.57,2.57,0,0,0-.684,1.483Z" fill="#2f2f2f"/>
      <path d="M143.523,294.6H142.4v-1.189h-.027a2.589,2.589,0,0,1-2.406,1.353,2.616,2.616,0,0,1-2.11-.94,3.857,3.857,0,0,1-.789-2.56,4.19,4.19,0,0,1,.875-2.782,2.887,2.887,0,0,1,2.331-1.046,2.245,2.245,0,0,1,2.1,1.135h.027v-4.334h1.121Zm-1.121-3.165V290.4a2.006,2.006,0,0,0-.56-1.436,1.881,1.881,0,0,0-1.422-.588,1.934,1.934,0,0,0-1.613.752,3.29,3.29,0,0,0-.588,2.078,2.963,2.963,0,0,0,.563,1.911,1.845,1.845,0,0,0,1.515.7,1.913,1.913,0,0,0,1.52-.677A2.52,2.52,0,0,0,142.4,291.435Z" fill="#2f2f2f"/>
      <path d="M154.051,284.8l-4.7,11.43H148.3l4.689-11.43Z" fill="#2f2f2f"/>
      <path d="M164.893,294.6h-1.122v-1.189h-.027a2.588,2.588,0,0,1-2.406,1.353,2.616,2.616,0,0,1-2.11-.94,3.857,3.857,0,0,1-.789-2.56,4.19,4.19,0,0,1,.875-2.782,2.887,2.887,0,0,1,2.331-1.046,2.244,2.244,0,0,1,2.1,1.135h.027v-4.334h1.122Zm-1.122-3.165V290.4a2.006,2.006,0,0,0-.56-1.436,1.881,1.881,0,0,0-1.422-.588,1.934,1.934,0,0,0-1.613.752,3.29,3.29,0,0,0-.588,2.078,2.963,2.963,0,0,0,.563,1.911,1.845,1.845,0,0,0,1.515.7,1.916,1.916,0,0,0,1.521-.677A2.524,2.524,0,0,0,163.771,291.435Z" fill="#2f2f2f"/>
      <path d="M172.714,291.38h-4.943a2.617,2.617,0,0,0,.629,1.805,2.169,2.169,0,0,0,1.655.636,3.441,3.441,0,0,0,2.173-.779v1.052a4.058,4.058,0,0,1-2.44.67,2.959,2.959,0,0,1-2.331-.953,3.907,3.907,0,0,1-.848-2.684,3.829,3.829,0,0,1,.926-2.662,2.972,2.972,0,0,1,2.3-1.029,2.631,2.631,0,0,1,2.126.889,3.705,3.705,0,0,1,.752,2.467Zm-1.149-.95a2.282,2.282,0,0,0-.468-1.511,1.6,1.6,0,0,0-1.282-.54,1.807,1.807,0,0,0-1.346.568,2.57,2.57,0,0,0-.684,1.483Z" fill="#2f2f2f"/>
      <path d="M180.207,294.6h-1.121v-3.992q0-2.229-1.627-2.229a1.767,1.767,0,0,0-1.392.633,2.345,2.345,0,0,0-.549,1.6V294.6H174.4v-7h1.122v1.162h.027a2.526,2.526,0,0,1,2.3-1.326,2.143,2.143,0,0,1,1.757.742,3.307,3.307,0,0,1,.608,2.143Z" fill="#2f2f2f"/>
      <path d="M182.791,285.823a.716.716,0,0,1-.513-.2.7.7,0,0,1-.212-.52.717.717,0,0,1,.725-.731.723.723,0,0,1,.523.208.731.731,0,0,1,0,1.036A.718.718,0,0,1,182.791,285.823Zm.547,8.777h-1.121v-7h1.121Z" fill="#2f2f2f"/>
      <path d="M191.132,291.38h-4.943a2.617,2.617,0,0,0,.629,1.805,2.167,2.167,0,0,0,1.655.636,3.441,3.441,0,0,0,2.173-.779v1.052a4.058,4.058,0,0,1-2.44.67,2.959,2.959,0,0,1-2.331-.953,3.907,3.907,0,0,1-.848-2.684,3.829,3.829,0,0,1,.926-2.662,2.972,2.972,0,0,1,2.3-1.029,2.631,2.631,0,0,1,2.126.889,3.705,3.705,0,0,1,.752,2.467Zm-1.149-.95a2.288,2.288,0,0,0-.468-1.511,1.6,1.6,0,0,0-1.282-.54,1.807,1.807,0,0,0-1.346.568,2.57,2.57,0,0,0-.684,1.483Z" fill="#2f2f2f"/>
      <path d="M198.863,294.6h-1.121v-1.189h-.027a2.589,2.589,0,0,1-2.406,1.353,2.616,2.616,0,0,1-2.11-.94,3.857,3.857,0,0,1-.789-2.56,4.19,4.19,0,0,1,.875-2.782,2.886,2.886,0,0,1,2.331-1.046,2.245,2.245,0,0,1,2.1,1.135h.027v-4.334h1.121Zm-1.121-3.165V290.4a2.006,2.006,0,0,0-.56-1.436,1.881,1.881,0,0,0-1.422-.588,1.938,1.938,0,0,0-1.614.752,3.3,3.3,0,0,0-.587,2.078,2.963,2.963,0,0,0,.563,1.911,1.845,1.845,0,0,0,1.515.7,1.913,1.913,0,0,0,1.52-.677A2.52,2.52,0,0,0,197.742,291.435Z" fill="#2f2f2f"/>
    </g>
  </g>
</svg>
