<svg xmlns="http://www.w3.org/2000/svg" xmlns:xlink="http://www.w3.org/1999/xlink" viewBox="0 0 385 300">
  <defs>
    <linearGradient id="linear-gradient" x1="270.686" y1="1779.05" x2="270.686" y2="1744.716" gradientTransform="matrix(1, 0, 0, -1, 0, 1920)" gradientUnits="userSpaceOnUse">
      <stop offset="0" stop-color="#b3b2b4"/>
      <stop offset="0.38" stop-color="#b0aeaf"/>
      <stop offset="0.76" stop-color="#a2a1a1"/>
      <stop offset="1" stop-color="#979797"/>
    </linearGradient>
    <linearGradient id="linear-gradient-2" x1="271.227" y1="1898.4" x2="271.227" y2="1862.4" xlink:href="#linear-gradient"/>
    <linearGradient id="linear-gradient-3" x1="313.874" y1="1721.353" x2="336.498" y2="1721.353" gradientTransform="matrix(1, 0, 0, -1, 0, 1920)" gradientUnits="userSpaceOnUse">
      <stop offset="0" stop-color="#005ca1"/>
      <stop offset="0.07" stop-color="#0161aa"/>
      <stop offset="0.36" stop-color="#2571b8"/>
      <stop offset="0.52" stop-color="#2e76bc"/>
      <stop offset="0.64" stop-color="#2973ba"/>
      <stop offset="0.82" stop-color="#166bb5"/>
      <stop offset="1" stop-color="#005ca1"/>
    </linearGradient>
    <radialGradient id="radial-gradient" cx="325.821" cy="1720.629" r="12.476" gradientTransform="matrix(1, 0, 0, -1, 0, 1920)" gradientUnits="userSpaceOnUse">
      <stop offset="0" stop-color="#f2f2f3"/>
      <stop offset="0.58" stop-color="#eee"/>
      <stop offset="1" stop-color="#e6e6e6"/>
    </radialGradient>
    <linearGradient id="linear-gradient-4" x1="325.186" y1="1660.8" x2="325.186" y2="1690.8" gradientTransform="matrix(1, 0, 0, -1, 0, 1920)" gradientUnits="userSpaceOnUse">
      <stop offset="0" stop-color="#2e76bc"/>
      <stop offset="0.817" stop-color="#699cd3"/>
    </linearGradient>
    <linearGradient id="linear-gradient-5" x1="128.031" y1="1834.089" x2="128.031" y2="1864.089" xlink:href="#linear-gradient-4"/>
    <linearGradient id="linear-gradient-6" x1="164.231" y1="1834.089" x2="164.231" y2="1864.089" xlink:href="#linear-gradient-4"/>
    <linearGradient id="linear-gradient-7" x1="325.186" y1="1818.4" x2="325.186" y2="1848.4" gradientTransform="matrix(1, 0, 0, -1, 0, 1920)" gradientUnits="userSpaceOnUse">
      <stop offset="0" stop-color="#2e76bc"/>
      <stop offset="0.82" stop-color="#699cd3"/>
    </linearGradient>
    <linearGradient id="linear-gradient-8" x1="38.305" y1="1869.537" x2="38.305" y2="1898.4" xlink:href="#linear-gradient-7"/>
    <linearGradient id="linear-gradient-9" x1="38.318" y1="1858.4" x2="38.318" y2="1869.537" gradientTransform="matrix(1, 0, 0, -1, 0, 1920)" gradientUnits="userSpaceOnUse">
      <stop offset="0.15" stop-color="#cccccb"/>
      <stop offset="1" stop-color="#707071"/>
    </linearGradient>
    <linearGradient id="linear-gradient-10" x1="18.444" y1="1876.933" x2="18.444" y2="1854.317" gradientTransform="matrix(1, 0, 0, -1, 0, 1920)" gradientUnits="userSpaceOnUse">
      <stop offset="0.22" stop-color="#50c8e9"/>
      <stop offset="0.47" stop-color="#4ac7e9"/>
      <stop offset="0.63" stop-color="#3bc4e7"/>
      <stop offset="0.77" stop-color="#2abade"/>
      <stop offset="0.89" stop-color="#21a5cb"/>
      <stop offset="1" stop-color="#1b8ab3"/>
    </linearGradient>
    <linearGradient id="linear-gradient-11" x1="17.795" y1="1889.067" x2="19.445" y2="1868.533" xlink:href="#linear-gradient-10"/>
  </defs>
  <g id="Shapes">
    <rect width="385" height="300" fill="#fff"/>
    <rect x="98.586" y="31.6" width="92.4" height="65.6" fill="#fee452" opacity="0.35"/>
    <g>
      <rect x="270.186" y="167.6" width="110" height="127.6" fill="#fff"/>
      <rect x="270.186" y="167.6" width="110" height="127.6" fill="#767676" opacity="0.3"/>
    </g>
    <g>
      <g>
        <path d="M281.833,174.117a1.236,1.236,0,0,1-1.285,1.166H260.824a1.237,1.237,0,0,1-1.285-1.166v-32a1.237,1.237,0,0,1,1.285-1.165h19.724a1.236,1.236,0,0,1,1.285,1.165Z" fill="url(#linear-gradient)"/>
        <path d="M262.823,155.631a2.569,2.569,0,0,1,2.379-2.689h11.135a2.57,2.57,0,0,1,2.379,2.689h0a2.545,2.545,0,0,1-2.291,2.776c-.03,0-.059.006-.088.007H265.25a2.545,2.545,0,0,1-2.38-2.664Z" fill="#1e3465"/>
        <path d="M262.823,147.684a2.545,2.545,0,0,1,2.379-2.665h11.135a2.545,2.545,0,0,1,2.379,2.665h0a2.569,2.569,0,0,1-2.379,2.688H265.25a2.569,2.569,0,0,1-2.38-2.688Z" fill="#1e3465"/>
        <circle cx="265.94" cy="147.684" r="1.784" fill="#74cfeb"/>
        <circle cx="265.94" cy="155.631" r="1.784" fill="#74cfeb"/>
      </g>
      <g>
        <path d="M290.057,176.6h0a1.952,1.952,0,0,1-.29-.794,1.579,1.579,0,0,0-.425-.9h0a1.147,1.147,0,0,0-.162-.118,1.1,1.1,0,0,0-.166-.08,4.653,4.653,0,0,0-.148-3.182,10.691,10.691,0,0,0-1.873-2.994,4.5,4.5,0,0,1-1.342-2.9c.02-1.849.2-5.279-3.051-5.283-.132,0-.271.005-.414.017-3.637.292-2.673,4.135-2.727,5.421a4.649,4.649,0,0,1-.9,2.6,12.862,12.862,0,0,0-2.338,3.89,4.649,4.649,0,0,0-.248,2.145c-.033.03-.064.061-.094.093-.223.238-.388.527-.572.721a1.79,1.79,0,0,1-.685.333,1.23,1.23,0,0,0-.743.582h0a1.042,1.042,0,0,0-.111.5,3.159,3.159,0,0,0,.047.476,2.074,2.074,0,0,1,.033.836,1.615,1.615,0,0,0-.09,1.276,1.081,1.081,0,0,0,.808.494,8.513,8.513,0,0,1,2.387.5l.065-.121-.064.121a3.388,3.388,0,0,0,2.251.417,1.461,1.461,0,0,0,1.042-.813c.5,0,1.058-.216,1.945-.265.6-.049,1.353.214,2.217.166a1.132,1.132,0,0,0,.1.269v0a1.617,1.617,0,0,0,1.621.924,2.94,2.94,0,0,0,1.942-1.124l-.1-.087.106.086a6.969,6.969,0,0,1,2.046-1.294.97.97,0,0,0,.562-.736,1.789,1.789,0,0,0-.618-1.188" fill="#202020"/>
        <path d="M290.4,177.774c-.011.2-.158.353-.429.516a6.765,6.765,0,0,0-2.115,1.354,2.686,2.686,0,0,1-1.754,1.027,1.316,1.316,0,0,1-1.357-.776h0a2.213,2.213,0,0,1,.047-1.457,9.81,9.81,0,0,0,.4-1.635h0a8.751,8.751,0,0,1,.167-1.557,1.211,1.211,0,0,1,.551-.847l.04-.021a1.234,1.234,0,0,0,.757,1.186,1.884,1.884,0,0,0,1.546-.656l.18-.007a.947.947,0,0,1,.729.212h0a1.4,1.4,0,0,1,.336.756,2,2,0,0,0,.353.916h0c.424.47.56.788.548.991" fill="#ffcd00"/>
        <path d="M280.105,179.272h0v0a1.147,1.147,0,0,1-.967,1.119,3.155,3.155,0,0,1-2.062-.393h0a8.107,8.107,0,0,0-2.459-.531.822.822,0,0,1-.621-.351,1.4,1.4,0,0,1,.1-1.061v0a2.121,2.121,0,0,0-.022-.963,1.357,1.357,0,0,1,.035-.806l0,0a.924.924,0,0,1,.593-.453,1.893,1.893,0,0,0,.788-.4v0h0c.218-.23.382-.519.574-.724a.75.75,0,0,1,.568-.289h.008a.826.826,0,0,1,.136.012,1.413,1.413,0,0,1,.88.644l.786,1.433h0a9.871,9.871,0,0,0,1.025,1.407,2.305,2.305,0,0,1,.627,1.359" fill="#ffcd00"/>
        <path d="M284.026,165.913a.76.76,0,0,0-.412-.332h0a6.347,6.347,0,0,1-.909-.375,1.923,1.923,0,0,0-1.043-.359,1.258,1.258,0,0,0-.4.068,1.983,1.983,0,0,0-.721.5h0a1.681,1.681,0,0,1-.153.116c-.089.065-.223.163-.415.307a.419.419,0,0,0-.167.49,1.182,1.182,0,0,0,.592.616h0a4.206,4.206,0,0,1,.527.43,1.219,1.219,0,0,0,.278.173,1.136,1.136,0,0,0,.386.085,1.483,1.483,0,0,0,.868-.224,4.005,4.005,0,0,1,.668-.375h0a1.41,1.41,0,0,0,.915-.727.481.481,0,0,0-.012-.4" fill="#ffcd00"/>
        <path d="M282.828,166.61a2.881,2.881,0,0,1-1.281.433,1.771,1.771,0,0,1-1.1-.426c-.132-.1-.24-.209-.321-.285-.141-.111-.124-.267-.066-.263.1.013.111.14.172.2.083.078.187.178.312.277a1.612,1.612,0,0,0,1,.392,2.771,2.771,0,0,0,1.2-.412,6.542,6.542,0,0,0,.559-.393c.134-.1.129-.217.239-.2s.029.131-.126.267a3.5,3.5,0,0,1-.594.417" fill="#202020"/>
        <path d="M288.58,174.625c-.053,0-.1,0-.154,0h-.014c.129-.407-.156-.708-.916-1.052-.789-.346-1.417-.312-1.523.392-.007.036-.012.074-.016.112a1.21,1.21,0,0,0-.178.079,1.494,1.494,0,0,0-.685,1.021,8.778,8.778,0,0,0-.175,1.607h0a6.266,6.266,0,0,1-.274,1.165,3.974,3.974,0,0,1-4.607.282c-.1-.164-.221-.325-.343-.485-.077-.1-.158-.2-.237-.3a.977.977,0,0,0,.4-.074.5.5,0,0,0,.273-.283,1.133,1.133,0,0,0-.3-1,5.434,5.434,0,0,0-1.54-1.309h0a2.183,2.183,0,0,1-.989-1.2,2.7,2.7,0,0,1-.012-1.416,8.391,8.391,0,0,1,1.095-2.38c.093-.068.033.127-.349.837-.342.648-.983,2.146-.106,3.315a6.933,6.933,0,0,1,.556-2.474,14.818,14.818,0,0,0,1.582-4.533c.042.03.185.127.249.163h0a4.733,4.733,0,0,1,.508.416,1.253,1.253,0,0,0,.751.292l.1,0a1.675,1.675,0,0,0,.859-.247,4.456,4.456,0,0,1,.638-.362h0a1.718,1.718,0,0,0,.9-.6,20.743,20.743,0,0,0,1.5,3.851,8.958,8.958,0,0,1,.949,2.6,1.544,1.544,0,0,1,.44.056,3.508,3.508,0,0,0-.938-3.415c-.189-.183-.2-.265-.1-.261a4.937,4.937,0,0,1,1.417,2.372,3.03,3.03,0,0,1,.016,1.436c.058.024.117.05.177.079.889.433,1.218.809,1.06,1.323" fill="#fff"/>
        <path d="M284.068,164.5a1.547,1.547,0,0,1-.132.659,1.325,1.325,0,0,1-.185.309l-.076-.034c-.092-.039-.173-.071-.245-.1s-.13-.046-.188-.066a.815.815,0,0,0,.157-.187.982.982,0,0,0,.074-.358l0-.017a.986.986,0,0,0-.052-.347.639.639,0,0,0-.16-.271.322.322,0,0,0-.229-.1h-.012a.336.336,0,0,0-.223.089.644.644,0,0,0-.18.258.984.984,0,0,0-.074.36v.015a1.059,1.059,0,0,0,.014.206,2.582,2.582,0,0,0-.522-.178,1.751,1.751,0,0,1-.015-.2v-.018a1.524,1.524,0,0,1,.13-.66,1.171,1.171,0,0,1,.37-.485.816.816,0,0,1,.51-.181h.008a.818.818,0,0,1,.5.172,1.155,1.155,0,0,1,.379.478,1.548,1.548,0,0,1,.143.638l0,.018" fill="#fff"/>
        <path d="M281.28,164.746l-.071.022a1.481,1.481,0,0,0-.339.163.9.9,0,0,0,0-.221V164.7a.94.94,0,0,0-.07-.283.538.538,0,0,0-.142-.209.229.229,0,0,0-.158-.066h-.017a.228.228,0,0,0-.162.1.545.545,0,0,0-.1.23.916.916,0,0,0-.019.3v.012a.918.918,0,0,0,.07.284.531.531,0,0,0,.142.208.292.292,0,0,0,.029.023c-.061.047-.1.08-.151.116l-.114.084a1.012,1.012,0,0,1-.237-.353,1.57,1.57,0,0,1-.132-.563h0a1.582,1.582,0,0,1,.066-.575.979.979,0,0,1,.246-.431.533.533,0,0,1,.359-.173h.032a.531.531,0,0,1,.345.132,1,1,0,0,1,.294.4,1.57,1.57,0,0,1,.131.563h0a1.61,1.61,0,0,1,0,.251" fill="#fff"/>
        <path d="M281.9,165.245c.016.05.1.042.142.066s.074.067.12.068.111-.015.117-.058-.076-.094-.13-.115a.275.275,0,0,0-.223,0c-.015.009-.031.028-.026.044" fill="#202020"/>
        <path d="M281.421,165.245c-.015.05-.095.042-.142.066s-.073.067-.119.068-.112-.015-.118-.058.076-.094.13-.115a.275.275,0,0,1,.223,0c.015.009.031.028.026.044" fill="#202020"/>
      </g>
    </g>
    <g>
      <rect x="270.186" y="40" width="110" height="88" fill="#fff"/>
      <rect x="270.186" y="40" width="110" height="88" fill="#767676" opacity="0.3"/>
    </g>
    <g>
      <rect x="28.721" y="35.6" width="7.318" height="259.6" fill="#fff"/>
      <rect x="28.721" y="35.6" width="7.318" height="259.6" fill="#83b9f9" opacity="0.5"/>
    </g>
    <g>
      <path d="M282.914,56.377a1.3,1.3,0,0,1-1.347,1.222H260.886a1.3,1.3,0,0,1-1.347-1.222V22.823a1.3,1.3,0,0,1,1.347-1.222h20.681a1.3,1.3,0,0,1,1.347,1.222Z" fill="url(#linear-gradient-2)"/>
      <path d="M262.982,36.993a2.7,2.7,0,0,1,2.495-2.819h11.675a2.694,2.694,0,0,1,2.494,2.819h0a2.669,2.669,0,0,1-2.4,2.912l-.092.007H265.526a2.669,2.669,0,0,1-2.494-2.794Z" fill="#1e3465"/>
      <path d="M262.982,28.661a2.669,2.669,0,0,1,2.495-2.794h11.675a2.669,2.669,0,0,1,2.494,2.794h0a2.694,2.694,0,0,1-2.494,2.819H265.526a2.694,2.694,0,0,1-2.494-2.819Z" fill="#1e3465"/>
      <circle cx="266.25" cy="28.661" r="1.871" fill="#74cfeb"/>
      <circle cx="266.25" cy="36.993" r="1.871" fill="#74cfeb"/>
    </g>
    <g>
      <path d="M325.186,189.788c-6.247,0-11.312-1.764-11.312-4.094v21.812c0,2.241,4.977,4.059,11.153,4.094h.159c6.247,0,11.312-1.765,11.312-4.094V185.694C336.5,187.971,331.433,189.788,325.186,189.788Z" fill="url(#linear-gradient-3)"/>
      <path d="M336.5,185.694c0,2.277-5.065,4.094-11.312,4.094s-11.312-1.764-11.312-4.094,5.065-4.094,11.312-4.094,11.312,1.765,11.312,4.094" fill="#e8e8e8"/>
      <path d="M333.868,185.359c0,1.447-3.9,2.612-8.682,2.612s-8.683-1.165-8.683-2.612,3.9-2.594,8.683-2.594,8.682,1.164,8.682,2.594" fill="#74cfeb"/>
      <path d="M325.186,186.012a20.375,20.375,0,0,0-6.865,1.006,20.175,20.175,0,0,0,6.865.953,19.692,19.692,0,0,0,6.865-1.024A20.874,20.874,0,0,0,325.186,186.012Z" fill="#1b8ab3"/>
      <path d="M332.068,200.835v-6H330.48v7.289h4.341v-1.289Zm-12.6-2.947a3.216,3.216,0,0,1-.9-.547.777.777,0,0,1-.212-.565.6.6,0,0,1,.265-.529,1.2,1.2,0,0,1,.741-.212,2.862,2.862,0,0,1,1.765.512v-1.518a4.577,4.577,0,0,0-1.765-.282,2.891,2.891,0,0,0-1.923.6,1.9,1.9,0,0,0-.741,1.571c0,.9.564,1.606,1.764,2.135a5.06,5.06,0,0,1,1.094.635.742.742,0,0,1,.265.565.672.672,0,0,1-.282.547,1.425,1.425,0,0,1-.794.194,2.93,2.93,0,0,1-1.924-.741v1.641a3.834,3.834,0,0,0,1.888.424,3.314,3.314,0,0,0,2.083-.583,1.906,1.906,0,0,0,.582-1.606,1.849,1.849,0,0,0-.441-1.235A4.268,4.268,0,0,0,319.468,197.888Zm9.247,2.806a3.863,3.863,0,0,0,0-4.094,3.192,3.192,0,0,0-1.235-1.324,3.53,3.53,0,0,0-1.765-.458,3.729,3.729,0,0,0-1.906.476,3.289,3.289,0,0,0-1.288,1.306,4.346,4.346,0,0,0-.459,2.012,3.986,3.986,0,0,0,.424,1.764,3.1,3.1,0,0,0,1.217,1.306,3.641,3.641,0,0,0,1.765.53l1.518,1.764h2.135l-2.17-1.941A3.157,3.157,0,0,0,328.715,200.694Zm-1.764-.441a1.664,1.664,0,0,1-1.342.618,1.627,1.627,0,0,1-1.341-.636,3.3,3.3,0,0,1,0-3.529,1.765,1.765,0,0,1,1.377-.653,1.535,1.535,0,0,1,1.323.653,2.86,2.86,0,0,1,.477,1.765A2.583,2.583,0,0,1,326.951,200.253Z" fill="url(#radial-gradient)"/>
    </g>
    <g id="abc3e3f9-d4db-41ad-8b60-378d1c3348f7">
      <g>
        <g>
          <path d="M326.891,229.423H314.123a1.009,1.009,0,0,0-1.009,1.009h0v27.534a1.008,1.008,0,0,0,1.007,1.01h22.128a1.009,1.009,0,0,0,1-1.01V239.745a1.009,1.009,0,0,0-1-1.01h-7.343a1.009,1.009,0,0,1-1-1.008v-7.294a1,1,0,0,0-.99-1.01Z" fill="#fff"/>
          <path d="M326.424,230.713v6.915a2.541,2.541,0,0,0,2.534,2.539h6.966v17.52H314.448V230.713h11.976m.489-1.513H313.959a1.023,1.023,0,0,0-1.023,1.023v27.952a1.023,1.023,0,0,0,1.022,1.025h22.455a1.023,1.023,0,0,0,1.023-1.023v-18.5a1.023,1.023,0,0,0-1.023-1.024h-7.455a1.023,1.023,0,0,1-1.022-1.025h0v-7.4a1.024,1.024,0,0,0-1.022-1.025Z" fill="url(#linear-gradient-4)"/>
          <path d="M337.046,238.857l-9.463-9.434v7.687a1.735,1.735,0,0,0,1.723,1.747h7.74Z" fill="#2e76bc"/>
        </g>
        <rect x="316.853" y="242.86" width="16.665" height="2.235" rx="1.005" fill="#699cd3"/>
        <rect x="316.853" y="246.865" width="16.665" height="2.235" rx="1.005" fill="#699cd3"/>
        <rect x="316.853" y="250.87" width="10.503" height="2.235" rx="1.005" fill="#699cd3"/>
      </g>
    </g>
    <g id="abc3e3f9-d4db-41ad-8b60-378d1c3348f7-2" data-name="abc3e3f9-d4db-41ad-8b60-378d1c3348f7">
      <g>
        <g>
          <path d="M129.736,56.134H116.968a1.008,1.008,0,0,0-1.009,1.008V84.677a1.008,1.008,0,0,0,1.007,1.01h22.128a1.007,1.007,0,0,0,1-1.01V66.456a1.007,1.007,0,0,0-1-1.01h-7.343a1.009,1.009,0,0,1-1-1.009V57.144a1,1,0,0,0-.99-1.01Z" fill="#fff"/>
          <path d="M129.269,57.424v6.915a2.54,2.54,0,0,0,2.534,2.538h6.966V84.4H117.293V57.424h11.976m.489-1.513H116.8a1.023,1.023,0,0,0-1.023,1.023V84.886a1.023,1.023,0,0,0,1.022,1.025h22.455a1.024,1.024,0,0,0,1.023-1.024h0v-18.5a1.023,1.023,0,0,0-1.023-1.023H131.8a1.023,1.023,0,0,1-1.022-1.025h0v-7.4a1.023,1.023,0,0,0-1.022-1.025Z" fill="url(#linear-gradient-5)"/>
          <path d="M139.891,65.567l-9.463-9.433v7.687a1.734,1.734,0,0,0,1.723,1.746h7.74Z" fill="#2e76bc"/>
        </g>
        <rect x="119.698" y="69.571" width="16.665" height="2.235" rx="1.005" fill="#699cd3"/>
        <rect x="119.698" y="73.576" width="16.665" height="2.235" rx="1.005" fill="#699cd3"/>
        <rect x="119.698" y="77.581" width="10.503" height="2.235" rx="1.005" fill="#699cd3"/>
      </g>
    </g>
    <g id="abc3e3f9-d4db-41ad-8b60-378d1c3348f7-3" data-name="abc3e3f9-d4db-41ad-8b60-378d1c3348f7">
      <g>
        <g>
          <path d="M165.936,56.134H153.168a1.008,1.008,0,0,0-1.009,1.008V84.677a1.009,1.009,0,0,0,1.007,1.01h22.128a1.007,1.007,0,0,0,1-1.01V66.456a1.007,1.007,0,0,0-1-1.01h-7.343a1.009,1.009,0,0,1-1-1.009V57.144a1,1,0,0,0-.99-1.01Z" fill="#fff"/>
          <path d="M165.469,57.424v6.915A2.54,2.54,0,0,0,168,66.877h6.966V84.4H153.493V57.424h11.976m.489-1.513H153a1.023,1.023,0,0,0-1.023,1.023V84.886A1.024,1.024,0,0,0,153,85.911h22.455a1.024,1.024,0,0,0,1.023-1.024h0v-18.5a1.023,1.023,0,0,0-1.023-1.023H168a1.024,1.024,0,0,1-1.022-1.025h0v-7.4a1.023,1.023,0,0,0-1.022-1.025Z" fill="url(#linear-gradient-6)"/>
          <path d="M176.091,65.567l-9.463-9.433v7.687a1.734,1.734,0,0,0,1.723,1.746h7.74Z" fill="#2e76bc"/>
        </g>
        <rect x="155.898" y="69.571" width="16.665" height="2.235" rx="1.005" fill="#699cd3"/>
        <rect x="155.898" y="73.576" width="16.665" height="2.235" rx="1.005" fill="#699cd3"/>
        <rect x="155.898" y="77.581" width="10.503" height="2.235" rx="1.005" fill="#699cd3"/>
      </g>
    </g>
    <g>
      <path d="M326.951,71.829h-12.83a1.007,1.007,0,0,0-1.006,1.006v27.53a1.007,1.007,0,0,0,1.006,1.006h22.13a1.006,1.006,0,0,0,1-1.006V82.153a1.023,1.023,0,0,0-1-1.024h-7.342a.988.988,0,0,1-1.006-.97V72.835A1.006,1.006,0,0,0,326.951,71.829Z" fill="#fff"/>
      <path d="M326.421,73.118v6.917a2.542,2.542,0,0,0,2.541,2.524h6.971v17.523H314.439V73.118h11.982m.53-1.518H313.962a1.023,1.023,0,0,0-1.023,1.024v27.952a1.023,1.023,0,0,0,1.023,1.024h22.447a1.023,1.023,0,0,0,1.024-1.024V82.082a1.023,1.023,0,0,0-1.024-1.023h-7.447a1.023,1.023,0,0,1-1.023-1.024V72.624A1.024,1.024,0,0,0,326.951,71.6Z" fill="url(#linear-gradient-7)"/>
      <path d="M337.045,81.306l-9.459-9.477v7.712a1.765,1.765,0,0,0,1.765,1.765Z" fill="#2e76bc"/>
      <path id="a6d81f9b-1c9b-4163-b425-427db8835c56" d="M327.674,90.447a3.9,3.9,0,0,1-5.171,0l-.317,6.406a.511.511,0,0,0,.882.388l1.977-2.029,2.011,1.976a.512.512,0,0,0,.865-.388Z" fill="#b32025"/>
      <ellipse id="f228121b-524c-412f-81f5-af7174f3554f" cx="325.151" cy="87.147" rx="4.606" ry="4.624" fill="#e52526"/>
      <ellipse id="fd9247f0-1f16-45ab-bd99-d7272783472c" cx="325.151" cy="87.147" rx="3.494" ry="3.512" fill="#fed402"/>
    </g>
    <g>
      <g>
        <rect x="16.664" y="21.6" width="43.282" height="28.863" rx="1.447" fill="url(#linear-gradient-8)"/>
        <path d="M47,59.2c-4.289-.672-4.444-3.773-4.444-8.734H34.081c0,4.961-.156,8.062-4.445,8.734a2.584,2.584,0,0,0-2.145,2.4H49.145A2.584,2.584,0,0,0,47,59.2Z" fill="url(#linear-gradient-9)"/>
      </g>
      <g>
        <path d="M29.645,61.6a2.417,2.417,0,0,0,2.417-2.417h0a.792.792,0,0,0,0-.283c-.967-7.617-5.284-13.817-13.617-13.817S5.678,50.333,4.828,58.917A2.433,2.433,0,0,0,6.986,61.6l.026,0Z" fill="url(#linear-gradient-10)"/>
        <path d="M18.445,46.883a7.649,7.649,0,0,1-4.133-1.216l4.133,10.7,4.067-10.634A7.544,7.544,0,0,1,18.445,46.883Z" fill="#fff" opacity="0.8" style="isolation: isolate"/>
        <circle cx="18.462" cy="39.233" r="7.633" fill="url(#linear-gradient-11)"/>
      </g>
    </g>
    <g>
      <line x1="38.759" y1="74.018" x2="110.368" y2="74.018" fill="none" stroke="#fed402" stroke-miterlimit="10" stroke-width="6"/>
      <line x1="38.759" y1="74.018" x2="110.368" y2="74.018" fill="none" stroke="#3c3c41" stroke-miterlimit="10"/>
    </g>
    <g>
      <line x1="180.976" y1="74.018" x2="261.386" y2="74.018" fill="none" stroke="#fed402" stroke-miterlimit="10" stroke-width="6"/>
      <line x1="180.976" y1="74.018" x2="261.386" y2="74.018" fill="none" stroke="#3c3c41" stroke-miterlimit="10"/>
    </g>
    <polygon points="258.727 80.546 270.031 74.018 258.727 67.491 258.727 80.546" fill="#fed402"/>
    <polygon points="258.727 78.518 266.52 74.018 258.727 69.518 258.727 78.518" fill="#3c3c41"/>
  </g>
  <g id="Text">
    <g>
      <path d="M299.13,158.8h-5.838V149H295.5v8.012h3.63Z" fill="#2f2f2f"/>
      <path d="M301.273,150.692a1.262,1.262,0,0,1-.9-.324,1.049,1.049,0,0,1-.349-.8,1.011,1.011,0,0,1,.349-.793,1.464,1.464,0,0,1,1.794,0,1.015,1.015,0,0,1,.346.793,1.045,1.045,0,0,1-.346.807A1.284,1.284,0,0,1,301.273,150.692Zm1.067,8.108h-2.16v-7h2.16Z" fill="#2f2f2f"/>
      <path d="M310.883,158.8h-2.154v-3.89q0-1.626-1.162-1.627a1.152,1.152,0,0,0-.922.431,1.639,1.639,0,0,0-.363,1.094V158.8h-2.16v-7h2.16v1.107h.028a2.475,2.475,0,0,1,2.249-1.278q2.323,0,2.324,2.885Z" fill="#2f2f2f"/>
      <path d="M319.236,158.8h-2.153v-1.067h-.034a2.444,2.444,0,0,1-2.14,1.238q-2.433,0-2.433-2.947V151.8h2.153v4.033q0,1.484,1.176,1.483a1.161,1.161,0,0,0,.929-.406,1.637,1.637,0,0,0,.349-1.1V151.8h2.153Z" fill="#2f2f2f"/>
      <path d="M327.822,151.8l-2.31,3.39,2.3,3.61H325.32l-1.011-1.887a6.73,6.73,0,0,1-.294-.636h-.028a4.324,4.324,0,0,1-.28.616l-1.019,1.907h-2.481l2.365-3.487-2.221-3.513h2.5l1,1.962a4.3,4.3,0,0,1,.28.656h.027a4.629,4.629,0,0,1,.294-.67l1.019-1.948Z" fill="#2f2f2f"/>
      <path d="M332.2,158.615v-1.75a4.589,4.589,0,0,0,1.063.479,3.517,3.517,0,0,0,1,.157,2.141,2.141,0,0,0,.9-.157.507.507,0,0,0,.332-.479.446.446,0,0,0-.15-.342,1.406,1.406,0,0,0-.387-.239,4.3,4.3,0,0,0-.516-.184c-.187-.055-.366-.117-.54-.185a5.289,5.289,0,0,1-.735-.338,2.125,2.125,0,0,1-.533-.421,1.656,1.656,0,0,1-.328-.553,2.217,2.217,0,0,1-.113-.746,1.913,1.913,0,0,1,.257-1.011,2.1,2.1,0,0,1,.683-.694,3.144,3.144,0,0,1,.978-.4,5.106,5.106,0,0,1,1.145-.126,6.328,6.328,0,0,1,.943.072,7.084,7.084,0,0,1,.943.208v1.668a3.394,3.394,0,0,0-.878-.359,3.74,3.74,0,0,0-.919-.119,2.044,2.044,0,0,0-.4.037,1.307,1.307,0,0,0-.332.11.592.592,0,0,0-.225.184.424.424,0,0,0-.082.257.476.476,0,0,0,.123.328,1.052,1.052,0,0,0,.321.235,3.114,3.114,0,0,0,.441.178q.242.078.482.161a6.127,6.127,0,0,1,.779.328,2.493,2.493,0,0,1,.6.417,1.63,1.63,0,0,1,.383.561,2.243,2.243,0,0,1-.137,1.828,2.168,2.168,0,0,1-.717.718,3.267,3.267,0,0,1-1.033.4,5.672,5.672,0,0,1-1.213.127A6.261,6.261,0,0,1,332.2,158.615Z" fill="#2f2f2f"/>
      <path d="M345.147,155.915h-4.566q.108,1.524,1.92,1.524a3.759,3.759,0,0,0,2.031-.546v1.558a5.338,5.338,0,0,1-2.523.52,3.258,3.258,0,0,1-3.568-3.562,3.746,3.746,0,0,1,1.012-2.762,3.369,3.369,0,0,1,2.488-1.018,3.061,3.061,0,0,1,2.369.909,3.5,3.5,0,0,1,.837,2.468Zm-2-1.326q0-1.5-1.217-1.5a1.163,1.163,0,0,0-.9.431,1.956,1.956,0,0,0-.461,1.073Z" fill="#2f2f2f"/>
      <path d="M351.078,153.748a1.878,1.878,0,0,0-.909-.212,1.312,1.312,0,0,0-1.1.516,2.255,2.255,0,0,0-.4,1.405V158.8h-2.16v-7h2.16v1.3h.027a1.869,1.869,0,0,1,1.846-1.422,1.381,1.381,0,0,1,.533.082Z" fill="#2f2f2f"/>
      <path d="M359.177,151.8l-2.605,7h-2.461l-2.481-7h2.31l1.217,4.313a6.234,6.234,0,0,1,.239,1.244h.028a7.063,7.063,0,0,1,.253-1.2l1.244-4.354Z" fill="#2f2f2f"/>
      <path d="M366.165,155.915H361.6q.109,1.524,1.921,1.524a3.753,3.753,0,0,0,2.03-.546v1.558a5.334,5.334,0,0,1-2.522.52,3.259,3.259,0,0,1-3.569-3.562,3.751,3.751,0,0,1,1.012-2.762,3.371,3.371,0,0,1,2.488-1.018,3.06,3.06,0,0,1,2.369.909,3.5,3.5,0,0,1,.838,2.468Zm-2-1.326q0-1.5-1.217-1.5a1.163,1.163,0,0,0-.9.431,1.957,1.957,0,0,0-.462,1.073Z" fill="#2f2f2f"/>
      <path d="M372.1,153.748a1.878,1.878,0,0,0-.909-.212,1.31,1.31,0,0,0-1.1.516,2.255,2.255,0,0,0-.4,1.405V158.8h-2.16v-7h2.16v1.3h.028a1.869,1.869,0,0,1,1.845-1.422,1.387,1.387,0,0,1,.534.082Z" fill="#2f2f2f"/>
    </g>
    <g>
      <path d="M293.292,16.7V6.9h3.472q5.223,0,5.223,4.779a4.832,4.832,0,0,1-1.425,3.657,5.255,5.255,0,0,1-3.8,1.367ZM295.5,8.7V14.91h1.093a2.958,2.958,0,0,0,2.253-.861,3.271,3.271,0,0,0,.817-2.345,2.963,2.963,0,0,0-.81-2.2,3.089,3.089,0,0,0-2.273-.8Z" fill="#2f2f2f"/>
      <path d="M306.731,16.872a3.764,3.764,0,0,1-2.752-.981,3.557,3.557,0,0,1-1-2.662,3.556,3.556,0,0,1,1.039-2.718,3.926,3.926,0,0,1,2.81-.981,3.717,3.717,0,0,1,2.734.981,3.486,3.486,0,0,1,.991,2.594,3.7,3.7,0,0,1-1.022,2.755A3.8,3.8,0,0,1,306.731,16.872Zm.055-5.687a1.441,1.441,0,0,0-1.19.526,2.319,2.319,0,0,0-.424,1.49q0,2.016,1.627,2.017,1.553,0,1.552-2.072Q308.351,11.184,306.786,11.185Z" fill="#2f2f2f"/>
      <path d="M323.048,16.7H320.9V12.709q0-1.524-1.122-1.524a1.028,1.028,0,0,0-.868.458,1.883,1.883,0,0,0-.335,1.141V16.7h-2.16V12.668q0-1.483-1.1-1.483a1.058,1.058,0,0,0-.886.437,1.926,1.926,0,0,0-.331,1.19V16.7h-2.16v-7h2.16V10.8h.027a2.652,2.652,0,0,1,2.263-1.265,2.015,2.015,0,0,1,2.03,1.306,2.589,2.589,0,0,1,2.352-1.306q2.283,0,2.283,2.817Z" fill="#2f2f2f"/>
      <path d="M330.613,16.7h-2.044V15.7h-.027a2.281,2.281,0,0,1-2.085,1.176,2.178,2.178,0,0,1-1.6-.578,2.066,2.066,0,0,1-.584-1.541q0-2.037,2.413-2.352l1.9-.253q0-1.148-1.244-1.148a4.253,4.253,0,0,0-2.379.745V10.118a5.376,5.376,0,0,1,1.234-.41,6.459,6.459,0,0,1,1.425-.178,2.644,2.644,0,0,1,2.994,2.988Zm-2.03-2.844v-.471l-1.271.164q-1.053.136-1.053.95a.784.784,0,0,0,.256.605.986.986,0,0,0,.694.236,1.276,1.276,0,0,0,.991-.421A1.514,1.514,0,0,0,328.583,13.857Z" fill="#2f2f2f"/>
      <path d="M333.384,8.594a1.265,1.265,0,0,1-.9-.325,1.046,1.046,0,0,1-.348-.8,1.009,1.009,0,0,1,.348-.793,1.462,1.462,0,0,1,1.8,0,1.013,1.013,0,0,1,.345.793,1.04,1.04,0,0,1-.345.806A1.282,1.282,0,0,1,333.384,8.594ZM334.45,16.7h-2.16v-7h2.16Z" fill="#2f2f2f"/>
      <path d="M343,16.7h-2.153V12.812q0-1.627-1.162-1.627a1.152,1.152,0,0,0-.923.43,1.639,1.639,0,0,0-.363,1.094V16.7h-2.16v-7h2.16v1.108h.028a2.476,2.476,0,0,1,2.249-1.279Q343,9.53,343,12.415Z" fill="#2f2f2f"/>
      <path d="M298.384,33.248a4.267,4.267,0,0,1-2.112.424,3.569,3.569,0,0,1-2.611-.978,3.373,3.373,0,0,1-1-2.522,3.719,3.719,0,0,1,1.069-2.813,3.955,3.955,0,0,1,2.861-1.029,3.667,3.667,0,0,1,1.791.328V28.49a2.462,2.462,0,0,0-1.51-.506,2,2,0,0,0-1.474.544,2.027,2.027,0,0,0-.543,1.5,2,2,0,0,0,.519,1.46,1.912,1.912,0,0,0,1.429.53,2.852,2.852,0,0,0,1.579-.506Z" fill="#2f2f2f"/>
      <path d="M303.114,33.672a3.762,3.762,0,0,1-2.751-.981,3.556,3.556,0,0,1-1-2.663,3.559,3.559,0,0,1,1.039-2.717,3.928,3.928,0,0,1,2.81-.981,3.715,3.715,0,0,1,2.734.981,3.487,3.487,0,0,1,.992,2.594,3.7,3.7,0,0,1-1.022,2.755A3.809,3.809,0,0,1,303.114,33.672Zm.055-5.688a1.443,1.443,0,0,0-1.19.527,2.323,2.323,0,0,0-.423,1.49q0,2.016,1.627,2.017,1.551,0,1.551-2.072Q304.734,27.984,303.169,27.984Z" fill="#2f2f2f"/>
      <path d="M315.077,33.5h-2.154v-3.89q0-1.626-1.162-1.627a1.156,1.156,0,0,0-.923.431,1.644,1.644,0,0,0-.362,1.094V33.5h-2.16v-7h2.16v1.107h.027a2.477,2.477,0,0,1,2.249-1.278q2.325,0,2.325,2.885Z" fill="#2f2f2f"/>
      <path d="M320.926,33.419a3.2,3.2,0,0,1-1.442.253q-2.283,0-2.283-2.372V28.094h-1.135V26.5H317.2V24.99l2.153-.615V26.5h1.572v1.593h-1.572v2.83q0,1.093.868,1.094a1.453,1.453,0,0,0,.7-.2Z" fill="#2f2f2f"/>
      <path d="M326.842,28.449a1.875,1.875,0,0,0-.909-.212,1.309,1.309,0,0,0-1.1.516,2.251,2.251,0,0,0-.4,1.405V33.5h-2.16v-7h2.16v1.3h.027a1.869,1.869,0,0,1,1.846-1.422,1.381,1.381,0,0,1,.533.082Z" fill="#2f2f2f"/>
      <path d="M331.269,33.672a3.764,3.764,0,0,1-2.752-.981,3.56,3.56,0,0,1-1-2.663,3.556,3.556,0,0,1,1.039-2.717,3.926,3.926,0,0,1,2.809-.981,3.719,3.719,0,0,1,2.735.981,3.49,3.49,0,0,1,.991,2.594,3.7,3.7,0,0,1-1.022,2.755A3.805,3.805,0,0,1,331.269,33.672Zm.054-5.688a1.441,1.441,0,0,0-1.189.527A2.317,2.317,0,0,0,329.71,30q0,2.016,1.627,2.017,1.553,0,1.552-2.072Q332.889,27.984,331.323,27.984Z" fill="#2f2f2f"/>
      <path d="M338.646,33.5h-2.161V23.138h2.161Z" fill="#2f2f2f"/>
      <path d="M342.57,33.5h-2.16V23.138h2.16Z" fill="#2f2f2f"/>
      <path d="M350.686,30.616h-4.567q.109,1.524,1.921,1.525a3.754,3.754,0,0,0,2.03-.547v1.558a5.322,5.322,0,0,1-2.522.52,3.259,3.259,0,0,1-3.569-3.562,3.747,3.747,0,0,1,1.012-2.761,3.368,3.368,0,0,1,2.488-1.019,3.06,3.06,0,0,1,2.369.909,3.5,3.5,0,0,1,.838,2.468Zm-2-1.326q0-1.5-1.217-1.5a1.163,1.163,0,0,0-.9.431,1.957,1.957,0,0,0-.462,1.073Z" fill="#2f2f2f"/>
      <path d="M356.617,28.449a1.878,1.878,0,0,0-.909-.212,1.31,1.31,0,0,0-1.1.516,2.257,2.257,0,0,0-.4,1.405V33.5h-2.16v-7h2.16v1.3h.028a1.869,1.869,0,0,1,1.845-1.422,1.387,1.387,0,0,1,.534.082Z" fill="#2f2f2f"/>
    </g>
    <g>
      <path d="M296.518,282H295.4v-4.02a3.033,3.033,0,0,0-.359-1.681,1.362,1.362,0,0,0-1.206-.52,1.494,1.494,0,0,0-1.221.657,2.508,2.508,0,0,0-.5,1.572V282h-1.121v-4.156q0-2.065-1.593-2.065a1.475,1.475,0,0,0-1.217.619,2.558,2.558,0,0,0-.478,1.61V282h-1.121v-7H287.7v1.107h.027a2.379,2.379,0,0,1,2.174-1.271,2.021,2.021,0,0,1,1.982,1.449,2.5,2.5,0,0,1,2.325-1.449q2.31,0,2.31,2.851Z" fill="#2f2f2f"/>
      <path d="M298.17,281.747v-1.2a3.32,3.32,0,0,0,2.017.677q1.476,0,1.476-.985a.856.856,0,0,0-.126-.475,1.273,1.273,0,0,0-.342-.345,2.665,2.665,0,0,0-.506-.27c-.194-.08-.4-.163-.626-.25a8.02,8.02,0,0,1-.816-.372,2.483,2.483,0,0,1-.588-.424,1.566,1.566,0,0,1-.356-.537,1.911,1.911,0,0,1-.119-.7,1.674,1.674,0,0,1,.225-.871,2.006,2.006,0,0,1,.6-.636,2.774,2.774,0,0,1,.858-.386,3.781,3.781,0,0,1,.994-.13,4.026,4.026,0,0,1,1.627.314v1.135a3.171,3.171,0,0,0-1.777-.506,2.064,2.064,0,0,0-.567.072,1.387,1.387,0,0,0-.435.2.93.93,0,0,0-.28.311.818.818,0,0,0-.1.4.961.961,0,0,0,.1.458,1.008,1.008,0,0,0,.291.328,2.2,2.2,0,0,0,.465.26q.273.115.622.252a8.961,8.961,0,0,1,.834.366,2.884,2.884,0,0,1,.628.424,1.629,1.629,0,0,1,.4.544,1.923,1.923,0,0,1-.088,1.633,1.956,1.956,0,0,1-.612.636,2.832,2.832,0,0,1-.882.376,4.356,4.356,0,0,1-1.046.123A3.972,3.972,0,0,1,298.17,281.747Z" fill="#2f2f2f"/>
      <path d="M304.1,281.747v-1.2a3.32,3.32,0,0,0,2.017.677q1.476,0,1.476-.985a.856.856,0,0,0-.126-.475,1.259,1.259,0,0,0-.342-.345,2.634,2.634,0,0,0-.506-.27q-.291-.12-.625-.25a8.145,8.145,0,0,1-.817-.372,2.483,2.483,0,0,1-.588-.424,1.58,1.58,0,0,1-.356-.537,1.911,1.911,0,0,1-.119-.7,1.674,1.674,0,0,1,.225-.871,2.017,2.017,0,0,1,.6-.636,2.8,2.8,0,0,1,.858-.386,3.788,3.788,0,0,1,1-.13,4.029,4.029,0,0,1,1.627.314v1.135a3.177,3.177,0,0,0-1.778-.506,2.069,2.069,0,0,0-.567.072,1.371,1.371,0,0,0-.434.2.923.923,0,0,0-.281.311.829.829,0,0,0-.1.4.973.973,0,0,0,.1.458,1.019,1.019,0,0,0,.291.328,2.225,2.225,0,0,0,.465.26q.273.115.622.252a8.846,8.846,0,0,1,.834.366,2.916,2.916,0,0,1,.629.424,1.657,1.657,0,0,1,.4.544,1.756,1.756,0,0,1,.14.731,1.721,1.721,0,0,1-.229.9,1.956,1.956,0,0,1-.612.636,2.812,2.812,0,0,1-.882.376,4.35,4.35,0,0,1-1.046.123A3.972,3.972,0,0,1,304.1,281.747Z" fill="#2f2f2f"/>
      <path d="M316.414,285.22h-1.121V280.8h-.027a2.51,2.51,0,0,1-2.393,1.367,2.635,2.635,0,0,1-2.116-.94,3.837,3.837,0,0,1-.8-2.56,4.19,4.19,0,0,1,.875-2.786,2.914,2.914,0,0,1,2.352-1.042,2.207,2.207,0,0,1,2.078,1.135h.027V275h1.121Zm-1.121-6.371V277.83a2.038,2.038,0,0,0-.564-1.456,1.891,1.891,0,0,0-1.432-.6,1.927,1.927,0,0,0-1.6.749,3.341,3.341,0,0,0-.588,2.109,2.891,2.891,0,0,0,.568,1.9,1.809,1.809,0,0,0,1.463.687,1.97,1.97,0,0,0,1.568-.674A2.494,2.494,0,0,0,315.293,278.849Z" fill="#2f2f2f"/>
      <path d="M319.641,282H318.52V271.637h1.121Z" fill="#2f2f2f"/>
      <path d="M322.249,282.15a.727.727,0,0,1-.537-.225.745.745,0,0,1-.222-.54.755.755,0,0,1,.222-.544.719.719,0,0,1,.537-.229.736.736,0,0,1,.546.229.747.747,0,0,1,.226.544.77.77,0,0,1-.772.765Z" fill="#2f2f2f"/>
      <path d="M330.653,282h-1.572l-3.09-3.363h-.028V282h-1.121V271.637h1.121v6.569h.028L328.93,275h1.47l-3.247,3.377Z" fill="#2f2f2f"/>
      <path d="M337.077,278.78h-4.942a2.617,2.617,0,0,0,.629,1.805,2.167,2.167,0,0,0,1.654.636,3.437,3.437,0,0,0,2.174-.78v1.053a4.061,4.061,0,0,1-2.441.67,2.959,2.959,0,0,1-2.331-.954,3.9,3.9,0,0,1-.847-2.683,3.824,3.824,0,0,1,.926-2.662,2.97,2.97,0,0,1,2.3-1.029,2.63,2.63,0,0,1,2.126.889,3.7,3.7,0,0,1,.752,2.467Zm-1.148-.95a2.282,2.282,0,0,0-.469-1.511,1.593,1.593,0,0,0-1.281-.54,1.809,1.809,0,0,0-1.347.568,2.576,2.576,0,0,0-.684,1.483Z" fill="#2f2f2f"/>
      <path d="M344.276,275l-3.219,8.121q-.862,2.173-2.42,2.174a2.576,2.576,0,0,1-.732-.089v-1a2.083,2.083,0,0,0,.663.123,1.375,1.375,0,0,0,1.272-1.012l.56-1.326L337.666,275h1.244l1.894,5.387q.035.1.143.533h.041c.023-.109.069-.283.137-.52l1.989-5.4Z" fill="#2f2f2f"/>
      <path d="M349.194,281.932a2.157,2.157,0,0,1-1.046.218q-1.839,0-1.838-2.05v-4.143h-1.2V275h1.2v-1.709l1.121-.362V275h1.763v.957h-1.763V279.9a1.63,1.63,0,0,0,.239,1,.954.954,0,0,0,.793.3,1.182,1.182,0,0,0,.731-.232Z" fill="#2f2f2f"/>
      <path d="M355.812,282H354.69v-1.094h-.027a2.346,2.346,0,0,1-2.153,1.258,2.3,2.3,0,0,1-1.637-.554,1.919,1.919,0,0,1-.592-1.469q0-1.962,2.311-2.284l2.1-.294q0-1.783-1.442-1.784a3.442,3.442,0,0,0-2.283.862v-1.149a4.342,4.342,0,0,1,2.379-.656q2.467,0,2.468,2.611Zm-1.122-3.541-1.688.232a2.733,2.733,0,0,0-1.176.387,1.113,1.113,0,0,0-.4.981,1.07,1.07,0,0,0,.365.837,1.418,1.418,0,0,0,.975.325,1.8,1.8,0,0,0,1.377-.585,2.088,2.088,0,0,0,.543-1.48Z" fill="#2f2f2f"/>
      <path d="M358.981,280.988h-.027V282h-1.121V271.637h1.121v4.593h.027a2.651,2.651,0,0,1,2.42-1.394,2.566,2.566,0,0,1,2.109.94,3.88,3.88,0,0,1,.762,2.519,4.337,4.337,0,0,1-.855,2.813,2.844,2.844,0,0,1-2.337,1.056A2.3,2.3,0,0,1,358.981,280.988Zm-.027-2.823v.978a2.083,2.083,0,0,0,.564,1.473,2.011,2.011,0,0,0,3.028-.175,3.573,3.573,0,0,0,.578-2.167,2.823,2.823,0,0,0-.541-1.832,1.785,1.785,0,0,0-1.462-.663,1.989,1.989,0,0,0-1.573.68A2.5,2.5,0,0,0,358.954,278.165Z" fill="#2f2f2f"/>
    </g>
    <g>
      <path d="M123.311,41.441H120.48v8.764h-1.148V41.441h-2.823V40.4h6.8Z" fill="#2f2f2f"/>
      <path d="M131.617,49.535a6.557,6.557,0,0,1-3.282.834,4.487,4.487,0,0,1-3.394-1.354,4.966,4.966,0,0,1-1.3-3.582,5.1,5.1,0,0,1,1.439-3.736,4.9,4.9,0,0,1,3.647-1.459,6.209,6.209,0,0,1,2.686.519v1.272a5.151,5.151,0,0,0-2.816-.752,3.517,3.517,0,0,0-2.7,1.135,4.737,4.737,0,0,0-.075,5.861,3.424,3.424,0,0,0,2.652,1.063,4.087,4.087,0,0,0,1.989-.458V46.13h-2.146V45.091h3.295Z" fill="#2f2f2f"/>
      <path d="M139.581,41.441H136.75v8.764H135.6V41.441h-2.823V40.4h6.8Z" fill="#2f2f2f"/>
    </g>
    <g>
      <path d="M152.435,49.808V48.455a2.641,2.641,0,0,0,.557.369,4.623,4.623,0,0,0,.683.277,5.515,5.515,0,0,0,.721.174,4.025,4.025,0,0,0,.67.061,2.619,2.619,0,0,0,1.583-.393A1.474,1.474,0,0,0,157,47.122a1.982,1.982,0,0,0-.482-.537,4.766,4.766,0,0,0-.728-.465c-.281-.148-.582-.3-.906-.468q-.513-.26-.957-.527a4.108,4.108,0,0,1-.773-.587,2.49,2.49,0,0,1-.516-.728,2.483,2.483,0,0,1,.106-2.12,2.523,2.523,0,0,1,.773-.816,3.475,3.475,0,0,1,1.09-.479,4.987,4.987,0,0,1,1.248-.157,4.787,4.787,0,0,1,2.112.348v1.292a3.838,3.838,0,0,0-2.229-.6,3.7,3.7,0,0,0-.752.078,2.134,2.134,0,0,0-.67.257,1.485,1.485,0,0,0-.478.458,1.214,1.214,0,0,0-.185.683,1.4,1.4,0,0,0,.141.65,1.6,1.6,0,0,0,.413.5,4.078,4.078,0,0,0,.667.437c.262.141.564.3.9.465s.684.356,1,.547a4.508,4.508,0,0,1,.828.636,2.867,2.867,0,0,1,.564.772,2.173,2.173,0,0,1,.208.971,2.463,2.463,0,0,1-.284,1.227,2.331,2.331,0,0,1-.765.817,3.38,3.38,0,0,1-1.111.455,6.112,6.112,0,0,1-1.326.14,5.45,5.45,0,0,1-.575-.038q-.342-.038-.7-.109a5.646,5.646,0,0,1-.673-.178A2.078,2.078,0,0,1,152.435,49.808Z" fill="#2f2f2f"/>
      <path d="M161.269,46.5v3.7H160.12V40.4h2.693a3.555,3.555,0,0,1,2.437.765,2.734,2.734,0,0,1,.865,2.161,2.972,2.972,0,0,1-.96,2.283,3.671,3.671,0,0,1-2.594.889Zm0-5.059V45.46h1.2a2.692,2.692,0,0,0,1.815-.543,1.924,1.924,0,0,0,.625-1.535q0-1.941-2.3-1.941Z" fill="#2f2f2f"/>
      <path d="M175.571,50.205h-1.408l-5.045-7.814a3.247,3.247,0,0,1-.315-.615h-.041a9.977,9.977,0,0,1,.055,1.347v7.082h-1.149V40.4h1.491l4.908,7.69q.307.479.4.657h.028a10.291,10.291,0,0,1-.069-1.443V40.4h1.149Z" fill="#2f2f2f"/>
    </g>
  </g>
</svg>
