<svg xmlns="http://www.w3.org/2000/svg" xmlns:xlink="http://www.w3.org/1999/xlink" viewBox="0 0 385 300">
  <defs>
    <linearGradient id="linear-gradient" x1="269.53" y1="1779.65" x2="269.53" y2="1745.316" gradientTransform="matrix(1, 0, 0, -1, 0, 1920)" gradientUnits="userSpaceOnUse">
      <stop offset="0" stop-color="#b3b2b4"/>
      <stop offset="0.38" stop-color="#b0aeaf"/>
      <stop offset="0.76" stop-color="#a2a1a1"/>
      <stop offset="1" stop-color="#979797"/>
    </linearGradient>
    <linearGradient id="linear-gradient-2" x1="270.07" y1="1899" x2="270.07" y2="1863" xlink:href="#linear-gradient"/>
    <linearGradient id="linear-gradient-3" x1="312.718" y1="1721.953" x2="335.341" y2="1721.953" gradientTransform="matrix(1, 0, 0, -1, 0, 1920)" gradientUnits="userSpaceOnUse">
      <stop offset="0" stop-color="#005ca1"/>
      <stop offset="0.07" stop-color="#0161aa"/>
      <stop offset="0.36" stop-color="#2571b8"/>
      <stop offset="0.52" stop-color="#2e76bc"/>
      <stop offset="0.64" stop-color="#2973ba"/>
      <stop offset="0.82" stop-color="#166bb5"/>
      <stop offset="1" stop-color="#005ca1"/>
    </linearGradient>
    <radialGradient id="radial-gradient" cx="324.665" cy="1721.229" r="12.476" gradientTransform="matrix(1, 0, 0, -1, 0, 1920)" gradientUnits="userSpaceOnUse">
      <stop offset="0" stop-color="#f2f2f3"/>
      <stop offset="0.58" stop-color="#eee"/>
      <stop offset="1" stop-color="#e6e6e6"/>
    </radialGradient>
    <linearGradient id="linear-gradient-4" x1="324.029" y1="1661.4" x2="324.029" y2="1691.4" gradientTransform="matrix(1, 0, 0, -1, 0, 1920)" gradientUnits="userSpaceOnUse">
      <stop offset="0" stop-color="#2e76bc"/>
      <stop offset="0.817" stop-color="#699cd3"/>
    </linearGradient>
    <linearGradient id="linear-gradient-5" x1="126.874" y1="1834.689" x2="126.874" y2="1864.689" xlink:href="#linear-gradient-4"/>
    <linearGradient id="linear-gradient-6" x1="163.075" y1="1834.689" x2="163.075" y2="1864.689" xlink:href="#linear-gradient-4"/>
    <linearGradient id="linear-gradient-7" x1="324.029" y1="1819" x2="324.029" y2="1849" gradientTransform="matrix(1, 0, 0, -1, 0, 1920)" gradientUnits="userSpaceOnUse">
      <stop offset="0" stop-color="#2e76bc"/>
      <stop offset="0.82" stop-color="#699cd3"/>
    </linearGradient>
    <linearGradient id="linear-gradient-8" x1="37.149" y1="1870.137" x2="37.149" y2="1899" xlink:href="#linear-gradient-7"/>
    <linearGradient id="linear-gradient-9" x1="37.162" y1="1859" x2="37.162" y2="1870.137" gradientTransform="matrix(1, 0, 0, -1, 0, 1920)" gradientUnits="userSpaceOnUse">
      <stop offset="0.15" stop-color="#cccccb"/>
      <stop offset="1" stop-color="#707071"/>
    </linearGradient>
    <linearGradient id="linear-gradient-10" x1="17.288" y1="1877.533" x2="17.288" y2="1854.917" gradientTransform="matrix(1, 0, 0, -1, 0, 1920)" gradientUnits="userSpaceOnUse">
      <stop offset="0.22" stop-color="#50c8e9"/>
      <stop offset="0.47" stop-color="#4ac7e9"/>
      <stop offset="0.63" stop-color="#3bc4e7"/>
      <stop offset="0.77" stop-color="#2abade"/>
      <stop offset="0.89" stop-color="#21a5cb"/>
      <stop offset="1" stop-color="#1b8ab3"/>
    </linearGradient>
    <linearGradient id="linear-gradient-11" x1="16.638" y1="1889.667" x2="18.288" y2="1869.133" xlink:href="#linear-gradient-10"/>
    <linearGradient id="linear-gradient-12" x1="126.874" y1="1793.767" x2="126.874" y2="1823.767" xlink:href="#linear-gradient-4"/>
    <linearGradient id="linear-gradient-13" x1="126.874" y1="1694.048" x2="126.874" y2="1724.048" xlink:href="#linear-gradient-4"/>
  </defs>
  <g id="Shapes">
    <rect width="385" height="300" fill="#fff"/>
    <rect x="105.229" y="187" width="44" height="48" fill="#fee452" opacity="0.35"/>
    <g>
      <rect x="269.029" y="167" width="110" height="127.6" fill="#fff"/>
      <rect x="269.029" y="167" width="110" height="127.6" fill="#767676" opacity="0.3"/>
    </g>
    <g>
      <g>
        <path d="M280.676,173.517a1.236,1.236,0,0,1-1.284,1.166H259.668a1.236,1.236,0,0,1-1.285-1.166v-32a1.236,1.236,0,0,1,1.285-1.165h19.724a1.236,1.236,0,0,1,1.284,1.165Z" fill="url(#linear-gradient)"/>
        <path d="M261.666,155.031a2.57,2.57,0,0,1,2.379-2.689H275.18a2.57,2.57,0,0,1,2.38,2.689h0a2.545,2.545,0,0,1-2.292,2.776c-.029,0-.058.006-.088.007H264.093a2.544,2.544,0,0,1-2.379-2.664Z" fill="#1e3465"/>
        <path d="M261.666,147.084a2.546,2.546,0,0,1,2.379-2.665H275.18a2.547,2.547,0,0,1,2.38,2.665h0a2.569,2.569,0,0,1-2.38,2.688H264.093a2.569,2.569,0,0,1-2.379-2.688Z" fill="#1e3465"/>
        <circle cx="264.783" cy="147.084" r="1.784" fill="#74cfeb"/>
        <circle cx="264.783" cy="155.031" r="1.784" fill="#74cfeb"/>
      </g>
      <g>
        <path d="M288.9,176h0a1.952,1.952,0,0,1-.29-.794,1.577,1.577,0,0,0-.424-.9h0a1.2,1.2,0,0,0-.161-.118,1.144,1.144,0,0,0-.166-.08,4.659,4.659,0,0,0-.149-3.182,10.69,10.69,0,0,0-1.872-2.994,4.5,4.5,0,0,1-1.343-2.9c.021-1.849.2-5.279-3.051-5.283-.132,0-.27,0-.414.017-3.637.292-2.672,4.135-2.726,5.421a4.658,4.658,0,0,1-.905,2.6,12.841,12.841,0,0,0-2.337,3.89,4.636,4.636,0,0,0-.248,2.145c-.033.03-.065.061-.1.093-.223.238-.388.527-.571.721a1.8,1.8,0,0,1-.686.333,1.23,1.23,0,0,0-.743.582h0a1.043,1.043,0,0,0-.112.5,3.16,3.16,0,0,0,.048.476,2.111,2.111,0,0,1,.033.836,1.611,1.611,0,0,0-.091,1.276,1.083,1.083,0,0,0,.808.494,8.527,8.527,0,0,1,2.388.5l.064-.121-.063.121a3.384,3.384,0,0,0,2.25.417,1.459,1.459,0,0,0,1.042-.813c.5,0,1.058-.216,1.945-.265.6-.049,1.353.214,2.217.166a1.226,1.226,0,0,0,.1.269l0,0a1.616,1.616,0,0,0,1.621.924,2.945,2.945,0,0,0,1.942-1.124l-.105-.087.105.086a6.974,6.974,0,0,1,2.047-1.294.971.971,0,0,0,.561-.736A1.782,1.782,0,0,0,288.9,176" fill="#202020"/>
        <path d="M289.245,177.174c-.012.2-.159.353-.43.516a6.776,6.776,0,0,0-2.115,1.354,2.684,2.684,0,0,1-1.754,1.027,1.314,1.314,0,0,1-1.356-.776h0a2.205,2.205,0,0,1,.046-1.457,9.713,9.713,0,0,0,.4-1.635h0a8.741,8.741,0,0,1,.168-1.557,1.208,1.208,0,0,1,.551-.847l.039-.021a1.236,1.236,0,0,0,.758,1.186,1.881,1.881,0,0,0,1.545-.656l.18-.007a.95.95,0,0,1,.73.212h0a1.411,1.411,0,0,1,.337.756,2,2,0,0,0,.352.916h0c.423.47.56.788.548.991" fill="#ffcd00"/>
        <path d="M278.948,178.672h0v0a1.146,1.146,0,0,1-.968,1.119,3.157,3.157,0,0,1-2.062-.393h0a8.1,8.1,0,0,0-2.459-.531.82.82,0,0,1-.62-.351,1.4,1.4,0,0,1,.1-1.061v0a2.107,2.107,0,0,0-.023-.963,1.356,1.356,0,0,1,.036-.806v0a.925.925,0,0,1,.594-.453,1.9,1.9,0,0,0,.787-.4l0,0h0c.218-.23.382-.519.574-.724a.75.75,0,0,1,.568-.289h.009a.826.826,0,0,1,.136.012,1.411,1.411,0,0,1,.879.644l.787,1.433h0a9.806,9.806,0,0,0,1.026,1.407,2.3,2.3,0,0,1,.626,1.359" fill="#ffcd00"/>
        <path d="M282.869,165.313a.761.761,0,0,0-.411-.332h0a6.449,6.449,0,0,1-.909-.375,1.92,1.92,0,0,0-1.042-.359,1.253,1.253,0,0,0-.4.068,2,2,0,0,0-.722.5h0a1.753,1.753,0,0,1-.154.116c-.089.065-.222.163-.414.307a.417.417,0,0,0-.167.49,1.179,1.179,0,0,0,.591.616h0a4.292,4.292,0,0,1,.528.43,1.219,1.219,0,0,0,.278.173,1.135,1.135,0,0,0,.385.085,1.489,1.489,0,0,0,.869-.224,3.966,3.966,0,0,1,.668-.375h0a1.405,1.405,0,0,0,.914-.727.478.478,0,0,0-.012-.4" fill="#ffcd00"/>
        <path d="M281.671,166.01a2.873,2.873,0,0,1-1.281.433,1.768,1.768,0,0,1-1.1-.426c-.133-.1-.24-.209-.322-.285-.14-.111-.124-.267-.066-.263.1.013.112.14.173.2.083.078.186.178.311.277a1.615,1.615,0,0,0,1,.392,2.776,2.776,0,0,0,1.2-.412,6.533,6.533,0,0,0,.558-.393c.134-.1.129-.217.24-.2s.029.131-.126.267a3.506,3.506,0,0,1-.6.417" fill="#202020"/>
        <path d="M287.423,174.025c-.052,0-.1,0-.153,0h-.014c.129-.407-.157-.708-.917-1.052-.788-.346-1.417-.312-1.523.392-.006.036-.012.074-.016.112a1.311,1.311,0,0,0-.178.079,1.5,1.5,0,0,0-.685,1.021,8.867,8.867,0,0,0-.175,1.607h0a6.266,6.266,0,0,1-.274,1.165,3.972,3.972,0,0,1-4.606.282c-.1-.164-.222-.325-.343-.485-.078-.1-.158-.2-.237-.3a.968.968,0,0,0,.4-.074.5.5,0,0,0,.274-.283,1.135,1.135,0,0,0-.3-1,5.442,5.442,0,0,0-1.539-1.309h0a2.179,2.179,0,0,1-.989-1.2,2.7,2.7,0,0,1-.013-1.416,8.391,8.391,0,0,1,1.1-2.38c.092-.068.033.127-.35.837-.342.648-.982,2.146-.106,3.315a6.975,6.975,0,0,1,.556-2.474,14.818,14.818,0,0,0,1.583-4.533c.042.03.184.127.248.163h0a4.628,4.628,0,0,1,.507.416,1.256,1.256,0,0,0,.752.292l.1,0a1.672,1.672,0,0,0,.859-.247,4.51,4.51,0,0,1,.638-.362h0a1.715,1.715,0,0,0,.9-.6,20.742,20.742,0,0,0,1.5,3.851,8.963,8.963,0,0,1,.948,2.6,1.546,1.546,0,0,1,.441.056,3.511,3.511,0,0,0-.938-3.415c-.189-.183-.2-.265-.1-.261a4.952,4.952,0,0,1,1.417,2.372,3.043,3.043,0,0,1,.015,1.436c.058.024.117.05.177.079.889.433,1.218.809,1.06,1.323" fill="#fff"/>
        <path d="M282.911,163.9a1.547,1.547,0,0,1-.132.659,1.26,1.26,0,0,1-.185.309c-.024-.012-.05-.023-.076-.034-.092-.039-.172-.071-.245-.1s-.129-.046-.188-.066a.79.79,0,0,0,.157-.187.982.982,0,0,0,.074-.358l0-.017a.986.986,0,0,0-.051-.347.649.649,0,0,0-.16-.271.326.326,0,0,0-.23-.1h-.012a.34.34,0,0,0-.223.089.654.654,0,0,0-.18.258,1.027,1.027,0,0,0-.074.36v.015a1.142,1.142,0,0,0,.015.206,2.59,2.59,0,0,0-.523-.178c-.008-.063-.013-.128-.015-.2v-.018a1.539,1.539,0,0,1,.13-.66,1.171,1.171,0,0,1,.37-.485.818.818,0,0,1,.51-.181h.009a.818.818,0,0,1,.5.172,1.147,1.147,0,0,1,.379.478,1.517,1.517,0,0,1,.143.638l0,.018" fill="#fff"/>
        <path d="M280.123,164.146l-.071.022a1.454,1.454,0,0,0-.338.163.9.9,0,0,0,0-.221V164.1a.971.971,0,0,0-.07-.283.54.54,0,0,0-.143-.209.229.229,0,0,0-.158-.066h-.017a.23.23,0,0,0-.162.095.544.544,0,0,0-.1.23.915.915,0,0,0-.02.3v.012a.947.947,0,0,0,.07.284.542.542,0,0,0,.142.208c.01.009.02.016.029.023-.06.047-.1.08-.151.116l-.114.084a1.04,1.04,0,0,1-.237-.353,1.592,1.592,0,0,1-.132-.563h0a1.6,1.6,0,0,1,.066-.575,1,1,0,0,1,.246-.431.534.534,0,0,1,.36-.173h.031a.534.534,0,0,1,.346.132,1,1,0,0,1,.293.4,1.549,1.549,0,0,1,.131.563h0a1.61,1.61,0,0,1,0,.251" fill="#fff"/>
        <path d="M280.74,164.645c.015.05.095.042.142.066s.073.067.119.068.112-.015.118-.058-.077-.094-.13-.115a.275.275,0,0,0-.223,0c-.015.009-.032.028-.026.044" fill="#202020"/>
        <path d="M280.265,164.645c-.016.05-.1.042-.143.066s-.073.067-.119.068-.112-.015-.117-.058.076-.094.13-.115a.275.275,0,0,1,.223,0c.015.009.031.028.026.044" fill="#202020"/>
      </g>
    </g>
    <g>
      <rect x="269.029" y="39.4" width="110" height="88" fill="#fff"/>
      <rect x="269.029" y="39.4" width="110" height="88" fill="#767676" opacity="0.3"/>
    </g>
    <g>
      <rect x="27.565" y="35" width="7.318" height="259.6" fill="#fff"/>
      <rect x="27.565" y="35" width="7.318" height="259.6" fill="#83b9f9" opacity="0.5"/>
    </g>
    <g>
      <path d="M281.758,55.777A1.3,1.3,0,0,1,280.411,57H259.73a1.3,1.3,0,0,1-1.347-1.222V22.223A1.3,1.3,0,0,1,259.73,21h20.681a1.3,1.3,0,0,1,1.347,1.222Z" fill="url(#linear-gradient-2)"/>
      <path d="M261.825,36.393a2.7,2.7,0,0,1,2.5-2.819H276a2.7,2.7,0,0,1,2.5,2.819h0a2.671,2.671,0,0,1-2.4,2.912l-.092.007H264.37a2.67,2.67,0,0,1-2.5-2.794Z" fill="#1e3465"/>
      <path d="M261.825,28.061a2.67,2.67,0,0,1,2.5-2.794H276a2.67,2.67,0,0,1,2.5,2.794h0A2.7,2.7,0,0,1,276,30.88H264.37a2.7,2.7,0,0,1-2.5-2.819Z" fill="#1e3465"/>
      <circle cx="265.093" cy="28.061" r="1.871" fill="#74cfeb"/>
      <circle cx="265.093" cy="36.393" r="1.871" fill="#74cfeb"/>
    </g>
    <g>
      <path d="M324.029,189.188c-6.247,0-11.311-1.764-11.311-4.094v21.812c0,2.241,4.976,4.059,11.152,4.094h.159c6.247,0,11.312-1.765,11.312-4.094V185.094C335.341,187.371,330.276,189.188,324.029,189.188Z" fill="url(#linear-gradient-3)"/>
      <path d="M335.341,185.094c0,2.277-5.065,4.094-11.312,4.094s-11.311-1.764-11.311-4.094S317.782,181,324.029,181s11.312,1.765,11.312,4.094" fill="#e8e8e8"/>
      <path d="M332.712,184.759c0,1.447-3.9,2.612-8.683,2.612s-8.682-1.165-8.682-2.612,3.9-2.594,8.682-2.594,8.683,1.164,8.683,2.594" fill="#74cfeb"/>
      <path d="M324.029,185.412a20.369,20.369,0,0,0-6.864,1.006,20.169,20.169,0,0,0,6.864.953,19.688,19.688,0,0,0,6.865-1.024A20.867,20.867,0,0,0,324.029,185.412Z" fill="#1b8ab3"/>
      <path d="M330.912,200.235v-6h-1.589v7.289h4.342v-1.289Zm-12.6-2.947a3.216,3.216,0,0,1-.9-.547.777.777,0,0,1-.212-.565.6.6,0,0,1,.265-.529,1.2,1.2,0,0,1,.741-.212,2.859,2.859,0,0,1,1.764.512v-1.518a4.569,4.569,0,0,0-1.764-.282,2.894,2.894,0,0,0-1.924.6,1.9,1.9,0,0,0-.741,1.571c0,.9.565,1.606,1.765,2.135a5.084,5.084,0,0,1,1.094.635.742.742,0,0,1,.265.565.673.673,0,0,1-.283.547,1.425,1.425,0,0,1-.794.194,2.928,2.928,0,0,1-1.923-.741v1.641a3.831,3.831,0,0,0,1.888.424,3.31,3.31,0,0,0,2.082-.583,1.9,1.9,0,0,0,.583-1.606,1.855,1.855,0,0,0-.442-1.235A4.274,4.274,0,0,0,318.312,197.288Zm9.247,2.806a3.868,3.868,0,0,0,0-4.094,3.2,3.2,0,0,0-1.236-1.324,3.526,3.526,0,0,0-1.764-.458,3.724,3.724,0,0,0-1.906.476A3.276,3.276,0,0,0,321.365,196a4.334,4.334,0,0,0-.459,2.012,3.971,3.971,0,0,0,.423,1.764,3.1,3.1,0,0,0,1.218,1.306,3.638,3.638,0,0,0,1.765.53l1.517,1.764h2.136l-2.171-1.941A3.156,3.156,0,0,0,327.559,200.094Zm-1.765-.441a1.662,1.662,0,0,1-1.341.618,1.624,1.624,0,0,1-1.341-.636,3.3,3.3,0,0,1,0-3.529,1.762,1.762,0,0,1,1.376-.653,1.536,1.536,0,0,1,1.324.653,2.86,2.86,0,0,1,.476,1.765A2.573,2.573,0,0,1,325.794,199.653Z" fill="url(#radial-gradient)"/>
    </g>
    <g id="abc3e3f9-d4db-41ad-8b60-378d1c3348f7">
      <g>
        <g>
          <path d="M325.734,228.823H312.966a1.008,1.008,0,0,0-1.008,1.009h0v27.534a1.008,1.008,0,0,0,1.006,1.01h22.129a1.009,1.009,0,0,0,1-1.01V239.145a1.009,1.009,0,0,0-1-1.01h-7.344a1.009,1.009,0,0,1-1-1.008v-7.294a1,1,0,0,0-.99-1.01Z" fill="#fff"/>
          <path d="M325.268,230.113v6.915a2.54,2.54,0,0,0,2.533,2.539h6.967v17.52H313.291V230.113h11.977m.488-1.513H312.8a1.023,1.023,0,0,0-1.024,1.023v27.952A1.024,1.024,0,0,0,312.8,258.6h22.455a1.023,1.023,0,0,0,1.023-1.023v-18.5a1.023,1.023,0,0,0-1.023-1.024H327.8a1.023,1.023,0,0,1-1.022-1.025h0v-7.4a1.023,1.023,0,0,0-1.021-1.025Z" fill="url(#linear-gradient-4)"/>
          <path d="M335.889,238.257l-9.463-9.434v7.687a1.736,1.736,0,0,0,1.723,1.747h7.74Z" fill="#2e76bc"/>
        </g>
        <rect x="315.696" y="242.26" width="16.665" height="2.235" rx="1.005" fill="#699cd3"/>
        <rect x="315.696" y="246.265" width="16.665" height="2.235" rx="1.005" fill="#699cd3"/>
        <rect x="315.696" y="250.27" width="10.503" height="2.235" rx="1.005" fill="#699cd3"/>
      </g>
    </g>
    <g id="abc3e3f9-d4db-41ad-8b60-378d1c3348f7-2" data-name="abc3e3f9-d4db-41ad-8b60-378d1c3348f7">
      <g>
        <g>
          <path d="M128.579,55.534H115.811a1.008,1.008,0,0,0-1.008,1.008V84.077a1.008,1.008,0,0,0,1.006,1.01h22.129a1.008,1.008,0,0,0,1-1.01V65.856a1.008,1.008,0,0,0-1-1.01h-7.344a1.009,1.009,0,0,1-1-1.009V56.544a1,1,0,0,0-.989-1.01Z" fill="#fff"/>
          <path d="M128.113,56.824v6.915a2.539,2.539,0,0,0,2.533,2.538h6.967V83.8H116.136V56.824h11.977m.488-1.513H115.648a1.024,1.024,0,0,0-1.024,1.023V84.286a1.024,1.024,0,0,0,1.022,1.025H138.1a1.024,1.024,0,0,0,1.023-1.024h0v-18.5a1.023,1.023,0,0,0-1.023-1.023h-7.455a1.024,1.024,0,0,1-1.022-1.025h0v-7.4a1.022,1.022,0,0,0-1.021-1.025Z" fill="url(#linear-gradient-5)"/>
          <path d="M138.734,64.967l-9.463-9.433v7.687a1.734,1.734,0,0,0,1.723,1.746h7.74Z" fill="#2e76bc"/>
        </g>
        <rect x="118.541" y="68.971" width="16.665" height="2.235" rx="1.005" fill="#699cd3"/>
        <rect x="118.541" y="72.976" width="16.665" height="2.235" rx="1.005" fill="#699cd3"/>
        <rect x="118.541" y="76.981" width="10.503" height="2.235" rx="1.005" fill="#699cd3"/>
      </g>
    </g>
    <g id="abc3e3f9-d4db-41ad-8b60-378d1c3348f7-3" data-name="abc3e3f9-d4db-41ad-8b60-378d1c3348f7">
      <g>
        <g>
          <path d="M164.78,55.534H152.011A1.008,1.008,0,0,0,151,56.542V84.077a1.008,1.008,0,0,0,1.007,1.01h22.128a1.008,1.008,0,0,0,1-1.01V65.856a1.008,1.008,0,0,0-1-1.01H166.8a1.009,1.009,0,0,1-1-1.009V56.544a1,1,0,0,0-.99-1.01Z" fill="#fff"/>
          <path d="M164.313,56.824v6.915a2.54,2.54,0,0,0,2.533,2.538h6.967V83.8H152.336V56.824h11.977m.488-1.513H151.848a1.023,1.023,0,0,0-1.023,1.023V84.286a1.023,1.023,0,0,0,1.021,1.025H174.3a1.025,1.025,0,0,0,1.024-1.024h0v-18.5a1.024,1.024,0,0,0-1.024-1.023h-7.455a1.023,1.023,0,0,1-1.021-1.025h0v-7.4a1.023,1.023,0,0,0-1.022-1.025Z" fill="url(#linear-gradient-6)"/>
          <path d="M174.935,64.967l-9.464-9.433v7.687a1.735,1.735,0,0,0,1.724,1.746h7.74Z" fill="#2e76bc"/>
        </g>
        <rect x="154.741" y="68.971" width="16.665" height="2.235" rx="1.005" fill="#699cd3"/>
        <rect x="154.741" y="72.976" width="16.665" height="2.235" rx="1.005" fill="#699cd3"/>
        <rect x="154.741" y="76.981" width="10.503" height="2.235" rx="1.005" fill="#699cd3"/>
      </g>
    </g>
    <g>
      <path d="M325.794,71.229H312.965a1.006,1.006,0,0,0-1.006,1.006v27.53a1.006,1.006,0,0,0,1.006,1.006h22.129a1.006,1.006,0,0,0,1.006-1.006V81.553a1.024,1.024,0,0,0-1.006-1.024h-7.341a.988.988,0,0,1-1.006-.97V72.235A1.007,1.007,0,0,0,325.794,71.229Z" fill="#fff"/>
      <path d="M325.265,72.518v6.917a2.54,2.54,0,0,0,2.541,2.524h6.97V99.482H313.282V72.518h11.983M325.794,71H312.806a1.024,1.024,0,0,0-1.024,1.024V99.976A1.024,1.024,0,0,0,312.806,101h22.447a1.023,1.023,0,0,0,1.023-1.024V81.482a1.023,1.023,0,0,0-1.023-1.023h-7.447a1.024,1.024,0,0,1-1.024-1.024V72.024A1.023,1.023,0,0,0,325.794,71Z" fill="url(#linear-gradient-7)"/>
      <path d="M335.888,80.706l-9.459-9.477v7.712a1.765,1.765,0,0,0,1.765,1.765Z" fill="#2e76bc"/>
      <path id="a6d81f9b-1c9b-4163-b425-427db8835c56" d="M326.518,89.847a3.9,3.9,0,0,1-5.171,0l-.318,6.406a.512.512,0,0,0,.883.388l1.976-2.029,2.012,1.976a.512.512,0,0,0,.865-.388Z" fill="#b32025"/>
      <ellipse id="f228121b-524c-412f-81f5-af7174f3554f" cx="323.994" cy="86.547" rx="4.606" ry="4.624" fill="#e52526"/>
      <ellipse id="fd9247f0-1f16-45ab-bd99-d7272783472c" cx="323.994" cy="86.547" rx="3.494" ry="3.512" fill="#fed402"/>
    </g>
    <g>
      <g>
        <rect x="15.508" y="21" width="43.282" height="28.863" rx="1.447" fill="url(#linear-gradient-8)"/>
        <path d="M45.844,58.6c-4.29-.672-4.445-3.773-4.445-8.734H32.924c0,4.961-.155,8.062-4.444,8.734A2.584,2.584,0,0,0,26.335,61H47.989A2.585,2.585,0,0,0,45.844,58.6Z" fill="url(#linear-gradient-9)"/>
      </g>
      <g>
        <path d="M28.489,61a2.417,2.417,0,0,0,2.416-2.417h0a.792.792,0,0,0,0-.283c-.966-7.617-5.283-13.817-13.616-13.817S4.522,49.733,3.672,58.317A2.433,2.433,0,0,0,5.83,61l.025,0Z" fill="url(#linear-gradient-10)"/>
        <path d="M17.289,46.283a7.652,7.652,0,0,1-4.134-1.216l4.134,10.7,4.066-10.634A7.541,7.541,0,0,1,17.289,46.283Z" fill="#fff" opacity="0.8" style="isolation: isolate"/>
        <circle cx="17.305" cy="38.633" r="7.633" fill="url(#linear-gradient-11)"/>
      </g>
    </g>
    <g>
      <g id="abc3e3f9-d4db-41ad-8b60-378d1c3348f7-4" data-name="abc3e3f9-d4db-41ad-8b60-378d1c3348f7">
        <g>
          <path d="M128.579,96.456H115.811a1.008,1.008,0,0,0-1.008,1.008V125a1.008,1.008,0,0,0,1.006,1.01h22.129a1.008,1.008,0,0,0,1-1.01V106.778a1.008,1.008,0,0,0-1-1.01h-7.344a1.009,1.009,0,0,1-1-1.009V97.466a1,1,0,0,0-.989-1.01Z" fill="#fff"/>
          <path d="M128.113,97.746v6.915a2.539,2.539,0,0,0,2.533,2.538h6.967v17.52H116.136V97.746h11.977m.488-1.513H115.648a1.024,1.024,0,0,0-1.024,1.023v27.952a1.024,1.024,0,0,0,1.022,1.025H138.1a1.024,1.024,0,0,0,1.023-1.024h0v-18.5a1.023,1.023,0,0,0-1.023-1.023h-7.455a1.024,1.024,0,0,1-1.022-1.025h0v-7.4a1.022,1.022,0,0,0-1.021-1.025Z" fill="url(#linear-gradient-12)"/>
          <path d="M138.734,105.889l-9.463-9.433v7.687a1.734,1.734,0,0,0,1.723,1.746h7.74Z" fill="#2e76bc"/>
        </g>
      </g>
      <path d="M132.711,118.33v3.015h-3.25V119.72h-1.625V118.1h-1.625v-1.314a4.34,4.34,0,0,1-2.031.5,4.422,4.422,0,0,1-2.253-.61,4.488,4.488,0,0,1-.9-.7,4.6,4.6,0,0,1-.7-.908A4.245,4.245,0,0,1,119.87,114a4.743,4.743,0,0,1-.159-1.187,4.429,4.429,0,0,1,.61-2.254,4.482,4.482,0,0,1,.7-.9,4.6,4.6,0,0,1,.908-.705,4.227,4.227,0,0,1,1.066-.45,4.7,4.7,0,0,1,1.187-.159,4.4,4.4,0,0,1,1.187.159,4.466,4.466,0,0,1,1.067.45,4.523,4.523,0,0,1,.9.7,4.581,4.581,0,0,1,.7.907,4.215,4.215,0,0,1,.451,1.067,4.691,4.691,0,0,1,.159,1.187,4.035,4.035,0,0,1-.051.641,4.358,4.358,0,0,1-.146.622Zm-.812.343-4.38-4.38a5.928,5.928,0,0,0,.228-.724,3.116,3.116,0,0,0,.089-.755,3.576,3.576,0,0,0-.285-1.422,3.635,3.635,0,0,0-.787-1.162,3.769,3.769,0,0,0-1.162-.78,3.623,3.623,0,0,0-4.005.78,3.771,3.771,0,0,0-.781,1.162,3.62,3.62,0,0,0,.781,4.005,3.755,3.755,0,0,0,1.161.781,3.613,3.613,0,0,0,3.7-.52h.565v1.625h1.625v1.625h1.625v1.625H131.9Zm-8.938-7.89a.8.8,0,0,1,.318.063.812.812,0,0,1,.254.171.871.871,0,0,1,.177.261.683.683,0,0,1,.064.317.774.774,0,0,1-.064.317.8.8,0,0,1-.171.254.881.881,0,0,1-.26.178.69.69,0,0,1-.318.064.791.791,0,0,1-.317-.064.812.812,0,0,1-.254-.171.892.892,0,0,1-.178-.261.7.7,0,0,1-.063-.317.79.79,0,0,1,.063-.317.82.82,0,0,1,.172-.254.887.887,0,0,1,.26-.178A.672.672,0,0,1,122.961,110.783Z" fill="#1f56a3"/>
    </g>
    <line x1="37.602" y1="74.093" x2="109.212" y2="74.093" fill="none" stroke="#3c3c41" stroke-miterlimit="10"/>
    <g>
      <line x1="181.023" y1="74.093" x2="258.897" y2="74.093" fill="none" stroke="#3c3c41" stroke-miterlimit="10"/>
      <polygon points="257.803 77.833 264.28 74.093 257.803 70.353 257.803 77.833" fill="#3c3c41"/>
    </g>
    <g>
      <line x1="42.984" y1="108.345" x2="109.212" y2="108.345" fill="none" stroke="#3c3c41" stroke-miterlimit="10"/>
      <polygon points="44.079 112.085 37.602 108.345 44.079 104.605 44.079 112.085" fill="#3c3c41"/>
    </g>
    <line x1="144.825" y1="108.345" x2="264.28" y2="108.345" fill="none" stroke="#3c3c41" stroke-miterlimit="10"/>
    <g>
      <g id="abc3e3f9-d4db-41ad-8b60-378d1c3348f7-5" data-name="abc3e3f9-d4db-41ad-8b60-378d1c3348f7">
        <g>
          <path d="M128.579,196.175H115.811a1.008,1.008,0,0,0-1.008,1.008v27.535a1.008,1.008,0,0,0,1.006,1.01h22.129a1.008,1.008,0,0,0,1-1.01V206.5a1.008,1.008,0,0,0-1-1.01h-7.344a1.009,1.009,0,0,1-1-1.009v-7.293a1,1,0,0,0-.989-1.01Z" fill="#fff"/>
          <path d="M128.113,197.465v6.915a2.538,2.538,0,0,0,2.533,2.538h6.967v17.52H116.136V197.465h11.977m.488-1.513H115.648a1.024,1.024,0,0,0-1.024,1.023v27.952a1.024,1.024,0,0,0,1.022,1.025H138.1a1.023,1.023,0,0,0,1.023-1.024h0v-18.5a1.023,1.023,0,0,0-1.023-1.023h-7.455a1.024,1.024,0,0,1-1.022-1.025h0v-7.4a1.023,1.023,0,0,0-1.021-1.025Z" fill="url(#linear-gradient-13)"/>
          <path d="M138.734,205.608l-9.463-9.433v7.687a1.734,1.734,0,0,0,1.723,1.746h7.74Z" fill="#2e76bc"/>
        </g>
      </g>
      <path d="M132.711,218.049v3.015h-3.25v-1.625h-1.625v-1.625h-1.625V216.5a4.34,4.34,0,0,1-2.031.5,4.422,4.422,0,0,1-2.253-.61,4.488,4.488,0,0,1-.9-.7,4.6,4.6,0,0,1-.7-.908,4.229,4.229,0,0,1-.451-1.066,4.743,4.743,0,0,1-.159-1.187,4.422,4.422,0,0,1,.61-2.253,4.46,4.46,0,0,1,.7-.9,4.559,4.559,0,0,1,.908-.7,4.193,4.193,0,0,1,1.066-.451,4.7,4.7,0,0,1,1.187-.159,4.429,4.429,0,0,1,2.254.61,4.482,4.482,0,0,1,.9.7,4.559,4.559,0,0,1,.7.908,4.193,4.193,0,0,1,.451,1.066,4.7,4.7,0,0,1,.159,1.187,4.035,4.035,0,0,1-.051.641,4.358,4.358,0,0,1-.146.622Zm-.812.343-4.38-4.38a5.873,5.873,0,0,0,.228-.724,3.116,3.116,0,0,0,.089-.755,3.576,3.576,0,0,0-.285-1.422,3.646,3.646,0,0,0-.787-1.162,3.769,3.769,0,0,0-1.162-.78,3.623,3.623,0,0,0-4.005.78,3.771,3.771,0,0,0-.781,1.162,3.62,3.62,0,0,0,.781,4.005,3.738,3.738,0,0,0,1.161.781,3.613,3.613,0,0,0,3.7-.52h.565V217h1.625v1.625h1.625v1.625H131.9Zm-8.938-7.89a.8.8,0,0,1,.318.063.814.814,0,0,1,.254.172.866.866,0,0,1,.177.26.683.683,0,0,1,.064.317.782.782,0,0,1-.064.318.8.8,0,0,1-.171.253.881.881,0,0,1-.26.178.69.69,0,0,1-.318.064.774.774,0,0,1-.317-.064.812.812,0,0,1-.254-.171.9.9,0,0,1-.178-.26.7.7,0,0,1-.063-.318.79.79,0,0,1,.063-.317.82.82,0,0,1,.172-.254.887.887,0,0,1,.26-.178A.685.685,0,0,1,122.961,210.5Z" fill="#1f56a3"/>
    </g>
    <g>
      <line x1="37.602" y1="208.064" x2="109.212" y2="208.064" fill="none" stroke="#fed402" stroke-miterlimit="10" stroke-width="6"/>
      <line x1="37.602" y1="208.064" x2="109.212" y2="208.064" fill="none" stroke="#3c3c41" stroke-miterlimit="10"/>
    </g>
    <g>
      <g>
        <line x1="144.825" y1="208.877" x2="255.634" y2="208.877" fill="none" stroke="#fed402" stroke-miterlimit="10" stroke-width="6"/>
        <line x1="144.825" y1="208.877" x2="255.634" y2="208.877" fill="none" stroke="#3c3c41" stroke-miterlimit="10"/>
      </g>
      <polygon points="252.975 215.404 264.28 208.877 252.975 202.349 252.975 215.404" fill="#fed402"/>
      <polygon points="252.975 213.377 260.768 208.877 252.975 204.377 252.975 213.377" fill="#3c3c41"/>
    </g>
  </g>
  <g id="Text">
    <g>
      <path d="M297.973,158.2h-5.838v-9.8h2.208v8.012h3.63Z" fill="#2f2f2f"/>
      <path d="M300.117,150.092a1.265,1.265,0,0,1-.9-.324,1.048,1.048,0,0,1-.348-.8,1.009,1.009,0,0,1,.348-.793,1.464,1.464,0,0,1,1.794,0,1.011,1.011,0,0,1,.346.793,1.041,1.041,0,0,1-.346.807A1.282,1.282,0,0,1,300.117,150.092Zm1.066,8.108h-2.16v-7h2.16Z" fill="#2f2f2f"/>
      <path d="M309.726,158.2h-2.153v-3.89q0-1.626-1.162-1.627a1.153,1.153,0,0,0-.923.431,1.639,1.639,0,0,0-.362,1.094V158.2h-2.161v-7h2.161v1.107h.027a2.476,2.476,0,0,1,2.249-1.278q2.324,0,2.324,2.885Z" fill="#2f2f2f"/>
      <path d="M318.08,158.2h-2.154v-1.067h-.034a2.443,2.443,0,0,1-2.139,1.238q-2.435,0-2.434-2.947V151.2h2.153v4.033q0,1.483,1.176,1.483a1.165,1.165,0,0,0,.93-.406,1.643,1.643,0,0,0,.348-1.1V151.2h2.154Z" fill="#2f2f2f"/>
      <path d="M326.666,151.2l-2.311,3.39,2.3,3.61h-2.488l-1.012-1.887a6.73,6.73,0,0,1-.294-.636h-.027a4.391,4.391,0,0,1-.281.615l-1.018,1.908H319.05l2.366-3.487-2.222-3.513h2.5l1,1.962a4.2,4.2,0,0,1,.28.656H323a4.42,4.42,0,0,1,.294-.67l1.018-1.948Z" fill="#2f2f2f"/>
      <path d="M331.041,158.015v-1.75a4.625,4.625,0,0,0,1.062.479,3.528,3.528,0,0,0,1,.157,2.138,2.138,0,0,0,.9-.157.508.508,0,0,0,.332-.479.445.445,0,0,0-.15-.342,1.4,1.4,0,0,0-.387-.239,4.346,4.346,0,0,0-.515-.184q-.282-.083-.54-.185a5.251,5.251,0,0,1-.736-.338,2.125,2.125,0,0,1-.533-.421,1.661,1.661,0,0,1-.328-.554,2.213,2.213,0,0,1-.112-.745,1.922,1.922,0,0,1,.255-1.011,2.1,2.1,0,0,1,.684-.694,3.144,3.144,0,0,1,.978-.4,5.119,5.119,0,0,1,1.145-.126,6.328,6.328,0,0,1,.943.072,6.978,6.978,0,0,1,.944.208v1.668a3.415,3.415,0,0,0-.879-.359,3.734,3.734,0,0,0-.919-.119,2.044,2.044,0,0,0-.4.037,1.3,1.3,0,0,0-.331.11.6.6,0,0,0-.226.184.423.423,0,0,0-.082.256.477.477,0,0,0,.123.329,1.056,1.056,0,0,0,.321.235,3.163,3.163,0,0,0,.441.178c.162.052.322.106.482.161a6.127,6.127,0,0,1,.779.328,2.473,2.473,0,0,1,.6.417,1.635,1.635,0,0,1,.383.56,2.235,2.235,0,0,1-.137,1.829,2.162,2.162,0,0,1-.718.718,3.242,3.242,0,0,1-1.032.4,5.672,5.672,0,0,1-1.213.127A6.251,6.251,0,0,1,331.041,158.015Z" fill="#2f2f2f"/>
      <path d="M343.99,155.315h-4.567q.111,1.524,1.921,1.524a3.746,3.746,0,0,0,2.031-.547v1.559a5.338,5.338,0,0,1-2.523.52,3.258,3.258,0,0,1-3.568-3.562,3.751,3.751,0,0,1,1.012-2.762,3.368,3.368,0,0,1,2.488-1.018,3.061,3.061,0,0,1,2.369.909,3.5,3.5,0,0,1,.837,2.468Zm-2-1.326q0-1.5-1.217-1.5a1.158,1.158,0,0,0-.9.431,1.95,1.95,0,0,0-.462,1.073Z" fill="#2f2f2f"/>
      <path d="M349.921,153.148a1.875,1.875,0,0,0-.909-.212,1.308,1.308,0,0,0-1.1.516,2.249,2.249,0,0,0-.4,1.405V158.2h-2.16v-7h2.16v1.3h.028a1.868,1.868,0,0,1,1.845-1.422,1.381,1.381,0,0,1,.533.082Z" fill="#2f2f2f"/>
      <path d="M358.02,151.2l-2.6,7h-2.461l-2.482-7h2.311L354,155.513a6.456,6.456,0,0,1,.239,1.244h.027a6.967,6.967,0,0,1,.253-1.2l1.244-4.354Z" fill="#2f2f2f"/>
      <path d="M365.007,155.315h-4.566q.11,1.524,1.921,1.524a3.745,3.745,0,0,0,2.03-.547v1.559a5.331,5.331,0,0,1-2.522.52,3.259,3.259,0,0,1-3.569-3.562,3.751,3.751,0,0,1,1.012-2.762,3.371,3.371,0,0,1,2.488-1.018,3.062,3.062,0,0,1,2.37.909,3.507,3.507,0,0,1,.836,2.468Zm-2-1.326q0-1.5-1.217-1.5a1.16,1.16,0,0,0-.9.431,1.957,1.957,0,0,0-.462,1.073Z" fill="#2f2f2f"/>
      <path d="M370.939,153.148a1.878,1.878,0,0,0-.909-.212,1.31,1.31,0,0,0-1.1.516,2.255,2.255,0,0,0-.4,1.405V158.2h-2.16v-7h2.16v1.3h.027a1.869,1.869,0,0,1,1.846-1.422,1.388,1.388,0,0,1,.533.082Z" fill="#2f2f2f"/>
    </g>
    <g>
      <path d="M292.135,16.1V6.3h3.473q5.221,0,5.223,4.778a4.831,4.831,0,0,1-1.426,3.657,5.253,5.253,0,0,1-3.8,1.368ZM294.343,8.1v6.214h1.094a2.955,2.955,0,0,0,2.252-.862,3.267,3.267,0,0,0,.817-2.345,2.965,2.965,0,0,0-.81-2.2,3.087,3.087,0,0,0-2.273-.8Z" fill="#2f2f2f"/>
      <path d="M305.575,16.272a3.768,3.768,0,0,1-2.752-.98,3.56,3.56,0,0,1-1-2.663,3.553,3.553,0,0,1,1.039-2.717,3.925,3.925,0,0,1,2.81-.981,3.717,3.717,0,0,1,2.734.981,3.487,3.487,0,0,1,.991,2.594,3.7,3.7,0,0,1-1.022,2.755A3.806,3.806,0,0,1,305.575,16.272Zm.055-5.687a1.44,1.44,0,0,0-1.19.526,2.32,2.32,0,0,0-.424,1.491q0,2.016,1.627,2.016,1.551,0,1.552-2.071Q307.2,10.585,305.63,10.585Z" fill="#2f2f2f"/>
      <path d="M321.891,16.1h-2.153V12.109q0-1.524-1.121-1.524a1.029,1.029,0,0,0-.868.458,1.884,1.884,0,0,0-.335,1.142V16.1h-2.16V12.068q0-1.482-1.1-1.483a1.056,1.056,0,0,0-.885.437,1.92,1.92,0,0,0-.332,1.19V16.1h-2.16v-7h2.16V10.2h.027a2.657,2.657,0,0,1,2.263-1.264,2.015,2.015,0,0,1,2.03,1.305,2.592,2.592,0,0,1,2.352-1.305q2.283,0,2.283,2.816Z" fill="#2f2f2f"/>
      <path d="M329.457,16.1h-2.044V15.1h-.028a2.28,2.28,0,0,1-2.085,1.175,2.181,2.181,0,0,1-1.6-.577,2.069,2.069,0,0,1-.585-1.542q0-2.037,2.413-2.351l1.9-.253q0-1.149-1.244-1.149a4.246,4.246,0,0,0-2.379.746V9.519a5.365,5.365,0,0,1,1.235-.411,6.506,6.506,0,0,1,1.425-.177q2.994,0,2.994,2.987Zm-2.031-2.844v-.472l-1.271.164q-1.051.138-1.053.95a.785.785,0,0,0,.257.605.981.981,0,0,0,.693.236,1.279,1.279,0,0,0,.992-.42A1.519,1.519,0,0,0,327.426,13.258Z" fill="#2f2f2f"/>
      <path d="M332.227,7.994a1.259,1.259,0,0,1-.895-.325,1.042,1.042,0,0,1-.349-.8,1.007,1.007,0,0,1,.349-.793,1.462,1.462,0,0,1,1.8,0,1.016,1.016,0,0,1,.344.793,1.046,1.046,0,0,1-.344.807A1.29,1.29,0,0,1,332.227,7.994Zm1.067,8.108h-2.161v-7h2.161Z" fill="#2f2f2f"/>
      <path d="M341.84,16.1h-2.153v-3.89q0-1.627-1.162-1.627a1.156,1.156,0,0,0-.923.431,1.641,1.641,0,0,0-.362,1.093V16.1h-2.16v-7h2.16v1.107h.027a2.477,2.477,0,0,1,2.249-1.278q2.325,0,2.324,2.884Z" fill="#2f2f2f"/>
      <path d="M297.228,32.648a4.267,4.267,0,0,1-2.112.424,3.569,3.569,0,0,1-2.611-.977,3.372,3.372,0,0,1-1-2.523,3.721,3.721,0,0,1,1.07-2.813,3.955,3.955,0,0,1,2.861-1.029,3.668,3.668,0,0,1,1.791.329v1.832a2.458,2.458,0,0,0-1.511-.506,1.99,1.99,0,0,0-1.473.543,2.027,2.027,0,0,0-.543,1.5,2,2,0,0,0,.519,1.459,1.911,1.911,0,0,0,1.429.53,2.847,2.847,0,0,0,1.579-.506Z" fill="#2f2f2f"/>
      <path d="M301.958,33.072a3.762,3.762,0,0,1-2.751-.981,3.553,3.553,0,0,1-1-2.662,3.556,3.556,0,0,1,1.039-2.718,3.932,3.932,0,0,1,2.809-.981,3.722,3.722,0,0,1,2.735.981,3.487,3.487,0,0,1,.991,2.6,3.7,3.7,0,0,1-1.022,2.755A3.8,3.8,0,0,1,301.958,33.072Zm.054-5.687a1.442,1.442,0,0,0-1.189.526,2.325,2.325,0,0,0-.424,1.49q0,2.017,1.627,2.017,1.552,0,1.552-2.071Q303.578,27.385,302.012,27.385Z" fill="#2f2f2f"/>
      <path d="M313.921,32.9h-2.154V29.012q0-1.628-1.162-1.627a1.152,1.152,0,0,0-.923.43,1.64,1.64,0,0,0-.362,1.094V32.9h-2.16v-7h2.16v1.108h.027A2.477,2.477,0,0,1,311.6,25.73q2.323,0,2.325,2.885Z" fill="#2f2f2f"/>
      <path d="M319.77,32.819a3.187,3.187,0,0,1-1.442.253q-2.284,0-2.283-2.372V27.494H314.91V25.9h1.135v-1.51l2.153-.616V25.9h1.572v1.593H318.2v2.83q0,1.093.868,1.094a1.466,1.466,0,0,0,.7-.2Z" fill="#2f2f2f"/>
      <path d="M325.686,27.85a1.867,1.867,0,0,0-.909-.212,1.31,1.31,0,0,0-1.1.516,2.253,2.253,0,0,0-.4,1.405V32.9h-2.16v-7h2.16v1.3h.027a1.869,1.869,0,0,1,1.846-1.422,1.408,1.408,0,0,1,.533.082Z" fill="#2f2f2f"/>
      <path d="M330.112,33.072a3.762,3.762,0,0,1-2.751-.981,3.553,3.553,0,0,1-1-2.662,3.56,3.56,0,0,1,1.039-2.718,3.932,3.932,0,0,1,2.81-.981,3.719,3.719,0,0,1,2.734.981,3.487,3.487,0,0,1,.991,2.6,3.707,3.707,0,0,1-1.021,2.755A3.809,3.809,0,0,1,330.112,33.072Zm.055-5.687a1.443,1.443,0,0,0-1.19.526,2.325,2.325,0,0,0-.424,1.49q0,2.017,1.627,2.017,1.552,0,1.552-2.071Q331.732,27.385,330.167,27.385Z" fill="#2f2f2f"/>
      <path d="M337.489,32.9h-2.16V22.538h2.16Z" fill="#2f2f2f"/>
      <path d="M341.414,32.9h-2.16V22.538h2.16Z" fill="#2f2f2f"/>
      <path d="M349.529,30.017h-4.566q.109,1.524,1.92,1.524a3.746,3.746,0,0,0,2.031-.547v1.559a5.339,5.339,0,0,1-2.523.519,3.257,3.257,0,0,1-3.568-3.561,3.749,3.749,0,0,1,1.012-2.762,3.369,3.369,0,0,1,2.488-1.019,3.062,3.062,0,0,1,2.369.91,3.5,3.5,0,0,1,.837,2.467Zm-2-1.327q0-1.5-1.217-1.5a1.16,1.16,0,0,0-.9.43,1.957,1.957,0,0,0-.462,1.073Z" fill="#2f2f2f"/>
      <path d="M355.461,27.85a1.871,1.871,0,0,0-.91-.212,1.308,1.308,0,0,0-1.1.516,2.247,2.247,0,0,0-.4,1.405V32.9h-2.16v-7h2.16v1.3h.028a1.868,1.868,0,0,1,1.845-1.422,1.41,1.41,0,0,1,.534.082Z" fill="#2f2f2f"/>
    </g>
    <g>
      <path d="M295.361,281.4H294.24v-4.019a3.026,3.026,0,0,0-.359-1.682,1.361,1.361,0,0,0-1.207-.519,1.491,1.491,0,0,0-1.219.656,2.508,2.508,0,0,0-.5,1.572V281.4h-1.121v-4.156q0-2.064-1.593-2.064a1.477,1.477,0,0,0-1.217.618,2.566,2.566,0,0,0-.478,1.61V281.4h-1.122v-7h1.122v1.108h.027a2.379,2.379,0,0,1,2.174-1.272,2.033,2.033,0,0,1,1.251.4,2.012,2.012,0,0,1,.731,1.05,2.5,2.5,0,0,1,2.324-1.45q2.311,0,2.311,2.851Z" fill="#2f2f2f"/>
      <path d="M297.013,281.147v-1.2a3.314,3.314,0,0,0,2.017.677q1.476,0,1.476-.984a.856.856,0,0,0-.126-.475,1.276,1.276,0,0,0-.342-.346,2.665,2.665,0,0,0-.506-.27c-.194-.079-.4-.163-.625-.249a7.942,7.942,0,0,1-.818-.373,2.442,2.442,0,0,1-.587-.424,1.562,1.562,0,0,1-.356-.536,1.915,1.915,0,0,1-.119-.7,1.669,1.669,0,0,1,.226-.872,1.992,1.992,0,0,1,.6-.636,2.822,2.822,0,0,1,.858-.386,3.831,3.831,0,0,1,1-.13,4.016,4.016,0,0,1,1.627.315v1.135a3.169,3.169,0,0,0-1.778-.506,2.1,2.1,0,0,0-.567.071,1.41,1.41,0,0,0-.435.2.95.95,0,0,0-.28.311.832.832,0,0,0-.1.4.973.973,0,0,0,.1.458,1.008,1.008,0,0,0,.291.328,2.2,2.2,0,0,0,.465.26c.182.078.39.162.622.253a8.594,8.594,0,0,1,.834.366,2.878,2.878,0,0,1,.629.423,1.661,1.661,0,0,1,.4.544,1.743,1.743,0,0,1,.141.731,1.715,1.715,0,0,1-.23.9,1.949,1.949,0,0,1-.611.635,2.808,2.808,0,0,1-.882.376,4.356,4.356,0,0,1-1.046.123A3.972,3.972,0,0,1,297.013,281.147Z" fill="#2f2f2f"/>
      <path d="M302.939,281.147v-1.2a3.314,3.314,0,0,0,2.017.677q1.476,0,1.476-.984a.856.856,0,0,0-.126-.475,1.276,1.276,0,0,0-.342-.346,2.655,2.655,0,0,0-.5-.27c-.195-.079-.4-.163-.626-.249a7.918,7.918,0,0,1-.817-.373,2.448,2.448,0,0,1-.588-.424,1.559,1.559,0,0,1-.355-.536,1.894,1.894,0,0,1-.12-.7,1.678,1.678,0,0,1,.225-.872,2.017,2.017,0,0,1,.6-.636,2.844,2.844,0,0,1,.858-.386,3.834,3.834,0,0,1,.994-.13,4.006,4.006,0,0,1,1.627.315v1.135a3.161,3.161,0,0,0-1.777-.506,2.115,2.115,0,0,0-.567.071,1.4,1.4,0,0,0-.434.2.928.928,0,0,0-.28.311.811.811,0,0,0-.1.4.949.949,0,0,0,.1.458,1,1,0,0,0,.29.328,2.25,2.25,0,0,0,.465.26q.273.117.622.253a8.594,8.594,0,0,1,.834.366,2.854,2.854,0,0,1,.629.423,1.678,1.678,0,0,1,.4.544,1.759,1.759,0,0,1,.14.731,1.724,1.724,0,0,1-.229.9,1.952,1.952,0,0,1-.612.635,2.789,2.789,0,0,1-.882.376,4.35,4.35,0,0,1-1.046.123A3.972,3.972,0,0,1,302.939,281.147Z" fill="#2f2f2f"/>
      <path d="M315.257,284.62h-1.121V280.2h-.027a2.508,2.508,0,0,1-2.393,1.367,2.637,2.637,0,0,1-2.116-.939,3.84,3.84,0,0,1-.8-2.561,4.187,4.187,0,0,1,.875-2.785,2.912,2.912,0,0,1,2.352-1.043,2.209,2.209,0,0,1,2.078,1.135h.027V274.4h1.121Zm-1.121-6.371V277.23a2.038,2.038,0,0,0-.564-1.456,1.89,1.89,0,0,0-1.432-.594,1.922,1.922,0,0,0-1.6.748,3.335,3.335,0,0,0-.588,2.109,2.889,2.889,0,0,0,.567,1.9,1.809,1.809,0,0,0,1.463.687,1.973,1.973,0,0,0,1.568-.673A2.5,2.5,0,0,0,314.136,278.249Z" fill="#2f2f2f"/>
      <path d="M318.484,281.4h-1.121V271.037h1.121Z" fill="#2f2f2f"/>
      <path d="M321.091,281.551a.723.723,0,0,1-.536-.226.741.741,0,0,1-.222-.54.755.755,0,0,1,.222-.543.719.719,0,0,1,.536-.229.736.736,0,0,1,.547.229.747.747,0,0,1,.226.543.734.734,0,0,1-.226.54A.741.741,0,0,1,321.091,281.551Z" fill="#2f2f2f"/>
      <path d="M329.5,281.4h-1.573l-3.089-3.363h-.028V281.4h-1.121V271.037h1.121v6.569h.028l2.939-3.206h1.47L326,277.777Z" fill="#2f2f2f"/>
      <path d="M335.921,278.181h-4.943a2.615,2.615,0,0,0,.629,1.8,2.165,2.165,0,0,0,1.654.636,3.444,3.444,0,0,0,2.174-.779V280.9a4.067,4.067,0,0,1-2.44.669,2.954,2.954,0,0,1-2.331-.953,3.9,3.9,0,0,1-.848-2.683,3.83,3.83,0,0,1,.926-2.663,2.972,2.972,0,0,1,2.3-1.029,2.634,2.634,0,0,1,2.126.889,3.706,3.706,0,0,1,.752,2.468Zm-1.149-.951a2.28,2.28,0,0,0-.469-1.51,1.593,1.593,0,0,0-1.281-.54,1.813,1.813,0,0,0-1.347.567,2.572,2.572,0,0,0-.683,1.483Z" fill="#2f2f2f"/>
      <path d="M343.12,274.4l-3.22,8.121q-.861,2.175-2.42,2.174a2.529,2.529,0,0,1-.731-.089v-1a2.073,2.073,0,0,0,.663.123,1.376,1.376,0,0,0,1.271-1.012l.561-1.326-2.735-6.987h1.245l1.893,5.387c.023.068.07.246.144.533h.041c.022-.109.068-.282.136-.519l1.99-5.4Z" fill="#2f2f2f"/>
      <path d="M348.038,281.332a2.164,2.164,0,0,1-1.046.219q-1.841,0-1.839-2.051v-4.143h-1.2V274.4h1.2v-1.709l1.121-.362V274.4h1.764v.957h-1.764V279.3a1.634,1.634,0,0,0,.239,1,.956.956,0,0,0,.793.3,1.181,1.181,0,0,0,.732-.232Z" fill="#2f2f2f"/>
      <path d="M354.655,281.4h-1.121v-1.093h-.028a2.348,2.348,0,0,1-2.153,1.257,2.305,2.305,0,0,1-1.638-.553,1.922,1.922,0,0,1-.59-1.47q0-1.962,2.31-2.283l2.1-.294q0-1.785-1.443-1.784a3.446,3.446,0,0,0-2.283.861v-1.148a4.334,4.334,0,0,1,2.379-.657q2.467,0,2.468,2.612Zm-1.121-3.541-1.689.233a2.729,2.729,0,0,0-1.175.386,1.113,1.113,0,0,0-.4.981,1.069,1.069,0,0,0,.365.837,1.413,1.413,0,0,0,.975.325,1.8,1.8,0,0,0,1.377-.584,2.091,2.091,0,0,0,.544-1.48Z" fill="#2f2f2f"/>
      <path d="M357.824,280.389H357.8V281.4h-1.121V271.037H357.8v4.594h.028a2.651,2.651,0,0,1,2.42-1.395,2.569,2.569,0,0,1,2.109.94,3.884,3.884,0,0,1,.762,2.519,4.33,4.33,0,0,1-.855,2.813,2.843,2.843,0,0,1-2.338,1.056A2.3,2.3,0,0,1,357.824,280.389Zm-.028-2.824v.978a2.081,2.081,0,0,0,.565,1.473,2.012,2.012,0,0,0,3.028-.174,3.577,3.577,0,0,0,.577-2.167,2.817,2.817,0,0,0-.54-1.832,1.785,1.785,0,0,0-1.463-.663,1.986,1.986,0,0,0-1.572.68A2.5,2.5,0,0,0,357.8,277.565Z" fill="#2f2f2f"/>
    </g>
    <g>
      <path d="M122.154,40.841h-2.83v8.764h-1.149V40.841h-2.823V39.8h6.8Z" fill="#2f2f2f"/>
      <path d="M130.46,48.935a6.56,6.56,0,0,1-3.282.834,4.483,4.483,0,0,1-3.393-1.353,4.966,4.966,0,0,1-1.3-3.583,5.094,5.094,0,0,1,1.439-3.735,4.905,4.905,0,0,1,3.647-1.46,6.208,6.208,0,0,1,2.686.52v1.271a5.16,5.16,0,0,0-2.816-.752,3.521,3.521,0,0,0-2.7,1.135,4.739,4.739,0,0,0-.075,5.862,3.429,3.429,0,0,0,2.652,1.063,4.1,4.1,0,0,0,1.989-.458V45.531h-2.146V44.492h3.3Z" fill="#2f2f2f"/>
      <path d="M138.423,40.841h-2.83v8.764h-1.148V40.841h-2.823V39.8h6.8Z" fill="#2f2f2f"/>
    </g>
    <g>
      <path d="M151.278,49.208V47.855a2.6,2.6,0,0,0,.558.369,4.434,4.434,0,0,0,.683.277,5.4,5.4,0,0,0,.721.174,4.032,4.032,0,0,0,.67.062,2.62,2.62,0,0,0,1.582-.393,1.475,1.475,0,0,0,.349-1.822,1.982,1.982,0,0,0-.482-.537,4.681,4.681,0,0,0-.729-.464c-.279-.148-.582-.3-.905-.469q-.513-.26-.957-.526a4.146,4.146,0,0,1-.772-.588,2.441,2.441,0,0,1-.516-.728,2.481,2.481,0,0,1,.106-2.119,2.5,2.5,0,0,1,.772-.817,3.514,3.514,0,0,1,1.091-.479,4.973,4.973,0,0,1,1.247-.157,4.767,4.767,0,0,1,2.112.349v1.292a3.828,3.828,0,0,0-2.228-.6,3.7,3.7,0,0,0-.752.079,2.123,2.123,0,0,0-.67.256,1.5,1.5,0,0,0-.479.458,1.217,1.217,0,0,0-.184.684,1.425,1.425,0,0,0,.139.649,1.618,1.618,0,0,0,.414.5,4.088,4.088,0,0,0,.666.438q.394.211.907.465t1,.546a4.625,4.625,0,0,1,.827.636,2.8,2.8,0,0,1,.563.773,2.155,2.155,0,0,1,.209.97,2.463,2.463,0,0,1-.283,1.227,2.332,2.332,0,0,1-.765.817,3.343,3.343,0,0,1-1.112.455,6.112,6.112,0,0,1-1.326.14,5.45,5.45,0,0,1-.574-.038c-.229-.024-.461-.061-.7-.109a5.714,5.714,0,0,1-.674-.178A2.077,2.077,0,0,1,151.278,49.208Z" fill="#2f2f2f"/>
      <path d="M160.112,45.9v3.7h-1.149V39.8h2.694a3.554,3.554,0,0,1,2.436.766,2.728,2.728,0,0,1,.866,2.16A2.971,2.971,0,0,1,164,45.011a3.665,3.665,0,0,1-2.594.889Zm0-5.059v4.02h1.2a2.686,2.686,0,0,0,1.815-.544,1.926,1.926,0,0,0,.625-1.534q0-1.943-2.3-1.942Z" fill="#2f2f2f"/>
      <path d="M174.414,49.605h-1.409l-5.044-7.813a3.284,3.284,0,0,1-.315-.616h-.041a9.988,9.988,0,0,1,.055,1.347v7.082h-1.149V39.8H168l4.908,7.691c.205.319.338.537.4.656h.028a10.435,10.435,0,0,1-.069-1.442V39.8h1.149Z" fill="#2f2f2f"/>
    </g>
  </g>
</svg>
