<?xml version="1.0" encoding="UTF-8" standalone="no"?>
<svg
   viewBox="0 0 385 300"
   version="1.1"
   id="svg1005"
   sodipodi:docname="ad_auth_explained_2.svg"
   inkscape:version="1.1.2 (b8e25be833, 2022-02-05)"
   xmlns:inkscape="http://www.inkscape.org/namespaces/inkscape"
   xmlns:sodipodi="http://sodipodi.sourceforge.net/DTD/sodipodi-0.dtd"
   xmlns:xlink="http://www.w3.org/1999/xlink"
   xmlns="http://www.w3.org/2000/svg"
   xmlns:svg="http://www.w3.org/2000/svg">
  <sodipodi:namedview
     id="namedview1007"
     pagecolor="#ffffff"
     bordercolor="#666666"
     borderopacity="1.0"
     inkscape:pageshadow="2"
     inkscape:pageopacity="0.0"
     inkscape:pagecheckerboard="0"
     showgrid="false"
     inkscape:zoom="2.53"
     inkscape:cx="192.68775"
     inkscape:cy="150"
     inkscape:window-width="1620"
     inkscape:window-height="1010"
     inkscape:window-x="-6"
     inkscape:window-y="-6"
     inkscape:window-maximized="1"
     inkscape:current-layer="svg1005" />
  <defs
     id="defs702">
    <linearGradient
       id="linear-gradient"
       x1="270.728"
       y1="1779.65"
       x2="270.728"
       y2="1745.316"
       gradientTransform="matrix(1, 0, 0, -1, 0, 1920)"
       gradientUnits="userSpaceOnUse">
      <stop
         offset="0"
         stop-color="#b3b2b4"
         id="stop637" />
      <stop
         offset="0.38"
         stop-color="#b0aeaf"
         id="stop639" />
      <stop
         offset="0.76"
         stop-color="#a2a1a1"
         id="stop641" />
      <stop
         offset="1"
         stop-color="#979797"
         id="stop643" />
    </linearGradient>
    <linearGradient
       id="linear-gradient-2"
       x1="271.269"
       y1="1899"
       x2="271.269"
       y2="1863"
       xlink:href="#linear-gradient" />
    <linearGradient
       id="linear-gradient-3"
       x1="313.916"
       y1="1721.953"
       x2="336.54"
       y2="1721.953"
       gradientTransform="matrix(1,0,0,-1,0,1920)"
       gradientUnits="userSpaceOnUse">
      <stop
         offset="0"
         stop-color="#005ca1"
         id="stop647" />
      <stop
         offset="0.07"
         stop-color="#0161aa"
         id="stop649" />
      <stop
         offset="0.36"
         stop-color="#2571b8"
         id="stop651" />
      <stop
         offset="0.52"
         stop-color="#2e76bc"
         id="stop653" />
      <stop
         offset="0.64"
         stop-color="#2973ba"
         id="stop655" />
      <stop
         offset="0.82"
         stop-color="#166bb5"
         id="stop657" />
      <stop
         offset="1"
         stop-color="#005ca1"
         id="stop659" />
    </linearGradient>
    <radialGradient
       id="radial-gradient"
       cx="325.863"
       cy="1721.229"
       r="12.476"
       gradientTransform="matrix(1,0,0,-1,0,1920)"
       gradientUnits="userSpaceOnUse">
      <stop
         offset="0"
         stop-color="#f2f2f3"
         id="stop662" />
      <stop
         offset="0.58"
         stop-color="#eee"
         id="stop664" />
      <stop
         offset="1"
         stop-color="#e6e6e6"
         id="stop666" />
    </radialGradient>
    <linearGradient
       id="linear-gradient-4"
       x1="325.228"
       y1="1661.4"
       x2="325.228"
       y2="1691.4"
       gradientTransform="matrix(1, 0, 0, -1, 0, 1920)"
       gradientUnits="userSpaceOnUse">
      <stop
         offset="0"
         stop-color="#2e76bc"
         id="stop669" />
      <stop
         offset="0.817"
         stop-color="#699cd3"
         id="stop671" />
    </linearGradient>
    <linearGradient
       id="linear-gradient-5"
       x1="128.073"
       y1="1834.689"
       x2="128.073"
       y2="1864.689"
       xlink:href="#linear-gradient-4" />
    <linearGradient
       id="linear-gradient-6"
       x1="164.273"
       y1="1834.689"
       x2="164.273"
       y2="1864.689"
       xlink:href="#linear-gradient-4" />
    <linearGradient
       id="linear-gradient-7"
       x1="325.228"
       y1="1819"
       x2="325.228"
       y2="1849"
       gradientTransform="matrix(1, 0, 0, -1, 0, 1920)"
       gradientUnits="userSpaceOnUse">
      <stop
         offset="0"
         stop-color="#2e76bc"
         id="stop676" />
      <stop
         offset="0.82"
         stop-color="#699cd3"
         id="stop678" />
    </linearGradient>
    <linearGradient
       id="linear-gradient-8"
       x1="38.347"
       y1="1870.137"
       x2="38.347"
       y2="1899"
       xlink:href="#linear-gradient-7" />
    <linearGradient
       id="linear-gradient-9"
       x1="38.36"
       y1="1859"
       x2="38.36"
       y2="1870.137"
       gradientTransform="matrix(1,0,0,-1,0,1920)"
       gradientUnits="userSpaceOnUse">
      <stop
         offset="0.15"
         stop-color="#cccccb"
         id="stop682" />
      <stop
         offset="1"
         stop-color="#707071"
         id="stop684" />
    </linearGradient>
    <linearGradient
       id="linear-gradient-10"
       x1="18.486"
       y1="1877.533"
       x2="18.486"
       y2="1854.917"
       gradientTransform="matrix(1, 0, 0, -1, 0, 1920)"
       gradientUnits="userSpaceOnUse">
      <stop
         offset="0.22"
         stop-color="#50c8e9"
         id="stop687" />
      <stop
         offset="0.47"
         stop-color="#4ac7e9"
         id="stop689" />
      <stop
         offset="0.63"
         stop-color="#3bc4e7"
         id="stop691" />
      <stop
         offset="0.77"
         stop-color="#2abade"
         id="stop693" />
      <stop
         offset="0.89"
         stop-color="#21a5cb"
         id="stop695" />
      <stop
         offset="1"
         stop-color="#1b8ab3"
         id="stop697" />
    </linearGradient>
    <linearGradient
       id="linear-gradient-11"
       x1="17.837"
       y1="1889.667"
       x2="19.487"
       y2="1869.133"
       xlink:href="#linear-gradient-10" />
    <linearGradient
       id="linear-gradient-12"
       x1="128.073"
       y1="1793.767"
       x2="128.073"
       y2="1823.767"
       xlink:href="#linear-gradient-4" />
    <linearGradient
       inkscape:collect="always"
       xlink:href="#linear-gradient"
       id="linearGradient1150"
       gradientUnits="userSpaceOnUse"
       gradientTransform="matrix(1,0,0,-1,0,1920)"
       x1="270.728"
       y1="1779.65"
       x2="270.728"
       y2="1745.316" />
    <linearGradient
       inkscape:collect="always"
       xlink:href="#linear-gradient-4"
       id="linearGradient1152"
       gradientUnits="userSpaceOnUse"
       gradientTransform="matrix(1,0,0,-1,0,1920)"
       x1="325.228"
       y1="1661.4"
       x2="325.228"
       y2="1691.4" />
    <linearGradient
       inkscape:collect="always"
       xlink:href="#linear-gradient-7"
       id="linearGradient1154"
       gradientUnits="userSpaceOnUse"
       gradientTransform="matrix(1,0,0,-1,0,1920)"
       x1="325.228"
       y1="1819"
       x2="325.228"
       y2="1849" />
    <linearGradient
       inkscape:collect="always"
       xlink:href="#linear-gradient-10"
       id="linearGradient1156"
       gradientUnits="userSpaceOnUse"
       gradientTransform="matrix(1,0,0,-1,0,1920)"
       x1="18.486"
       y1="1877.533"
       x2="18.486"
       y2="1854.917" />
  </defs>
  <rect
     width="385"
     height="300"
     fill="#ffffff"
     id="rect704"
     x="0"
     y="0" />
  <rect
     x="106.056"
     y="88.199997"
     width="44"
     height="48"
     fill="#fee452"
     opacity="0.35"
     id="rect706" />
  <g
     id="g712">
    <rect
       x="270.228"
       y="167"
       width="110"
       height="127.6"
       fill="#ffffff"
       id="rect708" />
    <rect
       x="270.228"
       y="167"
       width="110"
       height="127.6"
       fill="#767676"
       opacity="0.3"
       id="rect710" />
  </g>
  <g
     id="g724">
    <path
       d="m 281.875,173.517 a 1.237,1.237 0 0 1 -1.285,1.166 h -19.724 a 1.237,1.237 0 0 1 -1.285,-1.166 v -32 a 1.237,1.237 0 0 1 1.285,-1.165 h 19.724 a 1.237,1.237 0 0 1 1.285,1.165 z"
       fill="url(#linear-gradient)"
       id="path714"
       style="fill:url(#linearGradient1150)" />
    <path
       d="m 262.865,155.031 a 2.569,2.569 0 0 1 2.379,-2.689 h 11.135 a 2.57,2.57 0 0 1 2.379,2.689 v 0 a 2.545,2.545 0 0 1 -2.292,2.776 c -0.029,0 -0.058,0.006 -0.087,0.007 h -11.088 a 2.545,2.545 0 0 1 -2.379,-2.664 z"
       fill="#1e3465"
       id="path716" />
    <path
       d="m 262.865,147.084 a 2.545,2.545 0 0 1 2.379,-2.665 h 11.135 a 2.545,2.545 0 0 1 2.379,2.665 v 0 a 2.569,2.569 0 0 1 -2.379,2.688 h -11.088 a 2.569,2.569 0 0 1 -2.379,-2.688 z"
       fill="#1e3465"
       id="path718" />
    <circle
       cx="265.98099"
       cy="147.084"
       r="1.784"
       fill="#74cfeb"
       id="circle720" />
    <circle
       cx="265.98099"
       cy="155.03101"
       r="1.784"
       fill="#74cfeb"
       id="circle722" />
  </g>
  <g
     id="g754">
    <rect
       x="270.228"
       y="39.400002"
       width="110"
       height="88"
       fill="#ffffff"
       id="rect750" />
    <rect
       x="270.228"
       y="39.400002"
       width="110"
       height="88"
       fill="#767676"
       opacity="0.3"
       id="rect752" />
  </g>
  <g
     id="g760">
    <rect
       x="28.763"
       y="35"
       width="7.3179998"
       height="259.60001"
       fill="#ffffff"
       id="rect756" />
    <rect
       x="28.763"
       y="35"
       width="7.3179998"
       height="259.60001"
       fill="#83b9f9"
       opacity="0.5"
       id="rect758" />
  </g>
  <g
     id="g772">
    <path
       d="M 282.956,55.777 A 1.3,1.3 0 0 1 281.609,57 h -20.681 a 1.3,1.3 0 0 1 -1.347,-1.222 V 22.223 A 1.3,1.3 0 0 1 260.928,21 h 20.681 a 1.3,1.3 0 0 1 1.347,1.222 z"
       fill="url(#linear-gradient-2)"
       id="path762"
       style="fill:url(#linear-gradient-2)" />
    <path
       d="m 263.024,36.393 a 2.694,2.694 0 0 1 2.494,-2.819 h 11.675 a 2.7,2.7 0 0 1 2.5,2.819 v 0 a 2.669,2.669 0 0 1 -2.4,2.912 l -0.092,0.007 h -11.633 a 2.669,2.669 0 0 1 -2.494,-2.794 z"
       fill="#1e3465"
       id="path764" />
    <path
       d="m 263.024,28.061 a 2.669,2.669 0 0 1 2.494,-2.794 h 11.675 a 2.669,2.669 0 0 1 2.5,2.794 v 0 a 2.7,2.7 0 0 1 -2.5,2.819 h -11.625 a 2.694,2.694 0 0 1 -2.494,-2.819 z"
       fill="#1e3465"
       id="path766" />
    <circle
       cx="266.29199"
       cy="28.061001"
       r="1.8710001"
       fill="#74cfeb"
       id="circle768" />
    <circle
       cx="266.29199"
       cy="36.393002"
       r="1.8710001"
       fill="#74cfeb"
       id="circle770" />
  </g>
  <g
     id="g784">
    <path
       d="m 325.228,189.188 c -6.247,0 -11.312,-1.764 -11.312,-4.094 v 21.812 c 0,2.241 4.976,4.059 11.153,4.094 h 0.159 c 6.247,0 11.312,-1.765 11.312,-4.094 v -21.812 c 0,2.277 -5.065,4.094 -11.312,4.094 z"
       fill="url(#linear-gradient-3)"
       id="path774"
       style="fill:url(#linear-gradient-3)" />
    <path
       d="m 336.54,185.094 c 0,2.277 -5.065,4.094 -11.312,4.094 -6.247,0 -11.312,-1.764 -11.312,-4.094 0,-2.33 5.065,-4.094 11.312,-4.094 6.247,0 11.312,1.765 11.312,4.094"
       fill="#e8e8e8"
       id="path776" />
    <path
       d="m 333.91,184.759 c 0,1.447 -3.9,2.612 -8.682,2.612 -4.782,0 -8.683,-1.165 -8.683,-2.612 0,-1.447 3.9,-2.594 8.683,-2.594 4.783,0 8.682,1.164 8.682,2.594"
       fill="#74cfeb"
       id="path778" />
    <path
       d="m 325.228,185.412 a 20.375,20.375 0 0 0 -6.865,1.006 20.175,20.175 0 0 0 6.865,0.953 19.683,19.683 0 0 0 6.864,-1.024 20.864,20.864 0 0 0 -6.864,-0.935 z"
       fill="#1b8ab3"
       id="path780" />
    <path
       d="m 332.11,200.235 v -6 h -1.588 v 7.289 h 4.341 v -1.289 z m -12.6,-2.947 a 3.216,3.216 0 0 1 -0.9,-0.547 0.777,0.777 0 0 1 -0.212,-0.565 0.6,0.6 0 0 1 0.265,-0.529 1.2,1.2 0 0 1 0.741,-0.212 2.862,2.862 0 0 1 1.765,0.512 v -1.518 a 4.577,4.577 0 0 0 -1.765,-0.282 2.891,2.891 0 0 0 -1.923,0.6 1.9,1.9 0 0 0 -0.741,1.571 c 0,0.9 0.564,1.606 1.764,2.135 a 5.06,5.06 0 0 1 1.094,0.635 0.742,0.742 0 0 1 0.265,0.565 0.672,0.672 0 0 1 -0.282,0.547 1.425,1.425 0 0 1 -0.794,0.194 2.93,2.93 0 0 1 -1.924,-0.741 v 1.641 a 3.834,3.834 0 0 0 1.888,0.424 3.314,3.314 0 0 0 2.083,-0.583 1.906,1.906 0 0 0 0.582,-1.606 1.854,1.854 0 0 0 -0.441,-1.235 4.287,4.287 0 0 0 -1.465,-1.006 z m 9.247,2.806 a 3.863,3.863 0 0 0 0,-4.094 3.192,3.192 0 0 0 -1.235,-1.324 3.532,3.532 0 0 0 -1.765,-0.458 3.727,3.727 0 0 0 -1.906,0.476 3.283,3.283 0 0 0 -1.288,1.306 4.346,4.346 0 0 0 -0.459,2.012 3.986,3.986 0 0 0 0.424,1.764 3.093,3.093 0 0 0 1.217,1.306 3.638,3.638 0 0 0 1.765,0.53 l 1.518,1.764 h 2.135 l -2.171,-1.941 a 3.156,3.156 0 0 0 1.765,-1.341 z m -1.765,-0.441 a 1.661,1.661 0 0 1 -1.341,0.618 1.627,1.627 0 0 1 -1.341,-0.636 3.3,3.3 0 0 1 0,-3.529 1.764,1.764 0 0 1 1.377,-0.653 1.535,1.535 0 0 1 1.323,0.653 2.86,2.86 0 0 1 0.477,1.765 2.579,2.579 0 0 1 -0.495,1.782 z"
       fill="url(#radial-gradient)"
       id="path782"
       style="fill:url(#radial-gradient)" />
  </g>
  <g
     id="abc3e3f9-d4db-41ad-8b60-378d1c3348f7">
    <g
       id="g800">
      <g
         id="g792">
        <path
           d="m 326.933,228.823 h -12.769 a 1.009,1.009 0 0 0 -1.008,1.009 v 0 27.534 a 1.008,1.008 0 0 0 1.007,1.01 h 22.128 a 1.009,1.009 0 0 0 1,-1.01 v -18.221 a 1.009,1.009 0 0 0 -1,-1.01 h -7.343 a 1.009,1.009 0 0 1 -1,-1.008 v -7.294 a 1,1 0 0 0 -0.99,-1.01 z"
           fill="#ffffff"
           id="path786" />
        <path
           d="m 326.466,230.113 v 6.915 a 2.541,2.541 0 0 0 2.534,2.539 h 6.967 v 17.52 h -21.478 v -26.974 h 11.977 m 0.488,-1.513 H 314 a 1.023,1.023 0 0 0 -1.023,1.023 v 27.952 A 1.023,1.023 0 0 0 314,258.6 h 22.455 a 1.023,1.023 0 0 0 1.024,-1.023 v -18.5 a 1.023,1.023 0 0 0 -1.024,-1.024 H 329 a 1.022,1.022 0 0 1 -1.021,-1.025 v 0 -7.4 a 1.024,1.024 0 0 0 -1.022,-1.025 z"
           fill="url(#linear-gradient-4)"
           id="path788"
           style="fill:url(#linearGradient1152)" />
        <path
           d="m 337.088,238.257 -9.464,-9.434 v 7.687 a 1.736,1.736 0 0 0 1.724,1.747 z"
           fill="#2e76bc"
           id="path790" />
      </g>
      <rect
         x="316.89401"
         y="242.25999"
         width="16.665001"
         height="2.2349999"
         rx="1.005"
         fill="#699cd3"
         id="rect794" />
      <rect
         x="316.89401"
         y="246.265"
         width="16.665001"
         height="2.2349999"
         rx="1.005"
         fill="#699cd3"
         id="rect796" />
      <rect
         x="316.89401"
         y="250.27"
         width="10.503"
         height="2.2349999"
         rx="1.005"
         fill="#699cd3"
         id="rect798" />
    </g>
  </g>
  <g
     id="abc3e3f9-d4db-41ad-8b60-378d1c3348f7-2"
     data-name="abc3e3f9-d4db-41ad-8b60-378d1c3348f7">
    <g
       id="g817">
      <g
         id="g809">
        <path
           d="M 129.778,55.534 H 117.009 A 1.008,1.008 0 0 0 116,56.542 v 27.535 a 1.008,1.008 0 0 0 1.007,1.01 h 22.128 a 1.008,1.008 0 0 0 1,-1.01 V 65.856 a 1.008,1.008 0 0 0 -1,-1.01 h -7.343 a 1.009,1.009 0 0 1 -1,-1.009 v -7.293 a 1,1 0 0 0 -0.99,-1.01 z"
           fill="#ffffff"
           id="path803" />
        <path
           d="m 129.311,56.824 v 6.915 a 2.54,2.54 0 0 0 2.533,2.538 h 6.967 V 83.8 H 117.334 V 56.824 h 11.977 m 0.488,-1.513 h -12.953 a 1.023,1.023 0 0 0 -1.023,1.023 v 27.952 a 1.023,1.023 0 0 0 1.021,1.025 H 139.3 a 1.024,1.024 0 0 0 1.024,-1.024 v 0 -18.5 A 1.023,1.023 0 0 0 139.3,64.764 h -7.455 a 1.023,1.023 0 0 1 -1.021,-1.025 v 0 -7.4 a 1.023,1.023 0 0 0 -1.022,-1.025 z"
           fill="url(#linear-gradient-5)"
           id="path805"
           style="fill:url(#linear-gradient-5)" />
        <path
           d="m 139.933,64.967 -9.464,-9.433 v 7.687 a 1.735,1.735 0 0 0 1.724,1.746 z"
           fill="#2e76bc"
           id="path807" />
      </g>
      <rect
         x="119.739"
         y="68.971001"
         width="16.665001"
         height="2.2349999"
         rx="1.005"
         fill="#699cd3"
         id="rect811" />
      <rect
         x="119.739"
         y="72.975998"
         width="16.665001"
         height="2.2349999"
         rx="1.005"
         fill="#699cd3"
         id="rect813" />
      <rect
         x="119.739"
         y="76.981003"
         width="10.503"
         height="2.2349999"
         rx="1.005"
         fill="#699cd3"
         id="rect815" />
    </g>
  </g>
  <g
     id="abc3e3f9-d4db-41ad-8b60-378d1c3348f7-3"
     data-name="abc3e3f9-d4db-41ad-8b60-378d1c3348f7">
    <g
       id="g834">
      <g
         id="g826">
        <path
           d="M 165.978,55.534 H 153.21 a 1.008,1.008 0 0 0 -1.009,1.008 v 27.535 a 1.008,1.008 0 0 0 1.007,1.01 h 22.128 a 1.007,1.007 0 0 0 1,-1.01 V 65.856 a 1.007,1.007 0 0 0 -1,-1.01 h -7.343 a 1.009,1.009 0 0 1 -1,-1.009 v -7.293 a 1,1 0 0 0 -0.99,-1.01 z"
           fill="#ffffff"
           id="path820" />
        <path
           d="m 165.511,56.824 v 6.915 a 2.54,2.54 0 0 0 2.534,2.538 h 6.966 V 83.8 H 153.535 V 56.824 h 11.976 M 166,55.311 h -12.954 a 1.023,1.023 0 0 0 -1.023,1.023 v 27.952 a 1.024,1.024 0 0 0 1.022,1.025 H 175.5 a 1.024,1.024 0 0 0 1.023,-1.024 v 0 -18.5 A 1.023,1.023 0 0 0 175.5,64.764 h -7.455 a 1.024,1.024 0 0 1 -1.022,-1.025 v 0 -7.4 A 1.023,1.023 0 0 0 166,55.311 Z"
           fill="url(#linear-gradient-6)"
           id="path822"
           style="fill:url(#linear-gradient-6)" />
        <path
           d="m 176.133,64.967 -9.463,-9.433 v 7.687 a 1.734,1.734 0 0 0 1.723,1.746 z"
           fill="#2e76bc"
           id="path824" />
      </g>
      <rect
         x="155.94"
         y="68.971001"
         width="16.665001"
         height="2.2349999"
         rx="1.005"
         fill="#699cd3"
         id="rect828" />
      <rect
         x="155.94"
         y="72.975998"
         width="16.665001"
         height="2.2349999"
         rx="1.005"
         fill="#699cd3"
         id="rect830" />
      <rect
         x="155.94"
         y="76.981003"
         width="10.503"
         height="2.2349999"
         rx="1.005"
         fill="#699cd3"
         id="rect832" />
    </g>
  </g>
  <g
     id="g846">
    <path
       d="m 326.992,71.229 h -12.829 a 1.006,1.006 0 0 0 -1.006,1.006 v 27.53 a 1.006,1.006 0 0 0 1.006,1.006 h 22.129 a 1.006,1.006 0 0 0 1.006,-1.006 V 81.553 a 1.024,1.024 0 0 0 -1.006,-1.024 h -7.341 a 0.988,0.988 0 0 1 -1.006,-0.97 v -7.324 a 1.007,1.007 0 0 0 -0.953,-1.006 z"
       fill="#ffffff"
       id="path837" />
    <path
       d="m 326.463,72.518 v 6.917 A 2.542,2.542 0 0 0 329,81.959 h 6.971 v 17.523 h -21.49 V 72.518 h 11.982 M 326.992,71 H 314 a 1.023,1.023 0 0 0 -1.023,1.024 V 99.976 A 1.023,1.023 0 0 0 314,101 h 22.447 a 1.023,1.023 0 0 0 1.024,-1.024 V 81.482 a 1.023,1.023 0 0 0 -1.024,-1.023 H 329 a 1.023,1.023 0 0 1 -1.023,-1.024 V 72.024 A 1.024,1.024 0 0 0 326.992,71 Z"
       fill="url(#linear-gradient-7)"
       id="path839"
       style="fill:url(#linearGradient1154)" />
    <path
       d="m 337.087,80.706 -9.459,-9.477 v 7.712 a 1.765,1.765 0 0 0 1.764,1.765 z"
       fill="#2e76bc"
       id="path841" />
    <path
       id="a6d81f9b-1c9b-4163-b425-427db8835c56"
       d="m 327.716,89.847 a 3.9,3.9 0 0 1 -5.171,0 l -0.317,6.406 a 0.511,0.511 0 0 0 0.882,0.388 l 1.977,-2.029 2.011,1.976 a 0.512,0.512 0 0 0 0.865,-0.388 z"
       fill="#b32025" />
    <ellipse
       id="f228121b-524c-412f-81f5-af7174f3554f"
       cx="325.19199"
       cy="86.546997"
       rx="4.6059999"
       ry="4.6240001"
       fill="#e52526" />
    <ellipse
       id="fd9247f0-1f16-45ab-bd99-d7272783472c"
       cx="325.19199"
       cy="86.546997"
       rx="3.494"
       ry="3.5120001"
       fill="#fed402" />
  </g>
  <g
     id="g862">
    <g
       id="g852">
      <rect
         x="16.705999"
         y="21"
         width="43.282001"
         height="28.863001"
         rx="1.447"
         fill="url(#linear-gradient-8)"
         id="rect848"
         style="fill:url(#linear-gradient-8)" />
      <path
         d="m 47.042,58.6 c -4.289,-0.672 -4.444,-3.773 -4.444,-8.734 h -8.476 c 0,4.961 -0.155,8.062 -4.444,8.734 A 2.584,2.584 0 0 0 27.533,61 h 21.654 a 2.584,2.584 0 0 0 -2.145,-2.4 z"
         fill="url(#linear-gradient-9)"
         id="path850"
         style="fill:url(#linear-gradient-9)" />
    </g>
    <g
       id="g860">
      <path
         d="M 29.687,61 A 2.417,2.417 0 0 0 32.1,58.583 v 0 a 0.792,0.792 0 0 0 0,-0.283 C 31.133,50.683 26.816,44.483 18.483,44.483 10.15,44.483 5.72,49.733 4.87,58.317 A 2.433,2.433 0 0 0 7.028,61 h 0.026 z"
         fill="url(#linear-gradient-10)"
         id="path854"
         style="fill:url(#linearGradient1156)" />
      <path
         d="m 18.487,46.283 a 7.646,7.646 0 0 1 -4.133,-1.216 l 4.133,10.7 4.067,-10.634 a 7.547,7.547 0 0 1 -4.067,1.15 z"
         fill="#ffffff"
         opacity="0.8"
         style="isolation:isolate"
         id="path856" />
      <circle
         cx="18.504"
         cy="38.632999"
         r="7.6329999"
         fill="url(#linear-gradient-11)"
         id="circle858"
         style="fill:url(#linear-gradient-11)" />
    </g>
  </g>
  <g
     id="g875">
    <g
       id="abc3e3f9-d4db-41ad-8b60-378d1c3348f7-4"
       data-name="abc3e3f9-d4db-41ad-8b60-378d1c3348f7">
      <g
         id="g870">
        <path
           d="M 129.778,96.456 H 117.009 A 1.008,1.008 0 0 0 116,97.464 V 125 a 1.008,1.008 0 0 0 1.007,1.01 h 22.128 a 1.008,1.008 0 0 0 1,-1.01 v -18.222 a 1.008,1.008 0 0 0 -1,-1.01 h -7.343 a 1.009,1.009 0 0 1 -1,-1.009 v -7.293 a 1,1 0 0 0 -0.99,-1.01 z"
           fill="#ffffff"
           id="path864" />
        <path
           d="m 129.311,97.746 v 6.915 a 2.54,2.54 0 0 0 2.533,2.538 h 6.967 v 17.52 H 117.334 V 97.746 h 11.977 m 0.488,-1.513 h -12.953 a 1.023,1.023 0 0 0 -1.023,1.023 v 27.952 a 1.023,1.023 0 0 0 1.021,1.025 H 139.3 a 1.024,1.024 0 0 0 1.024,-1.024 v 0 -18.5 a 1.023,1.023 0 0 0 -1.024,-1.023 h -7.455 a 1.023,1.023 0 0 1 -1.021,-1.025 v 0 -7.4 a 1.023,1.023 0 0 0 -1.022,-1.025 z"
           fill="url(#linear-gradient-12)"
           id="path866"
           style="fill:url(#linear-gradient-12)" />
        <path
           d="m 139.933,105.889 -9.464,-9.433 v 7.687 a 1.735,1.735 0 0 0 1.724,1.746 z"
           fill="#2e76bc"
           id="path868" />
      </g>
    </g>
    <path
       d="m 133.91,118.33 v 3.015 h -3.25 v -1.625 h -1.625 v -1.62 h -1.625 v -1.314 a 4.342,4.342 0 0 1 -0.984,0.375 4.435,4.435 0 0 1 -3.3,-0.483 4.482,4.482 0 0 1 -0.9,-0.7 4.6,4.6 0 0 1 -0.7,-0.908 4.245,4.245 0 0 1 -0.451,-1.066 4.743,4.743 0 0 1 -0.158,-1.187 4.415,4.415 0 0 1 0.609,-2.254 4.556,4.556 0 0 1 0.7,-0.9 4.63,4.63 0 0 1 0.908,-0.705 4.233,4.233 0 0 1 1.067,-0.45 4.691,4.691 0 0 1 1.187,-0.159 4.41,4.41 0 0 1 1.187,0.159 4.458,4.458 0 0 1 1.066,0.45 4.523,4.523 0 0 1 0.9,0.7 4.624,4.624 0 0 1 0.705,0.907 4.252,4.252 0 0 1 0.451,1.067 4.736,4.736 0 0 1 0.158,1.187 4.035,4.035 0 0 1 -0.051,0.641 4.227,4.227 0 0 1 -0.146,0.622 z m -0.813,0.343 -4.38,-4.38 a 5.935,5.935 0 0 0 0.229,-0.724 3.166,3.166 0 0 0 0.089,-0.755 3.56,3.56 0 0 0 -0.286,-1.422 3.619,3.619 0 0 0 -0.787,-1.162 3.745,3.745 0 0 0 -1.162,-0.78 3.625,3.625 0 0 0 -4,0.78 3.789,3.789 0 0 0 -0.781,1.162 3.64,3.64 0 0 0 -0.292,1.422 3.567,3.567 0 0 0 0.286,1.422 3.614,3.614 0 0 0 0.787,1.161 3.76,3.76 0 0 0 1.162,0.781 3.61,3.61 0 0 0 3.7,-0.52 h 0.565 v 1.625 h 1.625 v 1.625 h 1.625 v 1.625 h 1.623 z m -8.937,-7.89 a 0.79,0.79 0 0 1 0.317,0.063 0.812,0.812 0 0 1 0.254,0.171 0.892,0.892 0 0 1 0.178,0.261 0.682,0.682 0 0 1 0.063,0.317 0.79,0.79 0 0 1 -0.063,0.317 0.82,0.82 0 0 1 -0.172,0.254 0.869,0.869 0 0 1 -0.26,0.178 0.683,0.683 0 0 1 -0.317,0.064 0.8,0.8 0 0 1 -0.318,-0.064 0.812,0.812 0 0 1 -0.254,-0.171 0.89,0.89 0 0 1 -0.177,-0.261 0.683,0.683 0 0 1 -0.064,-0.317 0.774,0.774 0 0 1 0.064,-0.317 0.8,0.8 0 0 1 0.171,-0.254 0.9,0.9 0 0 1 0.26,-0.178 0.676,0.676 0 0 1 0.318,-0.063 z"
       fill="#1f56a3"
       id="path873" />
  </g>
  <line
     x1="38.800999"
     y1="74.093002"
     x2="110.41"
     y2="74.093002"
     fill="none"
     stroke="#3c3c41"
     stroke-miterlimit="10"
     id="line877" />
  <g
     id="g883">
    <line
       x1="182.222"
       y1="74.093002"
       x2="260.09601"
       y2="74.093002"
       fill="none"
       stroke="#3c3c41"
       stroke-miterlimit="10"
       id="line879" />
    <polygon
       points="259.002,70.353 259.002,77.833 265.478,74.093 "
       fill="#3c3c41"
       id="polygon881" />
  </g>
  <g
     id="g889">
    <line
       x1="146.02299"
       y1="108.751"
       x2="265.478"
       y2="108.751"
       fill="none"
       stroke="#fed402"
       stroke-miterlimit="10"
       stroke-width="6"
       id="line885" />
    <line
       x1="146.02299"
       y1="108.751"
       x2="265.478"
       y2="108.751"
       fill="none"
       stroke="#3c3c41"
       stroke-miterlimit="10"
       id="line887" />
  </g>
  <g
     id="g901">
    <g
       id="g895">
      <line
         x1="110.637"
         y1="108.751"
         x2="47.219002"
         y2="108.751"
         fill="none"
         stroke="#fed402"
         stroke-miterlimit="10"
         stroke-width="6"
         id="line891" />
      <line
         x1="110.637"
         y1="108.751"
         x2="47.219002"
         y2="108.751"
         fill="none"
         stroke="#3c3c41"
         stroke-miterlimit="10"
         id="line893" />
    </g>
    <polygon
       points="49.878,115.279 49.878,102.224 38.574,108.751 "
       fill="#fed402"
       id="polygon897" />
    <polygon
       points="49.878,113.251 49.878,104.251 42.085,108.751 "
       fill="#3c3c41"
       id="polygon899" />
  </g>
  <g
     id="g926">
    <path
       d="m 299.172,158.2 h -5.838 v -9.8 h 2.208 v 8.012 h 3.63 z"
       fill="#2f2f2f"
       id="path904" />
    <path
       d="m 301.315,150.092 a 1.261,1.261 0 0 1 -0.895,-0.324 1.046,1.046 0 0 1 -0.349,-0.8 1.007,1.007 0 0 1 0.349,-0.793 1.464,1.464 0 0 1 1.794,0 1.013,1.013 0 0 1 0.345,0.793 1.044,1.044 0 0 1 -0.345,0.807 1.286,1.286 0 0 1 -0.899,0.317 z m 1.067,8.108 h -2.161 v -7 h 2.161 z"
       fill="#2f2f2f"
       id="path906" />
    <path
       d="m 310.924,158.2 h -2.153 v -3.89 q 0,-1.626 -1.162,-1.627 a 1.156,1.156 0 0 0 -0.923,0.431 1.644,1.644 0 0 0 -0.362,1.094 v 3.992 h -2.16 v -7 h 2.16 v 1.107 h 0.027 a 2.476,2.476 0 0 1 2.249,-1.278 q 2.325,0 2.324,2.885 z"
       fill="#2f2f2f"
       id="path908" />
    <path
       d="m 319.278,158.2 h -2.153 v -1.067 h -0.034 a 2.444,2.444 0 0 1 -2.14,1.238 q -2.435,0 -2.434,-2.947 V 151.2 h 2.154 v 4.033 q 0,1.483 1.176,1.483 a 1.165,1.165 0 0 0 0.93,-0.406 1.643,1.643 0 0 0 0.348,-1.1 v -4.01 h 2.153 z"
       fill="#2f2f2f"
       id="path910" />
    <path
       d="m 327.864,151.2 -2.31,3.39 2.3,3.61 h -2.489 l -1.011,-1.887 a 6.73,6.73 0 0 1 -0.294,-0.636 h -0.028 a 4.378,4.378 0 0 1 -0.28,0.615 l -1.018,1.908 h -2.482 l 2.365,-3.487 -2.221,-3.513 h 2.5 l 1,1.962 a 4.3,4.3 0 0 1 0.28,0.656 h 0.027 a 4.629,4.629 0 0 1 0.294,-0.67 l 1.019,-1.948 z"
       fill="#2f2f2f"
       id="path912" />
    <path
       d="m 332.239,158.015 v -1.75 a 4.631,4.631 0 0 0 1.063,0.479 3.517,3.517 0 0 0 1,0.157 2.141,2.141 0 0 0 0.905,-0.157 0.508,0.508 0 0 0 0.332,-0.479 0.448,0.448 0 0 0 -0.15,-0.342 1.412,1.412 0 0 0 -0.387,-0.239 4.3,4.3 0 0 0 -0.516,-0.184 q -0.281,-0.083 -0.54,-0.185 a 5.289,5.289 0 0 1 -0.735,-0.338 2.107,2.107 0 0 1 -0.533,-0.421 1.644,1.644 0 0 1 -0.328,-0.554 2.211,2.211 0 0 1 -0.113,-0.745 1.913,1.913 0 0 1 0.256,-1.011 2.1,2.1 0 0 1 0.684,-0.694 3.148,3.148 0 0 1 0.977,-0.4 5.128,5.128 0 0 1 1.146,-0.126 6.328,6.328 0 0 1 0.943,0.072 6.978,6.978 0 0 1 0.944,0.208 v 1.668 a 3.415,3.415 0 0 0 -0.879,-0.359 3.734,3.734 0 0 0 -0.919,-0.119 2.054,2.054 0 0 0 -0.4,0.037 1.313,1.313 0 0 0 -0.331,0.11 0.6,0.6 0 0 0 -0.225,0.184 0.423,0.423 0 0 0 -0.082,0.256 0.477,0.477 0 0 0 0.123,0.329 1.056,1.056 0 0 0 0.321,0.235 3.114,3.114 0 0 0 0.441,0.178 c 0.162,0.052 0.322,0.106 0.482,0.161 a 6.127,6.127 0 0 1 0.779,0.328 2.473,2.473 0 0 1 0.6,0.417 1.635,1.635 0 0 1 0.383,0.56 2.246,2.246 0 0 1 -0.137,1.829 2.162,2.162 0 0 1 -0.718,0.718 3.252,3.252 0 0 1 -1.032,0.4 5.678,5.678 0 0 1 -1.213,0.127 6.261,6.261 0 0 1 -2.141,-0.35 z"
       fill="#2f2f2f"
       id="path914" />
    <path
       d="m 345.189,155.315 h -4.567 q 0.109,1.524 1.921,1.524 a 3.743,3.743 0 0 0 2.03,-0.547 v 1.559 a 5.331,5.331 0 0 1 -2.522,0.52 3.258,3.258 0 0 1 -3.568,-3.562 3.75,3.75 0 0 1 1.011,-2.762 3.372,3.372 0 0 1 2.489,-1.018 3.061,3.061 0 0 1 2.369,0.909 3.507,3.507 0 0 1 0.837,2.468 z m -2,-1.326 q 0,-1.5 -1.217,-1.5 a 1.16,1.16 0 0 0 -0.9,0.431 1.956,1.956 0 0 0 -0.461,1.073 z"
       fill="#2f2f2f"
       id="path916" />
    <path
       d="m 351.12,153.148 a 1.875,1.875 0 0 0 -0.909,-0.212 1.306,1.306 0 0 0 -1.1,0.516 2.249,2.249 0 0 0 -0.4,1.405 v 3.343 h -2.16 v -7 h 2.16 v 1.3 h 0.027 a 1.869,1.869 0 0 1 1.846,-1.422 1.385,1.385 0 0 1 0.533,0.082 z"
       fill="#2f2f2f"
       id="path918" />
    <path
       d="m 359.219,151.2 -2.605,7 h -2.461 l -2.481,-7 h 2.311 l 1.216,4.313 a 6.392,6.392 0 0 1 0.24,1.244 h 0.027 a 6.967,6.967 0 0 1 0.253,-1.2 l 1.244,-4.354 z"
       fill="#2f2f2f"
       id="path920" />
    <path
       d="m 366.206,155.315 h -4.566 q 0.11,1.524 1.921,1.524 a 3.745,3.745 0 0 0 2.03,-0.547 v 1.559 a 5.331,5.331 0 0 1 -2.522,0.52 3.259,3.259 0 0 1 -3.569,-3.562 3.751,3.751 0 0 1 1.012,-2.762 3.371,3.371 0 0 1 2.488,-1.018 3.058,3.058 0 0 1 2.369,0.909 3.5,3.5 0 0 1 0.837,2.468 z m -2,-1.326 q 0,-1.5 -1.216,-1.5 a 1.16,1.16 0 0 0 -0.9,0.431 1.957,1.957 0 0 0 -0.462,1.073 z"
       fill="#2f2f2f"
       id="path922" />
    <path
       d="m 372.138,153.148 a 1.881,1.881 0 0 0 -0.909,-0.212 1.31,1.31 0 0 0 -1.1,0.516 2.249,2.249 0 0 0 -0.4,1.405 v 3.343 h -2.161 v -7 h 2.161 v 1.3 h 0.027 a 1.869,1.869 0 0 1 1.846,-1.422 1.388,1.388 0 0 1 0.533,0.082 z"
       fill="#2f2f2f"
       id="path924" />
  </g>
  <g
     id="g960">
    <path
       d="M 293.334,16.1 V 6.3 h 3.472 q 5.223,0 5.223,4.778 a 4.831,4.831 0 0 1 -1.425,3.657 5.256,5.256 0 0 1 -3.8,1.368 z m 2.208,-8 v 6.214 h 1.093 a 2.959,2.959 0 0 0 2.253,-0.862 3.271,3.271 0 0 0 0.817,-2.345 2.965,2.965 0 0 0 -0.81,-2.2 3.087,3.087 0 0 0 -2.273,-0.8 z"
       fill="#2f2f2f"
       id="path928" />
    <path
       d="m 306.773,16.272 a 3.765,3.765 0 0 1 -2.751,-0.98 3.556,3.556 0 0 1 -1,-2.663 3.553,3.553 0 0 1 1.039,-2.717 3.928,3.928 0 0 1 2.81,-0.981 3.715,3.715 0 0 1 2.734,0.981 3.483,3.483 0 0 1 0.991,2.594 3.7,3.7 0 0 1 -1.022,2.755 3.8,3.8 0 0 1 -2.801,1.011 z m 0.055,-5.687 a 1.443,1.443 0 0 0 -1.19,0.526 2.326,2.326 0 0 0 -0.423,1.491 q 0,2.016 1.626,2.016 1.552,0 1.552,-2.071 0,-1.962 -1.565,-1.962 z"
       fill="#2f2f2f"
       id="path930" />
    <path
       d="m 323.09,16.1 h -2.153 v -3.991 q 0,-1.524 -1.121,-1.524 a 1.031,1.031 0 0 0 -0.869,0.458 1.884,1.884 0 0 0 -0.335,1.142 V 16.1 h -2.16 v -4.032 q 0,-1.482 -1.1,-1.483 a 1.059,1.059 0 0 0 -0.886,0.437 1.926,1.926 0 0 0 -0.331,1.19 V 16.1 h -2.16 v -7 h 2.16 v 1.1 h 0.027 a 2.654,2.654 0 0 1 2.263,-1.264 2.016,2.016 0 0 1 2.03,1.305 2.59,2.59 0 0 1 2.352,-1.305 q 2.281,0 2.283,2.816 z"
       fill="#2f2f2f"
       id="path932" />
    <path
       d="m 330.655,16.1 h -2.043 v -1 h -0.028 a 2.284,2.284 0 0 1 -2.085,1.175 2.18,2.18 0 0 1 -1.6,-0.577 2.069,2.069 0 0 1 -0.584,-1.542 q 0,-2.037 2.413,-2.351 l 1.9,-0.253 q 0,-1.149 -1.244,-1.149 a 4.246,4.246 0 0 0 -2.379,0.746 v -1.63 a 5.372,5.372 0 0 1 1.234,-0.411 6.513,6.513 0 0 1 1.425,-0.177 q 2.994,0 2.994,2.987 z m -2.03,-2.844 v -0.472 l -1.271,0.164 q -1.053,0.138 -1.053,0.95 a 0.784,0.784 0 0 0 0.256,0.605 0.982,0.982 0 0 0 0.694,0.236 1.28,1.28 0 0 0 0.991,-0.42 1.52,1.52 0 0 0 0.383,-1.061 z"
       fill="#2f2f2f"
       id="path934" />
    <path
       d="m 333.426,7.994 a 1.261,1.261 0 0 1 -0.9,-0.325 1.045,1.045 0 0 1 -0.348,-0.8 1.009,1.009 0 0 1 0.348,-0.793 1.46,1.46 0 0 1 1.794,0 1.011,1.011 0 0 1 0.346,0.793 1.041,1.041 0 0 1 -0.346,0.807 1.282,1.282 0 0 1 -0.894,0.318 z m 1.066,8.108 h -2.16 v -7 h 2.16 z"
       fill="#2f2f2f"
       id="path936" />
    <path
       d="m 343.039,16.1 h -2.153 v -3.89 q 0,-1.627 -1.162,-1.627 a 1.153,1.153 0 0 0 -0.923,0.431 1.636,1.636 0 0 0 -0.362,1.093 V 16.1 h -2.161 v -7 h 2.161 v 1.107 h 0.027 a 2.476,2.476 0 0 1 2.249,-1.278 q 2.324,0 2.324,2.884 z"
       fill="#2f2f2f"
       id="path938" />
    <path
       d="m 298.426,32.648 a 4.262,4.262 0 0 1 -2.112,0.424 3.569,3.569 0 0 1 -2.614,-0.972 3.375,3.375 0 0 1 -1,-2.523 3.717,3.717 0 0 1 1.07,-2.813 3.952,3.952 0 0 1 2.86,-1.029 3.666,3.666 0 0 1 1.791,0.329 v 1.832 a 2.455,2.455 0 0 0 -1.51,-0.506 1.99,1.99 0 0 0 -1.473,0.543 2.028,2.028 0 0 0 -0.544,1.5 1.992,1.992 0 0 0 0.52,1.459 1.908,1.908 0 0 0 1.428,0.53 2.844,2.844 0 0 0 1.579,-0.506 z"
       fill="#2f2f2f"
       id="path940" />
    <path
       d="m 303.156,33.072 a 3.762,3.762 0 0 1 -2.751,-0.981 3.553,3.553 0 0 1 -1,-2.662 3.557,3.557 0 0 1 1.04,-2.718 3.928,3.928 0 0 1 2.809,-0.981 3.723,3.723 0 0 1 2.735,0.981 3.491,3.491 0 0 1 0.991,2.6 3.7,3.7 0 0 1 -1.022,2.755 3.807,3.807 0 0 1 -2.802,1.006 z m 0.055,-5.687 a 1.439,1.439 0 0 0 -1.189,0.526 2.319,2.319 0 0 0 -0.424,1.49 q 0,2.017 1.627,2.017 1.551,0 1.552,-2.071 0,-1.962 -1.566,-1.962 z"
       fill="#2f2f2f"
       id="path942" />
    <path
       d="m 315.119,32.9 h -2.153 v -3.888 q 0,-1.628 -1.163,-1.627 a 1.151,1.151 0 0 0 -0.922,0.43 1.641,1.641 0 0 0 -0.363,1.094 V 32.9 h -2.16 v -7 h 2.16 v 1.108 h 0.028 A 2.476,2.476 0 0 1 312.8,25.73 q 2.323,0 2.324,2.885 z"
       fill="#2f2f2f"
       id="path944" />
    <path
       d="m 320.968,32.819 a 3.185,3.185 0 0 1 -1.442,0.253 q -2.283,0 -2.284,-2.372 v -3.206 h -1.134 V 25.9 h 1.134 v -1.51 l 2.154,-0.616 V 25.9 h 1.572 v 1.593 H 319.4 v 2.83 q 0,1.093 0.868,1.094 a 1.463,1.463 0 0 0 0.7,-0.2 z"
       fill="#2f2f2f"
       id="path946" />
    <path
       d="m 326.884,27.85 a 1.867,1.867 0 0 0 -0.909,-0.212 1.312,1.312 0 0 0 -1.1,0.516 2.259,2.259 0 0 0 -0.4,1.405 V 32.9 h -2.16 v -7 h 2.16 v 1.3 h 0.027 a 1.869,1.869 0 0 1 1.846,-1.422 1.4,1.4 0 0 1 0.533,0.082 z"
       fill="#2f2f2f"
       id="path948" />
    <path
       d="m 331.311,33.072 a 3.764,3.764 0 0 1 -2.752,-0.981 3.556,3.556 0 0 1 -1,-2.662 3.553,3.553 0 0 1 1.039,-2.718 3.928,3.928 0 0 1 2.809,-0.981 3.722,3.722 0 0 1 2.735,0.981 3.491,3.491 0 0 1 0.991,2.6 3.7,3.7 0 0 1 -1.022,2.755 3.806,3.806 0 0 1 -2.8,1.006 z m 0.054,-5.687 a 1.439,1.439 0 0 0 -1.189,0.526 2.319,2.319 0 0 0 -0.424,1.49 q 0,2.017 1.627,2.017 1.551,0 1.552,-2.071 0,-1.962 -1.566,-1.962 z"
       fill="#2f2f2f"
       id="path950" />
    <path
       d="m 338.688,32.9 h -2.16 V 22.538 h 2.16 z"
       fill="#2f2f2f"
       id="path952" />
    <path
       d="m 342.612,32.9 h -2.161 V 22.538 h 2.161 z"
       fill="#2f2f2f"
       id="path954" />
    <path
       d="m 350.728,30.017 h -4.567 q 0.109,1.524 1.921,1.524 a 3.748,3.748 0 0 0 2.03,-0.547 v 1.559 a 5.337,5.337 0 0 1 -2.522,0.519 3.257,3.257 0 0 1 -3.568,-3.561 3.748,3.748 0 0 1 1.011,-2.762 3.371,3.371 0 0 1 2.489,-1.019 3.059,3.059 0 0 1 2.368,0.91 3.5,3.5 0 0 1 0.838,2.467 z m -2,-1.327 q 0,-1.5 -1.217,-1.5 a 1.161,1.161 0 0 0 -0.9,0.43 1.949,1.949 0 0 0 -0.461,1.073 z"
       fill="#2f2f2f"
       id="path956" />
    <path
       d="m 356.658,27.85 a 1.861,1.861 0 0 0 -0.909,-0.212 1.309,1.309 0 0 0 -1.1,0.516 2.253,2.253 0 0 0 -0.4,1.405 V 32.9 h -2.16 v -7 h 2.16 v 1.3 h 0.027 a 1.87,1.87 0 0 1 1.846,-1.422 1.4,1.4 0 0 1 0.533,0.082 z"
       fill="#2f2f2f"
       id="path958" />
  </g>
  <g
     id="g986">
    <path
       d="m 296.56,281.4 h -1.121 v -4.019 a 3.034,3.034 0 0 0 -0.359,-1.682 1.362,1.362 0 0 0 -1.207,-0.519 1.493,1.493 0 0 0 -1.22,0.656 2.508,2.508 0 0 0 -0.5,1.572 v 3.992 h -1.122 v -4.156 q 0,-2.064 -1.592,-2.064 a 1.477,1.477 0 0 0 -1.217,0.618 2.561,2.561 0 0 0 -0.479,1.61 v 3.992 h -1.123 v -7 h 1.121 v 1.108 h 0.028 a 2.377,2.377 0 0 1 2.174,-1.272 2.033,2.033 0 0 1 1.251,0.4 2.012,2.012 0 0 1 0.731,1.05 2.5,2.5 0 0 1 2.324,-1.45 q 2.312,0 2.311,2.851 z"
       fill="#2f2f2f"
       id="path962" />
    <path
       d="m 298.212,281.147 v -1.2 a 3.309,3.309 0 0 0 2.016,0.677 q 1.478,0 1.477,-0.984 a 0.848,0.848 0 0 0 -0.127,-0.475 1.272,1.272 0 0 0 -0.341,-0.346 2.7,2.7 0 0 0 -0.506,-0.27 c -0.194,-0.079 -0.4,-0.163 -0.626,-0.249 a 7.918,7.918 0 0 1 -0.817,-0.373 2.448,2.448 0 0 1 -0.588,-0.424 1.559,1.559 0 0 1 -0.355,-0.536 1.894,1.894 0 0 1 -0.12,-0.7 1.669,1.669 0 0 1 0.226,-0.872 2,2 0 0 1 0.6,-0.636 2.844,2.844 0 0 1 0.858,-0.386 3.836,3.836 0 0 1 0.995,-0.13 4.012,4.012 0 0 1 1.627,0.315 v 1.135 a 3.166,3.166 0 0 0 -1.777,-0.506 2.117,2.117 0 0 0 -0.568,0.071 1.415,1.415 0 0 0 -0.434,0.2 0.95,0.95 0 0 0 -0.28,0.311 0.821,0.821 0 0 0 -0.1,0.4 0.961,0.961 0 0 0 0.1,0.458 1.016,1.016 0 0 0 0.29,0.328 2.25,2.25 0 0 0 0.465,0.26 c 0.182,0.078 0.39,0.162 0.622,0.253 a 8.594,8.594 0 0 1 0.834,0.366 2.854,2.854 0 0 1 0.629,0.423 1.65,1.65 0 0 1 0.4,0.544 1.759,1.759 0 0 1 0.14,0.731 1.724,1.724 0 0 1 -0.229,0.9 1.952,1.952 0 0 1 -0.612,0.635 2.793,2.793 0 0 1 -0.881,0.376 4.362,4.362 0 0 1 -1.046,0.123 3.967,3.967 0 0 1 -1.872,-0.419 z"
       fill="#2f2f2f"
       id="path964" />
    <path
       d="m 304.138,281.147 v -1.2 a 3.313,3.313 0 0 0 2.016,0.677 q 1.478,0 1.477,-0.984 a 0.856,0.856 0 0 0 -0.126,-0.475 1.29,1.29 0 0 0 -0.342,-0.346 2.665,2.665 0 0 0 -0.506,-0.27 c -0.194,-0.079 -0.4,-0.163 -0.626,-0.249 a 7.8,7.8 0 0 1 -0.816,-0.373 2.429,2.429 0 0 1 -0.588,-0.424 1.562,1.562 0 0 1 -0.356,-0.536 1.915,1.915 0 0 1 -0.119,-0.7 1.678,1.678 0 0 1 0.225,-0.872 2.006,2.006 0 0 1 0.6,-0.636 2.822,2.822 0 0 1 0.858,-0.386 3.823,3.823 0 0 1 0.994,-0.13 4.009,4.009 0 0 1 1.627,0.315 v 1.135 a 3.164,3.164 0 0 0 -1.777,-0.506 2.117,2.117 0 0 0 -0.568,0.071 1.415,1.415 0 0 0 -0.434,0.2 0.95,0.95 0 0 0 -0.28,0.311 0.821,0.821 0 0 0 -0.1,0.4 0.961,0.961 0 0 0 0.1,0.458 1.008,1.008 0 0 0 0.291,0.328 2.215,2.215 0 0 0 0.464,0.26 c 0.183,0.078 0.39,0.162 0.623,0.253 a 8.7,8.7 0 0 1 0.834,0.366 2.846,2.846 0 0 1 0.628,0.423 1.65,1.65 0 0 1 0.4,0.544 1.743,1.743 0 0 1 0.14,0.731 1.724,1.724 0 0 1 -0.229,0.9 1.949,1.949 0 0 1 -0.611,0.635 2.808,2.808 0 0 1 -0.882,0.376 4.356,4.356 0 0 1 -1.046,0.123 3.972,3.972 0 0 1 -1.871,-0.419 z"
       fill="#2f2f2f"
       id="path966" />
    <path
       d="m 316.456,284.62 h -1.121 v -4.42 h -0.028 a 2.506,2.506 0 0 1 -2.392,1.367 2.636,2.636 0 0 1 -2.116,-0.939 3.835,3.835 0 0 1 -0.8,-2.561 4.187,4.187 0 0 1 0.875,-2.785 2.912,2.912 0 0 1 2.351,-1.043 2.208,2.208 0 0 1 2.078,1.135 h 0.028 V 274.4 h 1.121 z m -1.121,-6.371 v -1.019 a 2.038,2.038 0 0 0 -0.564,-1.456 1.89,1.89 0 0 0 -1.432,-0.594 1.925,1.925 0 0 0 -1.6,0.748 3.341,3.341 0 0 0 -0.588,2.109 2.9,2.9 0 0 0 0.567,1.9 1.812,1.812 0 0 0 1.463,0.687 1.973,1.973 0 0 0 1.569,-0.673 2.5,2.5 0 0 0 0.585,-1.702 z"
       fill="#2f2f2f"
       id="path968" />
    <path
       d="m 319.683,281.4 h -1.121 v -10.363 h 1.121 z"
       fill="#2f2f2f"
       id="path970" />
    <path
       d="m 322.29,281.551 a 0.723,0.723 0 0 1 -0.536,-0.226 0.742,0.742 0 0 1 -0.223,-0.54 0.756,0.756 0 0 1 0.223,-0.543 0.719,0.719 0 0 1 0.536,-0.229 0.736,0.736 0 0 1 0.547,0.229 0.751,0.751 0 0 1 0.226,0.543 0.772,0.772 0 0 1 -0.773,0.766 z"
       fill="#2f2f2f"
       id="path972" />
    <path
       d="m 330.7,281.4 h -1.573 l -3.09,-3.363 h -0.027 v 3.363 h -1.121 v -10.363 h 1.121 v 6.569 h 0.027 l 2.94,-3.206 h 1.47 l -3.247,3.377 z"
       fill="#2f2f2f"
       id="path974" />
    <path
       d="m 337.119,278.181 h -4.942 a 2.61,2.61 0 0 0 0.629,1.8 2.165,2.165 0 0 0 1.654,0.636 3.444,3.444 0 0 0 2.174,-0.779 v 1.062 a 4.067,4.067 0 0 1 -2.44,0.669 2.958,2.958 0 0 1 -2.332,-0.953 3.9,3.9 0 0 1 -0.847,-2.683 3.825,3.825 0 0 1 0.926,-2.663 2.97,2.97 0 0 1 2.3,-1.029 2.634,2.634 0 0 1 2.126,0.889 3.706,3.706 0 0 1 0.752,2.468 z m -1.148,-0.951 a 2.28,2.28 0 0 0 -0.469,-1.51 1.593,1.593 0 0 0 -1.281,-0.54 1.811,1.811 0 0 0 -1.347,0.567 2.572,2.572 0 0 0 -0.683,1.483 z"
       fill="#2f2f2f"
       id="path976" />
    <path
       d="m 344.319,274.4 -3.22,8.121 q -0.861,2.175 -2.42,2.174 a 2.541,2.541 0 0 1 -0.732,-0.089 v -1 a 2.079,2.079 0 0 0 0.664,0.123 1.376,1.376 0 0 0 1.271,-1.012 l 0.561,-1.326 -2.735,-6.987 h 1.244 l 1.894,5.387 q 0.033,0.1 0.143,0.533 h 0.041 q 0.035,-0.163 0.137,-0.519 l 1.989,-5.4 z"
       fill="#2f2f2f"
       id="path978" />
    <path
       d="m 349.237,281.332 a 2.164,2.164 0 0 1 -1.046,0.219 q -1.84,0 -1.839,-2.051 v -4.143 h -1.2 V 274.4 h 1.2 v -1.709 l 1.121,-0.362 v 2.071 h 1.764 v 0.957 h -1.764 v 3.943 a 1.634,1.634 0 0 0 0.239,1 0.956,0.956 0 0 0 0.793,0.3 1.183,1.183 0 0 0 0.732,-0.232 z"
       fill="#2f2f2f"
       id="path980" />
    <path
       d="m 355.854,281.4 h -1.121 v -1.093 h -0.028 a 2.348,2.348 0 0 1 -2.153,1.257 2.305,2.305 0 0 1 -1.638,-0.553 1.922,1.922 0 0 1 -0.591,-1.47 q 0,-1.962 2.311,-2.283 l 2.1,-0.294 q 0,-1.785 -1.443,-1.784 a 3.445,3.445 0 0 0 -2.283,0.861 v -1.148 a 4.331,4.331 0 0 1 2.379,-0.657 q 2.466,0 2.468,2.612 z m -1.121,-3.541 -1.689,0.233 a 2.739,2.739 0 0 0 -1.176,0.386 1.116,1.116 0 0 0 -0.4,0.981 1.069,1.069 0 0 0 0.365,0.837 1.411,1.411 0 0 0 0.975,0.325 1.8,1.8 0 0 0 1.377,-0.584 2.091,2.091 0 0 0 0.544,-1.48 z"
       fill="#2f2f2f"
       id="path982" />
    <path
       d="M 359.023,280.389 H 359 v 1.011 h -1.121 V 271.037 H 359 v 4.594 h 0.028 a 2.65,2.65 0 0 1 2.42,-1.395 2.569,2.569 0 0 1 2.109,0.94 3.884,3.884 0 0 1 0.762,2.519 4.335,4.335 0 0 1 -0.855,2.813 2.843,2.843 0 0 1 -2.338,1.056 2.3,2.3 0 0 1 -2.103,-1.175 z M 359,277.565 v 0.978 a 2.081,2.081 0 0 0 0.565,1.473 2.012,2.012 0 0 0 3.028,-0.174 3.577,3.577 0 0 0 0.577,-2.167 2.817,2.817 0 0 0 -0.54,-1.832 1.785,1.785 0 0 0 -1.463,-0.663 1.986,1.986 0 0 0 -1.572,0.68 2.5,2.5 0 0 0 -0.595,1.705 z"
       fill="#2f2f2f"
       id="path984" />
  </g>
  <g
     id="g994">
    <path
       d="m 123.352,40.841 h -2.83 v 8.764 h -1.148 V 40.841 H 116.55 V 39.8 h 6.8 z"
       fill="#2f2f2f"
       id="path988" />
    <path
       d="m 131.658,48.935 a 6.554,6.554 0 0 1 -3.281,0.834 4.485,4.485 0 0 1 -3.394,-1.353 4.965,4.965 0 0 1 -1.3,-3.583 5.094,5.094 0 0 1 1.439,-3.735 4.9,4.9 0 0 1 3.647,-1.46 6.208,6.208 0 0 1 2.686,0.52 v 1.271 a 5.162,5.162 0 0 0 -2.816,-0.752 3.519,3.519 0 0 0 -2.7,1.135 4.741,4.741 0 0 0 -0.076,5.862 3.43,3.43 0 0 0 2.653,1.063 4.1,4.1 0 0 0 1.989,-0.458 v -2.748 h -2.147 v -1.039 h 3.295 z"
       fill="#2f2f2f"
       id="path990" />
    <path
       d="m 139.622,40.841 h -2.83 v 8.764 h -1.148 V 40.841 H 132.82 V 39.8 h 6.8 z"
       fill="#2f2f2f"
       id="path992" />
  </g>
  <g
     id="g1002">
    <path
       d="m 152.476,49.208 v -1.353 a 2.616,2.616 0 0 0 0.557,0.369 4.571,4.571 0 0 0 0.684,0.277 5.439,5.439 0 0 0 0.721,0.174 4.032,4.032 0 0 0 0.67,0.062 2.626,2.626 0 0 0 1.583,-0.393 1.473,1.473 0 0 0 0.348,-1.822 1.966,1.966 0 0 0 -0.482,-0.537 4.717,4.717 0 0 0 -0.728,-0.464 q -0.42,-0.222 -0.905,-0.469 -0.513,-0.26 -0.958,-0.526 a 4.179,4.179 0 0 1 -0.772,-0.588 2.441,2.441 0 0 1 -0.516,-0.728 2.481,2.481 0 0 1 0.106,-2.119 2.513,2.513 0 0 1 0.772,-0.817 3.514,3.514 0 0 1 1.091,-0.479 4.973,4.973 0 0 1 1.247,-0.157 4.772,4.772 0 0 1 2.113,0.349 v 1.292 a 3.831,3.831 0 0 0 -2.229,-0.6 3.7,3.7 0 0 0 -0.752,0.079 2.132,2.132 0 0 0 -0.67,0.256 1.485,1.485 0 0 0 -0.478,0.458 1.218,1.218 0 0 0 -0.185,0.684 1.412,1.412 0 0 0 0.14,0.649 1.59,1.59 0 0 0 0.414,0.5 4.045,4.045 0 0 0 0.666,0.438 q 0.393,0.211 0.906,0.465 0.513,0.254 1,0.546 a 4.589,4.589 0 0 1 0.827,0.636 2.829,2.829 0 0 1 0.564,0.773 2.169,2.169 0 0 1 0.209,0.97 2.463,2.463 0 0 1 -0.284,1.227 2.316,2.316 0 0 1 -0.766,0.817 3.323,3.323 0 0 1 -1.11,0.455 6.121,6.121 0 0 1 -1.327,0.14 5.45,5.45 0 0 1 -0.574,-0.038 c -0.228,-0.024 -0.46,-0.061 -0.7,-0.109 a 5.6,5.6 0 0 1 -0.673,-0.178 2.068,2.068 0 0 1 -0.509,-0.239 z"
       fill="#2f2f2f"
       id="path996" />
    <path
       d="m 161.31,45.9 v 3.7 h -1.148 v -9.8 h 2.693 a 3.557,3.557 0 0 1 2.437,0.766 2.731,2.731 0 0 1 0.865,2.16 2.967,2.967 0 0 1 -0.961,2.283 3.665,3.665 0 0 1 -2.594,0.889 z m 0,-5.059 v 4.02 h 1.2 a 2.686,2.686 0 0 0 1.815,-0.544 1.924,1.924 0 0 0 0.626,-1.534 q 0,-1.943 -2.3,-1.942 z"
       fill="#2f2f2f"
       id="path998" />
    <path
       d="M 175.612,49.605 H 174.2 l -5.045,-7.813 a 3.28,3.28 0 0 1 -0.314,-0.616 H 168.8 a 9.988,9.988 0 0 1 0.055,1.347 v 7.082 H 167.71 V 39.8 h 1.49 l 4.909,7.691 c 0.2,0.319 0.337,0.537 0.4,0.656 h 0.027 a 10.478,10.478 0 0 1 -0.068,-1.442 V 39.8 h 1.148 z"
       fill="#2f2f2f"
       id="path1000" />
  </g>
  <text
     xml:space="preserve"
     style="font-style:normal;font-weight:normal;font-size:13.3333px;line-height:0.25;font-family:sans-serif;letter-spacing:0.4px;fill:#000000;fill-opacity:1;stroke:none"
     x="17.786802"
     y="16.205183"
     id="text10820"><tspan
       sodipodi:role="line"
       id="tspan10818"
       x="17.786802"
       y="16.205183"
       style="font-style:normal;font-variant:normal;font-weight:bold;font-stretch:normal;font-size:13.3333px;font-family:Tahoma;-inkscape-font-specification:'Tahoma Bold'"
       dx="0.02">Client</tspan></text>
</svg>
