<?xml version="1.0" encoding="utf-8"?>
<!-- Generator: Adobe Illustrator 28.3.0, SVG Export Plug-In . SVG Version: 6.00 Build 0)  -->
<svg version="1.1" xmlns="http://www.w3.org/2000/svg" xmlns:xlink="http://www.w3.org/1999/xlink" x="0px" y="0px"
	 viewBox="0 0 501.6 303.6" enable-background="new 0 0 501.6 303.6" xml:space="preserve">
<symbol  id="PIPELINE" viewBox="-32 -12.266 64 24.531">
	<linearGradient id="SVGID_1_" gradientUnits="userSpaceOnUse" x1="0" y1="-12.2655" x2="1.502093e-15" y2="12.2655">
		<stop  offset="0" style="stop-color:#1B89B2"/>
		<stop  offset="1" style="stop-color:#51C8E8"/>
	</linearGradient>
	<path fill="url(#SVGID_1_)" d="M26.096,12.266h-51.448v0h0C-29.08,12.265-32,6.878-32,0s2.92-12.265,6.648-12.265h0v0h51.448
		C29.356-12.266,32-6.363,32,0S29.356,12.266,26.096,12.266z"/>
	<g>
		
			<linearGradient id="SVGID_00000011713694540433264590000002341093624097066881_" gradientUnits="userSpaceOnUse" x1="-31.461" y1="-6.1136" x2="-19.2338" y2="6.1136">
			<stop  offset="0" style="stop-color:#B3B4B4"/>
			<stop  offset="1" style="stop-color:#4F4F4F"/>
		</linearGradient>
		<ellipse fill="url(#SVGID_00000011713694540433264590000002341093624097066881_)" cx="-25.347" cy="0" rx="5.575" ry="10.879"/>
	</g>
</symbol>
<g id="Shapes">
	<rect fill="#FFFFFF" width="501.6" height="303.6"/>
	<g id="Wrench_tool_x28_s_x29_">
	</g>
	<g id="user2">
	</g>
	<g id="user2_1_">
	</g>
	<g id="user2_4_">
	</g>
	<g id="user2_3_">
	</g>
	<g id="user2_2_">
	</g>
	<g id="Internet_2">
	</g>
	<g id="Enterprise">
	</g>
	<g id="Tunnel__x28_stackable_x29_">
	</g>
	<g id="New_Symbol">
	</g>
	<g id="New_Symbol_1">
	</g>
	<g id="Files">
	</g>
	<g id="BlobBlock">
	</g>
	<g id="E_x5F_Enterprise">
	</g>
	<g id="E_x5F_AD_FS">
	</g>
	<g id="C_x5F_Azure_Active_Directory">
	</g>
	<g>
		<g opacity="0.23">
			<rect x="18.6" y="40.6" width="250.8" height="246.4"/>
		</g>
		<g>
			<rect x="17.6" y="39.6" fill="#D7D2CB" width="250.8" height="246.4"/>
		</g>
	</g>
	<g>
		<g opacity="0.23">
			<rect x="283.426" y="80.2" width="199.1" height="39.6"/>
			<rect x="283.426" y="80.2" opacity="0.25" width="199.1" height="39.6"/>
		</g>
		<g>
			<rect x="282.426" y="79.2" fill="#FFFFFF" width="199.1" height="39.6"/>
			<rect x="282.426" y="79.2" opacity="0.25" fill="#FFE452" width="199.1" height="39.6"/>
		</g>
	</g>
	<g>
		<g opacity="0.23">
			<rect x="31.8" y="53.8" width="224.4" height="48.4"/>
		</g>
		<g>
			<rect x="30.8" y="52.8" fill="#FFFFFF" width="224.4" height="48.4"/>
		</g>
	</g>
	<g>
		<g opacity="0.23">
			<rect x="31.8" y="111" width="224.4" height="48.4"/>
		</g>
		<g>
			<rect x="30.8" y="110" fill="#FFFFFF" width="224.4" height="48.4"/>
		</g>
	</g>
	<g>
		<g opacity="0.23">
			<rect x="31.8" y="168.2" width="224.4" height="48.4"/>
		</g>
		<g>
			<rect x="30.8" y="167.2" fill="#FFFFFF" width="224.4" height="48.4"/>
		</g>
	</g>
	<g>
		<g opacity="0.23">
			<rect x="31.8" y="225.4" width="224.4" height="48.4"/>
		</g>
		<g>
			<rect x="30.8" y="224.4" fill="#FFFFFF" width="224.4" height="48.4"/>
		</g>
	</g>
	<g id="a6736b46-5abc-4b60-9819-eb5a3df3404e_00000113321795066966400810000011498076557494006167_">
		<path fill="#5EA0EF" d="M69.415,88.477c-0.267,1.167-1.725,2.318-4.362,3.215c-6.595,1.939-13.608,1.949-20.208,0.028
			c-2.428-0.857-3.738-1.95-3.943-3.067c-0.037-0.197,0-3.277,0-3.277l28.56-0.267C69.462,85.11,69.448,88.335,69.415,88.477z"/>
		
			<ellipse transform="matrix(0.9999 -0.01 0.01 0.9999 -0.8533 0.5579)" fill="#50E6FF" cx="55.168" cy="85.31" rx="14.293" ry="4.942"/>
		
			<linearGradient id="SVGID_00000118380922295946520900000016187003123302625185_" gradientUnits="userSpaceOnUse" x1="55.1667" y1="-94.8" x2="55.1667" y2="-78.7533" gradientTransform="matrix(1 0 0 -1 0 -15.6)">
			<stop  offset="0" style="stop-color:#0078D4"/>
			<stop  offset="0.82" style="stop-color:#5EA0EF"/>
		</linearGradient>
		<path fill="url(#SVGID_00000118380922295946520900000016187003123302625185_)" d="M43.933,63.153H66.4
			c0.443,0,0.802,0.359,0.802,0.802v14.443c0,0.443-0.359,0.802-0.802,0.802H43.933c-0.443,0-0.802-0.359-0.802-0.802V63.955
			C43.132,63.512,43.491,63.153,43.933,63.153z"/>
		
			<linearGradient id="SVGID_00000183235216238064327210000003241572377278015360_" gradientUnits="userSpaceOnUse" x1="55.1667" y1="-100.9867" x2="55.1667" y2="-94.8" gradientTransform="matrix(1 0 0 -1 0 -15.6)">
			<stop  offset="0.151" style="stop-color:#CCCCCC"/>
			<stop  offset="1" style="stop-color:#707070"/>
		</linearGradient>
		<path fill="url(#SVGID_00000183235216238064327210000003241572377278015360_)" d="M60,84.053c-2.38-0.373-2.473-2.085-2.473-4.853
			H52.8c0,2.768-0.08,4.48-2.46,4.853c-0.68,0.074-1.194,0.649-1.19,1.333h12.033C61.188,84.705,60.677,84.13,60,84.053z"/>
		<path fill="#FFFFFF" d="M60.5,72.395v-4.98h-1.433v6.082h3.62v-1.102H60.5z M50,69.933c-0.271-0.11-0.525-0.261-0.752-0.447
			c-0.127-0.129-0.194-0.306-0.185-0.487c-0.005-0.178,0.081-0.345,0.228-0.445c0.182-0.118,0.398-0.173,0.615-0.157
			c0.508-0.016,1.008,0.132,1.427,0.422v-1.263c-0.457-0.165-0.941-0.245-1.427-0.237c-0.581-0.027-1.153,0.149-1.617,0.5
			c-0.398,0.318-0.622,0.807-0.602,1.317c0.027,0.79,0.523,1.488,1.26,1.775c0.325,0.13,0.629,0.308,0.902,0.528
			c0.147,0.113,0.231,0.288,0.228,0.473c0.001,0.18-0.084,0.35-0.228,0.458c-0.178,0.119-0.387,0.183-0.602,0.185
			c-0.593-0.006-1.163-0.23-1.602-0.63v1.427c0.487,0.245,1.028,0.363,1.573,0.343c0.623,0.007,1.231-0.189,1.732-0.558
			c0.418-0.318,0.653-0.82,0.63-1.345c0.018-0.379-0.116-0.75-0.372-1.03C50.867,70.407,50.456,70.125,50,69.933z M57.642,72.28
			c0.336-0.561,0.505-1.206,0.487-1.86c0.008-0.561-0.12-1.117-0.372-1.618c-0.23-0.459-0.588-0.841-1.03-1.102
			c-0.439-0.247-0.934-0.378-1.438-0.38c-0.555-0.007-1.103,0.132-1.588,0.402c-0.468,0.265-0.847,0.664-1.088,1.145
			c-0.286,0.515-0.439,1.093-0.445,1.682c-0.006,0.535,0.112,1.063,0.343,1.545c0.232,0.45,0.584,0.827,1.017,1.088
			c0.432,0.263,0.924,0.411,1.43,0.43l1.26,1.43H58l-1.732-1.667c0.571-0.192,1.055-0.58,1.367-1.095H57.642z M56.212,71.908
			c-0.268,0.342-0.683,0.533-1.117,0.515c-0.437,0.02-0.856-0.179-1.117-0.53c-0.305-0.412-0.457-0.918-0.43-1.43
			c-0.024-0.512,0.128-1.017,0.43-1.432c0.279-0.345,0.702-0.541,1.145-0.53c0.433-0.021,0.847,0.179,1.102,0.53
			c0.285,0.422,0.425,0.924,0.402,1.432c0.057,0.509-0.07,1.021-0.358,1.445L56.212,71.908z"/>
	</g>
	<g id="a6736b46-5abc-4b60-9819-eb5a3df3404e_00000172434645384515729410000016684476359525648304_">
		<path fill="#5EA0EF" d="M69.415,259.323c-0.267,1.167-1.725,2.318-4.362,3.215c-6.595,1.939-13.608,1.949-20.208,0.028
			c-2.428-0.857-3.738-1.95-3.943-3.067c-0.037-0.197,0-3.277,0-3.277l28.56-0.267C69.462,255.957,69.448,259.182,69.415,259.323z"
			/>
		
			<ellipse transform="matrix(0.9999 -0.01 0.01 0.9999 -2.5679 0.5665)" fill="#50E6FF" cx="55.168" cy="256.157" rx="14.293" ry="4.942"/>
		
			<linearGradient id="SVGID_00000003783234438502675210000013681575292041521801_" gradientUnits="userSpaceOnUse" x1="55.1667" y1="-265.6467" x2="55.1667" y2="-249.6" gradientTransform="matrix(1 0 0 -1 0 -15.6)">
			<stop  offset="0" style="stop-color:#0078D4"/>
			<stop  offset="0.82" style="stop-color:#5EA0EF"/>
		</linearGradient>
		<path fill="url(#SVGID_00000003783234438502675210000013681575292041521801_)" d="M43.933,234H66.4
			c0.443,0,0.802,0.359,0.802,0.802v14.443c0,0.443-0.359,0.802-0.802,0.802H43.933c-0.443,0-0.802-0.359-0.802-0.802v-14.443
			C43.132,234.359,43.491,234,43.933,234z"/>
		
			<linearGradient id="SVGID_00000177467697694739232390000003241407218973645993_" gradientUnits="userSpaceOnUse" x1="55.1667" y1="-271.8333" x2="55.1667" y2="-265.6467" gradientTransform="matrix(1 0 0 -1 0 -15.6)">
			<stop  offset="0.151" style="stop-color:#CCCCCC"/>
			<stop  offset="1" style="stop-color:#707070"/>
		</linearGradient>
		<path fill="url(#SVGID_00000177467697694739232390000003241407218973645993_)" d="M60,254.9c-2.38-0.373-2.473-2.085-2.473-4.853
			H52.8c0,2.768-0.08,4.48-2.46,4.853c-0.68,0.074-1.194,0.649-1.19,1.333h12.033C61.188,255.552,60.677,254.977,60,254.9z"/>
		<path fill="#FFFFFF" d="M60.5,243.242v-4.98h-1.433v6.082h3.62v-1.102H60.5z M50,240.78c-0.271-0.11-0.525-0.261-0.752-0.447
			c-0.127-0.129-0.194-0.306-0.185-0.487c-0.005-0.178,0.081-0.345,0.228-0.445c0.182-0.118,0.398-0.173,0.615-0.157
			c0.508-0.016,1.008,0.132,1.427,0.422v-1.263c-0.457-0.165-0.941-0.245-1.427-0.237c-0.581-0.027-1.153,0.149-1.617,0.5
			c-0.398,0.318-0.622,0.807-0.602,1.317c0.027,0.79,0.523,1.488,1.26,1.775c0.325,0.13,0.629,0.308,0.902,0.528
			c0.147,0.113,0.231,0.288,0.228,0.473c0.001,0.18-0.084,0.35-0.228,0.458c-0.178,0.119-0.387,0.183-0.602,0.185
			c-0.593-0.006-1.163-0.23-1.602-0.63v1.427c0.487,0.245,1.028,0.363,1.573,0.343c0.623,0.007,1.231-0.189,1.732-0.558
			c0.418-0.318,0.653-0.82,0.63-1.345c0.018-0.379-0.116-0.75-0.372-1.03C50.867,241.254,50.456,240.971,50,240.78z M57.642,243.127
			c0.336-0.561,0.505-1.206,0.487-1.86c0.008-0.561-0.12-1.117-0.372-1.618c-0.23-0.459-0.588-0.841-1.03-1.102
			c-0.439-0.247-0.934-0.378-1.438-0.38c-0.555-0.007-1.103,0.132-1.588,0.402c-0.468,0.265-0.847,0.664-1.088,1.145
			c-0.286,0.515-0.439,1.093-0.445,1.682c-0.006,0.535,0.112,1.063,0.343,1.545c0.232,0.45,0.584,0.827,1.017,1.088
			c0.432,0.263,0.924,0.411,1.43,0.43l1.26,1.43H58l-1.732-1.667c0.571-0.192,1.055-0.58,1.367-1.095H57.642z M56.212,242.755
			c-0.268,0.342-0.683,0.533-1.117,0.515c-0.437,0.02-0.856-0.179-1.117-0.53c-0.305-0.412-0.457-0.918-0.43-1.43
			c-0.024-0.512,0.128-1.017,0.43-1.432c0.279-0.345,0.702-0.541,1.145-0.53c0.433-0.021,0.847,0.179,1.102,0.53
			c0.285,0.422,0.425,0.924,0.402,1.432c0.057,0.509-0.07,1.021-0.358,1.445H56.212z"/>
	</g>
	<g id="a6736b46-5abc-4b60-9819-eb5a3df3404e_00000141417127159644549450000004081973343079177663_">
		<path fill="#5EA0EF" d="M69.415,202.374c-0.267,1.167-1.725,2.318-4.362,3.215c-6.595,1.939-13.608,1.949-20.208,0.028
			c-2.428-0.857-3.738-1.95-3.943-3.067c-0.037-0.197,0-3.277,0-3.277l28.56-0.267C69.462,199.008,69.448,202.233,69.415,202.374z"
			/>
		
			<ellipse transform="matrix(0.9999 -0.01 0.01 0.9999 -1.9964 0.5637)" fill="#50E6FF" cx="55.168" cy="199.208" rx="14.293" ry="4.942"/>
		
			<linearGradient id="SVGID_00000118393339535115977480000012752420520812052383_" gradientUnits="userSpaceOnUse" x1="55.1667" y1="-208.6978" x2="55.1667" y2="-192.6511" gradientTransform="matrix(1 0 0 -1 0 -15.6)">
			<stop  offset="0" style="stop-color:#0078D4"/>
			<stop  offset="0.82" style="stop-color:#5EA0EF"/>
		</linearGradient>
		<path fill="url(#SVGID_00000118393339535115977480000012752420520812052383_)" d="M43.933,177.051H66.4
			c0.443,0,0.802,0.359,0.802,0.802v14.443c0,0.443-0.359,0.802-0.802,0.802H43.933c-0.443,0-0.802-0.359-0.802-0.802v-14.443
			C43.132,177.41,43.491,177.051,43.933,177.051z"/>
		
			<linearGradient id="SVGID_00000026135511128594461410000008326608780894320033_" gradientUnits="userSpaceOnUse" x1="55.1667" y1="-214.8844" x2="55.1667" y2="-208.6978" gradientTransform="matrix(1 0 0 -1 0 -15.6)">
			<stop  offset="0.151" style="stop-color:#CCCCCC"/>
			<stop  offset="1" style="stop-color:#707070"/>
		</linearGradient>
		<path fill="url(#SVGID_00000026135511128594461410000008326608780894320033_)" d="M60,197.951
			c-2.38-0.373-2.473-2.085-2.473-4.853H52.8c0,2.768-0.08,4.48-2.46,4.853c-0.68,0.074-1.194,0.649-1.19,1.333h12.033
			C61.188,198.603,60.677,198.028,60,197.951z"/>
		<path fill="#FFFFFF" d="M60.5,186.293v-4.98h-1.433v6.082h3.62v-1.102H60.5z M50,183.831c-0.271-0.11-0.525-0.261-0.752-0.447
			c-0.127-0.129-0.194-0.306-0.185-0.487c-0.005-0.178,0.081-0.345,0.228-0.445c0.182-0.118,0.398-0.173,0.615-0.157
			c0.508-0.016,1.008,0.132,1.427,0.422v-1.263c-0.457-0.165-0.941-0.245-1.427-0.237c-0.581-0.027-1.153,0.149-1.617,0.5
			c-0.398,0.318-0.622,0.807-0.602,1.317c0.027,0.79,0.523,1.488,1.26,1.775c0.325,0.13,0.629,0.308,0.902,0.528
			c0.147,0.113,0.231,0.288,0.228,0.473c0.001,0.18-0.084,0.35-0.228,0.458c-0.178,0.119-0.387,0.183-0.602,0.185
			c-0.593-0.006-1.163-0.23-1.602-0.63v1.427c0.487,0.245,1.028,0.363,1.573,0.343c0.623,0.007,1.231-0.189,1.732-0.558
			c0.418-0.318,0.653-0.82,0.63-1.345c0.018-0.379-0.116-0.75-0.372-1.03C50.867,184.305,50.456,184.022,50,183.831z
			 M57.642,186.178c0.336-0.561,0.505-1.206,0.487-1.86c0.008-0.561-0.12-1.117-0.372-1.618c-0.23-0.459-0.588-0.841-1.03-1.102
			c-0.439-0.247-0.934-0.378-1.438-0.38c-0.555-0.007-1.103,0.132-1.588,0.402c-0.468,0.265-0.847,0.664-1.088,1.145
			c-0.286,0.515-0.439,1.093-0.445,1.682c-0.006,0.535,0.112,1.063,0.343,1.545c0.232,0.45,0.584,0.827,1.017,1.088
			c0.432,0.263,0.924,0.411,1.43,0.43l1.26,1.43H58l-1.732-1.667c0.571-0.192,1.055-0.58,1.367-1.095H57.642z M56.212,185.806
			c-0.268,0.342-0.683,0.533-1.117,0.515c-0.437,0.02-0.856-0.179-1.117-0.53c-0.305-0.412-0.457-0.918-0.43-1.43
			c-0.024-0.512,0.128-1.017,0.43-1.432c0.279-0.345,0.702-0.541,1.145-0.53c0.433-0.021,0.847,0.179,1.102,0.53
			c0.285,0.422,0.425,0.924,0.402,1.432c0.057,0.509-0.07,1.021-0.358,1.445H56.212z"/>
	</g>
	<g id="a6736b46-5abc-4b60-9819-eb5a3df3404e_00000111882517724139615840000015567044803534616480_">
		<path fill="#5EA0EF" d="M69.415,145.426c-0.267,1.167-1.725,2.318-4.362,3.215c-6.595,1.939-13.608,1.949-20.208,0.028
			c-2.428-0.857-3.738-1.95-3.943-3.067c-0.037-0.197,0-3.277,0-3.277l28.56-0.267C69.462,142.059,69.448,145.284,69.415,145.426z"
			/>
		
			<ellipse transform="matrix(0.9999 -0.01 0.01 0.9999 -1.4249 0.5608)" fill="#50E6FF" cx="55.168" cy="142.259" rx="14.293" ry="4.942"/>
		
			<linearGradient id="SVGID_00000018924499447280738210000001674854418592089479_" gradientUnits="userSpaceOnUse" x1="55.1667" y1="-151.7489" x2="55.1667" y2="-135.7022" gradientTransform="matrix(1 0 0 -1 0 -15.6)">
			<stop  offset="0" style="stop-color:#0078D4"/>
			<stop  offset="0.82" style="stop-color:#5EA0EF"/>
		</linearGradient>
		<path fill="url(#SVGID_00000018924499447280738210000001674854418592089479_)" d="M43.933,120.102H66.4
			c0.443,0,0.802,0.359,0.802,0.802v14.443c0,0.443-0.359,0.802-0.802,0.802H43.933c-0.443,0-0.802-0.359-0.802-0.802v-14.443
			C43.132,120.461,43.491,120.102,43.933,120.102z"/>
		
			<linearGradient id="SVGID_00000106127464152918744320000003849270908787626628_" gradientUnits="userSpaceOnUse" x1="55.1667" y1="-157.9355" x2="55.1667" y2="-151.7489" gradientTransform="matrix(1 0 0 -1 0 -15.6)">
			<stop  offset="0.151" style="stop-color:#CCCCCC"/>
			<stop  offset="1" style="stop-color:#707070"/>
		</linearGradient>
		<path fill="url(#SVGID_00000106127464152918744320000003849270908787626628_)" d="M60,141.002
			c-2.38-0.373-2.473-2.085-2.473-4.853H52.8c0,2.768-0.08,4.48-2.46,4.853c-0.68,0.074-1.194,0.649-1.19,1.333h12.033
			C61.188,141.654,60.677,141.079,60,141.002z"/>
		<path fill="#FFFFFF" d="M60.5,129.344v-4.98h-1.433v6.082h3.62v-1.102H60.5z M50,126.882c-0.271-0.11-0.525-0.261-0.752-0.447
			c-0.127-0.129-0.194-0.306-0.185-0.487c-0.005-0.178,0.081-0.345,0.228-0.445c0.182-0.118,0.398-0.173,0.615-0.157
			c0.508-0.016,1.008,0.132,1.427,0.422v-1.263c-0.457-0.165-0.941-0.245-1.427-0.237c-0.581-0.027-1.153,0.149-1.617,0.5
			c-0.398,0.318-0.622,0.807-0.602,1.317c0.027,0.79,0.523,1.488,1.26,1.775c0.325,0.13,0.629,0.308,0.902,0.528
			c0.147,0.113,0.231,0.288,0.228,0.473c0.001,0.18-0.084,0.35-0.228,0.458c-0.178,0.119-0.387,0.183-0.602,0.185
			c-0.593-0.006-1.163-0.23-1.602-0.63v1.427c0.487,0.245,1.028,0.363,1.573,0.343c0.623,0.007,1.231-0.189,1.732-0.558
			c0.418-0.318,0.653-0.82,0.63-1.345c0.018-0.379-0.116-0.75-0.372-1.03C50.867,127.356,50.456,127.074,50,126.882z
			 M57.642,129.229c0.336-0.561,0.505-1.206,0.487-1.86c0.008-0.561-0.12-1.117-0.372-1.618c-0.23-0.459-0.588-0.841-1.03-1.102
			c-0.439-0.247-0.934-0.378-1.438-0.38c-0.555-0.007-1.103,0.132-1.588,0.402c-0.468,0.265-0.847,0.664-1.088,1.145
			c-0.286,0.515-0.439,1.093-0.445,1.682c-0.006,0.535,0.112,1.063,0.343,1.545c0.232,0.45,0.584,0.827,1.017,1.088
			c0.432,0.263,0.924,0.411,1.43,0.43l1.26,1.43H58l-1.732-1.667c0.571-0.192,1.055-0.58,1.367-1.095H57.642z M56.212,128.857
			c-0.268,0.342-0.683,0.533-1.117,0.515c-0.437,0.02-0.856-0.179-1.117-0.53c-0.305-0.412-0.457-0.918-0.43-1.43
			c-0.024-0.512,0.128-1.017,0.43-1.432c0.279-0.345,0.702-0.541,1.145-0.53c0.433-0.021,0.847,0.179,1.102,0.53
			c0.285,0.422,0.425,0.924,0.402,1.432c0.057,0.509-0.07,1.021-0.358,1.445H56.212z"/>
	</g>
</g>
<g id="Text">
	<g>
		<path fill="#2F2F2F" d="M24.108,20.997v6.18h1.176v1.613h-1.176v2.01h-1.969v-2.01h-4.272v-1.688
			c0.378-0.424,0.77-0.888,1.176-1.391c0.406-0.504,0.797-1.022,1.176-1.556s0.73-1.069,1.056-1.609s0.603-1.057,0.831-1.549H24.108
			z M19.802,27.177h2.338v-3.425c-0.16,0.297-0.333,0.596-0.52,0.899c-0.187,0.303-0.383,0.602-0.588,0.896
			s-0.413,0.578-0.622,0.854C20.2,26.677,19.997,26.935,19.802,27.177z"/>
		<path fill="#2F2F2F" d="M29.681,30.971c-2.333,0-3.5-1.638-3.5-4.915c0-1.699,0.315-2.995,0.947-3.886
			c0.631-0.892,1.546-1.337,2.745-1.337c2.279,0,3.418,1.666,3.418,4.997c0,1.659-0.311,2.931-0.933,3.814
			C31.735,30.529,30.843,30.971,29.681,30.971z M29.777,22.48c-0.934,0-1.401,1.174-1.401,3.521c0,2.211,0.458,3.315,1.374,3.315
			c0.893,0,1.34-1.139,1.34-3.418C31.089,23.62,30.652,22.48,29.777,22.48z"/>
		<path fill="#2F2F2F" d="M38.6,27.819h-3.739v-1.511H38.6V27.819z"/>
		<path fill="#2F2F2F" d="M45.77,30.547c-0.488,0.283-1.192,0.424-2.112,0.424c-1.076,0-1.946-0.325-2.611-0.978
			c-0.666-0.651-0.998-1.492-0.998-2.522c0-1.189,0.356-2.127,1.07-2.812c0.713-0.687,1.667-1.029,2.861-1.029
			c0.825,0,1.422,0.109,1.791,0.328v1.832c-0.451-0.337-0.955-0.506-1.511-0.506c-0.62,0-1.111,0.182-1.473,0.544
			s-0.543,0.862-0.543,1.5c0,0.62,0.173,1.106,0.52,1.46c0.346,0.353,0.823,0.529,1.429,0.529c0.538,0,1.064-0.168,1.579-0.506
			V30.547z"/>
		<path fill="#2F2F2F" d="M50.5,30.971c-1.167,0-2.084-0.327-2.751-0.98c-0.667-0.654-1.001-1.542-1.001-2.663
			c0-1.157,0.346-2.063,1.039-2.717c0.693-0.654,1.629-0.981,2.81-0.981c1.162,0,2.074,0.327,2.734,0.981
			c0.661,0.653,0.991,1.519,0.991,2.594c0,1.162-0.341,2.081-1.022,2.755C52.618,30.634,51.685,30.971,50.5,30.971z M50.555,25.283
			c-0.51,0-0.907,0.176-1.189,0.526c-0.283,0.352-0.424,0.848-0.424,1.49c0,1.345,0.542,2.017,1.627,2.017
			c1.035,0,1.552-0.69,1.552-2.071C52.12,25.937,51.598,25.283,50.555,25.283z"/>
		<path fill="#2F2F2F" d="M60.268,25.748c-0.26-0.141-0.563-0.212-0.909-0.212c-0.469,0-0.836,0.172-1.101,0.517
			c-0.264,0.344-0.396,0.812-0.396,1.404V30.8h-2.16v-7h2.16v1.299h0.027c0.342-0.947,0.957-1.422,1.846-1.422
			c0.228,0,0.406,0.027,0.533,0.082V25.748z"/>
		<path fill="#2F2F2F" d="M67.64,27.915h-4.566c0.073,1.017,0.713,1.524,1.921,1.524c0.77,0,1.447-0.182,2.03-0.547v1.559
			c-0.647,0.347-1.488,0.52-2.522,0.52c-1.13,0-2.007-0.313-2.632-0.939c-0.625-0.627-0.937-1.501-0.937-2.622
			c0-1.162,0.337-2.082,1.012-2.762c0.674-0.679,1.504-1.019,2.488-1.019c1.021,0,1.811,0.304,2.369,0.909
			c0.558,0.606,0.837,1.429,0.837,2.468V27.915z M65.637,26.589c0-1.002-0.406-1.504-1.217-1.504c-0.346,0-0.646,0.144-0.899,0.431
			s-0.407,0.646-0.461,1.073H65.637z"/>
		<path fill="#2F2F2F" d="M77.142,30.971c-1.404,0-2.547-0.457-3.432-1.37c-0.884-0.914-1.326-2.104-1.326-3.572
			c0-1.549,0.449-2.803,1.347-3.76s2.087-1.436,3.568-1.436c1.399,0,2.53,0.458,3.394,1.374s1.295,2.124,1.295,3.623
			c0,1.541-0.448,2.782-1.343,3.726S78.582,30.971,77.142,30.971z M77.238,22.733c-0.775,0-1.39,0.291-1.846,0.872
			s-0.684,1.35-0.684,2.307c0,0.971,0.228,1.739,0.684,2.304c0.456,0.565,1.053,0.848,1.791,0.848c0.761,0,1.365-0.274,1.812-0.823
			c0.447-0.55,0.67-1.312,0.67-2.287c0-1.016-0.216-1.807-0.649-2.372C78.582,23.016,77.99,22.733,77.238,22.733z"/>
		<path fill="#2F2F2F" d="M83.099,30.424v-2.188c0.396,0.333,0.827,0.582,1.292,0.749c0.465,0.166,0.934,0.249,1.408,0.249
			c0.278,0,0.521-0.024,0.728-0.075c0.208-0.05,0.38-0.119,0.52-0.208s0.243-0.194,0.311-0.314c0.068-0.121,0.103-0.252,0.103-0.394
			c0-0.191-0.055-0.362-0.164-0.513s-0.259-0.289-0.448-0.417c-0.189-0.127-0.414-0.25-0.673-0.369
			c-0.26-0.118-0.54-0.239-0.841-0.362c-0.766-0.318-1.336-0.708-1.712-1.169c-0.376-0.46-0.564-1.016-0.564-1.668
			c0-0.51,0.103-0.949,0.308-1.315c0.205-0.367,0.484-0.669,0.837-0.906c0.353-0.236,0.762-0.411,1.227-0.522
			c0.465-0.112,0.957-0.168,1.477-0.168c0.51,0,0.963,0.031,1.357,0.093s0.758,0.156,1.09,0.283v2.044
			c-0.164-0.113-0.343-0.214-0.537-0.301c-0.194-0.086-0.393-0.158-0.598-0.215c-0.205-0.058-0.409-0.1-0.612-0.127
			s-0.396-0.041-0.578-0.041c-0.25,0-0.479,0.024-0.684,0.072s-0.378,0.115-0.52,0.201c-0.141,0.087-0.25,0.19-0.328,0.312
			c-0.078,0.12-0.116,0.256-0.116,0.406c0,0.164,0.043,0.312,0.13,0.441s0.209,0.253,0.369,0.369s0.353,0.229,0.581,0.342
			c0.228,0.111,0.485,0.227,0.772,0.345c0.392,0.164,0.744,0.339,1.056,0.523s0.58,0.393,0.803,0.625s0.394,0.498,0.513,0.797
			c0.119,0.298,0.178,0.646,0.178,1.042c0,0.547-0.104,1.006-0.311,1.378c-0.208,0.371-0.489,0.672-0.844,0.902
			c-0.355,0.229-0.769,0.396-1.241,0.495c-0.472,0.101-0.97,0.15-1.494,0.15c-0.538,0-1.049-0.045-1.535-0.137
			C83.875,30.743,83.455,30.606,83.099,30.424z"/>
		<path fill="#2F2F2F" d="M97.249,30.8H91.37v-9.803h5.653v1.798h-3.445v2.181h3.206v1.791h-3.206v2.242h3.671V30.8z"/>
	</g>
	<g>
		<path fill="#2F2F2F" d="M80.027,83.204V81.85c0.155,0.137,0.341,0.26,0.557,0.369s0.444,0.201,0.684,0.276
			s0.479,0.134,0.721,0.175s0.465,0.062,0.67,0.062c0.707,0,1.234-0.131,1.583-0.394c0.349-0.262,0.523-0.639,0.523-1.131
			c0-0.265-0.058-0.495-0.174-0.69c-0.116-0.196-0.277-0.375-0.482-0.537c-0.205-0.161-0.448-0.316-0.728-0.465
			c-0.28-0.147-0.582-0.304-0.906-0.468c-0.342-0.174-0.661-0.349-0.957-0.526s-0.554-0.374-0.772-0.588
			c-0.219-0.215-0.391-0.457-0.516-0.729c-0.125-0.271-0.188-0.589-0.188-0.953c0-0.447,0.098-0.835,0.294-1.166
			c0.196-0.33,0.454-0.603,0.772-0.816c0.319-0.215,0.683-0.374,1.09-0.479c0.408-0.105,0.824-0.157,1.248-0.157
			c0.966,0,1.67,0.116,2.112,0.349v1.292c-0.579-0.401-1.322-0.602-2.229-0.602c-0.25,0-0.501,0.026-0.752,0.078
			c-0.25,0.053-0.474,0.138-0.67,0.257c-0.196,0.118-0.355,0.271-0.479,0.458c-0.123,0.187-0.185,0.414-0.185,0.684
			c0,0.25,0.047,0.467,0.14,0.649c0.093,0.182,0.231,0.349,0.414,0.499s0.404,0.296,0.667,0.438
			c0.262,0.141,0.564,0.296,0.906,0.465c0.351,0.173,0.684,0.355,0.998,0.547s0.59,0.403,0.827,0.636s0.425,0.489,0.564,0.772
			c0.139,0.282,0.208,0.605,0.208,0.971c0,0.482-0.095,0.892-0.284,1.227s-0.444,0.607-0.766,0.817
			c-0.321,0.209-0.691,0.361-1.111,0.454c-0.419,0.094-0.861,0.141-1.326,0.141c-0.155,0-0.346-0.013-0.574-0.038
			c-0.228-0.024-0.46-0.062-0.697-0.109s-0.461-0.106-0.673-0.178C80.325,83.369,80.155,83.29,80.027,83.204z"/>
		<path fill="#2F2F2F" d="M91.734,83.764c-1.385,0-2.5-0.458-3.343-1.374c-0.834-0.916-1.251-2.108-1.251-3.575
			c0-1.582,0.426-2.84,1.278-3.773c0.857-0.939,2.017-1.408,3.479-1.408c1.349,0,2.438,0.455,3.268,1.367
			c0.83,0.911,1.244,2.103,1.244,3.575c0,1.6-0.424,2.864-1.271,3.794c-0.201,0.223-0.415,0.414-0.643,0.574l2.755,1.976h-2.085
			l-1.846-1.381C92.837,83.689,92.308,83.764,91.734,83.764z M91.816,74.673c-1.03,0-1.866,0.371-2.509,1.114
			c-0.643,0.742-0.964,1.718-0.964,2.926c0,1.203,0.312,2.176,0.937,2.919c0.629,0.733,1.447,1.101,2.454,1.101
			c1.076,0,1.923-0.352,2.543-1.053c0.62-0.702,0.93-1.685,0.93-2.946c0-1.299-0.301-2.3-0.902-3.001
			C93.702,75.025,92.873,74.673,91.816,74.673z"/>
		<path fill="#2F2F2F" d="M103.303,83.6h-5.086v-9.803h1.148v8.764h3.938V83.6z"/>
		<path fill="#2F2F2F" d="M108.184,83.204V81.85c0.155,0.137,0.341,0.26,0.557,0.369s0.444,0.201,0.684,0.276
			s0.479,0.134,0.721,0.175s0.465,0.062,0.67,0.062c0.707,0,1.234-0.131,1.583-0.394c0.349-0.262,0.523-0.639,0.523-1.131
			c0-0.265-0.058-0.495-0.174-0.69c-0.116-0.196-0.277-0.375-0.482-0.537c-0.205-0.161-0.448-0.316-0.728-0.465
			c-0.28-0.147-0.582-0.304-0.906-0.468c-0.342-0.174-0.661-0.349-0.957-0.526s-0.554-0.374-0.772-0.588
			c-0.219-0.215-0.391-0.457-0.516-0.729c-0.125-0.271-0.188-0.589-0.188-0.953c0-0.447,0.098-0.835,0.294-1.166
			c0.196-0.33,0.454-0.603,0.772-0.816c0.319-0.215,0.683-0.374,1.09-0.479c0.408-0.105,0.824-0.157,1.248-0.157
			c0.966,0,1.67,0.116,2.112,0.349v1.292c-0.579-0.401-1.322-0.602-2.229-0.602c-0.25,0-0.501,0.026-0.752,0.078
			c-0.25,0.053-0.474,0.138-0.67,0.257c-0.196,0.118-0.355,0.271-0.479,0.458c-0.123,0.187-0.185,0.414-0.185,0.684
			c0,0.25,0.047,0.467,0.14,0.649c0.093,0.182,0.231,0.349,0.414,0.499s0.404,0.296,0.667,0.438
			c0.262,0.141,0.564,0.296,0.906,0.465c0.351,0.173,0.684,0.355,0.998,0.547s0.59,0.403,0.827,0.636s0.425,0.489,0.564,0.772
			c0.139,0.282,0.208,0.605,0.208,0.971c0,0.482-0.095,0.892-0.284,1.227s-0.444,0.607-0.766,0.817
			c-0.321,0.209-0.691,0.361-1.111,0.454c-0.419,0.094-0.861,0.141-1.326,0.141c-0.155,0-0.346-0.013-0.574-0.038
			c-0.228-0.024-0.46-0.062-0.697-0.109s-0.461-0.106-0.673-0.178C108.481,83.369,108.311,83.29,108.184,83.204z"/>
		<path fill="#2F2F2F" d="M121.506,80.381h-4.942c0.018,0.779,0.228,1.381,0.629,1.805s0.953,0.636,1.654,0.636
			c0.789,0,1.513-0.26,2.174-0.779v1.053c-0.615,0.446-1.429,0.67-2.44,0.67c-0.989,0-1.766-0.318-2.331-0.954
			s-0.848-1.53-0.848-2.683c0-1.09,0.309-1.977,0.926-2.663c0.618-0.686,1.384-1.028,2.3-1.028s1.625,0.296,2.126,0.889
			c0.501,0.592,0.752,1.415,0.752,2.468V80.381z M120.357,79.43c-0.004-0.647-0.161-1.151-0.468-1.511
			c-0.308-0.36-0.735-0.54-1.282-0.54c-0.529,0-0.978,0.188-1.347,0.567c-0.369,0.378-0.597,0.872-0.684,1.483H120.357z"/>
		<path fill="#2F2F2F" d="M126.839,77.735c-0.196-0.15-0.479-0.226-0.848-0.226c-0.479,0-0.878,0.226-1.2,0.677
			s-0.482,1.066-0.482,1.846V83.6h-1.121v-7h1.121v1.442h0.027c0.16-0.492,0.403-0.876,0.731-1.152
			c0.328-0.275,0.695-0.413,1.101-0.413c0.292,0,0.515,0.031,0.67,0.096V77.735z"/>
		<path fill="#2F2F2F" d="M134.112,76.6l-2.789,7h-1.101l-2.652-7h1.23l1.777,5.086c0.132,0.373,0.214,0.699,0.246,0.978h0.027
			c0.045-0.352,0.119-0.668,0.219-0.95l1.859-5.113H134.112z"/>
		<path fill="#2F2F2F" d="M140.753,80.381h-4.942c0.018,0.779,0.228,1.381,0.629,1.805s0.953,0.636,1.654,0.636
			c0.789,0,1.513-0.26,2.174-0.779v1.053c-0.615,0.446-1.429,0.67-2.44,0.67c-0.989,0-1.766-0.318-2.331-0.954
			s-0.848-1.53-0.848-2.683c0-1.09,0.309-1.977,0.926-2.663c0.618-0.686,1.384-1.028,2.3-1.028s1.625,0.296,2.126,0.889
			c0.501,0.592,0.752,1.415,0.752,2.468V80.381z M139.605,79.43c-0.004-0.647-0.161-1.151-0.468-1.511
			c-0.308-0.36-0.735-0.54-1.282-0.54c-0.529,0-0.978,0.188-1.347,0.567c-0.369,0.378-0.597,0.872-0.684,1.483H139.605z"/>
		<path fill="#2F2F2F" d="M146.086,77.735c-0.196-0.15-0.479-0.226-0.848-0.226c-0.479,0-0.878,0.226-1.2,0.677
			s-0.482,1.066-0.482,1.846V83.6h-1.121v-7h1.121v1.442h0.027c0.16-0.492,0.403-0.876,0.731-1.152
			c0.328-0.275,0.695-0.413,1.101-0.413c0.292,0,0.515,0.031,0.67,0.096V77.735z"/>
		<path fill="#2F2F2F" d="M151.712,74.823c-0.201,0-0.372-0.068-0.513-0.205s-0.212-0.311-0.212-0.52
			c0-0.21,0.071-0.384,0.212-0.523c0.141-0.139,0.312-0.208,0.513-0.208c0.205,0,0.379,0.069,0.523,0.208
			c0.144,0.14,0.215,0.313,0.215,0.523c0,0.2-0.072,0.371-0.215,0.513C152.092,74.752,151.917,74.823,151.712,74.823z M152.259,83.6
			h-1.121v-7h1.121V83.6z"/>
		<path fill="#2F2F2F" d="M160.188,83.6h-1.121v-3.992c0-1.486-0.542-2.229-1.627-2.229c-0.561,0-1.024,0.211-1.391,0.632
			c-0.367,0.422-0.55,0.954-0.55,1.597V83.6h-1.121v-7h1.121v1.162h0.027c0.529-0.885,1.294-1.326,2.297-1.326
			c0.766,0,1.351,0.247,1.757,0.741c0.406,0.495,0.608,1.209,0.608,2.144V83.6z"/>
		<path fill="#2F2F2F" d="M161.836,83.347v-1.203c0.611,0.451,1.283,0.677,2.017,0.677c0.984,0,1.477-0.328,1.477-0.984
			c0-0.188-0.042-0.346-0.126-0.476s-0.198-0.245-0.342-0.345c-0.144-0.101-0.312-0.19-0.506-0.271
			c-0.194-0.079-0.402-0.163-0.625-0.249c-0.31-0.123-0.582-0.247-0.817-0.373c-0.235-0.125-0.431-0.267-0.588-0.424
			s-0.276-0.336-0.355-0.536c-0.08-0.201-0.12-0.436-0.12-0.704c0-0.328,0.075-0.619,0.226-0.872s0.351-0.465,0.602-0.636
			s0.537-0.3,0.858-0.386c0.321-0.087,0.653-0.13,0.995-0.13c0.606,0,1.148,0.104,1.627,0.314v1.135
			c-0.515-0.338-1.107-0.506-1.777-0.506c-0.209,0-0.399,0.023-0.567,0.071s-0.313,0.115-0.434,0.202
			c-0.121,0.086-0.214,0.19-0.28,0.311c-0.066,0.121-0.099,0.254-0.099,0.4c0,0.182,0.033,0.335,0.099,0.458
			s0.163,0.232,0.291,0.328s0.283,0.182,0.465,0.26c0.182,0.077,0.39,0.161,0.622,0.253c0.31,0.118,0.588,0.24,0.834,0.365
			c0.246,0.126,0.456,0.267,0.629,0.424s0.307,0.339,0.4,0.544s0.14,0.448,0.14,0.731c0,0.346-0.076,0.646-0.229,0.902
			c-0.153,0.255-0.356,0.467-0.612,0.636c-0.255,0.168-0.549,0.294-0.882,0.376s-0.681,0.123-1.046,0.123
			C162.989,83.764,162.365,83.625,161.836,83.347z"/>
		<path fill="#2F2F2F" d="M171.489,83.532c-0.264,0.146-0.613,0.219-1.046,0.219c-1.226,0-1.839-0.684-1.839-2.051v-4.143h-1.203
			V76.6h1.203v-1.709l1.121-0.362V76.6h1.764v0.957h-1.764v3.944c0,0.469,0.08,0.804,0.239,1.005c0.16,0.2,0.424,0.301,0.793,0.301
			c0.283,0,0.526-0.078,0.731-0.232V83.532z"/>
		<path fill="#2F2F2F" d="M178.106,83.6h-1.121v-1.094h-0.027c-0.488,0.838-1.206,1.258-2.153,1.258
			c-0.697,0-1.243-0.185-1.637-0.554s-0.591-0.859-0.591-1.47c0-1.309,0.77-2.069,2.311-2.283l2.099-0.294
			c0-1.189-0.481-1.784-1.442-1.784c-0.843,0-1.604,0.287-2.283,0.861v-1.148c0.688-0.438,1.481-0.656,2.379-0.656
			c1.645,0,2.468,0.87,2.468,2.611V83.6z M176.985,80.059l-1.688,0.232c-0.52,0.072-0.912,0.201-1.176,0.386
			s-0.396,0.512-0.396,0.981c0,0.342,0.122,0.621,0.366,0.837c0.244,0.217,0.568,0.325,0.974,0.325c0.556,0,1.015-0.195,1.377-0.585
			s0.543-0.883,0.543-1.479V80.059z"/>
		<path fill="#2F2F2F" d="M185.938,83.6h-1.121v-3.992c0-1.486-0.542-2.229-1.627-2.229c-0.561,0-1.024,0.211-1.391,0.632
			c-0.367,0.422-0.55,0.954-0.55,1.597V83.6h-1.121v-7h1.121v1.162h0.027c0.529-0.885,1.294-1.326,2.297-1.326
			c0.766,0,1.351,0.247,1.757,0.741c0.406,0.495,0.608,1.209,0.608,2.144V83.6z"/>
		<path fill="#2F2F2F" d="M192.787,83.279c-0.538,0.323-1.176,0.485-1.914,0.485c-0.998,0-1.804-0.325-2.417-0.975
			s-0.919-1.491-0.919-2.525c0-1.153,0.331-2.079,0.991-2.779c0.661-0.699,1.542-1.049,2.646-1.049c0.615,0,1.158,0.113,1.627,0.342
			v1.148c-0.52-0.365-1.076-0.547-1.668-0.547c-0.715,0-1.302,0.256-1.76,0.769s-0.687,1.187-0.687,2.021
			c0,0.82,0.215,1.467,0.646,1.941c0.431,0.474,1.008,0.711,1.733,0.711c0.611,0,1.185-0.203,1.723-0.608V83.279z"/>
		<path fill="#2F2F2F" d="M199.957,80.381h-4.942c0.018,0.779,0.228,1.381,0.629,1.805s0.953,0.636,1.654,0.636
			c0.789,0,1.513-0.26,2.174-0.779v1.053c-0.615,0.446-1.429,0.67-2.44,0.67c-0.989,0-1.766-0.318-2.331-0.954
			s-0.848-1.53-0.848-2.683c0-1.09,0.309-1.977,0.926-2.663c0.618-0.686,1.384-1.028,2.3-1.028s1.625,0.296,2.126,0.889
			c0.501,0.592,0.752,1.415,0.752,2.468V80.381z M198.808,79.43c-0.004-0.647-0.161-1.151-0.468-1.511
			c-0.308-0.36-0.735-0.54-1.282-0.54c-0.529,0-0.978,0.188-1.347,0.567c-0.369,0.378-0.597,0.872-0.684,1.483H198.808z"/>
		<path fill="#2F2F2F" d="M205.179,83.204V81.85c0.155,0.137,0.341,0.26,0.557,0.369s0.444,0.201,0.684,0.276
			s0.479,0.134,0.721,0.175s0.465,0.062,0.67,0.062c0.707,0,1.234-0.131,1.583-0.394c0.349-0.262,0.523-0.639,0.523-1.131
			c0-0.265-0.058-0.495-0.174-0.69c-0.116-0.196-0.277-0.375-0.482-0.537c-0.205-0.161-0.448-0.316-0.728-0.465
			c-0.28-0.147-0.582-0.304-0.906-0.468c-0.342-0.174-0.661-0.349-0.957-0.526s-0.554-0.374-0.772-0.588
			c-0.219-0.215-0.391-0.457-0.516-0.729c-0.125-0.271-0.188-0.589-0.188-0.953c0-0.447,0.098-0.835,0.294-1.166
			c0.196-0.33,0.454-0.603,0.772-0.816c0.319-0.215,0.683-0.374,1.09-0.479c0.408-0.105,0.824-0.157,1.248-0.157
			c0.966,0,1.67,0.116,2.112,0.349v1.292c-0.579-0.401-1.322-0.602-2.229-0.602c-0.25,0-0.501,0.026-0.752,0.078
			c-0.25,0.053-0.474,0.138-0.67,0.257c-0.196,0.118-0.355,0.271-0.479,0.458c-0.123,0.187-0.185,0.414-0.185,0.684
			c0,0.25,0.047,0.467,0.14,0.649c0.093,0.182,0.231,0.349,0.414,0.499s0.404,0.296,0.667,0.438
			c0.262,0.141,0.564,0.296,0.906,0.465c0.351,0.173,0.684,0.355,0.998,0.547s0.59,0.403,0.827,0.636s0.425,0.489,0.564,0.772
			c0.139,0.282,0.208,0.605,0.208,0.971c0,0.482-0.095,0.892-0.284,1.227s-0.444,0.607-0.766,0.817
			c-0.321,0.209-0.691,0.361-1.111,0.454c-0.419,0.094-0.861,0.141-1.326,0.141c-0.155,0-0.346-0.013-0.574-0.038
			c-0.228-0.024-0.46-0.062-0.697-0.109s-0.461-0.106-0.673-0.178C205.477,83.369,205.307,83.29,205.179,83.204z"/>
		<path fill="#2F2F2F" d="M218.061,83.6h-5.196v-9.803h4.977v1.039h-3.829v3.261h3.542v1.032h-3.542v3.432h4.047V83.6z"/>
	</g>
	<g>
		<path fill="#2F2F2F" d="M80.027,140.403v-1.354c0.155,0.137,0.341,0.26,0.557,0.369s0.444,0.202,0.684,0.277
			s0.479,0.133,0.721,0.174s0.465,0.062,0.67,0.062c0.707,0,1.234-0.131,1.583-0.393c0.349-0.263,0.523-0.64,0.523-1.132
			c0-0.264-0.058-0.494-0.174-0.69c-0.116-0.195-0.277-0.375-0.482-0.536c-0.205-0.162-0.448-0.317-0.728-0.465
			c-0.28-0.148-0.582-0.305-0.906-0.469c-0.342-0.173-0.661-0.349-0.957-0.526s-0.554-0.373-0.772-0.588
			c-0.219-0.214-0.391-0.457-0.516-0.728c-0.125-0.271-0.188-0.589-0.188-0.954c0-0.446,0.098-0.835,0.294-1.165
			c0.196-0.331,0.454-0.603,0.772-0.817c0.319-0.214,0.683-0.373,1.09-0.479c0.408-0.104,0.824-0.157,1.248-0.157
			c0.966,0,1.67,0.116,2.112,0.349v1.292c-0.579-0.4-1.322-0.602-2.229-0.602c-0.25,0-0.501,0.026-0.752,0.079
			c-0.25,0.052-0.474,0.138-0.67,0.256c-0.196,0.119-0.355,0.271-0.479,0.458c-0.123,0.188-0.185,0.415-0.185,0.684
			c0,0.251,0.047,0.468,0.14,0.649c0.093,0.183,0.231,0.349,0.414,0.499s0.404,0.297,0.667,0.438
			c0.262,0.142,0.564,0.297,0.906,0.465c0.351,0.174,0.684,0.355,0.998,0.547s0.59,0.403,0.827,0.636s0.425,0.49,0.564,0.772
			c0.139,0.283,0.208,0.606,0.208,0.971c0,0.483-0.095,0.893-0.284,1.228s-0.444,0.607-0.766,0.816
			c-0.321,0.21-0.691,0.361-1.111,0.455c-0.419,0.093-0.861,0.14-1.326,0.14c-0.155,0-0.346-0.013-0.574-0.037
			c-0.228-0.025-0.46-0.062-0.697-0.109s-0.461-0.107-0.673-0.178C80.325,140.568,80.155,140.49,80.027,140.403z"/>
		<path fill="#2F2F2F" d="M91.734,140.964c-1.385,0-2.5-0.458-3.343-1.374c-0.834-0.916-1.251-2.107-1.251-3.575
			c0-1.581,0.426-2.839,1.278-3.773c0.857-0.938,2.017-1.408,3.479-1.408c1.349,0,2.438,0.456,3.268,1.367
			c0.83,0.912,1.244,2.104,1.244,3.575c0,1.6-0.424,2.864-1.271,3.794c-0.201,0.224-0.415,0.415-0.643,0.574l2.755,1.976h-2.085
			l-1.846-1.381C92.837,140.888,92.308,140.964,91.734,140.964z M91.816,131.872c-1.03,0-1.866,0.372-2.509,1.114
			c-0.643,0.743-0.964,1.719-0.964,2.926c0,1.203,0.312,2.177,0.937,2.919c0.629,0.734,1.447,1.101,2.454,1.101
			c1.076,0,1.923-0.351,2.543-1.053c0.62-0.701,0.93-1.684,0.93-2.946c0-1.299-0.301-2.299-0.902-3.001
			C93.702,132.225,92.873,131.872,91.816,131.872z"/>
		<path fill="#2F2F2F" d="M103.303,140.8h-5.086v-9.803h1.148v8.764h3.938V140.8z"/>
		<path fill="#2F2F2F" d="M108.184,140.403v-1.354c0.155,0.137,0.341,0.26,0.557,0.369s0.444,0.202,0.684,0.277
			s0.479,0.133,0.721,0.174s0.465,0.062,0.67,0.062c0.707,0,1.234-0.131,1.583-0.393c0.349-0.263,0.523-0.64,0.523-1.132
			c0-0.264-0.058-0.494-0.174-0.69c-0.116-0.195-0.277-0.375-0.482-0.536c-0.205-0.162-0.448-0.317-0.728-0.465
			c-0.28-0.148-0.582-0.305-0.906-0.469c-0.342-0.173-0.661-0.349-0.957-0.526s-0.554-0.373-0.772-0.588
			c-0.219-0.214-0.391-0.457-0.516-0.728c-0.125-0.271-0.188-0.589-0.188-0.954c0-0.446,0.098-0.835,0.294-1.165
			c0.196-0.331,0.454-0.603,0.772-0.817c0.319-0.214,0.683-0.373,1.09-0.479c0.408-0.104,0.824-0.157,1.248-0.157
			c0.966,0,1.67,0.116,2.112,0.349v1.292c-0.579-0.4-1.322-0.602-2.229-0.602c-0.25,0-0.501,0.026-0.752,0.079
			c-0.25,0.052-0.474,0.138-0.67,0.256c-0.196,0.119-0.355,0.271-0.479,0.458c-0.123,0.188-0.185,0.415-0.185,0.684
			c0,0.251,0.047,0.468,0.14,0.649c0.093,0.183,0.231,0.349,0.414,0.499s0.404,0.297,0.667,0.438
			c0.262,0.142,0.564,0.297,0.906,0.465c0.351,0.174,0.684,0.355,0.998,0.547s0.59,0.403,0.827,0.636s0.425,0.49,0.564,0.772
			c0.139,0.283,0.208,0.606,0.208,0.971c0,0.483-0.095,0.893-0.284,1.228s-0.444,0.607-0.766,0.816
			c-0.321,0.21-0.691,0.361-1.111,0.455c-0.419,0.093-0.861,0.14-1.326,0.14c-0.155,0-0.346-0.013-0.574-0.037
			c-0.228-0.025-0.46-0.062-0.697-0.109s-0.461-0.107-0.673-0.178C108.481,140.568,108.311,140.49,108.184,140.403z"/>
		<path fill="#2F2F2F" d="M121.506,137.58h-4.942c0.018,0.779,0.228,1.381,0.629,1.805s0.953,0.636,1.654,0.636
			c0.789,0,1.513-0.26,2.174-0.779v1.053c-0.615,0.447-1.429,0.67-2.44,0.67c-0.989,0-1.766-0.317-2.331-0.953
			s-0.848-1.53-0.848-2.684c0-1.089,0.309-1.977,0.926-2.662c0.618-0.687,1.384-1.029,2.3-1.029s1.625,0.297,2.126,0.889
			c0.501,0.593,0.752,1.415,0.752,2.468V137.58z M120.357,136.63c-0.004-0.646-0.161-1.15-0.468-1.511
			c-0.308-0.359-0.735-0.54-1.282-0.54c-0.529,0-0.978,0.189-1.347,0.567c-0.369,0.379-0.597,0.873-0.684,1.483H120.357z"/>
		<path fill="#2F2F2F" d="M126.839,134.934c-0.196-0.15-0.479-0.226-0.848-0.226c-0.479,0-0.878,0.226-1.2,0.677
			s-0.482,1.066-0.482,1.846v3.568h-1.121v-7h1.121v1.442h0.027c0.16-0.492,0.403-0.876,0.731-1.151
			c0.328-0.276,0.695-0.414,1.101-0.414c0.292,0,0.515,0.032,0.67,0.096V134.934z"/>
		<path fill="#2F2F2F" d="M134.112,133.8l-2.789,7h-1.101l-2.652-7h1.23l1.777,5.086c0.132,0.374,0.214,0.7,0.246,0.978h0.027
			c0.045-0.351,0.119-0.667,0.219-0.95l1.859-5.113H134.112z"/>
		<path fill="#2F2F2F" d="M140.753,137.58h-4.942c0.018,0.779,0.228,1.381,0.629,1.805s0.953,0.636,1.654,0.636
			c0.789,0,1.513-0.26,2.174-0.779v1.053c-0.615,0.447-1.429,0.67-2.44,0.67c-0.989,0-1.766-0.317-2.331-0.953
			s-0.848-1.53-0.848-2.684c0-1.089,0.309-1.977,0.926-2.662c0.618-0.687,1.384-1.029,2.3-1.029s1.625,0.297,2.126,0.889
			c0.501,0.593,0.752,1.415,0.752,2.468V137.58z M139.605,136.63c-0.004-0.646-0.161-1.15-0.468-1.511
			c-0.308-0.359-0.735-0.54-1.282-0.54c-0.529,0-0.978,0.189-1.347,0.567c-0.369,0.379-0.597,0.873-0.684,1.483H139.605z"/>
		<path fill="#2F2F2F" d="M146.086,134.934c-0.196-0.15-0.479-0.226-0.848-0.226c-0.479,0-0.878,0.226-1.2,0.677
			s-0.482,1.066-0.482,1.846v3.568h-1.121v-7h1.121v1.442h0.027c0.16-0.492,0.403-0.876,0.731-1.151
			c0.328-0.276,0.695-0.414,1.101-0.414c0.292,0,0.515,0.032,0.67,0.096V134.934z"/>
		<path fill="#2F2F2F" d="M151.712,132.022c-0.201,0-0.372-0.068-0.513-0.205s-0.212-0.31-0.212-0.52
			c0-0.209,0.071-0.384,0.212-0.522c0.141-0.14,0.312-0.209,0.513-0.209c0.205,0,0.379,0.069,0.523,0.209
			c0.144,0.139,0.215,0.313,0.215,0.522c0,0.201-0.072,0.372-0.215,0.513C152.092,131.952,151.917,132.022,151.712,132.022z
			 M152.259,140.8h-1.121v-7h1.121V140.8z"/>
		<path fill="#2F2F2F" d="M160.188,140.8h-1.121v-3.992c0-1.485-0.542-2.229-1.627-2.229c-0.561,0-1.024,0.211-1.391,0.633
			c-0.367,0.421-0.55,0.953-0.55,1.596v3.992h-1.121v-7h1.121v1.162h0.027c0.529-0.884,1.294-1.326,2.297-1.326
			c0.766,0,1.351,0.247,1.757,0.742c0.406,0.494,0.608,1.209,0.608,2.143V140.8z"/>
		<path fill="#2F2F2F" d="M161.836,140.547v-1.203c0.611,0.451,1.283,0.677,2.017,0.677c0.984,0,1.477-0.328,1.477-0.984
			c0-0.187-0.042-0.345-0.126-0.475s-0.198-0.245-0.342-0.346c-0.144-0.1-0.312-0.19-0.506-0.27c-0.194-0.08-0.402-0.163-0.625-0.25
			c-0.31-0.123-0.582-0.247-0.817-0.372c-0.235-0.126-0.431-0.267-0.588-0.424s-0.276-0.336-0.355-0.537
			c-0.08-0.2-0.12-0.435-0.12-0.704c0-0.328,0.075-0.618,0.226-0.871s0.351-0.465,0.602-0.636s0.537-0.3,0.858-0.387
			c0.321-0.086,0.653-0.13,0.995-0.13c0.606,0,1.148,0.105,1.627,0.314v1.135c-0.515-0.337-1.107-0.506-1.777-0.506
			c-0.209,0-0.399,0.024-0.567,0.072s-0.313,0.115-0.434,0.201c-0.121,0.087-0.214,0.19-0.28,0.312
			c-0.066,0.12-0.099,0.254-0.099,0.399c0,0.183,0.033,0.335,0.099,0.458s0.163,0.232,0.291,0.328s0.283,0.183,0.465,0.26
			c0.182,0.078,0.39,0.162,0.622,0.253c0.31,0.119,0.588,0.24,0.834,0.366c0.246,0.125,0.456,0.267,0.629,0.424
			s0.307,0.338,0.4,0.543s0.14,0.449,0.14,0.731c0,0.347-0.076,0.647-0.229,0.902c-0.153,0.256-0.356,0.468-0.612,0.636
			c-0.255,0.169-0.549,0.294-0.882,0.376s-0.681,0.123-1.046,0.123C162.989,140.964,162.365,140.825,161.836,140.547z"/>
		<path fill="#2F2F2F" d="M171.489,140.731c-0.264,0.146-0.613,0.219-1.046,0.219c-1.226,0-1.839-0.684-1.839-2.051v-4.143h-1.203
			V133.8h1.203v-1.709l1.121-0.362v2.071h1.764v0.957h-1.764v3.944c0,0.47,0.08,0.805,0.239,1.005
			c0.16,0.201,0.424,0.301,0.793,0.301c0.283,0,0.526-0.077,0.731-0.232V140.731z"/>
		<path fill="#2F2F2F" d="M178.106,140.8h-1.121v-1.094h-0.027c-0.488,0.839-1.206,1.258-2.153,1.258
			c-0.697,0-1.243-0.185-1.637-0.554s-0.591-0.858-0.591-1.47c0-1.308,0.77-2.068,2.311-2.283l2.099-0.294
			c0-1.189-0.481-1.784-1.442-1.784c-0.843,0-1.604,0.287-2.283,0.861v-1.148c0.688-0.438,1.481-0.656,2.379-0.656
			c1.645,0,2.468,0.871,2.468,2.611V140.8z M176.985,137.259l-1.688,0.232c-0.52,0.073-0.912,0.202-1.176,0.387
			s-0.396,0.512-0.396,0.98c0,0.342,0.122,0.621,0.366,0.838c0.244,0.216,0.568,0.324,0.974,0.324c0.556,0,1.015-0.194,1.377-0.584
			s0.543-0.883,0.543-1.48V137.259z"/>
		<path fill="#2F2F2F" d="M185.938,140.8h-1.121v-3.992c0-1.485-0.542-2.229-1.627-2.229c-0.561,0-1.024,0.211-1.391,0.633
			c-0.367,0.421-0.55,0.953-0.55,1.596v3.992h-1.121v-7h1.121v1.162h0.027c0.529-0.884,1.294-1.326,2.297-1.326
			c0.766,0,1.351,0.247,1.757,0.742c0.406,0.494,0.608,1.209,0.608,2.143V140.8z"/>
		<path fill="#2F2F2F" d="M192.787,140.478c-0.538,0.324-1.176,0.485-1.914,0.485c-0.998,0-1.804-0.324-2.417-0.974
			s-0.919-1.491-0.919-2.526c0-1.152,0.331-2.079,0.991-2.778c0.661-0.7,1.542-1.05,2.646-1.05c0.615,0,1.158,0.114,1.627,0.342
			v1.148c-0.52-0.364-1.076-0.547-1.668-0.547c-0.715,0-1.302,0.257-1.76,0.77s-0.687,1.186-0.687,2.02
			c0,0.82,0.215,1.468,0.646,1.941c0.431,0.475,1.008,0.711,1.733,0.711c0.611,0,1.185-0.202,1.723-0.608V140.478z"/>
		<path fill="#2F2F2F" d="M199.957,137.58h-4.942c0.018,0.779,0.228,1.381,0.629,1.805s0.953,0.636,1.654,0.636
			c0.789,0,1.513-0.26,2.174-0.779v1.053c-0.615,0.447-1.429,0.67-2.44,0.67c-0.989,0-1.766-0.317-2.331-0.953
			s-0.848-1.53-0.848-2.684c0-1.089,0.309-1.977,0.926-2.662c0.618-0.687,1.384-1.029,2.3-1.029s1.625,0.297,2.126,0.889
			c0.501,0.593,0.752,1.415,0.752,2.468V137.58z M198.808,136.63c-0.004-0.646-0.161-1.15-0.468-1.511
			c-0.308-0.359-0.735-0.54-1.282-0.54c-0.529,0-0.978,0.189-1.347,0.567c-0.369,0.379-0.597,0.873-0.684,1.483H198.808z"/>
		<path fill="#2F2F2F" d="M205.179,140.403v-1.354c0.155,0.137,0.341,0.26,0.557,0.369s0.444,0.202,0.684,0.277
			s0.479,0.133,0.721,0.174s0.465,0.062,0.67,0.062c0.707,0,1.234-0.131,1.583-0.393c0.349-0.263,0.523-0.64,0.523-1.132
			c0-0.264-0.058-0.494-0.174-0.69c-0.116-0.195-0.277-0.375-0.482-0.536c-0.205-0.162-0.448-0.317-0.728-0.465
			c-0.28-0.148-0.582-0.305-0.906-0.469c-0.342-0.173-0.661-0.349-0.957-0.526s-0.554-0.373-0.772-0.588
			c-0.219-0.214-0.391-0.457-0.516-0.728c-0.125-0.271-0.188-0.589-0.188-0.954c0-0.446,0.098-0.835,0.294-1.165
			c0.196-0.331,0.454-0.603,0.772-0.817c0.319-0.214,0.683-0.373,1.09-0.479c0.408-0.104,0.824-0.157,1.248-0.157
			c0.966,0,1.67,0.116,2.112,0.349v1.292c-0.579-0.4-1.322-0.602-2.229-0.602c-0.25,0-0.501,0.026-0.752,0.079
			c-0.25,0.052-0.474,0.138-0.67,0.256c-0.196,0.119-0.355,0.271-0.479,0.458c-0.123,0.188-0.185,0.415-0.185,0.684
			c0,0.251,0.047,0.468,0.14,0.649c0.093,0.183,0.231,0.349,0.414,0.499s0.404,0.297,0.667,0.438
			c0.262,0.142,0.564,0.297,0.906,0.465c0.351,0.174,0.684,0.355,0.998,0.547s0.59,0.403,0.827,0.636s0.425,0.49,0.564,0.772
			c0.139,0.283,0.208,0.606,0.208,0.971c0,0.483-0.095,0.893-0.284,1.228s-0.444,0.607-0.766,0.816
			c-0.321,0.21-0.691,0.361-1.111,0.455c-0.419,0.093-0.861,0.14-1.326,0.14c-0.155,0-0.346-0.013-0.574-0.037
			c-0.228-0.025-0.46-0.062-0.697-0.109s-0.461-0.107-0.673-0.178C205.477,140.568,205.307,140.49,205.179,140.403z"/>
		<path fill="#2F2F2F" d="M218.061,140.8h-5.196v-9.803h4.977v1.039h-3.829v3.261h3.542v1.032h-3.542v3.432h4.047V140.8z"/>
	</g>
	<g>
		<path fill="#2F2F2F" d="M80.027,197.603v-1.354c0.155,0.137,0.341,0.26,0.557,0.369s0.444,0.202,0.684,0.276
			c0.239,0.076,0.479,0.134,0.721,0.175s0.465,0.062,0.67,0.062c0.707,0,1.234-0.131,1.583-0.393
			c0.349-0.263,0.523-0.64,0.523-1.132c0-0.265-0.058-0.495-0.174-0.69s-0.277-0.375-0.482-0.537
			c-0.205-0.161-0.448-0.316-0.728-0.465c-0.28-0.147-0.582-0.304-0.906-0.468c-0.342-0.173-0.661-0.349-0.957-0.526
			s-0.554-0.373-0.772-0.588s-0.391-0.457-0.516-0.729c-0.125-0.271-0.188-0.588-0.188-0.953c0-0.447,0.098-0.835,0.294-1.166
			c0.196-0.33,0.454-0.602,0.772-0.816s0.683-0.373,1.09-0.479s0.824-0.157,1.248-0.157c0.966,0,1.67,0.116,2.112,0.349v1.292
			c-0.579-0.401-1.322-0.602-2.229-0.602c-0.25,0-0.501,0.026-0.752,0.079c-0.25,0.052-0.474,0.137-0.67,0.256
			s-0.355,0.271-0.479,0.458s-0.185,0.415-0.185,0.684c0,0.251,0.047,0.468,0.14,0.649s0.231,0.349,0.414,0.499
			s0.404,0.296,0.667,0.438s0.564,0.296,0.906,0.465c0.351,0.173,0.684,0.355,0.998,0.547s0.59,0.403,0.827,0.636
			s0.425,0.49,0.564,0.772s0.208,0.606,0.208,0.971c0,0.483-0.095,0.892-0.284,1.228c-0.189,0.334-0.444,0.607-0.766,0.816
			s-0.691,0.361-1.111,0.455c-0.419,0.093-0.861,0.14-1.326,0.14c-0.155,0-0.346-0.013-0.574-0.038
			c-0.228-0.024-0.46-0.061-0.697-0.109c-0.237-0.047-0.461-0.106-0.673-0.178C80.325,197.768,80.155,197.69,80.027,197.603z"/>
		<path fill="#2F2F2F" d="M91.734,198.164c-1.385,0-2.5-0.458-3.343-1.374c-0.834-0.916-1.251-2.107-1.251-3.575
			c0-1.581,0.426-2.839,1.278-3.773c0.857-0.938,2.017-1.408,3.479-1.408c1.349,0,2.438,0.456,3.268,1.367s1.244,2.103,1.244,3.575
			c0,1.6-0.424,2.864-1.271,3.794c-0.201,0.224-0.415,0.415-0.643,0.574l2.755,1.976h-2.085l-1.846-1.381
			C92.837,198.089,92.308,198.164,91.734,198.164z M91.816,189.072c-1.03,0-1.866,0.372-2.509,1.114s-0.964,1.719-0.964,2.926
			c0,1.203,0.312,2.176,0.937,2.919c0.629,0.733,1.447,1.101,2.454,1.101c1.076,0,1.923-0.352,2.543-1.053s0.93-1.684,0.93-2.946
			c0-1.299-0.301-2.3-0.902-3.001C93.702,189.425,92.873,189.072,91.816,189.072z"/>
		<path fill="#2F2F2F" d="M103.303,198h-5.086v-9.803h1.148v8.764h3.938V198z"/>
		<path fill="#2F2F2F" d="M108.184,197.603v-1.354c0.155,0.137,0.341,0.26,0.557,0.369s0.444,0.202,0.684,0.276
			c0.239,0.076,0.479,0.134,0.721,0.175s0.465,0.062,0.67,0.062c0.707,0,1.234-0.131,1.583-0.393
			c0.349-0.263,0.523-0.64,0.523-1.132c0-0.265-0.058-0.495-0.174-0.69s-0.277-0.375-0.482-0.537
			c-0.205-0.161-0.448-0.316-0.728-0.465c-0.28-0.147-0.582-0.304-0.906-0.468c-0.342-0.173-0.661-0.349-0.957-0.526
			s-0.554-0.373-0.772-0.588s-0.391-0.457-0.516-0.729c-0.125-0.271-0.188-0.588-0.188-0.953c0-0.447,0.098-0.835,0.294-1.166
			c0.196-0.33,0.454-0.602,0.772-0.816s0.683-0.373,1.09-0.479s0.824-0.157,1.248-0.157c0.966,0,1.67,0.116,2.112,0.349v1.292
			c-0.579-0.401-1.322-0.602-2.229-0.602c-0.25,0-0.501,0.026-0.752,0.079c-0.25,0.052-0.474,0.137-0.67,0.256
			s-0.355,0.271-0.479,0.458s-0.185,0.415-0.185,0.684c0,0.251,0.047,0.468,0.14,0.649s0.231,0.349,0.414,0.499
			s0.404,0.296,0.667,0.438s0.564,0.296,0.906,0.465c0.351,0.173,0.684,0.355,0.998,0.547s0.59,0.403,0.827,0.636
			s0.425,0.49,0.564,0.772s0.208,0.606,0.208,0.971c0,0.483-0.095,0.892-0.284,1.228c-0.189,0.334-0.444,0.607-0.766,0.816
			s-0.691,0.361-1.111,0.455c-0.419,0.093-0.861,0.14-1.326,0.14c-0.155,0-0.346-0.013-0.574-0.038
			c-0.228-0.024-0.46-0.061-0.697-0.109c-0.237-0.047-0.461-0.106-0.673-0.178C108.481,197.768,108.311,197.69,108.184,197.603z"/>
		<path fill="#2F2F2F" d="M121.506,194.78h-4.942c0.018,0.779,0.228,1.381,0.629,1.805s0.953,0.636,1.654,0.636
			c0.789,0,1.513-0.26,2.174-0.779v1.053c-0.615,0.446-1.429,0.67-2.44,0.67c-0.989,0-1.766-0.317-2.331-0.954
			c-0.565-0.635-0.848-1.529-0.848-2.683c0-1.089,0.309-1.977,0.926-2.663c0.618-0.686,1.384-1.028,2.3-1.028
			s1.625,0.296,2.126,0.889s0.752,1.415,0.752,2.468V194.78z M120.357,193.83c-0.004-0.647-0.161-1.151-0.468-1.511
			s-0.735-0.54-1.282-0.54c-0.529,0-0.978,0.188-1.347,0.567s-0.597,0.873-0.684,1.483H120.357z"/>
		<path fill="#2F2F2F" d="M126.839,192.135c-0.196-0.15-0.479-0.226-0.848-0.226c-0.479,0-0.878,0.226-1.2,0.677
			s-0.482,1.066-0.482,1.846V198h-1.121v-7h1.121v1.442h0.027c0.16-0.492,0.403-0.876,0.731-1.152
			c0.328-0.275,0.695-0.413,1.101-0.413c0.292,0,0.515,0.032,0.67,0.096V192.135z"/>
		<path fill="#2F2F2F" d="M134.112,191l-2.789,7h-1.101l-2.652-7h1.23l1.777,5.086c0.132,0.374,0.214,0.7,0.246,0.978h0.027
			c0.045-0.352,0.119-0.668,0.219-0.95l1.859-5.113H134.112z"/>
		<path fill="#2F2F2F" d="M140.753,194.78h-4.942c0.018,0.779,0.228,1.381,0.629,1.805s0.953,0.636,1.654,0.636
			c0.789,0,1.513-0.26,2.174-0.779v1.053c-0.615,0.446-1.429,0.67-2.44,0.67c-0.989,0-1.766-0.317-2.331-0.954
			c-0.565-0.635-0.848-1.529-0.848-2.683c0-1.089,0.309-1.977,0.926-2.663c0.618-0.686,1.384-1.028,2.3-1.028
			s1.625,0.296,2.126,0.889s0.752,1.415,0.752,2.468V194.78z M139.605,193.83c-0.004-0.647-0.161-1.151-0.468-1.511
			s-0.735-0.54-1.282-0.54c-0.529,0-0.978,0.188-1.347,0.567s-0.597,0.873-0.684,1.483H139.605z"/>
		<path fill="#2F2F2F" d="M146.086,192.135c-0.196-0.15-0.479-0.226-0.848-0.226c-0.479,0-0.878,0.226-1.2,0.677
			s-0.482,1.066-0.482,1.846V198h-1.121v-7h1.121v1.442h0.027c0.16-0.492,0.403-0.876,0.731-1.152
			c0.328-0.275,0.695-0.413,1.101-0.413c0.292,0,0.515,0.032,0.67,0.096V192.135z"/>
		<path fill="#2F2F2F" d="M151.712,189.222c-0.201,0-0.372-0.068-0.513-0.205s-0.212-0.31-0.212-0.52s0.071-0.384,0.212-0.522
			c0.141-0.14,0.312-0.209,0.513-0.209c0.205,0,0.379,0.069,0.523,0.209c0.144,0.139,0.215,0.312,0.215,0.522
			c0,0.2-0.072,0.372-0.215,0.513S151.917,189.222,151.712,189.222z M152.259,198h-1.121v-7h1.121V198z"/>
		<path fill="#2F2F2F" d="M160.188,198h-1.121v-3.992c0-1.485-0.542-2.229-1.627-2.229c-0.561,0-1.024,0.211-1.391,0.632
			c-0.367,0.422-0.55,0.954-0.55,1.597V198h-1.121v-7h1.121v1.162h0.027c0.529-0.884,1.294-1.326,2.297-1.326
			c0.766,0,1.351,0.247,1.757,0.741c0.406,0.495,0.608,1.209,0.608,2.144V198z"/>
		<path fill="#2F2F2F" d="M161.836,197.747v-1.203c0.611,0.451,1.283,0.677,2.017,0.677c0.984,0,1.477-0.328,1.477-0.984
			c0-0.187-0.042-0.345-0.126-0.476c-0.084-0.129-0.198-0.244-0.342-0.345s-0.312-0.19-0.506-0.271
			c-0.194-0.079-0.402-0.162-0.625-0.249c-0.31-0.123-0.582-0.247-0.817-0.372c-0.235-0.126-0.431-0.268-0.588-0.424
			c-0.157-0.158-0.276-0.336-0.355-0.537s-0.12-0.436-0.12-0.704c0-0.328,0.075-0.618,0.226-0.872
			c0.15-0.252,0.351-0.465,0.602-0.635c0.25-0.172,0.537-0.301,0.858-0.387s0.653-0.13,0.995-0.13c0.606,0,1.148,0.104,1.627,0.314
			v1.135c-0.515-0.337-1.107-0.506-1.777-0.506c-0.209,0-0.399,0.024-0.567,0.071c-0.168,0.049-0.313,0.115-0.434,0.202
			s-0.214,0.19-0.28,0.312c-0.066,0.12-0.099,0.254-0.099,0.399c0,0.183,0.033,0.335,0.099,0.458s0.163,0.232,0.291,0.328
			s0.283,0.182,0.465,0.26s0.39,0.162,0.622,0.253c0.31,0.118,0.588,0.24,0.834,0.366c0.246,0.125,0.456,0.266,0.629,0.424
			c0.173,0.156,0.307,0.338,0.4,0.543s0.14,0.449,0.14,0.731c0,0.347-0.076,0.647-0.229,0.902s-0.356,0.468-0.612,0.636
			s-0.549,0.294-0.882,0.376s-0.681,0.123-1.046,0.123C162.989,198.164,162.365,198.024,161.836,197.747z"/>
		<path fill="#2F2F2F" d="M171.489,197.931c-0.264,0.146-0.613,0.219-1.046,0.219c-1.226,0-1.839-0.684-1.839-2.051v-4.143h-1.203
			V191h1.203v-1.709l1.121-0.362V191h1.764v0.957h-1.764v3.944c0,0.469,0.08,0.805,0.239,1.005s0.424,0.301,0.793,0.301
			c0.283,0,0.526-0.077,0.731-0.232V197.931z"/>
		<path fill="#2F2F2F" d="M178.106,198h-1.121v-1.094h-0.027c-0.488,0.839-1.206,1.258-2.153,1.258
			c-0.697,0-1.243-0.185-1.637-0.554s-0.591-0.859-0.591-1.47c0-1.308,0.77-2.069,2.311-2.283l2.099-0.294
			c0-1.189-0.481-1.784-1.442-1.784c-0.843,0-1.604,0.287-2.283,0.861v-1.148c0.688-0.438,1.481-0.656,2.379-0.656
			c1.645,0,2.468,0.87,2.468,2.611V198z M176.985,194.459l-1.688,0.232c-0.52,0.073-0.912,0.202-1.176,0.386
			c-0.264,0.186-0.396,0.512-0.396,0.981c0,0.342,0.122,0.621,0.366,0.837c0.244,0.217,0.568,0.325,0.974,0.325
			c0.556,0,1.015-0.194,1.377-0.585c0.362-0.389,0.543-0.883,0.543-1.479V194.459z"/>
		<path fill="#2F2F2F" d="M185.938,198h-1.121v-3.992c0-1.485-0.542-2.229-1.627-2.229c-0.561,0-1.024,0.211-1.391,0.632
			c-0.367,0.422-0.55,0.954-0.55,1.597V198h-1.121v-7h1.121v1.162h0.027c0.529-0.884,1.294-1.326,2.297-1.326
			c0.766,0,1.351,0.247,1.757,0.741c0.406,0.495,0.608,1.209,0.608,2.144V198z"/>
		<path fill="#2F2F2F" d="M192.787,197.679c-0.538,0.324-1.176,0.485-1.914,0.485c-0.998,0-1.804-0.325-2.417-0.974
			c-0.613-0.65-0.919-1.492-0.919-2.526c0-1.153,0.331-2.079,0.991-2.778c0.661-0.7,1.542-1.05,2.646-1.05
			c0.615,0,1.158,0.114,1.627,0.342v1.148c-0.52-0.364-1.076-0.547-1.668-0.547c-0.715,0-1.302,0.257-1.76,0.769
			c-0.458,0.514-0.687,1.187-0.687,2.021c0,0.82,0.215,1.468,0.646,1.941s1.008,0.711,1.733,0.711c0.611,0,1.185-0.202,1.723-0.608
			V197.679z"/>
		<path fill="#2F2F2F" d="M199.957,194.78h-4.942c0.018,0.779,0.228,1.381,0.629,1.805s0.953,0.636,1.654,0.636
			c0.789,0,1.513-0.26,2.174-0.779v1.053c-0.615,0.446-1.429,0.67-2.44,0.67c-0.989,0-1.766-0.317-2.331-0.954
			c-0.565-0.635-0.848-1.529-0.848-2.683c0-1.089,0.309-1.977,0.926-2.663c0.618-0.686,1.384-1.028,2.3-1.028
			s1.625,0.296,2.126,0.889s0.752,1.415,0.752,2.468V194.78z M198.808,193.83c-0.004-0.647-0.161-1.151-0.468-1.511
			s-0.735-0.54-1.282-0.54c-0.529,0-0.978,0.188-1.347,0.567s-0.597,0.873-0.684,1.483H198.808z"/>
		<path fill="#2F2F2F" d="M205.179,197.603v-1.354c0.155,0.137,0.341,0.26,0.557,0.369s0.444,0.202,0.684,0.276
			c0.239,0.076,0.479,0.134,0.721,0.175s0.465,0.062,0.67,0.062c0.707,0,1.234-0.131,1.583-0.393
			c0.349-0.263,0.523-0.64,0.523-1.132c0-0.265-0.058-0.495-0.174-0.69s-0.277-0.375-0.482-0.537
			c-0.205-0.161-0.448-0.316-0.728-0.465c-0.28-0.147-0.582-0.304-0.906-0.468c-0.342-0.173-0.661-0.349-0.957-0.526
			s-0.554-0.373-0.772-0.588s-0.391-0.457-0.516-0.729c-0.125-0.271-0.188-0.588-0.188-0.953c0-0.447,0.098-0.835,0.294-1.166
			c0.196-0.33,0.454-0.602,0.772-0.816s0.683-0.373,1.09-0.479s0.824-0.157,1.248-0.157c0.966,0,1.67,0.116,2.112,0.349v1.292
			c-0.579-0.401-1.322-0.602-2.229-0.602c-0.25,0-0.501,0.026-0.752,0.079c-0.25,0.052-0.474,0.137-0.67,0.256
			s-0.355,0.271-0.479,0.458s-0.185,0.415-0.185,0.684c0,0.251,0.047,0.468,0.14,0.649s0.231,0.349,0.414,0.499
			s0.404,0.296,0.667,0.438s0.564,0.296,0.906,0.465c0.351,0.173,0.684,0.355,0.998,0.547s0.59,0.403,0.827,0.636
			s0.425,0.49,0.564,0.772s0.208,0.606,0.208,0.971c0,0.483-0.095,0.892-0.284,1.228c-0.189,0.334-0.444,0.607-0.766,0.816
			s-0.691,0.361-1.111,0.455c-0.419,0.093-0.861,0.14-1.326,0.14c-0.155,0-0.346-0.013-0.574-0.038
			c-0.228-0.024-0.46-0.061-0.697-0.109c-0.237-0.047-0.461-0.106-0.673-0.178C205.477,197.768,205.307,197.69,205.179,197.603z"/>
		<path fill="#2F2F2F" d="M218.061,198h-5.196v-9.803h4.977v1.039h-3.829v3.261h3.542v1.032h-3.542v3.432h4.047V198z"/>
	</g>
	<g>
		<path fill="#2F2F2F" d="M80.027,254.804v-1.354c0.155,0.137,0.341,0.26,0.557,0.369s0.444,0.201,0.684,0.276
			s0.479,0.134,0.721,0.175s0.465,0.062,0.67,0.062c0.707,0,1.234-0.131,1.583-0.394c0.349-0.262,0.523-0.639,0.523-1.131
			c0-0.265-0.058-0.495-0.174-0.69c-0.116-0.196-0.277-0.375-0.482-0.537c-0.205-0.161-0.448-0.316-0.728-0.465
			c-0.28-0.147-0.582-0.304-0.906-0.468c-0.342-0.174-0.661-0.349-0.957-0.526s-0.554-0.374-0.772-0.588
			c-0.219-0.215-0.391-0.457-0.516-0.729c-0.125-0.271-0.188-0.589-0.188-0.953c0-0.447,0.098-0.835,0.294-1.166
			c0.196-0.33,0.454-0.603,0.772-0.816c0.319-0.215,0.683-0.374,1.09-0.479c0.408-0.105,0.824-0.157,1.248-0.157
			c0.966,0,1.67,0.116,2.112,0.349v1.292c-0.579-0.401-1.322-0.602-2.229-0.602c-0.25,0-0.501,0.026-0.752,0.078
			c-0.25,0.053-0.474,0.138-0.67,0.257c-0.196,0.118-0.355,0.271-0.479,0.458c-0.123,0.187-0.185,0.414-0.185,0.684
			c0,0.25,0.047,0.467,0.14,0.649c0.093,0.182,0.231,0.349,0.414,0.499s0.404,0.296,0.667,0.438
			c0.262,0.141,0.564,0.296,0.906,0.465c0.351,0.173,0.684,0.355,0.998,0.547s0.59,0.403,0.827,0.636s0.425,0.489,0.564,0.772
			c0.139,0.282,0.208,0.605,0.208,0.971c0,0.482-0.095,0.892-0.284,1.227s-0.444,0.607-0.766,0.817
			c-0.321,0.209-0.691,0.361-1.111,0.454c-0.419,0.094-0.861,0.141-1.326,0.141c-0.155,0-0.346-0.013-0.574-0.038
			c-0.228-0.024-0.46-0.062-0.697-0.109s-0.461-0.106-0.673-0.178C80.325,254.969,80.155,254.889,80.027,254.804z"/>
		<path fill="#2F2F2F" d="M91.734,255.364c-1.385,0-2.5-0.458-3.343-1.374c-0.834-0.916-1.251-2.108-1.251-3.575
			c0-1.582,0.426-2.84,1.278-3.773c0.857-0.939,2.017-1.408,3.479-1.408c1.349,0,2.438,0.455,3.268,1.367
			c0.83,0.911,1.244,2.103,1.244,3.575c0,1.6-0.424,2.864-1.271,3.794c-0.201,0.223-0.415,0.414-0.643,0.574l2.755,1.976h-2.085
			l-1.846-1.381C92.837,255.289,92.308,255.364,91.734,255.364z M91.816,246.272c-1.03,0-1.866,0.371-2.509,1.114
			c-0.643,0.742-0.964,1.718-0.964,2.926c0,1.203,0.312,2.176,0.937,2.919c0.629,0.733,1.447,1.101,2.454,1.101
			c1.076,0,1.923-0.352,2.543-1.053c0.62-0.702,0.93-1.685,0.93-2.946c0-1.299-0.301-2.3-0.902-3.001
			C93.702,246.625,92.873,246.272,91.816,246.272z"/>
		<path fill="#2F2F2F" d="M103.303,255.2h-5.086v-9.803h1.148v8.764h3.938V255.2z"/>
		<path fill="#2F2F2F" d="M108.184,254.804v-1.354c0.155,0.137,0.341,0.26,0.557,0.369s0.444,0.201,0.684,0.276
			s0.479,0.134,0.721,0.175s0.465,0.062,0.67,0.062c0.707,0,1.234-0.131,1.583-0.394c0.349-0.262,0.523-0.639,0.523-1.131
			c0-0.265-0.058-0.495-0.174-0.69c-0.116-0.196-0.277-0.375-0.482-0.537c-0.205-0.161-0.448-0.316-0.728-0.465
			c-0.28-0.147-0.582-0.304-0.906-0.468c-0.342-0.174-0.661-0.349-0.957-0.526s-0.554-0.374-0.772-0.588
			c-0.219-0.215-0.391-0.457-0.516-0.729c-0.125-0.271-0.188-0.589-0.188-0.953c0-0.447,0.098-0.835,0.294-1.166
			c0.196-0.33,0.454-0.603,0.772-0.816c0.319-0.215,0.683-0.374,1.09-0.479c0.408-0.105,0.824-0.157,1.248-0.157
			c0.966,0,1.67,0.116,2.112,0.349v1.292c-0.579-0.401-1.322-0.602-2.229-0.602c-0.25,0-0.501,0.026-0.752,0.078
			c-0.25,0.053-0.474,0.138-0.67,0.257c-0.196,0.118-0.355,0.271-0.479,0.458c-0.123,0.187-0.185,0.414-0.185,0.684
			c0,0.25,0.047,0.467,0.14,0.649c0.093,0.182,0.231,0.349,0.414,0.499s0.404,0.296,0.667,0.438
			c0.262,0.141,0.564,0.296,0.906,0.465c0.351,0.173,0.684,0.355,0.998,0.547s0.59,0.403,0.827,0.636s0.425,0.489,0.564,0.772
			c0.139,0.282,0.208,0.605,0.208,0.971c0,0.482-0.095,0.892-0.284,1.227s-0.444,0.607-0.766,0.817
			c-0.321,0.209-0.691,0.361-1.111,0.454c-0.419,0.094-0.861,0.141-1.326,0.141c-0.155,0-0.346-0.013-0.574-0.038
			c-0.228-0.024-0.46-0.062-0.697-0.109s-0.461-0.106-0.673-0.178C108.481,254.969,108.311,254.889,108.184,254.804z"/>
		<path fill="#2F2F2F" d="M121.506,251.98h-4.942c0.018,0.779,0.228,1.381,0.629,1.805s0.953,0.636,1.654,0.636
			c0.789,0,1.513-0.26,2.174-0.779v1.053c-0.615,0.446-1.429,0.67-2.44,0.67c-0.989,0-1.766-0.318-2.331-0.954
			s-0.848-1.53-0.848-2.683c0-1.09,0.309-1.977,0.926-2.663c0.618-0.686,1.384-1.028,2.3-1.028s1.625,0.296,2.126,0.889
			c0.501,0.592,0.752,1.415,0.752,2.468V251.98z M120.357,251.03c-0.004-0.647-0.161-1.151-0.468-1.511
			c-0.308-0.36-0.735-0.54-1.282-0.54c-0.529,0-0.978,0.188-1.347,0.567c-0.369,0.378-0.597,0.872-0.684,1.483H120.357z"/>
		<path fill="#2F2F2F" d="M126.839,249.335c-0.196-0.15-0.479-0.226-0.848-0.226c-0.479,0-0.878,0.226-1.2,0.677
			s-0.482,1.066-0.482,1.846v3.568h-1.121v-7h1.121v1.442h0.027c0.16-0.492,0.403-0.876,0.731-1.152
			c0.328-0.275,0.695-0.413,1.101-0.413c0.292,0,0.515,0.031,0.67,0.096V249.335z"/>
		<path fill="#2F2F2F" d="M134.112,248.2l-2.789,7h-1.101l-2.652-7h1.23l1.777,5.086c0.132,0.373,0.214,0.699,0.246,0.978h0.027
			c0.045-0.352,0.119-0.668,0.219-0.95l1.859-5.113H134.112z"/>
		<path fill="#2F2F2F" d="M140.753,251.98h-4.942c0.018,0.779,0.228,1.381,0.629,1.805s0.953,0.636,1.654,0.636
			c0.789,0,1.513-0.26,2.174-0.779v1.053c-0.615,0.446-1.429,0.67-2.44,0.67c-0.989,0-1.766-0.318-2.331-0.954
			s-0.848-1.53-0.848-2.683c0-1.09,0.309-1.977,0.926-2.663c0.618-0.686,1.384-1.028,2.3-1.028s1.625,0.296,2.126,0.889
			c0.501,0.592,0.752,1.415,0.752,2.468V251.98z M139.605,251.03c-0.004-0.647-0.161-1.151-0.468-1.511
			c-0.308-0.36-0.735-0.54-1.282-0.54c-0.529,0-0.978,0.188-1.347,0.567c-0.369,0.378-0.597,0.872-0.684,1.483H139.605z"/>
		<path fill="#2F2F2F" d="M146.086,249.335c-0.196-0.15-0.479-0.226-0.848-0.226c-0.479,0-0.878,0.226-1.2,0.677
			s-0.482,1.066-0.482,1.846v3.568h-1.121v-7h1.121v1.442h0.027c0.16-0.492,0.403-0.876,0.731-1.152
			c0.328-0.275,0.695-0.413,1.101-0.413c0.292,0,0.515,0.031,0.67,0.096V249.335z"/>
		<path fill="#2F2F2F" d="M151.712,246.423c-0.201,0-0.372-0.068-0.513-0.205s-0.212-0.311-0.212-0.52
			c0-0.21,0.071-0.384,0.212-0.523c0.141-0.139,0.312-0.208,0.513-0.208c0.205,0,0.379,0.069,0.523,0.208
			c0.144,0.14,0.215,0.313,0.215,0.523c0,0.2-0.072,0.371-0.215,0.513C152.092,246.351,151.917,246.423,151.712,246.423z
			 M152.259,255.2h-1.121v-7h1.121V255.2z"/>
		<path fill="#2F2F2F" d="M160.188,255.2h-1.121v-3.992c0-1.486-0.542-2.229-1.627-2.229c-0.561,0-1.024,0.211-1.391,0.632
			c-0.367,0.422-0.55,0.954-0.55,1.597v3.992h-1.121v-7h1.121v1.162h0.027c0.529-0.885,1.294-1.326,2.297-1.326
			c0.766,0,1.351,0.247,1.757,0.741c0.406,0.495,0.608,1.209,0.608,2.144V255.2z"/>
		<path fill="#2F2F2F" d="M161.836,254.947v-1.203c0.611,0.451,1.283,0.677,2.017,0.677c0.984,0,1.477-0.328,1.477-0.984
			c0-0.188-0.042-0.346-0.126-0.476s-0.198-0.245-0.342-0.345c-0.144-0.101-0.312-0.19-0.506-0.271
			c-0.194-0.079-0.402-0.163-0.625-0.249c-0.31-0.123-0.582-0.247-0.817-0.373c-0.235-0.125-0.431-0.267-0.588-0.424
			s-0.276-0.336-0.355-0.536c-0.08-0.201-0.12-0.436-0.12-0.704c0-0.328,0.075-0.619,0.226-0.872s0.351-0.465,0.602-0.636
			s0.537-0.3,0.858-0.386c0.321-0.087,0.653-0.13,0.995-0.13c0.606,0,1.148,0.104,1.627,0.314v1.135
			c-0.515-0.338-1.107-0.506-1.777-0.506c-0.209,0-0.399,0.023-0.567,0.071s-0.313,0.115-0.434,0.202
			c-0.121,0.086-0.214,0.19-0.28,0.311c-0.066,0.121-0.099,0.254-0.099,0.4c0,0.182,0.033,0.335,0.099,0.458
			s0.163,0.232,0.291,0.328s0.283,0.182,0.465,0.26c0.182,0.077,0.39,0.161,0.622,0.253c0.31,0.118,0.588,0.24,0.834,0.365
			c0.246,0.126,0.456,0.267,0.629,0.424s0.307,0.339,0.4,0.544s0.14,0.448,0.14,0.731c0,0.346-0.076,0.646-0.229,0.902
			c-0.153,0.255-0.356,0.467-0.612,0.636c-0.255,0.168-0.549,0.294-0.882,0.376s-0.681,0.123-1.046,0.123
			C162.989,255.364,162.365,255.224,161.836,254.947z"/>
		<path fill="#2F2F2F" d="M171.489,255.132c-0.264,0.146-0.613,0.219-1.046,0.219c-1.226,0-1.839-0.684-1.839-2.051v-4.143h-1.203
			V248.2h1.203v-1.709l1.121-0.362v2.071h1.764v0.957h-1.764v3.944c0,0.469,0.08,0.804,0.239,1.005
			c0.16,0.2,0.424,0.301,0.793,0.301c0.283,0,0.526-0.078,0.731-0.232V255.132z"/>
		<path fill="#2F2F2F" d="M178.106,255.2h-1.121v-1.094h-0.027c-0.488,0.838-1.206,1.258-2.153,1.258
			c-0.697,0-1.243-0.185-1.637-0.554s-0.591-0.859-0.591-1.47c0-1.309,0.77-2.069,2.311-2.283l2.099-0.294
			c0-1.189-0.481-1.784-1.442-1.784c-0.843,0-1.604,0.287-2.283,0.861v-1.148c0.688-0.438,1.481-0.656,2.379-0.656
			c1.645,0,2.468,0.87,2.468,2.611V255.2z M176.985,251.659l-1.688,0.232c-0.52,0.072-0.912,0.201-1.176,0.386
			s-0.396,0.512-0.396,0.981c0,0.342,0.122,0.621,0.366,0.837c0.244,0.217,0.568,0.325,0.974,0.325c0.556,0,1.015-0.195,1.377-0.585
			s0.543-0.883,0.543-1.479V251.659z"/>
		<path fill="#2F2F2F" d="M185.938,255.2h-1.121v-3.992c0-1.486-0.542-2.229-1.627-2.229c-0.561,0-1.024,0.211-1.391,0.632
			c-0.367,0.422-0.55,0.954-0.55,1.597v3.992h-1.121v-7h1.121v1.162h0.027c0.529-0.885,1.294-1.326,2.297-1.326
			c0.766,0,1.351,0.247,1.757,0.741c0.406,0.495,0.608,1.209,0.608,2.144V255.2z"/>
		<path fill="#2F2F2F" d="M192.787,254.879c-0.538,0.323-1.176,0.485-1.914,0.485c-0.998,0-1.804-0.325-2.417-0.975
			s-0.919-1.491-0.919-2.525c0-1.153,0.331-2.079,0.991-2.779c0.661-0.699,1.542-1.049,2.646-1.049c0.615,0,1.158,0.113,1.627,0.342
			v1.148c-0.52-0.365-1.076-0.547-1.668-0.547c-0.715,0-1.302,0.256-1.76,0.769s-0.687,1.187-0.687,2.021
			c0,0.82,0.215,1.467,0.646,1.941c0.431,0.474,1.008,0.711,1.733,0.711c0.611,0,1.185-0.203,1.723-0.608V254.879z"/>
		<path fill="#2F2F2F" d="M199.957,251.98h-4.942c0.018,0.779,0.228,1.381,0.629,1.805s0.953,0.636,1.654,0.636
			c0.789,0,1.513-0.26,2.174-0.779v1.053c-0.615,0.446-1.429,0.67-2.44,0.67c-0.989,0-1.766-0.318-2.331-0.954
			s-0.848-1.53-0.848-2.683c0-1.09,0.309-1.977,0.926-2.663c0.618-0.686,1.384-1.028,2.3-1.028s1.625,0.296,2.126,0.889
			c0.501,0.592,0.752,1.415,0.752,2.468V251.98z M198.808,251.03c-0.004-0.647-0.161-1.151-0.468-1.511
			c-0.308-0.36-0.735-0.54-1.282-0.54c-0.529,0-0.978,0.188-1.347,0.567c-0.369,0.378-0.597,0.872-0.684,1.483H198.808z"/>
		<path fill="#2F2F2F" d="M205.179,254.804v-1.354c0.155,0.137,0.341,0.26,0.557,0.369s0.444,0.201,0.684,0.276
			s0.479,0.134,0.721,0.175s0.465,0.062,0.67,0.062c0.707,0,1.234-0.131,1.583-0.394c0.349-0.262,0.523-0.639,0.523-1.131
			c0-0.265-0.058-0.495-0.174-0.69c-0.116-0.196-0.277-0.375-0.482-0.537c-0.205-0.161-0.448-0.316-0.728-0.465
			c-0.28-0.147-0.582-0.304-0.906-0.468c-0.342-0.174-0.661-0.349-0.957-0.526s-0.554-0.374-0.772-0.588
			c-0.219-0.215-0.391-0.457-0.516-0.729c-0.125-0.271-0.188-0.589-0.188-0.953c0-0.447,0.098-0.835,0.294-1.166
			c0.196-0.33,0.454-0.603,0.772-0.816c0.319-0.215,0.683-0.374,1.09-0.479c0.408-0.105,0.824-0.157,1.248-0.157
			c0.966,0,1.67,0.116,2.112,0.349v1.292c-0.579-0.401-1.322-0.602-2.229-0.602c-0.25,0-0.501,0.026-0.752,0.078
			c-0.25,0.053-0.474,0.138-0.67,0.257c-0.196,0.118-0.355,0.271-0.479,0.458c-0.123,0.187-0.185,0.414-0.185,0.684
			c0,0.25,0.047,0.467,0.14,0.649c0.093,0.182,0.231,0.349,0.414,0.499s0.404,0.296,0.667,0.438
			c0.262,0.141,0.564,0.296,0.906,0.465c0.351,0.173,0.684,0.355,0.998,0.547s0.59,0.403,0.827,0.636s0.425,0.489,0.564,0.772
			c0.139,0.282,0.208,0.605,0.208,0.971c0,0.482-0.095,0.892-0.284,1.227s-0.444,0.607-0.766,0.817
			c-0.321,0.209-0.691,0.361-1.111,0.454c-0.419,0.094-0.861,0.141-1.326,0.141c-0.155,0-0.346-0.013-0.574-0.038
			c-0.228-0.024-0.46-0.062-0.697-0.109s-0.461-0.106-0.673-0.178C205.477,254.969,205.307,254.889,205.179,254.804z"/>
		<path fill="#2F2F2F" d="M218.061,255.2h-5.196v-9.803h4.977v1.039h-3.829v3.261h3.542v1.032h-3.542v3.432h4.047V255.2z"/>
	</g>
	<g>
		<rect x="300.576" y="39.6" fill="none" width="162.8" height="39.6"/>
		<path fill="#2F2F2F" d="M313.488,49.963h-5.086V40.16h1.148v8.764h3.938V49.963z"/>
		<path fill="#2F2F2F" d="M315.37,41.185c-0.201,0-0.372-0.068-0.513-0.205s-0.212-0.31-0.212-0.52c0-0.209,0.071-0.384,0.212-0.522
			c0.141-0.14,0.312-0.209,0.513-0.209c0.205,0,0.379,0.069,0.523,0.209c0.144,0.139,0.215,0.313,0.215,0.522
			c0,0.201-0.072,0.372-0.215,0.513C315.75,41.115,315.576,41.185,315.37,41.185z M315.917,49.963h-1.121v-7h1.121V49.963z"/>
		<path fill="#2F2F2F" d="M322.829,49.641c-0.538,0.324-1.176,0.485-1.914,0.485c-0.998,0-1.804-0.324-2.417-0.974
			s-0.919-1.491-0.919-2.526c0-1.152,0.331-2.079,0.991-2.778c0.661-0.7,1.542-1.05,2.646-1.05c0.615,0,1.158,0.114,1.627,0.342
			v1.148c-0.52-0.364-1.076-0.547-1.668-0.547c-0.715,0-1.302,0.257-1.76,0.77s-0.687,1.186-0.687,2.02
			c0,0.82,0.215,1.468,0.646,1.941c0.431,0.475,1.008,0.711,1.733,0.711c0.611,0,1.185-0.202,1.723-0.608V49.641z"/>
		<path fill="#2F2F2F" d="M330,46.743h-4.942c0.018,0.779,0.228,1.381,0.629,1.805s0.953,0.636,1.654,0.636
			c0.789,0,1.513-0.26,2.174-0.779v1.053c-0.615,0.447-1.429,0.67-2.44,0.67c-0.989,0-1.766-0.317-2.331-0.953
			s-0.848-1.53-0.848-2.684c0-1.089,0.309-1.977,0.926-2.662c0.618-0.687,1.384-1.029,2.3-1.029s1.625,0.297,2.126,0.889
			c0.501,0.593,0.752,1.415,0.752,2.468V46.743z M328.851,45.793c-0.004-0.646-0.161-1.15-0.468-1.511
			c-0.308-0.359-0.735-0.54-1.282-0.54c-0.529,0-0.978,0.189-1.347,0.567c-0.369,0.379-0.597,0.873-0.684,1.483H328.851z"/>
		<path fill="#2F2F2F" d="M337.493,49.963h-1.121v-3.992c0-1.485-0.542-2.229-1.627-2.229c-0.561,0-1.024,0.211-1.391,0.633
			c-0.367,0.421-0.55,0.953-0.55,1.596v3.992h-1.121v-7h1.121v1.162h0.027c0.529-0.884,1.294-1.326,2.297-1.326
			c0.766,0,1.351,0.247,1.757,0.742c0.406,0.494,0.608,1.209,0.608,2.143V49.963z"/>
		<path fill="#2F2F2F" d="M339.141,49.71v-1.203c0.611,0.451,1.283,0.677,2.017,0.677c0.984,0,1.477-0.328,1.477-0.984
			c0-0.187-0.042-0.345-0.126-0.475s-0.198-0.245-0.342-0.346c-0.144-0.1-0.312-0.19-0.506-0.27c-0.194-0.08-0.402-0.163-0.625-0.25
			c-0.31-0.123-0.582-0.247-0.817-0.372c-0.235-0.126-0.431-0.267-0.588-0.424s-0.276-0.336-0.355-0.537
			c-0.08-0.2-0.12-0.435-0.12-0.704c0-0.328,0.075-0.618,0.226-0.871s0.351-0.465,0.602-0.636s0.537-0.3,0.858-0.387
			c0.321-0.086,0.653-0.13,0.995-0.13c0.606,0,1.148,0.105,1.627,0.314v1.135c-0.515-0.337-1.107-0.506-1.777-0.506
			c-0.209,0-0.399,0.024-0.567,0.072s-0.313,0.115-0.434,0.201c-0.121,0.087-0.214,0.19-0.28,0.312
			c-0.066,0.12-0.099,0.254-0.099,0.399c0,0.183,0.033,0.335,0.099,0.458s0.163,0.232,0.291,0.328s0.283,0.183,0.465,0.26
			c0.182,0.078,0.39,0.162,0.622,0.253c0.31,0.119,0.588,0.24,0.834,0.366c0.246,0.125,0.456,0.267,0.629,0.424
			s0.307,0.338,0.4,0.543s0.14,0.449,0.14,0.731c0,0.347-0.076,0.647-0.229,0.902c-0.153,0.256-0.356,0.468-0.612,0.636
			c-0.255,0.169-0.549,0.294-0.882,0.376s-0.681,0.123-1.046,0.123C340.294,50.127,339.67,49.988,339.141,49.71z"/>
		<path fill="#2F2F2F" d="M345.932,41.185c-0.201,0-0.372-0.068-0.513-0.205s-0.212-0.31-0.212-0.52
			c0-0.209,0.071-0.384,0.212-0.522c0.141-0.14,0.312-0.209,0.513-0.209c0.205,0,0.379,0.069,0.523,0.209
			c0.144,0.139,0.215,0.313,0.215,0.522c0,0.201-0.072,0.372-0.215,0.513C346.312,41.115,346.138,41.185,345.932,41.185z
			 M346.479,49.963h-1.121v-7h1.121V49.963z"/>
		<path fill="#2F2F2F" d="M354.412,49.963h-1.121v-3.992c0-1.485-0.542-2.229-1.627-2.229c-0.561,0-1.024,0.211-1.391,0.633
			c-0.367,0.421-0.55,0.953-0.55,1.596v3.992h-1.121v-7h1.121v1.162h0.027c0.529-0.884,1.294-1.326,2.297-1.326
			c0.766,0,1.351,0.247,1.757,0.742c0.406,0.494,0.608,1.209,0.608,2.143V49.963z"/>
		<path fill="#2F2F2F" d="M362.487,49.402c0,2.57-1.23,3.855-3.691,3.855c-0.866,0-1.623-0.164-2.27-0.492v-1.121
			c0.789,0.438,1.541,0.656,2.256,0.656c1.723,0,2.584-0.916,2.584-2.748v-0.766h-0.027c-0.533,0.894-1.335,1.34-2.406,1.34
			c-0.871,0-1.571-0.311-2.102-0.933s-0.796-1.457-0.796-2.506c0-1.189,0.286-2.135,0.858-2.837
			c0.572-0.701,1.354-1.053,2.348-1.053c0.943,0,1.643,0.379,2.099,1.135h0.027v-0.971h1.121V49.402z M361.366,46.798v-1.032
			c0-0.556-0.188-1.032-0.564-1.429s-0.844-0.595-1.405-0.595c-0.693,0-1.235,0.252-1.627,0.756
			c-0.392,0.503-0.588,1.209-0.588,2.115c0,0.779,0.188,1.402,0.564,1.87c0.376,0.467,0.874,0.7,1.494,0.7
			c0.629,0,1.141-0.223,1.535-0.67C361.168,48.067,361.366,47.495,361.366,46.798z"/>
		<path fill="#2F2F2F" d="M371.838,49.894c-0.264,0.146-0.613,0.219-1.046,0.219c-1.226,0-1.839-0.684-1.839-2.051V43.92h-1.203
			v-0.957h1.203v-1.709l1.121-0.362v2.071h1.764v0.957h-1.764v3.944c0,0.47,0.08,0.805,0.239,1.005
			c0.16,0.201,0.424,0.301,0.793,0.301c0.283,0,0.526-0.077,0.731-0.232V49.894z"/>
		<path fill="#2F2F2F" d="M379.03,49.963h-1.121v-4.033c0-1.458-0.542-2.188-1.627-2.188c-0.547,0-1.007,0.211-1.381,0.633
			c-0.374,0.421-0.561,0.963-0.561,1.623v3.965h-1.121V39.599h1.121v4.525h0.027c0.538-0.884,1.303-1.326,2.297-1.326
			c1.577,0,2.365,0.95,2.365,2.851V49.963z"/>
		<path fill="#2F2F2F" d="M386.733,46.743h-4.942c0.019,0.779,0.228,1.381,0.629,1.805s0.952,0.636,1.654,0.636
			c0.788,0,1.513-0.26,2.174-0.779v1.053c-0.615,0.447-1.429,0.67-2.44,0.67c-0.989,0-1.766-0.317-2.331-0.953
			s-0.848-1.53-0.848-2.684c0-1.089,0.309-1.977,0.926-2.662c0.618-0.687,1.385-1.029,2.301-1.029s1.625,0.297,2.126,0.889
			c0.501,0.593,0.752,1.415,0.752,2.468V46.743z M385.584,45.793c-0.005-0.646-0.161-1.15-0.468-1.511
			c-0.309-0.359-0.735-0.54-1.282-0.54c-0.528,0-0.978,0.189-1.347,0.567c-0.369,0.379-0.597,0.873-0.684,1.483H385.584z"/>
		<path fill="#2F2F2F" d="M397.889,46.743h-4.942c0.019,0.779,0.228,1.381,0.629,1.805s0.952,0.636,1.654,0.636
			c0.788,0,1.513-0.26,2.174-0.779v1.053c-0.615,0.447-1.429,0.67-2.44,0.67c-0.989,0-1.766-0.317-2.331-0.953
			s-0.848-1.53-0.848-2.684c0-1.089,0.309-1.977,0.926-2.662c0.618-0.687,1.385-1.029,2.301-1.029s1.625,0.297,2.126,0.889
			c0.501,0.593,0.752,1.415,0.752,2.468V46.743z M396.741,45.793c-0.005-0.646-0.161-1.15-0.468-1.511
			c-0.309-0.359-0.735-0.54-1.282-0.54c-0.528,0-0.978,0.189-1.347,0.567c-0.369,0.379-0.597,0.873-0.684,1.483H396.741z"/>
		<path fill="#2F2F2F" d="M405.382,49.963h-1.121v-3.992c0-1.485-0.542-2.229-1.627-2.229c-0.561,0-1.024,0.211-1.391,0.633
			c-0.367,0.421-0.551,0.953-0.551,1.596v3.992h-1.121v-7h1.121v1.162h0.027c0.528-0.884,1.294-1.326,2.297-1.326
			c0.766,0,1.352,0.247,1.757,0.742c0.405,0.494,0.608,1.209,0.608,2.143V49.963z"/>
		<path fill="#2F2F2F" d="M410.612,49.894c-0.265,0.146-0.613,0.219-1.046,0.219c-1.226,0-1.839-0.684-1.839-2.051V43.92h-1.203
			v-0.957h1.203v-1.709l1.121-0.362v2.071h1.764v0.957h-1.764v3.944c0,0.47,0.08,0.805,0.239,1.005
			c0.159,0.201,0.424,0.301,0.793,0.301c0.282,0,0.526-0.077,0.731-0.232V49.894z"/>
		<path fill="#2F2F2F" d="M412.567,41.185c-0.2,0-0.371-0.068-0.513-0.205s-0.212-0.31-0.212-0.52c0-0.209,0.07-0.384,0.212-0.522
			c0.142-0.14,0.312-0.209,0.513-0.209c0.205,0,0.379,0.069,0.523,0.209c0.143,0.139,0.215,0.313,0.215,0.522
			c0,0.201-0.072,0.372-0.215,0.513C412.946,41.115,412.772,41.185,412.567,41.185z M413.114,49.963h-1.121v-7h1.121V49.963z"/>
		<path fill="#2F2F2F" d="M418.882,44.097c-0.196-0.15-0.479-0.226-0.848-0.226c-0.479,0-0.879,0.226-1.199,0.677
			c-0.322,0.451-0.482,1.066-0.482,1.846v3.568h-1.121v-7h1.121v1.442h0.027c0.159-0.492,0.403-0.876,0.731-1.151
			c0.328-0.276,0.695-0.414,1.101-0.414c0.292,0,0.515,0.032,0.67,0.096V44.097z"/>
		<path fill="#2F2F2F" d="M425.725,46.743h-4.942c0.019,0.779,0.228,1.381,0.629,1.805s0.952,0.636,1.654,0.636
			c0.788,0,1.513-0.26,2.174-0.779v1.053c-0.615,0.447-1.429,0.67-2.44,0.67c-0.989,0-1.766-0.317-2.331-0.953
			s-0.848-1.53-0.848-2.684c0-1.089,0.309-1.977,0.926-2.662c0.618-0.687,1.385-1.029,2.301-1.029s1.625,0.297,2.126,0.889
			c0.501,0.593,0.752,1.415,0.752,2.468V46.743z M424.576,45.793c-0.005-0.646-0.161-1.15-0.468-1.511
			c-0.309-0.359-0.735-0.54-1.282-0.54c-0.528,0-0.978,0.189-1.347,0.567c-0.369,0.379-0.597,0.873-0.684,1.483H424.576z"/>
		<path fill="#2F2F2F" d="M437.066,49.963h-1.121v-4.033c0-1.458-0.542-2.188-1.627-2.188c-0.547,0-1.007,0.211-1.381,0.633
			c-0.374,0.421-0.561,0.963-0.561,1.623v3.965h-1.121V39.599h1.121v4.525h0.027c0.538-0.884,1.304-1.326,2.297-1.326
			c1.577,0,2.365,0.95,2.365,2.851V49.963z"/>
		<path fill="#2F2F2F" d="M442.069,50.127c-1.034,0-1.86-0.327-2.479-0.98c-0.617-0.654-0.926-1.521-0.926-2.602
			c0-1.176,0.321-2.094,0.964-2.755c0.643-0.66,1.511-0.991,2.604-0.991c1.044,0,1.858,0.321,2.443,0.964
			c0.586,0.643,0.879,1.534,0.879,2.673c0,1.117-0.315,2.011-0.947,2.684C443.977,49.791,443.13,50.127,442.069,50.127z
			 M442.151,43.742c-0.72,0-1.29,0.245-1.709,0.735c-0.419,0.489-0.629,1.165-0.629,2.026c0,0.83,0.212,1.483,0.636,1.962
			s0.991,0.718,1.702,0.718c0.725,0,1.281-0.234,1.672-0.704c0.389-0.469,0.584-1.137,0.584-2.003c0-0.875-0.195-1.549-0.584-2.023
			C443.432,43.979,442.875,43.742,442.151,43.742z"/>
		<path fill="#2F2F2F" d="M446.821,49.71v-1.203c0.61,0.451,1.283,0.677,2.017,0.677c0.984,0,1.477-0.328,1.477-0.984
			c0-0.187-0.042-0.345-0.126-0.475c-0.085-0.13-0.199-0.245-0.342-0.346c-0.145-0.1-0.312-0.19-0.506-0.27
			c-0.194-0.08-0.402-0.163-0.626-0.25c-0.31-0.123-0.582-0.247-0.817-0.372c-0.234-0.126-0.43-0.267-0.588-0.424
			c-0.156-0.157-0.275-0.336-0.355-0.537c-0.079-0.2-0.119-0.435-0.119-0.704c0-0.328,0.075-0.618,0.226-0.871
			s0.351-0.465,0.602-0.636s0.536-0.3,0.858-0.387c0.32-0.086,0.652-0.13,0.994-0.13c0.606,0,1.148,0.105,1.627,0.314v1.135
			c-0.515-0.337-1.107-0.506-1.777-0.506c-0.21,0-0.398,0.024-0.567,0.072s-0.313,0.115-0.435,0.201
			c-0.12,0.087-0.214,0.19-0.279,0.312c-0.066,0.12-0.1,0.254-0.1,0.399c0,0.183,0.033,0.335,0.1,0.458
			c0.065,0.123,0.162,0.232,0.29,0.328s0.282,0.183,0.465,0.26c0.183,0.078,0.39,0.162,0.622,0.253
			c0.31,0.119,0.588,0.24,0.834,0.366c0.246,0.125,0.456,0.267,0.629,0.424s0.307,0.338,0.4,0.543
			c0.093,0.205,0.14,0.449,0.14,0.731c0,0.347-0.076,0.647-0.229,0.902c-0.152,0.256-0.356,0.468-0.611,0.636
			c-0.255,0.169-0.549,0.294-0.882,0.376s-0.682,0.123-1.046,0.123C447.974,50.127,447.349,49.988,446.821,49.71z"/>
		<path fill="#2F2F2F" d="M456.474,49.894c-0.265,0.146-0.613,0.219-1.046,0.219c-1.226,0-1.839-0.684-1.839-2.051V43.92h-1.203
			v-0.957h1.203v-1.709l1.121-0.362v2.071h1.764v0.957h-1.764v3.944c0,0.47,0.08,0.805,0.239,1.005
			c0.159,0.201,0.424,0.301,0.793,0.301c0.282,0,0.526-0.077,0.731-0.232V49.894z"/>
		<path fill="#2F2F2F" d="M325.03,59.763l-2.099,7h-1.162l-1.442-5.011c-0.055-0.191-0.091-0.407-0.109-0.649h-0.027
			c-0.014,0.164-0.062,0.376-0.144,0.636l-1.565,5.024h-1.121l-2.119-7h1.176l1.449,5.264c0.045,0.16,0.078,0.369,0.096,0.629h0.055
			c0.014-0.2,0.055-0.414,0.123-0.643l1.613-5.25h1.025l1.449,5.277c0.045,0.169,0.08,0.379,0.103,0.629h0.055
			c0.009-0.178,0.048-0.387,0.116-0.629l1.422-5.277H325.03z"/>
		<path fill="#2F2F2F" d="M326.887,57.985c-0.201,0-0.372-0.068-0.513-0.205s-0.212-0.31-0.212-0.52
			c0-0.209,0.071-0.384,0.212-0.522c0.141-0.14,0.312-0.209,0.513-0.209c0.205,0,0.379,0.069,0.523,0.209
			c0.144,0.139,0.215,0.313,0.215,0.522c0,0.201-0.072,0.372-0.215,0.513C327.266,57.915,327.092,57.985,326.887,57.985z
			 M327.434,66.762h-1.121v-7h1.121V66.762z"/>
		<path fill="#2F2F2F" d="M332.882,66.694c-0.264,0.146-0.613,0.219-1.046,0.219c-1.226,0-1.839-0.684-1.839-2.051V60.72h-1.203
			v-0.957h1.203v-1.709l1.121-0.362v2.071h1.764v0.957h-1.764v3.944c0,0.47,0.08,0.805,0.239,1.005
			c0.16,0.201,0.424,0.301,0.793,0.301c0.283,0,0.526-0.077,0.731-0.232V66.694z"/>
		<path fill="#2F2F2F" d="M340.074,66.762h-1.121v-4.033c0-1.458-0.542-2.188-1.627-2.188c-0.547,0-1.007,0.211-1.381,0.633
			c-0.374,0.421-0.561,0.963-0.561,1.623v3.965h-1.121V56.399h1.121v4.525h0.027c0.538-0.884,1.303-1.326,2.297-1.326
			c1.577,0,2.365,0.95,2.365,2.851V66.762z"/>
		<path fill="#2F2F2F" d="M345.076,66.927c-1.035,0-1.86-0.327-2.478-0.98c-0.618-0.654-0.926-1.521-0.926-2.602
			c0-1.176,0.321-2.094,0.964-2.755c0.643-0.66,1.511-0.991,2.604-0.991c1.043,0,1.858,0.321,2.444,0.964s0.878,1.534,0.878,2.673
			c0,1.117-0.315,2.011-0.947,2.684C346.985,66.591,346.138,66.927,345.076,66.927z M345.159,60.542c-0.72,0-1.29,0.245-1.709,0.735
			c-0.419,0.489-0.629,1.165-0.629,2.026c0,0.83,0.212,1.483,0.636,1.962s0.991,0.718,1.702,0.718c0.725,0,1.282-0.234,1.671-0.704
			c0.39-0.469,0.584-1.137,0.584-2.003c0-0.875-0.195-1.549-0.584-2.023C346.44,60.779,345.883,60.542,345.159,60.542z"/>
		<path fill="#2F2F2F" d="M355.972,66.762h-1.121v-1.107h-0.027c-0.465,0.848-1.185,1.271-2.16,1.271
			c-1.668,0-2.502-0.993-2.502-2.98v-4.184h1.114v4.006c0,1.477,0.565,2.215,1.695,2.215c0.547,0,0.997-0.201,1.35-0.604
			s0.53-0.931,0.53-1.583v-4.033h1.121V66.762z"/>
		<path fill="#2F2F2F" d="M361.415,66.694c-0.264,0.146-0.613,0.219-1.046,0.219c-1.226,0-1.839-0.684-1.839-2.051V60.72h-1.203
			v-0.957h1.203v-1.709l1.121-0.362v2.071h1.764v0.957h-1.764v3.944c0,0.47,0.08,0.805,0.239,1.005
			c0.16,0.201,0.424,0.301,0.793,0.301c0.283,0,0.526-0.077,0.731-0.232V66.694z"/>
		<path fill="#2F2F2F" d="M374.184,56.96l-3.63,9.803h-1.265l-3.555-9.803h1.278l2.714,7.772c0.086,0.251,0.153,0.54,0.198,0.868
			h0.027c0.037-0.273,0.112-0.567,0.226-0.882l2.769-7.759H374.184z"/>
		<path fill="#2F2F2F" d="M385.511,66.762h-1.142v-6.576c0-0.52,0.032-1.155,0.096-1.907h-0.027
			c-0.109,0.442-0.207,0.759-0.294,0.95l-3.35,7.533h-0.561l-3.343-7.479c-0.096-0.219-0.194-0.554-0.294-1.005h-0.027
			c0.037,0.393,0.055,1.032,0.055,1.921v6.562h-1.107V56.96h1.518l3.008,6.836c0.232,0.524,0.383,0.916,0.451,1.176h0.041
			c0.196-0.537,0.354-0.938,0.472-1.203l3.069-6.809h1.436V66.762z"/>
		<path fill="#2F2F2F" d="M387.433,66.51v-1.203c0.61,0.451,1.283,0.677,2.017,0.677c0.984,0,1.477-0.328,1.477-0.984
			c0-0.187-0.042-0.345-0.126-0.475c-0.085-0.13-0.199-0.245-0.342-0.346c-0.145-0.1-0.312-0.19-0.506-0.27
			c-0.194-0.08-0.402-0.163-0.626-0.25c-0.31-0.123-0.582-0.247-0.817-0.372c-0.234-0.126-0.43-0.267-0.588-0.424
			c-0.156-0.157-0.275-0.336-0.355-0.537c-0.079-0.2-0.119-0.435-0.119-0.704c0-0.328,0.075-0.618,0.226-0.871
			s0.351-0.465,0.602-0.636s0.536-0.3,0.858-0.387c0.32-0.086,0.652-0.13,0.994-0.13c0.606,0,1.148,0.105,1.627,0.314v1.135
			c-0.515-0.337-1.107-0.506-1.777-0.506c-0.21,0-0.398,0.024-0.567,0.072s-0.313,0.115-0.435,0.201
			c-0.12,0.087-0.214,0.19-0.279,0.312c-0.066,0.12-0.1,0.254-0.1,0.399c0,0.183,0.033,0.335,0.1,0.458
			c0.065,0.123,0.162,0.232,0.29,0.328s0.282,0.183,0.465,0.26c0.183,0.078,0.39,0.162,0.622,0.253
			c0.31,0.119,0.588,0.24,0.834,0.366c0.246,0.125,0.456,0.267,0.629,0.424s0.307,0.338,0.4,0.543
			c0.093,0.205,0.14,0.449,0.14,0.731c0,0.347-0.076,0.647-0.229,0.902c-0.152,0.256-0.356,0.468-0.611,0.636
			c-0.255,0.169-0.549,0.294-0.882,0.376s-0.682,0.123-1.046,0.123C388.586,66.927,387.961,66.788,387.433,66.51z"/>
		<path fill="#2F2F2F" d="M401.283,60.897c-0.196-0.15-0.479-0.226-0.848-0.226c-0.479,0-0.879,0.226-1.199,0.677
			c-0.322,0.451-0.482,1.066-0.482,1.846v3.568h-1.121v-7h1.121v1.442h0.027c0.159-0.492,0.403-0.876,0.731-1.151
			c0.328-0.276,0.695-0.414,1.101-0.414c0.292,0,0.515,0.032,0.67,0.096V60.897z"/>
		<path fill="#2F2F2F" d="M408.125,63.543h-4.942c0.019,0.779,0.228,1.381,0.629,1.805s0.952,0.636,1.654,0.636
			c0.788,0,1.513-0.26,2.174-0.779v1.053c-0.615,0.447-1.429,0.67-2.44,0.67c-0.989,0-1.766-0.317-2.331-0.953
			s-0.848-1.53-0.848-2.684c0-1.089,0.309-1.977,0.926-2.662c0.618-0.687,1.385-1.029,2.301-1.029s1.625,0.297,2.126,0.889
			c0.501,0.593,0.752,1.415,0.752,2.468V63.543z M406.977,62.593c-0.005-0.646-0.161-1.15-0.468-1.511
			c-0.309-0.359-0.735-0.54-1.282-0.54c-0.528,0-0.978,0.189-1.347,0.567c-0.369,0.379-0.597,0.873-0.684,1.483H406.977z"/>
		<path fill="#2F2F2F" d="M415.826,69.982h-1.121v-4.423h-0.027c-0.487,0.912-1.285,1.367-2.393,1.367
			c-0.88,0-1.585-0.313-2.115-0.939c-0.531-0.627-0.797-1.48-0.797-2.561c0-1.162,0.292-2.091,0.875-2.785
			c0.583-0.695,1.367-1.043,2.352-1.043c0.957,0,1.649,0.379,2.078,1.135h0.027v-0.971h1.121V69.982z M414.704,63.611v-1.019
			c0-0.574-0.188-1.06-0.564-1.456c-0.375-0.396-0.853-0.595-1.432-0.595c-0.675,0-1.208,0.25-1.6,0.749s-0.588,1.202-0.588,2.108
			c0,0.807,0.189,1.439,0.567,1.897s0.866,0.687,1.463,0.687c0.656,0,1.179-0.225,1.569-0.673
			C414.509,64.861,414.704,64.295,414.704,63.611z"/>
		<path fill="#2F2F2F" d="M423.654,66.762h-1.121v-1.107h-0.027c-0.465,0.848-1.185,1.271-2.16,1.271
			c-1.668,0-2.502-0.993-2.502-2.98v-4.184h1.114v4.006c0,1.477,0.565,2.215,1.695,2.215c0.547,0,0.997-0.201,1.351-0.604
			c0.353-0.403,0.529-0.931,0.529-1.583v-4.033h1.121V66.762z"/>
		<path fill="#2F2F2F" d="M426.342,57.985c-0.2,0-0.371-0.068-0.513-0.205s-0.212-0.31-0.212-0.52c0-0.209,0.07-0.384,0.212-0.522
			c0.142-0.14,0.312-0.209,0.513-0.209c0.205,0,0.379,0.069,0.523,0.209c0.143,0.139,0.215,0.313,0.215,0.522
			c0,0.201-0.072,0.372-0.215,0.513C426.721,57.915,426.547,57.985,426.342,57.985z M426.889,66.762h-1.121v-7h1.121V66.762z"/>
		<path fill="#2F2F2F" d="M432.66,60.897c-0.196-0.15-0.479-0.226-0.848-0.226c-0.479,0-0.879,0.226-1.199,0.677
			c-0.322,0.451-0.482,1.066-0.482,1.846v3.568h-1.121v-7h1.121v1.442h0.027c0.159-0.492,0.403-0.876,0.731-1.151
			c0.328-0.276,0.695-0.414,1.101-0.414c0.292,0,0.515,0.032,0.67,0.096V60.897z"/>
		<path fill="#2F2F2F" d="M439.503,63.543h-4.942c0.019,0.779,0.228,1.381,0.629,1.805s0.952,0.636,1.654,0.636
			c0.788,0,1.513-0.26,2.174-0.779v1.053c-0.615,0.447-1.429,0.67-2.44,0.67c-0.989,0-1.766-0.317-2.331-0.953
			s-0.848-1.53-0.848-2.684c0-1.089,0.309-1.977,0.926-2.662c0.618-0.687,1.385-1.029,2.301-1.029s1.625,0.297,2.126,0.889
			c0.501,0.593,0.752,1.415,0.752,2.468V63.543z M438.355,62.593c-0.005-0.646-0.161-1.15-0.468-1.511
			c-0.309-0.359-0.735-0.54-1.282-0.54c-0.528,0-0.978,0.189-1.347,0.567c-0.369,0.379-0.597,0.873-0.684,1.483H438.355z"/>
		<path fill="#2F2F2F" d="M440.745,66.51v-1.203c0.61,0.451,1.283,0.677,2.017,0.677c0.984,0,1.477-0.328,1.477-0.984
			c0-0.187-0.042-0.345-0.126-0.475c-0.085-0.13-0.199-0.245-0.342-0.346c-0.145-0.1-0.312-0.19-0.506-0.27
			c-0.194-0.08-0.402-0.163-0.626-0.25c-0.31-0.123-0.582-0.247-0.817-0.372c-0.234-0.126-0.43-0.267-0.588-0.424
			c-0.156-0.157-0.275-0.336-0.355-0.537c-0.079-0.2-0.119-0.435-0.119-0.704c0-0.328,0.075-0.618,0.226-0.871
			s0.351-0.465,0.602-0.636s0.536-0.3,0.858-0.387c0.32-0.086,0.652-0.13,0.994-0.13c0.606,0,1.148,0.105,1.627,0.314v1.135
			c-0.515-0.337-1.107-0.506-1.777-0.506c-0.21,0-0.398,0.024-0.567,0.072s-0.313,0.115-0.435,0.201
			c-0.12,0.087-0.214,0.19-0.279,0.312c-0.066,0.12-0.1,0.254-0.1,0.399c0,0.183,0.033,0.335,0.1,0.458
			c0.065,0.123,0.162,0.232,0.29,0.328s0.282,0.183,0.465,0.26c0.183,0.078,0.39,0.162,0.622,0.253
			c0.31,0.119,0.588,0.24,0.834,0.366c0.246,0.125,0.456,0.267,0.629,0.424s0.307,0.338,0.4,0.543
			c0.093,0.205,0.14,0.449,0.14,0.731c0,0.347-0.076,0.647-0.229,0.902c-0.152,0.256-0.356,0.468-0.611,0.636
			c-0.255,0.169-0.549,0.294-0.882,0.376s-0.682,0.123-1.046,0.123C441.899,66.927,441.274,66.788,440.745,66.51z"/>
		<path fill="#2F2F2F" d="M447.366,61.13c-0.21,0-0.389-0.075-0.536-0.226c-0.148-0.15-0.223-0.33-0.223-0.54
			c0-0.209,0.074-0.387,0.223-0.533c0.147-0.146,0.326-0.219,0.536-0.219c0.214,0,0.396,0.073,0.547,0.219
			c0.15,0.146,0.226,0.324,0.226,0.533c0,0.21-0.075,0.39-0.226,0.54S447.579,61.13,447.366,61.13z M447.366,66.913
			c-0.21,0-0.389-0.075-0.536-0.226c-0.148-0.15-0.223-0.33-0.223-0.54c0-0.209,0.074-0.391,0.223-0.543
			c0.147-0.153,0.326-0.229,0.536-0.229c0.214,0,0.396,0.076,0.547,0.229c0.15,0.152,0.226,0.334,0.226,0.543
			c0,0.21-0.075,0.39-0.226,0.54S447.579,66.913,447.366,66.913z"/>
	</g>
	<g>
		<rect x="292.326" y="93.4" fill="none" width="179.3" height="22"/>
		<path fill="#2F2F2F" d="M306.678,93.961v6.18h1.176v1.613h-1.176v2.01h-1.969v-2.01h-4.272v-1.688
			c0.378-0.424,0.77-0.888,1.176-1.392c0.406-0.503,0.797-1.021,1.176-1.555s0.73-1.07,1.056-1.61s0.603-1.056,0.831-1.548H306.678z
			 M302.371,100.14h2.338v-3.425c-0.16,0.296-0.333,0.596-0.52,0.898c-0.187,0.304-0.383,0.602-0.588,0.896
			s-0.413,0.579-0.622,0.854C302.77,99.64,302.567,99.898,302.371,100.14z"/>
		<path fill="#2F2F2F" d="M312.251,103.934c-2.333,0-3.5-1.639-3.5-4.915c0-1.7,0.315-2.995,0.947-3.887
			c0.631-0.891,1.546-1.336,2.745-1.336c2.279,0,3.418,1.665,3.418,4.997c0,1.658-0.311,2.93-0.933,3.814
			C314.305,103.492,313.413,103.934,312.251,103.934z M312.346,95.444c-0.934,0-1.401,1.173-1.401,3.521
			c0,2.21,0.458,3.315,1.374,3.315c0.893,0,1.34-1.14,1.34-3.418C313.659,96.583,313.221,95.444,312.346,95.444z"/>
		<path fill="#2F2F2F" d="M323.291,102.95h-0.027v4.033h-2.16v-10.22h2.16v1.053h0.027c0.533-0.816,1.283-1.224,2.249-1.224
			c0.907,0,1.607,0.311,2.102,0.933s0.742,1.469,0.742,2.54c0,1.166-0.288,2.103-0.865,2.81c-0.577,0.706-1.343,1.06-2.3,1.06
			C324.375,103.934,323.733,103.606,323.291,102.95z M323.229,100.079v0.561c0,0.482,0.127,0.877,0.383,1.183
			c0.255,0.305,0.59,0.458,1.005,0.458c0.492,0,0.874-0.19,1.145-0.571c0.271-0.38,0.407-0.919,0.407-1.616
			c0-1.23-0.479-1.846-1.436-1.846c-0.442,0-0.803,0.167-1.083,0.502S323.229,99.527,323.229,100.079z"/>
		<path fill="#2F2F2F" d="M333.609,100.783h-3.739v-1.511h3.739V100.783z"/>
		<path fill="#2F2F2F" d="M340.783,103.511c-0.488,0.282-1.192,0.424-2.112,0.424c-1.076,0-1.946-0.326-2.611-0.978
			c-0.666-0.652-0.998-1.493-0.998-2.522c0-1.189,0.356-2.127,1.07-2.813c0.713-0.686,1.667-1.028,2.861-1.028
			c0.825,0,1.422,0.109,1.791,0.328v1.832c-0.451-0.338-0.955-0.506-1.511-0.506c-0.62,0-1.111,0.181-1.473,0.543
			s-0.543,0.862-0.543,1.501c0,0.619,0.173,1.106,0.52,1.459c0.346,0.354,0.823,0.53,1.429,0.53c0.538,0,1.064-0.169,1.579-0.506
			V103.511z"/>
		<path fill="#2F2F2F" d="M345.513,103.934c-1.167,0-2.084-0.327-2.751-0.981c-0.667-0.653-1.001-1.541-1.001-2.662
			c0-1.158,0.346-2.063,1.039-2.718c0.693-0.653,1.629-0.98,2.81-0.98c1.162,0,2.074,0.327,2.734,0.98
			c0.661,0.654,0.991,1.519,0.991,2.595c0,1.162-0.341,2.08-1.022,2.755C347.631,103.596,346.698,103.934,345.513,103.934z
			 M345.568,98.247c-0.51,0-0.907,0.175-1.189,0.526c-0.283,0.351-0.424,0.848-0.424,1.49c0,1.344,0.542,2.017,1.627,2.017
			c1.035,0,1.552-0.69,1.552-2.071C347.133,98.9,346.611,98.247,345.568,98.247z"/>
		<path fill="#2F2F2F" d="M355.281,98.712c-0.26-0.142-0.563-0.212-0.909-0.212c-0.469,0-0.836,0.172-1.101,0.516
			c-0.264,0.345-0.396,0.812-0.396,1.405v3.343h-2.16v-7h2.16v1.299h0.027c0.342-0.948,0.957-1.422,1.846-1.422
			c0.228,0,0.406,0.027,0.533,0.082V98.712z"/>
		<path fill="#2F2F2F" d="M362.654,100.879h-4.566c0.073,1.016,0.713,1.524,1.921,1.524c0.77,0,1.447-0.183,2.03-0.547v1.559
			c-0.647,0.346-1.488,0.52-2.522,0.52c-1.13,0-2.007-0.313-2.632-0.94c-0.625-0.626-0.937-1.5-0.937-2.621
			c0-1.162,0.337-2.083,1.012-2.762c0.674-0.68,1.504-1.019,2.488-1.019c1.021,0,1.811,0.303,2.369,0.909
			c0.558,0.605,0.837,1.429,0.837,2.468V100.879z M360.651,99.553c0-1.003-0.406-1.504-1.217-1.504
			c-0.346,0-0.646,0.144-0.899,0.431s-0.407,0.645-0.461,1.073H360.651z"/>
		<path fill="#2F2F2F" d="M363.642,103.579v-1.75c0.355,0.214,0.71,0.373,1.063,0.479c0.353,0.104,0.687,0.157,1.001,0.157
			c0.383,0,0.685-0.053,0.906-0.157c0.221-0.105,0.332-0.265,0.332-0.479c0-0.137-0.05-0.251-0.15-0.342
			c-0.1-0.092-0.229-0.171-0.386-0.239s-0.329-0.13-0.516-0.185s-0.367-0.116-0.54-0.185c-0.278-0.105-0.523-0.218-0.735-0.339
			c-0.212-0.12-0.39-0.261-0.533-0.42c-0.144-0.16-0.253-0.345-0.328-0.554c-0.075-0.21-0.113-0.458-0.113-0.745
			c0-0.393,0.085-0.729,0.256-1.012c0.171-0.283,0.399-0.514,0.684-0.694c0.285-0.18,0.611-0.312,0.978-0.396
			c0.367-0.084,0.749-0.126,1.145-0.126c0.31,0,0.625,0.023,0.943,0.071s0.633,0.117,0.943,0.209v1.668
			c-0.273-0.16-0.566-0.279-0.878-0.359c-0.312-0.079-0.619-0.119-0.919-0.119c-0.141,0-0.274,0.013-0.4,0.037
			c-0.125,0.025-0.236,0.062-0.332,0.109s-0.171,0.109-0.226,0.185s-0.082,0.161-0.082,0.257c0,0.127,0.041,0.236,0.123,0.328
			c0.082,0.091,0.189,0.17,0.321,0.235c0.132,0.066,0.279,0.126,0.441,0.178c0.162,0.053,0.322,0.106,0.482,0.161
			c0.287,0.1,0.547,0.209,0.779,0.328c0.232,0.118,0.432,0.257,0.598,0.417c0.167,0.159,0.294,0.346,0.383,0.561
			c0.089,0.214,0.133,0.469,0.133,0.766c0,0.414-0.09,0.769-0.27,1.062s-0.419,0.533-0.718,0.718s-0.643,0.319-1.032,0.403
			c-0.39,0.085-0.794,0.127-1.213,0.127C365.012,103.934,364.298,103.815,363.642,103.579z"/>
		<path fill="#2F2F2F" d="M380.882,96.763l-2.311,3.391l2.297,3.609h-2.488l-1.012-1.887c-0.082-0.15-0.18-0.362-0.294-0.636h-0.027
			c-0.068,0.191-0.162,0.396-0.28,0.615l-1.019,1.907h-2.481l2.365-3.486l-2.222-3.514h2.502l0.998,1.962
			c0.132,0.26,0.226,0.479,0.28,0.656h0.027c0.073-0.215,0.171-0.438,0.294-0.67l1.019-1.948H380.882z"/>
		<path fill="#2F2F2F" d="M391.314,93.961v6.18h1.176v1.613h-1.176v2.01h-1.969v-2.01h-4.272v-1.688
			c0.378-0.424,0.771-0.888,1.176-1.392c0.405-0.503,0.798-1.021,1.176-1.555s0.73-1.07,1.056-1.61
			c0.326-0.54,0.604-1.056,0.831-1.548H391.314z M387.008,100.14h2.338v-3.425c-0.159,0.296-0.333,0.596-0.52,0.898
			c-0.187,0.304-0.383,0.602-0.588,0.896s-0.412,0.579-0.622,0.854C387.406,99.64,387.204,99.898,387.008,100.14z"/>
		<path fill="#2F2F2F" d="M405.007,98.978h-6.658v-1.401h6.658V98.978z M405.007,101.945h-6.658v-1.388h6.658V101.945z"/>
		<path fill="#2F2F2F" d="M416.17,93.742v10.021h-2.153v-7.588c-0.118,0.104-0.259,0.204-0.421,0.297
			c-0.161,0.094-0.333,0.178-0.516,0.253s-0.371,0.14-0.567,0.191c-0.196,0.053-0.39,0.09-0.581,0.113v-1.818
			c0.561-0.164,1.089-0.374,1.586-0.629c0.497-0.256,0.945-0.536,1.347-0.841H416.17z"/>
		<path fill="#2F2F2F" d="M425.406,100.503c0,0.482-0.084,0.934-0.253,1.354c-0.169,0.419-0.403,0.782-0.704,1.09
			s-0.658,0.55-1.073,0.725c-0.415,0.176-0.868,0.264-1.36,0.264c-0.552,0-1.045-0.103-1.48-0.308
			c-0.435-0.205-0.803-0.503-1.104-0.893s-0.531-0.867-0.69-1.432c-0.159-0.565-0.239-1.206-0.239-1.921
			c0-0.844,0.104-1.607,0.311-2.294c0.208-0.686,0.504-1.272,0.889-1.76c0.386-0.488,0.852-0.865,1.398-1.132
			s1.162-0.399,1.846-0.399c0.757,0,1.345,0.089,1.764,0.267v1.805c-0.497-0.283-1.039-0.424-1.627-0.424
			c-0.364,0-0.695,0.07-0.991,0.212c-0.296,0.141-0.55,0.342-0.763,0.602c-0.211,0.26-0.378,0.573-0.498,0.939
			c-0.121,0.367-0.187,0.776-0.195,1.228h0.041c0.465-0.643,1.15-0.964,2.058-0.964c0.405,0,0.772,0.072,1.101,0.219
			c0.328,0.146,0.608,0.352,0.841,0.618s0.412,0.587,0.54,0.961C425.343,99.632,425.406,100.047,425.406,100.503z M423.294,100.639
			c0-1.053-0.431-1.579-1.292-1.579c-0.196,0-0.374,0.036-0.533,0.109c-0.159,0.072-0.296,0.175-0.41,0.308
			c-0.114,0.132-0.201,0.288-0.264,0.468c-0.061,0.181-0.092,0.38-0.092,0.599c0,0.241,0.032,0.467,0.096,0.677
			c0.063,0.209,0.154,0.393,0.27,0.55c0.117,0.157,0.255,0.281,0.414,0.373c0.159,0.091,0.337,0.137,0.533,0.137
			s0.373-0.04,0.529-0.12c0.158-0.079,0.292-0.191,0.404-0.335c0.111-0.144,0.196-0.316,0.256-0.52
			C423.264,101.103,423.294,100.881,423.294,100.639z"/>
		<path fill="#2F2F2F" d="M429.907,103.934c-2.333,0-3.5-1.639-3.5-4.915c0-1.7,0.315-2.995,0.946-3.887
			c0.632-0.891,1.547-1.336,2.745-1.336c2.278,0,3.418,1.665,3.418,4.997c0,1.658-0.312,2.93-0.933,3.814
			C431.961,103.492,431.069,103.934,429.907,103.934z M430.003,95.444c-0.935,0-1.401,1.173-1.401,3.521
			c0,2.21,0.458,3.315,1.374,3.315c0.894,0,1.34-1.14,1.34-3.418C431.315,96.583,430.878,95.444,430.003,95.444z"/>
		<path fill="#2F2F2F" d="M447.79,103.763h-2.229l-4.04-6.159c-0.237-0.36-0.401-0.632-0.492-0.813h-0.027
			c0.036,0.346,0.055,0.875,0.055,1.586v5.387h-2.085v-9.803h2.379l3.89,5.968c0.178,0.269,0.342,0.535,0.492,0.8h0.027
			c-0.036-0.229-0.055-0.677-0.055-1.347v-5.421h2.085V103.763z"/>
		<path fill="#2F2F2F" d="M456.995,103.415c-0.716,0.346-1.649,0.52-2.803,0.52c-1.504,0-2.687-0.442-3.548-1.326
			c-0.861-0.885-1.292-2.062-1.292-3.534c0-1.568,0.484-2.84,1.453-3.814c0.968-0.976,2.225-1.463,3.77-1.463
			c0.957,0,1.764,0.12,2.42,0.362v2.126c-0.656-0.393-1.403-0.588-2.242-0.588c-0.921,0-1.663,0.289-2.229,0.868
			c-0.565,0.578-0.848,1.362-0.848,2.352c0,0.947,0.267,1.703,0.8,2.266c0.533,0.563,1.251,0.845,2.153,0.845
			c0.861,0,1.649-0.21,2.365-0.629V103.415z"/>
		<path fill="#2F2F2F" d="M458.076,103.579v-1.75c0.355,0.214,0.71,0.373,1.062,0.479c0.354,0.104,0.688,0.157,1.002,0.157
			c0.383,0,0.685-0.053,0.906-0.157c0.221-0.105,0.331-0.265,0.331-0.479c0-0.137-0.05-0.251-0.15-0.342
			c-0.101-0.092-0.229-0.171-0.386-0.239c-0.158-0.068-0.33-0.13-0.517-0.185s-0.367-0.116-0.54-0.185
			c-0.278-0.105-0.523-0.218-0.734-0.339c-0.213-0.12-0.391-0.261-0.533-0.42c-0.145-0.16-0.254-0.345-0.328-0.554
			c-0.076-0.21-0.113-0.458-0.113-0.745c0-0.393,0.086-0.729,0.256-1.012c0.172-0.283,0.399-0.514,0.684-0.694
			c0.285-0.18,0.611-0.312,0.979-0.396c0.366-0.084,0.748-0.126,1.145-0.126c0.31,0,0.624,0.023,0.943,0.071
			s0.634,0.117,0.943,0.209v1.668c-0.273-0.16-0.566-0.279-0.879-0.359c-0.312-0.079-0.618-0.119-0.919-0.119
			c-0.142,0-0.274,0.013-0.399,0.037c-0.126,0.025-0.236,0.062-0.332,0.109s-0.171,0.109-0.226,0.185s-0.082,0.161-0.082,0.257
			c0,0.127,0.041,0.236,0.123,0.328c0.082,0.091,0.189,0.17,0.321,0.235c0.132,0.066,0.279,0.126,0.441,0.178
			c0.161,0.053,0.322,0.106,0.481,0.161c0.287,0.1,0.547,0.209,0.779,0.328c0.232,0.118,0.432,0.257,0.599,0.417
			c0.166,0.159,0.293,0.346,0.383,0.561c0.088,0.214,0.133,0.469,0.133,0.766c0,0.414-0.09,0.769-0.27,1.062
			c-0.181,0.294-0.42,0.533-0.719,0.718c-0.298,0.185-0.643,0.319-1.031,0.403c-0.391,0.085-0.795,0.127-1.214,0.127
			C459.445,103.934,458.732,103.815,458.076,103.579z"/>
	</g>
</g>
</svg>
