<?xml version="1.0" encoding="utf-8"?>
<!-- Generator: Adobe Illustrator 26.4.1, SVG Export Plug-In . SVG Version: 6.00 Build 0)  -->
<svg version="1.1" xmlns="http://www.w3.org/2000/svg" xmlns:xlink="http://www.w3.org/1999/xlink" x="0px" y="0px"
	 viewBox="0 0 739.6 331.4" enable-background="new 0 0 739.6 331.4" xml:space="preserve">
<symbol  id="PIPELINE" viewBox="-32 -12.266 64 24.531">
	<linearGradient id="SVGID_1_" gradientUnits="userSpaceOnUse" x1="0" y1="-12.2655" x2="1.502093e-15" y2="12.2655">
		<stop  offset="0" style="stop-color:#1B89B2"/>
		<stop  offset="1" style="stop-color:#51C8E8"/>
	</linearGradient>
	<path fill="url(#SVGID_1_)" d="M26.096,12.266h-51.448v0h0C-29.08,12.265-32,6.878-32,0s2.92-12.265,6.648-12.265h0v0h51.448
		C29.356-12.266,32-6.363,32,0S29.356,12.266,26.096,12.266z"/>
	<g>
		
			<linearGradient id="SVGID_00000014601896260701059420000014255235952361804949_" gradientUnits="userSpaceOnUse" x1="-31.461" y1="-6.1136" x2="-19.2338" y2="6.1136">
			<stop  offset="0" style="stop-color:#B3B4B4"/>
			<stop  offset="1" style="stop-color:#4F4F4F"/>
		</linearGradient>
		<ellipse fill="url(#SVGID_00000014601896260701059420000014255235952361804949_)" cx="-25.347" cy="0" rx="5.575" ry="10.879"/>
	</g>
</symbol>
<g id="Shapes">
	<g id="Wrench_tool_x28_s_x29_">
	</g>
	<g id="user2">
	</g>
	<g id="user2_1_">
	</g>
	<g id="user2_4_">
	</g>
	<g id="user2_3_">
	</g>
	<g id="user2_2_">
	</g>
	<g id="Internet_2">
	</g>
	<g id="Enterprise">
	</g>
	<g id="Tunnel__x28_stackable_x29_">
	</g>
	<g id="New_Symbol">
	</g>
	<g id="New_Symbol_1">
	</g>
	<g id="Files">
	</g>
	<g id="BlobBlock">
	</g>
	<g id="E_x5F_Enterprise">
	</g>
	<g id="E_x5F_AD_FS">
	</g>
	<g id="C_x5F_Azure_Active_Directory">
	</g>
	<rect fill="#FFFFFF" width="739.6" height="331.4"/>
	<g>
		<g opacity="0.25">
			<rect x="6.3" y="22.9" width="727.095" height="303.6"/>
			<rect x="6.3" y="22.9" opacity="0.4" width="727.095" height="303.6"/>
		</g>
		<g>
			<rect x="4.8" y="21.4" fill="#FFFFFF" width="727.095" height="303.6"/>
			
				<linearGradient id="SVGID_00000148652058535517954160000007294961338460366011_" gradientUnits="userSpaceOnUse" x1="368.3477" y1="21.4" x2="368.3477" y2="325">
				<stop  offset="0" style="stop-color:#B3B2B4"/>
				<stop  offset="0.38" style="stop-color:#B0AEAF"/>
				<stop  offset="0.76" style="stop-color:#A2A1A1"/>
				<stop  offset="1" style="stop-color:#979797"/>
			</linearGradient>
			
				<rect x="4.8" y="21.4" opacity="0.4" fill="url(#SVGID_00000148652058535517954160000007294961338460366011_)" width="727.095" height="303.6"/>
		</g>
	</g>
	<g>
		<g opacity="0.8">
			<rect x="19" y="48.8" fill="#767676" width="215.6" height="265.316"/>
			<rect x="19" y="48.8" opacity="0.5" fill="#767676" width="215.6" height="265.316"/>
		</g>
		<g>
			<rect x="18" y="47.8" fill="#FFFFFF" width="215.6" height="265.316"/>
			<rect x="18" y="47.8" opacity="0.5" fill="#3AA0F3" width="215.6" height="265.316"/>
		</g>
	</g>
	<rect x="31.2" y="92.316" fill="#FFFFFF" width="189.2" height="206.8"/>
	<g>
		<path fill="#505150" d="M68.527,125.517l2.03-6.089c0.101-0.304,0.203-0.558,0.304-0.812s0.203-0.457,0.254-0.71
			c0.101-0.254,0.152-0.457,0.254-0.71s0.152-0.507,0.203-0.812c0-0.051,0-0.203,0-0.507c0-0.304,0-0.66,0-1.066
			c0-0.406,0-0.863,0-1.37c0-0.507,0-0.964,0-1.37c0-0.457,0-0.812,0-1.167s0-0.558,0-0.66l4.567-2.283v-3.755l5.328-2.689
			l5.328,2.689v0.507c0,0.254,0,0.558,0,0.913s0,0.761,0,1.218c0,0.457,0,0.863,0,1.319c0,0.457,0,0.863,0,1.319v1.167
			c0,0.355,0,0.609,0,0.812c0,0.101,0,0.254,0,0.355c0.101,0.406,0.203,0.812,0.304,1.218c0.101,0.355,0.254,0.71,0.355,1.066
			c0.152,0.355,0.254,0.71,0.406,1.066c0.152,0.355,0.304,0.761,0.457,1.218l3.044,9.133L68.527,125.517z M86.286,115.064
			l-4.059,2.03v2.689l-5.328,2.689l-4.922-2.436l-1.319,4.008h8.372l8.778-4.364L86.286,115.064z M73.094,118.819l3.044,1.522
			v-6.951l-3.044-1.522V118.819z M76.899,109.28l-2.791,1.421l2.791,1.37l2.791-1.37L76.899,109.28z M77.66,105.779v2.182
			l3.044,1.522v-2.182L77.66,105.779z M77.66,120.341l3.044-1.522v-6.951l-3.044,1.522V120.341z M81.466,103.191l-2.791,1.421
			l2.791,1.37l2.791-1.37L81.466,103.191z M85.271,105.779l-3.044,1.522v8.118l3.044-1.522V105.779z M89.229,123.995l-0.964-2.943
			l-5.886,2.943H89.229z"/>
	</g>
	<g>
		<rect x="44.4" y="153.916" fill="#FFFFFF" width="162.8" height="132"/>
		<rect x="44.4" y="153.916" opacity="0.25" fill="#FFE452" width="162.8" height="132"/>
		<rect x="44.4" y="153.916" fill="none" stroke="#767676" stroke-width="0.25" width="162.8" height="132"/>
	</g>
	<g>
		
			<linearGradient id="SVGID_00000096769129334774756680000006089511580106924445_" gradientUnits="userSpaceOnUse" x1="57.6645" y1="197.4838" x2="57.6645" y2="213.6579" gradientTransform="matrix(1 0 0 -1 0 356.8)">
			<stop  offset="0" style="stop-color:#B3B4B4"/>
			<stop  offset="0.26" style="stop-color:#C2C1C0"/>
			<stop  offset="1" style="stop-color:#E6E6E6"/>
		</linearGradient>
		<path fill="url(#SVGID_00000096769129334774756680000006089511580106924445_)" d="M43.985,143.142h27.359l0,0v15.257
			c0,0.507-0.411,0.917-0.917,0.917H44.902c-0.507,0-0.917-0.411-0.917-0.917V143.142z"/>
		<path fill="#40BEAF" d="M44.902,137.316h25.525c0.507,0,0.917,0.411,0.917,0.917v4.909l0,0H43.985l0,0v-4.925
			C43.994,137.717,44.402,137.316,44.902,137.316z"/>
		<path fill="#FFFFFF" d="M47.703,144.912H67.61c0.234,0.009,0.419,0.201,0.418,0.435v2.253c0,0.234-0.185,0.426-0.418,0.435H47.703
			c-0.234-0.009-0.419-0.201-0.418-0.435v-2.253C47.284,145.113,47.469,144.921,47.703,144.912z"/>
		<path fill="#40BEAF" d="M47.719,149.403h19.908c0.234,0.009,0.419,0.201,0.418,0.435v2.269c0,0.234-0.185,0.426-0.418,0.435
			H47.719c-0.234-0.009-0.419-0.201-0.418-0.435v-2.189c-0.044-0.236,0.111-0.463,0.346-0.508
			C47.67,149.406,47.694,149.403,47.719,149.403z"/>
		<path fill="#258378" d="M47.719,153.941h19.908c0.234,0.009,0.419,0.201,0.418,0.435v2.269c0,0.234-0.185,0.426-0.418,0.435
			H47.719c-0.234-0.009-0.419-0.201-0.418-0.435v-2.269C47.3,154.142,47.485,153.95,47.719,153.941z"/>
	</g>
	<g id="bdd66f0d-1091-4867-9f64-cdf433204a8a_00000010291112043197892380000010069499438196147379_">
		<g>
			<g>
				
					<linearGradient id="SVGID_00000117647911461106487010000014169296455512745150_" gradientUnits="userSpaceOnUse" x1="-503.7546" y1="402.2203" x2="-485.7533" y2="402.2203" gradientTransform="matrix(1 0.0026 0.0026 -1 564.7408 588.6449)">
					<stop  offset="0" style="stop-color:#005BA1"/>
					<stop  offset="0.068" style="stop-color:#0060A9"/>
					<stop  offset="0.356" style="stop-color:#0071C8"/>
					<stop  offset="0.517" style="stop-color:#0078D4"/>
					<stop  offset="0.642" style="stop-color:#0074CD"/>
					<stop  offset="0.82" style="stop-color:#006ABB"/>
					<stop  offset="1" style="stop-color:#005BA1"/>
				</linearGradient>
				<path fill="url(#SVGID_00000117647911461106487010000014169296455512745150_)" d="M71.037,178.074
					c-4.971-0.013-8.996-1.491-8.992-3.302L62,192.215c0,1.796,3.953,3.264,8.869,3.301h0.123c4.971,0.013,9.005-1.444,9.009-3.256
					l0.045-17.443C80.042,176.63,76.008,178.087,71.037,178.074z"/>
				<path fill="#E6E6E6" d="M80.046,174.819c0,1.81-4.038,3.268-9.009,3.256c-4.971-0.013-8.996-1.491-8.992-3.302
					c0.004-1.811,4.036-3.268,9.009-3.256C76.027,171.529,80.05,173.007,80.046,174.819"/>
				<path fill="#50E6FF" d="M77.941,174.548c0,1.152-3.095,2.077-6.904,2.067c-3.809-0.01-6.894-0.95-6.891-2.102
					s3.095-2.077,6.905-2.067c3.811,0.01,6.897,0.95,6.894,2.102"/>
				<path fill="#198AB3" d="M71.044,175.011c-1.853-0.048-3.701,0.214-5.467,0.777c1.76,0.59,3.608,0.87,5.464,0.827
					c1.855,0.052,3.704-0.218,5.467-0.799C74.745,175.243,72.898,174.971,71.044,175.011z"/>
			</g>
		</g>
	</g>
	<g id="bdd66f0d-1091-4867-9f64-cdf433204a8a_00000091001900691316522890000013529676319002147745_">
		<g>
			<g>
				
					<linearGradient id="SVGID_00000056399111766843787510000017336553301771650492_" gradientUnits="userSpaceOnUse" x1="-503.6505" y1="361.6205" x2="-485.6491" y2="361.6205" gradientTransform="matrix(1 0.0026 0.0026 -1 564.7408 588.6449)">
					<stop  offset="0" style="stop-color:#005BA1"/>
					<stop  offset="0.068" style="stop-color:#0060A9"/>
					<stop  offset="0.356" style="stop-color:#0071C8"/>
					<stop  offset="0.517" style="stop-color:#0078D4"/>
					<stop  offset="0.642" style="stop-color:#0074CD"/>
					<stop  offset="0.82" style="stop-color:#006ABB"/>
					<stop  offset="1" style="stop-color:#005BA1"/>
				</linearGradient>
				<path fill="url(#SVGID_00000056399111766843787510000017336553301771650492_)" d="M71.037,218.674
					c-4.971-0.013-8.996-1.491-8.992-3.302L62,232.815c0,1.796,3.953,3.264,8.869,3.301h0.123c4.971,0.013,9.005-1.444,9.009-3.256
					l0.045-17.443C80.042,217.23,76.008,218.687,71.037,218.674z"/>
				<path fill="#E6E6E6" d="M80.046,215.419c0,1.81-4.038,3.268-9.009,3.256c-4.971-0.013-8.996-1.491-8.992-3.302
					c0.004-1.811,4.036-3.268,9.009-3.256C76.027,212.129,80.05,213.607,80.046,215.419"/>
				<path fill="#50E6FF" d="M77.941,215.148c0,1.152-3.095,2.077-6.904,2.067c-3.809-0.01-6.894-0.95-6.891-2.102
					c0.003-1.152,3.095-2.077,6.905-2.067c3.811,0.01,6.897,0.95,6.894,2.102"/>
				<path fill="#198AB3" d="M71.044,215.611c-1.853-0.048-3.701,0.214-5.467,0.777c1.76,0.59,3.608,0.87,5.464,0.827
					c1.855,0.052,3.704-0.218,5.467-0.799C74.745,215.843,72.898,215.571,71.044,215.611z"/>
			</g>
		</g>
	</g>
	<g id="bdd66f0d-1091-4867-9f64-cdf433204a8a_00000124858995790295554740000010986219770308426931_">
		<g>
			<g>
				
					<linearGradient id="SVGID_00000094606821108051663470000002999087373532520847_" gradientUnits="userSpaceOnUse" x1="-503.5463" y1="321.0208" x2="-485.545" y2="321.0208" gradientTransform="matrix(1 0.0026 0.0026 -1 564.7408 588.6449)">
					<stop  offset="0" style="stop-color:#005BA1"/>
					<stop  offset="0.068" style="stop-color:#0060A9"/>
					<stop  offset="0.356" style="stop-color:#0071C8"/>
					<stop  offset="0.517" style="stop-color:#0078D4"/>
					<stop  offset="0.642" style="stop-color:#0074CD"/>
					<stop  offset="0.82" style="stop-color:#006ABB"/>
					<stop  offset="1" style="stop-color:#005BA1"/>
				</linearGradient>
				<path fill="url(#SVGID_00000094606821108051663470000002999087373532520847_)" d="M71.037,259.274
					c-4.971-0.013-8.996-1.491-8.992-3.302L62,273.415c0,1.796,3.953,3.264,8.869,3.301h0.123c4.971,0.013,9.005-1.444,9.009-3.256
					l0.045-17.443C80.042,257.83,76.008,259.287,71.037,259.274z"/>
				<path fill="#E6E6E6" d="M80.046,256.019c0,1.81-4.038,3.268-9.009,3.256c-4.971-0.013-8.996-1.491-8.992-3.302
					c0.004-1.811,4.036-3.268,9.009-3.256C76.027,252.729,80.05,254.207,80.046,256.019"/>
				<path fill="#50E6FF" d="M77.941,255.748c0,1.152-3.095,2.077-6.904,2.067c-3.809-0.01-6.894-0.95-6.891-2.102
					s3.095-2.077,6.905-2.067c3.811,0.01,6.897,0.95,6.894,2.102"/>
				<path fill="#198AB3" d="M71.044,256.211c-1.853-0.048-3.701,0.214-5.467,0.777c1.76,0.591,3.608,0.87,5.464,0.827
					c1.855,0.052,3.704-0.218,5.467-0.799C74.745,256.443,72.898,256.171,71.044,256.211z"/>
			</g>
		</g>
	</g>
	<g>
		
			<linearGradient id="SVGID_00000017511293280529413110000010448417544332574347_" gradientUnits="userSpaceOnUse" x1="13.6236" y1="351" x2="13.6236" y2="321" gradientTransform="matrix(1 0 0 -1 0 356.8)">
			<stop  offset="0" style="stop-color:#699CD3"/>
			<stop  offset="0.18" style="stop-color:#6198D1"/>
			<stop  offset="0.47" style="stop-color:#4C8DCB"/>
			<stop  offset="0.84" style="stop-color:#347DC0"/>
			<stop  offset="1" style="stop-color:#2E76BC"/>
		</linearGradient>
		<path fill="url(#SVGID_00000017511293280529413110000010448417544332574347_)" d="M22.447,6.806v27.988
			c0.01,0.546-0.425,0.996-0.97,1.006c-0.006,0-0.012,0-0.018,0H5.806C5.26,35.81,4.81,35.375,4.8,34.83c0-0.012,0-0.024,0-0.036
			V6.806C4.79,6.26,5.225,5.81,5.77,5.8c0.012,0,0.024,0,0.036,0h15.635c0.546-0.01,0.996,0.425,1.006,0.97
			C22.447,6.782,22.447,6.794,22.447,6.806z"/>
		<path id="a1bc77ea-5288-41a0-8f9a-2d282cf54a86_00000168801444695487505820000014453343992846003342_" fill="#F2F2F3" d="
			M7.147,8.924h2.947c0.136,0,0.247,0.111,0.247,0.247v3.706c0,0.136-0.111,0.247-0.247,0.247H7.147
			c-0.14,0-0.255-0.108-0.265-0.247V9.171C6.892,9.031,7.008,8.923,7.147,8.924z M12.194,8.924h2.859
			c0.136,0,0.247,0.111,0.247,0.247v0v3.706c0,0.136-0.111,0.247-0.247,0.247l0,0h-2.859c-0.136,0-0.247-0.111-0.247-0.247l0,0
			V9.171C11.947,9.034,12.058,8.924,12.194,8.924L12.194,8.924z M17.241,8.924H20.1c0.14,0,0.255,0.108,0.265,0.247v3.706
			c-0.009,0.139-0.125,0.247-0.265,0.247h-2.859c-0.136,0-0.247-0.111-0.247-0.247l0,0V9.171
			C16.994,9.034,17.105,8.924,17.241,8.924L17.241,8.924z M7.147,15.647h2.947c0.136,0,0.247,0.111,0.247,0.247V19.6
			c0,0.14-0.108,0.255-0.247,0.265H7.147c-0.146,0-0.265-0.119-0.265-0.265v-3.706C6.892,15.755,7.008,15.647,7.147,15.647z
			 M12.194,15.647h2.859c0.136,0,0.247,0.111,0.247,0.247l0,0V19.6c0,0.14-0.108,0.255-0.247,0.265h-2.859
			c-0.139-0.009-0.247-0.125-0.247-0.265v-3.706C11.947,15.758,12.058,15.647,12.194,15.647L12.194,15.647z M17.241,15.647H20.1
			c0.14,0,0.255,0.108,0.265,0.247V19.6c0,0.146-0.119,0.265-0.265,0.265h-2.859c-0.139-0.009-0.247-0.125-0.247-0.265v-3.706
			C16.994,15.758,17.105,15.647,17.241,15.647L17.241,15.647z M7.147,22.388h2.947c0.136,0,0.247,0.111,0.247,0.247l0,0v3.706
			c0,0.136-0.111,0.247-0.247,0.247l0,0H7.147c-0.14,0-0.255-0.108-0.265-0.247v-3.776C6.922,22.453,7.03,22.382,7.147,22.388z
			 M12.194,22.388h2.859c0.126-0.052,0.271,0.009,0.322,0.135c0.006,0.013,0.01,0.027,0.013,0.042v3.706
			c0,0.136-0.111,0.247-0.247,0.247h0h-2.947c-0.136,0-0.247-0.111-0.247-0.247v0v-3.706C11.979,22.456,12.081,22.384,12.194,22.388
			z M12.194,29.112h2.859c0.136,0,0.247,0.111,0.247,0.247v0v5.559c0,0.136-0.111,0.247-0.247,0.247h-2.859
			c-0.136,0-0.247-0.111-0.247-0.247v-5.559C11.947,29.222,12.058,29.112,12.194,29.112z M17.241,22.388H20.1
			c0.14,0,0.255,0.108,0.265,0.247v3.706c-0.009,0.139-0.125,0.247-0.265,0.247h-2.859c-0.136,0-0.247-0.111-0.247-0.247v0v-3.776
			C17.026,22.456,17.128,22.384,17.241,22.388z"/>
	</g>
	<g>
		<g opacity="0.8">
			<rect x="261" y="48.8" fill="#767676" width="215.6" height="194.407"/>
			<rect x="261" y="48.8" opacity="0.5" fill="#767676" width="215.6" height="194.407"/>
		</g>
		<g>
			<rect x="260" y="47.8" fill="#FFFFFF" width="215.6" height="194.407"/>
			<rect x="260" y="47.8" opacity="0.5" fill="#3AA0F3" width="215.6" height="194.407"/>
		</g>
	</g>
	<rect x="273.2" y="92.4" fill="#FFFFFF" width="189.2" height="135.8"/>
	<g>
		<path fill="#505150" d="M310.442,174.013l2.03-6.089c0.101-0.304,0.203-0.558,0.304-0.812c0.101-0.254,0.203-0.457,0.254-0.71
			c0.101-0.254,0.152-0.457,0.254-0.71c0.102-0.254,0.152-0.507,0.203-0.812c0-0.051,0-0.203,0-0.507s0-0.66,0-1.066
			c0-0.406,0-0.863,0-1.37s0-0.964,0-1.37c0-0.457,0-0.812,0-1.167s0-0.558,0-0.66l4.567-2.283v-3.755l5.328-2.689l5.328,2.689
			v0.507c0,0.254,0,0.558,0,0.913s0,0.761,0,1.218c0,0.457,0,0.863,0,1.319c0,0.457,0,0.863,0,1.319v1.167c0,0.355,0,0.609,0,0.812
			c0,0.101,0,0.254,0,0.355c0.101,0.406,0.203,0.812,0.304,1.218c0.101,0.355,0.254,0.71,0.355,1.066
			c0.152,0.355,0.254,0.71,0.406,1.066s0.304,0.761,0.457,1.218l3.044,9.133H310.442z M328.201,163.561l-4.059,2.03v2.689
			l-5.328,2.689l-4.922-2.436l-1.319,4.008h8.372l8.778-4.364L328.201,163.561z M315.008,167.316l3.044,1.522v-6.951l-3.044-1.522
			V167.316z M318.814,157.777l-2.791,1.421l2.791,1.37l2.791-1.37L318.814,157.777z M319.575,154.276v2.182l3.044,1.522v-2.182
			L319.575,154.276z M319.575,168.838l3.044-1.522v-6.951l-3.044,1.522V168.838z M323.381,151.688l-2.791,1.421l2.791,1.37
			l2.791-1.37L323.381,151.688z M327.186,154.276l-3.044,1.522v8.118l3.044-1.522V154.276z M331.144,172.491l-0.964-2.943
			l-5.886,2.943H331.144z"/>
	</g>
	<g>
		<g opacity="0.8">
			<rect x="503" y="48.8" fill="#767676" width="214.695" height="194.407"/>
			<rect x="503" y="48.8" opacity="0.5" fill="#767676" width="214.695" height="194.407"/>
		</g>
		<g>
			<rect x="502" y="47.8" fill="#FFFFFF" width="214.695" height="194.407"/>
			<rect x="502" y="47.8" opacity="0.5" fill="#3AA0F3" width="214.695" height="194.407"/>
		</g>
	</g>
	<rect x="515.002" y="92.4" fill="#FFFFFF" width="189.398" height="135.8"/>
	<g>
		<path fill="#505150" d="M554.8,174.013l2.03-6.089c0.102-0.304,0.203-0.558,0.304-0.812c0.102-0.254,0.203-0.457,0.254-0.71
			c0.101-0.254,0.152-0.457,0.254-0.71c0.102-0.254,0.152-0.507,0.203-0.812c0-0.051,0-0.203,0-0.507s0-0.66,0-1.066
			c0-0.406,0-0.863,0-1.37s0-0.964,0-1.37c0-0.457,0-0.812,0-1.167s0-0.558,0-0.66l4.567-2.283v-3.755l5.328-2.689l5.328,2.689
			v0.507c0,0.254,0,0.558,0,0.913s0,0.761,0,1.218c0,0.457,0,0.863,0,1.319c0,0.457,0,0.863,0,1.319v1.167c0,0.355,0,0.609,0,0.812
			c0,0.101,0,0.254,0,0.355c0.101,0.406,0.203,0.812,0.304,1.218c0.101,0.355,0.254,0.71,0.355,1.066
			c0.152,0.355,0.254,0.71,0.406,1.066s0.304,0.761,0.457,1.218l3.044,9.133H554.8z M572.559,163.561l-4.059,2.03v2.689
			l-5.328,2.689l-4.922-2.436l-1.319,4.008h8.372l8.778-4.364L572.559,163.561z M559.367,167.316l3.044,1.522v-6.951l-3.044-1.522
			V167.316z M563.172,157.777l-2.791,1.421l2.791,1.37l2.791-1.37L563.172,157.777z M563.933,154.276v2.182l3.044,1.522v-2.182
			L563.933,154.276z M563.933,168.838l3.044-1.522v-6.951l-3.044,1.522V168.838z M567.739,151.688l-2.791,1.421l2.791,1.37
			l2.791-1.37L567.739,151.688z M571.544,154.276l-3.044,1.522v8.118l3.044-1.522V154.276z M575.502,172.491l-0.964-2.943
			l-5.886,2.943H575.502z"/>
	</g>
</g>
<g id="Text">
	<g>
		<path fill="#2F2F2F" d="M33.625,13.023V16.4h-2.208V6.597h3.459c2.47,0,3.705,1.042,3.705,3.124c0,0.984-0.354,1.781-1.063,2.39
			s-1.655,0.912-2.84,0.912H33.625z M33.625,8.293v3.056h0.868c1.176,0,1.764-0.515,1.764-1.545c0-1.007-0.588-1.511-1.764-1.511
			H33.625z"/>
		<path fill="#2F2F2F" d="M44.25,11.348c-0.26-0.141-0.563-0.212-0.909-0.212c-0.469,0-0.836,0.172-1.101,0.517
			c-0.264,0.344-0.396,0.812-0.396,1.404V16.4h-2.16v-7h2.16v1.299h0.027c0.342-0.947,0.957-1.422,1.846-1.422
			c0.228,0,0.406,0.027,0.533,0.082V11.348z"/>
		<path fill="#2F2F2F" d="M46.336,8.293c-0.365,0-0.663-0.108-0.896-0.324c-0.232-0.217-0.349-0.482-0.349-0.797
			c0-0.323,0.116-0.588,0.349-0.793s0.531-0.308,0.896-0.308c0.369,0,0.669,0.103,0.899,0.308s0.345,0.47,0.345,0.793
			c0,0.328-0.115,0.598-0.345,0.807C47.005,8.188,46.706,8.293,46.336,8.293z M47.403,16.4h-2.16v-7h2.16V16.4z"/>
		<path fill="#2F2F2F" d="M60.3,16.4h-2.153v-3.992c0-1.016-0.374-1.524-1.121-1.524c-0.355,0-0.645,0.153-0.868,0.458
			c-0.223,0.306-0.335,0.687-0.335,1.142V16.4h-2.16v-4.033c0-0.988-0.367-1.483-1.101-1.483c-0.369,0-0.664,0.146-0.885,0.438
			c-0.221,0.292-0.332,0.688-0.332,1.189v3.89h-2.16v-7h2.16v1.094h0.027c0.223-0.373,0.537-0.678,0.94-0.912
			c0.403-0.235,0.844-0.353,1.323-0.353c0.989,0,1.666,0.436,2.03,1.306c0.533-0.87,1.317-1.306,2.352-1.306
			c1.522,0,2.283,0.939,2.283,2.816V16.4z"/>
		<path fill="#2F2F2F" d="M67.865,16.4h-2.044v-1.005h-0.027c-0.469,0.784-1.165,1.176-2.085,1.176
			c-0.679,0-1.213-0.192-1.603-0.577c-0.39-0.386-0.584-0.899-0.584-1.542c0-1.357,0.804-2.142,2.413-2.352l1.9-0.253
			c0-0.766-0.415-1.148-1.244-1.148c-0.834,0-1.627,0.249-2.379,0.745V9.817c0.301-0.154,0.712-0.291,1.234-0.41
			c0.522-0.118,0.997-0.178,1.425-0.178c1.996,0,2.994,0.996,2.994,2.987V16.4z M65.835,13.556v-0.472l-1.271,0.164
			c-0.702,0.092-1.053,0.408-1.053,0.95c0,0.246,0.085,0.448,0.256,0.605s0.402,0.235,0.694,0.235c0.406,0,0.736-0.14,0.991-0.42
			S65.835,13.985,65.835,13.556z"/>
		<path fill="#2F2F2F" d="M74.128,11.348c-0.26-0.141-0.563-0.212-0.909-0.212c-0.469,0-0.836,0.172-1.101,0.517
			c-0.264,0.344-0.396,0.812-0.396,1.404V16.4h-2.16v-7h2.16v1.299h0.027c0.342-0.947,0.957-1.422,1.846-1.422
			c0.228,0,0.406,0.027,0.533,0.082V11.348z"/>
		<path fill="#2F2F2F" d="M82.248,9.4l-2.844,7.561c-0.684,1.818-1.713,2.728-3.09,2.728c-0.524,0-0.955-0.059-1.292-0.178v-1.723
			c0.287,0.169,0.599,0.253,0.937,0.253c0.556,0,0.943-0.262,1.162-0.786l0.369-0.868L74.646,9.4h2.393l1.306,4.259
			c0.082,0.265,0.146,0.577,0.191,0.937h0.027c0.041-0.264,0.116-0.571,0.226-0.923L80.108,9.4H82.248z"/>
		<path fill="#2F2F2F" d="M91.544,11.348c-0.26-0.141-0.563-0.212-0.909-0.212c-0.469,0-0.836,0.172-1.101,0.517
			c-0.264,0.344-0.396,0.812-0.396,1.404V16.4h-2.16v-7h2.16v1.299h0.027c0.342-0.947,0.957-1.422,1.846-1.422
			c0.228,0,0.406,0.027,0.533,0.082V11.348z"/>
		<path fill="#2F2F2F" d="M98.917,13.515H94.35c0.073,1.017,0.713,1.524,1.921,1.524c0.77,0,1.447-0.182,2.03-0.547v1.559
			c-0.647,0.347-1.488,0.52-2.522,0.52c-1.13,0-2.007-0.313-2.632-0.939c-0.625-0.627-0.937-1.501-0.937-2.622
			c0-1.162,0.337-2.082,1.012-2.762c0.674-0.679,1.504-1.019,2.488-1.019c1.021,0,1.811,0.304,2.369,0.909
			c0.558,0.606,0.837,1.429,0.837,2.468V13.515z M96.914,12.189c0-1.002-0.406-1.504-1.217-1.504c-0.346,0-0.646,0.144-0.899,0.431
			s-0.407,0.646-0.461,1.073H96.914z"/>
		<path fill="#2F2F2F" d="M107.176,15.6c0,1.299-0.376,2.305-1.128,3.019c-0.752,0.713-1.841,1.069-3.268,1.069
			c-0.943,0-1.691-0.134-2.242-0.403v-1.818c0.72,0.42,1.447,0.629,2.181,0.629c0.729,0,1.294-0.192,1.695-0.577
			c0.401-0.386,0.602-0.908,0.602-1.569v-0.554h-0.027c-0.492,0.784-1.219,1.176-2.181,1.176c-0.893,0-1.602-0.314-2.126-0.943
			s-0.786-1.472-0.786-2.529c0-1.185,0.292-2.126,0.875-2.823s1.351-1.046,2.304-1.046c0.852,0,1.49,0.328,1.914,0.984h0.027V9.4
			h2.16V15.6z M105.043,13.037v-0.554c0-0.441-0.131-0.819-0.393-1.131c-0.262-0.312-0.603-0.469-1.022-0.469
			c-0.479,0-0.854,0.188-1.128,0.561c-0.273,0.374-0.41,0.9-0.41,1.579c0,0.584,0.13,1.045,0.39,1.385
			c0.26,0.339,0.615,0.509,1.066,0.509c0.447,0,0.808-0.172,1.083-0.516C104.905,14.056,105.043,13.602,105.043,13.037z"/>
		<path fill="#2F2F2F" d="M110.031,8.293c-0.365,0-0.663-0.108-0.896-0.324c-0.232-0.217-0.349-0.482-0.349-0.797
			c0-0.323,0.116-0.588,0.349-0.793s0.531-0.308,0.896-0.308c0.369,0,0.669,0.103,0.899,0.308s0.345,0.47,0.345,0.793
			c0,0.328-0.115,0.598-0.345,0.807C110.7,8.188,110.4,8.293,110.031,8.293z M111.097,16.4h-2.16v-7h2.16V16.4z"/>
		<path fill="#2F2F2F" d="M116.208,16.571c-1.167,0-2.084-0.327-2.751-0.98c-0.667-0.654-1.001-1.542-1.001-2.663
			c0-1.157,0.346-2.063,1.039-2.717c0.693-0.654,1.629-0.981,2.81-0.981c1.162,0,2.074,0.327,2.734,0.981
			c0.661,0.653,0.991,1.519,0.991,2.594c0,1.162-0.341,2.081-1.022,2.755C118.326,16.234,117.393,16.571,116.208,16.571z
			 M116.263,10.883c-0.51,0-0.907,0.176-1.189,0.526c-0.283,0.352-0.424,0.848-0.424,1.49c0,1.345,0.542,2.017,1.627,2.017
			c1.035,0,1.552-0.69,1.552-2.071C117.828,11.538,117.306,10.883,116.263,10.883z"/>
		<path fill="#2F2F2F" d="M128.17,16.4h-2.153v-3.89c0-1.084-0.387-1.627-1.162-1.627c-0.374,0-0.681,0.144-0.923,0.431
			s-0.362,0.652-0.362,1.094V16.4h-2.16v-7h2.16v1.107h0.027c0.515-0.852,1.265-1.278,2.249-1.278c1.549,0,2.324,0.962,2.324,2.885
			V16.4z"/>
		<path fill="#2F2F2F" d="M137.884,18.629h-1.764c-1.472-1.622-2.208-3.616-2.208-5.981c0-2.283,0.736-4.3,2.208-6.05h1.75
			c-1.381,1.832-2.071,3.849-2.071,6.05S136.494,16.842,137.884,18.629z"/>
		<path fill="#2F2F2F" d="M149.463,16.4h-2.153v-3.992c0-1.016-0.374-1.524-1.121-1.524c-0.355,0-0.645,0.153-0.868,0.458
			c-0.223,0.306-0.335,0.687-0.335,1.142V16.4h-2.16v-4.033c0-0.988-0.367-1.483-1.101-1.483c-0.369,0-0.664,0.146-0.885,0.438
			c-0.221,0.292-0.332,0.688-0.332,1.189v3.89h-2.16v-7h2.16v1.094h0.027c0.223-0.373,0.537-0.678,0.94-0.912
			c0.403-0.235,0.844-0.353,1.323-0.353c0.989,0,1.666,0.436,2.03,1.306c0.533-0.87,1.317-1.306,2.352-1.306
			c1.522,0,2.283,0.939,2.283,2.816V16.4z"/>
		<path fill="#2F2F2F" d="M157.824,16.4h-2.153v-1.066h-0.034c-0.533,0.825-1.247,1.237-2.14,1.237
			c-1.623,0-2.434-0.981-2.434-2.946V9.4h2.153v4.033c0,0.989,0.392,1.483,1.176,1.483c0.387,0,0.697-0.136,0.93-0.406
			c0.232-0.271,0.349-0.64,0.349-1.104V9.4h2.153V16.4z"/>
		<path fill="#2F2F2F" d="M161.752,16.4h-2.16V6.037h2.16V16.4z"/>
		<path fill="#2F2F2F" d="M167.743,16.318c-0.319,0.169-0.8,0.253-1.442,0.253c-1.522,0-2.283-0.79-2.283-2.372v-3.206h-1.135V9.4
			h1.135V7.889l2.153-0.615V9.4h1.572v1.593h-1.572v2.83c0,0.729,0.29,1.094,0.868,1.094c0.228,0,0.462-0.065,0.704-0.198V16.318z"
			/>
		<path fill="#2F2F2F" d="M170.121,8.293c-0.365,0-0.663-0.108-0.896-0.324c-0.232-0.217-0.349-0.482-0.349-0.797
			c0-0.323,0.116-0.588,0.349-0.793s0.531-0.308,0.896-0.308c0.369,0,0.669,0.103,0.899,0.308s0.345,0.47,0.345,0.793
			c0,0.328-0.115,0.598-0.345,0.807C170.79,8.188,170.49,8.293,170.121,8.293z M171.187,16.4h-2.16v-7h2.16V16.4z"/>
		<path fill="#2F2F2F" d="M176.583,13.42h-3.739v-1.511h3.739V13.42z"/>
		<path fill="#2F2F2F" d="M184.042,16.4h-2.044v-1.005h-0.027c-0.469,0.784-1.165,1.176-2.085,1.176
			c-0.679,0-1.213-0.192-1.603-0.577c-0.39-0.386-0.584-0.899-0.584-1.542c0-1.357,0.804-2.142,2.413-2.352l1.9-0.253
			c0-0.766-0.415-1.148-1.244-1.148c-0.834,0-1.627,0.249-2.379,0.745V9.817c0.301-0.154,0.712-0.291,1.234-0.41
			c0.522-0.118,0.997-0.178,1.425-0.178c1.996,0,2.994,0.996,2.994,2.987V16.4z M182.012,13.556v-0.472l-1.271,0.164
			c-0.702,0.092-1.053,0.408-1.053,0.95c0,0.246,0.085,0.448,0.256,0.605s0.402,0.235,0.694,0.235c0.406,0,0.736-0.14,0.991-0.42
			S182.012,13.985,182.012,13.556z"/>
		<path fill="#2F2F2F" d="M191.288,16.4h-6.282v-0.896l3.514-4.512h-3.165V9.4h5.906v1.066l-3.329,4.341h3.356V16.4z"/>
		<path fill="#2F2F2F" d="M193.076,18.629h-1.75c1.395-1.777,2.092-3.771,2.092-5.981c0-2.191-0.697-4.208-2.092-6.05h1.764
			c1.477,1.755,2.215,3.771,2.215,6.05C195.305,14.995,194.562,16.988,193.076,18.629z"/>
	</g>
	<g>
		<path fill="#2F2F2F" d="M318.182,74.2h-2.406l-0.697-2.181h-3.486l-0.69,2.181h-2.393l3.568-9.803h2.618L318.182,74.2z
			 M314.572,70.324l-1.053-3.295c-0.078-0.246-0.132-0.54-0.164-0.882h-0.055c-0.023,0.287-0.08,0.572-0.171,0.854l-1.066,3.322
			H314.572z"/>
		<path fill="#2F2F2F" d="M325.551,67.2l-2.604,7h-2.461l-2.481-7h2.311l1.217,4.313c0.137,0.488,0.216,0.902,0.239,1.244h0.027
			c0.032-0.324,0.116-0.725,0.253-1.203l1.244-4.354H325.551z"/>
		<path fill="#2F2F2F" d="M332.086,74.2h-2.044v-1.005h-0.027c-0.469,0.784-1.165,1.176-2.085,1.176
			c-0.679,0-1.213-0.192-1.603-0.578s-0.584-0.899-0.584-1.542c0-1.358,0.804-2.142,2.413-2.352l1.9-0.253
			c0-0.766-0.415-1.148-1.244-1.148c-0.834,0-1.627,0.249-2.379,0.745v-1.627c0.301-0.155,0.712-0.292,1.234-0.41
			s0.997-0.178,1.425-0.178c1.996,0,2.994,0.996,2.994,2.987V74.2z M330.056,71.356v-0.472l-1.271,0.164
			c-0.702,0.091-1.053,0.408-1.053,0.95c0,0.246,0.085,0.448,0.256,0.605s0.402,0.236,0.694,0.236c0.406,0,0.736-0.14,0.991-0.42
			S330.056,71.784,330.056,71.356z"/>
		<path fill="#2F2F2F" d="M334.889,66.092c-0.365,0-0.663-0.108-0.896-0.325s-0.349-0.482-0.349-0.796
			c0-0.324,0.116-0.588,0.349-0.793s0.531-0.308,0.896-0.308c0.369,0,0.669,0.103,0.899,0.308s0.345,0.469,0.345,0.793
			c0,0.328-0.115,0.597-0.345,0.807S335.258,66.092,334.889,66.092z M335.955,74.2h-2.16v-7h2.16V74.2z"/>
		<path fill="#2F2F2F" d="M339.934,74.2h-2.16V63.837h2.16V74.2z"/>
		<path fill="#2F2F2F" d="M347.576,74.2h-2.044v-1.005h-0.027c-0.469,0.784-1.165,1.176-2.085,1.176
			c-0.679,0-1.213-0.192-1.603-0.578s-0.584-0.899-0.584-1.542c0-1.358,0.804-2.142,2.413-2.352l1.9-0.253
			c0-0.766-0.415-1.148-1.244-1.148c-0.834,0-1.627,0.249-2.379,0.745v-1.627c0.301-0.155,0.712-0.292,1.234-0.41
			s0.997-0.178,1.425-0.178c1.996,0,2.994,0.996,2.994,2.987V74.2z M345.546,71.356v-0.472l-1.271,0.164
			c-0.702,0.091-1.053,0.408-1.053,0.95c0,0.246,0.085,0.448,0.256,0.605s0.402,0.236,0.694,0.236c0.406,0,0.736-0.14,0.991-0.42
			S345.546,71.784,345.546,71.356z"/>
		<path fill="#2F2F2F" d="M351.473,73.386h-0.027V74.2h-2.16V63.837h2.16v4.416h0.027c0.533-0.816,1.292-1.224,2.276-1.224
			c0.902,0,1.597,0.31,2.085,0.93s0.731,1.467,0.731,2.543c0,1.167-0.285,2.103-0.854,2.81s-1.331,1.06-2.283,1.06
			C352.566,74.371,351.915,74.043,351.473,73.386z M351.411,70.433v0.718c0,0.451,0.13,0.825,0.39,1.121s0.592,0.444,0.998,0.444
			c0.492,0,0.874-0.19,1.145-0.571s0.407-0.919,0.407-1.617c0-0.579-0.124-1.031-0.373-1.357s-0.603-0.489-1.063-0.489
			c-0.433,0-0.792,0.162-1.077,0.485S351.411,69.914,351.411,70.433z"/>
		<path fill="#2F2F2F" d="M359.061,66.092c-0.365,0-0.663-0.108-0.896-0.325s-0.349-0.482-0.349-0.796
			c0-0.324,0.116-0.588,0.349-0.793s0.531-0.308,0.896-0.308c0.369,0,0.669,0.103,0.899,0.308s0.345,0.469,0.345,0.793
			c0,0.328-0.115,0.597-0.345,0.807S359.43,66.092,359.061,66.092z M360.127,74.2h-2.16v-7h2.16V74.2z"/>
		<path fill="#2F2F2F" d="M364.105,74.2h-2.16V63.837h2.16V74.2z"/>
		<path fill="#2F2F2F" d="M367.018,66.092c-0.365,0-0.663-0.108-0.896-0.325s-0.349-0.482-0.349-0.796
			c0-0.324,0.116-0.588,0.349-0.793s0.531-0.308,0.896-0.308c0.369,0,0.669,0.103,0.899,0.308s0.345,0.469,0.345,0.793
			c0,0.328-0.115,0.597-0.345,0.807S367.387,66.092,367.018,66.092z M368.084,74.2h-2.16v-7h2.16V74.2z"/>
		<path fill="#2F2F2F" d="M374.134,74.118c-0.319,0.168-0.8,0.253-1.442,0.253c-1.522,0-2.283-0.791-2.283-2.372v-3.206h-1.135V67.2
			h1.135v-1.511l2.153-0.615V67.2h1.572v1.593h-1.572v2.83c0,0.729,0.29,1.094,0.868,1.094c0.228,0,0.462-0.066,0.704-0.198V74.118z
			"/>
		<path fill="#2F2F2F" d="M382.016,67.2l-2.844,7.561c-0.684,1.818-1.713,2.728-3.09,2.728c-0.524,0-0.955-0.059-1.292-0.178v-1.723
			c0.287,0.168,0.599,0.253,0.937,0.253c0.556,0,0.943-0.262,1.162-0.786l0.369-0.868l-2.844-6.986h2.393l1.306,4.259
			c0.082,0.264,0.146,0.577,0.191,0.937h0.027c0.041-0.264,0.116-0.572,0.226-0.923l1.319-4.272H382.016z"/>
		<path fill="#2F2F2F" d="M392.29,74.2h-6.282v-0.896l3.514-4.512h-3.165V67.2h5.906v1.066l-3.329,4.341h3.356V74.2z"/>
		<path fill="#2F2F2F" d="M396.788,74.371c-1.167,0-2.084-0.327-2.751-0.981s-1.001-1.542-1.001-2.663
			c0-1.158,0.346-2.063,1.039-2.717s1.629-0.981,2.81-0.981c1.162,0,2.074,0.327,2.734,0.981s0.991,1.519,0.991,2.594
			c0,1.162-0.341,2.081-1.022,2.755S397.973,74.371,396.788,74.371z M396.843,68.683c-0.51,0-0.907,0.175-1.189,0.526
			s-0.424,0.848-0.424,1.49c0,1.344,0.542,2.017,1.627,2.017c1.035,0,1.552-0.69,1.552-2.071
			C398.408,69.337,397.886,68.683,396.843,68.683z"/>
		<path fill="#2F2F2F" d="M408.771,74.2h-2.153v-3.89c0-1.084-0.387-1.627-1.162-1.627c-0.374,0-0.681,0.144-0.923,0.431
			s-0.362,0.652-0.362,1.094V74.2h-2.16v-7h2.16v1.107h0.027c0.515-0.852,1.265-1.278,2.249-1.278c1.549,0,2.324,0.961,2.324,2.885
			V74.2z"/>
		<path fill="#2F2F2F" d="M416.77,71.315h-4.566c0.073,1.016,0.713,1.524,1.921,1.524c0.77,0,1.447-0.182,2.03-0.547v1.559
			c-0.647,0.346-1.488,0.52-2.522,0.52c-1.13,0-2.007-0.313-2.632-0.94s-0.937-1.5-0.937-2.622c0-1.162,0.337-2.083,1.012-2.762
			s1.504-1.019,2.488-1.019c1.021,0,1.811,0.303,2.369,0.909s0.837,1.429,0.837,2.468V71.315z M414.767,69.989
			c0-1.002-0.406-1.504-1.217-1.504c-0.346,0-0.646,0.144-0.899,0.431s-0.407,0.645-0.461,1.073H414.767z"/>
		<path fill="#2F2F2F" d="M423.94,72.409h4.156V74.2h-6.521v-0.738c0-0.501,0.084-0.951,0.253-1.35s0.38-0.756,0.636-1.073
			s0.534-0.597,0.837-0.841s0.591-0.464,0.865-0.66c0.287-0.205,0.539-0.401,0.755-0.588s0.399-0.373,0.547-0.557
			s0.259-0.372,0.332-0.561s0.109-0.391,0.109-0.605c0-0.419-0.119-0.736-0.355-0.95s-0.599-0.321-1.087-0.321
			c-0.843,0-1.65,0.335-2.42,1.005v-1.9c0.852-0.551,1.814-0.827,2.885-0.827c0.497,0,0.942,0.065,1.336,0.195
			s0.728,0.315,1.001,0.557s0.482,0.534,0.625,0.878s0.215,0.728,0.215,1.152c0,0.451-0.069,0.852-0.208,1.203
			s-0.324,0.67-0.554,0.957s-0.496,0.55-0.796,0.79s-0.613,0.471-0.937,0.694c-0.219,0.155-0.43,0.309-0.632,0.461
			s-0.382,0.303-0.537,0.451s-0.278,0.293-0.369,0.434S423.94,72.281,423.94,72.409z"/>
	</g>
	<g>
		<path fill="#2F2F2F" d="M342.293,169.6v-9.803h3.473c3.482,0,5.223,1.593,5.223,4.778c0,1.527-0.475,2.746-1.425,3.657
			s-2.216,1.367-3.797,1.367H342.293z M344.501,161.595v6.214h1.094c0.957,0,1.708-0.287,2.252-0.861s0.817-1.356,0.817-2.345
			c0-0.934-0.27-1.669-0.81-2.205s-1.298-0.803-2.273-0.803H344.501z"/>
		<path fill="#2F2F2F" d="M358.228,169.6h-2.044v-1.005h-0.027c-0.469,0.784-1.165,1.176-2.085,1.176
			c-0.679,0-1.213-0.192-1.603-0.578s-0.584-0.899-0.584-1.542c0-1.358,0.804-2.142,2.413-2.352l1.9-0.253
			c0-0.766-0.415-1.148-1.244-1.148c-0.834,0-1.627,0.249-2.379,0.745v-1.627c0.301-0.155,0.712-0.292,1.234-0.41
			s0.997-0.178,1.425-0.178c1.996,0,2.994,0.996,2.994,2.987V169.6z M356.198,166.756v-0.472l-1.271,0.164
			c-0.702,0.091-1.053,0.408-1.053,0.95c0,0.246,0.085,0.448,0.256,0.605s0.402,0.236,0.694,0.236c0.406,0,0.736-0.14,0.991-0.42
			S356.198,167.185,356.198,166.756z"/>
		<path fill="#2F2F2F" d="M364.168,169.518c-0.319,0.168-0.8,0.253-1.442,0.253c-1.522,0-2.283-0.791-2.283-2.372v-3.206h-1.135
			V162.6h1.135v-1.511l2.153-0.615v2.126h1.572v1.593h-1.572v2.83c0,0.729,0.29,1.094,0.868,1.094c0.228,0,0.462-0.066,0.704-0.198
			V169.518z"/>
		<path fill="#2F2F2F" d="M371.209,169.6h-2.044v-1.005h-0.027c-0.469,0.784-1.165,1.176-2.085,1.176
			c-0.679,0-1.213-0.192-1.603-0.578s-0.584-0.899-0.584-1.542c0-1.358,0.804-2.142,2.413-2.352l1.9-0.253
			c0-0.766-0.415-1.148-1.244-1.148c-0.834,0-1.627,0.249-2.379,0.745v-1.627c0.301-0.155,0.712-0.292,1.234-0.41
			s0.997-0.178,1.425-0.178c1.996,0,2.994,0.996,2.994,2.987V169.6z M369.179,166.756v-0.472l-1.271,0.164
			c-0.702,0.091-1.053,0.408-1.053,0.95c0,0.246,0.085,0.448,0.256,0.605s0.402,0.236,0.694,0.236c0.406,0,0.736-0.14,0.991-0.42
			S369.179,167.185,369.179,166.756z"/>
		<path fill="#2F2F2F" d="M378.223,169.347c-0.488,0.283-1.192,0.424-2.112,0.424c-1.076,0-1.946-0.326-2.611-0.978
			s-0.998-1.493-0.998-2.522c0-1.189,0.356-2.127,1.07-2.813s1.667-1.029,2.861-1.029c0.825,0,1.422,0.109,1.791,0.328v1.832
			c-0.451-0.337-0.955-0.506-1.511-0.506c-0.62,0-1.111,0.181-1.473,0.543s-0.543,0.862-0.543,1.5c0,0.62,0.173,1.106,0.52,1.459
			s0.823,0.53,1.429,0.53c0.538,0,1.064-0.168,1.579-0.506V169.347z"/>
		<path fill="#2F2F2F" d="M385.927,166.715h-4.566c0.073,1.016,0.713,1.524,1.921,1.524c0.77,0,1.447-0.182,2.03-0.547v1.559
			c-0.647,0.346-1.488,0.52-2.522,0.52c-1.13,0-2.007-0.313-2.632-0.94s-0.937-1.5-0.937-2.622c0-1.162,0.337-2.083,1.012-2.762
			s1.504-1.019,2.488-1.019c1.021,0,1.811,0.303,2.369,0.909s0.837,1.429,0.837,2.468V166.715z M383.924,165.389
			c0-1.002-0.406-1.504-1.217-1.504c-0.346,0-0.646,0.144-0.899,0.431s-0.407,0.645-0.461,1.073H383.924z"/>
		<path fill="#2F2F2F" d="M393.973,169.6h-2.153v-3.89c0-1.084-0.387-1.627-1.162-1.627c-0.374,0-0.681,0.144-0.923,0.431
			s-0.362,0.652-0.362,1.094v3.992h-2.16v-7h2.16v1.107h0.027c0.515-0.852,1.265-1.278,2.249-1.278c1.549,0,2.324,0.961,2.324,2.885
			V169.6z"/>
		<path fill="#2F2F2F" d="M399.914,169.518c-0.319,0.168-0.8,0.253-1.442,0.253c-1.522,0-2.283-0.791-2.283-2.372v-3.206h-1.135
			V162.6h1.135v-1.511l2.153-0.615v2.126h1.572v1.593h-1.572v2.83c0,0.729,0.29,1.094,0.868,1.094c0.228,0,0.462-0.066,0.704-0.198
			V169.518z"/>
		<path fill="#2F2F2F" d="M407.365,166.715h-4.566c0.073,1.016,0.713,1.524,1.921,1.524c0.77,0,1.447-0.182,2.03-0.547v1.559
			c-0.647,0.346-1.488,0.52-2.522,0.52c-1.13,0-2.007-0.313-2.632-0.94s-0.937-1.5-0.937-2.622c0-1.162,0.337-2.083,1.012-2.762
			s1.504-1.019,2.488-1.019c1.021,0,1.811,0.303,2.369,0.909s0.837,1.429,0.837,2.468V166.715z M405.362,165.389
			c0-1.002-0.406-1.504-1.217-1.504c-0.346,0-0.646,0.144-0.899,0.431s-0.407,0.645-0.461,1.073H405.362z"/>
		<path fill="#2F2F2F" d="M413.216,164.548c-0.26-0.141-0.563-0.212-0.909-0.212c-0.469,0-0.836,0.172-1.101,0.516
			s-0.396,0.812-0.396,1.405v3.343h-2.16v-7h2.16v1.299h0.027c0.342-0.948,0.957-1.422,1.846-1.422c0.228,0,0.406,0.027,0.533,0.082
			V164.548z"/>
		<path fill="#2F2F2F" d="M417.974,169.279v-1.88c0.656,0.479,1.422,0.718,2.297,0.718c0.551,0,0.981-0.119,1.289-0.355
			s0.461-0.567,0.461-0.991c0-0.438-0.19-0.775-0.571-1.012s-0.903-0.355-1.569-0.355h-0.909v-1.654h0.841
			c1.276,0,1.914-0.424,1.914-1.271c0-0.797-0.49-1.196-1.47-1.196c-0.656,0-1.294,0.212-1.914,0.636v-1.764
			c0.688-0.346,1.49-0.52,2.406-0.52c1.002,0,1.783,0.226,2.341,0.677s0.837,1.037,0.837,1.757c0,1.281-0.649,2.083-1.948,2.406
			v0.034c0.693,0.086,1.24,0.338,1.641,0.755s0.602,0.929,0.602,1.535c0,0.916-0.335,1.641-1.005,2.174s-1.595,0.8-2.775,0.8
			C419.43,169.771,418.607,169.607,417.974,169.279z"/>
	</g>
	<g>
		<path fill="#2F2F2F" d="M560.182,74.2h-2.406l-0.697-2.181h-3.486l-0.69,2.181h-2.393l3.568-9.803h2.618L560.182,74.2z
			 M556.572,70.324l-1.053-3.295c-0.078-0.246-0.132-0.54-0.164-0.882h-0.055c-0.023,0.287-0.08,0.572-0.171,0.854l-1.066,3.322
			H556.572z"/>
		<path fill="#2F2F2F" d="M567.551,67.2l-2.604,7h-2.461l-2.481-7h2.311l1.217,4.313c0.137,0.488,0.216,0.902,0.239,1.244h0.027
			c0.032-0.324,0.116-0.725,0.253-1.203l1.244-4.354H567.551z"/>
		<path fill="#2F2F2F" d="M574.086,74.2h-2.044v-1.005h-0.027c-0.469,0.784-1.165,1.176-2.085,1.176
			c-0.679,0-1.213-0.192-1.603-0.578s-0.584-0.899-0.584-1.542c0-1.358,0.804-2.142,2.413-2.352l1.9-0.253
			c0-0.766-0.415-1.148-1.244-1.148c-0.834,0-1.627,0.249-2.379,0.745v-1.627c0.301-0.155,0.712-0.292,1.234-0.41
			s0.997-0.178,1.425-0.178c1.996,0,2.994,0.996,2.994,2.987V74.2z M572.056,71.356v-0.472l-1.271,0.164
			c-0.702,0.091-1.053,0.408-1.053,0.95c0,0.246,0.085,0.448,0.256,0.605s0.402,0.236,0.694,0.236c0.406,0,0.736-0.14,0.991-0.42
			S572.056,71.784,572.056,71.356z"/>
		<path fill="#2F2F2F" d="M576.889,66.092c-0.365,0-0.663-0.108-0.896-0.325s-0.349-0.482-0.349-0.796
			c0-0.324,0.116-0.588,0.349-0.793s0.531-0.308,0.896-0.308c0.369,0,0.669,0.103,0.899,0.308s0.345,0.469,0.345,0.793
			c0,0.328-0.115,0.597-0.345,0.807S577.258,66.092,576.889,66.092z M577.955,74.2h-2.16v-7h2.16V74.2z"/>
		<path fill="#2F2F2F" d="M581.934,74.2h-2.16V63.837h2.16V74.2z"/>
		<path fill="#2F2F2F" d="M589.576,74.2h-2.044v-1.005h-0.027c-0.469,0.784-1.165,1.176-2.085,1.176
			c-0.679,0-1.213-0.192-1.603-0.578s-0.584-0.899-0.584-1.542c0-1.358,0.804-2.142,2.413-2.352l1.9-0.253
			c0-0.766-0.415-1.148-1.244-1.148c-0.834,0-1.627,0.249-2.379,0.745v-1.627c0.301-0.155,0.712-0.292,1.234-0.41
			s0.997-0.178,1.425-0.178c1.996,0,2.994,0.996,2.994,2.987V74.2z M587.546,71.356v-0.472l-1.271,0.164
			c-0.702,0.091-1.053,0.408-1.053,0.95c0,0.246,0.085,0.448,0.256,0.605s0.402,0.236,0.694,0.236c0.406,0,0.736-0.14,0.991-0.42
			S587.546,71.784,587.546,71.356z"/>
		<path fill="#2F2F2F" d="M593.473,73.386h-0.027V74.2h-2.16V63.837h2.16v4.416h0.027c0.533-0.816,1.292-1.224,2.276-1.224
			c0.902,0,1.597,0.31,2.085,0.93s0.731,1.467,0.731,2.543c0,1.167-0.285,2.103-0.854,2.81s-1.331,1.06-2.283,1.06
			C594.566,74.371,593.915,74.043,593.473,73.386z M593.411,70.433v0.718c0,0.451,0.13,0.825,0.39,1.121s0.592,0.444,0.998,0.444
			c0.492,0,0.874-0.19,1.145-0.571s0.407-0.919,0.407-1.617c0-0.579-0.124-1.031-0.373-1.357s-0.603-0.489-1.063-0.489
			c-0.433,0-0.792,0.162-1.077,0.485S593.411,69.914,593.411,70.433z"/>
		<path fill="#2F2F2F" d="M601.061,66.092c-0.365,0-0.663-0.108-0.896-0.325s-0.349-0.482-0.349-0.796
			c0-0.324,0.116-0.588,0.349-0.793s0.531-0.308,0.896-0.308c0.369,0,0.669,0.103,0.899,0.308s0.345,0.469,0.345,0.793
			c0,0.328-0.115,0.597-0.345,0.807S601.43,66.092,601.061,66.092z M602.127,74.2h-2.16v-7h2.16V74.2z"/>
		<path fill="#2F2F2F" d="M606.105,74.2h-2.16V63.837h2.16V74.2z"/>
		<path fill="#2F2F2F" d="M609.018,66.092c-0.365,0-0.663-0.108-0.896-0.325s-0.349-0.482-0.349-0.796
			c0-0.324,0.116-0.588,0.349-0.793s0.531-0.308,0.896-0.308c0.369,0,0.669,0.103,0.899,0.308s0.345,0.469,0.345,0.793
			c0,0.328-0.115,0.597-0.345,0.807S609.387,66.092,609.018,66.092z M610.084,74.2h-2.16v-7h2.16V74.2z"/>
		<path fill="#2F2F2F" d="M616.134,74.118c-0.319,0.168-0.8,0.253-1.442,0.253c-1.522,0-2.283-0.791-2.283-2.372v-3.206h-1.135V67.2
			h1.135v-1.511l2.153-0.615V67.2h1.572v1.593h-1.572v2.83c0,0.729,0.29,1.094,0.868,1.094c0.228,0,0.462-0.066,0.704-0.198V74.118z
			"/>
		<path fill="#2F2F2F" d="M624.016,67.2l-2.844,7.561c-0.684,1.818-1.713,2.728-3.09,2.728c-0.524,0-0.955-0.059-1.292-0.178v-1.723
			c0.287,0.168,0.599,0.253,0.937,0.253c0.556,0,0.943-0.262,1.162-0.786l0.369-0.868l-2.844-6.986h2.393l1.306,4.259
			c0.082,0.264,0.146,0.577,0.191,0.937h0.027c0.041-0.264,0.116-0.572,0.226-0.923l1.319-4.272H624.016z"/>
		<path fill="#2F2F2F" d="M634.29,74.2h-6.282v-0.896l3.514-4.512h-3.165V67.2h5.906v1.066l-3.329,4.341h3.356V74.2z"/>
		<path fill="#2F2F2F" d="M638.788,74.371c-1.167,0-2.084-0.327-2.751-0.981s-1.001-1.542-1.001-2.663
			c0-1.158,0.346-2.063,1.039-2.717s1.629-0.981,2.81-0.981c1.162,0,2.074,0.327,2.734,0.981s0.991,1.519,0.991,2.594
			c0,1.162-0.341,2.081-1.022,2.755S639.973,74.371,638.788,74.371z M638.843,68.683c-0.51,0-0.907,0.175-1.189,0.526
			s-0.424,0.848-0.424,1.49c0,1.344,0.542,2.017,1.627,2.017c1.035,0,1.552-0.69,1.552-2.071
			C640.408,69.337,639.886,68.683,638.843,68.683z"/>
		<path fill="#2F2F2F" d="M650.771,74.2h-2.153v-3.89c0-1.084-0.387-1.627-1.162-1.627c-0.374,0-0.681,0.144-0.923,0.431
			s-0.362,0.652-0.362,1.094V74.2h-2.16v-7h2.16v1.107h0.027c0.515-0.852,1.265-1.278,2.249-1.278c1.549,0,2.324,0.961,2.324,2.885
			V74.2z"/>
		<path fill="#2F2F2F" d="M658.77,71.315h-4.566c0.073,1.016,0.713,1.524,1.921,1.524c0.77,0,1.447-0.182,2.03-0.547v1.559
			c-0.647,0.346-1.488,0.52-2.522,0.52c-1.13,0-2.007-0.313-2.632-0.94s-0.937-1.5-0.937-2.622c0-1.162,0.337-2.083,1.012-2.762
			s1.504-1.019,2.488-1.019c1.021,0,1.811,0.303,2.369,0.909s0.837,1.429,0.837,2.468V71.315z M656.767,69.989
			c0-1.002-0.406-1.504-1.217-1.504c-0.346,0-0.646,0.144-0.899,0.431s-0.407,0.645-0.461,1.073H656.767z"/>
		<path fill="#2F2F2F" d="M663.808,73.879v-1.88c0.656,0.479,1.422,0.718,2.297,0.718c0.551,0,0.981-0.119,1.289-0.355
			s0.461-0.567,0.461-0.991c0-0.438-0.19-0.775-0.571-1.012s-0.903-0.355-1.569-0.355h-0.909v-1.654h0.841
			c1.276,0,1.914-0.424,1.914-1.271c0-0.797-0.49-1.196-1.47-1.196c-0.656,0-1.294,0.212-1.914,0.636v-1.764
			c0.688-0.346,1.49-0.52,2.406-0.52c1.002,0,1.783,0.226,2.341,0.677s0.837,1.037,0.837,1.757c0,1.281-0.649,2.083-1.948,2.406
			v0.034c0.693,0.086,1.24,0.338,1.641,0.755s0.602,0.929,0.602,1.535c0,0.916-0.335,1.641-1.005,2.174s-1.595,0.8-2.775,0.8
			C665.264,74.371,664.441,74.207,663.808,73.879z"/>
	</g>
	<g>
		<path fill="#2F2F2F" d="M586.652,169.601v-9.803h3.473c3.482,0,5.223,1.593,5.223,4.778c0,1.527-0.475,2.746-1.425,3.657
			s-2.216,1.367-3.797,1.367H586.652z M588.86,161.596v6.214h1.094c0.957,0,1.708-0.287,2.252-0.861s0.817-1.356,0.817-2.345
			c0-0.934-0.27-1.669-0.81-2.205s-1.298-0.803-2.273-0.803H588.86z"/>
		<path fill="#2F2F2F" d="M602.586,169.601h-2.044v-1.005h-0.027c-0.469,0.784-1.165,1.176-2.085,1.176
			c-0.679,0-1.213-0.192-1.603-0.578s-0.584-0.899-0.584-1.542c0-1.358,0.804-2.142,2.413-2.352l1.9-0.253
			c0-0.766-0.415-1.148-1.244-1.148c-0.834,0-1.627,0.249-2.379,0.745v-1.627c0.301-0.155,0.712-0.292,1.234-0.41
			s0.997-0.178,1.425-0.178c1.996,0,2.994,0.996,2.994,2.987V169.601z M600.556,166.757v-0.472l-1.271,0.164
			c-0.702,0.091-1.053,0.408-1.053,0.95c0,0.246,0.085,0.448,0.256,0.605s0.402,0.236,0.694,0.236c0.406,0,0.736-0.14,0.991-0.42
			S600.556,167.185,600.556,166.757z"/>
		<path fill="#2F2F2F" d="M608.527,169.519c-0.319,0.168-0.8,0.253-1.442,0.253c-1.522,0-2.283-0.791-2.283-2.372v-3.206h-1.135
			v-1.593h1.135v-1.511l2.153-0.615v2.126h1.572v1.593h-1.572v2.83c0,0.729,0.29,1.094,0.868,1.094c0.228,0,0.462-0.066,0.704-0.198
			V169.519z"/>
		<path fill="#2F2F2F" d="M615.568,169.601h-2.044v-1.005h-0.027c-0.469,0.784-1.165,1.176-2.085,1.176
			c-0.679,0-1.213-0.192-1.603-0.578s-0.584-0.899-0.584-1.542c0-1.358,0.804-2.142,2.413-2.352l1.9-0.253
			c0-0.766-0.415-1.148-1.244-1.148c-0.834,0-1.627,0.249-2.379,0.745v-1.627c0.301-0.155,0.712-0.292,1.234-0.41
			s0.997-0.178,1.425-0.178c1.996,0,2.994,0.996,2.994,2.987V169.601z M613.538,166.757v-0.472l-1.271,0.164
			c-0.702,0.091-1.053,0.408-1.053,0.95c0,0.246,0.085,0.448,0.256,0.605s0.402,0.236,0.694,0.236c0.406,0,0.736-0.14,0.991-0.42
			S613.538,167.185,613.538,166.757z"/>
		<path fill="#2F2F2F" d="M622.582,169.348c-0.488,0.283-1.192,0.424-2.112,0.424c-1.076,0-1.946-0.326-2.611-0.978
			s-0.998-1.493-0.998-2.522c0-1.189,0.356-2.127,1.07-2.813s1.667-1.029,2.861-1.029c0.825,0,1.422,0.109,1.791,0.328v1.832
			c-0.451-0.337-0.955-0.506-1.511-0.506c-0.62,0-1.111,0.181-1.473,0.543s-0.543,0.862-0.543,1.5c0,0.62,0.173,1.106,0.52,1.459
			s0.823,0.53,1.429,0.53c0.538,0,1.064-0.168,1.579-0.506V169.348z"/>
		<path fill="#2F2F2F" d="M630.286,166.716h-4.566c0.073,1.016,0.713,1.524,1.921,1.524c0.77,0,1.447-0.182,2.03-0.547v1.559
			c-0.647,0.346-1.488,0.52-2.522,0.52c-1.13,0-2.007-0.313-2.632-0.94s-0.937-1.5-0.937-2.622c0-1.162,0.337-2.083,1.012-2.762
			s1.504-1.019,2.488-1.019c1.021,0,1.811,0.303,2.369,0.909s0.837,1.429,0.837,2.468V166.716z M628.283,165.39
			c0-1.002-0.406-1.504-1.217-1.504c-0.346,0-0.646,0.144-0.899,0.431s-0.407,0.645-0.461,1.073H628.283z"/>
		<path fill="#2F2F2F" d="M638.332,169.601h-2.153v-3.89c0-1.084-0.387-1.627-1.162-1.627c-0.374,0-0.681,0.144-0.923,0.431
			s-0.362,0.652-0.362,1.094v3.992h-2.16v-7h2.16v1.107h0.027c0.515-0.852,1.265-1.278,2.249-1.278c1.549,0,2.324,0.961,2.324,2.885
			V169.601z"/>
		<path fill="#2F2F2F" d="M644.272,169.519c-0.319,0.168-0.8,0.253-1.442,0.253c-1.522,0-2.283-0.791-2.283-2.372v-3.206h-1.135
			v-1.593h1.135v-1.511l2.153-0.615v2.126h1.572v1.593H642.7v2.83c0,0.729,0.29,1.094,0.868,1.094c0.228,0,0.462-0.066,0.704-0.198
			V169.519z"/>
		<path fill="#2F2F2F" d="M651.723,166.716h-4.566c0.073,1.016,0.713,1.524,1.921,1.524c0.77,0,1.447-0.182,2.03-0.547v1.559
			c-0.647,0.346-1.488,0.52-2.522,0.52c-1.13,0-2.007-0.313-2.632-0.94s-0.937-1.5-0.937-2.622c0-1.162,0.337-2.083,1.012-2.762
			s1.504-1.019,2.488-1.019c1.021,0,1.811,0.303,2.369,0.909s0.837,1.429,0.837,2.468V166.716z M649.72,165.39
			c0-1.002-0.406-1.504-1.217-1.504c-0.346,0-0.646,0.144-0.899,0.431s-0.407,0.645-0.461,1.073H649.72z"/>
		<path fill="#2F2F2F" d="M657.575,164.549c-0.26-0.141-0.563-0.212-0.909-0.212c-0.469,0-0.836,0.172-1.101,0.516
			s-0.396,0.812-0.396,1.405v3.343h-2.16v-7h2.16v1.299h0.027c0.342-0.948,0.957-1.422,1.846-1.422c0.228,0,0.406,0.027,0.533,0.082
			V164.549z"/>
		<path fill="#2F2F2F" d="M667.22,159.579v10.021h-2.153v-7.588c-0.119,0.105-0.259,0.204-0.42,0.297s-0.334,0.178-0.516,0.253
			s-0.372,0.139-0.567,0.191s-0.39,0.09-0.581,0.113v-1.818c0.561-0.164,1.089-0.374,1.586-0.629s0.946-0.536,1.347-0.841H667.22z"
			/>
	</g>
	<g>
		<path fill="#2F2F2F" d="M75.086,75.716H72.68l-0.697-2.181h-3.486l-0.69,2.181h-2.393l3.568-9.803H71.6L75.086,75.716z
			 M71.477,71.84l-1.053-3.295c-0.078-0.246-0.132-0.54-0.164-0.882h-0.055c-0.023,0.287-0.08,0.572-0.171,0.854l-1.066,3.322
			H71.477z"/>
		<path fill="#2F2F2F" d="M82.456,68.716l-2.604,7H77.39l-2.481-7h2.311l1.217,4.313c0.137,0.488,0.216,0.902,0.239,1.244h0.027
			c0.032-0.324,0.116-0.725,0.253-1.203l1.244-4.354H82.456z"/>
		<path fill="#2F2F2F" d="M88.991,75.716h-2.044v-1.005h-0.027c-0.469,0.784-1.165,1.176-2.085,1.176
			c-0.679,0-1.213-0.192-1.603-0.578s-0.584-0.899-0.584-1.542c0-1.358,0.804-2.142,2.413-2.352l1.9-0.253
			c0-0.766-0.415-1.148-1.244-1.148c-0.834,0-1.627,0.249-2.379,0.745v-1.627c0.301-0.155,0.712-0.292,1.234-0.41
			s0.997-0.178,1.425-0.178c1.996,0,2.994,0.996,2.994,2.987V75.716z M86.96,72.872V72.4l-1.271,0.164
			c-0.702,0.091-1.053,0.408-1.053,0.95c0,0.246,0.085,0.448,0.256,0.605s0.402,0.236,0.694,0.236c0.406,0,0.736-0.14,0.991-0.42
			S86.96,73.3,86.96,72.872z"/>
		<path fill="#2F2F2F" d="M91.793,67.608c-0.365,0-0.663-0.108-0.896-0.325s-0.349-0.482-0.349-0.796
			c0-0.324,0.116-0.588,0.349-0.793s0.531-0.308,0.896-0.308c0.369,0,0.669,0.103,0.899,0.308s0.345,0.469,0.345,0.793
			c0,0.328-0.115,0.597-0.345,0.807S92.163,67.608,91.793,67.608z M92.86,75.716H90.7v-7h2.16V75.716z"/>
		<path fill="#2F2F2F" d="M96.838,75.716h-2.16V65.353h2.16V75.716z"/>
		<path fill="#2F2F2F" d="M104.481,75.716h-2.044v-1.005h-0.027c-0.469,0.784-1.165,1.176-2.085,1.176
			c-0.679,0-1.213-0.192-1.603-0.578s-0.584-0.899-0.584-1.542c0-1.358,0.804-2.142,2.413-2.352l1.9-0.253
			c0-0.766-0.415-1.148-1.244-1.148c-0.834,0-1.627,0.249-2.379,0.745v-1.627c0.301-0.155,0.712-0.292,1.234-0.41
			s0.997-0.178,1.425-0.178c1.996,0,2.994,0.996,2.994,2.987V75.716z M102.451,72.872V72.4l-1.271,0.164
			c-0.702,0.091-1.053,0.408-1.053,0.95c0,0.246,0.085,0.448,0.256,0.605s0.402,0.236,0.694,0.236c0.406,0,0.736-0.14,0.991-0.42
			S102.451,73.3,102.451,72.872z"/>
		<path fill="#2F2F2F" d="M108.377,74.902h-0.027v0.813h-2.16V65.353h2.16v4.416h0.027c0.533-0.816,1.292-1.224,2.276-1.224
			c0.902,0,1.597,0.31,2.085,0.93s0.731,1.467,0.731,2.543c0,1.167-0.285,2.103-0.854,2.81s-1.331,1.06-2.283,1.06
			C109.471,75.887,108.819,75.559,108.377,74.902z M108.316,71.949v0.718c0,0.451,0.13,0.825,0.39,1.121s0.592,0.444,0.998,0.444
			c0.492,0,0.874-0.19,1.145-0.571s0.407-0.919,0.407-1.617c0-0.579-0.124-1.031-0.373-1.357s-0.603-0.489-1.063-0.489
			c-0.433,0-0.792,0.162-1.077,0.485S108.316,71.43,108.316,71.949z"/>
		<path fill="#2F2F2F" d="M115.965,67.608c-0.365,0-0.663-0.108-0.896-0.325s-0.349-0.482-0.349-0.796
			c0-0.324,0.116-0.588,0.349-0.793s0.531-0.308,0.896-0.308c0.369,0,0.669,0.103,0.899,0.308s0.345,0.469,0.345,0.793
			c0,0.328-0.115,0.597-0.345,0.807S116.334,67.608,115.965,67.608z M117.032,75.716h-2.16v-7h2.16V75.716z"/>
		<path fill="#2F2F2F" d="M121.01,75.716h-2.16V65.353h2.16V75.716z"/>
		<path fill="#2F2F2F" d="M123.922,67.608c-0.365,0-0.663-0.108-0.896-0.325s-0.349-0.482-0.349-0.796
			c0-0.324,0.116-0.588,0.349-0.793s0.531-0.308,0.896-0.308c0.369,0,0.669,0.103,0.899,0.308s0.345,0.469,0.345,0.793
			c0,0.328-0.115,0.597-0.345,0.807S124.292,67.608,123.922,67.608z M124.989,75.716h-2.16v-7h2.16V75.716z"/>
		<path fill="#2F2F2F" d="M131.039,75.634c-0.319,0.168-0.8,0.253-1.442,0.253c-1.522,0-2.283-0.791-2.283-2.372v-3.206h-1.135
			v-1.593h1.135v-1.511l2.153-0.615v2.126h1.572v1.593h-1.572v2.83c0,0.729,0.29,1.094,0.868,1.094c0.228,0,0.462-0.066,0.704-0.198
			V75.634z"/>
		<path fill="#2F2F2F" d="M138.92,68.716l-2.844,7.561c-0.684,1.818-1.713,2.728-3.09,2.728c-0.524,0-0.955-0.059-1.292-0.178
			v-1.723c0.287,0.168,0.599,0.253,0.937,0.253c0.556,0,0.943-0.262,1.162-0.786l0.369-0.868l-2.844-6.986h2.393l1.306,4.259
			c0.082,0.264,0.146,0.577,0.191,0.937h0.027c0.041-0.264,0.116-0.572,0.226-0.923l1.319-4.272H138.92z"/>
		<path fill="#2F2F2F" d="M149.195,75.716h-6.282V74.82l3.514-4.512h-3.165v-1.593h5.906v1.066l-3.329,4.341h3.356V75.716z"/>
		<path fill="#2F2F2F" d="M153.693,75.887c-1.167,0-2.084-0.327-2.751-0.981s-1.001-1.542-1.001-2.663
			c0-1.158,0.346-2.063,1.039-2.717s1.629-0.981,2.81-0.981c1.162,0,2.074,0.327,2.734,0.981s0.991,1.519,0.991,2.594
			c0,1.162-0.341,2.081-1.022,2.755S154.878,75.887,153.693,75.887z M153.748,70.199c-0.51,0-0.907,0.175-1.189,0.526
			s-0.424,0.848-0.424,1.49c0,1.344,0.542,2.017,1.627,2.017c1.035,0,1.552-0.69,1.552-2.071
			C155.313,70.853,154.791,70.199,153.748,70.199z"/>
		<path fill="#2F2F2F" d="M165.676,75.716h-2.153v-3.89c0-1.084-0.387-1.627-1.162-1.627c-0.374,0-0.681,0.144-0.923,0.431
			s-0.362,0.652-0.362,1.094v3.992h-2.16v-7h2.16v1.107h0.027c0.515-0.852,1.265-1.278,2.249-1.278c1.549,0,2.324,0.961,2.324,2.885
			V75.716z"/>
		<path fill="#2F2F2F" d="M173.674,72.831h-4.566c0.073,1.016,0.713,1.524,1.921,1.524c0.77,0,1.447-0.182,2.03-0.547v1.559
			c-0.647,0.346-1.488,0.52-2.522,0.52c-1.13,0-2.007-0.313-2.632-0.94s-0.937-1.5-0.937-2.622c0-1.162,0.337-2.083,1.012-2.762
			s1.504-1.019,2.488-1.019c1.021,0,1.811,0.303,2.369,0.909s0.837,1.429,0.837,2.468V72.831z M171.671,71.505
			c0-1.002-0.406-1.504-1.217-1.504c-0.346,0-0.646,0.144-0.899,0.431s-0.407,0.645-0.461,1.073H171.671z"/>
		<path fill="#2F2F2F" d="M183.6,65.694v10.021h-2.153v-7.588c-0.119,0.105-0.259,0.204-0.42,0.297s-0.334,0.178-0.516,0.253
			s-0.372,0.139-0.567,0.191s-0.39,0.09-0.581,0.113v-1.818c0.561-0.164,1.089-0.374,1.586-0.629s0.946-0.536,1.347-0.841H183.6z"/>
	</g>
	<g>
		<path fill="#2F2F2F" d="M93.704,188.501v-9.803h3.568c1.094,0,1.935,0.201,2.522,0.602c0.588,0.401,0.882,0.967,0.882,1.695
			c0,0.529-0.179,0.991-0.537,1.388s-0.814,0.673-1.371,0.827v0.027c0.697,0.087,1.254,0.345,1.671,0.772
			c0.417,0.429,0.625,0.95,0.625,1.565c0,0.898-0.321,1.61-0.964,2.137s-1.52,0.789-2.632,0.789H93.704z M95.912,180.325v2.324
			h0.971c0.456,0,0.814-0.11,1.077-0.331c0.262-0.222,0.393-0.525,0.393-0.913c0-0.72-0.538-1.08-1.613-1.08H95.912z M95.912,184.29
			v2.584h1.196c0.51,0,0.91-0.118,1.2-0.355c0.29-0.236,0.434-0.561,0.434-0.971c0-0.392-0.143-0.699-0.427-0.923
			c-0.285-0.223-0.683-0.335-1.193-0.335H95.912z"/>
		<path fill="#2F2F2F" d="M108.292,188.501h-2.044v-1.005h-0.027c-0.469,0.784-1.165,1.176-2.085,1.176
			c-0.679,0-1.213-0.192-1.603-0.577c-0.39-0.386-0.584-0.899-0.584-1.542c0-1.357,0.804-2.142,2.413-2.352l1.9-0.253
			c0-0.766-0.415-1.148-1.244-1.148c-0.834,0-1.627,0.249-2.379,0.745v-1.627c0.301-0.154,0.712-0.291,1.234-0.41
			c0.522-0.118,0.997-0.178,1.425-0.178c1.996,0,2.994,0.996,2.994,2.987V188.501z M106.262,185.657v-0.472l-1.271,0.164
			c-0.702,0.092-1.053,0.408-1.053,0.95c0,0.246,0.085,0.448,0.256,0.605s0.402,0.235,0.694,0.235c0.406,0,0.736-0.14,0.991-0.42
			S106.262,186.086,106.262,185.657z"/>
		<path fill="#2F2F2F" d="M115.306,188.248c-0.488,0.283-1.192,0.424-2.112,0.424c-1.076,0-1.946-0.325-2.611-0.978
			c-0.666-0.651-0.998-1.492-0.998-2.522c0-1.189,0.356-2.127,1.07-2.812c0.713-0.687,1.667-1.029,2.861-1.029
			c0.825,0,1.422,0.109,1.791,0.328v1.832c-0.451-0.337-0.955-0.506-1.511-0.506c-0.62,0-1.111,0.182-1.473,0.544
			s-0.543,0.862-0.543,1.5c0,0.62,0.173,1.106,0.52,1.46c0.346,0.353,0.823,0.529,1.429,0.529c0.538,0,1.064-0.168,1.579-0.506
			V188.248z"/>
		<path fill="#2F2F2F" d="M123.734,188.501h-2.591l-2.235-3.473h-0.027v3.473h-2.16v-10.363h2.16v6.596h0.027l2.085-3.233h2.563
			l-2.509,3.288L123.734,188.501z"/>
		<path fill="#2F2F2F" d="M131.199,188.501h-2.153v-1.066h-0.034c-0.533,0.825-1.247,1.237-2.14,1.237
			c-1.623,0-2.434-0.981-2.434-2.946v-4.225h2.153v4.033c0,0.989,0.392,1.483,1.176,1.483c0.387,0,0.697-0.136,0.93-0.406
			c0.232-0.271,0.349-0.64,0.349-1.104v-4.006h2.153V188.501z"/>
		<path fill="#2F2F2F" d="M135.205,187.687h-0.027v4.033h-2.16v-10.22h2.16v1.053h0.027c0.533-0.815,1.283-1.224,2.249-1.224
			c0.907,0,1.607,0.312,2.102,0.934s0.742,1.469,0.742,2.539c0,1.167-0.288,2.104-0.865,2.81c-0.577,0.707-1.343,1.06-2.3,1.06
			C136.29,188.671,135.647,188.343,135.205,187.687z M135.144,184.816v0.561c0,0.483,0.127,0.878,0.383,1.183
			c0.255,0.306,0.59,0.458,1.005,0.458c0.492,0,0.874-0.19,1.145-0.57c0.271-0.381,0.407-0.92,0.407-1.617
			c0-1.23-0.479-1.846-1.436-1.846c-0.442,0-0.803,0.168-1.083,0.503S135.144,184.265,135.144,184.816z"/>
		<path fill="#2F2F2F" d="M150.866,188.248c-0.488,0.283-1.192,0.424-2.112,0.424c-1.076,0-1.946-0.325-2.611-0.978
			c-0.666-0.651-0.998-1.492-0.998-2.522c0-1.189,0.356-2.127,1.07-2.812c0.713-0.687,1.667-1.029,2.861-1.029
			c0.825,0,1.422,0.109,1.791,0.328v1.832c-0.451-0.337-0.955-0.506-1.511-0.506c-0.62,0-1.111,0.182-1.473,0.544
			s-0.543,0.862-0.543,1.5c0,0.62,0.173,1.106,0.52,1.46c0.346,0.353,0.823,0.529,1.429,0.529c0.538,0,1.064-0.168,1.579-0.506
			V188.248z"/>
		<path fill="#2F2F2F" d="M155.617,188.671c-1.167,0-2.084-0.327-2.751-0.98c-0.667-0.654-1.001-1.542-1.001-2.663
			c0-1.157,0.346-2.063,1.039-2.717c0.693-0.654,1.629-0.981,2.81-0.981c1.162,0,2.074,0.327,2.734,0.981
			c0.661,0.653,0.991,1.519,0.991,2.594c0,1.162-0.341,2.081-1.022,2.755C157.735,188.335,156.802,188.671,155.617,188.671z
			 M155.672,182.984c-0.51,0-0.907,0.176-1.189,0.526c-0.283,0.352-0.424,0.848-0.424,1.49c0,1.345,0.542,2.017,1.627,2.017
			c1.035,0,1.552-0.69,1.552-2.071C157.237,183.638,156.715,182.984,155.672,182.984z"/>
		<path fill="#2F2F2F" d="M163.027,187.687H163v4.033h-2.16v-10.22H163v1.053h0.027c0.533-0.815,1.283-1.224,2.249-1.224
			c0.907,0,1.607,0.312,2.102,0.934s0.742,1.469,0.742,2.539c0,1.167-0.288,2.104-0.865,2.81c-0.577,0.707-1.343,1.06-2.3,1.06
			C164.112,188.671,163.469,188.343,163.027,187.687z M162.966,184.816v0.561c0,0.483,0.127,0.878,0.383,1.183
			c0.255,0.306,0.59,0.458,1.005,0.458c0.492,0,0.874-0.19,1.145-0.57c0.271-0.381,0.407-0.92,0.407-1.617
			c0-1.23-0.479-1.846-1.436-1.846c-0.442,0-0.803,0.168-1.083,0.503S162.966,184.265,162.966,184.816z"/>
		<path fill="#2F2F2F" d="M176.187,181.501l-2.844,7.561c-0.684,1.818-1.713,2.728-3.09,2.728c-0.524,0-0.955-0.059-1.292-0.178
			v-1.723c0.287,0.169,0.599,0.253,0.937,0.253c0.556,0,0.943-0.262,1.162-0.786l0.369-0.868l-2.844-6.986h2.393l1.306,4.259
			c0.082,0.265,0.146,0.577,0.191,0.937h0.027c0.041-0.264,0.116-0.571,0.226-0.923l1.319-4.272H176.187z"/>
		<path fill="#2F2F2F" d="M185.695,178.479v10.021h-2.153v-7.588c-0.119,0.105-0.259,0.204-0.42,0.298
			c-0.162,0.093-0.334,0.178-0.516,0.253s-0.372,0.139-0.567,0.191c-0.196,0.052-0.39,0.09-0.581,0.112v-1.818
			c0.561-0.164,1.089-0.373,1.586-0.629c0.497-0.255,0.946-0.535,1.347-0.841H185.695z"/>
	</g>
	<g>
		<path fill="#2F2F2F" d="M93.704,229.914v-9.803h3.568c1.094,0,1.935,0.2,2.522,0.602c0.588,0.4,0.882,0.966,0.882,1.695
			c0,0.528-0.179,0.991-0.537,1.388s-0.814,0.672-1.371,0.827v0.027c0.697,0.086,1.254,0.344,1.671,0.772
			c0.417,0.428,0.625,0.95,0.625,1.565c0,0.897-0.321,1.609-0.964,2.136s-1.52,0.79-2.632,0.79H93.704z M95.912,221.738v2.324h0.971
			c0.456,0,0.814-0.11,1.077-0.332c0.262-0.221,0.393-0.525,0.393-0.912c0-0.721-0.538-1.08-1.613-1.08H95.912z M95.912,225.703
			v2.584h1.196c0.51,0,0.91-0.119,1.2-0.355c0.29-0.237,0.434-0.561,0.434-0.971c0-0.393-0.143-0.7-0.427-0.923
			c-0.285-0.224-0.683-0.335-1.193-0.335H95.912z"/>
		<path fill="#2F2F2F" d="M108.292,229.914h-2.044v-1.005h-0.027c-0.469,0.783-1.165,1.176-2.085,1.176
			c-0.679,0-1.213-0.192-1.603-0.578c-0.39-0.385-0.584-0.898-0.584-1.541c0-1.358,0.804-2.143,2.413-2.352l1.9-0.253
			c0-0.766-0.415-1.148-1.244-1.148c-0.834,0-1.627,0.248-2.379,0.745v-1.627c0.301-0.155,0.712-0.292,1.234-0.41
			c0.522-0.119,0.997-0.178,1.425-0.178c1.996,0,2.994,0.995,2.994,2.987V229.914z M106.262,227.07v-0.472l-1.271,0.164
			c-0.702,0.091-1.053,0.407-1.053,0.95c0,0.246,0.085,0.447,0.256,0.604s0.402,0.236,0.694,0.236c0.406,0,0.736-0.141,0.991-0.421
			S106.262,227.498,106.262,227.07z"/>
		<path fill="#2F2F2F" d="M115.306,229.661c-0.488,0.282-1.192,0.424-2.112,0.424c-1.076,0-1.946-0.326-2.611-0.978
			c-0.666-0.652-0.998-1.493-0.998-2.522c0-1.189,0.356-2.127,1.07-2.813c0.713-0.686,1.667-1.028,2.861-1.028
			c0.825,0,1.422,0.109,1.791,0.328v1.832c-0.451-0.338-0.955-0.506-1.511-0.506c-0.62,0-1.111,0.181-1.473,0.543
			s-0.543,0.862-0.543,1.501c0,0.619,0.173,1.106,0.52,1.459c0.346,0.354,0.823,0.53,1.429,0.53c0.538,0,1.064-0.169,1.579-0.506
			V229.661z"/>
		<path fill="#2F2F2F" d="M123.734,229.914h-2.591l-2.235-3.473h-0.027v3.473h-2.16V219.55h2.16v6.597h0.027l2.085-3.233h2.563
			l-2.509,3.288L123.734,229.914z"/>
		<path fill="#2F2F2F" d="M131.199,229.914h-2.153v-1.066h-0.034c-0.533,0.824-1.247,1.237-2.14,1.237
			c-1.623,0-2.434-0.982-2.434-2.946v-4.225h2.153v4.033c0,0.988,0.392,1.483,1.176,1.483c0.387,0,0.697-0.136,0.93-0.407
			c0.232-0.271,0.349-0.639,0.349-1.104v-4.006h2.153V229.914z"/>
		<path fill="#2F2F2F" d="M135.205,229.1h-0.027v4.033h-2.16v-10.22h2.16v1.053h0.027c0.533-0.816,1.283-1.224,2.249-1.224
			c0.907,0,1.607,0.311,2.102,0.933s0.742,1.469,0.742,2.54c0,1.166-0.288,2.103-0.865,2.81c-0.577,0.706-1.343,1.06-2.3,1.06
			C136.29,230.085,135.647,229.756,135.205,229.1z M135.144,226.229v0.561c0,0.482,0.127,0.877,0.383,1.183
			c0.255,0.305,0.59,0.458,1.005,0.458c0.492,0,0.874-0.19,1.145-0.571c0.271-0.38,0.407-0.919,0.407-1.616
			c0-1.23-0.479-1.846-1.436-1.846c-0.442,0-0.803,0.167-1.083,0.502S135.144,225.677,135.144,226.229z"/>
		<path fill="#2F2F2F" d="M150.866,229.661c-0.488,0.282-1.192,0.424-2.112,0.424c-1.076,0-1.946-0.326-2.611-0.978
			c-0.666-0.652-0.998-1.493-0.998-2.522c0-1.189,0.356-2.127,1.07-2.813c0.713-0.686,1.667-1.028,2.861-1.028
			c0.825,0,1.422,0.109,1.791,0.328v1.832c-0.451-0.338-0.955-0.506-1.511-0.506c-0.62,0-1.111,0.181-1.473,0.543
			s-0.543,0.862-0.543,1.501c0,0.619,0.173,1.106,0.52,1.459c0.346,0.354,0.823,0.53,1.429,0.53c0.538,0,1.064-0.169,1.579-0.506
			V229.661z"/>
		<path fill="#2F2F2F" d="M155.617,230.085c-1.167,0-2.084-0.327-2.751-0.981c-0.667-0.653-1.001-1.541-1.001-2.662
			c0-1.158,0.346-2.063,1.039-2.718c0.693-0.653,1.629-0.98,2.81-0.98c1.162,0,2.074,0.327,2.734,0.98
			c0.661,0.654,0.991,1.519,0.991,2.595c0,1.162-0.341,2.08-1.022,2.755C157.735,229.747,156.802,230.085,155.617,230.085z
			 M155.672,224.397c-0.51,0-0.907,0.175-1.189,0.526c-0.283,0.351-0.424,0.848-0.424,1.49c0,1.344,0.542,2.017,1.627,2.017
			c1.035,0,1.552-0.69,1.552-2.071C157.237,225.05,156.715,224.397,155.672,224.397z"/>
		<path fill="#2F2F2F" d="M163.027,229.1H163v4.033h-2.16v-10.22H163v1.053h0.027c0.533-0.816,1.283-1.224,2.249-1.224
			c0.907,0,1.607,0.311,2.102,0.933s0.742,1.469,0.742,2.54c0,1.166-0.288,2.103-0.865,2.81c-0.577,0.706-1.343,1.06-2.3,1.06
			C164.112,230.085,163.469,229.756,163.027,229.1z M162.966,226.229v0.561c0,0.482,0.127,0.877,0.383,1.183
			c0.255,0.305,0.59,0.458,1.005,0.458c0.492,0,0.874-0.19,1.145-0.571c0.271-0.38,0.407-0.919,0.407-1.616
			c0-1.23-0.479-1.846-1.436-1.846c-0.442,0-0.803,0.167-1.083,0.502S162.966,225.677,162.966,226.229z"/>
		<path fill="#2F2F2F" d="M176.187,222.914l-2.844,7.561c-0.684,1.818-1.713,2.728-3.09,2.728c-0.524,0-0.955-0.06-1.292-0.178
			v-1.723c0.287,0.168,0.599,0.253,0.937,0.253c0.556,0,0.943-0.263,1.162-0.786l0.369-0.868l-2.844-6.986h2.393l1.306,4.259
			c0.082,0.264,0.146,0.576,0.191,0.937h0.027c0.041-0.265,0.116-0.572,0.226-0.923l1.319-4.272H176.187z"/>
		<path fill="#2F2F2F" d="M182.94,228.123h4.156v1.791h-6.521v-0.738c0-0.502,0.084-0.951,0.253-1.351
			c0.168-0.398,0.38-0.756,0.636-1.073c0.255-0.316,0.534-0.597,0.837-0.841c0.303-0.243,0.591-0.464,0.865-0.659
			c0.287-0.205,0.539-0.401,0.755-0.588c0.216-0.188,0.399-0.373,0.547-0.558s0.259-0.371,0.332-0.561
			c0.073-0.188,0.109-0.391,0.109-0.604c0-0.42-0.119-0.736-0.355-0.95c-0.237-0.215-0.599-0.321-1.087-0.321
			c-0.843,0-1.65,0.335-2.42,1.005v-1.9c0.852-0.552,1.814-0.827,2.885-0.827c0.497,0,0.942,0.064,1.336,0.194
			s0.728,0.315,1.001,0.558c0.273,0.241,0.482,0.534,0.625,0.878c0.144,0.345,0.215,0.729,0.215,1.152
			c0,0.451-0.069,0.852-0.208,1.203c-0.139,0.351-0.324,0.67-0.554,0.957s-0.496,0.55-0.796,0.789s-0.613,0.471-0.937,0.694
			c-0.219,0.154-0.43,0.309-0.632,0.461c-0.203,0.153-0.382,0.304-0.537,0.451c-0.155,0.148-0.278,0.293-0.369,0.435
			C182.986,227.86,182.94,227.995,182.94,228.123z"/>
	</g>
	<g>
		<path fill="#2F2F2F" d="M95.008,271.326v-9.803h3.568c1.094,0,1.935,0.201,2.522,0.602c0.588,0.401,0.882,0.967,0.882,1.695
			c0,0.529-0.179,0.992-0.537,1.389s-0.814,0.672-1.371,0.826v0.027c0.697,0.087,1.254,0.345,1.671,0.773
			c0.417,0.428,0.625,0.949,0.625,1.564c0,0.898-0.321,1.61-0.964,2.137s-1.52,0.789-2.632,0.789H95.008z M97.216,263.15v2.324
			h0.971c0.456,0,0.814-0.109,1.077-0.331s0.393-0.525,0.393-0.913c0-0.72-0.538-1.08-1.613-1.08H97.216z M97.216,267.115v2.584
			h1.196c0.51,0,0.91-0.118,1.2-0.355c0.29-0.236,0.434-0.561,0.434-0.971c0-0.392-0.143-0.699-0.427-0.922
			c-0.285-0.224-0.683-0.336-1.193-0.336H97.216z"/>
		<path fill="#2F2F2F" d="M109.596,271.326h-2.044v-1.004h-0.027c-0.469,0.783-1.165,1.176-2.085,1.176
			c-0.679,0-1.213-0.193-1.603-0.578s-0.584-0.898-0.584-1.541c0-1.358,0.804-2.143,2.413-2.352l1.9-0.254
			c0-0.766-0.415-1.148-1.244-1.148c-0.834,0-1.627,0.249-2.379,0.746v-1.627c0.301-0.155,0.712-0.292,1.234-0.41
			c0.522-0.119,0.997-0.178,1.425-0.178c1.996,0,2.994,0.995,2.994,2.986V271.326z M107.566,268.482v-0.471l-1.271,0.164
			c-0.702,0.091-1.053,0.407-1.053,0.949c0,0.246,0.085,0.448,0.256,0.605s0.402,0.236,0.694,0.236c0.406,0,0.736-0.141,0.991-0.421
			S107.566,268.911,107.566,268.482z"/>
		<path fill="#2F2F2F" d="M116.61,271.074c-0.488,0.282-1.192,0.424-2.112,0.424c-1.076,0-1.946-0.326-2.611-0.979
			c-0.666-0.651-0.998-1.492-0.998-2.521c0-1.189,0.356-2.127,1.07-2.813s1.667-1.028,2.861-1.028c0.825,0,1.422,0.109,1.791,0.328
			v1.832c-0.451-0.338-0.955-0.506-1.511-0.506c-0.62,0-1.111,0.181-1.473,0.543s-0.543,0.862-0.543,1.5
			c0,0.62,0.173,1.107,0.52,1.46s0.823,0.53,1.429,0.53c0.538,0,1.064-0.169,1.579-0.506V271.074z"/>
		<path fill="#2F2F2F" d="M125.039,271.326h-2.591l-2.235-3.473h-0.027v3.473h-2.16v-10.363h2.16v6.598h0.027l2.085-3.234h2.563
			l-2.509,3.289L125.039,271.326z"/>
		<path fill="#2F2F2F" d="M132.503,271.326h-2.153v-1.066h-0.034c-0.533,0.825-1.247,1.238-2.14,1.238
			c-1.623,0-2.434-0.982-2.434-2.947v-4.225h2.153v4.033c0,0.989,0.392,1.484,1.176,1.484c0.387,0,0.697-0.137,0.93-0.407
			s0.349-0.64,0.349-1.104v-4.006h2.153V271.326z"/>
		<path fill="#2F2F2F" d="M136.509,270.513h-0.027v4.033h-2.16v-10.221h2.16v1.053h0.027c0.533-0.815,1.283-1.223,2.249-1.223
			c0.907,0,1.607,0.311,2.102,0.933s0.742,1.469,0.742,2.54c0,1.166-0.288,2.103-0.865,2.809c-0.577,0.707-1.343,1.061-2.3,1.061
			C137.594,271.498,136.951,271.17,136.509,270.513z M136.448,267.642v0.561c0,0.482,0.127,0.877,0.383,1.182
			c0.255,0.306,0.59,0.459,1.005,0.459c0.492,0,0.874-0.191,1.145-0.571s0.407-0.919,0.407-1.616c0-1.23-0.479-1.846-1.436-1.846
			c-0.442,0-0.803,0.167-1.083,0.502S136.448,267.09,136.448,267.642z"/>
		<path fill="#2F2F2F" d="M152.17,271.074c-0.488,0.282-1.192,0.424-2.112,0.424c-1.076,0-1.946-0.326-2.611-0.979
			c-0.666-0.651-0.998-1.492-0.998-2.521c0-1.189,0.356-2.127,1.07-2.813s1.667-1.028,2.861-1.028c0.825,0,1.422,0.109,1.791,0.328
			v1.832c-0.451-0.338-0.955-0.506-1.511-0.506c-0.62,0-1.111,0.181-1.473,0.543s-0.543,0.862-0.543,1.5
			c0,0.62,0.173,1.107,0.52,1.46s0.823,0.53,1.429,0.53c0.538,0,1.064-0.169,1.579-0.506V271.074z"/>
		<path fill="#2F2F2F" d="M156.921,271.498c-1.167,0-2.084-0.328-2.751-0.981s-1.001-1.542-1.001-2.663
			c0-1.157,0.346-2.062,1.039-2.717s1.629-0.98,2.81-0.98c1.162,0,2.074,0.326,2.734,0.98s0.991,1.519,0.991,2.594
			c0,1.162-0.341,2.081-1.022,2.756C159.04,271.16,158.106,271.498,156.921,271.498z M156.976,265.81
			c-0.51,0-0.907,0.175-1.189,0.525c-0.283,0.352-0.424,0.848-0.424,1.49c0,1.345,0.542,2.018,1.627,2.018
			c1.035,0,1.552-0.691,1.552-2.072C158.542,266.463,158.02,265.81,156.976,265.81z"/>
		<path fill="#2F2F2F" d="M164.332,270.513h-0.027v4.033h-2.16v-10.221h2.16v1.053h0.027c0.533-0.815,1.283-1.223,2.249-1.223
			c0.907,0,1.607,0.311,2.102,0.933s0.742,1.469,0.742,2.54c0,1.166-0.288,2.103-0.865,2.809c-0.577,0.707-1.343,1.061-2.3,1.061
			C165.416,271.498,164.773,271.17,164.332,270.513z M164.27,267.642v0.561c0,0.482,0.127,0.877,0.383,1.182
			c0.255,0.306,0.59,0.459,1.005,0.459c0.492,0,0.874-0.191,1.145-0.571s0.407-0.919,0.407-1.616c0-1.23-0.479-1.846-1.436-1.846
			c-0.442,0-0.803,0.167-1.083,0.502S164.27,267.09,164.27,267.642z"/>
		<path fill="#2F2F2F" d="M177.491,264.326l-2.844,7.561c-0.684,1.818-1.713,2.729-3.09,2.729c-0.524,0-0.955-0.06-1.292-0.178
			v-1.723c0.287,0.168,0.599,0.252,0.937,0.252c0.556,0,0.943-0.262,1.162-0.785l0.369-0.869l-2.844-6.986h2.393l1.306,4.26
			c0.082,0.264,0.146,0.576,0.191,0.936h0.027c0.041-0.264,0.116-0.571,0.226-0.922l1.319-4.273H177.491z"/>
		<path fill="#2F2F2F" d="M182.112,271.005v-1.881c0.656,0.479,1.422,0.719,2.297,0.719c0.551,0,0.981-0.119,1.289-0.355
			c0.308-0.237,0.461-0.568,0.461-0.992c0-0.438-0.19-0.774-0.571-1.012c-0.38-0.236-0.903-0.355-1.569-0.355h-0.909v-1.654h0.841
			c1.276,0,1.914-0.424,1.914-1.271c0-0.797-0.49-1.195-1.47-1.195c-0.656,0-1.294,0.211-1.914,0.635v-1.764
			c0.688-0.346,1.49-0.52,2.406-0.52c1.002,0,1.783,0.227,2.341,0.678s0.837,1.036,0.837,1.756c0,1.281-0.649,2.083-1.948,2.406
			v0.035c0.693,0.086,1.24,0.338,1.641,0.755s0.602,0.929,0.602,1.534c0,0.916-0.335,1.641-1.005,2.174s-1.595,0.801-2.775,0.801
			C183.568,271.498,182.745,271.334,182.112,271.005z"/>
	</g>
	<g>
		<path fill="#2F2F2F" d="M100.379,120.94v-9.803h3.473c3.482,0,5.223,1.593,5.223,4.778c0,1.527-0.475,2.746-1.425,3.657
			s-2.216,1.367-3.797,1.367H100.379z M102.587,112.935v6.214h1.094c0.957,0,1.708-0.287,2.252-0.861s0.817-1.356,0.817-2.345
			c0-0.934-0.27-1.669-0.81-2.205s-1.298-0.803-2.273-0.803H102.587z"/>
		<path fill="#2F2F2F" d="M116.313,120.94h-2.044v-1.005h-0.027c-0.469,0.784-1.165,1.176-2.085,1.176
			c-0.679,0-1.213-0.192-1.603-0.578s-0.584-0.899-0.584-1.542c0-1.358,0.804-2.142,2.413-2.352l1.9-0.253
			c0-0.766-0.415-1.148-1.244-1.148c-0.834,0-1.627,0.249-2.379,0.745v-1.627c0.301-0.155,0.712-0.292,1.234-0.41
			s0.997-0.178,1.425-0.178c1.996,0,2.994,0.996,2.994,2.987V120.94z M114.283,118.096v-0.472l-1.271,0.164
			c-0.702,0.091-1.053,0.408-1.053,0.95c0,0.246,0.085,0.448,0.256,0.605s0.402,0.236,0.694,0.236c0.406,0,0.736-0.14,0.991-0.42
			S114.283,118.524,114.283,118.096z"/>
		<path fill="#2F2F2F" d="M122.254,120.858c-0.319,0.168-0.8,0.253-1.442,0.253c-1.522,0-2.283-0.791-2.283-2.372v-3.206h-1.135
			v-1.593h1.135v-1.511l2.153-0.615v2.126h1.572v1.593h-1.572v2.83c0,0.729,0.29,1.094,0.868,1.094c0.228,0,0.462-0.066,0.704-0.198
			V120.858z"/>
		<path fill="#2F2F2F" d="M129.295,120.94h-2.044v-1.005h-0.027c-0.469,0.784-1.165,1.176-2.085,1.176
			c-0.679,0-1.213-0.192-1.603-0.578s-0.584-0.899-0.584-1.542c0-1.358,0.804-2.142,2.413-2.352l1.9-0.253
			c0-0.766-0.415-1.148-1.244-1.148c-0.834,0-1.627,0.249-2.379,0.745v-1.627c0.301-0.155,0.712-0.292,1.234-0.41
			s0.997-0.178,1.425-0.178c1.996,0,2.994,0.996,2.994,2.987V120.94z M127.265,118.096v-0.472l-1.271,0.164
			c-0.702,0.091-1.053,0.408-1.053,0.95c0,0.246,0.085,0.448,0.256,0.605s0.402,0.236,0.694,0.236c0.406,0,0.736-0.14,0.991-0.42
			S127.265,118.524,127.265,118.096z"/>
		<path fill="#2F2F2F" d="M136.309,120.687c-0.488,0.283-1.192,0.424-2.112,0.424c-1.076,0-1.946-0.326-2.611-0.978
			s-0.998-1.493-0.998-2.522c0-1.189,0.356-2.127,1.07-2.813s1.667-1.029,2.861-1.029c0.825,0,1.422,0.109,1.791,0.328v1.832
			c-0.451-0.337-0.955-0.506-1.511-0.506c-0.62,0-1.111,0.181-1.473,0.543s-0.543,0.862-0.543,1.5c0,0.62,0.173,1.106,0.52,1.459
			s0.823,0.53,1.429,0.53c0.538,0,1.064-0.168,1.579-0.506V120.687z"/>
		<path fill="#2F2F2F" d="M144.013,118.055h-4.566c0.073,1.016,0.713,1.524,1.921,1.524c0.77,0,1.447-0.182,2.03-0.547v1.559
			c-0.647,0.346-1.488,0.52-2.522,0.52c-1.13,0-2.007-0.313-2.632-0.94s-0.937-1.5-0.937-2.622c0-1.162,0.337-2.083,1.012-2.762
			s1.504-1.019,2.488-1.019c1.021,0,1.811,0.303,2.369,0.909s0.837,1.429,0.837,2.468V118.055z M142.01,116.729
			c0-1.002-0.406-1.504-1.217-1.504c-0.346,0-0.646,0.144-0.899,0.431s-0.407,0.645-0.461,1.073H142.01z"/>
		<path fill="#2F2F2F" d="M152.059,120.94h-2.153v-3.89c0-1.084-0.387-1.627-1.162-1.627c-0.374,0-0.681,0.144-0.923,0.431
			s-0.362,0.652-0.362,1.094v3.992h-2.16v-7h2.16v1.107h0.027c0.515-0.852,1.265-1.278,2.249-1.278c1.549,0,2.324,0.961,2.324,2.885
			V120.94z"/>
		<path fill="#2F2F2F" d="M157.999,120.858c-0.319,0.168-0.8,0.253-1.442,0.253c-1.522,0-2.283-0.791-2.283-2.372v-3.206h-1.135
			v-1.593h1.135v-1.511l2.153-0.615v2.126h1.572v1.593h-1.572v2.83c0,0.729,0.29,1.094,0.868,1.094c0.228,0,0.462-0.066,0.704-0.198
			V120.858z"/>
		<path fill="#2F2F2F" d="M165.45,118.055h-4.566c0.073,1.016,0.713,1.524,1.921,1.524c0.77,0,1.447-0.182,2.03-0.547v1.559
			c-0.647,0.346-1.488,0.52-2.522,0.52c-1.13,0-2.007-0.313-2.632-0.94s-0.937-1.5-0.937-2.622c0-1.162,0.337-2.083,1.012-2.762
			s1.504-1.019,2.488-1.019c1.021,0,1.811,0.303,2.369,0.909s0.837,1.429,0.837,2.468V118.055z M163.447,116.729
			c0-1.002-0.406-1.504-1.217-1.504c-0.346,0-0.646,0.144-0.899,0.431s-0.407,0.645-0.461,1.073H163.447z"/>
		<path fill="#2F2F2F" d="M171.302,115.888c-0.26-0.141-0.563-0.212-0.909-0.212c-0.469,0-0.836,0.172-1.101,0.516
			s-0.396,0.812-0.396,1.405v3.343h-2.16v-7h2.16v1.299h0.027c0.342-0.948,0.957-1.422,1.846-1.422c0.228,0,0.406,0.027,0.533,0.082
			V115.888z"/>
		<path fill="#2F2F2F" d="M181.768,111.137v6.18h1.176v1.613h-1.176v2.01h-1.969v-2.01h-4.272v-1.688
			c0.378-0.424,0.77-0.888,1.176-1.391s0.797-1.022,1.176-1.555s0.73-1.07,1.056-1.61s0.603-1.056,0.831-1.548H181.768z
			 M177.461,117.317h2.338v-3.425c-0.16,0.296-0.333,0.596-0.52,0.899s-0.383,0.602-0.588,0.896s-0.413,0.579-0.622,0.854
			S177.657,117.075,177.461,117.317z"/>
	</g>
	<g>
		<path fill="#2F2F2F" d="M77.909,149.176v-1.16c0.133,0.117,0.292,0.223,0.478,0.316s0.381,0.173,0.586,0.237
			s0.411,0.114,0.618,0.149s0.398,0.053,0.574,0.053c0.605,0,1.058-0.112,1.356-0.337s0.448-0.548,0.448-0.97
			c0-0.227-0.05-0.424-0.149-0.592s-0.237-0.321-0.413-0.46s-0.384-0.271-0.624-0.398s-0.499-0.261-0.776-0.401
			c-0.293-0.148-0.566-0.299-0.82-0.451s-0.475-0.32-0.662-0.504s-0.335-0.392-0.442-0.624s-0.161-0.505-0.161-0.817
			c0-0.383,0.084-0.716,0.252-0.999s0.389-0.517,0.662-0.7s0.585-0.32,0.935-0.41s0.706-0.135,1.069-0.135
			c0.828,0,1.432,0.1,1.811,0.299v1.107c-0.496-0.344-1.133-0.516-1.91-0.516c-0.215,0-0.43,0.022-0.645,0.067
			s-0.406,0.118-0.574,0.22s-0.305,0.232-0.41,0.393s-0.158,0.355-0.158,0.586c0,0.215,0.04,0.4,0.12,0.557s0.198,0.299,0.354,0.428
			s0.347,0.254,0.571,0.375s0.483,0.254,0.776,0.398c0.301,0.148,0.586,0.305,0.855,0.469s0.506,0.346,0.709,0.545
			s0.364,0.42,0.483,0.662S83,147.083,83,147.395c0,0.414-0.081,0.765-0.243,1.052s-0.381,0.521-0.656,0.7s-0.593,0.31-0.952,0.39
			s-0.738,0.12-1.137,0.12c-0.133,0-0.297-0.011-0.492-0.032s-0.395-0.053-0.598-0.094s-0.396-0.092-0.577-0.152
			S78.018,149.251,77.909,149.176z"/>
		<path fill="#2F2F2F" d="M87.014,149.458c-0.227,0.125-0.525,0.188-0.896,0.188c-1.051,0-1.576-0.586-1.576-1.758v-3.551H83.51
			v-0.82h1.031v-1.465l0.961-0.311v1.775h1.512v0.82h-1.512v3.381c0,0.402,0.068,0.689,0.205,0.861s0.363,0.258,0.68,0.258
			c0.242,0,0.451-0.066,0.627-0.199V149.458z"/>
		<path fill="#2F2F2F" d="M90.673,149.657c-0.887,0-1.595-0.28-2.124-0.841s-0.794-1.304-0.794-2.229
			c0-1.008,0.275-1.795,0.826-2.361s1.295-0.85,2.232-0.85c0.895,0,1.593,0.275,2.095,0.826s0.753,1.314,0.753,2.291
			c0,0.957-0.271,1.724-0.812,2.3S91.583,149.657,90.673,149.657z M90.743,144.184c-0.617,0-1.105,0.21-1.465,0.63
			s-0.539,0.999-0.539,1.737c0,0.711,0.182,1.271,0.545,1.682s0.85,0.615,1.459,0.615c0.621,0,1.099-0.201,1.433-0.604
			s0.501-0.975,0.501-1.717c0-0.75-0.167-1.328-0.501-1.734S91.364,144.184,90.743,144.184z"/>
		<path fill="#2F2F2F" d="M98.271,144.489c-0.168-0.129-0.41-0.193-0.727-0.193c-0.41,0-0.753,0.193-1.028,0.58
			s-0.413,0.914-0.413,1.582v3.059h-0.961v-6h0.961v1.236h0.023c0.137-0.422,0.346-0.751,0.627-0.987s0.596-0.354,0.943-0.354
			c0.25,0,0.441,0.027,0.574,0.082V144.489z"/>
		<path fill="#2F2F2F" d="M103.574,149.516h-0.961v-0.938h-0.023c-0.418,0.719-1.033,1.078-1.846,1.078
			c-0.598,0-1.065-0.158-1.403-0.475s-0.507-0.736-0.507-1.26c0-1.121,0.66-1.773,1.98-1.957l1.799-0.252
			c0-1.02-0.412-1.529-1.236-1.529c-0.723,0-1.375,0.246-1.957,0.738v-0.984c0.59-0.375,1.27-0.562,2.039-0.562
			c1.41,0,2.115,0.746,2.115,2.238V149.516z M102.613,146.481l-1.447,0.199c-0.445,0.062-0.781,0.173-1.008,0.331
			s-0.34,0.438-0.34,0.841c0,0.293,0.104,0.532,0.313,0.718s0.487,0.278,0.835,0.278c0.477,0,0.87-0.167,1.181-0.501
			s0.466-0.757,0.466-1.269V146.481z"/>
		<path fill="#2F2F2F" d="M110.5,149.036c0,2.203-1.055,3.305-3.164,3.305c-0.742,0-1.391-0.141-1.945-0.422v-0.961
			c0.676,0.375,1.32,0.562,1.934,0.562c1.477,0,2.215-0.785,2.215-2.355v-0.656h-0.023c-0.457,0.766-1.145,1.148-2.062,1.148
			c-0.746,0-1.347-0.267-1.802-0.8s-0.683-1.249-0.683-2.147c0-1.02,0.245-1.83,0.735-2.432s1.161-0.902,2.013-0.902
			c0.809,0,1.408,0.324,1.799,0.973h0.023v-0.832h0.961V149.036z M109.539,146.803v-0.885c0-0.477-0.161-0.885-0.483-1.225
			s-0.724-0.51-1.204-0.51c-0.594,0-1.059,0.216-1.395,0.647s-0.504,1.036-0.504,1.813c0,0.668,0.161,1.202,0.483,1.603
			s0.749,0.601,1.28,0.601c0.539,0,0.978-0.191,1.315-0.574S109.539,147.401,109.539,146.803z"/>
		<path fill="#2F2F2F" d="M117.213,146.756h-4.236c0.016,0.668,0.195,1.184,0.539,1.547s0.816,0.545,1.418,0.545
			c0.676,0,1.297-0.223,1.863-0.668v0.902c-0.527,0.383-1.225,0.574-2.092,0.574c-0.848,0-1.514-0.272-1.998-0.817
			s-0.727-1.312-0.727-2.3c0-0.934,0.265-1.694,0.794-2.282s1.187-0.882,1.972-0.882s1.393,0.254,1.822,0.762
			s0.645,1.213,0.645,2.115V146.756z M116.229,145.942c-0.004-0.555-0.138-0.986-0.401-1.295s-0.63-0.463-1.099-0.463
			c-0.453,0-0.838,0.162-1.154,0.486s-0.512,0.748-0.586,1.271H116.229z"/>
	</g>
</g>
</svg>
