<?xml version="1.0" encoding="utf-8"?>
<!-- Generator: Adobe Illustrator 26.4.1, SVG Export Plug-In . SVG Version: 6.00 Build 0)  -->
<svg version="1.1" xmlns="http://www.w3.org/2000/svg" xmlns:xlink="http://www.w3.org/1999/xlink" x="0px" y="0px"
	 viewBox="0 0 741.903 268.4" enable-background="new 0 0 741.903 268.4" xml:space="preserve">
<symbol  id="PIPELINE" viewBox="-32 -12.266 64 24.531">
	<linearGradient id="SVGID_1_" gradientUnits="userSpaceOnUse" x1="0" y1="-12.2655" x2="1.502093e-15" y2="12.2655">
		<stop  offset="0" style="stop-color:#1B89B2"/>
		<stop  offset="1" style="stop-color:#51C8E8"/>
	</linearGradient>
	<path fill="url(#SVGID_1_)" d="M26.096,12.266h-51.448v0h0C-29.08,12.265-32,6.878-32,0s2.92-12.265,6.648-12.265h0v0h51.448
		C29.356-12.266,32-6.363,32,0S29.356,12.266,26.096,12.266z"/>
	<g>
		
			<linearGradient id="SVGID_00000171721646829150110840000013331235448028901550_" gradientUnits="userSpaceOnUse" x1="-31.461" y1="-6.1136" x2="-19.2338" y2="6.1136">
			<stop  offset="0" style="stop-color:#B3B4B4"/>
			<stop  offset="1" style="stop-color:#4F4F4F"/>
		</linearGradient>
		<ellipse fill="url(#SVGID_00000171721646829150110840000013331235448028901550_)" cx="-25.347" cy="0" rx="5.575" ry="10.879"/>
	</g>
</symbol>
<g id="Shapes">
	<rect fill="#FFFFFF" width="741.903" height="268.4"/>
	<g>
		<g opacity="0.25">
			<rect x="8.3" y="28.307" width="725.095" height="233.2"/>
			<rect x="8.3" y="28.307" opacity="0.4" width="725.095" height="233.2"/>
		</g>
		<g>
			<rect x="6.8" y="26.807" fill="#FFFFFF" width="725.095" height="233.2"/>
			
				<linearGradient id="SVGID_00000140001057167752910650000017441696186505580961_" gradientUnits="userSpaceOnUse" x1="369.3477" y1="26.8072" x2="369.3477" y2="260.0072">
				<stop  offset="0" style="stop-color:#B3B2B4"/>
				<stop  offset="0.38" style="stop-color:#B0AEAF"/>
				<stop  offset="0.76" style="stop-color:#A2A1A1"/>
				<stop  offset="1" style="stop-color:#979797"/>
			</linearGradient>
			
				<rect x="6.8" y="26.807" opacity="0.4" fill="url(#SVGID_00000140001057167752910650000017441696186505580961_)" width="725.095" height="233.2"/>
		</g>
	</g>
	<g>
		<g opacity="0.8">
			<rect x="21" y="54.207" fill="#767676" width="215.633" height="194.801"/>
			<rect x="21" y="54.207" opacity="0.5" fill="#767676" width="215.633" height="194.801"/>
		</g>
		<g>
			<rect x="20" y="53.207" fill="#FFFFFF" width="215.633" height="194.801"/>
			<rect x="20" y="53.207" opacity="0.5" fill="#3AA0F3" width="215.633" height="194.801"/>
		</g>
	</g>
	<rect x="33.2" y="97.207" fill="#FFFFFF" width="189.2" height="136.4"/>
	<g>
		<path fill="#505150" d="M70.442,129.408l2.03-6.089c0.101-0.304,0.203-0.558,0.304-0.812s0.203-0.457,0.254-0.71
			c0.101-0.254,0.152-0.457,0.254-0.71c0.101-0.254,0.152-0.507,0.203-0.812c0-0.051,0-0.203,0-0.507c0-0.304,0-0.66,0-1.066
			s0-0.863,0-1.37s0-0.964,0-1.37c0-0.457,0-0.812,0-1.167s0-0.558,0-0.66l4.567-2.283v-3.755l5.328-2.689l5.328,2.689v0.507
			c0,0.254,0,0.558,0,0.913c0,0.355,0,0.761,0,1.218c0,0.457,0,0.863,0,1.319s0,0.863,0,1.319v1.167c0,0.355,0,0.609,0,0.812
			c0,0.101,0,0.254,0,0.355c0.101,0.406,0.203,0.812,0.304,1.218c0.101,0.355,0.254,0.71,0.355,1.066
			c0.152,0.355,0.254,0.71,0.406,1.066c0.152,0.355,0.304,0.761,0.457,1.218l3.044,9.133L70.442,129.408z M88.201,118.955
			l-4.059,2.03v2.689l-5.328,2.689l-4.922-2.436l-1.319,4.008h8.372l8.778-4.364L88.201,118.955z M75.008,122.71l3.044,1.522v-6.951
			l-3.044-1.522V122.71z M78.814,113.171l-2.791,1.421l2.791,1.37l2.791-1.37L78.814,113.171z M79.575,109.67v2.182l3.044,1.522
			v-2.182L79.575,109.67z M79.575,124.232l3.044-1.522v-6.951l-3.044,1.522V124.232z M83.381,107.082l-2.791,1.421l2.791,1.37
			l2.791-1.37L83.381,107.082z M87.186,109.67l-3.044,1.522v8.118l3.044-1.522V109.67z M91.144,127.886l-0.964-2.943l-5.886,2.943
			H91.144z"/>
	</g>
	<g>
		<rect x="46.156" y="167.832" fill="#FFFFFF" width="162.8" height="52.576"/>
		<rect x="46.156" y="167.832" opacity="0.25" fill="#FFE452" width="162.8" height="52.576"/>
		<rect x="46.156" y="167.832" fill="none" stroke="#767676" stroke-width="0.25" width="162.8" height="52.576"/>
	</g>
	<g>
		<g opacity="0.8">
			<rect x="263" y="54.207" fill="#767676" width="215.6" height="194.407"/>
			<rect x="263" y="54.207" opacity="0.5" fill="#767676" width="215.6" height="194.407"/>
		</g>
		<g>
			<rect x="262" y="53.207" fill="#FFFFFF" width="215.6" height="194.407"/>
			<rect x="262" y="53.207" opacity="0.5" fill="#3AA0F3" width="215.6" height="194.407"/>
		</g>
	</g>
	<rect x="275.2" y="97.207" fill="#FFFFFF" width="189.2" height="136.4"/>
	<g>
		<path fill="#505150" d="M312.442,129.408l2.03-6.089c0.101-0.304,0.203-0.558,0.304-0.812c0.101-0.254,0.203-0.457,0.254-0.71
			c0.101-0.254,0.152-0.457,0.254-0.71c0.102-0.254,0.152-0.507,0.203-0.812c0-0.051,0-0.203,0-0.507c0-0.304,0-0.66,0-1.066
			s0-0.863,0-1.37s0-0.964,0-1.37c0-0.457,0-0.812,0-1.167s0-0.558,0-0.66l4.567-2.283v-3.755l5.328-2.689l5.328,2.689v0.507
			c0,0.254,0,0.558,0,0.913c0,0.355,0,0.761,0,1.218c0,0.457,0,0.863,0,1.319s0,0.863,0,1.319v1.167c0,0.355,0,0.609,0,0.812
			c0,0.101,0,0.254,0,0.355c0.101,0.406,0.203,0.812,0.304,1.218c0.101,0.355,0.254,0.71,0.355,1.066
			c0.152,0.355,0.254,0.71,0.406,1.066s0.304,0.761,0.457,1.218l3.044,9.133L312.442,129.408z M330.201,118.955l-4.059,2.03v2.689
			l-5.328,2.689l-4.922-2.436l-1.319,4.008h8.372l8.778-4.364L330.201,118.955z M317.008,122.71l3.044,1.522v-6.951l-3.044-1.522
			V122.71z M320.814,113.171l-2.791,1.421l2.791,1.37l2.791-1.37L320.814,113.171z M321.575,109.67v2.182l3.044,1.522v-2.182
			L321.575,109.67z M321.575,124.232l3.044-1.522v-6.951l-3.044,1.522V124.232z M325.381,107.082l-2.791,1.421l2.791,1.37
			l2.791-1.37L325.381,107.082z M329.186,109.67l-3.044,1.522v8.118l3.044-1.522V109.67z M333.144,127.886l-0.964-2.943
			l-5.886,2.943H333.144z"/>
	</g>
	<g>
		<rect x="288.4" y="167.607" fill="#FFFFFF" width="162.8" height="52.8"/>
		<rect x="288.4" y="167.607" opacity="0.25" fill="#FFE452" width="162.8" height="52.8"/>
		<rect x="288.4" y="167.607" fill="none" stroke="#767676" stroke-width="0.25" width="162.8" height="52.8"/>
	</g>
	<g>
		<g>
			<line fill="none" stroke="#3C3C41" stroke-miterlimit="10" x1="214.582" y1="194.123" x2="282.998" y2="194.123"/>
			<g>
				<polygon fill="#3C3C41" points="215.676,197.863 209.2,194.123 215.676,190.383 				"/>
			</g>
			<g>
				<polygon fill="#3C3C41" points="281.904,197.863 288.381,194.123 281.904,190.383 				"/>
			</g>
		</g>
	</g>
	<rect x="226.114" y="172.007" fill="#FFBD02" width="40.933" height="21.183"/>
	<g>
		<g opacity="0.8">
			<rect x="505" y="54.207" fill="#767676" width="214.695" height="194.407"/>
			<rect x="505" y="54.207" opacity="0.5" fill="#767676" width="214.695" height="194.407"/>
		</g>
		<g>
			<rect x="504" y="53.207" fill="#FFFFFF" width="214.695" height="194.407"/>
			<rect x="504" y="53.207" opacity="0.5" fill="#3AA0F3" width="214.695" height="194.407"/>
		</g>
	</g>
	<rect x="517.002" y="97.207" fill="#FFFFFF" width="189.398" height="136.4"/>
	<g>
		<path fill="#505150" d="M556.8,129.408l2.03-6.089c0.102-0.304,0.203-0.558,0.304-0.812s0.203-0.457,0.254-0.71
			c0.101-0.254,0.152-0.457,0.254-0.71c0.102-0.254,0.152-0.507,0.203-0.812c0-0.051,0-0.203,0-0.507c0-0.304,0-0.66,0-1.066
			s0-0.863,0-1.37s0-0.964,0-1.37c0-0.457,0-0.812,0-1.167s0-0.558,0-0.66l4.567-2.283v-3.755l5.328-2.689l5.328,2.689v0.507
			c0,0.254,0,0.558,0,0.913c0,0.355,0,0.761,0,1.218c0,0.457,0,0.863,0,1.319s0,0.863,0,1.319v1.167c0,0.355,0,0.609,0,0.812
			c0,0.101,0,0.254,0,0.355c0.101,0.406,0.203,0.812,0.304,1.218c0.101,0.355,0.254,0.71,0.355,1.066
			c0.152,0.355,0.254,0.71,0.406,1.066s0.304,0.761,0.457,1.218l3.044,9.133L556.8,129.408z M574.559,118.955l-4.059,2.03v2.689
			l-5.328,2.689l-4.922-2.436l-1.319,4.008h8.372l8.778-4.364L574.559,118.955z M561.367,122.71l3.044,1.522v-6.951l-3.044-1.522
			V122.71z M565.172,113.171l-2.791,1.421l2.791,1.37l2.791-1.37L565.172,113.171z M565.933,109.67v2.182l3.044,1.522v-2.182
			L565.933,109.67z M565.933,124.232l3.044-1.522v-6.951l-3.044,1.522V124.232z M569.739,107.082l-2.791,1.421l2.791,1.37
			l2.791-1.37L569.739,107.082z M573.544,109.67l-3.044,1.522v8.118l3.044-1.522V109.67z M577.502,127.886l-0.964-2.943
			l-5.886,2.943H577.502z"/>
	</g>
	<g>
		<rect x="530.4" y="167.607" fill="#FFFFFF" width="162.8" height="52.8"/>
		<rect x="530.4" y="167.607" opacity="0.25" fill="#FFE452" width="162.8" height="52.8"/>
		<rect x="530.4" y="167.607" fill="none" stroke="#767676" stroke-width="0.25" width="162.8" height="52.8"/>
	</g>
	<g>
		<g>
			<line fill="none" stroke="#3C3C41" stroke-miterlimit="10" x1="456.582" y1="194.123" x2="525.018" y2="194.123"/>
			<g>
				<polygon fill="#3C3C41" points="457.676,197.863 451.2,194.123 457.676,190.383 				"/>
			</g>
			<g>
				<polygon fill="#3C3C41" points="523.924,197.863 530.4,194.123 523.924,190.383 				"/>
			</g>
		</g>
	</g>
	<rect x="469.019" y="172.007" fill="#FFBD02" width="40.933" height="21.183"/>
	<g>
		
			<linearGradient id="SVGID_00000112607283565018060730000011031123506735983754_" gradientUnits="userSpaceOnUse" x1="544.0796" y1="-574.8072" x2="544.0796" y2="-558.6331" gradientTransform="matrix(1 0 0 -1 0 -402.8)">
			<stop  offset="0" style="stop-color:#B3B4B4"/>
			<stop  offset="0.26" style="stop-color:#C2C1C0"/>
			<stop  offset="1" style="stop-color:#E6E6E6"/>
		</linearGradient>
		<path fill="url(#SVGID_00000112607283565018060730000011031123506735983754_)" d="M530.4,155.833h27.359l0,0v15.257
			c0,0.507-0.411,0.917-0.917,0.917h-25.525c-0.507,0-0.917-0.411-0.917-0.917V155.833z"/>
		<path fill="#40BEAF" d="M531.317,150.007h25.525c0.507,0,0.917,0.411,0.917,0.917v4.909l0,0H530.4l0,0v-4.925
			C530.409,150.408,530.817,150.007,531.317,150.007z"/>
		<path fill="#FFFFFF" d="M534.118,157.603h19.908c0.234,0.009,0.419,0.201,0.418,0.435v2.253c0,0.234-0.185,0.426-0.418,0.435
			h-19.908c-0.234-0.009-0.419-0.201-0.418-0.435v-2.253C533.699,157.804,533.884,157.612,534.118,157.603z"/>
		<path fill="#40BEAF" d="M534.134,162.094h19.908c0.234,0.009,0.419,0.201,0.418,0.435v2.269c0,0.234-0.185,0.426-0.418,0.435
			h-19.908c-0.234-0.009-0.419-0.201-0.418-0.435v-2.189c-0.044-0.236,0.111-0.463,0.346-0.508
			C534.086,162.096,534.11,162.094,534.134,162.094z"/>
		<path fill="#258378" d="M534.134,166.632h19.908c0.234,0.009,0.419,0.201,0.418,0.435v2.269c0,0.234-0.185,0.426-0.418,0.435
			h-19.908c-0.234-0.009-0.419-0.201-0.418-0.435v-2.269C533.715,166.833,533.9,166.641,534.134,166.632z"/>
	</g>
	<g>
		
			<linearGradient id="SVGID_00000090997225524275113950000002231503563672546489_" gradientUnits="userSpaceOnUse" x1="302.0796" y1="-574.8072" x2="302.0796" y2="-558.6331" gradientTransform="matrix(1 0 0 -1 0 -402.8)">
			<stop  offset="0" style="stop-color:#B3B4B4"/>
			<stop  offset="0.26" style="stop-color:#C2C1C0"/>
			<stop  offset="1" style="stop-color:#E6E6E6"/>
		</linearGradient>
		<path fill="url(#SVGID_00000090997225524275113950000002231503563672546489_)" d="M288.4,155.833h27.359l0,0v15.257
			c0,0.507-0.411,0.917-0.917,0.917h-25.525c-0.507,0-0.917-0.411-0.917-0.917V155.833z"/>
		<path fill="#40BEAF" d="M289.317,150.007h25.525c0.507,0,0.917,0.411,0.917,0.917v4.909l0,0H288.4l0,0v-4.925
			C288.409,150.408,288.817,150.007,289.317,150.007z"/>
		<path fill="#FFFFFF" d="M292.118,157.603h19.908c0.234,0.009,0.419,0.201,0.418,0.435v2.253c0,0.234-0.185,0.426-0.418,0.435
			h-19.908c-0.234-0.009-0.419-0.201-0.418-0.435v-2.253C291.699,157.804,291.884,157.612,292.118,157.603z"/>
		<path fill="#40BEAF" d="M292.134,162.094h19.908c0.234,0.009,0.419,0.201,0.418,0.435v2.269c0,0.234-0.185,0.426-0.418,0.435
			h-19.908c-0.234-0.009-0.419-0.201-0.418-0.435v-2.189c-0.044-0.236,0.111-0.463,0.346-0.508
			C292.085,162.096,292.11,162.094,292.134,162.094z"/>
		<path fill="#258378" d="M292.134,166.632h19.908c0.234,0.009,0.419,0.201,0.418,0.435v2.269c0,0.234-0.185,0.426-0.418,0.435
			h-19.908c-0.234-0.009-0.419-0.201-0.418-0.435v-2.269C291.715,166.833,291.9,166.641,292.134,166.632z"/>
	</g>
	<g>
		
			<linearGradient id="SVGID_00000157992174223478993610000014950219204996854660_" gradientUnits="userSpaceOnUse" x1="59.836" y1="-574.8072" x2="59.836" y2="-558.6331" gradientTransform="matrix(1 0 0 -1 0 -402.8)">
			<stop  offset="0" style="stop-color:#B3B4B4"/>
			<stop  offset="0.26" style="stop-color:#C2C1C0"/>
			<stop  offset="1" style="stop-color:#E6E6E6"/>
		</linearGradient>
		<path fill="url(#SVGID_00000157992174223478993610000014950219204996854660_)" d="M46.156,155.833h27.359l0,0v15.257
			c0,0.507-0.411,0.917-0.917,0.917H47.074c-0.507,0-0.917-0.411-0.917-0.917V155.833z"/>
		<path fill="#40BEAF" d="M47.074,150.007h25.525c0.507,0,0.917,0.411,0.917,0.917v4.909l0,0H46.156l0,0v-4.925
			C46.165,150.408,46.573,150.007,47.074,150.007z"/>
		<path fill="#FFFFFF" d="M49.874,157.603h19.908c0.234,0.009,0.419,0.201,0.418,0.435v2.253c0,0.234-0.185,0.426-0.418,0.435
			H49.874c-0.234-0.009-0.419-0.201-0.418-0.435v-2.253C49.455,157.804,49.64,157.612,49.874,157.603z"/>
		<path fill="#40BEAF" d="M49.89,162.094h19.908c0.234,0.009,0.419,0.201,0.418,0.435v2.269c0,0.234-0.185,0.426-0.418,0.435H49.89
			c-0.234-0.009-0.419-0.201-0.418-0.435v-2.189c-0.044-0.236,0.111-0.463,0.346-0.508C49.842,162.096,49.866,162.094,49.89,162.094
			z"/>
		<path fill="#258378" d="M49.89,166.632h19.908c0.234,0.009,0.419,0.201,0.418,0.435v2.269c0,0.234-0.185,0.426-0.418,0.435H49.89
			c-0.234-0.009-0.419-0.201-0.418-0.435v-2.269C49.472,166.833,49.656,166.641,49.89,166.632z"/>
	</g>
	<g id="bdd66f0d-1091-4867-9f64-cdf433204a8a_00000155843394671274477560000002617547333559300012_">
		<g>
			<g>
				
					<linearGradient id="SVGID_00000001659605986943864030000017664136813228454059_" gradientUnits="userSpaceOnUse" x1="-16.7543" y1="-367.4849" x2="1.2471" y2="-367.4849" gradientTransform="matrix(1 0.0026 0.0026 -1 565.7153 -170.9602)">
					<stop  offset="0" style="stop-color:#005BA1"/>
					<stop  offset="0.068" style="stop-color:#0060A9"/>
					<stop  offset="0.356" style="stop-color:#0071C8"/>
					<stop  offset="0.517" style="stop-color:#0078D4"/>
					<stop  offset="0.642" style="stop-color:#0074CD"/>
					<stop  offset="0.82" style="stop-color:#006ABB"/>
					<stop  offset="1" style="stop-color:#005BA1"/>
				</linearGradient>
				<path fill="url(#SVGID_00000001659605986943864030000017664136813228454059_)" d="M557.037,189.424
					c-4.971-0.013-8.996-1.491-8.992-3.302L548,203.565c0,1.796,3.953,3.264,8.869,3.301h0.123c4.971,0.013,9.005-1.444,9.009-3.256
					l0.045-17.443C566.042,187.98,562.008,189.437,557.037,189.424z"/>
				<path fill="#E6E6E6" d="M566.046,186.168c0,1.81-4.038,3.268-9.009,3.256s-8.996-1.491-8.992-3.302
					c0.004-1.811,4.036-3.268,9.009-3.256C562.027,182.879,566.05,184.357,566.046,186.168"/>
				<path fill="#50E6FF" d="M563.941,185.897c0,1.152-3.095,2.077-6.904,2.067s-6.894-0.95-6.891-2.102
					c0.003-1.152,3.095-2.077,6.905-2.067s6.897,0.95,6.894,2.102"/>
				<path fill="#198AB3" d="M557.044,186.36c-1.853-0.048-3.701,0.214-5.467,0.777c1.76,0.59,3.608,0.87,5.464,0.827
					c1.855,0.052,3.705-0.218,5.467-0.799C560.745,186.593,558.898,186.321,557.044,186.36z"/>
			</g>
		</g>
	</g>
	<g id="bdd66f0d-1091-4867-9f64-cdf433204a8a_00000181084335597851908410000002150457930786585751_">
		<g>
			<g>
				
					<linearGradient id="SVGID_00000005227529292476978190000010399268528836800956_" gradientUnits="userSpaceOnUse" x1="-258.7527" y1="-368.1058" x2="-240.7513" y2="-368.1058" gradientTransform="matrix(1 0.0026 0.0026 -1 565.7153 -170.9602)">
					<stop  offset="0" style="stop-color:#005BA1"/>
					<stop  offset="0.068" style="stop-color:#0060A9"/>
					<stop  offset="0.356" style="stop-color:#0071C8"/>
					<stop  offset="0.517" style="stop-color:#0078D4"/>
					<stop  offset="0.642" style="stop-color:#0074CD"/>
					<stop  offset="0.82" style="stop-color:#006ABB"/>
					<stop  offset="1" style="stop-color:#005BA1"/>
				</linearGradient>
				<path fill="url(#SVGID_00000005227529292476978190000010399268528836800956_)" d="M315.037,189.424
					c-4.971-0.013-8.996-1.491-8.992-3.302L306,203.565c0,1.796,3.953,3.264,8.869,3.301h0.123c4.971,0.013,9.005-1.444,9.009-3.256
					l0.045-17.443C324.042,187.98,320.008,189.437,315.037,189.424z"/>
				<path fill="#E6E6E6" d="M324.046,186.168c0,1.81-4.038,3.268-9.009,3.256c-4.971-0.013-8.996-1.491-8.992-3.302
					c0.004-1.811,4.036-3.268,9.009-3.256C320.027,182.879,324.05,184.357,324.046,186.168"/>
				<path fill="#50E6FF" d="M321.941,185.897c0,1.152-3.095,2.077-6.904,2.067s-6.894-0.95-6.891-2.102
					c0.003-1.152,3.095-2.077,6.905-2.067s6.897,0.95,6.894,2.102"/>
				<path fill="#198AB3" d="M315.044,186.36c-1.853-0.048-3.701,0.214-5.467,0.777c1.76,0.59,3.608,0.87,5.464,0.827
					c1.855,0.052,3.704-0.218,5.467-0.799C318.745,186.593,316.898,186.321,315.044,186.36z"/>
			</g>
		</g>
	</g>
	<g id="bdd66f0d-1091-4867-9f64-cdf433204a8a_00000111911159358395035880000003128170394692411837_">
		<g>
			<g>
				
					<linearGradient id="SVGID_00000183928208466207502730000000881858944977685921_" gradientUnits="userSpaceOnUse" x1="-500.7511" y1="-368.7267" x2="-482.7497" y2="-368.7267" gradientTransform="matrix(1 0.0026 0.0026 -1 565.7153 -170.9602)">
					<stop  offset="0" style="stop-color:#005BA1"/>
					<stop  offset="0.068" style="stop-color:#0060A9"/>
					<stop  offset="0.356" style="stop-color:#0071C8"/>
					<stop  offset="0.517" style="stop-color:#0078D4"/>
					<stop  offset="0.642" style="stop-color:#0074CD"/>
					<stop  offset="0.82" style="stop-color:#006ABB"/>
					<stop  offset="1" style="stop-color:#005BA1"/>
				</linearGradient>
				<path fill="url(#SVGID_00000183928208466207502730000000881858944977685921_)" d="M73.037,189.424
					c-4.971-0.013-8.996-1.491-8.992-3.302L64,203.565c0,1.796,3.953,3.264,8.869,3.301h0.123c4.971,0.013,9.005-1.444,9.009-3.256
					l0.045-17.443C82.042,187.98,78.008,189.437,73.037,189.424z"/>
				<path fill="#E6E6E6" d="M82.046,186.168c0,1.81-4.038,3.268-9.009,3.256c-4.971-0.013-8.996-1.491-8.992-3.302
					s4.036-3.268,9.009-3.256C78.027,182.879,82.05,184.357,82.046,186.168"/>
				<path fill="#50E6FF" d="M79.941,185.897c0,1.152-3.095,2.077-6.904,2.067c-3.809-0.01-6.894-0.95-6.891-2.102
					c0.003-1.152,3.095-2.077,6.905-2.067c3.811,0.01,6.897,0.95,6.894,2.102"/>
				<path fill="#198AB3" d="M73.044,186.36c-1.853-0.048-3.701,0.214-5.467,0.777c1.76,0.59,3.608,0.87,5.464,0.827
					c1.855,0.052,3.704-0.218,5.467-0.799C76.745,186.593,74.898,186.321,73.044,186.36z"/>
			</g>
		</g>
	</g>
	<g id="Wrench_tool_x28_s_x29_">
	</g>
	<g id="user2">
	</g>
	<g id="user2_1_">
	</g>
	<g id="user2_4_">
	</g>
	<g id="user2_3_">
	</g>
	<g id="user2_2_">
	</g>
	<g id="Internet_2">
	</g>
	<g id="Enterprise">
	</g>
	<g id="Tunnel__x28_stackable_x29_">
	</g>
	<g id="New_Symbol">
	</g>
	<g id="New_Symbol_1">
	</g>
	<g id="Files">
	</g>
	<g id="BlobBlock">
	</g>
	<g id="E_x5F_Enterprise">
	</g>
	<g id="E_x5F_AD_FS">
	</g>
	<g id="C_x5F_Azure_Active_Directory">
	</g>
	<g>
		
			<linearGradient id="SVGID_00000070115812413318362110000000679283041537486250_" gradientUnits="userSpaceOnUse" x1="15.6236" y1="-412.8006" x2="15.6236" y2="-442.8006" gradientTransform="matrix(1 0 0 -1 0 -402.8)">
			<stop  offset="0" style="stop-color:#699CD3"/>
			<stop  offset="0.18" style="stop-color:#6198D1"/>
			<stop  offset="0.47" style="stop-color:#4C8DCB"/>
			<stop  offset="0.84" style="stop-color:#347DC0"/>
			<stop  offset="1" style="stop-color:#2E76BC"/>
		</linearGradient>
		<path fill="url(#SVGID_00000070115812413318362110000000679283041537486250_)" d="M24.447,11.007v27.988
			c0.01,0.546-0.425,0.996-0.97,1.006c-0.006,0-0.012,0-0.018,0H7.806C7.26,40.01,6.81,39.576,6.8,39.03c0-0.012,0-0.024,0-0.036
			V11.007c-0.01-0.546,0.425-0.996,0.97-1.006c0.012,0,0.024,0,0.036,0h15.635c0.546-0.01,0.996,0.425,1.006,0.97
			C24.447,10.983,24.447,10.995,24.447,11.007z"/>
		<path id="a1bc77ea-5288-41a0-8f9a-2d282cf54a86_00000076597403200027293290000009278412700947053712_" fill="#F2F2F3" d="
			M9.147,13.124h2.947c0.136,0,0.247,0.111,0.247,0.247v3.706c0,0.136-0.111,0.247-0.247,0.247H9.147
			c-0.14,0-0.255-0.108-0.265-0.247v-3.706C8.892,13.232,9.008,13.124,9.147,13.124z M14.194,13.124h2.859
			c0.136,0,0.247,0.111,0.247,0.247v0v3.706c0,0.136-0.111,0.247-0.247,0.247l0,0h-2.859c-0.136,0-0.247-0.111-0.247-0.247l0,0
			v-3.706C13.947,13.235,14.058,13.124,14.194,13.124L14.194,13.124z M19.241,13.124H22.1c0.14,0,0.255,0.108,0.265,0.247v3.706
			c-0.009,0.139-0.125,0.247-0.265,0.247h-2.859c-0.136,0-0.247-0.111-0.247-0.247l0,0v-3.706
			C18.994,13.235,19.105,13.124,19.241,13.124L19.241,13.124z M9.147,19.848h2.947c0.136,0,0.247,0.111,0.247,0.247v3.706
			c0,0.14-0.108,0.255-0.247,0.265H9.147c-0.146,0-0.265-0.119-0.265-0.265v-3.706C8.892,19.956,9.008,19.847,9.147,19.848z
			 M14.194,19.848h2.859c0.136,0,0.247,0.111,0.247,0.247l0,0v3.706c0,0.14-0.108,0.255-0.247,0.265h-2.859
			c-0.139-0.009-0.247-0.125-0.247-0.265v-3.706C13.947,19.958,14.058,19.848,14.194,19.848L14.194,19.848z M19.241,19.848H22.1
			c0.14,0,0.255,0.108,0.265,0.247v3.706c0,0.146-0.119,0.265-0.265,0.265h-2.859c-0.139-0.009-0.247-0.125-0.247-0.265v-3.706
			C18.994,19.958,19.105,19.848,19.241,19.848L19.241,19.848z M9.147,26.589h2.947c0.136,0,0.247,0.111,0.247,0.247l0,0v3.706
			c0,0.136-0.111,0.247-0.247,0.247l0,0H9.147c-0.14,0-0.255-0.108-0.265-0.247v-3.776C8.922,26.654,9.03,26.582,9.147,26.589z
			 M14.194,26.589h2.859c0.126-0.052,0.271,0.009,0.322,0.135c0.006,0.013,0.01,0.027,0.013,0.042v3.706
			c0,0.136-0.111,0.247-0.247,0.247h0h-2.947c-0.136,0-0.247-0.111-0.247-0.247l0,0v-3.706
			C13.979,26.657,14.081,26.584,14.194,26.589z M14.194,33.312h2.859c0.136,0,0.247,0.111,0.247,0.247v0v5.559
			c0,0.136-0.111,0.247-0.247,0.247h-2.859c-0.136,0-0.247-0.111-0.247-0.247v-5.559C13.947,33.423,14.058,33.312,14.194,33.312z
			 M19.241,26.589H22.1c0.14,0,0.255,0.108,0.265,0.247v3.706c-0.009,0.139-0.125,0.247-0.265,0.247h-2.859
			c-0.136,0-0.247-0.111-0.247-0.247v0v-3.776C19.026,26.657,19.128,26.584,19.241,26.589z"/>
	</g>
</g>
<g id="Text">
	<g>
		<path fill="#2F2F2F" d="M77.706,79.607H75.3l-0.697-2.181h-3.486l-0.69,2.181h-2.393l3.568-9.803h2.618L77.706,79.607z
			 M74.097,75.731l-1.053-3.295c-0.078-0.246-0.132-0.54-0.164-0.882h-0.055c-0.023,0.287-0.08,0.572-0.171,0.854l-1.066,3.322
			H74.097z"/>
		<path fill="#2F2F2F" d="M85.075,72.607l-2.604,7H80.01l-2.481-7h2.311l1.217,4.313c0.137,0.488,0.216,0.902,0.239,1.244h0.027
			c0.032-0.323,0.116-0.725,0.253-1.203l1.244-4.354H85.075z"/>
		<path fill="#2F2F2F" d="M91.61,79.607h-2.044v-1.005h-0.027c-0.469,0.784-1.165,1.176-2.085,1.176
			c-0.679,0-1.213-0.192-1.603-0.577c-0.39-0.386-0.584-0.899-0.584-1.542c0-1.357,0.804-2.142,2.413-2.352l1.9-0.253
			c0-0.766-0.415-1.148-1.244-1.148c-0.834,0-1.627,0.249-2.379,0.745v-1.627c0.301-0.154,0.712-0.291,1.234-0.41
			c0.522-0.118,0.997-0.178,1.425-0.178c1.996,0,2.994,0.996,2.994,2.987V79.607z M89.58,76.763v-0.472l-1.271,0.164
			c-0.702,0.092-1.053,0.408-1.053,0.95c0,0.246,0.085,0.448,0.256,0.605s0.402,0.235,0.694,0.235c0.406,0,0.736-0.14,0.991-0.42
			S89.58,77.192,89.58,76.763z"/>
		<path fill="#2F2F2F" d="M94.413,71.499c-0.365,0-0.663-0.108-0.896-0.324c-0.232-0.217-0.349-0.482-0.349-0.797
			c0-0.323,0.116-0.588,0.349-0.793s0.531-0.308,0.896-0.308c0.369,0,0.669,0.103,0.899,0.308s0.345,0.47,0.345,0.793
			c0,0.328-0.115,0.598-0.345,0.807C95.082,71.395,94.782,71.499,94.413,71.499z M95.479,79.607h-2.16v-7h2.16V79.607z"/>
		<path fill="#2F2F2F" d="M99.458,79.607h-2.16V69.244h2.16V79.607z"/>
		<path fill="#2F2F2F" d="M107.101,79.607h-2.044v-1.005h-0.027c-0.469,0.784-1.165,1.176-2.085,1.176
			c-0.679,0-1.213-0.192-1.603-0.577c-0.39-0.386-0.584-0.899-0.584-1.542c0-1.357,0.804-2.142,2.413-2.352l1.9-0.253
			c0-0.766-0.415-1.148-1.244-1.148c-0.834,0-1.627,0.249-2.379,0.745v-1.627c0.301-0.154,0.712-0.291,1.234-0.41
			c0.522-0.118,0.997-0.178,1.425-0.178c1.996,0,2.994,0.996,2.994,2.987V79.607z M105.07,76.763v-0.472l-1.271,0.164
			c-0.702,0.092-1.053,0.408-1.053,0.95c0,0.246,0.085,0.448,0.256,0.605s0.402,0.235,0.694,0.235c0.406,0,0.736-0.14,0.991-0.42
			S105.07,77.192,105.07,76.763z"/>
		<path fill="#2F2F2F" d="M110.997,78.793h-0.027v0.813h-2.16V69.244h2.16v4.416h0.027c0.533-0.815,1.292-1.224,2.276-1.224
			c0.902,0,1.597,0.311,2.085,0.93c0.488,0.62,0.731,1.468,0.731,2.543c0,1.167-0.285,2.104-0.854,2.81
			c-0.57,0.707-1.331,1.06-2.283,1.06C112.091,79.778,111.439,79.45,110.997,78.793z M110.936,75.84v0.718
			c0,0.451,0.13,0.825,0.39,1.121c0.26,0.297,0.592,0.444,0.998,0.444c0.492,0,0.874-0.19,1.145-0.57
			c0.271-0.381,0.407-0.92,0.407-1.617c0-0.578-0.124-1.031-0.373-1.356c-0.249-0.326-0.603-0.489-1.063-0.489
			c-0.433,0-0.792,0.162-1.077,0.485C111.078,74.9,110.936,75.321,110.936,75.84z"/>
		<path fill="#2F2F2F" d="M118.585,71.499c-0.365,0-0.663-0.108-0.896-0.324c-0.232-0.217-0.349-0.482-0.349-0.797
			c0-0.323,0.116-0.588,0.349-0.793s0.531-0.308,0.896-0.308c0.369,0,0.669,0.103,0.899,0.308s0.345,0.47,0.345,0.793
			c0,0.328-0.115,0.598-0.345,0.807C119.254,71.395,118.954,71.499,118.585,71.499z M119.651,79.607h-2.16v-7h2.16V79.607z"/>
		<path fill="#2F2F2F" d="M123.63,79.607h-2.16V69.244h2.16V79.607z"/>
		<path fill="#2F2F2F" d="M126.542,71.499c-0.365,0-0.663-0.108-0.896-0.324c-0.232-0.217-0.349-0.482-0.349-0.797
			c0-0.323,0.116-0.588,0.349-0.793s0.531-0.308,0.896-0.308c0.369,0,0.669,0.103,0.899,0.308s0.345,0.47,0.345,0.793
			c0,0.328-0.115,0.598-0.345,0.807C127.211,71.395,126.911,71.499,126.542,71.499z M127.608,79.607h-2.16v-7h2.16V79.607z"/>
		<path fill="#2F2F2F" d="M133.658,79.525c-0.319,0.169-0.8,0.253-1.442,0.253c-1.522,0-2.283-0.79-2.283-2.372V74.2h-1.135v-1.593
			h1.135v-1.511l2.153-0.615v2.126h1.572V74.2h-1.572v2.83c0,0.729,0.29,1.094,0.868,1.094c0.228,0,0.462-0.065,0.704-0.198V79.525z
			"/>
		<path fill="#2F2F2F" d="M141.54,72.607l-2.844,7.561c-0.684,1.818-1.713,2.728-3.09,2.728c-0.524,0-0.955-0.059-1.292-0.178
			v-1.723c0.287,0.169,0.599,0.253,0.937,0.253c0.556,0,0.943-0.262,1.162-0.786l0.369-0.868l-2.844-6.986h2.393l1.306,4.259
			c0.082,0.265,0.146,0.577,0.191,0.937h0.027c0.041-0.264,0.116-0.571,0.226-0.923l1.319-4.272H141.54z"/>
		<path fill="#2F2F2F" d="M151.814,79.607h-6.282v-0.896l3.514-4.512h-3.165v-1.593h5.906v1.066l-3.329,4.341h3.356V79.607z"/>
		<path fill="#2F2F2F" d="M156.312,79.778c-1.167,0-2.084-0.327-2.751-0.98c-0.667-0.654-1.001-1.542-1.001-2.663
			c0-1.157,0.346-2.063,1.039-2.717c0.693-0.654,1.629-0.981,2.81-0.981c1.162,0,2.074,0.327,2.734,0.981
			c0.661,0.653,0.991,1.519,0.991,2.594c0,1.162-0.341,2.081-1.022,2.755C158.431,79.441,157.498,79.778,156.312,79.778z
			 M156.367,74.09c-0.51,0-0.907,0.176-1.189,0.526c-0.283,0.352-0.424,0.848-0.424,1.49c0,1.345,0.542,2.017,1.627,2.017
			c1.035,0,1.552-0.69,1.552-2.071C157.933,74.745,157.411,74.09,156.367,74.09z"/>
		<path fill="#2F2F2F" d="M168.296,79.607h-2.153v-3.89c0-1.084-0.387-1.627-1.162-1.627c-0.374,0-0.681,0.144-0.923,0.431
			s-0.362,0.652-0.362,1.094v3.992h-2.16v-7h2.16v1.107h0.027c0.515-0.852,1.265-1.278,2.249-1.278c1.549,0,2.324,0.962,2.324,2.885
			V79.607z"/>
		<path fill="#2F2F2F" d="M176.294,76.722h-4.566c0.073,1.017,0.713,1.524,1.921,1.524c0.77,0,1.447-0.182,2.03-0.547v1.559
			c-0.647,0.347-1.488,0.52-2.522,0.52c-1.13,0-2.007-0.313-2.632-0.939c-0.625-0.627-0.937-1.501-0.937-2.622
			c0-1.162,0.337-2.082,1.012-2.762c0.674-0.679,1.504-1.019,2.488-1.019c1.021,0,1.811,0.304,2.369,0.909
			c0.558,0.606,0.837,1.429,0.837,2.468V76.722z M174.291,75.396c0-1.002-0.406-1.504-1.217-1.504c-0.346,0-0.646,0.144-0.899,0.431
			s-0.407,0.646-0.461,1.073H174.291z"/>
		<path fill="#2F2F2F" d="M186.22,69.585v10.021h-2.153v-7.588c-0.119,0.105-0.259,0.204-0.42,0.298
			c-0.162,0.093-0.334,0.178-0.516,0.253s-0.372,0.139-0.567,0.191c-0.196,0.052-0.39,0.09-0.581,0.112v-1.818
			c0.561-0.164,1.089-0.373,1.586-0.629c0.497-0.255,0.946-0.535,1.347-0.841H186.22z"/>
	</g>
	<g>
		<path fill="#2F2F2F" d="M102.293,124.995v-9.803h3.473c3.482,0,5.223,1.593,5.223,4.778c0,1.527-0.475,2.746-1.425,3.657
			c-0.95,0.912-2.216,1.367-3.797,1.367H102.293z M104.501,116.99v6.214h1.094c0.957,0,1.708-0.287,2.252-0.861
			s0.817-1.355,0.817-2.345c0-0.934-0.27-1.669-0.81-2.204c-0.54-0.536-1.298-0.804-2.273-0.804H104.501z"/>
		<path fill="#2F2F2F" d="M118.228,124.995h-2.044v-1.005h-0.027c-0.469,0.784-1.165,1.176-2.085,1.176
			c-0.679,0-1.213-0.192-1.603-0.577c-0.39-0.386-0.584-0.899-0.584-1.542c0-1.357,0.804-2.142,2.413-2.352l1.9-0.253
			c0-0.766-0.415-1.148-1.244-1.148c-0.834,0-1.627,0.249-2.379,0.745v-1.627c0.301-0.154,0.712-0.291,1.234-0.41
			c0.522-0.118,0.997-0.178,1.425-0.178c1.996,0,2.994,0.996,2.994,2.987V124.995z M116.198,122.151v-0.472l-1.271,0.164
			c-0.702,0.092-1.053,0.408-1.053,0.95c0,0.246,0.085,0.448,0.256,0.605s0.402,0.235,0.694,0.235c0.406,0,0.736-0.14,0.991-0.42
			S116.198,122.579,116.198,122.151z"/>
		<path fill="#2F2F2F" d="M124.168,124.912c-0.319,0.169-0.8,0.253-1.442,0.253c-1.522,0-2.283-0.79-2.283-2.372v-3.206h-1.135
			v-1.593h1.135v-1.511l2.153-0.615v2.126h1.572v1.593h-1.572v2.83c0,0.729,0.29,1.094,0.868,1.094c0.228,0,0.462-0.065,0.704-0.198
			V124.912z"/>
		<path fill="#2F2F2F" d="M131.209,124.995h-2.044v-1.005h-0.027c-0.469,0.784-1.165,1.176-2.085,1.176
			c-0.679,0-1.213-0.192-1.603-0.577c-0.39-0.386-0.584-0.899-0.584-1.542c0-1.357,0.804-2.142,2.413-2.352l1.9-0.253
			c0-0.766-0.415-1.148-1.244-1.148c-0.834,0-1.627,0.249-2.379,0.745v-1.627c0.301-0.154,0.712-0.291,1.234-0.41
			c0.522-0.118,0.997-0.178,1.425-0.178c1.996,0,2.994,0.996,2.994,2.987V124.995z M129.179,122.151v-0.472l-1.271,0.164
			c-0.702,0.092-1.053,0.408-1.053,0.95c0,0.246,0.085,0.448,0.256,0.605s0.402,0.235,0.694,0.235c0.406,0,0.736-0.14,0.991-0.42
			S129.179,122.579,129.179,122.151z"/>
		<path fill="#2F2F2F" d="M138.223,124.742c-0.488,0.283-1.192,0.424-2.112,0.424c-1.076,0-1.946-0.325-2.611-0.978
			c-0.666-0.651-0.998-1.492-0.998-2.522c0-1.189,0.356-2.127,1.07-2.812c0.713-0.687,1.667-1.029,2.861-1.029
			c0.825,0,1.422,0.109,1.791,0.328v1.832c-0.451-0.337-0.955-0.506-1.511-0.506c-0.62,0-1.111,0.182-1.473,0.544
			s-0.543,0.862-0.543,1.5c0,0.62,0.173,1.106,0.52,1.46c0.346,0.353,0.823,0.529,1.429,0.529c0.538,0,1.064-0.168,1.579-0.506
			V124.742z"/>
		<path fill="#2F2F2F" d="M145.927,122.11h-4.566c0.073,1.017,0.713,1.524,1.921,1.524c0.77,0,1.447-0.182,2.03-0.547v1.559
			c-0.647,0.347-1.488,0.52-2.522,0.52c-1.13,0-2.007-0.313-2.632-0.939c-0.625-0.627-0.937-1.501-0.937-2.622
			c0-1.162,0.337-2.082,1.012-2.762c0.674-0.679,1.504-1.019,2.488-1.019c1.021,0,1.811,0.304,2.369,0.909
			c0.558,0.606,0.837,1.429,0.837,2.468V122.11z M143.924,120.784c0-1.002-0.406-1.504-1.217-1.504
			c-0.346,0-0.646,0.144-0.899,0.431s-0.407,0.646-0.461,1.073H143.924z"/>
		<path fill="#2F2F2F" d="M153.973,124.995h-2.153v-3.89c0-1.084-0.387-1.627-1.162-1.627c-0.374,0-0.681,0.144-0.923,0.431
			s-0.362,0.652-0.362,1.094v3.992h-2.16v-7h2.16v1.107h0.027c0.515-0.852,1.265-1.278,2.249-1.278c1.549,0,2.324,0.962,2.324,2.885
			V124.995z"/>
		<path fill="#2F2F2F" d="M159.914,124.912c-0.319,0.169-0.8,0.253-1.442,0.253c-1.522,0-2.283-0.79-2.283-2.372v-3.206h-1.135
			v-1.593h1.135v-1.511l2.153-0.615v2.126h1.572v1.593h-1.572v2.83c0,0.729,0.29,1.094,0.868,1.094c0.228,0,0.462-0.065,0.704-0.198
			V124.912z"/>
		<path fill="#2F2F2F" d="M167.365,122.11h-4.566c0.073,1.017,0.713,1.524,1.921,1.524c0.77,0,1.447-0.182,2.03-0.547v1.559
			c-0.647,0.347-1.488,0.52-2.522,0.52c-1.13,0-2.007-0.313-2.632-0.939c-0.625-0.627-0.937-1.501-0.937-2.622
			c0-1.162,0.337-2.082,1.012-2.762c0.674-0.679,1.504-1.019,2.488-1.019c1.021,0,1.811,0.304,2.369,0.909
			c0.558,0.606,0.837,1.429,0.837,2.468V122.11z M165.362,120.784c0-1.002-0.406-1.504-1.217-1.504
			c-0.346,0-0.646,0.144-0.899,0.431s-0.407,0.646-0.461,1.073H165.362z"/>
		<path fill="#2F2F2F" d="M173.216,119.943c-0.26-0.141-0.563-0.212-0.909-0.212c-0.469,0-0.836,0.172-1.101,0.517
			c-0.264,0.344-0.396,0.812-0.396,1.404v3.343h-2.16v-7h2.16v1.299h0.027c0.342-0.947,0.957-1.422,1.846-1.422
			c0.228,0,0.406,0.027,0.533,0.082V119.943z"/>
		<path fill="#2F2F2F" d="M180.107,123.204h4.156v1.791h-6.521v-0.738c0-0.501,0.084-0.951,0.253-1.35
			c0.168-0.399,0.38-0.757,0.636-1.073c0.255-0.317,0.534-0.598,0.837-0.841c0.303-0.244,0.591-0.464,0.865-0.66
			c0.287-0.205,0.539-0.4,0.755-0.588c0.216-0.187,0.399-0.372,0.547-0.557s0.259-0.372,0.332-0.561
			c0.073-0.189,0.109-0.391,0.109-0.605c0-0.419-0.119-0.735-0.355-0.95c-0.237-0.214-0.599-0.321-1.087-0.321
			c-0.843,0-1.65,0.335-2.42,1.005v-1.9c0.852-0.551,1.814-0.827,2.885-0.827c0.497,0,0.942,0.065,1.336,0.195
			s0.728,0.315,1.001,0.557c0.273,0.242,0.482,0.534,0.625,0.879c0.144,0.344,0.215,0.728,0.215,1.151
			c0,0.451-0.069,0.853-0.208,1.203c-0.139,0.352-0.324,0.67-0.554,0.957s-0.496,0.551-0.796,0.79s-0.613,0.471-0.937,0.693
			c-0.219,0.155-0.43,0.309-0.632,0.462c-0.203,0.152-0.382,0.303-0.537,0.451c-0.155,0.147-0.278,0.293-0.369,0.434
			C180.152,122.942,180.107,123.077,180.107,123.204z"/>
	</g>
	<g>
		<rect x="574.4" y="187.617" fill="none" width="97.677" height="19.082"/>
		<path fill="#2F2F2F" d="M575.521,199.518v-9.803h3.568c1.094,0,1.935,0.201,2.522,0.602c0.588,0.401,0.882,0.967,0.882,1.695
			c0,0.529-0.179,0.992-0.537,1.389s-0.814,0.672-1.371,0.826v0.027c0.697,0.087,1.254,0.345,1.671,0.773
			c0.417,0.428,0.625,0.949,0.625,1.564c0,0.898-0.321,1.61-0.964,2.137s-1.52,0.789-2.632,0.789H575.521z M577.729,191.342v2.324
			h0.971c0.456,0,0.814-0.109,1.077-0.331s0.393-0.525,0.393-0.913c0-0.72-0.538-1.08-1.613-1.08H577.729z M577.729,195.307v2.584
			h1.196c0.51,0,0.91-0.118,1.2-0.355c0.29-0.236,0.434-0.561,0.434-0.971c0-0.392-0.143-0.699-0.427-0.922
			c-0.285-0.224-0.683-0.336-1.193-0.336H577.729z"/>
		<path fill="#2F2F2F" d="M590.109,199.518h-2.044v-1.004h-0.027c-0.469,0.783-1.165,1.176-2.085,1.176
			c-0.679,0-1.213-0.193-1.603-0.578s-0.584-0.898-0.584-1.541c0-1.358,0.804-2.143,2.413-2.352l1.9-0.254
			c0-0.766-0.415-1.148-1.244-1.148c-0.834,0-1.627,0.249-2.379,0.746v-1.627c0.301-0.155,0.712-0.292,1.234-0.41
			c0.522-0.119,0.997-0.178,1.425-0.178c1.996,0,2.994,0.995,2.994,2.986V199.518z M588.079,196.674v-0.471l-1.271,0.164
			c-0.702,0.091-1.053,0.407-1.053,0.949c0,0.246,0.085,0.448,0.256,0.605s0.402,0.236,0.694,0.236c0.406,0,0.736-0.141,0.991-0.421
			S588.079,197.103,588.079,196.674z"/>
		<path fill="#2F2F2F" d="M597.123,199.266c-0.488,0.282-1.192,0.424-2.112,0.424c-1.076,0-1.946-0.326-2.611-0.979
			c-0.666-0.651-0.998-1.492-0.998-2.521c0-1.189,0.356-2.127,1.07-2.813s1.667-1.028,2.861-1.028c0.825,0,1.422,0.109,1.791,0.328
			v1.832c-0.451-0.338-0.955-0.506-1.511-0.506c-0.62,0-1.111,0.181-1.473,0.543s-0.543,0.862-0.543,1.5
			c0,0.62,0.173,1.107,0.52,1.46s0.823,0.53,1.429,0.53c0.538,0,1.064-0.169,1.579-0.506V199.266z"/>
		<path fill="#2F2F2F" d="M605.551,199.518h-2.591l-2.235-3.473h-0.027v3.473h-2.16v-10.363h2.16v6.598h0.027l2.085-3.234h2.563
			l-2.509,3.289L605.551,199.518z"/>
		<path fill="#2F2F2F" d="M613.016,199.518h-2.153v-1.066h-0.034c-0.533,0.825-1.247,1.238-2.14,1.238
			c-1.623,0-2.434-0.982-2.434-2.947v-4.225h2.153v4.033c0,0.989,0.392,1.484,1.176,1.484c0.387,0,0.697-0.137,0.93-0.407
			s0.349-0.64,0.349-1.104v-4.006h2.153V199.518z"/>
		<path fill="#2F2F2F" d="M617.022,198.705h-0.027v4.033h-2.16v-10.221h2.16v1.053h0.027c0.533-0.815,1.283-1.223,2.249-1.223
			c0.907,0,1.607,0.311,2.102,0.933s0.742,1.469,0.742,2.54c0,1.166-0.288,2.103-0.865,2.809c-0.577,0.707-1.343,1.061-2.3,1.061
			C618.106,199.69,617.464,199.362,617.022,198.705z M616.96,195.834v0.561c0,0.482,0.127,0.877,0.383,1.182
			c0.255,0.306,0.59,0.459,1.005,0.459c0.492,0,0.874-0.191,1.145-0.571s0.407-0.919,0.407-1.616c0-1.23-0.479-1.846-1.436-1.846
			c-0.442,0-0.803,0.167-1.083,0.502S616.96,195.283,616.96,195.834z"/>
		<path fill="#2F2F2F" d="M632.683,199.266c-0.488,0.282-1.192,0.424-2.112,0.424c-1.076,0-1.946-0.326-2.611-0.979
			c-0.666-0.651-0.998-1.492-0.998-2.521c0-1.189,0.356-2.127,1.07-2.813s1.667-1.028,2.861-1.028c0.825,0,1.422,0.109,1.791,0.328
			v1.832c-0.451-0.338-0.955-0.506-1.511-0.506c-0.62,0-1.111,0.181-1.473,0.543s-0.543,0.862-0.543,1.5
			c0,0.62,0.173,1.107,0.52,1.46s0.823,0.53,1.429,0.53c0.538,0,1.064-0.169,1.579-0.506V199.266z"/>
		<path fill="#2F2F2F" d="M637.434,199.69c-1.167,0-2.084-0.328-2.751-0.981s-1.001-1.542-1.001-2.663
			c0-1.157,0.346-2.062,1.039-2.717s1.629-0.98,2.81-0.98c1.162,0,2.074,0.326,2.734,0.98s0.991,1.519,0.991,2.594
			c0,1.162-0.341,2.081-1.022,2.756C639.552,199.352,638.619,199.69,637.434,199.69z M637.489,194.002
			c-0.51,0-0.907,0.175-1.189,0.525c-0.283,0.352-0.424,0.848-0.424,1.49c0,1.345,0.542,2.018,1.627,2.018
			c1.035,0,1.552-0.691,1.552-2.072C639.054,194.656,638.532,194.002,637.489,194.002z"/>
		<path fill="#2F2F2F" d="M644.844,198.705h-0.027v4.033h-2.16v-10.221h2.16v1.053h0.027c0.533-0.815,1.283-1.223,2.249-1.223
			c0.907,0,1.607,0.311,2.102,0.933s0.742,1.469,0.742,2.54c0,1.166-0.288,2.103-0.865,2.809c-0.577,0.707-1.343,1.061-2.3,1.061
			C645.929,199.69,645.286,199.362,644.844,198.705z M644.783,195.834v0.561c0,0.482,0.127,0.877,0.383,1.182
			c0.255,0.306,0.59,0.459,1.005,0.459c0.492,0,0.874-0.191,1.145-0.571s0.407-0.919,0.407-1.616c0-1.23-0.479-1.846-1.436-1.846
			c-0.442,0-0.803,0.167-1.083,0.502S644.783,195.283,644.783,195.834z"/>
		<path fill="#2F2F2F" d="M658.003,192.518l-2.844,7.561c-0.684,1.818-1.713,2.729-3.09,2.729c-0.524,0-0.955-0.06-1.292-0.178
			v-1.723c0.287,0.168,0.599,0.252,0.937,0.252c0.556,0,0.943-0.262,1.162-0.785l0.369-0.869l-2.844-6.986h2.393l1.306,4.26
			c0.082,0.264,0.146,0.576,0.191,0.936h0.027c0.041-0.264,0.116-0.571,0.226-0.922l1.319-4.273H658.003z"/>
		<path fill="#2F2F2F" d="M662.625,199.198v-1.881c0.656,0.479,1.422,0.719,2.297,0.719c0.551,0,0.981-0.119,1.289-0.355
			c0.308-0.237,0.461-0.568,0.461-0.992c0-0.438-0.19-0.774-0.571-1.012c-0.38-0.236-0.903-0.355-1.569-0.355h-0.909v-1.654h0.841
			c1.276,0,1.914-0.424,1.914-1.271c0-0.797-0.49-1.195-1.47-1.195c-0.656,0-1.294,0.211-1.914,0.635v-1.764
			c0.688-0.346,1.49-0.52,2.406-0.52c1.002,0,1.783,0.227,2.341,0.678s0.837,1.036,0.837,1.756c0,1.281-0.649,2.083-1.948,2.406
			v0.035c0.693,0.086,1.24,0.338,1.641,0.755s0.602,0.929,0.602,1.534c0,0.916-0.335,1.641-1.005,2.174s-1.595,0.801-2.775,0.801
			C664.081,199.69,663.258,199.526,662.625,199.198z"/>
	</g>
	<g>
		<rect x="332.4" y="187.617" fill="none" width="97.677" height="19.082"/>
		<path fill="#2F2F2F" d="M333.521,199.518v-9.803h3.568c1.094,0,1.935,0.201,2.522,0.602c0.588,0.401,0.882,0.967,0.882,1.695
			c0,0.529-0.179,0.992-0.537,1.389s-0.814,0.672-1.371,0.826v0.027c0.697,0.087,1.254,0.345,1.671,0.773
			c0.417,0.428,0.625,0.949,0.625,1.564c0,0.898-0.321,1.61-0.964,2.137s-1.52,0.789-2.632,0.789H333.521z M335.729,191.342v2.324
			h0.971c0.456,0,0.814-0.109,1.077-0.331s0.393-0.525,0.393-0.913c0-0.72-0.538-1.08-1.613-1.08H335.729z M335.729,195.307v2.584
			h1.196c0.51,0,0.91-0.118,1.2-0.355c0.29-0.236,0.434-0.561,0.434-0.971c0-0.392-0.143-0.699-0.427-0.922
			c-0.285-0.224-0.683-0.336-1.193-0.336H335.729z"/>
		<path fill="#2F2F2F" d="M348.109,199.518h-2.044v-1.004h-0.027c-0.469,0.783-1.165,1.176-2.085,1.176
			c-0.679,0-1.213-0.193-1.603-0.578s-0.584-0.898-0.584-1.541c0-1.358,0.804-2.143,2.413-2.352l1.9-0.254
			c0-0.766-0.415-1.148-1.244-1.148c-0.834,0-1.627,0.249-2.379,0.746v-1.627c0.301-0.155,0.712-0.292,1.234-0.41
			c0.522-0.119,0.997-0.178,1.425-0.178c1.996,0,2.994,0.995,2.994,2.986V199.518z M346.079,196.674v-0.471l-1.271,0.164
			c-0.702,0.091-1.053,0.407-1.053,0.949c0,0.246,0.085,0.448,0.256,0.605s0.402,0.236,0.694,0.236c0.406,0,0.736-0.141,0.991-0.421
			S346.079,197.103,346.079,196.674z"/>
		<path fill="#2F2F2F" d="M355.123,199.266c-0.488,0.282-1.192,0.424-2.112,0.424c-1.076,0-1.946-0.326-2.611-0.979
			c-0.666-0.651-0.998-1.492-0.998-2.521c0-1.189,0.356-2.127,1.07-2.813s1.667-1.028,2.861-1.028c0.825,0,1.422,0.109,1.791,0.328
			v1.832c-0.451-0.338-0.955-0.506-1.511-0.506c-0.62,0-1.111,0.181-1.473,0.543s-0.543,0.862-0.543,1.5
			c0,0.62,0.173,1.107,0.52,1.46s0.823,0.53,1.429,0.53c0.538,0,1.064-0.169,1.579-0.506V199.266z"/>
		<path fill="#2F2F2F" d="M363.551,199.518h-2.591l-2.235-3.473h-0.027v3.473h-2.16v-10.363h2.16v6.598h0.027l2.085-3.234h2.563
			l-2.509,3.289L363.551,199.518z"/>
		<path fill="#2F2F2F" d="M371.016,199.518h-2.153v-1.066h-0.034c-0.533,0.825-1.247,1.238-2.14,1.238
			c-1.623,0-2.434-0.982-2.434-2.947v-4.225h2.153v4.033c0,0.989,0.392,1.484,1.176,1.484c0.387,0,0.697-0.137,0.93-0.407
			s0.349-0.64,0.349-1.104v-4.006h2.153V199.518z"/>
		<path fill="#2F2F2F" d="M375.022,198.705h-0.027v4.033h-2.16v-10.221h2.16v1.053h0.027c0.533-0.815,1.283-1.223,2.249-1.223
			c0.907,0,1.607,0.311,2.102,0.933s0.742,1.469,0.742,2.54c0,1.166-0.288,2.103-0.865,2.809c-0.577,0.707-1.343,1.061-2.3,1.061
			C376.106,199.69,375.464,199.362,375.022,198.705z M374.96,195.834v0.561c0,0.482,0.127,0.877,0.383,1.182
			c0.255,0.306,0.59,0.459,1.005,0.459c0.492,0,0.874-0.191,1.145-0.571s0.407-0.919,0.407-1.616c0-1.23-0.479-1.846-1.436-1.846
			c-0.442,0-0.803,0.167-1.083,0.502S374.96,195.283,374.96,195.834z"/>
		<path fill="#2F2F2F" d="M390.683,199.266c-0.488,0.282-1.192,0.424-2.112,0.424c-1.076,0-1.946-0.326-2.611-0.979
			c-0.666-0.651-0.998-1.492-0.998-2.521c0-1.189,0.356-2.127,1.07-2.813s1.667-1.028,2.861-1.028c0.825,0,1.422,0.109,1.791,0.328
			v1.832c-0.451-0.338-0.955-0.506-1.511-0.506c-0.62,0-1.111,0.181-1.473,0.543s-0.543,0.862-0.543,1.5
			c0,0.62,0.173,1.107,0.52,1.46s0.823,0.53,1.429,0.53c0.538,0,1.064-0.169,1.579-0.506V199.266z"/>
		<path fill="#2F2F2F" d="M395.434,199.69c-1.167,0-2.084-0.328-2.751-0.981s-1.001-1.542-1.001-2.663
			c0-1.157,0.346-2.062,1.039-2.717s1.629-0.98,2.81-0.98c1.162,0,2.074,0.326,2.734,0.98s0.991,1.519,0.991,2.594
			c0,1.162-0.341,2.081-1.022,2.756C397.552,199.352,396.619,199.69,395.434,199.69z M395.489,194.002
			c-0.51,0-0.907,0.175-1.189,0.525c-0.283,0.352-0.424,0.848-0.424,1.49c0,1.345,0.542,2.018,1.627,2.018
			c1.035,0,1.552-0.691,1.552-2.072C397.054,194.656,396.532,194.002,395.489,194.002z"/>
		<path fill="#2F2F2F" d="M402.844,198.705h-0.027v4.033h-2.16v-10.221h2.16v1.053h0.027c0.533-0.815,1.283-1.223,2.249-1.223
			c0.907,0,1.607,0.311,2.102,0.933s0.742,1.469,0.742,2.54c0,1.166-0.288,2.103-0.865,2.809c-0.577,0.707-1.343,1.061-2.3,1.061
			C403.929,199.69,403.286,199.362,402.844,198.705z M402.783,195.834v0.561c0,0.482,0.127,0.877,0.383,1.182
			c0.255,0.306,0.59,0.459,1.005,0.459c0.492,0,0.874-0.191,1.145-0.571s0.407-0.919,0.407-1.616c0-1.23-0.479-1.846-1.436-1.846
			c-0.442,0-0.803,0.167-1.083,0.502S402.783,195.283,402.783,195.834z"/>
		<path fill="#2F2F2F" d="M416.003,192.518l-2.844,7.561c-0.684,1.818-1.713,2.729-3.09,2.729c-0.524,0-0.955-0.06-1.292-0.178
			v-1.723c0.287,0.168,0.599,0.252,0.937,0.252c0.556,0,0.943-0.262,1.162-0.785l0.369-0.869l-2.844-6.986h2.393l1.306,4.26
			c0.082,0.264,0.146,0.576,0.191,0.936h0.027c0.041-0.264,0.116-0.571,0.226-0.922l1.319-4.273H416.003z"/>
		<path fill="#2F2F2F" d="M422.757,197.727h4.156v1.791h-6.521v-0.738c0-0.501,0.084-0.951,0.253-1.35s0.38-0.756,0.636-1.073
			s0.534-0.597,0.837-0.841s0.591-0.464,0.865-0.66c0.287-0.205,0.539-0.4,0.755-0.588c0.216-0.187,0.399-0.372,0.547-0.557
			s0.259-0.371,0.332-0.561s0.109-0.391,0.109-0.605c0-0.419-0.119-0.735-0.355-0.949c-0.237-0.215-0.599-0.322-1.087-0.322
			c-0.843,0-1.65,0.336-2.42,1.006v-1.9c0.852-0.552,1.814-0.828,2.885-0.828c0.497,0,0.942,0.065,1.336,0.195
			s0.728,0.315,1.001,0.557c0.273,0.242,0.482,0.535,0.625,0.879s0.215,0.729,0.215,1.152c0,0.451-0.069,0.852-0.208,1.203
			c-0.139,0.351-0.324,0.67-0.554,0.957s-0.496,0.55-0.796,0.789s-0.613,0.471-0.937,0.693c-0.219,0.155-0.43,0.309-0.632,0.462
			s-0.382,0.304-0.537,0.451s-0.278,0.293-0.369,0.435C422.803,197.465,422.757,197.6,422.757,197.727z"/>
	</g>
	<g>
		<rect x="90.4" y="187.617" fill="none" width="97.677" height="19.082"/>
		<path fill="#2F2F2F" d="M91.521,199.518v-9.803h3.568c1.094,0,1.935,0.201,2.522,0.602c0.588,0.401,0.882,0.967,0.882,1.695
			c0,0.529-0.179,0.992-0.537,1.389s-0.814,0.672-1.371,0.826v0.027c0.697,0.087,1.254,0.345,1.671,0.773
			c0.417,0.428,0.625,0.949,0.625,1.564c0,0.898-0.321,1.61-0.964,2.137s-1.52,0.789-2.632,0.789H91.521z M93.729,191.342v2.324
			H94.7c0.456,0,0.814-0.109,1.077-0.331s0.393-0.525,0.393-0.913c0-0.72-0.538-1.08-1.613-1.08H93.729z M93.729,195.307v2.584
			h1.196c0.51,0,0.91-0.118,1.2-0.355c0.29-0.236,0.434-0.561,0.434-0.971c0-0.392-0.143-0.699-0.427-0.922
			c-0.285-0.224-0.683-0.336-1.193-0.336H93.729z"/>
		<path fill="#2F2F2F" d="M106.109,199.518h-2.044v-1.004h-0.027c-0.469,0.783-1.165,1.176-2.085,1.176
			c-0.679,0-1.213-0.193-1.603-0.578s-0.584-0.898-0.584-1.541c0-1.358,0.804-2.143,2.413-2.352l1.9-0.254
			c0-0.766-0.415-1.148-1.244-1.148c-0.834,0-1.627,0.249-2.379,0.746v-1.627c0.301-0.155,0.712-0.292,1.234-0.41
			c0.522-0.119,0.997-0.178,1.425-0.178c1.996,0,2.994,0.995,2.994,2.986V199.518z M104.079,196.674v-0.471l-1.271,0.164
			c-0.702,0.091-1.053,0.407-1.053,0.949c0,0.246,0.085,0.448,0.256,0.605s0.402,0.236,0.694,0.236c0.406,0,0.736-0.141,0.991-0.421
			S104.079,197.103,104.079,196.674z"/>
		<path fill="#2F2F2F" d="M113.123,199.266c-0.488,0.282-1.192,0.424-2.112,0.424c-1.076,0-1.946-0.326-2.611-0.979
			c-0.666-0.651-0.998-1.492-0.998-2.521c0-1.189,0.356-2.127,1.07-2.813s1.667-1.028,2.861-1.028c0.825,0,1.422,0.109,1.791,0.328
			v1.832c-0.451-0.338-0.955-0.506-1.511-0.506c-0.62,0-1.111,0.181-1.473,0.543s-0.543,0.862-0.543,1.5
			c0,0.62,0.173,1.107,0.52,1.46s0.823,0.53,1.429,0.53c0.538,0,1.064-0.169,1.579-0.506V199.266z"/>
		<path fill="#2F2F2F" d="M121.551,199.518h-2.591l-2.235-3.473h-0.027v3.473h-2.16v-10.363h2.16v6.598h0.027l2.085-3.234h2.563
			l-2.509,3.289L121.551,199.518z"/>
		<path fill="#2F2F2F" d="M129.016,199.518h-2.153v-1.066h-0.034c-0.533,0.825-1.247,1.238-2.14,1.238
			c-1.623,0-2.434-0.982-2.434-2.947v-4.225h2.153v4.033c0,0.989,0.392,1.484,1.176,1.484c0.387,0,0.697-0.137,0.93-0.407
			s0.349-0.64,0.349-1.104v-4.006h2.153V199.518z"/>
		<path fill="#2F2F2F" d="M133.022,198.705h-0.027v4.033h-2.16v-10.221h2.16v1.053h0.027c0.533-0.815,1.283-1.223,2.249-1.223
			c0.907,0,1.607,0.311,2.102,0.933s0.742,1.469,0.742,2.54c0,1.166-0.288,2.103-0.865,2.809c-0.577,0.707-1.343,1.061-2.3,1.061
			C134.106,199.69,133.464,199.362,133.022,198.705z M132.96,195.834v0.561c0,0.482,0.127,0.877,0.383,1.182
			c0.255,0.306,0.59,0.459,1.005,0.459c0.492,0,0.874-0.191,1.145-0.571s0.407-0.919,0.407-1.616c0-1.23-0.479-1.846-1.436-1.846
			c-0.442,0-0.803,0.167-1.083,0.502S132.96,195.283,132.96,195.834z"/>
		<path fill="#2F2F2F" d="M148.683,199.266c-0.488,0.282-1.192,0.424-2.112,0.424c-1.076,0-1.946-0.326-2.611-0.979
			c-0.666-0.651-0.998-1.492-0.998-2.521c0-1.189,0.356-2.127,1.07-2.813s1.667-1.028,2.861-1.028c0.825,0,1.422,0.109,1.791,0.328
			v1.832c-0.451-0.338-0.955-0.506-1.511-0.506c-0.62,0-1.111,0.181-1.473,0.543s-0.543,0.862-0.543,1.5
			c0,0.62,0.173,1.107,0.52,1.46s0.823,0.53,1.429,0.53c0.538,0,1.064-0.169,1.579-0.506V199.266z"/>
		<path fill="#2F2F2F" d="M153.434,199.69c-1.167,0-2.084-0.328-2.751-0.981s-1.001-1.542-1.001-2.663
			c0-1.157,0.346-2.062,1.039-2.717s1.629-0.98,2.81-0.98c1.162,0,2.074,0.326,2.734,0.98s0.991,1.519,0.991,2.594
			c0,1.162-0.341,2.081-1.022,2.756C155.552,199.352,154.619,199.69,153.434,199.69z M153.489,194.002
			c-0.51,0-0.907,0.175-1.189,0.525c-0.283,0.352-0.424,0.848-0.424,1.49c0,1.345,0.542,2.018,1.627,2.018
			c1.035,0,1.552-0.691,1.552-2.072C155.054,194.656,154.532,194.002,153.489,194.002z"/>
		<path fill="#2F2F2F" d="M160.844,198.705h-0.027v4.033h-2.16v-10.221h2.16v1.053h0.027c0.533-0.815,1.283-1.223,2.249-1.223
			c0.907,0,1.607,0.311,2.102,0.933s0.742,1.469,0.742,2.54c0,1.166-0.288,2.103-0.865,2.809c-0.577,0.707-1.343,1.061-2.3,1.061
			C161.929,199.69,161.286,199.362,160.844,198.705z M160.783,195.834v0.561c0,0.482,0.127,0.877,0.383,1.182
			c0.255,0.306,0.59,0.459,1.005,0.459c0.492,0,0.874-0.191,1.145-0.571s0.407-0.919,0.407-1.616c0-1.23-0.479-1.846-1.436-1.846
			c-0.442,0-0.803,0.167-1.083,0.502S160.783,195.283,160.783,195.834z"/>
		<path fill="#2F2F2F" d="M174.003,192.518l-2.844,7.561c-0.684,1.818-1.713,2.729-3.09,2.729c-0.524,0-0.955-0.06-1.292-0.178
			v-1.723c0.287,0.168,0.599,0.252,0.937,0.252c0.556,0,0.943-0.262,1.162-0.785l0.369-0.869l-2.844-6.986h2.393l1.306,4.26
			c0.082,0.264,0.146,0.576,0.191,0.936h0.027c0.041-0.264,0.116-0.571,0.226-0.922l1.319-4.273H174.003z"/>
		<path fill="#2F2F2F" d="M183.512,189.496v10.021h-2.153v-7.588c-0.119,0.105-0.259,0.205-0.42,0.298s-0.334,0.178-0.516,0.253
			s-0.372,0.139-0.567,0.191s-0.39,0.09-0.581,0.113v-1.818c0.561-0.164,1.089-0.374,1.586-0.629
			c0.497-0.256,0.946-0.536,1.347-0.842H183.512z"/>
	</g>
	<g>
		<path fill="#2F2F2F" d="M320.182,79.607h-2.406l-0.697-2.181h-3.486l-0.69,2.181h-2.393l3.568-9.803h2.618L320.182,79.607z
			 M316.572,75.731l-1.053-3.295c-0.078-0.246-0.132-0.54-0.164-0.882h-0.055c-0.023,0.287-0.08,0.572-0.171,0.854l-1.066,3.322
			H316.572z"/>
		<path fill="#2F2F2F" d="M327.551,72.607l-2.604,7h-2.461l-2.481-7h2.311l1.217,4.313c0.137,0.488,0.216,0.902,0.239,1.244h0.027
			c0.032-0.323,0.116-0.725,0.253-1.203l1.244-4.354H327.551z"/>
		<path fill="#2F2F2F" d="M334.086,79.607h-2.044v-1.005h-0.027c-0.469,0.784-1.165,1.176-2.085,1.176
			c-0.679,0-1.213-0.192-1.603-0.577c-0.39-0.386-0.584-0.899-0.584-1.542c0-1.357,0.804-2.142,2.413-2.352l1.9-0.253
			c0-0.766-0.415-1.148-1.244-1.148c-0.834,0-1.627,0.249-2.379,0.745v-1.627c0.301-0.154,0.712-0.291,1.234-0.41
			c0.522-0.118,0.997-0.178,1.425-0.178c1.996,0,2.994,0.996,2.994,2.987V79.607z M332.056,76.763v-0.472l-1.271,0.164
			c-0.702,0.092-1.053,0.408-1.053,0.95c0,0.246,0.085,0.448,0.256,0.605s0.402,0.235,0.694,0.235c0.406,0,0.736-0.14,0.991-0.42
			S332.056,77.192,332.056,76.763z"/>
		<path fill="#2F2F2F" d="M336.889,71.499c-0.365,0-0.663-0.108-0.896-0.324c-0.232-0.217-0.349-0.482-0.349-0.797
			c0-0.323,0.116-0.588,0.349-0.793s0.531-0.308,0.896-0.308c0.369,0,0.669,0.103,0.899,0.308s0.345,0.47,0.345,0.793
			c0,0.328-0.115,0.598-0.345,0.807C337.558,71.395,337.258,71.499,336.889,71.499z M337.955,79.607h-2.16v-7h2.16V79.607z"/>
		<path fill="#2F2F2F" d="M341.934,79.607h-2.16V69.244h2.16V79.607z"/>
		<path fill="#2F2F2F" d="M349.576,79.607h-2.044v-1.005h-0.027c-0.469,0.784-1.165,1.176-2.085,1.176
			c-0.679,0-1.213-0.192-1.603-0.577c-0.39-0.386-0.584-0.899-0.584-1.542c0-1.357,0.804-2.142,2.413-2.352l1.9-0.253
			c0-0.766-0.415-1.148-1.244-1.148c-0.834,0-1.627,0.249-2.379,0.745v-1.627c0.301-0.154,0.712-0.291,1.234-0.41
			c0.522-0.118,0.997-0.178,1.425-0.178c1.996,0,2.994,0.996,2.994,2.987V79.607z M347.546,76.763v-0.472l-1.271,0.164
			c-0.702,0.092-1.053,0.408-1.053,0.95c0,0.246,0.085,0.448,0.256,0.605s0.402,0.235,0.694,0.235c0.406,0,0.736-0.14,0.991-0.42
			S347.546,77.192,347.546,76.763z"/>
		<path fill="#2F2F2F" d="M353.473,78.793h-0.027v0.813h-2.16V69.244h2.16v4.416h0.027c0.533-0.815,1.292-1.224,2.276-1.224
			c0.902,0,1.597,0.311,2.085,0.93c0.488,0.62,0.731,1.468,0.731,2.543c0,1.167-0.285,2.104-0.854,2.81
			c-0.57,0.707-1.331,1.06-2.283,1.06C354.566,79.778,353.915,79.45,353.473,78.793z M353.411,75.84v0.718
			c0,0.451,0.13,0.825,0.39,1.121c0.26,0.297,0.592,0.444,0.998,0.444c0.492,0,0.874-0.19,1.145-0.57
			c0.271-0.381,0.407-0.92,0.407-1.617c0-0.578-0.124-1.031-0.373-1.356c-0.249-0.326-0.603-0.489-1.063-0.489
			c-0.433,0-0.792,0.162-1.077,0.485C353.554,74.9,353.411,75.321,353.411,75.84z"/>
		<path fill="#2F2F2F" d="M361.061,71.499c-0.365,0-0.663-0.108-0.896-0.324c-0.232-0.217-0.349-0.482-0.349-0.797
			c0-0.323,0.116-0.588,0.349-0.793s0.531-0.308,0.896-0.308c0.369,0,0.669,0.103,0.899,0.308s0.345,0.47,0.345,0.793
			c0,0.328-0.115,0.598-0.345,0.807C361.729,71.395,361.43,71.499,361.061,71.499z M362.127,79.607h-2.16v-7h2.16V79.607z"/>
		<path fill="#2F2F2F" d="M366.105,79.607h-2.16V69.244h2.16V79.607z"/>
		<path fill="#2F2F2F" d="M369.018,71.499c-0.365,0-0.663-0.108-0.896-0.324c-0.232-0.217-0.349-0.482-0.349-0.797
			c0-0.323,0.116-0.588,0.349-0.793s0.531-0.308,0.896-0.308c0.369,0,0.669,0.103,0.899,0.308s0.345,0.47,0.345,0.793
			c0,0.328-0.115,0.598-0.345,0.807C369.687,71.395,369.387,71.499,369.018,71.499z M370.084,79.607h-2.16v-7h2.16V79.607z"/>
		<path fill="#2F2F2F" d="M376.134,79.525c-0.319,0.169-0.8,0.253-1.442,0.253c-1.522,0-2.283-0.79-2.283-2.372V74.2h-1.135v-1.593
			h1.135v-1.511l2.153-0.615v2.126h1.572V74.2h-1.572v2.83c0,0.729,0.29,1.094,0.868,1.094c0.228,0,0.462-0.065,0.704-0.198V79.525z
			"/>
		<path fill="#2F2F2F" d="M384.016,72.607l-2.844,7.561c-0.684,1.818-1.713,2.728-3.09,2.728c-0.524,0-0.955-0.059-1.292-0.178
			v-1.723c0.287,0.169,0.599,0.253,0.937,0.253c0.556,0,0.943-0.262,1.162-0.786l0.369-0.868l-2.844-6.986h2.393l1.306,4.259
			c0.082,0.265,0.146,0.577,0.191,0.937h0.027c0.041-0.264,0.116-0.571,0.226-0.923l1.319-4.272H384.016z"/>
		<path fill="#2F2F2F" d="M394.29,79.607h-6.282v-0.896l3.514-4.512h-3.165v-1.593h5.906v1.066l-3.329,4.341h3.356V79.607z"/>
		<path fill="#2F2F2F" d="M398.788,79.778c-1.167,0-2.084-0.327-2.751-0.98c-0.667-0.654-1.001-1.542-1.001-2.663
			c0-1.157,0.346-2.063,1.039-2.717c0.693-0.654,1.629-0.981,2.81-0.981c1.162,0,2.074,0.327,2.734,0.981
			c0.661,0.653,0.991,1.519,0.991,2.594c0,1.162-0.341,2.081-1.022,2.755C400.906,79.441,399.973,79.778,398.788,79.778z
			 M398.843,74.09c-0.51,0-0.907,0.176-1.189,0.526c-0.283,0.352-0.424,0.848-0.424,1.49c0,1.345,0.542,2.017,1.627,2.017
			c1.035,0,1.552-0.69,1.552-2.071C400.408,74.745,399.886,74.09,398.843,74.09z"/>
		<path fill="#2F2F2F" d="M410.771,79.607h-2.153v-3.89c0-1.084-0.387-1.627-1.162-1.627c-0.374,0-0.681,0.144-0.923,0.431
			s-0.362,0.652-0.362,1.094v3.992h-2.16v-7h2.16v1.107h0.027c0.515-0.852,1.265-1.278,2.249-1.278c1.549,0,2.324,0.962,2.324,2.885
			V79.607z"/>
		<path fill="#2F2F2F" d="M418.77,76.722h-4.566c0.073,1.017,0.713,1.524,1.921,1.524c0.77,0,1.447-0.182,2.03-0.547v1.559
			c-0.647,0.347-1.488,0.52-2.522,0.52c-1.13,0-2.007-0.313-2.632-0.939c-0.625-0.627-0.937-1.501-0.937-2.622
			c0-1.162,0.337-2.082,1.012-2.762c0.674-0.679,1.504-1.019,2.488-1.019c1.021,0,1.811,0.304,2.369,0.909
			c0.558,0.606,0.837,1.429,0.837,2.468V76.722z M416.767,75.396c0-1.002-0.406-1.504-1.217-1.504c-0.346,0-0.646,0.144-0.899,0.431
			s-0.407,0.646-0.461,1.073H416.767z"/>
		<path fill="#2F2F2F" d="M425.94,77.816h4.156v1.791h-6.521v-0.738c0-0.501,0.084-0.951,0.253-1.35
			c0.168-0.399,0.38-0.757,0.636-1.073c0.255-0.317,0.534-0.598,0.837-0.841c0.303-0.244,0.591-0.464,0.865-0.66
			c0.287-0.205,0.539-0.4,0.755-0.588c0.216-0.187,0.399-0.372,0.547-0.557s0.259-0.372,0.332-0.561
			c0.073-0.189,0.109-0.391,0.109-0.605c0-0.419-0.119-0.735-0.355-0.95c-0.237-0.214-0.599-0.321-1.087-0.321
			c-0.843,0-1.65,0.335-2.42,1.005v-1.9c0.852-0.551,1.814-0.827,2.885-0.827c0.497,0,0.942,0.065,1.336,0.195
			s0.728,0.315,1.001,0.557c0.273,0.242,0.482,0.534,0.625,0.879c0.144,0.344,0.215,0.728,0.215,1.151
			c0,0.451-0.069,0.853-0.208,1.203c-0.139,0.352-0.324,0.67-0.554,0.957s-0.496,0.551-0.796,0.79s-0.613,0.471-0.937,0.693
			c-0.219,0.155-0.43,0.309-0.632,0.462c-0.203,0.152-0.382,0.303-0.537,0.451c-0.155,0.147-0.278,0.293-0.369,0.434
			C425.986,77.554,425.94,77.689,425.94,77.816z"/>
	</g>
	<g>
		<path fill="#2F2F2F" d="M344.293,124.995v-9.803h3.473c3.482,0,5.223,1.593,5.223,4.778c0,1.527-0.475,2.746-1.425,3.657
			c-0.95,0.912-2.216,1.367-3.797,1.367H344.293z M346.501,116.99v6.214h1.094c0.957,0,1.708-0.287,2.252-0.861
			s0.817-1.355,0.817-2.345c0-0.934-0.27-1.669-0.81-2.204c-0.54-0.536-1.298-0.804-2.273-0.804H346.501z"/>
		<path fill="#2F2F2F" d="M360.228,124.995h-2.044v-1.005h-0.027c-0.469,0.784-1.165,1.176-2.085,1.176
			c-0.679,0-1.213-0.192-1.603-0.577c-0.39-0.386-0.584-0.899-0.584-1.542c0-1.357,0.804-2.142,2.413-2.352l1.9-0.253
			c0-0.766-0.415-1.148-1.244-1.148c-0.834,0-1.627,0.249-2.379,0.745v-1.627c0.301-0.154,0.712-0.291,1.234-0.41
			c0.522-0.118,0.997-0.178,1.425-0.178c1.996,0,2.994,0.996,2.994,2.987V124.995z M358.198,122.151v-0.472l-1.271,0.164
			c-0.702,0.092-1.053,0.408-1.053,0.95c0,0.246,0.085,0.448,0.256,0.605s0.402,0.235,0.694,0.235c0.406,0,0.736-0.14,0.991-0.42
			S358.198,122.579,358.198,122.151z"/>
		<path fill="#2F2F2F" d="M366.168,124.912c-0.319,0.169-0.8,0.253-1.442,0.253c-1.522,0-2.283-0.79-2.283-2.372v-3.206h-1.135
			v-1.593h1.135v-1.511l2.153-0.615v2.126h1.572v1.593h-1.572v2.83c0,0.729,0.29,1.094,0.868,1.094c0.228,0,0.462-0.065,0.704-0.198
			V124.912z"/>
		<path fill="#2F2F2F" d="M373.209,124.995h-2.044v-1.005h-0.027c-0.469,0.784-1.165,1.176-2.085,1.176
			c-0.679,0-1.213-0.192-1.603-0.577c-0.39-0.386-0.584-0.899-0.584-1.542c0-1.357,0.804-2.142,2.413-2.352l1.9-0.253
			c0-0.766-0.415-1.148-1.244-1.148c-0.834,0-1.627,0.249-2.379,0.745v-1.627c0.301-0.154,0.712-0.291,1.234-0.41
			c0.522-0.118,0.997-0.178,1.425-0.178c1.996,0,2.994,0.996,2.994,2.987V124.995z M371.179,122.151v-0.472l-1.271,0.164
			c-0.702,0.092-1.053,0.408-1.053,0.95c0,0.246,0.085,0.448,0.256,0.605s0.402,0.235,0.694,0.235c0.406,0,0.736-0.14,0.991-0.42
			S371.179,122.579,371.179,122.151z"/>
		<path fill="#2F2F2F" d="M380.223,124.742c-0.488,0.283-1.192,0.424-2.112,0.424c-1.076,0-1.946-0.325-2.611-0.978
			c-0.666-0.651-0.998-1.492-0.998-2.522c0-1.189,0.356-2.127,1.07-2.812c0.713-0.687,1.667-1.029,2.861-1.029
			c0.825,0,1.422,0.109,1.791,0.328v1.832c-0.451-0.337-0.955-0.506-1.511-0.506c-0.62,0-1.111,0.182-1.473,0.544
			s-0.543,0.862-0.543,1.5c0,0.62,0.173,1.106,0.52,1.46c0.346,0.353,0.823,0.529,1.429,0.529c0.538,0,1.064-0.168,1.579-0.506
			V124.742z"/>
		<path fill="#2F2F2F" d="M387.927,122.11h-4.566c0.073,1.017,0.713,1.524,1.921,1.524c0.77,0,1.447-0.182,2.03-0.547v1.559
			c-0.647,0.347-1.488,0.52-2.522,0.52c-1.13,0-2.007-0.313-2.632-0.939c-0.625-0.627-0.937-1.501-0.937-2.622
			c0-1.162,0.337-2.082,1.012-2.762c0.674-0.679,1.504-1.019,2.488-1.019c1.021,0,1.811,0.304,2.369,0.909
			c0.558,0.606,0.837,1.429,0.837,2.468V122.11z M385.924,120.784c0-1.002-0.406-1.504-1.217-1.504
			c-0.346,0-0.646,0.144-0.899,0.431s-0.407,0.646-0.461,1.073H385.924z"/>
		<path fill="#2F2F2F" d="M395.973,124.995h-2.153v-3.89c0-1.084-0.387-1.627-1.162-1.627c-0.374,0-0.681,0.144-0.923,0.431
			s-0.362,0.652-0.362,1.094v3.992h-2.16v-7h2.16v1.107h0.027c0.515-0.852,1.265-1.278,2.249-1.278c1.549,0,2.324,0.962,2.324,2.885
			V124.995z"/>
		<path fill="#2F2F2F" d="M401.914,124.912c-0.319,0.169-0.8,0.253-1.442,0.253c-1.522,0-2.283-0.79-2.283-2.372v-3.206h-1.135
			v-1.593h1.135v-1.511l2.153-0.615v2.126h1.572v1.593h-1.572v2.83c0,0.729,0.29,1.094,0.868,1.094c0.228,0,0.462-0.065,0.704-0.198
			V124.912z"/>
		<path fill="#2F2F2F" d="M409.365,122.11h-4.566c0.073,1.017,0.713,1.524,1.921,1.524c0.77,0,1.447-0.182,2.03-0.547v1.559
			c-0.647,0.347-1.488,0.52-2.522,0.52c-1.13,0-2.007-0.313-2.632-0.939c-0.625-0.627-0.937-1.501-0.937-2.622
			c0-1.162,0.337-2.082,1.012-2.762c0.674-0.679,1.504-1.019,2.488-1.019c1.021,0,1.811,0.304,2.369,0.909
			c0.558,0.606,0.837,1.429,0.837,2.468V122.11z M407.362,120.784c0-1.002-0.406-1.504-1.217-1.504
			c-0.346,0-0.646,0.144-0.899,0.431s-0.407,0.646-0.461,1.073H407.362z"/>
		<path fill="#2F2F2F" d="M415.216,119.943c-0.26-0.141-0.563-0.212-0.909-0.212c-0.469,0-0.836,0.172-1.101,0.517
			c-0.264,0.344-0.396,0.812-0.396,1.404v3.343h-2.16v-7h2.16v1.299h0.027c0.342-0.947,0.957-1.422,1.846-1.422
			c0.228,0,0.406,0.027,0.533,0.082V119.943z"/>
		<path fill="#2F2F2F" d="M419.974,124.673v-1.88c0.656,0.479,1.422,0.718,2.297,0.718c0.551,0,0.981-0.118,1.289-0.355
			c0.308-0.236,0.461-0.567,0.461-0.991c0-0.438-0.19-0.774-0.571-1.012c-0.38-0.236-0.903-0.355-1.569-0.355h-0.909v-1.654h0.841
			c1.276,0,1.914-0.424,1.914-1.271c0-0.797-0.49-1.196-1.47-1.196c-0.656,0-1.294,0.212-1.914,0.636v-1.764
			c0.688-0.346,1.49-0.52,2.406-0.52c1.002,0,1.783,0.226,2.341,0.677s0.837,1.037,0.837,1.757c0,1.281-0.649,2.083-1.948,2.406
			v0.034c0.693,0.087,1.24,0.339,1.641,0.756s0.602,0.929,0.602,1.534c0,0.916-0.335,1.641-1.005,2.174s-1.595,0.8-2.775,0.8
			C421.43,125.165,420.607,125.001,419.974,124.673z"/>
	</g>
	<g>
		<path fill="#2F2F2F" d="M232.078,187.099v-2.188c0.396,0.333,0.827,0.582,1.292,0.749c0.465,0.166,0.934,0.249,1.408,0.249
			c0.277,0,0.521-0.024,0.728-0.075c0.208-0.05,0.381-0.119,0.52-0.208c0.14-0.089,0.243-0.194,0.312-0.314
			c0.068-0.121,0.103-0.252,0.103-0.394c0-0.191-0.055-0.362-0.164-0.513s-0.259-0.289-0.448-0.417
			c-0.188-0.127-0.413-0.25-0.673-0.369c-0.26-0.118-0.54-0.239-0.841-0.362c-0.766-0.318-1.337-0.708-1.713-1.169
			c-0.376-0.46-0.563-1.016-0.563-1.668c0-0.51,0.103-0.949,0.308-1.315c0.205-0.367,0.484-0.669,0.837-0.906
			c0.354-0.236,0.763-0.411,1.228-0.522c0.465-0.112,0.957-0.168,1.477-0.168c0.51,0,0.963,0.031,1.356,0.093
			c0.395,0.062,0.758,0.156,1.091,0.283v2.044c-0.164-0.113-0.343-0.214-0.537-0.301c-0.193-0.086-0.393-0.158-0.598-0.215
			c-0.205-0.058-0.409-0.1-0.612-0.127c-0.202-0.027-0.396-0.041-0.577-0.041c-0.251,0-0.479,0.024-0.684,0.072
			s-0.379,0.115-0.52,0.201c-0.142,0.087-0.251,0.19-0.328,0.312c-0.078,0.12-0.116,0.256-0.116,0.406
			c0,0.164,0.043,0.312,0.13,0.441c0.086,0.13,0.209,0.253,0.369,0.369c0.159,0.116,0.353,0.229,0.581,0.342
			c0.228,0.111,0.485,0.227,0.772,0.345c0.392,0.164,0.744,0.339,1.056,0.523c0.312,0.185,0.58,0.393,0.804,0.625
			c0.223,0.232,0.394,0.498,0.513,0.797c0.118,0.298,0.178,0.646,0.178,1.042c0,0.547-0.104,1.006-0.312,1.378
			c-0.207,0.371-0.488,0.672-0.844,0.902c-0.355,0.229-0.77,0.396-1.241,0.495c-0.472,0.101-0.97,0.15-1.493,0.15
			c-0.538,0-1.05-0.045-1.535-0.137C232.854,187.418,232.434,187.282,232.078,187.099z"/>
		<path fill="#2F2F2F" d="M246.481,180.475l-2.844,7.561c-0.684,1.818-1.714,2.728-3.09,2.728c-0.524,0-0.955-0.059-1.292-0.178
			v-1.723c0.287,0.169,0.599,0.253,0.937,0.253c0.556,0,0.943-0.262,1.162-0.786l0.369-0.868l-2.844-6.986h2.393l1.306,4.259
			c0.082,0.265,0.146,0.577,0.191,0.937h0.027c0.041-0.264,0.116-0.571,0.226-0.923l1.319-4.272H246.481z"/>
		<path fill="#2F2F2F" d="M254.11,187.475h-2.153v-3.89c0-1.084-0.388-1.627-1.162-1.627c-0.374,0-0.682,0.144-0.923,0.431
			c-0.242,0.287-0.362,0.652-0.362,1.094v3.992h-2.16v-7h2.16v1.107h0.027c0.515-0.852,1.265-1.278,2.249-1.278
			c1.549,0,2.324,0.962,2.324,2.885V187.475z"/>
		<path fill="#2F2F2F" d="M261.124,187.222c-0.488,0.283-1.192,0.424-2.112,0.424c-1.076,0-1.946-0.325-2.611-0.978
			c-0.666-0.651-0.998-1.492-0.998-2.522c0-1.189,0.356-2.127,1.069-2.812c0.714-0.687,1.667-1.029,2.861-1.029
			c0.824,0,1.422,0.109,1.791,0.328v1.832c-0.451-0.337-0.955-0.506-1.511-0.506c-0.62,0-1.111,0.182-1.474,0.544
			s-0.543,0.862-0.543,1.5c0,0.62,0.173,1.106,0.52,1.46c0.346,0.353,0.822,0.529,1.429,0.529c0.537,0,1.063-0.168,1.579-0.506
			V187.222z"/>
	</g>
	<g>
		<path fill="#2F2F2F" d="M562.182,79.607h-2.406l-0.697-2.181h-3.486l-0.69,2.181h-2.393l3.568-9.803h2.618L562.182,79.607z
			 M558.572,75.731l-1.053-3.295c-0.078-0.246-0.132-0.54-0.164-0.882h-0.055c-0.023,0.287-0.08,0.572-0.171,0.854l-1.066,3.322
			H558.572z"/>
		<path fill="#2F2F2F" d="M569.551,72.607l-2.604,7h-2.461l-2.481-7h2.311l1.217,4.313c0.137,0.488,0.216,0.902,0.239,1.244h0.027
			c0.032-0.323,0.116-0.725,0.253-1.203l1.244-4.354H569.551z"/>
		<path fill="#2F2F2F" d="M576.086,79.607h-2.044v-1.005h-0.027c-0.469,0.784-1.165,1.176-2.085,1.176
			c-0.679,0-1.213-0.192-1.603-0.577c-0.39-0.386-0.584-0.899-0.584-1.542c0-1.357,0.804-2.142,2.413-2.352l1.9-0.253
			c0-0.766-0.415-1.148-1.244-1.148c-0.834,0-1.627,0.249-2.379,0.745v-1.627c0.301-0.154,0.712-0.291,1.234-0.41
			c0.522-0.118,0.997-0.178,1.425-0.178c1.996,0,2.994,0.996,2.994,2.987V79.607z M574.056,76.763v-0.472l-1.271,0.164
			c-0.702,0.092-1.053,0.408-1.053,0.95c0,0.246,0.085,0.448,0.256,0.605s0.402,0.235,0.694,0.235c0.406,0,0.736-0.14,0.991-0.42
			S574.056,77.192,574.056,76.763z"/>
		<path fill="#2F2F2F" d="M578.889,71.499c-0.365,0-0.663-0.108-0.896-0.324c-0.232-0.217-0.349-0.482-0.349-0.797
			c0-0.323,0.116-0.588,0.349-0.793s0.531-0.308,0.896-0.308c0.369,0,0.669,0.103,0.899,0.308s0.345,0.47,0.345,0.793
			c0,0.328-0.115,0.598-0.345,0.807C579.558,71.395,579.258,71.499,578.889,71.499z M579.955,79.607h-2.16v-7h2.16V79.607z"/>
		<path fill="#2F2F2F" d="M583.934,79.607h-2.16V69.244h2.16V79.607z"/>
		<path fill="#2F2F2F" d="M591.576,79.607h-2.044v-1.005h-0.027c-0.469,0.784-1.165,1.176-2.085,1.176
			c-0.679,0-1.213-0.192-1.603-0.577c-0.39-0.386-0.584-0.899-0.584-1.542c0-1.357,0.804-2.142,2.413-2.352l1.9-0.253
			c0-0.766-0.415-1.148-1.244-1.148c-0.834,0-1.627,0.249-2.379,0.745v-1.627c0.301-0.154,0.712-0.291,1.234-0.41
			c0.522-0.118,0.997-0.178,1.425-0.178c1.996,0,2.994,0.996,2.994,2.987V79.607z M589.546,76.763v-0.472l-1.271,0.164
			c-0.702,0.092-1.053,0.408-1.053,0.95c0,0.246,0.085,0.448,0.256,0.605s0.402,0.235,0.694,0.235c0.406,0,0.736-0.14,0.991-0.42
			S589.546,77.192,589.546,76.763z"/>
		<path fill="#2F2F2F" d="M595.473,78.793h-0.027v0.813h-2.16V69.244h2.16v4.416h0.027c0.533-0.815,1.292-1.224,2.276-1.224
			c0.902,0,1.597,0.311,2.085,0.93c0.488,0.62,0.731,1.468,0.731,2.543c0,1.167-0.285,2.104-0.854,2.81
			c-0.57,0.707-1.331,1.06-2.283,1.06C596.566,79.778,595.915,79.45,595.473,78.793z M595.411,75.84v0.718
			c0,0.451,0.13,0.825,0.39,1.121c0.26,0.297,0.592,0.444,0.998,0.444c0.492,0,0.874-0.19,1.145-0.57
			c0.271-0.381,0.407-0.92,0.407-1.617c0-0.578-0.124-1.031-0.373-1.356c-0.249-0.326-0.603-0.489-1.063-0.489
			c-0.433,0-0.792,0.162-1.077,0.485C595.554,74.9,595.411,75.321,595.411,75.84z"/>
		<path fill="#2F2F2F" d="M603.061,71.499c-0.365,0-0.663-0.108-0.896-0.324c-0.232-0.217-0.349-0.482-0.349-0.797
			c0-0.323,0.116-0.588,0.349-0.793s0.531-0.308,0.896-0.308c0.369,0,0.669,0.103,0.899,0.308s0.345,0.47,0.345,0.793
			c0,0.328-0.115,0.598-0.345,0.807C603.729,71.395,603.43,71.499,603.061,71.499z M604.127,79.607h-2.16v-7h2.16V79.607z"/>
		<path fill="#2F2F2F" d="M608.105,79.607h-2.16V69.244h2.16V79.607z"/>
		<path fill="#2F2F2F" d="M611.018,71.499c-0.365,0-0.663-0.108-0.896-0.324c-0.232-0.217-0.349-0.482-0.349-0.797
			c0-0.323,0.116-0.588,0.349-0.793s0.531-0.308,0.896-0.308c0.369,0,0.669,0.103,0.899,0.308s0.345,0.47,0.345,0.793
			c0,0.328-0.115,0.598-0.345,0.807C611.687,71.395,611.387,71.499,611.018,71.499z M612.084,79.607h-2.16v-7h2.16V79.607z"/>
		<path fill="#2F2F2F" d="M618.134,79.525c-0.319,0.169-0.8,0.253-1.442,0.253c-1.522,0-2.283-0.79-2.283-2.372V74.2h-1.135v-1.593
			h1.135v-1.511l2.153-0.615v2.126h1.572V74.2h-1.572v2.83c0,0.729,0.29,1.094,0.868,1.094c0.228,0,0.462-0.065,0.704-0.198V79.525z
			"/>
		<path fill="#2F2F2F" d="M626.016,72.607l-2.844,7.561c-0.684,1.818-1.713,2.728-3.09,2.728c-0.524,0-0.955-0.059-1.292-0.178
			v-1.723c0.287,0.169,0.599,0.253,0.937,0.253c0.556,0,0.943-0.262,1.162-0.786l0.369-0.868l-2.844-6.986h2.393l1.306,4.259
			c0.082,0.265,0.146,0.577,0.191,0.937h0.027c0.041-0.264,0.116-0.571,0.226-0.923l1.319-4.272H626.016z"/>
		<path fill="#2F2F2F" d="M636.29,79.607h-6.282v-0.896l3.514-4.512h-3.165v-1.593h5.906v1.066l-3.329,4.341h3.356V79.607z"/>
		<path fill="#2F2F2F" d="M640.788,79.778c-1.167,0-2.084-0.327-2.751-0.98c-0.667-0.654-1.001-1.542-1.001-2.663
			c0-1.157,0.346-2.063,1.039-2.717c0.693-0.654,1.629-0.981,2.81-0.981c1.162,0,2.074,0.327,2.734,0.981
			c0.661,0.653,0.991,1.519,0.991,2.594c0,1.162-0.341,2.081-1.022,2.755C642.906,79.441,641.973,79.778,640.788,79.778z
			 M640.843,74.09c-0.51,0-0.907,0.176-1.189,0.526c-0.283,0.352-0.424,0.848-0.424,1.49c0,1.345,0.542,2.017,1.627,2.017
			c1.035,0,1.552-0.69,1.552-2.071C642.408,74.745,641.886,74.09,640.843,74.09z"/>
		<path fill="#2F2F2F" d="M652.771,79.607h-2.153v-3.89c0-1.084-0.387-1.627-1.162-1.627c-0.374,0-0.681,0.144-0.923,0.431
			s-0.362,0.652-0.362,1.094v3.992h-2.16v-7h2.16v1.107h0.027c0.515-0.852,1.265-1.278,2.249-1.278c1.549,0,2.324,0.962,2.324,2.885
			V79.607z"/>
		<path fill="#2F2F2F" d="M660.77,76.722h-4.566c0.073,1.017,0.713,1.524,1.921,1.524c0.77,0,1.447-0.182,2.03-0.547v1.559
			c-0.647,0.347-1.488,0.52-2.522,0.52c-1.13,0-2.007-0.313-2.632-0.939c-0.625-0.627-0.937-1.501-0.937-2.622
			c0-1.162,0.337-2.082,1.012-2.762c0.674-0.679,1.504-1.019,2.488-1.019c1.021,0,1.811,0.304,2.369,0.909
			c0.558,0.606,0.837,1.429,0.837,2.468V76.722z M658.767,75.396c0-1.002-0.406-1.504-1.217-1.504c-0.346,0-0.646,0.144-0.899,0.431
			s-0.407,0.646-0.461,1.073H658.767z"/>
		<path fill="#2F2F2F" d="M665.808,79.286v-1.88c0.656,0.479,1.422,0.718,2.297,0.718c0.551,0,0.981-0.118,1.289-0.355
			c0.308-0.236,0.461-0.567,0.461-0.991c0-0.438-0.19-0.774-0.571-1.012c-0.38-0.236-0.903-0.355-1.569-0.355h-0.909v-1.654h0.841
			c1.276,0,1.914-0.424,1.914-1.271c0-0.797-0.49-1.196-1.47-1.196c-0.656,0-1.294,0.212-1.914,0.636V70.16
			c0.688-0.346,1.49-0.52,2.406-0.52c1.002,0,1.783,0.226,2.341,0.677s0.837,1.037,0.837,1.757c0,1.281-0.649,2.083-1.948,2.406
			v0.034c0.693,0.087,1.24,0.339,1.641,0.756s0.602,0.929,0.602,1.534c0,0.916-0.335,1.641-1.005,2.174s-1.595,0.8-2.775,0.8
			C667.264,79.778,666.441,79.614,665.808,79.286z"/>
	</g>
	<g>
		<path fill="#2F2F2F" d="M588.652,125.049v-9.803h3.473c3.482,0,5.223,1.593,5.223,4.778c0,1.526-0.475,2.745-1.425,3.657
			s-2.216,1.367-3.797,1.367H588.652z M590.86,117.044v6.214h1.094c0.957,0,1.708-0.287,2.252-0.861s0.817-1.355,0.817-2.345
			c0-0.935-0.27-1.669-0.81-2.204c-0.54-0.536-1.298-0.804-2.273-0.804H590.86z"/>
		<path fill="#2F2F2F" d="M604.586,125.049h-2.044v-1.005h-0.027c-0.469,0.784-1.165,1.176-2.085,1.176
			c-0.679,0-1.213-0.192-1.603-0.577c-0.39-0.386-0.584-0.899-0.584-1.542c0-1.358,0.804-2.142,2.413-2.352l1.9-0.253
			c0-0.766-0.415-1.148-1.244-1.148c-0.834,0-1.627,0.248-2.379,0.745v-1.627c0.301-0.155,0.712-0.292,1.234-0.41
			s0.997-0.178,1.425-0.178c1.996,0,2.994,0.995,2.994,2.987V125.049z M602.556,122.205v-0.472l-1.271,0.164
			c-0.702,0.091-1.053,0.407-1.053,0.95c0,0.246,0.085,0.447,0.256,0.605c0.171,0.156,0.402,0.235,0.694,0.235
			c0.406,0,0.736-0.14,0.991-0.421C602.429,122.989,602.556,122.633,602.556,122.205z"/>
		<path fill="#2F2F2F" d="M610.527,124.967c-0.319,0.168-0.8,0.253-1.442,0.253c-1.522,0-2.283-0.79-2.283-2.372v-3.206h-1.135
			v-1.593h1.135v-1.511l2.153-0.615v2.126h1.572v1.593h-1.572v2.83c0,0.729,0.29,1.094,0.868,1.094c0.228,0,0.462-0.065,0.704-0.198
			V124.967z"/>
		<path fill="#2F2F2F" d="M617.568,125.049h-2.044v-1.005h-0.027c-0.469,0.784-1.165,1.176-2.085,1.176
			c-0.679,0-1.213-0.192-1.603-0.577c-0.39-0.386-0.584-0.899-0.584-1.542c0-1.358,0.804-2.142,2.413-2.352l1.9-0.253
			c0-0.766-0.415-1.148-1.244-1.148c-0.834,0-1.627,0.248-2.379,0.745v-1.627c0.301-0.155,0.712-0.292,1.234-0.41
			s0.997-0.178,1.425-0.178c1.996,0,2.994,0.995,2.994,2.987V125.049z M615.538,122.205v-0.472l-1.271,0.164
			c-0.702,0.091-1.053,0.407-1.053,0.95c0,0.246,0.085,0.447,0.256,0.605c0.171,0.156,0.402,0.235,0.694,0.235
			c0.406,0,0.736-0.14,0.991-0.421C615.41,122.989,615.538,122.633,615.538,122.205z"/>
		<path fill="#2F2F2F" d="M624.582,124.796c-0.488,0.282-1.192,0.424-2.112,0.424c-1.076,0-1.946-0.325-2.611-0.978
			s-0.998-1.492-0.998-2.522c0-1.189,0.356-2.127,1.07-2.813c0.713-0.686,1.667-1.028,2.861-1.028c0.825,0,1.422,0.109,1.791,0.328
			v1.832c-0.451-0.337-0.955-0.506-1.511-0.506c-0.62,0-1.111,0.181-1.473,0.544c-0.362,0.361-0.543,0.861-0.543,1.5
			c0,0.619,0.173,1.106,0.52,1.459c0.346,0.354,0.823,0.53,1.429,0.53c0.538,0,1.064-0.169,1.579-0.506V124.796z"/>
		<path fill="#2F2F2F" d="M632.286,122.164h-4.566c0.073,1.016,0.713,1.524,1.921,1.524c0.77,0,1.447-0.183,2.03-0.547v1.559
			c-0.647,0.347-1.488,0.52-2.522,0.52c-1.13,0-2.007-0.313-2.632-0.94c-0.625-0.626-0.937-1.5-0.937-2.621
			c0-1.162,0.337-2.082,1.012-2.762s1.504-1.019,2.488-1.019c1.021,0,1.811,0.304,2.369,0.909s0.837,1.429,0.837,2.468V122.164z
			 M630.283,120.838c0-1.002-0.406-1.504-1.217-1.504c-0.346,0-0.646,0.144-0.899,0.431s-0.407,0.646-0.461,1.073H630.283z"/>
		<path fill="#2F2F2F" d="M640.332,125.049h-2.153v-3.89c0-1.085-0.387-1.627-1.162-1.627c-0.374,0-0.681,0.144-0.923,0.431
			s-0.362,0.652-0.362,1.094v3.992h-2.16v-7h2.16v1.107h0.027c0.515-0.852,1.265-1.278,2.249-1.278c1.549,0,2.324,0.962,2.324,2.885
			V125.049z"/>
		<path fill="#2F2F2F" d="M646.272,124.967c-0.319,0.168-0.8,0.253-1.442,0.253c-1.522,0-2.283-0.79-2.283-2.372v-3.206h-1.135
			v-1.593h1.135v-1.511l2.153-0.615v2.126h1.572v1.593H644.7v2.83c0,0.729,0.29,1.094,0.868,1.094c0.228,0,0.462-0.065,0.704-0.198
			V124.967z"/>
		<path fill="#2F2F2F" d="M653.723,122.164h-4.566c0.073,1.016,0.713,1.524,1.921,1.524c0.77,0,1.447-0.183,2.03-0.547v1.559
			c-0.647,0.347-1.488,0.52-2.522,0.52c-1.13,0-2.007-0.313-2.632-0.94c-0.625-0.626-0.937-1.5-0.937-2.621
			c0-1.162,0.337-2.082,1.012-2.762s1.504-1.019,2.488-1.019c1.021,0,1.811,0.304,2.369,0.909s0.837,1.429,0.837,2.468V122.164z
			 M651.72,120.838c0-1.002-0.406-1.504-1.217-1.504c-0.346,0-0.646,0.144-0.899,0.431s-0.407,0.646-0.461,1.073H651.72z"/>
		<path fill="#2F2F2F" d="M659.575,119.997c-0.26-0.142-0.563-0.212-0.909-0.212c-0.469,0-0.836,0.172-1.101,0.516
			c-0.264,0.345-0.396,0.812-0.396,1.405v3.343h-2.16v-7h2.16v1.299h0.027c0.342-0.947,0.957-1.422,1.846-1.422
			c0.228,0,0.406,0.027,0.533,0.082V119.997z"/>
		<path fill="#2F2F2F" d="M669.22,115.028v10.021h-2.153v-7.588c-0.119,0.105-0.259,0.204-0.42,0.297
			c-0.162,0.094-0.334,0.178-0.516,0.254c-0.182,0.074-0.372,0.139-0.567,0.191c-0.196,0.052-0.39,0.09-0.581,0.112v-1.818
			c0.561-0.164,1.089-0.374,1.586-0.629s0.946-0.536,1.347-0.841H669.22z"/>
	</g>
	<g>
		<path fill="#2F2F2F" d="M474.982,187.1v-2.188c0.396,0.332,0.827,0.582,1.292,0.748s0.934,0.25,1.408,0.25
			c0.278,0,0.521-0.025,0.728-0.076c0.208-0.05,0.38-0.119,0.52-0.208s0.243-0.194,0.311-0.314s0.103-0.252,0.103-0.394
			c0-0.191-0.055-0.361-0.164-0.512s-0.259-0.29-0.448-0.418c-0.189-0.127-0.414-0.25-0.673-0.369
			c-0.26-0.118-0.54-0.238-0.841-0.361c-0.766-0.319-1.336-0.709-1.712-1.17c-0.376-0.46-0.564-1.016-0.564-1.668
			c0-0.51,0.103-0.949,0.308-1.315s0.484-0.669,0.837-0.905c0.353-0.237,0.762-0.412,1.227-0.523s0.957-0.168,1.477-0.168
			c0.51,0,0.963,0.031,1.357,0.093s0.758,0.156,1.09,0.284v2.043c-0.164-0.113-0.343-0.214-0.537-0.301
			c-0.194-0.086-0.393-0.158-0.598-0.215s-0.409-0.1-0.612-0.127s-0.396-0.041-0.578-0.041c-0.25,0-0.479,0.024-0.684,0.072
			s-0.378,0.115-0.52,0.201c-0.141,0.087-0.25,0.191-0.328,0.312s-0.116,0.257-0.116,0.407c0,0.164,0.043,0.311,0.13,0.44
			s0.209,0.253,0.369,0.369s0.353,0.229,0.581,0.342s0.485,0.227,0.772,0.345c0.392,0.164,0.744,0.339,1.056,0.523
			s0.58,0.393,0.803,0.625s0.394,0.498,0.513,0.797s0.178,0.646,0.178,1.043c0,0.547-0.104,1.006-0.311,1.377
			s-0.489,0.672-0.844,0.902s-0.769,0.396-1.241,0.496c-0.472,0.1-0.97,0.15-1.494,0.15c-0.538,0-1.049-0.046-1.535-0.137
			C475.758,187.418,475.338,187.282,474.982,187.1z"/>
		<path fill="#2F2F2F" d="M489.386,180.475l-2.844,7.561c-0.684,1.818-1.713,2.729-3.09,2.729c-0.524,0-0.955-0.06-1.292-0.178
			v-1.723c0.287,0.168,0.599,0.252,0.937,0.252c0.556,0,0.943-0.262,1.162-0.785l0.369-0.869l-2.844-6.986h2.393l1.306,4.26
			c0.082,0.264,0.146,0.576,0.191,0.936h0.027c0.041-0.264,0.116-0.571,0.226-0.922l1.319-4.273H489.386z"/>
		<path fill="#2F2F2F" d="M497.015,187.475h-2.153v-3.889c0-1.085-0.387-1.627-1.162-1.627c-0.374,0-0.681,0.143-0.923,0.43
			s-0.362,0.652-0.362,1.094v3.992h-2.16v-7h2.16v1.107h0.027c0.515-0.852,1.265-1.277,2.249-1.277c1.549,0,2.324,0.961,2.324,2.885
			V187.475z"/>
		<path fill="#2F2F2F" d="M504.028,187.223c-0.488,0.282-1.192,0.424-2.112,0.424c-1.076,0-1.946-0.326-2.611-0.979
			c-0.666-0.651-0.998-1.492-0.998-2.521c0-1.189,0.356-2.127,1.07-2.813s1.667-1.028,2.861-1.028c0.825,0,1.422,0.109,1.791,0.328
			v1.832c-0.451-0.338-0.955-0.506-1.511-0.506c-0.62,0-1.111,0.181-1.473,0.543s-0.543,0.862-0.543,1.5
			c0,0.62,0.173,1.107,0.52,1.46s0.823,0.53,1.429,0.53c0.538,0,1.064-0.169,1.579-0.506V187.223z"/>
	</g>
	<g>
		<path fill="#2F2F2F" d="M80.309,160.868v-1.16c0.133,0.117,0.292,0.223,0.478,0.316s0.381,0.173,0.586,0.237
			s0.411,0.114,0.618,0.149s0.398,0.053,0.574,0.053c0.605,0,1.058-0.112,1.356-0.337s0.448-0.548,0.448-0.97
			c0-0.227-0.05-0.424-0.149-0.592s-0.237-0.321-0.413-0.46s-0.384-0.271-0.624-0.398s-0.499-0.261-0.776-0.401
			c-0.293-0.148-0.566-0.299-0.82-0.451s-0.475-0.32-0.662-0.504s-0.335-0.392-0.442-0.624s-0.161-0.505-0.161-0.817
			c0-0.383,0.084-0.716,0.252-0.999s0.389-0.517,0.662-0.7s0.585-0.32,0.935-0.41s0.706-0.135,1.069-0.135
			c0.828,0,1.432,0.1,1.811,0.299v1.107c-0.496-0.344-1.133-0.516-1.91-0.516c-0.215,0-0.43,0.022-0.645,0.067
			s-0.406,0.118-0.574,0.22s-0.305,0.232-0.41,0.393s-0.158,0.355-0.158,0.586c0,0.215,0.04,0.4,0.12,0.557s0.198,0.299,0.354,0.428
			s0.347,0.254,0.571,0.375s0.483,0.254,0.776,0.398c0.301,0.148,0.586,0.305,0.855,0.469s0.506,0.346,0.709,0.545
			s0.364,0.42,0.483,0.662s0.179,0.52,0.179,0.832c0,0.414-0.081,0.765-0.243,1.052s-0.381,0.521-0.656,0.7s-0.593,0.31-0.952,0.39
			s-0.738,0.12-1.137,0.12c-0.133,0-0.297-0.011-0.492-0.032s-0.395-0.053-0.598-0.094s-0.396-0.092-0.577-0.152
			S80.418,160.942,80.309,160.868z"/>
		<path fill="#2F2F2F" d="M89.414,161.149c-0.227,0.125-0.525,0.188-0.896,0.188c-1.051,0-1.576-0.586-1.576-1.758v-3.551H85.91
			v-0.82h1.031v-1.465l0.961-0.311v1.775h1.512v0.82h-1.512v3.381c0,0.402,0.068,0.689,0.205,0.861s0.363,0.258,0.68,0.258
			c0.242,0,0.451-0.066,0.627-0.199V161.149z"/>
		<path fill="#2F2F2F" d="M93.073,161.348c-0.887,0-1.595-0.28-2.124-0.841s-0.794-1.304-0.794-2.229
			c0-1.008,0.275-1.795,0.826-2.361s1.295-0.85,2.232-0.85c0.895,0,1.593,0.275,2.095,0.826s0.753,1.314,0.753,2.291
			c0,0.957-0.271,1.724-0.812,2.3S93.983,161.348,93.073,161.348z M93.143,155.875c-0.617,0-1.105,0.21-1.465,0.63
			s-0.539,0.999-0.539,1.737c0,0.711,0.182,1.271,0.545,1.682s0.85,0.615,1.459,0.615c0.621,0,1.099-0.201,1.433-0.604
			s0.501-0.975,0.501-1.717c0-0.75-0.167-1.328-0.501-1.734S93.764,155.875,93.143,155.875z"/>
		<path fill="#2F2F2F" d="M100.671,156.18c-0.168-0.129-0.41-0.193-0.727-0.193c-0.41,0-0.753,0.193-1.028,0.58
			s-0.413,0.914-0.413,1.582v3.059h-0.961v-6h0.961v1.236h0.023c0.137-0.422,0.346-0.751,0.627-0.987s0.596-0.354,0.943-0.354
			c0.25,0,0.441,0.027,0.574,0.082V156.18z"/>
		<path fill="#2F2F2F" d="M105.974,161.207h-0.961v-0.938h-0.023c-0.418,0.719-1.033,1.078-1.846,1.078
			c-0.598,0-1.065-0.158-1.403-0.475s-0.507-0.736-0.507-1.26c0-1.121,0.66-1.773,1.98-1.957l1.799-0.252
			c0-1.02-0.412-1.529-1.236-1.529c-0.723,0-1.375,0.246-1.957,0.738v-0.984c0.59-0.375,1.27-0.562,2.039-0.562
			c1.41,0,2.115,0.746,2.115,2.238V161.207z M105.013,158.172l-1.447,0.199c-0.445,0.062-0.781,0.173-1.008,0.331
			s-0.34,0.438-0.34,0.841c0,0.293,0.104,0.532,0.313,0.718s0.487,0.278,0.835,0.278c0.477,0,0.87-0.167,1.181-0.501
			s0.466-0.757,0.466-1.269V158.172z"/>
		<path fill="#2F2F2F" d="M112.9,160.727c0,2.203-1.055,3.305-3.164,3.305c-0.742,0-1.391-0.141-1.945-0.422v-0.961
			c0.676,0.375,1.32,0.562,1.934,0.562c1.477,0,2.215-0.785,2.215-2.355V160.2h-0.023c-0.457,0.766-1.145,1.148-2.062,1.148
			c-0.746,0-1.347-0.267-1.802-0.8s-0.683-1.249-0.683-2.147c0-1.02,0.245-1.83,0.735-2.432s1.161-0.902,2.013-0.902
			c0.809,0,1.408,0.324,1.799,0.973h0.023v-0.832h0.961V160.727z M111.939,158.495v-0.885c0-0.477-0.161-0.885-0.483-1.225
			s-0.724-0.51-1.204-0.51c-0.594,0-1.059,0.216-1.395,0.647s-0.504,1.036-0.504,1.813c0,0.668,0.161,1.202,0.483,1.603
			s0.749,0.601,1.28,0.601c0.539,0,0.978-0.191,1.315-0.574S111.939,159.092,111.939,158.495z"/>
		<path fill="#2F2F2F" d="M119.613,158.448h-4.236c0.016,0.668,0.195,1.184,0.539,1.547s0.816,0.545,1.418,0.545
			c0.676,0,1.297-0.223,1.863-0.668v0.902c-0.527,0.383-1.225,0.574-2.092,0.574c-0.848,0-1.514-0.272-1.998-0.817
			s-0.727-1.312-0.727-2.3c0-0.934,0.265-1.694,0.794-2.282s1.187-0.882,1.972-0.882s1.393,0.254,1.822,0.762
			s0.645,1.213,0.645,2.115V158.448z M118.629,157.633c-0.004-0.555-0.138-0.986-0.401-1.295s-0.63-0.463-1.099-0.463
			c-0.453,0-0.838,0.162-1.154,0.486s-0.512,0.748-0.586,1.271H118.629z"/>
	</g>
	<g>
		<path fill="#2F2F2F" d="M322.909,160.868v-1.16c0.133,0.117,0.292,0.223,0.478,0.316s0.381,0.173,0.586,0.237
			s0.411,0.114,0.618,0.149s0.398,0.053,0.574,0.053c0.605,0,1.058-0.112,1.356-0.337s0.448-0.548,0.448-0.97
			c0-0.227-0.05-0.424-0.149-0.592s-0.237-0.321-0.413-0.46s-0.384-0.271-0.624-0.398s-0.499-0.261-0.776-0.401
			c-0.293-0.148-0.566-0.299-0.82-0.451s-0.475-0.32-0.662-0.504s-0.335-0.392-0.442-0.624s-0.161-0.505-0.161-0.817
			c0-0.383,0.084-0.716,0.252-0.999s0.389-0.517,0.662-0.7s0.585-0.32,0.935-0.41s0.706-0.135,1.069-0.135
			c0.828,0,1.432,0.1,1.811,0.299v1.107c-0.496-0.344-1.133-0.516-1.91-0.516c-0.215,0-0.43,0.022-0.645,0.067
			s-0.406,0.118-0.574,0.22s-0.305,0.232-0.41,0.393s-0.158,0.355-0.158,0.586c0,0.215,0.04,0.4,0.12,0.557s0.198,0.299,0.354,0.428
			s0.347,0.254,0.571,0.375s0.483,0.254,0.776,0.398c0.301,0.148,0.586,0.305,0.855,0.469s0.506,0.346,0.709,0.545
			s0.364,0.42,0.483,0.662s0.179,0.52,0.179,0.832c0,0.414-0.081,0.765-0.243,1.052s-0.381,0.521-0.656,0.7s-0.593,0.31-0.952,0.39
			s-0.738,0.12-1.137,0.12c-0.133,0-0.297-0.011-0.492-0.032s-0.395-0.053-0.598-0.094s-0.396-0.092-0.577-0.152
			S323.019,160.942,322.909,160.868z"/>
		<path fill="#2F2F2F" d="M332.014,161.149c-0.227,0.125-0.525,0.188-0.896,0.188c-1.051,0-1.576-0.586-1.576-1.758v-3.551h-1.031
			v-0.82h1.031v-1.465l0.961-0.311v1.775h1.512v0.82h-1.512v3.381c0,0.402,0.068,0.689,0.205,0.861s0.363,0.258,0.68,0.258
			c0.242,0,0.451-0.066,0.627-0.199V161.149z"/>
		<path fill="#2F2F2F" d="M335.673,161.348c-0.887,0-1.595-0.28-2.124-0.841s-0.794-1.304-0.794-2.229
			c0-1.008,0.275-1.795,0.826-2.361s1.295-0.85,2.232-0.85c0.895,0,1.593,0.275,2.095,0.826s0.753,1.314,0.753,2.291
			c0,0.957-0.271,1.724-0.812,2.3S336.583,161.348,335.673,161.348z M335.744,155.875c-0.617,0-1.105,0.21-1.465,0.63
			s-0.539,0.999-0.539,1.737c0,0.711,0.182,1.271,0.545,1.682s0.85,0.615,1.459,0.615c0.621,0,1.099-0.201,1.433-0.604
			s0.501-0.975,0.501-1.717c0-0.75-0.167-1.328-0.501-1.734S336.365,155.875,335.744,155.875z"/>
		<path fill="#2F2F2F" d="M343.271,156.18c-0.168-0.129-0.41-0.193-0.727-0.193c-0.41,0-0.753,0.193-1.028,0.58
			s-0.413,0.914-0.413,1.582v3.059h-0.961v-6h0.961v1.236h0.023c0.137-0.422,0.346-0.751,0.627-0.987s0.596-0.354,0.943-0.354
			c0.25,0,0.441,0.027,0.574,0.082V156.18z"/>
		<path fill="#2F2F2F" d="M348.575,161.207h-0.961v-0.938h-0.023c-0.418,0.719-1.033,1.078-1.846,1.078
			c-0.598,0-1.065-0.158-1.403-0.475s-0.507-0.736-0.507-1.26c0-1.121,0.66-1.773,1.98-1.957l1.799-0.252
			c0-1.02-0.412-1.529-1.236-1.529c-0.723,0-1.375,0.246-1.957,0.738v-0.984c0.59-0.375,1.27-0.562,2.039-0.562
			c1.41,0,2.115,0.746,2.115,2.238V161.207z M347.614,158.172l-1.447,0.199c-0.445,0.062-0.781,0.173-1.008,0.331
			s-0.34,0.438-0.34,0.841c0,0.293,0.104,0.532,0.313,0.718s0.487,0.278,0.835,0.278c0.477,0,0.87-0.167,1.181-0.501
			s0.466-0.757,0.466-1.269V158.172z"/>
		<path fill="#2F2F2F" d="M355.5,160.727c0,2.203-1.055,3.305-3.164,3.305c-0.742,0-1.391-0.141-1.945-0.422v-0.961
			c0.676,0.375,1.32,0.562,1.934,0.562c1.477,0,2.215-0.785,2.215-2.355V160.2h-0.023c-0.457,0.766-1.145,1.148-2.062,1.148
			c-0.746,0-1.347-0.267-1.802-0.8s-0.683-1.249-0.683-2.147c0-1.02,0.245-1.83,0.735-2.432s1.161-0.902,2.013-0.902
			c0.809,0,1.408,0.324,1.799,0.973h0.023v-0.832h0.961V160.727z M354.54,158.495v-0.885c0-0.477-0.161-0.885-0.483-1.225
			s-0.724-0.51-1.204-0.51c-0.594,0-1.059,0.216-1.395,0.647s-0.504,1.036-0.504,1.813c0,0.668,0.161,1.202,0.483,1.603
			s0.749,0.601,1.28,0.601c0.539,0,0.978-0.191,1.315-0.574S354.54,159.092,354.54,158.495z"/>
		<path fill="#2F2F2F" d="M362.214,158.448h-4.236c0.016,0.668,0.195,1.184,0.539,1.547s0.816,0.545,1.418,0.545
			c0.676,0,1.297-0.223,1.863-0.668v0.902c-0.527,0.383-1.225,0.574-2.092,0.574c-0.848,0-1.514-0.272-1.998-0.817
			s-0.727-1.312-0.727-2.3c0-0.934,0.265-1.694,0.794-2.282s1.187-0.882,1.972-0.882s1.393,0.254,1.822,0.762
			s0.645,1.213,0.645,2.115V158.448z M361.229,157.633c-0.004-0.555-0.138-0.986-0.401-1.295s-0.63-0.463-1.099-0.463
			c-0.453,0-0.838,0.162-1.154,0.486s-0.512,0.748-0.586,1.271H361.229z"/>
	</g>
	<g>
		<path fill="#2F2F2F" d="M564.909,160.868v-1.16c0.133,0.117,0.292,0.223,0.478,0.316s0.381,0.173,0.586,0.237
			s0.411,0.114,0.618,0.149s0.398,0.053,0.574,0.053c0.605,0,1.058-0.112,1.356-0.337s0.448-0.548,0.448-0.97
			c0-0.227-0.05-0.424-0.149-0.592s-0.237-0.321-0.413-0.46s-0.384-0.271-0.624-0.398s-0.499-0.261-0.776-0.401
			c-0.293-0.148-0.566-0.299-0.82-0.451s-0.475-0.32-0.662-0.504s-0.335-0.392-0.442-0.624s-0.161-0.505-0.161-0.817
			c0-0.383,0.084-0.716,0.252-0.999s0.389-0.517,0.662-0.7s0.585-0.32,0.935-0.41s0.706-0.135,1.069-0.135
			c0.828,0,1.432,0.1,1.811,0.299v1.107c-0.496-0.344-1.133-0.516-1.91-0.516c-0.215,0-0.43,0.022-0.645,0.067
			s-0.406,0.118-0.574,0.22s-0.305,0.232-0.41,0.393s-0.158,0.355-0.158,0.586c0,0.215,0.04,0.4,0.12,0.557s0.198,0.299,0.354,0.428
			s0.347,0.254,0.571,0.375s0.483,0.254,0.776,0.398c0.301,0.148,0.586,0.305,0.855,0.469s0.506,0.346,0.709,0.545
			s0.364,0.42,0.483,0.662s0.179,0.52,0.179,0.832c0,0.414-0.081,0.765-0.243,1.052s-0.381,0.521-0.656,0.7s-0.593,0.31-0.952,0.39
			s-0.738,0.12-1.137,0.12c-0.133,0-0.297-0.011-0.492-0.032s-0.395-0.053-0.598-0.094s-0.396-0.092-0.577-0.152
			S565.019,160.942,564.909,160.868z"/>
		<path fill="#2F2F2F" d="M574.014,161.149c-0.227,0.125-0.525,0.188-0.896,0.188c-1.051,0-1.576-0.586-1.576-1.758v-3.551h-1.031
			v-0.82h1.031v-1.465l0.961-0.311v1.775h1.512v0.82h-1.512v3.381c0,0.402,0.068,0.689,0.205,0.861s0.363,0.258,0.68,0.258
			c0.242,0,0.451-0.066,0.627-0.199V161.149z"/>
		<path fill="#2F2F2F" d="M577.673,161.348c-0.887,0-1.595-0.28-2.124-0.841s-0.794-1.304-0.794-2.229
			c0-1.008,0.275-1.795,0.826-2.361s1.295-0.85,2.232-0.85c0.895,0,1.593,0.275,2.095,0.826s0.753,1.314,0.753,2.291
			c0,0.957-0.271,1.724-0.812,2.3S578.583,161.348,577.673,161.348z M577.744,155.875c-0.617,0-1.105,0.21-1.465,0.63
			s-0.539,0.999-0.539,1.737c0,0.711,0.182,1.271,0.545,1.682s0.85,0.615,1.459,0.615c0.621,0,1.099-0.201,1.433-0.604
			s0.501-0.975,0.501-1.717c0-0.75-0.167-1.328-0.501-1.734S578.365,155.875,577.744,155.875z"/>
		<path fill="#2F2F2F" d="M585.271,156.18c-0.168-0.129-0.41-0.193-0.727-0.193c-0.41,0-0.753,0.193-1.028,0.58
			s-0.413,0.914-0.413,1.582v3.059h-0.961v-6h0.961v1.236h0.023c0.137-0.422,0.346-0.751,0.627-0.987s0.596-0.354,0.943-0.354
			c0.25,0,0.441,0.027,0.574,0.082V156.18z"/>
		<path fill="#2F2F2F" d="M590.575,161.207h-0.961v-0.938h-0.023c-0.418,0.719-1.033,1.078-1.846,1.078
			c-0.598,0-1.065-0.158-1.403-0.475s-0.507-0.736-0.507-1.26c0-1.121,0.66-1.773,1.98-1.957l1.799-0.252
			c0-1.02-0.412-1.529-1.236-1.529c-0.723,0-1.375,0.246-1.957,0.738v-0.984c0.59-0.375,1.27-0.562,2.039-0.562
			c1.41,0,2.115,0.746,2.115,2.238V161.207z M589.614,158.172l-1.447,0.199c-0.445,0.062-0.781,0.173-1.008,0.331
			s-0.34,0.438-0.34,0.841c0,0.293,0.104,0.532,0.313,0.718s0.487,0.278,0.835,0.278c0.477,0,0.87-0.167,1.181-0.501
			s0.466-0.757,0.466-1.269V158.172z"/>
		<path fill="#2F2F2F" d="M597.5,160.727c0,2.203-1.055,3.305-3.164,3.305c-0.742,0-1.391-0.141-1.945-0.422v-0.961
			c0.676,0.375,1.32,0.562,1.934,0.562c1.477,0,2.215-0.785,2.215-2.355V160.2h-0.023c-0.457,0.766-1.145,1.148-2.062,1.148
			c-0.746,0-1.347-0.267-1.802-0.8s-0.683-1.249-0.683-2.147c0-1.02,0.245-1.83,0.735-2.432s1.161-0.902,2.013-0.902
			c0.809,0,1.408,0.324,1.799,0.973h0.023v-0.832h0.961V160.727z M596.54,158.495v-0.885c0-0.477-0.161-0.885-0.483-1.225
			s-0.724-0.51-1.204-0.51c-0.594,0-1.059,0.216-1.395,0.647s-0.504,1.036-0.504,1.813c0,0.668,0.161,1.202,0.483,1.603
			s0.749,0.601,1.28,0.601c0.539,0,0.978-0.191,1.315-0.574S596.54,159.092,596.54,158.495z"/>
		<path fill="#2F2F2F" d="M604.214,158.448h-4.236c0.016,0.668,0.195,1.184,0.539,1.547s0.816,0.545,1.418,0.545
			c0.676,0,1.297-0.223,1.863-0.668v0.902c-0.527,0.383-1.225,0.574-2.092,0.574c-0.848,0-1.514-0.272-1.998-0.817
			s-0.727-1.312-0.727-2.3c0-0.934,0.265-1.694,0.794-2.282s1.187-0.882,1.972-0.882s1.393,0.254,1.822,0.762
			s0.645,1.213,0.645,2.115V158.448z M603.229,157.633c-0.004-0.555-0.138-0.986-0.401-1.295s-0.63-0.463-1.099-0.463
			c-0.453,0-0.838,0.162-1.154,0.486s-0.512,0.748-0.586,1.271H603.229z"/>
	</g>
	<g>
		<path fill="#2F2F2F" d="M35.625,16.624v3.377h-2.208v-9.803h3.459c2.47,0,3.705,1.041,3.705,3.124c0,0.984-0.354,1.78-1.063,2.389
			s-1.655,0.913-2.84,0.913H35.625z M35.625,11.894v3.056h0.868c1.176,0,1.764-0.516,1.764-1.545c0-1.008-0.588-1.511-1.764-1.511
			H35.625z"/>
		<path fill="#2F2F2F" d="M46.25,14.95c-0.26-0.142-0.563-0.212-0.909-0.212c-0.469,0-0.836,0.172-1.101,0.516
			c-0.264,0.345-0.396,0.812-0.396,1.405v3.343h-2.16v-7h2.16V14.3h0.027c0.342-0.948,0.957-1.422,1.846-1.422
			c0.228,0,0.406,0.027,0.533,0.082V14.95z"/>
		<path fill="#2F2F2F" d="M48.336,11.894c-0.365,0-0.663-0.108-0.896-0.325c-0.232-0.216-0.349-0.481-0.349-0.796
			c0-0.324,0.116-0.588,0.349-0.793s0.531-0.308,0.896-0.308c0.369,0,0.669,0.103,0.899,0.308s0.345,0.469,0.345,0.793
			c0,0.328-0.115,0.597-0.345,0.807C49.005,11.788,48.706,11.894,48.336,11.894z M49.403,20.001h-2.16v-7h2.16V20.001z"/>
		<path fill="#2F2F2F" d="M62.3,20.001h-2.153v-3.992c0-1.017-0.374-1.524-1.121-1.524c-0.355,0-0.645,0.152-0.868,0.458
			c-0.223,0.305-0.335,0.686-0.335,1.142v3.917h-2.16v-4.033c0-0.989-0.367-1.483-1.101-1.483c-0.369,0-0.664,0.146-0.885,0.438
			c-0.221,0.291-0.332,0.688-0.332,1.189v3.89h-2.16v-7h2.16v1.094h0.027c0.223-0.374,0.537-0.678,0.94-0.913
			c0.403-0.234,0.844-0.352,1.323-0.352c0.989,0,1.666,0.435,2.03,1.306c0.533-0.871,1.317-1.306,2.352-1.306
			c1.522,0,2.283,0.938,2.283,2.816V20.001z"/>
		<path fill="#2F2F2F" d="M69.865,20.001h-2.044v-1.005h-0.027c-0.469,0.783-1.165,1.176-2.085,1.176
			c-0.679,0-1.213-0.192-1.603-0.578c-0.39-0.385-0.584-0.898-0.584-1.541c0-1.358,0.804-2.143,2.413-2.352l1.9-0.253
			c0-0.766-0.415-1.148-1.244-1.148c-0.834,0-1.627,0.248-2.379,0.745v-1.627c0.301-0.155,0.712-0.292,1.234-0.41
			c0.522-0.119,0.997-0.178,1.425-0.178c1.996,0,2.994,0.995,2.994,2.987V20.001z M67.835,17.158v-0.472l-1.271,0.164
			c-0.702,0.091-1.053,0.407-1.053,0.95c0,0.246,0.085,0.447,0.256,0.604s0.402,0.236,0.694,0.236c0.406,0,0.736-0.141,0.991-0.421
			S67.835,17.585,67.835,17.158z"/>
		<path fill="#2F2F2F" d="M76.128,14.95c-0.26-0.142-0.563-0.212-0.909-0.212c-0.469,0-0.836,0.172-1.101,0.516
			c-0.264,0.345-0.396,0.812-0.396,1.405v3.343h-2.16v-7h2.16V14.3h0.027c0.342-0.948,0.957-1.422,1.846-1.422
			c0.228,0,0.406,0.027,0.533,0.082V14.95z"/>
		<path fill="#2F2F2F" d="M84.248,13.001l-2.844,7.561c-0.684,1.818-1.713,2.728-3.09,2.728c-0.524,0-0.955-0.06-1.292-0.178v-1.723
			c0.287,0.168,0.599,0.253,0.937,0.253c0.556,0,0.943-0.263,1.162-0.786l0.369-0.868l-2.844-6.986h2.393l1.306,4.259
			c0.082,0.264,0.146,0.576,0.191,0.937h0.027c0.041-0.265,0.116-0.572,0.226-0.923l1.319-4.272H84.248z"/>
		<path fill="#2F2F2F" d="M93.544,14.95c-0.26-0.142-0.563-0.212-0.909-0.212c-0.469,0-0.836,0.172-1.101,0.516
			c-0.264,0.345-0.396,0.812-0.396,1.405v3.343h-2.16v-7h2.16V14.3h0.027c0.342-0.948,0.957-1.422,1.846-1.422
			c0.228,0,0.406,0.027,0.533,0.082V14.95z"/>
		<path fill="#2F2F2F" d="M100.917,17.117H96.35c0.073,1.016,0.713,1.524,1.921,1.524c0.77,0,1.447-0.183,2.03-0.547v1.559
			c-0.647,0.346-1.488,0.52-2.522,0.52c-1.13,0-2.007-0.313-2.632-0.94c-0.625-0.626-0.937-1.5-0.937-2.621
			c0-1.162,0.337-2.083,1.012-2.762c0.674-0.68,1.504-1.019,2.488-1.019c1.021,0,1.811,0.303,2.369,0.909
			c0.558,0.605,0.837,1.429,0.837,2.468V17.117z M98.914,15.79c0-1.003-0.406-1.504-1.217-1.504c-0.346,0-0.646,0.144-0.899,0.431
			s-0.407,0.645-0.461,1.073H98.914z"/>
		<path fill="#2F2F2F" d="M109.176,19.202c0,1.299-0.376,2.305-1.128,3.018c-0.752,0.714-1.841,1.07-3.268,1.07
			c-0.943,0-1.691-0.135-2.242-0.403v-1.818c0.72,0.419,1.447,0.629,2.181,0.629c0.729,0,1.294-0.192,1.695-0.578
			c0.401-0.385,0.602-0.908,0.602-1.568v-0.554h-0.027c-0.492,0.783-1.219,1.176-2.181,1.176c-0.893,0-1.602-0.314-2.126-0.943
			s-0.786-1.473-0.786-2.529c0-1.186,0.292-2.126,0.875-2.823s1.351-1.046,2.304-1.046c0.852,0,1.49,0.328,1.914,0.984h0.027v-0.813
			h2.16V19.202z M107.043,16.638v-0.554c0-0.442-0.131-0.819-0.393-1.132c-0.262-0.312-0.603-0.468-1.022-0.468
			c-0.479,0-0.854,0.187-1.128,0.561c-0.273,0.373-0.41,0.899-0.41,1.579c0,0.583,0.13,1.045,0.39,1.384
			c0.26,0.34,0.615,0.51,1.066,0.51c0.447,0,0.808-0.172,1.083-0.517C106.905,17.658,107.043,17.203,107.043,16.638z"/>
		<path fill="#2F2F2F" d="M112.031,11.894c-0.365,0-0.663-0.108-0.896-0.325c-0.232-0.216-0.349-0.481-0.349-0.796
			c0-0.324,0.116-0.588,0.349-0.793s0.531-0.308,0.896-0.308c0.369,0,0.669,0.103,0.899,0.308s0.345,0.469,0.345,0.793
			c0,0.328-0.115,0.597-0.345,0.807C112.7,11.788,112.4,11.894,112.031,11.894z M113.097,20.001h-2.16v-7h2.16V20.001z"/>
		<path fill="#2F2F2F" d="M118.208,20.172c-1.167,0-2.084-0.327-2.751-0.981c-0.667-0.653-1.001-1.541-1.001-2.662
			c0-1.158,0.346-2.063,1.039-2.718c0.693-0.653,1.629-0.98,2.81-0.98c1.162,0,2.074,0.327,2.734,0.98
			c0.661,0.654,0.991,1.519,0.991,2.595c0,1.162-0.341,2.08-1.022,2.755C120.326,19.834,119.393,20.172,118.208,20.172z
			 M118.263,14.485c-0.51,0-0.907,0.175-1.189,0.526c-0.283,0.351-0.424,0.848-0.424,1.49c0,1.344,0.542,2.017,1.627,2.017
			c1.035,0,1.552-0.69,1.552-2.071C119.828,15.138,119.306,14.485,118.263,14.485z"/>
		<path fill="#2F2F2F" d="M130.17,20.001h-2.153v-3.89c0-1.085-0.387-1.627-1.162-1.627c-0.374,0-0.681,0.144-0.923,0.431
			s-0.362,0.651-0.362,1.094v3.992h-2.16v-7h2.16v1.107h0.027c0.515-0.853,1.265-1.278,2.249-1.278c1.549,0,2.324,0.961,2.324,2.885
			V20.001z"/>
		<path fill="#2F2F2F" d="M139.884,22.23h-1.764c-1.472-1.623-2.208-3.616-2.208-5.981c0-2.283,0.736-4.3,2.208-6.05h1.75
			c-1.381,1.832-2.071,3.849-2.071,6.05S138.494,20.443,139.884,22.23z"/>
		<path fill="#2F2F2F" d="M151.463,20.001h-2.153v-3.992c0-1.017-0.374-1.524-1.121-1.524c-0.355,0-0.645,0.152-0.868,0.458
			c-0.223,0.305-0.335,0.686-0.335,1.142v3.917h-2.16v-4.033c0-0.989-0.367-1.483-1.101-1.483c-0.369,0-0.664,0.146-0.885,0.438
			c-0.221,0.291-0.332,0.688-0.332,1.189v3.89h-2.16v-7h2.16v1.094h0.027c0.223-0.374,0.537-0.678,0.94-0.913
			c0.403-0.234,0.844-0.352,1.323-0.352c0.989,0,1.666,0.435,2.03,1.306c0.533-0.871,1.317-1.306,2.352-1.306
			c1.522,0,2.283,0.938,2.283,2.816V20.001z"/>
		<path fill="#2F2F2F" d="M159.824,20.001h-2.153v-1.066h-0.034c-0.533,0.824-1.247,1.237-2.14,1.237
			c-1.623,0-2.434-0.982-2.434-2.946v-4.225h2.153v4.033c0,0.988,0.392,1.483,1.176,1.483c0.387,0,0.697-0.136,0.93-0.407
			c0.232-0.271,0.349-0.639,0.349-1.104v-4.006h2.153V20.001z"/>
		<path fill="#2F2F2F" d="M163.752,20.001h-2.16V9.638h2.16V20.001z"/>
		<path fill="#2F2F2F" d="M169.743,19.919c-0.319,0.168-0.8,0.253-1.442,0.253c-1.522,0-2.283-0.791-2.283-2.372v-3.206h-1.135
			v-1.593h1.135v-1.511l2.153-0.615v2.126h1.572v1.593h-1.572v2.83c0,0.729,0.29,1.094,0.868,1.094c0.228,0,0.462-0.066,0.704-0.198
			V19.919z"/>
		<path fill="#2F2F2F" d="M172.121,11.894c-0.365,0-0.663-0.108-0.896-0.325c-0.232-0.216-0.349-0.481-0.349-0.796
			c0-0.324,0.116-0.588,0.349-0.793s0.531-0.308,0.896-0.308c0.369,0,0.669,0.103,0.899,0.308s0.345,0.469,0.345,0.793
			c0,0.328-0.115,0.597-0.345,0.807C172.79,11.788,172.49,11.894,172.121,11.894z M173.187,20.001h-2.16v-7h2.16V20.001z"/>
		<path fill="#2F2F2F" d="M178.583,17.021h-3.739V15.51h3.739V17.021z"/>
		<path fill="#2F2F2F" d="M186.042,20.001h-2.044v-1.005h-0.027c-0.469,0.783-1.165,1.176-2.085,1.176
			c-0.679,0-1.213-0.192-1.603-0.578c-0.39-0.385-0.584-0.898-0.584-1.541c0-1.358,0.804-2.143,2.413-2.352l1.9-0.253
			c0-0.766-0.415-1.148-1.244-1.148c-0.834,0-1.627,0.248-2.379,0.745v-1.627c0.301-0.155,0.712-0.292,1.234-0.41
			c0.522-0.119,0.997-0.178,1.425-0.178c1.996,0,2.994,0.995,2.994,2.987V20.001z M184.012,17.158v-0.472l-1.271,0.164
			c-0.702,0.091-1.053,0.407-1.053,0.95c0,0.246,0.085,0.447,0.256,0.604s0.402,0.236,0.694,0.236c0.406,0,0.736-0.141,0.991-0.421
			S184.012,17.585,184.012,17.158z"/>
		<path fill="#2F2F2F" d="M193.288,20.001h-6.282v-0.896l3.514-4.512h-3.165v-1.593h5.906v1.066l-3.329,4.341h3.356V20.001z"/>
		<path fill="#2F2F2F" d="M195.076,22.23h-1.75c1.395-1.777,2.092-3.771,2.092-5.981c0-2.192-0.697-4.209-2.092-6.05h1.764
			c1.477,1.754,2.215,3.771,2.215,6.05C197.305,18.595,196.562,20.589,195.076,22.23z"/>
	</g>
</g>
</svg>
