<svg xmlns="http://www.w3.org/2000/svg" viewBox="0 0 298 110">
  <title>8 - access-management</title>
  <g id="background_blue" data-name="background blue">
    <rect y="-0.181" width="298" height="110" fill="#e4edf1"/>
  </g>
  <g id="Shapes">
    <g>
      <g>
        <path d="M132,21.818H78.488a3.883,3.883,0,0,0-3.82,3.915V90.967a3.884,3.884,0,0,0,3.82,3.915H132a3.884,3.884,0,0,0,3.82-3.915V25.733A3.883,3.883,0,0,0,132,21.818Z" fill="#fff"/>
        <path d="M135.82,25.225V36.113H74.668V25.225a3.335,3.335,0,0,1,3.256-3.407h54.64A3.335,3.335,0,0,1,135.82,25.225Z" fill="#e5e5e5"/>
        <path d="M78.488,95.819a4.836,4.836,0,0,1-4.757-4.861V25.733a4.832,4.832,0,0,1,4.742-4.853h53.542a4.836,4.836,0,0,1,4.743,4.861V90.967a4.833,4.833,0,0,1-4.743,4.852Zm0-73.064a2.951,2.951,0,0,0-2.882,2.97V90.967a2.954,2.954,0,0,0,2.9,2.977H132a2.953,2.953,0,0,0,2.883-2.97V25.733a2.958,2.958,0,0,0-2.892-2.978Z" fill="#2e6ca4"/>
        <rect x="85.787" y="21.023" width="38.915" height="9.53" fill="#fff"/>
        <path d="M116.251,21.023a12.11,12.11,0,0,0-.849-4.518A10.993,10.993,0,0,0,101,10.643a11.407,11.407,0,0,0-3.5,2.383,11.177,11.177,0,0,0-2.383,3.5,12.125,12.125,0,0,0-.826,4.5H87.431v7.942h35.682V21.023Zm-10.975-.1a3.574,3.574,0,1,1,3.428-3.714c0,.047,0,.094,0,.14a3.5,3.5,0,0,1-3.43,3.574Z" fill="#2bc7f4"/>
        <polygon points="89.44 59.262 81.232 51.055 82.558 49.729 89.44 56.611 105.931 40.12 107.257 41.445 89.44 59.262" fill="#2e6ca4"/>
        <polygon points="89.44 81.222 81.232 73.005 82.558 71.681 89.44 78.57 105.931 62.079 107.257 63.404 89.44 81.222" fill="#2e6ca4"/>
        <rect x="107.229" y="51.059" width="22.237" height="1.875" fill="#2e6ca4"/>
        <rect x="107.229" y="74.09" width="22.237" height="1.875" fill="#2e6ca4"/>
      </g>
      <path d="M160.122,62.321H144.873a1.9,1.9,0,0,0-1.906,1.874v6.568a1.9,1.9,0,0,0,1.906,1.882h-.317V63.909h15.883v8.736h-.317a1.9,1.9,0,0,0,1.906-1.874V64.195A1.9,1.9,0,0,0,160.122,62.321Z" fill="#2e6ca4"/>
      <path d="M172.638,69.468H132.357a4.566,4.566,0,0,0-4.479,4.638V97.479a1.358,1.358,0,0,0,1.342,1.374h46.547a1.3,1.3,0,0,0,.7-.175,1.444,1.444,0,0,0,.643-1.2V74.106A4.566,4.566,0,0,0,172.638,69.468Z" fill="#fff"/>
      <path d="M175.813,99.791H129.15l-.018,0a2.3,2.3,0,0,1-2.192-2.319V74.106a5.511,5.511,0,0,1,5.4-5.575h40.317a5.517,5.517,0,0,1,5.39,5.59V97.479a2.379,2.379,0,0,1-1.061,1.979A2.279,2.279,0,0,1,175.813,99.791Zm-46.548-1.876h46.5a.368.368,0,0,0,.227-.047.5.5,0,0,0,.178-.391V74.106a3.641,3.641,0,0,0-3.545-3.7H132.358a3.633,3.633,0,0,0-3.543,3.686V97.479a.425.425,0,0,0,.416.436Z" fill="#2e6ca4"/>
      <rect x="128.672" y="82.175" width="47.651" height="3.971" fill="#bad80a"/>
      <g>
        <rect x="137.408" y="78.998" width="6.353" height="11.047" rx="1.588" ry="1.588" fill="#fff"/>
        <path d="M142.173,90.983H139a2.529,2.529,0,0,1-2.526-2.526v-7.87A2.529,2.529,0,0,1,139,78.061h3.176a2.529,2.529,0,0,1,2.526,2.526v7.87A2.529,2.529,0,0,1,142.173,90.983ZM139,79.936a.652.652,0,0,0-.651.651v7.87a.652.652,0,0,0,.651.651h3.176a.652.652,0,0,0,.651-.651v-7.87a.652.652,0,0,0-.651-.651Z" fill="#2e6ca4"/>
      </g>
      <rect x="139.647" y="81.381" width="1.875" height="6.354" fill="#556a8a"/>
      <g>
        <rect x="161.234" y="78.998" width="6.353" height="11.047" rx="1.588" ry="1.588" fill="#fff"/>
        <path d="M166,90.983h-3.177a2.529,2.529,0,0,1-2.526-2.526v-7.87a2.529,2.529,0,0,1,2.526-2.526H166a2.528,2.528,0,0,1,2.525,2.526v7.87A2.528,2.528,0,0,1,166,90.983Zm-3.177-11.047a.652.652,0,0,0-.651.651v7.87a.652.652,0,0,0,.651.651H166a.651.651,0,0,0,.65-.651v-7.87a.651.651,0,0,0-.65-.651Z" fill="#2e6ca4"/>
      </g>
      <rect x="163.473" y="81.381" width="1.875" height="6.354" fill="#2e6ca4"/>
      <g>
        <path d="M166.594,55.117l.31-2.43c.175-.913.445-1.247,1.04-1.318l1.279-.6a1.509,1.509,0,0,1,1.668.231l1.858,1.723a.953.953,0,0,0,1.183-.135l1.327-1.39a1.153,1.153,0,0,0,.159-1.215l-1.708-1.9a1.334,1.334,0,0,1-.048-1.588,13.364,13.364,0,0,1,.58-1.414c.087-.477.358-.794,1.239-.9l2.526-.151a.954.954,0,0,0,.651-.8l.047-2.128a.953.953,0,0,0-.691-.794L175.576,40c-1.048,0-1.294-.437-1.453-.873-.334-.8-1.136-1.875-.191-2.828l1.589-1.977a1.311,1.311,0,0,0,.151-1.223l-1.549-1.461a1.158,1.158,0,0,0-1.223-.151L171,33.2a1.59,1.59,0,0,1-1.779.215c-.334-.247-1.922-.961-2.017-1.843l-.445-2.494h0a.731.731,0,0,0-.659-.794l-2.121-.111a.953.953,0,0,0-.794.691l-.111,2.541c-.064.6-1.191,1.509-1.191,1.509-1.589.929-2.383.588-2.835.175l-1.859-1.739a.951.951,0,0,0-1.183.135L154.5,32.714a1.071,1.071,0,0,0,0,1.342l1.588,1.763a2.375,2.375,0,0,1,.262,1.771c-.246.326-1.334,2.176-1.985,2.168l-2.383.278h-.055a.731.731,0,0,0-.792.664l0,.035-.048,2.1a1.182,1.182,0,0,0,.858.945l2.263.183c1.025,0,1.882,2.327,1.882,2.327a1.207,1.207,0,0,1-.127,1.517l-1.533,1.97a.993.993,0,0,0-.15,1.223l1.548,1.461a1.121,1.121,0,0,0,1.025.04l2.065-1.589a1.667,1.667,0,0,1,1.588-.333c1.946.794,2.16,1.35,2.136,1.985l.286,2.383a.954.954,0,0,0,.866.953l1.938-.08a.953.953,0,0,0,.794-.691M159.7,42.021v-.127a5.058,5.058,0,0,1,5.272-4.836h0a5,5,0,0,1,5,4.932v.476a4.86,4.86,0,0,1-5.082,4.622,5.233,5.233,0,0,1-5.1-5.082" fill="#bad80a"/>
        <path d="M177.983,63.583l4.376.191a2.431,2.431,0,0,1,2.43,1.318c.508,1.652,1.3,4.074.587,4.861l-2.191,3.335a1.587,1.587,0,0,0,.071,2.16l2.6,2c.548.357.794.436,1.31.055l1.867-1.485,1.667-1.35c1.462-1.271,6.8,1.136,6.942,2.152l.516,4.233a1.588,1.588,0,0,0,1.668,1.112l3.176-.3a1.936,1.936,0,0,0,1.5-1.4l-.119-4.281a2.224,2.224,0,0,1,1.668-2.105c.739-.452,3.606-1.834,4.844-1l3.423,2.541a1.591,1.591,0,0,0,1.724-.349l2.374-2.629a1.587,1.587,0,0,0,0-1.819l-2.779-3.049c-1.335-1.136-1.184-1.954-.922-2.693.517-3.049,1.446-3.558,2.82-3.836l4.161-.833a2.191,2.191,0,0,0,1.485-1.422l-.405-3.542a1.946,1.946,0,0,0-1.39-1.525l-4.3.127a2.613,2.613,0,0,1-2.51-1.652c-.151-.683-1.874-2.851-.587-4.558l2.128-3.677h0a1.24,1.24,0,0,0,0-1.74l-2.382-2.088-.294-.254a1.587,1.587,0,0,0-1.8,0l-2.915,3.176c-.73.707-3.176.636-3.176.636-3.265-.088-3.685-1.819-3.828-2.859l-.485-4.178a1.589,1.589,0,0,0-1.668-1.112l-3.264-.055a1.8,1.8,0,0,0-1.453,1.723l.087,3.971a3.97,3.97,0,0,1-1.588,2.565c-.659.143-1.279.612-1.985.794a2.383,2.383,0,0,1-2.915-.127L185.114,42.4s0-.048-.063-.064a1.238,1.238,0,0,0-1.739.064l-2.383,2.652a1.955,1.955,0,0,0,.079,2.137l2.693,2.7c1.286,1.143-.1,5.035-.1,5.035a2.019,2.019,0,0,1-1.811,1.8l-4.09.881c-1.08.2-1.589,1.041-1.525,1.4C176.323,58.874,176.236,63.274,177.983,63.583Zm17.742,2.756a8.056,8.056,0,0,1-1.589-1.136,8.554,8.554,0,0,1-1-11.865h0l.15-.15a8.586,8.586,0,0,1,12-.517s.063.048.071.072a8.156,8.156,0,0,1,.85,11.444c-.159.206-.334.405-.509.6a8.267,8.267,0,0,1-9.974,1.548Z" fill="#fff"/>
        <path d="M177.983,63.583l4.376.191a2.431,2.431,0,0,1,2.43,1.318c.508,1.652,1.3,4.074.587,4.861l-2.191,3.335a1.587,1.587,0,0,0,.071,2.16l2.6,2c.548.357.794.436,1.31.055l1.867-1.485,6.726-9.689a8.116,8.116,0,0,1-1.588-1.135,8.553,8.553,0,0,1-1-11.865h0l.151-.151a8.585,8.585,0,0,1,12-.517s.064.048.072.072l8.482-12.413-.294-.254a1.587,1.587,0,0,0-1.8,0l-2.915,3.176c-.73.707-3.176.636-3.176.636-3.265-.088-3.685-1.819-3.828-2.859l-.485-4.178a1.588,1.588,0,0,0-1.668-1.111l-3.264-.056a1.8,1.8,0,0,0-1.453,1.723l.087,3.971a3.967,3.967,0,0,1-1.588,2.565c-.659.143-1.279.612-1.985.795a2.384,2.384,0,0,1-2.915-.127l-3.344-2.224s0-.048-.063-.064a1.238,1.238,0,0,0-1.739.064l-2.383,2.652a1.955,1.955,0,0,0,.079,2.137l2.693,2.7c1.286,1.144-.1,5.035-.1,5.035a2.019,2.019,0,0,1-1.811,1.8l-4.09.881c-1.08.2-1.589,1.041-1.525,1.4C176.323,58.874,176.236,63.274,177.983,63.583Z" fill="#e5e5e5"/>
        <path d="M199.654,83.12a2.541,2.541,0,0,1-2.41-1.767l-.036-.17-.491-4.086a9.2,9.2,0,0,0-4.223-1.793,1.788,1.788,0,0,0-1.188.1l-3.642,2.876a1.82,1.82,0,0,1-2.392-.075l-2.687-2.1a2.536,2.536,0,0,1-.17-3.383l2.252-3.406c.291-.5-.442-2.858-.719-3.747l-.039-.127a1.447,1.447,0,0,0-1.444-.743l-.078.009-4.572-.207c-2.308-.4-2.467-4.275-2.454-5.581a1.76,1.76,0,0,1,.323-1.131,2.984,2.984,0,0,1,1.963-1.249l3.979-.841c.782-.735,2.059-4.553,1.556-5.27l-2.833-2.835a2.932,2.932,0,0,1-.115-3.157l.11-.151,2.382-2.644a2.174,2.174,0,0,1,3.072-.133l.025.025,3.2,2.119a12.852,12.852,0,0,0,5.086-2.568l-.083-3.735a2.765,2.765,0,0,1,2.21-2.671l.1-.019,3.316.056a2.536,2.536,0,0,1,2.592,1.76l.038.175.484,4.2c.094.716.253,1.938,2.926,2.022a5.437,5.437,0,0,0,2.5-.387l3.019-3.267a2.54,2.54,0,0,1,2.867,0l.095.076,2.644,2.383a2.18,2.18,0,0,1,.131,3l-2.145,3.68c-.6.8-.156,1.836.393,2.921a5.1,5.1,0,0,1,.342.768,1.73,1.73,0,0,0,1.595,1.021l4.429-.132.136.038a2.877,2.877,0,0,1,2.069,2.244l.431,3.836-.072.2a3.138,3.138,0,0,1-2.161,1.991l-4.215.855c-.906.182-1.621.326-2.081,3.072l-.044.166c-.169.464-.314.864.636,1.661l.09.087,2.849,3.135a2.513,2.513,0,0,1-.038,2.993l-2.433,2.707a2.529,2.529,0,0,1-2.785.588l-.2-.114L210.405,73.9c-.9-.216-4.467,1.637-5.09,2.458l.126,4.244-.037.136a2.892,2.892,0,0,1-2.252,2.062l-3.259.305C199.813,83.116,199.733,83.12,199.654,83.12Zm-.6-2.267a.676.676,0,0,0,.659.389l3.181-.294a.985.985,0,0,0,.661-.594l-.122-4.124c.021-.905,1.05-1.882,3.06-2.953,1.306-.7,3.682-1.748,4.9-.97l3.349,2.494a.652.652,0,0,0,.621-.172l2.35-2.612a.632.632,0,0,0-.017-.672l-2.693-2.956c-1.634-1.4-1.5-2.655-1.173-3.613.567-3.293,1.732-4.153,3.546-4.518l4.16-.842a1.232,1.232,0,0,0,.743-.62l-.369-3.3a.982.982,0,0,0-.6-.678l-4.124.122a3.59,3.59,0,0,1-3.409-2.243l-.039-.122a4.025,4.025,0,0,0-.216-.451c-.5-1-1.55-3.063-.253-4.847l2.257-3.824a.3.3,0,0,0,0-.415l-2.554-2.3a.65.65,0,0,0-.627-.017l-2.819,3.08c-1,.952-3.238.963-3.893.947-2.836-.089-4.427-1.323-4.732-3.667l-.474-4.105a.648.648,0,0,0-.66-.388l-.053.005-3.2-.054a.868.868,0,0,0-.618.811l.089,4.022-.015.09c-.277,1.6-4.6,3.445-5.384,3.719-1.256.439-2.059.458-2.578.053L184.56,42.92a.318.318,0,0,0-.244-.111.288.288,0,0,0-.2.094l-2.3,2.556a1.054,1.054,0,0,0,.04,1l2.638,2.622c1.054.96.655,3.089.129,4.7-.346,1.059-1.277,3.511-2.533,3.732l-4.074.861a1.119,1.119,0,0,0-.773.46v.034c-.029,1.9.444,3.615.864,3.771l4.22.183a3.322,3.322,0,0,1,3.3,1.847l.116.337c.761,2.447,1.271,4.413.372,5.5l-2.232,3.382a.654.654,0,0,0,0,.852L186.4,76.7c.053.038.093.065.124.084.015-.009.034-.021.055-.036l3.532-2.791c1.209-1.059,3.575-.41,4.874.073.792.295,3.391,1.359,3.577,2.685Z" fill="#00bcf2"/>
        <path d="M199.671,68.336a9.4,9.4,0,0,1-1.348-18.692h0a9.4,9.4,0,1,1,2.736,18.59A9.574,9.574,0,0,1,199.671,68.336ZM198.6,51.5a7.521,7.521,0,1,0,8.535,6.346A7.471,7.471,0,0,0,198.6,51.5Z" fill="#00bcf2"/>
      </g>
      <rect x="128.672" y="92.689" width="47.494" height="4.692" fill="#e5e5e5"/>
    </g>
  </g>
</svg>
