<svg xmlns="http://www.w3.org/2000/svg" viewBox="0 0 298 110">
  <title>8 - always-encrypted</title>
  <g id="background_blue" data-name="background blue">
    <rect y="-0.181" width="298" height="110" fill="#e4edf1"/>
  </g>
  <g id="Shapes">
    <g>
      <g>
        <g>
          <path d="M191.5,54.819a42.493,42.493,0,1,1-42.5-42.5A42.282,42.282,0,0,1,191.5,54.819Z" fill="#bad80a" fill-rule="evenodd"/>
          <path d="M191.5,54.819a42.282,42.282,0,0,1-12.658,30.23L118.751,24.976A42.493,42.493,0,0,1,191.5,54.819Z" fill="#c6df33" fill-rule="evenodd"/>
        </g>
        <g>
          <rect x="135.515" y="23.381" width="25.961" height="35.124" rx="3.054" ry="3.054" fill="none" stroke="#556a8a" stroke-miterlimit="10" stroke-width="0.862"/>
          <path d="M169.112,77.646a1.884,1.884,0,0,1-1.9,1.867H128.253a1.884,1.884,0,0,1-1.9-1.867V47.782a1.883,1.883,0,0,1,1.9-1.866h38.959a1.883,1.883,0,0,1,1.9,1.866Z" fill="#fff"/>
          <path d="M169.7,48.017V78.694L137.043,46.038H167.72A1.985,1.985,0,0,1,169.7,48.017Z" fill="#e5e5e5"/>
          <path d="M169.112,77.646a1.884,1.884,0,0,1-1.9,1.867H128.253a1.884,1.884,0,0,1-1.9-1.867V47.782a1.883,1.883,0,0,1,1.9-1.866h38.959a1.883,1.883,0,0,1,1.9,1.866Z" fill="none" stroke="#556a8a" stroke-miterlimit="10" stroke-width="0.862"/>
        </g>
      </g>
      <path d="M157.492,55.75a6.272,6.272,0,0,0-4.52,1.62l-4.34,3.85-3.67-3.2a8.409,8.409,0,0,0-5.37-2.27,7.035,7.035,0,0,0,0,14.07,8.257,8.257,0,0,0,5.48-2.33l3.56-3.15,4.07,3.56a7,7,0,1,0,4.79-12.15Zm-14,10a6.006,6.006,0,0,1-3.95,1.75,4.715,4.715,0,0,1,0-9.43,6.148,6.148,0,0,1,3.85,1.69l3.45,3Zm14,1.75a4.706,4.706,0,0,1-3.24-1.29h0l-3.87-3.39,4.19-3.69h0a4,4,0,0,1,2.93-1,4.715,4.715,0,1,1,0,9.43Z" fill="#556a8a"/>
    </g>
  </g>
</svg>
