<svg xmlns="http://www.w3.org/2000/svg" viewBox="0 0 298 110">
  <title>8 - dynamic-data-masking</title>
  <g id="background_blue" data-name="background blue">
    <rect y="-0.181" width="298" height="110" fill="#e4edf1"/>
  </g>
  <g id="Shapes">
    <g>
      <path d="M86.49,93.734H210.905v-77.2H86.49Z" fill="#fff"/>
      <path d="M83.6,14.884a1.15,1.15,0,0,1,1.152-1.146H213.012a1.149,1.149,0,0,1,1.152,1.146V97.593a1.148,1.148,0,0,1-1.152,1.145H84.749A1.148,1.148,0,0,1,83.6,97.593Zm6.224,77.693H207.942V20.039H89.821Z" fill="#0078d7"/>
      <path d="M100.066,87.878h98.149V86.845H100.066Z" fill="#0078d7"/>
      <path d="M151.8,83.591h6.862V55.554H151.8Z" fill="#acd1ef"/>
      <path d="M164.729,83.591h6.862V55.554h-6.862Z" fill="#acd1ef"/>
      <path d="M177.66,83.591h6.862V55.554H177.66Z" fill="#acd1ef"/>
      <path d="M190.591,83.591h6.861V55.554h-6.861Z" fill="#acd1ef"/>
      <path d="M100.207,83.591h6.862V55.554h-6.862Z" fill="#acd1ef"/>
      <path d="M113.137,83.591H120V55.554h-6.862Z" fill="#acd1ef"/>
      <path d="M126.068,83.591h6.861V55.554h-6.861Z" fill="#acd1ef"/>
      <path d="M139,83.591h6.862V55.554H139Z" fill="#acd1ef"/>
      <path d="M151.8,83.591h6.862V57.2H151.8Z" fill="#0078d7"/>
      <path d="M164.729,83.591h6.862V58.965h-6.862Z" fill="#0078d7"/>
      <path d="M177.66,83.591h6.862V61.7H177.66Z" fill="#0078d7"/>
      <path d="M190.591,83.591h6.861v-23h-6.861Z" fill="#0078d7"/>
      <path d="M100.207,83.591h6.862V69.72h-6.862Z" fill="#0078d7"/>
      <path d="M113.137,83.591H120V67.215h-6.862Z" fill="#0078d7"/>
      <path d="M126.068,83.591h6.861V63.385h-6.861Z" fill="#0078d7"/>
      <path d="M139,83.591h6.862v-25.8H139Z" fill="#0078d7"/>
      <path d="M193.131,30.445h-29.7a.689.689,0,1,1,0-1.378h29.7a.689.689,0,1,1,0,1.378Z" fill="#acd1ef"/>
      <path d="M193.132,36.56H179.515a.689.689,0,1,1,0-1.378h13.617a.689.689,0,1,1,0,1.378Z" fill="#acd1ef"/>
      <path d="M193.132,42.465H173.79a.689.689,0,1,1,0-1.378h19.342a.689.689,0,1,1,0,1.378Z" fill="#acd1ef"/>
      <path d="M179.207,33.657v1.7H154.391v1.033h24.816v2.33h1.039V33.657Z" fill="#0078d7"/>
      <path d="M173.429,39.193v2.066H154.381V30.215h7.653v2.072h1.039V27.225h-1.039v1.957h-7.653V26.8h-1.039v17.5h1.039V42.292h19.048v1.962h1.039V39.193Z" fill="#0078d7"/>
      <path d="M101.487,43.174a.7.7,0,0,1-.5-.214.687.687,0,0,1,.023-.974l10.354-9.827,8.89,6.969L130.287,27.7l10.655,13.479a.686.686,0,0,1-.117.967.7.7,0,0,1-.973-.115l-9.621-12.172-9.8,11.164-8.98-7.04-9.484,9A.7.7,0,0,1,101.487,43.174Z" fill="#acd1ef"/>
      <path d="M140.4,44.174a2.571,2.571,0,1,1,2.584-2.571A2.581,2.581,0,0,1,140.4,44.174Z" fill="#fff"/>
      <path d="M140.4,38.515a3.088,3.088,0,1,0,3.1,3.087A3.1,3.1,0,0,0,140.4,38.515Zm0,1.033a2.055,2.055,0,1,1-2.066,2.054A2.062,2.062,0,0,1,140.4,39.548Z" fill="#0078d7"/>
      <path d="M101.633,45.038a2.571,2.571,0,1,1,2.585-2.571A2.582,2.582,0,0,1,101.633,45.038Z" fill="#fff"/>
      <path d="M101.633,39.379a3.088,3.088,0,1,0,3.1,3.087A3.1,3.1,0,0,0,101.633,39.379Zm0,1.033a2.055,2.055,0,1,1-2.065,2.054A2.062,2.062,0,0,1,101.633,40.412Z" fill="#0078d7"/>
      <path d="M120.263,42.452a2.571,2.571,0,1,1,2.585-2.571A2.581,2.581,0,0,1,120.263,42.452Z" fill="#fff"/>
      <path d="M120.262,36.793a3.088,3.088,0,1,0,3.1,3.087A3.1,3.1,0,0,0,120.262,36.793Zm0,1.034A2.054,2.054,0,1,1,118.2,39.88,2.061,2.061,0,0,1,120.262,37.827Z" fill="#0078d7"/>
      <path d="M111.459,35.8a2.571,2.571,0,1,1,2.585-2.57A2.58,2.58,0,0,1,111.459,35.8Z" fill="#fff"/>
      <path d="M111.46,30.139a3.088,3.088,0,1,0,3.1,3.087A3.1,3.1,0,0,0,111.46,30.139Zm0,1.033a2.055,2.055,0,1,1-2.066,2.054A2.062,2.062,0,0,1,111.46,31.172Z" fill="#0078d7"/>
      <path d="M130.386,31.549a2.571,2.571,0,1,1,2.586-2.571A2.582,2.582,0,0,1,130.386,31.549Z" fill="#fff"/>
      <path d="M130.387,25.89a3.088,3.088,0,1,0,3.1,3.087A3.1,3.1,0,0,0,130.387,25.89Zm0,1.034a2.054,2.054,0,1,1-2.065,2.053A2.062,2.062,0,0,1,130.387,26.924Z" fill="#0078d7"/>
    </g>
    <rect x="132.524" y="52.943" width="69.95" height="37.341" fill="#737373" opacity="0.85"/>
  </g>
</svg>
