<svg xmlns="http://www.w3.org/2000/svg" viewBox="0 0 298 110">
  <title>8 - permissions</title>
  <g id="background_blue" data-name="background blue">
    <rect y="-0.181" width="298" height="110" fill="#e4edf1"/>
  </g>
  <g id="Shapes">
    <g>
      <g>
        <path d="M181.835,18.718a1.293,1.293,0,0,0-1.209-1.153H178.8a22.808,22.808,0,0,1-12.77,4.219c-6.694,0-10.955-3.642-14.063-6.061-.6-.605-1.224-1.744-1.829-2.349h-2.362c-.6.6-1.21,1.744-1.829,2.349-3.037,2.39-7.3,6.061-13.374,6.061a24.6,24.6,0,0,1-13.388-4.219h-1.814c-.619,0-.619.605-1.224,1.209-10.941,29.055,3.038,62.99,32.233,77.546h1.829C178.8,81.764,192.791,47.829,181.835,18.718Z" fill="#55d2f6"/>
        <path d="M150.207,96.32H149V13.346h1.21c.6.605,1.223,1.744,1.828,2.348,3.038,2.419,7.3,6.09,13.993,6.09a22.808,22.808,0,0,0,12.77-4.219h1.828a1.293,1.293,0,0,1,1.209,1.209C192.791,47.829,178.8,81.764,150.207,96.32Z" fill="#ace8f9"/>
        <path d="M149,96.32h-.605c-29.209-14.556-43.188-48.491-32.247-77.6.605-.605.605-1.209,1.224-1.209H119.2a24.649,24.649,0,0,0,13.388,4.219c6.09,0,10.337-3.643,13.389-6.062.6-.6,1.223-1.744,1.828-2.348h2.433c.6.6,1.223,1.744,1.828,2.348,3.01,2.447,7.271,6.118,13.965,6.118a22.844,22.844,0,0,0,12.77-4.219h1.828a1.307,1.307,0,0,1,1.223,1.209c10.942,29.055-3.051,62.99-31.642,77.546Z" fill="none" stroke="#2e6ca4" stroke-miterlimit="10" stroke-width="2"/>
      </g>
      <g>
        <circle cx="148.997" cy="42.373" r="12.151" fill="#e5e5e5" stroke="#2e6ca4" stroke-miterlimit="10" stroke-width="2"/>
        <path d="M130.012,72.75a18.619,18.619,0,0,1,18.95-18.283H149a18.62,18.62,0,0,1,18.985,18.248v.035" fill="#e5e5e5" stroke="#2e6ca4" stroke-miterlimit="10" stroke-width="2"/>
      </g>
    </g>
  </g>
</svg>
