<svg xmlns="http://www.w3.org/2000/svg" viewBox="0 0 298 110">
  <title>8 - row-level-security</title>
  <g id="background_blue" data-name="background blue">
    <rect x="1.281" y="-0.181" width="298" height="110" fill="#e4edf1"/>
  </g>
  <g id="Shapes">
    <g>
      <g>
        <g>
          <path d="M199.926,29.214A17.926,17.926,0,1,1,182,11.286,17.837,17.837,0,0,1,199.926,29.214Z" fill="#bad80a" fill-rule="evenodd"/>
          <path d="M199.926,29.214a17.837,17.837,0,0,1-5.34,12.753L169.237,16.625a17.926,17.926,0,0,1,30.689,12.589Z" fill="#c6df33" fill-rule="evenodd"/>
        </g>
        <g>
          <rect x="176.309" y="15.952" width="10.952" height="14.817" rx="3.054" ry="3.054" fill="none" stroke="#556a8a" stroke-miterlimit="10" stroke-width="0.862"/>
          <path d="M190.482,38.844a.794.794,0,0,1-.8.787H173.245a.794.794,0,0,1-.8-.787v-12.6a.8.8,0,0,1,.8-.788H189.68a.8.8,0,0,1,.8.788Z" fill="#fff"/>
          <path d="M190.729,26.345V39.286L176.953,25.51h12.941A.838.838,0,0,1,190.729,26.345Z" fill="#e5e5e5"/>
          <path d="M190.482,38.844a.794.794,0,0,1-.8.787H173.245a.794.794,0,0,1-.8-.787v-12.6a.8.8,0,0,1,.8-.788H189.68a.8.8,0,0,1,.8.788Z" fill="none" stroke="#556a8a" stroke-miterlimit="10" stroke-width="0.862"/>
        </g>
      </g>
      <g>
        <rect x="100.08" y="29.571" width="59.161" height="71.714" fill-opacity="0"/>
        <rect x="102.966" y="29.571" width="53.966" height="71.714" fill-opacity="0"/>
        <path d="M102.966,39.383V91.474c0,5.339,12.121,9.812,26.983,9.812v-61.9Z" fill="#0072c6"/>
        <path d="M129.516,101.286h.433c15.007,0,26.983-4.329,26.983-9.812V39.383H129.516v61.9Z" fill="#0072c6"/>
        <path d="M129.516,101.286h.433c15.007,0,26.983-4.329,26.983-9.812V39.383H129.516v61.9Z" fill="#fff" opacity="0.15" style="isolation: isolate"/>
        <path d="M156.932,39.383c0,5.339-12.121,9.812-26.983,9.812s-26.983-4.329-26.983-9.812c0-5.339,12.121-9.812,26.983-9.812S156.932,34.044,156.932,39.383Z" fill="#fff"/>
        <path d="M151.449,38.95c0,3.463-9.668,6.349-21.5,6.349s-21.5-2.886-21.5-6.349c0-3.607,9.668-6.493,21.5-6.493S151.449,35.343,151.449,38.95Z" fill="#7fba00"/>
        <path d="M146.976,42.846c2.886-1.154,4.473-2.453,4.473-3.9,0-3.607-9.668-6.493-21.5-6.493s-21.5,2.886-21.5,6.493c0,1.443,1.732,2.886,4.473,3.9,3.9-1.587,10.1-2.453,17.027-2.453C136.875,40.249,143.08,41.259,146.976,42.846Z" fill="#b8d432"/>
        <rect x="100.08" y="54.101" width="59.161" height="31.745" fill-opacity="0"/>
      </g>
      <g>
        <rect x="151.751" y="61.405" width="37.021" height="24.681" fill="#fff"/>
        <path d="M189.8,87.114H150.722V60.377H189.8Zm-37.021-2.056h34.964V62.434H152.779Z" fill="#2e6ca4"/>
        <rect x="151.751" y="68.604" width="38.049" height="2.057" fill="#2e6ca4"/>
        <rect x="151.751" y="76.831" width="38.049" height="2.057" fill="#2e6ca4"/>
        <rect x="163.063" y="61.405" width="2.057" height="24.681" fill="#2e6ca4"/>
        <rect x="175.403" y="61.405" width="2.057" height="24.681" fill="#2e6ca4"/>
        <rect x="152.779" y="62.434" width="34.964" height="6.17" fill="#bad80a"/>
      </g>
    </g>
  </g>
</svg>
