<svg xmlns="http://www.w3.org/2000/svg" xmlns:xlink="http://www.w3.org/1999/xlink" viewBox="0 0 298 110">
  <defs>
    <symbol id="IZ_Disc" data-name="IZ_Disc" viewBox="0 0 50 42.504">
      <path d="M50,33.45c0,5-11.194,9.054-25,9.054S0,38.451,0,33.45V28.57H50Z" fill="#7fba00"/>
      <path d="M50,28.57c0,5-11.194,9.054-25,9.054S0,33.571,0,28.57s11.193-9.054,25-9.054S50,23.57,50,28.57" fill="#b8d432"/>
      <path d="M33.013,28.049c0,1.33-3.588,2.407-8.014,2.407s-8.015-1.077-8.015-2.407S20.573,25.642,25,25.642s8.014,1.078,8.014,2.407" fill="#7fba00"/>
      <path d="M43.071,22.367a48.03,48.03,0,0,0-13.279-2.633l-3.244,6a18.491,18.491,0,0,1,4.127.662Z" fill="#fff" opacity="0.25" style="isolation: isolate"/>
      <path d="M5.9,34.46A45.758,45.758,0,0,0,20.19,37.505l3.793-7.02a20.361,20.361,0,0,1-4.168-.552Z" fill="#fff" opacity="0.25" style="isolation: isolate"/>
      <path d="M50,13.934c0,5-11.194,9.054-25,9.054S0,18.934,0,13.934V9.054H50Z" fill="#0072c6"/>
      <path d="M50,9.054c0,5-11.194,9.054-25,9.054S0,14.054,0,9.054,11.193,0,25,0,50,4.053,50,9.054" fill="#59b4d9"/>
      <path d="M33.013,8.533c0,1.33-3.588,2.407-8.014,2.407s-8.015-1.077-8.015-2.407S20.573,6.126,25,6.126,33.013,7.2,33.013,8.533" fill="#0072c6"/>
      <path d="M43.071,2.8A48.03,48.03,0,0,0,29.792.168l-3.244,6a18.491,18.491,0,0,1,4.127.662Z" fill="#fff" opacity="0.25" style="isolation: isolate"/>
      <path d="M5.9,14.894A45.758,45.758,0,0,0,20.19,17.939l3.793-7.02a20.361,20.361,0,0,1-4.168-.552Z" fill="#fff" opacity="0.25" style="isolation: isolate"/>
    </symbol>
  </defs>
  <title>8 - tde</title>
  <g id="background_blue" data-name="background blue">
    <rect y="-0.181" width="298" height="110" fill="#e4edf1"/>
  </g>
  <g id="Shapes">
    <g>
      <use width="50" height="42.504" transform="translate(87.064 65.54) scale(0.799)" xlink:href="#IZ_Disc"/>
      <use width="50" height="42.504" transform="translate(170.317 65.54) scale(0.799)" xlink:href="#IZ_Disc"/>
      <g>
        <path d="M147.914,72.121a4.617,4.617,0,0,1,4.741,4.48,4.416,4.416,0,0,1-2.255,3.8l1.393,6.994h-7.864l1.4-7.043a4.416,4.416,0,0,1-2.158-3.75A4.617,4.617,0,0,1,147.914,72.121Zm-11.765-19.5c0-6.459,5.56-11.716,12.4-11.716s12.4,5.257,12.4,11.716V62.827h-24.8Zm11.66,44.575h24.846a.511.511,0,0,0,.525-.5V63.323a.511.511,0,0,0-.525-.5H166.3V52.618c0-9.251-7.962-16.777-17.752-16.777S130.8,43.367,130.8,52.618V62.827h-7.06a.511.511,0,0,0-.525.5V96.7a.511.511,0,0,0,.525.5h20.9" fill="#3999d5"/>
        <path d="M202.629,38.092V32.4l-.274-.276L196.5,30.191l-1.464-4.043,2.928-5.972.274-.643-1.83-1.837-2.2-2.205-.732.367-5.764,2.94-3.935-1.1-2.47-6.432h-5.673l-.275.276-1.921,5.88-3.935,1.47-6.588-3.215-4.026,4.042.366.735,2.928,5.7L160.539,30.1l-6.862,2.481v5.7l.823.276,6.039,2.021,1.647,3.951-3.111,6.615,4.026,4.042.732-.367,5.673-2.94,3.935,1.654,2.47,6.89h5.673l.275-.827,2.013-6.063,3.843-1.654L194.394,55l4.026-4.043-.366-.735-2.928-5.7,1.1-3.951Zm-23.973,5.329a7.993,7.993,0,1,1,7.961-7.993A7.982,7.982,0,0,1,178.656,43.421Z" fill="#22a6ff" opacity="0.2" style="isolation: isolate"/>
      </g>
    </g>
  </g>
</svg>
