<svg width="144" height="156" viewBox="0 0 144 156" fill="none" xmlns="http://www.w3.org/2000/svg">
<path d="M124.348 26.5049C124.173 26.5049 123.998 26.5049 123.823 26.5049C122.483 11.6505 110.017 0 94.7553 0C84.3863 0 75.299 5.41748 70.1145 13.5728C68.3669 13.2233 66.5611 12.9903 64.697 12.9903C50.3669 12.9903 38.7747 24.5825 38.7747 38.9126C38.7747 53.2428 50.3669 64.835 64.697 64.835C72.3281 64.835 117.299 64.835 124.348 64.835C134.891 64.835 143.513 56.2719 143.513 45.6699C143.513 35.068 134.891 26.5049 124.348 26.5049Z" fill="#6BBCDA"/>
<path d="M78.0951 20.9709C80.1339 20.9709 82.1727 21.2039 84.0951 21.6117C89.0465 12.6408 98.5999 6.52428 109.61 6.52428C110.949 6.52428 112.289 6.64078 113.571 6.81554C108.445 2.56311 101.92 0 94.7553 0C84.3863 0 75.299 5.41748 70.1145 13.5728C68.3669 13.2233 66.5611 12.9903 64.697 12.9903C50.3669 12.9903 38.7747 24.5825 38.7747 38.9127C38.7747 49.2233 44.8329 58.136 53.5708 62.3301C51.3572 58.369 50.1339 53.767 50.1339 48.9321C50.1921 33.4369 62.6582 20.9709 78.0951 20.9709Z" fill="#8ACAE1"/>
<path d="M0.15332 56.1553V132.058V132.583C0.15332 145.456 20.4834 155.884 45.5902 155.942V109.282V73.631L0.15332 56.1553Z" fill="#50A7E1"/>
<path d="M32.4252 38.9127C32.4252 37.8059 32.4834 36.7573 32.5999 35.6505C13.8427 38.4466 0.15332 47.1262 0.15332 57.4369C0.15332 70.0195 20.4834 80.2137 45.5902 80.2137V64.9515C37.6097 59.0098 32.4252 49.5729 32.4252 38.9127Z" fill="#C0D557"/>
<path d="M81.9399 71.1845H64.6971C57.5321 71.1845 50.9496 68.8544 45.5903 64.8932V80.1553H45.6486C60.503 80.2136 73.668 76.6602 81.9399 71.1845Z" fill="#C0D557"/>
<path d="M79.202 115.981L79.435 115.456L81.5904 110.272L81.8234 109.748L84.0952 104.388L89.4544 106.66L89.9787 106.893L91.1438 107.359V71.301H81.9399C73.6098 76.7768 60.503 80.3302 45.6486 80.3302H45.5903V116.971H78.7942L79.202 115.981Z" fill="#1E80C6"/>
<path d="M81.5321 143.126L79.3768 137.884L79.1438 137.359L76.9302 131.942L82.3476 129.728L82.8719 129.495L85.0855 128.563C85.0273 127.922 85.0272 127.34 85.0272 126.699C85.0272 126 85.0273 125.359 85.0855 124.66L82.8719 123.728L82.4641 123.553H45.5903V155.767H45.6486C60.9107 155.767 74.4253 151.922 82.6972 145.981L81.7069 143.534L81.5321 143.126Z" fill="#1E80C6"/>
<path d="M82.3476 123.612L76.9883 121.34L78.8524 116.854H45.5902H41.6291L36.3864 129.612L20.5417 85.9224L8.94944 117.379H0.15332V122.913H13.4931L20.8329 102.583L36.8524 147.262L45.299 123.67H45.5902H82.4641L82.3476 123.612Z" fill="white"/>
<path d="M136.289 132.466C136.755 130.66 136.988 128.738 136.988 126.816C136.988 124.893 136.755 123.087 136.348 121.282L142.755 118.66L143.28 118.427L143.047 117.903L140.891 112.66L140.658 112.136L140.134 112.369L133.726 114.99C131.804 111.728 129.066 109.049 125.862 107.068L128.542 100.66L128.775 100.136L128.251 99.9029L123.066 97.7476L122.542 97.5145L122.309 98.0388L119.629 104.447C117.823 103.981 115.901 103.748 113.979 103.748C112.056 103.748 110.251 103.981 108.445 104.388L105.823 97.9806L105.59 97.4563L105.066 97.6893L99.8234 99.8446L99.2991 100.078L99.5321 100.602L102.153 107.01C98.8913 108.932 96.2117 111.67 94.2311 114.874L91.202 113.592L87.8234 112.194L87.2991 111.961L87.0661 112.485L84.9107 117.67L84.6777 118.194L85.202 118.427L91.6098 121.107C91.435 121.748 91.3185 122.33 91.202 122.971C91.0855 123.67 91.0272 124.369 90.969 125.068V125.126C90.9107 125.65 90.9107 126.175 90.9107 126.699C90.9107 127.107 90.9107 127.515 90.969 127.864C90.969 128.039 90.969 128.214 91.0273 128.388C91.0273 128.563 91.0855 128.738 91.0855 128.971C91.1438 129.728 91.2603 130.485 91.435 131.184C91.4933 131.534 91.5515 131.884 91.668 132.175L91.3185 132.291L85.2603 134.796L84.736 135.029L84.969 135.553L87.1243 140.796L87.3573 141.32L87.8816 141.087L94.2894 138.466C96.2117 141.728 98.9496 144.408 102.153 146.388L99.4739 152.796L99.2409 153.32L99.7651 153.553L104.95 155.709L105.474 155.942L105.707 155.417L108.386 149.01C110.192 149.476 112.115 149.709 114.037 149.709C115.959 149.709 117.765 149.476 119.571 149.068L122.192 155.476L122.425 156L122.95 155.767L128.192 153.612L128.717 153.379L128.484 152.854L125.862 146.447C129.124 144.524 131.804 141.786 133.785 138.583L140.192 141.262L140.717 141.495L140.95 140.971L143.105 135.786L143.338 135.262L142.814 135.029L136.289 132.466ZM113.92 142.835C105.066 142.835 97.8428 135.67 97.8428 126.757C97.8428 123.029 99.1243 119.65 101.221 116.913L101.28 116.854C104.192 113.126 108.794 110.738 113.92 110.738C122.775 110.738 129.998 117.903 129.998 126.816C129.94 135.67 122.775 142.835 113.92 142.835Z" fill="#0E4DA7"/>
<path d="M101.338 116.854H101.28L101.221 116.913C101.221 116.913 101.221 116.971 101.163 116.971L101.338 116.854Z" fill="white"/>
</svg>
