<?xml version="1.0" encoding="utf-8"?>
<!-- Generator: Adobe Illustrator 16.0.0, SVG Export Plug-In . SVG Version: 6.00 Build 0)  -->
<!DOCTYPE svg PUBLIC "-//W3C//DTD SVG 1.1//EN" "http://www.w3.org/Graphics/SVG/1.1/DTD/svg11.dtd">
<svg version="1.1" id="Layer_1" xmlns="http://www.w3.org/2000/svg" xmlns:xlink="http://www.w3.org/1999/xlink" x="0px" y="0px"
	 width="64px" height="64px" viewBox="0 0 64 64" style="enable-background:new 0 0 64 64;" xml:space="preserve">
<g>
	<g>
		<path style="fill:#FCD100;" d="M0,8.295v36.741c0,4.584,9.551,8.297,21.333,8.297s21.333-3.713,21.333-8.297V8.295H0z"/>
		<path style="opacity:0.4;fill:#FFFFFF;enable-background:new    ;" d="M21.333,8.295H0v36.741c0,4.584,9.551,8.297,21.333,8.297
			V8.295z"/>
		<path style="fill:#FEE087;" d="M42.667,8.295c0,4.582-9.551,8.297-21.333,8.297S0,12.877,0,8.295S9.551,0,21.333,0
			S42.667,3.713,42.667,8.295z"/>
		<path style="opacity:0.4;fill:#DD5900;enable-background:new    ;" d="M42.667,8.295c0,4.582-9.551,8.297-21.333,8.297
			S0,12.877,0,8.295S9.551,0,21.333,0S42.667,3.713,42.667,8.295z"/>
	</g>
	<polygon style="fill:#FFFFFF;enable-background:new    ;" points="42.667,64 53.336,64 64,57.844 64,33.207 49.333,24.741 
		48,23.971 46.667,24.741 30.667,33.977 29.333,34.747 29.333,36.286 29.333,54.763 29.333,56.302 30.667,57.073 	"/>
	<polygon style="fill:#FCD100;" points="64,36.286 48,27.051 32,36.286 48,45.526 	"/>
	<polygon style="opacity:0.4;fill:#FFFFFF;enable-background:new    ;" points="64,36.286 48,27.051 32,36.286 48,45.526 	"/>
	<polygon style="fill:#FFFFFF;" points="57.094,0 49.792,0 47.786,2.004 23.23,26.562 22.785,27.008 22.587,27.604 20.702,33.261 
		19.014,38.32 24.074,36.636 29.73,34.75 30.327,34.55 30.772,34.104 55.328,9.547 59.099,5.775 60.984,3.889 59.099,2.004 	"/>
	
		<rect x="21.915" y="15.388" transform="matrix(0.7071 -0.7071 0.7071 0.7071 -1.2616 33.0638)" style="fill:#FEE087;" width="34.728" height="5.333"/>
	<polygon style="fill:#FEE087;" points="23.23,34.104 28.887,32.219 25.116,28.448 	"/>
	<polygon style="opacity:0.4;fill:#FFFFFF;enable-background:new    ;" points="23.23,34.104 28.887,32.219 25.116,28.448 	"/>
	
		<rect x="50.776" y="1.222" transform="matrix(0.707 -0.7072 0.7072 0.707 12.9075 38.9342)" style="fill:#DD5900;" width="5.334" height="5.334"/>
	
		<rect x="21.915" y="15.388" transform="matrix(0.7071 -0.7071 0.7071 0.7071 -1.2616 33.0638)" style="opacity:0.4;fill:#DD5900;enable-background:new    ;" width="34.728" height="5.333"/>
	
		<rect x="21.061" y="15.742" transform="matrix(0.7071 -0.7071 0.7071 0.7071 -0.907 32.2089)" style="opacity:0.4;fill:#FFFFFF;enable-background:new    ;" width="34.728" height="2.915"/>
	<polygon style="fill:#FEE087;" points="48,45.526 64,36.286 64,54.763 48,64 	"/>
	<polygon style="opacity:0.4;fill:#DD5900;enable-background:new    ;" points="48,45.526 64,36.286 64,54.763 48,64 	"/>
	<g>
		<polygon style="fill:#FCD100;" points="48,45.526 32,36.286 32,54.763 48,64 		"/>
	</g>
</g>
</svg>
