<svg xmlns="http://www.w3.org/2000/svg" viewBox="0 0 22 22"><title>ssms_icon_v18</title><path d="M15,3.33c0,1.29-2.69,2.33-6,2.33s-6-1-6-2.33S5.69,1,9,1,15,2,15,3.33Z" transform="translate(-1 -1)" fill="#fee087"/><g style="isolation:isolate"><path d="M14.66,12.27l-.78.78a.11.11,0,0,0,0,.15l1,1a1,1,0,0,0,.15-.51V11.93Z" transform="translate(-1 -1)" fill="#fff"/></g><g style="isolation:isolate"><path d="M8.54,15.4l-.71-.71L8.54,14l.78-.78.08-.08.71-.71,1.4-1.4,1-1,.71-.71.71.71.78.78.34.34V3.33C15,2,12.31,1,9,1S3,2,3,3.33V13.67C3,15,5.69,16,9,16h.14Z" transform="translate(-1 -1)" fill="#fff"/></g><polygon points="16 0 16 2 20 2 20 6 22 6 22 0 16 0" fill="#4a9f49"/><polygon points="6 22 6 20 2 20 2 16 0 16 0 22 6 22" fill="#4a9f49"/><path d="M19,12.74l1.35-1.35a2.2,2.2,0,0,0-2.47,3.25l-2,2-2.74-2.74a1.11,1.11,0,0,1,0-1.57l.78-.78-.78-.78-1,1-1.4,1.4a.55.55,0,0,1-.78.78l-.78.78,1.57,1.57.78-.78a.55.55,0,1,1,.78-.79l2.74,2.74L11.6,21l.78.78,3.53-3.53,3.53,3.53.78-.78L16.7,17.44l2-2A2.2,2.2,0,0,0,22,13L20.62,14.3Z" transform="translate(-1 -1)" fill="#0072c6"/><path d="M14.66,12.27l-.78.78a.11.11,0,0,0,0,.15l1,1a1,1,0,0,0,.15-.51V11.93Z" transform="translate(-1 -1)" fill="#fcd100"/><path d="M8.54,15.4l-.71-.71L8.54,14l.78-.78.08-.08.71-.71,1.4-1.4,1-1,.71-.71.71.71.78.78.34.34V3.33H3V13.67C3,15,5.69,16,9,16h.14Z" transform="translate(-1 -1)" fill="#fcd100"/><path d="M8.54,15.4l-.71-.71L8.54,14,9,13.53V3.33H3V13.67C3,15,5.69,16,9,16v-.14Z" transform="translate(-1 -1)" fill="#fff" opacity="0.4" style="isolation:isolate"/><path d="M15,3.33c0,1.29-2.69,2.33-6,2.33s-6-1-6-2.33S5.69,1,9,1,15,2,15,3.33Z" transform="translate(-1 -1)" fill="#f0aa51"/></svg>