<svg xmlns="http://www.w3.org/2000/svg" viewBox="0 0 298 110">
  <title>2 - databases</title>
  <g id="background_blue" data-name="background blue">
    <rect width="298" height="110" fill="#e4edf1"/>
  </g>
  <g id="Shapes">
    <g>
      <rect x="114.875" y="13.112" width="70.121" height="85" fill-opacity="0"/>
      <rect x="118.296" y="13.112" width="63.964" height="85" fill-opacity="0"/>
      <path d="M118.3,24.741V86.482c0,6.328,14.366,11.63,31.982,11.63V24.741Z" fill="#0072c6"/>
      <path d="M149.765,98.112h.513c17.787,0,31.982-5.131,31.982-11.63V24.741h-32.5V98.112Z" fill="#0072c6"/>
      <path d="M149.765,98.112h.513c17.787,0,31.982-5.131,31.982-11.63V24.741h-32.5V98.112Z" fill="#fff" opacity="0.15" style="isolation: isolate"/>
      <path d="M182.26,24.741c0,6.328-14.366,11.63-31.982,11.63S118.3,31.24,118.3,24.741c0-6.327,14.366-11.629,31.982-11.629S182.26,18.414,182.26,24.741Z" fill="#fff"/>
      <path d="M175.761,24.228c0,4.1-11.459,7.526-25.483,7.526S124.8,28.333,124.8,24.228c0-4.275,11.459-7.7,25.483-7.7S175.761,19.953,175.761,24.228Z" fill="#7fba00"/>
      <path d="M170.459,28.846c3.42-1.368,5.3-2.907,5.3-4.618,0-4.275-11.459-7.7-25.483-7.7s-25.483,3.421-25.483,7.7c0,1.711,2.052,3.421,5.3,4.618,4.617-1.881,11.972-2.907,20.181-2.907C158.487,25.768,165.841,26.965,170.459,28.846Z" fill="#b8d432"/>
      <rect x="114.875" y="42.186" width="70.121" height="37.626" fill-opacity="0"/>
      <path d="M127.676,68.861V64.853a7.805,7.805,0,0,0,2.368,1.378,7.7,7.7,0,0,0,2.58.451,5.633,5.633,0,0,0,1.328-.138,3.135,3.135,0,0,0,.952-.376,1.719,1.719,0,0,0,.576-.576,1.465,1.465,0,0,0,.188-.727,1.56,1.56,0,0,0-.3-.939,3.2,3.2,0,0,0-.827-.764,8.365,8.365,0,0,0-1.228-.677q-.714-.325-1.54-.663a7.939,7.939,0,0,1-3.145-2.142,4.7,4.7,0,0,1-1.027-3.057,4.672,4.672,0,0,1,2.092-4.071,6.878,6.878,0,0,1,2.255-.952,11.325,11.325,0,0,1,2.706-.313,15.574,15.574,0,0,1,2.48.175,9.522,9.522,0,0,1,2,.514v3.745a6,6,0,0,0-.99-.551,6.976,6.976,0,0,0-1.089-.388,7.684,7.684,0,0,0-1.128-.238,7.805,7.805,0,0,0-1.052-.075,5.318,5.318,0,0,0-1.252.137,3.112,3.112,0,0,0-.953.364,1.808,1.808,0,0,0-.6.576,1.319,1.319,0,0,0-.213.739,1.457,1.457,0,0,0,.238.814,2.87,2.87,0,0,0,.677.677,8.1,8.1,0,0,0,1.064.626q.627.3,1.416.626a14.811,14.811,0,0,1,1.929.965,6.669,6.669,0,0,1,1.478,1.14,4.441,4.441,0,0,1,.94,1.465,5.8,5.8,0,0,1-.251,4.435,4.642,4.642,0,0,1-1.541,1.653,6.777,6.777,0,0,1-2.28.9,13.026,13.026,0,0,1-2.73.275,15.328,15.328,0,0,1-2.819-.25A8.5,8.5,0,0,1,127.676,68.861Zm22.8,1a8.372,8.372,0,0,1-6.288-2.5,9.065,9.065,0,0,1-2.43-6.551,9.687,9.687,0,0,1,2.468-6.889,8.518,8.518,0,0,1,6.539-2.631,8.133,8.133,0,0,1,6.213,2.518,9.243,9.243,0,0,1,2.38,6.639,9.522,9.522,0,0,1-2.468,6.827c-.058.058-.113.117-.163.175s-.1.1-.163.15l4.547,4.372h-5.662l-2.38-2.418A10.065,10.065,0,0,1,150.474,69.863Zm.176-15.094a4.088,4.088,0,0,0-3.382,1.6,6.624,6.624,0,0,0-1.253,4.221,6.529,6.529,0,0,0,1.253,4.221,4.013,4.013,0,0,0,3.282,1.554,4.058,4.058,0,0,0,3.319-1.5,6.522,6.522,0,0,0,1.228-4.2,7.037,7.037,0,0,0-1.19-4.346A3.859,3.859,0,0,0,150.65,54.769Zm22.4,14.781h-10.7V51.588H166.4V66.269h6.652Z" fill="#fff"/>
    </g>
    <g>
      <path d="M202.317,77.39a2.106,2.106,0,0,0,2.016,2.128h51.843A2.127,2.127,0,0,0,258.3,77.39V40.327H202.317Z" fill="#a0a1a2"/>
      <path d="M256.176,31.705H204.333a2.106,2.106,0,0,0-2.016,2.128v6.382H258.3V33.833a2.127,2.127,0,0,0-2.128-2.128" fill="#7a7a7a"/>
      <rect x="206.46" y="44.134" width="13.437" height="31.129" fill="#804998"/>
      <rect x="223.592" y="44.134" width="13.437" height="31.129" fill="#804998"/>
      <rect x="240.724" y="44.134" width="13.437" height="31.129" fill="#804998"/>
      <path d="M204.556,31.705a2.246,2.246,0,0,0-2.239,2.24V77.167a2.246,2.246,0,0,0,2.239,2.239h2.464l44.117-47.7Z" fill="#fff" opacity="0.2" style="isolation: isolate"/>
    </g>
    <g>
      <path d="M41.763,77.405a2.091,2.091,0,0,0,2,2.113H95.247a2.111,2.111,0,0,0,2.112-2.113V40.6h-55.6Z" fill="#a0a1a2"/>
      <path d="M95.247,31.817H43.765a2.09,2.09,0,0,0-2,2.112V40.6h55.6V33.929c0-1.112-.889-1.779-2.112-1.779" fill="#7a7a7a"/>
      <rect x="46.211" y="55.612" width="46.701" height="7.783" fill="#fff"/>
      <rect x="46.211" y="43.937" width="46.701" height="7.783" fill="#b8d432"/>
      <rect x="46.211" y="67.287" width="46.701" height="7.783" fill="#fff"/>
      <path d="M43.987,31.705a2.231,2.231,0,0,0-2.224,2.224v42.92a2.231,2.231,0,0,0,2.224,2.224h2.446l43.81-47.368Z" fill="#fff" opacity="0.2" style="isolation: isolate"/>
    </g>
  </g>
</svg>
