<svg xmlns="http://www.w3.org/2000/svg" viewBox="0 0 298 110">
  <title>2 - filetable</title>
  <g id="background_blue" data-name="background blue">
    <rect width="298" height="110" fill="#e4edf1"/>
  </g>
  <g id="Shapes">
    <g>
      <path d="M243.961,46.127a.6.6,0,0,0,0-.8l-1.071-1.171a.712.712,0,0,0-.8,0l-1.74,1.171c-.39-.26-.85-.6-1.241-.861l.581-2.22a.55.55,0,0,0-.291-.65l-1.38-.631a.5.5,0,0,0-.693.143.544.544,0,0,0-.037.067L236,43.116a4.675,4.675,0,0,0-1.421-.38l-.23-2.251a.551.551,0,0,0-.508-.589h-1.493c-.24-.09-.49.14-.58.37l-.51,2.3a4.709,4.709,0,0,0-1.45.25L228.7,40.765a.811.811,0,0,0-.71-.27l-1.47.57a.541.541,0,0,0-.35.631l.46,2.18c-.41.22-.83.6-1.24.83l-1.781-1.44a.52.52,0,0,0-.72,0l-1.09,1a.521.521,0,0,0-.11.721l1.27,1.9a6.544,6.544,0,0,0-.94,1.32l-2.211-.74a.7.7,0,0,0-.74.37l-.62,1.331a.69.69,0,0,0,.28.81l1.87,1.21c-.18.47-.2,1-.39,1.421l-2.251.22a.7.7,0,0,0-.51.62l-.1,1.52a.7.7,0,0,0,.45.661l2.311.34a9.409,9.409,0,0,0,.24,1.6l-2,1.11a.511.511,0,0,0-.293.66c.006.017.014.034.022.051l.5,1.38a.749.749,0,0,0,.7.43l2.27-.54.661,1.23-1.441,1.781a.749.749,0,0,0,0,.72l1.071,1.17a.608.608,0,0,0,.72.11l1.9-1.28c.39.26.851.6,1.241.86l-.581,2.221a.539.539,0,0,0,.291.65l1.41.71a.688.688,0,0,0,.73-.21l1.211-1.87c.48,0,1,.2,1.43.22l.13,2.33a.7.7,0,0,0,.62.511l1.511.15a1,1,0,0,0,.59-.531l.42-2.22c.56-.06,1.05-.19,1.61-.25l1,2a.548.548,0,0,0,.71.27l1.38-.5a.649.649,0,0,0,.43-.7l-.46-2.181a5.682,5.682,0,0,0,1.24-.83l1.781,1.441a.53.53,0,0,0,.748.052.511.511,0,0,0,.052-.052l1.091-1a.531.531,0,0,0,.052-.748.638.638,0,0,0-.052-.052l-1.271-1.9a4.008,4.008,0,0,0,.94-1.321l2.211.74a.54.54,0,0,0,.65-.29l.71-1.41a.808.808,0,0,0-.21-.73l-1.94-1.291a4.091,4.091,0,0,0,.3-1.35l2.341-.3c.24-.07.49-.3.5-.46l.07-1.6a.551.551,0,0,0-.509-.589h-.021l-2.221-.42a8.74,8.74,0,0,0-.17-1.53l1.93-1.081a.58.58,0,0,0,.38-.727c-.006-.018-.012-.036-.019-.053l-.5-1.38a.5.5,0,0,0-.639-.3.453.453,0,0,0-.071.032l-2.26.38-.661-1.231,1.361-1.7m-9.753,7.072a2.471,2.471,0,0,1-3.488,3.5c-.057-.057-.112-.117-.163-.179a2.511,2.511,0,0,1,.08-3.491,2.551,2.551,0,0,1,3.571.16" fill="#2e6ca4"/>
      <g>
        <g>
          <rect x="107.039" y="37.02" width="92.308" height="60" fill="#fff"/>
          <rect x="107.039" y="20.097" width="92.308" height="16.923" fill="#55d2f6"/>
          <path d="M200.886,98.559H105.5v-80h95.385Zm-92.308-3.077h89.231V21.636H108.578Z" fill="#2e6ca4"/>
          <rect x="107.04" y="35.482" width="92.308" height="3.077" fill="#2e6ca4"/>
          <rect x="107.04" y="55.482" width="92.308" height="3.077" fill="#2e6ca4"/>
          <rect x="107.04" y="75.482" width="92.308" height="3.077" fill="#2e6ca4"/>
          <rect x="128.578" y="37.02" width="3.077" height="58.462" fill="#2e6ca4"/>
          <rect x="151.655" y="37.02" width="3.077" height="58.462" fill="#2e6ca4"/>
          <rect x="174.732" y="37.02" width="3.077" height="58.462" fill="#2e6ca4"/>
        </g>
        <path d="M219.942,20.962a.8.8,0,0,0,.048-1.058l-1.419-1.554a.944.944,0,0,0-1.057-.048l-2.411,1.59c-.514-.343-1.135-.8-1.649-1.14l.774-2.955a.721.721,0,0,0-.384-.869l-1.773-.821a.668.668,0,0,0-.924.192.63.63,0,0,0-.045.08l-1.713,2.576a6.187,6.187,0,0,0-1.891-.508l-.29-2.99a.727.727,0,0,0-.678-.773h-2.052c-.313-.118-.644.183-.768.5l-.674,3.049a6.26,6.26,0,0,0-1.926.337l-1.459-2.694a1.068,1.068,0,0,0-.94-.361l-1.968.768a.722.722,0,0,0-.461.828l.591,2.9c-.543.3-1.1.8-1.642,1.093l-2.364-1.914a.684.684,0,0,0-.957.065l-1.442,1.317a.687.687,0,0,0-.148.952l1.69,2.523a8.692,8.692,0,0,0-1.253,1.773l-2.954-.981a.928.928,0,0,0-.981.484L186,25.086a.914.914,0,0,0,.378,1.081l2.476,1.6c-.242.626-.272,1.264-.514,1.891l-2.99.289a.929.929,0,0,0-.674.822l-.088,1.908a.923.923,0,0,0,.59.875l3.061.455a12.575,12.575,0,0,0,.325,2.139l-2.724,1.471a.668.668,0,0,0-.4.857.679.679,0,0,0,.037.083l.662,1.837a.991.991,0,0,0,.927.591l3.008-.715.88,1.631-1.914,2.364a1,1,0,0,0,.065.957l1.418,1.554a.809.809,0,0,0,.951.148l2.589-1.737c.514.342,1.134.8,1.648,1.14l-.774,2.955a.721.721,0,0,0,.384.868l1.868.934a.911.911,0,0,0,.969-.278l1.6-2.476c.638,0,1.264.272,1.9.3l.177,3.09a.923.923,0,0,0,.821.674l2.009.2a1.28,1.28,0,0,0,.774-.709L206,48.923c.744-.071,1.394-.254,2.139-.331l1.371,2.612a.725.725,0,0,0,.939.36l1.838-.661a.863.863,0,0,0,.591-.934l-.591-2.9a7.634,7.634,0,0,0,1.643-1.094L216.3,47.9a.71.71,0,0,0,1,.1.62.62,0,0,0,.06-.055l1.442-1.318a.708.708,0,0,0,.1-1,.62.62,0,0,0-.055-.06l-1.69-2.523a5.327,5.327,0,0,0,1.247-1.773l2.955.981a.721.721,0,0,0,.868-.384l.934-1.873a1.074,1.074,0,0,0-.272-.97l-2.576-1.707a5.437,5.437,0,0,0,.4-1.773l3.1-.39c.325-.089.656-.4.667-.591l.1-2.121a.727.727,0,0,0-.678-.773h-.031l-2.955-.556a11.554,11.554,0,0,0-.224-2.032L223.2,27.6a.773.773,0,0,0,.5-.975c-.007-.022-.015-.043-.024-.065l-.662-1.837a.668.668,0,0,0-.857-.4.875.875,0,0,0-.083.037l-3,.5-.881-1.636,1.749-2.263m-13.082,9.5a3.079,3.079,0,0,1-.1,4.353c-.036.035-.074.069-.112.1a3.051,3.051,0,0,1-4.3-.257l-.038-.045a3.078,3.078,0,1,1,4.337-4.37,2.955,2.955,0,0,1,.213.234" fill="#bad80a"/>
        <g>
          <path d="M106.64,45.6c0-.48.12-1.08.12-1.56a15.442,15.442,0,0,0-15.6-15.36,15.145,15.145,0,0,0-12.6,6.24,11.171,11.171,0,0,0-6.24-1.8,11.754,11.754,0,0,0-11.76,11.64v.96c-4.32,2.28-6.72,6-6.72,10.56,0,7.2,5.88,12.84,13.44,12.84H100.4c7.56,0,13.44-5.64,13.44-12.84A11.384,11.384,0,0,0,106.64,45.6Z" fill="#59b4d9"/>
          <path d="M62.24,62.159c0-4.92,2.52-8.76,7.2-11.16v-.96a12.593,12.593,0,0,1,19.08-10.56,16.593,16.593,0,0,1,13.44-6.84h0a16.255,16.255,0,0,0-10.8-4.08,15.573,15.573,0,0,0-12.6,6.36,11.171,11.171,0,0,0-6.24-1.8,11.754,11.754,0,0,0-11.76,11.64v.96c-4.32,2.28-6.72,6-6.72,10.56a12.725,12.725,0,0,0,10.08,12.48A13.483,13.483,0,0,1,62.24,62.159Z" fill="#fff" opacity="0.2" style="isolation: isolate"/>
          <path d="M95,65.759a10.385,10.385,0,0,1-10.08,7.92,9.135,9.135,0,0,1-2.52-.36,10.776,10.776,0,0,1-3.36-1.56,11.028,11.028,0,0,1-2.64-2.64,10.5,10.5,0,0,1-1.56-8.28,10.385,10.385,0,0,1,10.08-7.92,9.135,9.135,0,0,1,2.52.36,10.455,10.455,0,0,1,6.36,4.68,9.892,9.892,0,0,1,1.2,7.8" fill="#fff"/>
          <path d="M95,65.759a10.385,10.385,0,0,1-10.08,7.92,9.135,9.135,0,0,1-2.52-.36,10.776,10.776,0,0,1-3.36-1.56,11.028,11.028,0,0,1-2.64-2.64,10.5,10.5,0,0,1-1.56-8.28,10.385,10.385,0,0,1,10.08-7.92,9.135,9.135,0,0,1,2.52.36,10.455,10.455,0,0,1,6.36,4.68,9.892,9.892,0,0,1,1.2,7.8" fill="#59b4d9" opacity="0.1" style="isolation: isolate"/>
          <path d="M90.56,54.6a10.183,10.183,0,0,0-3.12-1.32,9.135,9.135,0,0,0-2.52-.36,10.385,10.385,0,0,0-10.08,7.92,9.959,9.959,0,0,0,1.56,8.28,8.407,8.407,0,0,0,.96,1.2A26.84,26.84,0,0,1,90.56,54.6" fill="#59b4d9" opacity="0.3" style="isolation: isolate"/>
          <path d="M97.64,55.679a14.822,14.822,0,0,0-9.12-6.72,18.526,18.526,0,0,0-3.6-.48,14.884,14.884,0,0,0-14.4,11.28,14.521,14.521,0,0,0,1.56,10.92L60.8,82.079a3.915,3.915,0,0,0,0,5.4,4.067,4.067,0,0,0,5.52,0l11.28-11.4a15.192,15.192,0,0,0,3.84,1.56,18.526,18.526,0,0,0,3.6.48,14.884,14.884,0,0,0,14.4-11.28A15.136,15.136,0,0,0,97.64,55.679ZM95,65.759a10.385,10.385,0,0,1-10.08,7.92,9.135,9.135,0,0,1-2.52-.36,10.776,10.776,0,0,1-3.36-1.56,11.028,11.028,0,0,1-2.64-2.64,10.5,10.5,0,0,1-1.56-8.28,10.385,10.385,0,0,1,10.08-7.92,9.135,9.135,0,0,1,2.52.36,10.455,10.455,0,0,1,6.36,4.68A9.967,9.967,0,0,1,95,65.759Z" fill="#3e3e3e"/>
          <path d="M76.52,75.479a14.609,14.609,0,0,1-3.84-3.84c-.24-.36-.36-.6-.6-.96l-.96,1.08-.12.12a2.51,2.51,0,0,0,.48.72,17.955,17.955,0,0,0,4.2,4.32,2.867,2.867,0,0,0,.84.36L77.6,76.2C77.12,75.839,76.88,75.719,76.52,75.479Z" fill="#1e1e1e" opacity="0.5" style="isolation: isolate"/>
        </g>
      </g>
    </g>
  </g>
</svg>
