<svg xmlns="http://www.w3.org/2000/svg" xmlns:xlink="http://www.w3.org/1999/xlink" viewBox="0 0 298 110">
  <defs>
    <symbol id="IZ_TasksPolychromatic" data-name="IZ_TasksPolychromatic" viewBox="0 0 49.5 38.3">
      <path d="M47.3,3.5H13.4a2.2,2.2,0,0,0,0,4.4H47.3a2.2,2.2,0,1,0,0-4.4Z" fill="#59b4d9"/>
      <path d="M47.3,16.6H13.4a2.2,2.2,0,0,0,0,4.4H47.3a2.2,2.2,0,1,0,0-4.4Z" fill="#59b4d9"/>
      <path d="M47.3,29.8H13.4a2.2,2.2,0,0,0,0,4.4H47.3a2.2,2.2,0,1,0,0-4.4Z" fill="#59b4d9"/>
      <g>
        <path d="M4.3.1v10H2.1V2.5a1.934,1.934,0,0,1-.9.5A5.274,5.274,0,0,1,0,3.3V1.5A7.3,7.3,0,0,0,2.9,0H4.3Z"/>
        <path d="M2.4,22.3H6.6v1.8H.1v-.7A3.194,3.194,0,0,1,.4,22a4.184,4.184,0,0,1,.8-1.2,6.946,6.946,0,0,1,1.5-1.3A8.137,8.137,0,0,0,4,18.3a1.5,1.5,0,0,0,.4-1.1A1.238,1.238,0,0,0,3,15.9a3.589,3.589,0,0,0-2.4,1v-2a4.894,4.894,0,0,1,2.9-.8,3.174,3.174,0,0,1,2.3.7,2.518,2.518,0,0,1,.9,2,2.768,2.768,0,0,1-.3,1.3,4.129,4.129,0,0,1-.7,1.1,7.04,7.04,0,0,1-1.5,1.2,5.424,5.424,0,0,0-1.3,1.1C2.5,21.9,2.4,22.1,2.4,22.3Z"/>
        <path d="M6.8,35.3a2.7,2.7,0,0,1-1,2.2,4.655,4.655,0,0,1-2.8.8,6.175,6.175,0,0,1-2.5-.5V35.9a3.506,3.506,0,0,0,2.3.7,1.7,1.7,0,0,0,1.3-.4,1.159,1.159,0,0,0,.4-1,1.1,1.1,0,0,0-.6-1,3.061,3.061,0,0,0-1.5-.3H1.5V32.2h.8c1.3,0,1.9-.4,1.9-1.3q0-1.2-1.5-1.2a3.292,3.292,0,0,0-1.9.6V28.5A6.042,6.042,0,0,1,3.2,28a3.334,3.334,0,0,1,2.3.7,2.138,2.138,0,0,1,.9,1.8,2.139,2.139,0,0,1-1.9,2.4h0a2.637,2.637,0,0,1,1.6.7A2.837,2.837,0,0,1,6.8,35.3Z"/>
      </g>
    </symbol>
  </defs>
  <title>2 - sequence-numbers</title>
  <g id="background_blue" data-name="background blue">
    <rect width="298" height="110" fill="#e4edf1"/>
  </g>
  <g id="Shapes">
    <use width="49.5" height="38.3" transform="translate(199.81 27.236) scale(1.414)" xlink:href="#IZ_TasksPolychromatic"/>
    <g>
      <path d="M73.043,30.281A16.756,16.756,0,1,1,56.286,13.526,16.755,16.755,0,0,1,73.043,30.281" fill="#59b4d9"/>
      <polygon points="68.538 52.779 56.286 69.944 44.035 52.779 31.286 52.779 31.286 95.107 81.286 95.107 81.286 52.779 68.538 52.779" fill="#59b4d9"/>
    </g>
    <g>
      <path d="M134.333,25.009H72.225a3.1,3.1,0,0,0-3.1,3.107v52.65a3.1,3.1,0,0,0,3.1,3.106h62.108a3.1,3.1,0,0,0,3.1-3.106V28.116A3.1,3.1,0,0,0,134.333,25.009Z" fill="#fff"/>
      <path d="M95.726,67.058a6.278,6.278,0,1,1,6.261-6.278A6.269,6.269,0,0,1,95.726,67.058ZM110.6,58.371l-3.971-.251a.6.6,0,0,1-.536-.437,10.627,10.627,0,0,0-.837-2.036.6.6,0,0,1,.072-.687l2.627-2.988a.708.708,0,0,0-.03-.968L105.5,48.569a.7.7,0,0,0-.965-.031l-2.974,2.63a.6.6,0,0,1-.686.07,10.729,10.729,0,0,0-2.039-.848.6.6,0,0,1-.434-.537l-.25-3.966a.7.7,0,0,0-.7-.662H94.012a.706.706,0,0,0-.7.662l-.249,3.964a.6.6,0,0,1-.435.537,10.774,10.774,0,0,0-2.041.848.6.6,0,0,1-.686-.071l-2.971-2.627a.7.7,0,0,0-.965.031L83.533,51a.708.708,0,0,0-.03.968l2.623,2.984a.6.6,0,0,1,.072.686,10.73,10.73,0,0,0-.84,2.042.6.6,0,0,1-.536.437l-3.963.25a.705.705,0,0,0-.66.706v3.444a.705.705,0,0,0,.66.7l3.975.251a.6.6,0,0,1,.535.435,10.754,10.754,0,0,0,.841,2.027.6.6,0,0,1-.072.689l-2.635,3a.707.707,0,0,0,.03.967l2.429,2.436a.7.7,0,0,0,.965.03l3-2.649a.6.6,0,0,1,.684-.072,10.769,10.769,0,0,0,2.015.834.6.6,0,0,1,.435.536l.251,4a.706.706,0,0,0,.7.662h3.436a.7.7,0,0,0,.7-.662l.252-4a.6.6,0,0,1,.434-.538,10.658,10.658,0,0,0,2.012-.834.6.6,0,0,1,.685.073l3,2.651a.7.7,0,0,0,.965-.03l2.428-2.436a.707.707,0,0,0,.03-.967l-2.639-3a.6.6,0,0,1-.072-.687,10.8,10.8,0,0,0,.839-2.023.6.6,0,0,1,.534-.434l3.983-.252a.705.705,0,0,0,.66-.7V59.076A.705.705,0,0,0,110.6,58.371Z" fill="#acd1ef"/>
      <path d="M119.773,54.98a3.528,3.528,0,1,1,1.86-4.629A3.517,3.517,0,0,1,119.773,54.98ZM125.56,47.2l-2.11.747a.339.339,0,0,1-.373-.108,5.972,5.972,0,0,0-.88-.869.338.338,0,0,1-.113-.371l.7-2.126a.4.4,0,0,0-.228-.493l-1.791-.724a.4.4,0,0,0-.506.2l-.961,2.016a.336.336,0,0,1-.339.189,5.98,5.98,0,0,0-1.24.011.338.338,0,0,1-.343-.182l-1-2a.4.4,0,0,0-.509-.187l-1.777.758a.4.4,0,0,0-.219.5l.741,2.1a.338.338,0,0,1-.106.373,6.037,6.037,0,0,0-.87.889.336.336,0,0,1-.371.114l-2.113-.7a.394.394,0,0,0-.491.229l-.723,1.8a.4.4,0,0,0,.2.507l2.012.964a.337.337,0,0,1,.188.339,6,6,0,0,0,.014,1.242.339.339,0,0,1-.182.344l-2,1a.4.4,0,0,0-.187.511l.757,1.781a.4.4,0,0,0,.5.219l2.111-.747a.337.337,0,0,1,.372.106,5.977,5.977,0,0,0,.88.863.341.341,0,0,1,.115.372l-.706,2.132a.4.4,0,0,0,.228.494l1.792.724a.4.4,0,0,0,.5-.2L117.508,58a.335.335,0,0,1,.338-.189,5.977,5.977,0,0,0,1.225-.014.341.341,0,0,1,.343.182l1.008,2.014a.4.4,0,0,0,.509.187l1.776-.758a.4.4,0,0,0,.219-.5l-.748-2.126a.338.338,0,0,1,.107-.374,6.053,6.053,0,0,0,.856-.876.339.339,0,0,1,.371-.113l2.133.708a.4.4,0,0,0,.492-.228l.722-1.8a.4.4,0,0,0-.2-.507l-2.025-.97a.337.337,0,0,1-.187-.34,6.044,6.044,0,0,0-.011-1.232.338.338,0,0,1,.182-.342l2-1.009a.4.4,0,0,0,.187-.511l-.756-1.781A.4.4,0,0,0,125.56,47.2Z" fill="#acd1ef"/>
      <path d="M79.027,35.146H75.262a.752.752,0,0,1,0-1.5h3.765a.752.752,0,0,1,0,1.5Zm7.53,0H82.792a.752.752,0,0,1,0-1.5h3.765a.752.752,0,0,1,0,1.5Zm7.53,0H90.322a.752.752,0,0,1,0-1.5h3.765a.752.752,0,0,1,0,1.5Zm7.53,0H97.852a.752.752,0,0,1,0-1.5h3.765a.752.752,0,0,1,0,1.5Zm7.53,0h-3.765a.752.752,0,0,1,0-1.5h3.765a.752.752,0,0,1,0,1.5Zm7.53,0h-3.765a.752.752,0,0,1,0-1.5h3.765a.752.752,0,0,1,0,1.5Zm7.53,0h-3.765a.752.752,0,0,1,0-1.5h3.765a.752.752,0,0,1,0,1.5Zm7.531,0h-3.766a.752.752,0,0,1,0-1.5h3.766a.752.752,0,0,1,0,1.5Z" fill="#0078d7"/>
      <path d="M134.783,82.622H72.218a1.474,1.474,0,0,1-1.47-1.473v-46h.75a.752.752,0,0,0,0-1.5h-.75V27.485a1.474,1.474,0,0,1,1.47-1.474h62.565a1.473,1.473,0,0,1,1.469,1.474v6.158H135.5a.752.752,0,0,0,0,1.5h.749v46A1.473,1.473,0,0,1,134.783,82.622Zm0-58.865H72.218A3.726,3.726,0,0,0,68.5,27.485V81.149a3.726,3.726,0,0,0,3.718,3.727h62.565a3.726,3.726,0,0,0,3.717-3.727V27.485A3.726,3.726,0,0,0,134.783,23.757Z" fill="#0078d7"/>
    </g>
    <g>
      <line x1="145" y1="54.316" x2="190.522" y2="54.316" fill="none" stroke="#75757a" stroke-miterlimit="10"/>
      <polygon points="187.208 58.406 186.526 57.673 190.138 54.317 186.526 50.959 187.208 50.227 191.606 54.317 187.208 58.406" fill="#75757a"/>
    </g>
  </g>
</svg>
