<svg xmlns="http://www.w3.org/2000/svg" xmlns:xlink="http://www.w3.org/1999/xlink" viewBox="0 0 298 110">
  <defs>
    <symbol id="IZ_Location" data-name="IZ_Location" viewBox="0 0 23.156 50.001">
      <path d="M7.666,38.421a3.914,3.914,0,1,0,5.907-3.35c-.662,1.107-1.106,1.822-1.193,1.96l-.8,1.286-.8-1.286c-.086-.138-.531-.853-1.193-1.96a3.9,3.9,0,0,0-1.919,3.35" fill="#3e3e3e" opacity="0.8" style="isolation: isolate"/>
      <path d="M3.668,38.421a7.911,7.911,0,1,0,11.926-6.8c-.238.416-.471.82-.693,1.2a6.525,6.525,0,1,1-6.647,0c-.221-.38-.453-.784-.69-1.2a7.9,7.9,0,0,0-3.9,6.8" fill="#3e3e3e" opacity="0.5" style="isolation: isolate"/>
      <path d="M17.381,28.417c-.227.413-.448.816-.668,1.214a10.192,10.192,0,1,1-10.27,0c-.219-.4-.443-.8-.667-1.214a11.578,11.578,0,1,0,11.605,0" fill="#3e3e3e" opacity="0.2" style="isolation: isolate"/>
      <path d="M15.492,10.553a3.914,3.914,0,1,1-3.914-3.914,3.914,3.914,0,0,1,3.914,3.914M11.579,0A11.573,11.573,0,0,0,.006,11.574c0,6.393,11.573,24.958,11.573,24.958S23.153,17.967,23.153,11.574A11.576,11.576,0,0,0,11.579,0" fill="#b8d432"/>
      <path d="M11.579,14.466A3.914,3.914,0,1,1,15,8.7L17.362,1.56A11.559,11.559,0,0,0,.005,11.573c0,3.98,4.484,12.673,7.87,18.672L13.217,14.1a3.892,3.892,0,0,1-1.638.369" fill="#fff" opacity="0.2" style="isolation: isolate"/>
    </symbol>
  </defs>
  <title>2 - spatial-data</title>
  <g id="background_blue" data-name="background blue">
    <rect width="298" height="110" fill="#e4edf1"/>
  </g>
  <g id="Shapes">
    <use width="23.156" height="50.001" transform="translate(48.344 40.401)" xlink:href="#IZ_Location"/>
    <use width="23.156" height="50.001" transform="translate(226.533 40.401)" xlink:href="#IZ_Location"/>
    <g>
      <path d="M108.451,46.638a.644.644,0,0,0,.183.027.657.657,0,0,0,.629-.474c.3-1.031.644-2.063,1.024-3.068a.656.656,0,1,0-1.226-.466c-.391,1.036-.746,2.1-1.056,3.166A.659.659,0,0,0,108.451,46.638Z" fill="#3999d5"/>
      <path d="M107.211,53.089a.6.6,0,0,0,.085.005.656.656,0,0,0,.649-.573c.137-1.071.318-2.144.536-3.191a.655.655,0,1,0-1.282-.269c-.225,1.079-.411,2.187-.554,3.292A.657.657,0,0,0,107.211,53.089Z" fill="#3999d5"/>
      <path d="M114.2,34.82a.654.654,0,0,0,.543-.287c.6-.888,1.246-1.763,1.915-2.6a.656.656,0,1,0-1.022-.824c-.69.865-1.356,1.767-1.977,2.684a.66.66,0,0,0,.173.914A.652.652,0,0,0,114.2,34.82Z" fill="#3999d5"/>
      <path d="M110.673,40.46a.666.666,0,0,0,.279.063.654.654,0,0,0,.593-.378c.457-.972.957-1.938,1.486-2.87a.658.658,0,0,0-.244-.9.652.652,0,0,0-.894.246c-.546.96-1.061,1.957-1.533,2.96A.66.66,0,0,0,110.673,40.46Z" fill="#3999d5"/>
      <path d="M123.134,25.286a.646.646,0,0,0,.4-.137c.839-.652,1.721-1.284,2.623-1.879a.66.66,0,0,0,.187-.911.652.652,0,0,0-.907-.188c-.929.613-1.84,1.265-2.7,1.938a.657.657,0,0,0,.4,1.177Z" fill="#3999d5"/>
      <path d="M106.985,59.656a.658.658,0,0,0,.637-.676c-.011-.386-.017-.77-.017-1.156,0-.687.017-1.387.052-2.08a.658.658,0,0,0-.621-.69.672.672,0,0,0-.688.624c-.035.715-.053,1.437-.053,2.146q0,.6.017,1.193a.656.656,0,0,0,.654.639Z" fill="#3999d5"/>
      <path d="M120.185,26.253c-.821.748-1.62,1.535-2.374,2.339a.66.66,0,0,0,.029.93.655.655,0,0,0,.926-.028c.73-.78,1.5-1.543,2.3-2.267a.659.659,0,0,0,.044-.929A.652.652,0,0,0,120.185,26.253Z" fill="#3999d5"/>
      <path d="M128.6,21.682a.652.652,0,0,0,.315-.082c.943-.521,1.911-1.009,2.882-1.451a.657.657,0,0,0-.541-1.2c-1,.456-2,.96-2.972,1.5a.658.658,0,0,0,.316,1.234Z" fill="#3999d5"/>
      <path d="M143.276,15.836a4.437,4.437,0,1,1,.573,3.351A4.415,4.415,0,0,1,143.276,15.836Zm-2.405,1.392a.754.754,0,0,0,.125-.011c.072-.015.145-.025.218-.04a6.4,6.4,0,0,0,6.382,6.054,6.332,6.332,0,0,0,3.4-.99,6.41,6.41,0,0,0,2.975-5.412c.7.091,1.405.194,2.1.319a.6.6,0,0,0,.118.011.658.658,0,0,0,.117-1.3c-.815-.148-1.642-.267-2.471-.367a6.377,6.377,0,0,0-12.55.34c-.178.033-.357.062-.535.1a.658.658,0,0,0,.122,1.3Z" fill="#3999d5"/>
      <path d="M134.562,18.968a.643.643,0,0,0,.223-.039c1-.364,2.037-.695,3.07-.98a.657.657,0,0,0-.346-1.268c-1.067.295-2.134.635-3.171,1.012a.658.658,0,0,0,.224,1.275Z" fill="#3999d5"/>
      <path d="M108.307,65.409c-.2-1.055-.355-2.131-.469-3.2a.655.655,0,1,0-1.3.14c.118,1.1.281,2.215.485,3.3a.655.655,0,0,0,.643.537.628.628,0,0,0,.121-.012A.657.657,0,0,0,108.307,65.409Z" fill="#3999d5"/>
      <path d="M109.373,72.53a.631.631,0,0,0,.22-.039.657.657,0,0,0,.4-.84c-.358-1.008-.683-2.047-.964-3.087a.655.655,0,1,0-1.264.344c.289,1.074.624,2.146,1,3.186A.657.657,0,0,0,109.373,72.53Z" fill="#3999d5"/>
      <path d="M178.11,86.712c-.75.767-1.541,1.513-2.347,2.216a.659.659,0,0,0-.066.927.654.654,0,0,0,.925.066c.833-.726,1.648-1.5,2.422-2.287a.656.656,0,1,0-.934-.922Z" fill="#3999d5"/>
      <path d="M161.867,96.932c-1.011.343-2.052.65-3.092.913a.658.658,0,0,0,.159,1.3.7.7,0,0,0,.162-.019c1.072-.272,2.147-.588,3.191-.943a.657.657,0,0,0-.42-1.246Z" fill="#3999d5"/>
      <path d="M142.78,98.646c-1.058-.156-2.123-.357-3.168-.595a.657.657,0,0,0-.29,1.282c1.077.247,2.176.453,3.268.614a.616.616,0,0,0,.095.007.658.658,0,0,0,.095-1.308Z" fill="#3999d5"/>
      <path d="M155.622,98.51c-1.054.18-2.13.319-3.2.415a.657.657,0,0,0,.058,1.312c.019,0,.039,0,.059,0,1.1-.1,2.211-.242,3.3-.427a.658.658,0,0,0-.219-1.3Z" fill="#3999d5"/>
      <path d="M149.214,99.085h-.006l-.424,0c-.925,0-1.867-.033-2.8-.1a.658.658,0,0,0-.088,1.313c.961.064,1.931.1,2.886.1l.436,0a.658.658,0,0,0-.006-1.315Z" fill="#3999d5"/>
      <path d="M173.25,90.953c-.825.613-1.685,1.2-2.556,1.756l-.114.072a.658.658,0,0,0,.355,1.211.648.648,0,0,0,.353-.105l.1-.065c.9-.571,1.788-1.181,2.638-1.812a.659.659,0,0,0,.137-.92A.651.651,0,0,0,173.25,90.953Z" fill="#3999d5"/>
      <path d="M167.791,94.39c-.947.5-1.926.965-2.911,1.388a.658.658,0,0,0,.257,1.262.631.631,0,0,0,.258-.053c1.017-.437,2.027-.919,3-1.433a.657.657,0,0,0-.608-1.164Z" fill="#3999d5"/>
      <path d="M122.43,89.541a.653.653,0,0,0-.923.086.66.66,0,0,0,.086.926c.852.711,1.74,1.394,2.636,2.03a.654.654,0,0,0,.914-.157.659.659,0,0,0-.158-.917C124.116,90.893,123.257,90.23,122.43,89.541Z" fill="#3999d5"/>
      <path d="M136.5,97.21c-1.023-.32-2.045-.683-3.038-1.081a.657.657,0,0,0-.485,1.222c1.024.41,2.078.785,3.134,1.115a.649.649,0,0,0,.194.03.658.658,0,0,0,.195-1.286Z" fill="#3999d5"/>
      <path d="M130.519,94.814c-.96-.476-1.913-.995-2.832-1.543a.657.657,0,0,0-.669,1.13c.948.566,1.931,1.1,2.921,1.592a.657.657,0,0,0,.58-1.179Z" fill="#3999d5"/>
      <path d="M182.5,34.182a.653.653,0,0,0,.912.164.66.66,0,0,0,.163-.916c-.633-.912-1.307-1.809-2-2.663a.656.656,0,1,0-1.015.832C181.23,32.428,181.884,33.3,182.5,34.182Z" fill="#3999d5"/>
      <path d="M189.81,55.316c.046.807.07,1.624.071,2.428,0,.271,0,.539-.007.808a.654.654,0,0,0,.642.669h.013a.656.656,0,0,0,.655-.645c0-.277.007-.554.007-.832,0-.83-.026-1.673-.074-2.505a.649.649,0,0,0-.692-.618A.657.657,0,0,0,189.81,55.316Z" fill="#3999d5"/>
      <path d="M185.755,39.762a.656.656,0,1,0,1.179-.575c-.479-.99-1.007-1.98-1.571-2.944a.655.655,0,1,0-1.129.666C184.779,37.843,185.292,38.8,185.755,39.762Z" fill="#3999d5"/>
      <path d="M190.4,61.191a.659.659,0,0,0-.716.59c-.1,1.069-.253,2.149-.44,3.206a.659.659,0,0,0,.531.763.755.755,0,0,0,.115.01.656.656,0,0,0,.644-.543c.193-1.091.345-2.2.453-3.307A.656.656,0,0,0,190.4,61.191Z" fill="#3999d5"/>
      <path d="M188.927,48.911c.23,1.049.421,2.12.568,3.185a.654.654,0,0,0,.647.567.7.7,0,0,0,.091-.006.657.657,0,0,0,.559-.741c-.151-1.1-.348-2.2-.585-3.288a.655.655,0,1,0-1.28.283Z" fill="#3999d5"/>
      <path d="M188.111,45.78a.654.654,0,0,0,.626.466.669.669,0,0,0,.191-.028.659.659,0,0,0,.436-.821c-.321-1.059-.689-2.12-1.094-3.154a.655.655,0,1,0-1.219.481C187.443,43.726,187.8,44.754,188.111,45.78Z" fill="#3999d5"/>
      <path d="M159.217,17.85c1.037.274,2.074.591,3.083.945a.647.647,0,0,0,.215.036.658.658,0,0,0,.216-1.279c-1.042-.364-2.111-.692-3.181-.974a.657.657,0,0,0-.333,1.272Z" fill="#3999d5"/>
      <path d="M171.681,21.921a.652.652,0,0,0-.905.2.66.66,0,0,0,.2.909c.9.577,1.784,1.2,2.64,1.85a.648.648,0,0,0,.395.134.658.658,0,0,0,.4-1.182C173.521,23.158,172.6,22.516,171.681,21.921Z" fill="#3999d5"/>
      <path d="M165.3,19.976c.977.43,1.952.906,2.9,1.414a.657.657,0,0,0,.618-1.16c-.976-.524-1.982-1.014-2.99-1.459a.657.657,0,0,0-.526,1.2Z" fill="#3999d5"/>
      <path d="M187.709,80.654a4.409,4.409,0,0,1-6.1-1.385,4.457,4.457,0,0,1,1.381-6.127,4.409,4.409,0,0,1,6.1,1.387A4.456,4.456,0,0,1,187.709,80.654Zm3.042-7.178a6.358,6.358,0,0,0-1.851-1.9c.345-1.018.657-2.059.926-3.1a.655.655,0,1,0-1.268-.33c-.242.939-.525,1.878-.833,2.8a6.415,6.415,0,0,0-2.383-.464,6.343,6.343,0,0,0-3.4.99,6.43,6.43,0,0,0-1.994,8.847,6.355,6.355,0,0,0,1.926,1.946c-.511.7-1.042,1.389-1.595,2.05a.662.662,0,0,0,.082.927.652.652,0,0,0,.923-.082c.614-.735,1.2-1.5,1.767-2.28a6.4,6.4,0,0,0,7.7-9.406Z" fill="#3999d5"/>
      <path d="M178.418,29.177a.657.657,0,1,0,.946-.911c-.766-.8-1.57-1.581-2.392-2.315a.656.656,0,1,0-.871.982C176.9,27.645,177.676,28.4,178.418,29.177Z" fill="#3999d5"/>
      <path d="M116.564,86.178a4.436,4.436,0,0,1-4.72-7.512c.089-.057.184-.1.277-.149a.53.53,0,0,0,.382-.188,4.436,4.436,0,0,1,4.061,7.849ZM119.607,79a6.309,6.309,0,0,0-7.575-2.593c-.292-.579-.575-1.164-.839-1.752a.655.655,0,1,0-1.195.538c.267.6.554,1.19.85,1.777-.018.011-.036.017-.054.029a6.417,6.417,0,0,0,3.416,11.839,6.338,6.338,0,0,0,3.4-.991,6.492,6.492,0,0,0,.617-.449c.3.309.591.623.895.92a.652.652,0,0,0,.926-.012.658.658,0,0,0-.011-.929c-.3-.293-.59-.6-.884-.909A6.433,6.433,0,0,0,119.607,79Z" fill="#3999d5"/>
      <path d="M149.564,55.614a4.734,4.734,0,0,1-1.55-.029c-.431-.087-.316-.721-.6-.923a.468.468,0,0,0-.574.087,8.437,8.437,0,0,0-.862-.347c-.46,0-.631.231-1.119.26s-.086-.346.43-.576a2.573,2.573,0,0,1,1.522-.116,17.16,17.16,0,0,0,1.722.577C149.794,54.864,149.88,55.527,149.564,55.614Zm2.641.836c-.488-.029-.66-.2-.947,0s-1.063.374-1.063-.346c0-.413.087-.693.862-.721a2.661,2.661,0,0,1,1.78.634C153.009,56.248,152.693,56.478,152.205,56.45Zm13.322,11.616c-.058.288-.8.634-1.321.98A3.042,3.042,0,0,0,163,70.89a4.4,4.4,0,0,1-1.177,1.989,22.952,22.952,0,0,1-2.641,1.153,4.347,4.347,0,0,0-1.723,2.018,3.312,3.312,0,0,1-2.01,1.412,4.74,4.74,0,0,0-1.894,1.038c-.546.49-1.062,1.182-1.436,1.441s-.287.634-.488,1.5-.373.807-.832.663-.776-.6-1.12-1.383a2.165,2.165,0,0,1-.115-1.557c.058-.375.373-.808.43-1.211s-.085-1.037,0-1.47a10.866,10.866,0,0,1,.546-1.441,16.024,16.024,0,0,0,.058-2.652c0-.489-.575-1.095-1.12-1.413a15.415,15.415,0,0,1-1.752-1.152,3.559,3.559,0,0,1-.832-1.47,4.958,4.958,0,0,0-1.177-1.5c-.316-.231-.287-.75-.259-1.211a10.122,10.122,0,0,1,.23-1.44c.086-.376.546-.635,1.12-1.125s.574-.663.459-1.124a1.984,1.984,0,0,0-.574-1.239c-.43-.376-.832.028-1.407,0s-.861-.433-1.206-.692-1.033-1.211-1.263-1.413-.6-.144-1.062-.173-.546-.029-.747-.173-.574-.692-.861-.836a2.275,2.275,0,0,0-.947-.317,6.808,6.808,0,0,1-1.522-.374,15.2,15.2,0,0,1-2.469-1.47c-.315-.26-.287-.4-.287-.808s0-.576-.2-.778-.431-.98-.718-1.3a7.812,7.812,0,0,1-.718-1.471c-.143-.288,0-1.124-.114-1.3s-.259.087-.345.346a2.249,2.249,0,0,0-.029,1.095,7.814,7.814,0,0,0,.316,1.182,6.35,6.35,0,0,1,.116,1.3c.028.346-.249.163-.594-.067s-.153-.653-.345-1.153-.191-1.73-.382-2.767a5.3,5.3,0,0,1,.382-2.613,4.086,4.086,0,0,1,1.378-2.037,7.784,7.784,0,0,0,1.264-.922,3.77,3.77,0,0,0,.536-1.308c.153-.5.5-.461.88-1.191s.5-.768.5-.768c.344-.433-.23-.721-.947-.779s-2.011-.432-2.384.058a2.7,2.7,0,0,1-1.866.922,13.818,13.818,0,0,0-1.636.26c-.689.115.373-.289.746-.461a8.443,8.443,0,0,0,1.033-.663,8.224,8.224,0,0,1,1.264-.952,17.342,17.342,0,0,1,1.694-.663c.6-.26.832-.519,1.149-.634a5.052,5.052,0,0,1,1.665-.087c.516.058.258-.172.8-.2a6.37,6.37,0,0,1,1.866.23,3.3,3.3,0,0,0,1.436.173,14.1,14.1,0,0,1,2.21-.057,25.57,25.57,0,0,1,2.5.663,12.246,12.246,0,0,1,1.464-.116,4.814,4.814,0,0,0,1.838-.086c.545-.23,0-.23,1.291-.548s1.206.577,1.321.98-.66.75-1.492.808a3.31,3.31,0,0,0-1.694.576c-.747.375-.459.951-.259,1.124s.632.144.948.23.545.52.832.577.431.462.689.807.4.288.747.029.459-.663.631-.692a1.329,1.329,0,0,0,.775-.432,1.484,1.484,0,0,0,.345-.922,1.038,1.038,0,0,1,1.264-.778c.8.2.544.806.746.95a1.891,1.891,0,0,0,.774.145,1.574,1.574,0,0,0,.633-.26c.258-.2.487.087.775.548s.6,1.038.89,1.5.057.6-.4.576a8.192,8.192,0,0,0-1.9-.115c-.516.115-.142.606-.171.893s-.029.462-.6.894-.948.23-1.436.4-.488.432-.717.808-.517.23-.891.288-.315,0-.746.519a6.571,6.571,0,0,1-.919.894.557.557,0,0,1-.315-.347c-.115-.287-.23.029-.346.865a1.27,1.27,0,0,1-1.234,1.21,2.9,2.9,0,0,0-1.75.721,4.37,4.37,0,0,0-.087,1.73c0,.778.087,1.037-.2.893a1.29,1.29,0,0,1-.574-1.066c-.058-.548-.114-.778-.6-.923a12.92,12.92,0,0,0-2.383.116c-1.148.029-1.578-.26-2.44-.2s-1.292.894-1.55,1.441S138.6,54,139,55.008a1.922,1.922,0,0,0,1.78,1.211c.43,0,.546-.346.832-.808a2.24,2.24,0,0,1,1.292-.951c.6-.2.776.289.689.606s-.631.576-.861,1.355.488.72,1.263.461a.708.708,0,0,1,1,.749,5.783,5.783,0,0,1-.46,1.268.872.872,0,0,0,.575,1.1,2.55,2.55,0,0,0,1.235-.087,1,1,0,0,1,.947.26c.173.23.574.519.746.317a5.669,5.669,0,0,1,.919-.807,3.5,3.5,0,0,1,1.895-.577c.574.058,1.349.778,2.01.952A5.322,5.322,0,0,0,154.56,60a4,4,0,0,1,1.492.721,2.361,2.361,0,0,0,1.062.345,1.923,1.923,0,0,1,1.091.692s.517.173.891.317.947.692.947.98a1.958,1.958,0,0,0,.373,1.239c.345.433.919.318,1.551.491a3.593,3.593,0,0,1,1.406,1.066c.23.23.46.115,1.178.259S165.584,67.777,165.527,68.066ZM145.4,36.734c.316-.432,1.493.086,1.493.086a3.5,3.5,0,0,0,1.723.231c.976-.116,1.075.256,1.033.49-.057.317-.431.374-1.12.432a9.163,9.163,0,0,1-2.383.087C145.286,37.915,145.085,37.166,145.4,36.734Zm2.182-.375a2.854,2.854,0,0,1,2.3-.346c.947.2,1.09.721.775.951a.914.914,0,0,1-.976-.057c-.258-.144-.46-.317-1.321-.144S147.389,36.5,147.583,36.359Zm3.588-.029c.118-.432.776.375,1.092.577s-.2.317-.632.317S151.086,36.647,151.171,36.33Zm1.207-1.008a7.241,7.241,0,0,1,2.469-.231c1.234.058,1.119.49.774.663s-.631.49-1.061.72a2.883,2.883,0,0,1-1.58.144,1.288,1.288,0,0,1-1.177-.605C151.545,35.667,151.89,35.465,152.378,35.322Zm1.292,2.824c-.747.144-1.266-.127-1.321-.433s-.086-.288.4-.547a3.387,3.387,0,0,1,2.01,0,4.482,4.482,0,0,1,1.865,1.008c.259.26-.029.405.087.548a.8.8,0,0,1,.172.952c-.259.461-.6.519-1.264.23s-.975-.49-.947-.778.316-.288.316-.547S154.416,38,153.67,38.146Zm3.531-2.363a1.032,1.032,0,0,1,1.263.317,2.988,2.988,0,0,0,.89.691c.316.173.948.807,1.321,1.1s.315.836.258,1.759,0,.951-.316.894a3.368,3.368,0,0,1-1.263-.807,5.346,5.346,0,0,1-1.062-1.846c-.316-.634-.46-.691-1.062-.691a2.426,2.426,0,0,1-1.264-.288c-.688-.26-.3-.6.086-.778A11.224,11.224,0,0,1,157.2,35.783Zm-8.68-3.642a25.212,25.212,0,1,0,25.112,25.212A25.162,25.162,0,0,0,148.521,32.141Z" fill="#3999d5"/>
    </g>
  </g>
</svg>
