<svg xmlns="http://www.w3.org/2000/svg" viewBox="0 0 298 110">
  <title>2 - graphs</title>
  <g id="background_blue" data-name="background blue">
    <rect width="298" height="110" fill="#e4edf1"/>
  </g>
  <g id="Shapes">
    <g>
      <path d="M89.683,91.338h117.1V18.681H89.683Z" fill="#fff"/>
      <path d="M86.96,17.127a1.082,1.082,0,0,1,1.084-1.079H208.763a1.081,1.081,0,0,1,1.084,1.079V94.97a1.08,1.08,0,0,1-1.084,1.078H88.044A1.081,1.081,0,0,1,86.96,94.97ZM92.818,90.25H203.991V21.978H92.818Z" fill="#0078d7"/>
      <path d="M102.461,85.827h92.375v-.973H102.461Z" fill="#0078d7"/>
      <path d="M151.15,81.792h6.458V55.4H151.15Z" fill="#acd1ef"/>
      <path d="M163.32,81.792h6.458V55.4H163.32Z" fill="#acd1ef"/>
      <path d="M175.49,81.792h6.458V55.4H175.49Z" fill="#acd1ef"/>
      <path d="M187.66,81.792h6.458V55.4H187.66Z" fill="#acd1ef"/>
      <path d="M102.593,81.792h6.458V55.4h-6.458Z" fill="#acd1ef"/>
      <path d="M114.763,81.792h6.458V55.4h-6.458Z" fill="#acd1ef"/>
      <path d="M126.932,81.792h6.458V55.4h-6.458Z" fill="#acd1ef"/>
      <path d="M139.1,81.792h6.458V55.4H139.1Z" fill="#acd1ef"/>
      <path d="M151.15,81.792h6.458V56.951H151.15Z" fill="#0078d7"/>
      <path d="M163.32,81.792h6.458V58.615H163.32Z" fill="#0078d7"/>
      <path d="M175.49,81.792h6.458v-20.6H175.49Z" fill="#0078d7"/>
      <path d="M187.66,81.792h6.458V60.14H187.66Z" fill="#0078d7"/>
      <path d="M102.593,81.792h6.458V68.737h-6.458Z" fill="#0078d7"/>
      <path d="M114.763,81.792h6.458V66.379h-6.458Z" fill="#0078d7"/>
      <path d="M126.932,81.792h6.458V62.775h-6.458Z" fill="#0078d7"/>
      <path d="M139.1,81.792h6.458V57.506H139.1Z" fill="#0078d7"/>
      <path d="M190.051,31.772H162.1a.649.649,0,1,1,0-1.3h27.956a.649.649,0,1,1,0,1.3Z" fill="#acd1ef"/>
      <path d="M190.052,37.528H177.236a.649.649,0,1,1,0-1.3h12.816a.649.649,0,1,1,0,1.3Z" fill="#acd1ef"/>
      <path d="M190.052,43.085h-18.2a.649.649,0,1,1,0-1.3h18.2a.649.649,0,1,1,0,1.3Z" fill="#acd1ef"/>
      <path d="M176.946,34.8v1.6H153.59v.973h23.356v2.193h.978V34.8Z" fill="#0078d7"/>
      <path d="M171.508,40.005V41.95H153.58V31.556h7.2v1.949h.978V28.742h-.978v1.841h-7.2V28.346H152.6V44.818h.978v-1.9h17.928v1.847h.978V40.005Z" fill="#0078d7"/>
      <path d="M103.8,43.752a.649.649,0,0,1-.45-1.118l9.745-9.248,8.367,6.558L130.9,29.187l10.028,12.686a.646.646,0,0,1-.11.91.654.654,0,0,1-.916-.109l-9.055-11.456-9.226,10.508L113.174,35.1l-8.927,8.473A.654.654,0,0,1,103.8,43.752Z" fill="#acd1ef"/>
      <path d="M140.42,44.693a2.42,2.42,0,1,1,2.432-2.419A2.428,2.428,0,0,1,140.42,44.693Z" fill="#fff"/>
      <path d="M140.42,39.367a2.907,2.907,0,1,0,2.921,2.906A2.914,2.914,0,0,0,140.42,39.367Zm0,.973a1.934,1.934,0,1,1-1.944,1.933A1.94,1.94,0,0,1,140.42,40.34Z" fill="#0078d7"/>
      <path d="M103.935,45.506a2.42,2.42,0,1,1,2.433-2.419A2.429,2.429,0,0,1,103.935,45.506Z" fill="#fff"/>
      <path d="M103.935,40.18a2.907,2.907,0,1,0,2.922,2.906A2.915,2.915,0,0,0,103.935,40.18Zm0,.973a1.934,1.934,0,1,1-1.944,1.933A1.941,1.941,0,0,1,103.935,41.153Z" fill="#0078d7"/>
      <path d="M121.469,43.073a2.42,2.42,0,1,1,2.433-2.42A2.429,2.429,0,0,1,121.469,43.073Z" fill="#fff"/>
      <path d="M121.468,37.747a2.906,2.906,0,1,0,2.922,2.906A2.914,2.914,0,0,0,121.468,37.747Zm0,.972a1.934,1.934,0,1,1-1.943,1.934A1.941,1.941,0,0,1,121.468,38.719Z" fill="#0078d7"/>
      <path d="M113.183,36.809a2.42,2.42,0,1,1,2.433-2.419A2.428,2.428,0,0,1,113.183,36.809Z" fill="#fff"/>
      <path d="M113.184,31.484a2.906,2.906,0,1,0,2.921,2.905A2.913,2.913,0,0,0,113.184,31.484Zm0,.972a1.934,1.934,0,1,1-1.944,1.933A1.94,1.94,0,0,1,113.184,32.456Z" fill="#0078d7"/>
      <path d="M131,32.811a2.42,2.42,0,1,1,2.433-2.419A2.429,2.429,0,0,1,131,32.811Z" fill="#fff"/>
      <path d="M131,27.485a2.906,2.906,0,1,0,2.922,2.906A2.914,2.914,0,0,0,131,27.485Zm0,.973a1.934,1.934,0,1,1-1.943,1.933A1.941,1.941,0,0,1,131,28.458Z" fill="#0078d7"/>
    </g>
  </g>
</svg>
