<svg xmlns="http://www.w3.org/2000/svg" viewBox="0 0 298 110">
  <title>2 - stored-procedures</title>
  <g id="background_blue" data-name="background blue">
    <rect width="298" height="110" fill="#e4edf1"/>
  </g>
  <g id="Shapes">
    <g>
      <path d="M169.479,72.948h2.71V12.5h-53c-1.694.169-5.249,4.4-5.249,4.91V75.827a3.215,3.215,0,0,0,3.217,3.217h48.257V78.028Z" fill="#0072c6"/>
      <path d="M121.561,15.209a4.015,4.015,0,0,0-3.386,1.355c-2.879,2.54.677,2.54,2.032,2.54h45.209V78.028l4.063-5.249V15.209Z" fill="#e5e5e5"/>
      <polygon points="165.416 78.028 169.479 72.948 169.479 15.209 165.416 19.104 165.416 78.028" fill="#a0a1a2" opacity="0.5" style="isolation: isolate"/>
      <path d="M121.561,48.4a2.315,2.315,0,0,1-2.37,2.371H111.4a2.315,2.315,0,0,1-2.371-2.371h0a2.315,2.315,0,0,1,2.371-2.37h7.789a2.221,2.221,0,0,1,2.37,2.37Z" fill="#a0a1a2"/>
      <path d="M121.561,30.956a2.315,2.315,0,0,1-2.37,2.371H111.4a2.315,2.315,0,0,1-2.371-2.371h0a2.315,2.315,0,0,1,2.371-2.37h7.789a2.421,2.421,0,0,1,2.37,2.37Z" fill="#a0a1a2"/>
      <path d="M121.561,65.667a2.315,2.315,0,0,1-2.37,2.371H111.4a2.315,2.315,0,0,1-2.371-2.371h0A2.315,2.315,0,0,1,111.4,63.3h7.789a2.315,2.315,0,0,1,2.37,2.37Z" fill="#a0a1a2"/>
      <path d="M147.3,50.09V89.88c0,4.064,9.313,7.451,20.658,7.451V49.92H147.3Z" fill="#3999c6"/>
      <path d="M167.617,97.5h.339c11.344,0,20.657-3.386,20.657-7.45V50.09h-21Z" fill="#59b4d9"/>
      <path d="M188.613,50.09c0,4.063-9.313,7.45-20.657,7.45S147.3,54.153,147.3,50.09s9.313-7.451,20.658-7.451,20.657,3.387,20.657,7.451" fill="#fff"/>
      <path d="M184.38,49.582c0,2.709-7.45,4.91-16.424,4.91s-16.425-2.2-16.425-4.91,7.45-4.911,16.425-4.911,16.424,2.2,16.424,4.911" fill="#7fba00"/>
      <path d="M180.993,52.629c2.2-.846,3.387-1.862,3.387-3.047,0-2.709-7.45-4.911-16.424-4.911-9.144,0-16.425,2.2-16.425,4.911,0,1.185,1.355,2.2,3.387,3.047,3.048-1.185,7.789-1.862,13.038-1.862s9.99.677,13.037,1.862" fill="#b8d432"/>
    </g>
  </g>
</svg>
