<svg xmlns="http://www.w3.org/2000/svg" viewBox="0 0 298 110">
  <title>2 - triggers</title>
  <g id="background_blue" data-name="background blue">
    <rect width="298" height="110" fill="#e4edf1"/>
  </g>
  <g id="Shapes">
    <g>
      <path d="M29.6,42.24h9.387a.422.422,0,0,1,.422.422h0V62.406a.423.423,0,0,1-.423.423H29.6a.422.422,0,0,1-.422-.422h0V42.663a.423.423,0,0,1,.423-.423Z"/>
      <rect x="30.076" y="46.426" width="8.442" height="4.09" fill="#00aeef"/>
      <rect x="30.076" y="50.678" width="1.952" height="1.952" fill="#fff"/>
      <rect x="32.239" y="50.678" width="1.952" height="1.952" fill="#00aeef"/>
      <rect x="34.403" y="50.678" width="1.951" height="1.952" fill="#00aeef"/>
      <rect x="36.566" y="50.678" width="1.952" height="1.952" fill="#00aeef"/>
      <rect x="30.076" y="52.79" width="4.115" height="4.091" fill="#00aeef"/>
      <rect x="34.403" y="52.79" width="1.951" height="1.952" fill="#fdb813"/>
      <rect x="36.566" y="52.79" width="1.952" height="1.952" fill="#00aeef"/>
      <rect x="34.403" y="54.928" width="1.951" height="1.953" fill="#fff"/>
      <rect x="36.566" y="54.928" width="1.952" height="1.953" fill="#00aeef"/>
      <rect x="36.566" y="59.163" width="1.952" height="1.184" fill="#00aeef"/>
      <rect x="32.239" y="59.001" width="4.115" height="1.346" fill="#00aeef"/>
      <rect x="30.076" y="59.163" width="1.952" height="1.184" fill="#00aeef"/>
      <rect x="30.076" y="57.048" width="1.952" height="1.952" fill="#4bc1bf"/>
      <rect x="32.239" y="57.048" width="4.115" height="1.952" fill="#00aeef"/>
      <rect x="36.566" y="57.048" width="1.952" height="1.952" fill="#68217a"/>
      <polyline points="31.052 61.967 30.722 61.692 31.052 61.416" fill="none" stroke="#969696" stroke-linecap="round" stroke-miterlimit="10" stroke-width="0.309"/>
      <line x1="30.722" y1="61.692" x2="31.3" y2="61.692" fill="none" stroke="#969696" stroke-linecap="round" stroke-miterlimit="10" stroke-width="0.309"/>
      <circle cx="37.598" cy="61.628" r="0.21" fill="none" stroke="#969696" stroke-linecap="round" stroke-miterlimit="10" stroke-width="0.309"/>
      <line x1="37.451" y1="61.774" x2="37.253" y2="61.972" fill="none" stroke="#969696" stroke-linecap="round" stroke-miterlimit="10" stroke-width="0.309"/>
      <polygon points="34.247 61.692 34.593 61.692 34.593 61.388 34.247 61.435 34.247 61.692" fill="#969696"/>
      <polygon points="34.222 61.692 34.222 61.44 33.958 61.476 33.958 61.692 34.222 61.692" fill="#969696"/>
      <polygon points="34.247 61.717 34.247 61.974 34.593 62.021 34.593 61.717 34.247 61.717" fill="#969696"/>
      <polygon points="34.222 61.717 33.958 61.717 33.958 61.933 34.222 61.97 34.222 61.717" fill="#969696"/>
      <rect x="38.911" y="57.591" width="0.646" height="2.369"/>
      <path d="M35.617,43.488a.172.172,0,0,1-.173.173H33.36a.173.173,0,0,1-.172-.173h0a.172.172,0,0,1,.171-.172h2.085a.173.173,0,0,1,.173.171Z" fill="#969696"/>
      <rect x="30.202" y="44.888" width="0.096" height="0.355" fill="#fff"/>
      <rect x="30.105" y="44.981" width="0.097" height="0.262" fill="#fff"/>
      <rect x="30.008" y="45.039" width="0.097" height="0.204" fill="#fff"/>
      <rect x="29.911" y="45.096" width="0.097" height="0.147" fill="#fff"/>
      <rect x="29.814" y="45.141" width="0.097" height="0.102" fill="#fff"/>
      <rect x="37.088" y="44.888" width="0.409" height="0.355" fill="#fff"/>
      <rect x="36.801" y="44.99" width="0.101" height="0.151" fill="#fff"/>
      <path d="M96.688,32.391a4.431,4.431,0,0,0-.691.055,8.271,8.271,0,0,0-16.251-1.712A6.116,6.116,0,0,0,69.3,34.408,5.658,5.658,0,0,0,66.4,35.761a3.4,3.4,0,1,0-2.757,5.381H96.954v-.009a4.375,4.375,0,0,0-.265-8.742Z" fill="#00abec" opacity="0.23" style="isolation: isolate"/>
      <path d="M46.612,33.783H81.4a.513.513,0,0,1,.512.513V55.48a.512.512,0,0,1-.512.512H46.612a.511.511,0,0,1-.512-.511V34.3A.513.513,0,0,1,46.612,33.783Z"/>
      <path d="M49.307,36.449H78.7a.433.433,0,0,1,.433.433h0V52.706a.433.433,0,0,1-.433.433H49.307a.433.433,0,0,1-.433-.434h0V36.883A.433.433,0,0,1,49.307,36.449Z" fill="#34306d"/>
      <rect x="51.309" y="40.254" width="6.997" height="3.381" fill="#079dad"/>
      <rect x="58.566" y="40.254" width="6.997" height="3.381" fill="#5d499d"/>
      <rect x="65.8" y="40.254" width="3.381" height="3.381" fill="#4573b8"/>
      <rect x="69.37" y="40.254" width="3.38" height="3.381" fill="#0a8b44"/>
      <rect x="65.8" y="43.847" width="3.381" height="3.381" fill="#973693"/>
      <rect x="51.309" y="43.847" width="3.381" height="3.381" fill="#58843b"/>
      <rect x="51.309" y="47.487" width="3.381" height="3.381" fill="#5894ce"/>
      <rect x="54.961" y="47.487" width="3.381" height="3.381" fill="#973693"/>
      <rect x="58.566" y="43.847" width="6.997" height="3.381" fill="#f9f7f8"/>
      <rect x="58.566" y="47.487" width="6.997" height="3.381" fill="#315daa"/>
      <rect x="65.753" y="49.734" width="6.997" height="1.134" fill="#bc1f4a"/>
      <rect x="65.753" y="47.487" width="6.997" height="2.247" fill="#f9f7f8"/>
      <rect x="69.37" y="43.847" width="3.38" height="3.381" fill="#315daa"/>
      <rect x="74.382" y="43.847" width="3.381" height="3.381" fill="#109c49"/>
      <rect x="74.382" y="47.441" width="3.381" height="3.381" fill="#da562c"/>
      <rect x="77.916" y="43.847" width="1.218" height="3.381" fill="#8a288f"/>
      <rect x="77.916" y="47.441" width="1.218" height="3.381" fill="#b01e40"/>
      <rect x="74.382" y="40.254" width="4.752" height="3.381" fill="#f69a83"/>
      <polygon points="56.608 43.847 54.905 43.847 54.905 45.55 54.905 47.251 56.608 47.251 58.31 47.251 58.31 45.55 58.31 43.847 56.608 43.847" fill="#cbc9b4"/>
      <rect x="77.503" y="37.559" width="0.922" height="0.875" fill="#f69a83"/>
      <g style="isolation: isolate">
        <g style="isolation: isolate">
          <path d="M51.979,37.8c0-.053-.013-.085-.041-.1a.26.26,0,0,0-.1-.018.5.5,0,0,0-.231.051c-.069.033-.1.073-.1.12a.112.112,0,0,0,.046.088.641.641,0,0,0,.2.082.7.7,0,0,1,.213.09.131.131,0,0,1,.062.11.2.2,0,0,1-.087.141.608.608,0,0,1-.213.116.738.738,0,0,1-.212.04.264.264,0,0,1-.11-.018c-.025-.011-.038-.025-.038-.043a.112.112,0,0,1,.012-.044c.007-.017.015-.026.022-.026a.079.079,0,0,1,.025,0,.383.383,0,0,0,.127.023.513.513,0,0,0,.241-.066c.085-.044.127-.085.127-.124,0-.016-.013-.031-.039-.047a1.261,1.261,0,0,0-.2-.072.538.538,0,0,1-.241-.12.21.21,0,0,1-.045-.124.23.23,0,0,1,.144-.2.643.643,0,0,1,.3-.076.3.3,0,0,1,.159.035.1.1,0,0,1,.056.078.186.186,0,0,1-.013.059C52.035,37.79,52.014,37.8,51.979,37.8Z" fill="#fff"/>
        </g>
        <g style="isolation: isolate">
          <path d="M52.238,37.868c.041,0,.08-.007.116-.012a.874.874,0,0,1,.09-.006.114.114,0,0,1,.058.009.034.034,0,0,1,.013.029c0,.032-.024.05-.069.053l-.16.014a.243.243,0,0,0-.079.017,1.013,1.013,0,0,0-.036.143.979.979,0,0,0-.03.177.149.149,0,0,0,.017.088.061.061,0,0,0,.052.022.272.272,0,0,0,.144-.077.1.1,0,0,1,.054-.033c.017,0,.026.01.026.029s-.028.065-.083.111a.268.268,0,0,1-.17.069c-.1,0-.146-.057-.146-.172a.955.955,0,0,1,.03-.191,1.157,1.157,0,0,0,.03-.154q0-.009-.015-.009l-.062,0c-.051,0-.077-.021-.077-.062,0-.022.012-.034.036-.034H52.1a.027.027,0,0,0,.021-.012.253.253,0,0,0,.028-.076c.013-.044.024-.087.034-.129s.028-.063.056-.063a.049.049,0,0,1,.04.018.056.056,0,0,1,.015.034c0,.006-.008.034-.022.086Z" fill="#fff"/>
        </g>
        <g style="isolation: isolate">
          <path d="M52.834,38.255a.741.741,0,0,1-.166.169.282.282,0,0,1-.151.057.106.106,0,0,1-.08-.039.154.154,0,0,1-.034-.1.565.565,0,0,1,.142-.34.38.38,0,0,1,.28-.182.08.08,0,0,1,.075.057.026.026,0,0,0,.025.02c.032,0,.048.013.048.037a.3.3,0,0,1-.006.051,1.551,1.551,0,0,0-.032.25c0,.1.017.155.054.174a.041.041,0,0,1,.027.036c0,.011-.009.024-.026.037a.081.081,0,0,1-.05.018c-.031,0-.056-.02-.076-.063A.435.435,0,0,1,52.834,38.255Zm-.037-.338c-.053,0-.114.049-.184.149a.459.459,0,0,0-.1.246c0,.046.015.069.046.069s.1-.045.182-.134A.386.386,0,0,0,52.854,38C52.854,37.946,52.835,37.917,52.8,37.917Z" fill="#fff"/>
        </g>
        <g style="isolation: isolate">
          <path d="M53.162,38.235l.015-.03a1.1,1.1,0,0,1,.074-.147,1.226,1.226,0,0,1,.076-.1.5.5,0,0,1,.074-.073.253.253,0,0,1,.062-.035.149.149,0,0,1,.054-.011.115.115,0,0,1,.085.033.1.1,0,0,1,.033.073.052.052,0,0,1-.012.033.039.039,0,0,1-.035.016.064.064,0,0,1-.047-.023.061.061,0,0,0-.045-.022c-.041,0-.1.05-.173.151a.723.723,0,0,0-.134.333.1.1,0,0,1-.023.063.071.071,0,0,1-.047.014c-.019,0-.034-.014-.043-.044a.55.55,0,0,1-.014-.147c0-.019,0-.061,0-.124a1.56,1.56,0,0,1,.014-.184.39.39,0,0,0,.006-.054.321.321,0,0,1,.011-.063.074.074,0,0,1,.026-.034.067.067,0,0,1,.042-.016.039.039,0,0,1,.033.015.043.043,0,0,1,.011.03.265.265,0,0,1-.012.066.425.425,0,0,0-.015.065c0,.014,0,.028-.007.043a1.269,1.269,0,0,0-.013.136v.038Z" fill="#fff"/>
        </g>
        <g style="isolation: isolate">
          <path d="M53.741,37.868c.041,0,.08-.007.116-.012a.874.874,0,0,1,.09-.006.114.114,0,0,1,.058.009.034.034,0,0,1,.013.029c0,.032-.024.05-.069.053l-.16.014a.243.243,0,0,0-.079.017,1.013,1.013,0,0,0-.036.143.979.979,0,0,0-.03.177.149.149,0,0,0,.017.088.059.059,0,0,0,.052.022.267.267,0,0,0,.143-.077.1.1,0,0,1,.055-.033c.017,0,.026.01.026.029s-.028.065-.083.111a.268.268,0,0,1-.17.069c-.1,0-.146-.057-.146-.172a.955.955,0,0,1,.03-.191,1.157,1.157,0,0,0,.03-.154q0-.009-.015-.009l-.063,0c-.05,0-.076-.021-.076-.062a.031.031,0,0,1,.035-.034H53.6a.027.027,0,0,0,.021-.012.253.253,0,0,0,.028-.076c.013-.044.024-.087.034-.129s.028-.063.056-.063a.049.049,0,0,1,.04.018.056.056,0,0,1,.015.034c0,.006-.008.034-.022.086Z" fill="#fff"/>
        </g>
      </g>
      <g style="isolation: isolate">
        <g style="isolation: isolate">
          <path d="M76.066,37.5a.024.024,0,0,1,.018.007.021.021,0,0,1,.008.015,1.373,1.373,0,0,1-.019.2.471.471,0,0,1-.056.187.121.121,0,0,1-.107.06.189.189,0,0,1-.106-.037c-.036-.025-.055-.046-.055-.064s.01-.027.03-.027.016.006.028.018a.155.155,0,0,0,.1.056.075.075,0,0,0,.068-.045.44.44,0,0,0,.041-.149,1.272,1.272,0,0,0,.016-.2.024.024,0,0,1,.011-.018A.03.03,0,0,1,76.066,37.5Z" fill="#fff"/>
        </g>
        <g style="isolation: isolate">
          <path d="M76.258,37.832a.447.447,0,0,1-.081.1.124.124,0,0,1-.077.036.06.06,0,0,1-.042-.023.109.109,0,0,1-.021-.074.5.5,0,0,1,.02-.12.486.486,0,0,0,.015-.092.031.031,0,0,1,.029-.018.029.029,0,0,1,.028.028.2.2,0,0,1-.015.062.4.4,0,0,0-.029.133c0,.034.008.05.023.05s.046-.016.078-.05a.455.455,0,0,0,.079-.143.191.191,0,0,1,.021-.048.027.027,0,0,1,.023-.011c.013,0,.02.01.02.029l-.006.022a.5.5,0,0,0-.018.128c0,.049.007.08.023.094s.013.014.013.018,0,.011-.013.016a.046.046,0,0,1-.022.008c-.015,0-.027-.011-.036-.032a.3.3,0,0,1-.012-.1v-.021Z" fill="#fff"/>
        </g>
        <g style="isolation: isolate">
          <path d="M76.554,37.9c0-.014-.017-.029-.05-.046a.5.5,0,0,1-.085-.052.055.055,0,0,1-.023-.043.12.12,0,0,1,.062-.1.2.2,0,0,1,.1-.04.069.069,0,0,1,.036.008.034.034,0,0,1,.01.03.02.02,0,0,1-.007.016.023.023,0,0,1-.013.007.029.029,0,0,1-.014,0l-.012,0a.194.194,0,0,0-.063.023c-.032.014-.048.032-.048.051a.045.045,0,0,0,.017.032.38.38,0,0,0,.06.034.208.208,0,0,1,.056.035.061.061,0,0,1,.021.045c0,.032-.022.057-.066.074a.325.325,0,0,1-.124.028c-.034,0-.051-.012-.051-.035a.019.019,0,0,1,.012-.017.049.049,0,0,1,.022-.006l.018,0,.017,0a.254.254,0,0,0,.074-.012A.087.087,0,0,0,76.554,37.9Z" fill="#fff"/>
        </g>
        <g style="isolation: isolate">
          <path d="M76.79,37.656l.061-.007.045,0a.066.066,0,0,1,.031.005.017.017,0,0,1,.006.014c0,.017-.012.027-.036.028l-.083.008a.123.123,0,0,0-.04.007.647.647,0,0,0-.018.075.537.537,0,0,0-.017.091.074.074,0,0,0,.01.045.031.031,0,0,0,.026.012.144.144,0,0,0,.075-.04.043.043,0,0,1,.028-.017c.009,0,.013,0,.013.014s-.014.034-.042.059a.146.146,0,0,1-.088.035c-.05,0-.075-.029-.075-.088a.443.443,0,0,1,.015-.1.58.58,0,0,0,.015-.079s0-.005-.007-.005l-.032,0c-.027,0-.04-.01-.04-.032a.016.016,0,0,1,.018-.018h.064c.005,0,.009,0,.011,0a.191.191,0,0,0,.015-.039c.006-.023.012-.045.017-.067s.014-.033.029-.033a.027.027,0,0,1,.021.01.031.031,0,0,1,.007.017l-.01.044Z" fill="#fff"/>
          <path d="M77.029,37.9a.277.277,0,0,0,.006.053l0,.009s0,.008-.011.014a.029.029,0,0,1-.021.009c-.021,0-.03-.018-.03-.055a1.03,1.03,0,0,1,.023-.18.389.389,0,0,0,.009-.053.074.074,0,0,1,.007-.034.023.023,0,0,1,.019-.013.04.04,0,0,1,.026.008.023.023,0,0,1,.008.016.085.085,0,0,1,0,.025c-.015.054-.025.093-.029.117A.665.665,0,0,0,77.029,37.9Zm.04-.346s-.007,0-.009-.014l0-.009a.1.1,0,0,1-.009-.035.04.04,0,0,1,.014-.026.048.048,0,0,1,.033-.013.035.035,0,0,1,.02.007c.008.005.011.01.011.014a.125.125,0,0,1-.007.034.054.054,0,0,1-.024.033A.061.061,0,0,1,77.069,37.553Z" fill="#fff"/>
        </g>
        <g style="isolation: isolate">
          <path d="M77.251,37.73a.053.053,0,0,0-.035.02.544.544,0,0,0-.058.095.594.594,0,0,1-.066.111.042.042,0,0,1-.026.014.032.032,0,0,1-.036-.035.2.2,0,0,1,0-.042,1.137,1.137,0,0,0,.017-.2.05.05,0,0,1,.01-.026.025.025,0,0,1,.042-.005.089.089,0,0,1,.006.04.909.909,0,0,1-.018.129.375.375,0,0,0-.006.04l0,.006a.489.489,0,0,0,.043-.074A.444.444,0,0,1,77.2,37.7a.091.091,0,0,1,.065-.031.054.054,0,0,1,.045.026.224.224,0,0,1,.025.092.514.514,0,0,0,.016.095c0,.013.011.019.022.019a.053.053,0,0,0,.024-.007h0c.009,0,.014.005.014.016a.045.045,0,0,1-.018.029.067.067,0,0,1-.044.015.043.043,0,0,1-.04-.021.292.292,0,0,1-.024-.111C77.281,37.76,77.27,37.73,77.251,37.73Z" fill="#fff"/>
        </g>
      </g>
      <path d="M83.149,57.492l-.126,0a8.831,8.831,0,0,0-17.6-.979,6.117,6.117,0,1,0-4.8,9.906H83.149a4.465,4.465,0,0,0,0-8.93Z" fill="#00abec" opacity="0.23" style="isolation: isolate"/>
      <path d="M31.339,58.5a3.757,3.757,0,0,0-.4.021,3.841,3.841,0,1,0-7.258-2.157A3.842,3.842,0,0,0,17,58.732a3.841,3.841,0,1,0-1.329,7.446H31.339a3.842,3.842,0,0,0,0-7.683Z" fill="#00abec" opacity="0.23" style="isolation: isolate"/>
    </g>
    <g>
      <path d="M271.736,42.24H262.35a.422.422,0,0,0-.423.422h0V62.406a.423.423,0,0,0,.423.423h9.387a.422.422,0,0,0,.422-.422h0V42.663a.423.423,0,0,0-.423-.423Z"/>
      <rect x="262.816" y="46.426" width="8.442" height="4.09" fill="#00aeef"/>
      <rect x="269.305" y="50.678" width="1.952" height="1.952" fill="#fff"/>
      <rect x="267.142" y="50.678" width="1.952" height="1.952" fill="#00aeef"/>
      <rect x="264.979" y="50.678" width="1.951" height="1.952" fill="#00aeef"/>
      <rect x="262.816" y="50.678" width="1.952" height="1.952" fill="#00aeef"/>
      <rect x="267.142" y="52.79" width="4.115" height="4.091" fill="#00aeef"/>
      <rect x="264.979" y="52.79" width="1.951" height="1.952" fill="#fdb813"/>
      <rect x="262.816" y="52.79" width="1.952" height="1.952" fill="#00aeef"/>
      <rect x="264.979" y="54.928" width="1.951" height="1.953" fill="#fff"/>
      <rect x="262.816" y="54.928" width="1.952" height="1.953" fill="#00aeef"/>
      <rect x="262.816" y="59.163" width="1.952" height="1.184" fill="#00aeef"/>
      <rect x="264.979" y="59.001" width="4.115" height="1.346" fill="#00aeef"/>
      <rect x="269.305" y="59.163" width="1.952" height="1.184" fill="#00aeef"/>
      <rect x="269.305" y="57.048" width="1.952" height="1.952" fill="#4bc1bf"/>
      <rect x="264.979" y="57.048" width="4.115" height="1.952" fill="#00aeef"/>
      <rect x="262.816" y="57.048" width="1.952" height="1.952" fill="#68217a"/>
      <polyline points="270.281 61.967 270.611 61.692 270.281 61.416" fill="none" stroke="#969696" stroke-linecap="round" stroke-miterlimit="10" stroke-width="0.309"/>
      <line x1="270.611" y1="61.692" x2="270.033" y2="61.692" fill="none" stroke="#969696" stroke-linecap="round" stroke-miterlimit="10" stroke-width="0.309"/>
      <circle cx="263.736" cy="61.628" r="0.21" fill="none" stroke="#969696" stroke-linecap="round" stroke-miterlimit="10" stroke-width="0.309"/>
      <line x1="263.882" y1="61.774" x2="264.08" y2="61.972" fill="none" stroke="#969696" stroke-linecap="round" stroke-miterlimit="10" stroke-width="0.309"/>
      <polygon points="267.087 61.692 266.74 61.692 266.74 61.388 267.087 61.435 267.087 61.692" fill="#969696"/>
      <polygon points="267.111 61.692 267.111 61.44 267.375 61.476 267.375 61.692 267.111 61.692" fill="#969696"/>
      <polygon points="267.087 61.717 267.087 61.974 266.74 62.021 266.74 61.717 267.087 61.717" fill="#969696"/>
      <polygon points="267.111 61.717 267.375 61.717 267.375 61.933 267.111 61.97 267.111 61.717" fill="#969696"/>
      <rect x="261.776" y="57.591" width="0.646" height="2.369"/>
      <path d="M265.716,43.488a.173.173,0,0,0,.173.173h2.084a.172.172,0,0,0,.172-.173h0a.172.172,0,0,0-.171-.172h-2.085a.173.173,0,0,0-.173.171Z" fill="#969696"/>
      <rect x="271.035" y="44.888" width="0.096" height="0.355" fill="#fff"/>
      <rect x="271.132" y="44.981" width="0.097" height="0.262" fill="#fff"/>
      <rect x="271.228" y="45.039" width="0.097" height="0.204" fill="#fff"/>
      <rect x="271.325" y="45.096" width="0.097" height="0.147" fill="#fff"/>
      <rect x="271.422" y="45.141" width="0.097" height="0.102" fill="#fff"/>
      <rect x="263.836" y="44.888" width="0.409" height="0.355" fill="#fff"/>
      <rect x="264.431" y="44.99" width="0.101" height="0.151" fill="#fff"/>
      <path d="M204.646,32.391a4.428,4.428,0,0,1,.69.055,8.271,8.271,0,0,1,16.251-1.712,6.116,6.116,0,0,1,10.442,3.674,5.654,5.654,0,0,1,2.908,1.353,3.4,3.4,0,1,1,2.757,5.381H204.379v-.009a4.375,4.375,0,0,1,.266-8.742Z" fill="#00abec" opacity="0.23" style="isolation: isolate"/>
      <path d="M254.721,33.783H219.938a.513.513,0,0,0-.512.513V55.48a.512.512,0,0,0,.512.512h34.783a.513.513,0,0,0,.513-.511V34.3A.514.514,0,0,0,254.721,33.783Z"/>
      <path d="M252.026,36.449H222.633a.433.433,0,0,0-.433.433h0V52.706a.433.433,0,0,0,.433.433h29.393a.433.433,0,0,0,.433-.434h0V36.883A.433.433,0,0,0,252.026,36.449Z" fill="#34306d"/>
      <rect x="243.028" y="40.254" width="6.997" height="3.381" fill="#079dad"/>
      <rect x="235.77" y="40.254" width="6.997" height="3.381" fill="#5d499d"/>
      <rect x="232.152" y="40.254" width="3.381" height="3.381" fill="#4573b8"/>
      <rect x="228.583" y="40.254" width="3.38" height="3.381" fill="#0a8b44"/>
      <rect x="232.152" y="43.847" width="3.381" height="3.381" fill="#973693"/>
      <rect x="246.644" y="43.847" width="3.381" height="3.381" fill="#58843b"/>
      <rect x="246.644" y="47.487" width="3.381" height="3.381" fill="#5894ce"/>
      <rect x="242.992" y="47.487" width="3.381" height="3.381" fill="#973693"/>
      <rect x="235.77" y="43.847" width="6.997" height="3.381" fill="#f9f7f8"/>
      <rect x="235.77" y="47.487" width="6.997" height="3.381" fill="#315daa"/>
      <rect x="228.583" y="49.734" width="6.997" height="1.134" fill="#bc1f4a"/>
      <rect x="228.583" y="47.487" width="6.997" height="2.247" fill="#f9f7f8"/>
      <rect x="228.583" y="43.847" width="3.38" height="3.381" fill="#315daa"/>
      <rect x="223.57" y="43.847" width="3.381" height="3.381" fill="#109c49"/>
      <rect x="223.57" y="47.441" width="3.381" height="3.381" fill="#da562c"/>
      <rect x="222.199" y="43.847" width="1.218" height="3.381" fill="#8a288f"/>
      <rect x="222.199" y="47.441" width="1.218" height="3.381" fill="#b01e40"/>
      <rect x="222.199" y="40.254" width="4.752" height="3.381" fill="#f69a83"/>
      <polygon points="244.725 43.847 246.428 43.847 246.428 45.55 246.428 47.251 244.725 47.251 243.023 47.251 243.023 45.55 243.023 43.847 244.725 43.847" fill="#cbc9b4"/>
      <rect x="222.909" y="37.559" width="0.922" height="0.875" fill="#f69a83"/>
      <g style="isolation: isolate">
        <g style="isolation: isolate">
          <path d="M249.291,37.764a.186.186,0,0,1-.013-.059.1.1,0,0,1,.056-.078.3.3,0,0,1,.159-.035.643.643,0,0,1,.3.076.229.229,0,0,1,.143.2.209.209,0,0,1-.044.124.538.538,0,0,1-.241.12,1.261,1.261,0,0,0-.195.072c-.026.016-.039.031-.039.047,0,.039.042.08.127.124a.513.513,0,0,0,.241.066.383.383,0,0,0,.127-.023.079.079,0,0,1,.024,0c.008,0,.016.009.023.026a.112.112,0,0,1,.012.044c0,.018-.013.032-.038.043a.264.264,0,0,1-.11.018.738.738,0,0,1-.212-.04.608.608,0,0,1-.213-.116.2.2,0,0,1-.087-.141.131.131,0,0,1,.062-.11.7.7,0,0,1,.213-.09.641.641,0,0,0,.2-.082.112.112,0,0,0,.046-.088c0-.047-.034-.087-.1-.12a.5.5,0,0,0-.23-.051.269.269,0,0,0-.1.018c-.027.012-.041.044-.041.1A.058.058,0,0,1,249.291,37.764Z" fill="#fff"/>
        </g>
        <g style="isolation: isolate">
          <path d="M249.061,37.742c-.014-.052-.022-.08-.022-.086a.056.056,0,0,1,.015-.034.048.048,0,0,1,.04-.018c.028,0,.047.021.056.063s.021.085.034.129a.253.253,0,0,0,.028.076.027.027,0,0,0,.021.012h.124c.024,0,.036.012.036.034,0,.041-.026.062-.077.062l-.062,0q-.015,0-.015.009a1.157,1.157,0,0,0,.03.154.955.955,0,0,1,.03.191c0,.115-.049.172-.146.172a.268.268,0,0,1-.17-.069c-.055-.046-.083-.083-.083-.111s.009-.029.026-.029a.1.1,0,0,1,.054.033.272.272,0,0,0,.144.077.061.061,0,0,0,.052-.022.157.157,0,0,0,.017-.088.979.979,0,0,0-.03-.177,1.013,1.013,0,0,0-.036-.143.243.243,0,0,0-.079-.017l-.16-.014c-.045,0-.069-.021-.069-.053a.034.034,0,0,1,.013-.029.114.114,0,0,1,.058-.009.841.841,0,0,1,.089.006q.055.007.117.012Z" fill="#fff"/>
        </g>
        <g style="isolation: isolate">
          <path d="M248.47,38.436c-.02.043-.045.063-.076.063a.081.081,0,0,1-.05-.018c-.017-.013-.026-.026-.026-.037a.041.041,0,0,1,.027-.036c.037-.019.054-.078.054-.174a1.551,1.551,0,0,0-.032-.25.3.3,0,0,1-.006-.051c0-.024.016-.037.048-.037a.026.026,0,0,0,.025-.02.08.08,0,0,1,.075-.057.38.38,0,0,1,.28.182.565.565,0,0,1,.142.34.149.149,0,0,1-.035.1.1.1,0,0,1-.079.039.279.279,0,0,1-.151-.057.741.741,0,0,1-.166-.169A.435.435,0,0,1,248.47,38.436Zm.01-.434a.386.386,0,0,0,.118.245c.077.089.138.134.182.134s.046-.023.046-.069a.459.459,0,0,0-.1-.246c-.07-.1-.131-.149-.184-.149S248.48,37.946,248.48,38Z" fill="#fff"/>
        </g>
        <g style="isolation: isolate">
          <path d="M248.172,38.219V38.2a1.269,1.269,0,0,0-.013-.136c0-.015,0-.029-.007-.043a.6.6,0,0,0-.015-.065.265.265,0,0,1-.012-.066.043.043,0,0,1,.011-.03.039.039,0,0,1,.033-.015.067.067,0,0,1,.042.016.074.074,0,0,1,.026.034.321.321,0,0,1,.011.063.39.39,0,0,0,.006.054,1.56,1.56,0,0,1,.014.184c0,.063,0,.105,0,.124a.561.561,0,0,1-.013.147c-.009.03-.024.044-.043.044a.071.071,0,0,1-.047-.014.1.1,0,0,1-.023-.063.723.723,0,0,0-.134-.333c-.074-.1-.132-.151-.173-.151a.061.061,0,0,0-.045.022.064.064,0,0,1-.047.023.039.039,0,0,1-.035-.016.052.052,0,0,1-.012-.033.1.1,0,0,1,.033-.073.115.115,0,0,1,.085-.033.149.149,0,0,1,.054.011.253.253,0,0,1,.062.035.552.552,0,0,1,.074.073,1.226,1.226,0,0,1,.076.1,1.1,1.1,0,0,1,.074.147l.015.03Z" fill="#fff"/>
        </g>
        <g style="isolation: isolate">
          <path d="M247.558,37.742c-.014-.052-.022-.08-.022-.086a.056.056,0,0,1,.015-.034.049.049,0,0,1,.04-.018c.028,0,.047.021.056.063s.021.085.034.129a.253.253,0,0,0,.028.076.027.027,0,0,0,.021.012h.124c.024,0,.036.012.036.034,0,.041-.026.062-.077.062l-.062,0q-.015,0-.015.009a1.157,1.157,0,0,0,.03.154.955.955,0,0,1,.03.191c0,.115-.049.172-.146.172a.268.268,0,0,1-.17-.069c-.055-.046-.083-.083-.083-.111s.009-.029.026-.029a.1.1,0,0,1,.055.033.267.267,0,0,0,.143.077.059.059,0,0,0,.052-.022.149.149,0,0,0,.017-.088.979.979,0,0,0-.03-.177,1.013,1.013,0,0,0-.036-.143.243.243,0,0,0-.079-.017l-.16-.014c-.045,0-.069-.021-.069-.053a.034.034,0,0,1,.013-.029.114.114,0,0,1,.058-.009.874.874,0,0,1,.09.006c.036,0,.075.009.116.012Z" fill="#fff"/>
        </g>
      </g>
      <g style="isolation: isolate">
        <g style="isolation: isolate">
          <path d="M225.287,37.508a.024.024,0,0,1,.011.018,1.4,1.4,0,0,0,.015.2.46.46,0,0,0,.042.149.075.075,0,0,0,.068.045.155.155,0,0,0,.1-.056c.012-.012.021-.018.028-.018s.03.009.03.027-.019.039-.055.064a.189.189,0,0,1-.106.037.121.121,0,0,1-.107-.06.471.471,0,0,1-.056-.187,1.373,1.373,0,0,1-.019-.2.021.021,0,0,1,.008-.015.024.024,0,0,1,.018-.007A.03.03,0,0,1,225.287,37.508Z" fill="#fff"/>
        </g>
        <g style="isolation: isolate">
          <path d="M225.076,37.843v.01a.266.266,0,0,1-.013.1c-.008.021-.02.032-.035.032a.042.042,0,0,1-.022-.008c-.009,0-.013-.01-.013-.016s0-.01.013-.018a.134.134,0,0,0,.023-.094.5.5,0,0,0-.018-.128l-.006-.022c0-.019.007-.029.02-.029a.027.027,0,0,1,.023.011.191.191,0,0,1,.021.048.455.455,0,0,0,.079.143c.032.034.057.05.078.05s.023-.016.023-.05a.4.4,0,0,0-.029-.133.2.2,0,0,1-.015-.062.029.029,0,0,1,.028-.028.031.031,0,0,1,.029.018.486.486,0,0,0,.015.092.5.5,0,0,1,.02.12.109.109,0,0,1-.021.074.06.06,0,0,1-.042.023.124.124,0,0,1-.077-.036.447.447,0,0,1-.081-.1Z" fill="#fff"/>
        </g>
        <g style="isolation: isolate">
          <path d="M224.828,37.925a.254.254,0,0,0,.074.012l.017,0,.018,0a.049.049,0,0,1,.022.006.019.019,0,0,1,.012.017c0,.023-.017.035-.051.035a.325.325,0,0,1-.124-.028c-.044-.017-.066-.042-.066-.074a.061.061,0,0,1,.021-.045.208.208,0,0,1,.056-.035.38.38,0,0,0,.06-.034.045.045,0,0,0,.017-.032c0-.019-.016-.037-.048-.051a.194.194,0,0,0-.063-.023l-.012,0a.029.029,0,0,1-.014,0,.023.023,0,0,1-.013-.007.02.02,0,0,1-.007-.016.034.034,0,0,1,.01-.03.069.069,0,0,1,.036-.008.2.2,0,0,1,.1.04.12.12,0,0,1,.062.1.055.055,0,0,1-.023.043.5.5,0,0,1-.085.052c-.033.017-.05.032-.05.046A.087.087,0,0,0,224.828,37.925Z" fill="#fff"/>
        </g>
        <g style="isolation: isolate">
          <path d="M224.525,37.59l-.01-.044a.031.031,0,0,1,.007-.017.027.027,0,0,1,.021-.01c.015,0,.024.011.029.033s.011.044.017.067a.191.191,0,0,0,.015.039s.006,0,.011,0h.064a.016.016,0,0,1,.018.018c0,.022-.013.032-.04.032l-.032,0s-.007,0-.007.005a.58.58,0,0,0,.015.079.443.443,0,0,1,.015.1c0,.059-.025.088-.075.088a.146.146,0,0,1-.088-.035c-.028-.025-.042-.043-.042-.059s0-.014.013-.014a.043.043,0,0,1,.028.017.144.144,0,0,0,.075.04.031.031,0,0,0,.026-.012.074.074,0,0,0,.01-.045.537.537,0,0,0-.017-.091.647.647,0,0,0-.018-.075.123.123,0,0,0-.04-.007l-.083-.008c-.024,0-.036-.011-.036-.028a.017.017,0,0,1,.006-.014.064.064,0,0,1,.03-.005l.046,0,.061.007Z" fill="#fff"/>
          <path d="M224.239,37.544a.054.054,0,0,1-.024-.033.125.125,0,0,1-.007-.034s0-.009.011-.014a.035.035,0,0,1,.02-.007.044.044,0,0,1,.032.013.038.038,0,0,1,.015.026.1.1,0,0,1-.009.035l0,.009c0,.009,0,.014-.009.014A.061.061,0,0,1,224.239,37.544Zm.061.271a1.12,1.12,0,0,0-.03-.117.129.129,0,0,1,0-.025.023.023,0,0,1,.008-.016.04.04,0,0,1,.026-.008.023.023,0,0,1,.019.013.074.074,0,0,1,.007.034.389.389,0,0,0,.009.053,1.03,1.03,0,0,1,.023.18c0,.037-.009.055-.03.055a.029.029,0,0,1-.021-.009c-.007-.006-.011-.011-.011-.014l0-.009a.277.277,0,0,0,.006-.053A.665.665,0,0,0,224.3,37.815Z" fill="#fff"/>
        </g>
        <g style="isolation: isolate">
          <path d="M224.047,37.821a.292.292,0,0,1-.024.111.043.043,0,0,1-.04.021.067.067,0,0,1-.044-.015.045.045,0,0,1-.018-.029c0-.011,0-.016.014-.016h0a.06.06,0,0,0,.025.007c.011,0,.017-.006.022-.019a.514.514,0,0,0,.016-.095.224.224,0,0,1,.025-.092.054.054,0,0,1,.045-.026.091.091,0,0,1,.065.031.444.444,0,0,1,.067.106.489.489,0,0,0,.043.074l0-.006a.375.375,0,0,0-.006-.04.777.777,0,0,1-.018-.129.089.089,0,0,1,.006-.04.025.025,0,0,1,.042.005.05.05,0,0,1,.01.026,1.137,1.137,0,0,0,.017.2.2.2,0,0,1,0,.042.032.032,0,0,1-.036.035.042.042,0,0,1-.026-.014.594.594,0,0,1-.066-.111.544.544,0,0,0-.058-.095.053.053,0,0,0-.035-.02C224.064,37.73,224.053,37.76,224.047,37.821Z" fill="#fff"/>
        </g>
      </g>
      <path d="M218.185,57.492c.041,0,.083,0,.125,0a8.831,8.831,0,0,1,17.6-.979,6.117,6.117,0,1,1,4.8,9.906H218.184a4.465,4.465,0,0,1,0-8.93Z" fill="#00abec" opacity="0.23" style="isolation: isolate"/>
      <path d="M270,58.5a3.738,3.738,0,0,1,.4.021,3.841,3.841,0,1,1,7.259-2.157,3.841,3.841,0,0,1,6.687,2.373,3.841,3.841,0,1,1,1.329,7.446H270a3.842,3.842,0,0,1,0-7.683Z" fill="#00abec" opacity="0.23" style="isolation: isolate"/>
    </g>
    <g>
      <path d="M112.9,61.718h-1.3V19.8a4,4,0,0,1,3.994-3.995h23.674v1.3H115.6a2.7,2.7,0,0,0-2.7,2.7h0Z"/>
      <path d="M181.35,61.718h-1.3V19.8a2.7,2.7,0,0,0-2.7-2.7H139.271v-1.3h38.085a4,4,0,0,1,4,3.995Z"/>
      <polygon points="137.148 57.831 117.205 57.831 117.205 21.146 135.14 21.146 135.14 22.443 118.502 22.443 118.502 56.534 137.148 56.534 137.148 57.831"/>
      <polygon points="175.747 57.831 162.979 57.831 162.979 56.534 174.45 56.534 174.45 22.443 158.146 22.443 158.146 21.146 175.747 21.146 175.747 57.831"/>
      <path d="M191.3,68.614H171.732v-1.3H191.3a2.7,2.7,0,0,0,2.7-2.7V62.366H171.732v-1.3H195.3v3.546A4,4,0,0,1,191.3,68.614Z"/>
      <path d="M136.812,68.614H101.647a4,4,0,0,1-3.994-4V61.069h39.495v1.3H98.95v2.249a2.7,2.7,0,0,0,2.7,2.7h35.169Z"/>
      <rect x="159.034" y="21.146" width="13.523" height="1.297"/>
      <rect x="120.396" y="21.146" width="37.751" height="1.297"/>
      <path d="M155.146,67.179h-1.3V54.811a3.66,3.66,0,1,0-7.32,0V67.179h-1.3V54.811a4.957,4.957,0,1,1,9.913,0Z"/>
      <path d="M163.762,67.179h-1.3V58.257a3.661,3.661,0,0,0-7.321,0v8.925h-1.3V58.257a4.957,4.957,0,1,1,9.913,0Z"/>
      <path d="M172.38,92.163h-1.3V61.7a3.661,3.661,0,0,0-7.321,0h0v5.475h-1.3V61.7a4.957,4.957,0,1,1,9.914,0Z"/>
      <path d="M172.38,95.809l-35.452-.039-.566-.207-.1-.1L120.5,79.708a6.481,6.481,0,1,1,9.165-9.166l6.833,6.5V38.9a4.957,4.957,0,1,1,9.913,0v23.57h-1.3V38.9a3.66,3.66,0,1,0-7.32,0V80.066l-9.035-8.595a5.187,5.187,0,1,0-7.605,7.056c.084.091.172.179.263.264l15.656,15.655.188.067h33.82V77.181h1.3Z"/>
    </g>
  </g>
</svg>
