<svg xmlns="http://www.w3.org/2000/svg" viewBox="0 0 298 110">
  <title>2 - views</title>
  <g id="background_blue" data-name="background blue">
    <rect width="298" height="110" fill="#e4edf1"/>
  </g>
  <g id="Shapes">
    <g opacity="0.25">
      <rect x="114.974" y="33.461" width="92.308" height="60" fill="#fff"/>
      <rect x="114.974" y="16.538" width="92.308" height="16.923" fill="#55d2f6"/>
      <path d="M208.821,95H113.436V15h95.385Zm-92.308-3.077h89.231V18.077H116.513Z" fill="#2e6ca4"/>
      <rect x="114.974" y="31.923" width="92.308" height="3.077" fill="#2e6ca4"/>
      <rect x="114.974" y="51.923" width="92.308" height="3.077" fill="#2e6ca4"/>
      <rect x="114.974" y="71.923" width="92.308" height="3.077" fill="#2e6ca4"/>
      <rect x="136.513" y="33.462" width="3.077" height="58.462" fill="#2e6ca4"/>
      <rect x="159.59" y="33.462" width="3.077" height="58.462" fill="#2e6ca4"/>
      <rect x="182.667" y="33.462" width="3.077" height="58.462" fill="#2e6ca4"/>
    </g>
    <g>
      <path d="M136.6,40.262h0v-.427c0-10.971-9.4-20.089-20.944-20.232-.285-.427-6.838.143-6.838.143h0c-10.4,1.282-18.522,9.973-18.522,20.089,0,.285-1.14,8.263,6.981,14.96,3.7,3.276,7.551,12.11,8.121,14.674l.428.855h15.1l.427-.855c.57-2.564,4.56-11.4,8.121-14.532C137.593,48.1,136.6,40.547,136.6,40.262Z" fill="#68217a"/>
      <rect x="106.107" y="75.453" width="15.102" height="4.844" fill="#7a7a7a"/>
      <polygon points="110.808 90.556 116.365 90.556 121.066 85.569 106.107 85.569 110.808 90.556" fill="#7a7a7a"/>
      <path d="M117.362,69.612h-2.849V51.518h-2.422V69.469h-2.85V51.518h-2.422a5.354,5.354,0,0,1-5.272-5.272,5.272,5.272,0,0,1,10.544,0v2.422h2.422V46.246a5.272,5.272,0,1,1,5.271,5.272h-2.422ZM106.819,43.824A2.4,2.4,0,0,0,104.4,46.2v.043a2.5,2.5,0,0,0,2.422,2.422h2.422V46.246A2.6,2.6,0,0,0,106.819,43.824Zm12.965,0a2.5,2.5,0,0,0-2.422,2.422v2.422h2.422a2.5,2.5,0,0,0,2.422-2.422,2.4,2.4,0,0,0-2.379-2.422Z" fill="#fff" opacity="0.65" style="isolation: isolate"/>
      <path d="M115.652,19.6c-.285-.427-6.838.143-6.838.143-10.4,1.282-18.522,9.973-18.522,20.089a16.975,16.975,0,0,0,5.556,13.677l30.775-30.774A20.93,20.93,0,0,0,115.652,19.6Z" fill="#fff" opacity="0.15" style="isolation: isolate"/>
    </g>
  </g>
</svg>
