<svg id="Shapes" xmlns="http://www.w3.org/2000/svg" xmlns:xlink="http://www.w3.org/1999/xlink" viewBox="0 0 30.18 30">
  <defs>
    <linearGradient id="linear-gradient" x1="15.09" y1="1090.18" x2="15.09" y2="1060" gradientTransform="translate(0 -1060)" gradientUnits="userSpaceOnUse">
      <stop offset="0" stop-color="#33bedd"/>
      <stop offset="0.23" stop-color="#3dc4e5"/>
      <stop offset="0.55" stop-color="#4bc7e8"/>
      <stop offset="1" stop-color="#50c8e9"/>
    </linearGradient>
  </defs>
  <g id="b8796109-74b3-4e41-9593-a5e3ee23b931">
    <g>
      <path d="M30.18,16.69V13.31l-.54-.17-3.72-1.25L25,9.59,27,5.68,24.5,3.2,24,3.37,20.59,5.15l-2.31-.89L16.69,0H13.31l-.17.53L11.89,4.08,9.59,5.15,5.68,3.2,3.2,5.68l.17.53L5.15,9.59l-.89,2.3L0,13.49v3.37L.53,17l3.73,1.24.89,2.31L3.2,24.5,5.68,27l.53-.18L9.59,25l2.3.89L13.49,30h3.37l.18-.53,1.24-3.73,2.31-.89L24.5,26.8,27,24.32,26.8,24,25,20.59l.89-2.31Z" fill="url(#linear-gradient)"/>
      <path d="M21,10.65l-1.42,1.24A5.17,5.17,0,0,1,19,19.35a5.16,5.16,0,0,1-7.45-.53,5.16,5.16,0,0,1,0-6.93h.18l1.06.89H13V12.6L12.6,9.05c0-.17-.17-.17-.35-.17l-3.37.53a.18.18,0,0,0-.18.18h0l1.06.88h0v.18h0a7.06,7.06,0,0,0,10.83,9A6.45,6.45,0,0,0,21,10.65Z" fill="#fff"/>
    </g>
  </g>
</svg>
