<svg id="Shapes" xmlns="http://www.w3.org/2000/svg" width="30.178" height="30" viewBox="0 0 30.178 30">
  <g id="Layer_1" data-name="Layer 1">
    <path d="M22.268,24.629v.752c0,2.112-4.733,3.824-10.559,3.824h-.134C5.8,29.168,1.15,27.469,1.15,25.381V5.028c0-2.112,4.733-3.823,10.559-3.823S22.268,2.916,22.268,5.028v8.8l-5.389,5.389Z" fill="#1889ca"/>
    <polygon points="10.01 7.746 7.861 9.895 12.619 14.652 7.861 19.422 10.01 21.57 16.916 14.652 10.01 7.746" fill="#fff"/>
    <polygon points="29.308 14.579 27.159 12.431 20.241 19.337 27.159 26.243 29.308 24.095 24.538 19.337 29.308 14.579" fill="#1889ca"/>
  </g>
</svg>
