<svg id="Shapes" xmlns="http://www.w3.org/2000/svg" xmlns:xlink="http://www.w3.org/1999/xlink" viewBox="0 0 26.63 30">
  <defs>
    <linearGradient id="linear-gradient" x1="13.31" y1="1202.98" x2="13.31" y2="1221.86" gradientTransform="matrix(1, 0, 0, -1, 0, 1221.86)" gradientUnits="userSpaceOnUse">
      <stop offset="0" stop-color="#2e76bc"/>
      <stop offset="0.16" stop-color="#347dc0"/>
      <stop offset="0.53" stop-color="#4c8dcb"/>
      <stop offset="0.82" stop-color="#6198d1"/>
      <stop offset="1" stop-color="#699cd3"/>
    </linearGradient>
    <linearGradient id="linear-gradient-2" x1="7.18" y1="1198.89" x2="19.45" y2="1198.89" gradientTransform="matrix(1, 0, 0, -1, 0, 1221.86)" gradientUnits="userSpaceOnUse">
      <stop offset="0" stop-color="#005ca1"/>
      <stop offset="0.07" stop-color="#0161aa"/>
      <stop offset="0.36" stop-color="#2571b8"/>
      <stop offset="0.52" stop-color="#2e76bc"/>
      <stop offset="0.64" stop-color="#2973ba"/>
      <stop offset="0.82" stop-color="#166bb5"/>
      <stop offset="1" stop-color="#005ca1"/>
    </linearGradient>
    <radialGradient id="radial-gradient" cx="13.66" cy="1198.38" r="6.84" gradientTransform="matrix(0.99, 0, 0, -0.99, 0.15, 1208.17)" gradientUnits="userSpaceOnUse">
      <stop offset="0" stop-color="#f2f2f3"/>
      <stop offset="0.58" stop-color="#eee"/>
      <stop offset="1" stop-color="#e6e6e6"/>
    </radialGradient>
  </defs>
  <g>
    <path d="M26.63,13a6,6,0,0,0-5.19-5.74A7.56,7.56,0,0,0,13.66,0,7.77,7.77,0,0,0,6.27,5,7.15,7.15,0,0,0,0,11.91a7.23,7.23,0,0,0,7.49,7H20.25a1.71,1.71,0,0,0,.32,0A6.08,6.08,0,0,0,26.63,13Z" fill="url(#linear-gradient)"/>
    <path d="M8.82,8,13,3.8a.48.48,0,0,1,.68,0h0L17.76,8a.21.21,0,0,1,0,.29.24.24,0,0,1-.2.07H15.07a.22.22,0,0,0-.22.23h0v5.11a.17.17,0,0,1-.15.18H11.9a.18.18,0,0,1-.18-.18V8.52a.22.22,0,0,0-.17-.23H9a.2.2,0,0,1-.17-.23A.11.11,0,0,1,8.82,8Z" fill="#f2f2f3"/>
    <g>
      <path d="M13.31,18.17c-3.38,0-6.13-1-6.13-2.22V27.78C7.18,29,9.88,30,13.23,30h.08c3.39,0,6.14-1,6.14-2.22V16C19.45,17.19,16.7,18.17,13.31,18.17Z" fill="url(#linear-gradient-2)"/>
      <path d="M19.45,16c0,1.24-2.75,2.22-6.14,2.22s-6.13-1-6.13-2.22,2.75-2.22,6.13-2.22,6.14,1,6.14,2.22" fill="#e8e8e8"/>
      <path d="M18,15.77c0,.79-2.11,1.42-4.71,1.42s-4.7-.63-4.7-1.42,2.11-1.4,4.7-1.4S18,15,18,15.77" fill="#74cfeb"/>
      <path d="M13.31,16.13a10.93,10.93,0,0,0-3.72.54,10.91,10.91,0,0,0,3.72.52A10.5,10.5,0,0,0,17,16.63,11.51,11.51,0,0,0,13.31,16.13Z" fill="#1b8ab3"/>
      <path d="M17,24.16V20.91h-.86v3.95h2.36v-.7Zm-6.83-1.59a2.15,2.15,0,0,1-.48-.3A.43.43,0,0,1,9.61,22a.31.31,0,0,1,.14-.28.6.6,0,0,1,.41-.12,1.54,1.54,0,0,1,.95.28V21a2.38,2.38,0,0,0-.95-.16,1.59,1.59,0,0,0-1.05.33,1,1,0,0,0-.4.85c0,.49.31.87,1,1.16a2.66,2.66,0,0,1,.59.34.41.41,0,0,1,.14.31.33.33,0,0,1-.15.29.73.73,0,0,1-.43.11,1.61,1.61,0,0,1-1-.4v.89a2.12,2.12,0,0,0,1,.23,1.82,1.82,0,0,0,1.13-.32A1.2,1.2,0,0,0,11,23.11,2.41,2.41,0,0,0,10.21,22.57Zm5,1.52a2.32,2.32,0,0,0,.31-1.21,2.21,2.21,0,0,0-.31-1,1.72,1.72,0,0,0-.67-.72,1.89,1.89,0,0,0-1-.25,2,2,0,0,0-1,.26,1.71,1.71,0,0,0-.7.71A2.3,2.3,0,0,0,11.62,23a2.08,2.08,0,0,0,.23.95,1.68,1.68,0,0,0,.66.71,1.93,1.93,0,0,0,1,.29l.82,1h1.16l-1.18-1.06A1.66,1.66,0,0,0,15.23,24.09Zm-1-.24a.9.9,0,0,1-.73.33.88.88,0,0,1-.72-.34,1.79,1.79,0,0,1,0-1.92,1,1,0,0,1,.74-.35.83.83,0,0,1,.72.35,1.57,1.57,0,0,1,.26,1A1.4,1.4,0,0,1,14.27,23.85Z" fill="url(#radial-gradient)"/>
    </g>
  </g>
</svg>
