<svg width="16px" height="16px" xmlns="http://www.w3.org/2000/svg" viewBox="0 0 2048 2048">
  <path fill="#8e8278" d="M412 1408q-84 0-159-35t-131-93-89-135T0 985q0-85 29-163t81-138 126-98 161-42l32-1q11-123 59-223t126-171T796 39t228-39q123 0 227 39t183 110 126 171 59 223h16q84 0 159 35t132 93 89 136 33 160v34q0 6-1 11-64-78-143-136-16-47-44-85t-65-64-82-41-94-15q-52 0-86-32t-42-83q-5-36-11-70t-20-69q-26-72-69-126t-100-90-124-55-143-18q-75 0-142 18t-124 54-100 90-70 126q-13 35-19 69t-12 71q-8 59-46 87t-96 28q-61 0-113 25t-91 68-61 98-22 114q0 61 22 116t61 97 92 66 117 25h341q-9 32-14 64t-8 64H412zm484 64q0-119 45-224t124-183 183-123 224-46q79 0 152 20t138 58 117 91 90 117 58 137 21 153q0 119-45 224t-124 183-183 123-224 46q-120 0-225-45t-183-123-123-183-45-225zm576 328q30 0 51-21l256-256q21-21 21-51t-21-51-51-21q-30 0-51 21l-141 141v-346q0-26-19-45t-45-19q-26 0-45 19t-19 45v346l-141-141q-21-21-51-21t-51 21-21 51q0 30 21 51l256 256q21 21 51 21z" />
</svg>