<?xml version="1.0" encoding="utf-8"?>
<!-- Generator: Adobe Illustrator 26.5.0, SVG Export Plug-In . SVG Version: 6.00 Build 0)  -->
<svg version="1.1" xmlns="http://www.w3.org/2000/svg" xmlns:xlink="http://www.w3.org/1999/xlink" x="0px" y="0px"
	 viewBox="0 0 557 267" enable-background="new 0 0 557 267" xml:space="preserve">
<symbol  id="PIPELINE" viewBox="-32 -12.266 64 24.531">
	<linearGradient id="SVGID_1_" gradientUnits="userSpaceOnUse" x1="0" y1="-12.2655" x2="1.502093e-15" y2="12.2655">
		<stop  offset="0" style="stop-color:#1B89B2"/>
		<stop  offset="1" style="stop-color:#51C8E8"/>
	</linearGradient>
	<path fill="url(#SVGID_1_)" d="M26.096,12.266h-51.448v0h0C-29.08,12.265-32,6.878-32,0s2.92-12.265,6.648-12.265h0v0h51.448
		C29.356-12.266,32-6.363,32,0S29.356,12.266,26.096,12.266z"/>
	<g>
		
			<linearGradient id="SVGID_00000070098118108789888690000014512125408945894792_" gradientUnits="userSpaceOnUse" x1="-31.461" y1="-6.1136" x2="-19.2338" y2="6.1136">
			<stop  offset="0" style="stop-color:#B3B4B4"/>
			<stop  offset="1" style="stop-color:#4F4F4F"/>
		</linearGradient>
		<ellipse fill="url(#SVGID_00000070098118108789888690000014512125408945894792_)" cx="-25.347" cy="0" rx="5.575" ry="10.879"/>
	</g>
</symbol>
<g id="Shapes">
	<rect x="0.571" fill="#FFFFFF" width="556.721" height="267"/>
	<g id="Wrench_tool_x28_s_x29_">
	</g>
	<g id="user2">
	</g>
	<g id="user2_1_">
	</g>
	<g id="user2_4_">
	</g>
	<g id="user2_3_">
	</g>
	<g id="user2_2_">
	</g>
	<g id="Internet_2">
	</g>
	<g id="Enterprise">
	</g>
	<g id="Tunnel__x28_stackable_x29_">
	</g>
	<g id="New_Symbol">
	</g>
	<g id="New_Symbol_1">
	</g>
	<g id="Files">
	</g>
	<g id="BlobBlock">
	</g>
	<g id="E_x5F_Enterprise">
	</g>
	<g id="E_x5F_AD_FS">
	</g>
	<g id="C_x5F_Azure_Active_Directory">
	</g>
	<g>
		<g opacity="0.24">
			<rect x="5.872" y="24.769" width="546.256" height="96.8"/>
			<rect x="5.872" y="24.769" opacity="0.7" width="546.256" height="96.8"/>
		</g>
		<g>
			<rect x="4.872" y="23.769" fill="#FFFFFF" width="546.256" height="96.8"/>
			<rect x="4.872" y="23.769" opacity="0.7" fill="#E8E8E8" width="546.256" height="96.8"/>
		</g>
	</g>
	<g id="fb33f902-6783-4db3-88ea-a4524e356c77">
		<g>
			
				<linearGradient id="SVGID_00000017502609192499528670000006430921265021939861_" gradientUnits="userSpaceOnUse" x1="-523.3914" y1="1156.7" x2="-523.3914" y2="1178.75" gradientTransform="matrix(1 0 0 -1 564 1235)">
				<stop  offset="0" style="stop-color:#0078D4"/>
				<stop  offset="0.502" style="stop-color:#4093E6"/>
				<stop  offset="0.775" style="stop-color:#5EA0EF"/>
			</linearGradient>
			<path fill="url(#SVGID_00000017502609192499528670000006430921265021939861_)" d="M21.952,56.25h37.313l0,0v20.803
				c0,0.689-0.558,1.247-1.247,1.247l0,0h-34.82c-0.689,0-1.247-0.558-1.247-1.247V56.25L21.952,56.25z"/>
			<path fill="#0078D4" d="M23.205,48.3h34.807c0.689,0,1.247,0.558,1.247,1.247v0v6.703l0,0H21.952l0,0v-6.703
				c0-0.689,0.558-1.247,1.247-1.247C23.201,48.3,23.203,48.3,23.205,48.3z"/>
			<path opacity="0.9" fill="#FFFFFF" enable-background="new    " d="M26.533,59.176h6.769c0.343,0,0.621,0.278,0.621,0.621v2.818
				c0,0.343-0.278,0.621-0.621,0.621h-6.769c-0.343,0-0.621-0.278-0.621-0.621v-2.818C25.912,59.454,26.19,59.176,26.533,59.176z"/>
			<path opacity="0.9" fill="#FFFFFF" enable-background="new    " d="M37.279,59.119h6.769c0.343,0,0.621,0.278,0.621,0.621v2.818
				c0,0.343-0.278,0.621-0.621,0.621h-6.769c-0.343,0-0.621-0.278-0.621-0.621V59.74C36.658,59.397,36.936,59.119,37.279,59.119z"/>
			<path opacity="0.9" fill="#FFFFFF" enable-background="new    " d="M48.025,59.119h6.769c0.343,0,0.621,0.278,0.621,0.621v2.818
				c0,0.343-0.278,0.621-0.621,0.621h-6.769c-0.343,0-0.621-0.278-0.621-0.621V59.74C47.404,59.397,47.682,59.119,48.025,59.119z"/>
			<path opacity="0.9" fill="#FFFFFF" enable-background="new    " d="M26.651,64.984h6.769c0.343,0,0.621,0.278,0.621,0.621v2.818
				c0,0.343-0.278,0.621-0.621,0.621h-6.769c-0.343,0-0.621-0.278-0.621-0.621v-2.818C26.03,65.262,26.308,64.984,26.651,64.984z"/>
			<path fill="#FFD400" d="M37.397,64.926h6.769c0.343,0,0.621,0.278,0.621,0.621v2.818c0,0.343-0.278,0.621-0.621,0.621h-6.769
				c-0.343,0-0.621-0.278-0.621-0.621v-2.818C36.776,65.205,37.054,64.926,37.397,64.926z"/>
			<path fill="#FFD400" d="M48.144,64.926h6.769c0.343,0,0.621,0.278,0.621,0.621v2.818c0,0.343-0.278,0.621-0.621,0.621h-6.769
				c-0.343,0-0.621-0.278-0.621-0.621v-2.818C47.523,65.205,47.801,64.926,48.144,64.926z"/>
			<path fill="#FFD400" d="M26.651,70.848h6.769c0.343,0,0.621,0.278,0.621,0.621v2.818c0,0.343-0.278,0.621-0.621,0.621h-6.769
				c-0.343,0-0.621-0.278-0.621-0.621v-2.818C26.03,71.126,26.308,70.848,26.651,70.848z"/>
			<path fill="#FFD400" d="M37.397,70.791h6.769c0.343,0,0.621,0.278,0.621,0.621v2.818c0,0.343-0.278,0.621-0.621,0.621h-6.769
				c-0.343,0-0.621-0.278-0.621-0.621v-2.818C36.776,71.069,37.054,70.791,37.397,70.791z"/>
			<path fill="#FFD400" d="M48.144,70.791h6.769c0.343,0,0.621,0.278,0.621,0.621v2.818c0,0.343-0.278,0.621-0.621,0.621h-6.769
				c-0.343,0-0.621-0.278-0.621-0.621v-2.818C47.523,71.069,47.801,70.791,48.144,70.791z"/>
		</g>
	</g>
	<g id="fb33f902-6783-4db3-88ea-a4524e356c77_00000103248090394697237790000002443432000221404594_">
		<g>
			
				<linearGradient id="SVGID_00000042694457978010674700000009990762381084113337_" gradientUnits="userSpaceOnUse" x1="-455.5291" y1="1156.7" x2="-455.5291" y2="1178.75" gradientTransform="matrix(1 0 0 -1 564 1235)">
				<stop  offset="0" style="stop-color:#5E9741"/>
				<stop  offset="0.02" style="stop-color:#5F9841"/>
				<stop  offset="1" style="stop-color:#76BC43"/>
			</linearGradient>
			<path fill="url(#SVGID_00000042694457978010674700000009990762381084113337_)" d="M89.814,56.25h37.313l0,0v20.803
				c0,0.689-0.558,1.247-1.247,1.247l0,0h-34.82c-0.689,0-1.247-0.558-1.247-1.247V56.25L89.814,56.25z"/>
			<path fill="#5E9741" d="M91.067,48.3h34.807c0.689,0,1.247,0.558,1.247,1.247v0v6.703l0,0H89.814l0,0v-6.703
				c0-0.689,0.558-1.247,1.247-1.247C91.063,48.3,91.065,48.3,91.067,48.3z"/>
			<path opacity="0.9" fill="#FFFFFF" enable-background="new    " d="M94.395,59.176h6.769c0.343,0,0.621,0.278,0.621,0.621v2.818
				c0,0.343-0.278,0.621-0.621,0.621h-6.769c-0.343,0-0.621-0.278-0.621-0.621v-2.818C93.774,59.454,94.052,59.176,94.395,59.176z"
				/>
			<path opacity="0.9" fill="#FFFFFF" enable-background="new    " d="M105.141,59.119h6.769c0.343,0,0.621,0.278,0.621,0.621v2.818
				c0,0.343-0.278,0.621-0.621,0.621h-6.769c-0.343,0-0.621-0.278-0.621-0.621V59.74C104.52,59.397,104.798,59.119,105.141,59.119z"
				/>
			<path opacity="0.9" fill="#FFFFFF" enable-background="new    " d="M115.887,59.119h6.769c0.343,0,0.621,0.278,0.621,0.621v2.818
				c0,0.343-0.278,0.621-0.621,0.621h-6.769c-0.343,0-0.621-0.278-0.621-0.621V59.74C115.266,59.397,115.544,59.119,115.887,59.119z
				"/>
			<path opacity="0.9" fill="#FFFFFF" enable-background="new    " d="M94.513,64.984h6.769c0.343,0,0.621,0.278,0.621,0.621v2.818
				c0,0.343-0.278,0.621-0.621,0.621h-6.769c-0.343,0-0.621-0.278-0.621-0.621v-2.818C93.892,65.262,94.17,64.984,94.513,64.984z"/>
			<path fill="#B4EC36" d="M105.26,64.926h6.769c0.343,0,0.621,0.278,0.621,0.621v2.818c0,0.343-0.278,0.621-0.621,0.621h-6.769
				c-0.343,0-0.621-0.278-0.621-0.621v-2.818C104.639,65.205,104.917,64.926,105.26,64.926z"/>
			<path fill="#B4EC36" d="M116.006,64.926h6.769c0.343,0,0.621,0.278,0.621,0.621v2.818c0,0.343-0.278,0.621-0.621,0.621h-6.769
				c-0.343,0-0.621-0.278-0.621-0.621v-2.818C115.385,65.205,115.663,64.926,116.006,64.926z"/>
			<path fill="#B4EC36" d="M94.513,70.848h6.769c0.343,0,0.621,0.278,0.621,0.621v2.818c0,0.343-0.278,0.621-0.621,0.621h-6.769
				c-0.343,0-0.621-0.278-0.621-0.621v-2.818C93.892,71.126,94.17,70.848,94.513,70.848z"/>
			<path fill="#B4EC36" d="M105.26,70.791h6.769c0.343,0,0.621,0.278,0.621,0.621v2.818c0,0.343-0.278,0.621-0.621,0.621h-6.769
				c-0.343,0-0.621-0.278-0.621-0.621v-2.818C104.639,71.069,104.917,70.791,105.26,70.791z"/>
			<path fill="#B4EC36" d="M116.006,70.791h6.769c0.343,0,0.621,0.278,0.621,0.621v2.818c0,0.343-0.278,0.621-0.621,0.621h-6.769
				c-0.343,0-0.621-0.278-0.621-0.621v-2.818C115.385,71.069,115.663,70.791,116.006,70.791z"/>
		</g>
	</g>
	<g id="fb33f902-6783-4db3-88ea-a4524e356c77_00000079486872352955376570000005886944252446411161_">
		<g>
			
				<linearGradient id="SVGID_00000163049910168309862230000002987705246391817147_" gradientUnits="userSpaceOnUse" x1="-387.6669" y1="1156.7" x2="-387.6669" y2="1178.75" gradientTransform="matrix(1 0 0 -1 564 1235)">
				<stop  offset="0" style="stop-color:#5E9741"/>
				<stop  offset="0.02" style="stop-color:#5F9841"/>
				<stop  offset="1" style="stop-color:#76BC43"/>
			</linearGradient>
			<path fill="url(#SVGID_00000163049910168309862230000002987705246391817147_)" d="M157.676,56.25h37.313l0,0v20.803
				c0,0.689-0.558,1.247-1.247,1.247l0,0h-34.82c-0.689,0-1.247-0.558-1.247-1.247V56.25L157.676,56.25z"/>
			<path fill="#5E9741" d="M158.93,48.3h34.807c0.689,0,1.247,0.558,1.247,1.247v0v6.703l0,0h-37.307l0,0v-6.703
				c0-0.689,0.558-1.247,1.247-1.247C158.925,48.3,158.928,48.3,158.93,48.3z"/>
			<path opacity="0.9" fill="#FFFFFF" enable-background="new    " d="M162.257,59.176h6.769c0.343,0,0.621,0.278,0.621,0.621v2.818
				c0,0.343-0.278,0.621-0.621,0.621h-6.769c-0.343,0-0.621-0.278-0.621-0.621v-2.818C161.636,59.454,161.914,59.176,162.257,59.176
				z"/>
			<path opacity="0.9" fill="#FFFFFF" enable-background="new    " d="M173.003,59.119h6.769c0.343,0,0.621,0.278,0.621,0.621v2.818
				c0,0.343-0.278,0.621-0.621,0.621h-6.769c-0.343,0-0.621-0.278-0.621-0.621V59.74C172.382,59.397,172.66,59.119,173.003,59.119z"
				/>
			<path opacity="0.9" fill="#FFFFFF" enable-background="new    " d="M183.75,59.119h6.769c0.343,0,0.621,0.278,0.621,0.621v2.818
				c0,0.343-0.278,0.621-0.621,0.621h-6.769c-0.343,0-0.621-0.278-0.621-0.621V59.74C183.129,59.397,183.407,59.119,183.75,59.119z"
				/>
			<path opacity="0.9" fill="#FFFFFF" enable-background="new    " d="M162.376,64.984h6.769c0.343,0,0.621,0.278,0.621,0.621v2.818
				c0,0.343-0.278,0.621-0.621,0.621h-6.769c-0.343,0-0.621-0.278-0.621-0.621v-2.818C161.755,65.262,162.033,64.984,162.376,64.984
				z"/>
			<path fill="#B4EC36" d="M173.122,64.926h6.769c0.343,0,0.621,0.278,0.621,0.621v2.818c0,0.343-0.278,0.621-0.621,0.621h-6.769
				c-0.343,0-0.621-0.278-0.621-0.621v-2.818C172.501,65.205,172.779,64.926,173.122,64.926z"/>
			<path fill="#B4EC36" d="M183.868,64.926h6.769c0.343,0,0.621,0.278,0.621,0.621v2.818c0,0.343-0.278,0.621-0.621,0.621h-6.769
				c-0.343,0-0.621-0.278-0.621-0.621v-2.818C183.247,65.205,183.525,64.926,183.868,64.926z"/>
			<path fill="#B4EC36" d="M162.376,70.848h6.769c0.343,0,0.621,0.278,0.621,0.621v2.818c0,0.343-0.278,0.621-0.621,0.621h-6.769
				c-0.343,0-0.621-0.278-0.621-0.621v-2.818C161.755,71.126,162.033,70.848,162.376,70.848z"/>
			<path fill="#B4EC36" d="M173.122,70.791h6.769c0.343,0,0.621,0.278,0.621,0.621v2.818c0,0.343-0.278,0.621-0.621,0.621h-6.769
				c-0.343,0-0.621-0.278-0.621-0.621v-2.818C172.501,71.069,172.779,70.791,173.122,70.791z"/>
			<path fill="#B4EC36" d="M183.868,70.791h6.769c0.343,0,0.621,0.278,0.621,0.621v2.818c0,0.343-0.278,0.621-0.621,0.621h-6.769
				c-0.343,0-0.621-0.278-0.621-0.621v-2.818C183.247,71.069,183.525,70.791,183.868,70.791z"/>
		</g>
	</g>
	<g id="fb33f902-6783-4db3-88ea-a4524e356c77_00000140724926343255493660000000361015209750260613_">
		<g>
			
				<linearGradient id="SVGID_00000023248697717702172450000006466021534001427617_" gradientUnits="userSpaceOnUse" x1="-183.8989" y1="1156.7" x2="-183.8989" y2="1178.75" gradientTransform="matrix(1 0 0 -1 564 1235)">
				<stop  offset="0" style="stop-color:#5E9741"/>
				<stop  offset="0.02" style="stop-color:#5F9841"/>
				<stop  offset="1" style="stop-color:#76BC43"/>
			</linearGradient>
			<path fill="url(#SVGID_00000023248697717702172450000006466021534001427617_)" d="M361.444,56.25h37.313l0,0v20.803
				c0,0.689-0.558,1.247-1.247,1.247l0,0h-34.82c-0.689,0-1.247-0.558-1.247-1.247V56.25L361.444,56.25z"/>
			<path fill="#5E9741" d="M362.698,48.3h34.807c0.689,0,1.247,0.558,1.247,1.247v0v6.703l0,0h-37.307l0,0v-6.703
				c0-0.689,0.558-1.247,1.247-1.247C362.693,48.3,362.695,48.3,362.698,48.3z"/>
			<path opacity="0.9" fill="#FFFFFF" enable-background="new    " d="M366.025,59.176h6.769c0.343,0,0.621,0.278,0.621,0.621v2.818
				c0,0.343-0.278,0.621-0.621,0.621h-6.769c-0.343,0-0.621-0.278-0.621-0.621v-2.818C365.404,59.454,365.682,59.176,366.025,59.176
				z"/>
			<path opacity="0.9" fill="#FFFFFF" enable-background="new    " d="M376.771,59.119h6.769c0.343,0,0.621,0.278,0.621,0.621v2.818
				c0,0.343-0.278,0.621-0.621,0.621h-6.769c-0.343,0-0.621-0.278-0.621-0.621V59.74C376.15,59.397,376.428,59.119,376.771,59.119z"
				/>
			<path opacity="0.9" fill="#FFFFFF" enable-background="new    " d="M387.518,59.119h6.769c0.343,0,0.621,0.278,0.621,0.621v2.818
				c0,0.343-0.278,0.621-0.621,0.621h-6.769c-0.343,0-0.621-0.278-0.621-0.621V59.74C386.896,59.397,387.175,59.119,387.518,59.119z
				"/>
			<path opacity="0.9" fill="#FFFFFF" enable-background="new    " d="M366.144,64.984h6.769c0.343,0,0.621,0.278,0.621,0.621v2.818
				c0,0.343-0.278,0.621-0.621,0.621h-6.769c-0.343,0-0.621-0.278-0.621-0.621v-2.818C365.522,65.262,365.801,64.984,366.144,64.984
				z"/>
			<path fill="#B4EC36" d="M376.89,64.926h6.769c0.343,0,0.621,0.278,0.621,0.621v2.818c0,0.343-0.278,0.621-0.621,0.621h-6.769
				c-0.343,0-0.621-0.278-0.621-0.621v-2.818C376.269,65.205,376.547,64.926,376.89,64.926z"/>
			<path fill="#B4EC36" d="M387.636,64.926h6.769c0.343,0,0.621,0.278,0.621,0.621v2.818c0,0.343-0.278,0.621-0.621,0.621h-6.769
				c-0.343,0-0.621-0.278-0.621-0.621v-2.818C387.015,65.205,387.293,64.926,387.636,64.926z"/>
			<path fill="#B4EC36" d="M366.144,70.848h6.769c0.343,0,0.621,0.278,0.621,0.621v2.818c0,0.343-0.278,0.621-0.621,0.621h-6.769
				c-0.343,0-0.621-0.278-0.621-0.621v-2.818C365.522,71.126,365.801,70.848,366.144,70.848z"/>
			<path fill="#B4EC36" d="M376.89,70.791h6.769c0.343,0,0.621,0.278,0.621,0.621v2.818c0,0.343-0.278,0.621-0.621,0.621h-6.769
				c-0.343,0-0.621-0.278-0.621-0.621v-2.818C376.269,71.069,376.547,70.791,376.89,70.791z"/>
			<path fill="#B4EC36" d="M387.636,70.791h6.769c0.343,0,0.621,0.278,0.621,0.621v2.818c0,0.343-0.278,0.621-0.621,0.621h-6.769
				c-0.343,0-0.621-0.278-0.621-0.621v-2.818C387.015,71.069,387.293,70.791,387.636,70.791z"/>
		</g>
	</g>
	<g id="fb33f902-6783-4db3-88ea-a4524e356c77_00000058553726624904138560000014759654744459884989_">
		<g>
			
				<linearGradient id="SVGID_00000141432828960667501350000004287778692147611523_" gradientUnits="userSpaceOnUse" x1="-319.8046" y1="1156.7" x2="-319.8046" y2="1178.75" gradientTransform="matrix(1 0 0 -1 564 1235)">
				<stop  offset="0" style="stop-color:#0078D4"/>
				<stop  offset="0.502" style="stop-color:#4093E6"/>
				<stop  offset="0.775" style="stop-color:#5EA0EF"/>
			</linearGradient>
			<path fill="url(#SVGID_00000141432828960667501350000004287778692147611523_)" d="M225.539,56.25h37.313l0,0v20.803
				c0,0.689-0.558,1.247-1.247,1.247l0,0h-34.82c-0.689,0-1.247-0.558-1.247-1.247V56.25L225.539,56.25z"/>
			<path fill="#0078D4" d="M226.792,48.3h34.807c0.689,0,1.247,0.558,1.247,1.247v0v6.703l0,0h-37.307l0,0v-6.703
				c0-0.689,0.558-1.247,1.247-1.247C226.788,48.3,226.79,48.3,226.792,48.3z"/>
			<path opacity="0.9" fill="#FFFFFF" enable-background="new    " d="M230.119,59.176h6.769c0.343,0,0.621,0.278,0.621,0.621v2.818
				c0,0.343-0.278,0.621-0.621,0.621h-6.769c-0.343,0-0.621-0.278-0.621-0.621v-2.818C229.498,59.454,229.776,59.176,230.119,59.176
				z"/>
			<path opacity="0.9" fill="#FFFFFF" enable-background="new    " d="M240.866,59.119h6.769c0.343,0,0.621,0.278,0.621,0.621v2.818
				c0,0.343-0.278,0.621-0.621,0.621h-6.769c-0.343,0-0.621-0.278-0.621-0.621V59.74C240.245,59.397,240.523,59.119,240.866,59.119z
				"/>
			<path opacity="0.9" fill="#FFFFFF" enable-background="new    " d="M251.612,59.119h6.769c0.343,0,0.621,0.278,0.621,0.621v2.818
				c0,0.343-0.278,0.621-0.621,0.621h-6.769c-0.343,0-0.621-0.278-0.621-0.621V59.74C250.991,59.397,251.269,59.119,251.612,59.119z
				"/>
			<path opacity="0.9" fill="#FFFFFF" enable-background="new    " d="M230.238,64.984h6.769c0.343,0,0.621,0.278,0.621,0.621v2.818
				c0,0.343-0.278,0.621-0.621,0.621h-6.769c-0.343,0-0.621-0.278-0.621-0.621v-2.818C229.617,65.262,229.895,64.984,230.238,64.984
				z"/>
			<path fill="#FFD400" d="M240.984,64.926h6.769c0.343,0,0.621,0.278,0.621,0.621v2.818c0,0.343-0.278,0.621-0.621,0.621h-6.769
				c-0.343,0-0.621-0.278-0.621-0.621v-2.818C240.363,65.205,240.641,64.926,240.984,64.926z"/>
			<path fill="#FFD400" d="M251.73,64.926h6.769c0.343,0,0.621,0.278,0.621,0.621v2.818c0,0.343-0.278,0.621-0.621,0.621h-6.769
				c-0.343,0-0.621-0.278-0.621-0.621v-2.818C251.109,65.205,251.387,64.926,251.73,64.926z"/>
			<path fill="#FFD400" d="M230.238,70.848h6.769c0.343,0,0.621,0.278,0.621,0.621v2.818c0,0.343-0.278,0.621-0.621,0.621h-6.769
				c-0.343,0-0.621-0.278-0.621-0.621v-2.818C229.617,71.126,229.895,70.848,230.238,70.848z"/>
			<path fill="#FFD400" d="M240.984,70.791h6.769c0.343,0,0.621,0.278,0.621,0.621v2.818c0,0.343-0.278,0.621-0.621,0.621h-6.769
				c-0.343,0-0.621-0.278-0.621-0.621v-2.818C240.363,71.069,240.641,70.791,240.984,70.791z"/>
			<path fill="#FFD400" d="M251.73,70.791h6.769c0.343,0,0.621,0.278,0.621,0.621v2.818c0,0.343-0.278,0.621-0.621,0.621h-6.769
				c-0.343,0-0.621-0.278-0.621-0.621v-2.818C251.109,71.069,251.387,70.791,251.73,70.791z"/>
		</g>
	</g>
	<g id="fb33f902-6783-4db3-88ea-a4524e356c77_00000085929823383478369960000015089415118325570238_">
		<g>
			
				<linearGradient id="SVGID_00000168816018949742902040000004117402451845214358_" gradientUnits="userSpaceOnUse" x1="-252.0124" y1="1156.7" x2="-252.0124" y2="1178.75" gradientTransform="matrix(1 0 0 -1 564 1235)">
				<stop  offset="0" style="stop-color:#0078D4"/>
				<stop  offset="0.502" style="stop-color:#4093E6"/>
				<stop  offset="0.775" style="stop-color:#5EA0EF"/>
			</linearGradient>
			<path fill="url(#SVGID_00000168816018949742902040000004117402451845214358_)" d="M293.331,56.25h37.313l0,0v20.803
				c0,0.689-0.558,1.247-1.247,1.247l0,0h-34.82c-0.689,0-1.247-0.558-1.247-1.247V56.25L293.331,56.25z"/>
			<path fill="#0078D4" d="M294.584,48.3h34.807c0.689,0,1.247,0.558,1.247,1.247v0v6.703l0,0h-37.307l0,0v-6.703
				c0-0.689,0.558-1.247,1.247-1.247C294.58,48.3,294.582,48.3,294.584,48.3z"/>
			<path opacity="0.9" fill="#FFFFFF" enable-background="new    " d="M297.912,59.176h6.769c0.343,0,0.621,0.278,0.621,0.621v2.818
				c0,0.343-0.278,0.621-0.621,0.621h-6.769c-0.343,0-0.621-0.278-0.621-0.621v-2.818C297.29,59.454,297.569,59.176,297.912,59.176z
				"/>
			<path opacity="0.9" fill="#FFFFFF" enable-background="new    " d="M308.658,59.119h6.769c0.343,0,0.621,0.278,0.621,0.621v2.818
				c0,0.343-0.278,0.621-0.621,0.621h-6.769c-0.343,0-0.621-0.278-0.621-0.621V59.74C308.037,59.397,308.315,59.119,308.658,59.119z
				"/>
			<path opacity="0.9" fill="#FFFFFF" enable-background="new    " d="M319.404,59.119h6.769c0.343,0,0.621,0.278,0.621,0.621v2.818
				c0,0.343-0.278,0.621-0.621,0.621h-6.769c-0.343,0-0.621-0.278-0.621-0.621V59.74C318.783,59.397,319.061,59.119,319.404,59.119z
				"/>
			<path opacity="0.9" fill="#FFFFFF" enable-background="new    " d="M298.03,64.984h6.769c0.343,0,0.621,0.278,0.621,0.621v2.818
				c0,0.343-0.278,0.621-0.621,0.621h-6.769c-0.343,0-0.621-0.278-0.621-0.621v-2.818C297.409,65.262,297.687,64.984,298.03,64.984z
				"/>
			<path fill="#FFD400" d="M308.776,64.926h6.769c0.343,0,0.621,0.278,0.621,0.621v2.818c0,0.343-0.278,0.621-0.621,0.621h-6.769
				c-0.343,0-0.621-0.278-0.621-0.621v-2.818C308.155,65.205,308.433,64.926,308.776,64.926z"/>
			<path fill="#FFD400" d="M319.523,64.926h6.769c0.343,0,0.621,0.278,0.621,0.621v2.818c0,0.343-0.278,0.621-0.621,0.621h-6.769
				c-0.343,0-0.621-0.278-0.621-0.621v-2.818C318.902,65.205,319.18,64.926,319.523,64.926z"/>
			<path fill="#FFD400" d="M298.03,70.848h6.769c0.343,0,0.621,0.278,0.621,0.621v2.818c0,0.343-0.278,0.621-0.621,0.621h-6.769
				c-0.343,0-0.621-0.278-0.621-0.621v-2.818C297.409,71.126,297.687,70.848,298.03,70.848z"/>
			<path fill="#FFD400" d="M308.776,70.791h6.769c0.343,0,0.621,0.278,0.621,0.621v2.818c0,0.343-0.278,0.621-0.621,0.621h-6.769
				c-0.343,0-0.621-0.278-0.621-0.621v-2.818C308.155,71.069,308.433,70.791,308.776,70.791z"/>
			<path fill="#FFD400" d="M319.523,70.791h6.769c0.343,0,0.621,0.278,0.621,0.621v2.818c0,0.343-0.278,0.621-0.621,0.621h-6.769
				c-0.343,0-0.621-0.278-0.621-0.621v-2.818C318.902,71.069,319.18,70.791,319.523,70.791z"/>
		</g>
	</g>
	<g id="fb33f902-6783-4db3-88ea-a4524e356c77_00000080184478073995337600000014400930326805368751_">
		<g>
			
				<linearGradient id="SVGID_00000020360438291263110200000000961398409071378579_" gradientUnits="userSpaceOnUse" x1="-116.2178" y1="1156.7" x2="-116.2178" y2="1178.75" gradientTransform="matrix(1 0 0 -1 564 1235)">
				<stop  offset="0" style="stop-color:#0078D4"/>
				<stop  offset="0.502" style="stop-color:#4093E6"/>
				<stop  offset="0.775" style="stop-color:#5EA0EF"/>
			</linearGradient>
			<path fill="url(#SVGID_00000020360438291263110200000000961398409071378579_)" d="M429.125,56.25h37.313l0,0v20.803
				c0,0.689-0.558,1.247-1.247,1.247l0,0h-34.82c-0.689,0-1.247-0.558-1.247-1.247V56.25L429.125,56.25z"/>
			<path fill="#0078D4" d="M430.379,48.3h34.807c0.689,0,1.247,0.558,1.247,1.247v0v6.703l0,0h-37.307l0,0v-6.703
				c0-0.689,0.558-1.247,1.247-1.247C430.374,48.3,430.377,48.3,430.379,48.3z"/>
			<path opacity="0.9" fill="#FFFFFF" enable-background="new    " d="M433.706,59.176h6.769c0.343,0,0.621,0.278,0.621,0.621v2.818
				c0,0.343-0.278,0.621-0.621,0.621h-6.769c-0.343,0-0.621-0.278-0.621-0.621v-2.818C433.085,59.454,433.363,59.176,433.706,59.176
				z"/>
			<path opacity="0.9" fill="#FFFFFF" enable-background="new    " d="M444.453,59.119h6.769c0.343,0,0.621,0.278,0.621,0.621v2.818
				c0,0.343-0.278,0.621-0.621,0.621h-6.769c-0.343,0-0.621-0.278-0.621-0.621V59.74C443.831,59.397,444.109,59.119,444.453,59.119z
				"/>
			<path opacity="0.9" fill="#FFFFFF" enable-background="new    " d="M455.199,59.119h6.769c0.343,0,0.621,0.278,0.621,0.621v2.818
				c0,0.343-0.278,0.621-0.621,0.621h-6.769c-0.343,0-0.621-0.278-0.621-0.621V59.74C454.578,59.397,454.856,59.119,455.199,59.119z
				"/>
			<path opacity="0.9" fill="#FFFFFF" enable-background="new    " d="M433.825,64.984h6.769c0.343,0,0.621,0.278,0.621,0.621v2.818
				c0,0.343-0.278,0.621-0.621,0.621h-6.769c-0.343,0-0.621-0.278-0.621-0.621v-2.818C433.204,65.262,433.482,64.984,433.825,64.984
				z"/>
			<path fill="#FFD400" d="M444.571,64.926h6.769c0.343,0,0.621,0.278,0.621,0.621v2.818c0,0.343-0.278,0.621-0.621,0.621h-6.769
				c-0.343,0-0.621-0.278-0.621-0.621v-2.818C443.95,65.205,444.228,64.926,444.571,64.926z"/>
			<path fill="#FFD400" d="M455.317,64.926h6.769c0.343,0,0.621,0.278,0.621,0.621v2.818c0,0.343-0.278,0.621-0.621,0.621h-6.769
				c-0.343,0-0.621-0.278-0.621-0.621v-2.818C454.696,65.205,454.974,64.926,455.317,64.926z"/>
			<path fill="#FFD400" d="M433.825,70.848h6.769c0.343,0,0.621,0.278,0.621,0.621v2.818c0,0.343-0.278,0.621-0.621,0.621h-6.769
				c-0.343,0-0.621-0.278-0.621-0.621v-2.818C433.204,71.126,433.482,70.848,433.825,70.848z"/>
			<path fill="#FFD400" d="M444.571,70.791h6.769c0.343,0,0.621,0.278,0.621,0.621v2.818c0,0.343-0.278,0.621-0.621,0.621h-6.769
				c-0.343,0-0.621-0.278-0.621-0.621v-2.818C443.95,71.069,444.228,70.791,444.571,70.791z"/>
			<path fill="#FFD400" d="M455.317,70.791h6.769c0.343,0,0.621,0.278,0.621,0.621v2.818c0,0.343-0.278,0.621-0.621,0.621h-6.769
				c-0.343,0-0.621-0.278-0.621-0.621v-2.818C454.696,71.069,454.974,70.791,455.317,70.791z"/>
		</g>
	</g>
	<g id="fb33f902-6783-4db3-88ea-a4524e356c77_00000136380939980856888070000017584639998030901439_">
		<g>
			
				<linearGradient id="SVGID_00000096038715426608723940000005727652024872046765_" gradientUnits="userSpaceOnUse" x1="-48.4256" y1="1156.7" x2="-48.4256" y2="1178.75" gradientTransform="matrix(1 0 0 -1 564 1235)">
				<stop  offset="0" style="stop-color:#0078D4"/>
				<stop  offset="0.502" style="stop-color:#4093E6"/>
				<stop  offset="0.775" style="stop-color:#5EA0EF"/>
			</linearGradient>
			<path fill="url(#SVGID_00000096038715426608723940000005727652024872046765_)" d="M496.918,56.25h37.313l0,0v20.803
				c0,0.689-0.558,1.247-1.247,1.247l0,0h-34.82c-0.689,0-1.247-0.558-1.247-1.247V56.25L496.918,56.25z"/>
			<path fill="#0078D4" d="M498.171,48.3h34.807c0.689,0,1.247,0.558,1.247,1.247v0v6.703l0,0h-37.307l0,0v-6.703
				c0-0.689,0.558-1.247,1.247-1.247C498.167,48.3,498.169,48.3,498.171,48.3z"/>
			<path opacity="0.9" fill="#FFFFFF" enable-background="new    " d="M501.498,59.176h6.769c0.343,0,0.621,0.278,0.621,0.621v2.818
				c0,0.343-0.278,0.621-0.621,0.621h-6.769c-0.343,0-0.621-0.278-0.621-0.621v-2.818C500.877,59.454,501.155,59.176,501.498,59.176
				z"/>
			<path opacity="0.9" fill="#FFFFFF" enable-background="new    " d="M512.245,59.119h6.769c0.343,0,0.621,0.278,0.621,0.621v2.818
				c0,0.343-0.278,0.621-0.621,0.621h-6.769c-0.343,0-0.621-0.278-0.621-0.621V59.74C511.624,59.397,511.902,59.119,512.245,59.119z
				"/>
			<path opacity="0.9" fill="#FFFFFF" enable-background="new    " d="M522.991,59.119h6.769c0.343,0,0.621,0.278,0.621,0.621v2.818
				c0,0.343-0.278,0.621-0.621,0.621h-6.769c-0.343,0-0.621-0.278-0.621-0.621V59.74C522.37,59.397,522.648,59.119,522.991,59.119z"
				/>
			<path opacity="0.9" fill="#FFFFFF" enable-background="new    " d="M501.617,64.984h6.769c0.343,0,0.621,0.278,0.621,0.621v2.818
				c0,0.343-0.278,0.621-0.621,0.621h-6.769c-0.343,0-0.621-0.278-0.621-0.621v-2.818C500.996,65.262,501.274,64.984,501.617,64.984
				z"/>
			<path fill="#FFD400" d="M512.363,64.926h6.769c0.343,0,0.621,0.278,0.621,0.621v2.818c0,0.343-0.278,0.621-0.621,0.621h-6.769
				c-0.343,0-0.621-0.278-0.621-0.621v-2.818C511.742,65.205,512.02,64.926,512.363,64.926z"/>
			<path fill="#FFD400" d="M523.109,64.926h6.769c0.343,0,0.621,0.278,0.621,0.621v2.818c0,0.343-0.278,0.621-0.621,0.621h-6.769
				c-0.343,0-0.621-0.278-0.621-0.621v-2.818C522.488,65.205,522.766,64.926,523.109,64.926z"/>
			<path fill="#FFD400" d="M501.617,70.848h6.769c0.343,0,0.621,0.278,0.621,0.621v2.818c0,0.343-0.278,0.621-0.621,0.621h-6.769
				c-0.343,0-0.621-0.278-0.621-0.621v-2.818C500.996,71.126,501.274,70.848,501.617,70.848z"/>
			<path fill="#FFD400" d="M512.363,70.791h6.769c0.343,0,0.621,0.278,0.621,0.621v2.818c0,0.343-0.278,0.621-0.621,0.621h-6.769
				c-0.343,0-0.621-0.278-0.621-0.621v-2.818C511.742,71.069,512.02,70.791,512.363,70.791z"/>
			<path fill="#FFD400" d="M523.109,70.791h6.769c0.343,0,0.621,0.278,0.621,0.621v2.818c0,0.343-0.278,0.621-0.621,0.621h-6.769
				c-0.343,0-0.621-0.278-0.621-0.621v-2.818C522.488,71.069,522.766,70.791,523.109,70.791z"/>
		</g>
	</g>
	<g>
		<g opacity="0.24">
			<rect x="5.872" y="165.569" width="546.256" height="96.8"/>
			<rect x="5.872" y="165.569" opacity="0.7" width="546.256" height="96.8"/>
		</g>
		<g>
			<rect x="4.872" y="164.569" fill="#FFFFFF" width="546.256" height="96.8"/>
			<rect x="4.872" y="164.569" opacity="0.7" fill="#E8E8E8" width="546.256" height="96.8"/>
		</g>
	</g>
	<g id="fb33f902-6783-4db3-88ea-a4524e356c77_00000013173937110783180350000005449343208942455731_">
		<g>
			
				<linearGradient id="SVGID_00000081620528224920267760000008622661590622734210_" gradientUnits="userSpaceOnUse" x1="-523.3914" y1="1015.9" x2="-523.3914" y2="1037.9501" gradientTransform="matrix(1 0 0 -1 564 1235)">
				<stop  offset="0" style="stop-color:#0078D4"/>
				<stop  offset="0.502" style="stop-color:#4093E6"/>
				<stop  offset="0.775" style="stop-color:#5EA0EF"/>
			</linearGradient>
			<path fill="url(#SVGID_00000081620528224920267760000008622661590622734210_)" d="M21.952,197.05h37.313l0,0v20.803
				c0,0.689-0.558,1.247-1.247,1.247l0,0h-34.82c-0.689,0-1.247-0.558-1.247-1.247V197.05L21.952,197.05z"/>
			<path fill="#0078D4" d="M23.205,189.1h34.807c0.689,0,1.247,0.558,1.247,1.247l0,0v6.703l0,0H21.952l0,0v-6.703
				c0-0.689,0.558-1.247,1.247-1.247C23.201,189.1,23.203,189.1,23.205,189.1z"/>
			<path opacity="0.9" fill="#FFFFFF" enable-background="new    " d="M26.533,199.976h6.769c0.343,0,0.621,0.278,0.621,0.621v2.818
				c0,0.343-0.278,0.621-0.621,0.621h-6.769c-0.343,0-0.621-0.278-0.621-0.621v-2.818C25.912,200.254,26.19,199.976,26.533,199.976z
				"/>
			<path opacity="0.9" fill="#FFFFFF" enable-background="new    " d="M37.279,199.919h6.769c0.343,0,0.621,0.278,0.621,0.621v2.818
				c0,0.343-0.278,0.621-0.621,0.621h-6.769c-0.343,0-0.621-0.278-0.621-0.621v-2.818C36.658,200.197,36.936,199.919,37.279,199.919
				z"/>
			<path opacity="0.9" fill="#FFFFFF" enable-background="new    " d="M48.025,199.919h6.769c0.343,0,0.621,0.278,0.621,0.621v2.818
				c0,0.343-0.278,0.621-0.621,0.621h-6.769c-0.343,0-0.621-0.278-0.621-0.621v-2.818C47.404,200.197,47.682,199.919,48.025,199.919
				z"/>
			<path opacity="0.9" fill="#FFFFFF" enable-background="new    " d="M26.651,205.784h6.769c0.343,0,0.621,0.278,0.621,0.621v2.818
				c0,0.343-0.278,0.621-0.621,0.621h-6.769c-0.343,0-0.621-0.278-0.621-0.621v-2.818C26.03,206.062,26.308,205.784,26.651,205.784z
				"/>
			<path fill="#FFD400" d="M37.397,205.726h6.769c0.343,0,0.621,0.278,0.621,0.621v2.818c0,0.343-0.278,0.621-0.621,0.621h-6.769
				c-0.343,0-0.621-0.278-0.621-0.621v-2.818C36.776,206.005,37.054,205.726,37.397,205.726z"/>
			<path fill="#FFD400" d="M48.144,205.726h6.769c0.343,0,0.621,0.278,0.621,0.621v2.818c0,0.343-0.278,0.621-0.621,0.621h-6.769
				c-0.343,0-0.621-0.278-0.621-0.621v-2.818C47.523,206.005,47.801,205.726,48.144,205.726z"/>
			<path fill="#FFD400" d="M26.651,211.648h6.769c0.343,0,0.621,0.278,0.621,0.621v2.818c0,0.343-0.278,0.621-0.621,0.621h-6.769
				c-0.343,0-0.621-0.278-0.621-0.621v-2.818C26.03,211.926,26.308,211.648,26.651,211.648z"/>
			<path fill="#FFD400" d="M37.397,211.591h6.769c0.343,0,0.621,0.278,0.621,0.621v2.818c0,0.343-0.278,0.621-0.621,0.621h-6.769
				c-0.343,0-0.621-0.278-0.621-0.621v-2.818C36.776,211.869,37.054,211.591,37.397,211.591z"/>
			<path fill="#FFD400" d="M48.144,211.591h6.769c0.343,0,0.621,0.278,0.621,0.621v2.818c0,0.343-0.278,0.621-0.621,0.621h-6.769
				c-0.343,0-0.621-0.278-0.621-0.621v-2.818C47.523,211.869,47.801,211.591,48.144,211.591z"/>
		</g>
	</g>
	<g id="fb33f902-6783-4db3-88ea-a4524e356c77_00000034079267352140524650000014415534520627167634_">
		<g>
			
				<linearGradient id="SVGID_00000046304230604757530240000016463547588264924062_" gradientUnits="userSpaceOnUse" x1="-47.7969" y1="1015.9" x2="-47.7969" y2="1037.9501" gradientTransform="matrix(1 0 0 -1 564 1235)">
				<stop  offset="0" style="stop-color:#0078D4"/>
				<stop  offset="0.502" style="stop-color:#4093E6"/>
				<stop  offset="0.775" style="stop-color:#5EA0EF"/>
			</linearGradient>
			<path fill="url(#SVGID_00000046304230604757530240000016463547588264924062_)" d="M497.546,197.05h37.313l0,0v20.803
				c0,0.689-0.558,1.247-1.247,1.247l0,0h-34.82c-0.689,0-1.247-0.558-1.247-1.247V197.05L497.546,197.05z"/>
			<path fill="#0078D4" d="M498.8,189.1h34.807c0.689,0,1.247,0.558,1.247,1.247l0,0v6.703l0,0h-37.307l0,0v-6.703
				c0-0.689,0.558-1.247,1.247-1.247C498.795,189.1,498.797,189.1,498.8,189.1z"/>
			<path opacity="0.9" fill="#FFFFFF" enable-background="new    " d="M502.127,199.976h6.769c0.343,0,0.621,0.278,0.621,0.621
				v2.818c0,0.343-0.278,0.621-0.621,0.621h-6.769c-0.343,0-0.621-0.278-0.621-0.621v-2.818
				C501.506,200.254,501.784,199.976,502.127,199.976z"/>
			<path opacity="0.9" fill="#FFFFFF" enable-background="new    " d="M512.873,199.919h6.769c0.343,0,0.621,0.278,0.621,0.621
				v2.818c0,0.343-0.278,0.621-0.621,0.621h-6.769c-0.343,0-0.621-0.278-0.621-0.621v-2.818
				C512.252,200.197,512.53,199.919,512.873,199.919z"/>
			<path opacity="0.9" fill="#FFFFFF" enable-background="new    " d="M523.62,199.919h6.769c0.343,0,0.621,0.278,0.621,0.621v2.818
				c0,0.343-0.278,0.621-0.621,0.621h-6.769c-0.343,0-0.621-0.278-0.621-0.621v-2.818
				C522.998,200.197,523.277,199.919,523.62,199.919z"/>
			<path opacity="0.9" fill="#FFFFFF" enable-background="new    " d="M502.246,205.784h6.769c0.343,0,0.621,0.278,0.621,0.621
				v2.818c0,0.343-0.278,0.621-0.621,0.621h-6.769c-0.343,0-0.621-0.278-0.621-0.621v-2.818
				C501.624,206.062,501.903,205.784,502.246,205.784z"/>
			<path fill="#FFD400" d="M512.992,205.726h6.769c0.343,0,0.621,0.278,0.621,0.621v2.818c0,0.343-0.278,0.621-0.621,0.621h-6.769
				c-0.343,0-0.621-0.278-0.621-0.621v-2.818C512.371,206.005,512.649,205.726,512.992,205.726z"/>
			<path fill="#FFD400" d="M523.738,205.726h6.769c0.343,0,0.621,0.278,0.621,0.621v2.818c0,0.343-0.278,0.621-0.621,0.621h-6.769
				c-0.343,0-0.621-0.278-0.621-0.621v-2.818C523.117,206.005,523.395,205.726,523.738,205.726z"/>
			<path fill="#FFD400" d="M502.246,211.648h6.769c0.343,0,0.621,0.278,0.621,0.621v2.818c0,0.343-0.278,0.621-0.621,0.621h-6.769
				c-0.343,0-0.621-0.278-0.621-0.621v-2.818C501.624,211.926,501.903,211.648,502.246,211.648z"/>
			<path fill="#FFD400" d="M512.992,211.591h6.769c0.343,0,0.621,0.278,0.621,0.621v2.818c0,0.343-0.278,0.621-0.621,0.621h-6.769
				c-0.343,0-0.621-0.278-0.621-0.621v-2.818C512.371,211.869,512.649,211.591,512.992,211.591z"/>
			<path fill="#FFD400" d="M523.738,211.591h6.769c0.343,0,0.621,0.278,0.621,0.621v2.818c0,0.343-0.278,0.621-0.621,0.621h-6.769
				c-0.343,0-0.621-0.278-0.621-0.621v-2.818C523.117,211.869,523.395,211.591,523.738,211.591z"/>
		</g>
	</g>
	<g id="fb33f902-6783-4db3-88ea-a4524e356c77_00000139278880150447447710000006196606066713117370_">
		<g>
			
				<linearGradient id="SVGID_00000054240959315430112020000014167453419426734466_" gradientUnits="userSpaceOnUse" x1="-116.2179" y1="1015.9" x2="-116.2179" y2="1037.9501" gradientTransform="matrix(1 0 0 -1 564 1235)">
				<stop  offset="0" style="stop-color:#0078D4"/>
				<stop  offset="0.502" style="stop-color:#4093E6"/>
				<stop  offset="0.775" style="stop-color:#5EA0EF"/>
			</linearGradient>
			<path fill="url(#SVGID_00000054240959315430112020000014167453419426734466_)" d="M429.125,197.05h37.313l0,0v20.803
				c0,0.689-0.558,1.247-1.247,1.247l0,0h-34.82c-0.689,0-1.247-0.558-1.247-1.247V197.05L429.125,197.05z"/>
			<path fill="#0078D4" d="M430.379,189.1h34.807c0.689,0,1.247,0.558,1.247,1.247l0,0v6.703l0,0h-37.307l0,0v-6.703
				c0-0.689,0.558-1.247,1.247-1.247C430.374,189.1,430.376,189.1,430.379,189.1z"/>
			<path opacity="0.9" fill="#FFFFFF" enable-background="new    " d="M433.706,199.976h6.769c0.343,0,0.621,0.278,0.621,0.621
				v2.818c0,0.343-0.278,0.621-0.621,0.621h-6.769c-0.343,0-0.621-0.278-0.621-0.621v-2.818
				C433.085,200.254,433.363,199.976,433.706,199.976z"/>
			<path opacity="0.9" fill="#FFFFFF" enable-background="new    " d="M444.452,199.919h6.769c0.343,0,0.621,0.278,0.621,0.621
				v2.818c0,0.343-0.278,0.621-0.621,0.621h-6.769c-0.343,0-0.621-0.278-0.621-0.621v-2.818
				C443.831,200.197,444.109,199.919,444.452,199.919z"/>
			<path opacity="0.9" fill="#FFFFFF" enable-background="new    " d="M455.199,199.919h6.769c0.343,0,0.621,0.278,0.621,0.621
				v2.818c0,0.343-0.278,0.621-0.621,0.621h-6.769c-0.343,0-0.621-0.278-0.621-0.621v-2.818
				C454.578,200.197,454.856,199.919,455.199,199.919z"/>
			<path opacity="0.9" fill="#FFFFFF" enable-background="new    " d="M433.825,205.784h6.769c0.343,0,0.621,0.278,0.621,0.621
				v2.818c0,0.343-0.278,0.621-0.621,0.621h-6.769c-0.343,0-0.621-0.278-0.621-0.621v-2.818
				C433.204,206.062,433.482,205.784,433.825,205.784z"/>
			<path fill="#FFD400" d="M444.571,205.726h6.769c0.343,0,0.621,0.278,0.621,0.621v2.818c0,0.343-0.278,0.621-0.621,0.621h-6.769
				c-0.343,0-0.621-0.278-0.621-0.621v-2.818C443.95,206.005,444.228,205.726,444.571,205.726z"/>
			<path fill="#FFD400" d="M455.317,205.726h6.769c0.343,0,0.621,0.278,0.621,0.621v2.818c0,0.343-0.278,0.621-0.621,0.621h-6.769
				c-0.343,0-0.621-0.278-0.621-0.621v-2.818C454.696,206.005,454.974,205.726,455.317,205.726z"/>
			<path fill="#FFD400" d="M433.825,211.648h6.769c0.343,0,0.621,0.278,0.621,0.621v2.818c0,0.343-0.278,0.621-0.621,0.621h-6.769
				c-0.343,0-0.621-0.278-0.621-0.621v-2.818C433.204,211.926,433.482,211.648,433.825,211.648z"/>
			<path fill="#FFD400" d="M444.571,211.591h6.769c0.343,0,0.621,0.278,0.621,0.621v2.818c0,0.343-0.278,0.621-0.621,0.621h-6.769
				c-0.343,0-0.621-0.278-0.621-0.621v-2.818C443.95,211.869,444.228,211.591,444.571,211.591z"/>
			<path fill="#FFD400" d="M455.317,211.591h6.769c0.343,0,0.621,0.278,0.621,0.621v2.818c0,0.343-0.278,0.621-0.621,0.621h-6.769
				c-0.343,0-0.621-0.278-0.621-0.621v-2.818C454.696,211.869,454.974,211.591,455.317,211.591z"/>
		</g>
	</g>
	<g id="fb33f902-6783-4db3-88ea-a4524e356c77_00000127022010439882717430000012415573391085638555_">
		<g>
			
				<linearGradient id="SVGID_00000060019674088760913700000012300375399622084752_" gradientUnits="userSpaceOnUse" x1="-184.0801" y1="1015.9" x2="-184.0801" y2="1037.9501" gradientTransform="matrix(1 0 0 -1 564 1235)">
				<stop  offset="0" style="stop-color:#0078D4"/>
				<stop  offset="0.502" style="stop-color:#4093E6"/>
				<stop  offset="0.775" style="stop-color:#5EA0EF"/>
			</linearGradient>
			<path fill="url(#SVGID_00000060019674088760913700000012300375399622084752_)" d="M361.263,197.05h37.313l0,0v20.803
				c0,0.689-0.558,1.247-1.247,1.247l0,0h-34.82c-0.689,0-1.247-0.558-1.247-1.247V197.05L361.263,197.05z"/>
			<path fill="#0078D4" d="M362.516,189.1h34.807c0.689,0,1.247,0.558,1.247,1.247l0,0v6.703l0,0h-37.307l0,0v-6.703
				c0-0.689,0.558-1.247,1.247-1.247C362.512,189.1,362.514,189.1,362.516,189.1z"/>
			<path opacity="0.9" fill="#FFFFFF" enable-background="new    " d="M365.844,199.976h6.769c0.343,0,0.621,0.278,0.621,0.621
				v2.818c0,0.343-0.278,0.621-0.621,0.621h-6.769c-0.343,0-0.621-0.278-0.621-0.621v-2.818
				C365.223,200.254,365.501,199.976,365.844,199.976z"/>
			<path opacity="0.9" fill="#FFFFFF" enable-background="new    " d="M376.59,199.919h6.769c0.343,0,0.621,0.278,0.621,0.621v2.818
				c0,0.343-0.278,0.621-0.621,0.621h-6.769c-0.343,0-0.621-0.278-0.621-0.621v-2.818
				C375.969,200.197,376.247,199.919,376.59,199.919z"/>
			<path opacity="0.9" fill="#FFFFFF" enable-background="new    " d="M387.336,199.919h6.769c0.343,0,0.621,0.278,0.621,0.621
				v2.818c0,0.343-0.278,0.621-0.621,0.621h-6.769c-0.343,0-0.621-0.278-0.621-0.621v-2.818
				C386.715,200.197,386.993,199.919,387.336,199.919z"/>
			<path opacity="0.9" fill="#FFFFFF" enable-background="new    " d="M365.962,205.784h6.769c0.343,0,0.621,0.278,0.621,0.621
				v2.818c0,0.343-0.278,0.621-0.621,0.621h-6.769c-0.343,0-0.621-0.278-0.621-0.621v-2.818
				C365.341,206.062,365.619,205.784,365.962,205.784z"/>
			<path fill="#FFD400" d="M376.709,205.726h6.769c0.343,0,0.621,0.278,0.621,0.621v2.818c0,0.343-0.278,0.621-0.621,0.621h-6.769
				c-0.343,0-0.621-0.278-0.621-0.621v-2.818C376.088,206.005,376.366,205.726,376.709,205.726z"/>
			<path fill="#FFD400" d="M387.455,205.726h6.769c0.343,0,0.621,0.278,0.621,0.621v2.818c0,0.343-0.278,0.621-0.621,0.621h-6.769
				c-0.343,0-0.621-0.278-0.621-0.621v-2.818C386.834,206.005,387.112,205.726,387.455,205.726z"/>
			<path fill="#FFD400" d="M365.962,211.648h6.769c0.343,0,0.621,0.278,0.621,0.621v2.818c0,0.343-0.278,0.621-0.621,0.621h-6.769
				c-0.343,0-0.621-0.278-0.621-0.621v-2.818C365.341,211.926,365.619,211.648,365.962,211.648z"/>
			<path fill="#FFD400" d="M376.709,211.591h6.769c0.343,0,0.621,0.278,0.621,0.621v2.818c0,0.343-0.278,0.621-0.621,0.621h-6.769
				c-0.343,0-0.621-0.278-0.621-0.621v-2.818C376.088,211.869,376.366,211.591,376.709,211.591z"/>
			<path fill="#FFD400" d="M387.455,211.591h6.769c0.343,0,0.621,0.278,0.621,0.621v2.818c0,0.343-0.278,0.621-0.621,0.621h-6.769
				c-0.343,0-0.621-0.278-0.621-0.621v-2.818C386.834,211.869,387.112,211.591,387.455,211.591z"/>
		</g>
	</g>
	<g id="fb33f902-6783-4db3-88ea-a4524e356c77_00000029035448449453838220000004748425674912841384_">
		<g>
			
				<linearGradient id="SVGID_00000072273716174526872010000010490155253894867342_" gradientUnits="userSpaceOnUse" x1="-251.9424" y1="1015.9" x2="-251.9424" y2="1037.9501" gradientTransform="matrix(1 0 0 -1 564 1235)">
				<stop  offset="0" style="stop-color:#0078D4"/>
				<stop  offset="0.502" style="stop-color:#4093E6"/>
				<stop  offset="0.775" style="stop-color:#5EA0EF"/>
			</linearGradient>
			<path fill="url(#SVGID_00000072273716174526872010000010490155253894867342_)" d="M293.401,197.05h37.313l0,0v20.803
				c0,0.689-0.558,1.247-1.247,1.247l0,0h-34.82c-0.689,0-1.247-0.558-1.247-1.247V197.05L293.401,197.05z"/>
			<path fill="#0078D4" d="M294.654,189.1h34.807c0.689,0,1.247,0.558,1.247,1.247l0,0v6.703l0,0h-37.307l0,0v-6.703
				c0-0.689,0.558-1.247,1.247-1.247C294.65,189.1,294.652,189.1,294.654,189.1z"/>
			<path opacity="0.9" fill="#FFFFFF" enable-background="new    " d="M297.982,199.976h6.769c0.343,0,0.621,0.278,0.621,0.621
				v2.818c0,0.343-0.278,0.621-0.621,0.621h-6.769c-0.343,0-0.621-0.278-0.621-0.621v-2.818
				C297.361,200.254,297.639,199.976,297.982,199.976z"/>
			<path opacity="0.9" fill="#FFFFFF" enable-background="new    " d="M308.728,199.919h6.769c0.343,0,0.621,0.278,0.621,0.621
				v2.818c0,0.343-0.278,0.621-0.621,0.621h-6.769c-0.343,0-0.621-0.278-0.621-0.621v-2.818
				C308.107,200.197,308.385,199.919,308.728,199.919z"/>
			<path opacity="0.9" fill="#FFFFFF" enable-background="new    " d="M319.474,199.919h6.769c0.343,0,0.621,0.278,0.621,0.621
				v2.818c0,0.343-0.278,0.621-0.621,0.621h-6.769c-0.343,0-0.621-0.278-0.621-0.621v-2.818
				C318.853,200.197,319.131,199.919,319.474,199.919z"/>
			<path opacity="0.9" fill="#FFFFFF" enable-background="new    " d="M298.1,205.784h6.769c0.343,0,0.621,0.278,0.621,0.621v2.818
				c0,0.343-0.278,0.621-0.621,0.621H298.1c-0.343,0-0.621-0.278-0.621-0.621v-2.818C297.479,206.062,297.757,205.784,298.1,205.784
				z"/>
			<path fill="#FFD400" d="M308.846,205.726h6.769c0.343,0,0.621,0.278,0.621,0.621v2.818c0,0.343-0.278,0.621-0.621,0.621h-6.769
				c-0.343,0-0.621-0.278-0.621-0.621v-2.818C308.225,206.005,308.503,205.726,308.846,205.726z"/>
			<path fill="#FFD400" d="M319.593,205.726h6.769c0.343,0,0.621,0.278,0.621,0.621v2.818c0,0.343-0.278,0.621-0.621,0.621h-6.769
				c-0.343,0-0.621-0.278-0.621-0.621v-2.818C318.972,206.005,319.25,205.726,319.593,205.726z"/>
			<path fill="#FFD400" d="M298.1,211.648h6.769c0.343,0,0.621,0.278,0.621,0.621v2.818c0,0.343-0.278,0.621-0.621,0.621H298.1
				c-0.343,0-0.621-0.278-0.621-0.621v-2.818C297.479,211.926,297.757,211.648,298.1,211.648z"/>
			<path fill="#FFD400" d="M308.846,211.591h6.769c0.343,0,0.621,0.278,0.621,0.621v2.818c0,0.343-0.278,0.621-0.621,0.621h-6.769
				c-0.343,0-0.621-0.278-0.621-0.621v-2.818C308.225,211.869,308.503,211.591,308.846,211.591z"/>
			<path fill="#FFD400" d="M319.593,211.591h6.769c0.343,0,0.621,0.278,0.621,0.621v2.818c0,0.343-0.278,0.621-0.621,0.621h-6.769
				c-0.343,0-0.621-0.278-0.621-0.621v-2.818C318.972,211.869,319.25,211.591,319.593,211.591z"/>
		</g>
	</g>
	<g id="fb33f902-6783-4db3-88ea-a4524e356c77_00000178885428325842065830000003170098523196351917_">
		<g>
			
				<linearGradient id="SVGID_00000075162576547593220250000011239274464315710653_" gradientUnits="userSpaceOnUse" x1="-319.8046" y1="1015.9" x2="-319.8046" y2="1037.9501" gradientTransform="matrix(1 0 0 -1 564 1235)">
				<stop  offset="0" style="stop-color:#0078D4"/>
				<stop  offset="0.502" style="stop-color:#4093E6"/>
				<stop  offset="0.775" style="stop-color:#5EA0EF"/>
			</linearGradient>
			<path fill="url(#SVGID_00000075162576547593220250000011239274464315710653_)" d="M225.539,197.05h37.313l0,0v20.803
				c0,0.689-0.558,1.247-1.247,1.247l0,0h-34.82c-0.689,0-1.247-0.558-1.247-1.247V197.05L225.539,197.05z"/>
			<path fill="#0078D4" d="M226.792,189.1h34.807c0.689,0,1.247,0.558,1.247,1.247l0,0v6.703l0,0h-37.307l0,0v-6.703
				c0-0.689,0.558-1.247,1.247-1.247C226.788,189.1,226.79,189.1,226.792,189.1z"/>
			<path opacity="0.9" fill="#FFFFFF" enable-background="new    " d="M230.119,199.976h6.769c0.343,0,0.621,0.278,0.621,0.621
				v2.818c0,0.343-0.278,0.621-0.621,0.621h-6.769c-0.343,0-0.621-0.278-0.621-0.621v-2.818
				C229.498,200.254,229.776,199.976,230.119,199.976z"/>
			<path opacity="0.9" fill="#FFFFFF" enable-background="new    " d="M240.866,199.919h6.769c0.343,0,0.621,0.278,0.621,0.621
				v2.818c0,0.343-0.278,0.621-0.621,0.621h-6.769c-0.343,0-0.621-0.278-0.621-0.621v-2.818
				C240.245,200.197,240.523,199.919,240.866,199.919z"/>
			<path opacity="0.9" fill="#FFFFFF" enable-background="new    " d="M251.612,199.919h6.769c0.343,0,0.621,0.278,0.621,0.621
				v2.818c0,0.343-0.278,0.621-0.621,0.621h-6.769c-0.343,0-0.621-0.278-0.621-0.621v-2.818
				C250.991,200.197,251.269,199.919,251.612,199.919z"/>
			<path opacity="0.9" fill="#FFFFFF" enable-background="new    " d="M230.238,205.784h6.769c0.343,0,0.621,0.278,0.621,0.621
				v2.818c0,0.343-0.278,0.621-0.621,0.621h-6.769c-0.343,0-0.621-0.278-0.621-0.621v-2.818
				C229.617,206.062,229.895,205.784,230.238,205.784z"/>
			<path fill="#FFD400" d="M240.984,205.726h6.769c0.343,0,0.621,0.278,0.621,0.621v2.818c0,0.343-0.278,0.621-0.621,0.621h-6.769
				c-0.343,0-0.621-0.278-0.621-0.621v-2.818C240.363,206.005,240.641,205.726,240.984,205.726z"/>
			<path fill="#FFD400" d="M251.73,205.726h6.769c0.343,0,0.621,0.278,0.621,0.621v2.818c0,0.343-0.278,0.621-0.621,0.621h-6.769
				c-0.343,0-0.621-0.278-0.621-0.621v-2.818C251.109,206.005,251.387,205.726,251.73,205.726z"/>
			<path fill="#FFD400" d="M230.238,211.648h6.769c0.343,0,0.621,0.278,0.621,0.621v2.818c0,0.343-0.278,0.621-0.621,0.621h-6.769
				c-0.343,0-0.621-0.278-0.621-0.621v-2.818C229.617,211.926,229.895,211.648,230.238,211.648z"/>
			<path fill="#FFD400" d="M240.984,211.591h6.769c0.343,0,0.621,0.278,0.621,0.621v2.818c0,0.343-0.278,0.621-0.621,0.621h-6.769
				c-0.343,0-0.621-0.278-0.621-0.621v-2.818C240.363,211.869,240.641,211.591,240.984,211.591z"/>
			<path fill="#FFD400" d="M251.73,211.591h6.769c0.343,0,0.621,0.278,0.621,0.621v2.818c0,0.343-0.278,0.621-0.621,0.621h-6.769
				c-0.343,0-0.621-0.278-0.621-0.621v-2.818C251.109,211.869,251.387,211.591,251.73,211.591z"/>
		</g>
	</g>
	<g id="fb33f902-6783-4db3-88ea-a4524e356c77_00000144334111328520900540000014150135216846268326_">
		<g>
			
				<linearGradient id="SVGID_00000034060158766078882880000007727029874710487434_" gradientUnits="userSpaceOnUse" x1="-387.6669" y1="1015.9" x2="-387.6669" y2="1037.9501" gradientTransform="matrix(1 0 0 -1 564 1235)">
				<stop  offset="0" style="stop-color:#0078D4"/>
				<stop  offset="0.502" style="stop-color:#4093E6"/>
				<stop  offset="0.775" style="stop-color:#5EA0EF"/>
			</linearGradient>
			<path fill="url(#SVGID_00000034060158766078882880000007727029874710487434_)" d="M157.676,197.05h37.313l0,0v20.803
				c0,0.689-0.558,1.247-1.247,1.247l0,0h-34.82c-0.689,0-1.247-0.558-1.247-1.247V197.05L157.676,197.05z"/>
			<path fill="#0078D4" d="M158.93,189.1h34.807c0.689,0,1.247,0.558,1.247,1.247l0,0v6.703l0,0h-37.307l0,0v-6.703
				c0-0.689,0.558-1.247,1.247-1.247C158.925,189.1,158.928,189.1,158.93,189.1z"/>
			<path opacity="0.9" fill="#FFFFFF" enable-background="new    " d="M162.257,199.976h6.769c0.343,0,0.621,0.278,0.621,0.621
				v2.818c0,0.343-0.278,0.621-0.621,0.621h-6.769c-0.343,0-0.621-0.278-0.621-0.621v-2.818
				C161.636,200.254,161.914,199.976,162.257,199.976z"/>
			<path opacity="0.9" fill="#FFFFFF" enable-background="new    " d="M173.003,199.919h6.769c0.343,0,0.621,0.278,0.621,0.621
				v2.818c0,0.343-0.278,0.621-0.621,0.621h-6.769c-0.343,0-0.621-0.278-0.621-0.621v-2.818
				C172.382,200.197,172.66,199.919,173.003,199.919z"/>
			<path opacity="0.9" fill="#FFFFFF" enable-background="new    " d="M183.75,199.919h6.769c0.343,0,0.621,0.278,0.621,0.621v2.818
				c0,0.343-0.278,0.621-0.621,0.621h-6.769c-0.343,0-0.621-0.278-0.621-0.621v-2.818
				C183.129,200.197,183.407,199.919,183.75,199.919z"/>
			<path opacity="0.9" fill="#FFFFFF" enable-background="new    " d="M162.376,205.784h6.769c0.343,0,0.621,0.278,0.621,0.621
				v2.818c0,0.343-0.278,0.621-0.621,0.621h-6.769c-0.343,0-0.621-0.278-0.621-0.621v-2.818
				C161.755,206.062,162.033,205.784,162.376,205.784z"/>
			<path fill="#FFD400" d="M173.122,205.726h6.769c0.343,0,0.621,0.278,0.621,0.621v2.818c0,0.343-0.278,0.621-0.621,0.621h-6.769
				c-0.343,0-0.621-0.278-0.621-0.621v-2.818C172.501,206.005,172.779,205.726,173.122,205.726z"/>
			<path fill="#FFD400" d="M183.868,205.726h6.769c0.343,0,0.621,0.278,0.621,0.621v2.818c0,0.343-0.278,0.621-0.621,0.621h-6.769
				c-0.343,0-0.621-0.278-0.621-0.621v-2.818C183.247,206.005,183.525,205.726,183.868,205.726z"/>
			<path fill="#FFD400" d="M162.376,211.648h6.769c0.343,0,0.621,0.278,0.621,0.621v2.818c0,0.343-0.278,0.621-0.621,0.621h-6.769
				c-0.343,0-0.621-0.278-0.621-0.621v-2.818C161.755,211.926,162.033,211.648,162.376,211.648z"/>
			<path fill="#FFD400" d="M173.122,211.591h6.769c0.343,0,0.621,0.278,0.621,0.621v2.818c0,0.343-0.278,0.621-0.621,0.621h-6.769
				c-0.343,0-0.621-0.278-0.621-0.621v-2.818C172.501,211.869,172.779,211.591,173.122,211.591z"/>
			<path fill="#FFD400" d="M183.868,211.591h6.769c0.343,0,0.621,0.278,0.621,0.621v2.818c0,0.343-0.278,0.621-0.621,0.621h-6.769
				c-0.343,0-0.621-0.278-0.621-0.621v-2.818C183.247,211.869,183.525,211.591,183.868,211.591z"/>
		</g>
	</g>
	<g id="fb33f902-6783-4db3-88ea-a4524e356c77_00000108290003318705102620000009130250094229869457_">
		<g>
			
				<linearGradient id="SVGID_00000124858461554125315340000015913503086205300896_" gradientUnits="userSpaceOnUse" x1="-455.5291" y1="1015.9" x2="-455.5291" y2="1037.9501" gradientTransform="matrix(1 0 0 -1 564 1235)">
				<stop  offset="0" style="stop-color:#0078D4"/>
				<stop  offset="0.502" style="stop-color:#4093E6"/>
				<stop  offset="0.775" style="stop-color:#5EA0EF"/>
			</linearGradient>
			<path fill="url(#SVGID_00000124858461554125315340000015913503086205300896_)" d="M89.814,197.05h37.313l0,0v20.803
				c0,0.689-0.558,1.247-1.247,1.247l0,0h-34.82c-0.689,0-1.247-0.558-1.247-1.247V197.05L89.814,197.05z"/>
			<path fill="#0078D4" d="M91.067,189.1h34.807c0.689,0,1.247,0.558,1.247,1.247l0,0v6.703l0,0H89.814l0,0v-6.703
				c0-0.689,0.558-1.247,1.247-1.247C91.063,189.1,91.065,189.1,91.067,189.1z"/>
			<path opacity="0.9" fill="#FFFFFF" enable-background="new    " d="M94.395,199.976h6.769c0.343,0,0.621,0.278,0.621,0.621v2.818
				c0,0.343-0.278,0.621-0.621,0.621h-6.769c-0.343,0-0.621-0.278-0.621-0.621v-2.818C93.774,200.254,94.052,199.976,94.395,199.976
				z"/>
			<path opacity="0.9" fill="#FFFFFF" enable-background="new    " d="M105.141,199.919h6.769c0.343,0,0.621,0.278,0.621,0.621
				v2.818c0,0.343-0.278,0.621-0.621,0.621h-6.769c-0.343,0-0.621-0.278-0.621-0.621v-2.818
				C104.52,200.197,104.798,199.919,105.141,199.919z"/>
			<path opacity="0.9" fill="#FFFFFF" enable-background="new    " d="M115.887,199.919h6.769c0.343,0,0.621,0.278,0.621,0.621
				v2.818c0,0.343-0.278,0.621-0.621,0.621h-6.769c-0.343,0-0.621-0.278-0.621-0.621v-2.818
				C115.266,200.197,115.544,199.919,115.887,199.919z"/>
			<path opacity="0.9" fill="#FFFFFF" enable-background="new    " d="M94.513,205.784h6.769c0.343,0,0.621,0.278,0.621,0.621v2.818
				c0,0.343-0.278,0.621-0.621,0.621h-6.769c-0.343,0-0.621-0.278-0.621-0.621v-2.818C93.892,206.062,94.17,205.784,94.513,205.784z
				"/>
			<path fill="#FFD400" d="M105.26,205.726h6.769c0.343,0,0.621,0.278,0.621,0.621v2.818c0,0.343-0.278,0.621-0.621,0.621h-6.769
				c-0.343,0-0.621-0.278-0.621-0.621v-2.818C104.639,206.005,104.917,205.726,105.26,205.726z"/>
			<path fill="#FFD400" d="M116.006,205.726h6.769c0.343,0,0.621,0.278,0.621,0.621v2.818c0,0.343-0.278,0.621-0.621,0.621h-6.769
				c-0.343,0-0.621-0.278-0.621-0.621v-2.818C115.385,206.005,115.663,205.726,116.006,205.726z"/>
			<path fill="#FFD400" d="M94.513,211.648h6.769c0.343,0,0.621,0.278,0.621,0.621v2.818c0,0.343-0.278,0.621-0.621,0.621h-6.769
				c-0.343,0-0.621-0.278-0.621-0.621v-2.818C93.892,211.926,94.17,211.648,94.513,211.648z"/>
			<path fill="#FFD400" d="M105.26,211.591h6.769c0.343,0,0.621,0.278,0.621,0.621v2.818c0,0.343-0.278,0.621-0.621,0.621h-6.769
				c-0.343,0-0.621-0.278-0.621-0.621v-2.818C104.639,211.869,104.917,211.591,105.26,211.591z"/>
			<path fill="#FFD400" d="M116.006,211.591h6.769c0.343,0,0.621,0.278,0.621,0.621v2.818c0,0.343-0.278,0.621-0.621,0.621h-6.769
				c-0.343,0-0.621-0.278-0.621-0.621v-2.818C115.385,211.869,115.663,211.591,116.006,211.591z"/>
		</g>
	</g>
</g>
<g id="Text">
	<g>
		<path fill="#2F2F2F" d="M17.819,17.063h-2.181v-5.865c0-0.633,0.027-1.333,0.082-2.099h-0.055
			c-0.114,0.602-0.216,1.035-0.308,1.299l-2.297,6.665h-1.805l-2.338-6.597C8.855,10.289,8.752,9.833,8.611,9.1H8.55
			c0.059,0.966,0.089,1.814,0.089,2.543v5.421H6.649V7.261h3.233l2.003,5.811c0.16,0.465,0.276,0.932,0.349,1.401h0.041
			c0.123-0.542,0.253-1.014,0.39-1.415l2.003-5.797h3.151V17.063z"/>
		<path fill="#2F2F2F" d="M20.851,8.956c-0.365,0-0.663-0.108-0.896-0.325s-0.349-0.482-0.349-0.796
			c0-0.324,0.116-0.588,0.349-0.793s0.531-0.308,0.896-0.308c0.369,0,0.669,0.103,0.899,0.308s0.345,0.469,0.345,0.793
			c0,0.328-0.115,0.597-0.345,0.807S21.22,8.956,20.851,8.956z M21.917,17.063h-2.16v-7h2.16V17.063z"/>
		<path fill="#2F2F2F" d="M30.504,10.063l-2.311,3.391l2.297,3.609h-2.488l-1.012-1.887c-0.082-0.15-0.18-0.362-0.294-0.636h-0.027
			c-0.068,0.191-0.162,0.396-0.28,0.615l-1.019,1.907h-2.481l2.365-3.486l-2.222-3.514h2.502l0.998,1.962
			c0.132,0.26,0.226,0.479,0.28,0.656h0.027c0.073-0.214,0.171-0.438,0.294-0.67l1.019-1.948H30.504z"/>
		<path fill="#2F2F2F" d="M37.572,14.179h-4.566c0.073,1.016,0.713,1.524,1.921,1.524c0.77,0,1.447-0.182,2.03-0.547v1.559
			c-0.647,0.346-1.488,0.52-2.522,0.52c-1.13,0-2.007-0.313-2.632-0.94s-0.937-1.5-0.937-2.622c0-1.162,0.337-2.083,1.012-2.762
			s1.504-1.019,2.488-1.019c1.021,0,1.811,0.303,2.369,0.909s0.837,1.429,0.837,2.468V14.179z M35.569,12.853
			c0-1.002-0.406-1.504-1.217-1.504c-0.346,0-0.646,0.144-0.899,0.431s-0.407,0.645-0.461,1.073H35.569z"/>
		<path fill="#2F2F2F" d="M45.817,17.063h-2.16V16.1h-0.027c-0.492,0.756-1.214,1.135-2.167,1.135c-0.875,0-1.579-0.309-2.112-0.926
			s-0.8-1.48-0.8-2.587c0-1.158,0.294-2.085,0.882-2.782s1.358-1.046,2.311-1.046c0.902,0,1.531,0.324,1.887,0.971h0.027V6.7h2.16
			V17.063z M43.698,13.659v-0.526c0-0.456-0.132-0.834-0.396-1.135s-0.608-0.451-1.032-0.451c-0.479,0-0.852,0.188-1.121,0.564
			s-0.403,0.892-0.403,1.548c0,0.615,0.13,1.089,0.39,1.422s0.62,0.499,1.08,0.499c0.438,0,0.794-0.175,1.07-0.526
			S43.698,14.238,43.698,13.659z"/>
		<path fill="#2F2F2F" d="M57.787,14.179H53.22c0.073,1.016,0.713,1.524,1.921,1.524c0.77,0,1.447-0.182,2.03-0.547v1.559
			c-0.647,0.346-1.488,0.52-2.522,0.52c-1.13,0-2.007-0.313-2.632-0.94s-0.937-1.5-0.937-2.622c0-1.162,0.337-2.083,1.012-2.762
			s1.504-1.019,2.488-1.019c1.021,0,1.811,0.303,2.369,0.909s0.837,1.429,0.837,2.468V14.179z M55.784,12.853
			c0-1.002-0.406-1.504-1.217-1.504c-0.346,0-0.646,0.144-0.899,0.431s-0.407,0.645-0.461,1.073H55.784z"/>
		<path fill="#2F2F2F" d="M65.749,10.063l-2.311,3.391l2.297,3.609h-2.488l-1.012-1.887c-0.082-0.15-0.18-0.362-0.294-0.636h-0.027
			c-0.068,0.191-0.162,0.396-0.28,0.615l-1.019,1.907h-2.481l2.365-3.486l-2.222-3.514h2.502l0.998,1.962
			c0.132,0.26,0.226,0.479,0.28,0.656h0.027c0.073-0.214,0.171-0.438,0.294-0.67l1.019-1.948H65.749z"/>
		<path fill="#2F2F2F" d="M71.259,16.981c-0.319,0.168-0.8,0.253-1.442,0.253c-1.522,0-2.283-0.791-2.283-2.372v-3.206h-1.135
			v-1.593h1.135V8.553l2.153-0.615v2.126h1.572v1.593h-1.572v2.83c0,0.729,0.29,1.094,0.868,1.094c0.228,0,0.462-0.066,0.704-0.198
			V16.981z"/>
		<path fill="#2F2F2F" d="M78.745,14.179h-4.566c0.073,1.016,0.713,1.524,1.921,1.524c0.77,0,1.447-0.182,2.03-0.547v1.559
			c-0.647,0.346-1.488,0.52-2.522,0.52c-1.13,0-2.007-0.313-2.632-0.94s-0.937-1.5-0.937-2.622c0-1.162,0.337-2.083,1.012-2.762
			s1.504-1.019,2.488-1.019c1.021,0,1.811,0.303,2.369,0.909s0.837,1.429,0.837,2.468V14.179z M76.742,12.853
			c0-1.002-0.406-1.504-1.217-1.504c-0.346,0-0.646,0.144-0.899,0.431s-0.407,0.645-0.461,1.073H76.742z"/>
		<path fill="#2F2F2F" d="M86.871,17.063h-2.153v-3.89c0-1.084-0.387-1.627-1.162-1.627c-0.374,0-0.681,0.144-0.923,0.431
			s-0.362,0.652-0.362,1.094v3.992h-2.16v-7h2.16v1.107h0.027c0.515-0.852,1.265-1.278,2.249-1.278c1.549,0,2.324,0.961,2.324,2.885
			V17.063z"/>
		<path fill="#2F2F2F" d="M92.72,16.981c-0.319,0.168-0.8,0.253-1.442,0.253c-1.522,0-2.283-0.791-2.283-2.372v-3.206H87.86v-1.593
			h1.135V8.553l2.153-0.615v2.126h1.572v1.593h-1.572v2.83c0,0.729,0.29,1.094,0.868,1.094c0.228,0,0.462-0.066,0.704-0.198V16.981z
			"/>
	</g>
	<g>
		<path fill="#2F2F2F" d="M28.223,91.903h-2.83v8.764h-1.148v-8.764h-2.823v-1.039h6.802V91.903z"/>
		<path fill="#2F2F2F" d="M33.561,100.667h-1.121v-1.094h-0.027c-0.488,0.838-1.206,1.258-2.153,1.258
			c-0.697,0-1.243-0.185-1.637-0.554s-0.591-0.859-0.591-1.47c0-1.308,0.77-2.069,2.311-2.283l2.099-0.294
			c0-1.189-0.481-1.784-1.442-1.784c-0.843,0-1.604,0.287-2.283,0.861v-1.148c0.688-0.438,1.481-0.656,2.379-0.656
			c1.645,0,2.468,0.871,2.468,2.611V100.667z M32.439,97.126l-1.688,0.232c-0.52,0.073-0.912,0.202-1.176,0.386
			s-0.396,0.512-0.396,0.981c0,0.342,0.122,0.621,0.366,0.837s0.568,0.325,0.974,0.325c0.556,0,1.015-0.195,1.377-0.584
			s0.543-0.883,0.543-1.48V97.126z"/>
		<path fill="#2F2F2F" d="M36.73,99.655h-0.027v1.012h-1.121V90.304h1.121v4.594h0.027c0.551-0.93,1.358-1.395,2.42-1.395
			c0.898,0,1.601,0.313,2.109,0.94s0.762,1.466,0.762,2.519c0,1.171-0.285,2.109-0.854,2.813s-1.349,1.056-2.338,1.056
			C37.903,100.831,37.204,100.439,36.73,99.655z M36.703,96.832v0.978c0,0.579,0.188,1.07,0.564,1.473s0.854,0.605,1.432,0.605
			c0.679,0,1.211-0.26,1.596-0.779s0.578-1.242,0.578-2.167c0-0.779-0.18-1.39-0.54-1.832s-0.848-0.663-1.463-0.663
			c-0.652,0-1.176,0.227-1.572,0.68S36.703,96.148,36.703,96.832z"/>
		<path fill="#2F2F2F" d="M44.872,100.667H43.75V90.304h1.121V100.667z"/>
		<path fill="#2F2F2F" d="M52.706,97.447h-4.942c0.018,0.779,0.228,1.381,0.629,1.805s0.953,0.636,1.654,0.636
			c0.789,0,1.513-0.26,2.174-0.779v1.053c-0.615,0.447-1.429,0.67-2.44,0.67c-0.989,0-1.766-0.318-2.331-0.954
			s-0.848-1.53-0.848-2.683c0-1.089,0.309-1.977,0.926-2.663s1.384-1.029,2.3-1.029s1.625,0.296,2.126,0.889
			s0.752,1.415,0.752,2.468V97.447z M51.557,96.497c-0.004-0.647-0.161-1.151-0.468-1.511s-0.735-0.54-1.282-0.54
			c-0.529,0-0.978,0.189-1.347,0.567s-0.597,0.873-0.684,1.483H51.557z"/>
		<path fill="#2F2F2F" d="M58.279,93.435c0-0.301-0.047-0.563-0.14-0.786s-0.221-0.409-0.383-0.557s-0.352-0.259-0.571-0.332
			s-0.456-0.109-0.711-0.109c-0.219,0-0.433,0.03-0.643,0.089s-0.414,0.141-0.612,0.246s-0.39,0.23-0.574,0.376
			s-0.356,0.308-0.516,0.485v-1.203c0.314-0.305,0.667-0.539,1.056-0.701S56.05,90.7,56.611,90.7c0.401,0,0.772,0.058,1.114,0.174
			s0.638,0.286,0.889,0.509s0.448,0.499,0.591,0.827s0.215,0.704,0.215,1.128c0,0.387-0.044,0.738-0.133,1.053
			s-0.223,0.611-0.403,0.889s-0.407,0.544-0.68,0.8s-0.595,0.515-0.964,0.779c-0.46,0.328-0.84,0.608-1.138,0.841
			s-0.536,0.45-0.711,0.653s-0.298,0.406-0.369,0.608s-0.106,0.437-0.106,0.701h4.881v1.005h-6.05v-0.485
			c0-0.419,0.045-0.789,0.137-1.107s0.242-0.622,0.451-0.909s0.484-0.574,0.824-0.861s0.755-0.611,1.248-0.971
			c0.355-0.255,0.653-0.499,0.892-0.731s0.432-0.465,0.578-0.697s0.25-0.468,0.311-0.708S58.279,93.704,58.279,93.435z"/>
	</g>
	<g>
		<path fill="#2F2F2F" d="M90.918,100.667H89.77v-9.803h1.148V100.667z"/>
		<path fill="#2F2F2F" d="M98.993,100.667h-1.121v-3.992c0-1.486-0.542-2.229-1.627-2.229c-0.561,0-1.024,0.211-1.391,0.632
			s-0.55,0.954-0.55,1.596v3.992h-1.121v-7h1.121v1.162h0.027c0.529-0.884,1.294-1.326,2.297-1.326c0.766,0,1.351,0.247,1.757,0.742
			s0.608,1.209,0.608,2.143V100.667z"/>
		<path fill="#2F2F2F" d="M107.068,100.667h-1.121v-1.189h-0.027c-0.52,0.902-1.322,1.354-2.406,1.354
			c-0.879,0-1.583-0.313-2.109-0.94s-0.79-1.48-0.79-2.56c0-1.158,0.292-2.085,0.875-2.782s1.36-1.046,2.331-1.046
			c0.961,0,1.661,0.378,2.099,1.135h0.027v-4.334h1.121V100.667z M105.947,97.502V96.47c0-0.565-0.187-1.043-0.561-1.436
			s-0.848-0.588-1.422-0.588c-0.684,0-1.221,0.25-1.613,0.752s-0.588,1.194-0.588,2.078c0,0.807,0.188,1.443,0.564,1.911
			s0.881,0.701,1.514,0.701c0.625,0,1.131-0.226,1.521-0.677S105.947,98.19,105.947,97.502z"/>
		<path fill="#2F2F2F" d="M114.889,97.447h-4.942c0.018,0.779,0.228,1.381,0.629,1.805s0.953,0.636,1.654,0.636
			c0.789,0,1.513-0.26,2.174-0.779v1.053c-0.615,0.447-1.429,0.67-2.44,0.67c-0.989,0-1.766-0.318-2.331-0.954
			s-0.848-1.53-0.848-2.683c0-1.089,0.309-1.977,0.926-2.663s1.384-1.029,2.3-1.029s1.625,0.296,2.126,0.889
			s0.752,1.415,0.752,2.468V97.447z M113.741,96.497c-0.004-0.647-0.161-1.151-0.468-1.511s-0.735-0.54-1.282-0.54
			c-0.529,0-0.978,0.189-1.347,0.567s-0.597,0.873-0.684,1.483H113.741z"/>
		<path fill="#2F2F2F" d="M121.63,93.667l-2.352,3.541l2.311,3.459h-1.306l-1.374-2.27c-0.086-0.141-0.189-0.319-0.308-0.533h-0.027
			c-0.023,0.041-0.13,0.219-0.321,0.533l-1.401,2.27h-1.292l2.386-3.432l-2.283-3.568h1.306l1.354,2.393
			c0.1,0.178,0.198,0.36,0.294,0.547h0.027l1.75-2.939H121.63z"/>
		<path fill="#2F2F2F" d="M126.332,100.667h-1.121v-8.47c-0.086,0.086-0.213,0.186-0.379,0.297s-0.353,0.222-0.561,0.332
			s-0.426,0.212-0.656,0.308s-0.455,0.171-0.673,0.226v-1.135c0.246-0.068,0.507-0.161,0.783-0.277s0.547-0.246,0.813-0.39
			s0.519-0.294,0.755-0.451s0.442-0.311,0.615-0.461h0.424V100.667z"/>
	</g>
	<g>
		<path fill="#2F2F2F" d="M158.493,100.667h-1.148v-9.803h1.148V100.667z"/>
		<path fill="#2F2F2F" d="M166.567,100.667h-1.121v-3.992c0-1.486-0.542-2.229-1.627-2.229c-0.561,0-1.024,0.211-1.391,0.632
			s-0.55,0.954-0.55,1.596v3.992h-1.121v-7h1.121v1.162h0.027c0.529-0.884,1.294-1.326,2.297-1.326c0.766,0,1.351,0.247,1.757,0.742
			s0.608,1.209,0.608,2.143V100.667z"/>
		<path fill="#2F2F2F" d="M174.642,100.667h-1.121v-1.189h-0.027c-0.52,0.902-1.322,1.354-2.406,1.354
			c-0.879,0-1.583-0.313-2.109-0.94s-0.79-1.48-0.79-2.56c0-1.158,0.292-2.085,0.875-2.782s1.36-1.046,2.331-1.046
			c0.961,0,1.661,0.378,2.099,1.135h0.027v-4.334h1.121V100.667z M173.521,97.502V96.47c0-0.565-0.187-1.043-0.561-1.436
			s-0.848-0.588-1.422-0.588c-0.684,0-1.221,0.25-1.613,0.752s-0.588,1.194-0.588,2.078c0,0.807,0.188,1.443,0.564,1.911
			s0.881,0.701,1.514,0.701c0.625,0,1.131-0.226,1.521-0.677S173.521,98.19,173.521,97.502z"/>
		<path fill="#2F2F2F" d="M182.463,97.447h-4.942c0.018,0.779,0.228,1.381,0.629,1.805s0.953,0.636,1.654,0.636
			c0.789,0,1.513-0.26,2.174-0.779v1.053c-0.615,0.447-1.429,0.67-2.44,0.67c-0.989,0-1.766-0.318-2.331-0.954
			s-0.848-1.53-0.848-2.683c0-1.089,0.309-1.977,0.926-2.663s1.384-1.029,2.3-1.029s1.625,0.296,2.126,0.889
			s0.752,1.415,0.752,2.468V97.447z M181.315,96.497c-0.004-0.647-0.161-1.151-0.468-1.511s-0.735-0.54-1.282-0.54
			c-0.529,0-0.978,0.189-1.347,0.567s-0.597,0.873-0.684,1.483H181.315z"/>
		<path fill="#2F2F2F" d="M189.205,93.667l-2.352,3.541l2.311,3.459h-1.306l-1.374-2.27c-0.086-0.141-0.189-0.319-0.308-0.533
			h-0.027c-0.023,0.041-0.13,0.219-0.321,0.533l-1.401,2.27h-1.292l2.386-3.432l-2.283-3.568h1.306l1.354,2.393
			c0.1,0.178,0.198,0.36,0.294,0.547h0.027l1.75-2.939H189.205z"/>
		<path fill="#2F2F2F" d="M194.81,93.435c0-0.301-0.047-0.563-0.14-0.786s-0.221-0.409-0.383-0.557s-0.352-0.259-0.571-0.332
			s-0.456-0.109-0.711-0.109c-0.219,0-0.433,0.03-0.643,0.089s-0.414,0.141-0.612,0.246s-0.39,0.23-0.574,0.376
			s-0.356,0.308-0.516,0.485v-1.203c0.314-0.305,0.667-0.539,1.056-0.701s0.865-0.243,1.425-0.243c0.401,0,0.772,0.058,1.114,0.174
			s0.638,0.286,0.889,0.509s0.448,0.499,0.591,0.827s0.215,0.704,0.215,1.128c0,0.387-0.044,0.738-0.133,1.053
			s-0.223,0.611-0.403,0.889s-0.407,0.544-0.68,0.8s-0.595,0.515-0.964,0.779c-0.46,0.328-0.84,0.608-1.138,0.841
			s-0.536,0.45-0.711,0.653s-0.298,0.406-0.369,0.608s-0.106,0.437-0.106,0.701h4.881v1.005h-6.05v-0.485
			c0-0.419,0.045-0.789,0.137-1.107s0.242-0.622,0.451-0.909s0.484-0.574,0.824-0.861s0.755-0.611,1.248-0.971
			c0.355-0.255,0.653-0.499,0.892-0.731s0.432-0.465,0.578-0.697s0.25-0.468,0.311-0.708S194.81,93.704,194.81,93.435z"/>
	</g>
	<g>
		<path fill="#2F2F2F" d="M231.81,91.903h-2.83v8.764h-1.148v-8.764h-2.823v-1.039h6.802V91.903z"/>
		<path fill="#2F2F2F" d="M237.147,100.667h-1.121v-1.094h-0.027c-0.488,0.838-1.206,1.258-2.153,1.258
			c-0.697,0-1.243-0.185-1.637-0.554s-0.591-0.859-0.591-1.47c0-1.308,0.77-2.069,2.311-2.283l2.099-0.294
			c0-1.189-0.481-1.784-1.442-1.784c-0.843,0-1.604,0.287-2.283,0.861v-1.148c0.688-0.438,1.481-0.656,2.379-0.656
			c1.645,0,2.468,0.871,2.468,2.611V100.667z M236.026,97.126l-1.688,0.232c-0.52,0.073-0.912,0.202-1.176,0.386
			s-0.396,0.512-0.396,0.981c0,0.342,0.122,0.621,0.366,0.837s0.568,0.325,0.974,0.325c0.556,0,1.015-0.195,1.377-0.584
			s0.543-0.883,0.543-1.48V97.126z"/>
		<path fill="#2F2F2F" d="M240.316,99.655h-0.027v1.012h-1.121V90.304h1.121v4.594h0.027c0.551-0.93,1.358-1.395,2.42-1.395
			c0.898,0,1.601,0.313,2.109,0.94s0.762,1.466,0.762,2.519c0,1.171-0.285,2.109-0.854,2.813s-1.349,1.056-2.338,1.056
			C241.49,100.831,240.791,100.439,240.316,99.655z M240.289,96.832v0.978c0,0.579,0.188,1.07,0.564,1.473s0.854,0.605,1.432,0.605
			c0.679,0,1.211-0.26,1.596-0.779s0.578-1.242,0.578-2.167c0-0.779-0.18-1.39-0.54-1.832s-0.848-0.663-1.463-0.663
			c-0.652,0-1.176,0.227-1.572,0.68S240.289,96.148,240.289,96.832z"/>
		<path fill="#2F2F2F" d="M248.458,100.667h-1.121V90.304h1.121V100.667z"/>
		<path fill="#2F2F2F" d="M256.292,97.447h-4.942c0.018,0.779,0.228,1.381,0.629,1.805s0.953,0.636,1.654,0.636
			c0.789,0,1.513-0.26,2.174-0.779v1.053c-0.615,0.447-1.429,0.67-2.44,0.67c-0.989,0-1.766-0.318-2.331-0.954
			s-0.848-1.53-0.848-2.683c0-1.089,0.309-1.977,0.926-2.663s1.384-1.029,2.3-1.029s1.625,0.296,2.126,0.889
			s0.752,1.415,0.752,2.468V97.447z M255.144,96.497c-0.004-0.647-0.161-1.151-0.468-1.511s-0.735-0.54-1.282-0.54
			c-0.529,0-0.978,0.189-1.347,0.567s-0.597,0.873-0.684,1.483H255.144z"/>
		<path fill="#2F2F2F" d="M261.865,93.435c0-0.301-0.047-0.563-0.14-0.786s-0.221-0.409-0.383-0.557s-0.352-0.259-0.571-0.332
			s-0.456-0.109-0.711-0.109c-0.219,0-0.433,0.03-0.643,0.089s-0.414,0.141-0.612,0.246s-0.39,0.23-0.574,0.376
			s-0.356,0.308-0.516,0.485v-1.203c0.314-0.305,0.667-0.539,1.056-0.701s0.865-0.243,1.425-0.243c0.401,0,0.772,0.058,1.114,0.174
			s0.638,0.286,0.889,0.509s0.448,0.499,0.591,0.827s0.215,0.704,0.215,1.128c0,0.387-0.044,0.738-0.133,1.053
			s-0.223,0.611-0.403,0.889s-0.407,0.544-0.68,0.8s-0.595,0.515-0.964,0.779c-0.46,0.328-0.84,0.608-1.138,0.841
			s-0.536,0.45-0.711,0.653s-0.298,0.406-0.369,0.608s-0.106,0.437-0.106,0.701h4.881v1.005h-6.05v-0.485
			c0-0.419,0.045-0.789,0.137-1.107s0.242-0.622,0.451-0.909s0.484-0.574,0.824-0.861s0.755-0.611,1.248-0.971
			c0.355-0.255,0.653-0.499,0.892-0.731s0.432-0.465,0.578-0.697s0.25-0.468,0.311-0.708S261.865,93.704,261.865,93.435z"/>
	</g>
	<g>
		<path fill="#2F2F2F" d="M299.729,91.903h-2.83v8.764h-1.148v-8.764h-2.823v-1.039h6.802V91.903z"/>
		<path fill="#2F2F2F" d="M305.066,100.667h-1.121v-1.094h-0.027c-0.488,0.838-1.206,1.258-2.153,1.258
			c-0.697,0-1.243-0.185-1.637-0.554s-0.591-0.859-0.591-1.47c0-1.308,0.77-2.069,2.311-2.283l2.099-0.294
			c0-1.189-0.481-1.784-1.442-1.784c-0.843,0-1.604,0.287-2.283,0.861v-1.148c0.688-0.438,1.481-0.656,2.379-0.656
			c1.645,0,2.468,0.871,2.468,2.611V100.667z M303.945,97.126l-1.688,0.232c-0.52,0.073-0.912,0.202-1.176,0.386
			s-0.396,0.512-0.396,0.981c0,0.342,0.122,0.621,0.366,0.837s0.568,0.325,0.974,0.325c0.556,0,1.015-0.195,1.377-0.584
			s0.543-0.883,0.543-1.48V97.126z"/>
		<path fill="#2F2F2F" d="M308.236,99.655h-0.027v1.012h-1.121V90.304h1.121v4.594h0.027c0.551-0.93,1.358-1.395,2.42-1.395
			c0.898,0,1.601,0.313,2.109,0.94s0.762,1.466,0.762,2.519c0,1.171-0.285,2.109-0.854,2.813s-1.349,1.056-2.338,1.056
			C309.409,100.831,308.71,100.439,308.236,99.655z M308.208,96.832v0.978c0,0.579,0.188,1.07,0.564,1.473s0.854,0.605,1.432,0.605
			c0.679,0,1.211-0.26,1.596-0.779s0.578-1.242,0.578-2.167c0-0.779-0.18-1.39-0.54-1.832s-0.848-0.663-1.463-0.663
			c-0.652,0-1.176,0.227-1.572,0.68S308.208,96.148,308.208,96.832z"/>
		<path fill="#2F2F2F" d="M316.377,100.667h-1.121V90.304h1.121V100.667z"/>
		<path fill="#2F2F2F" d="M324.211,97.447h-4.942c0.018,0.779,0.228,1.381,0.629,1.805s0.953,0.636,1.654,0.636
			c0.789,0,1.513-0.26,2.174-0.779v1.053c-0.615,0.447-1.429,0.67-2.44,0.67c-0.989,0-1.766-0.318-2.331-0.954
			s-0.848-1.53-0.848-2.683c0-1.089,0.309-1.977,0.926-2.663s1.384-1.029,2.3-1.029s1.625,0.296,2.126,0.889
			s0.752,1.415,0.752,2.468V97.447z M323.063,96.497c-0.004-0.647-0.161-1.151-0.468-1.511s-0.735-0.54-1.282-0.54
			c-0.529,0-0.978,0.189-1.347,0.567s-0.597,0.873-0.684,1.483H323.063z"/>
		<path fill="#2F2F2F" d="M331.047,97.892c0,0.442-0.083,0.844-0.25,1.207s-0.401,0.672-0.704,0.93s-0.667,0.457-1.09,0.598
			s-0.891,0.212-1.401,0.212c-0.934,0-1.677-0.178-2.229-0.533v-1.203c0.661,0.52,1.417,0.779,2.27,0.779
			c0.342,0,0.65-0.043,0.926-0.13s0.513-0.212,0.711-0.376s0.351-0.362,0.458-0.595s0.161-0.495,0.161-0.786
			c0-1.281-0.912-1.921-2.734-1.921h-0.813v-0.95h0.772c1.613,0,2.42-0.602,2.42-1.805c0-1.112-0.615-1.668-1.846-1.668
			c-0.693,0-1.342,0.232-1.948,0.697v-1.087c0.625-0.374,1.367-0.561,2.229-0.561c0.41,0,0.782,0.057,1.114,0.171
			s0.618,0.273,0.854,0.479s0.42,0.451,0.55,0.738s0.195,0.604,0.195,0.95c0,1.29-0.652,2.119-1.955,2.488v0.027
			c0.333,0.037,0.64,0.117,0.923,0.243s0.526,0.288,0.731,0.489s0.366,0.437,0.482,0.708S331.047,97.563,331.047,97.892z"/>
	</g>
	<g>
		<path fill="#2F2F2F" d="M361.947,100.667h-1.148v-9.803h1.148V100.667z"/>
		<path fill="#2F2F2F" d="M370.022,100.667h-1.121v-3.992c0-1.486-0.542-2.229-1.627-2.229c-0.561,0-1.024,0.211-1.391,0.632
			s-0.55,0.954-0.55,1.596v3.992h-1.121v-7h1.121v1.162h0.027c0.529-0.884,1.294-1.326,2.297-1.326c0.766,0,1.351,0.247,1.757,0.742
			s0.608,1.209,0.608,2.143V100.667z"/>
		<path fill="#2F2F2F" d="M378.097,100.667h-1.121v-1.189h-0.027c-0.52,0.902-1.322,1.354-2.406,1.354
			c-0.879,0-1.583-0.313-2.109-0.94s-0.79-1.48-0.79-2.56c0-1.158,0.292-2.085,0.875-2.782s1.36-1.046,2.331-1.046
			c0.961,0,1.661,0.378,2.099,1.135h0.027v-4.334h1.121V100.667z M376.976,97.502V96.47c0-0.565-0.187-1.043-0.561-1.436
			s-0.848-0.588-1.422-0.588c-0.684,0-1.221,0.25-1.613,0.752s-0.588,1.194-0.588,2.078c0,0.807,0.188,1.443,0.564,1.911
			s0.881,0.701,1.514,0.701c0.625,0,1.131-0.226,1.521-0.677S376.976,98.19,376.976,97.502z"/>
		<path fill="#2F2F2F" d="M385.918,97.447h-4.942c0.018,0.779,0.228,1.381,0.629,1.805s0.953,0.636,1.654,0.636
			c0.789,0,1.513-0.26,2.174-0.779v1.053c-0.615,0.447-1.429,0.67-2.44,0.67c-0.989,0-1.766-0.318-2.331-0.954
			s-0.848-1.53-0.848-2.683c0-1.089,0.309-1.977,0.926-2.663s1.384-1.029,2.3-1.029s1.625,0.296,2.126,0.889
			s0.752,1.415,0.752,2.468V97.447z M384.77,96.497c-0.004-0.647-0.161-1.151-0.468-1.511s-0.735-0.54-1.282-0.54
			c-0.529,0-0.978,0.189-1.347,0.567s-0.597,0.873-0.684,1.483H384.77z"/>
		<path fill="#2F2F2F" d="M392.659,93.667l-2.352,3.541l2.311,3.459h-1.306l-1.374-2.27c-0.086-0.141-0.189-0.319-0.308-0.533
			h-0.027c-0.023,0.041-0.13,0.219-0.321,0.533l-1.401,2.27h-1.292l2.386-3.432l-2.283-3.568h1.306l1.354,2.393
			c0.1,0.178,0.198,0.36,0.294,0.547h0.027l1.75-2.939H392.659z"/>
		<path fill="#2F2F2F" d="M399.403,97.892c0,0.442-0.083,0.844-0.25,1.207s-0.401,0.672-0.704,0.93s-0.667,0.457-1.09,0.598
			s-0.891,0.212-1.401,0.212c-0.934,0-1.677-0.178-2.229-0.533v-1.203c0.661,0.52,1.417,0.779,2.27,0.779
			c0.342,0,0.65-0.043,0.926-0.13s0.513-0.212,0.711-0.376s0.351-0.362,0.458-0.595s0.161-0.495,0.161-0.786
			c0-1.281-0.912-1.921-2.734-1.921h-0.813v-0.95h0.772c1.613,0,2.42-0.602,2.42-1.805c0-1.112-0.615-1.668-1.846-1.668
			c-0.693,0-1.342,0.232-1.948,0.697v-1.087c0.625-0.374,1.367-0.561,2.229-0.561c0.41,0,0.782,0.057,1.114,0.171
			s0.618,0.273,0.854,0.479s0.42,0.451,0.55,0.738s0.195,0.604,0.195,0.95c0,1.29-0.652,2.119-1.955,2.488v0.027
			c0.333,0.037,0.64,0.117,0.923,0.243s0.526,0.288,0.731,0.489s0.366,0.437,0.482,0.708S399.403,97.563,399.403,97.892z"/>
	</g>
	<g>
		<path fill="#2F2F2F" d="M435.396,91.903h-2.83v8.764h-1.148v-8.764h-2.823v-1.039h6.802V91.903z"/>
		<path fill="#2F2F2F" d="M440.733,100.667h-1.121v-1.094h-0.027c-0.488,0.838-1.206,1.258-2.153,1.258
			c-0.697,0-1.243-0.185-1.637-0.554s-0.591-0.859-0.591-1.47c0-1.308,0.77-2.069,2.311-2.283l2.099-0.294
			c0-1.189-0.481-1.784-1.442-1.784c-0.843,0-1.604,0.287-2.283,0.861v-1.148c0.688-0.438,1.481-0.656,2.379-0.656
			c1.645,0,2.468,0.871,2.468,2.611V100.667z M439.612,97.126l-1.688,0.232c-0.52,0.073-0.912,0.202-1.176,0.386
			s-0.396,0.512-0.396,0.981c0,0.342,0.122,0.621,0.366,0.837s0.568,0.325,0.974,0.325c0.556,0,1.015-0.195,1.377-0.584
			s0.543-0.883,0.543-1.48V97.126z"/>
		<path fill="#2F2F2F" d="M443.903,99.655h-0.027v1.012h-1.121V90.304h1.121v4.594h0.027c0.551-0.93,1.358-1.395,2.42-1.395
			c0.898,0,1.601,0.313,2.109,0.94s0.762,1.466,0.762,2.519c0,1.171-0.285,2.109-0.854,2.813s-1.349,1.056-2.338,1.056
			C445.076,100.831,444.377,100.439,443.903,99.655z M443.875,96.832v0.978c0,0.579,0.188,1.07,0.564,1.473s0.854,0.605,1.432,0.605
			c0.679,0,1.211-0.26,1.596-0.779s0.578-1.242,0.578-2.167c0-0.779-0.18-1.39-0.54-1.832s-0.848-0.663-1.463-0.663
			c-0.652,0-1.176,0.227-1.572,0.68S443.875,96.148,443.875,96.832z"/>
		<path fill="#2F2F2F" d="M452.044,100.667h-1.121V90.304h1.121V100.667z"/>
		<path fill="#2F2F2F" d="M459.878,97.447h-4.942c0.018,0.779,0.228,1.381,0.629,1.805s0.953,0.636,1.654,0.636
			c0.789,0,1.513-0.26,2.174-0.779v1.053c-0.615,0.447-1.429,0.67-2.44,0.67c-0.989,0-1.766-0.318-2.331-0.954
			s-0.848-1.53-0.848-2.683c0-1.089,0.309-1.977,0.926-2.663s1.384-1.029,2.3-1.029s1.625,0.296,2.126,0.889
			s0.752,1.415,0.752,2.468V97.447z M458.73,96.497c-0.004-0.647-0.161-1.151-0.468-1.511s-0.735-0.54-1.282-0.54
			c-0.529,0-0.978,0.189-1.347,0.567s-0.597,0.873-0.684,1.483H458.73z"/>
		<path fill="#2F2F2F" d="M465.452,93.435c0-0.301-0.047-0.563-0.14-0.786s-0.221-0.409-0.383-0.557s-0.352-0.259-0.571-0.332
			s-0.456-0.109-0.711-0.109c-0.219,0-0.433,0.03-0.643,0.089s-0.414,0.141-0.612,0.246s-0.39,0.23-0.574,0.376
			s-0.356,0.308-0.516,0.485v-1.203c0.314-0.305,0.667-0.539,1.056-0.701s0.865-0.243,1.425-0.243c0.401,0,0.772,0.058,1.114,0.174
			s0.638,0.286,0.889,0.509s0.448,0.499,0.591,0.827s0.215,0.704,0.215,1.128c0,0.387-0.044,0.738-0.133,1.053
			s-0.223,0.611-0.403,0.889s-0.407,0.544-0.68,0.8s-0.595,0.515-0.964,0.779c-0.46,0.328-0.84,0.608-1.138,0.841
			s-0.536,0.45-0.711,0.653s-0.298,0.406-0.369,0.608s-0.106,0.437-0.106,0.701h4.881v1.005h-6.05v-0.485
			c0-0.419,0.045-0.789,0.137-1.107s0.242-0.622,0.451-0.909s0.484-0.574,0.824-0.861s0.755-0.611,1.248-0.971
			c0.355-0.255,0.653-0.499,0.892-0.731s0.432-0.465,0.578-0.697s0.25-0.468,0.311-0.708S465.452,93.704,465.452,93.435z"/>
	</g>
	<g>
		<path fill="#2F2F2F" d="M503.316,91.903h-2.83v8.764h-1.148v-8.764h-2.823v-1.039h6.802V91.903z"/>
		<path fill="#2F2F2F" d="M508.653,100.667h-1.121v-1.094h-0.027c-0.488,0.838-1.206,1.258-2.153,1.258
			c-0.697,0-1.243-0.185-1.637-0.554s-0.591-0.859-0.591-1.47c0-1.308,0.77-2.069,2.311-2.283l2.099-0.294
			c0-1.189-0.481-1.784-1.442-1.784c-0.843,0-1.604,0.287-2.283,0.861v-1.148c0.688-0.438,1.481-0.656,2.379-0.656
			c1.645,0,2.468,0.871,2.468,2.611V100.667z M507.532,97.126l-1.688,0.232c-0.52,0.073-0.912,0.202-1.176,0.386
			s-0.396,0.512-0.396,0.981c0,0.342,0.122,0.621,0.366,0.837s0.568,0.325,0.974,0.325c0.556,0,1.015-0.195,1.377-0.584
			s0.543-0.883,0.543-1.48V97.126z"/>
		<path fill="#2F2F2F" d="M511.823,99.655h-0.027v1.012h-1.121V90.304h1.121v4.594h0.027c0.551-0.93,1.358-1.395,2.42-1.395
			c0.898,0,1.601,0.313,2.109,0.94s0.762,1.466,0.762,2.519c0,1.171-0.285,2.109-0.854,2.813s-1.349,1.056-2.338,1.056
			C512.996,100.831,512.297,100.439,511.823,99.655z M511.795,96.832v0.978c0,0.579,0.188,1.07,0.564,1.473s0.854,0.605,1.432,0.605
			c0.679,0,1.211-0.26,1.596-0.779s0.578-1.242,0.578-2.167c0-0.779-0.18-1.39-0.54-1.832s-0.848-0.663-1.463-0.663
			c-0.652,0-1.176,0.227-1.572,0.68S511.795,96.148,511.795,96.832z"/>
		<path fill="#2F2F2F" d="M519.964,100.667h-1.121V90.304h1.121V100.667z"/>
		<path fill="#2F2F2F" d="M527.798,97.447h-4.942c0.018,0.779,0.228,1.381,0.629,1.805s0.953,0.636,1.654,0.636
			c0.789,0,1.513-0.26,2.174-0.779v1.053c-0.615,0.447-1.429,0.67-2.44,0.67c-0.989,0-1.766-0.318-2.331-0.954
			s-0.848-1.53-0.848-2.683c0-1.089,0.309-1.977,0.926-2.663s1.384-1.029,2.3-1.029s1.625,0.296,2.126,0.889
			s0.752,1.415,0.752,2.468V97.447z M526.65,96.497c-0.004-0.647-0.161-1.151-0.468-1.511s-0.735-0.54-1.282-0.54
			c-0.529,0-0.978,0.189-1.347,0.567s-0.597,0.873-0.684,1.483H526.65z"/>
		<path fill="#2F2F2F" d="M534.634,97.892c0,0.442-0.083,0.844-0.25,1.207s-0.401,0.672-0.704,0.93s-0.667,0.457-1.09,0.598
			s-0.891,0.212-1.401,0.212c-0.934,0-1.677-0.178-2.229-0.533v-1.203c0.661,0.52,1.417,0.779,2.27,0.779
			c0.342,0,0.65-0.043,0.926-0.13s0.513-0.212,0.711-0.376s0.351-0.362,0.458-0.595s0.161-0.495,0.161-0.786
			c0-1.281-0.912-1.921-2.734-1.921h-0.813v-0.95h0.772c1.613,0,2.42-0.602,2.42-1.805c0-1.112-0.615-1.668-1.846-1.668
			c-0.693,0-1.342,0.232-1.948,0.697v-1.087c0.625-0.374,1.367-0.561,2.229-0.561c0.41,0,0.782,0.057,1.114,0.171
			s0.618,0.273,0.854,0.479s0.42,0.451,0.55,0.738s0.195,0.604,0.195,0.95c0,1.29-0.652,2.119-1.955,2.488v0.027
			c0.333,0.037,0.64,0.117,0.923,0.243s0.526,0.288,0.731,0.489s0.366,0.437,0.482,0.708S534.634,97.563,534.634,97.892z"/>
	</g>
	<g>
		<path fill="#2F2F2F" d="M14.641,153.618c0,2.944-1.372,4.416-4.115,4.416c-2.662,0-3.992-1.438-3.992-4.313v-5.66h2.215v5.688
			c0,1.586,0.62,2.379,1.859,2.379c1.217,0,1.825-0.766,1.825-2.297v-5.77h2.208V153.618z"/>
		<path fill="#2F2F2F" d="M23.235,157.863h-2.153v-3.89c0-1.084-0.387-1.627-1.162-1.627c-0.374,0-0.681,0.144-0.923,0.431
			s-0.362,0.652-0.362,1.094v3.992h-2.16v-7h2.16v1.107h0.027c0.515-0.852,1.265-1.278,2.249-1.278c1.549,0,2.324,0.961,2.324,2.885
			V157.863z"/>
		<path fill="#2F2F2F" d="M26.007,149.756c-0.365,0-0.663-0.108-0.896-0.325s-0.349-0.482-0.349-0.796
			c0-0.324,0.116-0.588,0.349-0.793s0.531-0.308,0.896-0.308c0.369,0,0.669,0.103,0.899,0.308s0.345,0.469,0.345,0.793
			c0,0.328-0.115,0.597-0.345,0.807S26.376,149.756,26.007,149.756z M27.074,157.863h-2.16v-7h2.16V157.863z"/>
		<path fill="#2F2F2F" d="M33.354,149.154c-0.278-0.109-0.544-0.164-0.8-0.164c-0.693,0-1.039,0.376-1.039,1.128v0.745h1.6v1.593
			h-1.6v5.407h-2.153v-5.407h-1.176v-1.593h1.176v-0.868c0-0.797,0.26-1.44,0.779-1.928s1.226-0.731,2.119-0.731
			c0.438,0,0.802,0.045,1.094,0.137V149.154z"/>
		<path fill="#2F2F2F" d="M37.5,158.034c-1.167,0-2.084-0.327-2.751-0.981s-1.001-1.542-1.001-2.663
			c0-1.158,0.346-2.063,1.039-2.717s1.629-0.981,2.81-0.981c1.162,0,2.074,0.327,2.734,0.981s0.991,1.519,0.991,2.594
			c0,1.162-0.341,2.081-1.022,2.755S38.686,158.034,37.5,158.034z M37.555,152.347c-0.51,0-0.907,0.175-1.189,0.526
			s-0.424,0.848-0.424,1.49c0,1.344,0.542,2.017,1.627,2.017c1.035,0,1.552-0.69,1.552-2.071
			C39.121,153,38.599,152.347,37.555,152.347z"/>
		<path fill="#2F2F2F" d="M47.269,152.812c-0.26-0.141-0.563-0.212-0.909-0.212c-0.469,0-0.836,0.172-1.101,0.516
			s-0.396,0.812-0.396,1.405v3.343h-2.16v-7h2.16v1.299h0.027c0.342-0.948,0.957-1.422,1.846-1.422c0.228,0,0.406,0.027,0.533,0.082
			V152.812z"/>
		<path fill="#2F2F2F" d="M59.375,157.863h-2.153v-3.992c0-1.016-0.374-1.524-1.121-1.524c-0.355,0-0.645,0.153-0.868,0.458
			s-0.335,0.686-0.335,1.142v3.917h-2.16v-4.033c0-0.989-0.367-1.483-1.101-1.483c-0.369,0-0.664,0.146-0.885,0.438
			s-0.332,0.688-0.332,1.189v3.89h-2.16v-7h2.16v1.094h0.027c0.223-0.374,0.537-0.678,0.94-0.913s0.844-0.352,1.323-0.352
			c0.989,0,1.666,0.435,2.03,1.306c0.533-0.871,1.317-1.306,2.352-1.306c1.522,0,2.283,0.939,2.283,2.816V157.863z"/>
		<path fill="#2F2F2F" d="M71.235,154.979h-4.566c0.073,1.016,0.713,1.524,1.921,1.524c0.77,0,1.447-0.182,2.03-0.547v1.559
			c-0.647,0.346-1.488,0.52-2.522,0.52c-1.13,0-2.007-0.313-2.632-0.94s-0.937-1.5-0.937-2.622c0-1.162,0.337-2.083,1.012-2.762
			s1.504-1.019,2.488-1.019c1.021,0,1.811,0.303,2.369,0.909s0.837,1.429,0.837,2.468V154.979z M69.232,153.652
			c0-1.002-0.406-1.504-1.217-1.504c-0.346,0-0.646,0.144-0.899,0.431s-0.407,0.645-0.461,1.073H69.232z"/>
		<path fill="#2F2F2F" d="M79.197,150.863l-2.311,3.391l2.297,3.609h-2.488l-1.012-1.887c-0.082-0.15-0.18-0.362-0.294-0.636h-0.027
			c-0.068,0.191-0.162,0.396-0.28,0.615l-1.019,1.907h-2.481l2.365-3.486l-2.222-3.514h2.502l0.998,1.962
			c0.132,0.26,0.226,0.479,0.28,0.656h0.027c0.073-0.214,0.171-0.438,0.294-0.67l1.019-1.948H79.197z"/>
		<path fill="#2F2F2F" d="M84.707,157.781c-0.319,0.168-0.8,0.253-1.442,0.253c-1.522,0-2.283-0.791-2.283-2.372v-3.206h-1.135
			v-1.593h1.135v-1.511l2.153-0.615v2.126h1.572v1.593h-1.572v2.83c0,0.729,0.29,1.094,0.868,1.094c0.228,0,0.462-0.066,0.704-0.198
			V157.781z"/>
		<path fill="#2F2F2F" d="M92.193,154.979h-4.566c0.073,1.016,0.713,1.524,1.921,1.524c0.77,0,1.447-0.182,2.03-0.547v1.559
			c-0.647,0.346-1.488,0.52-2.522,0.52c-1.13,0-2.007-0.313-2.632-0.94s-0.937-1.5-0.937-2.622c0-1.162,0.337-2.083,1.012-2.762
			s1.504-1.019,2.488-1.019c1.021,0,1.811,0.303,2.369,0.909s0.837,1.429,0.837,2.468V154.979z M90.19,153.652
			c0-1.002-0.406-1.504-1.217-1.504c-0.346,0-0.646,0.144-0.899,0.431s-0.407,0.645-0.461,1.073H90.19z"/>
		<path fill="#2F2F2F" d="M100.319,157.863h-2.153v-3.89c0-1.084-0.387-1.627-1.162-1.627c-0.374,0-0.681,0.144-0.923,0.431
			s-0.362,0.652-0.362,1.094v3.992h-2.16v-7h2.16v1.107h0.027c0.515-0.852,1.265-1.278,2.249-1.278c1.549,0,2.324,0.961,2.324,2.885
			V157.863z"/>
		<path fill="#2F2F2F" d="M106.168,157.781c-0.319,0.168-0.8,0.253-1.442,0.253c-1.522,0-2.283-0.791-2.283-2.372v-3.206h-1.135
			v-1.593h1.135v-1.511l2.153-0.615v2.126h1.572v1.593h-1.572v2.83c0,0.729,0.29,1.094,0.868,1.094c0.228,0,0.462-0.066,0.704-0.198
			V157.781z"/>
	</g>
	<g>
		<path fill="#2F2F2F" d="M28.685,232.703h-2.83v8.764h-1.148v-8.764h-2.823v-1.039h6.802V232.703z"/>
		<path fill="#2F2F2F" d="M34.022,241.467h-1.121v-1.094h-0.027c-0.488,0.838-1.206,1.258-2.153,1.258
			c-0.697,0-1.243-0.185-1.637-0.554s-0.591-0.859-0.591-1.47c0-1.308,0.77-2.069,2.311-2.283l2.099-0.294
			c0-1.189-0.481-1.784-1.442-1.784c-0.843,0-1.604,0.287-2.283,0.861v-1.148c0.688-0.438,1.481-0.656,2.379-0.656
			c1.645,0,2.468,0.871,2.468,2.611V241.467z M32.901,237.926l-1.688,0.232c-0.52,0.073-0.912,0.202-1.176,0.386
			s-0.396,0.512-0.396,0.981c0,0.342,0.122,0.621,0.366,0.837s0.568,0.325,0.974,0.325c0.556,0,1.015-0.195,1.377-0.584
			s0.543-0.883,0.543-1.48V237.926z"/>
		<path fill="#2F2F2F" d="M37.192,240.455h-0.027v1.012h-1.121v-10.363h1.121v4.594h0.027c0.551-0.93,1.358-1.395,2.42-1.395
			c0.898,0,1.601,0.313,2.109,0.94s0.762,1.466,0.762,2.519c0,1.171-0.285,2.109-0.854,2.813s-1.349,1.056-2.338,1.056
			C38.365,241.631,37.666,241.239,37.192,240.455z M37.165,237.632v0.978c0,0.579,0.188,1.07,0.564,1.473s0.854,0.605,1.432,0.605
			c0.679,0,1.211-0.26,1.596-0.779s0.578-1.242,0.578-2.167c0-0.779-0.18-1.39-0.54-1.832s-0.848-0.663-1.463-0.663
			c-0.652,0-1.176,0.227-1.572,0.68S37.165,236.948,37.165,237.632z"/>
		<path fill="#2F2F2F" d="M45.333,241.467h-1.121v-10.363h1.121V241.467z"/>
		<path fill="#2F2F2F" d="M53.167,238.247h-4.942c0.018,0.779,0.228,1.381,0.629,1.805s0.953,0.636,1.654,0.636
			c0.789,0,1.513-0.26,2.174-0.779v1.053c-0.615,0.447-1.429,0.67-2.44,0.67c-0.989,0-1.766-0.318-2.331-0.954
			s-0.848-1.53-0.848-2.683c0-1.089,0.309-1.977,0.926-2.663s1.384-1.029,2.3-1.029s1.625,0.296,2.126,0.889
			s0.752,1.415,0.752,2.468V238.247z M52.019,237.297c-0.004-0.647-0.161-1.151-0.468-1.511s-0.735-0.54-1.282-0.54
			c-0.529,0-0.978,0.189-1.347,0.567s-0.597,0.873-0.684,1.483H52.019z"/>
		<path fill="#2F2F2F" d="M57.489,241.467h-1.121v-8.47c-0.086,0.086-0.213,0.186-0.379,0.297s-0.353,0.222-0.561,0.332
			s-0.426,0.212-0.656,0.308s-0.455,0.171-0.673,0.226v-1.135c0.246-0.068,0.507-0.161,0.783-0.277s0.547-0.246,0.813-0.39
			s0.519-0.294,0.755-0.451s0.442-0.311,0.615-0.461h0.424V241.467z"/>
	</g>
	<g>
		<path fill="#2F2F2F" d="M505.202,232.703h-2.83v8.764h-1.148v-8.764H498.4v-1.039h6.802V232.703z"/>
		<path fill="#2F2F2F" d="M510.54,241.467h-1.121v-1.094h-0.027c-0.488,0.838-1.206,1.258-2.153,1.258
			c-0.697,0-1.243-0.185-1.637-0.554s-0.591-0.859-0.591-1.47c0-1.308,0.77-2.069,2.311-2.283l2.099-0.294
			c0-1.189-0.481-1.784-1.442-1.784c-0.843,0-1.604,0.287-2.283,0.861v-1.148c0.688-0.438,1.481-0.656,2.379-0.656
			c1.645,0,2.468,0.871,2.468,2.611V241.467z M509.418,237.926l-1.688,0.232c-0.52,0.073-0.912,0.202-1.176,0.386
			s-0.396,0.512-0.396,0.981c0,0.342,0.122,0.621,0.366,0.837s0.568,0.325,0.974,0.325c0.556,0,1.015-0.195,1.377-0.584
			s0.543-0.883,0.543-1.48V237.926z"/>
		<path fill="#2F2F2F" d="M513.709,240.455h-0.027v1.012h-1.121v-10.363h1.121v4.594h0.027c0.551-0.93,1.358-1.395,2.42-1.395
			c0.898,0,1.601,0.313,2.109,0.94s0.762,1.466,0.762,2.519c0,1.171-0.285,2.109-0.854,2.813s-1.349,1.056-2.338,1.056
			C514.882,241.631,514.183,241.239,513.709,240.455z M513.682,237.632v0.978c0,0.579,0.188,1.07,0.564,1.473
			s0.854,0.605,1.432,0.605c0.679,0,1.211-0.26,1.596-0.779s0.578-1.242,0.578-2.167c0-0.779-0.18-1.39-0.54-1.832
			s-0.848-0.663-1.463-0.663c-0.652,0-1.176,0.227-1.572,0.68S513.682,236.948,513.682,237.632z"/>
		<path fill="#2F2F2F" d="M521.851,241.467h-1.121v-10.363h1.121V241.467z"/>
		<path fill="#2F2F2F" d="M529.685,238.247h-4.942c0.018,0.779,0.228,1.381,0.629,1.805s0.953,0.636,1.654,0.636
			c0.789,0,1.513-0.26,2.174-0.779v1.053c-0.615,0.447-1.429,0.67-2.44,0.67c-0.989,0-1.766-0.318-2.331-0.954
			s-0.848-1.53-0.848-2.683c0-1.089,0.309-1.977,0.926-2.663s1.384-1.029,2.3-1.029s1.625,0.296,2.126,0.889
			s0.752,1.415,0.752,2.468V238.247z M528.536,237.297c-0.004-0.647-0.161-1.151-0.468-1.511s-0.735-0.54-1.282-0.54
			c-0.529,0-0.978,0.189-1.347,0.567s-0.597,0.873-0.684,1.483H528.536z"/>
		<path fill="#2F2F2F" d="M534.006,241.467h-1.121v-8.47c-0.086,0.086-0.213,0.186-0.379,0.297s-0.353,0.222-0.561,0.332
			s-0.426,0.212-0.656,0.308s-0.455,0.171-0.673,0.226v-1.135c0.246-0.068,0.507-0.161,0.783-0.277s0.547-0.246,0.813-0.39
			s0.519-0.294,0.755-0.451s0.442-0.311,0.615-0.461h0.424V241.467z"/>
	</g>
	<g>
		<path fill="#2F2F2F" d="M437.128,232.703h-2.83v8.764h-1.148v-8.764h-2.823v-1.039h6.802V232.703z"/>
		<path fill="#2F2F2F" d="M442.465,241.467h-1.121v-1.094h-0.027c-0.488,0.838-1.206,1.258-2.153,1.258
			c-0.697,0-1.243-0.185-1.637-0.554s-0.591-0.859-0.591-1.47c0-1.308,0.77-2.069,2.311-2.283l2.099-0.294
			c0-1.189-0.481-1.784-1.442-1.784c-0.843,0-1.604,0.287-2.283,0.861v-1.148c0.688-0.438,1.481-0.656,2.379-0.656
			c1.645,0,2.468,0.871,2.468,2.611V241.467z M441.344,237.926l-1.688,0.232c-0.52,0.073-0.912,0.202-1.176,0.386
			s-0.396,0.512-0.396,0.981c0,0.342,0.122,0.621,0.366,0.837s0.568,0.325,0.974,0.325c0.556,0,1.015-0.195,1.377-0.584
			s0.543-0.883,0.543-1.48V237.926z"/>
		<path fill="#2F2F2F" d="M445.635,240.455h-0.027v1.012h-1.121v-10.363h1.121v4.594h0.027c0.551-0.93,1.358-1.395,2.42-1.395
			c0.898,0,1.601,0.313,2.109,0.94s0.762,1.466,0.762,2.519c0,1.171-0.285,2.109-0.854,2.813s-1.349,1.056-2.338,1.056
			C446.808,241.631,446.109,241.239,445.635,240.455z M445.607,237.632v0.978c0,0.579,0.188,1.07,0.564,1.473
			s0.854,0.605,1.432,0.605c0.679,0,1.211-0.26,1.596-0.779s0.578-1.242,0.578-2.167c0-0.779-0.18-1.39-0.54-1.832
			s-0.848-0.663-1.463-0.663c-0.652,0-1.176,0.227-1.572,0.68S445.607,236.948,445.607,237.632z"/>
		<path fill="#2F2F2F" d="M453.776,241.467h-1.121v-10.363h1.121V241.467z"/>
		<path fill="#2F2F2F" d="M461.61,238.247h-4.942c0.018,0.779,0.228,1.381,0.629,1.805s0.953,0.636,1.654,0.636
			c0.789,0,1.513-0.26,2.174-0.779v1.053c-0.615,0.447-1.429,0.67-2.44,0.67c-0.989,0-1.766-0.318-2.331-0.954
			s-0.848-1.53-0.848-2.683c0-1.089,0.309-1.977,0.926-2.663s1.384-1.029,2.3-1.029s1.625,0.296,2.126,0.889
			s0.752,1.415,0.752,2.468V238.247z M460.462,237.297c-0.004-0.647-0.161-1.151-0.468-1.511s-0.735-0.54-1.282-0.54
			c-0.529,0-0.978,0.189-1.347,0.567s-0.597,0.873-0.684,1.483H460.462z"/>
		<path fill="#2F2F2F" d="M465.932,241.467h-1.121v-8.47c-0.086,0.086-0.213,0.186-0.379,0.297s-0.353,0.222-0.561,0.332
			s-0.426,0.212-0.656,0.308s-0.455,0.171-0.673,0.226v-1.135c0.246-0.068,0.507-0.161,0.783-0.277s0.547-0.246,0.813-0.39
			s0.519-0.294,0.755-0.451s0.442-0.311,0.615-0.461h0.424V241.467z"/>
	</g>
	<g>
		<path fill="#2F2F2F" d="M369.054,232.703h-2.83v8.764h-1.148v-8.764h-2.823v-1.039h6.802V232.703z"/>
		<path fill="#2F2F2F" d="M374.392,241.467h-1.121v-1.094h-0.027c-0.488,0.838-1.206,1.258-2.153,1.258
			c-0.697,0-1.243-0.185-1.637-0.554s-0.591-0.859-0.591-1.47c0-1.308,0.77-2.069,2.311-2.283l2.099-0.294
			c0-1.189-0.481-1.784-1.442-1.784c-0.843,0-1.604,0.287-2.283,0.861v-1.148c0.688-0.438,1.481-0.656,2.379-0.656
			c1.645,0,2.468,0.871,2.468,2.611V241.467z M373.271,237.926l-1.688,0.232c-0.52,0.073-0.912,0.202-1.176,0.386
			s-0.396,0.512-0.396,0.981c0,0.342,0.122,0.621,0.366,0.837s0.568,0.325,0.974,0.325c0.556,0,1.015-0.195,1.377-0.584
			s0.543-0.883,0.543-1.48V237.926z"/>
		<path fill="#2F2F2F" d="M377.561,240.455h-0.027v1.012h-1.121v-10.363h1.121v4.594h0.027c0.551-0.93,1.358-1.395,2.42-1.395
			c0.898,0,1.601,0.313,2.109,0.94s0.762,1.466,0.762,2.519c0,1.171-0.285,2.109-0.854,2.813s-1.349,1.056-2.338,1.056
			C378.734,241.631,378.035,241.239,377.561,240.455z M377.534,237.632v0.978c0,0.579,0.188,1.07,0.564,1.473
			s0.854,0.605,1.432,0.605c0.679,0,1.211-0.26,1.596-0.779s0.578-1.242,0.578-2.167c0-0.779-0.18-1.39-0.54-1.832
			s-0.848-0.663-1.463-0.663c-0.652,0-1.176,0.227-1.572,0.68S377.534,236.948,377.534,237.632z"/>
		<path fill="#2F2F2F" d="M385.703,241.467h-1.121v-10.363h1.121V241.467z"/>
		<path fill="#2F2F2F" d="M393.537,238.247h-4.942c0.018,0.779,0.228,1.381,0.629,1.805s0.953,0.636,1.654,0.636
			c0.789,0,1.513-0.26,2.174-0.779v1.053c-0.615,0.447-1.429,0.67-2.44,0.67c-0.989,0-1.766-0.318-2.331-0.954
			s-0.848-1.53-0.848-2.683c0-1.089,0.309-1.977,0.926-2.663s1.384-1.029,2.3-1.029s1.625,0.296,2.126,0.889
			s0.752,1.415,0.752,2.468V238.247z M392.388,237.297c-0.004-0.647-0.161-1.151-0.468-1.511s-0.735-0.54-1.282-0.54
			c-0.529,0-0.978,0.189-1.347,0.567s-0.597,0.873-0.684,1.483H392.388z"/>
		<path fill="#2F2F2F" d="M397.858,241.467h-1.121v-8.47c-0.086,0.086-0.213,0.186-0.379,0.297s-0.353,0.222-0.561,0.332
			s-0.426,0.212-0.656,0.308s-0.455,0.171-0.673,0.226v-1.135c0.246-0.068,0.507-0.161,0.783-0.277s0.547-0.246,0.813-0.39
			s0.519-0.294,0.755-0.451s0.442-0.311,0.615-0.461h0.424V241.467z"/>
	</g>
	<g>
		<path fill="#2F2F2F" d="M300.98,232.703h-2.83v8.764h-1.148v-8.764h-2.823v-1.039h6.802V232.703z"/>
		<path fill="#2F2F2F" d="M306.318,241.467h-1.121v-1.094h-0.027c-0.488,0.838-1.206,1.258-2.153,1.258
			c-0.697,0-1.243-0.185-1.637-0.554s-0.591-0.859-0.591-1.47c0-1.308,0.77-2.069,2.311-2.283l2.099-0.294
			c0-1.189-0.481-1.784-1.442-1.784c-0.843,0-1.604,0.287-2.283,0.861v-1.148c0.688-0.438,1.481-0.656,2.379-0.656
			c1.645,0,2.468,0.871,2.468,2.611V241.467z M305.197,237.926l-1.688,0.232c-0.52,0.073-0.912,0.202-1.176,0.386
			s-0.396,0.512-0.396,0.981c0,0.342,0.122,0.621,0.366,0.837s0.568,0.325,0.974,0.325c0.556,0,1.015-0.195,1.377-0.584
			s0.543-0.883,0.543-1.48V237.926z"/>
		<path fill="#2F2F2F" d="M309.487,240.455h-0.027v1.012h-1.121v-10.363h1.121v4.594h0.027c0.551-0.93,1.358-1.395,2.42-1.395
			c0.898,0,1.601,0.313,2.109,0.94s0.762,1.466,0.762,2.519c0,1.171-0.285,2.109-0.854,2.813s-1.349,1.056-2.338,1.056
			C310.661,241.631,309.961,241.239,309.487,240.455z M309.46,237.632v0.978c0,0.579,0.188,1.07,0.564,1.473
			s0.854,0.605,1.432,0.605c0.679,0,1.211-0.26,1.596-0.779s0.578-1.242,0.578-2.167c0-0.779-0.18-1.39-0.54-1.832
			s-0.848-0.663-1.463-0.663c-0.652,0-1.176,0.227-1.572,0.68S309.46,236.948,309.46,237.632z"/>
		<path fill="#2F2F2F" d="M317.629,241.467h-1.121v-10.363h1.121V241.467z"/>
		<path fill="#2F2F2F" d="M325.463,238.247h-4.942c0.018,0.779,0.228,1.381,0.629,1.805s0.953,0.636,1.654,0.636
			c0.789,0,1.513-0.26,2.174-0.779v1.053c-0.615,0.447-1.429,0.67-2.44,0.67c-0.989,0-1.766-0.318-2.331-0.954
			s-0.848-1.53-0.848-2.683c0-1.089,0.309-1.977,0.926-2.663s1.384-1.029,2.3-1.029s1.625,0.296,2.126,0.889
			s0.752,1.415,0.752,2.468V238.247z M324.314,237.297c-0.004-0.647-0.161-1.151-0.468-1.511s-0.735-0.54-1.282-0.54
			c-0.529,0-0.978,0.189-1.347,0.567s-0.597,0.873-0.684,1.483H324.314z"/>
		<path fill="#2F2F2F" d="M329.784,241.467h-1.121v-8.47c-0.086,0.086-0.213,0.186-0.379,0.297s-0.353,0.222-0.561,0.332
			s-0.426,0.212-0.656,0.308s-0.455,0.171-0.673,0.226v-1.135c0.246-0.068,0.507-0.161,0.783-0.277s0.547-0.246,0.813-0.39
			s0.519-0.294,0.755-0.451s0.442-0.311,0.615-0.461h0.424V241.467z"/>
	</g>
	<g>
		<path fill="#2F2F2F" d="M232.907,232.703h-2.83v8.764h-1.148v-8.764h-2.823v-1.039h6.802V232.703z"/>
		<path fill="#2F2F2F" d="M238.244,241.467h-1.121v-1.094h-0.027c-0.488,0.838-1.206,1.258-2.153,1.258
			c-0.697,0-1.243-0.185-1.637-0.554s-0.591-0.859-0.591-1.47c0-1.308,0.77-2.069,2.311-2.283l2.099-0.294
			c0-1.189-0.481-1.784-1.442-1.784c-0.843,0-1.604,0.287-2.283,0.861v-1.148c0.688-0.438,1.481-0.656,2.379-0.656
			c1.645,0,2.468,0.871,2.468,2.611V241.467z M237.123,237.926l-1.688,0.232c-0.52,0.073-0.912,0.202-1.176,0.386
			s-0.396,0.512-0.396,0.981c0,0.342,0.122,0.621,0.366,0.837s0.568,0.325,0.974,0.325c0.556,0,1.015-0.195,1.377-0.584
			s0.543-0.883,0.543-1.48V237.926z"/>
		<path fill="#2F2F2F" d="M241.414,240.455h-0.027v1.012h-1.121v-10.363h1.121v4.594h0.027c0.551-0.93,1.358-1.395,2.42-1.395
			c0.898,0,1.601,0.313,2.109,0.94s0.762,1.466,0.762,2.519c0,1.171-0.285,2.109-0.854,2.813s-1.349,1.056-2.338,1.056
			C242.587,241.631,241.888,241.239,241.414,240.455z M241.386,237.632v0.978c0,0.579,0.188,1.07,0.564,1.473
			s0.854,0.605,1.432,0.605c0.679,0,1.211-0.26,1.596-0.779s0.578-1.242,0.578-2.167c0-0.779-0.18-1.39-0.54-1.832
			s-0.848-0.663-1.463-0.663c-0.652,0-1.176,0.227-1.572,0.68S241.386,236.948,241.386,237.632z"/>
		<path fill="#2F2F2F" d="M249.555,241.467h-1.121v-10.363h1.121V241.467z"/>
		<path fill="#2F2F2F" d="M257.389,238.247h-4.942c0.018,0.779,0.228,1.381,0.629,1.805s0.953,0.636,1.654,0.636
			c0.789,0,1.513-0.26,2.174-0.779v1.053c-0.615,0.447-1.429,0.67-2.44,0.67c-0.989,0-1.766-0.318-2.331-0.954
			s-0.848-1.53-0.848-2.683c0-1.089,0.309-1.977,0.926-2.663s1.384-1.029,2.3-1.029s1.625,0.296,2.126,0.889
			s0.752,1.415,0.752,2.468V238.247z M256.241,237.297c-0.004-0.647-0.161-1.151-0.468-1.511s-0.735-0.54-1.282-0.54
			c-0.529,0-0.978,0.189-1.347,0.567s-0.597,0.873-0.684,1.483H256.241z"/>
		<path fill="#2F2F2F" d="M261.71,241.467h-1.121v-8.47c-0.086,0.086-0.213,0.186-0.379,0.297s-0.353,0.222-0.561,0.332
			s-0.426,0.212-0.656,0.308s-0.455,0.171-0.673,0.226v-1.135c0.246-0.068,0.507-0.161,0.783-0.277s0.547-0.246,0.813-0.39
			s0.519-0.294,0.755-0.451s0.442-0.311,0.615-0.461h0.424V241.467z"/>
	</g>
	<g>
		<path fill="#2F2F2F" d="M164.833,232.703h-2.83v8.764h-1.148v-8.764h-2.823v-1.039h6.802V232.703z"/>
		<path fill="#2F2F2F" d="M170.17,241.467h-1.121v-1.094h-0.027c-0.488,0.838-1.206,1.258-2.153,1.258
			c-0.697,0-1.243-0.185-1.637-0.554s-0.591-0.859-0.591-1.47c0-1.308,0.77-2.069,2.311-2.283l2.099-0.294
			c0-1.189-0.481-1.784-1.442-1.784c-0.843,0-1.604,0.287-2.283,0.861v-1.148c0.688-0.438,1.481-0.656,2.379-0.656
			c1.645,0,2.468,0.871,2.468,2.611V241.467z M169.049,237.926l-1.688,0.232c-0.52,0.073-0.912,0.202-1.176,0.386
			s-0.396,0.512-0.396,0.981c0,0.342,0.122,0.621,0.366,0.837s0.568,0.325,0.974,0.325c0.556,0,1.015-0.195,1.377-0.584
			s0.543-0.883,0.543-1.48V237.926z"/>
		<path fill="#2F2F2F" d="M173.34,240.455h-0.027v1.012h-1.121v-10.363h1.121v4.594h0.027c0.551-0.93,1.358-1.395,2.42-1.395
			c0.898,0,1.601,0.313,2.109,0.94s0.762,1.466,0.762,2.519c0,1.171-0.285,2.109-0.854,2.813s-1.349,1.056-2.338,1.056
			C174.513,241.631,173.814,241.239,173.34,240.455z M173.312,237.632v0.978c0,0.579,0.188,1.07,0.564,1.473
			s0.854,0.605,1.432,0.605c0.679,0,1.211-0.26,1.596-0.779s0.578-1.242,0.578-2.167c0-0.779-0.18-1.39-0.54-1.832
			s-0.848-0.663-1.463-0.663c-0.652,0-1.176,0.227-1.572,0.68S173.312,236.948,173.312,237.632z"/>
		<path fill="#2F2F2F" d="M181.481,241.467h-1.121v-10.363h1.121V241.467z"/>
		<path fill="#2F2F2F" d="M189.315,238.247h-4.942c0.018,0.779,0.228,1.381,0.629,1.805s0.953,0.636,1.654,0.636
			c0.789,0,1.513-0.26,2.174-0.779v1.053c-0.615,0.447-1.429,0.67-2.44,0.67c-0.989,0-1.766-0.318-2.331-0.954
			s-0.848-1.53-0.848-2.683c0-1.089,0.309-1.977,0.926-2.663s1.384-1.029,2.3-1.029s1.625,0.296,2.126,0.889
			s0.752,1.415,0.752,2.468V238.247z M188.167,237.297c-0.004-0.647-0.161-1.151-0.468-1.511s-0.735-0.54-1.282-0.54
			c-0.529,0-0.978,0.189-1.347,0.567s-0.597,0.873-0.684,1.483H188.167z"/>
		<path fill="#2F2F2F" d="M193.637,241.467h-1.121v-8.47c-0.086,0.086-0.213,0.186-0.379,0.297s-0.353,0.222-0.561,0.332
			s-0.426,0.212-0.656,0.308s-0.455,0.171-0.673,0.226v-1.135c0.246-0.068,0.507-0.161,0.783-0.277s0.547-0.246,0.813-0.39
			s0.519-0.294,0.755-0.451s0.442-0.311,0.615-0.461h0.424V241.467z"/>
	</g>
	<g>
		<path fill="#2F2F2F" d="M96.759,232.703h-2.83v8.764h-1.148v-8.764h-2.823v-1.039h6.802V232.703z"/>
		<path fill="#2F2F2F" d="M102.097,241.467h-1.121v-1.094h-0.027c-0.488,0.838-1.206,1.258-2.153,1.258
			c-0.697,0-1.243-0.185-1.637-0.554s-0.591-0.859-0.591-1.47c0-1.308,0.77-2.069,2.311-2.283l2.099-0.294
			c0-1.189-0.481-1.784-1.442-1.784c-0.843,0-1.604,0.287-2.283,0.861v-1.148c0.688-0.438,1.481-0.656,2.379-0.656
			c1.645,0,2.468,0.871,2.468,2.611V241.467z M100.976,237.926l-1.688,0.232c-0.52,0.073-0.912,0.202-1.176,0.386
			s-0.396,0.512-0.396,0.981c0,0.342,0.122,0.621,0.366,0.837s0.568,0.325,0.974,0.325c0.556,0,1.015-0.195,1.377-0.584
			s0.543-0.883,0.543-1.48V237.926z"/>
		<path fill="#2F2F2F" d="M105.266,240.455h-0.027v1.012h-1.121v-10.363h1.121v4.594h0.027c0.551-0.93,1.358-1.395,2.42-1.395
			c0.898,0,1.601,0.313,2.109,0.94s0.762,1.466,0.762,2.519c0,1.171-0.285,2.109-0.854,2.813s-1.349,1.056-2.338,1.056
			C106.439,241.631,105.74,241.239,105.266,240.455z M105.239,237.632v0.978c0,0.579,0.188,1.07,0.564,1.473
			s0.854,0.605,1.432,0.605c0.679,0,1.211-0.26,1.596-0.779s0.578-1.242,0.578-2.167c0-0.779-0.18-1.39-0.54-1.832
			s-0.848-0.663-1.463-0.663c-0.652,0-1.176,0.227-1.572,0.68S105.239,236.948,105.239,237.632z"/>
		<path fill="#2F2F2F" d="M113.408,241.467h-1.121v-10.363h1.121V241.467z"/>
		<path fill="#2F2F2F" d="M121.242,238.247h-4.942c0.018,0.779,0.228,1.381,0.629,1.805s0.953,0.636,1.654,0.636
			c0.789,0,1.513-0.26,2.174-0.779v1.053c-0.615,0.447-1.429,0.67-2.44,0.67c-0.989,0-1.766-0.318-2.331-0.954
			s-0.848-1.53-0.848-2.683c0-1.089,0.309-1.977,0.926-2.663s1.384-1.029,2.3-1.029s1.625,0.296,2.126,0.889
			s0.752,1.415,0.752,2.468V238.247z M120.093,237.297c-0.004-0.647-0.161-1.151-0.468-1.511s-0.735-0.54-1.282-0.54
			c-0.529,0-0.978,0.189-1.347,0.567s-0.597,0.873-0.684,1.483H120.093z"/>
		<path fill="#2F2F2F" d="M125.563,241.467h-1.121v-8.47c-0.086,0.086-0.213,0.186-0.379,0.297s-0.353,0.222-0.561,0.332
			s-0.426,0.212-0.656,0.308s-0.455,0.171-0.673,0.226v-1.135c0.246-0.068,0.507-0.161,0.783-0.277s0.547-0.246,0.813-0.39
			s0.519-0.294,0.755-0.451s0.442-0.311,0.615-0.461h0.424V241.467z"/>
	</g>
</g>
<g id="Layer_1">
</g>
</svg>
