<?xml version="1.0" encoding="utf-8"?>
<!-- Generator: Adobe Illustrator 26.5.0, SVG Export Plug-In . SVG Version: 6.00 Build 0)  -->
<svg version="1.1" xmlns="http://www.w3.org/2000/svg" xmlns:xlink="http://www.w3.org/1999/xlink" x="0px" y="0px"
	 viewBox="0 0 679 260" enable-background="new 0 0 679 260" xml:space="preserve">
<symbol  id="PIPELINE" viewBox="-32 -12.266 64 24.531">
	<linearGradient id="SVGID_1_" gradientUnits="userSpaceOnUse" x1="0" y1="-12.2655" x2="1.502093e-15" y2="12.2655">
		<stop  offset="0" style="stop-color:#1B89B2"/>
		<stop  offset="1" style="stop-color:#51C8E8"/>
	</linearGradient>
	<path fill="url(#SVGID_1_)" d="M26.096,12.266h-51.448v0h0C-29.08,12.265-32,6.878-32,0s2.92-12.265,6.648-12.265h0v0h51.448
		C29.356-12.266,32-6.363,32,0S29.356,12.266,26.096,12.266z"/>
	<g>
		
			<linearGradient id="SVGID_00000155839707154138867050000016304154129435620737_" gradientUnits="userSpaceOnUse" x1="-31.461" y1="-6.1136" x2="-19.2338" y2="6.1136">
			<stop  offset="0" style="stop-color:#B3B4B4"/>
			<stop  offset="1" style="stop-color:#4F4F4F"/>
		</linearGradient>
		<ellipse fill="url(#SVGID_00000155839707154138867050000016304154129435620737_)" cx="-25.347" cy="0" rx="5.575" ry="10.879"/>
	</g>
</symbol>
<g id="Shapes">
	<rect fill="#FFFFFF" width="678.034" height="260"/>
	<g>
		<rect x="11.205" y="44.012" fill="#FFFFFF" width="496.584" height="35.2"/>
		<rect x="11.205" y="44.012" opacity="0.25" fill="#6BB9F2" width="496.584" height="35.2"/>
		<rect x="11.205" y="44.012" fill="none" stroke="#2E76BC" stroke-width="0.5" width="496.584" height="35.2"/>
	</g>
	<g>
		<rect x="180.617" y="44.012" fill="#FFFFFF" width="157.761" height="35.2"/>
		<rect x="180.617" y="44.012" opacity="0.25" fill="#FFFFFF" width="157.761" height="35.2"/>
		<rect x="180.617" y="44.012" fill="none" stroke="#2E76BC" stroke-width="0.5" width="157.761" height="35.2"/>
	</g>
	<g>
		<rect x="88.86" y="127.612" fill="#FFFFFF" width="541.2" height="35.2"/>
		<rect x="88.86" y="127.612" opacity="0.25" fill="#6BB9F2" width="541.2" height="35.2"/>
		<rect x="88.86" y="127.612" fill="none" stroke="#2E76BC" stroke-width="0.5" width="541.2" height="35.2"/>
	</g>
	<g>
		<rect x="239.3" y="127.612" fill="#FFFFFF" width="157.761" height="35.2"/>
		<rect x="239.3" y="127.612" opacity="0.25" fill="#FFFFFF" width="157.761" height="35.2"/>
		<rect x="239.3" y="127.612" fill="none" stroke="#2E76BC" stroke-width="0.5" width="157.761" height="35.2"/>
	</g>
	<g>
		<rect x="18.41" y="215.612" fill="#FFFFFF" width="611.65" height="35.2"/>
		<rect x="18.41" y="215.612" opacity="0.25" fill="#6BB9F2" width="611.65" height="35.2"/>
		<rect x="18.41" y="215.612" fill="none" stroke="#2E76BC" stroke-width="0.5" width="611.65" height="35.2"/>
	</g>
	<g>
		<rect x="44.86" y="215.612" fill="#FFFFFF" width="157.761" height="35.2"/>
		<rect x="44.86" y="215.612" opacity="0.25" fill="#FFFFFF" width="157.761" height="35.2"/>
		<rect x="44.86" y="215.612" fill="none" stroke="#2E76BC" stroke-width="0.5" width="157.761" height="35.2"/>
	</g>
	<g>
		<rect x="330.86" y="215.612" fill="#FFFFFF" width="157.761" height="35.2"/>
		<rect x="330.86" y="215.612" opacity="0.25" fill="#FFFFFF" width="157.761" height="35.2"/>
		<rect x="330.86" y="215.612" fill="none" stroke="#2E76BC" stroke-width="0.5" width="157.761" height="35.2"/>
	</g>
	<g id="Wrench_tool_x28_s_x29_">
	</g>
	<g id="user2">
	</g>
	<g id="user2_1_">
	</g>
	<g id="user2_4_">
	</g>
	<g id="user2_3_">
	</g>
	<g id="user2_2_">
	</g>
	<g id="Internet_2">
	</g>
	<g id="Enterprise">
	</g>
	<g id="Tunnel__x28_stackable_x29_">
	</g>
	<g id="New_Symbol">
	</g>
	<g id="New_Symbol_1">
	</g>
	<g id="Files">
	</g>
	<g id="BlobBlock">
	</g>
	<g id="E_x5F_Enterprise">
	</g>
	<g id="E_x5F_AD_FS">
	</g>
	<g id="C_x5F_Azure_Active_Directory">
	</g>
	<g>
		<g>
			<path fill="none" stroke="#3C3C41" stroke-miterlimit="10" d="M259.497,79.212v21.07c0,2.75-2.25,5-5,5H63.06c-2.75,0-5,2.25-5,5
				v99.548"/>
			<g>
				<polygon fill="#3C3C41" points="54.32,208.735 58.06,215.212 61.8,208.735 				"/>
			</g>
		</g>
	</g>
	<g>
		<g>
			<path fill="none" stroke="#3C3C41" stroke-miterlimit="10" d="M191.17,215.212v-24c0-1.1,0.9-2,2-2h148.89c1.1,0,2,0.9,2,2
				v18.618"/>
			<g>
				<polygon fill="#3C3C41" points="340.32,208.735 344.06,215.212 347.8,208.735 				"/>
			</g>
		</g>
	</g>
	<g>
		<g>
			<path fill="none" stroke="#3C3C41" stroke-miterlimit="10" d="M472.77,215.212v-24c0-1.1-0.9-2-2-2h-85.11c-1.1,0-2-0.9-2-2
				v-19.018"/>
			<g>
				<polygon fill="#3C3C41" points="387.4,169.288 383.66,162.812 379.92,169.288 				"/>
			</g>
		</g>
	</g>
</g>
<g id="Text">
	<g>
		<path fill="#2F2F2F" d="M76.34,58.803h-2.83v8.764h-1.148v-8.764h-2.823v-1.039h6.802V58.803z"/>
		<path fill="#2F2F2F" d="M81.678,67.566h-1.121v-1.094h-0.027c-0.488,0.838-1.206,1.258-2.153,1.258
			c-0.697,0-1.243-0.185-1.637-0.554s-0.591-0.858-0.591-1.47c0-1.309,0.77-2.068,2.311-2.283l2.099-0.294
			c0-1.189-0.481-1.784-1.442-1.784c-0.843,0-1.604,0.287-2.283,0.861v-1.148c0.688-0.438,1.481-0.656,2.379-0.656
			c1.645,0,2.468,0.871,2.468,2.611V67.566z M80.557,64.025l-1.688,0.232c-0.52,0.072-0.912,0.201-1.176,0.387
			c-0.264,0.184-0.396,0.512-0.396,0.98c0,0.342,0.122,0.621,0.366,0.838c0.244,0.216,0.568,0.324,0.974,0.324
			c0.556,0,1.015-0.195,1.377-0.584c0.362-0.391,0.543-0.883,0.543-1.48V64.025z"/>
		<path fill="#2F2F2F" d="M84.847,66.555H84.82v1.012h-1.121V57.203h1.121v4.594h0.027c0.551-0.93,1.358-1.395,2.42-1.395
			c0.898,0,1.601,0.313,2.109,0.939c0.508,0.627,0.762,1.467,0.762,2.52c0,1.172-0.285,2.109-0.854,2.812
			c-0.57,0.705-1.349,1.057-2.338,1.057C86.021,67.73,85.321,67.338,84.847,66.555z M84.82,63.731v0.978
			c0,0.578,0.188,1.07,0.564,1.473c0.376,0.404,0.854,0.605,1.432,0.605c0.679,0,1.211-0.26,1.596-0.779s0.578-1.242,0.578-2.167
			c0-0.779-0.18-1.39-0.54-1.832s-0.848-0.663-1.463-0.663c-0.652,0-1.176,0.227-1.572,0.68
			C85.018,62.479,84.82,63.048,84.82,63.731z"/>
		<path fill="#2F2F2F" d="M92.989,67.566h-1.121V57.203h1.121V67.566z"/>
		<path fill="#2F2F2F" d="M100.823,64.347H95.88c0.018,0.779,0.228,1.381,0.629,1.805s0.953,0.636,1.654,0.636
			c0.789,0,1.513-0.26,2.174-0.779v1.053c-0.615,0.447-1.429,0.67-2.44,0.67c-0.989,0-1.766-0.318-2.331-0.953
			c-0.565-0.637-0.848-1.531-0.848-2.684c0-1.09,0.309-1.977,0.926-2.662c0.618-0.687,1.384-1.029,2.3-1.029
			s1.625,0.297,2.126,0.889s0.752,1.415,0.752,2.468V64.347z M99.674,63.396c-0.004-0.646-0.161-1.15-0.468-1.511
			s-0.735-0.54-1.282-0.54c-0.529,0-0.978,0.189-1.347,0.567s-0.597,0.872-0.684,1.483H99.674z"/>
		<path fill="#2F2F2F" d="M110.167,67.566h-1.121v-8.47c-0.086,0.087-0.213,0.186-0.379,0.298c-0.167,0.111-0.353,0.222-0.561,0.331
			s-0.426,0.212-0.656,0.308s-0.455,0.171-0.673,0.226v-1.135c0.246-0.068,0.507-0.161,0.783-0.276
			c0.276-0.117,0.547-0.246,0.813-0.391c0.267-0.143,0.519-0.293,0.755-0.451c0.237-0.156,0.442-0.311,0.615-0.461h0.424V67.566z"/>
	</g>
	<g>
		<path fill="#2F2F2F" d="M230.56,66.555h-0.027v4.231h-1.121v-10.22h1.121v1.23h0.027c0.551-0.93,1.358-1.395,2.42-1.395
			c0.902,0,1.606,0.313,2.112,0.939c0.506,0.627,0.759,1.467,0.759,2.52c0,1.172-0.285,2.109-0.854,2.812
			c-0.57,0.705-1.349,1.057-2.338,1.057C231.751,67.73,231.052,67.338,230.56,66.555z M230.532,63.731v0.978
			c0,0.578,0.188,1.07,0.564,1.473c0.376,0.404,0.854,0.605,1.432,0.605c0.679,0,1.211-0.26,1.596-0.779s0.578-1.242,0.578-2.167
			c0-0.779-0.18-1.39-0.54-1.832s-0.848-0.663-1.463-0.663c-0.652,0-1.176,0.227-1.572,0.68
			C230.73,62.479,230.532,63.048,230.532,63.731z"/>
		<path fill="#2F2F2F" d="M243.636,67.006c0,2.57-1.23,3.855-3.691,3.855c-0.866,0-1.623-0.164-2.27-0.492v-1.121
			c0.789,0.438,1.541,0.656,2.256,0.656c1.723,0,2.584-0.916,2.584-2.748v-0.766h-0.027c-0.533,0.893-1.335,1.34-2.406,1.34
			c-0.871,0-1.571-0.311-2.102-0.934c-0.531-0.621-0.796-1.457-0.796-2.505c0-1.189,0.286-2.136,0.858-2.837
			s1.354-1.053,2.348-1.053c0.943,0,1.643,0.379,2.099,1.135h0.027v-0.971h1.121V67.006z M242.515,64.401v-1.032
			c0-0.557-0.188-1.032-0.564-1.429s-0.844-0.595-1.405-0.595c-0.693,0-1.235,0.252-1.627,0.756
			c-0.392,0.503-0.588,1.209-0.588,2.115c0,0.779,0.188,1.402,0.564,1.869c0.376,0.468,0.874,0.701,1.494,0.701
			c0.629,0,1.141-0.223,1.535-0.67S242.515,65.099,242.515,64.401z"/>
		<path fill="#2F2F2F" d="M249.255,58.188c-0.219-0.123-0.467-0.185-0.745-0.185c-0.784,0-1.176,0.495-1.176,1.483v1.08h1.641v0.957
			h-1.641v6.043h-1.114v-6.043h-1.196v-0.957h1.196v-1.135c0-0.734,0.212-1.313,0.636-1.74c0.424-0.426,0.953-0.639,1.586-0.639
			c0.342,0,0.613,0.041,0.813,0.123V58.188z"/>
		<path fill="#2F2F2F" d="M251.008,58.789c-0.201,0-0.372-0.068-0.513-0.205s-0.212-0.311-0.212-0.52s0.071-0.384,0.212-0.523
			c0.141-0.139,0.312-0.208,0.513-0.208c0.205,0,0.379,0.069,0.523,0.208c0.144,0.14,0.215,0.314,0.215,0.523
			c0,0.201-0.072,0.371-0.215,0.513S251.213,58.789,251.008,58.789z M251.555,67.566h-1.121v-7h1.121V67.566z"/>
		<path fill="#2F2F2F" d="M257.324,61.701c-0.196-0.15-0.479-0.226-0.848-0.226c-0.479,0-0.878,0.226-1.2,0.677
			s-0.482,1.066-0.482,1.846v3.568h-1.121v-7h1.121v1.442h0.027c0.16-0.492,0.403-0.876,0.731-1.151
			c0.328-0.276,0.695-0.414,1.101-0.414c0.292,0,0.515,0.031,0.67,0.096V61.701z"/>
		<path fill="#2F2F2F" d="M258.326,67.313V66.11c0.611,0.451,1.283,0.677,2.017,0.677c0.984,0,1.477-0.328,1.477-0.984
			c0-0.188-0.042-0.346-0.126-0.475c-0.084-0.131-0.198-0.246-0.342-0.346s-0.312-0.19-0.506-0.27
			c-0.194-0.08-0.402-0.164-0.625-0.25c-0.31-0.123-0.582-0.247-0.817-0.373c-0.235-0.125-0.431-0.266-0.588-0.424
			c-0.157-0.156-0.276-0.336-0.355-0.536s-0.12-0.435-0.12-0.704c0-0.328,0.075-0.619,0.226-0.871
			c0.15-0.254,0.351-0.465,0.602-0.637c0.25-0.17,0.537-0.299,0.858-0.386s0.653-0.13,0.995-0.13c0.606,0,1.148,0.105,1.627,0.314
			v1.135c-0.515-0.338-1.107-0.506-1.777-0.506c-0.209,0-0.399,0.023-0.567,0.072c-0.168,0.047-0.313,0.115-0.434,0.201
			s-0.214,0.19-0.28,0.311c-0.066,0.121-0.099,0.254-0.099,0.4c0,0.182,0.033,0.335,0.099,0.458s0.163,0.232,0.291,0.328
			s0.283,0.183,0.465,0.26s0.39,0.161,0.622,0.253c0.31,0.119,0.588,0.24,0.834,0.365c0.246,0.126,0.456,0.268,0.629,0.424
			c0.173,0.158,0.307,0.339,0.4,0.544s0.14,0.448,0.14,0.731c0,0.346-0.076,0.646-0.229,0.902s-0.356,0.467-0.612,0.636
			s-0.549,0.294-0.882,0.376s-0.681,0.123-1.046,0.123C259.479,67.73,258.854,67.592,258.326,67.313z"/>
		<path fill="#2F2F2F" d="M267.979,67.498c-0.264,0.146-0.613,0.219-1.046,0.219c-1.226,0-1.839-0.684-1.839-2.051v-4.143h-1.203
			v-0.957h1.203v-1.709l1.121-0.362v2.071h1.764v0.957h-1.764v3.944c0,0.47,0.08,0.804,0.239,1.005s0.424,0.301,0.793,0.301
			c0.283,0,0.526-0.078,0.731-0.232V67.498z"/>
		<path fill="#2F2F2F" d="M269.934,58.789c-0.201,0-0.372-0.068-0.513-0.205s-0.212-0.311-0.212-0.52s0.071-0.384,0.212-0.523
			c0.141-0.139,0.312-0.208,0.513-0.208c0.205,0,0.379,0.069,0.523,0.208c0.144,0.14,0.215,0.314,0.215,0.523
			c0,0.201-0.072,0.371-0.215,0.513S270.139,58.789,269.934,58.789z M270.481,67.566h-1.121v-7h1.121V67.566z"/>
		<path fill="#2F2F2F" d="M277.623,67.566h-1.121v-1.094h-0.027c-0.488,0.838-1.206,1.258-2.153,1.258
			c-0.697,0-1.243-0.185-1.637-0.554s-0.591-0.858-0.591-1.47c0-1.309,0.77-2.068,2.311-2.283l2.099-0.294
			c0-1.189-0.481-1.784-1.442-1.784c-0.843,0-1.604,0.287-2.283,0.861v-1.148c0.688-0.438,1.481-0.656,2.379-0.656
			c1.645,0,2.468,0.871,2.468,2.611V67.566z M276.501,64.025l-1.688,0.232c-0.52,0.072-0.912,0.201-1.176,0.387
			c-0.264,0.184-0.396,0.512-0.396,0.98c0,0.342,0.122,0.621,0.366,0.838c0.244,0.216,0.568,0.324,0.974,0.324
			c0.556,0,1.015-0.195,1.377-0.584c0.362-0.391,0.543-0.883,0.543-1.48V64.025z"/>
		<path fill="#2F2F2F" d="M289.583,67.566h-1.121v-4.02c0-0.775-0.12-1.336-0.359-1.682s-0.642-0.52-1.207-0.52
			c-0.479,0-0.885,0.219-1.22,0.656s-0.502,0.961-0.502,1.572v3.992h-1.121V63.41c0-1.377-0.531-2.064-1.593-2.064
			c-0.492,0-0.898,0.206-1.217,0.619c-0.319,0.412-0.479,0.949-0.479,1.609v3.992h-1.121v-7h1.121v1.107h0.027
			c0.497-0.848,1.221-1.271,2.174-1.271c0.479,0,0.896,0.133,1.251,0.4c0.355,0.266,0.599,0.615,0.731,1.049
			c0.52-0.967,1.294-1.449,2.324-1.449c1.541,0,2.311,0.95,2.311,2.851V67.566z"/>
	</g>
	<g>
		<path fill="#2F2F2F" d="M642.338,143.868h-3.828v3.391h3.541v1.032h-3.541v4.341h-1.148v-9.803h4.977V143.868z"/>
		<path fill="#2F2F2F" d="M644.474,143.854c-0.201,0-0.372-0.068-0.513-0.205s-0.212-0.311-0.212-0.52
			c0-0.21,0.071-0.384,0.212-0.523c0.141-0.139,0.312-0.208,0.513-0.208c0.205,0,0.379,0.069,0.523,0.208
			c0.144,0.14,0.215,0.313,0.215,0.523c0,0.2-0.072,0.371-0.215,0.513C644.854,143.783,644.679,143.854,644.474,143.854z
			 M645.021,152.632H643.9v-7h1.121V152.632z"/>
		<path fill="#2F2F2F" d="M648.265,152.632h-1.121v-10.363h1.121V152.632z"/>
		<path fill="#2F2F2F" d="M656.103,149.412h-4.942c0.018,0.779,0.228,1.381,0.629,1.805s0.953,0.636,1.654,0.636
			c0.789,0,1.513-0.26,2.174-0.779v1.053c-0.615,0.446-1.429,0.67-2.44,0.67c-0.989,0-1.766-0.318-2.331-0.954
			s-0.848-1.53-0.848-2.683c0-1.09,0.309-1.977,0.926-2.663c0.618-0.686,1.384-1.028,2.3-1.028s1.625,0.296,2.126,0.889
			c0.501,0.592,0.752,1.415,0.752,2.468V149.412z M654.954,148.462c-0.004-0.647-0.161-1.151-0.468-1.511
			c-0.308-0.36-0.735-0.54-1.282-0.54c-0.529,0-0.978,0.188-1.347,0.567c-0.369,0.378-0.597,0.872-0.684,1.483H654.954z"/>
		<path fill="#2F2F2F" d="M665.447,152.632h-1.121v-8.47c-0.086,0.086-0.213,0.186-0.379,0.297
			c-0.167,0.112-0.353,0.223-0.561,0.332s-0.426,0.212-0.656,0.308s-0.455,0.171-0.673,0.226v-1.135
			c0.246-0.068,0.507-0.161,0.783-0.277s0.547-0.246,0.813-0.39s0.519-0.294,0.755-0.451s0.442-0.311,0.615-0.461h0.424V152.632z"/>
	</g>
	<g>
		<path fill="#2F2F2F" d="M307.972,152.071h-1.148v-9.803h1.148V152.071z"/>
		<path fill="#2F2F2F" d="M318.04,152.071h-1.271l-1.039-2.748h-4.156l-0.978,2.748h-1.278l3.76-9.803h1.189L318.04,152.071z
			 M315.354,148.291l-1.538-4.177c-0.05-0.137-0.1-0.355-0.15-0.656h-0.027c-0.045,0.277-0.098,0.496-0.157,0.656l-1.524,4.177
			H315.354z"/>
		<path fill="#2F2F2F" d="M329.38,152.071h-1.142v-6.576c0-0.52,0.032-1.155,0.096-1.907h-0.027
			c-0.109,0.441-0.208,0.759-0.294,0.95l-3.35,7.533h-0.561l-3.343-7.479c-0.096-0.219-0.194-0.554-0.294-1.005h-0.027
			c0.037,0.392,0.055,1.032,0.055,1.921v6.562h-1.107v-9.803h1.518l3.008,6.836c0.232,0.523,0.383,0.916,0.451,1.176h0.041
			c0.196-0.538,0.353-0.939,0.472-1.203l3.069-6.809h1.436V152.071z"/>
	</g>
	<g>
		<path fill="#2F2F2F" d="M642.337,229.934h-3.828v3.391h3.541v1.031h-3.541v4.342h-1.148v-9.803h4.977V229.934z"/>
		<path fill="#2F2F2F" d="M644.474,229.92c-0.201,0-0.372-0.068-0.513-0.205s-0.212-0.311-0.212-0.52
			c0-0.21,0.071-0.385,0.212-0.523s0.312-0.209,0.513-0.209c0.205,0,0.379,0.07,0.523,0.209s0.215,0.313,0.215,0.523
			c0,0.2-0.072,0.371-0.215,0.512C644.853,229.849,644.679,229.92,644.474,229.92z M645.021,238.697h-1.121v-7h1.121V238.697z"/>
		<path fill="#2F2F2F" d="M648.264,238.697h-1.121v-10.363h1.121V238.697z"/>
		<path fill="#2F2F2F" d="M656.102,235.477h-4.942c0.018,0.779,0.228,1.381,0.629,1.805s0.953,0.637,1.654,0.637
			c0.789,0,1.513-0.26,2.174-0.779v1.053c-0.615,0.446-1.429,0.67-2.44,0.67c-0.989,0-1.766-0.318-2.331-0.954
			s-0.848-1.53-0.848-2.683c0-1.09,0.309-1.977,0.926-2.663s1.384-1.028,2.3-1.028s1.625,0.296,2.126,0.889
			c0.501,0.592,0.752,1.414,0.752,2.467V235.477z M654.954,234.527c-0.004-0.647-0.161-1.151-0.468-1.512
			c-0.308-0.359-0.735-0.539-1.282-0.539c-0.529,0-0.978,0.188-1.347,0.566c-0.369,0.379-0.597,0.873-0.684,1.484H654.954z"/>
		<path fill="#2F2F2F" d="M665.775,231.465c0-0.301-0.047-0.563-0.14-0.787c-0.093-0.223-0.221-0.408-0.383-0.557
			s-0.352-0.259-0.571-0.332c-0.219-0.072-0.456-0.109-0.711-0.109c-0.219,0-0.433,0.03-0.643,0.09
			c-0.209,0.059-0.414,0.141-0.612,0.246c-0.198,0.104-0.39,0.229-0.574,0.375c-0.185,0.146-0.356,0.309-0.516,0.486v-1.203
			c0.314-0.306,0.667-0.539,1.056-0.701s0.865-0.242,1.425-0.242c0.401,0,0.772,0.058,1.114,0.174s0.638,0.286,0.889,0.51
			c0.25,0.223,0.448,0.498,0.591,0.826s0.215,0.705,0.215,1.129c0,0.387-0.044,0.738-0.133,1.053s-0.223,0.61-0.403,0.889
			c-0.18,0.277-0.407,0.544-0.68,0.799c-0.273,0.256-0.595,0.516-0.964,0.779c-0.46,0.328-0.84,0.609-1.138,0.842
			s-0.536,0.449-0.711,0.652s-0.298,0.406-0.369,0.608s-0.106,0.437-0.106,0.7h4.881v1.006h-6.05v-0.486
			c0-0.419,0.045-0.788,0.137-1.107c0.091-0.318,0.242-0.621,0.451-0.908s0.484-0.574,0.824-0.861s0.755-0.611,1.248-0.971
			c0.355-0.256,0.653-0.5,0.892-0.732s0.432-0.465,0.578-0.697s0.25-0.468,0.311-0.707S665.775,231.733,665.775,231.465z"/>
	</g>
	<g>
		<path fill="#2F2F2F" d="M113.532,238.861h-1.148v-9.803h1.148V238.861z"/>
		<path fill="#2F2F2F" d="M123.601,238.861h-1.271l-1.039-2.748h-4.156l-0.978,2.748h-1.278l3.76-9.803h1.189L123.601,238.861z
			 M120.914,235.08l-1.538-4.176c-0.05-0.137-0.1-0.355-0.15-0.656h-0.027c-0.045,0.277-0.098,0.496-0.157,0.656l-1.524,4.176
			H120.914z"/>
		<path fill="#2F2F2F" d="M134.94,238.861h-1.142v-6.576c0-0.52,0.032-1.156,0.096-1.908h-0.027
			c-0.109,0.442-0.208,0.76-0.294,0.951l-3.35,7.533h-0.561l-3.343-7.479c-0.096-0.219-0.194-0.555-0.294-1.006h-0.027
			c0.037,0.393,0.055,1.033,0.055,1.922v6.562h-1.107v-9.803h1.518l3.008,6.836c0.232,0.523,0.383,0.916,0.451,1.176h0.041
			c0.196-0.538,0.353-0.939,0.472-1.203l3.069-6.809h1.436V238.861z"/>
	</g>
	<g>
		<path fill="#2F2F2F" d="M399.532,238.861h-1.148v-9.803h1.148V238.861z"/>
		<path fill="#2F2F2F" d="M409.601,238.861h-1.271l-1.039-2.748h-4.156l-0.978,2.748h-1.278l3.76-9.803h1.189L409.601,238.861z
			 M406.914,235.08l-1.538-4.176c-0.05-0.137-0.1-0.355-0.15-0.656h-0.027c-0.045,0.277-0.098,0.496-0.157,0.656l-1.524,4.176
			H406.914z"/>
		<path fill="#2F2F2F" d="M420.94,238.861h-1.142v-6.576c0-0.52,0.032-1.156,0.096-1.908h-0.027
			c-0.109,0.442-0.208,0.76-0.294,0.951l-3.35,7.533h-0.561l-3.343-7.479c-0.096-0.219-0.194-0.555-0.294-1.006h-0.027
			c0.037,0.393,0.055,1.033,0.055,1.922v6.562h-1.107v-9.803h1.518l3.008,6.836c0.232,0.523,0.383,0.916,0.451,1.176h0.041
			c0.196-0.538,0.353-0.939,0.472-1.203l3.069-6.809h1.436V238.861z"/>
	</g>
	<g>
		<path d="M19.884,22.356c0,0.396-0.088,0.735-0.263,1.015c-0.175,0.281-0.408,0.509-0.697,0.684
			c-0.29,0.176-0.618,0.304-0.984,0.383c-0.367,0.08-0.742,0.12-1.125,0.12c-0.51,0-0.971-0.024-1.381-0.071
			c-0.41-0.049-0.797-0.118-1.162-0.209v-1.504c0.428,0.178,0.855,0.307,1.282,0.387c0.426,0.079,0.828,0.119,1.207,0.119
			c0.438,0,0.765-0.069,0.981-0.209c0.216-0.139,0.325-0.319,0.325-0.543c0-0.104-0.023-0.2-0.068-0.287s-0.131-0.17-0.256-0.25
			c-0.125-0.079-0.302-0.161-0.53-0.246c-0.228-0.084-0.526-0.179-0.896-0.283c-0.342-0.096-0.642-0.204-0.899-0.324
			c-0.257-0.121-0.471-0.264-0.639-0.428s-0.295-0.354-0.379-0.57c-0.084-0.217-0.126-0.471-0.126-0.763
			c0-0.282,0.064-0.549,0.191-0.8s0.318-0.471,0.571-0.66c0.253-0.188,0.568-0.338,0.947-0.447s0.82-0.164,1.326-0.164
			c0.438,0,0.825,0.022,1.162,0.068s0.636,0.096,0.896,0.15v1.36c-0.396-0.128-0.769-0.218-1.118-0.271
			c-0.349-0.052-0.694-0.078-1.036-0.078s-0.616,0.062-0.824,0.185s-0.311,0.294-0.311,0.513c0,0.104,0.021,0.198,0.062,0.28
			s0.122,0.162,0.243,0.239s0.29,0.158,0.506,0.242c0.216,0.085,0.502,0.177,0.858,0.277c0.401,0.114,0.738,0.236,1.012,0.365
			c0.273,0.131,0.493,0.277,0.66,0.441s0.286,0.351,0.359,0.561S19.884,22.088,19.884,22.356z"/>
		<path d="M25.804,23.642c-0.242,0.602-0.493,1.129-0.755,1.583c-0.262,0.453-0.55,0.831-0.865,1.135
			c-0.314,0.303-0.664,0.53-1.049,0.684c-0.385,0.152-0.817,0.229-1.295,0.229c-0.114,0-0.238-0.006-0.373-0.018
			c-0.134-0.011-0.272-0.028-0.414-0.051v-1.415c0.055,0.009,0.117,0.02,0.188,0.03c0.071,0.012,0.145,0.021,0.222,0.027
			c0.078,0.008,0.156,0.013,0.236,0.018s0.154,0.007,0.222,0.007c0.191,0,0.369-0.036,0.533-0.109s0.315-0.175,0.455-0.304
			c0.139-0.131,0.266-0.285,0.379-0.465c0.114-0.181,0.214-0.378,0.301-0.592l-2.755-6.945h1.859l1.442,3.938l0.431,1.271
			l0.424-1.217l1.456-3.992h1.791L25.804,23.642z"/>
		<path d="M34.828,22.356c0,0.396-0.088,0.735-0.263,1.015c-0.175,0.281-0.408,0.509-0.697,0.684
			c-0.29,0.176-0.618,0.304-0.984,0.383c-0.367,0.08-0.742,0.12-1.125,0.12c-0.51,0-0.971-0.024-1.381-0.071
			c-0.41-0.049-0.797-0.118-1.162-0.209v-1.504c0.428,0.178,0.855,0.307,1.282,0.387c0.426,0.079,0.828,0.119,1.207,0.119
			c0.438,0,0.765-0.069,0.981-0.209c0.216-0.139,0.325-0.319,0.325-0.543c0-0.104-0.023-0.2-0.068-0.287s-0.131-0.17-0.256-0.25
			c-0.125-0.079-0.302-0.161-0.53-0.246c-0.228-0.084-0.526-0.179-0.896-0.283c-0.342-0.096-0.642-0.204-0.899-0.324
			c-0.257-0.121-0.471-0.264-0.639-0.428s-0.295-0.354-0.379-0.57c-0.084-0.217-0.126-0.471-0.126-0.763
			c0-0.282,0.064-0.549,0.191-0.8s0.318-0.471,0.571-0.66c0.253-0.188,0.568-0.338,0.947-0.447s0.82-0.164,1.326-0.164
			c0.438,0,0.825,0.022,1.162,0.068s0.636,0.096,0.896,0.15v1.36c-0.396-0.128-0.769-0.218-1.118-0.271
			c-0.349-0.052-0.694-0.078-1.036-0.078s-0.616,0.062-0.824,0.185s-0.311,0.294-0.311,0.513c0,0.104,0.021,0.198,0.062,0.28
			s0.122,0.162,0.243,0.239s0.29,0.158,0.506,0.242c0.216,0.085,0.502,0.177,0.858,0.277c0.401,0.114,0.738,0.236,1.012,0.365
			c0.273,0.131,0.493,0.277,0.66,0.441s0.286,0.351,0.359,0.561S34.828,22.088,34.828,22.356z"/>
		<path d="M38.487,21.878c0.191,0,0.369,0.035,0.533,0.106c0.164,0.07,0.307,0.166,0.427,0.287c0.121,0.12,0.215,0.263,0.284,0.427
			s0.103,0.34,0.103,0.526c0,0.183-0.034,0.354-0.103,0.516c-0.068,0.162-0.163,0.304-0.284,0.424
			c-0.121,0.121-0.263,0.217-0.427,0.287c-0.164,0.071-0.342,0.106-0.533,0.106c-0.182,0-0.353-0.035-0.513-0.106
			c-0.16-0.07-0.298-0.166-0.417-0.287c-0.119-0.12-0.212-0.262-0.28-0.424c-0.068-0.161-0.103-0.333-0.103-0.516
			c0-0.187,0.034-0.362,0.103-0.526s0.162-0.307,0.28-0.427c0.119-0.121,0.257-0.217,0.417-0.287
			C38.134,21.913,38.305,21.878,38.487,21.878z"/>
		<path d="M47.928,22.356c0,0.396-0.088,0.735-0.263,1.015c-0.175,0.281-0.408,0.509-0.697,0.684
			c-0.29,0.176-0.618,0.304-0.984,0.383c-0.367,0.08-0.742,0.12-1.125,0.12c-0.51,0-0.971-0.024-1.381-0.071
			c-0.41-0.049-0.797-0.118-1.162-0.209v-1.504c0.428,0.178,0.855,0.307,1.282,0.387c0.426,0.079,0.828,0.119,1.207,0.119
			c0.438,0,0.765-0.069,0.981-0.209c0.216-0.139,0.325-0.319,0.325-0.543c0-0.104-0.023-0.2-0.068-0.287s-0.131-0.17-0.256-0.25
			c-0.125-0.079-0.302-0.161-0.53-0.246c-0.228-0.084-0.526-0.179-0.896-0.283c-0.342-0.096-0.642-0.204-0.899-0.324
			c-0.257-0.121-0.471-0.264-0.639-0.428s-0.295-0.354-0.379-0.57c-0.084-0.217-0.126-0.471-0.126-0.763
			c0-0.282,0.064-0.549,0.191-0.8s0.318-0.471,0.571-0.66c0.253-0.188,0.568-0.338,0.947-0.447s0.82-0.164,1.326-0.164
			c0.438,0,0.825,0.022,1.162,0.068s0.636,0.096,0.896,0.15v1.36c-0.396-0.128-0.769-0.218-1.118-0.271
			c-0.349-0.052-0.694-0.078-1.036-0.078s-0.616,0.062-0.824,0.185s-0.311,0.294-0.311,0.513c0,0.104,0.021,0.198,0.062,0.28
			s0.122,0.162,0.243,0.239s0.29,0.158,0.506,0.242c0.216,0.085,0.502,0.177,0.858,0.277c0.401,0.114,0.738,0.236,1.012,0.365
			c0.273,0.131,0.493,0.277,0.66,0.441s0.286,0.351,0.359,0.561S47.928,22.088,47.928,22.356z"/>
		<path d="M53.848,23.642c-0.242,0.602-0.493,1.129-0.755,1.583c-0.262,0.453-0.55,0.831-0.865,1.135
			c-0.314,0.303-0.664,0.53-1.049,0.684c-0.385,0.152-0.817,0.229-1.295,0.229c-0.114,0-0.238-0.006-0.373-0.018
			c-0.134-0.011-0.272-0.028-0.414-0.051v-1.415c0.055,0.009,0.117,0.02,0.188,0.03c0.071,0.012,0.145,0.021,0.222,0.027
			c0.078,0.008,0.156,0.013,0.236,0.018s0.154,0.007,0.222,0.007c0.191,0,0.369-0.036,0.533-0.109s0.315-0.175,0.455-0.304
			c0.139-0.131,0.266-0.285,0.379-0.465c0.114-0.181,0.214-0.378,0.301-0.592l-2.755-6.945h1.859l1.442,3.938l0.431,1.271
			l0.424-1.217l1.456-3.992h1.791L53.848,23.642z"/>
		<path d="M62.872,22.356c0,0.396-0.088,0.735-0.263,1.015c-0.175,0.281-0.408,0.509-0.697,0.684
			c-0.29,0.176-0.618,0.304-0.984,0.383c-0.367,0.08-0.742,0.12-1.125,0.12c-0.51,0-0.971-0.024-1.381-0.071
			c-0.41-0.049-0.797-0.118-1.162-0.209v-1.504c0.428,0.178,0.855,0.307,1.282,0.387c0.426,0.079,0.828,0.119,1.207,0.119
			c0.438,0,0.765-0.069,0.981-0.209c0.216-0.139,0.325-0.319,0.325-0.543c0-0.104-0.023-0.2-0.068-0.287s-0.131-0.17-0.256-0.25
			c-0.125-0.079-0.302-0.161-0.53-0.246c-0.228-0.084-0.526-0.179-0.896-0.283c-0.342-0.096-0.642-0.204-0.899-0.324
			c-0.257-0.121-0.471-0.264-0.639-0.428s-0.295-0.354-0.379-0.57c-0.084-0.217-0.126-0.471-0.126-0.763
			c0-0.282,0.064-0.549,0.191-0.8s0.318-0.471,0.571-0.66c0.253-0.188,0.568-0.338,0.947-0.447s0.82-0.164,1.326-0.164
			c0.438,0,0.825,0.022,1.162,0.068s0.636,0.096,0.896,0.15v1.36c-0.396-0.128-0.769-0.218-1.118-0.271
			c-0.349-0.052-0.694-0.078-1.036-0.078s-0.616,0.062-0.824,0.185s-0.311,0.294-0.311,0.513c0,0.104,0.021,0.198,0.062,0.28
			s0.122,0.162,0.243,0.239s0.29,0.158,0.506,0.242c0.216,0.085,0.502,0.177,0.858,0.277c0.401,0.114,0.738,0.236,1.012,0.365
			c0.273,0.131,0.493,0.277,0.66,0.441s0.286,0.351,0.359,0.561S62.872,22.088,62.872,22.356z"/>
		<path d="M70.223,24.332c-0.301,0.068-0.604,0.123-0.909,0.164s-0.595,0.062-0.868,0.062c-0.456,0-0.849-0.048-1.179-0.144
			s-0.604-0.241-0.82-0.438s-0.376-0.445-0.479-0.748c-0.103-0.304-0.154-0.665-0.154-1.084v-3.391h-1.866v-1.299h1.866v-1.777
			l1.709-0.444v2.222h2.7v1.299h-2.7v3.268c0,0.396,0.091,0.696,0.273,0.898c0.182,0.203,0.488,0.305,0.916,0.305
			c0.273,0,0.54-0.022,0.8-0.068s0.497-0.098,0.711-0.157V24.332z"/>
		<path d="M77.869,20.395c0,0.114-0.003,0.262-0.01,0.444s-0.017,0.354-0.031,0.513h-4.566c0,0.306,0.047,0.574,0.14,0.807
			s0.226,0.428,0.396,0.584c0.171,0.158,0.376,0.277,0.615,0.359s0.505,0.123,0.796,0.123c0.337,0,0.698-0.026,1.083-0.078
			c0.385-0.053,0.785-0.139,1.2-0.257v1.326c-0.178,0.05-0.372,0.096-0.581,0.137s-0.424,0.077-0.643,0.109s-0.44,0.056-0.663,0.071
			c-0.223,0.017-0.44,0.024-0.649,0.024c-0.529,0-1.002-0.075-1.422-0.226s-0.775-0.373-1.066-0.666
			c-0.292-0.295-0.515-0.658-0.67-1.091s-0.232-0.935-0.232-1.504c0-0.565,0.078-1.079,0.232-1.542
			c0.155-0.462,0.374-0.858,0.656-1.189c0.283-0.33,0.625-0.585,1.029-0.766c0.403-0.18,0.854-0.27,1.35-0.27
			c0.492,0,0.927,0.076,1.306,0.229c0.378,0.153,0.695,0.366,0.95,0.64s0.449,0.6,0.581,0.978S77.869,19.943,77.869,20.395z
			 M76.174,20.155c0.004-0.273-0.03-0.512-0.103-0.714c-0.073-0.203-0.172-0.371-0.297-0.503s-0.271-0.23-0.438-0.294
			s-0.345-0.096-0.537-0.096c-0.419,0-0.763,0.141-1.032,0.42c-0.269,0.281-0.428,0.676-0.479,1.187H76.174z"/>
		<path d="M84.686,24.4v-4.73c0-0.173-0.004-0.324-0.014-0.455c-0.009-0.129-0.027-0.237-0.055-0.324s-0.067-0.151-0.12-0.195
			c-0.052-0.043-0.124-0.064-0.215-0.064c-0.141,0-0.28,0.096-0.417,0.287s-0.292,0.518-0.465,0.978V24.4h-1.429v-4.73
			c0-0.173-0.004-0.324-0.014-0.455c-0.009-0.129-0.027-0.237-0.055-0.324s-0.068-0.151-0.123-0.195
			c-0.055-0.043-0.127-0.064-0.219-0.064c-0.119,0-0.25,0.096-0.396,0.287s-0.308,0.518-0.485,0.978V24.4h-1.442v-6.945h1.237
			l0.027,1.012c0.1-0.205,0.201-0.381,0.301-0.526s0.208-0.266,0.321-0.358c0.114-0.094,0.236-0.161,0.366-0.202
			s0.277-0.062,0.441-0.062c0.387,0,0.683,0.102,0.885,0.305c0.203,0.202,0.318,0.483,0.345,0.844
			c0.109-0.205,0.218-0.381,0.325-0.526s0.219-0.266,0.335-0.358c0.116-0.094,0.242-0.161,0.376-0.202s0.284-0.062,0.448-0.062
			c0.506,0,0.879,0.177,1.121,0.529c0.242,0.354,0.362,0.877,0.362,1.569V24.4H84.686z"/>
		<path d="M86.909,27.203v-1.319h7.697v1.319H86.909z"/>
		<path d="M97.743,18.754h-1.962v-1.299h3.671v5.646h2.003V24.4h-5.913v-1.299h2.201V18.754z M99.588,15.555
			c0,0.15-0.027,0.292-0.082,0.424s-0.131,0.247-0.229,0.346c-0.098,0.098-0.213,0.175-0.345,0.232
			c-0.132,0.057-0.276,0.085-0.431,0.085s-0.3-0.028-0.434-0.085c-0.134-0.058-0.25-0.135-0.349-0.232
			c-0.098-0.099-0.174-0.214-0.229-0.346s-0.082-0.273-0.082-0.424s0.027-0.292,0.082-0.424s0.131-0.248,0.229-0.349
			s0.214-0.179,0.349-0.235c0.134-0.058,0.279-0.086,0.434-0.086s0.298,0.028,0.431,0.086c0.132,0.057,0.247,0.135,0.345,0.235
			s0.174,0.217,0.229,0.349S99.588,15.404,99.588,15.555z"/>
		<path d="M107.101,24.4v-4.525c0-0.761-0.283-1.142-0.848-1.142c-0.283,0-0.553,0.114-0.81,0.342s-0.53,0.538-0.817,0.93V24.4
			h-1.668v-6.945h1.442l0.041,1.025c0.141-0.178,0.288-0.34,0.441-0.485s0.318-0.271,0.496-0.372
			c0.178-0.104,0.369-0.182,0.574-0.236s0.435-0.082,0.69-0.082c0.355,0,0.666,0.059,0.93,0.174
			c0.264,0.117,0.485,0.281,0.663,0.492c0.178,0.213,0.311,0.468,0.4,0.766c0.089,0.299,0.133,0.633,0.133,1.002V24.4H107.101z"/>
		<path d="M116.306,24.332c-0.301,0.068-0.604,0.123-0.909,0.164s-0.595,0.062-0.868,0.062c-0.456,0-0.849-0.048-1.179-0.144
			s-0.604-0.241-0.82-0.438s-0.376-0.445-0.479-0.748c-0.103-0.304-0.154-0.665-0.154-1.084v-3.391h-1.866v-1.299h1.866v-1.777
			l1.709-0.444v2.222h2.7v1.299h-2.7v3.268c0,0.396,0.091,0.696,0.273,0.898c0.182,0.203,0.488,0.305,0.916,0.305
			c0.273,0,0.54-0.022,0.8-0.068s0.497-0.098,0.711-0.157V24.332z"/>
		<path d="M123.952,20.395c0,0.114-0.003,0.262-0.01,0.444s-0.017,0.354-0.031,0.513h-4.566c0,0.306,0.047,0.574,0.14,0.807
			s0.226,0.428,0.396,0.584c0.171,0.158,0.376,0.277,0.615,0.359s0.505,0.123,0.796,0.123c0.337,0,0.698-0.026,1.083-0.078
			c0.385-0.053,0.785-0.139,1.2-0.257v1.326c-0.178,0.05-0.372,0.096-0.581,0.137s-0.424,0.077-0.643,0.109s-0.44,0.056-0.663,0.071
			c-0.223,0.017-0.44,0.024-0.649,0.024c-0.529,0-1.002-0.075-1.422-0.226s-0.775-0.373-1.066-0.666
			c-0.292-0.295-0.515-0.658-0.67-1.091s-0.232-0.935-0.232-1.504c0-0.565,0.078-1.079,0.232-1.542
			c0.155-0.462,0.374-0.858,0.656-1.189c0.283-0.33,0.625-0.585,1.029-0.766c0.403-0.18,0.854-0.27,1.35-0.27
			c0.492,0,0.927,0.076,1.306,0.229c0.378,0.153,0.695,0.366,0.95,0.64s0.449,0.6,0.581,0.978S123.952,19.943,123.952,20.395z
			 M122.257,20.155c0.004-0.273-0.03-0.512-0.103-0.714c-0.073-0.203-0.172-0.371-0.297-0.503s-0.271-0.23-0.438-0.294
			s-0.345-0.096-0.537-0.096c-0.419,0-0.763,0.141-1.032,0.42c-0.269,0.281-0.428,0.676-0.479,1.187H122.257z"/>
		<path d="M129.923,20.155c0.009-0.26-0.003-0.48-0.038-0.663s-0.089-0.333-0.164-0.451s-0.167-0.205-0.277-0.26
			s-0.235-0.082-0.376-0.082c-0.246,0-0.5,0.102-0.762,0.305c-0.262,0.202-0.55,0.536-0.865,1.001V24.4h-1.709v-6.945h1.511
			l0.062,1.012c0.114-0.178,0.243-0.337,0.386-0.479s0.303-0.264,0.479-0.365c0.175-0.104,0.37-0.182,0.584-0.236
			s0.449-0.082,0.704-0.082c0.351,0,0.662,0.061,0.933,0.182c0.271,0.12,0.499,0.299,0.684,0.536s0.321,0.534,0.41,0.892
			c0.089,0.358,0.126,0.771,0.113,1.241H129.923z"/>
		<path d="M137.151,24.4v-4.525c0-0.761-0.283-1.142-0.848-1.142c-0.283,0-0.553,0.114-0.81,0.342s-0.53,0.538-0.817,0.93V24.4
			h-1.668v-6.945h1.442l0.041,1.025c0.141-0.178,0.288-0.34,0.441-0.485s0.318-0.271,0.496-0.372
			c0.178-0.104,0.369-0.182,0.574-0.236s0.435-0.082,0.69-0.082c0.355,0,0.666,0.059,0.93,0.174
			c0.264,0.117,0.485,0.281,0.663,0.492c0.178,0.213,0.311,0.468,0.4,0.766c0.089,0.299,0.133,0.633,0.133,1.002V24.4H137.151z"/>
		<path d="M144.924,24.4l-0.041-0.909c-0.146,0.155-0.298,0.298-0.458,0.427c-0.16,0.131-0.335,0.243-0.526,0.339
			s-0.4,0.17-0.625,0.222c-0.226,0.053-0.473,0.079-0.742,0.079c-0.355,0-0.667-0.053-0.937-0.157s-0.495-0.251-0.677-0.438
			s-0.32-0.412-0.414-0.677s-0.14-0.556-0.14-0.875c0-0.328,0.069-0.631,0.208-0.909s0.351-0.518,0.636-0.718
			s0.64-0.357,1.066-0.472s0.926-0.171,1.5-0.171h0.909v-0.417c0-0.178-0.025-0.338-0.075-0.482
			c-0.05-0.143-0.131-0.265-0.243-0.365s-0.256-0.178-0.434-0.232s-0.396-0.082-0.656-0.082c-0.41,0-0.814,0.047-1.213,0.141
			c-0.399,0.093-0.785,0.224-1.159,0.393v-1.333c0.333-0.132,0.717-0.241,1.152-0.328s0.888-0.13,1.357-0.13
			c0.515,0,0.957,0.049,1.326,0.146c0.369,0.099,0.673,0.245,0.913,0.441s0.416,0.441,0.53,0.734
			c0.114,0.295,0.171,0.638,0.171,1.029V24.4H144.924z M144.685,21.331h-1.019c-0.283,0-0.522,0.027-0.718,0.082
			s-0.355,0.13-0.479,0.226s-0.213,0.206-0.27,0.332c-0.057,0.125-0.085,0.258-0.085,0.399c0,0.282,0.091,0.498,0.273,0.646
			c0.182,0.148,0.431,0.223,0.745,0.223c0.232,0,0.474-0.084,0.725-0.253s0.526-0.41,0.827-0.725V21.331z"/>
		<path d="M150.158,16.04h-1.962v-1.299h3.671v8.36h2.003V24.4h-5.913v-1.299h2.201V16.04z"/>
		<path d="M161.039,22.356c0,0.396-0.088,0.735-0.263,1.015c-0.175,0.281-0.408,0.509-0.697,0.684
			c-0.29,0.176-0.618,0.304-0.984,0.383c-0.367,0.08-0.742,0.12-1.125,0.12c-0.51,0-0.971-0.024-1.381-0.071
			c-0.41-0.049-0.797-0.118-1.162-0.209v-1.504c0.428,0.178,0.855,0.307,1.282,0.387c0.426,0.079,0.828,0.119,1.207,0.119
			c0.438,0,0.765-0.069,0.981-0.209c0.216-0.139,0.325-0.319,0.325-0.543c0-0.104-0.023-0.2-0.068-0.287s-0.131-0.17-0.256-0.25
			c-0.125-0.079-0.302-0.161-0.53-0.246c-0.228-0.084-0.526-0.179-0.896-0.283c-0.342-0.096-0.642-0.204-0.899-0.324
			c-0.257-0.121-0.471-0.264-0.639-0.428s-0.295-0.354-0.379-0.57c-0.084-0.217-0.126-0.471-0.126-0.763
			c0-0.282,0.064-0.549,0.191-0.8s0.318-0.471,0.571-0.66c0.253-0.188,0.568-0.338,0.947-0.447s0.82-0.164,1.326-0.164
			c0.438,0,0.825,0.022,1.162,0.068s0.636,0.096,0.896,0.15v1.36c-0.396-0.128-0.769-0.218-1.118-0.271
			c-0.349-0.052-0.694-0.078-1.036-0.078s-0.616,0.062-0.824,0.185s-0.311,0.294-0.311,0.513c0,0.104,0.021,0.198,0.062,0.28
			s0.122,0.162,0.243,0.239s0.29,0.158,0.506,0.242c0.216,0.085,0.502,0.177,0.858,0.277c0.401,0.114,0.738,0.236,1.012,0.365
			c0.273,0.131,0.493,0.277,0.66,0.441s0.286,0.351,0.359,0.561S161.039,22.088,161.039,22.356z"/>
		<path d="M161.956,27.203v-1.319h7.697v1.319H161.956z"/>
		<path d="M175.021,24.4l-0.041-0.909c-0.146,0.155-0.298,0.298-0.458,0.427c-0.16,0.131-0.335,0.243-0.526,0.339
			s-0.4,0.17-0.625,0.222c-0.226,0.053-0.473,0.079-0.742,0.079c-0.355,0-0.667-0.053-0.937-0.157s-0.495-0.251-0.677-0.438
			s-0.32-0.412-0.414-0.677s-0.14-0.556-0.14-0.875c0-0.328,0.069-0.631,0.208-0.909s0.351-0.518,0.636-0.718
			s0.64-0.357,1.066-0.472s0.926-0.171,1.5-0.171h0.909v-0.417c0-0.178-0.025-0.338-0.075-0.482
			c-0.05-0.143-0.131-0.265-0.243-0.365s-0.256-0.178-0.434-0.232s-0.396-0.082-0.656-0.082c-0.41,0-0.814,0.047-1.213,0.141
			c-0.399,0.093-0.785,0.224-1.159,0.393v-1.333c0.333-0.132,0.717-0.241,1.152-0.328s0.888-0.13,1.357-0.13
			c0.515,0,0.957,0.049,1.326,0.146c0.369,0.099,0.673,0.245,0.913,0.441s0.416,0.441,0.53,0.734
			c0.114,0.295,0.171,0.638,0.171,1.029V24.4H175.021z M174.781,21.331h-1.019c-0.283,0-0.522,0.027-0.718,0.082
			s-0.355,0.13-0.479,0.226s-0.213,0.206-0.27,0.332c-0.057,0.125-0.085,0.258-0.085,0.399c0,0.282,0.091,0.498,0.273,0.646
			c0.182,0.148,0.431,0.223,0.745,0.223c0.232,0,0.474-0.084,0.725-0.253s0.526-0.41,0.827-0.725V21.331z"/>
		<path d="M180.254,16.04h-1.962v-1.299h3.671v8.36h2.003V24.4h-5.913v-1.299h2.201V16.04z"/>
		<path d="M187.691,16.04h-1.962v-1.299h3.671v8.36h2.003V24.4h-5.913v-1.299h2.201V16.04z"/>
		<path d="M199.212,20.873c0,0.547-0.078,1.047-0.232,1.5c-0.155,0.454-0.378,0.843-0.67,1.166s-0.649,0.574-1.073,0.752
			s-0.907,0.267-1.449,0.267c-0.515,0-0.975-0.075-1.381-0.226s-0.75-0.375-1.032-0.674c-0.283-0.298-0.499-0.672-0.649-1.121
			c-0.15-0.448-0.226-0.972-0.226-1.568c0-0.552,0.079-1.053,0.236-1.504s0.383-0.836,0.677-1.155s0.653-0.566,1.077-0.741
			c0.424-0.176,0.902-0.264,1.436-0.264c0.52,0,0.982,0.076,1.388,0.229c0.406,0.153,0.75,0.38,1.032,0.681s0.498,0.673,0.646,1.118
			C199.138,19.775,199.212,20.29,199.212,20.873z M197.476,20.914c0-0.72-0.136-1.262-0.407-1.623
			c-0.271-0.363-0.671-0.544-1.2-0.544c-0.292,0-0.54,0.057-0.745,0.171s-0.374,0.27-0.506,0.469
			c-0.132,0.197-0.229,0.429-0.291,0.693s-0.092,0.547-0.092,0.848c0,0.725,0.146,1.271,0.438,1.637
			c0.292,0.367,0.69,0.551,1.196,0.551c0.278,0,0.52-0.056,0.725-0.168c0.205-0.111,0.372-0.266,0.499-0.465
			c0.127-0.197,0.223-0.432,0.287-0.7S197.476,21.224,197.476,20.914z"/>
		<path d="M206.202,24.134c-0.328,0.132-0.667,0.23-1.019,0.294s-0.718,0.096-1.101,0.096c-0.551,0-1.046-0.075-1.483-0.226
			s-0.809-0.374-1.114-0.67s-0.539-0.663-0.701-1.101s-0.243-0.943-0.243-1.518c0-0.556,0.088-1.06,0.263-1.511
			s0.423-0.836,0.742-1.155s0.703-0.565,1.152-0.738s0.949-0.26,1.5-0.26c0.451,0,0.831,0.023,1.138,0.072
			c0.308,0.047,0.584,0.107,0.831,0.181v1.62c-0.283-0.142-0.589-0.251-0.919-0.328s-0.644-0.116-0.94-0.116
			c-0.31,0-0.588,0.053-0.834,0.157s-0.454,0.251-0.622,0.438s-0.297,0.414-0.386,0.68c-0.089,0.268-0.133,0.56-0.133,0.879
			c0,0.333,0.048,0.631,0.144,0.896s0.231,0.489,0.407,0.673c0.175,0.186,0.386,0.326,0.632,0.424
			c0.246,0.099,0.52,0.147,0.82,0.147c0.146,0,0.3-0.011,0.461-0.03c0.162-0.021,0.324-0.051,0.485-0.09
			c0.162-0.038,0.321-0.083,0.479-0.133s0.304-0.104,0.441-0.164V24.134z"/>
		<path d="M212.325,24.4l-0.041-0.909c-0.146,0.155-0.298,0.298-0.458,0.427c-0.16,0.131-0.335,0.243-0.526,0.339
			s-0.4,0.17-0.625,0.222c-0.226,0.053-0.473,0.079-0.742,0.079c-0.355,0-0.667-0.053-0.937-0.157s-0.495-0.251-0.677-0.438
			s-0.32-0.412-0.414-0.677s-0.14-0.556-0.14-0.875c0-0.328,0.069-0.631,0.208-0.909s0.351-0.518,0.636-0.718
			s0.64-0.357,1.066-0.472s0.926-0.171,1.5-0.171h0.909v-0.417c0-0.178-0.025-0.338-0.075-0.482
			c-0.05-0.143-0.131-0.265-0.243-0.365s-0.256-0.178-0.434-0.232s-0.396-0.082-0.656-0.082c-0.41,0-0.814,0.047-1.213,0.141
			c-0.399,0.093-0.785,0.224-1.159,0.393v-1.333c0.333-0.132,0.717-0.241,1.152-0.328s0.888-0.13,1.357-0.13
			c0.515,0,0.957,0.049,1.326,0.146c0.369,0.099,0.673,0.245,0.913,0.441s0.416,0.441,0.53,0.734
			c0.114,0.295,0.171,0.638,0.171,1.029V24.4H212.325z M212.086,21.331h-1.019c-0.283,0-0.522,0.027-0.718,0.082
			s-0.355,0.13-0.479,0.226s-0.213,0.206-0.27,0.332c-0.057,0.125-0.085,0.258-0.085,0.399c0,0.282,0.091,0.498,0.273,0.646
			c0.182,0.148,0.431,0.223,0.745,0.223c0.232,0,0.474-0.084,0.725-0.253s0.526-0.41,0.827-0.725V21.331z"/>
		<path d="M221.304,24.332c-0.301,0.068-0.604,0.123-0.909,0.164s-0.595,0.062-0.868,0.062c-0.456,0-0.849-0.048-1.179-0.144
			s-0.604-0.241-0.82-0.438s-0.376-0.445-0.479-0.748c-0.103-0.304-0.154-0.665-0.154-1.084v-3.391h-1.866v-1.299h1.866v-1.777
			l1.709-0.444v2.222h2.7v1.299h-2.7v3.268c0,0.396,0.091,0.696,0.273,0.898c0.182,0.203,0.488,0.305,0.916,0.305
			c0.273,0,0.54-0.022,0.8-0.068s0.497-0.098,0.711-0.157V24.332z"/>
		<path d="M225.143,18.754h-1.962v-1.299h3.671v5.646h2.003V24.4h-5.913v-1.299h2.201V18.754z M226.988,15.555
			c0,0.15-0.027,0.292-0.082,0.424s-0.131,0.247-0.229,0.346c-0.098,0.098-0.213,0.175-0.345,0.232
			c-0.132,0.057-0.276,0.085-0.431,0.085s-0.3-0.028-0.434-0.085c-0.134-0.058-0.25-0.135-0.349-0.232
			c-0.098-0.099-0.174-0.214-0.229-0.346s-0.082-0.273-0.082-0.424s0.027-0.292,0.082-0.424s0.131-0.248,0.229-0.349
			s0.214-0.179,0.349-0.235c0.134-0.058,0.279-0.086,0.434-0.086s0.298,0.028,0.431,0.086c0.132,0.057,0.247,0.135,0.345,0.235
			s0.174,0.217,0.229,0.349S226.988,15.404,226.988,15.555z"/>
		<path d="M236.664,20.873c0,0.547-0.078,1.047-0.232,1.5c-0.155,0.454-0.378,0.843-0.67,1.166s-0.649,0.574-1.073,0.752
			s-0.907,0.267-1.449,0.267c-0.515,0-0.975-0.075-1.381-0.226s-0.75-0.375-1.032-0.674c-0.283-0.298-0.499-0.672-0.649-1.121
			c-0.15-0.448-0.226-0.972-0.226-1.568c0-0.552,0.079-1.053,0.236-1.504s0.383-0.836,0.677-1.155s0.653-0.566,1.077-0.741
			c0.424-0.176,0.902-0.264,1.436-0.264c0.52,0,0.982,0.076,1.388,0.229c0.406,0.153,0.75,0.38,1.032,0.681s0.498,0.673,0.646,1.118
			C236.589,19.775,236.664,20.29,236.664,20.873z M234.927,20.914c0-0.72-0.136-1.262-0.407-1.623
			c-0.271-0.363-0.671-0.544-1.2-0.544c-0.292,0-0.54,0.057-0.745,0.171s-0.374,0.27-0.506,0.469
			c-0.132,0.197-0.229,0.429-0.291,0.693s-0.092,0.547-0.092,0.848c0,0.725,0.146,1.271,0.438,1.637
			c0.292,0.367,0.69,0.551,1.196,0.551c0.278,0,0.52-0.056,0.725-0.168c0.205-0.111,0.372-0.266,0.499-0.465
			c0.127-0.197,0.223-0.432,0.287-0.7S234.927,21.224,234.927,20.914z"/>
		<path d="M242.307,24.4v-4.525c0-0.761-0.283-1.142-0.848-1.142c-0.283,0-0.553,0.114-0.81,0.342s-0.53,0.538-0.817,0.93V24.4
			h-1.668v-6.945h1.442l0.041,1.025c0.141-0.178,0.288-0.34,0.441-0.485s0.318-0.271,0.496-0.372
			c0.178-0.104,0.369-0.182,0.574-0.236s0.435-0.082,0.69-0.082c0.355,0,0.666,0.059,0.93,0.174
			c0.264,0.117,0.485,0.281,0.663,0.492c0.178,0.213,0.311,0.468,0.4,0.766c0.089,0.299,0.133,0.633,0.133,1.002V24.4H242.307z"/>
		<path d="M245.022,27.203v-1.319h7.697v1.319H245.022z"/>
		<path d="M255.296,17.455v4.525c0,0.378,0.071,0.664,0.212,0.857c0.141,0.194,0.355,0.291,0.643,0.291
			c0.278,0,0.546-0.115,0.803-0.346c0.257-0.229,0.53-0.541,0.817-0.933v-4.396h1.668V24.4h-1.442l-0.041-1.025
			c-0.146,0.178-0.294,0.34-0.444,0.485s-0.313,0.271-0.489,0.372c-0.175,0.104-0.367,0.183-0.574,0.24
			c-0.208,0.057-0.437,0.085-0.687,0.085c-0.355,0-0.667-0.058-0.933-0.175c-0.267-0.115-0.489-0.281-0.667-0.495
			s-0.311-0.471-0.4-0.769c-0.089-0.299-0.133-0.633-0.133-1.002v-4.662H255.296z"/>
		<path d="M265.468,24.4v-4.525c0-0.761-0.283-1.142-0.848-1.142c-0.283,0-0.553,0.114-0.81,0.342s-0.53,0.538-0.817,0.93V24.4
			h-1.668v-6.945h1.442l0.041,1.025c0.141-0.178,0.288-0.34,0.441-0.485s0.318-0.271,0.496-0.372
			c0.178-0.104,0.369-0.182,0.574-0.236s0.435-0.082,0.69-0.082c0.355,0,0.666,0.059,0.93,0.174
			c0.264,0.117,0.485,0.281,0.663,0.492c0.178,0.213,0.311,0.468,0.4,0.766c0.089,0.299,0.133,0.633,0.133,1.002V24.4H265.468z"/>
		<path d="M270.927,18.754h-1.962v-1.299h3.671v5.646h2.003V24.4h-5.913v-1.299h2.201V18.754z M272.773,15.555
			c0,0.15-0.027,0.292-0.082,0.424s-0.131,0.247-0.229,0.346c-0.098,0.098-0.213,0.175-0.345,0.232
			c-0.132,0.057-0.276,0.085-0.431,0.085s-0.3-0.028-0.434-0.085c-0.134-0.058-0.25-0.135-0.349-0.232
			c-0.098-0.099-0.174-0.214-0.229-0.346s-0.082-0.273-0.082-0.424s0.027-0.292,0.082-0.424s0.131-0.248,0.229-0.349
			s0.214-0.179,0.349-0.235c0.134-0.058,0.279-0.086,0.434-0.086s0.298,0.028,0.431,0.086c0.132,0.057,0.247,0.135,0.345,0.235
			s0.174,0.217,0.229,0.349S272.773,15.404,272.773,15.555z"/>
		<path d="M281.177,24.332c-0.301,0.068-0.604,0.123-0.909,0.164s-0.595,0.062-0.868,0.062c-0.456,0-0.849-0.048-1.179-0.144
			s-0.604-0.241-0.82-0.438s-0.376-0.445-0.479-0.748c-0.103-0.304-0.154-0.665-0.154-1.084v-3.391h-1.866v-1.299h1.866v-1.777
			l1.709-0.444v2.222h2.7v1.299h-2.7v3.268c0,0.396,0.091,0.696,0.273,0.898c0.182,0.203,0.488,0.305,0.916,0.305
			c0.273,0,0.54-0.022,0.8-0.068s0.497-0.098,0.711-0.157V24.332z"/>
		<path d="M288.46,22.356c0,0.396-0.088,0.735-0.263,1.015c-0.175,0.281-0.408,0.509-0.697,0.684
			c-0.29,0.176-0.618,0.304-0.984,0.383c-0.367,0.08-0.742,0.12-1.125,0.12c-0.51,0-0.971-0.024-1.381-0.071
			c-0.41-0.049-0.797-0.118-1.162-0.209v-1.504c0.428,0.178,0.855,0.307,1.282,0.387c0.426,0.079,0.828,0.119,1.207,0.119
			c0.438,0,0.765-0.069,0.981-0.209c0.216-0.139,0.325-0.319,0.325-0.543c0-0.104-0.023-0.2-0.068-0.287s-0.131-0.17-0.256-0.25
			c-0.125-0.079-0.302-0.161-0.53-0.246c-0.228-0.084-0.526-0.179-0.896-0.283c-0.342-0.096-0.642-0.204-0.899-0.324
			c-0.257-0.121-0.471-0.264-0.639-0.428s-0.295-0.354-0.379-0.57c-0.084-0.217-0.126-0.471-0.126-0.763
			c0-0.282,0.064-0.549,0.191-0.8s0.318-0.471,0.571-0.66c0.253-0.188,0.568-0.338,0.947-0.447s0.82-0.164,1.326-0.164
			c0.438,0,0.825,0.022,1.162,0.068s0.636,0.096,0.896,0.15v1.36c-0.396-0.128-0.769-0.218-1.118-0.271
			c-0.349-0.052-0.694-0.078-1.036-0.078s-0.616,0.062-0.824,0.185s-0.311,0.294-0.311,0.513c0,0.104,0.021,0.198,0.062,0.28
			s0.122,0.162,0.243,0.239s0.29,0.158,0.506,0.242c0.216,0.085,0.502,0.177,0.858,0.277c0.401,0.114,0.738,0.236,1.012,0.365
			c0.273,0.131,0.493,0.277,0.66,0.441s0.286,0.351,0.359,0.561S288.46,22.088,288.46,22.356z"/>
	</g>
</g>
<g id="Layer_1">
</g>
</svg>
