<?xml version="1.0" encoding="utf-8"?>
<!-- Generator: Adobe Illustrator 26.5.0, SVG Export Plug-In . SVG Version: 6.00 Build 0)  -->
<svg version="1.1" xmlns="http://www.w3.org/2000/svg" xmlns:xlink="http://www.w3.org/1999/xlink" x="0px" y="0px"
	 viewBox="0 0 631 146" enable-background="new 0 0 631 146" xml:space="preserve">
<symbol  id="PIPELINE" viewBox="-32 -12.266 64 24.531">
	<linearGradient id="SVGID_1_" gradientUnits="userSpaceOnUse" x1="0" y1="-12.2655" x2="1.502093e-15" y2="12.2655">
		<stop  offset="0" style="stop-color:#1B89B2"/>
		<stop  offset="1" style="stop-color:#51C8E8"/>
	</linearGradient>
	<path fill="url(#SVGID_1_)" d="M26.096,12.266h-51.448v0h0C-29.08,12.265-32,6.878-32,0s2.92-12.265,6.648-12.265h0v0h51.448
		C29.356-12.266,32-6.363,32,0S29.356,12.266,26.096,12.266z"/>
	<g>
		
			<linearGradient id="SVGID_00000004515689392869027150000007254072548450697140_" gradientUnits="userSpaceOnUse" x1="-31.461" y1="-6.1136" x2="-19.2338" y2="6.1136">
			<stop  offset="0" style="stop-color:#B3B4B4"/>
			<stop  offset="1" style="stop-color:#4F4F4F"/>
		</linearGradient>
		<ellipse fill="url(#SVGID_00000004515689392869027150000007254072548450697140_)" cx="-25.347" cy="0" rx="5.575" ry="10.879"/>
	</g>
</symbol>
<g id="Shapes">
	<rect fill="#FFFFFF" width="631" height="146"/>
	<g id="Wrench_tool_x28_s_x29_">
	</g>
	<g id="user2">
	</g>
	<g id="user2_1_">
	</g>
	<g id="user2_4_">
	</g>
	<g id="user2_3_">
	</g>
	<g id="user2_2_">
	</g>
	<g id="Internet_2">
	</g>
	<g id="Enterprise">
	</g>
	<g id="Tunnel__x28_stackable_x29_">
	</g>
	<g id="New_Symbol">
	</g>
	<g id="New_Symbol_1">
	</g>
	<g id="Files">
	</g>
	<g id="BlobBlock">
	</g>
	<g id="E_x5F_Enterprise">
	</g>
	<g id="E_x5F_AD_FS">
	</g>
	<g id="C_x5F_Azure_Active_Directory">
	</g>
	<g>
		<g opacity="0.24">
			<rect x="8.005" y="18.5" width="110.656" height="123.2"/>
			<rect x="8.005" y="18.5" opacity="0.5" width="110.656" height="123.2"/>
		</g>
		<g>
			<rect x="7.005" y="17.5" fill="#FFFFFF" width="110.656" height="123.2"/>
			<rect x="7.005" y="17.5" opacity="0.5" fill="#FFE452" width="110.656" height="123.2"/>
		</g>
	</g>
	<g id="abc3e3f9-d4db-41ad-8b60-378d1c3348f7">
		<g>
			<g>
				<path fill="#FFFFFF" d="M22.252,4.523H9.483c-0.557,0-1.008,0.451-1.008,1.008c0,0.001,0,0.001,0,0.002v27.533
					c-0.001,0.557,0.45,1.009,1.007,1.01c0.001,0,0.001,0,0.002,0H31.61c0.554-0.005,1.001-0.456,1-1.01V14.845
					c0.001-0.554-0.446-1.005-1-1.01h-7.343c-0.554-0.005-1-0.455-1-1.008V5.533c0.006-0.552-0.438-1.004-0.99-1.01
					C22.268,4.523,22.26,4.523,22.252,4.523z"/>
				
					<linearGradient id="SVGID_00000152243346441161404130000013424028589998179242_" gradientUnits="userSpaceOnUse" x1="-543.4533" y1="501.7" x2="-543.4533" y2="531.7" gradientTransform="matrix(1 0 0 -1 564 536)">
					<stop  offset="0" style="stop-color:#0078D4"/>
					<stop  offset="0.817" style="stop-color:#5EA0EF"/>
				</linearGradient>
				<path fill="url(#SVGID_00000152243346441161404130000013424028589998179242_)" d="M21.785,5.813v6.915
					c0.001,1.4,1.134,2.535,2.533,2.538h6.967v17.52H9.808V5.813H21.785 M22.273,4.3H9.32c-0.565,0-1.023,0.458-1.023,1.023
					c0,0.001,0,0.001,0,0.002v27.95C8.296,33.84,8.753,34.299,9.318,34.3c0.001,0,0.001,0,0.002,0h22.453
					c0.565,0,1.023-0.458,1.023-1.023c0-0.001,0-0.001,0-0.002V14.777c0-0.565-0.458-1.023-1.023-1.023l0,0h-7.455
					c-0.565-0.001-1.023-0.46-1.022-1.025v0V5.325C23.298,4.76,22.84,4.301,22.275,4.3C22.274,4.3,22.274,4.3,22.273,4.3z"/>
				<path fill="#0078D4" d="M32.407,13.957l-9.463-9.433v7.687c-0.006,0.958,0.765,1.74,1.723,1.747c0.001,0,0.001,0,0.002,0
					L32.407,13.957z"/>
			</g>
			<path fill="#5EA0EF" d="M13.218,17.96h14.655c0.555,0,1.005,0.45,1.005,1.005v0.225c0,0.555-0.45,1.005-1.005,1.005H13.218
				c-0.555,0-1.005-0.45-1.005-1.005v-0.225C12.213,18.41,12.663,17.96,13.218,17.96z"/>
			<path fill="#5EA0EF" d="M13.218,21.965h14.655c0.555,0,1.005,0.45,1.005,1.005v0.225c0,0.555-0.45,1.005-1.005,1.005H13.218
				c-0.555,0-1.005-0.45-1.005-1.005V22.97C12.213,22.415,12.663,21.965,13.218,21.965z"/>
			<path fill="#5EA0EF" d="M13.218,25.97h8.493c0.555,0,1.005,0.45,1.005,1.005V27.2c0,0.555-0.45,1.005-1.005,1.005h-8.493
				c-0.555,0-1.005-0.45-1.005-1.005v-0.225C12.213,26.42,12.663,25.97,13.218,25.97z"/>
		</g>
	</g>
	<g>
		<g opacity="0.24">
			<rect x="145.041" y="18.5" width="110.656" height="123.2"/>
			<rect x="145.041" y="18.5" opacity="0.5" width="110.656" height="123.2"/>
		</g>
		<g>
			<rect x="144.041" y="17.5" fill="#FFFFFF" width="110.656" height="123.2"/>
			<rect x="144.041" y="17.5" opacity="0.5" fill="#FFE452" width="110.656" height="123.2"/>
		</g>
	</g>
	<g id="abc3e3f9-d4db-41ad-8b60-378d1c3348f7_00000174599475976281826050000000659118757316085928_">
		<g>
			<g>
				<path fill="#FFFFFF" d="M159.287,4.523h-12.768c-0.557,0-1.008,0.451-1.008,1.008c0,0.001,0,0.001,0,0.002v27.533
					c-0.001,0.557,0.45,1.009,1.007,1.01c0.001,0,0.001,0,0.002,0h22.127c0.554-0.005,1.001-0.456,1-1.01V14.845
					c0.001-0.554-0.446-1.005-1-1.01h-7.343c-0.554-0.005-1-0.455-1-1.008V5.533c0.006-0.552-0.438-1.004-0.99-1.01
					C159.304,4.523,159.295,4.523,159.287,4.523z"/>
				
					<linearGradient id="SVGID_00000177445786224501313950000003991142680384684692_" gradientUnits="userSpaceOnUse" x1="-406.4179" y1="501.7" x2="-406.4179" y2="531.7" gradientTransform="matrix(1 0 0 -1 564 536)">
					<stop  offset="0" style="stop-color:#0078D4"/>
					<stop  offset="0.817" style="stop-color:#5EA0EF"/>
				</linearGradient>
				<path fill="url(#SVGID_00000177445786224501313950000003991142680384684692_)" d="M158.82,5.813v6.915
					c0.001,1.4,1.134,2.535,2.533,2.538h6.967v17.52h-21.477V5.813H158.82 M159.309,4.3h-12.953c-0.565,0-1.023,0.458-1.023,1.023
					c0,0.001,0,0.001,0,0.002v27.95c-0.001,0.565,0.456,1.024,1.022,1.025c0.001,0,0.001,0,0.002,0h22.453
					c0.565,0,1.023-0.458,1.023-1.023c0-0.001,0-0.001,0-0.002V14.777c0-0.565-0.458-1.023-1.023-1.023l0,0h-7.455
					c-0.565-0.001-1.023-0.46-1.022-1.025v0V5.325c0.001-0.565-0.456-1.024-1.022-1.025C159.31,4.3,159.309,4.3,159.309,4.3z"/>
				<path fill="#0078D4" d="M169.442,13.957l-9.463-9.433v7.687c-0.006,0.958,0.765,1.74,1.723,1.747c0.001,0,0.001,0,0.002,0
					L169.442,13.957z"/>
			</g>
			<path fill="#5EA0EF" d="M150.254,17.96h14.655c0.555,0,1.005,0.45,1.005,1.005v0.225c0,0.555-0.45,1.005-1.005,1.005h-14.655
				c-0.555,0-1.005-0.45-1.005-1.005v-0.225C149.249,18.41,149.699,17.96,150.254,17.96z"/>
			<path fill="#5EA0EF" d="M150.254,21.965h14.655c0.555,0,1.005,0.45,1.005,1.005v0.225c0,0.555-0.45,1.005-1.005,1.005h-14.655
				c-0.555,0-1.005-0.45-1.005-1.005V22.97C149.249,22.415,149.699,21.965,150.254,21.965z"/>
			<path fill="#5EA0EF" d="M150.254,25.97h8.493c0.555,0,1.005,0.45,1.005,1.005V27.2c0,0.555-0.45,1.005-1.005,1.005h-8.493
				c-0.555,0-1.005-0.45-1.005-1.005v-0.225C149.249,26.42,149.699,25.97,150.254,25.97z"/>
		</g>
	</g>
	<g>
		<g opacity="0.24">
			<rect x="280.805" y="18.5" width="110.656" height="123.2"/>
			<rect x="280.805" y="18.5" opacity="0.5" width="110.656" height="123.2"/>
		</g>
		<g>
			<rect x="279.805" y="17.5" fill="#FFFFFF" width="110.656" height="123.2"/>
			<rect x="279.805" y="17.5" opacity="0.5" fill="#FFE452" width="110.656" height="123.2"/>
		</g>
	</g>
	<g id="abc3e3f9-d4db-41ad-8b60-378d1c3348f7_00000081607534228375334810000009756243790436879005_">
		<g>
			<g>
				<path fill="#FFFFFF" d="M295.052,4.523h-12.768c-0.557,0-1.008,0.451-1.008,1.008c0,0.001,0,0.001,0,0.002v27.533
					c-0.001,0.557,0.45,1.009,1.007,1.01c0.001,0,0.001,0,0.002,0h22.127c0.554-0.005,1.001-0.456,1-1.01V14.845
					c0.001-0.554-0.446-1.005-1-1.01h-7.343c-0.554-0.005-1-0.455-1-1.008V5.533c0.006-0.552-0.438-1.004-0.99-1.01
					C295.068,4.523,295.06,4.523,295.052,4.523z"/>
				
					<linearGradient id="SVGID_00000061439063544756801640000014023640666224799880_" gradientUnits="userSpaceOnUse" x1="-270.6533" y1="501.7" x2="-270.6533" y2="531.7" gradientTransform="matrix(1 0 0 -1 564 536)">
					<stop  offset="0" style="stop-color:#0078D4"/>
					<stop  offset="0.817" style="stop-color:#5EA0EF"/>
				</linearGradient>
				<path fill="url(#SVGID_00000061439063544756801640000014023640666224799880_)" d="M294.585,5.813v6.915
					c0.001,1.4,1.134,2.535,2.533,2.538h6.967v17.52h-21.477V5.813H294.585 M295.073,4.3H282.12c-0.565,0-1.023,0.458-1.023,1.023
					c0,0.001,0,0.001,0,0.002v27.95c-0.001,0.565,0.456,1.024,1.022,1.025c0.001,0,0.001,0,0.002,0h22.453
					c0.565,0,1.023-0.458,1.023-1.023c0-0.001,0-0.001,0-0.002V14.777c0-0.565-0.458-1.023-1.023-1.023l0,0h-7.455
					c-0.565-0.001-1.023-0.46-1.022-1.025v0V5.325c0.001-0.565-0.457-1.024-1.022-1.025C295.074,4.3,295.074,4.3,295.073,4.3z"/>
				<path fill="#0078D4" d="M305.207,13.957l-9.463-9.433v7.687c-0.006,0.958,0.765,1.74,1.723,1.747c0.001,0,0.001,0,0.002,0
					L305.207,13.957z"/>
			</g>
			<path fill="#5EA0EF" d="M286.018,17.96h14.655c0.555,0,1.005,0.45,1.005,1.005v0.225c0,0.555-0.45,1.005-1.005,1.005h-14.655
				c-0.555,0-1.005-0.45-1.005-1.005v-0.225C285.013,18.41,285.463,17.96,286.018,17.96z"/>
			<path fill="#5EA0EF" d="M286.018,21.965h14.655c0.555,0,1.005,0.45,1.005,1.005v0.225c0,0.555-0.45,1.005-1.005,1.005h-14.655
				c-0.555,0-1.005-0.45-1.005-1.005V22.97C285.013,22.415,285.463,21.965,286.018,21.965z"/>
			<path fill="#5EA0EF" d="M286.018,25.97h8.493c0.555,0,1.005,0.45,1.005,1.005V27.2c0,0.555-0.45,1.005-1.005,1.005h-8.493
				c-0.555,0-1.005-0.45-1.005-1.005v-0.225C285.013,26.42,285.463,25.97,286.018,25.97z"/>
		</g>
	</g>
	<g>
		<g opacity="0.24">
			<rect x="417.841" y="18.5" width="110.656" height="123.2"/>
			<rect x="417.841" y="18.5" opacity="0.5" width="110.656" height="123.2"/>
		</g>
		<g>
			<rect x="416.841" y="17.5" fill="#FFFFFF" width="110.656" height="123.2"/>
			<rect x="416.841" y="17.5" opacity="0.5" fill="#FFE452" width="110.656" height="123.2"/>
		</g>
	</g>
	<g id="abc3e3f9-d4db-41ad-8b60-378d1c3348f7_00000119106299731088224020000017240229199786581895_">
		<g>
			<g>
				<path fill="#FFFFFF" d="M432.087,4.523h-12.768c-0.557,0-1.008,0.451-1.008,1.008c0,0.001,0,0.001,0,0.002v27.533
					c-0.001,0.557,0.45,1.009,1.007,1.01c0.001,0,0.001,0,0.002,0h22.127c0.554-0.005,1.001-0.456,1-1.01V14.845
					c0.001-0.554-0.446-1.005-1-1.01h-7.343c-0.554-0.005-1-0.455-1-1.008V5.533c0.006-0.552-0.438-1.004-0.99-1.01
					C432.104,4.523,432.095,4.523,432.087,4.523z"/>
				
					<linearGradient id="SVGID_00000128456167725302875200000014366929072443488143_" gradientUnits="userSpaceOnUse" x1="-133.6179" y1="501.7" x2="-133.6179" y2="531.7" gradientTransform="matrix(1 0 0 -1 564 536)">
					<stop  offset="0" style="stop-color:#0078D4"/>
					<stop  offset="0.817" style="stop-color:#5EA0EF"/>
				</linearGradient>
				<path fill="url(#SVGID_00000128456167725302875200000014366929072443488143_)" d="M431.62,5.813v6.915
					c0.001,1.4,1.134,2.535,2.533,2.538h6.967v17.52h-21.477V5.813H431.62 M432.109,4.3h-12.953c-0.565,0-1.023,0.458-1.023,1.023
					c0,0.001,0,0.001,0,0.002v27.95c-0.001,0.565,0.456,1.024,1.022,1.025c0.001,0,0.001,0,0.002,0h22.453
					c0.565,0,1.023-0.458,1.023-1.023c0-0.001,0-0.001,0-0.002V14.777c0-0.565-0.458-1.023-1.023-1.023l0,0h-7.455
					c-0.565-0.001-1.023-0.46-1.022-1.025v0V5.325c0.001-0.565-0.457-1.024-1.022-1.025C432.11,4.3,432.109,4.3,432.109,4.3z"/>
				<path fill="#0078D4" d="M442.242,13.957l-9.463-9.433v7.687c-0.006,0.958,0.765,1.74,1.723,1.747c0.001,0,0.001,0,0.002,0
					L442.242,13.957z"/>
			</g>
			<path fill="#5EA0EF" d="M423.054,17.96h14.655c0.555,0,1.005,0.45,1.005,1.005v0.225c0,0.555-0.45,1.005-1.005,1.005h-14.655
				c-0.555,0-1.005-0.45-1.005-1.005v-0.225C422.049,18.41,422.499,17.96,423.054,17.96z"/>
			<path fill="#5EA0EF" d="M423.054,21.965h14.655c0.555,0,1.005,0.45,1.005,1.005v0.225c0,0.555-0.45,1.005-1.005,1.005h-14.655
				c-0.555,0-1.005-0.45-1.005-1.005V22.97C422.049,22.415,422.499,21.965,423.054,21.965z"/>
			<path fill="#5EA0EF" d="M423.054,25.97h8.493c0.555,0,1.005,0.45,1.005,1.005V27.2c0,0.555-0.45,1.005-1.005,1.005h-8.493
				c-0.555,0-1.005-0.45-1.005-1.005v-0.225C422.049,26.42,422.499,25.97,423.054,25.97z"/>
		</g>
	</g>
	<path d="M568.075,76.313c0.321,0,0.619,0.06,0.893,0.179c0.274,0.119,0.512,0.28,0.714,0.482c0.202,0.202,0.369,0.446,0.5,0.732
		c0.131,0.286,0.19,0.583,0.179,0.893c0,0.321-0.06,0.619-0.179,0.893c-0.119,0.274-0.28,0.512-0.482,0.714s-0.446,0.369-0.732,0.5
		c-0.286,0.131-0.583,0.19-0.893,0.179c-0.321,0-0.619-0.06-0.893-0.179c-0.274-0.119-0.512-0.28-0.714-0.482
		c-0.202-0.202-0.369-0.446-0.5-0.732c-0.131-0.286-0.19-0.583-0.179-0.893c0-0.321,0.06-0.619,0.179-0.893
		c0.119-0.274,0.28-0.512,0.482-0.714c0.202-0.202,0.446-0.369,0.732-0.5C567.468,76.361,567.765,76.302,568.075,76.313z
		 M581.788,76.313c0.321,0,0.619,0.06,0.893,0.179c0.274,0.119,0.512,0.28,0.714,0.482c0.202,0.202,0.369,0.446,0.5,0.732
		c0.131,0.286,0.19,0.583,0.179,0.893c0,0.321-0.06,0.619-0.179,0.893c-0.119,0.274-0.28,0.512-0.482,0.714
		c-0.202,0.202-0.446,0.369-0.732,0.5c-0.286,0.131-0.583,0.19-0.893,0.179c-0.321,0-0.619-0.06-0.893-0.179
		c-0.274-0.119-0.512-0.28-0.714-0.482c-0.202-0.202-0.369-0.446-0.5-0.732c-0.131-0.286-0.19-0.583-0.179-0.893
		c0-0.321,0.06-0.619,0.179-0.893c0.119-0.274,0.28-0.512,0.482-0.714c0.202-0.202,0.446-0.369,0.732-0.5
		C581.181,76.361,581.478,76.302,581.788,76.313z M595.501,76.313c0.321,0,0.619,0.06,0.893,0.179
		c0.274,0.119,0.512,0.28,0.714,0.482c0.202,0.202,0.369,0.446,0.5,0.732c0.131,0.286,0.19,0.583,0.179,0.893
		c0,0.321-0.06,0.619-0.179,0.893c-0.119,0.274-0.28,0.512-0.482,0.714c-0.202,0.202-0.446,0.369-0.732,0.5
		c-0.286,0.131-0.583,0.19-0.893,0.179c-0.321,0-0.619-0.06-0.893-0.179s-0.512-0.28-0.714-0.482
		c-0.202-0.202-0.369-0.446-0.5-0.732c-0.131-0.286-0.19-0.583-0.179-0.893c0-0.321,0.06-0.619,0.179-0.893
		c0.119-0.274,0.28-0.512,0.482-0.714c0.202-0.202,0.446-0.369,0.732-0.5C594.894,76.361,595.191,76.302,595.501,76.313z"/>
</g>
<g id="Text">
	<g>
		<path fill="#2F2F2F" d="M34.486,48.836h-3.828v3.391h3.541v1.032h-3.541V57.6H29.51v-9.803h4.977V48.836z"/>
		<path fill="#2F2F2F" d="M36.623,48.822c-0.201,0-0.372-0.068-0.513-0.205s-0.212-0.31-0.212-0.52c0-0.209,0.071-0.384,0.212-0.522
			c0.141-0.14,0.312-0.209,0.513-0.209c0.205,0,0.379,0.069,0.523,0.209c0.144,0.139,0.215,0.313,0.215,0.522
			c0,0.201-0.072,0.372-0.215,0.513C37.002,48.752,36.828,48.822,36.623,48.822z M37.169,57.6h-1.121v-7h1.121V57.6z"/>
		<path fill="#2F2F2F" d="M40.413,57.6h-1.121V47.236h1.121V57.6z"/>
		<path fill="#2F2F2F" d="M48.251,54.38h-4.942c0.018,0.779,0.228,1.381,0.629,1.805s0.953,0.636,1.654,0.636
			c0.789,0,1.513-0.26,2.174-0.779v1.053c-0.615,0.447-1.429,0.67-2.44,0.67c-0.989,0-1.766-0.317-2.331-0.953
			s-0.848-1.53-0.848-2.684c0-1.089,0.309-1.977,0.926-2.662c0.618-0.687,1.384-1.029,2.3-1.029s1.625,0.297,2.126,0.889
			c0.501,0.593,0.752,1.415,0.752,2.468V54.38z M47.103,53.43c-0.004-0.646-0.161-1.15-0.468-1.511
			c-0.308-0.359-0.735-0.54-1.282-0.54c-0.529,0-0.978,0.189-1.347,0.567c-0.369,0.379-0.597,0.873-0.684,1.483H47.103z"/>
		<path fill="#2F2F2F" d="M59.592,57.6h-1.121v-4.033c0-1.458-0.542-2.188-1.627-2.188c-0.547,0-1.007,0.211-1.381,0.633
			c-0.374,0.421-0.561,0.963-0.561,1.623V57.6h-1.121V47.236h1.121v4.525h0.027c0.538-0.884,1.303-1.326,2.297-1.326
			c1.577,0,2.365,0.95,2.365,2.851V57.6z"/>
		<path fill="#2F2F2F" d="M67.295,54.38h-4.942c0.018,0.779,0.228,1.381,0.629,1.805s0.953,0.636,1.654,0.636
			c0.789,0,1.513-0.26,2.174-0.779v1.053c-0.615,0.447-1.429,0.67-2.44,0.67c-0.989,0-1.766-0.317-2.331-0.953
			s-0.848-1.53-0.848-2.684c0-1.089,0.309-1.977,0.926-2.662c0.618-0.687,1.384-1.029,2.3-1.029s1.625,0.297,2.126,0.889
			c0.501,0.593,0.752,1.415,0.752,2.468V54.38z M66.147,53.43c-0.004-0.646-0.161-1.15-0.468-1.511
			c-0.308-0.359-0.735-0.54-1.282-0.54c-0.529,0-0.978,0.189-1.347,0.567c-0.369,0.379-0.597,0.873-0.684,1.483H66.147z"/>
		<path fill="#2F2F2F" d="M73.934,57.6h-1.121v-1.094h-0.027c-0.488,0.839-1.206,1.258-2.153,1.258
			c-0.697,0-1.243-0.185-1.637-0.554s-0.591-0.858-0.591-1.47c0-1.308,0.77-2.068,2.311-2.283l2.099-0.294
			c0-1.189-0.481-1.784-1.442-1.784c-0.843,0-1.604,0.287-2.283,0.861v-1.148c0.688-0.438,1.481-0.656,2.379-0.656
			c1.645,0,2.468,0.871,2.468,2.611V57.6z M72.813,54.059l-1.688,0.232c-0.52,0.073-0.912,0.202-1.176,0.387
			s-0.396,0.512-0.396,0.98c0,0.342,0.122,0.621,0.366,0.838c0.244,0.216,0.568,0.324,0.974,0.324c0.556,0,1.015-0.194,1.377-0.584
			s0.543-0.883,0.543-1.48V54.059z"/>
		<path fill="#2F2F2F" d="M82.003,57.6h-1.121V56.41h-0.027c-0.52,0.902-1.322,1.354-2.406,1.354c-0.879,0-1.583-0.313-2.109-0.939
			c-0.526-0.627-0.79-1.48-0.79-2.561c0-1.157,0.292-2.085,0.875-2.782s1.36-1.046,2.331-1.046c0.961,0,1.661,0.379,2.099,1.135
			h0.027v-4.334h1.121V57.6z M80.882,54.435v-1.032c0-0.564-0.187-1.043-0.561-1.436c-0.374-0.392-0.848-0.588-1.422-0.588
			c-0.684,0-1.221,0.251-1.613,0.752c-0.392,0.502-0.588,1.194-0.588,2.078c0,0.807,0.188,1.443,0.564,1.911
			c0.376,0.467,0.881,0.7,1.514,0.7c0.625,0,1.131-0.226,1.521-0.677S80.882,55.123,80.882,54.435z"/>
		<path fill="#2F2F2F" d="M89.824,54.38h-4.942c0.018,0.779,0.228,1.381,0.629,1.805s0.953,0.636,1.654,0.636
			c0.789,0,1.513-0.26,2.174-0.779v1.053c-0.615,0.447-1.429,0.67-2.44,0.67c-0.989,0-1.766-0.317-2.331-0.953
			s-0.848-1.53-0.848-2.684c0-1.089,0.309-1.977,0.926-2.662c0.618-0.687,1.384-1.029,2.3-1.029s1.625,0.297,2.126,0.889
			c0.501,0.593,0.752,1.415,0.752,2.468V54.38z M88.676,53.43c-0.004-0.646-0.161-1.15-0.468-1.511
			c-0.308-0.359-0.735-0.54-1.282-0.54c-0.529,0-0.978,0.189-1.347,0.567c-0.369,0.379-0.597,0.873-0.684,1.483H88.676z"/>
		<path fill="#2F2F2F" d="M95.157,51.734c-0.196-0.15-0.479-0.226-0.848-0.226c-0.479,0-0.878,0.226-1.2,0.677
			s-0.482,1.066-0.482,1.846V57.6h-1.121v-7h1.121v1.442h0.027c0.16-0.492,0.403-0.876,0.731-1.151
			c0.328-0.276,0.695-0.414,1.101-0.414c0.292,0,0.515,0.032,0.67,0.096V51.734z"/>
	</g>
	<g>
		<path fill="#2F2F2F" d="M43.406,111.095v3.705h-1.148v-9.803h2.693c1.048,0,1.86,0.255,2.437,0.766s0.865,1.23,0.865,2.16
			s-0.32,1.691-0.96,2.283s-1.505,0.889-2.594,0.889H43.406z M43.406,106.037v4.02h1.203c0.793,0,1.398-0.181,1.815-0.543
			s0.625-0.874,0.625-1.535c0-1.294-0.766-1.941-2.297-1.941H43.406z"/>
		<path fill="#2F2F2F" d="M54.659,114.8h-1.121v-1.094H53.51c-0.488,0.838-1.206,1.258-2.153,1.258
			c-0.697,0-1.243-0.185-1.637-0.554s-0.591-0.859-0.591-1.47c0-1.308,0.77-2.069,2.311-2.283l2.099-0.294
			c0-1.189-0.481-1.784-1.442-1.784c-0.843,0-1.604,0.287-2.283,0.861v-1.148c0.688-0.438,1.481-0.656,2.379-0.656
			c1.645,0,2.468,0.871,2.468,2.611V114.8z M53.538,111.259l-1.688,0.232c-0.52,0.073-0.912,0.202-1.176,0.386
			s-0.396,0.512-0.396,0.981c0,0.342,0.122,0.621,0.366,0.837s0.568,0.325,0.974,0.325c0.556,0,1.015-0.195,1.377-0.584
			s0.543-0.883,0.543-1.48V111.259z"/>
		<path fill="#2F2F2F" d="M62.728,114.24c0,2.57-1.23,3.855-3.691,3.855c-0.866,0-1.623-0.164-2.27-0.492v-1.121
			c0.789,0.438,1.541,0.656,2.256,0.656c1.723,0,2.584-0.916,2.584-2.748v-0.766h-0.027c-0.533,0.893-1.335,1.34-2.406,1.34
			c-0.871,0-1.571-0.311-2.102-0.933s-0.796-1.457-0.796-2.505c0-1.189,0.286-2.135,0.858-2.837s1.354-1.053,2.348-1.053
			c0.943,0,1.643,0.378,2.099,1.135h0.027V107.8h1.121V114.24z M61.606,111.635v-1.032c0-0.556-0.188-1.032-0.564-1.429
			s-0.844-0.595-1.405-0.595c-0.693,0-1.235,0.252-1.627,0.755s-0.588,1.209-0.588,2.116c0,0.779,0.188,1.402,0.564,1.87
			s0.874,0.701,1.494,0.701c0.629,0,1.141-0.223,1.535-0.67S61.606,112.333,61.606,111.635z"/>
		<path fill="#2F2F2F" d="M70.549,111.581h-4.942c0.018,0.779,0.228,1.381,0.629,1.805s0.953,0.636,1.654,0.636
			c0.789,0,1.513-0.26,2.174-0.779v1.053c-0.615,0.447-1.429,0.67-2.44,0.67c-0.989,0-1.766-0.318-2.331-0.954
			s-0.848-1.53-0.848-2.683c0-1.089,0.309-1.977,0.926-2.663s1.384-1.029,2.3-1.029s1.625,0.296,2.126,0.889
			s0.752,1.415,0.752,2.468V111.581z M69.4,110.63c-0.004-0.647-0.161-1.151-0.468-1.511s-0.735-0.54-1.282-0.54
			c-0.529,0-0.978,0.189-1.347,0.567s-0.597,0.873-0.684,1.483H69.4z"/>
		<path fill="#2F2F2F" d="M81.917,109.858c0,0.82-0.074,1.547-0.222,2.181s-0.362,1.168-0.643,1.603s-0.625,0.766-1.032,0.991
			s-0.872,0.338-1.391,0.338c-0.492,0-0.931-0.108-1.316-0.325s-0.71-0.532-0.974-0.947s-0.465-0.924-0.602-1.528
			s-0.205-1.295-0.205-2.075c0-0.857,0.072-1.613,0.215-2.27s0.354-1.207,0.632-1.651s0.623-0.779,1.036-1.005
			s0.885-0.338,1.418-0.338C80.889,104.833,81.917,106.508,81.917,109.858z M80.769,109.967c0-2.789-0.663-4.184-1.989-4.184
			c-1.399,0-2.099,1.419-2.099,4.259c0,2.648,0.686,3.972,2.058,3.972C80.092,114.014,80.769,112.665,80.769,109.967z"/>
	</g>
	<g>
		<path fill="#2F2F2F" d="M190.409,53.895V57.6h-1.148v-9.803h2.693c1.048,0,1.86,0.256,2.437,0.766
			c0.577,0.511,0.865,1.23,0.865,2.16s-0.32,1.691-0.96,2.283c-0.64,0.593-1.505,0.889-2.594,0.889H190.409z M190.409,48.836v4.02
			h1.203c0.793,0,1.398-0.181,1.815-0.543s0.625-0.874,0.625-1.535c0-1.294-0.766-1.941-2.297-1.941H190.409z"/>
		<path fill="#2F2F2F" d="M201.785,48.836h-3.828v3.391h3.541v1.032h-3.541V57.6h-1.148v-9.803h4.977V48.836z"/>
		<path fill="#2F2F2F" d="M202.948,57.203V55.85c0.155,0.137,0.341,0.26,0.557,0.369s0.444,0.202,0.684,0.277
			s0.479,0.133,0.721,0.174s0.465,0.062,0.67,0.062c0.707,0,1.234-0.131,1.583-0.393c0.349-0.263,0.523-0.64,0.523-1.132
			c0-0.264-0.058-0.494-0.174-0.69c-0.116-0.195-0.277-0.375-0.482-0.536c-0.205-0.162-0.448-0.317-0.728-0.465
			c-0.28-0.148-0.582-0.305-0.906-0.469c-0.342-0.173-0.661-0.349-0.957-0.526s-0.554-0.373-0.772-0.588
			c-0.219-0.214-0.391-0.457-0.516-0.728c-0.125-0.271-0.188-0.589-0.188-0.954c0-0.446,0.098-0.835,0.294-1.165
			c0.196-0.331,0.454-0.603,0.772-0.817c0.319-0.214,0.683-0.373,1.09-0.479c0.408-0.104,0.824-0.157,1.248-0.157
			c0.966,0,1.67,0.116,2.112,0.349v1.292c-0.579-0.4-1.322-0.602-2.229-0.602c-0.25,0-0.501,0.026-0.752,0.079
			c-0.25,0.052-0.474,0.138-0.67,0.256c-0.196,0.119-0.355,0.271-0.479,0.458c-0.123,0.188-0.185,0.415-0.185,0.684
			c0,0.251,0.047,0.468,0.14,0.649c0.093,0.183,0.231,0.349,0.414,0.499s0.404,0.297,0.667,0.438
			c0.262,0.142,0.564,0.297,0.906,0.465c0.351,0.174,0.684,0.355,0.998,0.547s0.59,0.403,0.827,0.636s0.425,0.49,0.564,0.772
			c0.139,0.283,0.208,0.606,0.208,0.971c0,0.483-0.095,0.893-0.284,1.228s-0.444,0.607-0.766,0.816
			c-0.321,0.21-0.691,0.361-1.111,0.455c-0.419,0.093-0.861,0.14-1.326,0.14c-0.155,0-0.346-0.013-0.574-0.037
			c-0.228-0.025-0.46-0.062-0.697-0.109s-0.461-0.107-0.673-0.178C203.246,57.368,203.076,57.29,202.948,57.203z"/>
	</g>
	<g>
		<path fill="#2F2F2F" d="M180.441,111.095v3.705h-1.148v-9.803h2.693c1.048,0,1.86,0.255,2.437,0.766s0.865,1.23,0.865,2.16
			s-0.32,1.691-0.96,2.283s-1.505,0.889-2.594,0.889H180.441z M180.441,106.037v4.02h1.203c0.793,0,1.398-0.181,1.815-0.543
			s0.625-0.874,0.625-1.535c0-1.294-0.766-1.941-2.297-1.941H180.441z"/>
		<path fill="#2F2F2F" d="M191.694,114.8h-1.121v-1.094h-0.027c-0.488,0.838-1.206,1.258-2.153,1.258
			c-0.697,0-1.243-0.185-1.637-0.554s-0.591-0.859-0.591-1.47c0-1.308,0.77-2.069,2.311-2.283l2.099-0.294
			c0-1.189-0.481-1.784-1.442-1.784c-0.843,0-1.604,0.287-2.283,0.861v-1.148c0.688-0.438,1.481-0.656,2.379-0.656
			c1.645,0,2.468,0.871,2.468,2.611V114.8z M190.573,111.259l-1.688,0.232c-0.52,0.073-0.912,0.202-1.176,0.386
			s-0.396,0.512-0.396,0.981c0,0.342,0.122,0.621,0.366,0.837s0.568,0.325,0.974,0.325c0.556,0,1.015-0.195,1.377-0.584
			s0.543-0.883,0.543-1.48V111.259z"/>
		<path fill="#2F2F2F" d="M199.763,114.24c0,2.57-1.23,3.855-3.691,3.855c-0.866,0-1.623-0.164-2.27-0.492v-1.121
			c0.789,0.438,1.541,0.656,2.256,0.656c1.723,0,2.584-0.916,2.584-2.748v-0.766h-0.027c-0.533,0.893-1.335,1.34-2.406,1.34
			c-0.871,0-1.571-0.311-2.102-0.933s-0.796-1.457-0.796-2.505c0-1.189,0.286-2.135,0.858-2.837s1.354-1.053,2.348-1.053
			c0.943,0,1.643,0.378,2.099,1.135h0.027V107.8h1.121V114.24z M198.642,111.635v-1.032c0-0.556-0.188-1.032-0.564-1.429
			s-0.844-0.595-1.405-0.595c-0.693,0-1.235,0.252-1.627,0.755s-0.588,1.209-0.588,2.116c0,0.779,0.188,1.402,0.564,1.87
			s0.874,0.701,1.494,0.701c0.629,0,1.141-0.223,1.535-0.67S198.642,112.333,198.642,111.635z"/>
		<path fill="#2F2F2F" d="M207.584,111.581h-4.942c0.018,0.779,0.228,1.381,0.629,1.805s0.953,0.636,1.654,0.636
			c0.789,0,1.513-0.26,2.174-0.779v1.053c-0.615,0.447-1.429,0.67-2.44,0.67c-0.989,0-1.766-0.318-2.331-0.954
			s-0.848-1.53-0.848-2.683c0-1.089,0.309-1.977,0.926-2.663s1.384-1.029,2.3-1.029s1.625,0.296,2.126,0.889
			s0.752,1.415,0.752,2.468V111.581z M206.436,110.63c-0.004-0.647-0.161-1.151-0.468-1.511s-0.735-0.54-1.282-0.54
			c-0.529,0-0.978,0.189-1.347,0.567s-0.597,0.873-0.684,1.483H206.436z"/>
		<path fill="#2F2F2F" d="M216.929,114.8h-1.121v-8.47c-0.086,0.086-0.213,0.186-0.379,0.297s-0.353,0.222-0.561,0.332
			s-0.426,0.212-0.656,0.308s-0.455,0.171-0.673,0.226v-1.135c0.246-0.068,0.507-0.161,0.783-0.277s0.547-0.246,0.813-0.39
			s0.519-0.294,0.755-0.451s0.442-0.311,0.615-0.461h0.424V114.8z"/>
	</g>
	<g>
		<path fill="#2F2F2F" d="M327.603,56.93c-0.984,0.557-2.078,0.834-3.281,0.834c-1.399,0-2.53-0.451-3.394-1.354
			s-1.295-2.096-1.295-3.582c0-1.518,0.479-2.763,1.439-3.735c0.959-0.974,2.175-1.46,3.647-1.46c1.066,0,1.962,0.174,2.687,0.52
			v1.271c-0.793-0.501-1.732-0.752-2.816-0.752c-1.098,0-1.999,0.379-2.7,1.135c-0.702,0.757-1.053,1.736-1.053,2.939
			c0,1.24,0.326,2.214,0.978,2.923c0.652,0.708,1.536,1.062,2.652,1.062c0.766,0,1.429-0.152,1.989-0.458v-2.748h-2.146v-1.039
			h3.295V56.93z"/>
		<path fill="#2F2F2F" d="M337.442,57.6h-1.271l-1.039-2.748h-4.156l-0.978,2.748h-1.278l3.76-9.803h1.189L337.442,57.6z
			 M334.755,53.819l-1.538-4.177c-0.05-0.137-0.1-0.355-0.15-0.656h-0.027c-0.045,0.278-0.098,0.497-0.157,0.656l-1.524,4.177
			H334.755z"/>
		<path fill="#2F2F2F" d="M348.782,57.6h-1.142v-6.576c0-0.52,0.032-1.155,0.096-1.907h-0.027c-0.109,0.442-0.208,0.759-0.294,0.95
			l-3.35,7.533h-0.561l-3.343-7.479c-0.096-0.219-0.194-0.554-0.294-1.005h-0.027c0.037,0.393,0.055,1.032,0.055,1.921V57.6h-1.107
			v-9.803h1.518l3.008,6.836c0.232,0.524,0.383,0.916,0.451,1.176h0.041c0.196-0.537,0.353-0.938,0.472-1.203l3.069-6.809h1.436
			V57.6z"/>
	</g>
	<g>
		<path fill="#2F2F2F" d="M316.206,111.095v3.705h-1.148v-9.803h2.693c1.048,0,1.86,0.255,2.437,0.766s0.865,1.23,0.865,2.16
			s-0.32,1.691-0.96,2.283s-1.505,0.889-2.594,0.889H316.206z M316.206,106.037v4.02h1.203c0.793,0,1.398-0.181,1.815-0.543
			s0.625-0.874,0.625-1.535c0-1.294-0.766-1.941-2.297-1.941H316.206z"/>
		<path fill="#2F2F2F" d="M327.458,114.8h-1.121v-1.094h-0.027c-0.488,0.838-1.206,1.258-2.153,1.258
			c-0.697,0-1.243-0.185-1.637-0.554s-0.591-0.859-0.591-1.47c0-1.308,0.77-2.069,2.311-2.283l2.099-0.294
			c0-1.189-0.481-1.784-1.442-1.784c-0.843,0-1.604,0.287-2.283,0.861v-1.148c0.688-0.438,1.481-0.656,2.379-0.656
			c1.645,0,2.468,0.871,2.468,2.611V114.8z M326.337,111.259l-1.688,0.232c-0.52,0.073-0.912,0.202-1.176,0.386
			s-0.396,0.512-0.396,0.981c0,0.342,0.122,0.621,0.366,0.837s0.568,0.325,0.974,0.325c0.556,0,1.015-0.195,1.377-0.584
			s0.543-0.883,0.543-1.48V111.259z"/>
		<path fill="#2F2F2F" d="M335.527,114.24c0,2.57-1.23,3.855-3.691,3.855c-0.866,0-1.623-0.164-2.27-0.492v-1.121
			c0.789,0.438,1.541,0.656,2.256,0.656c1.723,0,2.584-0.916,2.584-2.748v-0.766h-0.027c-0.533,0.893-1.335,1.34-2.406,1.34
			c-0.871,0-1.571-0.311-2.102-0.933s-0.796-1.457-0.796-2.505c0-1.189,0.286-2.135,0.858-2.837s1.354-1.053,2.348-1.053
			c0.943,0,1.643,0.378,2.099,1.135h0.027V107.8h1.121V114.24z M334.406,111.635v-1.032c0-0.556-0.188-1.032-0.564-1.429
			s-0.844-0.595-1.405-0.595c-0.693,0-1.235,0.252-1.627,0.755s-0.588,1.209-0.588,2.116c0,0.779,0.188,1.402,0.564,1.87
			s0.874,0.701,1.494,0.701c0.629,0,1.141-0.223,1.535-0.67S334.406,112.333,334.406,111.635z"/>
		<path fill="#2F2F2F" d="M343.349,111.581h-4.942c0.018,0.779,0.228,1.381,0.629,1.805s0.953,0.636,1.654,0.636
			c0.789,0,1.513-0.26,2.174-0.779v1.053c-0.615,0.447-1.429,0.67-2.44,0.67c-0.989,0-1.766-0.318-2.331-0.954
			s-0.848-1.53-0.848-2.683c0-1.089,0.309-1.977,0.926-2.663s1.384-1.029,2.3-1.029s1.625,0.296,2.126,0.889
			s0.752,1.415,0.752,2.468V111.581z M342.2,110.63c-0.004-0.647-0.161-1.151-0.468-1.511s-0.735-0.54-1.282-0.54
			c-0.529,0-0.978,0.189-1.347,0.567s-0.597,0.873-0.684,1.483H342.2z"/>
		<path fill="#2F2F2F" d="M353.021,107.568c0-0.301-0.047-0.563-0.14-0.786s-0.221-0.409-0.383-0.557s-0.352-0.259-0.571-0.332
			s-0.456-0.109-0.711-0.109c-0.219,0-0.433,0.03-0.643,0.089s-0.414,0.141-0.612,0.246s-0.39,0.23-0.574,0.376
			s-0.356,0.308-0.516,0.485v-1.203c0.314-0.305,0.667-0.539,1.056-0.701s0.865-0.243,1.425-0.243c0.401,0,0.772,0.058,1.114,0.174
			s0.638,0.286,0.889,0.509s0.448,0.499,0.591,0.827s0.215,0.704,0.215,1.128c0,0.387-0.044,0.738-0.133,1.053
			s-0.223,0.611-0.403,0.889s-0.407,0.544-0.68,0.8s-0.595,0.515-0.964,0.779c-0.46,0.328-0.84,0.608-1.138,0.841
			s-0.536,0.45-0.711,0.653s-0.298,0.406-0.369,0.608s-0.106,0.437-0.106,0.701h4.881v1.005h-6.05v-0.485
			c0-0.419,0.045-0.789,0.137-1.107s0.242-0.622,0.451-0.909s0.484-0.574,0.824-0.861s0.755-0.611,1.248-0.971
			c0.355-0.255,0.653-0.499,0.892-0.731s0.432-0.465,0.578-0.697s0.25-0.468,0.311-0.708S353.021,107.837,353.021,107.568z"/>
	</g>
	<g>
		<path fill="#2F2F2F" d="M453.204,57.203V55.85c0.155,0.137,0.341,0.26,0.557,0.369s0.444,0.202,0.684,0.277
			s0.479,0.133,0.721,0.174s0.465,0.062,0.67,0.062c0.707,0,1.234-0.131,1.583-0.393c0.349-0.263,0.523-0.64,0.523-1.132
			c0-0.264-0.058-0.494-0.174-0.69c-0.116-0.195-0.277-0.375-0.482-0.536c-0.205-0.162-0.448-0.317-0.728-0.465
			c-0.28-0.148-0.582-0.305-0.906-0.469c-0.342-0.173-0.661-0.349-0.957-0.526s-0.554-0.373-0.772-0.588
			c-0.219-0.214-0.391-0.457-0.516-0.728c-0.125-0.271-0.188-0.589-0.188-0.954c0-0.446,0.098-0.835,0.294-1.165
			c0.196-0.331,0.454-0.603,0.772-0.817c0.319-0.214,0.683-0.373,1.09-0.479c0.408-0.104,0.824-0.157,1.248-0.157
			c0.966,0,1.67,0.116,2.112,0.349v1.292c-0.579-0.4-1.322-0.602-2.229-0.602c-0.25,0-0.501,0.026-0.752,0.079
			c-0.25,0.052-0.474,0.138-0.67,0.256c-0.196,0.119-0.355,0.271-0.479,0.458c-0.123,0.188-0.185,0.415-0.185,0.684
			c0,0.251,0.047,0.468,0.14,0.649c0.093,0.183,0.231,0.349,0.414,0.499s0.404,0.297,0.667,0.438
			c0.262,0.142,0.564,0.297,0.906,0.465c0.351,0.174,0.684,0.355,0.998,0.547s0.59,0.403,0.827,0.636s0.425,0.49,0.564,0.772
			c0.139,0.283,0.208,0.606,0.208,0.971c0,0.483-0.095,0.893-0.284,1.228s-0.444,0.607-0.766,0.816
			c-0.321,0.21-0.691,0.361-1.111,0.455c-0.419,0.093-0.861,0.14-1.326,0.14c-0.155,0-0.346-0.013-0.574-0.037
			c-0.228-0.025-0.46-0.062-0.697-0.109s-0.461-0.107-0.673-0.178C453.501,57.368,453.331,57.29,453.204,57.203z"/>
		<path fill="#2F2F2F" d="M468.287,56.93c-0.984,0.557-2.078,0.834-3.281,0.834c-1.399,0-2.53-0.451-3.394-1.354
			s-1.295-2.096-1.295-3.582c0-1.518,0.479-2.763,1.439-3.735c0.959-0.974,2.175-1.46,3.647-1.46c1.066,0,1.962,0.174,2.687,0.52
			v1.271c-0.793-0.501-1.732-0.752-2.816-0.752c-1.098,0-1.999,0.379-2.7,1.135c-0.702,0.757-1.053,1.736-1.053,2.939
			c0,1.24,0.326,2.214,0.978,2.923c0.652,0.708,1.536,1.062,2.652,1.062c0.766,0,1.429-0.152,1.989-0.458v-2.748h-2.146v-1.039
			h3.295V56.93z"/>
		<path fill="#2F2F2F" d="M478.126,57.6h-1.271l-1.039-2.748h-4.156l-0.978,2.748h-1.278l3.76-9.803h1.189L478.126,57.6z
			 M475.44,53.819l-1.538-4.177c-0.05-0.137-0.1-0.355-0.15-0.656h-0.027c-0.045,0.278-0.098,0.497-0.157,0.656l-1.524,4.177H475.44
			z"/>
		<path fill="#2F2F2F" d="M489.466,57.6h-1.142v-6.576c0-0.52,0.032-1.155,0.096-1.907h-0.027c-0.109,0.442-0.208,0.759-0.294,0.95
			l-3.35,7.533h-0.561l-3.343-7.479c-0.096-0.219-0.194-0.554-0.294-1.005h-0.027c0.037,0.393,0.055,1.032,0.055,1.921V57.6h-1.107
			v-9.803h1.518l3.008,6.836c0.232,0.524,0.383,0.916,0.451,1.176h0.041c0.196-0.537,0.353-0.938,0.472-1.203l3.069-6.809h1.436
			V57.6z"/>
	</g>
	<g>
		<path fill="#2F2F2F" d="M453.241,111.095v3.705h-1.148v-9.803h2.693c1.048,0,1.86,0.255,2.437,0.766s0.865,1.23,0.865,2.16
			s-0.32,1.691-0.96,2.283s-1.505,0.889-2.594,0.889H453.241z M453.241,106.037v4.02h1.203c0.793,0,1.398-0.181,1.815-0.543
			s0.625-0.874,0.625-1.535c0-1.294-0.766-1.941-2.297-1.941H453.241z"/>
		<path fill="#2F2F2F" d="M464.494,114.8h-1.121v-1.094h-0.027c-0.488,0.838-1.206,1.258-2.153,1.258
			c-0.697,0-1.243-0.185-1.637-0.554s-0.591-0.859-0.591-1.47c0-1.308,0.77-2.069,2.311-2.283l2.099-0.294
			c0-1.189-0.481-1.784-1.442-1.784c-0.843,0-1.604,0.287-2.283,0.861v-1.148c0.688-0.438,1.481-0.656,2.379-0.656
			c1.645,0,2.468,0.871,2.468,2.611V114.8z M463.373,111.259l-1.688,0.232c-0.52,0.073-0.912,0.202-1.176,0.386
			s-0.396,0.512-0.396,0.981c0,0.342,0.122,0.621,0.366,0.837s0.568,0.325,0.974,0.325c0.556,0,1.015-0.195,1.377-0.584
			s0.543-0.883,0.543-1.48V111.259z"/>
		<path fill="#2F2F2F" d="M472.563,114.24c0,2.57-1.23,3.855-3.691,3.855c-0.866,0-1.623-0.164-2.27-0.492v-1.121
			c0.789,0.438,1.541,0.656,2.256,0.656c1.723,0,2.584-0.916,2.584-2.748v-0.766h-0.027c-0.533,0.893-1.335,1.34-2.406,1.34
			c-0.871,0-1.571-0.311-2.102-0.933s-0.796-1.457-0.796-2.505c0-1.189,0.286-2.135,0.858-2.837s1.354-1.053,2.348-1.053
			c0.943,0,1.643,0.378,2.099,1.135h0.027V107.8h1.121V114.24z M471.442,111.635v-1.032c0-0.556-0.188-1.032-0.564-1.429
			s-0.844-0.595-1.405-0.595c-0.693,0-1.235,0.252-1.627,0.755s-0.588,1.209-0.588,2.116c0,0.779,0.188,1.402,0.564,1.87
			s0.874,0.701,1.494,0.701c0.629,0,1.141-0.223,1.535-0.67S471.442,112.333,471.442,111.635z"/>
		<path fill="#2F2F2F" d="M480.384,111.581h-4.942c0.018,0.779,0.228,1.381,0.629,1.805s0.953,0.636,1.654,0.636
			c0.789,0,1.513-0.26,2.174-0.779v1.053c-0.615,0.447-1.429,0.67-2.44,0.67c-0.989,0-1.766-0.318-2.331-0.954
			s-0.848-1.53-0.848-2.683c0-1.089,0.309-1.977,0.926-2.663s1.384-1.029,2.3-1.029s1.625,0.296,2.126,0.889
			s0.752,1.415,0.752,2.468V111.581z M479.236,110.63c-0.004-0.647-0.161-1.151-0.468-1.511s-0.735-0.54-1.282-0.54
			c-0.529,0-0.978,0.189-1.347,0.567s-0.597,0.873-0.684,1.483H479.236z"/>
		<path fill="#2F2F2F" d="M491.294,112.025c0,0.442-0.083,0.844-0.25,1.207s-0.401,0.672-0.704,0.93s-0.667,0.457-1.09,0.598
			s-0.891,0.212-1.401,0.212c-0.934,0-1.677-0.178-2.229-0.533v-1.203c0.661,0.52,1.417,0.779,2.27,0.779
			c0.342,0,0.65-0.043,0.926-0.13s0.513-0.212,0.711-0.376s0.351-0.362,0.458-0.595s0.161-0.495,0.161-0.786
			c0-1.281-0.912-1.921-2.734-1.921h-0.813v-0.95h0.772c1.613,0,2.42-0.602,2.42-1.805c0-1.112-0.615-1.668-1.846-1.668
			c-0.693,0-1.342,0.232-1.948,0.697v-1.087c0.625-0.374,1.367-0.561,2.229-0.561c0.41,0,0.782,0.057,1.114,0.171
			s0.618,0.273,0.854,0.479s0.42,0.451,0.55,0.738s0.195,0.604,0.195,0.95c0,1.29-0.652,2.119-1.955,2.488v0.027
			c0.333,0.037,0.64,0.117,0.923,0.243s0.526,0.288,0.731,0.489s0.366,0.437,0.482,0.708S491.294,111.697,491.294,112.025z"/>
	</g>
</g>
<g id="Layer_1">
</g>
</svg>
