<?xml version="1.0" encoding="utf-8"?>
<!-- Generator: Adobe Illustrator 26.5.0, SVG Export Plug-In . SVG Version: 6.00 Build 0)  -->
<svg version="1.1" xmlns="http://www.w3.org/2000/svg" xmlns:xlink="http://www.w3.org/1999/xlink" x="0px" y="0px"
	 viewBox="0 0 437 340" enable-background="new 0 0 437 340" xml:space="preserve">
<symbol  id="PIPELINE" viewBox="-32 -12.266 64 24.531">
	<linearGradient id="SVGID_1_" gradientUnits="userSpaceOnUse" x1="0" y1="-12.2655" x2="1.502093e-15" y2="12.2655">
		<stop  offset="0" style="stop-color:#1B89B2"/>
		<stop  offset="1" style="stop-color:#51C8E8"/>
	</linearGradient>
	<path fill="url(#SVGID_1_)" d="M26.096,12.266h-51.448v0h0C-29.08,12.265-32,6.878-32,0s2.92-12.265,6.648-12.265h0v0h51.448
		C29.356-12.266,32-6.363,32,0S29.356,12.266,26.096,12.266z"/>
	<g>
		
			<linearGradient id="SVGID_00000032637498269732886310000015975722353642978202_" gradientUnits="userSpaceOnUse" x1="-31.461" y1="-6.1136" x2="-19.2338" y2="6.1136">
			<stop  offset="0" style="stop-color:#B3B4B4"/>
			<stop  offset="1" style="stop-color:#4F4F4F"/>
		</linearGradient>
		<ellipse fill="url(#SVGID_00000032637498269732886310000015975722353642978202_)" cx="-25.347" cy="0" rx="5.575" ry="10.879"/>
	</g>
</symbol>
<g id="Shapes">
	<rect fill="#FFFFFF" width="437" height="340"/>
	<g>
		<g opacity="0.3">
			<rect x="59.732" y="35.06" fill="#212121" width="272.042" height="259.6"/>
			<rect x="59.732" y="35.06" opacity="0.5" fill="#212121" width="272.042" height="259.6"/>
		</g>
		<g>
			<rect x="58.732" y="34.06" fill="#FFFFFF" width="272.042" height="259.6"/>
			<rect x="58.732" y="34.06" opacity="0.5" fill="#6BB9F2" width="272.042" height="259.6"/>
		</g>
	</g>
	<g id="Wrench_tool_x28_s_x29_">
	</g>
	<g id="user2">
	</g>
	<g id="user2_1_">
	</g>
	<g id="user2_4_">
	</g>
	<g id="user2_3_">
	</g>
	<g id="user2_2_">
	</g>
	<g id="Internet_2">
	</g>
	<g id="Enterprise">
	</g>
	<g id="Tunnel__x28_stackable_x29_">
	</g>
	<g id="New_Symbol">
	</g>
	<g id="New_Symbol_1">
	</g>
	<g id="Files">
	</g>
	<g id="BlobBlock">
	</g>
	<g id="E_x5F_Enterprise">
	</g>
	<g id="E_x5F_AD_FS">
	</g>
	<g id="C_x5F_Azure_Active_Directory">
	</g>
	<g>
		<g>
			
				<linearGradient id="SVGID_00000060744480405097908090000004536514067124502953_" gradientUnits="userSpaceOnUse" x1="-504.5276" y1="2065.408" x2="-474.3471" y2="2065.408" gradientTransform="matrix(1 0 0 -1 564 2094)">
				<stop  offset="0" style="stop-color:#005BA1"/>
				<stop  offset="0.07" style="stop-color:#0060A9"/>
				<stop  offset="0.36" style="stop-color:#0071C8"/>
				<stop  offset="0.52" style="stop-color:#0078D4"/>
				<stop  offset="0.64" style="stop-color:#0074CD"/>
				<stop  offset="0.82" style="stop-color:#006ABB"/>
				<stop  offset="1" style="stop-color:#005BA1"/>
			</linearGradient>
			<path fill="url(#SVGID_00000060744480405097908090000004536514067124502953_)" d="M74.576,16.788
				c-8.402,0-15.103-2.448-15.103-5.464v29.072c0,2.99,6.701,5.438,14.897,5.464h0.206c8.325,0,15.077-2.577,15.077-5.464V11.324
				C89.653,14.339,82.9,16.788,74.576,16.788z"/>
			<path fill="#E8E8E8" d="M89.653,11.324c0,3.015-6.753,5.464-15.077,5.464s-15.103-2.448-15.103-5.464S66.173,5.86,74.576,5.86
				S89.653,8.437,89.653,11.324"/>
			<path fill="#50E6FF" d="M86.148,10.886c0,1.907-5.155,3.479-11.572,3.479c-6.418,0-11.572-1.572-11.572-3.479
				s5.155-3.479,11.572-3.479C80.993,7.406,86.148,8.953,86.148,10.886"/>
			<path fill="#198AB3" d="M74.576,11.685c-3.109-0.08-6.209,0.356-9.175,1.289c2.957,0.981,6.061,1.443,9.175,1.366
				c3.106,0.078,6.202-0.384,9.149-1.366C80.768,12.04,77.676,11.605,74.576,11.685z"/>
			
				<radialGradient id="SVGID_00000017514108913876379170000012305252408550586275_" cx="-488.5997" cy="2064.4446" r="16.6551" gradientTransform="matrix(1 0 0 -1 564 2094)" gradientUnits="userSpaceOnUse">
				<stop  offset="0" style="stop-color:#F2F2F2"/>
				<stop  offset="0.58" style="stop-color:#EEEEEE"/>
				<stop  offset="1" style="stop-color:#E6E6E6"/>
			</radialGradient>
			<path fill="url(#SVGID_00000017514108913876379170000012305252408550586275_)" d="M83.751,31.504v-7.938h-2.113v9.716h5.773
				v-1.778H83.751z M66.947,27.587c-0.432-0.191-0.838-0.433-1.211-0.722c-0.188-0.213-0.289-0.489-0.284-0.773
				c0-0.284,0.134-0.551,0.361-0.722c0.299-0.192,0.651-0.282,1.005-0.258c0.805,0.019,1.587,0.279,2.242,0.747v-2.088
				c-0.752-0.314-1.557-0.48-2.371-0.49c-0.927-0.052-1.842,0.232-2.577,0.799c-0.637,0.503-1,1.276-0.979,2.088
				c0.08,1.327,0.973,2.466,2.242,2.861c0.513,0.214,0.998,0.491,1.443,0.825c0.221,0.197,0.351,0.477,0.361,0.773
				c0.008,0.292-0.139,0.567-0.387,0.722c-0.304,0.203-0.666,0.302-1.031,0.284c-0.955-0.001-1.874-0.359-2.577-1.005v2.165
				c0.795,0.409,1.684,0.605,2.577,0.567c0.979,0.055,1.949-0.217,2.758-0.773c0.662-0.508,1.036-1.305,1.005-2.139
				c0.027-0.602-0.175-1.192-0.567-1.649C68.378,28.259,67.694,27.847,66.947,27.587z M79.06,31.324
				c0.555-0.862,0.858-1.862,0.876-2.887c0.02-0.895-0.184-1.781-0.593-2.577c-0.364-0.727-0.927-1.334-1.624-1.753
				c-0.717-0.491-1.555-0.776-2.423-0.825c-0.902-0.024-1.793,0.199-2.577,0.644c-0.753,0.453-1.347,1.128-1.701,1.933
				c-0.757,1.635-0.757,3.52,0,5.155c0.371,0.722,0.932,1.328,1.624,1.753c0.688,0.454,1.474,0.737,2.294,0.825l2.01,2.242h2.835
				l-2.809-2.577C77.874,32.879,78.614,32.194,79.06,31.324z M76.869,30.731c-0.435,0.547-1.106,0.853-1.804,0.825
				c-0.696,0.023-1.359-0.295-1.778-0.851c-0.435-0.672-0.635-1.47-0.567-2.268c-0.043-0.822,0.204-1.634,0.696-2.294
				c0.419-0.573,1.095-0.902,1.804-0.876c0.703-0.026,1.371,0.303,1.778,0.876c0.467,0.68,0.693,1.496,0.644,2.32
				c0.046,0.811-0.191,1.612-0.67,2.268H76.869z"/>
		</g>
		<path fill="#FFFFFF" d="M96.019,6.118h-9.407c-0.413,0-0.747,0.335-0.747,0.747v20.284c0,0.413,0.335,0.747,0.747,0.747h16.314
			c0.413,0,0.747-0.335,0.747-0.747v0V13.721c0-0.413-0.335-0.747-0.747-0.747l0,0h-5.412c-0.413,0-0.747-0.335-0.747-0.747V6.865
			C96.766,6.452,96.432,6.118,96.019,6.118z"/>
		<path fill="#50E6FF" d="M95.684,7.071v5.155c0,1.025,0.831,1.856,1.856,1.856l0,0h5.155v12.887H86.792V7.071h8.814 M95.967,5.963
			h-9.536c-0.413-0.014-0.759,0.309-0.773,0.721c0,0.009,0,0.017,0,0.026v20.619c0,0.413,0.334,0.748,0.747,0.748
			c0.009,0,0.017,0,0.026,0h16.546c0.413,0,0.747-0.335,0.747-0.747v0v-13.66c-0.023-0.365-0.307-0.659-0.67-0.696h-5.515
			c-0.413,0-0.747-0.335-0.747-0.747V6.711c0-0.413-0.335-0.747-0.747-0.747L95.967,5.963z"/>
		<path fill="#32BEDD" d="M103.519,12.973l-6.985-6.959v5.67c0,0.702,0.561,1.275,1.263,1.289H103.519z"/>
		<path fill="#32BEDD" d="M90.194,17.819h9.124c0.384,0,0.696,0.312,0.696,0.696l0,0c0,0.384-0.312,0.696-0.696,0.696h-9.124
			c-0.384,0-0.696-0.312-0.696-0.696l0,0C89.498,18.13,89.81,17.819,90.194,17.819z"/>
		<path fill="#32BEDD" d="M90.194,20.164h9.124c0.384,0,0.696,0.312,0.696,0.696l0,0c0,0.384-0.312,0.696-0.696,0.696h-9.124
			c-0.384,0-0.696-0.312-0.696-0.696l0,0C89.498,20.476,89.81,20.164,90.194,20.164z"/>
		<path fill="#32BEDD" d="M90.143,22.561h4.356c0.356,0,0.644,0.288,0.644,0.644v0c0,0.356-0.288,0.644-0.644,0.644h-4.356
			c-0.356,0-0.644-0.288-0.644-0.644v0C89.498,22.85,89.787,22.561,90.143,22.561z"/>
	</g>
	<g>
		<g opacity="0.24">
			<rect x="81.353" y="65.86" width="228.8" height="215.6"/>
			<rect x="81.353" y="65.86" opacity="0.7" width="228.8" height="215.6"/>
		</g>
		<g>
			<rect x="80.353" y="64.86" fill="#FFFFFF" width="228.8" height="215.6"/>
			<rect x="80.353" y="64.86" opacity="0.7" fill="#FFE452" width="228.8" height="215.6"/>
		</g>
	</g>
	<g>
		<rect x="80.353" y="64.86" fill="#FFFFFF" width="228.8" height="30.8"/>
		<rect x="80.353" y="64.86" opacity="0.9" fill="#FFBD02" width="228.8" height="30.8"/>
	</g>
	<g>
		<rect x="80.353" y="126.46" fill="#FFFFFF" width="228.8" height="30.8"/>
		<rect x="80.353" y="126.46" opacity="0.22" fill="#FFE452" width="228.8" height="30.8"/>
	</g>
	<g>
		<rect x="80.353" y="188.06" fill="#FFFFFF" width="228.8" height="92.4"/>
	</g>
	<g>
		<g>
			<g>
				<rect x="282.615" y="249.66" fill="#FFFFFF" width="26.4" height="30.8"/>
				<rect x="282.615" y="249.66" opacity="0.7" fill="#FFE452" width="26.4" height="30.8"/>
			</g>
			<polyline fill="none" stroke="#DFA626" stroke-width="0.5" stroke-miterlimit="10" points="309.016,249.66 282.615,249.66 
				282.615,280.46 			"/>
		</g>
		<g>
			<g>
				<rect x="254.755" y="249.66" fill="#FFFFFF" width="26.4" height="30.8"/>
				<rect x="254.755" y="249.66" opacity="0.22" fill="#FFE452" width="26.4" height="30.8"/>
			</g>
			<polyline fill="none" stroke="#DFA626" stroke-width="0.5" stroke-miterlimit="10" points="281.155,249.66 254.755,249.66 
				254.755,280.46 			"/>
		</g>
		<g>
			<g>
				<rect x="226.894" y="249.66" fill="#FFFFFF" width="26.4" height="30.8"/>
				<rect x="226.894" y="249.66" opacity="0.7" fill="#FFE452" width="26.4" height="30.8"/>
			</g>
			<polyline fill="none" stroke="#DFA626" stroke-width="0.5" stroke-miterlimit="10" points="253.294,249.66 226.894,249.66 
				226.894,280.46 			"/>
		</g>
	</g>
	<g>
		<rect x="310.55" y="266.14" fill="#3C3C41" width="3.5" height="1"/>
		<path fill="#3C3C41" d="M347.687,267.14h-7.849v-1h7.849V267.14z M336.475,267.14h-7.849v-1h7.849V267.14z M325.263,267.14h-7.849
			v-1h7.849V267.14z"/>
		<rect x="351.05" y="266.14" fill="#3C3C41" width="3.5" height="1"/>
	</g>
	<g>
		<g>
			<line fill="none" stroke="#3C3C41" stroke-miterlimit="10" x1="5.415" y1="110.045" x2="74.971" y2="110.045"/>
			<g>
				<polygon fill="#3C3C41" points="73.877,113.784 80.353,110.045 73.877,106.305 				"/>
			</g>
		</g>
	</g>
	<g>
		<g>
			<line fill="none" stroke="#3C3C41" stroke-miterlimit="10" x1="19.786" y1="142.688" x2="74.971" y2="142.688"/>
			<g>
				<polygon fill="#3C3C41" points="73.877,146.428 80.353,142.688 73.877,138.948 				"/>
			</g>
		</g>
	</g>
	<g>
		<g>
			<line fill="none" stroke="#3C3C41" stroke-miterlimit="10" x1="35.872" y1="173.105" x2="74.971" y2="173.105"/>
			<g>
				<polygon fill="#3C3C41" points="73.877,176.845 80.353,173.105 73.877,169.365 				"/>
			</g>
		</g>
	</g>
	<path fill="#999999" d="M288.549,334.14c-0.001,0-0.003,0-0.004,0h-0.211v-1h0.211c0.001,0,0.002,0,0.004,0
		c0.875,0,1.729-0.16,2.539-0.475l0.363,0.932C290.525,333.957,289.549,334.14,288.549,334.14z M285.334,334.14h-3v-1h3V334.14z
		 M279.334,334.14h-3v-1h3V334.14z M273.334,334.14h-3v-1h3V334.14z M267.334,334.14h-3v-1h3V334.14z M261.334,334.14h-3v-1h3
		V334.14z M255.334,334.14h-3v-1h3V334.14z M249.334,334.14h-3v-1h3V334.14z M243.334,334.14h-3v-1h3V334.14z M237.334,334.14h-3v-1
		h3V334.14z M231.334,334.14h-3v-1h3V334.14z M225.334,334.14h-3v-1h3V334.14z M219.334,334.14h-3v-1h3V334.14z M213.334,334.14h-3
		v-1h3V334.14z M207.334,334.14h-3v-1h3V334.14z M201.334,334.14h-3v-1h3V334.14z M195.334,334.14h-3v-1h3V334.14z M189.334,334.14
		h-3v-1h3V334.14z M183.334,334.14h-3v-1h3V334.14z M177.334,334.14h-3v-1h3V334.14z M171.334,334.14h-3v-1h3V334.14z
		 M165.334,334.14h-3v-1h3V334.14z M159.334,334.14h-3v-1h3V334.14z M153.334,334.14h-3v-1h3V334.14z M147.334,334.14h-3v-1h3
		V334.14z M141.334,334.14h-3v-1h3V334.14z M135.334,334.14h-3v-1h3V334.14z M129.334,334.14h-3v-1h3V334.14z M123.334,334.14h-3v-1
		h3V334.14z M117.334,334.14h-3v-1h3V334.14z M111.334,334.14h-3v-1h3V334.14z M105.334,334.14h-3v-1h3V334.14z M99.334,334.14h-3
		v-1h3V334.14z M93.334,334.14h-3v-1h3V334.14z M87.334,334.14h-3v-1h3V334.14z M81.334,334.14h-3v-1h3V334.14z M75.334,334.14h-3
		v-1h3V334.14z M69.334,334.14h-3v-1h3V334.14z M63.334,334.14h-3v-1h3V334.14z M57.334,334.14h-3v-1h3V334.14z M51.334,334.14h-3
		v-1h3V334.14z M45.334,334.14h-3v-1h3V334.14z M39.334,334.14h-3v-1h3V334.14z M33.334,334.14h-3v-1h3V334.14z M27.334,334.14h-3
		v-1h3V334.14z M21.334,334.14h-3v-1h3V334.14z M15.334,334.14h-1.779c-0.434,0-0.87-0.035-1.296-0.104l0.161-0.987
		c0.373,0.061,0.755,0.092,1.135,0.092h1.779V334.14z M9.287,332.909c-0.909-0.574-1.682-1.312-2.298-2.194l0.819-0.572
		c0.54,0.772,1.217,1.418,2.013,1.921L9.287,332.909z M294.124,331.877l-0.696-0.718c0.676-0.657,1.205-1.429,1.572-2.294
		l0.921,0.39C295.501,330.244,294.897,331.126,294.124,331.877z M5.723,327.799c-0.115-0.545-0.173-1.105-0.173-1.664v-1.427h1
		v1.428c0,0.49,0.05,0.979,0.151,1.457L5.723,327.799z M295.55,326.14v-3h1v2.995L295.55,326.14z M6.55,321.707h-1v-3h1V321.707z
		 M296.55,320.14h-1v-3h1V320.14z M6.55,315.707h-1v-3h1V315.707z M296.55,314.14h-1v-3h1V314.14z M6.55,309.707h-1v-3h1V309.707z
		 M296.55,308.14h-1v-3h1V308.14z M6.55,303.707h-1v-3h1V303.707z M296.55,302.14h-1v-3h1V302.14z M6.55,297.707h-1v-3h1V297.707z
		 M296.55,296.14h-1v-3h1V296.14z M6.55,291.707h-1v-3h1V291.707z M296.55,290.14h-1v-3h1V290.14z M6.55,285.707h-1v-3h1V285.707z
		 M296.55,284.14h-1v-3h1V284.14z M6.55,279.707h-1v-3h1V279.707z M6.55,273.707h-1v-3h1V273.707z M6.55,267.707h-1v-3h1V267.707z
		 M6.55,261.707h-1v-3h1V261.707z M6.55,255.707h-1v-3h1V255.707z M6.55,249.707h-1v-3h1V249.707z M6.55,243.707h-1v-3h1V243.707z
		 M6.55,237.707h-1v-3h1V237.707z M6.55,231.707h-1v-3h1V231.707z M6.55,225.707h-1v-3h1V225.707z M6.55,219.707h-1v-3h1V219.707z
		 M6.55,213.707h-1v-3h1V213.707z M6.55,207.707h-1v-3h1V207.707z M6.55,201.707h-1v-3h1V201.707z M6.55,195.707h-1v-3h1V195.707z
		 M6.55,189.707h-1v-3h1V189.707z M6.55,183.707h-1v-3h1V183.707z M6.55,177.707h-1v-3h1V177.707z M6.55,171.707h-1v-3h1V171.707z
		 M6.55,165.707h-1v-3h1V165.707z M6.55,159.707h-1v-3h1V159.707z M6.55,153.707h-1v-3h1V153.707z M6.55,147.707h-1v-3h1V147.707z
		 M6.55,141.707h-1v-3h1V141.707z M6.55,135.707h-1v-3h1V135.707z M6.55,129.707h-1v-3h1V129.707z M6.55,123.707h-1v-3h1V123.707z
		 M6.55,117.707h-1v-3h1V117.707z M6.55,111.707h-1v-1.567h1V111.707z"/>
	<path fill="#999999" d="M260.545,321.14h-1.211v-1h1.211c0.559,0,1.115-0.066,1.654-0.196l0.234,0.972
		C261.819,321.065,261.184,321.14,260.545,321.14z M256.334,321.14h-3v-1h3V321.14z M250.334,321.14h-3v-1h3V321.14z
		 M244.334,321.14h-3v-1h3V321.14z M238.334,321.14h-3v-1h3V321.14z M232.334,321.14h-3v-1h3V321.14z M226.334,321.14h-3v-1h3
		V321.14z M220.334,321.14h-3v-1h3V321.14z M214.334,321.14h-3v-1h3V321.14z M208.334,321.14h-3v-1h3V321.14z M202.334,321.14h-3v-1
		h3V321.14z M196.334,321.14h-3v-1h3V321.14z M190.334,321.14h-3v-1h3V321.14z M184.334,321.14h-3v-1h3V321.14z M178.334,321.14h-3
		v-1h3V321.14z M172.334,321.14h-3v-1h3V321.14z M166.334,321.14h-3v-1h3V321.14z M160.334,321.14h-3v-1h3V321.14z M154.334,321.14
		h-3v-1h3V321.14z M148.334,321.14h-3v-1h3V321.14z M142.334,321.14h-3v-1h3V321.14z M136.334,321.14h-3v-1h3V321.14z
		 M130.334,321.14h-3v-1h3V321.14z M124.334,321.14h-3v-1h3V321.14z M118.334,321.14h-3v-1h3V321.14z M112.334,321.14h-3v-1h3
		V321.14z M106.334,321.14h-3v-1h3V321.14z M100.334,321.14h-3v-1h3V321.14z M94.334,321.14h-3v-1h3V321.14z M88.334,321.14h-3v-1h3
		V321.14z M82.334,321.14h-3v-1h3V321.14z M76.334,321.14h-3v-1h3V321.14z M70.334,321.14h-3v-1h3V321.14z M64.334,321.14h-3v-1h3
		V321.14z M58.334,321.14h-3v-1h3V321.14z M52.334,321.14h-3v-1h3V321.14z M46.334,321.14h-3v-1h3V321.14z M40.334,321.14h-3v-1h3
		V321.14z M34.334,321.14h-3v-1h3V321.14z M28.334,321.14h-0.779c-0.795,0-1.58-0.116-2.333-0.345l0.291-0.957
		c0.659,0.201,1.346,0.302,2.042,0.302h0.779V321.14z M265.313,319.567l-0.597-0.803c0.757-0.562,1.383-1.257,1.863-2.067l0.86,0.51
		C266.892,318.131,266.176,318.925,265.313,319.567z M22.426,319.282c-0.827-0.69-1.496-1.524-1.988-2.479l0.889-0.459
		c0.431,0.836,1.017,1.566,1.74,2.17L22.426,319.282z M268.48,314.203l-0.991-0.133c0.041-0.307,0.062-0.621,0.062-0.935v-1.995h1
		v1.995C268.55,313.493,268.526,313.852,268.48,314.203z M19.574,313.744c-0.015-0.201-0.023-0.403-0.023-0.608v-2.429h1v2.428
		c0,0.179,0.007,0.358,0.021,0.534L19.574,313.744z M268.55,308.14h-1v-3h1V308.14z M20.55,307.707h-1v-3h1V307.707z M268.55,302.14
		h-1v-3h1V302.14z M20.55,301.707h-1v-3h1V301.707z M268.55,296.14h-1v-3h1V296.14z M20.55,295.707h-1v-3h1V295.707z M268.55,290.14
		h-1v-3h1V290.14z M20.55,289.707h-1v-3h1V289.707z M268.55,284.14h-1v-3h1V284.14z M20.55,283.707h-1v-3h1V283.707z M20.55,277.707
		h-1v-3h1V277.707z M20.55,271.707h-1v-3h1V271.707z M20.55,265.707h-1v-3h1V265.707z M20.55,259.707h-1v-3h1V259.707z
		 M20.55,253.707h-1v-3h1V253.707z M20.55,247.707h-1v-3h1V247.707z M20.55,241.707h-1v-3h1V241.707z M20.55,235.707h-1v-3h1
		V235.707z M20.55,229.707h-1v-3h1V229.707z M20.55,223.707h-1v-3h1V223.707z M20.55,217.707h-1v-3h1V217.707z M20.55,211.707h-1v-3
		h1V211.707z M20.55,205.707h-1v-3h1V205.707z M20.55,199.707h-1v-3h1V199.707z M20.55,193.707h-1v-3h1V193.707z M20.55,187.707h-1
		v-3h1V187.707z M20.55,181.707h-1v-3h1V181.707z M20.55,175.707h-1v-3h1V175.707z M20.55,169.707h-1v-3h1V169.707z M20.55,163.707
		h-1v-3h1V163.707z M20.55,157.707h-1v-3h1V157.707z M20.55,151.707h-1v-3h1V151.707z M20.55,145.707h-1v-2.567h1V145.707z"/>
	<path fill="#999999" d="M231.334,307.14h-3v-1h3V307.14z M225.334,307.14h-3v-1h3V307.14z M219.334,307.14h-3v-1h3V307.14z
		 M213.334,307.14h-3v-1h3V307.14z M207.334,307.14h-3v-1h3V307.14z M201.334,307.14h-3v-1h3V307.14z M195.334,307.14h-3v-1h3
		V307.14z M189.334,307.14h-3v-1h3V307.14z M183.334,307.14h-3v-1h3V307.14z M177.334,307.14h-3v-1h3V307.14z M171.334,307.14h-3v-1
		h3V307.14z M165.334,307.14h-3v-1h3V307.14z M159.334,307.14h-3v-1h3V307.14z M153.334,307.14h-3v-1h3V307.14z M147.334,307.14h-3
		v-1h3V307.14z M141.334,307.14h-3v-1h3V307.14z M135.334,307.14h-3v-1h3V307.14z M129.334,307.14h-3v-1h3V307.14z M123.334,307.14
		h-3v-1h3V307.14z M117.334,307.14h-3v-1h3V307.14z M111.334,307.14h-3v-1h3V307.14z M105.334,307.14h-3v-1h3V307.14z
		 M99.334,307.14h-3v-1h3V307.14z M93.334,307.14h-3v-1h3V307.14z M87.334,307.14h-3v-1h3V307.14z M81.334,307.14h-3v-1h3V307.14z
		 M75.334,307.14h-3v-1h3V307.14z M69.334,307.14h-3v-1h3V307.14z M63.334,307.14h-3v-1h3V307.14z M57.334,307.14h-3v-1h3V307.14z
		 M51.334,307.14h-3v-1h3V307.14z M45.334,307.14h-1.779c-0.434,0-0.87-0.035-1.296-0.104l0.161-0.987
		c0.373,0.061,0.755,0.092,1.135,0.092h1.779V307.14z M234.434,306.915l-0.235-0.972c0.913-0.221,1.76-0.618,2.518-1.18l0.596,0.803
		C236.446,306.209,235.478,306.663,234.434,306.915z M39.287,305.909c-0.909-0.574-1.682-1.312-2.298-2.194l0.819-0.572
		c0.54,0.772,1.217,1.418,2.013,1.921L39.287,305.909z M239.439,303.205l-0.86-0.509c0.479-0.81,0.785-1.694,0.91-2.626l0.991,0.133
		C240.337,301.269,239.987,302.279,239.439,303.205z M35.723,300.799c-0.115-0.545-0.173-1.105-0.173-1.664v-1.427h1v1.428
		c0,0.49,0.05,0.979,0.151,1.457L35.723,300.799z M240.55,297.14h-1v-3h1V297.14z M36.55,294.707h-1v-3h1V294.707z M240.55,291.14
		h-1v-3h1V291.14z M36.55,288.707h-1v-3h1V288.707z M240.55,285.14h-1v-3h1V285.14z M36.55,282.707h-1v-3h1V282.707z M36.55,276.707
		h-1v-3h1V276.707z M36.55,270.707h-1v-3h1V270.707z M36.55,264.707h-1v-3h1V264.707z M36.55,258.707h-1v-3h1V258.707z
		 M36.55,252.707h-1v-3h1V252.707z M36.55,246.707h-1v-3h1V246.707z M36.55,240.707h-1v-3h1V240.707z M36.55,234.707h-1v-3h1
		V234.707z M36.55,228.707h-1v-3h1V228.707z M36.55,222.707h-1v-3h1V222.707z M36.55,216.707h-1v-3h1V216.707z M36.55,210.707h-1v-3
		h1V210.707z M36.55,204.707h-1v-3h1V204.707z M36.55,198.707h-1v-3h1V198.707z M36.55,192.707h-1v-3h1V192.707z M36.55,186.707h-1
		v-3h1V186.707z M36.55,180.707h-1v-3h1V180.707z M36.55,174.707h-1v-1.567h1V174.707z"/>
</g>
<g id="Text">
	<g>
		<rect x="112.373" y="14.477" fill="none" width="220.505" height="17.6"/>
		<path fill="#2F2F2F" d="M124.664,24.84h-2.181v-5.865c0-0.633,0.027-1.333,0.082-2.099h-0.055
			c-0.114,0.602-0.216,1.035-0.308,1.299l-2.297,6.665h-1.805l-2.338-6.597c-0.064-0.178-0.167-0.633-0.308-1.367h-0.062
			c0.059,0.966,0.089,1.814,0.089,2.543v5.421h-1.989v-9.803h3.233l2.003,5.811c0.16,0.465,0.276,0.932,0.349,1.401h0.041
			c0.123-0.542,0.253-1.014,0.39-1.415l2.003-5.797h3.151V24.84z"/>
		<path fill="#2F2F2F" d="M127.695,16.732c-0.365,0-0.663-0.108-0.896-0.325s-0.349-0.482-0.349-0.796
			c0-0.324,0.116-0.588,0.349-0.793s0.531-0.308,0.896-0.308c0.369,0,0.669,0.103,0.899,0.308s0.345,0.469,0.345,0.793
			c0,0.328-0.115,0.597-0.345,0.807S128.064,16.732,127.695,16.732z M128.762,24.84h-2.16v-7h2.16V24.84z"/>
		<path fill="#2F2F2F" d="M135.842,24.587c-0.488,0.283-1.192,0.424-2.112,0.424c-1.076,0-1.946-0.326-2.611-0.978
			s-0.998-1.493-0.998-2.522c0-1.189,0.356-2.127,1.07-2.813s1.667-1.029,2.861-1.029c0.825,0,1.422,0.109,1.791,0.328v1.832
			c-0.451-0.337-0.955-0.506-1.511-0.506c-0.62,0-1.111,0.181-1.473,0.543s-0.543,0.862-0.543,1.5c0,0.62,0.173,1.106,0.52,1.459
			s0.823,0.53,1.429,0.53c0.538,0,1.064-0.168,1.579-0.506V24.587z"/>
		<path fill="#2F2F2F" d="M141.925,19.788c-0.26-0.141-0.563-0.212-0.909-0.212c-0.469,0-0.836,0.172-1.101,0.516
			s-0.396,0.812-0.396,1.405v3.343h-2.16v-7h2.16v1.299h0.027c0.342-0.948,0.957-1.422,1.846-1.422c0.228,0,0.406,0.027,0.533,0.082
			V19.788z"/>
		<path fill="#2F2F2F" d="M146.352,25.011c-1.167,0-2.084-0.327-2.751-0.981s-1.001-1.542-1.001-2.663
			c0-1.158,0.346-2.063,1.039-2.717s1.629-0.981,2.81-0.981c1.162,0,2.074,0.327,2.734,0.981s0.991,1.519,0.991,2.594
			c0,1.162-0.341,2.081-1.022,2.755S147.537,25.011,146.352,25.011z M146.406,19.323c-0.51,0-0.907,0.175-1.189,0.526
			s-0.424,0.848-0.424,1.49c0,1.344,0.542,2.017,1.627,2.017c1.035,0,1.552-0.69,1.552-2.071
			C147.972,19.977,147.45,19.323,146.406,19.323z"/>
		<path fill="#2F2F2F" d="M151.16,24.655v-1.75c0.355,0.214,0.71,0.374,1.063,0.479s0.687,0.157,1.001,0.157
			c0.383,0,0.685-0.052,0.906-0.157s0.332-0.264,0.332-0.479c0-0.137-0.05-0.25-0.15-0.342s-0.229-0.171-0.386-0.239
			s-0.329-0.13-0.516-0.185s-0.367-0.116-0.54-0.185c-0.278-0.105-0.523-0.218-0.735-0.338s-0.39-0.261-0.533-0.42
			s-0.253-0.344-0.328-0.554s-0.113-0.458-0.113-0.745c0-0.392,0.085-0.729,0.256-1.012s0.399-0.514,0.684-0.694
			s0.611-0.312,0.978-0.396s0.749-0.126,1.145-0.126c0.31,0,0.625,0.024,0.943,0.072s0.633,0.117,0.943,0.208v1.668
			c-0.273-0.16-0.566-0.279-0.878-0.359s-0.619-0.12-0.919-0.12c-0.141,0-0.274,0.013-0.4,0.038s-0.236,0.062-0.332,0.109
			s-0.171,0.109-0.226,0.185s-0.082,0.161-0.082,0.256c0,0.127,0.041,0.237,0.123,0.328s0.189,0.17,0.321,0.236
			s0.279,0.125,0.441,0.178s0.322,0.106,0.482,0.161c0.287,0.1,0.547,0.209,0.779,0.328s0.432,0.257,0.598,0.417
			s0.294,0.346,0.383,0.561s0.133,0.469,0.133,0.766c0,0.415-0.09,0.769-0.27,1.063s-0.419,0.533-0.718,0.718
			s-0.643,0.319-1.032,0.403s-0.794,0.126-1.213,0.126C152.529,25.011,151.816,24.892,151.16,24.655z"/>
		<path fill="#2F2F2F" d="M161.15,25.011c-1.167,0-2.084-0.327-2.751-0.981s-1.001-1.542-1.001-2.663
			c0-1.158,0.346-2.063,1.039-2.717s1.629-0.981,2.81-0.981c1.162,0,2.074,0.327,2.734,0.981s0.991,1.519,0.991,2.594
			c0,1.162-0.341,2.081-1.022,2.755S162.335,25.011,161.15,25.011z M161.205,19.323c-0.51,0-0.907,0.175-1.189,0.526
			s-0.424,0.848-0.424,1.49c0,1.344,0.542,2.017,1.627,2.017c1.035,0,1.552-0.69,1.552-2.071
			C162.771,19.977,162.249,19.323,161.205,19.323z"/>
		<path fill="#2F2F2F" d="M170.875,16.131c-0.278-0.109-0.544-0.164-0.8-0.164c-0.693,0-1.039,0.376-1.039,1.128v0.745h1.6v1.593
			h-1.6v5.407h-2.153v-5.407h-1.176V17.84h1.176v-0.868c0-0.797,0.26-1.44,0.779-1.928s1.226-0.731,2.119-0.731
			c0.438,0,0.802,0.045,1.094,0.137V16.131z"/>
		<path fill="#2F2F2F" d="M176.185,24.758c-0.319,0.168-0.8,0.253-1.442,0.253c-1.522,0-2.283-0.791-2.283-2.372v-3.206h-1.135
			V17.84h1.135v-1.511l2.153-0.615v2.126h1.572v1.593h-1.572v2.83c0,0.729,0.29,1.094,0.868,1.094c0.228,0,0.462-0.066,0.704-0.198
			V24.758z"/>
		<path fill="#2F2F2F" d="M181.025,24.464v-2.188c0.396,0.333,0.827,0.582,1.292,0.749s0.934,0.25,1.408,0.25
			c0.278,0,0.521-0.025,0.728-0.075s0.38-0.12,0.52-0.208s0.243-0.194,0.311-0.314s0.103-0.252,0.103-0.393
			c0-0.191-0.055-0.362-0.164-0.513s-0.259-0.29-0.448-0.417s-0.414-0.25-0.673-0.369s-0.54-0.239-0.841-0.362
			c-0.766-0.319-1.336-0.708-1.712-1.169s-0.564-1.016-0.564-1.668c0-0.51,0.103-0.949,0.308-1.316s0.484-0.669,0.837-0.906
			s0.762-0.411,1.227-0.523s0.957-0.167,1.477-0.167c0.51,0,0.963,0.031,1.357,0.092s0.758,0.156,1.09,0.284v2.044
			c-0.164-0.114-0.343-0.214-0.537-0.301s-0.393-0.158-0.598-0.215s-0.409-0.099-0.612-0.126s-0.396-0.041-0.578-0.041
			c-0.25,0-0.479,0.024-0.684,0.072s-0.378,0.115-0.52,0.202s-0.25,0.19-0.328,0.311s-0.116,0.256-0.116,0.407
			c0,0.164,0.043,0.311,0.13,0.441s0.209,0.253,0.369,0.369s0.353,0.23,0.581,0.342s0.485,0.227,0.772,0.345
			c0.392,0.164,0.744,0.338,1.056,0.523s0.58,0.393,0.803,0.625s0.394,0.498,0.513,0.796s0.178,0.646,0.178,1.042
			c0,0.547-0.104,1.006-0.311,1.377s-0.489,0.672-0.844,0.902s-0.769,0.396-1.241,0.496s-0.97,0.15-1.494,0.15
			c-0.538,0-1.049-0.045-1.535-0.137S181.38,24.646,181.025,24.464z"/>
		<path fill="#2F2F2F" d="M193.385,25.011c-1.404,0-2.547-0.456-3.432-1.367c-0.884-0.92-1.326-2.112-1.326-3.575
			c0-1.545,0.449-2.798,1.347-3.76c0.893-0.957,2.083-1.436,3.568-1.436c1.399,0,2.529,0.458,3.391,1.374
			c0.866,0.912,1.299,2.119,1.299,3.623c0,1.536-0.449,2.778-1.347,3.726c-0.032,0.032-0.062,0.062-0.089,0.092
			s-0.057,0.058-0.089,0.085l2.481,2.386h-3.09L194.8,24.84C194.372,24.954,193.9,25.011,193.385,25.011z M193.48,16.773
			c-0.77,0-1.385,0.292-1.846,0.875c-0.456,0.579-0.684,1.347-0.684,2.304c0,0.971,0.228,1.739,0.684,2.304s1.053,0.848,1.791,0.848
			c0.761,0,1.365-0.273,1.812-0.82c0.447-0.556,0.67-1.319,0.67-2.29c0-1.012-0.216-1.802-0.649-2.372
			C194.83,17.056,194.237,16.773,193.48,16.773z"/>
		<path fill="#2F2F2F" d="M205.649,24.84h-5.838v-9.803h2.208v8.012h3.63V24.84z"/>
		<path fill="#2F2F2F" d="M210.379,24.464v-2.188c0.396,0.333,0.827,0.582,1.292,0.749s0.934,0.25,1.408,0.25
			c0.278,0,0.521-0.025,0.728-0.075s0.38-0.12,0.52-0.208s0.243-0.194,0.311-0.314s0.103-0.252,0.103-0.393
			c0-0.191-0.055-0.362-0.164-0.513s-0.259-0.29-0.448-0.417s-0.414-0.25-0.673-0.369s-0.54-0.239-0.841-0.362
			c-0.766-0.319-1.336-0.708-1.712-1.169s-0.564-1.016-0.564-1.668c0-0.51,0.103-0.949,0.308-1.316s0.484-0.669,0.837-0.906
			s0.762-0.411,1.227-0.523s0.957-0.167,1.477-0.167c0.51,0,0.963,0.031,1.357,0.092s0.758,0.156,1.09,0.284v2.044
			c-0.164-0.114-0.343-0.214-0.537-0.301s-0.393-0.158-0.598-0.215s-0.409-0.099-0.612-0.126s-0.396-0.041-0.578-0.041
			c-0.25,0-0.479,0.024-0.684,0.072s-0.378,0.115-0.52,0.202s-0.25,0.19-0.328,0.311s-0.116,0.256-0.116,0.407
			c0,0.164,0.043,0.311,0.13,0.441s0.209,0.253,0.369,0.369s0.353,0.23,0.581,0.342s0.485,0.227,0.772,0.345
			c0.392,0.164,0.744,0.338,1.056,0.523s0.58,0.393,0.803,0.625s0.394,0.498,0.513,0.796s0.178,0.646,0.178,1.042
			c0,0.547-0.104,1.006-0.311,1.377s-0.489,0.672-0.844,0.902s-0.769,0.396-1.241,0.496s-0.97,0.15-1.494,0.15
			c-0.538,0-1.049-0.045-1.535-0.137S210.735,24.646,210.379,24.464z"/>
		<path fill="#2F2F2F" d="M224.755,21.955h-4.566c0.073,1.016,0.713,1.524,1.921,1.524c0.77,0,1.447-0.182,2.03-0.547v1.559
			c-0.647,0.346-1.488,0.52-2.522,0.52c-1.13,0-2.007-0.313-2.632-0.94s-0.937-1.5-0.937-2.622c0-1.162,0.337-2.083,1.012-2.762
			s1.504-1.019,2.488-1.019c1.021,0,1.811,0.303,2.369,0.909s0.837,1.429,0.837,2.468V21.955z M222.752,20.629
			c0-1.002-0.406-1.504-1.217-1.504c-0.346,0-0.646,0.144-0.899,0.431s-0.407,0.645-0.461,1.073H222.752z"/>
		<path fill="#2F2F2F" d="M230.687,19.788c-0.26-0.141-0.563-0.212-0.909-0.212c-0.469,0-0.836,0.172-1.101,0.516
			s-0.396,0.812-0.396,1.405v3.343h-2.16v-7h2.16v1.299h0.027c0.342-0.948,0.957-1.422,1.846-1.422c0.228,0,0.406,0.027,0.533,0.082
			V19.788z"/>
		<path fill="#2F2F2F" d="M238.785,17.84l-2.604,7h-2.461l-2.481-7h2.311l1.217,4.313c0.137,0.488,0.216,0.902,0.239,1.244h0.027
			c0.032-0.324,0.116-0.725,0.253-1.203l1.244-4.354H238.785z"/>
		<path fill="#2F2F2F" d="M245.773,21.955h-4.566c0.073,1.016,0.713,1.524,1.921,1.524c0.77,0,1.447-0.182,2.03-0.547v1.559
			c-0.647,0.346-1.488,0.52-2.522,0.52c-1.13,0-2.007-0.313-2.632-0.94s-0.937-1.5-0.937-2.622c0-1.162,0.337-2.083,1.012-2.762
			s1.504-1.019,2.488-1.019c1.021,0,1.811,0.303,2.369,0.909s0.837,1.429,0.837,2.468V21.955z M243.77,20.629
			c0-1.002-0.406-1.504-1.217-1.504c-0.346,0-0.646,0.144-0.899,0.431s-0.407,0.645-0.461,1.073H243.77z"/>
		<path fill="#2F2F2F" d="M251.704,19.788c-0.26-0.141-0.563-0.212-0.909-0.212c-0.469,0-0.836,0.172-1.101,0.516
			s-0.396,0.812-0.396,1.405v3.343h-2.16v-7h2.16v1.299h0.027c0.342-0.948,0.957-1.422,1.846-1.422c0.228,0,0.406,0.027,0.533,0.082
			V19.788z"/>
		<path fill="#2F2F2F" d="M263.421,24.84h-2.16v-0.964h-0.027c-0.492,0.756-1.214,1.135-2.167,1.135
			c-0.875,0-1.579-0.309-2.112-0.926s-0.8-1.48-0.8-2.587c0-1.158,0.294-2.085,0.882-2.782s1.358-1.046,2.311-1.046
			c0.902,0,1.531,0.324,1.887,0.971h0.027v-4.163h2.16V24.84z M261.302,21.436v-0.526c0-0.456-0.132-0.834-0.396-1.135
			s-0.608-0.451-1.032-0.451c-0.479,0-0.852,0.188-1.121,0.564s-0.403,0.892-0.403,1.548c0,0.615,0.13,1.089,0.39,1.422
			s0.62,0.499,1.08,0.499c0.438,0,0.794-0.175,1.07-0.526S261.302,22.014,261.302,21.436z"/>
		<path fill="#2F2F2F" d="M271.069,24.84h-2.044v-1.005h-0.027c-0.469,0.784-1.165,1.176-2.085,1.176
			c-0.679,0-1.213-0.192-1.603-0.578s-0.584-0.899-0.584-1.542c0-1.358,0.804-2.142,2.413-2.352l1.9-0.253
			c0-0.766-0.415-1.148-1.244-1.148c-0.834,0-1.627,0.249-2.379,0.745v-1.627c0.301-0.155,0.712-0.292,1.234-0.41
			s0.997-0.178,1.425-0.178c1.996,0,2.994,0.996,2.994,2.987V24.84z M269.039,21.996v-0.472l-1.271,0.164
			c-0.702,0.091-1.053,0.408-1.053,0.95c0,0.246,0.085,0.448,0.256,0.605s0.402,0.236,0.694,0.236c0.406,0,0.736-0.14,0.991-0.42
			S269.039,22.424,269.039,21.996z"/>
		<path fill="#2F2F2F" d="M276.898,24.758c-0.319,0.168-0.8,0.253-1.442,0.253c-1.522,0-2.283-0.791-2.283-2.372v-3.206h-1.135
			V17.84h1.135v-1.511l2.153-0.615v2.126h1.572v1.593h-1.572v2.83c0,0.729,0.29,1.094,0.868,1.094c0.228,0,0.462-0.066,0.704-0.198
			V24.758z"/>
		<path fill="#2F2F2F" d="M284.079,24.84h-2.044v-1.005h-0.027c-0.469,0.784-1.165,1.176-2.085,1.176
			c-0.679,0-1.213-0.192-1.603-0.578s-0.584-0.899-0.584-1.542c0-1.358,0.804-2.142,2.413-2.352l1.9-0.253
			c0-0.766-0.415-1.148-1.244-1.148c-0.834,0-1.627,0.249-2.379,0.745v-1.627c0.301-0.155,0.712-0.292,1.234-0.41
			s0.997-0.178,1.425-0.178c1.996,0,2.994,0.996,2.994,2.987V24.84z M282.048,21.996v-0.472l-1.271,0.164
			c-0.702,0.091-1.053,0.408-1.053,0.95c0,0.246,0.085,0.448,0.256,0.605s0.402,0.236,0.694,0.236c0.406,0,0.736-0.14,0.991-0.42
			S282.048,22.424,282.048,21.996z"/>
		<path fill="#2F2F2F" d="M291.837,24.026h-0.027v4.033h-2.16V17.84h2.16v1.053h0.027c0.533-0.816,1.283-1.224,2.249-1.224
			c0.907,0,1.607,0.311,2.102,0.933s0.742,1.469,0.742,2.54c0,1.167-0.288,2.103-0.865,2.81s-1.343,1.06-2.3,1.06
			C292.922,25.011,292.279,24.683,291.837,24.026z M291.776,21.155v0.561c0,0.483,0.127,0.877,0.383,1.183s0.59,0.458,1.005,0.458
			c0.492,0,0.874-0.19,1.145-0.571s0.407-0.919,0.407-1.617c0-1.23-0.479-1.846-1.436-1.846c-0.442,0-0.803,0.167-1.083,0.502
			S291.776,20.604,291.776,21.155z"/>
		<path fill="#2F2F2F" d="M304.163,24.84h-2.044v-1.005h-0.027c-0.469,0.784-1.165,1.176-2.085,1.176
			c-0.679,0-1.213-0.192-1.603-0.578s-0.584-0.899-0.584-1.542c0-1.358,0.804-2.142,2.413-2.352l1.9-0.253
			c0-0.766-0.415-1.148-1.244-1.148c-0.834,0-1.627,0.249-2.379,0.745v-1.627c0.301-0.155,0.712-0.292,1.234-0.41
			s0.997-0.178,1.425-0.178c1.996,0,2.994,0.996,2.994,2.987V24.84z M302.133,21.996v-0.472l-1.271,0.164
			c-0.702,0.091-1.053,0.408-1.053,0.95c0,0.246,0.085,0.448,0.256,0.605s0.402,0.236,0.694,0.236c0.406,0,0.736-0.14,0.991-0.42
			S302.133,22.424,302.133,21.996z"/>
		<path fill="#2F2F2F" d="M312.757,24.04c0,1.299-0.376,2.305-1.128,3.018s-1.841,1.07-3.268,1.07c-0.943,0-1.691-0.134-2.242-0.403
			v-1.818c0.72,0.419,1.447,0.629,2.181,0.629c0.729,0,1.294-0.192,1.695-0.578s0.602-0.908,0.602-1.569v-0.554h-0.027
			c-0.492,0.784-1.219,1.176-2.181,1.176c-0.893,0-1.602-0.314-2.126-0.943s-0.786-1.472-0.786-2.529
			c0-1.185,0.292-2.126,0.875-2.823s1.351-1.046,2.304-1.046c0.852,0,1.49,0.328,1.914,0.984h0.027V17.84h2.16V24.04z
			 M310.625,21.477v-0.554c0-0.442-0.131-0.819-0.393-1.131s-0.603-0.468-1.022-0.468c-0.479,0-0.854,0.187-1.128,0.561
			s-0.41,0.9-0.41,1.579c0,0.583,0.13,1.045,0.39,1.384s0.615,0.509,1.066,0.509c0.447,0,0.808-0.172,1.083-0.516
			S310.625,22.042,310.625,21.477z"/>
		<path fill="#2F2F2F" d="M320.851,21.955h-4.566c0.073,1.016,0.713,1.524,1.921,1.524c0.77,0,1.447-0.182,2.03-0.547v1.559
			c-0.647,0.346-1.488,0.52-2.522,0.52c-1.13,0-2.007-0.313-2.632-0.94s-0.937-1.5-0.937-2.622c0-1.162,0.337-2.083,1.012-2.762
			s1.504-1.019,2.488-1.019c1.021,0,1.811,0.303,2.369,0.909s0.837,1.429,0.837,2.468V21.955z M318.848,20.629
			c0-1.002-0.406-1.504-1.217-1.504c-0.346,0-0.646,0.144-0.899,0.431s-0.407,0.645-0.461,1.073H318.848z"/>
	</g>
	<g>
		<path fill="#2F2F2F" d="M158.303,83.015v3.705h-1.148v-9.803h2.693c1.048,0,1.86,0.255,2.437,0.766s0.865,1.23,0.865,2.16
			s-0.32,1.691-0.96,2.283s-1.505,0.889-2.594,0.889H158.303z M158.303,77.957v4.02h1.203c0.793,0,1.398-0.181,1.815-0.543
			s0.625-0.874,0.625-1.535c0-1.294-0.766-1.941-2.297-1.941H158.303z"/>
		<path fill="#2F2F2F" d="M169.556,86.72h-1.121v-1.094h-0.027c-0.488,0.838-1.206,1.258-2.153,1.258
			c-0.697,0-1.243-0.185-1.637-0.554s-0.591-0.859-0.591-1.47c0-1.308,0.77-2.069,2.311-2.283l2.099-0.294
			c0-1.189-0.481-1.784-1.442-1.784c-0.843,0-1.604,0.287-2.283,0.861v-1.148c0.688-0.438,1.481-0.656,2.379-0.656
			c1.645,0,2.468,0.871,2.468,2.611V86.72z M168.435,83.179l-1.688,0.232c-0.52,0.073-0.912,0.202-1.176,0.386
			s-0.396,0.512-0.396,0.981c0,0.342,0.122,0.621,0.366,0.837s0.568,0.325,0.974,0.325c0.556,0,1.015-0.195,1.377-0.584
			s0.543-0.883,0.543-1.48V83.179z"/>
		<path fill="#2F2F2F" d="M177.625,86.16c0,2.57-1.23,3.855-3.691,3.855c-0.866,0-1.623-0.164-2.27-0.492v-1.121
			c0.789,0.438,1.541,0.656,2.256,0.656c1.723,0,2.584-0.916,2.584-2.748v-0.766h-0.027c-0.533,0.893-1.335,1.34-2.406,1.34
			c-0.871,0-1.571-0.311-2.102-0.933s-0.796-1.457-0.796-2.505c0-1.189,0.286-2.135,0.858-2.837s1.354-1.053,2.348-1.053
			c0.943,0,1.643,0.378,2.099,1.135h0.027V79.72h1.121V86.16z M176.504,83.555v-1.032c0-0.556-0.188-1.032-0.564-1.429
			s-0.844-0.595-1.405-0.595c-0.693,0-1.235,0.252-1.627,0.755s-0.588,1.209-0.588,2.116c0,0.779,0.188,1.402,0.564,1.87
			s0.874,0.701,1.494,0.701c0.629,0,1.141-0.223,1.535-0.67S176.504,84.252,176.504,83.555z"/>
		<path fill="#2F2F2F" d="M185.446,83.5h-4.942c0.018,0.779,0.228,1.381,0.629,1.805s0.953,0.636,1.654,0.636
			c0.789,0,1.513-0.26,2.174-0.779v1.053c-0.615,0.447-1.429,0.67-2.44,0.67c-0.989,0-1.766-0.318-2.331-0.954
			s-0.848-1.53-0.848-2.683c0-1.089,0.309-1.977,0.926-2.663s1.384-1.029,2.3-1.029s1.625,0.296,2.126,0.889
			s0.752,1.415,0.752,2.468V83.5z M184.298,82.55c-0.004-0.647-0.161-1.151-0.468-1.511s-0.735-0.54-1.282-0.54
			c-0.529,0-0.978,0.189-1.347,0.567s-0.597,0.873-0.684,1.483H184.298z"/>
		<path fill="#2F2F2F" d="M196.787,86.72h-1.121v-4.033c0-1.458-0.542-2.188-1.627-2.188c-0.547,0-1.007,0.211-1.381,0.632
			s-0.561,0.963-0.561,1.624v3.965h-1.121V76.357h1.121v4.525h0.027c0.538-0.884,1.303-1.326,2.297-1.326
			c1.577,0,2.365,0.95,2.365,2.851V86.72z"/>
		<path fill="#2F2F2F" d="M204.491,83.5h-4.942c0.018,0.779,0.228,1.381,0.629,1.805s0.953,0.636,1.654,0.636
			c0.789,0,1.513-0.26,2.174-0.779v1.053c-0.615,0.447-1.429,0.67-2.44,0.67c-0.989,0-1.766-0.318-2.331-0.954
			s-0.848-1.53-0.848-2.683c0-1.089,0.309-1.977,0.926-2.663s1.384-1.029,2.3-1.029s1.625,0.296,2.126,0.889
			s0.752,1.415,0.752,2.468V83.5z M203.342,82.55c-0.004-0.647-0.161-1.151-0.468-1.511s-0.735-0.54-1.282-0.54
			c-0.529,0-0.978,0.189-1.347,0.567s-0.597,0.873-0.684,1.483H203.342z"/>
		<path fill="#2F2F2F" d="M211.129,86.72h-1.121v-1.094h-0.027c-0.488,0.838-1.206,1.258-2.153,1.258
			c-0.697,0-1.243-0.185-1.637-0.554s-0.591-0.859-0.591-1.47c0-1.308,0.77-2.069,2.311-2.283l2.099-0.294
			c0-1.189-0.481-1.784-1.442-1.784c-0.843,0-1.604,0.287-2.283,0.861v-1.148c0.688-0.438,1.481-0.656,2.379-0.656
			c1.645,0,2.468,0.871,2.468,2.611V86.72z M210.008,83.179l-1.688,0.232c-0.52,0.073-0.912,0.202-1.176,0.386
			s-0.396,0.512-0.396,0.981c0,0.342,0.122,0.621,0.366,0.837s0.568,0.325,0.974,0.325c0.556,0,1.015-0.195,1.377-0.584
			s0.543-0.883,0.543-1.48V83.179z"/>
		<path fill="#2F2F2F" d="M219.198,86.72h-1.121v-1.189h-0.027c-0.52,0.902-1.322,1.354-2.406,1.354
			c-0.879,0-1.583-0.313-2.109-0.94s-0.79-1.48-0.79-2.56c0-1.158,0.292-2.085,0.875-2.782s1.36-1.046,2.331-1.046
			c0.961,0,1.661,0.378,2.099,1.135h0.027v-4.334h1.121V86.72z M218.077,83.555v-1.032c0-0.565-0.187-1.043-0.561-1.436
			s-0.848-0.588-1.422-0.588c-0.684,0-1.221,0.25-1.613,0.752s-0.588,1.194-0.588,2.078c0,0.807,0.188,1.443,0.564,1.911
			s0.881,0.701,1.514,0.701c0.625,0,1.131-0.226,1.521-0.677S218.077,84.243,218.077,83.555z"/>
		<path fill="#2F2F2F" d="M227.02,83.5h-4.942c0.018,0.779,0.228,1.381,0.629,1.805s0.953,0.636,1.654,0.636
			c0.789,0,1.513-0.26,2.174-0.779v1.053c-0.615,0.447-1.429,0.67-2.44,0.67c-0.989,0-1.766-0.318-2.331-0.954
			s-0.848-1.53-0.848-2.683c0-1.089,0.309-1.977,0.926-2.663s1.384-1.029,2.3-1.029s1.625,0.296,2.126,0.889
			s0.752,1.415,0.752,2.468V83.5z M225.871,82.55c-0.004-0.647-0.161-1.151-0.468-1.511s-0.735-0.54-1.282-0.54
			c-0.529,0-0.978,0.189-1.347,0.567s-0.597,0.873-0.684,1.483H225.871z"/>
		<path fill="#2F2F2F" d="M232.353,80.855c-0.196-0.15-0.479-0.226-0.848-0.226c-0.479,0-0.878,0.226-1.2,0.677
			s-0.482,1.066-0.482,1.846v3.568h-1.121v-7h1.121v1.442h0.027c0.16-0.492,0.403-0.876,0.731-1.152s0.695-0.414,1.101-0.414
			c0.292,0,0.515,0.032,0.67,0.096V80.855z"/>
		<path fill="#2F2F2F" d="M161.974,116.72v-9.803h2.707c3.455,0,5.182,1.593,5.182,4.778c0,1.513-0.479,2.729-1.439,3.647
			s-2.243,1.377-3.852,1.377H161.974z M163.123,107.957v7.725h1.463c1.285,0,2.286-0.344,3.001-1.032s1.073-1.664,1.073-2.926
			c0-2.511-1.335-3.767-4.006-3.767H163.123z"/>
		<path fill="#2F2F2F" d="M176.494,116.72h-1.121v-1.094h-0.027c-0.488,0.838-1.206,1.258-2.153,1.258
			c-0.697,0-1.243-0.185-1.637-0.554s-0.591-0.859-0.591-1.47c0-1.308,0.77-2.069,2.311-2.283l2.099-0.294
			c0-1.189-0.481-1.784-1.442-1.784c-0.843,0-1.604,0.287-2.283,0.861v-1.148c0.688-0.438,1.481-0.656,2.379-0.656
			c1.645,0,2.468,0.871,2.468,2.611V116.72z M175.373,113.179l-1.688,0.232c-0.52,0.073-0.912,0.202-1.176,0.386
			s-0.396,0.512-0.396,0.981c0,0.342,0.122,0.621,0.366,0.837s0.568,0.325,0.974,0.325c0.556,0,1.015-0.195,1.377-0.584
			s0.543-0.883,0.543-1.48V113.179z"/>
		<path fill="#2F2F2F" d="M181.752,116.652c-0.264,0.146-0.613,0.219-1.046,0.219c-1.226,0-1.839-0.684-1.839-2.051v-4.143h-1.203
			v-0.957h1.203v-1.709l1.121-0.362v2.071h1.764v0.957h-1.764v3.944c0,0.469,0.08,0.804,0.239,1.005s0.424,0.301,0.793,0.301
			c0.283,0,0.526-0.078,0.731-0.232V116.652z"/>
		<path fill="#2F2F2F" d="M188.37,116.72h-1.121v-1.094h-0.027c-0.488,0.838-1.206,1.258-2.153,1.258
			c-0.697,0-1.243-0.185-1.637-0.554s-0.591-0.859-0.591-1.47c0-1.308,0.77-2.069,2.311-2.283l2.099-0.294
			c0-1.189-0.481-1.784-1.442-1.784c-0.843,0-1.604,0.287-2.283,0.861v-1.148c0.688-0.438,1.481-0.656,2.379-0.656
			c1.645,0,2.468,0.871,2.468,2.611V116.72z M187.249,113.179l-1.688,0.232c-0.52,0.073-0.912,0.202-1.176,0.386
			s-0.396,0.512-0.396,0.981c0,0.342,0.122,0.621,0.366,0.837s0.568,0.325,0.974,0.325c0.556,0,1.015-0.195,1.377-0.584
			s0.543-0.883,0.543-1.48V113.179z"/>
		<path fill="#2F2F2F" d="M197.967,110.855c-0.196-0.15-0.479-0.226-0.848-0.226c-0.479,0-0.878,0.226-1.2,0.677
			s-0.482,1.066-0.482,1.846v3.568h-1.121v-7h1.121v1.442h0.027c0.16-0.492,0.403-0.876,0.731-1.152s0.695-0.414,1.101-0.414
			c0.292,0,0.515,0.032,0.67,0.096V110.855z"/>
		<path fill="#2F2F2F" d="M202.11,116.884c-1.035,0-1.86-0.327-2.478-0.981s-0.926-1.521-0.926-2.601
			c0-1.176,0.321-2.094,0.964-2.755s1.511-0.991,2.604-0.991c1.043,0,1.858,0.321,2.444,0.964s0.878,1.534,0.878,2.673
			c0,1.117-0.315,2.011-0.947,2.683S203.172,116.884,202.11,116.884z M202.192,110.5c-0.72,0-1.29,0.245-1.709,0.735
			s-0.629,1.166-0.629,2.027c0,0.83,0.212,1.483,0.636,1.962s0.991,0.718,1.702,0.718c0.725,0,1.282-0.235,1.671-0.704
			s0.584-1.137,0.584-2.003c0-0.875-0.195-1.549-0.584-2.023S202.917,110.5,202.192,110.5z"/>
		<path fill="#2F2F2F" d="M216.068,109.72l-2.099,7h-1.162l-1.442-5.011c-0.055-0.191-0.091-0.408-0.109-0.649h-0.027
			c-0.014,0.164-0.062,0.376-0.144,0.636l-1.565,5.024h-1.121l-2.119-7h1.176l1.449,5.264c0.045,0.16,0.078,0.369,0.096,0.629h0.055
			c0.014-0.201,0.055-0.415,0.123-0.643l1.613-5.25h1.025l1.449,5.277c0.045,0.168,0.08,0.378,0.103,0.629h0.055
			c0.009-0.178,0.048-0.387,0.116-0.629l1.422-5.277H216.068z"/>
		<path fill="#2F2F2F" d="M225.017,116.72h-1.121v-8.47c-0.086,0.086-0.213,0.186-0.379,0.297s-0.353,0.222-0.561,0.332
			s-0.426,0.212-0.656,0.308s-0.455,0.171-0.673,0.226v-1.135c0.246-0.068,0.507-0.161,0.783-0.277s0.547-0.246,0.813-0.39
			s0.519-0.294,0.755-0.451s0.442-0.311,0.615-0.461h0.424V116.72z"/>
		<path fill="#2F2F2F" d="M161.974,146.72v-9.803h2.707c3.455,0,5.182,1.593,5.182,4.778c0,1.513-0.479,2.729-1.439,3.647
			s-2.243,1.377-3.852,1.377H161.974z M163.123,137.957v7.725h1.463c1.285,0,2.286-0.344,3.001-1.032s1.073-1.664,1.073-2.926
			c0-2.511-1.335-3.767-4.006-3.767H163.123z"/>
		<path fill="#2F2F2F" d="M176.494,146.72h-1.121v-1.094h-0.027c-0.488,0.838-1.206,1.258-2.153,1.258
			c-0.697,0-1.243-0.185-1.637-0.554s-0.591-0.859-0.591-1.47c0-1.308,0.77-2.069,2.311-2.283l2.099-0.294
			c0-1.189-0.481-1.784-1.442-1.784c-0.843,0-1.604,0.287-2.283,0.861v-1.148c0.688-0.438,1.481-0.656,2.379-0.656
			c1.645,0,2.468,0.871,2.468,2.611V146.72z M175.373,143.179l-1.688,0.232c-0.52,0.073-0.912,0.202-1.176,0.386
			s-0.396,0.512-0.396,0.981c0,0.342,0.122,0.621,0.366,0.837s0.568,0.325,0.974,0.325c0.556,0,1.015-0.195,1.377-0.584
			s0.543-0.883,0.543-1.48V143.179z"/>
		<path fill="#2F2F2F" d="M181.752,146.652c-0.264,0.146-0.613,0.219-1.046,0.219c-1.226,0-1.839-0.684-1.839-2.051v-4.143h-1.203
			v-0.957h1.203v-1.709l1.121-0.362v2.071h1.764v0.957h-1.764v3.944c0,0.469,0.08,0.804,0.239,1.005s0.424,0.301,0.793,0.301
			c0.283,0,0.526-0.078,0.731-0.232V146.652z"/>
		<path fill="#2F2F2F" d="M188.37,146.72h-1.121v-1.094h-0.027c-0.488,0.838-1.206,1.258-2.153,1.258
			c-0.697,0-1.243-0.185-1.637-0.554s-0.591-0.859-0.591-1.47c0-1.308,0.77-2.069,2.311-2.283l2.099-0.294
			c0-1.189-0.481-1.784-1.442-1.784c-0.843,0-1.604,0.287-2.283,0.861v-1.148c0.688-0.438,1.481-0.656,2.379-0.656
			c1.645,0,2.468,0.871,2.468,2.611V146.72z M187.249,143.179l-1.688,0.232c-0.52,0.073-0.912,0.202-1.176,0.386
			s-0.396,0.512-0.396,0.981c0,0.342,0.122,0.621,0.366,0.837s0.568,0.325,0.974,0.325c0.556,0,1.015-0.195,1.377-0.584
			s0.543-0.883,0.543-1.48V143.179z"/>
		<path fill="#2F2F2F" d="M197.967,140.855c-0.196-0.15-0.479-0.226-0.848-0.226c-0.479,0-0.878,0.226-1.2,0.677
			s-0.482,1.066-0.482,1.846v3.568h-1.121v-7h1.121v1.442h0.027c0.16-0.492,0.403-0.876,0.731-1.152s0.695-0.414,1.101-0.414
			c0.292,0,0.515,0.032,0.67,0.096V140.855z"/>
		<path fill="#2F2F2F" d="M202.11,146.884c-1.035,0-1.86-0.327-2.478-0.981s-0.926-1.521-0.926-2.601
			c0-1.176,0.321-2.094,0.964-2.755s1.511-0.991,2.604-0.991c1.043,0,1.858,0.321,2.444,0.964s0.878,1.534,0.878,2.673
			c0,1.117-0.315,2.011-0.947,2.683S203.172,146.884,202.11,146.884z M202.192,140.5c-0.72,0-1.29,0.245-1.709,0.735
			s-0.629,1.166-0.629,2.027c0,0.83,0.212,1.483,0.636,1.962s0.991,0.718,1.702,0.718c0.725,0,1.282-0.235,1.671-0.704
			s0.584-1.137,0.584-2.003c0-0.875-0.195-1.549-0.584-2.023S202.917,140.5,202.192,140.5z"/>
		<path fill="#2F2F2F" d="M216.068,139.72l-2.099,7h-1.162l-1.442-5.011c-0.055-0.191-0.091-0.408-0.109-0.649h-0.027
			c-0.014,0.164-0.062,0.376-0.144,0.636l-1.565,5.024h-1.121l-2.119-7h1.176l1.449,5.264c0.045,0.16,0.078,0.369,0.096,0.629h0.055
			c0.014-0.201,0.055-0.415,0.123-0.643l1.613-5.25h1.025l1.449,5.277c0.045,0.168,0.08,0.378,0.103,0.629h0.055
			c0.009-0.178,0.048-0.387,0.116-0.629l1.422-5.277H216.068z"/>
		<path fill="#2F2F2F" d="M225.345,139.488c0-0.301-0.047-0.563-0.14-0.786s-0.221-0.409-0.383-0.557s-0.352-0.259-0.571-0.332
			s-0.456-0.109-0.711-0.109c-0.219,0-0.433,0.03-0.643,0.089s-0.414,0.141-0.612,0.246s-0.39,0.23-0.574,0.376
			s-0.356,0.308-0.516,0.485v-1.203c0.314-0.305,0.667-0.539,1.056-0.701s0.865-0.243,1.425-0.243c0.401,0,0.772,0.058,1.114,0.174
			s0.638,0.286,0.889,0.509s0.448,0.499,0.591,0.827s0.215,0.704,0.215,1.128c0,0.387-0.044,0.738-0.133,1.053
			s-0.223,0.611-0.403,0.889s-0.407,0.544-0.68,0.8s-0.595,0.515-0.964,0.779c-0.46,0.328-0.84,0.608-1.138,0.841
			s-0.536,0.45-0.711,0.653s-0.298,0.406-0.369,0.608s-0.106,0.437-0.106,0.701h4.881v1.005h-6.05v-0.485
			c0-0.419,0.045-0.789,0.137-1.107s0.242-0.622,0.451-0.909s0.484-0.574,0.824-0.861s0.755-0.611,1.248-0.971
			c0.355-0.255,0.653-0.499,0.892-0.731s0.432-0.465,0.578-0.697s0.25-0.468,0.311-0.708S225.345,139.757,225.345,139.488z"/>
		<path fill="#2F2F2F" d="M161.974,176.72v-9.803h2.707c3.455,0,5.182,1.593,5.182,4.778c0,1.513-0.479,2.729-1.439,3.647
			s-2.243,1.377-3.852,1.377H161.974z M163.123,167.957v7.725h1.463c1.285,0,2.286-0.344,3.001-1.032s1.073-1.664,1.073-2.926
			c0-2.511-1.335-3.767-4.006-3.767H163.123z"/>
		<path fill="#2F2F2F" d="M176.494,176.72h-1.121v-1.094h-0.027c-0.488,0.838-1.206,1.258-2.153,1.258
			c-0.697,0-1.243-0.185-1.637-0.554s-0.591-0.859-0.591-1.47c0-1.308,0.77-2.069,2.311-2.283l2.099-0.294
			c0-1.189-0.481-1.784-1.442-1.784c-0.843,0-1.604,0.287-2.283,0.861v-1.148c0.688-0.438,1.481-0.656,2.379-0.656
			c1.645,0,2.468,0.871,2.468,2.611V176.72z M175.373,173.179l-1.688,0.232c-0.52,0.073-0.912,0.202-1.176,0.386
			s-0.396,0.512-0.396,0.981c0,0.342,0.122,0.621,0.366,0.837s0.568,0.325,0.974,0.325c0.556,0,1.015-0.195,1.377-0.584
			s0.543-0.883,0.543-1.48V173.179z"/>
		<path fill="#2F2F2F" d="M181.752,176.652c-0.264,0.146-0.613,0.219-1.046,0.219c-1.226,0-1.839-0.684-1.839-2.051v-4.143h-1.203
			v-0.957h1.203v-1.709l1.121-0.362v2.071h1.764v0.957h-1.764v3.944c0,0.469,0.08,0.804,0.239,1.005s0.424,0.301,0.793,0.301
			c0.283,0,0.526-0.078,0.731-0.232V176.652z"/>
		<path fill="#2F2F2F" d="M188.37,176.72h-1.121v-1.094h-0.027c-0.488,0.838-1.206,1.258-2.153,1.258
			c-0.697,0-1.243-0.185-1.637-0.554s-0.591-0.859-0.591-1.47c0-1.308,0.77-2.069,2.311-2.283l2.099-0.294
			c0-1.189-0.481-1.784-1.442-1.784c-0.843,0-1.604,0.287-2.283,0.861v-1.148c0.688-0.438,1.481-0.656,2.379-0.656
			c1.645,0,2.468,0.871,2.468,2.611V176.72z M187.249,173.179l-1.688,0.232c-0.52,0.073-0.912,0.202-1.176,0.386
			s-0.396,0.512-0.396,0.981c0,0.342,0.122,0.621,0.366,0.837s0.568,0.325,0.974,0.325c0.556,0,1.015-0.195,1.377-0.584
			s0.543-0.883,0.543-1.48V173.179z"/>
		<path fill="#2F2F2F" d="M197.967,170.855c-0.196-0.15-0.479-0.226-0.848-0.226c-0.479,0-0.878,0.226-1.2,0.677
			s-0.482,1.066-0.482,1.846v3.568h-1.121v-7h1.121v1.442h0.027c0.16-0.492,0.403-0.876,0.731-1.152s0.695-0.414,1.101-0.414
			c0.292,0,0.515,0.032,0.67,0.096V170.855z"/>
		<path fill="#2F2F2F" d="M202.11,176.884c-1.035,0-1.86-0.327-2.478-0.981s-0.926-1.521-0.926-2.601
			c0-1.176,0.321-2.094,0.964-2.755s1.511-0.991,2.604-0.991c1.043,0,1.858,0.321,2.444,0.964s0.878,1.534,0.878,2.673
			c0,1.117-0.315,2.011-0.947,2.683S203.172,176.884,202.11,176.884z M202.192,170.5c-0.72,0-1.29,0.245-1.709,0.735
			s-0.629,1.166-0.629,2.027c0,0.83,0.212,1.483,0.636,1.962s0.991,0.718,1.702,0.718c0.725,0,1.282-0.235,1.671-0.704
			s0.584-1.137,0.584-2.003c0-0.875-0.195-1.549-0.584-2.023S202.917,170.5,202.192,170.5z"/>
		<path fill="#2F2F2F" d="M216.068,169.72l-2.099,7h-1.162l-1.442-5.011c-0.055-0.191-0.091-0.408-0.109-0.649h-0.027
			c-0.014,0.164-0.062,0.376-0.144,0.636l-1.565,5.024h-1.121l-2.119-7h1.176l1.449,5.264c0.045,0.16,0.078,0.369,0.096,0.629h0.055
			c0.014-0.201,0.055-0.415,0.123-0.643l1.613-5.25h1.025l1.449,5.277c0.045,0.168,0.08,0.378,0.103,0.629h0.055
			c0.009-0.178,0.048-0.387,0.116-0.629l1.422-5.277H216.068z"/>
		<path fill="#2F2F2F" d="M226.582,173.945c0,0.442-0.083,0.844-0.25,1.207s-0.401,0.672-0.704,0.93s-0.667,0.457-1.09,0.598
			s-0.891,0.212-1.401,0.212c-0.934,0-1.677-0.178-2.229-0.533v-1.203c0.661,0.52,1.417,0.779,2.27,0.779
			c0.342,0,0.65-0.043,0.926-0.13s0.513-0.212,0.711-0.376s0.351-0.362,0.458-0.595s0.161-0.495,0.161-0.786
			c0-1.281-0.912-1.921-2.734-1.921h-0.813v-0.95h0.772c1.613,0,2.42-0.602,2.42-1.805c0-1.112-0.615-1.668-1.846-1.668
			c-0.693,0-1.342,0.232-1.948,0.697v-1.087c0.625-0.374,1.367-0.561,2.229-0.561c0.41,0,0.782,0.057,1.114,0.171
			s0.618,0.273,0.854,0.479s0.42,0.451,0.55,0.738s0.195,0.604,0.195,0.95c0,1.29-0.652,2.119-1.955,2.488v0.027
			c0.333,0.037,0.64,0.117,0.923,0.243s0.526,0.288,0.731,0.489s0.366,0.437,0.482,0.708S226.582,173.617,226.582,173.945z"/>
	</g>
	<g>
		<path fill="#2F2F2F" d="M168.389,214.356h-3.828v3.391h3.541v1.032h-3.541v4.341h-1.148v-9.803h4.977V214.356z"/>
		<path fill="#2F2F2F" d="M173.377,217.255c-0.196-0.15-0.479-0.226-0.848-0.226c-0.479,0-0.878,0.226-1.2,0.677
			s-0.482,1.066-0.482,1.846v3.568h-1.121v-7h1.121v1.442h0.027c0.16-0.492,0.403-0.876,0.731-1.152s0.695-0.414,1.101-0.414
			c0.292,0,0.515,0.032,0.67,0.096V217.255z"/>
		<path fill="#2F2F2F" d="M180.22,219.9h-4.942c0.018,0.779,0.228,1.381,0.629,1.805s0.953,0.636,1.654,0.636
			c0.789,0,1.513-0.26,2.174-0.779v1.053c-0.615,0.447-1.429,0.67-2.44,0.67c-0.989,0-1.766-0.318-2.331-0.954
			s-0.848-1.53-0.848-2.683c0-1.089,0.309-1.977,0.926-2.663s1.384-1.029,2.3-1.029s1.625,0.296,2.126,0.889
			s0.752,1.415,0.752,2.468V219.9z M179.072,218.95c-0.004-0.647-0.161-1.151-0.468-1.511s-0.735-0.54-1.282-0.54
			c-0.529,0-0.978,0.189-1.347,0.567s-0.597,0.873-0.684,1.483H179.072z"/>
		<path fill="#2F2F2F" d="M187.572,219.9h-4.942c0.018,0.779,0.228,1.381,0.629,1.805s0.953,0.636,1.654,0.636
			c0.789,0,1.513-0.26,2.174-0.779v1.053c-0.615,0.447-1.429,0.67-2.44,0.67c-0.989,0-1.766-0.318-2.331-0.954
			s-0.848-1.53-0.848-2.683c0-1.089,0.309-1.977,0.926-2.663s1.384-1.029,2.3-1.029s1.625,0.296,2.126,0.889
			s0.752,1.415,0.752,2.468V219.9z M186.424,218.95c-0.004-0.647-0.161-1.151-0.468-1.511s-0.735-0.54-1.282-0.54
			c-0.529,0-0.978,0.189-1.347,0.567s-0.597,0.873-0.684,1.483H186.424z"/>
		<path fill="#2F2F2F" d="M192.679,222.867v-1.203c0.611,0.451,1.283,0.677,2.017,0.677c0.984,0,1.477-0.328,1.477-0.984
			c0-0.187-0.042-0.345-0.126-0.475s-0.198-0.245-0.342-0.345s-0.312-0.19-0.506-0.27s-0.402-0.163-0.625-0.25
			c-0.31-0.123-0.582-0.247-0.817-0.373s-0.431-0.267-0.588-0.424s-0.276-0.336-0.355-0.537s-0.12-0.435-0.12-0.704
			c0-0.328,0.075-0.619,0.226-0.872s0.351-0.465,0.602-0.636s0.537-0.3,0.858-0.386s0.653-0.13,0.995-0.13
			c0.606,0,1.148,0.105,1.627,0.314v1.135c-0.515-0.337-1.107-0.506-1.777-0.506c-0.209,0-0.399,0.024-0.567,0.072
			s-0.313,0.115-0.434,0.202s-0.214,0.19-0.28,0.311s-0.099,0.254-0.099,0.4c0,0.182,0.033,0.335,0.099,0.458
			s0.163,0.232,0.291,0.328s0.283,0.182,0.465,0.26s0.39,0.162,0.622,0.253c0.31,0.119,0.588,0.24,0.834,0.366
			s0.456,0.267,0.629,0.424s0.307,0.338,0.4,0.543s0.14,0.449,0.14,0.731c0,0.346-0.076,0.647-0.229,0.902s-0.356,0.467-0.612,0.636
			s-0.549,0.294-0.882,0.376s-0.681,0.123-1.046,0.123C193.832,223.284,193.208,223.145,192.679,222.867z"/>
		<path fill="#2F2F2F" d="M200.053,222.108h-0.027v4.231h-1.121v-10.22h1.121v1.23h0.027c0.551-0.93,1.358-1.395,2.42-1.395
			c0.902,0,1.606,0.313,2.112,0.94s0.759,1.466,0.759,2.519c0,1.171-0.285,2.109-0.854,2.813s-1.349,1.056-2.338,1.056
			C201.245,223.284,200.545,222.892,200.053,222.108z M200.025,219.285v0.978c0,0.579,0.188,1.07,0.564,1.473
			s0.854,0.605,1.432,0.605c0.679,0,1.211-0.26,1.596-0.779s0.578-1.242,0.578-2.167c0-0.779-0.18-1.39-0.54-1.832
			s-0.848-0.663-1.463-0.663c-0.652,0-1.176,0.227-1.572,0.68S200.025,218.602,200.025,219.285z"/>
		<path fill="#2F2F2F" d="M212.08,223.12h-1.121v-1.094h-0.027c-0.488,0.838-1.206,1.258-2.153,1.258
			c-0.697,0-1.243-0.185-1.637-0.554s-0.591-0.859-0.591-1.47c0-1.308,0.77-2.069,2.311-2.283l2.099-0.294
			c0-1.189-0.481-1.784-1.442-1.784c-0.843,0-1.604,0.287-2.283,0.861v-1.148c0.688-0.438,1.481-0.656,2.379-0.656
			c1.645,0,2.468,0.871,2.468,2.611V223.12z M210.959,219.579l-1.688,0.232c-0.52,0.073-0.912,0.202-1.176,0.386
			s-0.396,0.512-0.396,0.981c0,0.342,0.122,0.621,0.366,0.837s0.568,0.325,0.974,0.325c0.556,0,1.015-0.195,1.377-0.584
			s0.543-0.883,0.543-1.48V219.579z"/>
		<path fill="#2F2F2F" d="M218.923,222.799c-0.538,0.324-1.176,0.485-1.914,0.485c-0.998,0-1.804-0.325-2.417-0.974
			s-0.919-1.491-0.919-2.526c0-1.153,0.331-2.079,0.991-2.779s1.542-1.049,2.646-1.049c0.615,0,1.158,0.114,1.627,0.342v1.148
			c-0.52-0.365-1.076-0.547-1.668-0.547c-0.715,0-1.302,0.256-1.76,0.769s-0.687,1.186-0.687,2.02c0,0.82,0.215,1.467,0.646,1.941
			s1.008,0.711,1.733,0.711c0.611,0,1.185-0.203,1.723-0.608V222.799z"/>
		<path fill="#2F2F2F" d="M226.093,219.9h-4.942c0.018,0.779,0.228,1.381,0.629,1.805s0.953,0.636,1.654,0.636
			c0.789,0,1.513-0.26,2.174-0.779v1.053c-0.615,0.447-1.429,0.67-2.44,0.67c-0.989,0-1.766-0.318-2.331-0.954
			s-0.848-1.53-0.848-2.683c0-1.089,0.309-1.977,0.926-2.663s1.384-1.029,2.3-1.029s1.625,0.296,2.126,0.889
			s0.752,1.415,0.752,2.468V219.9z M224.945,218.95c-0.004-0.647-0.161-1.151-0.468-1.511s-0.735-0.54-1.282-0.54
			c-0.529,0-0.978,0.189-1.347,0.567s-0.597,0.873-0.684,1.483H224.945z"/>
	</g>
	<g>
		<path fill="#2F2F2F" d="M242.835,268.168c0,0.442-0.083,0.844-0.25,1.207s-0.401,0.672-0.704,0.93s-0.667,0.457-1.09,0.598
			s-0.891,0.212-1.401,0.212c-0.934,0-1.677-0.178-2.229-0.533v-1.203c0.661,0.52,1.417,0.779,2.27,0.779
			c0.342,0,0.65-0.043,0.926-0.13s0.513-0.212,0.711-0.376s0.351-0.362,0.458-0.595s0.161-0.495,0.161-0.786
			c0-1.281-0.912-1.921-2.734-1.921h-0.813v-0.95h0.772c1.613,0,2.42-0.602,2.42-1.805c0-1.112-0.615-1.668-1.846-1.668
			c-0.693,0-1.342,0.232-1.948,0.697v-1.087c0.625-0.374,1.367-0.561,2.229-0.561c0.41,0,0.782,0.057,1.114,0.171
			s0.618,0.273,0.854,0.479s0.42,0.451,0.55,0.738s0.195,0.604,0.195,0.95c0,1.29-0.652,2.119-1.955,2.488v0.027
			c0.333,0.037,0.64,0.117,0.923,0.243s0.526,0.288,0.731,0.489s0.366,0.437,0.482,0.708S242.835,267.84,242.835,268.168z"/>
	</g>
	<g>
		<path fill="#2F2F2F" d="M269.459,263.711c0-0.301-0.047-0.563-0.14-0.786s-0.221-0.409-0.383-0.557s-0.352-0.259-0.571-0.332
			s-0.456-0.109-0.711-0.109c-0.219,0-0.433,0.03-0.643,0.089s-0.414,0.141-0.612,0.246s-0.39,0.23-0.574,0.376
			s-0.356,0.308-0.516,0.485v-1.203c0.314-0.305,0.667-0.539,1.056-0.701s0.865-0.243,1.425-0.243c0.401,0,0.772,0.058,1.114,0.174
			s0.638,0.286,0.889,0.509s0.448,0.499,0.591,0.827s0.215,0.704,0.215,1.128c0,0.387-0.044,0.738-0.133,1.053
			s-0.223,0.611-0.403,0.889s-0.407,0.544-0.68,0.8s-0.595,0.515-0.964,0.779c-0.46,0.328-0.84,0.608-1.138,0.841
			s-0.536,0.45-0.711,0.653s-0.298,0.406-0.369,0.608s-0.106,0.437-0.106,0.701h4.881v1.005h-6.05v-0.485
			c0-0.419,0.045-0.789,0.137-1.107s0.242-0.622,0.451-0.909s0.484-0.574,0.824-0.861s0.755-0.611,1.248-0.971
			c0.355-0.255,0.653-0.499,0.892-0.731s0.432-0.465,0.578-0.697s0.25-0.468,0.311-0.708S269.459,263.98,269.459,263.711z"/>
	</g>
	<g>
		<path fill="#2F2F2F" d="M296.991,270.944h-1.121v-8.47c-0.086,0.086-0.213,0.186-0.379,0.297s-0.353,0.222-0.561,0.332
			s-0.426,0.212-0.656,0.308s-0.455,0.171-0.673,0.226v-1.135c0.246-0.068,0.507-0.161,0.783-0.277s0.547-0.246,0.813-0.39
			s0.519-0.294,0.755-0.451s0.442-0.311,0.615-0.461h0.424V270.944z"/>
	</g>
	<g>
		<path fill="#2F2F2F" d="M368.332,271.083h-1.367l-1.641-2.748c-0.15-0.255-0.296-0.473-0.438-0.653s-0.286-0.327-0.434-0.441
			s-0.308-0.197-0.479-0.25s-0.363-0.079-0.578-0.079h-0.943v4.17h-1.148v-9.803h2.926c0.428,0,0.824,0.054,1.186,0.161
			s0.677,0.27,0.943,0.489s0.475,0.491,0.625,0.817s0.226,0.708,0.226,1.145c0,0.342-0.051,0.655-0.154,0.94
			s-0.249,0.539-0.438,0.762s-0.417,0.414-0.684,0.571s-0.566,0.279-0.899,0.366v0.027c0.164,0.073,0.307,0.156,0.427,0.25
			s0.236,0.204,0.345,0.332s0.218,0.272,0.325,0.434s0.227,0.35,0.359,0.564L368.332,271.083z M362.453,262.32v3.555h1.559
			c0.287,0,0.553-0.043,0.796-0.13s0.455-0.211,0.632-0.373s0.317-0.36,0.417-0.595s0.15-0.498,0.15-0.79
			c0-0.524-0.17-0.933-0.509-1.227s-0.831-0.441-1.473-0.441H362.453z"/>
		<path fill="#2F2F2F" d="M372.244,271.248c-1.035,0-1.86-0.327-2.478-0.981s-0.926-1.521-0.926-2.601
			c0-1.176,0.321-2.094,0.964-2.755s1.511-0.991,2.604-0.991c1.043,0,1.858,0.321,2.444,0.964s0.878,1.534,0.878,2.673
			c0,1.117-0.315,2.011-0.947,2.683S373.306,271.248,372.244,271.248z M372.326,264.863c-0.72,0-1.29,0.245-1.709,0.735
			s-0.629,1.166-0.629,2.027c0,0.83,0.212,1.483,0.636,1.962s0.991,0.718,1.702,0.718c0.725,0,1.282-0.235,1.671-0.704
			s0.584-1.137,0.584-2.003c0-0.875-0.195-1.549-0.584-2.023S373.05,264.863,372.326,264.863z"/>
		<path fill="#2F2F2F" d="M386.202,264.083l-2.099,7h-1.162l-1.442-5.011c-0.055-0.191-0.091-0.408-0.109-0.649h-0.027
			c-0.014,0.164-0.062,0.376-0.144,0.636l-1.565,5.024h-1.121l-2.119-7h1.176l1.449,5.264c0.045,0.16,0.078,0.369,0.096,0.629h0.055
			c0.014-0.201,0.055-0.415,0.123-0.643l1.613-5.25h1.025l1.449,5.277c0.045,0.168,0.08,0.378,0.103,0.629h0.055
			c0.009-0.178,0.048-0.387,0.116-0.629l1.422-5.277H386.202z"/>
		<path fill="#2F2F2F" d="M394.262,271.248c-1.035,0-1.86-0.327-2.478-0.981s-0.926-1.521-0.926-2.601
			c0-1.176,0.321-2.094,0.964-2.755s1.511-0.991,2.604-0.991c1.043,0,1.858,0.321,2.444,0.964s0.878,1.534,0.878,2.673
			c0,1.117-0.315,2.011-0.947,2.683S395.324,271.248,394.262,271.248z M394.344,264.863c-0.72,0-1.29,0.245-1.709,0.735
			s-0.629,1.166-0.629,2.027c0,0.83,0.212,1.483,0.636,1.962s0.991,0.718,1.702,0.718c0.725,0,1.282-0.235,1.671-0.704
			s0.584-1.137,0.584-2.003c0-0.875-0.195-1.549-0.584-2.023S395.068,264.863,394.344,264.863z"/>
		<path fill="#2F2F2F" d="M402.817,261.705c-0.219-0.123-0.467-0.185-0.745-0.185c-0.784,0-1.176,0.495-1.176,1.483v1.08h1.641
			v0.957h-1.641v6.043h-1.114v-6.043h-1.196v-0.957h1.196v-1.135c0-0.734,0.212-1.313,0.636-1.74s0.953-0.639,1.586-0.639
			c0.342,0,0.613,0.041,0.813,0.123V261.705z"/>
		<path fill="#2F2F2F" d="M407.63,261.705c-0.219-0.123-0.467-0.185-0.745-0.185c-0.784,0-1.176,0.495-1.176,1.483v1.08h1.641v0.957
			h-1.641v6.043h-1.114v-6.043h-1.196v-0.957h1.196v-1.135c0-0.734,0.212-1.313,0.636-1.74s0.953-0.639,1.586-0.639
			c0.342,0,0.613,0.041,0.813,0.123V261.705z"/>
		<path fill="#2F2F2F" d="M408.3,270.831v-1.203c0.611,0.451,1.283,0.677,2.017,0.677c0.984,0,1.477-0.328,1.477-0.984
			c0-0.187-0.042-0.345-0.126-0.475s-0.198-0.245-0.342-0.345s-0.312-0.19-0.506-0.27s-0.402-0.163-0.625-0.25
			c-0.31-0.123-0.582-0.247-0.817-0.373s-0.431-0.267-0.588-0.424s-0.276-0.336-0.355-0.537s-0.12-0.435-0.12-0.704
			c0-0.328,0.075-0.619,0.226-0.872s0.351-0.465,0.602-0.636s0.537-0.3,0.858-0.386s0.653-0.13,0.995-0.13
			c0.606,0,1.148,0.105,1.627,0.314v1.135c-0.515-0.337-1.107-0.506-1.777-0.506c-0.209,0-0.399,0.024-0.567,0.072
			s-0.313,0.115-0.434,0.202s-0.214,0.19-0.28,0.311s-0.099,0.254-0.099,0.4c0,0.182,0.033,0.335,0.099,0.458
			s0.163,0.232,0.291,0.328s0.283,0.182,0.465,0.26s0.39,0.162,0.622,0.253c0.31,0.119,0.588,0.24,0.834,0.366
			s0.456,0.267,0.629,0.424s0.307,0.338,0.4,0.543s0.14,0.449,0.14,0.731c0,0.346-0.076,0.647-0.229,0.902s-0.356,0.467-0.612,0.636
			s-0.549,0.294-0.882,0.376s-0.681,0.123-1.046,0.123C409.453,271.248,408.829,271.108,408.3,270.831z"/>
		<path fill="#2F2F2F" d="M420.255,267.864h-4.942c0.018,0.779,0.228,1.381,0.629,1.805s0.953,0.636,1.654,0.636
			c0.789,0,1.513-0.26,2.174-0.779v1.053c-0.615,0.447-1.429,0.67-2.44,0.67c-0.989,0-1.766-0.318-2.331-0.954
			s-0.848-1.53-0.848-2.683c0-1.089,0.309-1.977,0.926-2.663s1.384-1.029,2.3-1.029s1.625,0.296,2.126,0.889
			s0.752,1.415,0.752,2.468V267.864z M419.107,266.914c-0.004-0.647-0.161-1.151-0.468-1.511s-0.735-0.54-1.282-0.54
			c-0.529,0-0.978,0.189-1.347,0.567s-0.597,0.873-0.684,1.483H419.107z"/>
		<path fill="#2F2F2F" d="M425.18,271.015c-0.264,0.146-0.613,0.219-1.046,0.219c-1.226,0-1.839-0.684-1.839-2.051v-4.143h-1.203
			v-0.957h1.203v-1.709l1.121-0.362v2.071h1.764v0.957h-1.764v3.944c0,0.469,0.08,0.804,0.239,1.005s0.424,0.301,0.793,0.301
			c0.283,0,0.526-0.078,0.731-0.232V271.015z"/>
		<path fill="#2F2F2F" d="M426.355,270.831v-1.203c0.611,0.451,1.283,0.677,2.017,0.677c0.984,0,1.477-0.328,1.477-0.984
			c0-0.187-0.042-0.345-0.126-0.475s-0.198-0.245-0.342-0.345s-0.312-0.19-0.506-0.27s-0.402-0.163-0.625-0.25
			c-0.31-0.123-0.582-0.247-0.817-0.373s-0.431-0.267-0.588-0.424s-0.276-0.336-0.355-0.537s-0.12-0.435-0.12-0.704
			c0-0.328,0.075-0.619,0.226-0.872s0.351-0.465,0.602-0.636s0.537-0.3,0.858-0.386s0.653-0.13,0.995-0.13
			c0.606,0,1.148,0.105,1.627,0.314v1.135c-0.515-0.337-1.107-0.506-1.777-0.506c-0.209,0-0.399,0.024-0.567,0.072
			s-0.313,0.115-0.434,0.202s-0.214,0.19-0.28,0.311s-0.099,0.254-0.099,0.4c0,0.182,0.033,0.335,0.099,0.458
			s0.163,0.232,0.291,0.328s0.283,0.182,0.465,0.26s0.39,0.162,0.622,0.253c0.31,0.119,0.588,0.24,0.834,0.366
			s0.456,0.267,0.629,0.424s0.307,0.338,0.4,0.543s0.14,0.449,0.14,0.731c0,0.346-0.076,0.647-0.229,0.902s-0.356,0.467-0.612,0.636
			s-0.549,0.294-0.882,0.376s-0.681,0.123-1.046,0.123C427.508,271.248,426.884,271.108,426.355,270.831z"/>
	</g>
</g>
<g id="Layer_1">
</g>
</svg>
