<?xml version="1.0" encoding="utf-8"?>
<!-- Generator: Adobe Illustrator 26.5.0, SVG Export Plug-In . SVG Version: 6.00 Build 0)  -->
<svg version="1.1" xmlns="http://www.w3.org/2000/svg" xmlns:xlink="http://www.w3.org/1999/xlink" x="0px" y="0px"
	 viewBox="0 0 822.787 105" enable-background="new 0 0 822.787 105" xml:space="preserve">
<symbol  id="PIPELINE" viewBox="-32 -12.266 64 24.531">
	<linearGradient id="SVGID_1_" gradientUnits="userSpaceOnUse" x1="0" y1="-12.2655" x2="1.502093e-15" y2="12.2655">
		<stop  offset="0" style="stop-color:#1B89B2"/>
		<stop  offset="1" style="stop-color:#51C8E8"/>
	</linearGradient>
	<path fill="url(#SVGID_1_)" d="M26.096,12.266h-51.448v0h0C-29.08,12.265-32,6.878-32,0s2.92-12.265,6.648-12.265h0v0h51.448
		C29.356-12.266,32-6.363,32,0S29.356,12.266,26.096,12.266z"/>
	<g>
		
			<linearGradient id="SVGID_00000041269268662469307610000014685485028358929343_" gradientUnits="userSpaceOnUse" x1="-31.461" y1="-6.1136" x2="-19.2338" y2="6.1136">
			<stop  offset="0" style="stop-color:#B3B4B4"/>
			<stop  offset="1" style="stop-color:#4F4F4F"/>
		</linearGradient>
		<ellipse fill="url(#SVGID_00000041269268662469307610000014685485028358929343_)" cx="-25.347" cy="0" rx="5.575" ry="10.879"/>
	</g>
</symbol>
<g id="Shapes">
	<rect x="-1.154" fill="#FFFFFF" width="823.941" height="105"/>
	<g id="Wrench_tool_x28_s_x29_">
	</g>
	<g id="user2">
	</g>
	<g id="user2_1_">
	</g>
	<g id="user2_4_">
	</g>
	<g id="user2_3_">
	</g>
	<g id="user2_2_">
	</g>
	<g id="Internet_2">
	</g>
	<g id="Enterprise">
	</g>
	<g id="Tunnel__x28_stackable_x29_">
	</g>
	<g id="New_Symbol">
	</g>
	<g id="New_Symbol_1">
	</g>
	<g id="Files">
	</g>
	<g id="BlobBlock">
	</g>
	<g id="E_x5F_Enterprise">
	</g>
	<g id="E_x5F_AD_FS">
	</g>
	<g id="C_x5F_Azure_Active_Directory">
	</g>
	<g>
		<g opacity="0.24">
			<rect x="5.578" y="20" width="110.656" height="79.2"/>
			<rect x="5.578" y="20" opacity="0.5" width="110.656" height="79.2"/>
		</g>
		<g>
			<rect x="4.578" y="19" fill="#FFFFFF" width="110.656" height="79.2"/>
			<rect x="4.578" y="19" opacity="0.5" fill="#FFE452" width="110.656" height="79.2"/>
		</g>
	</g>
	<g id="abc3e3f9-d4db-41ad-8b60-378d1c3348f7_00000101789788926121699980000018231915263820362925_">
		<g>
			<g>
				<path fill="#FFFFFF" d="M19.869,6.023H7.1c-0.557,0-1.008,0.451-1.008,1.008c0,0.001,0,0.001,0,0.002v27.533
					c-0.001,0.557,0.45,1.009,1.007,1.01c0.001,0,0.001,0,0.002,0h22.127c0.554-0.005,1.001-0.456,1-1.01V16.345
					c0.001-0.554-0.446-1.005-1-1.01h-7.343c-0.554-0.005-1-0.455-1-1.008V7.033c0.006-0.552-0.438-1.004-0.99-1.01
					C19.885,6.023,19.877,6.023,19.869,6.023z"/>
				
					<linearGradient id="SVGID_00000098915028365197178080000012535136179661008820_" gradientUnits="userSpaceOnUse" x1="-545.8364" y1="-1546.8" x2="-545.8364" y2="-1516.8" gradientTransform="matrix(1 0 0 -1 564 -1511)">
					<stop  offset="0" style="stop-color:#0078D4"/>
					<stop  offset="0.817" style="stop-color:#5EA0EF"/>
				</linearGradient>
				<path fill="url(#SVGID_00000098915028365197178080000012535136179661008820_)" d="M19.402,7.313v6.915
					c0.001,1.4,1.134,2.535,2.533,2.538h6.967v17.52H7.425V7.313H19.402 M19.89,5.8H6.937c-0.565,0-1.023,0.458-1.023,1.023
					c0,0.001,0,0.001,0,0.002v27.95C5.913,35.34,6.37,35.799,6.935,35.8c0.001,0,0.001,0,0.002,0H29.39
					c0.565,0,1.023-0.458,1.023-1.023c0-0.001,0-0.001,0-0.002V16.277c0-0.565-0.458-1.023-1.023-1.023l0,0h-7.455
					c-0.565-0.001-1.023-0.46-1.022-1.025v0V6.825c0.001-0.565-0.456-1.024-1.022-1.025C19.891,5.8,19.891,5.8,19.89,5.8z"/>
				<path fill="#0078D4" d="M30.024,15.457L20.56,6.023v7.687c-0.006,0.958,0.765,1.74,1.723,1.747c0.001,0,0.001,0,0.002,0
					L30.024,15.457z"/>
			</g>
			<path fill="#5EA0EF" d="M10.835,19.46H25.49c0.555,0,1.005,0.45,1.005,1.005v0.225c0,0.555-0.45,1.005-1.005,1.005H10.835
				c-0.555,0-1.005-0.45-1.005-1.005v-0.225C9.83,19.91,10.28,19.46,10.835,19.46z"/>
			<path fill="#5EA0EF" d="M10.835,23.465H25.49c0.555,0,1.005,0.45,1.005,1.005v0.225c0,0.555-0.45,1.005-1.005,1.005H10.835
				c-0.555,0-1.005-0.45-1.005-1.005V24.47C9.83,23.915,10.28,23.465,10.835,23.465z"/>
			<path fill="#5EA0EF" d="M10.835,27.47h8.493c0.555,0,1.005,0.45,1.005,1.005V28.7c0,0.555-0.45,1.005-1.005,1.005h-8.493
				c-0.555,0-1.005-0.45-1.005-1.005v-0.225C9.83,27.92,10.28,27.47,10.835,27.47z"/>
		</g>
	</g>
	<g>
		<g opacity="0.24">
			<rect x="128.655" y="20" width="110.656" height="79.2"/>
			<rect x="128.655" y="20" opacity="0.5" width="110.656" height="79.2"/>
		</g>
		<g>
			<rect x="127.655" y="19" fill="#FFFFFF" width="110.656" height="79.2"/>
			<rect x="127.655" y="19" opacity="0.5" fill="#FFE452" width="110.656" height="79.2"/>
		</g>
	</g>
	<g id="abc3e3f9-d4db-41ad-8b60-378d1c3348f7_00000036947591003714936400000013029856072620317604_">
		<g>
			<g>
				<path fill="#FFFFFF" d="M143.069,6.023H130.3c-0.557,0-1.008,0.451-1.008,1.008c0,0.001,0,0.001,0,0.002v27.533
					c-0.001,0.557,0.45,1.009,1.007,1.01c0.001,0,0.001,0,0.002,0h22.127c0.554-0.005,1.001-0.456,1-1.01V16.345
					c0.001-0.554-0.446-1.005-1-1.01h-7.343c-0.554-0.005-1-0.455-1-1.008V7.033c0.006-0.552-0.438-1.004-0.99-1.01
					C143.085,6.023,143.077,6.023,143.069,6.023z"/>
				
					<linearGradient id="SVGID_00000018929316487423929350000009668636831463574183_" gradientUnits="userSpaceOnUse" x1="-422.6364" y1="-1546.8" x2="-422.6364" y2="-1516.8" gradientTransform="matrix(1 0 0 -1 564 -1511)">
					<stop  offset="0" style="stop-color:#0078D4"/>
					<stop  offset="0.817" style="stop-color:#5EA0EF"/>
				</linearGradient>
				<path fill="url(#SVGID_00000018929316487423929350000009668636831463574183_)" d="M142.602,7.313v6.915
					c0.001,1.4,1.134,2.535,2.533,2.538h6.967v17.52h-21.477V7.313H142.602 M143.09,5.8h-12.953c-0.565,0-1.023,0.458-1.023,1.023
					c0,0.001,0,0.001,0,0.002v27.95c-0.001,0.565,0.456,1.024,1.022,1.025c0.001,0,0.001,0,0.002,0h22.453
					c0.565,0,1.023-0.458,1.023-1.023c0-0.001,0-0.001,0-0.002V16.277c0-0.565-0.458-1.023-1.023-1.023l0,0h-7.455
					c-0.565-0.001-1.023-0.46-1.022-1.025v0V6.825c0.001-0.565-0.456-1.024-1.022-1.025C143.091,5.8,143.091,5.8,143.09,5.8z"/>
				<path fill="#0078D4" d="M153.224,15.457l-9.463-9.433v7.687c-0.006,0.958,0.765,1.74,1.723,1.747c0.001,0,0.001,0,0.002,0
					L153.224,15.457z"/>
			</g>
			<path fill="#5EA0EF" d="M134.035,19.46h14.655c0.555,0,1.005,0.45,1.005,1.005v0.225c0,0.555-0.45,1.005-1.005,1.005h-14.655
				c-0.555,0-1.005-0.45-1.005-1.005v-0.225C133.03,19.91,133.48,19.46,134.035,19.46z"/>
			<path fill="#5EA0EF" d="M134.035,23.465h14.655c0.555,0,1.005,0.45,1.005,1.005v0.225c0,0.555-0.45,1.005-1.005,1.005h-14.655
				c-0.555,0-1.005-0.45-1.005-1.005V24.47C133.03,23.915,133.48,23.465,134.035,23.465z"/>
			<path fill="#5EA0EF" d="M134.035,27.47h8.493c0.555,0,1.005,0.45,1.005,1.005V28.7c0,0.555-0.45,1.005-1.005,1.005h-8.493
				c-0.555,0-1.005-0.45-1.005-1.005v-0.225C133.03,27.92,133.48,27.47,134.035,27.47z"/>
		</g>
	</g>
	<g>
		<g opacity="0.24">
			<rect x="251.733" y="20" width="110.656" height="79.2"/>
			<rect x="251.733" y="20" opacity="0.5" width="110.656" height="79.2"/>
		</g>
		<g>
			<rect x="250.733" y="19" fill="#FFFFFF" width="110.656" height="79.2"/>
			<rect x="250.733" y="19" opacity="0.5" fill="#FFE452" width="110.656" height="79.2"/>
		</g>
	</g>
	<g id="abc3e3f9-d4db-41ad-8b60-378d1c3348f7_00000067918764689874177530000007706839297772047518_">
		<g>
			<g>
				<path fill="#FFFFFF" d="M266.269,6.023H253.5c-0.557,0-1.008,0.451-1.008,1.008c0,0.001,0,0.001,0,0.002v27.533
					c-0.001,0.557,0.45,1.009,1.007,1.01c0.001,0,0.001,0,0.002,0h22.127c0.554-0.005,1.001-0.456,1-1.01V16.345
					c0.001-0.554-0.446-1.005-1-1.01h-7.343c-0.554-0.005-1-0.455-1-1.008V7.033c0.006-0.552-0.438-1.004-0.99-1.01
					C266.285,6.023,266.277,6.023,266.269,6.023z"/>
				
					<linearGradient id="SVGID_00000126310318668834087810000007568249739829734797_" gradientUnits="userSpaceOnUse" x1="-299.4364" y1="-1546.8" x2="-299.4364" y2="-1516.8" gradientTransform="matrix(1 0 0 -1 564 -1511)">
					<stop  offset="0" style="stop-color:#0078D4"/>
					<stop  offset="0.817" style="stop-color:#5EA0EF"/>
				</linearGradient>
				<path fill="url(#SVGID_00000126310318668834087810000007568249739829734797_)" d="M265.802,7.313v6.915
					c0.001,1.4,1.134,2.535,2.533,2.538h6.967v17.52h-21.477V7.313H265.802 M266.29,5.8h-12.953c-0.565,0-1.023,0.458-1.023,1.023
					c0,0.001,0,0.001,0,0.002v27.95c-0.001,0.565,0.456,1.024,1.022,1.025c0.001,0,0.001,0,0.002,0h22.453
					c0.565,0,1.023-0.458,1.023-1.023c0-0.001,0-0.001,0-0.002V16.277c0-0.565-0.458-1.023-1.023-1.023l0,0h-7.455
					c-0.565-0.001-1.023-0.46-1.022-1.025v0V6.825c0.001-0.565-0.456-1.024-1.022-1.025C266.291,5.8,266.291,5.8,266.29,5.8z"/>
				<path fill="#0078D4" d="M276.424,15.457l-9.463-9.433v7.687c-0.006,0.958,0.765,1.74,1.723,1.747c0.001,0,0.001,0,0.002,0
					L276.424,15.457z"/>
			</g>
			<path fill="#5EA0EF" d="M257.235,19.46h14.655c0.555,0,1.005,0.45,1.005,1.005v0.225c0,0.555-0.45,1.005-1.005,1.005h-14.655
				c-0.555,0-1.005-0.45-1.005-1.005v-0.225C256.23,19.91,256.68,19.46,257.235,19.46z"/>
			<path fill="#5EA0EF" d="M257.235,23.465h14.655c0.555,0,1.005,0.45,1.005,1.005v0.225c0,0.555-0.45,1.005-1.005,1.005h-14.655
				c-0.555,0-1.005-0.45-1.005-1.005V24.47C256.23,23.915,256.68,23.465,257.235,23.465z"/>
			<path fill="#5EA0EF" d="M257.235,27.47h8.493c0.555,0,1.005,0.45,1.005,1.005V28.7c0,0.555-0.45,1.005-1.005,1.005h-8.493
				c-0.555,0-1.005-0.45-1.005-1.005v-0.225C256.23,27.92,256.68,27.47,257.235,27.47z"/>
		</g>
	</g>
	<g>
		<g opacity="0.24">
			<rect x="374.811" y="20" width="110.656" height="79.2"/>
			<rect x="374.811" y="20" opacity="0.5" width="110.656" height="79.2"/>
		</g>
		<g>
			<rect x="373.811" y="19" fill="#FFFFFF" width="110.656" height="79.2"/>
			<rect x="373.811" y="19" opacity="0.5" fill="#FFE452" width="110.656" height="79.2"/>
		</g>
	</g>
	<g id="abc3e3f9-d4db-41ad-8b60-378d1c3348f7_00000036233745255998505910000002649492097079355056_">
		<g>
			<g>
				<path fill="#FFFFFF" d="M388.813,6.023h-12.768c-0.557,0-1.008,0.451-1.008,1.008c0,0.001,0,0.001,0,0.002v27.533
					c-0.001,0.557,0.45,1.009,1.007,1.01c0.001,0,0.001,0,0.002,0h22.127c0.554-0.005,1.001-0.456,1-1.01V16.345
					c0.001-0.554-0.446-1.005-1-1.01h-7.343c-0.554-0.005-1-0.455-1-1.008V7.033c0.006-0.552-0.438-1.004-0.99-1.01
					C388.829,6.023,388.821,6.023,388.813,6.023z"/>
				
					<linearGradient id="SVGID_00000089552641904872112270000016232208651697648769_" gradientUnits="userSpaceOnUse" x1="-176.8924" y1="-1546.8" x2="-176.8924" y2="-1516.8" gradientTransform="matrix(1 0 0 -1 564 -1511)">
					<stop  offset="0" style="stop-color:#0078D4"/>
					<stop  offset="0.817" style="stop-color:#5EA0EF"/>
				</linearGradient>
				<path fill="url(#SVGID_00000089552641904872112270000016232208651697648769_)" d="M388.346,7.313v6.915
					c0.001,1.4,1.134,2.535,2.533,2.538h6.967v17.52h-21.477V7.313H388.346 M388.834,5.8h-12.953c-0.565,0-1.023,0.458-1.023,1.023
					c0,0.001,0,0.001,0,0.002v27.95c-0.001,0.565,0.457,1.024,1.022,1.025c0.001,0,0.001,0,0.002,0h22.453
					c0.565,0,1.023-0.458,1.023-1.023c0-0.001,0-0.001,0-0.002V16.277c0-0.565-0.458-1.023-1.023-1.023l0,0h-7.455
					c-0.565-0.001-1.023-0.46-1.022-1.025v0V6.825c0.001-0.565-0.456-1.024-1.022-1.025C388.835,5.8,388.835,5.8,388.834,5.8z"/>
				<path fill="#0078D4" d="M398.968,15.457l-9.463-9.433v7.687c-0.006,0.958,0.765,1.74,1.723,1.747c0.001,0,0.001,0,0.002,0
					L398.968,15.457z"/>
			</g>
			<path fill="#5EA0EF" d="M379.779,19.46h14.655c0.555,0,1.005,0.45,1.005,1.005v0.225c0,0.555-0.45,1.005-1.005,1.005h-14.655
				c-0.555,0-1.005-0.45-1.005-1.005v-0.225C378.774,19.91,379.224,19.46,379.779,19.46z"/>
			<path fill="#5EA0EF" d="M379.779,23.465h14.655c0.555,0,1.005,0.45,1.005,1.005v0.225c0,0.555-0.45,1.005-1.005,1.005h-14.655
				c-0.555,0-1.005-0.45-1.005-1.005V24.47C378.774,23.915,379.224,23.465,379.779,23.465z"/>
			<path fill="#5EA0EF" d="M379.779,27.47h8.493c0.555,0,1.005,0.45,1.005,1.005V28.7c0,0.555-0.45,1.005-1.005,1.005h-8.493
				c-0.555,0-1.005-0.45-1.005-1.005v-0.225C378.774,27.92,379.224,27.47,379.779,27.47z"/>
		</g>
	</g>
	<g>
		<g opacity="0.24">
			<rect x="497.889" y="20" width="110.656" height="79.2"/>
			<rect x="497.889" y="20" opacity="0.5" width="110.656" height="79.2"/>
		</g>
		<g>
			<rect x="496.889" y="19" fill="#FFFFFF" width="110.656" height="79.2"/>
			<rect x="496.889" y="19" opacity="0.5" fill="#FFE452" width="110.656" height="79.2"/>
		</g>
	</g>
	<g id="abc3e3f9-d4db-41ad-8b60-378d1c3348f7_00000087400628259141428640000009895058030785631144_">
		<g>
			<g>
				<path fill="#FFFFFF" d="M512.669,6.023H499.9c-0.557,0-1.008,0.451-1.008,1.008c0,0.001,0,0.001,0,0.002v27.533
					c-0.001,0.557,0.45,1.009,1.007,1.01c0.001,0,0.001,0,0.002,0h22.127c0.554-0.005,1.001-0.456,1-1.01V16.345
					c0.001-0.554-0.446-1.005-1-1.01h-7.343c-0.554-0.005-1-0.455-1-1.008V7.033c0.006-0.552-0.438-1.004-0.99-1.01
					C512.685,6.023,512.677,6.023,512.669,6.023z"/>
				
					<linearGradient id="SVGID_00000154404011632105357430000013392860979699041209_" gradientUnits="userSpaceOnUse" x1="-53.0364" y1="-1546.8" x2="-53.0364" y2="-1516.8" gradientTransform="matrix(1 0 0 -1 564 -1511)">
					<stop  offset="0" style="stop-color:#0078D4"/>
					<stop  offset="0.817" style="stop-color:#5EA0EF"/>
				</linearGradient>
				<path fill="url(#SVGID_00000154404011632105357430000013392860979699041209_)" d="M512.202,7.313v6.915
					c0.001,1.4,1.134,2.535,2.533,2.538h6.967v17.52h-21.477V7.313H512.202 M512.69,5.8h-12.953c-0.565,0-1.023,0.458-1.023,1.023
					c0,0.001,0,0.001,0,0.002v27.95c-0.001,0.565,0.457,1.024,1.022,1.025c0.001,0,0.001,0,0.002,0h22.453
					c0.565,0,1.023-0.458,1.023-1.023c0-0.001,0-0.001,0-0.002V16.277c0-0.565-0.458-1.023-1.023-1.023l0,0h-7.455
					c-0.565-0.001-1.023-0.46-1.022-1.025v0V6.825c0.001-0.565-0.456-1.024-1.022-1.025C512.691,5.8,512.691,5.8,512.69,5.8z"/>
				<path fill="#0078D4" d="M522.824,15.457l-9.463-9.433v7.687c-0.006,0.958,0.765,1.74,1.723,1.747c0.001,0,0.001,0,0.002,0
					L522.824,15.457z"/>
			</g>
			<path fill="#5EA0EF" d="M503.635,19.46h14.655c0.555,0,1.005,0.45,1.005,1.005v0.225c0,0.555-0.45,1.005-1.005,1.005h-14.655
				c-0.555,0-1.005-0.45-1.005-1.005v-0.225C502.63,19.91,503.08,19.46,503.635,19.46z"/>
			<path fill="#5EA0EF" d="M503.635,23.465h14.655c0.555,0,1.005,0.45,1.005,1.005v0.225c0,0.555-0.45,1.005-1.005,1.005h-14.655
				c-0.555,0-1.005-0.45-1.005-1.005V24.47C502.63,23.915,503.08,23.465,503.635,23.465z"/>
			<path fill="#5EA0EF" d="M503.635,27.47h8.493c0.555,0,1.005,0.45,1.005,1.005V28.7c0,0.555-0.45,1.005-1.005,1.005h-8.493
				c-0.555,0-1.005-0.45-1.005-1.005v-0.225C502.63,27.92,503.08,27.47,503.635,27.47z"/>
		</g>
	</g>
	<g>
		<g opacity="0.24">
			<rect x="620.966" y="20" width="110.656" height="79.2"/>
			<rect x="620.966" y="20" opacity="0.5" width="110.656" height="79.2"/>
		</g>
		<g>
			<rect x="619.966" y="19" fill="#FFFFFF" width="110.656" height="79.2"/>
			<rect x="619.966" y="19" opacity="0.5" fill="#FFE452" width="110.656" height="79.2"/>
		</g>
	</g>
	<g id="abc3e3f9-d4db-41ad-8b60-378d1c3348f7_00000073714849661224127350000008503595393483110060_">
		<g>
			<g>
				<path fill="#FFFFFF" d="M635.213,6.023h-12.768c-0.557,0-1.008,0.451-1.008,1.008c0,0.001,0,0.001,0,0.002v27.533
					c-0.001,0.557,0.45,1.009,1.007,1.01c0.001,0,0.001,0,0.002,0h22.127c0.554-0.005,1.001-0.456,1-1.01V16.345
					c0.001-0.554-0.446-1.005-1-1.01h-7.343c-0.554-0.005-1-0.455-1-1.008V7.033c0.006-0.552-0.438-1.004-0.99-1.01
					C635.229,6.023,635.221,6.023,635.213,6.023z"/>
				
					<linearGradient id="SVGID_00000124132481080752166630000016347015633360717751_" gradientUnits="userSpaceOnUse" x1="69.5076" y1="-1546.8" x2="69.5076" y2="-1516.8" gradientTransform="matrix(1 0 0 -1 564 -1511)">
					<stop  offset="0" style="stop-color:#0078D4"/>
					<stop  offset="0.817" style="stop-color:#5EA0EF"/>
				</linearGradient>
				<path fill="url(#SVGID_00000124132481080752166630000016347015633360717751_)" d="M634.746,7.313v6.915
					c0.001,1.4,1.134,2.535,2.533,2.538h6.967v17.52h-21.477V7.313H634.746 M635.234,5.8h-12.953c-0.565,0-1.023,0.458-1.023,1.023
					c0,0.001,0,0.001,0,0.002v27.95c-0.001,0.565,0.456,1.024,1.022,1.025c0.001,0,0.001,0,0.002,0h22.453
					c0.565,0,1.023-0.458,1.023-1.023c0-0.001,0-0.001,0-0.002V16.277c0-0.565-0.458-1.023-1.023-1.023l0,0h-7.455
					c-0.565-0.001-1.023-0.46-1.022-1.025v0V6.825c0.001-0.565-0.456-1.024-1.022-1.025C635.235,5.8,635.235,5.8,635.234,5.8z"/>
				<path fill="#0078D4" d="M645.368,15.457l-9.463-9.433v7.687c-0.006,0.958,0.765,1.74,1.723,1.747c0.001,0,0.001,0,0.002,0
					L645.368,15.457z"/>
			</g>
			<path fill="#5EA0EF" d="M626.179,19.46h14.655c0.555,0,1.005,0.45,1.005,1.005v0.225c0,0.555-0.45,1.005-1.005,1.005h-14.655
				c-0.555,0-1.005-0.45-1.005-1.005v-0.225C625.174,19.91,625.624,19.46,626.179,19.46z"/>
			<path fill="#5EA0EF" d="M626.179,23.465h14.655c0.555,0,1.005,0.45,1.005,1.005v0.225c0,0.555-0.45,1.005-1.005,1.005h-14.655
				c-0.555,0-1.005-0.45-1.005-1.005V24.47C625.174,23.915,625.624,23.465,626.179,23.465z"/>
			<path fill="#5EA0EF" d="M626.179,27.47h8.493c0.555,0,1.005,0.45,1.005,1.005V28.7c0,0.555-0.45,1.005-1.005,1.005h-8.493
				c-0.555,0-1.005-0.45-1.005-1.005v-0.225C625.174,27.92,625.624,27.47,626.179,27.47z"/>
		</g>
	</g>
	<path d="M763.709,56.314c0.321,0,0.619,0.06,0.893,0.179c0.274,0.119,0.512,0.28,0.714,0.482c0.202,0.202,0.369,0.446,0.5,0.732
		c0.131,0.286,0.19,0.583,0.179,0.893c0,0.321-0.06,0.619-0.179,0.893c-0.119,0.274-0.28,0.512-0.482,0.714
		c-0.202,0.202-0.446,0.369-0.732,0.5c-0.286,0.131-0.583,0.19-0.893,0.179c-0.321,0-0.619-0.06-0.893-0.179
		c-0.274-0.119-0.512-0.28-0.714-0.482c-0.202-0.202-0.369-0.446-0.5-0.732c-0.131-0.286-0.19-0.583-0.179-0.893
		c0-0.321,0.06-0.619,0.179-0.893s0.28-0.512,0.482-0.714c0.202-0.202,0.446-0.369,0.732-0.5S763.4,56.303,763.709,56.314z
		 M777.422,56.314c0.321,0,0.619,0.06,0.893,0.179c0.274,0.119,0.512,0.28,0.714,0.482c0.202,0.202,0.369,0.446,0.5,0.732
		c0.131,0.286,0.19,0.583,0.179,0.893c0,0.321-0.06,0.619-0.179,0.893s-0.28,0.512-0.482,0.714c-0.202,0.202-0.446,0.369-0.732,0.5
		s-0.583,0.19-0.893,0.179c-0.321,0-0.619-0.06-0.893-0.179c-0.274-0.119-0.512-0.28-0.714-0.482
		c-0.202-0.202-0.369-0.446-0.5-0.732c-0.131-0.286-0.19-0.583-0.179-0.893c0-0.321,0.06-0.619,0.179-0.893
		c0.119-0.274,0.28-0.512,0.482-0.714c0.202-0.202,0.446-0.369,0.732-0.5C776.815,56.362,777.113,56.303,777.422,56.314z
		 M791.135,56.314c0.321,0,0.619,0.06,0.893,0.179s0.512,0.28,0.714,0.482c0.202,0.202,0.369,0.446,0.5,0.732
		c0.131,0.286,0.19,0.583,0.179,0.893c0,0.321-0.06,0.619-0.179,0.893s-0.28,0.512-0.482,0.714c-0.202,0.202-0.446,0.369-0.732,0.5
		s-0.583,0.19-0.893,0.179c-0.321,0-0.619-0.06-0.893-0.179c-0.274-0.119-0.512-0.28-0.714-0.482
		c-0.202-0.202-0.369-0.446-0.5-0.732c-0.131-0.286-0.19-0.583-0.179-0.893c0-0.321,0.06-0.619,0.179-0.893
		c0.119-0.274,0.28-0.512,0.482-0.714c0.202-0.202,0.446-0.369,0.732-0.5C790.528,56.362,790.826,56.303,791.135,56.314z"/>
</g>
<g id="Text">
	<g>
		<path fill="#2F2F2F" d="M30.167,59.395h-3.459v2.406h3.179v1.791h-3.179V67.4H24.5v-9.803h5.667V59.395z"/>
		<path fill="#2F2F2F" d="M32.521,59.293c-0.365,0-0.663-0.109-0.896-0.325s-0.349-0.481-0.349-0.796
			c0-0.324,0.116-0.588,0.349-0.793s0.531-0.309,0.896-0.309c0.369,0,0.669,0.104,0.899,0.309s0.345,0.469,0.345,0.793
			c0,0.328-0.115,0.597-0.345,0.807C33.19,59.188,32.891,59.293,32.521,59.293z M33.588,67.4h-2.16v-7h2.16V67.4z"/>
		<path fill="#2F2F2F" d="M37.523,67.4h-2.16V57.037h2.16V67.4z"/>
		<path fill="#2F2F2F" d="M45.639,64.516h-4.566c0.073,1.016,0.713,1.523,1.921,1.523c0.77,0,1.447-0.182,2.03-0.547v1.559
			c-0.647,0.347-1.488,0.52-2.522,0.52c-1.13,0-2.007-0.312-2.632-0.939s-0.937-1.5-0.937-2.621c0-1.162,0.337-2.083,1.012-2.762
			c0.674-0.68,1.504-1.02,2.488-1.02c1.021,0,1.811,0.304,2.369,0.91c0.558,0.605,0.837,1.428,0.837,2.467V64.516z M43.636,63.189
			c0-1.003-0.406-1.504-1.217-1.504c-0.346,0-0.646,0.143-0.899,0.43s-0.407,0.646-0.461,1.074H43.636z"/>
		<path fill="#2F2F2F" d="M57.506,67.4h-2.153v-3.979c0-1.025-0.374-1.539-1.121-1.539c-0.383,0-0.693,0.145-0.93,0.432
			s-0.355,0.651-0.355,1.094V67.4h-2.16V57.037h2.16v4.402h0.027c0.529-0.807,1.247-1.211,2.153-1.211
			c1.586,0,2.379,0.957,2.379,2.871V67.4z"/>
		<path fill="#2F2F2F" d="M65.526,64.516H60.96c0.073,1.016,0.713,1.523,1.921,1.523c0.77,0,1.447-0.182,2.03-0.547v1.559
			c-0.647,0.347-1.488,0.52-2.522,0.52c-1.13,0-2.007-0.312-2.632-0.939s-0.937-1.5-0.937-2.621c0-1.162,0.337-2.083,1.012-2.762
			c0.674-0.68,1.504-1.02,2.488-1.02c1.021,0,1.811,0.304,2.369,0.91c0.558,0.605,0.837,1.428,0.837,2.467V64.516z M63.523,63.189
			c0-1.003-0.406-1.504-1.217-1.504c-0.346,0-0.646,0.143-0.899,0.43s-0.407,0.646-0.461,1.074H63.523z"/>
		<path fill="#2F2F2F" d="M72.692,67.4h-2.044v-1.006h-0.027c-0.469,0.784-1.165,1.176-2.085,1.176
			c-0.679,0-1.213-0.191-1.603-0.577s-0.584-0.899-0.584-1.542c0-1.357,0.804-2.142,2.413-2.352l1.9-0.252
			c0-0.766-0.415-1.148-1.244-1.148c-0.834,0-1.627,0.248-2.379,0.744v-1.627c0.301-0.154,0.712-0.291,1.234-0.41
			c0.522-0.118,0.997-0.178,1.425-0.178c1.996,0,2.994,0.996,2.994,2.988V67.4z M70.662,64.557v-0.473l-1.271,0.164
			c-0.702,0.092-1.053,0.408-1.053,0.951c0,0.246,0.085,0.447,0.256,0.604s0.402,0.235,0.694,0.235c0.406,0,0.736-0.14,0.991-0.42
			S70.662,64.984,70.662,64.557z"/>
		<path fill="#2F2F2F" d="M81.273,67.4h-2.16v-0.965h-0.027c-0.492,0.757-1.214,1.135-2.167,1.135c-0.875,0-1.579-0.309-2.112-0.926
			s-0.8-1.48-0.8-2.588c0-1.157,0.294-2.084,0.882-2.781s1.358-1.047,2.311-1.047c0.902,0,1.531,0.324,1.887,0.971h0.027v-4.162
			h2.16V67.4z M79.154,63.996v-0.527c0-0.455-0.132-0.834-0.396-1.135s-0.608-0.451-1.032-0.451c-0.479,0-0.852,0.188-1.121,0.564
			s-0.403,0.893-0.403,1.549c0,0.615,0.13,1.089,0.39,1.422c0.26,0.332,0.62,0.498,1.08,0.498c0.438,0,0.794-0.175,1.07-0.525
			C79.016,65.039,79.154,64.574,79.154,63.996z"/>
		<path fill="#2F2F2F" d="M89.38,64.516h-4.566c0.073,1.016,0.713,1.523,1.921,1.523c0.77,0,1.447-0.182,2.03-0.547v1.559
			c-0.647,0.347-1.488,0.52-2.522,0.52c-1.13,0-2.007-0.312-2.632-0.939s-0.937-1.5-0.937-2.621c0-1.162,0.337-2.083,1.012-2.762
			c0.674-0.68,1.504-1.02,2.488-1.02c1.021,0,1.811,0.304,2.369,0.91c0.558,0.605,0.837,1.428,0.837,2.467V64.516z M87.377,63.189
			c0-1.003-0.406-1.504-1.217-1.504c-0.346,0-0.646,0.143-0.899,0.43s-0.407,0.646-0.461,1.074H87.377z"/>
		<path fill="#2F2F2F" d="M95.312,62.348c-0.26-0.141-0.563-0.211-0.909-0.211c-0.469,0-0.836,0.172-1.101,0.516
			s-0.396,0.812-0.396,1.404V67.4h-2.16v-7h2.16v1.299h0.027c0.342-0.948,0.957-1.422,1.846-1.422c0.228,0,0.406,0.027,0.533,0.082
			V62.348z"/>
	</g>
	<g>
		<g>
			<path fill="#2F2F2F" d="M174.184,64.029v3.377h-2.208v-9.803h3.459c2.47,0,3.705,1.042,3.705,3.124
				c0,0.984-0.354,1.781-1.063,2.39s-1.655,0.912-2.84,0.912H174.184z M174.184,59.299v3.056h0.868c1.176,0,1.764-0.515,1.764-1.545
				c0-1.007-0.588-1.511-1.764-1.511H174.184z"/>
			<path fill="#2F2F2F" d="M186.016,59.401h-3.459v2.406h3.179v1.791h-3.179v3.808h-2.208v-9.803h5.667V59.401z"/>
			<path fill="#2F2F2F" d="M187.065,67.03v-2.188c0.396,0.333,0.827,0.582,1.292,0.749c0.465,0.166,0.934,0.249,1.408,0.249
				c0.278,0,0.521-0.024,0.728-0.075c0.208-0.05,0.38-0.119,0.52-0.208s0.243-0.194,0.311-0.314
				c0.068-0.121,0.103-0.252,0.103-0.394c0-0.191-0.055-0.362-0.164-0.513s-0.259-0.289-0.448-0.417
				c-0.189-0.127-0.414-0.25-0.673-0.369c-0.26-0.118-0.54-0.239-0.841-0.362c-0.766-0.318-1.336-0.708-1.712-1.169
				c-0.376-0.46-0.564-1.016-0.564-1.668c0-0.51,0.103-0.949,0.308-1.315c0.205-0.367,0.484-0.669,0.837-0.906
				c0.353-0.236,0.762-0.411,1.227-0.522c0.465-0.112,0.957-0.168,1.477-0.168c0.51,0,0.963,0.031,1.357,0.093
				s0.758,0.156,1.09,0.283v2.044c-0.164-0.113-0.343-0.214-0.537-0.301c-0.194-0.086-0.393-0.158-0.598-0.215
				c-0.205-0.058-0.409-0.1-0.612-0.127s-0.396-0.041-0.578-0.041c-0.25,0-0.479,0.024-0.684,0.072s-0.378,0.115-0.52,0.201
				c-0.141,0.087-0.25,0.19-0.328,0.312c-0.078,0.12-0.116,0.256-0.116,0.406c0,0.164,0.043,0.312,0.13,0.441
				s0.209,0.253,0.369,0.369s0.353,0.229,0.581,0.342c0.228,0.111,0.485,0.227,0.772,0.345c0.392,0.164,0.744,0.339,1.056,0.523
				s0.58,0.393,0.803,0.625s0.394,0.498,0.513,0.797c0.119,0.298,0.178,0.646,0.178,1.042c0,0.547-0.104,1.006-0.311,1.378
				c-0.208,0.371-0.489,0.672-0.844,0.902c-0.355,0.229-0.769,0.396-1.241,0.495c-0.472,0.101-0.97,0.15-1.494,0.15
				c-0.538,0-1.049-0.045-1.535-0.137C187.841,67.35,187.421,67.213,187.065,67.03z"/>
		</g>
	</g>
	<g>
		<g>
			<path fill="#2F2F2F" d="M298.381,66.75c-0.957,0.552-2.146,0.827-3.568,0.827c-1.577,0-2.82-0.437-3.729-1.309
				c-0.909-0.873-1.364-2.075-1.364-3.606c0-1.54,0.497-2.796,1.49-3.767s2.315-1.456,3.965-1.456c1.039,0,1.955,0.144,2.748,0.431
				v2.071c-0.756-0.438-1.682-0.656-2.775-0.656c-0.916,0-1.662,0.298-2.239,0.893s-0.865,1.389-0.865,2.382
				c0,1.008,0.259,1.787,0.776,2.338c0.517,0.552,1.216,0.827,2.095,0.827c0.529,0,0.948-0.075,1.258-0.226v-1.914h-1.962v-1.764
				h4.17V66.75z"/>
			<path fill="#2F2F2F" d="M308.903,67.406h-2.406l-0.697-2.181h-3.486l-0.69,2.181h-2.393l3.568-9.803h2.618L308.903,67.406z
				 M305.294,63.53l-1.053-3.295c-0.078-0.246-0.132-0.54-0.164-0.882h-0.055c-0.023,0.287-0.08,0.572-0.171,0.854l-1.066,3.322
				H305.294z"/>
			<path fill="#2F2F2F" d="M321.176,67.406h-2.181v-5.865c0-0.633,0.027-1.333,0.082-2.099h-0.055
				c-0.114,0.602-0.216,1.035-0.308,1.299l-2.297,6.665h-1.805l-2.338-6.597c-0.064-0.178-0.167-0.633-0.308-1.367h-0.062
				c0.059,0.967,0.089,1.814,0.089,2.543v5.421h-1.989v-9.803h3.233l2.003,5.811c0.16,0.465,0.276,0.933,0.349,1.401h0.041
				c0.123-0.542,0.253-1.014,0.39-1.415l2.003-5.797h3.151V67.406z"/>
		</g>
	</g>
	<g>
		<g>
			<path fill="#2F2F2F" d="M408.542,67.03v-2.188c0.396,0.333,0.827,0.582,1.292,0.749c0.465,0.166,0.934,0.249,1.408,0.249
				c0.278,0,0.521-0.024,0.728-0.075c0.208-0.05,0.38-0.119,0.52-0.208s0.243-0.194,0.311-0.314
				c0.068-0.121,0.103-0.252,0.103-0.394c0-0.191-0.055-0.362-0.164-0.513s-0.259-0.289-0.448-0.417
				c-0.189-0.127-0.414-0.25-0.673-0.369c-0.26-0.118-0.54-0.239-0.841-0.362c-0.766-0.318-1.336-0.708-1.712-1.169
				c-0.376-0.46-0.564-1.016-0.564-1.668c0-0.51,0.103-0.949,0.308-1.315c0.205-0.367,0.484-0.669,0.837-0.906
				c0.353-0.236,0.762-0.411,1.227-0.522c0.465-0.112,0.957-0.168,1.477-0.168c0.51,0,0.963,0.031,1.357,0.093
				s0.758,0.156,1.09,0.283v2.044c-0.164-0.113-0.343-0.214-0.537-0.301c-0.194-0.086-0.393-0.158-0.598-0.215
				c-0.205-0.058-0.409-0.1-0.612-0.127s-0.396-0.041-0.578-0.041c-0.25,0-0.479,0.024-0.684,0.072s-0.378,0.115-0.52,0.201
				c-0.141,0.087-0.25,0.19-0.328,0.312c-0.078,0.12-0.116,0.256-0.116,0.406c0,0.164,0.043,0.312,0.13,0.441
				s0.209,0.253,0.369,0.369s0.353,0.229,0.581,0.342c0.228,0.111,0.485,0.227,0.772,0.345c0.392,0.164,0.744,0.339,1.056,0.523
				s0.58,0.393,0.803,0.625s0.394,0.498,0.513,0.797c0.119,0.298,0.178,0.646,0.178,1.042c0,0.547-0.104,1.006-0.311,1.378
				c-0.208,0.371-0.489,0.672-0.844,0.902c-0.355,0.229-0.769,0.396-1.241,0.495c-0.472,0.101-0.97,0.15-1.494,0.15
				c-0.538,0-1.049-0.045-1.535-0.137C409.317,67.35,408.897,67.213,408.542,67.03z"/>
			<path fill="#2F2F2F" d="M424.812,66.75c-0.957,0.552-2.146,0.827-3.568,0.827c-1.577,0-2.82-0.437-3.729-1.309
				c-0.909-0.873-1.364-2.075-1.364-3.606c0-1.54,0.497-2.796,1.49-3.767s2.315-1.456,3.965-1.456c1.039,0,1.955,0.144,2.748,0.431
				v2.071c-0.756-0.438-1.682-0.656-2.775-0.656c-0.916,0-1.662,0.298-2.239,0.893s-0.865,1.389-0.865,2.382
				c0,1.008,0.259,1.787,0.776,2.338c0.517,0.552,1.216,0.827,2.095,0.827c0.529,0,0.948-0.075,1.258-0.226v-1.914h-1.962v-1.764
				h4.17V66.75z"/>
			<path fill="#2F2F2F" d="M435.334,67.406h-2.406l-0.697-2.181h-3.486l-0.69,2.181h-2.393l3.568-9.803h2.618L435.334,67.406z
				 M431.725,63.53l-1.053-3.295c-0.078-0.246-0.132-0.54-0.164-0.882h-0.055c-0.023,0.287-0.08,0.572-0.171,0.854l-1.066,3.322
				H431.725z"/>
			<path fill="#2F2F2F" d="M447.607,67.406h-2.181v-5.865c0-0.633,0.027-1.333,0.082-2.099h-0.055
				c-0.114,0.602-0.216,1.035-0.308,1.299l-2.297,6.665h-1.805l-2.338-6.597c-0.064-0.178-0.167-0.633-0.308-1.367h-0.062
				c0.059,0.967,0.089,1.814,0.089,2.543v5.421h-1.989v-9.803h3.233l2.003,5.811c0.16,0.465,0.276,0.933,0.349,1.401h0.041
				c0.123-0.542,0.253-1.014,0.39-1.415l2.003-5.797h3.151V67.406z"/>
		</g>
	</g>
	<g>
		<g>
			<path fill="#2F2F2F" d="M537.736,67.406v-9.803h3.568c1.094,0,1.935,0.201,2.522,0.602c0.588,0.401,0.882,0.967,0.882,1.695
				c0,0.529-0.179,0.991-0.537,1.388s-0.814,0.673-1.371,0.827v0.027c0.697,0.087,1.254,0.345,1.671,0.772
				c0.417,0.429,0.625,0.95,0.625,1.565c0,0.898-0.321,1.61-0.964,2.137s-1.52,0.789-2.632,0.789H537.736z M539.944,59.23v2.324
				h0.971c0.456,0,0.814-0.11,1.077-0.331c0.262-0.222,0.393-0.525,0.393-0.913c0-0.72-0.538-1.08-1.613-1.08H539.944z
				 M539.944,63.195v2.584h1.196c0.51,0,0.91-0.118,1.2-0.355c0.29-0.236,0.434-0.561,0.434-0.971c0-0.392-0.143-0.699-0.427-0.923
				c-0.285-0.223-0.683-0.335-1.193-0.335H539.944z"/>
			<path fill="#2F2F2F" d="M553.681,67.058c-0.715,0.347-1.65,0.52-2.803,0.52c-1.504,0-2.687-0.441-3.548-1.326
				c-0.861-0.884-1.292-2.062-1.292-3.534c0-1.567,0.484-2.839,1.453-3.814c0.968-0.975,2.225-1.463,3.77-1.463
				c0.957,0,1.764,0.121,2.42,0.362v2.126c-0.656-0.392-1.404-0.588-2.242-0.588c-0.92,0-1.664,0.29-2.229,0.868
				c-0.565,0.579-0.848,1.363-0.848,2.352c0,0.948,0.267,1.703,0.8,2.267c0.533,0.562,1.251,0.844,2.153,0.844
				c0.861,0,1.65-0.209,2.365-0.629V67.058z"/>
			<path fill="#2F2F2F" d="M566.576,67.406h-2.181v-5.865c0-0.633,0.027-1.333,0.082-2.099h-0.055
				c-0.114,0.602-0.216,1.035-0.308,1.299l-2.297,6.665h-1.805l-2.338-6.597c-0.064-0.178-0.167-0.633-0.308-1.367h-0.062
				c0.059,0.967,0.089,1.814,0.089,2.543v5.421h-1.989v-9.803h3.233l2.003,5.811c0.16,0.465,0.276,0.933,0.349,1.401h0.041
				c0.123-0.542,0.253-1.014,0.39-1.415l2.003-5.797h3.151V67.406z"/>
		</g>
	</g>
	<g>
		<g>
			<path fill="#2F2F2F" d="M659.583,67.406v-9.803h3.473c3.482,0,5.223,1.593,5.223,4.778c0,1.527-0.475,2.746-1.425,3.657
				c-0.95,0.912-2.216,1.367-3.797,1.367H659.583z M661.791,59.401v6.214h1.094c0.957,0,1.708-0.287,2.252-0.861
				s0.817-1.355,0.817-2.345c0-0.934-0.27-1.669-0.81-2.204c-0.54-0.536-1.298-0.804-2.273-0.804H661.791z"/>
			<path fill="#2F2F2F" d="M676.922,67.058c-0.715,0.347-1.65,0.52-2.803,0.52c-1.504,0-2.687-0.441-3.548-1.326
				c-0.861-0.884-1.292-2.062-1.292-3.534c0-1.567,0.484-2.839,1.453-3.814c0.968-0.975,2.225-1.463,3.77-1.463
				c0.957,0,1.764,0.121,2.42,0.362v2.126c-0.656-0.392-1.404-0.588-2.242-0.588c-0.92,0-1.664,0.29-2.229,0.868
				c-0.565,0.579-0.848,1.363-0.848,2.352c0,0.948,0.267,1.703,0.8,2.267c0.533,0.562,1.251,0.844,2.153,0.844
				c0.861,0,1.65-0.209,2.365-0.629V67.058z"/>
			<path fill="#2F2F2F" d="M689.816,67.406h-2.181v-5.865c0-0.633,0.027-1.333,0.082-2.099h-0.055
				c-0.114,0.602-0.216,1.035-0.308,1.299l-2.297,6.665h-1.805l-2.338-6.597c-0.064-0.178-0.167-0.633-0.308-1.367h-0.062
				c0.059,0.967,0.089,1.814,0.089,2.543v5.421h-1.989v-9.803h3.233l2.003,5.811c0.16,0.465,0.276,0.933,0.349,1.401h0.041
				c0.123-0.542,0.253-1.014,0.39-1.415l2.003-5.797h3.151V67.406z"/>
		</g>
	</g>
</g>
<g id="Layer_1">
</g>
</svg>
