<svg xmlns="http://www.w3.org/2000/svg" viewBox="0 0 298 110">
  <title>8 - admin-policybasemgmt</title>
  <g id="background_blue" data-name="background blue">
    <rect x="0.062" width="298" height="110" fill="#e4edf1"/>
  </g>
  <g id="Shapes">
    <g>
      <path d="M220.753,92.994h-8.577a2.208,2.208,0,0,0,.156-.994,2.947,2.947,0,0,0-3.051-2.842l-.062,0H79.177a2.852,2.852,0,0,0-.528,5.68,2.74,2.74,0,0,0,.528,0h59.606a2.083,2.083,0,0,0-.232.991,2.991,2.991,0,0,0,3.113,2.833h79.089a2.849,2.849,0,0,0,.528-5.674,2.91,2.91,0,0,0-.528,0Z" fill="#969696"/>
      <path d="M177.977,58.155l-6-5.815a2.328,2.328,0,0,0-1.244-.646V38.36H100.682V55.669h4.047V42.188h61.94V54.677l-3.2,3.408a5.791,5.791,0,0,0-1.478,3.55V89.946A2.167,2.167,0,0,0,164.257,92h13a2.167,2.167,0,0,0,2.265-2.054V61.635A5.553,5.553,0,0,0,177.977,58.155Z" fill="#a80000"/>
      <path d="M141.275,24.666,138.628,18.7a1.275,1.275,0,0,0-1.013-.708l-.387-.072-.778,5.038-1.877,1.99L131.46,24.6l-1.244-2.489L131,17.142l-.39-.07a1.4,1.4,0,0,0-1.165.425L125.075,22.6a1.18,1.18,0,0,0-.156,1.139l2.644,5.958a1.388,1.388,0,0,0,1.012.779l.551.069-3.978,25.617,5.923.788,3.971-25.687.543.069a1.413,1.413,0,0,0,1.176-.425l4.358-5.037A1.344,1.344,0,0,0,141.275,24.666Z" fill="#1b348e"/>
      <path d="M141.275,24.666l-2.181-5.038-.543,3.545L136.6,25.232l-2.032-.283-3.114-.351-1.24-2.489L131,17.142l-.232,1.489L127.1,22.819a1.36,1.36,0,0,0-.156,1.21l2.654,5.957a1.277,1.277,0,0,0,1.01.708l.624.142L127.25,56.449l3.822.5,3.971-25.687.543.069a1.413,1.413,0,0,0,1.176-.425l4.357-5.038A1.342,1.342,0,0,0,141.275,24.666Z" fill="#0078d7"/>
      <path d="M124.06,26.153c-3.043-7.876-14.726-6.17-14.726-6.17h-.077a19.6,19.6,0,0,0-3.356.5h-.232c-.079,0-.156.069-.235.069h-.156c-2.412.566-3.891,1.276-3.97,1.56a1.455,1.455,0,0,1-1.1,1.275,3.6,3.6,0,0,1-1.79-.283,15.068,15.068,0,0,0-2.723-.5l-1.012.214-.7.214h-.156a1.083,1.083,0,0,0-.862,1.21l1.407,5.319a1.145,1.145,0,0,0,1.324.708h.156l1.869-.425a8.433,8.433,0,0,0,2.022-1.416,3.854,3.854,0,0,1,1.489-1,1.635,1.635,0,0,1,.933.211v.072l.156.5a1.238,1.238,0,0,0,1.4.789l1.79-.425L110.5,48.155l3.971-.922-4.984-19.519,1.794-.355a1.063,1.063,0,0,0,.781-1.275l-.08-.356C117.2,22.251,123.358,25.942,124.06,26.153Z" fill="#ffb900"/>
      <path d="M120.394,60.848a1.05,1.05,0,0,1-.778,1.266c-.025.006-.05.011-.076.015l-6.235,1.347a1.174,1.174,0,0,1-1.4-.778l-6.469-25.192a1.022,1.022,0,0,1,.81-1.2l.047-.008,6.235-1.346a1.166,1.166,0,0,1,1.4.777Z" fill="#0078d7"/>
      <path d="M107.38,36.087l-1.089.214a1.022,1.022,0,0,0-.865,1.157l.008.048L111.9,62.7a1.172,1.172,0,0,0,1.4.778l1.089-.283Z" opacity="0.28" style="isolation: isolate"/>
      <path d="M96.245,29.136l-1.324-5.251A1.063,1.063,0,0,1,95.7,22.6h0l-1.012.214-.7.214H93.83a1.083,1.083,0,0,0-.862,1.21l1.406,5.32a1.145,1.145,0,0,0,1.324.708h.156l1.869-.425h0l-.079.072A1.239,1.239,0,0,1,96.245,29.136Z" fill="#db9d00"/>
      <polygon points="106.758 28.287 105.434 28.57 107.38 36.087 108.632 35.804 106.758 28.287" fill="#db9d00"/>
      <path d="M124.291,45.6a8.134,8.134,0,0,1-.232-1.916c0-5.32,4.753-9.578,10.593-9.578a11.348,11.348,0,0,1,6.235,1.84,13.647,13.647,0,0,1,11.534-6.025c7.168,0,13.089,5.249,13.168,11.847h.156c5.844,0,10.593,4.257,10.593,9.578s-4.749,9.65-10.593,9.65H124.526c-4.676,0-8.491-3.47-8.491-7.728C116.035,49.077,119.694,45.666,124.291,45.6Z" fill="#bbe2ef"/>
      <path d="M119.46,47.084a7.067,7.067,0,0,0-1.089,3.691c0,4.258,3.819,7.735,8.491,7.735h41.219a11.1,11.1,0,0,0,6.7-2.2,10.906,10.906,0,0,1-9.034,4.685H124.526c-4.676,0-8.491-3.47-8.491-7.728A7.508,7.508,0,0,1,119.46,47.084Z" fill="#d2d2d2"/>
      <rect x="102.555" y="59.574" width="76.979" height="32.426" fill="#e81123"/>
      <path d="M110.112,85.475s11.844-25.9,69.419-25.9H110.112Z" fill="#ba1121"/>
      <path d="M179.531,92V90.3H111.358A2.22,2.22,0,0,1,109.1,92Z" fill="#8a0000"/>
      <path d="M111.824,59.643l-7.558-7.3a2.112,2.112,0,0,0-2.987-.047l-.047.047L94.374,59.5a.246.246,0,0,0-.079.214V91.009A1.02,1.02,0,0,0,95.341,92l.046,0h15.27a1.091,1.091,0,0,0,1.167-.991Z" fill="#a80000"/>
      <path d="M146.262,94.769a1.256,1.256,0,0,1-1.324-1.139V56.951a1.31,1.31,0,0,1,1.324-1.21h28.907a1.289,1.289,0,0,1,1.244,1.21V93.63a1.233,1.233,0,0,1-1.244,1.139Z"/>
      <path d="M146.732,94.769a1.183,1.183,0,0,1-1.246-1.118v-36.7a1.236,1.236,0,0,1,1.247-1.21h28.9a1.236,1.236,0,0,1,1.247,1.21V93.63a1.183,1.183,0,0,1-1.226,1.139H146.732Z" fill="#505050"/>
      <rect x="148.989" y="58.866" width="24.391" height="32.782" fill="#ffb900"/>
      <polygon points="174.468 75.394 174.547 76.534 175.48 76.534 175.715 75.394 174.468 75.394" fill="#969696"/>
      <path d="M204.308,93.846l-1.168-2.054,1.479-.711,1.176,2.126a.688.688,0,0,1-.224.948.723.723,0,0,1-.087.046h0A.89.89,0,0,1,204.308,93.846Z" fill="#e81123"/>
      <polygon points="169.403 21.116 163.875 23.675 161.144 24.949 196.594 87.884 199.405 86.609 204.854 84.051 169.403 21.116" fill="#0078d7"/>
      <polygon points="160.678 22.179 162.001 24.524 168.547 21.471 167.144 19.134 160.678 22.179" fill="#1b348e"/>
      <polygon points="205.871 92.072 204.854 84.051 196.594 87.884 203.219 93.277 205.871 92.072" fill="#0078d7"/>
      <polygon points="161.144 24.949 196.594 87.884 199.405 86.609 163.875 23.675 161.144 24.949" opacity="0.28" style="isolation: isolate"/>
      <path d="M165.589,14.379a1.39,1.39,0,0,0-1.79-.574l-3.121,1.5c-.311.142-.778.35-1.245.567-.389.142-.856.35-1.167.494l-.39.214a1.192,1.192,0,0,0-.567,1.588l.021.041,2.489,4.4,2.725-1.346L168,18.7Z" fill="#0078d7"/>
      <path d="M162.391,20.975l-2.725-4.825a.55.55,0,0,0-.546-.142,7.616,7.616,0,0,1-.854.35h0a1.647,1.647,0,0,0-.783,2.194l0,0,2.1,3.691c.156.211.387.283.543.141l2.025-.918a.38.38,0,0,0,.241-.481Z" opacity="0.28" style="isolation: isolate"/>
      <polygon points="198.232 72.205 193.093 63.193 194.182 62.626 199.249 71.71 198.232 72.205" fill="#5c2d91"/>
      <polygon points="198.232 72.205 193.093 63.193 193.715 62.84 198.859 71.922 198.232 72.205" opacity="0.28" style="isolation: isolate"/>
      <rect x="151.019" y="64.965" width="20.336" height="23.416" fill="#fff"/>
      <path d="M159.666,62.412a1.5,1.5,0,0,1,1.555-1.42,1.484,1.484,0,0,1,1.479,1.423Zm7.945,0h-3.657a2.782,2.782,0,0,0-5.533,0H154.6a.59.59,0,0,0-.621.558v1.994a.641.641,0,0,0,.622.568h13.013a.589.589,0,0,0,.624-.551v-2a.551.551,0,0,0-.528-.574A.525.525,0,0,0,167.611,62.412Z" fill="#002050"/>
      <path d="M167.69,75.394H154.677a.641.641,0,1,1-.125-1.276.653.653,0,0,1,.125,0H167.69a.641.641,0,1,1,.125,1.276A.523.523,0,0,1,167.69,75.394Z" fill="#0078d7"/>
      <path d="M160.989,71.425h-6.308a.669.669,0,0,1-.7-.637v-.006a.728.728,0,0,1,.7-.708h6.308a.727.727,0,0,1,.7.708.669.669,0,0,1-.694.643Z" fill="#0078d7"/>
      <path d="M167.69,77.667H154.677a.641.641,0,1,1-.125-1.275.653.653,0,0,1,.125,0H167.69a.641.641,0,0,1,.125,1.275A.653.653,0,0,1,167.69,77.667Z" fill="#0078d7"/>
      <path d="M167.69,80H154.677a.642.642,0,0,1-.125-1.277.653.653,0,0,1,.125,0H167.69A.642.642,0,0,1,167.815,80,.653.653,0,0,1,167.69,80Z" fill="#0078d7"/>
      <path d="M167.69,82.281H154.677a.64.64,0,1,1-.125-1.274.653.653,0,0,1,.125,0H167.69a.64.64,0,1,1,.125,1.274A.523.523,0,0,1,167.69,82.281Z" fill="#0078d7"/>
      <path d="M167.69,84.618H154.677a.641.641,0,0,1-.125-1.275.653.653,0,0,1,.125,0H167.69a.641.641,0,0,1,.125,1.275A.653.653,0,0,1,167.69,84.618Z" fill="#0078d7"/>
    </g>
  </g>
</svg>
