<svg xmlns="http://www.w3.org/2000/svg" viewBox="0 0 50 50">
  <title>ads-quickstart</title>
  <g id="Shapes">
    <g>
      <path d="M45.468,19.982h-.121a6.707,6.707,0,0,0-12.363-2.993,6.308,6.308,0,0,0-1.247-.135,6,6,0,0,0,0,12H45.468a4.435,4.435,0,0,0,0-8.869Z" fill="#6bbcda"/>
      <path d="M34.821,18.7a6.7,6.7,0,0,1,1.381.148,6.626,6.626,0,0,1,6.785-3.423,6.708,6.708,0,0,0-10,1.563,6.308,6.308,0,0,0-1.247-.135,6,6,0,0,0-2.562,11.418,6.386,6.386,0,0,1-.791-3.1A6.456,6.456,0,0,1,34.821,18.7Z" fill="#8acae1"/>
      <path d="M16.879,26.843V44.528c0,2.979,4.68,5.392,10.459,5.406V30.887Z" fill="#50a7e1"/>
      <path d="M24.308,22.853a7.072,7.072,0,0,1,.04-.755c-4.318.647-7.469,2.656-7.469,5.041,0,2.912,4.68,5.271,10.459,5.271V28.878A7.51,7.51,0,0,1,24.308,22.853Z" fill="#c0d557"/>
      <path d="M35.706,30.321H31.737a7.34,7.34,0,0,1-4.4-1.456V32.4h.014A15.506,15.506,0,0,0,35.706,30.321Z" fill="#c0d557"/>
      <path d="M35.075,40.687l.054-.122.5-1.2.054-.122L36.2,38l1.233.526.121.054.268.107V30.348H35.706a15.663,15.663,0,0,1-8.354,2.089h-.014v8.479h7.644Z" fill="#1e80c6"/>
      <path d="M35.612,46.968l-.5-1.213-.054-.121-.509-1.254,1.247-.512.12-.054.51-.216c-.014-.148-.014-.283-.014-.431s0-.31.014-.472l-.51-.216-.094-.04H27.338v7.454h.014a15.084,15.084,0,0,0,8.528-2.264l-.228-.567Z" fill="#1e80c6"/>
      <path d="M35.8,42.452l-1.234-.525.429-1.038H26.427L25.22,43.841l-3.648-10.11L18.9,41.01H16.879v1.281H19.95l1.689-4.7,3.688,10.339,1.944-5.459h8.555Z" fill="#fff"/>
      <path d="M48.216,44.5a5.252,5.252,0,0,0,.161-1.307,5.763,5.763,0,0,0-.147-1.281l1.475-.606.121-.054-.054-.122-.5-1.213-.054-.121-.121.054-1.475.606a5.363,5.363,0,0,0-1.81-1.833l.617-1.483.054-.121-.121-.054-1.193-.5-.121-.054L45,36.535l-.617,1.483a5.2,5.2,0,0,0-1.3-.162A5.7,5.7,0,0,0,41.807,38l-.6-1.483L41.15,36.4l-.121.054-1.207.5-.12.054.053.121.6,1.483a5.362,5.362,0,0,0-1.824,1.819l-.7-.3-.778-.324-.121-.054-.053.122-.5,1.2-.054.122.121.054,1.475.62c-.041.148-.067.283-.094.431s-.04.324-.054.485V42.8a3.406,3.406,0,0,0-.013.364,1.77,1.77,0,0,0,.013.269.364.364,0,0,0,.014.122c0,.04.013.081.013.135a3.126,3.126,0,0,0,.08.512,1.165,1.165,0,0,0,.054.229l-.08.027-1.4.579-.121.054.054.122.5,1.213.054.121.12-.054,1.475-.606a5.366,5.366,0,0,0,1.811,1.833l-.617,1.483-.054.121.121.054,1.193.5.121.054.054-.122.616-1.482a5.257,5.257,0,0,0,1.3.161,5.7,5.7,0,0,0,1.274-.148l.6,1.483.054.121.121-.054,1.206-.5.121-.053-.053-.122-.6-1.483a5.362,5.362,0,0,0,1.824-1.819l1.475.62.121.054.053-.122.5-1.2.054-.122-.121-.054Zm-5.149,2.4a3.722,3.722,0,0,1-2.923-6l.014-.013A3.707,3.707,0,1,1,43.067,46.9Z" fill="#0e4da7"/>
      <path d="M40.171,40.889h-.013l-.014.013s0,.014-.013.014Z" fill="#fff"/>
    </g>
    <g>
      <rect x="10.109" y="0.217" width="1.508" height="3.77" fill="#3c3c41"/>
      <rect x="17.073" y="4.57" width="2.639" height="1.131" transform="translate(1.755 14.51) rotate(-45)" fill="#3c3c41"/>
      <rect x="18.611" y="2.272" width="2.262" height="3.016" transform="translate(3.11 15.067) rotate(-45)" fill="#3c3c41"/>
      <path d="M10.863,23.028a10.394,10.394,0,1,1,5.912-1.863A10.237,10.237,0,0,1,10.863,23.028Z" fill="#fff"/>
      <path d="M10.863,22.84a10.111,10.111,0,0,1-1.813-.163A10.03,10.03,0,0,1,3.771,20l-.132-.129a10.179,10.179,0,0,1,0-14.395A10.042,10.042,0,0,1,9.061,2.649a10.062,10.062,0,0,1,8.985,2.805l.124.128A10.181,10.181,0,0,1,10.863,22.84Z" fill="#fff"/>
      <path d="M18.2,19.993A10.355,10.355,0,0,1,9.031,22.84a10.212,10.212,0,0,1-5.362-2.734L18.325,5.465a10.373,10.373,0,0,1-.132,14.528Z" fill="#e5e5e5"/>
      <path d="M10.863,2.856a9.795,9.795,0,1,1-9.8,9.8A9.678,9.678,0,0,1,2.821,7.068a9.8,9.8,0,0,1,8.042-4.212m0-.754A10.557,10.557,0,1,0,18.3,5.171,10.557,10.557,0,0,0,10.863,2.1Z" fill="#3c3c41"/>
      <path d="M10.863,16.807a4.148,4.148,0,1,1,4.148-4.148A4.148,4.148,0,0,1,10.863,16.807Z" fill="#2bc7f4"/>
      <circle cx="10.863" cy="12.659" r="1.508" fill="#fff"/>
      <path d="M13.125.971H8.6A.377.377,0,0,1,8.224.594h0A.377.377,0,0,1,8.6.217h4.524A.377.377,0,0,1,13.5.594h0A.377.377,0,0,1,13.125.971Z" fill="#3c3c41"/>
      <polygon points="11.184 13.082 10.471 12.316 17.005 6.347 17.314 6.668 11.184 13.082" fill="#3c3c41"/>
      <rect x="10.486" y="3.987" width="0.754" height="2.262" fill="#3c3c41"/>
      <rect x="10.486" y="19.446" width="0.754" height="2.262" fill="#3c3c41"/>
      <rect x="2.191" y="12.282" width="2.262" height="0.754" fill="#3c3c41"/>
      <rect x="17.273" y="12.282" width="2.262" height="0.754" fill="#3c3c41"/>
    </g>
  </g>
</svg>
