<svg xmlns="http://www.w3.org/2000/svg" viewBox="0 0 50 50">
  <title>ads_tutorails</title>
  <g id="Layer_1" data-name="Layer 1">
    <g>
      <path d="M41.1,8.563h-.169A9.352,9.352,0,0,0,23.72,4.418a8.833,8.833,0,0,0-1.736-.186,8.308,8.308,0,1,0,0,16.616H41.1a6.143,6.143,0,0,0,0-12.285Z" fill="#6bbcda"/>
      <path d="M26.278,6.789A9.315,9.315,0,0,1,28.2,7a9.336,9.336,0,0,1,8.178-4.836,9.438,9.438,0,0,1,1.269.093A9.373,9.373,0,0,0,23.72,4.418a8.833,8.833,0,0,0-1.736-.186,8.309,8.309,0,0,0-3.566,15.814,8.794,8.794,0,0,1-1.1-4.295A8.965,8.965,0,0,1,26.278,6.789Z" fill="#8acae1"/>
      <path d="M1.3,18.066v24.5c0,4.125,6.516,7.468,14.563,7.486V23.668Z" fill="#50a7e1"/>
      <path d="M11.64,12.54a9.906,9.906,0,0,1,.056-1.046c-6.012.9-10.4,3.679-10.4,6.983,0,4.033,6.516,7.3,14.563,7.3V20.886A10.387,10.387,0,0,1,11.64,12.54Z" fill="#c0d557"/>
      <path d="M27.51,22.884H21.984a10.243,10.243,0,0,1-6.124-2.017v4.892h.018C20.639,25.777,24.859,24.639,27.51,22.884Z" fill="#c0d557"/>
      <path d="M26.633,37.241l.074-.168.691-1.661.075-.168.728-1.718,1.718.728.168.075.373.149V22.921H27.51c-2.67,1.755-6.871,2.894-11.632,2.894H15.86V37.559H26.5Z" fill="#1e80c6"/>
      <path d="M27.38,45.942l-.691-1.68-.075-.169-.709-1.736,1.736-.71.168-.074.709-.3c-.018-.2-.018-.392-.018-.6,0-.224,0-.43.018-.654l-.709-.3-.131-.056H15.86V49.993h.018c4.892,0,9.224-1.232,11.875-3.136l-.317-.785Z" fill="#1e80c6"/>
      <path d="M27.641,39.687l-1.718-.728.6-1.438H14.59L12.91,41.61l-5.079-14L4.116,37.689H1.3v1.774H5.572l2.353-6.516,5.134,14.32,2.707-7.561H27.678Z" fill="#fff"/>
      <path d="M44.93,42.525a7.311,7.311,0,0,0,.224-1.811,7.994,7.994,0,0,0-.205-1.774L47,38.1l.169-.075-.075-.168-.691-1.68-.075-.168-.168.075-2.054.84a7.448,7.448,0,0,0-2.52-2.539l.859-2.054.075-.168-.168-.075L40.692,31.4l-.168-.074-.075.168-.859,2.054a7.264,7.264,0,0,0-1.811-.224,7.919,7.919,0,0,0-1.773.205l-.841-2.054L35.09,31.3l-.168.075-1.68.69-.168.075.075.168.84,2.054a7.451,7.451,0,0,0-2.539,2.521l-.971-.411L29.4,36.028l-.168-.075-.075.168-.691,1.662-.074.168.168.074,2.054.859c-.056.206-.094.392-.131.6-.037.224-.056.448-.075.672v.018a4.735,4.735,0,0,0-.018.505,2.467,2.467,0,0,0,.018.373.508.508,0,0,0,.019.168c0,.056.019.112.019.187a4.264,4.264,0,0,0,.112.709,1.576,1.576,0,0,0,.074.318l-.112.037-1.941.8-.169.075.075.167.691,1.681.075.168.168-.075,2.053-.84a7.451,7.451,0,0,0,2.521,2.539l-.859,2.054-.075.168.168.075,1.662.691.168.074.075-.168.859-2.053a7.3,7.3,0,0,0,1.811.224,7.935,7.935,0,0,0,1.774-.206l.84,2.054.074.168.169-.075,1.68-.69.168-.075-.075-.168-.84-2.054a7.466,7.466,0,0,0,2.539-2.52l2.054.858.168.075.075-.168.69-1.662.075-.168-.168-.074Zm-7.17,3.323a5.149,5.149,0,0,1-4.07-8.308l.019-.019a5.151,5.151,0,1,1,4.051,8.327Z" fill="#0e4da7"/>
      <path d="M33.728,37.521h-.019l-.019.019s0,.019-.018.019Z" fill="#fff"/>
    </g>
  </g>
</svg>
