<svg xmlns="http://www.w3.org/2000/svg" xmlns:xlink="http://www.w3.org/1999/xlink" viewBox="0 0 298 110">
  <defs>
    <symbol id="AzureStorageBlob" data-name="AzureStorageBlob" viewBox="0 0 38.5 33.4">
      <g id="paths">
        <g id="Storage_blob" data-name="Storage blob">
          <g>
            <path d="M28.9,0H9.6L0,16.7,9.6,33.4H28.9l9.6-16.7ZM29,24.2a2.647,2.647,0,0,1-2.6,2.6H12.2a2.647,2.647,0,0,1-2.6-2.6V9.3a2.647,2.647,0,0,1,2.6-2.6H25l4,4V24.2Z" fill="#0078d7"/>
            <path d="M17.8,19.4c0-.2-.1-.3-.1-.4s-.1-.2-.2-.3-.1-.1-.2-.1H17c-.2,0-.3,0-.4.1a1.38,1.38,0,0,0-.3.4,1.268,1.268,0,0,0-.1.6v1.9a.845.845,0,0,0,.2.6q.15.3.3.3c.1.1.2.1.4.1a.367.367,0,0,0,.3-.1.215.215,0,0,0,.2-.2c.1-.1.1-.2.2-.3,0-.1.1-.2.1-.4a1.087,1.087,0,0,1,.1-.5V19.8C17.8,19.7,17.8,19.6,17.8,19.4Z" fill="#0078d7"/>
            <path d="M22.3,11.6c0-.2-.1-.3-.1-.4s-.1-.2-.2-.3-.1-.1-.2-.1h-.3c-.2,0-.3,0-.4.1a1.38,1.38,0,0,0-.3.4,1.268,1.268,0,0,0-.1.6v1.9a.845.845,0,0,0,.2.6q.15.3.3.3c.1.1.2.1.4.1a.367.367,0,0,0,.3-.1.215.215,0,0,0,.2-.2c.1-.1.1-.2.2-.3,0-.1.1-.2.1-.4a1.087,1.087,0,0,1,.1-.5V12C22.4,12,22.4,11.8,22.3,11.6Z" fill="#0078d7"/>
            <path d="M24.3,8.1H12.2A1.155,1.155,0,0,0,11,9.3V24.2a1.155,1.155,0,0,0,1.2,1.2H26.4a1.216,1.216,0,0,0,1.2-1.2V11.4H24.4V8.1Zm-8.9,3v-.2l.1-.1,1.2-.8h1.1v4.8h1l.1.1c.1.1,0,.1,0,.1v.5a.1.1,0,0,1-.1.1H15.5l-.1-.1v-.6a.1.1,0,0,1,.1-.1h1.2V11.1l-.9.5c-.1,0-.1.1-.2.1h-.1a.1.1,0,0,0-.1-.1v-.5Zm3.5,10.7a1.884,1.884,0,0,1-.4.9,1.7,1.7,0,0,1-.6.6,2.6,2.6,0,0,1-2,0,.9.9,0,0,1-.6-.6,3.178,3.178,0,0,1-.3-.9,4.869,4.869,0,0,1-.1-1.2,4.121,4.121,0,0,1,.1-1.2,1.884,1.884,0,0,1,.4-.9c.2-.2.4-.5.6-.6a2.6,2.6,0,0,1,2,0,.9.9,0,0,1,.6.6,3.178,3.178,0,0,1,.3.9,4.869,4.869,0,0,1,.1,1.2A4.121,4.121,0,0,1,18.9,21.8Zm4.5,1.4v.1a.1.1,0,0,1-.1.1H20l-.1-.1v-.6a.1.1,0,0,1,.1-.1h1.2V18.9l-.9.5c-.1,0-.1.1-.2.1H20a.1.1,0,0,0-.1-.1v-.7l.1-.1,1.2-.8h1.1v4.8h1l.1.1v.5Zm.1-9.2a1.884,1.884,0,0,1-.4.9,1.7,1.7,0,0,1-.6.6,2.6,2.6,0,0,1-2,0,.9.9,0,0,1-.6-.6,2.39,2.39,0,0,1-.3-.9c0-.3-.1-.8-.1-1.2a4.121,4.121,0,0,1,.1-1.2,1.884,1.884,0,0,1,.4-.9,1.7,1.7,0,0,1,.6-.6,2.6,2.6,0,0,1,2,0,.9.9,0,0,1,.6.6,3.178,3.178,0,0,1,.3.9,4.869,4.869,0,0,1,.1,1.2C23.6,13.3,23.5,13.7,23.5,14Z" fill="#0078d7"/>
          </g>
        </g>
      </g>
    </symbol>
    <symbol id="New_Symbol_105" data-name="New Symbol 105" viewBox="0 0 60 46.5">
      <polygon points="13.75 46.5 60 46.5 35 3.25 27.5 24.25 42 41.5 13.75 46.5" fill="#0078d7"/>
      <polygon points="33 0 15.25 15 0 41.25 13.75 41.25 13.75 41.5 33 0" fill="#0078d7"/>
    </symbol>
  </defs>
  <title>9- use-azure-blob-storage-2016</title>
  <g id="background_blue" data-name="background blue">
    <rect x="0.062" width="298" height="110" fill="#e4edf1"/>
  </g>
  <g id="Shapes">
    <g>
      <path d="M246.935,77.846a20,20,0,1,1,20-20A20.023,20.023,0,0,1,246.935,77.846Zm0-38.667A18.667,18.667,0,1,0,265.6,57.846,18.687,18.687,0,0,0,246.935,39.179Z" fill="#2e6ca4"/>
      <path d="M246.935,74.512A16.667,16.667,0,1,1,263.6,57.846,16.684,16.684,0,0,1,246.935,74.512Zm0-32a15.334,15.334,0,1,0,15.334,15.334A15.351,15.351,0,0,0,246.935,42.512Z" fill="#2e6ca4"/>
      <path d="M246.935,71.179a13.334,13.334,0,1,1,13.334-13.333A13.348,13.348,0,0,1,246.935,71.179Zm0-25.333a12,12,0,1,0,12,12A12.014,12.014,0,0,0,246.935,45.846Z" fill="#2e6ca4"/>
      <path d="M246.935,67.846a10,10,0,1,1,10-10A10.011,10.011,0,0,1,246.935,67.846Zm0-18.667a8.667,8.667,0,1,0,8.667,8.667A8.677,8.677,0,0,0,246.935,49.179Z" fill="#2e6ca4"/>
      <path d="M246.935,64.512a6.667,6.667,0,1,1,6.667-6.666A6.673,6.673,0,0,1,246.935,64.512Zm0-12a5.334,5.334,0,1,0,5.334,5.334A5.339,5.339,0,0,0,246.935,52.512Z" fill="#2e6ca4"/>
    </g>
    <g>
      <path d="M52.065,77.846a20,20,0,1,1,20-20A20.022,20.022,0,0,1,52.065,77.846Zm0-38.667A18.667,18.667,0,1,0,70.731,57.846,18.688,18.688,0,0,0,52.065,39.179Z" fill="#2e6ca4"/>
      <path d="M52.065,74.512A16.667,16.667,0,1,1,68.731,57.846,16.685,16.685,0,0,1,52.065,74.512Zm0-32A15.334,15.334,0,1,0,67.4,57.846,15.352,15.352,0,0,0,52.065,42.512Z" fill="#2e6ca4"/>
      <path d="M52.065,71.179A13.334,13.334,0,1,1,65.4,57.846,13.349,13.349,0,0,1,52.065,71.179Zm0-25.333a12,12,0,1,0,12,12A12.013,12.013,0,0,0,52.065,45.846Z" fill="#2e6ca4"/>
      <path d="M52.065,67.846a10,10,0,1,1,10-10A10.011,10.011,0,0,1,52.065,67.846Zm0-18.667a8.667,8.667,0,1,0,8.666,8.667A8.677,8.677,0,0,0,52.065,49.179Z" fill="#2e6ca4"/>
      <path d="M52.065,64.512a6.667,6.667,0,1,1,6.666-6.666A6.673,6.673,0,0,1,52.065,64.512Zm0-12A5.334,5.334,0,1,0,57.4,57.846,5.34,5.34,0,0,0,52.065,52.512Z" fill="#2e6ca4"/>
    </g>
    <line x1="52.065" y1="77.152" x2="117.754" y2="77.152" fill="none" stroke="#2e6ca4" stroke-linecap="round" stroke-miterlimit="10"/>
    <g>
      <line x1="73.364" y1="77.152" x2="151.815" y2="77.152" fill="none" stroke="#2e6ca4" stroke-miterlimit="10"/>
      <polygon points="76.677 81.242 77.359 80.51 73.747 77.153 77.359 73.796 76.677 73.063 72.279 77.153 76.677 81.242" fill="#2e6ca4"/>
    </g>
    <g>
      <line x1="212.915" y1="77.152" x2="246.935" y2="77.152" fill="none" stroke="#2e6ca4" stroke-miterlimit="10"/>
      <polygon points="216.228 81.242 216.91 80.51 213.299 77.153 216.91 73.796 216.228 73.063 211.83 77.153 216.228 81.242" fill="#2e6ca4"/>
    </g>
    <line x1="135.317" y1="38.346" x2="226.192" y2="38.346" fill="none" stroke="#2e6ca4" stroke-linecap="round" stroke-miterlimit="10"/>
    <line x1="226.192" y1="38.346" x2="246.935" y2="38.346" fill="none" stroke="#2e6ca4" stroke-linecap="round" stroke-miterlimit="10"/>
    <g>
      <line x1="52.064" y1="38.346" x2="98.433" y2="38.346" fill="none" stroke="#2e6ca4" stroke-miterlimit="10"/>
      <polygon points="95.119 42.435 94.437 41.703 98.049 38.347 94.437 34.989 95.119 34.257 99.517 38.347 95.119 42.435" fill="#2e6ca4"/>
    </g>
    <g>
      <line x1="218.313" y1="38.346" x2="225.606" y2="38.346" fill="none" stroke="#2e6ca4" stroke-miterlimit="10"/>
      <polygon points="222.292 42.435 221.61 41.703 225.222 38.347 221.61 34.989 222.292 34.257 226.69 38.347 222.292 42.435" fill="#2e6ca4"/>
    </g>
    <g>
      <rect x="98.194" y="12.661" width="37.123" height="45" fill-opacity="0"/>
      <rect x="100.005" y="12.661" width="33.863" height="45" fill-opacity="0"/>
      <path d="M100.005,18.818V51.5c0,3.35,7.605,6.157,16.931,6.157V18.818Z" fill="#0072c6"/>
      <path d="M116.665,57.661h.271c9.417,0,16.932-2.716,16.932-6.157V18.818h-17.2V57.661Z" fill="#0072c6"/>
      <path d="M116.665,57.661h.271c9.417,0,16.932-2.716,16.932-6.157V18.818h-17.2V57.661Z" fill="#fff" opacity="0.15" style="isolation: isolate"/>
      <path d="M133.868,18.818c0,3.35-7.606,6.157-16.932,6.157s-16.931-2.717-16.931-6.157c0-3.35,7.605-6.157,16.931-6.157S133.868,15.468,133.868,18.818Z" fill="#fff"/>
      <path d="M130.427,18.546c0,2.173-6.066,3.984-13.491,3.984s-13.491-1.811-13.491-3.984c0-2.263,6.067-4.074,13.491-4.074S130.427,16.283,130.427,18.546Z" fill="#7fba00"/>
      <path d="M127.62,20.991c1.811-.725,2.807-1.539,2.807-2.445,0-2.263-6.066-4.074-13.491-4.074s-13.491,1.811-13.491,4.074c0,.906,1.087,1.811,2.807,2.445a30.693,30.693,0,0,1,10.684-1.539A28.676,28.676,0,0,1,127.62,20.991Z" fill="#b8d432"/>
      <rect x="98.194" y="28.053" width="37.123" height="19.92" fill-opacity="0"/>
      <path d="M104.971,42.175V40.053a4.14,4.14,0,0,0,1.253.73,4.085,4.085,0,0,0,1.366.238,3.023,3.023,0,0,0,.7-.072,1.661,1.661,0,0,0,.5-.2.917.917,0,0,0,.305-.306.77.77,0,0,0,.1-.384.826.826,0,0,0-.159-.5,1.706,1.706,0,0,0-.438-.4,4.349,4.349,0,0,0-.65-.358q-.378-.172-.816-.352a4.187,4.187,0,0,1-1.664-1.134,2.482,2.482,0,0,1-.544-1.618,2.475,2.475,0,0,1,1.108-2.155,3.613,3.613,0,0,1,1.193-.5,5.981,5.981,0,0,1,1.433-.166,8.235,8.235,0,0,1,1.313.093,5.067,5.067,0,0,1,1.061.272v1.983a3.108,3.108,0,0,0-.524-.292,3.734,3.734,0,0,0-.577-.206,4.234,4.234,0,0,0-1.154-.165,2.776,2.776,0,0,0-.663.073,1.636,1.636,0,0,0-.5.192.961.961,0,0,0-.318.3.692.692,0,0,0-.113.391.769.769,0,0,0,.126.431,1.515,1.515,0,0,0,.358.358,4.253,4.253,0,0,0,.564.332q.332.159.749.332a7.83,7.83,0,0,1,1.021.51,3.536,3.536,0,0,1,.783.6,2.358,2.358,0,0,1,.5.776,3.062,3.062,0,0,1-.132,2.347,2.453,2.453,0,0,1-.816.875,3.568,3.568,0,0,1-1.207.478,6.923,6.923,0,0,1-1.446.146,8.064,8.064,0,0,1-1.492-.133A4.483,4.483,0,0,1,104.971,42.175Zm12.069.531a4.434,4.434,0,0,1-3.329-1.326,4.805,4.805,0,0,1-1.286-3.469,5.128,5.128,0,0,1,1.306-3.647,4.51,4.51,0,0,1,3.462-1.393,4.307,4.307,0,0,1,3.289,1.333,4.892,4.892,0,0,1,1.26,3.515,5.038,5.038,0,0,1-1.306,3.614c-.031.031-.06.062-.086.093s-.056.053-.087.08l2.408,2.314h-3l-1.26-1.28A5.31,5.31,0,0,1,117.04,42.706Zm.093-7.991a2.163,2.163,0,0,0-1.79.849,3.51,3.51,0,0,0-.663,2.235,3.46,3.46,0,0,0,.663,2.234,2.122,2.122,0,0,0,1.737.823,2.153,2.153,0,0,0,1.758-.8,3.457,3.457,0,0,0,.65-2.222,3.734,3.734,0,0,0-.63-2.3A2.045,2.045,0,0,0,117.133,34.715Zm11.858,7.825h-5.664V33.03h2.142V40.8h3.522Z" fill="#fff"/>
    </g>
    <use width="38.5" height="33.4" transform="translate(183.244 61.644) scale(0.691 0.691)" xlink:href="#AzureStorageBlob"/>
    <use width="60" height="46.5" transform="translate(148.705 63.216) scale(0.744)" xlink:href="#New_Symbol_105"/>
  </g>
</svg>
