<svg xmlns="http://www.w3.org/2000/svg" viewBox="0 0 298 110">
  <title>8 - db-tuning-advisor-tutorial</title>
  <g id="background_blue" data-name="background blue">
    <rect x="0.062" width="298" height="110" fill="#e4edf1"/>
  </g>
  <g id="Shapes">
    <g>
      <path d="M118.828,36.4a14.554,14.554,0,0,0-1.747.066,17.768,17.768,0,0,0,1.747-7.58,17.139,17.139,0,0,0-34.162-2.017A17.129,17.129,0,0,0,54.794,37.473,16.243,16.243,0,0,0,48.823,36.4a17.149,17.149,0,0,0,0,34.3h70.005a17.149,17.149,0,0,0,0-34.3Z" fill="#b1e1f2"/>
      <path d="M81.353,93.252l-3,.226a7.228,7.228,0,0,1-6.591-2.659V82.6H85.409v9.065Z" fill="#eacaa0"/>
      <rect x="83.116" y="65.155" width="2.179" height="9.517" fill="#f0ae00"/>
      <path d="M99.707,31.677V55.3l1.238,3.511V33.153A1.535,1.535,0,0,0,99.707,31.677ZM64.054,58.189V75.3a2.076,2.076,0,0,0,2.113,2.039h4.711l-.3-.736H67a1.927,1.927,0,0,1-1.941-1.872V60.966Zm36.891,15.692-1.239.4V76.6H92.65l-2.237.736h8.764a1.738,1.738,0,0,0,1.767-1.7Z" fill="#e5a600"/>
      <path d="M65.057,38.819l-1,.962V58.193l1,2.775ZM99.707,55.3v18.98l1.238-.4V58.81ZM92.65,76.6H85.409v.734h5ZM80,76.6H70.586l.3.735H80Z" fill="#969696"/>
      <path d="M99.707,76.6H67a1.926,1.926,0,0,1-1.941-1.871V38.645l7.472-7.59H99.707Z" fill="#fff"/>
      <polygon points="72.529 31.055 72.529 38.645 65.057 38.645 72.529 31.055" fill="#d1d1d1"/>
      <path d="M99.707,76.6h0V31.055h0a1.184,1.184,0,0,1,1.237,1.13c0,.021,0,.043,0,.064V75.408a1.186,1.186,0,0,1-1.18,1.194A.561.561,0,0,1,99.707,76.6Z" fill="#d1d1d1"/>
      <polygon points="66.29 44.538 66.29 60.853 97.532 60.853 97.532 60.626 66.527 60.626 66.527 44.538 66.29 44.538" fill="#d1d1d1"/>
      <rect x="75.937" y="52.584" width="3.589" height="8.155" fill="#001a41"/>
      <rect x="80.471" y="49.808" width="3.589" height="10.931" fill="#001a41"/>
      <rect x="85.003" y="47.032" width="3.589" height="13.708" fill="#001a41"/>
      <rect x="67.643" y="58.586" width="1.18" height="2.154" fill="#001a41"/>
      <rect x="96.885" y="57.341" width="1.175" height="3.399" fill="#001a41"/>
      <rect x="94.825" y="57.341" width="1.18" height="3.399" fill="#001a41"/>
      <rect x="69.645" y="57.341" width="1.175" height="3.399" fill="#001a41"/>
      <polygon points="40.696 46.239 40.696 60.4 53.584 60.4 53.584 59.552 41.582 59.552 41.582 46.239 40.696 46.239" fill="#fff"/>
      <rect x="40.167" y="47.993" width="1.944" height="0.17" fill="#fff"/>
      <rect x="40.167" y="49.695" width="1.944" height="0.113" fill="#fff"/>
      <rect x="40.167" y="51.334" width="1.944" height="0.17" fill="#fff"/>
      <rect x="40.167" y="53.037" width="1.944" height="0.113" fill="#fff"/>
      <rect x="40.167" y="54.677" width="1.944" height="0.17" fill="#fff"/>
      <rect x="40.167" y="56.379" width="1.944" height="0.113" fill="#fff"/>
      <rect x="40.167" y="58.076" width="1.944" height="0.113" fill="#fff"/>
      <rect x="51.874" y="59.151" width="0.117" height="1.815" fill="#fff"/>
      <rect x="50.113" y="59.151" width="0.117" height="1.815" fill="#fff"/>
      <rect x="48.404" y="59.151" width="0.117" height="1.815" fill="#fff"/>
      <rect x="46.64" y="59.151" width="0.117" height="1.815" fill="#fff"/>
      <rect x="44.937" y="59.151" width="0.117" height="1.815" fill="#fff"/>
      <rect x="43.168" y="59.151" width="0.117" height="1.815" fill="#fff"/>
      <polygon points="51.934 46.749 52.286 46.749 53.701 48.728 53.467 50.148 53.114 50.148 52.346 49.128 50.817 57.964 50.465 57.964 51.934 46.749" fill="#002050"/>
      <polygon points="50.465 57.964 48.462 54.395 46.64 57.623 44.995 53.546 44.344 55.525 43.345 55.243 44.937 50.486 46.818 55.243 48.462 52.297 49.936 54.904 51.229 47.766 52.228 47.937 50.465 57.964" fill="#001a41"/>
      <polygon points="53.114 50.148 51.639 48.163 49.641 49.582 49.876 48.105 51.934 46.749 53.349 48.728 53.114 50.148" fill="#002050"/>
      <polygon points="48.462 52.297 48.819 52.297 49.996 54.45 49.936 54.904 48.462 52.297" fill="#002050"/>
      <polygon points="46.64 57.623 46.993 57.623 48.638 54.791 48.462 54.395 46.64 57.623" fill="#002050"/>
      <polygon points="44.937 50.486 45.289 50.486 46.993 54.904 46.818 55.243 44.937 50.486" fill="#002050"/>
      <polygon points="44.344 55.525 44.696 55.525 45.229 53.998 44.995 53.546 44.344 55.525" fill="#002050"/>
      <path d="M58,53.6h.178a11.023,11.023,0,0,0-11.238-10.76,10.8,10.8,0,0,0-.778,21.581c.259.009.519.009.778,0A11.07,11.07,0,0,0,58.173,53.6h-.3A10.231,10.231,0,0,1,54.7,61.078a11.083,11.083,0,0,1-7.765,3.115,11.2,11.2,0,0,1-7.767-3.115A10.484,10.484,0,0,1,35.99,53.6a10.354,10.354,0,0,1,3.178-7.42,11.2,11.2,0,0,1,7.767-3.11A11.083,11.083,0,0,1,54.7,46.186a10.1,10.1,0,0,1,3.178,7.419Z" fill="#fff"/>
      <path d="M120.654,53.546v7.761a7.891,7.891,0,0,1-8.059-7.719v-.042a6.558,6.558,0,0,1,.413-2.381Z" fill="#fff"/>
      <path d="M120.654,53.546v-7.7a7.738,7.738,0,1,1,.639,15.462q-.32.014-.639,0Z" fill="#001a41"/>
      <path d="M131.716,53.546h.118a11.218,11.218,0,0,0-22.418,0,11.216,11.216,0,0,0,22.418,0H131.6a10.484,10.484,0,0,1-3.178,7.475,11.2,11.2,0,0,1-7.767,3.117,11.077,11.077,0,0,1-7.765-3.117,10.221,10.221,0,0,1-3.178-7.475,10.094,10.094,0,0,1,3.178-7.42,11.077,11.077,0,0,1,7.765-3.117,11.2,11.2,0,0,1,7.769,3.116,10.352,10.352,0,0,1,3.178,7.42Z" fill="#fff"/>
      <path d="M85.409,71.161H80V95.688a1.038,1.038,0,0,0,1.057,1.018H84.3a1.051,1.051,0,0,0,1.115-.982v-.036Z" fill="#001a41"/>
      <path d="M81.529,71.161H80v8.607h1.531Zm0,11.837H80v.227h1.531ZM80,86.454v9.234a1.038,1.038,0,0,0,1.057,1.018h.476V92.8a1.62,1.62,0,0,1-1.059-1.471V91.27h0A1.621,1.621,0,0,1,81.529,89.8v-.453a1.807,1.807,0,0,1-.587-1.3h0a1.61,1.61,0,0,1,.587-1.249v-.339H80Z" fill="#66768d"/>
      <path d="M85.409,71.161h-1.59v8.607h1.59Zm0,11.837h-1.59v.227h1.59Z" fill="#000a1a"/>
      <path d="M85.409,92.912h-1.59v3.8h.474a1.049,1.049,0,0,0,1.114-.981l0-.037Z" fill="#000a1a"/>
      <path d="M80.471,91.328a1.665,1.665,0,0,0,1.706,1.584h4a1.623,1.623,0,0,0,1.645-1.6v-.266a1.367,1.367,0,0,0-1.371-1.363H82.177a1.633,1.633,0,0,0-1.705,1.558v.03h0Z" fill="#edbf9f"/>
      <path d="M86.411,89.682h0a1.369,1.369,0,0,1,1.411,1.323v.04h0a1.366,1.366,0,0,0-1.371-1.363Z" fill="#ffc733"/>
      <path d="M86.411,89.682H82.177a1.321,1.321,0,0,0-.647.114,1.62,1.62,0,0,0-1.058,1.475h0v.058c0,.055,0,.055.059.113a1.6,1.6,0,0,1,1.646-1.419h4.234a1.361,1.361,0,0,1,1.411,1.306v-.283a1.367,1.367,0,0,0-1.37-1.364Z" opacity="0.11" style="isolation: isolate"/>
      <path d="M80.943,88.043a1.624,1.624,0,0,0,1.607,1.64h5.569a1.674,1.674,0,0,0,1.7-1.639v-.224a1.37,1.37,0,0,0-1.377-1.363H82.584a1.579,1.579,0,0,0-1.643,1.513c0,.025,0,.05,0,.075Z" fill="#edbf9f"/>
      <path d="M88.415,86.454h0a1.371,1.371,0,0,1,1.409,1.33v.033h0a1.369,1.369,0,0,0-1.376-1.363Z" fill="#ffc733"/>
      <path d="M83.822,86.454H82.584a1.684,1.684,0,0,0-1.057.34h0a1.684,1.684,0,0,1,1.057-.34Z" fill="#334867"/>
      <path d="M81.529,86.794a1.609,1.609,0,0,0-.587,1.249h0A1.609,1.609,0,0,1,81.529,86.794Z" fill="#8591a4"/>
      <path d="M88.415,86.454H82.586a1.686,1.686,0,0,0-1.057.34,1.612,1.612,0,0,0-.587,1.249h0v.165a1.6,1.6,0,0,1,1.644-1.418h5.829a1.4,1.4,0,0,1,1.409,1.3v-.276a1.369,1.369,0,0,0-1.374-1.365Z" opacity="0.11" style="isolation: isolate"/>
      <path d="M78.352,84.812a1.675,1.675,0,0,0,1.7,1.642h8.477a1.676,1.676,0,0,0,1.7-1.642v-.226a1.372,1.372,0,0,0-1.38-1.363h-8.8a1.631,1.631,0,0,0-1.7,1.559Z" fill="#edbf9f"/>
      <path d="M80,83.225a1.651,1.651,0,0,0-1.646,1.588h0A1.651,1.651,0,0,1,80,83.225Z" fill="#896349"/>
      <path d="M88.825,83.225H80a1.651,1.651,0,0,0-1.646,1.588h0v.171a1.694,1.694,0,0,1,1.7-1.414h8.769a1.4,1.4,0,0,1,1.411,1.3v-.284h0a1.356,1.356,0,0,0-1.349-1.362h-.062Z" opacity="0.11" style="isolation: isolate"/>
      <path d="M82.767,64.081A10.259,10.259,0,1,1,93.417,53.83,10.455,10.455,0,0,1,82.767,64.081Zm0-21.692A12.639,12.639,0,1,0,95.894,55.017,12.891,12.891,0,0,0,82.767,42.389Z" fill="#ce9109"/>
      <path d="M82.767,44.309a10.259,10.259,0,1,1-10.65,10.254A10.45,10.45,0,0,1,82.762,44.309Zm0,21.691A12.9,12.9,0,0,0,95.894,53.368c0-5.944-5.886-11.783-13.127-11.783s-13.122,6.069-13.122,11.79A12.891,12.891,0,0,0,82.767,66Z" fill="#ce9109"/>
      <path d="M82.767,64.081A10.259,10.259,0,1,1,93.417,53.83,10.455,10.455,0,0,1,82.767,64.081Zm0-22.885A12.641,12.641,0,1,0,95.894,53.828,12.894,12.894,0,0,0,82.767,41.2Z" fill="#f0ae00"/>
      <path d="M82.767,64.081A10.259,10.259,0,1,1,93.417,53.83,10.455,10.455,0,0,1,82.767,64.081Zm0-22.885A12.641,12.641,0,1,0,95.894,53.828,12.894,12.894,0,0,0,82.767,41.2Z" fill="#f0ae00"/>
      <path d="M82.767,41.2A12.894,12.894,0,0,0,69.649,53.828h0v.507a13.159,13.159,0,0,1,26.245,0v-.508A12.908,12.908,0,0,0,82.767,41.2Z" fill="#f5c64d"/>
      <rect x="81.53" y="67.027" width="2.292" height="4.134" fill="#f0ae00"/>
      <rect x="81.53" y="70.313" width="2.292" height="0.849" fill="#a87900"/>
      <path d="M78.117,81.414A1.577,1.577,0,0,0,79.685,83l.078,0h7.882A1.614,1.614,0,0,0,89.3,81.422v-.29a1.41,1.41,0,0,0-1.417-1.364H79.763a1.628,1.628,0,0,0-1.646,1.61v.035Z" fill="#edbf9f"/>
      <path d="M87.88,79.768h0A1.412,1.412,0,0,1,89.3,81.132h0A1.412,1.412,0,0,0,87.88,79.768Z" fill="#ffc733"/>
      <path d="M87.88,79.768H79.763a1.629,1.629,0,0,0-1.646,1.611v.035h0v.171a1.591,1.591,0,0,1,1.646-1.414H87.88a1.36,1.36,0,0,1,1.417,1.3v-.338A1.412,1.412,0,0,0,87.88,79.768Z" opacity="0.11" style="isolation: isolate"/>
      <path d="M69.47,80.052H82.294l7,3a2.609,2.609,0,0,1-1.121,1.533,4.293,4.293,0,0,1-4.119.452c-1.409-.509-3.235-1.419-4.706-.113,0,0-4.649,4.528-9.882.736V91.1l-9.592.339Z" opacity="0.11" style="isolation: isolate"/>
      <path d="M68.113,79.768h13.24l7,3A2.6,2.6,0,0,1,87.235,84.3a4.293,4.293,0,0,1-4.119.453c-1.409-.51-3.235-1.419-4.706-.113,0,0-4.649,4.528-9.882.735v5.439l-5.18.339Z" fill="#f6caa7"/>
      <polygon points="63.114 91.157 61.82 91.215 63.114 91.215 63.114 91.157" fill="#b28100"/>
      <rect x="66.997" y="84.077" width="4.765" height="6.741" fill="#f6caa7"/>
      <path d="M82.767,44.309a10.617,10.617,0,0,0-7.183,2.666l4.885,4.642V49.808h3.59v5.265L85,56.04V47.033h3.588V59.5l1.177,1.132h1a9.906,9.906,0,0,0,2.649-6.458A10.429,10.429,0,0,0,82.767,44.309Zm7.761,16.544h-.472l.235.226A.835.835,0,0,0,90.528,60.853Z" fill="#fff"/>
      <path d="M90.766,60.626h-1l.292.227h.471C90.648,60.8,90.706,60.682,90.766,60.626Z" fill="#e8e8e8"/>
      <polygon points="84.062 49.808 80.471 49.808 80.471 51.617 84.062 55.073 84.062 49.808" fill="#808da0"/>
      <polygon points="88.591 47.03 85.003 47.03 85.003 56.04 88.591 59.495 88.591 47.03" fill="#808da0"/>
      <path d="M82.767,43.577a10.9,10.9,0,0,0-7.53,3l.352.4a10.616,10.616,0,0,1,7.178-2.666,10.427,10.427,0,0,1,10.65,9.856v-.339h0a10.19,10.19,0,0,0-3.12-7.252A10.9,10.9,0,0,0,82.767,43.577Z" fill="#e7c884"/>
      <path d="M93.417,53.829h0v.339a9.9,9.9,0,0,1-2.648,6.458.966.966,0,0,1-.235.227.943.943,0,0,1-.237.226h0A9.865,9.865,0,0,0,93.417,53.829Z" fill="#f8d780"/>
      <polygon points="63.349 91.157 63.349 89.739 64.704 91.044 63.349 91.157" fill="#8e562e"/>
      <path d="M60.346,91.383V80.223l6.3-.4c.293,0,.587-.058.882-.058h.7v9.182a2.1,2.1,0,0,1-2.058,2.1l-3.588.226-.707.058Z" fill="#fff"/>
      <path d="M37.757,79.826a2.439,2.439,0,0,1-1.708-.509c-1.233-.962-4.119-2.6-7.825-5.264L.866,54.282V77.334L28.634,90.989A15.213,15.213,0,0,0,38.7,92.855l26.475-1.7V79.768Z" fill="#0078d7"/>
      <line x1="72.529" y1="31.055" x2="99.707" y2="31.055" fill="none" stroke="#eee" stroke-miterlimit="10" stroke-width="0.657"/>
    </g>
    <g>
      <path d="M252.021,54.879a9.835,9.835,0,0,0-9.858-9.859H240.83a29.01,29.01,0,0,0,1.066-6.927,26.222,26.222,0,0,0-51.16-8.262,20.8,20.8,0,0,0-5.861-1.066,18.121,18.121,0,0,0,0,36.239h58.087a10.133,10.133,0,0,0,9.059-10.125" fill="#59b4d9"/>
      <path d="M194.2,65a18.113,18.113,0,0,1,8.794-30.376,14.765,14.765,0,0,1,5.862-.267,26.429,26.429,0,0,1,14.656-21.316,25.079,25.079,0,0,0-7.994-1.333,26.08,26.08,0,0,0-24.781,18.119,20.8,20.8,0,0,0-5.861-1.066,18.121,18.121,0,0,0,0,36.239H194.2Z" fill="#fff" opacity="0.2" style="isolation: isolate"/>
      <path d="M229.116,66.065a15.1,15.1,0,0,1-20.268,0l-1.467,30.647,11.6-11.721,11.6,11.721Z" fill="#ba141a"/>
      <circle cx="218.98" cy="55.441" r="19.781" fill="#dd5900"/>
      <circle cx="218.98" cy="55.441" r="14.897" fill="#ff8c00"/>
      <path d="M204.94,69.483A19.772,19.772,0,0,1,232.9,41.522Z" fill="#fff" opacity="0.15" style="isolation: isolate"/>
    </g>
  </g>
</svg>
