<svg xmlns="http://www.w3.org/2000/svg" viewBox="0 0 298 110">
  <title>8 - getting-started-db-engine</title>
  <g id="background_blue" data-name="background blue">
    <rect x="0.331" width="298" height="110" fill="#e4edf1"/>
  </g>
  <g id="Shapes">
    <g>
      <g>
        <path d="M241.056,90.667l-.051-1.56h.051Zm-2.391,0h-2.339v-1.56h2.339Zm-4.679,0h-2.339v-1.56h2.339Zm-4.679,0h-2.339v-1.56h2.339Zm-4.679,0h-2.339v-1.56h2.339Zm-4.678,0h-2.34v-1.56h2.34Zm-4.679,0h-2.34v-1.56h2.34Zm-4.679,0h-2.34v-1.56h2.34Zm-4.679,0h-2.34v-1.56h2.34Zm-4.679,0H198.9v-1.56h2.339Zm-4.679,0h-2.339v-1.56h2.339Zm-4.679,0h-2.339v-1.56h2.339Zm-4.679,0h-2.339v-1.56H187.2Zm-4.679,0h-2.339v-1.56h2.339Zm-4.679,0H175.5v-1.56h2.339Zm-4.678,0h-2.34v-1.56h2.34Zm-4.679,0h-2.34v-1.56h2.34Zm-4.679,0h-2.34v-1.56h2.34Zm-4.679,0h-2.34v-1.56h2.34Zm-4.679,0h-2.339v-1.56h2.339Zm-4.679,0h-2.339v-1.56h2.339Zm-4.679,0h-2.339v-1.56h2.339Zm-4.679,0h-2.339v-1.56h2.339Zm-4.72-.048c-.8-.043-1.6-.115-2.386-.215l.2-1.548c.744.1,1.508.164,2.27.2Zm-4.751-.607c-.784-.16-1.567-.352-2.331-.572l.431-1.5c.724.208,1.469.39,2.212.543Zm-4.612-1.33c-.756-.287-1.5-.606-2.211-.95l.679-1.405c.67.325,1.371.626,2.085.9Zm-4.331-2.1a23.357,23.357,0,0,1-2-1.361l.945-1.242a21.351,21.351,0,0,0,1.867,1.268Zm-3.848-2.94a18.347,18.347,0,0,1-1.642-1.8l1.221-.97a16.821,16.821,0,0,0,1.5,1.653Zm-3.022-3.837a14.528,14.528,0,0,1-1.038-2.239l1.467-.531a12.989,12.989,0,0,0,.926,2Zm-1.661-4.639a12.9,12.9,0,0,1-.164-2.045c0-.145,0-.29.008-.434l1.558.052c0,.127-.006.254-.006.382a11.32,11.32,0,0,0,.144,1.8Zm1.686-4.593-1.52-.348a13.5,13.5,0,0,1,.777-2.352l1.43.62A11.891,11.891,0,0,0,115.149,70.573Zm1.733-4.025-1.31-.846a17.026,17.026,0,0,1,1.478-1.954l1.174,1.028A15.347,15.347,0,0,0,116.882,66.548ZM119.8,63.19l-1.034-1.167a21.536,21.536,0,0,1,1.905-1.5l.9,1.276A20.113,20.113,0,0,0,119.8,63.19Zm3.681-2.594-.763-1.36c.688-.387,1.413-.75,2.154-1.08l.635,1.424C124.813,59.891,124.132,60.232,123.485,60.6Zm4.139-1.849-.508-1.474c.748-.259,1.522-.492,2.3-.693l.39,1.511C129.068,58.281,128.335,58.5,127.624,58.747Zm4.407-1.139-.272-1.536c.782-.138,1.58-.249,2.374-.33l.157,1.552C133.535,57.371,132.774,57.476,132.031,57.608Zm4.536-.461-.044-1.558c.316-.01.632-.014.95-.014h1.412v1.559h-1.412C137.17,57.134,136.868,57.139,136.567,57.147Zm63.144-.013h-2.34V55.575h2.34Zm-4.679,0h-2.339V55.575h2.339Zm-4.679,0h-2.339V55.575h2.339Zm-4.679,0h-2.339V55.575h2.339Zm-4.679,0h-2.339V55.575H181Zm-4.679,0h-2.339V55.575h2.339Zm-4.679,0H169.3V55.575h2.339Zm-4.678,0h-2.34V55.575h2.34Zm-4.679,0h-2.34V55.575h2.34Zm-4.679,0h-2.34V55.575h2.34Zm-4.679,0h-2.34V55.575h2.34Zm-4.679,0H145.9V55.575h2.339Zm-4.679,0h-2.339V55.575h2.339ZM202.09,57.1l-.082-1.557c.754-.041,1.514-.115,2.258-.222l.22,1.544C203.7,56.975,202.891,57.053,202.09,57.1Zm4.765-.684-.361-1.518c.734-.174,1.467-.384,2.179-.624l.5,1.478C208.414,56,207.635,56.226,206.855,56.412Zm4.562-1.541-.634-1.425c.688-.306,1.368-.649,2.022-1.018l.767,1.358C212.876,54.18,212.151,54.545,211.417,54.871Zm4.195-2.375-.9-1.276a22.384,22.384,0,0,0,1.78-1.391l1.022,1.178A23.492,23.492,0,0,1,215.612,52.5Zm3.649-3.169-1.141-1.064a20.55,20.55,0,0,0,1.444-1.728l1.251.932A22.476,22.476,0,0,1,219.261,49.327Zm2.889-3.884L220.8,44.66a18.668,18.668,0,0,0,1.008-2l1.433.614A20.054,20.054,0,0,1,222.15,45.443Zm1.913-4.463-1.5-.433a17.387,17.387,0,0,0,.482-2.184l1.542.237A19.117,19.117,0,0,1,224.063,40.98Zm.744-4.806-1.56-.038q.006-.224.006-.447a17.6,17.6,0,0,0-.092-1.79l1.552-.159a19.288,19.288,0,0,1,.1,1.949C224.813,35.851,224.81,36.013,224.807,36.174Zm-2.017-4.48a17.965,17.965,0,0,0-.648-2.143l1.462-.544a19.513,19.513,0,0,1,.7,2.33ZM221.233,27.5a19.408,19.408,0,0,0-1.151-1.93l1.292-.875a21.234,21.234,0,0,1,1.243,2.086Zm-2.518-3.719a20.909,20.909,0,0,0-1.555-1.632l1.069-1.135A22.424,22.424,0,0,1,219.9,22.77ZM215.44,20.69c-.6-.456-1.224-.887-1.864-1.282l.82-1.327c.683.422,1.352.883,1.99,1.369ZM211.6,18.313c-.67-.33-1.37-.633-2.077-.9l.553-1.458c.753.285,1.5.608,2.213.96Zm-4.231-1.605c-.724-.2-1.467-.369-2.21-.5l.276-1.535c.79.142,1.579.322,2.349.535Zm-4.458-.8c-.75-.066-1.513-.1-2.268-.1V14.245c.8,0,1.61.035,2.405.106Zm-4.607-.1H195.96V14.245H198.3Zm-4.679,0h-2.339V14.245h2.339Zm-4.679,0H186.6V14.245h2.339Zm-4.679,0h-2.339V14.245h2.339Zm-4.679,0h-2.339V14.245h2.339Zm-4.679,0h-2.339V14.245H174.9Zm-4.678,0h-2.34V14.245h2.34Zm-4.679,0h-2.34V14.245h2.34Zm-4.679,0h-2.34V14.245h2.34Zm-4.679,0h-2.34V14.245h2.34Zm-4.679,0h-2.339V14.245h2.339Zm-4.679,0h-2.339V14.245h2.339Zm-4.679,0h-2.339V14.245h2.339Zm-4.679,0h-2.339V14.245h2.339Z" fill="#75757a"/>
        <polygon points="235.886 96.266 234.825 95.127 240.456 89.887 234.825 84.654 235.886 83.508 242.748 89.887 235.886 96.266" fill="#75757a"/>
      </g>
      <g>
        <path d="M200.724,52.456l.507-3.19A1.8,1.8,0,0,1,202.4,47.6c1.256-.234,3.12-.616,3.611,0l2.262,1.888a1.185,1.185,0,0,0,1.559.132l1.685-1.715c.311-.367.382-.523.148-.96l-.889-1.505-.85-1.341c-.78-1.177,1.4-4.889,2.16-4.9h3.119a1.169,1.169,0,0,0,.951-1.131l.047-2.339a1.427,1.427,0,0,0-.9-1.217l-3.119-.273a1.635,1.635,0,0,1-1.4-1.4c-.266-.577-1.045-2.8-.328-3.633l2.152-2.293a1.169,1.169,0,0,0-.109-1.295L210.776,23.6a1.2,1.2,0,0,0-1.334-.148l-2.472,1.778c-.943.881-1.559.7-2.051.445-2.191-.632-2.487-1.357-2.573-2.394l-.265-3.12a1.616,1.616,0,0,0-.905-1.224h-2.643a1.435,1.435,0,0,0-1.232.889l-.266,3.158a1.924,1.924,0,0,1-1.419,1.7c-.515.055-2.254,1.131-3.392.047l-2.5-1.84h0a.912.912,0,0,0-1.279-.156L186.711,24.3l-.211.2a1.154,1.154,0,0,0-.156,1.318l2.059,2.4c.452.593.2,2.34.2,2.34-.336,2.386-1.646,2.55-2.418,2.565h-3.119a1.171,1.171,0,0,0-.952,1.131l-.311,2.386a1.325,1.325,0,0,0,1.138,1.209l2.9.265a2.953,2.953,0,0,1,1.747,1.38c.047.5.343.991.39,1.513a1.763,1.763,0,0,1-.336,2.129l-1.91,2.262-.055.039a.912.912,0,0,0-.1,1.278l1.747,1.942a1.441,1.441,0,0,0,1.559.125l2.2-1.778c.952-.85,3.681.5,3.681.5a1.49,1.49,0,0,1,1.193,1.513l.3,3.072c.055.78.624,1.264.9,1.232C197.137,53.313,200.35,53.735,200.724,52.456Zm3.509-12.774a5.948,5.948,0,0,1-.959,1.076,6.308,6.308,0,0,1-8.781-.265h0l-.1-.124a6.333,6.333,0,0,1,.631-8.836s0-.039.063-.047a6.02,6.02,0,0,1,8.461.336c.14.132.265.28.4.421a6.1,6.1,0,0,1,.288,7.463Z" fill="#fff"/>
        <g opacity="0.4">
          <path d="M200.724,52.456l.507-3.19A1.8,1.8,0,0,1,202.4,47.6c1.256-.234,3.12-.616,3.611,0l2.262,1.888a1.185,1.185,0,0,0,1.559.132l1.685-1.715c.311-.367.382-.523.148-.96l-.889-1.505-6.535-5.747a5.947,5.947,0,0,1-.967,1.068,6.308,6.308,0,0,1-8.781-.265h0l-.1-.124a6.333,6.333,0,0,1,.631-8.836s0-.039.063-.047l-8.407-7.228-.21.194a1.154,1.154,0,0,0-.156,1.318l2.059,2.4c.452.593.2,2.34.2,2.34-.335,2.386-1.645,2.55-2.417,2.565h-3.119a1.17,1.17,0,0,0-.952,1.131l-.312,2.386a1.327,1.327,0,0,0,1.139,1.209l2.9.265a2.953,2.953,0,0,1,1.747,1.38c.046.5.343.991.39,1.513a1.764,1.764,0,0,1-.336,2.129l-1.91,2.262-.055.039a.911.911,0,0,0-.1,1.278l1.747,1.942a1.441,1.441,0,0,0,1.559.125L191.085,47c.952-.85,3.681.5,3.681.5a1.49,1.49,0,0,1,1.193,1.513l.3,3.072c.055.78.624,1.264.9,1.232C197.137,53.313,200.35,53.735,200.724,52.456Z" fill="#868787"/>
        </g>
        <path d="M198.325,54.148a10.294,10.294,0,0,1-1.263-.08,2.02,2.02,0,0,1-1.608-1.957l-.262-2.939c-.5-.625-3-1.8-3.6-1.546l-2.327,1.838a2.257,2.257,0,0,1-2.39-.179l-.116-.107-1.739-1.942a1.685,1.685,0,0,1,.118-2.374l.023-.021,1.807-2.147a9.594,9.594,0,0,0-1.42-3.83l-2.694-.254a2.109,2.109,0,0,1-1.851-1.919L181,36.606l.326-2.433a1.971,1.971,0,0,1,1.579-1.83l.15-.015h3.119c.511,0,1.366,0,1.638-1.9a4.273,4.273,0,0,0-.046-1.75l-2.131-2.5a1.968,1.968,0,0,1,.247-2.2l.069-.071,1.941-1.739a1.7,1.7,0,0,1,2.331.175l2.516,1.874c.491.467,1.259.238,2.07-.06a3.8,3.8,0,0,1,.619-.191,1.157,1.157,0,0,0,.809-1l.319-3.346a2.237,2.237,0,0,1,1.9-1.381l2.872,0,.163.079a2.41,2.41,0,0,1,1.326,1.821l.27,3.165c.056.672.1,1.157,2.009,1.7l.136.052c.313.156.539.271,1.183-.321l.07-.057,2.463-1.786A1.973,1.973,0,0,1,211.27,23l.087.084,1.739,1.942a1.97,1.97,0,0,1,.223,2.184l-.12.166L211.1,29.6c-.2.667.792,3.238,1.344,3.8l3.172.3a2.211,2.211,0,0,1,1.4,1.953l-.054,2.393a1.949,1.949,0,0,1-1.582,1.917l-.149.014h-3a6.714,6.714,0,0,0-1.611,2.9,1.308,1.308,0,0,0-.032.781l1.805,2.919a1.411,1.411,0,0,1-.259,1.828l-1.8,1.826a1.959,1.959,0,0,1-2.559-.173l-2.321-1.95a7.668,7.668,0,0,0-2.561.2l-.248.043a1.007,1.007,0,0,0-.6.917l-.011.125-.551,3.28C201.124,53.9,199.556,54.148,198.325,54.148Zm-1.078-1.629a4.516,4.516,0,0,0,2.727-.261l.51-3.063a2.577,2.577,0,0,1,1.679-2.33l.137-.036.321-.056c1.56-.275,3.171-.558,3.96.258l2.287,1.914a.4.4,0,0,0,.491.066l1.632-1.663.026-.032-1.731-2.8c-.725-1.04.007-2.815.51-3.777.452-.866,1.355-2.318,2.314-2.318h3.023a.4.4,0,0,0,.267-.381l.055-2.367a.628.628,0,0,0-.327-.479l-2.983-.254c-.9-.124-1.616-1.541-2.061-2.709-.462-1.212-.871-2.822-.2-3.611l2.09-2.219a.4.4,0,0,0-.069-.367l-1.659-1.852a.4.4,0,0,0-.429,0l-2.386,1.731a2.325,2.325,0,0,1-2.833.57c-2.412-.7-2.953-1.653-3.069-3.053l-.265-3.118a.823.823,0,0,0-.332-.518h-2.424a.647.647,0,0,0-.467.324l-.253,2.978a2.723,2.723,0,0,1-1.992,2.387l-.121.022c-.068.015-.187.064-.332.117-.784.289-2.411.887-3.642-.236l-2.752-2.045a.126.126,0,0,0-.062.025l-1.851,1.662a.4.4,0,0,0-.054.361L188.97,27.7c.616.763.474,2.321.385,2.956-.309,2.149-1.38,3.237-3.183,3.237H183.15a.4.4,0,0,0-.268.368l-.007.087-.306,2.283a.549.549,0,0,0,.466.435l3.018.3c1.322.394,2.317,4.215,2.326,4.253.24,1.026.185,1.66-.18,2.043L186.23,45.98c-.092.082-.1.161-.049.212l1.679,1.876a.691.691,0,0,0,.624.043l2.139-1.7c.805-.712,2.331-.26,3.463.25.8.36,2.653,1.307,2.653,2.341l.27,2.988A.715.715,0,0,0,197.247,52.519Zm-2.064-3.449a.187.187,0,0,0,0,.047Z" fill="#2e6ca4"/>
        <path d="M199.144,43.209a7.05,7.05,0,1,1,.23,0C199.3,43.208,199.22,43.209,199.144,43.209Zm.01-12.478c-.059,0-.119,0-.178,0a5.369,5.369,0,1,0,.178,0Z" fill="#2e6ca4"/>
      </g>
      <g>
        <circle cx="133.051" cy="55.832" r="41.72" fill="#fff"/>
        <path d="M133.052,98.332a42.5,42.5,0,1,1,42.5-42.5A42.548,42.548,0,0,1,133.052,98.332Zm0-83.44a40.941,40.941,0,1,0,40.94,40.94A40.987,40.987,0,0,0,133.052,14.892Z" fill="#2bc7f4"/>
      </g>
      <path d="M140.241,51.45c-.8-9.912-8.539-17.71-17.982-17.71A17.926,17.926,0,0,0,106.2,44.275a17.482,17.482,0,0,0-9.591-2.869c-8.516,0-15.69,6.184-17.85,14.59a16.324,16.324,0,0,0-5.186-.842c-9.358,0-16.961,7.907-16.961,17.663a17.725,17.725,0,0,0,9.787,16,15.617,15.617,0,0,0,5.279,1.559l.429.039a97.981,97.981,0,0,0,10.855.686h54.868a15.1,15.1,0,0,0,3.556-.873c8.429-1.747,14.816-9.717,14.816-19.285C156.189,60.94,149.24,52.69,140.241,51.45Z" fill="#fff"/>
      <path d="M140.241,51.45c-.8-9.912-8.539-17.71-17.982-17.71A17.926,17.926,0,0,0,106.2,44.275a17.482,17.482,0,0,0-9.591-2.869c-8.516,0-15.69,6.184-17.85,14.59a16.324,16.324,0,0,0-5.186-.842c-9.358,0-16.961,7.907-16.961,17.663a17.725,17.725,0,0,0,9.787,16,15.617,15.617,0,0,0,5.279,1.559l.429.039a97.981,97.981,0,0,0,10.855.686h54.868a15.1,15.1,0,0,0,3.556-.873c8.429-1.747,14.816-9.717,14.816-19.285C156.189,60.94,149.24,52.69,140.241,51.45Z" fill="#55d2f6" opacity="0.8" style="isolation: isolate"/>
      <g>
        <g>
          <g>
            <path d="M98.318,86.424c-.717.234-1.481.453-2.277.671,4.781-19.823,14.185-16.236,14.185-16.236l1.56,1.451.054.187C112.152,73.815,113.431,81.636,98.318,86.424Z" fill="#ff9f2b"/>
            <path d="M98.318,86.424C103,70.1,111.006,72.232,111.825,72.5,112.152,73.815,113.431,81.636,98.318,86.424Z" fill="#ff8c00"/>
            <polygon points="112.566 76.248 105.898 69.573 111.232 68.239 113.735 70.75 112.566 76.248" fill="#2e6ca4"/>
          </g>
          <polygon points="113.899 61.463 95.885 60.8 93.218 58.125 108.565 50.787 114.975 53.196 113.899 61.463" fill="#2e6ca4"/>
          <polygon points="121.526 66.906 122.189 84.919 124.863 87.586 132.201 72.24 129.792 65.83 121.526 66.906" fill="#2e6ca4"/>
          <g>
            <path d="M117.931,74.852h-.2l-.156-.148-9.506-9.912.039-.234a39.388,39.388,0,0,1,10.8-19.121c8.632-8.578,28.751-12.2,29.633-12.344l.631-.133-.109.655s-.351,2.1-1.076,5.147c-1.957,8.243-5.459,19.246-11.073,24.876C128.2,72.411,118.757,74.852,117.931,74.852Z" fill="#fff"/>
            <path d="M147.47,39.932c-1.559,6.706-5.061,18.333-10.917,24.252A38.607,38.607,0,0,1,117.9,74.86l-5.3-5.3s1.692-9.74,10.683-18.716C129.16,44.985,140.756,41.538,147.47,39.932Z" fill="#e5e5e5"/>
            <path d="M148.32,34.185a97.051,97.051,0,0,0-15.768,4.234L144.07,49.937A97.093,97.093,0,0,0,148.32,34.185Z" fill="#bad80a"/>
            <path d="M117.931,75.632h-.514l-.382-.362-9.8-10.22.1-.619A40.129,40.129,0,0,1,118.36,44.88c8.986-8.929,29.84-12.521,30.049-12.556l1.72-.362-.3,1.782c-.014.087-.364,2.159-1.087,5.2-1.98,8.344-5.546,19.5-11.28,25.247C128.5,73.215,118.9,75.632,117.931,75.632ZM108.91,64.545l9.125,9.515c1.439-.2,10.192-2.782,18.323-10.971,5.477-5.493,8.933-16.359,10.868-24.507.516-2.17.843-3.864.984-4.637-3.168.593-20.857,4.2-28.755,12.045A38.562,38.562,0,0,0,108.91,64.545Z" fill="#2e6ca4"/>
          </g>
        </g>
        <g>
          <circle cx="127.187" cy="54.561" r="4.718" fill="#fff"/>
          <path d="M127.187,60.059a5.5,5.5,0,1,1,5.5-5.5A5.5,5.5,0,0,1,127.187,60.059Zm0-9.436a3.938,3.938,0,1,0,3.938,3.938A3.943,3.943,0,0,0,127.187,50.623Z" fill="#2e6ca4"/>
        </g>
      </g>
    </g>
  </g>
</svg>
