<svg xmlns="http://www.w3.org/2000/svg" viewBox="0 0 298 110">
  <title>8 - ghost-record</title>
  <g id="background_blue" data-name="background blue">
    <rect width="298" height="110" fill="#e4edf1"/>
  </g>
  <g id="Shapes">
    <g>
      <g>
        <path d="M226.664,23.062a.945.945,0,0,0,.056-1.244l-1.668-1.828a1.114,1.114,0,0,0-1.244-.055L220.972,21.8c-.6-.4-1.334-.938-1.939-1.341l.911-3.475a.849.849,0,0,0-.452-1.022L217.407,15a.786.786,0,0,0-1.087.227.856.856,0,0,0-.053.093l-2.015,3.03a7.254,7.254,0,0,0-2.224-.6l-.341-3.517a.855.855,0,0,0-.8-.909l-.037,0h-2.377c-.368-.139-.757.216-.9.584l-.792,3.586a7.345,7.345,0,0,0-2.266.4l-1.717-3.17a1.26,1.26,0,0,0-1.1-.424l-2.314.9a.847.847,0,0,0-.542.973l.7,3.4c-.639.348-1.293.939-1.932,1.286l-2.78-2.252a.806.806,0,0,0-1.126.077l-1.7,1.55a.807.807,0,0,0-.174,1.119l1.988,2.967a10.235,10.235,0,0,0-1.473,2.085l-3.475-1.154a1.093,1.093,0,0,0-1.154.57l-.973,2.085a1.077,1.077,0,0,0,.445,1.272l2.912,1.884c-.285.736-.32,1.487-.6,2.224l-3.516.34a1.092,1.092,0,0,0-.793.966l-.1,2.245a1.086,1.086,0,0,0,.695,1.029l3.6.535a14.847,14.847,0,0,0,.382,2.516l-3.2,1.73a.786.786,0,0,0-.467,1.008.841.841,0,0,0,.043.1l.779,2.162a1.168,1.168,0,0,0,1.091.7l3.538-.841,1.035,1.918-2.252,2.78a1.175,1.175,0,0,0,.077,1.126l1.668,1.828a.952.952,0,0,0,1.119.173l3.044-2.043c.6.4,1.334.938,1.939,1.341l-.911,3.475A.849.849,0,0,0,197.7,57.4l2.2,1.1a1.069,1.069,0,0,0,1.14-.327l1.883-2.912c.751,0,1.488.32,2.238.348l.209,3.635a1.083,1.083,0,0,0,.966.792l2.363.229a1.5,1.5,0,0,0,.91-.834l.661-3.475c.875-.083,1.64-.3,2.515-.389l1.613,3.072a.854.854,0,0,0,1.1.424l2.161-.778a1.015,1.015,0,0,0,.7-1.1l-.7-3.406a8.93,8.93,0,0,0,1.932-1.286l2.78,2.252a.834.834,0,0,0,1.244.056l1.7-1.55a.834.834,0,0,0,.12-1.173.72.72,0,0,0-.064-.071l-1.988-2.968a6.253,6.253,0,0,0,1.467-2.085l3.475,1.154a.846.846,0,0,0,1.021-.452l1.1-2.2a1.261,1.261,0,0,0-.319-1.14L227.1,42.3a6.376,6.376,0,0,0,.473-2.085l3.649-.459c.382-.1.771-.466.785-.7l.118-2.495a.855.855,0,0,0-.8-.909h-.037L227.811,35a13.514,13.514,0,0,0-.264-2.39l2.954-1.745a.91.91,0,0,0,.584-1.147c-.008-.026-.018-.051-.028-.076l-.779-2.162a.785.785,0,0,0-1.007-.467.716.716,0,0,0-.1.044l-3.53.59-1.036-1.925,2.057-2.662M211.277,34.238a3.621,3.621,0,0,1-.11,5.119c-.044.042-.088.082-.133.121a3.587,3.587,0,0,1-5.063-.3l-.045-.052a3.621,3.621,0,1,1,5.351-4.865" fill="#fff"/>
        <g opacity="0.35">
          <path d="M226.664,23.062a.945.945,0,0,0,.056-1.244l-1.668-1.828a1.114,1.114,0,0,0-1.244-.055L220.972,21.8c-.6-.4-1.334-.938-1.939-1.341l.911-3.475a.849.849,0,0,0-.452-1.022L217.407,15a.786.786,0,0,0-1.087.227.856.856,0,0,0-.053.093l-2.015,3.03a7.254,7.254,0,0,0-2.224-.6l-.341-3.517a.855.855,0,0,0-.8-.909l-.037,0h-2.377c-.368-.139-.757.216-.9.584l-.792,3.586a7.345,7.345,0,0,0-2.266.4l-1.717-3.17a1.26,1.26,0,0,0-1.1-.424l-2.314.9a.847.847,0,0,0-.542.973l.7,3.4c-.639.348-1.293.939-1.932,1.286l-2.78-2.252a.806.806,0,0,0-1.126.077l-1.7,1.55a.807.807,0,0,0-.174,1.119l1.988,2.967a10.235,10.235,0,0,0-1.473,2.085l-3.475-1.154a1.093,1.093,0,0,0-1.154.57l-.973,2.085a1.077,1.077,0,0,0,.445,1.272l2.912,1.884c-.285.736-.32,1.487-.6,2.224l-3.516.34a1.092,1.092,0,0,0-.793.966l-.1,2.245a1.086,1.086,0,0,0,.695,1.029l3.6.535a14.847,14.847,0,0,0,.382,2.516l-3.2,1.73a.786.786,0,0,0-.467,1.008.841.841,0,0,0,.043.1l.779,2.162a1.168,1.168,0,0,0,1.091.7l3.538-.841,1.035,1.918-2.252,2.78a1.175,1.175,0,0,0,.077,1.126l1.668,1.828a.952.952,0,0,0,1.119.173l3.044-2.043c.6.4,1.334.938,1.939,1.341l-.911,3.475A.849.849,0,0,0,197.7,57.4l2.2,1.1a1.069,1.069,0,0,0,1.14-.327l1.883-2.912c.751,0,1.488.32,2.238.348l.209,3.635a1.083,1.083,0,0,0,.966.792l2.363.229a1.5,1.5,0,0,0,.91-.834l.661-3.475c.875-.083,1.64-.3,2.515-.389l1.613,3.072a.854.854,0,0,0,1.1.424l2.161-.778a1.015,1.015,0,0,0,.7-1.1l-.7-3.406a8.93,8.93,0,0,0,1.932-1.286l2.78,2.252a.834.834,0,0,0,1.244.056l1.7-1.55a.834.834,0,0,0,.12-1.173.72.72,0,0,0-.064-.071l-1.988-2.968a6.253,6.253,0,0,0,1.467-2.085l3.475,1.154a.846.846,0,0,0,1.021-.452l1.1-2.2a1.261,1.261,0,0,0-.319-1.14L227.1,42.3a6.376,6.376,0,0,0,.473-2.085l3.649-.459c.382-.1.771-.466.785-.7l.118-2.495a.855.855,0,0,0-.8-.909h-.037L227.811,35a13.514,13.514,0,0,0-.264-2.39l2.954-1.745a.91.91,0,0,0,.584-1.147c-.008-.026-.018-.051-.028-.076l-.779-2.162a.785.785,0,0,0-1.007-.467.716.716,0,0,0-.1.044l-3.53.59-1.036-1.925,2.057-2.662M211.277,34.238a3.621,3.621,0,0,1-.11,5.119c-.044.042-.088.082-.133.121a3.587,3.587,0,0,1-5.063-.3l-.045-.052a3.621,3.621,0,1,1,5.351-4.865" fill="#3c3c41"/>
        </g>
      </g>
      <g>
        <g id="ICONS-64x">
          <g>
            <path d="M113.119,25.905v71.4H195.1v-71.4Z" fill="#fff"/>
            <path d="M196.086,98.3H112.132V24.919h83.954Zm-81.98-1.974h80.006V26.893H114.106Z" fill="#75757a"/>
          </g>
          <g>
            <path d="M162.7,20.616a10.445,10.445,0,0,0-8.594,3.967,10.447,10.447,0,0,0-8.595-3.967h-23.14V88.052h23.14a9.091,9.091,0,0,1,6.611,3.213c.86.965,1.984,2.076,1.984,2.076s1.124-1.111,1.983-2.076a9.094,9.094,0,0,1,6.611-3.213h23.14V20.616Z" fill="#fff"/>
            <path d="M154.108,94.728l-.694-.685c-.046-.047-1.155-1.144-2.027-2.122a8.137,8.137,0,0,0-5.909-2.883H121.387V19.629h24.127a11.471,11.471,0,0,1,8.594,3.459,11.472,11.472,0,0,1,8.614-3.459h24.107v69.41H162.7a8.11,8.11,0,0,0-5.858,2.864c-.887,1-2,2.093-2.043,2.14Zm-30.747-7.663h22.153a10.12,10.12,0,0,1,7.364,3.562c.4.443.857.928,1.23,1.311.375-.386.844-.877,1.246-1.329a10.1,10.1,0,0,1,7.314-3.544h22.188V21.6h-22.19a9.527,9.527,0,0,0-7.783,3.592l-.775.982-.775-.982a9.5,9.5,0,0,0-7.781-3.592H123.361Z" fill="#75757a"/>
          </g>
          <rect x="123.697" y="21.939" width="10.578" height="64.791" fill="#e5e5e5"/>
          <rect x="173.943" y="21.939" width="10.578" height="64.791" fill="#e5e5e5"/>
          <path d="M155.431,25.033v65l-.331.357-.991,1.058c-.318-.331-.675-.7-.992-1.058l-.331-.357V25.02Z" fill="#2e6ca4"/>
        </g>
        <g id="Layer_5" data-name="Layer 5">
          <g>
            <circle cx="130.308" cy="57.64" r="2.645" fill="#3c3c41"/>
            <rect x="136.919" y="56.653" width="11.901" height="1.974" fill="#3c3c41"/>
            <circle cx="130.308" cy="70.862" r="2.645" fill="#3c3c41"/>
            <rect x="136.919" y="69.875" width="11.901" height="1.974" fill="#3c3c41"/>
          </g>
          <g>
            <circle cx="162.042" cy="57.64" r="2.645" fill="#3c3c41"/>
            <rect x="168.653" y="56.653" width="11.901" height="1.974" fill="#3c3c41"/>
            <circle cx="162.042" cy="70.862" r="2.645" fill="#3c3c41"/>
            <rect x="168.653" y="69.875" width="11.901" height="1.974" fill="#3c3c41"/>
          </g>
          <g>
            <rect x="128.618" y="37.48" width="20.569" height="1.974" transform="translate(13.483 109.486) rotate(-45)" fill="#2e6ca4"/>
            <rect x="137.916" y="28.182" width="1.974" height="20.569" transform="translate(13.483 109.486) rotate(-45)" fill="#2e6ca4"/>
          </g>
          <polygon points="165.348 45.813 158.369 38.834 159.765 37.439 165.348 43.021 179.856 28.513 181.252 29.909 165.348 45.813" fill="#2e6ca4"/>
        </g>
      </g>
      <g>
        <path d="M252.4,46.783h-2.464V75.157a3.635,3.635,0,0,1-.29,1.444,3.686,3.686,0,0,1-3.412,2.258H226.5a3.632,3.632,0,0,1-1.447-.29,3.68,3.68,0,0,1-1.965-1.968,3.618,3.618,0,0,1-.287-1.444V46.783h-2.476V44.316H230.2V41.849a2.334,2.334,0,0,1,.193-.964,2.5,2.5,0,0,1,.537-.781,2.574,2.574,0,0,1,.781-.537,2.407,2.407,0,0,1,.97-.185h7.388a2.4,2.4,0,0,1,.963.193,2.564,2.564,0,0,1,1.313,1.31,2.418,2.418,0,0,1,.191.964v2.467H252.4Zm-4.934,0h-22.2V75.157a1.251,1.251,0,0,0,1.235,1.235h19.737a1.252,1.252,0,0,0,1.235-1.235ZM232.676,71.457H230.2V51.731h2.481Zm0-27.141h7.388V41.849h-7.388Zm4.934,27.141h-2.481V51.731h2.465Zm4.934,0h-2.48V51.731h2.464Z" fill="#fff"/>
        <g opacity="0.35">
          <path d="M252.4,46.783h-2.464V75.157a3.635,3.635,0,0,1-.29,1.444,3.686,3.686,0,0,1-3.412,2.258H226.5a3.632,3.632,0,0,1-1.447-.29,3.68,3.68,0,0,1-1.965-1.968,3.618,3.618,0,0,1-.287-1.444V46.783h-2.476V44.316H230.2V41.849a2.334,2.334,0,0,1,.193-.964,2.5,2.5,0,0,1,.537-.781,2.574,2.574,0,0,1,.781-.537,2.407,2.407,0,0,1,.97-.185h7.388a2.4,2.4,0,0,1,.963.193,2.564,2.564,0,0,1,1.313,1.31,2.418,2.418,0,0,1,.191.964v2.467H252.4Zm-4.934,0h-22.2V75.157a1.251,1.251,0,0,0,1.235,1.235h19.737a1.252,1.252,0,0,0,1.235-1.235ZM232.676,71.457H230.2V51.731h2.481Zm0-27.141h7.388V41.849h-7.388Zm4.934,27.141h-2.481V51.731h2.465Zm4.934,0h-2.48V51.731h2.464Z" fill="#3c3c41"/>
        </g>
        <path d="M252.4,46.783h-2.464V75.157a3.635,3.635,0,0,1-.29,1.444,3.686,3.686,0,0,1-3.412,2.258H226.5a3.632,3.632,0,0,1-1.447-.29,3.68,3.68,0,0,1-1.965-1.968,3.618,3.618,0,0,1-.287-1.444V46.783h-2.476V44.316H230.2V41.849a2.334,2.334,0,0,1,.193-.964,2.5,2.5,0,0,1,.537-.781,2.574,2.574,0,0,1,.781-.537,2.407,2.407,0,0,1,.97-.185h7.388a2.4,2.4,0,0,1,.963.193,2.564,2.564,0,0,1,1.313,1.31,2.418,2.418,0,0,1,.191.964v2.467H252.4Zm-4.934,0h-22.2V75.157a1.251,1.251,0,0,0,1.235,1.235h19.737a1.252,1.252,0,0,0,1.235-1.235ZM232.676,71.457H230.2V51.731h2.481Zm0-27.141h7.388V41.849h-7.388Zm4.934,27.141h-2.481V51.731h2.465Zm4.934,0h-2.48V51.731h2.464Z" fill="#3c3c41"/>
      </g>
      <g opacity="0.5">
        <g>
          <polygon points="98.613 38.423 94.825 34.633 93.246 33.054 93.087 33.054 65.453 33.054 65.453 72.531 100.193 72.531 100.193 40.159 100.193 40.003 98.613 38.423" fill="#75757a"/>
          <polygon points="93.087 34.633 67.032 34.633 67.032 70.952 98.613 70.952 98.613 40.159 93.087 40.159 93.087 34.633" fill="#fff" style="isolation: isolate"/>
        </g>
        <g>
          <polygon points="90.506 46.383 86.718 42.592 85.139 41.013 84.98 41.013 57.346 41.013 57.346 80.49 92.085 80.49 92.085 48.118 92.085 47.962 90.506 46.383" fill="#75757a"/>
          <polygon points="84.98 42.592 58.925 42.592 58.925 78.911 90.506 78.911 90.506 48.118 84.98 48.118 84.98 42.592" fill="#fff" style="isolation: isolate"/>
        </g>
        <g>
          <polygon points="80.97 53.407 77.182 49.617 75.602 48.037 75.444 48.037 47.809 48.037 47.809 87.515 82.549 87.515 82.549 55.143 82.549 54.986 80.97 53.407" fill="#75757a"/>
          <polygon points="75.444 49.617 49.388 49.617 49.388 85.936 80.97 85.936 80.97 55.143 75.444 55.143 75.444 49.617" fill="#fff" style="isolation: isolate"/>
        </g>
      </g>
    </g>
  </g>
</svg>
