<svg xmlns="http://www.w3.org/2000/svg" viewBox="0 0 298 110">
  <title>9 - index-arch-design</title>
  <g id="background_blue" data-name="background blue">
    <rect width="298" height="110" fill="#e4edf1"/>
  </g>
  <g id="Shapes">
    <g>
      <path d="M91,66.094c-.127.08-.253.146-.379.22l-1.371-2.345L90.62,60.13l6.7-2.51-.14-5.408-.743-.227-6.05-1.569-1.574-3.771,2.91-6.346-3.908-3.71-.354.189-.3-.274-.258-.233-.718.406-5.23,3.016-3.291-1.242L75.035,32l-5.531.142-.066.212-.456.022-.208.748-1.645,5.759-3.321,1.371L57.226,37.6l-3.84,3.911.223.419-.365.472.406.719,3.219,5.254-1.28,3.88-6.634,2.674.274,5.4.749.208,6.1,1.415,1.668,3.733L56.329,69c-.126.044-.247.1-.376.135L54.908,71.5l.247.235L55,72.1l4,3.614.718-.405L65.1,72.207l3.96,1.371L71.231,79.8l.573-.014.085.192,5.526-.274.209-.749,1.549-5.863,3.467-1.547,6.524,2.633.274-.3.129.046,3.735-4L92.9,69.2ZM66.865,48.974A9.415,9.415,0,0,1,76.5,47.131c.381.227.625.214.754.331a12.791,12.791,0,0,1,2.161,1.372c.178,0,.3.115.5.175.159.137.321.274.488.433a9.427,9.427,0,0,1,1.018,1.328,9.6,9.6,0,0,1-2.139,12.341,9.414,9.414,0,0,1-9.675,1.6c-.376-.236-.62-.23-.746-.351a12.81,12.81,0,0,1-2.129-1.42c-.2,0-.326-.146-.548-.2l-.088-.074a9.429,9.429,0,0,1-1.053-1.28A9.6,9.6,0,0,1,66.865,48.974Z" fill="#7a7a7a"/>
      <path d="M63.391,56.288A9.812,9.812,0,0,1,79.76,48.943a.923.923,0,0,0,.14.063c.159.138.321.275.488.434A9.218,9.218,0,0,1,81.4,50.751a5.591,5.591,0,0,1,.274.512L91.7,40.294l-3.908-3.711-.354.19-.3-.275-.258-.233-.718.406-5.227,3.017-3.291-1.243L75.016,32l-5.532.143-.065.211-.456.022-.208.749-1.646,5.759L63.788,40.25l-6.581-2.657-3.84,3.91.222.42-.345.477.406.719,3.219,5.254-1.28,3.88-6.634,2.674.274,5.4.749.208,6.1,1.415,1.665,3.733L56.326,69c-.126.044-.247.1-.375.135L54.906,71.5l.247.235-.16.368,4,3.614.718-.405,9.3-10.169A9.827,9.827,0,0,1,63.391,56.288Z" fill="#fff" opacity="0.08" style="isolation: isolate"/>
    </g>
    <g>
      <path d="M243.766,41.975a.966.966,0,0,0,.057-1.271l-1.7-1.867a1.134,1.134,0,0,0-1.271-.057l-2.9,1.91c-.618-.412-1.364-.959-1.981-1.371l.93-3.55a.867.867,0,0,0-.462-1.044l-2.13-.987a.8.8,0,0,0-1.111.231.906.906,0,0,0-.054.1l-2.059,3.1a7.439,7.439,0,0,0-2.272-.611l-.348-3.593a.872.872,0,0,0-.815-.928l-.037,0h-2.429c-.376-.142-.774.22-.923.6l-.809,3.664a7.537,7.537,0,0,0-2.315.405l-1.754-3.238a1.286,1.286,0,0,0-1.129-.433l-2.365.923a.867.867,0,0,0-.554.994l.711,3.48c-.654.355-1.321.958-1.974,1.313l-2.841-2.3a.823.823,0,0,0-1.15.078l-1.733,1.583a.823.823,0,0,0-.177,1.143l2.031,3.033A10.442,10.442,0,0,0,208.7,45.4l-3.55-1.179a1.115,1.115,0,0,0-1.179.582l-.994,2.131a1.1,1.1,0,0,0,.454,1.3l2.976,1.924c-.292.753-.327,1.52-.618,2.273l-3.593.348a1.114,1.114,0,0,0-.81.987l-.106,2.293a1.107,1.107,0,0,0,.71,1.051l3.678.547a15.068,15.068,0,0,0,.391,2.57l-3.274,1.769a.806.806,0,0,0-.433,1.129l.795,2.208a1.192,1.192,0,0,0,1.115.71l3.614-.859,1.058,1.96-2.3,2.84a1.2,1.2,0,0,0,.078,1.15l1.7,1.868a.973.973,0,0,0,1.143.178l3.111-2.088c.617.412,1.363.958,1.981,1.37l-.931,3.551a.868.868,0,0,0,.462,1.044l2.244,1.122a1.093,1.093,0,0,0,1.164-.334l1.925-2.975c.767,0,1.519.326,2.286.355l.213,3.713a1.107,1.107,0,0,0,.987.81l2.415.234a1.539,1.539,0,0,0,.93-.852l.674-3.55c.9-.086,1.676-.306,2.571-.4l1.647,3.139a.875.875,0,0,0,1.129.433l2.209-.8a1.037,1.037,0,0,0,.71-1.122l-.71-3.479a9.184,9.184,0,0,0,1.974-1.314l2.84,2.3a.852.852,0,0,0,1.2.123q.038-.031.072-.066l1.733-1.584a.851.851,0,0,0,.123-1.2.924.924,0,0,0-.066-.073l-2.031-3.032a6.392,6.392,0,0,0,1.5-2.13l3.551,1.179a.866.866,0,0,0,1.043-.462l1.122-2.251a1.284,1.284,0,0,0-.326-1.164l-3.1-2.053a6.53,6.53,0,0,0,.483-2.13l3.727-.468c.391-.107.789-.476.8-.711l.121-2.549a.874.874,0,0,0-.815-.928l-.037,0-3.551-.667a13.926,13.926,0,0,0-.27-2.443l3.018-1.782a.93.93,0,0,0,.6-1.173.715.715,0,0,0-.029-.077l-.795-2.209a.8.8,0,0,0-1.03-.477.728.728,0,0,0-.1.044l-3.607.6L241.665,44.7l2.1-2.72M228.045,53.393a3.7,3.7,0,0,1-.113,5.231c-.044.042-.089.084-.135.124a3.665,3.665,0,0,1-5.173-.309l-.047-.054a3.7,3.7,0,1,1,5.212-5.251,3.583,3.583,0,0,1,.256.281" fill="#fff"/>
      <g opacity="0.35">
        <path d="M243.766,41.975a.966.966,0,0,0,.057-1.271l-1.7-1.867a1.134,1.134,0,0,0-1.271-.057l-2.9,1.91c-.618-.412-1.364-.959-1.981-1.371l.93-3.55a.867.867,0,0,0-.462-1.044l-2.13-.987a.8.8,0,0,0-1.111.231.906.906,0,0,0-.054.1l-2.059,3.1a7.439,7.439,0,0,0-2.272-.611l-.348-3.593a.872.872,0,0,0-.815-.928l-.037,0h-2.429c-.376-.142-.774.22-.923.6l-.809,3.664a7.537,7.537,0,0,0-2.315.405l-1.754-3.238a1.286,1.286,0,0,0-1.129-.433l-2.365.923a.867.867,0,0,0-.554.994l.711,3.48c-.654.355-1.321.958-1.974,1.313l-2.841-2.3a.823.823,0,0,0-1.15.078l-1.733,1.583a.823.823,0,0,0-.177,1.143l2.031,3.033A10.442,10.442,0,0,0,208.7,45.4l-3.55-1.179a1.115,1.115,0,0,0-1.179.582l-.994,2.131a1.1,1.1,0,0,0,.454,1.3l2.976,1.924c-.292.753-.327,1.52-.618,2.273l-3.593.348a1.114,1.114,0,0,0-.81.987l-.106,2.293a1.107,1.107,0,0,0,.71,1.051l3.678.547a15.068,15.068,0,0,0,.391,2.57l-3.274,1.769a.806.806,0,0,0-.433,1.129l.795,2.208a1.192,1.192,0,0,0,1.115.71l3.614-.859,1.058,1.96-2.3,2.84a1.2,1.2,0,0,0,.078,1.15l1.7,1.868a.973.973,0,0,0,1.143.178l3.111-2.088c.617.412,1.363.958,1.981,1.37l-.931,3.551a.868.868,0,0,0,.462,1.044l2.244,1.122a1.093,1.093,0,0,0,1.164-.334l1.925-2.975c.767,0,1.519.326,2.286.355l.213,3.713a1.107,1.107,0,0,0,.987.81l2.415.234a1.539,1.539,0,0,0,.93-.852l.674-3.55c.9-.086,1.676-.306,2.571-.4l1.647,3.139a.875.875,0,0,0,1.129.433l2.209-.8a1.037,1.037,0,0,0,.71-1.122l-.71-3.479a9.184,9.184,0,0,0,1.974-1.314l2.84,2.3a.852.852,0,0,0,1.2.123q.038-.031.072-.066l1.733-1.584a.851.851,0,0,0,.123-1.2.924.924,0,0,0-.066-.073l-2.031-3.032a6.392,6.392,0,0,0,1.5-2.13l3.551,1.179a.866.866,0,0,0,1.043-.462l1.122-2.251a1.284,1.284,0,0,0-.326-1.164l-3.1-2.053a6.53,6.53,0,0,0,.483-2.13l3.727-.468c.391-.107.789-.476.8-.711l.121-2.549a.874.874,0,0,0-.815-.928l-.037,0-3.551-.667a13.926,13.926,0,0,0-.27-2.443l3.018-1.782a.93.93,0,0,0,.6-1.173.715.715,0,0,0-.029-.077l-.795-2.209a.8.8,0,0,0-1.03-.477.728.728,0,0,0-.1.044l-3.607.6L241.665,44.7l2.1-2.72M228.045,53.393a3.7,3.7,0,0,1-.113,5.231c-.044.042-.089.084-.135.124a3.665,3.665,0,0,1-5.173-.309l-.047-.054a3.7,3.7,0,1,1,5.212-5.251,3.583,3.583,0,0,1,.256.281" fill="#3c3c41"/>
      </g>
    </g>
    <g>
      <g id="ICONS-64x">
        <g>
          <path d="M104.936,20.276V97.421h88.573V20.276Z" fill="#fff"/>
          <path d="M194.576,98.487H103.87V19.21h90.706ZM106,96.355h86.44V21.343H106Z" fill="#75757a"/>
        </g>
        <g>
          <path d="M158.509,14.562a11.286,11.286,0,0,0-9.286,4.286,11.287,11.287,0,0,0-9.286-4.286h-25V87.421h25a9.831,9.831,0,0,1,7.143,3.471c.928,1.043,2.143,2.243,2.143,2.243s1.214-1.2,2.143-2.243a9.828,9.828,0,0,1,7.143-3.471h25V14.562Z" fill="#fff"/>
          <path d="M149.222,94.634l-.749-.741c-.05-.05-1.249-1.235-2.19-2.291a8.794,8.794,0,0,0-6.385-3.116H113.87V13.5h26.067a12.385,12.385,0,0,1,9.285,3.737,12.386,12.386,0,0,1,9.307-3.737h26.046V88.487H158.509a8.763,8.763,0,0,0-6.329,3.094c-.959,1.077-2.158,2.262-2.208,2.312ZM116,86.354h23.935a10.935,10.935,0,0,1,7.957,3.85c.426.478.925,1,1.328,1.415.405-.416.912-.947,1.347-1.436a10.906,10.906,0,0,1,7.9-3.828h23.972V15.628H158.468a10.29,10.29,0,0,0-8.408,3.881l-.838,1.06-.837-1.06a10.263,10.263,0,0,0-8.407-3.881H116Z" fill="#75757a"/>
        </g>
        <rect x="116.365" y="15.991" width="11.429" height="70.001" fill="#e5e5e5"/>
        <rect x="170.652" y="15.991" width="11.429" height="70.001" fill="#e5e5e5"/>
        <path d="M150.651,19.333V89.564l-.357.385-1.071,1.143c-.343-.357-.729-.757-1.072-1.143l-.357-.385V19.319Z" fill="#2e6ca4"/>
      </g>
      <g id="Layer_5" data-name="Layer 5">
        <g>
          <circle cx="123.508" cy="54.563" r="2.857" fill="#3c3c41"/>
          <rect x="130.651" y="53.497" width="12.858" height="2.133" fill="#3c3c41"/>
          <circle cx="123.508" cy="68.849" r="2.857" fill="#3c3c41"/>
          <rect x="130.651" y="67.782" width="12.858" height="2.133" fill="#3c3c41"/>
        </g>
        <g>
          <circle cx="157.794" cy="54.563" r="2.857" fill="#3c3c41"/>
          <rect x="164.937" y="53.497" width="12.858" height="2.133" fill="#3c3c41"/>
          <circle cx="157.794" cy="68.849" r="2.857" fill="#3c3c41"/>
          <rect x="164.937" y="67.782" width="12.858" height="2.133" fill="#3c3c41"/>
        </g>
        <g>
          <rect x="121.682" y="32.782" width="22.224" height="2.132" transform="translate(14.96 103.813) rotate(-45)" fill="#2e6ca4"/>
          <rect x="131.728" y="22.736" width="2.132" height="22.224" transform="translate(14.96 103.813) rotate(-45)" fill="#2e6ca4"/>
        </g>
        <polygon points="161.366 41.784 153.826 34.245 155.334 32.737 161.366 38.769 177.041 23.094 178.549 24.602 161.366 41.784" fill="#2e6ca4"/>
      </g>
    </g>
  </g>
</svg>
