<svg xmlns="http://www.w3.org/2000/svg" viewBox="0 0 50 50">
  <title>linkedin</title>
  <g id="Shapes">
    <g>
      <rect x="20.49" y="6.375" width="30.7" height="37.215" fill-opacity="0"/>
      <rect x="21.988" y="6.375" width="28.005" height="37.215" fill-opacity="0"/>
      <path d="M21.988,11.466V38.5c0,2.77,6.29,5.091,14,5.091V11.466Z" fill="#0072c6"/>
      <path d="M35.766,43.589h.224c7.788,0,14-2.246,14-5.091V11.466H35.766V43.589Z" fill="#0072c6"/>
      <path d="M35.766,43.589h.224c7.788,0,14-2.246,14-5.091V11.466H35.766V43.589Z" fill="#fff" opacity="0.15" style="isolation: isolate"/>
      <path d="M49.993,11.466c0,2.771-6.29,5.092-14,5.092s-14-2.246-14-5.092c0-2.77,6.29-5.091,14-5.091S49.993,8.7,49.993,11.466Z" fill="#fff"/>
      <path d="M47.147,11.242c0,1.8-5.016,3.294-11.157,3.294s-11.157-1.5-11.157-3.294c0-1.872,5.017-3.37,11.157-3.37S47.147,9.37,47.147,11.242Z" fill="#7fba00"/>
      <path d="M44.826,13.263c1.5-.6,2.321-1.273,2.321-2.021,0-1.872-5.016-3.37-11.157-3.37s-11.157,1.5-11.157,3.37c0,.748.9,1.5,2.322,2.021A25.391,25.391,0,0,1,35.99,11.99,23.757,23.757,0,0,1,44.826,13.263Z" fill="#b8d432"/>
      <rect x="20.49" y="19.104" width="30.7" height="16.473" fill-opacity="0"/>
      <path d="M26.1,30.783V29.028a3.41,3.41,0,0,0,1.037.6,3.362,3.362,0,0,0,1.129.2,2.435,2.435,0,0,0,.582-.061,1.39,1.39,0,0,0,.417-.164.757.757,0,0,0,.252-.252.645.645,0,0,0,.082-.319.681.681,0,0,0-.132-.411,1.385,1.385,0,0,0-.362-.334,3.613,3.613,0,0,0-.537-.3c-.208-.095-.433-.191-.675-.29a3.467,3.467,0,0,1-1.376-.938,2.053,2.053,0,0,1-.45-1.338,2.048,2.048,0,0,1,.916-1.783,2.984,2.984,0,0,1,.987-.416,4.934,4.934,0,0,1,1.185-.137,6.862,6.862,0,0,1,1.086.076,4.214,4.214,0,0,1,.877.225v1.64a2.574,2.574,0,0,0-.433-.241,2.974,2.974,0,0,0-.477-.17,3.348,3.348,0,0,0-.494-.105,3.569,3.569,0,0,0-.46-.033,2.324,2.324,0,0,0-.549.061,1.344,1.344,0,0,0-.417.159.786.786,0,0,0-.263.252.58.58,0,0,0-.093.324.64.64,0,0,0,.1.356,1.255,1.255,0,0,0,.3.3,3.546,3.546,0,0,0,.466.275c.183.087.39.179.62.274a6.4,6.4,0,0,1,.845.422,2.93,2.93,0,0,1,.647.5,1.958,1.958,0,0,1,.411.642,2.529,2.529,0,0,1-.11,1.941,2.025,2.025,0,0,1-.674.724,2.958,2.958,0,0,1-1,.395,5.679,5.679,0,0,1-1.2.121,6.72,6.72,0,0,1-1.234-.11A3.725,3.725,0,0,1,26.1,30.783Zm9.982.439a3.668,3.668,0,0,1-2.754-1.1,3.971,3.971,0,0,1-1.064-2.868A4.245,4.245,0,0,1,33.34,24.24,3.728,3.728,0,0,1,36.2,23.089a3.56,3.56,0,0,1,2.72,1.1A4.044,4.044,0,0,1,39.965,27.1a4.167,4.167,0,0,1-1.081,2.989c-.025.025-.049.051-.071.076s-.045.044-.071.066l1.991,1.914H38.254l-1.042-1.058A4.43,4.43,0,0,1,36.077,31.222Zm.076-6.609a1.788,1.788,0,0,0-1.48.7,2.9,2.9,0,0,0-.549,1.848,2.863,2.863,0,0,0,.549,1.849,1.756,1.756,0,0,0,1.436.68,1.78,1.78,0,0,0,1.454-.659A2.856,2.856,0,0,0,38.1,27.2a3.079,3.079,0,0,0-.521-1.9A1.69,1.69,0,0,0,36.153,24.613Zm9.806,6.472H41.276V23.22h1.771v6.428h2.912Z" fill="#fff"/>
    </g>
    <g>
      <rect y="15.473" width="21.018" height="21.018" fill="#0080b5"/>
      <rect x="5.165" y="23.941" width="2.351" height="7.072" fill="#fff"/>
      <path d="M6.356,20.532a1.225,1.225,0,1,0-.031,2.444H6.34a1.226,1.226,0,1,0,.016-2.444Z" fill="#fff"/>
      <path d="M13.285,23.775a2.332,2.332,0,0,0-2.118,1.169v-1H8.816c.031.664,0,7.072,0,7.072h2.351V27.064a1.616,1.616,0,0,1,.077-.574,1.287,1.287,0,0,1,1.206-.859c.851,0,1.191.648,1.191,1.6v3.783h2.351V26.958C15.992,24.786,14.832,23.775,13.285,23.775Z" fill="#fff"/>
    </g>
  </g>
</svg>
