<svg xmlns="http://www.w3.org/2000/svg" viewBox="0 0 50 50">
  <title>linux-quickstart</title>
  <g id="Shapes">
    <g>
      <rect x="27.484" y="25" width="20.624" height="25" fill-opacity="0"/>
      <rect x="28.49" y="25" width="18.813" height="25" fill-opacity="0"/>
      <path d="M28.49,28.421V46.579C28.49,48.441,32.715,50,37.9,50V28.421Z" fill="#0072c6"/>
      <path d="M37.746,50H37.9c5.231,0,9.406-1.509,9.406-3.421V28.421H37.746V50Z" fill="#0072c6"/>
      <path d="M37.746,50H37.9c5.231,0,9.406-1.509,9.406-3.421V28.421H37.746V50Z" fill="#fff" opacity="0.15" style="isolation: isolate"/>
      <path d="M47.3,28.421c0,1.861-4.225,3.42-9.406,3.42s-9.407-1.509-9.407-3.42C28.49,26.559,32.715,25,37.9,25S47.3,26.559,47.3,28.421Z" fill="#fff"/>
      <path d="M45.392,28.27c0,1.207-3.371,2.213-7.5,2.213S30.4,29.477,30.4,28.27c0-1.258,3.37-2.264,7.495-2.264S45.392,27.012,45.392,28.27Z" fill="#7fba00"/>
      <path d="M43.832,29.628c1.006-.4,1.56-.855,1.56-1.358,0-1.258-3.371-2.264-7.5-2.264S30.4,27.012,30.4,28.27c0,.5.6,1.006,1.559,1.358a17.035,17.035,0,0,1,5.936-.855A15.908,15.908,0,0,1,43.832,29.628Z" fill="#b8d432"/>
      <rect x="27.484" y="33.551" width="20.624" height="11.066" fill-opacity="0"/>
      <path d="M31.249,41.4V40.218a2.313,2.313,0,0,0,.7.4,2.256,2.256,0,0,0,.759.133,1.664,1.664,0,0,0,.391-.041.919.919,0,0,0,.28-.11.5.5,0,0,0,.169-.17.429.429,0,0,0,.056-.213.46.46,0,0,0-.089-.277.929.929,0,0,0-.243-.224,2.437,2.437,0,0,0-.361-.2q-.21-.1-.453-.2a2.31,2.31,0,0,1-.925-.63,1.381,1.381,0,0,1-.3-.9,1.376,1.376,0,0,1,.615-1.2,2.019,2.019,0,0,1,.663-.28,3.359,3.359,0,0,1,.8-.092,4.523,4.523,0,0,1,.73.052,2.789,2.789,0,0,1,.589.151v1.1a1.765,1.765,0,0,0-.291-.162,2,2,0,0,0-.32-.114,2.339,2.339,0,0,0-.332-.07,2.246,2.246,0,0,0-.309-.022A1.557,1.557,0,0,0,33,37.2a.919.919,0,0,0-.28.107.535.535,0,0,0-.177.17.385.385,0,0,0-.062.217.424.424,0,0,0,.07.239.814.814,0,0,0,.2.2,2.334,2.334,0,0,0,.313.185c.123.059.261.12.416.184a4.278,4.278,0,0,1,.567.284,1.944,1.944,0,0,1,.435.335,1.3,1.3,0,0,1,.276.431,1.7,1.7,0,0,1-.073,1.3,1.371,1.371,0,0,1-.453.486,1.994,1.994,0,0,1-.671.266,3.842,3.842,0,0,1-.8.081,4.517,4.517,0,0,1-.829-.074A2.511,2.511,0,0,1,31.249,41.4Zm6.705.3a2.462,2.462,0,0,1-1.849-.737,2.665,2.665,0,0,1-.715-1.927A2.848,2.848,0,0,1,36.116,37a2.5,2.5,0,0,1,1.923-.774,2.39,2.39,0,0,1,1.827.741,2.715,2.715,0,0,1,.7,1.952,2.8,2.8,0,0,1-.725,2.008c-.017.017-.033.034-.048.052l-.048.044,1.337,1.286H39.417l-.7-.711A2.983,2.983,0,0,1,37.954,41.692Zm.052-4.44a1.2,1.2,0,0,0-.995.472,1.954,1.954,0,0,0-.368,1.241,1.926,1.926,0,0,0,.368,1.242,1.181,1.181,0,0,0,.965.457,1.2,1.2,0,0,0,.977-.442,1.924,1.924,0,0,0,.361-1.235,2.072,2.072,0,0,0-.35-1.278A1.137,1.137,0,0,0,38.006,37.252ZM44.593,41.6H41.447V36.316h1.19v4.318h1.956Z" fill="#fff"/>
    </g>
    <g>
      <path d="M17.462,42.52c-.514,0-.87,0-.854.854a17.641,17.641,0,0,1-.251,3.9c-.307,1.842.073,2.595,1.251,2.708,1.356.133,1.93-.81,3.092-1.558.927-.587,1.987-1.251,2.5-1.53s.559-.854-.34-1.53c-.765-.575-1.214-.882-1.251-1.781s-.424-1.105-.809-.514a1.94,1.94,0,0,1-1.987,1.016A.854.854,0,0,1,18,43.2c0-.028,0-.055.007-.082C18.021,42.682,17.818,42.508,17.462,42.52Z" fill="#444"/>
      <path d="M16.033,45.948,15.665,48.8s-1.34-.1-2.194-.1-2.339.089-2.339.089l-.073-1.251a5.708,5.708,0,0,0,2.8-.263A6.208,6.208,0,0,0,16.033,45.948Z" fill="#444"/>
      <path d="M7.732,42.682s1.64,2.477,2,2.942c.558.72,1.279-.251.324-1.044C8.781,43.515,7.732,42.682,7.732,42.682Z" fill="#444"/>
      <path d="M3.026,44.139a3.17,3.17,0,0,0,2.31-1.486c.988-1.262,1.385-.546,2.024.324s2.449,3.489,2.934,4.177a1.688,1.688,0,0,1-.162,2.222,2.106,2.106,0,0,1-2.65.307A20.974,20.974,0,0,0,3.523,48.6c-.688-.162-1.133-.336-1-1.32a7.725,7.725,0,0,0,.073-2.12C2.5,44.592,2.435,44.329,3.026,44.139Z" fill="#444"/>
      <ellipse cx="11.541" cy="30.839" rx="0.243" ry="0.109" transform="translate(-11.806 7.62) rotate(-24.64)" fill="#5e5e5e"/>
      <path d="M18.288,42.18l-.069.048a.889.889,0,0,1,.17.749.664.664,0,0,0,.537.77.68.68,0,0,0,.317-.021,2.181,2.181,0,0,0,1.408-1.275A2.735,2.735,0,0,0,18.288,42.18Z" fill="#444"/>
      <path d="M14.447,31.127l-.381-.162a.82.82,0,0,0,.191-1.429.567.567,0,0,0-.911.4,3.028,3.028,0,0,0,0,.712,3,3,0,0,0-1.267-.287,2.034,2.034,0,0,0-.809.3c.056-1.019-.235-1.355-.729-1.169s-.4,1,.2,1.522a3.513,3.513,0,0,0-.506.469c-.385.441-.5.7.206,1.473a2.054,2.054,0,0,0,2.781.619c1.266-.684,1.853-1.032,1.882-1.574S14.811,31.277,14.447,31.127Zm-.433-1.437c.048-.04.162,0,.247.109s.117.219.068.263-.161,0-.246-.109S13.965,29.73,14.014,29.69Zm-1.579,1.04c0-.057.138-.073.263-.032s.215.121.2.178-.138.073-.263.032S12.415,30.787,12.435,30.73Zm-1.619-1.093c.061-.028.15.053.207.174s.048.243,0,.272-.15-.053-.207-.174-.056-.247,0-.272Zm3.643,2.429a6.108,6.108,0,0,1-2.663,1.1,2.639,2.639,0,0,1-1.546-.648c-.267-.255-.251-.441.044-.206a2.574,2.574,0,0,0,1.474.546,6.784,6.784,0,0,0,2.59-1.032c.457-.219.781-.19.1.239Z" fill="#444"/>
      <path d="M18.713,34.628a7.734,7.734,0,0,1-1.781-5.286c-.134-1.708-.757-4.578-4.545-4.327-3.517.251-3.076,3.752-2.959,5.387s.369,2.987-.765,4.343a21.866,21.866,0,0,0-2.9,4.934,4.791,4.791,0,0,0-.368,2.311,1.214,1.214,0,0,1,.911-.405,1.264,1.264,0,0,1,.4.048c-.51-1.412.586-3.642.963-4.108.162-.206.251-.323.117-.028-.473,1.048-1.267,2.7-.757,4.282A1.212,1.212,0,0,1,7.3,42a7.424,7.424,0,0,1,1.34-4.667,2.383,2.383,0,0,1,1.214-.809s-1.4-.235-.133-1.781a2.4,2.4,0,0,0,.368-1.8,1.013,1.013,0,0,1-.441-.882,1.345,1.345,0,0,1,.562-1.012,2.26,2.26,0,0,1-.222-1.692c.251-.971.971-1,1.473-.368a1.067,1.067,0,0,1,.235,1.133h1.032a1.862,1.862,0,0,1,.073-.987,1.3,1.3,0,0,1,1.113-.765,1.359,1.359,0,0,1,1.339,1.355,2.932,2.932,0,0,1-.234,1.324.887.887,0,0,1,.368,1.06c-.251.692-.162.81-.073,1.016s.708,1.575,1.809,4.153a9.491,9.491,0,0,1,.749,4.783.539.539,0,0,1,.275.106l.032-.045c.049-.065-.178-.036.126-.105,1.5-2.691.2-4.582-.368-5-.243-.178-.1-.093.02-.029,1.679.887,1.963,2.894,1.133,4.833a2.327,2.327,0,0,1,1.688.538c.166,0,.53.024.623-.2C22.2,40.176,20.481,36.882,18.713,34.628Zm-4.108-7.69c-.263.178-.405-.178-.405-.287,0-.405.352-.595.575-.332s.113.437-.154.611Zm2.282,6.342c-.307.307-.773.133-.971-.53-.089-.3,0-.441.368-.251s.927.465.62.777Z" fill="#444"/>
    </g>
    <g>
      <rect x="24.372" y="0.14" width="1.508" height="3.77" fill="#3c3c41"/>
      <rect x="31.335" y="4.493" width="2.639" height="1.131" transform="translate(5.987 24.572) rotate(-45)" fill="#3c3c41"/>
      <rect x="32.874" y="2.195" width="2.262" height="3.016" transform="translate(7.341 25.13) rotate(-45)" fill="#3c3c41"/>
      <path d="M25.126,22.951a10.392,10.392,0,1,1,5.912-1.862A10.245,10.245,0,0,1,25.126,22.951Z" fill="#fff"/>
      <path d="M25.126,22.763a10.214,10.214,0,0,1-1.814-.162,10.042,10.042,0,0,1-5.279-2.681l-.132-.129A10.181,10.181,0,0,1,17.9,5.4a10.042,10.042,0,0,1,5.422-2.824,10.062,10.062,0,0,1,8.985,2.805l.125.128a10.181,10.181,0,0,1-7.307,17.258Z" fill="#fff"/>
      <path d="M32.459,19.916a10.355,10.355,0,0,1-9.166,2.847,10.213,10.213,0,0,1-5.361-2.734L32.587,5.388a10.372,10.372,0,0,1-.132,14.528Z" fill="#e5e5e5"/>
      <path d="M25.126,2.779a9.793,9.793,0,1,1-9.8,9.8,9.678,9.678,0,0,1,1.761-5.591,9.8,9.8,0,0,1,8.043-4.212m0-.754a10.557,10.557,0,1,0,7.435,3.069A10.558,10.558,0,0,0,25.126,2.025Z" fill="#3c3c41"/>
      <path d="M25.126,16.73a4.148,4.148,0,1,1,4.147-4.148A4.148,4.148,0,0,1,25.126,16.73Z" fill="#2bc7f4"/>
      <circle cx="25.126" cy="12.582" r="1.508" fill="#fff"/>
      <path d="M27.388.894H22.863a.377.377,0,0,1-.377-.377h0A.377.377,0,0,1,22.863.14h4.525a.377.377,0,0,1,.377.377h0A.377.377,0,0,1,27.388.894Z" fill="#3c3c41"/>
      <polygon points="25.446 13.005 24.734 12.239 31.268 6.271 31.577 6.591 25.446 13.005" fill="#3c3c41"/>
      <rect x="24.748" y="3.91" width="0.754" height="2.262" fill="#3c3c41"/>
      <rect x="24.748" y="19.369" width="0.754" height="2.262" fill="#3c3c41"/>
      <rect x="16.453" y="12.205" width="2.262" height="0.754" fill="#3c3c41"/>
      <rect x="31.535" y="12.205" width="2.262" height="0.754" fill="#3c3c41"/>
    </g>
  </g>
</svg>
