<svg xmlns="http://www.w3.org/2000/svg" viewBox="0 0 50 50">
  <title>msftlearn</title>
  <g id="Shapes">
    <rect width="50" height="50" fill="#05589a"/>
    <g opacity="0.7">
      <path d="M42.2,41.826h2.237V4.435h-32.3c-1.032.105-3.2,2.723-3.2,3.037V43.591a1.95,1.95,0,0,0,1.927,1.974H39.764v-.623Z" fill="#05589a" stroke="#50e6ff" stroke-width="0.5"/>
      <path d="M13.1,6.305a3.183,3.183,0,0,0-2.069.975c-1.759,1.552.413,1.552,1.241,1.829H39.764v35.73l2.8-3.208V6.305Z" fill="none" stroke="#50e6ff" stroke-miterlimit="10" stroke-width="0.5"/>
      <path d="M12.975,26.4a1.369,1.369,0,0,1-1.4,1.4H6.967a1.369,1.369,0,0,1-1.4-1.4h0a1.369,1.369,0,0,1,1.4-1.4h4.606a1.314,1.314,0,0,1,1.4,1.4Z" fill="#05589a" stroke="#50e6ff" stroke-width="0.5"/>
      <path d="M12.975,16.12a1.369,1.369,0,0,1-1.4,1.4H6.967a1.369,1.369,0,0,1-1.4-1.4h0a1.368,1.368,0,0,1,1.4-1.4h4.606a1.432,1.432,0,0,1,1.4,1.4Z" fill="#05589a" stroke="#50e6ff" stroke-width="0.5"/>
      <path d="M12.975,37.619a1.369,1.369,0,0,1-1.4,1.4H6.967a1.368,1.368,0,0,1-1.4-1.4h0a1.369,1.369,0,0,1,1.4-1.4h4.606a1.369,1.369,0,0,1,1.4,1.4Z" fill="#05589a" stroke="#50e6ff" stroke-width="0.5"/>
    </g>
    <g>
      <path d="M1.006,30.6V19.4H4.381v8.563h3.86V30.6Z" fill="#fff"/>
      <path d="M8.863,30.6V19.4h6.976v2.641h-3.6v1.633h3.383v2.641H12.238v1.648H16.1V30.6Z" fill="#fff"/>
      <path d="M23.915,30.6l-.493-2.063H20.079L19.547,30.6H15.9l3.859-11.2h4.188l3.633,11.2ZM21.79,21.836h-.079a5.2,5.2,0,0,1-.109.617q-.093.43-.945,3.688H22.8l-.781-3.047A9.742,9.742,0,0,1,21.79,21.836Z" fill="#fff"/>
      <path d="M33.9,30.6l-.836-2.414a3,3,0,0,0-.629-1.118,1.152,1.152,0,0,0-.84-.406h-.133V30.6H28.09V19.4h4.485a6.216,6.216,0,0,1,3.472.77,2.616,2.616,0,0,1,1.121,2.309,2.917,2.917,0,0,1-.652,1.937,3.711,3.711,0,0,1-1.941,1.133v.031a2.718,2.718,0,0,1,1.183.711,4.38,4.38,0,0,1,.848,1.461l1.1,2.852Zm-.32-7.649a1.171,1.171,0,0,0-.344-.89,1.518,1.518,0,0,0-1.078-.329h-.7V24.3h.61a1.547,1.547,0,0,0,1.093-.383A1.25,1.25,0,0,0,33.583,22.953Z" fill="#fff"/>
      <path d="M46.033,30.6,42.08,25.2a12.621,12.621,0,0,1-.766-1.156h-.031q.046.828.047,1.859v4.7H38.205V19.4h3.187l3.789,5.141c.047.068.105.149.172.242s.136.191.2.289.132.2.192.289a1.906,1.906,0,0,1,.136.25h.032a9.971,9.971,0,0,1-.047-1.187V19.4h3.125V30.6Z" fill="#fff"/>
    </g>
  </g>
</svg>
