<svg xmlns="http://www.w3.org/2000/svg" viewBox="0 0 50 50">
  <title>mva</title>
  <g id="Shapes">
    <g>
      <path d="M25.467,0C13.7,0,4.289,3.922,4.289,8.157V41.686C4.289,45.921,13.858,50,25.467,50c11.765,0,21.178-3.765,21.178-8.157V8.314C46.645,4.079,37.232,0,25.467,0Zm0,2.824c8.314,0,15.06,2.039,15.06,4.549s-6.746,4.549-15.06,4.549-15.06-2.039-15.06-4.549S17.153,2.824,25.467,2.824Z" fill="#68217a"/>
      <g>
        <path d="M9.454,36.139V34.317a3.755,3.755,0,0,0,.778.5,6.548,6.548,0,0,0,.955.372,8.017,8.017,0,0,0,1.007.235,5.862,5.862,0,0,0,.936.083,3.775,3.775,0,0,0,2.21-.529,1.768,1.768,0,0,0,.731-1.525,1.741,1.741,0,0,0-.243-.929,2.687,2.687,0,0,0-.674-.723,6.623,6.623,0,0,0-1.017-.626q-.587-.3-1.265-.631-.716-.348-1.337-.709a5.777,5.777,0,0,1-1.078-.791,3.326,3.326,0,0,1-.722-.98,3.242,3.242,0,0,1,.148-2.855,3.451,3.451,0,0,1,1.079-1.1,4.956,4.956,0,0,1,1.523-.645,7.182,7.182,0,0,1,1.743-.212,6.884,6.884,0,0,1,2.951.47v1.739a5.5,5.5,0,0,0-3.113-.809,5.334,5.334,0,0,0-1.05.105,3,3,0,0,0-.936.346,2.041,2.041,0,0,0-.669.616,1.593,1.593,0,0,0-.258.921,1.847,1.847,0,0,0,.2.875,2.163,2.163,0,0,0,.578.672,5.886,5.886,0,0,0,.931.589q.549.285,1.265.626.735.349,1.394.736a6.421,6.421,0,0,1,1.156.856,3.84,3.84,0,0,1,.787,1.041,2.839,2.839,0,0,1,.291,1.307,3.056,3.056,0,0,1-1.465,2.753,4.78,4.78,0,0,1-1.552.612,8.79,8.79,0,0,1-1.852.189,7.755,7.755,0,0,1-.8-.051c-.319-.033-.643-.082-.975-.147a7.914,7.914,0,0,1-.94-.24A2.95,2.95,0,0,1,9.454,36.139Z" fill="#fff"/>
        <path d="M26,36.894a6.153,6.153,0,0,1-4.669-1.851,6.72,6.72,0,0,1-1.748-4.814,7.087,7.087,0,0,1,1.786-5.082,6.369,6.369,0,0,1,4.86-1.9A5.983,5.983,0,0,1,30.8,25.091a6.727,6.727,0,0,1,1.738,4.815,7.134,7.134,0,0,1-1.776,5.11,5.18,5.18,0,0,1-.9.773l3.849,2.661H30.8l-2.578-1.86A7.663,7.663,0,0,1,26,36.894Zm.114-12.244a4.489,4.489,0,0,0-3.5,1.5,5.674,5.674,0,0,0-1.346,3.94,5.768,5.768,0,0,0,1.308,3.932A4.371,4.371,0,0,0,26,35.5a4.579,4.579,0,0,0,3.552-1.418,5.663,5.663,0,0,0,1.3-3.968,5.884,5.884,0,0,0-1.261-4.042A4.4,4.4,0,0,0,26.116,24.65Z" fill="#fff"/>
        <path d="M42.33,36.673h-7.1v-13.2h1.6v11.8h5.5Z" fill="#fff"/>
      </g>
    </g>
  </g>
</svg>
