<svg xmlns="http://www.w3.org/2000/svg" viewBox="0 0 298 110">
  <title>8 - ownership-chains</title>
  <g id="background_blue" data-name="background blue">
    <rect y="0.128" width="298" height="110" fill="#e4edf1"/>
  </g>
  <g id="Shapes">
    <g>
      <path d="M94.3,53.076v8.787h28.519l-9.938,10.105,6.049,6.151,20.309-20.65L118.933,36.82l-6.049,6.151,9.938,10.105Z" fill="#cdcdd0"/>
      <path d="M166.605,53.667a13.7,13.7,0,0,1,13.905-14,13.992,13.992,0,0,1,13.9,14c0,4.666-1.854,8.4-5.1,10.733a11.143,11.143,0,0,1-7.879,3.267h-1.854A13.1,13.1,0,0,1,171.7,64.4,13.99,13.99,0,0,1,166.605,53.667ZM183.754,91H161.97a18.658,18.658,0,0,1,18.54-18.666,13.532,13.532,0,0,1,7.415,1.866A33.448,33.448,0,0,0,183.754,91Z" fill="#50e6ff"/>
      <path d="M261.157,67.667h-.927a10.907,10.907,0,0,1-7.416-3.267,11.3,11.3,0,0,1-3.244-7.934,11.587,11.587,0,1,1,23.174,0A13.289,13.289,0,0,1,269.5,64.4a10.907,10.907,0,0,1-7.416,3.267Zm-7.416,6.066a19.108,19.108,0,0,1,7.416-1.4A18.658,18.658,0,0,1,279.7,91H242.618a19.077,19.077,0,0,1,3.707-11.2h0a12.533,12.533,0,0,1,3.243-3.732A18.732,18.732,0,0,1,253.741,73.733Z" fill="#50e6ff"/>
      <path d="M200.44,71.867a11.227,11.227,0,0,0-2.781,3.733,18.931,18.931,0,0,0-2.317,4.2A28.353,28.353,0,0,0,193.024,91h40.324a26.522,26.522,0,0,1,7.879-19.133,27.885,27.885,0,0,0-40.787,0Z" fill="#0078d4"/>
      <path d="M210.173,55.067a22.117,22.117,0,0,0,9.27,3.266h2.781a22.112,22.112,0,0,0,9.27-3.266,18.757,18.757,0,0,0-2.781-32.2A21.7,21.7,0,0,0,220.834,21a16.288,16.288,0,0,0-7.88,1.867,18.029,18.029,0,0,0-10.66,16.8A18.8,18.8,0,0,0,210.173,55.067Z" fill="#0078d4"/>
      <path d="M45.421,58.49A18.876,18.876,0,0,0,64.165,39.745,18.3,18.3,0,0,0,53.036,22.757,15.417,15.417,0,0,0,45.421,21a16.227,16.227,0,0,0-7.616,1.757A18.66,18.66,0,0,0,45.421,58.49Z" fill="#243a5e"/>
      <path d="M45.42,62.883A28.124,28.124,0,0,0,17.3,91H73.538A28.125,28.125,0,0,0,45.42,62.883Z" fill="#243a5e"/>
    </g>
  </g>
</svg>
