<svg xmlns="http://www.w3.org/2000/svg" viewBox="0 0 298 110">
  <title>8 - pages-extents-architecture</title>
  <g id="background_blue" data-name="background blue">
    <rect width="298" height="110" fill="#e4edf1"/>
  </g>
  <g id="Shapes">
    <g opacity="0.35">
      <path d="M29.41,37.67a32.306,32.306,0,1,0,59.657,17.2H56.759Z" fill="#6ec2e9"/>
      <path d="M56.759,22.559V54.867H89.067A32.309,32.309,0,0,0,56.759,22.559Z" fill="#442359"/>
      <path d="M56.759,54.867V22.559a32.209,32.209,0,0,0-22.85,9.459Z" fill="#019e4a"/>
      <rect x="107.985" y="31.328" width="55.433" height="55.433" fill="#fff"/>
      <rect x="111.378" y="62.436" width="9.059" height="20.496" fill="#fdb813"/>
      <rect x="137.479" y="56.391" width="9.059" height="26.54" fill="#6ec2e9"/>
      <rect x="150.529" y="38.579" width="9.059" height="44.353" fill="#0a8b44"/>
      <rect x="124.43" y="53.099" width="9.058" height="29.831" fill="#442359"/>
      <rect x="184.776" y="48.452" width="18.43" height="5.391" fill="#ff8c00"/>
      <rect x="184.776" y="56.349" width="18.43" height="5.391" fill="#333"/>
      <rect x="184.776" y="64.245" width="18.43" height="5.391" fill="#00b294"/>
      <rect x="184.776" y="72.141" width="18.43" height="5.391" fill="#333"/>
      <rect x="254.672" y="34.385" width="18.43" height="5.391" fill="#ff8c00"/>
      <rect x="254.672" y="42.281" width="18.43" height="5.392" fill="#333"/>
      <rect x="254.672" y="68.194" width="18.43" height="5.392" fill="#00b294"/>
      <rect x="254.672" y="76.09" width="18.43" height="5.391" fill="#ff8c00"/>
      <rect x="221.598" y="48.464" width="18.431" height="5.392" fill="#ff8c00"/>
      <rect x="221.598" y="56.357" width="18.431" height="5.391" fill="#00b294"/>
      <rect x="221.598" y="64.25" width="18.431" height="5.391" fill="#ff8c00"/>
      <rect x="221.598" y="27.493" width="18.431" height="5.391" fill="#333"/>
      <rect x="221.598" y="72.141" width="18.431" height="5.391" fill="#333"/>
      <line x1="203.206" y1="48.452" x2="221.598" y2="32.884" fill="none" stroke="#333" stroke-miterlimit="10" stroke-width="0.456"/>
      <line x1="203.206" y1="56.349" x2="221.598" y2="61.748" fill="none" stroke="#333" stroke-miterlimit="10" stroke-width="0.456"/>
      <line x1="240.029" y1="56.357" x2="254.672" y2="47.672" fill="none" stroke="#333" stroke-miterlimit="10" stroke-width="0.456"/>
      <line x1="240.029" y1="53.856" x2="254.672" y2="34.385" fill="none" stroke="#333" stroke-miterlimit="10" stroke-width="0.456"/>
      <line x1="254.672" y1="73.585" x2="240.029" y2="64.25" fill="none" stroke="#333" stroke-miterlimit="10" stroke-width="0.456"/>
      <line x1="254.672" y1="81.481" x2="240.029" y2="72.141" fill="none" stroke="#333" stroke-miterlimit="10" stroke-width="0.456"/>
      <line x1="203.206" y1="64.245" x2="221.598" y2="69.64" fill="none" stroke="#333" stroke-miterlimit="10" stroke-width="0.456"/>
      <line x1="203.206" y1="77.532" x2="221.598" y2="72.141" fill="none" stroke="#333" stroke-miterlimit="10" stroke-width="0.456"/>
      <line x1="221.598" y1="53.856" x2="203.206" y2="53.843" fill="none" stroke="#333" stroke-miterlimit="10" stroke-width="0.456"/>
    </g>
    <g>
      <path d="M176.912,12.957H113.338v85h63.574a4.743,4.743,0,0,0,4.982-4.425V17.386A4.745,4.745,0,0,0,176.912,12.957ZM164.755,45.3H130.477V34.74h34.278Z" fill="#243a5e"/>
      <path d="M171.544,42.177l-9.032-5.312-9.035,5.312V12.957h18.067Z" fill="#50e6ff"/>
    </g>
  </g>
</svg>
