<svg xmlns="http://www.w3.org/2000/svg" xmlns:xlink="http://www.w3.org/1999/xlink" viewBox="0 0 50 50">
  <defs>
    <linearGradient id="linear-gradient" x1="15" y1="604.087" x2="15" y2="574.087" gradientTransform="matrix(1, 0, 0, -1, 0, 604.087)" gradientUnits="userSpaceOnUse">
      <stop offset="0" stop-color="#f05a28"/>
      <stop offset="1" stop-color="#ec008c"/>
    </linearGradient>
  </defs>
  <title>plural</title>
  <g id="Shapes">
    <g>
      <rect x="19.957" y="12.116" width="31.227" height="37.854" fill-opacity="0"/>
      <rect x="21.48" y="12.116" width="28.486" height="37.854" fill-opacity="0"/>
      <path d="M21.48,17.3V44.791c0,2.818,6.4,5.179,14.243,5.179V17.3Z" fill="#0072c6"/>
      <path d="M35.494,49.97h.229c7.921,0,14.243-2.285,14.243-5.179V17.3H35.494V49.97Z" fill="#0072c6"/>
      <path d="M35.494,49.97h.229c7.921,0,14.243-2.285,14.243-5.179V17.3H35.494V49.97Z" fill="#fff" opacity="0.15" style="isolation: isolate"/>
      <path d="M49.966,17.3c0,2.818-6.4,5.179-14.243,5.179S21.48,20.19,21.48,17.3c0-2.819,6.4-5.18,14.243-5.18S49.966,14.477,49.966,17.3Z" fill="#fff"/>
      <path d="M47.071,17.067c0,1.828-5.1,3.351-11.348,3.351S24.374,18.9,24.374,17.067c0-1.9,5.1-3.427,11.349-3.427S47.071,15.163,47.071,17.067Z" fill="#7fba00"/>
      <path d="M44.71,19.123c1.524-.609,2.361-1.294,2.361-2.056,0-1.9-5.1-3.427-11.348-3.427s-11.349,1.523-11.349,3.427c0,.762.914,1.523,2.362,2.056a25.834,25.834,0,0,1,8.987-1.294A24.15,24.15,0,0,1,44.71,19.123Z" fill="#b8d432"/>
      <rect x="19.957" y="25.064" width="31.227" height="16.756" fill-opacity="0"/>
      <path d="M25.658,36.944V35.159a3.468,3.468,0,0,0,1.054.613,3.425,3.425,0,0,0,1.149.2,2.5,2.5,0,0,0,.591-.061,1.4,1.4,0,0,0,.424-.167.768.768,0,0,0,.257-.257.655.655,0,0,0,.084-.324.7.7,0,0,0-.134-.418,1.415,1.415,0,0,0-.368-.34,3.658,3.658,0,0,0-.547-.3c-.212-.1-.441-.2-.686-.3a3.533,3.533,0,0,1-1.4-.954,2.093,2.093,0,0,1-.458-1.361,2.153,2.153,0,0,1,.251-1.071,2.125,2.125,0,0,1,.681-.742,3.037,3.037,0,0,1,1-.424,5.044,5.044,0,0,1,1.205-.14,6.938,6.938,0,0,1,1.1.078,4.272,4.272,0,0,1,.893.229v1.668a2.6,2.6,0,0,0-.441-.245,3.04,3.04,0,0,0-.485-.173,3.326,3.326,0,0,0-.5-.106,3.374,3.374,0,0,0-.469-.034,2.354,2.354,0,0,0-.558.062,1.4,1.4,0,0,0-.424.161.813.813,0,0,0-.267.257.582.582,0,0,0-.095.329.646.646,0,0,0,.106.363,1.3,1.3,0,0,0,.3.3,3.54,3.54,0,0,0,.474.279q.279.133.631.279a6.738,6.738,0,0,1,.859.429,2.977,2.977,0,0,1,.658.508,1.972,1.972,0,0,1,.418.653,2.582,2.582,0,0,1-.111,1.974,2.072,2.072,0,0,1-.686.737,3.005,3.005,0,0,1-1.016.4,5.8,5.8,0,0,1-1.216.123,6.854,6.854,0,0,1-1.255-.111A3.792,3.792,0,0,1,25.658,36.944Zm10.152.446a3.729,3.729,0,0,1-2.8-1.116,4.037,4.037,0,0,1-1.082-2.917,4.312,4.312,0,0,1,1.1-3.068,3.793,3.793,0,0,1,2.912-1.172,3.622,3.622,0,0,1,2.767,1.122,4.116,4.116,0,0,1,1.06,2.956,4.241,4.241,0,0,1-1.1,3.04c-.026.026-.051.052-.073.078a.933.933,0,0,1-.072.067l2.025,1.947H38.025l-1.06-1.076A4.482,4.482,0,0,1,35.81,37.39Zm.079-6.722a1.822,1.822,0,0,0-1.507.714,2.952,2.952,0,0,0-.557,1.88,2.91,2.91,0,0,0,.557,1.88,1.927,1.927,0,0,0,2.94.022,2.9,2.9,0,0,0,.547-1.868,3.137,3.137,0,0,0-.53-1.936A1.719,1.719,0,0,0,35.889,30.668Zm9.974,6.583H41.1v-8h1.8v6.538h2.962Z" fill="#fff"/>
    </g>
    <g id="use4187">
      <path d="M0,15A15,15,0,1,0,15,0,15,15,0,0,0,0,15" fill="url(#linear-gradient)"/>
      <path d="M11.129,6.774l.034,16.452L24.194,15Zm1.452,2.632L21.474,15l-8.893,5.6Z" fill="#fff"/>
      <path d="M8.226,8.71V21.29L18.871,15Zm1.451,2.545L16.016,15,9.677,18.745Z" fill="#fff"/>
    </g>
  </g>
</svg>
