<svg xmlns="http://www.w3.org/2000/svg" viewBox="0 0 298 110">
  <title>8 - query-process-arch</title>
  <g id="background_blue" data-name="background blue">
    <rect width="298" height="110" fill="#e4edf1"/>
  </g>
  <g id="Shapes">
    <g>
      <g>
        <g>
          <path d="M95.817,15.858H43.886v70H95.817a3.886,3.886,0,0,0,4.069-3.644V19.505A3.889,3.889,0,0,0,95.817,15.858ZM85.886,42.5h-28V33.8h28Z" fill="#59b4d9"/>
          <polygon points="91.432 39.922 84.054 35.547 76.674 39.922 76.674 15.858 91.432 15.858 91.432 39.922" fill="#5e5e5e"/>
        </g>
        <g>
          <rect x="90.886" y="48.022" width="41.247" height="50" fill-opacity="0"/>
          <rect x="92.898" y="48.022" width="37.626" height="50" fill-opacity="0"/>
          <path d="M92.9,54.863V91.181c0,3.722,8.451,6.841,18.813,6.841V54.863Z" fill="#0072c6"/>
          <path d="M111.409,98.022h.3c10.463,0,18.813-3.019,18.813-6.841V54.863H111.409V98.022Z" fill="#0072c6"/>
          <path d="M111.409,98.022h.3c10.463,0,18.813-3.019,18.813-6.841V54.863H111.409V98.022Z" fill="#fff" opacity="0.15" style="isolation: isolate"/>
          <path d="M130.524,54.863c0,3.722-8.451,6.841-18.813,6.841S92.9,58.686,92.9,54.863c0-3.723,8.451-6.841,18.813-6.841S130.524,51.14,130.524,54.863Z" fill="#fff"/>
          <path d="M126.7,54.561c0,2.414-6.741,4.426-14.99,4.426s-14.99-2.012-14.99-4.426c0-2.515,6.74-4.527,14.99-4.527S126.7,52.046,126.7,54.561Z" fill="#7fba00"/>
          <path d="M123.582,57.277c2.012-.8,3.119-1.71,3.119-2.716,0-2.515-6.741-4.527-14.99-4.527s-14.99,2.012-14.99,4.527c0,1.006,1.207,2.012,3.119,2.716,2.716-1.107,7.042-1.71,11.871-1.71A31.859,31.859,0,0,1,123.582,57.277Z" fill="#b8d432"/>
          <rect x="90.886" y="65.124" width="41.247" height="22.133" fill-opacity="0"/>
          <path d="M98.416,80.816V78.458a4.606,4.606,0,0,0,1.393.81,4.526,4.526,0,0,0,1.517.265,3.327,3.327,0,0,0,.782-.081,1.831,1.831,0,0,0,.559-.221,1,1,0,0,0,.339-.339.861.861,0,0,0,.111-.427.919.919,0,0,0-.177-.553,1.878,1.878,0,0,0-.486-.449,4.874,4.874,0,0,0-.722-.4q-.42-.192-.907-.39a4.655,4.655,0,0,1-1.849-1.261,2.759,2.759,0,0,1-.6-1.8,2.745,2.745,0,0,1,1.23-2.4,4.026,4.026,0,0,1,1.327-.56,6.651,6.651,0,0,1,1.591-.184,9.139,9.139,0,0,1,1.459.1,5.587,5.587,0,0,1,1.179.3v2.2a3.467,3.467,0,0,0-.582-.324,4.071,4.071,0,0,0-.641-.229,4.746,4.746,0,0,0-.663-.14,4.668,4.668,0,0,0-.619-.044,3.11,3.11,0,0,0-.737.081,1.828,1.828,0,0,0-.56.214,1.068,1.068,0,0,0-.354.339.782.782,0,0,0-.125.435.861.861,0,0,0,.14.479,1.68,1.68,0,0,0,.4.4,4.735,4.735,0,0,0,.626.369q.369.177.833.368a8.7,8.7,0,0,1,1.135.568,3.951,3.951,0,0,1,.869.67,2.624,2.624,0,0,1,.553.862,3.414,3.414,0,0,1-.148,2.609,2.723,2.723,0,0,1-.906.972,3.981,3.981,0,0,1-1.341.531,7.678,7.678,0,0,1-1.606.162,9.028,9.028,0,0,1-1.658-.147A5.034,5.034,0,0,1,98.416,80.816Zm13.41.589a4.919,4.919,0,0,1-3.7-1.474,5.331,5.331,0,0,1-1.43-3.853,5.7,5.7,0,0,1,1.452-4.053A5.008,5.008,0,0,1,112,70.478a4.783,4.783,0,0,1,3.655,1.481,5.436,5.436,0,0,1,1.4,3.905A5.6,5.6,0,0,1,115.6,79.88c-.034.034-.066.069-.1.1s-.061.059-.095.088l2.674,2.572h-3.33l-1.4-1.422A5.921,5.921,0,0,1,111.826,81.405Zm.1-8.879a2.4,2.4,0,0,0-1.99.943,3.9,3.9,0,0,0-.737,2.483,3.844,3.844,0,0,0,.737,2.483,2.359,2.359,0,0,0,1.931.914,2.386,2.386,0,0,0,1.952-.884A3.832,3.832,0,0,0,114.545,76a4.138,4.138,0,0,0-.7-2.557A2.269,2.269,0,0,0,111.93,72.526Zm13.174,8.7h-6.292V70.655h2.38V79.29H125.1Z" fill="#fff"/>
        </g>
      </g>
      <g>
        <g>
          <path d="M207.839,75.548a1.871,1.871,0,0,1-1.889,1.89H187.587a1.871,1.871,0,0,1-1.889-1.89V41.543a1.87,1.87,0,0,1,1.889-1.889H205.95a1.87,1.87,0,0,1,1.889,1.889Z" fill="#3e3e3e"/>
          <path d="M188.872,60.057a2.387,2.387,0,0,1,2.418-2.418h11.033a2.387,2.387,0,0,1,2.418,2.418h0a2.387,2.387,0,0,1-2.418,2.418H191.29a2.435,2.435,0,0,1-2.418-2.418Z" fill="#1e1e1e"/>
          <circle cx="191.441" cy="60.057" r="1.587" fill="#b8d432"/>
          <path d="M188.872,52.878a2.387,2.387,0,0,1,2.418-2.418h11.033a2.387,2.387,0,0,1,2.418,2.418h0a2.387,2.387,0,0,1-2.418,2.419H191.29a2.435,2.435,0,0,1-2.418-2.419Z" fill="#1e1e1e"/>
          <circle cx="191.441" cy="52.878" r="1.587" fill="#b8d432"/>
          <path d="M188.872,45.775a2.387,2.387,0,0,1,2.418-2.418h11.033a2.387,2.387,0,0,1,2.418,2.418h0a2.387,2.387,0,0,1-2.418,2.418H191.29a2.486,2.486,0,0,1-2.418-2.418Z" fill="#1e1e1e"/>
          <circle cx="191.441" cy="45.775" r="1.587" fill="#b8d432"/>
        </g>
        <g>
          <path d="M213.658,76.51a.919.919,0,0,0,.879.928h22.6a.927.927,0,0,0,.928-.928V60.352H213.658Z" fill="#a0a1a2"/>
          <path d="M237.138,56.5h-22.6a.918.918,0,0,0-.879.927v2.929h24.408V57.423c0-.488-.391-.781-.928-.781" fill="#7a7a7a"/>
          <rect x="215.611" y="66.942" width="20.503" height="3.417" fill="#b8d432"/>
          <rect x="215.611" y="61.817" width="20.503" height="3.417" fill="#fff"/>
          <rect x="215.611" y="72.068" width="20.503" height="3.417" fill="#b8d432"/>
          <path d="M214.634,56.447a.979.979,0,0,0-.976.976V76.266a.979.979,0,0,0,.976.976h1.074l19.234-20.795Z" fill="#fff" opacity="0.2" style="isolation: isolate"/>
        </g>
        <g>
          <path d="M213.487,52.154a.924.924,0,0,0,.884.934h22.761a.933.933,0,0,0,.934-.934V35.883H213.487Z" fill="#a0a1a2"/>
          <path d="M237.132,32.1H214.371a.924.924,0,0,0-.884.934v2.8h24.579v-2.8a.933.933,0,0,0-.934-.934" fill="#7a7a7a"/>
          <rect x="215.305" y="37.554" width="5.899" height="13.666" fill="#804998"/>
          <rect x="222.827" y="37.554" width="5.899" height="13.666" fill="#804998"/>
          <rect x="230.348" y="37.554" width="5.899" height="13.666" fill="#804998"/>
          <path d="M214.47,32.1a.985.985,0,0,0-.983.983V52.056a.985.985,0,0,0,.983.983h1.081L234.92,32.1Z" fill="#fff" opacity="0.2" style="isolation: isolate"/>
        </g>
      </g>
      <circle cx="212.566" cy="55.51" r="42" fill="none" stroke="#75757a" stroke-miterlimit="10" stroke-dasharray="1 2"/>
      <g>
        <path d="M176.838,47.28a10.363,10.363,0,0,1-10.058,7.9,9.093,9.093,0,0,1-2.515-.359,10.763,10.763,0,0,1-3.353-1.556,11.037,11.037,0,0,1-2.634-2.635,10.478,10.478,0,0,1-1.556-8.262,10.362,10.362,0,0,1,10.058-7.9,9.092,9.092,0,0,1,2.514.359,10.431,10.431,0,0,1,6.346,4.67,9.871,9.871,0,0,1,1.2,7.783" fill="#fff"/>
        <path d="M176.838,47.28a10.363,10.363,0,0,1-10.058,7.9,9.093,9.093,0,0,1-2.515-.359,10.763,10.763,0,0,1-3.353-1.556,11.037,11.037,0,0,1-2.634-2.635,10.478,10.478,0,0,1-1.556-8.262,10.362,10.362,0,0,1,10.058-7.9,9.092,9.092,0,0,1,2.514.359,10.431,10.431,0,0,1,6.346,4.67,9.871,9.871,0,0,1,1.2,7.783" fill="#59b4d9" opacity="0.1" style="isolation: isolate"/>
        <path d="M172.407,36.144a10.138,10.138,0,0,0-3.113-1.317,9.092,9.092,0,0,0-2.514-.359,10.362,10.362,0,0,0-10.058,7.9,9.936,9.936,0,0,0,1.556,8.262,8.39,8.39,0,0,0,.958,1.2,26.783,26.783,0,0,1,13.171-15.686" fill="#59b4d9" opacity="0.3" style="isolation: isolate"/>
        <path d="M179.472,37.222a14.793,14.793,0,0,0-9.1-6.706,18.531,18.531,0,0,0-3.592-.479,14.851,14.851,0,0,0-14.369,11.256,14.488,14.488,0,0,0,1.557,10.9L142.712,63.564a3.906,3.906,0,0,0,0,5.388,4.057,4.057,0,0,0,5.508,0l11.256-11.375a15.123,15.123,0,0,0,3.831,1.557,18.531,18.531,0,0,0,3.592.479,14.852,14.852,0,0,0,14.369-11.256A15.105,15.105,0,0,0,179.472,37.222ZM176.838,47.28a10.363,10.363,0,0,1-10.058,7.9,9.093,9.093,0,0,1-2.515-.359,10.763,10.763,0,0,1-3.353-1.556,11.037,11.037,0,0,1-2.634-2.635,10.478,10.478,0,0,1-1.556-8.262,10.362,10.362,0,0,1,10.058-7.9,9.092,9.092,0,0,1,2.514.359,10.431,10.431,0,0,1,6.346,4.67A9.946,9.946,0,0,1,176.838,47.28Z" fill="#3e3e3e"/>
        <path d="M158.4,56.978a14.575,14.575,0,0,1-3.832-3.831c-.239-.359-.359-.6-.6-.958l-.958,1.078-.12.119a2.5,2.5,0,0,0,.479.719,17.894,17.894,0,0,0,4.191,4.31,2.85,2.85,0,0,0,.838.36l1.078-1.078C159,57.338,158.757,57.218,158.4,56.978Z" fill="#1e1e1e" opacity="0.5" style="isolation: isolate"/>
      </g>
    </g>
  </g>
</svg>
