<svg xmlns="http://www.w3.org/2000/svg" xmlns:xlink="http://www.w3.org/1999/xlink" viewBox="0 0 298 110">
  <defs>
    <symbol id="IZ_Certificate" data-name="IZ_Certificate" viewBox="0 0 50 42.143">
      <path d="M50,33.571a3.571,3.571,0,0,1-3.571,3.571H3.571A3.57,3.57,0,0,1,0,33.571v-30A3.571,3.571,0,0,1,3.571,0H46.428A3.571,3.571,0,0,1,50,3.571Z" fill="#fcd116"/>
      <rect x="4.286" y="4.286" width="41.429" height="28.571" fill="#fff"/>
      <circle cx="12.143" cy="26.429" r="5.714" fill="#dd5900"/>
      <circle cx="12.143" cy="26.429" r="4.286" fill="#ff8c00"/>
      <path d="M12.143,30.714a6.4,6.4,0,0,1-4.317-1.679L7.148,42.066l4.923-4.923,5,5,.072-.714L16.46,29.035A6.4,6.4,0,0,1,12.143,30.714Z" fill="#dd5900"/>
      <path d="M40.962,25.085a.8.8,0,0,1-.8.8H22.227a.8.8,0,1,1,0-1.6H40.163a.8.8,0,0,1,.8.8" fill="#7a7a7a"/>
      <path d="M40.962,20.714a.8.8,0,0,1-.8.8H22.227a.8.8,0,0,1,0-1.6H40.163a.8.8,0,0,1,.8.8" fill="#7a7a7a"/>
      <path d="M40.962,14.286a.8.8,0,0,1-.8.8H10.084a.8.8,0,0,1,0-1.6H40.162a.8.8,0,0,1,.8.8" fill="#7a7a7a"/>
    </symbol>
  </defs>
  <title>8 - sign-stored-procedures</title>
  <g id="background_blue" data-name="background blue">
    <rect x="0.062" width="298" height="110" fill="#e4edf1"/>
  </g>
  <g id="Shapes">
    <g>
      <g>
        <rect x="83.44" y="13.609" width="70.121" height="85" fill-opacity="0"/>
        <rect x="86.86" y="13.609" width="63.964" height="85" fill-opacity="0"/>
        <path d="M86.86,25.239v61.74c0,6.328,14.366,11.63,31.982,11.63V25.239Z" fill="#0072c6"/>
        <path d="M118.329,98.609h.513c17.787,0,31.982-5.131,31.982-11.63V25.239h-32.5v73.37Z" fill="#0072c6"/>
        <path d="M118.329,98.609h.513c17.787,0,31.982-5.131,31.982-11.63V25.239h-32.5v73.37Z" fill="#fff" opacity="0.15" style="isolation: isolate"/>
        <path d="M150.824,25.239c0,6.328-14.366,11.63-31.982,11.63S86.86,31.738,86.86,25.239c0-6.328,14.366-11.63,31.982-11.63S150.824,18.911,150.824,25.239Z" fill="#fff"/>
        <path d="M144.325,24.726c0,4.1-11.459,7.525-25.483,7.525S93.359,28.83,93.359,24.726c0-4.276,11.459-7.7,25.483-7.7S144.325,20.45,144.325,24.726Z" fill="#7fba00"/>
        <path d="M139.023,29.344c3.421-1.369,5.3-2.908,5.3-4.618,0-4.276-11.459-7.7-25.483-7.7s-25.483,3.42-25.483,7.7c0,1.71,2.052,3.42,5.3,4.618,4.618-1.882,11.972-2.908,20.181-2.908C127.051,26.265,134.405,27.462,139.023,29.344Z" fill="#b8d432"/>
        <rect x="83.44" y="42.684" width="70.121" height="37.626" fill-opacity="0"/>
        <path d="M96.241,69.359V65.35a7.789,7.789,0,0,0,2.367,1.378,7.7,7.7,0,0,0,2.581.451,5.681,5.681,0,0,0,1.327-.137,3.151,3.151,0,0,0,.952-.376,1.726,1.726,0,0,0,.577-.577,1.471,1.471,0,0,0,.187-.726,1.561,1.561,0,0,0-.3-.94,3.219,3.219,0,0,0-.827-.764,8.21,8.21,0,0,0-1.227-.676q-.716-.325-1.541-.664a7.907,7.907,0,0,1-3.144-2.142,4.692,4.692,0,0,1-1.027-3.056,4.669,4.669,0,0,1,2.091-4.071,6.836,6.836,0,0,1,2.255-.952,11.325,11.325,0,0,1,2.706-.314,15.565,15.565,0,0,1,2.48.176,9.506,9.506,0,0,1,2,.513v3.746a5.843,5.843,0,0,0-.989-.551,6.991,6.991,0,0,0-1.09-.389,8.062,8.062,0,0,0-2.18-.313,5.269,5.269,0,0,0-1.252.138,3.08,3.08,0,0,0-.952.363,1.809,1.809,0,0,0-.6.576,1.317,1.317,0,0,0-.214.74,1.461,1.461,0,0,0,.238.814,2.905,2.905,0,0,0,.677.676,7.839,7.839,0,0,0,1.065.626q.626.3,1.415.627a14.812,14.812,0,0,1,1.929.964,6.669,6.669,0,0,1,1.478,1.14,4.456,4.456,0,0,1,.94,1.466,5.8,5.8,0,0,1-.251,4.434,4.633,4.633,0,0,1-1.541,1.653,6.759,6.759,0,0,1-2.279.9,13.035,13.035,0,0,1-2.731.276,15.316,15.316,0,0,1-2.818-.251A8.479,8.479,0,0,1,96.241,69.359Zm22.8,1a8.375,8.375,0,0,1-6.289-2.505,9.067,9.067,0,0,1-2.43-6.552,9.689,9.689,0,0,1,2.468-6.889,8.518,8.518,0,0,1,6.539-2.631A8.137,8.137,0,0,1,125.54,54.3a9.243,9.243,0,0,1,2.38,6.639,9.522,9.522,0,0,1-2.468,6.827c-.058.059-.113.117-.163.175s-.1.1-.163.151l4.547,4.371h-5.662l-2.38-2.417A10.057,10.057,0,0,1,119.039,70.361Zm.175-15.094a4.087,4.087,0,0,0-3.382,1.6,6.635,6.635,0,0,0-1.253,4.222,6.538,6.538,0,0,0,1.253,4.221,4.015,4.015,0,0,0,3.282,1.553,4.06,4.06,0,0,0,3.319-1.5,6.52,6.52,0,0,0,1.228-4.2,7.042,7.042,0,0,0-1.19-4.347A3.861,3.861,0,0,0,119.214,55.267Zm22.4,14.781h-10.7V52.085h4.046V66.766h6.651Z" fill="#fff"/>
      </g>
      <use width="50" height="42.143" transform="translate(163.335 33.109) scale(1.068)" xlink:href="#IZ_Certificate"/>
    </g>
  </g>
</svg>
