<svg xmlns="http://www.w3.org/2000/svg" viewBox="0 0 298 110">
  <title>8 - sql-mgmt-studio</title>
  <g id="background_blue" data-name="background blue">
    <rect x="-0.037" y="0.128" width="298" height="110" fill="#e4edf1"/>
  </g>
  <g id="Shapes">
    <g>
      <g>
        <path d="M158.83,75.434H134.549c2.857,10.177-1.071,11.784-18.211,11.784v5.356h58.2V87.218C157.581,87.218,155.974,85.789,158.83,75.434Z" fill="#7a7a7a"/>
        <path d="M184.9,10.446H105.805a4.955,4.955,0,0,0-4.821,5v54.99a4.955,4.955,0,0,0,4.821,5H184.9c2.678,0,5.356-2.321,5.356-5V15.445C190.253,12.767,187.575,10.446,184.9,10.446Zm-1.428,6.784V68.471h-75.7V17.23l75.7-.178Z" fill="#3e3e3e"/>
        <polygon points="183.29 17.23 183.29 68.65 107.768 68.65 107.768 17.23 183.469 17.23 183.29 17.23" fill="#00bbf1"/>
        <path d="M107.768,68.65h0V17.23h69.1l8.034-6.784H105.805a4.955,4.955,0,0,0-4.821,5v54.99a4.955,4.955,0,0,0,4.821,5h1.963l8.213-6.784Z" fill="#7a7a7a"/>
        <polygon points="107.768 68.65 107.768 68.65 107.768 17.23 176.863 17.23 176.863 17.23 107.768 17.23 107.768 68.65" fill="#59b4d9"/>
        <rect x="116.517" y="87.218" width="58.382" height="5.356" fill="#b0b0b0"/>
      </g>
      <g>
        <path d="M118.479,89.237a3.3,3.3,0,0,1-3.337,3.337H82.712a3.3,3.3,0,0,1-3.336-3.337V29.181a3.3,3.3,0,0,1,3.336-3.336h32.43a3.3,3.3,0,0,1,3.337,3.336Z" fill="#3e3e3e"/>
        <path d="M84.981,61.878a4.215,4.215,0,0,1,4.271-4.27h19.484a4.215,4.215,0,0,1,4.271,4.27h0a4.216,4.216,0,0,1-4.271,4.271H89.252a4.3,4.3,0,0,1-4.271-4.271Z" fill="#1e1e1e"/>
        <circle cx="89.519" cy="61.878" r="2.803" fill="#b8d432"/>
        <path d="M84.981,49.2a4.216,4.216,0,0,1,4.271-4.271h19.484a4.216,4.216,0,0,1,4.271,4.271h0a4.216,4.216,0,0,1-4.271,4.271H89.252A4.3,4.3,0,0,1,84.981,49.2Z" fill="#1e1e1e"/>
        <circle cx="89.519" cy="49.2" r="2.803" fill="#b8d432"/>
        <path d="M84.981,36.655a4.216,4.216,0,0,1,4.271-4.271h19.484a4.216,4.216,0,0,1,4.271,4.271h0a4.216,4.216,0,0,1-4.271,4.271H89.252a4.391,4.391,0,0,1-4.271-4.271Z" fill="#1e1e1e"/>
        <circle cx="89.519" cy="36.655" r="2.803" fill="#b8d432"/>
      </g>
      <g>
        <rect x="169.033" y="38.85" width="50.813" height="61.596" fill-opacity="0"/>
        <rect x="171.512" y="38.85" width="46.352" height="61.596" fill-opacity="0"/>
        <path d="M171.512,47.278v44.74c0,4.586,10.41,8.428,23.176,8.428V47.278Z" fill="#0072c6"/>
        <path d="M194.316,100.446h.372c12.889,0,23.176-3.718,23.176-8.428V47.278H194.316v53.168Z" fill="#0072c6"/>
        <path d="M194.316,100.446h.372c12.889,0,23.176-3.718,23.176-8.428V47.278H194.316v53.168Z" fill="#fff" opacity="0.15" style="isolation: isolate"/>
        <path d="M217.864,47.278c0,4.585-10.411,8.427-23.176,8.427s-23.176-3.718-23.176-8.427c0-4.586,10.41-8.428,23.176-8.428S217.864,42.692,217.864,47.278Z" fill="#fff"/>
        <path d="M213.154,46.906c0,2.974-8.3,5.453-18.466,5.453s-18.467-2.479-18.467-5.453c0-3.1,8.3-5.577,18.467-5.577S213.154,43.808,213.154,46.906Z" fill="#7fba00"/>
        <path d="M209.312,50.252c2.479-.991,3.842-2.107,3.842-3.346,0-3.1-8.3-5.577-18.466-5.577s-18.467,2.479-18.467,5.577c0,1.239,1.488,2.479,3.842,3.346,3.347-1.363,8.676-2.107,14.625-2.107C200.637,48.021,205.966,48.889,209.312,50.252Z" fill="#b8d432"/>
        <rect x="169.033" y="59.919" width="50.813" height="27.266" fill-opacity="0"/>
        <path d="M178.309,79.25V76.345a5.664,5.664,0,0,0,1.716,1,5.581,5.581,0,0,0,1.87.327,4.062,4.062,0,0,0,.962-.1,2.263,2.263,0,0,0,.69-.272,1.244,1.244,0,0,0,.418-.418,1.071,1.071,0,0,0,.136-.526,1.132,1.132,0,0,0-.218-.681,2.322,2.322,0,0,0-.6-.554,6.088,6.088,0,0,0-.89-.49q-.517-.236-1.116-.481A5.74,5.74,0,0,1,179,72.6a3.4,3.4,0,0,1-.744-2.215,3.381,3.381,0,0,1,1.516-2.95,4.959,4.959,0,0,1,1.634-.69,8.225,8.225,0,0,1,1.96-.227,11.39,11.39,0,0,1,1.8.127,6.946,6.946,0,0,1,1.452.372v2.715a4.266,4.266,0,0,0-.717-.4,5.008,5.008,0,0,0-.79-.281,5.8,5.8,0,0,0-1.579-.227,3.808,3.808,0,0,0-.908.1,2.243,2.243,0,0,0-.69.263,1.32,1.32,0,0,0-.435.417.959.959,0,0,0-.155.536,1.052,1.052,0,0,0,.173.59,2.083,2.083,0,0,0,.49.49,5.78,5.78,0,0,0,.772.454q.453.217,1.025.454a10.708,10.708,0,0,1,1.4.7,4.8,4.8,0,0,1,1.071.826,3.209,3.209,0,0,1,.681,1.062,4.2,4.2,0,0,1-.182,3.213,3.355,3.355,0,0,1-1.116,1.2,4.909,4.909,0,0,1-1.652.654,9.464,9.464,0,0,1-1.979.2,11.1,11.1,0,0,1-2.042-.182A6.153,6.153,0,0,1,178.309,79.25Zm16.521.726a6.065,6.065,0,0,1-4.557-1.816,6.569,6.569,0,0,1-1.761-4.747A7.023,7.023,0,0,1,190.3,68.42a6.178,6.178,0,0,1,4.739-1.906,5.891,5.891,0,0,1,4.5,1.825,6.7,6.7,0,0,1,1.725,4.811,6.9,6.9,0,0,1-1.788,4.947c-.043.042-.082.085-.118.127s-.076.072-.118.109l3.3,3.168h-4.1l-1.725-1.752A7.314,7.314,0,0,1,194.83,79.976Zm.127-10.938a2.964,2.964,0,0,0-2.451,1.162,4.805,4.805,0,0,0-.907,3.059,4.739,4.739,0,0,0,.907,3.059,2.909,2.909,0,0,0,2.379,1.125,2.943,2.943,0,0,0,2.405-1.089,4.727,4.727,0,0,0,.89-3.041,5.1,5.1,0,0,0-.863-3.15A2.8,2.8,0,0,0,194.957,69.038Zm16.23,10.711h-7.752V66.732h2.932V77.371h4.82Z" fill="#fff"/>
      </g>
    </g>
  </g>
</svg>
