<svg xmlns="http://www.w3.org/2000/svg" viewBox="0 0 50 50">
  <title>sql-iaas-quickstart</title>
  <g id="Shapes">
    <g>
      <path d="M16.854,45.581h-6.5c.765,2.726-.287,3.156-4.878,3.156v1.435H21.062V48.737C16.519,48.737,16.088,48.355,16.854,45.581Z" fill="#7a7a7a"/>
      <path d="M23.836,28.172H2.649a1.328,1.328,0,0,0-1.291,1.339V44.242a1.328,1.328,0,0,0,1.291,1.339H23.836a1.456,1.456,0,0,0,1.435-1.339V29.511A1.456,1.456,0,0,0,23.836,28.172Zm-.382,1.817V43.715H3.175V29.989l20.279-.047Z" fill="#3e3e3e"/>
      <polygon points="23.406 29.989 23.406 43.763 3.175 43.763 3.175 29.989 23.454 29.989 23.406 29.989" fill="#00bbf1"/>
      <path d="M3.175,43.763h0V29.989H21.684l2.152-1.817H2.649a1.328,1.328,0,0,0-1.291,1.339V44.242a1.328,1.328,0,0,0,1.291,1.339h.526l2.2-1.818Z" fill="#7a7a7a"/>
      <polygon points="3.175 43.763 3.175 43.763 3.175 29.989 21.684 29.989 21.684 29.989 3.175 29.989 3.175 43.763" fill="#59b4d9"/>
      <rect x="5.519" y="48.737" width="15.639" height="1.435" fill="#b0b0b0"/>
      <circle cx="13.219" cy="29.176" r="0.335" fill="#bac84a"/>
      <path d="M13.314,36.637h-.047L9.058,34.2c-.048,0-.048-.048-.048-.1a.167.167,0,0,1,.048-.095l4.161-2.392h.143l4.209,2.44c.048,0,.048.047.048.095s0,.1-.048.1L13.41,36.637Z" fill="#fff" opacity="0.9" style="isolation: isolate"/>
      <path d="M12.693,42.52h-.048L8.436,40.128c-.048,0-.048-.047-.048-.095V35.155c0-.048,0-.1.048-.1H8.58l4.208,2.391c.048,0,.048.048.048.1v4.83a.168.168,0,0,1-.048.1C12.741,42.52,12.741,42.52,12.693,42.52Z" fill="#fff" opacity="0.8" style="isolation: isolate"/>
      <path d="M13.888,42.52h-.047c-.048,0-.048-.048-.048-.1v-4.83a.168.168,0,0,1,.048-.1l4.208-2.391h.144c.048,0,.048.048.048.095v4.831a.163.163,0,0,1-.048.095L13.984,42.52Z" fill="#fff" opacity="0.5" style="isolation: isolate"/>
    </g>
    <g>
      <rect x="28.356" y="25" width="20.624" height="25" fill-opacity="0"/>
      <rect x="29.362" y="25" width="18.813" height="25" fill-opacity="0"/>
      <path d="M29.362,28.421V46.579c0,1.862,4.226,3.421,9.407,3.421V28.421Z" fill="#0072c6"/>
      <path d="M38.618,50h.151c5.231,0,9.406-1.509,9.406-3.421V28.421H38.618V50Z" fill="#0072c6"/>
      <path d="M38.618,50h.151c5.231,0,9.406-1.509,9.406-3.421V28.421H38.618V50Z" fill="#fff" opacity="0.15" style="isolation: isolate"/>
      <path d="M48.175,28.421c0,1.861-4.225,3.42-9.406,3.42s-9.407-1.509-9.407-3.42c0-1.862,4.226-3.421,9.407-3.421S48.175,26.559,48.175,28.421Z" fill="#fff"/>
      <path d="M46.264,28.27c0,1.207-3.37,2.213-7.5,2.213s-7.495-1.006-7.495-2.213c0-1.258,3.37-2.264,7.495-2.264S46.264,27.012,46.264,28.27Z" fill="#7fba00"/>
      <path d="M44.705,29.628c1.006-.4,1.559-.855,1.559-1.358,0-1.258-3.37-2.264-7.5-2.264s-7.495,1.006-7.495,2.264c0,.5.6,1.006,1.559,1.358a17.035,17.035,0,0,1,5.936-.855A15.917,15.917,0,0,1,44.705,29.628Z" fill="#b8d432"/>
      <rect x="28.356" y="33.551" width="20.624" height="11.066" fill-opacity="0"/>
      <path d="M32.121,41.4V40.218a2.305,2.305,0,0,0,.7.4,2.248,2.248,0,0,0,.759.133,1.649,1.649,0,0,0,.39-.041.909.909,0,0,0,.28-.11.51.51,0,0,0,.17-.17.428.428,0,0,0,.055-.213.466.466,0,0,0-.088-.277.919.919,0,0,0-.244-.224,2.387,2.387,0,0,0-.361-.2q-.21-.1-.453-.2a2.317,2.317,0,0,1-.925-.63,1.381,1.381,0,0,1-.3-.9,1.427,1.427,0,0,1,.166-.707,1.409,1.409,0,0,1,.45-.49,2,2,0,0,1,.663-.28,3.353,3.353,0,0,1,.8-.092,4.5,4.5,0,0,1,.729.052,2.773,2.773,0,0,1,.589.151v1.1a1.765,1.765,0,0,0-.291-.162,2,2,0,0,0-.32-.114,2.31,2.31,0,0,0-.332-.07,2.246,2.246,0,0,0-.309-.022,1.563,1.563,0,0,0-.369.04.929.929,0,0,0-.28.107.522.522,0,0,0-.176.17.386.386,0,0,0-.063.217.424.424,0,0,0,.07.239.832.832,0,0,0,.2.2,2.334,2.334,0,0,0,.313.185c.123.059.262.12.416.184a4.233,4.233,0,0,1,.568.284,1.991,1.991,0,0,1,.435.335,1.314,1.314,0,0,1,.276.431,1.7,1.7,0,0,1-.074,1.3,1.353,1.353,0,0,1-.453.486,1.994,1.994,0,0,1-.671.266,3.835,3.835,0,0,1-.8.081,4.517,4.517,0,0,1-.829-.074A2.511,2.511,0,0,1,32.121,41.4Zm6.706.3a2.465,2.465,0,0,1-1.85-.737,2.669,2.669,0,0,1-.714-1.927A2.847,2.847,0,0,1,36.988,37a2.507,2.507,0,0,1,1.923-.774,2.392,2.392,0,0,1,1.828.741,2.72,2.72,0,0,1,.7,1.952,2.8,2.8,0,0,1-.726,2.008c-.017.017-.033.034-.048.052l-.048.044,1.338,1.286H40.289l-.7-.711A2.98,2.98,0,0,1,38.827,41.692Zm.051-4.44a1.2,1.2,0,0,0-.994.472,1.948,1.948,0,0,0-.369,1.241,1.921,1.921,0,0,0,.369,1.242,1.178,1.178,0,0,0,.965.457,1.2,1.2,0,0,0,.976-.442,1.918,1.918,0,0,0,.361-1.235,2.065,2.065,0,0,0-.35-1.278A1.137,1.137,0,0,0,38.878,37.252ZM45.466,41.6H42.319V36.316h1.19v4.318h1.957Z" fill="#fff"/>
    </g>
    <g>
      <rect x="24.372" y="-0.151" width="1.508" height="3.77" fill="#3c3c41"/>
      <rect x="31.335" y="4.202" width="2.639" height="1.131" transform="translate(6.193 24.487) rotate(-45)" fill="#3c3c41"/>
      <rect x="32.874" y="1.904" width="2.262" height="3.016" transform="translate(7.547 25.045) rotate(-45)" fill="#3c3c41"/>
      <path d="M25.126,22.66A10.392,10.392,0,1,1,31.038,20.8,10.238,10.238,0,0,1,25.126,22.66Z" fill="#fff"/>
      <path d="M25.126,22.472a10.214,10.214,0,0,1-1.814-.162,10.042,10.042,0,0,1-5.279-2.681L17.9,19.5a10.182,10.182,0,0,1,0-14.4,10.042,10.042,0,0,1,5.422-2.824,10.062,10.062,0,0,1,8.985,2.805l.125.128a10.181,10.181,0,0,1-7.307,17.258Z" fill="#fff"/>
      <path d="M32.459,19.625a10.355,10.355,0,0,1-9.166,2.847,10.213,10.213,0,0,1-5.361-2.734L32.587,5.1a10.372,10.372,0,0,1-.132,14.528Z" fill="#e5e5e5"/>
      <path d="M25.126,2.488a9.793,9.793,0,1,1-9.8,9.8A9.678,9.678,0,0,1,17.083,6.7a9.8,9.8,0,0,1,8.043-4.212m0-.754A10.557,10.557,0,1,0,32.561,4.8,10.558,10.558,0,0,0,25.126,1.734Z" fill="#3c3c41"/>
      <path d="M25.126,16.439a4.148,4.148,0,1,1,4.147-4.148A4.148,4.148,0,0,1,25.126,16.439Z" fill="#2bc7f4"/>
      <circle cx="25.126" cy="12.291" r="1.508" fill="#fff"/>
      <path d="M27.388.6H22.863a.377.377,0,0,1-.377-.377h0a.377.377,0,0,1,.377-.377h4.525a.377.377,0,0,1,.377.377h0A.377.377,0,0,1,27.388.6Z" fill="#3c3c41"/>
      <polygon points="25.446 12.714 24.734 11.948 31.268 5.98 31.577 6.3 25.446 12.714" fill="#3c3c41"/>
      <rect x="24.748" y="3.619" width="0.754" height="2.262" fill="#3c3c41"/>
      <rect x="24.748" y="19.078" width="0.754" height="2.262" fill="#3c3c41"/>
      <rect x="16.453" y="11.914" width="2.262" height="0.754" fill="#3c3c41"/>
      <rect x="31.535" y="11.914" width="2.262" height="0.754" fill="#3c3c41"/>
    </g>
  </g>
</svg>
