<svg xmlns="http://www.w3.org/2000/svg" viewBox="0 0 50 50">
  <title>sql_tutorials</title>
  <g id="Shapes">
    <g>
      <path d="M34.386,34.136h1.541V-.251H5.779c-.963.1-2.986,2.505-2.986,2.794v33.23a1.829,1.829,0,0,0,1.83,1.83H32.075v-.578Z" fill="#59595d"/>
      <path d="M7.128,1.29A2.288,2.288,0,0,0,5.2,2.061c-1.637,1.445.386,1.445,1.156,1.445H32.075V37.025l2.311-2.986V1.29Z" fill="#e5e5e5"/>
      <polygon points="32.075 37.025 34.386 34.136 34.386 1.29 32.075 3.506 32.075 37.025" fill="#a0a1a2" opacity="0.5" style="isolation: isolate"/>
      <path d="M7.128,20.169a1.317,1.317,0,0,1-1.349,1.349H1.348A1.317,1.317,0,0,1,0,20.169H0a1.317,1.317,0,0,1,1.348-1.348H5.779a1.263,1.263,0,0,1,1.349,1.348Z" fill="#a0a1a2"/>
      <path d="M7.128,10.248A1.317,1.317,0,0,1,5.779,11.6H1.348A1.317,1.317,0,0,1,0,10.248H0A1.317,1.317,0,0,1,1.348,8.9H5.779a1.377,1.377,0,0,1,1.349,1.348Z" fill="#a0a1a2"/>
      <path d="M7.128,29.994a1.317,1.317,0,0,1-1.349,1.348H1.348A1.317,1.317,0,0,1,0,29.994H0a1.317,1.317,0,0,1,1.348-1.349H5.779a1.317,1.317,0,0,1,1.349,1.349Z" fill="#a0a1a2"/>
    </g>
    <g>
      <rect x="18.773" y="12.116" width="31.227" height="37.854" fill-opacity="0"/>
      <rect x="20.296" y="12.116" width="28.486" height="37.854" fill-opacity="0"/>
      <path d="M20.3,17.3V44.791c0,2.818,6.4,5.179,14.243,5.179V17.3Z" fill="#0072c6"/>
      <path d="M34.31,49.97h.229c7.921,0,14.242-2.285,14.242-5.179V17.3H34.31V49.97Z" fill="#0072c6"/>
      <path d="M34.31,49.97h.229c7.921,0,14.242-2.285,14.242-5.179V17.3H34.31V49.97Z" fill="#fff" opacity="0.15" style="isolation: isolate"/>
      <path d="M48.781,17.3c0,2.818-6.4,5.179-14.242,5.179S20.3,20.19,20.3,17.3c0-2.819,6.4-5.18,14.243-5.18S48.781,14.477,48.781,17.3Z" fill="#fff"/>
      <path d="M45.887,17.067c0,1.828-5.1,3.351-11.348,3.351S23.19,18.9,23.19,17.067c0-1.9,5.1-3.427,11.349-3.427S45.887,15.163,45.887,17.067Z" fill="#7fba00"/>
      <path d="M43.526,19.123c1.523-.609,2.361-1.294,2.361-2.056,0-1.9-5.1-3.427-11.348-3.427S23.19,15.163,23.19,17.067c0,.762.914,1.523,2.361,2.056a25.845,25.845,0,0,1,8.988-1.294A24.154,24.154,0,0,1,43.526,19.123Z" fill="#b8d432"/>
      <rect x="18.773" y="25.064" width="31.227" height="16.756" fill-opacity="0"/>
      <path d="M24.473,36.944V35.159a3.473,3.473,0,0,0,1.055.613,3.425,3.425,0,0,0,1.149.2,2.5,2.5,0,0,0,.591-.061,1.415,1.415,0,0,0,.424-.167.777.777,0,0,0,.257-.257.654.654,0,0,0,.083-.324.689.689,0,0,0-.134-.418,1.4,1.4,0,0,0-.368-.34,3.6,3.6,0,0,0-.546-.3c-.212-.1-.441-.2-.687-.3a3.548,3.548,0,0,1-1.4-.954,2.092,2.092,0,0,1-.457-1.361,2.153,2.153,0,0,1,.251-1.071,2.123,2.123,0,0,1,.68-.742,3.042,3.042,0,0,1,1.005-.424,5.044,5.044,0,0,1,1.2-.14,6.947,6.947,0,0,1,1.1.078,4.288,4.288,0,0,1,.893.229v1.668a2.6,2.6,0,0,0-.441-.245,3.04,3.04,0,0,0-.485-.173,3.625,3.625,0,0,0-.971-.14,2.342,2.342,0,0,0-.558.062,1.4,1.4,0,0,0-.424.161.827.827,0,0,0-.268.257.589.589,0,0,0-.094.329.646.646,0,0,0,.106.363,1.278,1.278,0,0,0,.3.3,3.54,3.54,0,0,0,.474.279q.279.133.63.279a6.673,6.673,0,0,1,.859.429,2.984,2.984,0,0,1,.659.508,1.988,1.988,0,0,1,.418.653,2.577,2.577,0,0,1-.112,1.974,2.063,2.063,0,0,1-.686.737,3,3,0,0,1-1.015.4,5.8,5.8,0,0,1-1.216.123,6.854,6.854,0,0,1-1.255-.111A3.8,3.8,0,0,1,24.473,36.944Zm10.153.446a3.727,3.727,0,0,1-2.8-1.116,4.033,4.033,0,0,1-1.082-2.917,4.315,4.315,0,0,1,1.1-3.068,3.8,3.8,0,0,1,2.912-1.172,3.621,3.621,0,0,1,2.767,1.122,4.111,4.111,0,0,1,1.06,2.956,4.237,4.237,0,0,1-1.1,3.04q-.039.039-.072.078c-.023.023-.047.045-.073.067l2.025,1.947H36.841l-1.06-1.076A4.492,4.492,0,0,1,34.626,37.39Zm.078-6.722a1.822,1.822,0,0,0-1.506.714,2.953,2.953,0,0,0-.558,1.88,2.911,2.911,0,0,0,.558,1.88,1.788,1.788,0,0,0,1.462.692,1.807,1.807,0,0,0,1.478-.67,2.9,2.9,0,0,0,.547-1.868,3.137,3.137,0,0,0-.53-1.936A1.72,1.72,0,0,0,34.7,30.668Zm9.975,6.583H39.915v-8h1.8v6.538h2.963Z" fill="#fff"/>
    </g>
  </g>
</svg>
