<svg xmlns="http://www.w3.org/2000/svg" viewBox="0 0 50 50">
  <title>ssas_tutorials</title>
  <g id="Shapes">
    <g>
      <path d="M42.744,0H5.342V50h37.4a2.79,2.79,0,0,0,2.931-2.6V2.605A2.791,2.791,0,0,0,42.744,0ZM35.592,19.027H15.426V12.813H35.592Z" fill="#394453"/>
      <path d="M39.586,17.188l-5.314-3.125-5.316,3.125V0h10.63Z" fill="#50e6ff"/>
    </g>
  </g>
  <g id="Captions">
    <g>
      <path d="M7.448,38.457V35.988a4.745,4.745,0,0,0,1.459.845,4.676,4.676,0,0,0,1.589.282,3.548,3.548,0,0,0,.821-.085,1.923,1.923,0,0,0,.587-.236,1.022,1.022,0,0,0,.351-.354A.889.889,0,0,0,12.371,36a.963.963,0,0,0-.185-.579,1.989,1.989,0,0,0-.506-.47,5.294,5.294,0,0,0-.76-.417q-.439-.2-.949-.408A4.844,4.844,0,0,1,8.039,32.8,2.877,2.877,0,0,1,7.4,30.919a3,3,0,0,1,.347-1.485,2.955,2.955,0,0,1,.945-1.022,4.257,4.257,0,0,1,1.385-.59,7.119,7.119,0,0,1,1.667-.189,9.949,9.949,0,0,1,1.531.1,6.072,6.072,0,0,1,1.231.32v2.307a3.764,3.764,0,0,0-.606-.339,4.721,4.721,0,0,0-.675-.243,5.134,5.134,0,0,0-1.342-.19,3.465,3.465,0,0,0-.772.081,1.969,1.969,0,0,0-.586.228,1.141,1.141,0,0,0-.371.351.834.834,0,0,0-.131.459.872.872,0,0,0,.147.5,1.658,1.658,0,0,0,.416.417,4.5,4.5,0,0,0,.656.386q.386.189.872.39a9.6,9.6,0,0,1,1.192.59,4.242,4.242,0,0,1,.906.706,2.759,2.759,0,0,1,.579.9,3.588,3.588,0,0,1-.15,2.732,2.854,2.854,0,0,1-.953,1.018,4.144,4.144,0,0,1-1.4.56,8.182,8.182,0,0,1-1.686.17,9.354,9.354,0,0,1-1.732-.155A5.235,5.235,0,0,1,7.448,38.457Z" fill="#fff"/>
      <path d="M16.312,38.457V35.988a4.729,4.729,0,0,0,1.458.845,4.676,4.676,0,0,0,1.589.282,3.557,3.557,0,0,0,.822-.085,1.917,1.917,0,0,0,.586-.236,1.022,1.022,0,0,0,.351-.354A.889.889,0,0,0,21.234,36a.963.963,0,0,0-.185-.579,1.989,1.989,0,0,0-.506-.47,5.279,5.279,0,0,0-.759-.417q-.441-.2-.95-.408A4.851,4.851,0,0,1,16.9,32.8a2.881,2.881,0,0,1-.636-1.883,2.992,2.992,0,0,1,.347-1.485,2.936,2.936,0,0,1,.945-1.022,4.242,4.242,0,0,1,1.384-.59,7.119,7.119,0,0,1,1.667-.189,9.971,9.971,0,0,1,1.532.1,6.062,6.062,0,0,1,1.23.32v2.307a3.764,3.764,0,0,0-.606-.339,4.677,4.677,0,0,0-.675-.243,4.923,4.923,0,0,0-.69-.143,4.868,4.868,0,0,0-.652-.047,3.45,3.45,0,0,0-.771.081,1.965,1.965,0,0,0-.587.228,1.127,1.127,0,0,0-.37.351.826.826,0,0,0-.131.459.871.871,0,0,0,.146.5,1.647,1.647,0,0,0,.417.417,4.43,4.43,0,0,0,.655.386q.387.189.872.39a9.6,9.6,0,0,1,1.192.59,4.249,4.249,0,0,1,.907.706,2.756,2.756,0,0,1,.578.9,3.588,3.588,0,0,1-.15,2.732,2.846,2.846,0,0,1-.953,1.018,4.144,4.144,0,0,1-1.4.56,8.168,8.168,0,0,1-1.686.17,9.362,9.362,0,0,1-1.732-.155A5.216,5.216,0,0,1,16.312,38.457Z" fill="#fff"/>
      <path d="M35.257,38.881H32.542l-.787-2.461H27.82l-.779,2.461h-2.7l4.027-11.063h2.955Zm-4.073-4.374L30,30.789a4.83,4.83,0,0,1-.185-1h-.062a4.216,4.216,0,0,1-.193.964l-1.2,3.75Z" fill="#fff"/>
      <path d="M36.224,38.457V35.988a4.745,4.745,0,0,0,1.459.845,4.676,4.676,0,0,0,1.589.282,3.554,3.554,0,0,0,.821-.085,1.923,1.923,0,0,0,.587-.236,1.03,1.03,0,0,0,.351-.354A.888.888,0,0,0,41.146,36a.957.957,0,0,0-.185-.579,1.984,1.984,0,0,0-.5-.47,5.294,5.294,0,0,0-.76-.417q-.439-.2-.949-.408a4.856,4.856,0,0,1-1.933-1.32,2.881,2.881,0,0,1-.636-1.883,3,3,0,0,1,.347-1.485,2.955,2.955,0,0,1,.945-1.022,4.257,4.257,0,0,1,1.385-.59,7.117,7.117,0,0,1,1.666-.189,9.953,9.953,0,0,1,1.532.1,6.072,6.072,0,0,1,1.231.32v2.307a3.807,3.807,0,0,0-.606-.339A4.765,4.765,0,0,0,42,29.782a4.936,4.936,0,0,0-.691-.143,4.866,4.866,0,0,0-.651-.047,3.459,3.459,0,0,0-.772.081,1.969,1.969,0,0,0-.586.228,1.141,1.141,0,0,0-.371.351.834.834,0,0,0-.131.459.872.872,0,0,0,.147.5,1.642,1.642,0,0,0,.416.417,4.444,4.444,0,0,0,.656.386q.386.189.872.39a9.665,9.665,0,0,1,1.192.59,4.242,4.242,0,0,1,.906.706,2.759,2.759,0,0,1,.579.9,3.583,3.583,0,0,1-.151,2.732,2.843,2.843,0,0,1-.952,1.018,4.15,4.15,0,0,1-1.4.56,8.165,8.165,0,0,1-1.685.17,9.354,9.354,0,0,1-1.732-.155A5.223,5.223,0,0,1,36.224,38.457Z" fill="#fff"/>
    </g>
  </g>
</svg>
