<svg xmlns="http://www.w3.org/2000/svg" viewBox="0 0 50 50">
  <title>ssis_tutorials</title>
  <g id="Shapes">
    <g>
      <path d="M42.744,0H5.342V50h37.4a2.79,2.79,0,0,0,2.931-2.6V2.605A2.791,2.791,0,0,0,42.744,0ZM35.592,19.027H15.426V12.813H35.592Z" fill="#31135a"/>
      <path d="M39.586,17.188l-5.314-3.125-5.316,3.125V0h10.63Z" fill="#50e6ff"/>
    </g>
  </g>
  <g id="Captions">
    <g>
      <path d="M10.492,38.457V35.988a4.728,4.728,0,0,0,3.048,1.127,3.5,3.5,0,0,0,.821-.085,1.932,1.932,0,0,0,.586-.235,1.032,1.032,0,0,0,.351-.355A.889.889,0,0,0,15.414,36a.954.954,0,0,0-.185-.578,2,2,0,0,0-.5-.471,5.348,5.348,0,0,0-.76-.417c-.294-.134-.61-.269-.949-.408A4.857,4.857,0,0,1,11.082,32.8a2.885,2.885,0,0,1-.636-1.883,3.006,3.006,0,0,1,.347-1.486,2.936,2.936,0,0,1,.945-1.022,4.239,4.239,0,0,1,1.385-.59,7.111,7.111,0,0,1,1.666-.188,10.109,10.109,0,0,1,1.532.1,6.045,6.045,0,0,1,1.23.32v2.307a3.764,3.764,0,0,0-.606-.339,4.8,4.8,0,0,0-.675-.243,5.193,5.193,0,0,0-.69-.143,4.861,4.861,0,0,0-.652-.046,3.392,3.392,0,0,0-.771.081,1.939,1.939,0,0,0-.587.227,1.129,1.129,0,0,0-.37.352.824.824,0,0,0-.131.459.883.883,0,0,0,.146.5,1.7,1.7,0,0,0,.417.417,4.31,4.31,0,0,0,.656.385q.386.189.872.39a9.808,9.808,0,0,1,1.192.59,4.242,4.242,0,0,1,.906.706,2.76,2.76,0,0,1,.578.9,3.588,3.588,0,0,1-.15,2.732,2.837,2.837,0,0,1-.953,1.018,4.124,4.124,0,0,1-1.4.56,8.168,8.168,0,0,1-1.686.17,9.439,9.439,0,0,1-1.731-.154A5.258,5.258,0,0,1,10.492,38.457Z" fill="#fff"/>
      <path d="M19.355,38.457V35.988a4.775,4.775,0,0,0,1.458.846,4.709,4.709,0,0,0,1.59.281,3.5,3.5,0,0,0,.821-.085,1.949,1.949,0,0,0,.587-.235,1.05,1.05,0,0,0,.351-.355A.888.888,0,0,0,24.277,36a.954.954,0,0,0-.185-.578,1.987,1.987,0,0,0-.5-.471,5.294,5.294,0,0,0-.76-.417c-.293-.134-.61-.269-.949-.408A4.865,4.865,0,0,1,19.945,32.8a2.885,2.885,0,0,1-.636-1.883,3.006,3.006,0,0,1,.347-1.486,2.955,2.955,0,0,1,.945-1.022,4.239,4.239,0,0,1,1.385-.59,7.117,7.117,0,0,1,1.666-.188,10.1,10.1,0,0,1,1.532.1,6.072,6.072,0,0,1,1.231.32v2.307a3.852,3.852,0,0,0-.606-.339,4.892,4.892,0,0,0-.675-.243,5.24,5.24,0,0,0-.691-.143,4.861,4.861,0,0,0-.652-.046,3.392,3.392,0,0,0-.771.081,1.942,1.942,0,0,0-.586.227,1.123,1.123,0,0,0-.371.352.832.832,0,0,0-.131.459.877.877,0,0,0,.147.5,1.674,1.674,0,0,0,.416.417,4.36,4.36,0,0,0,.656.385q.386.189.872.39a9.808,9.808,0,0,1,1.192.59,4.242,4.242,0,0,1,.906.706,2.78,2.78,0,0,1,.579.9,3.2,3.2,0,0,1,.2,1.177,3.154,3.154,0,0,1-.351,1.555,2.843,2.843,0,0,1-.952,1.018,4.137,4.137,0,0,1-1.4.56,8.165,8.165,0,0,1-1.685.17,9.442,9.442,0,0,1-1.732-.154A5.258,5.258,0,0,1,19.355,38.457Z" fill="#fff"/>
      <path d="M31.166,38.882H28.673V27.818h2.493Z" fill="#fff"/>
      <path d="M33.181,38.457V35.988a4.752,4.752,0,0,0,1.458.846,4.7,4.7,0,0,0,1.589.281,3.5,3.5,0,0,0,.822-.085,1.942,1.942,0,0,0,.586-.235,1.032,1.032,0,0,0,.351-.355A.889.889,0,0,0,38.1,36a.961.961,0,0,0-.185-.578,2,2,0,0,0-.505-.471,5.348,5.348,0,0,0-.76-.417c-.294-.134-.61-.269-.949-.408A4.857,4.857,0,0,1,33.771,32.8a2.885,2.885,0,0,1-.636-1.883,3,3,0,0,1,.347-1.486,2.936,2.936,0,0,1,.945-1.022,4.239,4.239,0,0,1,1.385-.59,7.111,7.111,0,0,1,1.666-.188,10.109,10.109,0,0,1,1.532.1,6.045,6.045,0,0,1,1.23.32v2.307a3.764,3.764,0,0,0-.606-.339,4.8,4.8,0,0,0-.675-.243,5.193,5.193,0,0,0-.69-.143,4.861,4.861,0,0,0-.652-.046,3.392,3.392,0,0,0-.771.081,1.939,1.939,0,0,0-.587.227,1.129,1.129,0,0,0-.37.352.824.824,0,0,0-.131.459.883.883,0,0,0,.146.5,1.7,1.7,0,0,0,.417.417,4.31,4.31,0,0,0,.656.385q.386.189.872.39a9.808,9.808,0,0,1,1.192.59,4.242,4.242,0,0,1,.906.706,2.76,2.76,0,0,1,.578.9,3.588,3.588,0,0,1-.15,2.732,2.837,2.837,0,0,1-.953,1.018,4.124,4.124,0,0,1-1.4.56,8.168,8.168,0,0,1-1.686.17,9.45,9.45,0,0,1-1.732-.154A5.262,5.262,0,0,1,33.181,38.457Z" fill="#fff"/>
    </g>
  </g>
</svg>
