<svg xmlns="http://www.w3.org/2000/svg" viewBox="0 0 50 50">
  <title>ssms_tutorials</title>
  <g id="Shapes">
    <g>
      <g>
        <path d="M29.823,5.483l-7.906.068L5.539,5.685V30.614c0,2.555,5.729,4.757,13.176,4.891H19c1.008,0,1.982-.056,2.915-.146a23.25,23.25,0,0,0,7.906-1.888c1.673-.823,2.641-1.82,2.641-2.857V5.461Z" fill="#ffb900"/>
        <path d="M29.823,5.483V33.46a23.274,23.274,0,0,1-7.906,1.888V5.551Z" fill="#ffdc80"/>
        <path d="M18.715,36.468c-7.035-.126-14.138-2.177-14.138-5.854V5.685H6.5V30.614c0,1.549,4.653,3.792,12.23,3.929H19c7.74-.1,12.5-2.354,12.5-3.929V5.461h1.926V30.614c0,3.725-7.252,5.764-14.414,5.854Z" fill="#ffb900"/>
        <g>
          <path d="M32.5,5.752c0,2.628-6.026,4.757-13.462,4.757S5.573,8.38,5.573,5.752,11.778,1,19.214,1,32.5,3.131,32.5,5.758" fill="#d2d2d2"/>
          <path d="M19.036,11.471c-7.169,0-14.426-1.964-14.426-5.718,0-3.712,7.524-5.714,14.6-5.714S33.455,2,33.462,5.753h0v0C33.454,9.509,26.2,11.471,19.036,11.471Zm.178-9.507c-7.74,0-12.678,2.244-12.678,3.789s4.87,3.793,12.5,3.793S31.53,7.3,31.536,5.755C31.53,4.171,26.843,1.964,19.214,1.964Z" fill="#ffb900"/>
        </g>
      </g>
      <g id="paths">
        <g id="Azure_SDK" data-name="Azure SDK">
          <g>
            <path d="M28.489,35.58a6.557,6.557,0,0,1-1.659.212h0A6.8,6.8,0,0,1,22.1,33.865a6.341,6.341,0,0,1-1.743-6.3l.326-1.124,3.914,3.842,2.524-.667.659-2.448L23.8,23.336l1.226-.306a6.982,6.982,0,0,1,1.7-.207A6.813,6.813,0,0,1,31.472,24.7a6.282,6.282,0,0,1,1.787,5.891l2.226,2.136-1.1.366a2.065,2.065,0,0,1-.719.1h-.318l-.018,0-1.814,1.771,1.52,1.518-1.792,1.793Z" fill="#fff"/>
            <path d="M28.684,34.793h0l2.553,2.491.809-.81-1.058-1.058-.5-.436L33.1,32.427l.311.062h.249a1.373,1.373,0,0,0,.5-.062l-1.556-1.5-.125-.124a5.6,5.6,0,0,0-1.494-5.6A6.232,6.232,0,0,0,25.2,23.709l3.363,3.238-.872,3.238-3.3.872-3.363-3.3a5.669,5.669,0,0,0,1.557,5.6A6.06,6.06,0,0,0,28.684,34.793Z" fill="#3c3c41"/>
            <path d="M44.563,49.753a3.442,3.442,0,0,1-2.488-1.015l.99-.989a2.16,2.16,0,0,0,3,0,1.938,1.938,0,0,0,.014-2.858L39.567,38.6l-.3.3L36.58,41.461l2.867,2.794-.977,1-5.426-5.289,1.794-1.8,1.557,1.5.138-.138,1.728-1.605,0-.08a3.646,3.646,0,0,1,.083-.916l.294-1.176,8.406,8.128a3.334,3.334,0,0,1-.007,4.872A3.426,3.426,0,0,1,44.563,49.753Z" fill="#fff"/>
            <path d="M42.57,48.243a2.856,2.856,0,0,0,3.985,0,2.636,2.636,0,0,0,0-3.86L39.021,37.1a3,3,0,0,0-.063.747l.063.312-.25.249-1.743,1.619-.623.622-1.557-1.494-.809.809,4.919,4.8" fill="#3c3c41"/>
            <path d="M20.938,48.587l2.8-4.31L25.752,42.7l.2.2L32.53,36.6l-1.555-1.492L33.468,32.7l.313.024c.063,0,.126.008.188.008a2.45,2.45,0,0,0,1.654-.637,2.216,2.216,0,0,0,.583-1.733l-.026-.328L44.5,21.99l5.308,5.079-8.432,8.158-.343-.054a1.646,1.646,0,0,0-.255-.019,2.216,2.216,0,0,0-1.51.631,2.038,2.038,0,0,0-.612,1.7l.055.358-2.489,2.4-1.553-1.491-6.422,6.314.2.2-1.663,2.014L22.352,50Z" fill="#fff"/>
            <path d="M34.662,37.782l1.556,1.494L37.962,37.6a2.736,2.736,0,0,1,.809-2.3,2.858,2.858,0,0,1,2.367-.809L48.8,27.071l-4.3-4.11-7.6,7.348a2.934,2.934,0,0,1-.809,2.3,3.156,3.156,0,0,1-2.367.81L31.984,35.1,33.541,36.6l-7.6,7.286-.249-.25-1.433,1.121-2.428,3.737.622.622,3.861-2.366L27.5,45.317l-.249-.249Z" fill="#3c3c41"/>
          </g>
        </g>
      </g>
      <path d="M11.2,49.774H9.332v-1.68H11.2Zm-3.107,0H6.225v-1.68H8.089Zm-3.106,0H3.119v-1.68H4.983Z" fill="#107b10"/>
      <path d="M1.708,46.683H.028V44.82h1.68Zm0-3.106H.028V41.713h1.68Zm0-3.107H.028V38.606h1.68Z" fill="#107b10"/>
      <polygon points="1.708 47.926 1.509 47.926 0.028 47.926 0.028 49.774 1.876 49.774 1.876 48.293 1.876 48.094 1.876 47.926 1.708 47.926" fill="#107b10"/>
      <g>
        <path d="M38.821,0h1.864V1.68H38.821Zm3.107,0h1.864V1.68H41.928Zm3.107,0H46.9V1.68H45.035Z" fill="#107b10"/>
        <path d="M48.309,3.091h1.68V4.955h-1.68Zm0,3.107h1.68V8.061h-1.68Zm0,3.106h1.68v1.864h-1.68Z" fill="#107b10"/>
        <polygon points="48.309 1.848 48.508 1.848 49.989 1.848 49.989 0 48.141 0 48.141 1.481 48.141 1.68 48.141 1.848 48.309 1.848" fill="#107b10"/>
      </g>
    </g>
  </g>
</svg>
