<svg xmlns="http://www.w3.org/2000/svg" viewBox="0 0 50 50">
  <title>ssrs_tutorials</title>
  <g id="Shapes">
    <g>
      <path d="M42.744,0H5.342V50h37.4a2.79,2.79,0,0,0,2.931-2.6V2.605A2.791,2.791,0,0,0,42.744,0ZM35.592,19.027H15.426V12.813H35.592Z" fill="#243a5e"/>
      <path d="M39.586,17.188l-5.314-3.125-5.316,3.125V0h10.63Z" fill="#50e6ff"/>
    </g>
  </g>
  <g id="Captions">
    <g>
      <path d="M7.714,38.457V35.988a4.768,4.768,0,0,0,1.459.846,4.7,4.7,0,0,0,1.589.281,3.488,3.488,0,0,0,.821-.085,1.923,1.923,0,0,0,.587-.235,1.032,1.032,0,0,0,.351-.355A.886.886,0,0,0,12.637,36a.961.961,0,0,0-.185-.578,1.992,1.992,0,0,0-.506-.471,5.435,5.435,0,0,0-.759-.417c-.294-.134-.61-.269-.95-.408A4.85,4.85,0,0,1,8.305,32.8a2.88,2.88,0,0,1-.637-1.883,3,3,0,0,1,.348-1.486,2.951,2.951,0,0,1,.944-1.022,4.257,4.257,0,0,1,1.385-.59,7.12,7.12,0,0,1,1.667-.188,10.086,10.086,0,0,1,1.531.1,6.072,6.072,0,0,1,1.231.321v2.306a3.764,3.764,0,0,0-.606-.339,4.929,4.929,0,0,0-.675-.243,5.065,5.065,0,0,0-.69-.142,4.719,4.719,0,0,0-.652-.047,3.407,3.407,0,0,0-.772.081,1.969,1.969,0,0,0-.586.227,1.133,1.133,0,0,0-.371.352.834.834,0,0,0-.131.459.877.877,0,0,0,.147.5,1.692,1.692,0,0,0,.416.417,4.5,4.5,0,0,0,.656.386q.387.189.872.389a9.736,9.736,0,0,1,1.192.59,4.242,4.242,0,0,1,.906.706,2.773,2.773,0,0,1,.579.9,3.586,3.586,0,0,1-.15,2.731,2.857,2.857,0,0,1-.953,1.019,4.143,4.143,0,0,1-1.4.559,8.113,8.113,0,0,1-1.686.17,9.45,9.45,0,0,1-1.732-.154A5.269,5.269,0,0,1,7.714,38.457Z" fill="#fff"/>
      <path d="M16.578,38.457V35.988a4.752,4.752,0,0,0,1.458.846,4.7,4.7,0,0,0,1.589.281,3.5,3.5,0,0,0,.822-.085,1.917,1.917,0,0,0,.586-.235,1.032,1.032,0,0,0,.351-.355A.886.886,0,0,0,21.5,36a.961.961,0,0,0-.185-.578,2,2,0,0,0-.505-.471,5.45,5.45,0,0,0-.76-.417c-.294-.134-.61-.269-.949-.408A4.847,4.847,0,0,1,17.168,32.8a2.885,2.885,0,0,1-.636-1.883,3,3,0,0,1,.347-1.486,2.945,2.945,0,0,1,.945-1.022,4.242,4.242,0,0,1,1.384-.59,7.126,7.126,0,0,1,1.667-.188,10.109,10.109,0,0,1,1.532.1,6.045,6.045,0,0,1,1.23.321v2.306a3.764,3.764,0,0,0-.606-.339,4.929,4.929,0,0,0-.675-.243,5.034,5.034,0,0,0-.69-.142,4.708,4.708,0,0,0-.652-.047,3.392,3.392,0,0,0-.771.081,1.965,1.965,0,0,0-.587.227,1.129,1.129,0,0,0-.37.352.826.826,0,0,0-.131.459.883.883,0,0,0,.146.5,1.7,1.7,0,0,0,.417.417,4.393,4.393,0,0,0,.656.386q.386.189.872.389a9.791,9.791,0,0,1,1.191.59,4.224,4.224,0,0,1,.907.706,2.754,2.754,0,0,1,.578.9,3.586,3.586,0,0,1-.15,2.731,2.849,2.849,0,0,1-.953,1.019,4.143,4.143,0,0,1-1.4.559,8.1,8.1,0,0,1-1.686.17A9.45,9.45,0,0,1,18,38.921,5.262,5.262,0,0,1,16.578,38.457Z" fill="#fff"/>
      <path d="M35.186,38.882H32.323L30.6,36.035c-.129-.216-.252-.409-.371-.579a3.3,3.3,0,0,0-.358-.436,1.418,1.418,0,0,0-.378-.277.965.965,0,0,0-.429-.1H28.4v4.236H25.9V27.818h3.95q4.029,0,4.028,3.009A3.093,3.093,0,0,1,33.7,31.9a2.943,2.943,0,0,1-.5.884,3.158,3.158,0,0,1-.783.679,4.009,4.009,0,0,1-1.023.447v.031a1.588,1.588,0,0,1,.479.251,3.42,3.42,0,0,1,.447.406,5.5,5.5,0,0,1,.413.5q.2.267.359.52Zm-6.79-9.2v3.079h1.081a1.794,1.794,0,0,0,1.288-.463,1.546,1.546,0,0,0,.494-1.165q0-1.45-1.736-1.451Z" fill="#fff"/>
      <path d="M35.958,38.457V35.988a4.775,4.775,0,0,0,1.458.846,4.709,4.709,0,0,0,1.59.281,3.5,3.5,0,0,0,.821-.085,1.923,1.923,0,0,0,.587-.235,1.05,1.05,0,0,0,.351-.355A.886.886,0,0,0,40.88,36a.954.954,0,0,0-.185-.578,1.987,1.987,0,0,0-.505-.471,5.393,5.393,0,0,0-.76-.417c-.293-.134-.61-.269-.949-.408A4.854,4.854,0,0,1,36.548,32.8a2.885,2.885,0,0,1-.636-1.883,3.009,3.009,0,0,1,.347-1.486,2.964,2.964,0,0,1,.945-1.022,4.248,4.248,0,0,1,1.385-.59,7.117,7.117,0,0,1,1.666-.188,10.09,10.09,0,0,1,1.532.1,6.072,6.072,0,0,1,1.231.321v2.306a3.807,3.807,0,0,0-.606-.339,5.027,5.027,0,0,0-.675-.243,5.078,5.078,0,0,0-.691-.142,4.705,4.705,0,0,0-.651-.047,3.4,3.4,0,0,0-.772.081,1.969,1.969,0,0,0-.586.227,1.123,1.123,0,0,0-.371.352.834.834,0,0,0-.131.459.877.877,0,0,0,.147.5,1.674,1.674,0,0,0,.416.417,4.444,4.444,0,0,0,.656.386q.386.189.872.389a9.808,9.808,0,0,1,1.192.59,4.242,4.242,0,0,1,.906.706,2.773,2.773,0,0,1,.579.9,3.593,3.593,0,0,1-.151,2.731,2.855,2.855,0,0,1-.952,1.019,4.148,4.148,0,0,1-1.4.559,8.1,8.1,0,0,1-1.685.17,9.442,9.442,0,0,1-1.732-.154A5.258,5.258,0,0,1,35.958,38.457Z" fill="#fff"/>
    </g>
  </g>
</svg>
