<svg xmlns="http://www.w3.org/2000/svg" viewBox="0 0 298 110">
  <title>8 - thread-task-arch</title>
  <g id="background_blue" data-name="background blue">
    <rect width="298" height="110" fill="#e4edf1"/>
  </g>
  <g id="Shapes">
    <g>
      <path d="M136.621,29.814H85.208V98.553h51.413a3.835,3.835,0,0,0,4.028-3.578V33.4A3.837,3.837,0,0,0,136.621,29.814Zm-9.832,26.158H99.068V47.429h27.721Z" fill="#243a5e"/>
      <path d="M132.279,53.444l-7.3-4.3-7.307,4.3V29.814h14.611Z" fill="#50e6ff"/>
    </g>
    <g>
      <path d="M165.238,52.045a4.826,4.826,0,0,0-.914.09,11.073,11.073,0,0,0,.075-1.269A10.946,10.946,0,0,0,143.137,47.2a7.448,7.448,0,1,0-2.5,14.462h24.6a4.811,4.811,0,0,0,0-9.621Z" fill="#acd1ef"/>
      <path d="M209.82,35a4.818,4.818,0,0,0-.914.09,11.073,11.073,0,0,0,.075-1.269,10.946,10.946,0,0,0-21.262-3.662,7.448,7.448,0,1,0-2.5,14.462h24.6a4.811,4.811,0,0,0,0-9.621Z" fill="#acd1ef"/>
      <path d="M156.454,21.47l12.019-7.048,5.519,3.5,5.845-3.661,11.747,7.376-.109,8.359,7.157,4.1V46.766l-7.1,3.824v6.993l-12.62,7.267-4.972-3.606-4.644,3.606-12.675-7.485-.11-6.72-6.774-4.152-.273-12.184,7.047-4.371Z" fill="#fff"/>
      <path d="M168.382,56.2A1.234,1.234,0,1,1,167.3,54.2a1.076,1.076,0,0,1,.126-.007,1.234,1.234,0,0,1,.955,2.014Zm-.832-31.41a1.234,1.234,0,0,1-.249-2.455c.043,0,.084-.006.126-.006a1.234,1.234,0,0,1,.123,2.461Zm1.014,28.868h.222V47.337a.326.326,0,0,0-.143-.271l-4.519-3.085V37.047l4.516-3.008a.327.327,0,0,0,.146-.272V25.173a2.105,2.105,0,1,0-1.364.5c.071,0,.144,0,.216-.01a2.1,2.1,0,0,0,.492-.117v8.045L163.614,36.6a.33.33,0,0,0-.146.274v7.283a.328.328,0,0,0,.143.27l4.519,3.085v5.934a2.1,2.1,0,1,0-.706,4.087c.071,0,.142,0,.214-.011a2.1,2.1,0,0,0,.926-3.859Z" fill="#0078d7"/>
      <path d="M180.576,54.189c.041,0,.083,0,.125.007a1.227,1.227,0,1,1-.125-.007Zm-1.227-30.748a1.236,1.236,0,0,1,1.227-1.109c.041,0,.083,0,.125.006a1.234,1.234,0,1,1-1.352,1.1ZM180.91,34.2V25.645a2.107,2.107,0,0,0-.121-4.177,2.1,2.1,0,0,0-.534,4.173v8.726a.332.332,0,0,0,.141.271l3.483,2.405v6.938l-4.519,3.085a.326.326,0,0,0-.143.27v6.288h.275a2.1,2.1,0,0,0,.873,3.9,1.912,1.912,0,0,0,.213.011,2.108,2.108,0,0,0,.211-4.2,2.07,2.07,0,0,0-.917.117V47.51l4.519-3.085a.326.326,0,0,0,.143-.271V36.871a.328.328,0,0,0-.141-.269Z" fill="#0078d7"/>
      <path d="M192.835,40.07a1.234,1.234,0,1,1-1.233-1.233A1.234,1.234,0,0,1,192.835,40.07Zm-5.012-7.225a1.234,1.234,0,1,1-1.234-1.234A1.235,1.235,0,0,1,187.823,32.845Zm-9.767,7.225A1.234,1.234,0,1,1,179.29,41.3,1.234,1.234,0,0,1,178.056,40.07Zm8.533,8.775a1.234,1.234,0,1,1,1.234-1.234A1.236,1.236,0,0,1,186.589,48.845Zm4.575,1.342-2.74-1.559a2.088,2.088,0,0,0,.273-1.017,2.125,2.125,0,1,0-.68,1.541l2.826,1.608v6.23l-12.016,7.249-4.136-2.953V40.281H177.2a2.076,2.076,0,1,0,.027-.655h-2.54V18.1l5-3.013,11.151,6.694V29.7l-.971.569-1.766,1.119a2.181,2.181,0,1,0,.372.54l1.735-1.1.925-.541,6.7,3.945v5.419h-4.17a2.141,2.141,0,1,0,.018.655h4.152v5.814ZM169.947,40.07a1.234,1.234,0,1,1-1.234-1.233A1.235,1.235,0,0,1,169.947,40.07Zm-8.534-8.459a1.234,1.234,0,1,1-1.233,1.234A1.236,1.236,0,0,1,161.413,31.611Zm-6.245,8.459A1.234,1.234,0,1,1,156.4,41.3,1.234,1.234,0,0,1,155.168,40.07Zm5.012,7.541a1.234,1.234,0,1,1,1.233,1.234A1.234,1.234,0,0,1,160.18,47.611Zm9,16.628L157.159,56.99V50.732l2.744-1.656a2.2,2.2,0,1,0-.374-.541l-2.714,1.638-6.65-4.052V40.307h4.153a2.074,2.074,0,1,0,.018-.655h-4.171V34.233l6.687-3.937,2.68,1.619a2.083,2.083,0,0,0-.226.93,2.116,2.116,0,1,0,.6-1.469l-2.748-1.66V21.777l11.152-6.694,5,3.013v21.53h-2.54a2.138,2.138,0,1,0,.027.655h2.513V61.286Zm22.979-34.874v-8.33l-12.462-7.482L174,16.981l-5.69-3.428-12.463,7.482v8.33l-6.994,4.118V46.858l6.994,4.261V57.73l13.388,8.077,4.765-3.4,4.766,3.4,13.387-8.077V51.119l7-4.261V33.483Z" fill="#0078d7"/>
    </g>
  </g>
</svg>
