<svg xmlns="http://www.w3.org/2000/svg" viewBox="0 0 298 110">
  <title>8 - trans-log-arch</title>
  <g id="background_blue" data-name="background blue">
    <rect width="298" height="110" fill="#e4edf1"/>
  </g>
  <g id="Shapes">
    <g>
      <g>
        <path d="M142.385,34.173H91.4v68h50.985a3.8,3.8,0,0,0,4-3.54V37.716A3.8,3.8,0,0,0,142.385,34.173Zm-9.75,25.876h-27.49V51.6h27.49Z" fill="#303030"/>
        <path d="M138.079,57.549l-7.243-4.25-7.246,4.25V34.173h14.489Z" fill="#0078d4"/>
      </g>
      <g>
        <rect x="193.659" y="18.877" width="2.031" height="46.719" fill="#3c3c41"/>
        <rect x="169.284" y="42.236" width="25.391" height="2.031" fill="#3c3c41"/>
        <g>
          <path d="M183.5,11.767V25.986h20.313V11.767Z" fill="#fff"/>
          <path d="M204.831,27H182.487V10.752h22.344ZM184.519,24.97H202.8V12.783H184.519Z" fill="#3c3c41"/>
        </g>
        <rect x="153.542" y="34.619" width="19.297" height="15.234" fill="#fff"/>
        <g>
          <path d="M153.034,34.111v16.25h20.312V34.111Z" fill="#e5e5e5"/>
          <path d="M174.362,51.377H152.019V33.1h22.343ZM154.05,49.345h18.281V35.127H154.05Z" fill="#3c3c41"/>
        </g>
        <g>
          <path d="M194.674,58.486a8.125,8.125,0,1,0,8.125,8.125A8.125,8.125,0,0,0,194.674,58.486Z" fill="#fff"/>
          <path d="M194.675,75.752a9.141,9.141,0,1,1,9.14-9.141A9.151,9.151,0,0,1,194.675,75.752Zm0-16.25a7.109,7.109,0,1,0,7.109,7.109A7.118,7.118,0,0,0,194.675,59.5Z" fill="#3c3c41"/>
        </g>
        <rect x="185.537" y="34.11" width="18.281" height="18.281" transform="translate(26.437 150.326) rotate(-45)" fill="#2bc7f4"/>
      </g>
    </g>
  </g>
</svg>
