<svg xmlns="http://www.w3.org/2000/svg" viewBox="0 0 50 50">
  <title>tsql_tutorials</title>
  <g id="Shapes">
    <g>
      <path d="M34.08,36.667h1.533V2.458H5.62c-.959.095-2.971,2.491-2.971,2.778V38.3A1.82,1.82,0,0,0,4.47,40.117H31.78v-.575Z" fill="#002050"/>
      <path d="M6.961,3.991a2.275,2.275,0,0,0-1.916.766C3.416,6.2,5.428,6.2,6.2,6.2H31.78V39.542l2.3-2.971V3.991Z" fill="#e5e5e5"/>
      <polygon points="31.78 39.542 34.08 36.667 34.08 3.991 31.78 6.195 31.78 39.542" fill="#a0a1a2" opacity="0.5" style="isolation: isolate"/>
      <path d="M6.961,22.772A1.31,1.31,0,0,1,5.62,24.114H1.212A1.31,1.31,0,0,1-.13,22.772h0a1.31,1.31,0,0,1,1.342-1.341H5.62a1.257,1.257,0,0,1,1.341,1.341Z" fill="#a0a1a2"/>
      <path d="M6.961,12.9A1.31,1.31,0,0,1,5.62,14.244H1.212A1.31,1.31,0,0,1-.13,12.9h0a1.31,1.31,0,0,1,1.342-1.341H5.62A1.37,1.37,0,0,1,6.961,12.9Z" fill="#a0a1a2"/>
      <path d="M6.961,32.547A1.31,1.31,0,0,1,5.62,33.888H1.212A1.31,1.31,0,0,1-.13,32.547h0a1.31,1.31,0,0,1,1.342-1.342H5.62a1.31,1.31,0,0,1,1.341,1.342Z" fill="#a0a1a2"/>
    </g>
    <g>
      <rect x="19.93" y="11.214" width="30.366" height="36.81" fill-opacity="0"/>
      <rect x="21.411" y="11.214" width="27.7" height="36.81" fill-opacity="0"/>
      <path d="M21.411,16.251V42.988c0,2.74,6.222,5.036,13.85,5.036V16.251Z" fill="#0072c6"/>
      <path d="M35.039,48.024h.222c7.7,0,13.85-2.222,13.85-5.036V16.251H35.039V48.024Z" fill="#0072c6"/>
      <path d="M35.039,48.024h.222c7.7,0,13.85-2.222,13.85-5.036V16.251H35.039V48.024Z" fill="#fff" opacity="0.15" style="isolation: isolate"/>
      <path d="M49.111,16.251c0,2.74-6.221,5.036-13.85,5.036s-13.85-2.222-13.85-5.036c0-2.741,6.222-5.037,13.85-5.037S49.111,13.51,49.111,16.251Z" fill="#fff"/>
      <path d="M46.3,16.029c0,1.777-4.963,3.258-11.036,3.258s-11.035-1.481-11.035-3.258c0-1.852,4.962-3.333,11.035-3.333S46.3,14.177,46.3,16.029Z" fill="#7fba00"/>
      <path d="M44,18.028c1.481-.592,2.3-1.259,2.3-2,0-1.852-4.963-3.333-11.036-3.333s-11.035,1.481-11.035,3.333c0,.74.888,1.481,2.3,2a25.116,25.116,0,0,1,8.739-1.259A23.487,23.487,0,0,1,44,18.028Z" fill="#b8d432"/>
      <rect x="19.93" y="23.805" width="30.366" height="16.294" fill-opacity="0"/>
    </g>
    <g>
      <path d="M18.739,29.024H16.355V35.85H14.466V29.024H12.094V27.491h6.645Z" fill="#fff"/>
      <path d="M22.93,33.309H19.742V32.02H22.93Z" fill="#fff"/>
      <path d="M24.306,35.53V33.664a3.573,3.573,0,0,0,2.3.851,2.647,2.647,0,0,0,.621-.064,1.423,1.423,0,0,0,.443-.178.773.773,0,0,0,.266-.268.67.67,0,0,0,.087-.335.726.726,0,0,0-.14-.437,1.5,1.5,0,0,0-.382-.356,4.022,4.022,0,0,0-.574-.314q-.332-.151-.717-.309a3.658,3.658,0,0,1-1.46-1,2.176,2.176,0,0,1-.481-1.423,2.265,2.265,0,0,1,.262-1.122,2.236,2.236,0,0,1,.714-.772,3.2,3.2,0,0,1,1.047-.446,5.384,5.384,0,0,1,1.259-.143,7.5,7.5,0,0,1,1.157.079,4.519,4.519,0,0,1,.93.242v1.743a2.852,2.852,0,0,0-.458-.257,3.519,3.519,0,0,0-.51-.183,3.785,3.785,0,0,0-.522-.108,3.744,3.744,0,0,0-.492-.035,2.558,2.558,0,0,0-.583.061,1.49,1.49,0,0,0-.443.172.851.851,0,0,0-.28.265.63.63,0,0,0-.1.347.662.662,0,0,0,.111.376,1.247,1.247,0,0,0,.314.315,3.354,3.354,0,0,0,.5.291q.291.144.659.3a7.258,7.258,0,0,1,.9.446,3.189,3.189,0,0,1,.685.533,2.07,2.07,0,0,1,.437.679,2.711,2.711,0,0,1-.113,2.064,2.159,2.159,0,0,1-.72.769,3.138,3.138,0,0,1-1.058.423A6.149,6.149,0,0,1,26.69,36a7.067,7.067,0,0,1-1.309-.117A3.946,3.946,0,0,1,24.306,35.53Z" fill="#fff"/>
      <path d="M34.915,36a3.9,3.9,0,0,1-2.926-1.166,4.218,4.218,0,0,1-1.131-3.049,4.512,4.512,0,0,1,1.148-3.206,3.965,3.965,0,0,1,3.043-1.224,3.788,3.788,0,0,1,2.892,1.172,4.3,4.3,0,0,1,1.107,3.089A4.432,4.432,0,0,1,37.9,34.789c-.027.028-.053.054-.076.079a.879.879,0,0,1-.076.073l2.116,2.034H37.229L36.122,35.85A4.7,4.7,0,0,1,34.915,36ZM35,28.972a1.9,1.9,0,0,0-1.574.746,3.082,3.082,0,0,0-.583,1.964,3.041,3.041,0,0,0,.583,1.965,1.868,1.868,0,0,0,1.527.723,1.892,1.892,0,0,0,1.545-.7,3.034,3.034,0,0,0,.571-1.953,3.268,3.268,0,0,0-.554-2.022A1.794,1.794,0,0,0,35,28.972Z" fill="#fff"/>
      <path d="M45.414,35.85H40.436V27.491h1.882v6.832h3.1Z" fill="#fff"/>
    </g>
  </g>
</svg>
