<svg xmlns="http://www.w3.org/2000/svg" xmlns:xlink="http://www.w3.org/1999/xlink" viewBox="0 0 298 110">
  <defs>
    <symbol id="AzureStorageBlob" data-name="AzureStorageBlob" viewBox="0 0 38.5 33.4">
      <g id="paths">
        <g id="Storage_blob" data-name="Storage blob">
          <g>
            <path d="M28.9,0H9.6L0,16.7,9.6,33.4H28.9l9.6-16.7ZM29,24.2a2.647,2.647,0,0,1-2.6,2.6H12.2a2.647,2.647,0,0,1-2.6-2.6V9.3a2.647,2.647,0,0,1,2.6-2.6H25l4,4V24.2Z" fill="#0078d7"/>
            <path d="M17.8,19.4c0-.2-.1-.3-.1-.4s-.1-.2-.2-.3-.1-.1-.2-.1H17c-.2,0-.3,0-.4.1a1.38,1.38,0,0,0-.3.4,1.268,1.268,0,0,0-.1.6v1.9a.845.845,0,0,0,.2.6q.15.3.3.3c.1.1.2.1.4.1a.367.367,0,0,0,.3-.1.215.215,0,0,0,.2-.2c.1-.1.1-.2.2-.3,0-.1.1-.2.1-.4a1.087,1.087,0,0,1,.1-.5V19.8C17.8,19.7,17.8,19.6,17.8,19.4Z" fill="#0078d7"/>
            <path d="M22.3,11.6c0-.2-.1-.3-.1-.4s-.1-.2-.2-.3-.1-.1-.2-.1h-.3c-.2,0-.3,0-.4.1a1.38,1.38,0,0,0-.3.4,1.268,1.268,0,0,0-.1.6v1.9a.845.845,0,0,0,.2.6q.15.3.3.3c.1.1.2.1.4.1a.367.367,0,0,0,.3-.1.215.215,0,0,0,.2-.2c.1-.1.1-.2.2-.3,0-.1.1-.2.1-.4a1.087,1.087,0,0,1,.1-.5V12C22.4,12,22.4,11.8,22.3,11.6Z" fill="#0078d7"/>
            <path d="M24.3,8.1H12.2A1.155,1.155,0,0,0,11,9.3V24.2a1.155,1.155,0,0,0,1.2,1.2H26.4a1.216,1.216,0,0,0,1.2-1.2V11.4H24.4V8.1Zm-8.9,3v-.2l.1-.1,1.2-.8h1.1v4.8h1l.1.1c.1.1,0,.1,0,.1v.5a.1.1,0,0,1-.1.1H15.5l-.1-.1v-.6a.1.1,0,0,1,.1-.1h1.2V11.1l-.9.5c-.1,0-.1.1-.2.1h-.1a.1.1,0,0,0-.1-.1v-.5Zm3.5,10.7a1.884,1.884,0,0,1-.4.9,1.7,1.7,0,0,1-.6.6,2.6,2.6,0,0,1-2,0,.9.9,0,0,1-.6-.6,3.178,3.178,0,0,1-.3-.9,4.869,4.869,0,0,1-.1-1.2,4.121,4.121,0,0,1,.1-1.2,1.884,1.884,0,0,1,.4-.9c.2-.2.4-.5.6-.6a2.6,2.6,0,0,1,2,0,.9.9,0,0,1,.6.6,3.178,3.178,0,0,1,.3.9,4.869,4.869,0,0,1,.1,1.2A4.121,4.121,0,0,1,18.9,21.8Zm4.5,1.4v.1a.1.1,0,0,1-.1.1H20l-.1-.1v-.6a.1.1,0,0,1,.1-.1h1.2V18.9l-.9.5c-.1,0-.1.1-.2.1H20a.1.1,0,0,0-.1-.1v-.7l.1-.1,1.2-.8h1.1v4.8h1l.1.1v.5Zm.1-9.2a1.884,1.884,0,0,1-.4.9,1.7,1.7,0,0,1-.6.6,2.6,2.6,0,0,1-2,0,.9.9,0,0,1-.6-.6,2.39,2.39,0,0,1-.3-.9c0-.3-.1-.8-.1-1.2a4.121,4.121,0,0,1,.1-1.2,1.884,1.884,0,0,1,.4-.9,1.7,1.7,0,0,1,.6-.6,2.6,2.6,0,0,1,2,0,.9.9,0,0,1,.6.6,3.178,3.178,0,0,1,.3.9,4.869,4.869,0,0,1,.1,1.2C23.6,13.3,23.5,13.7,23.5,14Z" fill="#0078d7"/>
          </g>
        </g>
      </g>
    </symbol>
    <symbol id="New_Symbol_105" data-name="New Symbol 105" viewBox="0 0 60 46.5">
      <polygon points="13.75 46.5 60 46.5 35 3.25 27.5 24.25 42 41.5 13.75 46.5" fill="#0078d7"/>
      <polygon points="33 0 15.25 15 0 41.25 13.75 41.25 13.75 41.5 33 0" fill="#0078d7"/>
    </symbol>
  </defs>
  <title>9 - back-up-restore-to-azure-blob</title>
  <g id="background_blue" data-name="background blue">
    <rect width="298" height="110" fill="#e4edf1"/>
  </g>
  <g id="Shapes">
    <g>
      <g>
        <path d="M178.8,22.63a44.589,44.589,0,0,0-59.962,0" fill="none" stroke="#000" stroke-miterlimit="10"/>
        <path d="M118.834,88.461a44.587,44.587,0,0,0,59.962,0" fill="none" stroke="#000" stroke-miterlimit="10"/>
        <path d="M250.625,22.63H178.8a44.461,44.461,0,0,1,0,65.831h71.829A10.041,10.041,0,0,0,260.637,78.45V32.642A10.042,10.042,0,0,0,250.625,22.63Z" fill="none" stroke="#000" stroke-miterlimit="10"/>
        <path d="M104.262,55.546A44.361,44.361,0,0,1,118.834,22.63H47.005A10.042,10.042,0,0,0,36.993,32.642V78.45A10.041,10.041,0,0,0,47.005,88.461h71.829A44.358,44.358,0,0,1,104.262,55.546Z" fill="none" stroke="#000" stroke-miterlimit="10"/>
      </g>
      <use width="38.5" height="33.4" transform="translate(200.932 35.546) scale(1.198)" xlink:href="#AzureStorageBlob"/>
      <use width="60" height="46.5" transform="translate(44.633 35.546) scale(0.86 0.86)" xlink:href="#New_Symbol_105"/>
      <path d="M141.825,63.853a3.322,3.322,0,0,1-1.307,2.81,5.84,5.84,0,0,1-3.615,1,6.829,6.829,0,0,1-3.28-.712V64.1a5.05,5.05,0,0,0,3.35,1.3,2.272,2.272,0,0,0,1.367-.355,1.112,1.112,0,0,0,.483-.943,1.324,1.324,0,0,0-.465-1A8.51,8.51,0,0,0,136.47,62q-2.9-1.37-2.9-3.735a3.374,3.374,0,0,1,1.265-2.753,5.141,5.141,0,0,1,3.36-1.035,8.366,8.366,0,0,1,3.078.49v2.658a5,5,0,0,0-2.918-.89,2.165,2.165,0,0,0-1.3.35,1.111,1.111,0,0,0-.477.937,1.344,1.344,0,0,0,.385.993,6.173,6.173,0,0,0,1.577.955,7.8,7.8,0,0,1,2.533,1.717A3.206,3.206,0,0,1,141.825,63.853ZM154.7,57.586a5.517,5.517,0,0,0-2.147-2.3,6.092,6.092,0,0,0-3.135-.81,6.56,6.56,0,0,0-3.325.835,5.707,5.707,0,0,0-2.25,2.388,7.606,7.606,0,0,0-.8,3.535,7.086,7.086,0,0,0,.737,3.242,5.619,5.619,0,0,0,2.095,2.29,6.112,6.112,0,0,0,3.045.9l2.625,2.962h3.713L151.58,67.2a5.421,5.421,0,0,0,2.863-2.32,7.969,7.969,0,0,0,.257-7.292ZM151.593,64.1a2.845,2.845,0,0,1-2.343,1.08,2.81,2.81,0,0,1-2.325-1.115,5.511,5.511,0,0,1,.018-5.987,2.875,2.875,0,0,1,2.377-1.128,2.718,2.718,0,0,1,2.3,1.125,5.018,5.018,0,0,1,.84,3.065A4.591,4.591,0,0,1,151.593,64.1Zm13.517,1.01h-4.7V54.686H157.56V67.438h7.55Zm-16.3-39.562c-12.427,0-22.5,3.917-22.5,8.75V76.8c0,4.832,10.073,8.75,22.5,8.75s22.5-3.918,22.5-8.75V34.3C171.315,29.463,161.243,25.546,148.815,25.546Zm0,2.5c12.94,0,20,4.127,20,6.25s-7.06,6.25-20,6.25-20-4.128-20-6.25S135.875,28.046,148.815,28.046Zm0,55c-12.94,0-20-4.128-20-6.25v-38.5c3.735,2.82,11.28,4.753,20,4.753,8.76,0,16.333-1.95,20.048-4.793L168.815,76.8C168.815,78.918,161.755,83.046,148.815,83.046Z"/>
    </g>
  </g>
</svg>
