<svg xmlns="http://www.w3.org/2000/svg" viewBox="0 0 298 110">
  <title>8 - use-heir-data</title>
  <g id="background_blue" data-name="background blue">
    <rect x="0.062" width="298" height="110" fill="#e4edf1"/>
  </g>
  <g id="Shapes">
    <g>
      <g>
        <rect x="187.579" y="13.136" width="55.264" height="66.991" fill-opacity="0"/>
        <rect x="190.275" y="13.136" width="50.411" height="66.991" fill-opacity="0"/>
        <path d="M190.275,22.3V70.961c0,4.987,11.322,9.166,25.2,9.166V22.3Z" fill="#0072c6"/>
        <path d="M215.076,80.127h.4c14.019,0,25.206-4.044,25.206-9.166V22.3h-25.61V80.127Z" fill="#0072c6"/>
        <path d="M215.076,80.127h.4c14.019,0,25.206-4.044,25.206-9.166V22.3h-25.61V80.127Z" fill="#fff" opacity="0.15" style="isolation: isolate"/>
        <path d="M240.686,22.3c0,4.987-11.322,9.166-25.206,9.166s-25.2-4.044-25.2-9.166c0-4.987,11.322-9.166,25.2-9.166S240.686,17.315,240.686,22.3Z" fill="#fff"/>
        <path d="M235.564,21.9c0,3.235-9.031,5.93-20.084,5.93S195.4,25.133,195.4,21.9c0-3.37,9.031-6.066,20.083-6.066S235.564,18.528,235.564,21.9Z" fill="#7fba00"/>
        <path d="M231.386,25.537c2.695-1.078,4.178-2.291,4.178-3.639,0-3.37-9.031-6.066-20.084-6.066S195.4,18.528,195.4,21.9c0,1.348,1.617,2.7,4.178,3.639,3.64-1.483,9.436-2.291,15.905-2.291C221.95,23.111,227.746,24.054,231.386,25.537Z" fill="#b8d432"/>
        <rect x="187.579" y="36.051" width="55.264" height="29.654" fill-opacity="0"/>
        <path d="M197.668,57.074V53.915A6.158,6.158,0,0,0,199.534,55a6.067,6.067,0,0,0,2.033.355,4.47,4.47,0,0,0,1.047-.108,2.512,2.512,0,0,0,.75-.3,1.367,1.367,0,0,0,.454-.455,1.153,1.153,0,0,0,.148-.572,1.229,1.229,0,0,0-.237-.741,2.524,2.524,0,0,0-.651-.6,6.551,6.551,0,0,0-.968-.533q-.562-.256-1.214-.523a6.248,6.248,0,0,1-2.478-1.688,3.7,3.7,0,0,1-.809-2.409,3.814,3.814,0,0,1,.444-1.9,3.77,3.77,0,0,1,1.2-1.313,5.417,5.417,0,0,1,1.777-.75,8.913,8.913,0,0,1,2.133-.247,12.291,12.291,0,0,1,1.954.138,7.529,7.529,0,0,1,1.58.405v2.952a4.643,4.643,0,0,0-.78-.434,5.552,5.552,0,0,0-.859-.307,6.373,6.373,0,0,0-1.718-.246,4.18,4.18,0,0,0-.987.108,2.451,2.451,0,0,0-.75.287,1.427,1.427,0,0,0-.474.454,1.039,1.039,0,0,0-.168.582,1.147,1.147,0,0,0,.188.642,2.257,2.257,0,0,0,.533.533,6.273,6.273,0,0,0,.839.494q.494.237,1.116.493a11.889,11.889,0,0,1,1.52.76,5.288,5.288,0,0,1,1.165.9,3.5,3.5,0,0,1,.74,1.155,4.565,4.565,0,0,1-.2,3.5,3.656,3.656,0,0,1-1.215,1.3,5.352,5.352,0,0,1-1.8.711,10.344,10.344,0,0,1-2.152.217,12.045,12.045,0,0,1-2.222-.2A6.679,6.679,0,0,1,197.668,57.074Zm17.967.79a6.593,6.593,0,0,1-4.955-1.975,7.143,7.143,0,0,1-1.916-5.163,7.636,7.636,0,0,1,1.945-5.43,6.714,6.714,0,0,1,5.153-2.073,6.41,6.41,0,0,1,4.9,1.985,7.28,7.28,0,0,1,1.876,5.232,7.5,7.5,0,0,1-1.945,5.38c-.046.046-.089.092-.128.138s-.083.079-.129.119l3.584,3.445h-4.462l-1.876-1.905A7.925,7.925,0,0,1,215.635,57.864Zm.139-11.9a3.223,3.223,0,0,0-2.666,1.263,5.229,5.229,0,0,0-.987,3.327,5.152,5.152,0,0,0,.987,3.327,3.163,3.163,0,0,0,2.587,1.224,3.2,3.2,0,0,0,2.616-1.184,5.143,5.143,0,0,0,.967-3.308,5.541,5.541,0,0,0-.938-3.425A3.04,3.04,0,0,0,215.774,45.968Zm17.651,11.649h-8.431V43.46h3.189V55.031h5.242Z" fill="#fff"/>
      </g>
      <g>
        <rect x="97.746" y="69.692" width="15.721" height="4.612" fill="#ff8c00"/>
        <rect x="97.746" y="76.447" width="15.721" height="4.612" fill="#333"/>
        <rect x="97.746" y="83.201" width="15.721" height="4.612" fill="#00b294"/>
        <rect x="97.746" y="89.955" width="15.721" height="4.612" fill="#333"/>
        <rect x="157.369" y="57.659" width="15.721" height="4.612" fill="#ff8c00"/>
        <rect x="157.369" y="64.414" width="15.721" height="4.612" fill="#333"/>
        <rect x="157.369" y="86.578" width="15.721" height="4.612" fill="#00b294"/>
        <rect x="157.369" y="93.333" width="15.721" height="4.612" fill="#ff8c00"/>
        <rect x="129.156" y="69.702" width="15.722" height="4.612" fill="#ff8c00"/>
        <rect x="129.156" y="76.454" width="15.722" height="4.611" fill="#00b294"/>
        <rect x="129.156" y="83.205" width="15.722" height="4.612" fill="#ff8c00"/>
        <rect x="129.156" y="51.764" width="15.722" height="4.612" fill="#333"/>
        <rect x="129.156" y="89.955" width="15.722" height="4.612" fill="#333"/>
        <line x1="113.467" y1="69.692" x2="129.156" y2="56.376" fill="none" stroke="#333" stroke-miterlimit="10" stroke-width="0.456"/>
        <line x1="113.467" y1="76.447" x2="129.156" y2="81.065" fill="none" stroke="#333" stroke-miterlimit="10" stroke-width="0.456"/>
        <line x1="144.878" y1="76.454" x2="157.369" y2="69.025" fill="none" stroke="#333" stroke-miterlimit="10" stroke-width="0.456"/>
        <line x1="144.878" y1="74.315" x2="157.369" y2="57.659" fill="none" stroke="#333" stroke-miterlimit="10" stroke-width="0.456"/>
        <line x1="157.369" y1="91.19" x2="144.878" y2="83.205" fill="none" stroke="#333" stroke-miterlimit="10" stroke-width="0.456"/>
        <line x1="157.369" y1="97.944" x2="144.878" y2="89.955" fill="none" stroke="#333" stroke-miterlimit="10" stroke-width="0.456"/>
        <line x1="113.467" y1="83.201" x2="129.156" y2="87.816" fill="none" stroke="#333" stroke-miterlimit="10" stroke-width="0.456"/>
        <line x1="113.467" y1="94.566" x2="129.156" y2="89.955" fill="none" stroke="#333" stroke-miterlimit="10" stroke-width="0.456"/>
        <line x1="129.156" y1="74.315" x2="113.467" y2="74.304" fill="none" stroke="#333" stroke-miterlimit="10" stroke-width="0.456"/>
      </g>
      <g>
        <path d="M53.925,57.451a2.042,2.042,0,0,0,1.955,2.063h50.288a2.062,2.062,0,0,0,2.064-2.063V21.5H53.925Z" fill="#a0a1a2"/>
        <path d="M106.168,13.136H55.88A2.042,2.042,0,0,0,53.925,15.2v6.191h54.307V15.2a2.063,2.063,0,0,0-2.064-2.064" fill="#7a7a7a"/>
        <rect x="57.944" y="25.192" width="13.034" height="30.195" fill="#ff8c00"/>
        <rect x="74.562" y="25.192" width="13.034" height="30.195" fill="#00b294"/>
        <rect x="91.179" y="25.192" width="13.034" height="30.195" fill="#00b294"/>
        <path d="M56.1,13.136a2.179,2.179,0,0,0-2.172,2.173V57.234A2.179,2.179,0,0,0,56.1,59.406h2.39l42.794-46.27Z" fill="#fff" opacity="0.2" style="isolation: isolate"/>
      </g>
      <g>
        <path d="M70.7,68.339a22.444,22.444,0,0,0,16.97,18.506" fill="none" stroke="#75757a" stroke-miterlimit="10"/>
        <polygon points="83.445 89.886 82.971 89.004 87.32 86.679 84.683 82.512 85.53 81.977 88.739 87.053 83.445 89.886" fill="#75757a"/>
      </g>
    </g>
    <polygon points="253.235 62.538 248.849 58.151 234.613 72.39 227.038 64.815 222.652 69.201 234.604 81.151 234.613 81.142 234.622 81.151 253.235 62.538" fill="#ff8c00"/>
  </g>
</svg>
