<svg xmlns="http://www.w3.org/2000/svg" viewBox="0 0 298 110">
  <title>8 - writing-t-sql</title>
  <g id="background_blue" data-name="background blue">
    <rect x="0.031" width="298" height="110" fill="#e4edf1"/>
  </g>
  <g id="Shapes">
    <g>
      <g>
        <path d="M149.233,83.451H122.625c3.13,11.152-1.174,12.913-19.957,12.913v5.87h63.783v-5.87C147.864,96.364,146.1,94.8,149.233,83.451Z" fill="#7a7a7a"/>
        <path d="M177.8,12.234H91.125a5.43,5.43,0,0,0-5.283,5.478V77.973a5.43,5.43,0,0,0,5.283,5.478H177.8c2.934,0,5.869-2.543,5.869-5.478V17.712C183.668,14.777,180.733,12.234,177.8,12.234Zm-1.566,7.434V75.821H93.277V19.668l82.956-.2Z" fill="#3e3e3e"/>
        <polygon points="176.038 19.668 176.038 76.016 93.277 76.016 93.277 19.668 176.233 19.668 176.038 19.668" fill="#fff"/>
        <path d="M93.277,76.016h0V19.668h75.717l8.805-7.434H91.125a5.43,5.43,0,0,0-5.283,5.478V77.973a5.43,5.43,0,0,0,5.283,5.478h2.152l9-7.435Z" fill="#7a7a7a"/>
        <polygon points="93.277 76.016 93.277 76.016 93.277 19.668 168.994 19.668 168.994 19.668 93.277 19.668 93.277 76.016" fill="#59b4d9"/>
        <rect x="102.864" y="96.364" width="63.978" height="5.87" fill="#b0b0b0"/>
      </g>
      <g>
        <path d="M147.5,34.937l-.572-.572a3.219,3.219,0,0,0-4.554,0l0,0L123.627,53.158l-2.56,7.65,7.689-2.561L147.5,39.47A3.219,3.219,0,0,0,147.5,34.937Z" fill="#fff"/>
        <rect x="122.058" y="46.132" width="26.571" height="2.416" transform="translate(6.167 109.568) rotate(-45)" fill="#e5e5e5"/>
        <polygon points="128.66 57.78 128.539 57.893 121.703 60.171 123.982 53.335 124.102 53.223 128.66 57.78" fill="#2bc7f4"/>
        <path d="M148.041,37.215a2.8,2.8,0,0,1-.806,2l-1.892,1.868-4.557-4.557,1.876-1.884a2.826,2.826,0,0,1,4-.029l.029.029.572.572A2.778,2.778,0,0,1,148.041,37.215Z" fill="#2bc7f4"/>
        <path d="M119.791,62.08l3.132-9.357L141.8,33.8a4.031,4.031,0,0,1,5.7,0l.575.575a4.04,4.04,0,0,1,0,5.666L129.191,58.951Zm4.54-8.487-1.989,5.941,5.979-1.991L146.931,38.9a2.423,2.423,0,0,0,0-3.4l-.57-.57a2.419,2.419,0,0,0-3.416,0Z" fill="#3c3c41"/>
        <path d="M147.638,68.867h.419a4.828,4.828,0,0,0,3.293-1.441c.805-.805,1.111-2.206,1.111-4.71v-7.73a9.4,9.4,0,0,1,1.691-5.282,4.747,4.747,0,0,1,2.577-2.021c-2.827-.966-4.26-3.382-4.26-7.142V32.682c0-2.52-.338-3.945-1.127-4.758a5.022,5.022,0,0,0-3.358-1.45h-.394l.121-1.61h.41a6.651,6.651,0,0,1,4.348,1.94c1.1,1.136,1.611,2.891,1.611,5.878v7.859c0,3.39,1.368,5.3,4.178,5.829l.653.121V48.81l-.628.121a3.725,3.725,0,0,0-2.722,1.61,7.9,7.9,0,0,0-1.481,4.405v7.73c0,2.971-.467,4.71-1.611,5.837a6.328,6.328,0,0,1-4.259,1.917h-.387Z" fill="#3c3c41"/>
        <path d="M121.872,68.867h-.419a4.828,4.828,0,0,1-3.293-1.441c-.8-.805-1.111-2.206-1.111-4.71v-7.73a9.4,9.4,0,0,0-1.691-5.282,4.747,4.747,0,0,0-2.577-2.021c2.827-.966,4.26-3.382,4.26-7.142V32.682c0-2.52.338-3.945,1.127-4.758a5.024,5.024,0,0,1,3.358-1.45h.394l-.12-1.61h-.411a6.651,6.651,0,0,0-4.348,1.94c-1.1,1.136-1.611,2.891-1.611,5.878v7.859c0,3.39-1.368,5.3-4.178,5.829l-.653.129V48.81l.628.121a3.725,3.725,0,0,1,2.722,1.61,7.9,7.9,0,0,1,1.481,4.405v7.73c0,2.971.468,4.71,1.611,5.837A6.328,6.328,0,0,0,121.3,70.43h.387Z" fill="#3c3c41"/>
        <rect x="125.632" y="51.892" width="1.61" height="6.718" transform="translate(-2.032 105.598) rotate(-45.005)" fill="#556a8a"/>
      </g>
      <g>
        <path d="M210.6,62.234H180.926v40H210.6a2.221,2.221,0,0,0,2.325-2.083V64.318A2.221,2.221,0,0,0,210.6,62.234Zm-5.675,15.221h-16V72.484h16Z" fill="#59b4d9"/>
        <polygon points="208.096 75.984 203.88 73.484 199.662 75.984 199.662 62.234 208.096 62.234 208.096 75.984" fill="#5e5e5e"/>
      </g>
    </g>
  </g>
</svg>
