<svg width="4193" height="1803" xmlns="http://www.w3.org/2000/svg" xmlns:xlink="http://www.w3.org/1999/xlink" xml:space="preserve" overflow="hidden"><defs><clipPath id="clip0"><rect x="105" y="625" width="4193" height="1803"/></clipPath><linearGradient x1="3662.21" y1="2077.48" x2="3662.21" y2="2136.1" gradientUnits="userSpaceOnUse" spreadMethod="reflect" id="fill1"><stop offset="0"/><stop offset="0.02917"/><stop offset="0.3"/><stop offset="1"/></linearGradient></defs><g clip-path="url(#clip0)" transform="translate(-105 -625)"><path d="M2669 930 2669 971.076 4089.08 971.076 4089.08 1012.15" stroke="#5A5A5A" stroke-width="3.89583" stroke-linejoin="round" stroke-miterlimit="10" fill="none" fill-rule="evenodd"/><path d="M2669 930 2669 971.076 3615.72 971.076 3615.72 1012.15" stroke="#5A5A5A" stroke-width="3.89583" stroke-linejoin="round" stroke-miterlimit="10" fill="none" fill-rule="evenodd"/><path d="M2669 930 2669 971.076 3142.36 971.076 3142.36 1012.15" stroke="#5A5A5A" stroke-width="3.89583" stroke-linejoin="round" stroke-miterlimit="10" fill="none" fill-rule="evenodd"/><path d="M2513 1208 2513 1665.71 2571.68 1665.71" stroke="#686868" stroke-width="3.89583" stroke-linejoin="round" stroke-miterlimit="10" fill="none" fill-rule="evenodd"/><path d="M2513 1208 2513 1387.95 2571.68 1387.95" stroke="#686868" stroke-width="3.89583" stroke-linejoin="round" stroke-miterlimit="10" fill="none" fill-rule="evenodd"/><path d="M2669.5 930 2669.5 1012.15" stroke="#5A5A5A" stroke-width="3.89583" stroke-linejoin="round" stroke-miterlimit="10" fill="none" fill-rule="evenodd"/><path d="M2669.36 930 2669.36 971.076 2196 971.076 2196 1012.15" stroke="#5A5A5A" stroke-width="3.89583" stroke-linejoin="round" stroke-miterlimit="10" fill="none" fill-rule="evenodd"/><path d="M2669.72 930 2669.72 971.076 1723 971.076 1723 1012.15" stroke="#5A5A5A" stroke-width="3.89583" stroke-linejoin="round" stroke-miterlimit="10" fill="none" fill-rule="evenodd"/><path d="M2040 1485 2040 2223.98 2104.98 2223.98" stroke="#686868" stroke-width="3.89583" stroke-linejoin="round" stroke-miterlimit="10" fill="none" fill-rule="evenodd"/><path d="M2040 1485 2040 1942.71 2098.68 1942.71" stroke="#686868" stroke-width="3.89583" stroke-linejoin="round" stroke-miterlimit="10" fill="none" fill-rule="evenodd"/><path d="M2040 1485 2040 1668.47 2104.98 1668.47" stroke="#686868" stroke-width="3.89583" stroke-linejoin="round" stroke-miterlimit="10" fill="none" fill-rule="evenodd"/><path d="M1249 1208 1249 1249.08 2195.72 1249.08 2195.72 1290.15" stroke="#686868" stroke-width="3.89583" stroke-linejoin="round" stroke-miterlimit="10" fill="none" fill-rule="evenodd"/><path d="M1249 1208 1249 1249.08 1722.36 1249.08 1722.36 1290.15" stroke="#686868" stroke-width="3.89583" stroke-linejoin="round" stroke-miterlimit="10" fill="none" fill-rule="evenodd"/><path d="M1249.5 1208 1249.5 1290.15" stroke="#686868" stroke-width="3.89583" stroke-linejoin="round" stroke-miterlimit="10" fill="none" fill-rule="evenodd"/><path d="M1249.36 1208 1249.36 1249.08 776 1249.08 776 1290.15" stroke="#686868" stroke-width="3.89583" stroke-linejoin="round" stroke-miterlimit="10" fill="none" fill-rule="evenodd"/><path d="M146 1485 146 1664.95 204.681 1664.95" stroke="#686868" stroke-width="3.89583" stroke-linejoin="round" stroke-miterlimit="10" fill="none" fill-rule="evenodd"/><path d="M1249.72 1208 1249.72 1249.08 303 1249.08 303 1290.15" stroke="#686868" stroke-width="3.89583" stroke-linejoin="round" stroke-miterlimit="10" fill="none" fill-rule="evenodd"/><path d="M2669.08 930 2669.08 971.076 1249 971.076 1249 1012.15" stroke="#5A5A5A" stroke-width="3.89583" stroke-linejoin="round" stroke-miterlimit="10" fill="none" fill-rule="evenodd"/><rect x="2474" y="734" width="391" height="196" stroke="#D5D5D5" stroke-width="3.89583" stroke-linejoin="round" stroke-miterlimit="10" fill="#D3D3D3"/><text font-family="Segoe UI,Segoe UI_MSFontService,sans-serif" font-weight="400" font-size="46" transform="matrix(1 0 0 1 2500.12 820)">Intelligent Query <tspan font-size="46" x="60.9812" y="55">Processing</tspan></text><rect x="1054" y="1012" width="391" height="196" stroke="#D5D5D5" stroke-width="3.89583" stroke-linejoin="round" stroke-miterlimit="10" fill="#C3E5FF"/><text font-family="Segoe UI,Segoe UI_MSFontService,sans-serif" font-weight="400" font-size="46" transform="matrix(1 0 0 1 1092.03 1098)">Adaptive Query <tspan font-size="46" x="48.9957" y="55">Processing</tspan></text><rect x="107" y="1290" width="391" height="195" stroke="#D5D5D5" stroke-width="3.89583" stroke-linejoin="round" stroke-miterlimit="10" fill="#C3E5FF"/><text font-family="Segoe UI,Segoe UI_MSFontService,sans-serif" font-weight="400" font-size="46" transform="matrix(1 0 0 1 156.745 1403)">Adaptive Joins</text><rect x="205" y="1568" width="391" height="195" stroke="#D5D5D5" stroke-width="3.89583" stroke-linejoin="round" stroke-miterlimit="10" fill="#C3E5FF"/><text font-family="Segoe UI,Segoe UI_MSFontService,sans-serif" font-weight="400" font-size="46" transform="matrix(1 0 0 1 278.482 1681)">Batch Mode</text><rect x="580" y="1290" width="392" height="195" stroke="#D5D5D5" stroke-width="3.89583" stroke-linejoin="round" stroke-miterlimit="10" fill="#C3E5FF"/><text font-family="Segoe UI,Segoe UI_MSFontService,sans-serif" font-weight="400" font-size="46" transform="matrix(1 0 0 1 663.493 1376)">Interleaved <tspan font-size="46" x="15.0563" y="55">Execution</tspan></text><rect x="1054" y="1290" width="391" height="195" stroke="#D5D5D5" stroke-width="3.89583" stroke-linejoin="round" stroke-miterlimit="10" fill="#F37B29"/><text fill="#FFFFFF" font-family="Segoe UI,Segoe UI_MSFontService,sans-serif" font-weight="700" font-size="46" transform="matrix(1 0 0 1 1115.23 1403)">CE Feedback</text><rect x="1527" y="1290" width="391" height="195" stroke="#D5D5D5" stroke-width="3.89583" stroke-linejoin="round" stroke-miterlimit="10" fill="#F37B29"/><text fill="#FFFFFF" font-family="Segoe UI,Segoe UI_MSFontService,sans-serif" font-weight="700" font-size="46" transform="matrix(1 0 0 1 1566.72 1403)">DOP Feedback</text><rect x="2000" y="1290" width="392" height="195" stroke="#D5D5D5" stroke-width="3.89583" stroke-linejoin="round" stroke-miterlimit="10" fill="#C3E5FF"/><text font-family="Segoe UI,Segoe UI_MSFontService,sans-serif" font-weight="400" font-size="46" transform="matrix(1 0 0 1 2048.85 1376)">Memory Grant <tspan font-size="46" x="51.3792" y="55">Feedback</tspan></text><rect x="2105.5" y="1571.5" width="391" height="196" stroke="#E8E8E8" stroke-width="4.58333" stroke-linejoin="round" stroke-miterlimit="10" fill="#F37B29"/><text fill="#FFFFFF" font-family="Segoe UI,Segoe UI_MSFontService,sans-serif" font-weight="700" font-size="46" transform="matrix(1 0 0 1 2198.85 1630)">Feedback <tspan font-size="46" x="-66.2979" y="55">Persistence and </tspan><tspan font-size="46" x="-5.9353" y="110">Percentile</tspan></text><rect x="2098" y="1845" width="391" height="196" stroke="#F1690D" stroke-width="10.3125" stroke-linejoin="round" stroke-miterlimit="10" fill="#C3E5FF"/><text font-family="Segoe UI,Segoe UI_MSFontService,sans-serif" font-weight="400" font-size="46" transform="matrix(1 0 0 1 2171.92 1959)">Batch <tspan font-size="46" x="124.804" y="0">Mode</tspan></text><rect x="2105" y="2127" width="391" height="195" stroke="#F37B29" stroke-width="10.3125" stroke-linejoin="round" stroke-miterlimit="10" fill="#D3D3D3"/><text font-family="Segoe UI,Segoe UI_MSFontService,sans-serif" font-weight="400" font-size="46" transform="matrix(1 0 0 1 2190.65 2240)">Row Mode</text><rect x="1527" y="1012" width="391" height="196" stroke="#D5D5D5" stroke-width="3.89583" stroke-linejoin="round" stroke-miterlimit="10" fill="#D3D3D3"/><text font-family="Segoe UI,Segoe UI_MSFontService,sans-serif" font-weight="400" font-size="46" transform="matrix(1 0 0 1 1579.62 1071)">Table Variable <tspan font-size="46" x="54.4042" y="55">Deferred </tspan><tspan font-size="46" x="19.7313" y="110">Compilation</tspan></text><rect x="2000" y="1012" width="392" height="196" stroke="#D5D5D5" stroke-width="3.89583" stroke-linejoin="round" stroke-miterlimit="10" fill="#D3D3D3"/><text font-family="Segoe UI,Segoe UI_MSFontService,sans-serif" font-weight="400" font-size="46" transform="matrix(1 0 0 1 2039.27 1098)">Batch Mode for <tspan font-size="46" x="53.4417" y="55">Row Store</tspan></text><rect x="2474" y="1012" width="391" height="196" stroke="#D5D5D5" stroke-width="3.89583" stroke-linejoin="round" stroke-miterlimit="10" fill="#D3D3D3"/><text font-family="Segoe UI,Segoe UI_MSFontService,sans-serif" font-weight="400" font-size="46" transform="matrix(1 0 0 1 2539.02 1098)">Approximate <tspan font-size="46" x="-45.4897" y="55">Query Processing</tspan></text><rect x="2572" y="1290" width="391" height="195" stroke="#D5D5D5" stroke-width="3.89583" stroke-linejoin="round" stroke-miterlimit="10" fill="#D3D3D3"/><text font-family="Segoe UI,Segoe UI_MSFontService,sans-serif" font-weight="400" font-size="46" transform="matrix(1 0 0 1 2636.81 1376)">Approximate <tspan font-size="46" x="-13.2229" y="55">Count Distinct</tspan></text><rect x="2572" y="1568" width="391" height="195" stroke="#D5D5D5" stroke-width="3.89583" stroke-linejoin="round" stroke-miterlimit="10" fill="#F37B29"/><text fill="#FFFFFF" font-family="Segoe UI,Segoe UI_MSFontService,sans-serif" font-weight="700" font-size="46" transform="matrix(1 0 0 1 2625.72 1654)">Approximate<tspan font-size="46" x="34.2603" y="55">Percentile</tspan></text><rect x="2947" y="1012" width="391" height="196" stroke="#D5D5D5" stroke-width="3.89583" stroke-linejoin="round" stroke-miterlimit="10" fill="#D3D3D3"/><text font-family="Segoe UI,Segoe UI_MSFontService,sans-serif" font-weight="400" font-size="46" transform="matrix(1 0 0 1 2952.42 1125)">Scalar UDF Inlining</text><rect x="3420" y="1012" width="392" height="196" stroke="#D5D5D5" stroke-width="3.89583" stroke-linejoin="round" stroke-miterlimit="10" fill="#F37B29"/><text fill="#FFFFFF" font-family="Segoe UI,Segoe UI_MSFontService,sans-serif" font-weight="700" font-size="46" transform="matrix(1 0 0 1 3504.41 1071)">Parameter <tspan font-size="46" x="-37.377" y="55">Sensitive Plan </tspan><tspan font-size="46" x="-29.4478" y="110">Optimization</tspan></text><rect x="3894" y="1012" width="391" height="196" stroke="#D5D5D5" stroke-width="3.89583" stroke-linejoin="round" stroke-miterlimit="10" fill="#F37B29"/><text fill="#FFFFFF" font-family="Segoe UI,Segoe UI_MSFontService,sans-serif" font-weight="700" font-size="46" transform="matrix(1 0 0 1 3924.26 1098)">Optimized Plan <tspan font-size="46" x="84.5855" y="55">Forcing</tspan></text><path d="M3968.46 2120.63C3969.21 2120.63 3969.84 2120.9 3970.37 2121.43 3970.9 2121.97 3971.16 2122.6 3971.16 2123.34 3971.16 2124.07 3970.9 2124.7 3970.37 2125.23 3969.84 2125.75 3969.21 2126.02 3968.46 2126.02 3967.72 2126.02 3967.1 2125.75 3966.58 2125.23 3966.06 2124.7 3965.8 2124.07 3965.8 2123.34 3965.8 2122.6 3966.06 2121.97 3966.58 2121.43 3967.1 2120.9 3967.72 2120.63 3968.46 2120.63ZM3921.62 2103.72C3919.1 2103.72 3917.11 2104.57 3915.64 2106.29 3914.17 2108 3913.44 2110.37 3913.44 2113.38 3913.44 2116.29 3914.18 2118.57 3915.66 2120.25 3917.15 2121.92 3919.13 2122.76 3921.62 2122.76 3924.16 2122.76 3926.11 2121.94 3927.47 2120.3 3928.83 2118.65 3929.52 2116.32 3929.52 2113.29 3929.52 2110.22 3928.83 2107.86 3927.47 2106.21 3926.11 2104.55 3924.16 2103.72 3921.62 2103.72ZM3844.64 2103.72C3842.79 2103.72 3841.22 2104.38 3839.93 2105.7 3838.63 2107.03 3837.84 2108.76 3837.53 2110.89L3850.76 2110.89C3850.75 2108.63 3850.2 2106.87 3849.12 2105.61 3848.05 2104.35 3846.55 2103.72 3844.64 2103.72ZM3675.14 2103.72C3672.75 2103.72 3670.87 2104.59 3669.49 2106.35 3668.12 2108.1 3667.44 2110.53 3667.44 2113.62 3667.44 2116.45 3668.1 2118.67 3669.41 2120.31 3670.73 2121.94 3672.49 2122.76 3674.71 2122.76 3676.9 2122.76 3678.67 2121.97 3680.03 2120.39 3681.4 2118.81 3682.08 2116.82 3682.08 2114.41L3682.08 2110.8C3682.08 2108.82 3681.43 2107.15 3680.12 2105.77 3678.81 2104.4 3677.15 2103.72 3675.14 2103.72ZM3648.64 2103.72C3646.79 2103.72 3645.22 2104.38 3643.93 2105.7 3642.63 2107.03 3641.84 2108.76 3641.53 2110.89L3654.76 2110.89C3654.75 2108.63 3654.2 2106.87 3653.12 2105.61 3652.05 2104.35 3650.55 2103.72 3648.64 2103.72ZM3571.14 2103.72C3568.75 2103.72 3566.87 2104.59 3565.49 2106.35 3564.12 2108.1 3563.44 2110.53 3563.44 2113.62 3563.44 2116.45 3564.1 2118.67 3565.41 2120.31 3566.73 2121.94 3568.49 2122.76 3570.71 2122.76 3572.9 2122.76 3574.67 2121.97 3576.03 2120.39 3577.4 2118.81 3578.08 2116.82 3578.08 2114.41L3578.08 2110.8C3578.08 2108.82 3577.43 2107.15 3576.12 2105.77 3574.81 2104.4 3573.15 2103.72 3571.14 2103.72ZM3542.62 2103.72C3540.1 2103.72 3538.11 2104.57 3536.64 2106.29 3535.17 2108 3534.44 2110.37 3534.44 2113.38 3534.44 2116.29 3535.18 2118.57 3536.66 2120.25 3538.15 2121.92 3540.13 2122.76 3542.62 2122.76 3545.16 2122.76 3547.11 2121.94 3548.47 2120.3 3549.83 2118.65 3550.52 2116.32 3550.52 2113.29 3550.52 2110.22 3549.83 2107.86 3548.47 2106.21 3547.11 2104.55 3545.16 2103.72 3542.62 2103.72ZM3899.09 2100.99 3903.02 2100.99 3903.02 2125.49 3899.09 2125.49ZM3808.46 2100.99 3812.76 2100.99 3818.98 2118.79C3819.45 2120.1 3819.73 2121.24 3819.84 2122.21L3819.94 2122.21C3820.1 2120.98 3820.35 2119.87 3820.71 2118.89L3827.21 2100.99 3831.35 2100.99 3821.59 2125.49 3817.74 2125.49ZM3742.09 2100.99 3746.02 2100.99 3746.02 2125.49 3742.09 2125.49ZM3703.69 2100.99 3707.81 2100.99 3712.88 2119.41C3713.04 2119.97 3713.15 2120.7 3713.22 2121.61L3713.41 2121.61C3713.46 2120.91 3713.6 2120.16 3713.84 2119.36L3719.49 2100.99 3723.07 2100.99 3728.15 2119.46C3728.31 2120.05 3728.43 2120.78 3728.51 2121.66L3728.7 2121.66C3728.73 2121.04 3728.86 2120.31 3729.1 2119.46L3734.08 2100.99 3737.96 2100.99 3730.61 2125.49 3726.54 2125.49 3721.5 2107.95C3721.3 2107.28 3721.18 2106.52 3721.11 2105.68L3721.02 2105.68C3720.97 2106.25 3720.8 2106.99 3720.51 2107.9L3715.04 2125.49 3711.11 2125.49ZM3588.57 2100.99 3592.47 2100.99 3592.47 2115.01C3592.47 2120.18 3594.44 2122.76 3598.4 2122.76 3600.31 2122.76 3601.89 2122.06 3603.12 2120.64 3604.36 2119.23 3604.98 2117.39 3604.98 2115.11L3604.98 2100.99 3608.9 2100.99 3608.9 2125.49 3604.98 2125.49 3604.98 2121.61 3604.88 2121.61C3603.26 2124.58 3600.74 2126.06 3597.32 2126.06 3591.48 2126.06 3588.57 2122.59 3588.57 2115.63ZM3459.09 2100.99 3463.02 2100.99 3463.02 2125.49 3459.09 2125.49ZM3379.09 2100.99 3383.02 2100.99 3383.02 2125.49 3379.09 2125.49ZM3871.52 2100.56C3872.54 2100.56 3873.33 2100.67 3873.87 2100.89L3873.87 2104.96C3873.18 2104.43 3872.19 2104.17 3870.9 2104.17 3869.23 2104.17 3867.83 2104.96 3866.7 2106.54 3865.58 2108.12 3865.02 2110.27 3865.02 2113L3865.02 2125.49 3861.09 2125.49 3861.09 2100.99 3865.02 2100.99 3865.02 2106.04 3865.11 2106.04C3865.67 2104.31 3866.52 2102.97 3867.67 2102.01 3868.82 2101.04 3870.1 2100.56 3871.52 2100.56ZM3525.52 2100.56C3526.54 2100.56 3527.33 2100.67 3527.87 2100.89L3527.87 2104.96C3527.18 2104.43 3526.19 2104.17 3524.9 2104.17 3523.23 2104.17 3521.83 2104.96 3520.7 2106.54 3519.58 2108.12 3519.02 2110.27 3519.02 2113L3519.02 2125.49 3515.09 2125.49 3515.09 2100.99 3519.02 2100.99 3519.02 2106.04 3519.11 2106.04C3519.67 2104.31 3520.52 2102.97 3521.67 2102.01 3522.82 2101.04 3524.1 2100.56 3525.52 2100.56ZM3401.52 2100.56C3402.54 2100.56 3403.33 2100.67 3403.87 2100.89L3403.87 2104.96C3403.18 2104.43 3402.19 2104.17 3400.9 2104.17 3399.23 2104.17 3397.83 2104.96 3396.7 2106.54 3395.58 2108.12 3395.02 2110.27 3395.02 2113L3395.02 2125.49 3391.09 2125.49 3391.09 2100.99 3395.02 2100.99 3395.02 2106.04 3395.11 2106.04C3395.67 2104.31 3396.52 2102.97 3397.67 2102.01 3398.82 2101.04 3400.1 2100.56 3401.52 2100.56ZM3968.46 2100.46C3969.21 2100.46 3969.84 2100.72 3970.37 2101.23 3970.9 2101.74 3971.16 2102.36 3971.16 2103.09 3971.16 2103.83 3970.9 2104.46 3970.37 2104.98 3969.84 2105.51 3969.21 2105.77 3968.46 2105.77 3967.72 2105.77 3967.1 2105.51 3966.58 2104.98 3966.06 2104.46 3965.8 2103.83 3965.8 2103.09 3965.8 2102.36 3966.06 2101.74 3966.58 2101.23 3967.1 2100.72 3967.72 2100.46 3968.46 2100.46ZM3951.15 2100.42C3953.83 2100.42 3955.88 2101.28 3957.3 2103.01 3958.72 2104.74 3959.43 2107.24 3959.43 2110.51L3959.43 2125.49 3955.51 2125.49 3955.51 2111.52C3955.51 2106.32 3953.61 2103.72 3949.81 2103.72 3947.85 2103.72 3946.23 2104.45 3944.94 2105.93 3943.66 2107.41 3943.02 2109.27 3943.02 2111.52L3943.02 2125.49 3939.09 2125.49 3939.09 2100.99 3943.02 2100.99 3943.02 2105.06 3943.11 2105.06C3944.96 2101.96 3947.64 2100.42 3951.15 2100.42ZM3921.91 2100.42C3925.56 2100.42 3928.41 2101.54 3930.46 2103.79 3932.51 2106.04 3933.53 2109.16 3933.53 2113.14 3933.53 2117.05 3932.43 2120.18 3930.22 2122.53 3928.01 2124.89 3925.05 2126.06 3921.33 2126.06 3917.71 2126.06 3914.82 2124.92 3912.66 2122.63 3910.5 2120.34 3909.42 2117.31 3909.42 2113.53 3909.42 2109.41 3910.54 2106.2 3912.79 2103.88 3915.04 2101.57 3918.08 2100.42 3921.91 2100.42ZM3886.04 2100.42C3888.16 2100.42 3890.06 2100.78 3891.73 2101.52L3891.73 2105.49C3889.93 2104.31 3887.85 2103.72 3885.51 2103.72 3884.78 2103.72 3884.11 2103.8 3883.52 2103.97 3882.93 2104.14 3882.43 2104.37 3882 2104.67 3881.58 2104.98 3881.25 2105.34 3881.02 2105.76 3880.79 2106.19 3880.68 2106.65 3880.68 2107.16 3880.68 2107.8 3880.79 2108.33 3881.02 2108.77 3881.25 2109.2 3881.59 2109.58 3882.04 2109.91 3882.49 2110.25 3883.03 2110.55 3883.67 2110.82 3884.31 2111.09 3885.03 2111.39 3885.84 2111.71 3886.93 2112.12 3887.9 2112.55 3888.76 2112.99 3889.62 2113.43 3890.36 2113.92 3890.96 2114.47 3891.57 2115.02 3892.04 2115.66 3892.36 2116.37 3892.69 2117.09 3892.85 2117.94 3892.85 2118.93 3892.85 2120.15 3892.59 2121.2 3892.05 2122.09 3891.52 2122.98 3890.8 2123.73 3889.91 2124.32 3889.02 2124.91 3887.99 2125.35 3886.83 2125.63 3885.66 2125.92 3884.44 2126.06 3883.16 2126.06 3880.64 2126.06 3878.46 2125.58 3876.61 2124.6L3876.61 2120.39C3878.75 2121.97 3881.1 2122.76 3883.67 2122.76 3887.11 2122.76 3888.83 2121.61 3888.83 2119.32 3888.83 2118.66 3888.69 2118.11 3888.39 2117.65 3888.1 2117.2 3887.7 2116.8 3887.2 2116.45 3886.69 2116.09 3886.1 2115.78 3885.43 2115.5 3884.75 2115.22 3884.02 2114.93 3883.24 2114.63 3882.15 2114.2 3881.2 2113.76 3880.38 2113.32 3879.56 2112.88 3878.87 2112.39 3878.32 2111.84 3877.77 2111.29 3877.35 2110.66 3877.08 2109.96 3876.8 2109.26 3876.66 2108.44 3876.66 2107.5 3876.66 2106.35 3876.92 2105.33 3877.45 2104.45 3877.97 2103.56 3878.67 2102.82 3879.55 2102.22 3880.43 2101.62 3881.43 2101.17 3882.55 2100.87 3883.68 2100.57 3884.84 2100.42 3886.04 2100.42ZM3844.71 2100.42C3847.92 2100.42 3850.4 2101.45 3852.15 2103.53 3853.91 2105.6 3854.78 2108.48 3854.78 2112.16L3854.78 2114.22 3837.48 2114.22C3837.55 2116.95 3838.28 2119.05 3839.69 2120.54 3841.09 2122.02 3843.02 2122.76 3845.48 2122.76 3848.24 2122.76 3850.77 2121.85 3853.08 2120.03L3853.08 2123.72C3850.93 2125.28 3848.08 2126.06 3844.54 2126.06 3841.08 2126.06 3838.36 2124.95 3836.38 2122.73 3834.41 2120.5 3833.42 2117.37 3833.42 2113.33 3833.42 2109.52 3834.5 2106.42 3836.66 2104.02 3838.82 2101.62 3841.5 2100.42 3844.71 2100.42ZM3648.71 2100.42C3651.92 2100.42 3654.4 2101.45 3656.15 2103.53 3657.91 2105.6 3658.78 2108.48 3658.78 2112.16L3658.78 2114.22 3641.48 2114.22C3641.55 2116.95 3642.28 2119.05 3643.69 2120.54 3645.09 2122.02 3647.02 2122.76 3649.48 2122.76 3652.24 2122.76 3654.77 2121.85 3657.08 2120.03L3657.08 2123.72C3654.93 2125.28 3652.08 2126.06 3648.54 2126.06 3645.08 2126.06 3642.36 2124.95 3640.38 2122.73 3638.41 2120.5 3637.42 2117.37 3637.42 2113.33 3637.42 2109.52 3638.5 2106.42 3640.66 2104.02 3642.82 2101.62 3645.5 2100.42 3648.71 2100.42ZM3628.15 2100.42C3630.3 2100.42 3632.2 2100.81 3633.84 2101.61L3633.84 2105.63C3632.02 2104.35 3630.08 2103.72 3628 2103.72 3625.5 2103.72 3623.44 2104.61 3621.84 2106.41 3620.24 2108.2 3619.44 2110.56 3619.44 2113.48 3619.44 2116.35 3620.19 2118.61 3621.7 2120.27 3623.21 2121.93 3625.23 2122.76 3627.76 2122.76 3629.9 2122.76 3631.91 2122.05 3633.79 2120.63L3633.79 2124.36C3631.91 2125.5 3629.68 2126.06 3627.09 2126.06 3623.6 2126.06 3620.78 2124.93 3618.64 2122.65 3616.49 2120.38 3615.42 2117.43 3615.42 2113.81 3615.42 2109.78 3616.57 2106.54 3618.89 2104.09 3621.2 2101.64 3624.29 2100.42 3628.15 2100.42ZM3542.91 2100.42C3546.56 2100.42 3549.41 2101.54 3551.46 2103.79 3553.51 2106.04 3554.53 2109.16 3554.53 2113.14 3554.53 2117.05 3553.43 2120.18 3551.22 2122.53 3549.01 2124.89 3546.05 2126.06 3542.33 2126.06 3538.71 2126.06 3535.82 2124.92 3533.66 2122.63 3531.5 2120.34 3530.42 2117.31 3530.42 2113.53 3530.42 2109.41 3531.54 2106.2 3533.79 2103.88 3536.04 2101.57 3539.08 2100.42 3542.91 2100.42ZM3483.15 2100.42C3485.83 2100.42 3487.88 2101.28 3489.3 2103.01 3490.72 2104.74 3491.43 2107.24 3491.43 2110.51L3491.43 2125.49 3487.51 2125.49 3487.51 2111.52C3487.51 2106.32 3485.61 2103.72 3481.81 2103.72 3479.85 2103.72 3478.23 2104.45 3476.94 2105.93 3475.66 2107.41 3475.02 2109.27 3475.02 2111.52L3475.02 2125.49 3471.09 2125.49 3471.09 2100.99 3475.02 2100.99 3475.02 2105.06 3475.11 2105.06C3476.96 2101.96 3479.64 2100.42 3483.15 2100.42ZM3416.04 2100.42C3418.16 2100.42 3420.06 2100.78 3421.73 2101.52L3421.73 2105.49C3419.93 2104.31 3417.85 2103.72 3415.51 2103.72 3414.78 2103.72 3414.11 2103.8 3413.52 2103.97 3412.93 2104.14 3412.43 2104.37 3412 2104.67 3411.58 2104.98 3411.25 2105.34 3411.02 2105.76 3410.79 2106.19 3410.68 2106.65 3410.68 2107.16 3410.68 2107.8 3410.79 2108.33 3411.02 2108.77 3411.25 2109.2 3411.59 2109.58 3412.04 2109.91 3412.49 2110.25 3413.03 2110.55 3413.67 2110.82 3414.31 2111.09 3415.03 2111.39 3415.84 2111.71 3416.93 2112.12 3417.9 2112.55 3418.76 2112.99 3419.62 2113.43 3420.36 2113.92 3420.96 2114.47 3421.57 2115.02 3422.04 2115.66 3422.36 2116.37 3422.69 2117.09 3422.85 2117.94 3422.85 2118.93 3422.85 2120.15 3422.59 2121.2 3422.05 2122.09 3421.52 2122.98 3420.8 2123.73 3419.91 2124.32 3419.02 2124.91 3417.99 2125.35 3416.83 2125.63 3415.66 2125.92 3414.44 2126.06 3413.16 2126.06 3410.64 2126.06 3408.46 2125.58 3406.61 2124.6L3406.61 2120.39C3408.75 2121.97 3411.1 2122.76 3413.67 2122.76 3417.11 2122.76 3418.83 2121.61 3418.83 2119.32 3418.83 2118.66 3418.69 2118.11 3418.39 2117.65 3418.1 2117.2 3417.7 2116.8 3417.2 2116.45 3416.69 2116.09 3416.1 2115.78 3415.43 2115.5 3414.75 2115.22 3414.02 2114.93 3413.24 2114.63 3412.15 2114.2 3411.2 2113.76 3410.38 2113.32 3409.56 2112.88 3408.87 2112.39 3408.32 2111.84 3407.77 2111.29 3407.35 2110.66 3407.08 2109.96 3406.8 2109.26 3406.66 2108.44 3406.66 2107.5 3406.66 2106.35 3406.92 2105.33 3407.45 2104.45 3407.97 2103.56 3408.67 2102.82 3409.55 2102.22 3410.43 2101.62 3411.43 2101.17 3412.55 2100.87 3413.68 2100.57 3414.84 2100.42 3416.04 2100.42ZM3759.28 2093.74 3759.28 2100.99 3765.46 2100.99 3765.46 2104.34 3759.28 2104.34 3759.28 2118.14C3759.28 2119.79 3759.56 2120.96 3760.12 2121.66 3760.68 2122.36 3761.6 2122.71 3762.9 2122.71 3763.89 2122.71 3764.74 2122.44 3765.46 2121.9L3765.46 2125.25C3764.53 2125.76 3763.31 2126.02 3761.8 2126.02 3757.51 2126.02 3755.36 2123.62 3755.36 2118.84L3755.36 2104.34 3751.15 2104.34 3751.15 2100.99 3755.36 2100.99 3755.36 2095.01ZM3503.28 2093.74 3503.28 2100.99 3509.46 2100.99 3509.46 2104.34 3503.28 2104.34 3503.28 2118.14C3503.28 2119.79 3503.56 2120.96 3504.12 2121.66 3504.68 2122.36 3505.6 2122.71 3506.9 2122.71 3507.89 2122.71 3508.74 2122.44 3509.46 2121.9L3509.46 2125.25C3508.53 2125.76 3507.31 2126.02 3505.8 2126.02 3501.51 2126.02 3499.36 2123.62 3499.36 2118.84L3499.36 2104.34 3495.15 2104.34 3495.15 2100.99 3499.36 2100.99 3499.36 2095.01ZM3434.28 2093.74 3434.28 2100.99 3440.46 2100.99 3440.46 2104.34 3434.28 2104.34 3434.28 2118.14C3434.28 2119.79 3434.56 2120.96 3435.12 2121.66 3435.68 2122.36 3436.6 2122.71 3437.9 2122.71 3438.89 2122.71 3439.74 2122.44 3440.46 2121.9L3440.46 2125.25C3439.53 2125.76 3438.31 2126.02 3436.8 2126.02 3432.51 2126.02 3430.36 2123.62 3430.36 2118.84L3430.36 2104.34 3426.15 2104.34 3426.15 2100.99 3430.36 2100.99 3430.36 2095.01ZM3355.62 2091.18 3373.04 2091.18 3373.04 2094.82 3359.64 2094.82 3359.64 2106.68 3372.03 2106.68 3372.03 2110.3 3359.64 2110.3 3359.64 2125.49 3355.62 2125.49ZM3901.1 2089.67C3901.82 2089.67 3902.43 2089.92 3902.93 2090.4 3903.43 2090.89 3903.69 2091.5 3903.69 2092.23 3903.69 2092.93 3903.43 2093.53 3902.93 2094.03 3902.43 2094.52 3901.82 2094.77 3901.1 2094.77 3900.4 2094.77 3899.8 2094.53 3899.31 2094.05 3898.81 2093.57 3898.57 2092.97 3898.57 2092.23 3898.57 2091.5 3898.81 2090.89 3899.31 2090.4 3899.8 2089.92 3900.4 2089.67 3901.1 2089.67ZM3744.1 2089.67C3744.82 2089.67 3745.43 2089.92 3745.93 2090.4 3746.43 2090.89 3746.69 2091.5 3746.69 2092.23 3746.69 2092.93 3746.43 2093.53 3745.93 2094.03 3745.43 2094.52 3744.82 2094.77 3744.1 2094.77 3743.4 2094.77 3742.8 2094.53 3742.31 2094.05 3741.81 2093.57 3741.57 2092.97 3741.57 2092.23 3741.57 2091.5 3741.81 2090.89 3742.31 2090.4 3742.8 2089.92 3743.4 2089.67 3744.1 2089.67ZM3461.1 2089.67C3461.82 2089.67 3462.43 2089.92 3462.93 2090.4 3463.43 2090.89 3463.69 2091.5 3463.69 2092.23 3463.69 2092.93 3463.43 2093.53 3462.93 2094.03 3462.43 2094.52 3461.82 2094.77 3461.1 2094.77 3460.4 2094.77 3459.8 2094.53 3459.31 2094.05 3458.81 2093.57 3458.57 2092.97 3458.57 2092.23 3458.57 2091.5 3458.81 2090.89 3459.31 2090.4 3459.8 2089.92 3460.4 2089.67 3461.1 2089.67ZM3381.1 2089.67C3381.82 2089.67 3382.43 2089.92 3382.93 2090.4 3383.44 2090.89 3383.69 2091.5 3383.69 2092.23 3383.69 2092.93 3383.44 2093.53 3382.93 2094.03 3382.43 2094.52 3381.82 2094.77 3381.1 2094.77 3380.4 2094.77 3379.8 2094.53 3379.31 2094.05 3378.81 2093.57 3378.57 2092.97 3378.57 2092.23 3378.57 2091.5 3378.81 2090.89 3379.31 2090.4 3379.8 2089.92 3380.4 2089.67 3381.1 2089.67ZM3771.09 2089.22 3775.02 2089.22 3775.02 2105.06 3775.11 2105.06C3776.99 2101.96 3779.67 2100.42 3783.15 2100.42 3788.67 2100.42 3791.43 2103.74 3791.43 2110.39L3791.43 2125.49 3787.51 2125.49 3787.51 2111.37C3787.51 2106.27 3785.61 2103.72 3781.81 2103.72 3779.9 2103.72 3778.29 2104.45 3776.98 2105.93 3775.67 2107.41 3775.02 2109.3 3775.02 2111.61L3775.02 2125.49 3771.09 2125.49ZM3682.08 2089.22 3686 2089.22 3686 2125.49 3682.08 2125.49 3682.08 2121.33 3681.98 2121.33C3680.17 2124.48 3677.36 2126.06 3673.56 2126.06 3670.48 2126.06 3668.02 2124.97 3666.18 2122.77 3664.34 2120.58 3663.42 2117.59 3663.42 2113.81 3663.42 2109.76 3664.44 2106.52 3666.48 2104.08 3668.52 2101.64 3671.24 2100.42 3674.64 2100.42 3678 2100.42 3680.45 2101.74 3681.98 2104.39L3682.08 2104.39ZM3578.08 2089.22 3582 2089.22 3582 2125.49 3578.08 2125.49 3578.08 2121.33 3577.98 2121.33C3576.17 2124.48 3573.36 2126.06 3569.56 2126.06 3566.48 2126.06 3564.02 2124.97 3562.18 2122.77 3560.34 2120.58 3559.42 2117.59 3559.42 2113.81 3559.42 2109.76 3560.44 2106.52 3562.48 2104.08 3564.52 2101.64 3567.24 2100.42 3570.64 2100.42 3574 2100.42 3576.45 2101.74 3577.98 2104.39L3578.08 2104.39Z" fill="url(#fill1)" fill-rule="evenodd"/><text fill="#000000" fill-opacity="0" font-family="Arial,Arial_MSFontService,sans-serif" font-size="36.8457" x="3355.62" y="2121.46">First introduced with version:</text><path d="M3032.5 2179.83C3032.5 2167.5 3042.5 2157.5 3054.83 2157.5L3391.17 2157.5C3403.5 2157.5 3413.5 2167.5 3413.5 2179.83L3413.5 2269.17C3413.5 2281.5 3403.5 2291.5 3391.17 2291.5L3054.83 2291.5C3042.5 2291.5 3032.5 2281.5 3032.5 2269.17Z" stroke="#D7D7DA" stroke-width="3.4375" stroke-linejoin="round" stroke-miterlimit="10" fill="#C3E5FF" fill-rule="evenodd"/><text font-family="Segoe UI,Segoe UI_MSFontService,sans-serif" font-weight="400" font-size="48" transform="matrix(1 0 0 1 3049.19 2244)">SQL Server 2017</text><path d="M3472.5 2179.83C3472.5 2167.5 3482.5 2157.5 3494.83 2157.5L3831.17 2157.5C3843.5 2157.5 3853.5 2167.5 3853.5 2179.83L3853.5 2269.17C3853.5 2281.5 3843.5 2291.5 3831.17 2291.5L3494.83 2291.5C3482.5 2291.5 3472.5 2281.5 3472.5 2269.17Z" stroke="#D7D7DA" stroke-width="3.4375" stroke-linejoin="round" stroke-miterlimit="10" fill="#D7D7DA" fill-rule="evenodd"/><text font-family="Segoe UI,Segoe UI_MSFontService,sans-serif" font-weight="400" font-size="48" transform="matrix(1 0 0 1 3489.19 2244)">SQL Server 2019</text><path d="M3912 2179.33C3912 2167 3922 2157 3934.33 2157L4269.67 2157C4282 2157 4292 2167 4292 2179.33L4292 2268.67C4292 2281 4282 2291 4269.67 2291L3934.33 2291C3922 2291 3912 2281 3912 2268.67Z" stroke="#D5D5D5" stroke-width="3.89583" stroke-linejoin="round" stroke-miterlimit="10" fill="#F37B29" fill-rule="evenodd"/><text fill="#FFFFFF" font-family="Segoe UI,Segoe UI_MSFontService,sans-serif" font-weight="700" font-size="46" transform="matrix(1 0 0 1 3985.35 2214)">SQL Server <tspan font-size="46" x="63.8687" y="55">2022</tspan></text></g></svg>