<svg width="4314" height="2367" xmlns="http://www.w3.org/2000/svg" xmlns:xlink="http://www.w3.org/1999/xlink" xml:space="preserve" overflow="hidden"><defs><clipPath id="clip0"><rect x="36" y="55" width="4314" height="2367"/></clipPath><linearGradient x1="3573.41" y1="1978.42" x2="3573.41" y2="2037.04" gradientUnits="userSpaceOnUse" spreadMethod="reflect" id="fill1"><stop offset="0"/><stop offset="0.02917"/><stop offset="0.3"/><stop offset="1"/></linearGradient></defs><g clip-path="url(#clip0)" transform="translate(-36 -55)"><rect x="0" y="0" width="4350" height="2400" fill="#FFFFFF"/><path d="M2520 480 2520 522.312 4140.46 522.312 4140.46 564.624" stroke="#5A5A5A" stroke-width="3.89583" stroke-linejoin="round" stroke-miterlimit="10" fill="none" fill-rule="evenodd"/><path d="M2520 480 2520 522.312 3652.86 522.312 3652.86 564.624" stroke="#5A5A5A" stroke-width="3.89583" stroke-linejoin="round" stroke-miterlimit="10" fill="none" fill-rule="evenodd"/><path d="M2520 480 2520 522.312 3165.26 522.312 3165.26 564.624" stroke="#5A5A5A" stroke-width="3.89583" stroke-linejoin="round" stroke-miterlimit="10" fill="none" fill-rule="evenodd"/><path d="M2517 767 2517 1238.48 2577.45 1238.48" stroke="#686868" stroke-width="3.89583" stroke-linejoin="round" stroke-miterlimit="10" fill="none" fill-rule="evenodd"/><path d="M2517 767 2517 952.368 2577.45 952.368" stroke="#686868" stroke-width="3.89583" stroke-linejoin="round" stroke-miterlimit="10" fill="none" fill-rule="evenodd"/><path d="M2520 480 2520 522.312 2677.66 522.312 2677.66 564.624" stroke="#5A5A5A" stroke-width="3.89583" stroke-linejoin="round" stroke-miterlimit="10" fill="none" fill-rule="evenodd"/><path d="M2520.26 480 2520.26 522.312 1875 522.312 1875 564.624" stroke="#5A5A5A" stroke-width="3.89583" stroke-linejoin="round" stroke-miterlimit="10" fill="none" fill-rule="evenodd"/><path d="M2520.86 480 2520.86 522.312 1388 522.312 1388 564.624" stroke="#5A5A5A" stroke-width="3.89583" stroke-linejoin="round" stroke-miterlimit="10" fill="none" fill-rule="evenodd"/><path d="M1560 1053 1560 1095.31 2291.4 1095.31 2291.4 1137.62" stroke="#686868" stroke-width="3.89583" stroke-linejoin="round" stroke-miterlimit="10" fill="none" fill-rule="evenodd"/><path d="M1560 1053 1560 1095.31 1803.8 1095.31 1803.8 1137.62" stroke="#686868" stroke-width="3.89583" stroke-linejoin="round" stroke-miterlimit="10" fill="none" fill-rule="evenodd"/><path d="M1559.8 1053 1559.8 1095.31 1316 1095.31 1316 1137.62" stroke="#686868" stroke-width="3.89583" stroke-linejoin="round" stroke-miterlimit="10" fill="none" fill-rule="evenodd"/><path d="M667 1339 667 2096.59 727.446 2096.59" stroke="#686868" stroke-width="3.89583" stroke-linejoin="round" stroke-miterlimit="10" fill="none" fill-rule="evenodd"/><path d="M667 1339 667 1810.48 727.446 1810.48" stroke="#686868" stroke-width="3.89583" stroke-linejoin="round" stroke-miterlimit="10" fill="none" fill-rule="evenodd"/><path d="M667 1339 667 1524.37 727.446 1524.37" stroke="#686868" stroke-width="3.89583" stroke-linejoin="round" stroke-miterlimit="10" fill="none" fill-rule="evenodd"/><path d="M1559.4 1053 1559.4 1095.31 828 1095.31 828 1137.62" stroke="#686868" stroke-width="3.89583" stroke-linejoin="round" stroke-miterlimit="10" fill="none" fill-rule="evenodd"/><path d="M900 767 900 809.312 1559.87 809.312 1559.87 851.624" stroke="#686868" stroke-width="3.89583" stroke-linejoin="round" stroke-miterlimit="10" fill="none" fill-rule="evenodd"/><path d="M900.271 767 900.271 809.312 728 809.312 728 851.624" stroke="#686868" stroke-width="3.89583" stroke-linejoin="round" stroke-miterlimit="10" fill="none" fill-rule="evenodd"/><path d="M79.0001 1053 79.0001 1238.37 139.446 1238.37" stroke="#686868" stroke-width="3.89583" stroke-linejoin="round" stroke-miterlimit="10" fill="none" fill-rule="evenodd"/><path d="M899.87 767 899.87 809.312 240 809.312 240 851.624" stroke="#686868" stroke-width="3.89583" stroke-linejoin="round" stroke-miterlimit="10" fill="none" fill-rule="evenodd"/><path d="M2520.46 480 2520.46 522.312 900 522.312 900 564.624" stroke="#5A5A5A" stroke-width="3.89583" stroke-linejoin="round" stroke-miterlimit="10" fill="none" fill-rule="evenodd"/><rect x="2319" y="279" width="403" height="201" stroke="#D5D5D5" stroke-width="3.89583" stroke-linejoin="round" stroke-miterlimit="10" fill="none"/><text font-family="Segoe UI,Segoe UI_MSFontService,sans-serif" font-weight="400" font-size="46" transform="matrix(1 0 0 1 2351.2 368)">Intelligent Query <tspan font-size="46" x="60.9812" y="55">Processing</tspan></text><rect x="699" y="565" width="402" height="202" stroke="#D5D5D5" stroke-width="3.89583" stroke-linejoin="round" stroke-miterlimit="10" fill="#50E6FF"/><text font-family="Segoe UI,Segoe UI_MSFontService,sans-serif" font-weight="400" font-size="46" transform="matrix(1 0 0 1 742.727 654)">Adaptive Query <tspan font-size="46" x="48.9958" y="55">Processing</tspan></text><rect x="38.9998" y="851" width="403" height="202" stroke="#D5D5D5" stroke-width="3.89583" stroke-linejoin="round" stroke-miterlimit="10" fill="#50E6FF"/><text font-family="Segoe UI,Segoe UI_MSFontService,sans-serif" font-weight="400" font-size="46" transform="matrix(1 0 0 1 94.292 968)">Adaptive Joins</text><rect x="139" y="1137" width="403" height="202" stroke="#D5D5D5" stroke-width="3.89583" stroke-linejoin="round" stroke-miterlimit="10" fill="#50E6FF"/><text font-family="Segoe UI,Segoe UI_MSFontService,sans-serif" font-weight="400" font-size="46" transform="matrix(1 0 0 1 218.972 1254)">Batch Mode</text><rect x="526" y="851" width="403" height="202" stroke="#D5D5D5" stroke-width="3.89583" stroke-linejoin="round" stroke-miterlimit="10" fill="#50E6FF"/><text font-family="Segoe UI,Segoe UI_MSFontService,sans-serif" font-weight="400" font-size="46" transform="matrix(1 0 0 1 615.28 940)">Interleaved <tspan font-size="46" x="15.0792" y="55">Execution</tspan></text><rect x="1358" y="851" width="403" height="202" stroke="#D5D5D5" stroke-width="3.89583" stroke-linejoin="round" stroke-miterlimit="10" fill="#50E6FF"/><text fill="#1A1A1A" font-family="Segoe UI,Segoe UI_MSFontService,sans-serif" font-weight="400" font-size="46" transform="matrix(1 0 0 1 1384.02 940)">Query Processing <tspan font-size="46" x="80.048" y="55">Feedback</tspan></text><rect x="627" y="1137" width="403" height="202" stroke="#D5D5D5" stroke-width="3.89583" stroke-linejoin="round" stroke-miterlimit="10" fill="#50E6FF"/><text font-family="Segoe UI,Segoe UI_MSFontService,sans-serif" font-weight="400" font-size="46" transform="matrix(1 0 0 1 681.305 1226)">Memory Grant <tspan font-size="46" x="51.3792" y="55">Feedback</tspan></text><rect x="728" y="1423" width="403" height="202" stroke="#D5D5D5" stroke-width="3.89583" stroke-linejoin="round" stroke-miterlimit="10" fill="#0078D4"/><text fill="#FFFFFF" font-family="Segoe UI,Segoe UI_MSFontService,sans-serif" font-weight="700" font-size="46" transform="matrix(1 0 0 1 755.167 1512)">Percentile Grant <tspan font-size="46" x="72.8062" y="55">Feedback</tspan></text><rect x="728" y="1710" width="403" height="201" stroke="#0078D4" stroke-width="10.3125" stroke-linejoin="round" stroke-miterlimit="10" fill="#50E6FF"/><text font-family="Segoe UI,Segoe UI_MSFontService,sans-serif" font-weight="400" font-size="46" transform="matrix(1 0 0 1 807.314 1826)">Batch Mode</text><rect x="728" y="1996" width="403" height="201" stroke="#0078D4" stroke-width="10.3125" stroke-linejoin="round" stroke-miterlimit="10" fill="none"/><text font-family="Segoe UI,Segoe UI_MSFontService,sans-serif" font-weight="400" font-size="46" transform="matrix(1 0 0 1 819.746 2112)">Row Mode</text><rect x="1115" y="1137" width="403" height="202" stroke="#D5D5D5" stroke-width="3.89583" stroke-linejoin="round" stroke-miterlimit="10" fill="#0078D4"/><text fill="#FFFFFF" font-family="Segoe UI,Segoe UI_MSFontService,sans-serif" font-weight="700" font-size="46" transform="matrix(1 0 0 1 1199.16 1199)">Cardinality <tspan font-size="46" x="-25.1626" y="55">Estimate (CE) </tspan><tspan font-size="46" x="15.652" y="110">Feedback</tspan></text><rect x="1602" y="1137" width="403" height="202" stroke="#D5D5D5" stroke-width="3.89583" stroke-linejoin="round" stroke-miterlimit="10" fill="#0078D4"/><text fill="#FFFFFF" font-family="Segoe UI,Segoe UI_MSFontService,sans-serif" font-weight="700" font-size="46" transform="matrix(1 0 0 1 1697.13 1199)">Degree of <tspan font-size="46" x="-10.8396" y="55">Parallelism </tspan><tspan font-size="46" x="-66.3208" y="110">(DOP) Feedback</tspan></text><rect x="2090" y="1137" width="403" height="202" stroke="#D5D5D5" stroke-width="3.89583" stroke-linejoin="round" stroke-miterlimit="10" fill="#0078D4"/><text fill="#FFFFFF" font-family="Segoe UI,Segoe UI_MSFontService,sans-serif" font-weight="700" font-size="46" transform="matrix(1 0 0 1 2190.03 1226)">Feedback <tspan font-size="46" x="-19.6167" y="55">Persistence</tspan></text><rect x="1186" y="565" width="403" height="202" stroke="#D5D5D5" stroke-width="3.89583" stroke-linejoin="round" stroke-miterlimit="10" fill="none"/><text font-family="Segoe UI,Segoe UI_MSFontService,sans-serif" font-weight="400" font-size="46" transform="matrix(1 0 0 1 1244.56 627)">Table Variable <tspan font-size="46" x="54.4271" y="55">Deferred </tspan><tspan font-size="46" x="19.7312" y="110">Compilation</tspan></text><rect x="1674" y="565" width="403" height="202" stroke="#D5D5D5" stroke-width="3.89583" stroke-linejoin="round" stroke-miterlimit="10" fill="none"/><text font-family="Segoe UI,Segoe UI_MSFontService,sans-serif" font-weight="400" font-size="46" transform="matrix(1 0 0 1 1718.45 654)">Batch Mode for <tspan font-size="46" x="53.4417" y="55">Row Store</tspan></text><rect x="2477" y="565" width="403" height="202" stroke="#D5D5D5" stroke-width="3.89583" stroke-linejoin="round" stroke-miterlimit="10" fill="none"/><text font-family="Segoe UI,Segoe UI_MSFontService,sans-serif" font-weight="400" font-size="46" transform="matrix(1 0 0 1 2480.2 654)">Approximate Query <tspan font-size="46" x="89.6502" y="55">Processing</tspan></text><rect x="2577" y="851" width="403" height="202" stroke="#D5D5D5" stroke-width="3.89583" stroke-linejoin="round" stroke-miterlimit="10" fill="none"/><text font-family="Segoe UI,Segoe UI_MSFontService,sans-serif" font-weight="400" font-size="46" transform="matrix(1 0 0 1 2580.9 940)">Approximate Count <tspan font-size="46" x="121.962" y="55">Distinct</tspan></text><rect x="2577" y="1137" width="403" height="202" stroke="#D5D5D5" stroke-width="3.89583" stroke-linejoin="round" stroke-miterlimit="10" fill="#0078D4"/><text fill="#FFFFFF" font-family="Segoe UI,Segoe UI_MSFontService,sans-serif" font-weight="700" font-size="46" transform="matrix(1 0 0 1 2637.41 1226)">Approximate<tspan font-size="46" x="34.2605" y="55">Percentile</tspan></text><rect x="2964" y="565" width="403" height="202" stroke="#D5D5D5" stroke-width="3.89583" stroke-linejoin="round" stroke-miterlimit="10" fill="none"/><text font-family="Segoe UI,Segoe UI_MSFontService,sans-serif" font-weight="400" font-size="46" transform="matrix(1 0 0 1 2975.4 681)">Scalar UDF Inlining</text><rect x="3452" y="565" width="403" height="202" stroke="#D5D5D5" stroke-width="3.89583" stroke-linejoin="round" stroke-miterlimit="10" fill="#0078D4"/><text fill="#FFFFFF" font-family="Segoe UI,Segoe UI_MSFontService,sans-serif" font-weight="700" font-size="46" transform="matrix(1 0 0 1 3541.62 627)">Parameter <tspan font-size="46" x="-37.3543" y="55">Sensitive Plan </tspan><tspan font-size="46" x="-29.4251" y="110">Optimization</tspan></text><rect x="3939" y="565" width="403" height="202" stroke="#D5D5D5" stroke-width="3.89583" stroke-linejoin="round" stroke-miterlimit="10" fill="#0078D4"/><text fill="#FFFFFF" font-family="Segoe UI,Segoe UI_MSFontService,sans-serif" font-weight="700" font-size="46" transform="matrix(1 0 0 1 3975.73 654)">Optimized Plan <tspan font-size="46" x="84.5625" y="55">Forcing</tspan></text><path d="M3890.34 2021.58C3891.09 2021.58 3891.73 2021.84 3892.25 2022.38 3892.78 2022.91 3893.04 2023.55 3893.04 2024.28 3893.04 2025.01 3892.78 2025.64 3892.25 2026.17 3891.73 2026.7 3891.09 2026.96 3890.34 2026.96 3889.61 2026.96 3888.98 2026.7 3888.46 2026.17 3887.94 2025.64 3887.68 2025.01 3887.68 2024.28 3887.68 2023.55 3887.94 2022.91 3888.46 2022.38 3888.98 2021.84 3889.61 2021.58 3890.34 2021.58ZM3822.5 2004.66C3819.98 2004.66 3817.99 2005.52 3816.52 2007.23 3815.05 2008.95 3814.32 2011.31 3814.32 2014.33 3814.32 2017.23 3815.06 2019.52 3816.55 2021.19 3818.03 2022.87 3820.02 2023.71 3822.5 2023.71 3825.04 2023.71 3826.99 2022.88 3828.35 2021.24 3829.72 2019.6 3830.4 2017.26 3830.4 2014.23 3830.4 2011.17 3829.72 2008.81 3828.35 2007.15 3826.99 2005.49 3825.04 2004.66 3822.5 2004.66ZM3745.52 2004.66C3743.67 2004.66 3742.1 2005.32 3740.81 2006.65 3739.52 2007.97 3738.72 2009.7 3738.42 2011.84L3751.65 2011.84C3751.63 2009.57 3751.09 2007.81 3750.01 2006.55 3748.93 2005.29 3747.44 2004.66 3745.52 2004.66ZM3576.02 2004.66C3573.63 2004.66 3571.75 2005.54 3570.38 2007.29 3569.01 2009.05 3568.32 2011.47 3568.32 2014.57 3568.32 2017.39 3568.98 2019.62 3570.29 2021.25 3571.61 2022.89 3573.38 2023.71 3575.59 2023.71 3577.78 2023.71 3579.55 2022.92 3580.92 2021.34 3582.28 2019.76 3582.96 2017.76 3582.96 2015.36L3582.96 2011.74C3582.96 2009.77 3582.31 2008.09 3581 2006.72 3579.69 2005.35 3578.03 2004.66 3576.02 2004.66ZM3549.52 2004.66C3547.67 2004.66 3546.1 2005.32 3544.81 2006.65 3543.52 2007.97 3542.72 2009.7 3542.42 2011.84L3555.65 2011.84C3555.63 2009.57 3555.09 2007.81 3554.01 2006.55 3552.93 2005.29 3551.44 2004.66 3549.52 2004.66ZM3472.02 2004.66C3469.63 2004.66 3467.75 2005.54 3466.38 2007.29 3465.01 2009.05 3464.32 2011.47 3464.32 2014.57 3464.32 2017.39 3464.98 2019.62 3466.29 2021.25 3467.61 2022.89 3469.38 2023.71 3471.59 2023.71 3473.78 2023.71 3475.55 2022.92 3476.92 2021.34 3478.28 2019.76 3478.96 2017.76 3478.96 2015.36L3478.96 2011.74C3478.96 2009.77 3478.31 2008.09 3477 2006.72 3475.69 2005.35 3474.03 2004.66 3472.02 2004.66ZM3443.5 2004.66C3440.98 2004.66 3438.99 2005.52 3437.52 2007.23 3436.05 2008.95 3435.32 2011.31 3435.32 2014.33 3435.32 2017.23 3436.06 2019.52 3437.55 2021.19 3439.03 2022.87 3441.02 2023.71 3443.5 2023.71 3446.04 2023.71 3447.99 2022.88 3449.35 2021.24 3450.72 2019.6 3451.4 2017.26 3451.4 2014.23 3451.4 2011.17 3450.72 2008.81 3449.35 2007.15 3447.99 2005.49 3446.04 2004.66 3443.5 2004.66ZM3799.98 2001.93 3803.9 2001.93 3803.9 2026.43 3799.98 2026.43ZM3709.34 2001.93 3713.65 2001.93 3719.87 2019.73C3720.33 2021.04 3720.62 2022.18 3720.73 2023.16L3720.82 2023.16C3720.98 2021.93 3721.24 2020.82 3721.59 2019.83L3728.1 2001.93 3732.24 2001.93 3722.47 2026.43 3718.62 2026.43ZM3642.98 2001.93 3646.9 2001.93 3646.9 2026.43 3642.98 2026.43ZM3604.58 2001.93 3608.69 2001.93 3613.77 2020.36C3613.93 2020.92 3614.04 2021.65 3614.1 2022.56L3614.29 2022.56C3614.34 2021.86 3614.48 2021.11 3614.72 2020.31L3620.37 2001.93 3623.96 2001.93 3629.03 2020.4C3629.19 2020.99 3629.31 2021.73 3629.39 2022.61L3629.58 2022.61C3629.61 2021.98 3629.75 2021.25 3629.99 2020.4L3634.96 2001.93 3638.84 2001.93 3631.5 2026.43 3627.43 2026.43 3622.38 2008.9C3622.19 2008.23 3622.06 2007.47 3622 2006.62L3621.9 2006.62C3621.85 2007.2 3621.69 2007.94 3621.4 2008.85L3615.92 2026.43 3612 2026.43ZM3489.45 2001.93 3493.35 2001.93 3493.35 2015.95C3493.35 2021.12 3495.33 2023.71 3499.28 2023.71 3501.2 2023.71 3502.77 2023 3504.01 2021.59 3505.24 2020.18 3505.86 2018.33 3505.86 2016.05L3505.86 2001.93 3509.79 2001.93 3509.79 2026.43 3505.86 2026.43 3505.86 2022.56 3505.77 2022.56C3504.14 2025.52 3501.62 2027.01 3498.21 2027.01 3492.37 2027.01 3489.45 2023.53 3489.45 2016.58ZM3359.98 2001.93 3363.9 2001.93 3363.9 2026.43 3359.98 2026.43ZM3279.98 2001.93 3283.9 2001.93 3283.9 2026.43 3279.98 2026.43ZM3772.41 2001.5C3773.43 2001.5 3774.21 2001.61 3774.75 2001.84L3774.75 2005.91C3774.07 2005.38 3773.08 2005.12 3771.79 2005.12 3770.11 2005.12 3768.71 2005.91 3767.59 2007.48 3766.46 2009.06 3765.9 2011.22 3765.9 2013.94L3765.9 2026.43 3761.98 2026.43 3761.98 2001.93 3765.9 2001.93 3765.9 2006.98 3766 2006.98C3766.55 2005.26 3767.41 2003.92 3768.56 2002.95 3769.7 2001.99 3770.99 2001.5 3772.41 2001.5ZM3426.41 2001.5C3427.43 2001.5 3428.21 2001.61 3428.75 2001.84L3428.75 2005.91C3428.07 2005.38 3427.08 2005.12 3425.79 2005.12 3424.11 2005.12 3422.71 2005.91 3421.59 2007.48 3420.46 2009.06 3419.9 2011.22 3419.9 2013.94L3419.9 2026.43 3415.98 2026.43 3415.98 2001.93 3419.9 2001.93 3419.9 2006.98 3420 2006.98C3420.55 2005.26 3421.41 2003.92 3422.56 2002.95 3423.7 2001.99 3424.99 2001.5 3426.41 2001.5ZM3302.41 2001.5C3303.43 2001.5 3304.21 2001.61 3304.75 2001.84L3304.75 2005.91C3304.07 2005.38 3303.08 2005.12 3301.79 2005.12 3300.11 2005.12 3298.71 2005.91 3297.59 2007.48 3296.46 2009.06 3295.9 2011.22 3295.9 2013.94L3295.9 2026.43 3291.98 2026.43 3291.98 2001.93 3295.9 2001.93 3295.9 2006.98 3296 2006.98C3296.55 2005.26 3297.41 2003.92 3298.56 2002.95 3299.7 2001.99 3300.99 2001.5 3302.41 2001.5ZM3890.34 2001.41C3891.09 2001.41 3891.73 2001.66 3892.25 2002.17 3892.78 2002.68 3893.04 2003.31 3893.04 2004.04 3893.04 2004.77 3892.78 2005.4 3892.25 2005.93 3891.73 2006.46 3891.09 2006.72 3890.34 2006.72 3889.61 2006.72 3888.98 2006.46 3888.46 2005.93 3887.94 2005.4 3887.68 2004.77 3887.68 2004.04 3887.68 2003.31 3887.94 2002.68 3888.46 2002.17 3888.98 2001.66 3889.61 2001.41 3890.34 2001.41ZM3875.92 2001.36C3878.04 2001.36 3879.94 2001.73 3881.61 2002.46L3881.61 2006.43C3879.81 2005.25 3877.74 2004.66 3875.39 2004.66 3874.66 2004.66 3874 2004.75 3873.41 2004.91 3872.82 2005.08 3872.31 2005.32 3871.89 2005.62 3871.47 2005.92 3871.14 2006.28 3870.91 2006.71 3870.68 2007.13 3870.56 2007.6 3870.56 2008.11 3870.56 2008.74 3870.68 2009.28 3870.91 2009.71 3871.14 2010.14 3871.48 2010.52 3871.92 2010.86 3872.37 2011.19 3872.91 2011.5 3873.55 2011.77 3874.19 2012.04 3874.91 2012.33 3875.73 2012.65 3876.81 2013.07 3877.79 2013.49 3878.65 2013.93 3879.51 2014.37 3880.24 2014.87 3880.85 2015.42 3881.45 2015.97 3881.92 2016.6 3882.25 2017.32 3882.57 2018.04 3882.74 2018.89 3882.74 2019.88 3882.74 2021.09 3882.47 2022.14 3881.94 2023.04 3881.4 2023.93 3880.69 2024.67 3879.8 2025.26 3878.9 2025.85 3877.87 2026.29 3876.71 2026.58 3875.54 2026.86 3874.32 2027.01 3873.05 2027.01 3870.53 2027.01 3868.34 2026.52 3866.49 2025.55L3866.49 2021.34C3868.63 2022.92 3870.98 2023.71 3873.55 2023.71 3877 2023.71 3878.72 2022.56 3878.72 2020.26 3878.72 2019.61 3878.57 2019.05 3878.28 2018.6 3877.98 2018.14 3877.58 2017.74 3877.08 2017.39 3876.58 2017.04 3875.99 2016.72 3875.31 2016.44 3874.63 2016.17 3873.9 2015.87 3873.12 2015.57 3872.04 2015.14 3871.08 2014.71 3870.26 2014.27 3869.44 2013.83 3868.75 2013.33 3868.2 2012.78 3867.65 2012.23 3867.24 2011.61 3866.96 2010.91 3866.68 2010.2 3866.54 2009.38 3866.54 2008.44 3866.54 2007.29 3866.8 2006.28 3867.33 2005.39 3867.86 2004.51 3868.56 2003.76 3869.44 2003.17 3870.31 2002.57 3871.31 2002.12 3872.44 2001.81 3873.56 2001.51 3874.72 2001.36 3875.92 2001.36ZM3852.03 2001.36C3854.71 2001.36 3856.76 2002.22 3858.18 2003.96 3859.6 2005.69 3860.31 2008.19 3860.31 2011.46L3860.31 2026.43 3856.39 2026.43 3856.39 2012.46C3856.39 2007.26 3854.49 2004.66 3850.69 2004.66 3848.73 2004.66 3847.11 2005.4 3845.83 2006.87 3844.54 2008.35 3843.9 2010.21 3843.9 2012.46L3843.9 2026.43 3839.98 2026.43 3839.98 2001.93 3843.9 2001.93 3843.9 2006 3844 2006C3845.85 2002.91 3848.53 2001.36 3852.03 2001.36ZM3822.79 2001.36C3826.44 2001.36 3829.29 2002.48 3831.34 2004.73 3833.39 2006.98 3834.42 2010.1 3834.42 2014.09 3834.42 2018 3833.31 2021.13 3831.1 2023.48 3828.9 2025.83 3825.93 2027.01 3822.22 2027.01 3818.6 2027.01 3815.7 2025.86 3813.54 2023.57 3811.38 2021.29 3810.3 2018.25 3810.3 2014.47 3810.3 2010.36 3811.43 2007.14 3813.67 2004.83 3815.92 2002.52 3818.96 2001.36 3822.79 2001.36ZM3786.92 2001.36C3789.04 2001.36 3790.94 2001.73 3792.61 2002.46L3792.61 2006.43C3790.81 2005.25 3788.74 2004.66 3786.39 2004.66 3785.66 2004.66 3785 2004.75 3784.41 2004.91 3783.82 2005.08 3783.31 2005.32 3782.89 2005.62 3782.47 2005.92 3782.14 2006.28 3781.91 2006.71 3781.68 2007.13 3781.56 2007.6 3781.56 2008.11 3781.56 2008.74 3781.68 2009.28 3781.91 2009.71 3782.14 2010.14 3782.48 2010.52 3782.92 2010.86 3783.37 2011.19 3783.91 2011.5 3784.55 2011.77 3785.19 2012.04 3785.91 2012.33 3786.73 2012.65 3787.81 2013.07 3788.79 2013.49 3789.65 2013.93 3790.51 2014.37 3791.24 2014.87 3791.85 2015.42 3792.45 2015.97 3792.92 2016.6 3793.25 2017.32 3793.57 2018.04 3793.74 2018.89 3793.74 2019.88 3793.74 2021.09 3793.47 2022.14 3792.94 2023.04 3792.4 2023.93 3791.69 2024.67 3790.8 2025.26 3789.9 2025.85 3788.87 2026.29 3787.71 2026.58 3786.54 2026.86 3785.32 2027.01 3784.05 2027.01 3781.53 2027.01 3779.34 2026.52 3777.49 2025.55L3777.49 2021.34C3779.63 2022.92 3781.98 2023.71 3784.55 2023.71 3788 2023.71 3789.72 2022.56 3789.72 2020.26 3789.72 2019.61 3789.57 2019.05 3789.28 2018.6 3788.98 2018.14 3788.58 2017.74 3788.08 2017.39 3787.58 2017.04 3786.99 2016.72 3786.31 2016.44 3785.63 2016.17 3784.9 2015.87 3784.12 2015.57 3783.04 2015.14 3782.08 2014.71 3781.26 2014.27 3780.44 2013.83 3779.75 2013.33 3779.2 2012.78 3778.65 2012.23 3778.24 2011.61 3777.96 2010.91 3777.68 2010.2 3777.54 2009.38 3777.54 2008.44 3777.54 2007.29 3777.8 2006.28 3778.33 2005.39 3778.86 2004.51 3779.56 2003.76 3780.44 2003.17 3781.31 2002.57 3782.31 2002.12 3783.44 2001.81 3784.56 2001.51 3785.72 2001.36 3786.92 2001.36ZM3745.59 2001.36C3748.8 2001.36 3751.28 2002.4 3753.04 2004.47 3754.79 2006.54 3755.67 2009.42 3755.67 2013.11L3755.67 2015.16 3738.37 2015.16C3738.43 2017.89 3739.17 2020 3740.57 2021.48 3741.97 2022.96 3743.9 2023.71 3746.36 2023.71 3749.12 2023.71 3751.66 2022.8 3753.97 2020.98L3753.97 2024.66C3751.81 2026.23 3748.97 2027.01 3745.43 2027.01 3741.97 2027.01 3739.25 2025.9 3737.27 2023.67 3735.29 2021.45 3734.3 2018.32 3734.3 2014.28 3734.3 2010.47 3735.38 2007.36 3737.54 2004.96 3739.7 2002.56 3742.39 2001.36 3745.59 2001.36ZM3549.59 2001.36C3552.8 2001.36 3555.28 2002.4 3557.04 2004.47 3558.79 2006.54 3559.67 2009.42 3559.67 2013.11L3559.67 2015.16 3542.37 2015.16C3542.43 2017.89 3543.17 2020 3544.57 2021.48 3545.97 2022.96 3547.9 2023.71 3550.36 2023.71 3553.12 2023.71 3555.66 2022.8 3557.97 2020.98L3557.97 2024.66C3555.81 2026.23 3552.97 2027.01 3549.43 2027.01 3545.97 2027.01 3543.25 2025.9 3541.27 2023.67 3539.29 2021.45 3538.3 2018.32 3538.3 2014.28 3538.3 2010.47 3539.38 2007.36 3541.54 2004.96 3543.7 2002.56 3546.39 2001.36 3549.59 2001.36ZM3529.03 2001.36C3531.18 2001.36 3533.08 2001.76 3534.72 2002.56L3534.72 2006.58C3532.91 2005.3 3530.96 2004.66 3528.89 2004.66 3526.38 2004.66 3524.33 2005.56 3522.73 2007.35 3521.12 2009.15 3520.32 2011.5 3520.32 2014.42 3520.32 2017.29 3521.07 2019.56 3522.58 2021.22 3524.09 2022.88 3526.11 2023.71 3528.65 2023.71 3530.78 2023.71 3532.79 2023 3534.68 2021.58L3534.68 2025.31C3532.79 2026.44 3530.56 2027.01 3527.98 2027.01 3524.48 2027.01 3521.66 2025.87 3519.52 2023.6 3517.37 2021.33 3516.3 2018.38 3516.3 2014.76 3516.3 2010.72 3517.46 2007.48 3519.77 2005.03 3522.08 2002.58 3525.17 2001.36 3529.03 2001.36ZM3443.79 2001.36C3447.44 2001.36 3450.29 2002.48 3452.34 2004.73 3454.39 2006.98 3455.42 2010.1 3455.42 2014.09 3455.42 2018 3454.31 2021.13 3452.1 2023.48 3449.9 2025.83 3446.93 2027.01 3443.22 2027.01 3439.6 2027.01 3436.7 2025.86 3434.54 2023.57 3432.38 2021.29 3431.3 2018.25 3431.3 2014.47 3431.3 2010.36 3432.43 2007.14 3434.67 2004.83 3436.92 2002.52 3439.96 2001.36 3443.79 2001.36ZM3384.03 2001.36C3386.71 2001.36 3388.76 2002.22 3390.18 2003.96 3391.6 2005.69 3392.31 2008.19 3392.31 2011.46L3392.31 2026.43 3388.39 2026.43 3388.39 2012.46C3388.39 2007.26 3386.49 2004.66 3382.69 2004.66 3380.73 2004.66 3379.11 2005.4 3377.83 2006.87 3376.54 2008.35 3375.9 2010.21 3375.9 2012.46L3375.9 2026.43 3371.98 2026.43 3371.98 2001.93 3375.9 2001.93 3375.9 2006 3376 2006C3377.85 2002.91 3380.53 2001.36 3384.03 2001.36ZM3316.92 2001.36C3319.04 2001.36 3320.94 2001.73 3322.61 2002.46L3322.61 2006.43C3320.81 2005.25 3318.74 2004.66 3316.39 2004.66 3315.66 2004.66 3315 2004.75 3314.41 2004.91 3313.82 2005.08 3313.31 2005.32 3312.89 2005.62 3312.47 2005.92 3312.14 2006.28 3311.91 2006.71 3311.68 2007.13 3311.56 2007.6 3311.56 2008.11 3311.56 2008.74 3311.68 2009.28 3311.91 2009.71 3312.14 2010.14 3312.48 2010.52 3312.92 2010.86 3313.37 2011.19 3313.91 2011.5 3314.55 2011.77 3315.19 2012.04 3315.91 2012.33 3316.73 2012.65 3317.81 2013.07 3318.79 2013.49 3319.65 2013.93 3320.51 2014.37 3321.24 2014.87 3321.85 2015.42 3322.45 2015.97 3322.92 2016.6 3323.25 2017.32 3323.57 2018.04 3323.74 2018.89 3323.74 2019.88 3323.74 2021.09 3323.47 2022.14 3322.94 2023.04 3322.4 2023.93 3321.69 2024.67 3320.8 2025.26 3319.9 2025.85 3318.87 2026.29 3317.71 2026.58 3316.54 2026.86 3315.32 2027.01 3314.05 2027.01 3311.53 2027.01 3309.34 2026.52 3307.49 2025.55L3307.49 2021.34C3309.63 2022.92 3311.98 2023.71 3314.55 2023.71 3318 2023.71 3319.72 2022.56 3319.72 2020.26 3319.72 2019.61 3319.57 2019.05 3319.28 2018.6 3318.98 2018.14 3318.58 2017.74 3318.08 2017.39 3317.58 2017.04 3316.99 2016.72 3316.31 2016.44 3315.63 2016.17 3314.9 2015.87 3314.12 2015.57 3313.04 2015.14 3312.08 2014.71 3311.26 2014.27 3310.44 2013.83 3309.75 2013.33 3309.2 2012.78 3308.65 2012.23 3308.24 2011.61 3307.96 2010.91 3307.68 2010.2 3307.54 2009.38 3307.54 2008.44 3307.54 2007.29 3307.8 2006.28 3308.33 2005.39 3308.86 2004.51 3309.56 2003.76 3310.44 2003.17 3311.31 2002.57 3312.31 2002.12 3313.44 2001.81 3314.56 2001.51 3315.72 2001.36 3316.92 2001.36ZM3660.17 1994.68 3660.17 2001.93 3666.34 2001.93 3666.34 2005.28 3660.17 2005.28 3660.17 2019.09C3660.17 2020.73 3660.45 2021.9 3661.01 2022.61 3661.56 2023.31 3662.49 2023.66 3663.78 2023.66 3664.77 2023.66 3665.62 2023.39 3666.34 2022.84L3666.34 2026.19C3665.42 2026.71 3664.2 2026.96 3662.68 2026.96 3658.39 2026.96 3656.24 2024.57 3656.24 2019.78L3656.24 2005.28 3652.03 2005.28 3652.03 2001.93 3656.24 2001.93 3656.24 1995.95ZM3404.17 1994.68 3404.17 2001.93 3410.34 2001.93 3410.34 2005.28 3404.17 2005.28 3404.17 2019.09C3404.17 2020.73 3404.45 2021.9 3405.01 2022.61 3405.56 2023.31 3406.49 2023.66 3407.78 2023.66 3408.77 2023.66 3409.62 2023.39 3410.34 2022.84L3410.34 2026.19C3409.42 2026.71 3408.2 2026.96 3406.68 2026.96 3402.39 2026.96 3400.24 2024.57 3400.24 2019.78L3400.24 2005.28 3396.03 2005.28 3396.03 2001.93 3400.24 2001.93 3400.24 1995.95ZM3335.17 1994.68 3335.17 2001.93 3341.34 2001.93 3341.34 2005.28 3335.17 2005.28 3335.17 2019.09C3335.17 2020.73 3335.45 2021.9 3336.01 2022.61 3336.56 2023.31 3337.49 2023.66 3338.78 2023.66 3339.77 2023.66 3340.62 2023.39 3341.34 2022.84L3341.34 2026.19C3340.42 2026.71 3339.2 2026.96 3337.68 2026.96 3333.39 2026.96 3331.24 2024.57 3331.24 2019.78L3331.24 2005.28 3327.03 2005.28 3327.03 2001.93 3331.24 2001.93 3331.24 1995.95ZM3256.5 1992.12 3273.92 1992.12 3273.92 1995.76 3260.52 1995.76 3260.52 2007.63 3272.92 2007.63 3272.92 2011.24 3260.52 2011.24 3260.52 2026.43 3256.5 2026.43ZM3801.99 1990.62C3802.7 1990.62 3803.31 1990.86 3803.82 1991.35 3804.32 1991.83 3804.57 1992.44 3804.57 1993.18 3804.57 1993.88 3804.32 1994.48 3803.82 1994.97 3803.31 1995.47 3802.7 1995.71 3801.99 1995.71 3801.28 1995.71 3800.69 1995.47 3800.19 1995 3799.7 1994.52 3799.45 1993.91 3799.45 1993.18 3799.45 1992.44 3799.7 1991.83 3800.19 1991.35 3800.69 1990.86 3801.28 1990.62 3801.99 1990.62ZM3644.99 1990.62C3645.7 1990.62 3646.31 1990.86 3646.82 1991.35 3647.32 1991.83 3647.57 1992.44 3647.57 1993.18 3647.57 1993.88 3647.32 1994.48 3646.82 1994.97 3646.31 1995.47 3645.7 1995.71 3644.99 1995.71 3644.28 1995.71 3643.69 1995.47 3643.19 1995 3642.7 1994.52 3642.45 1993.91 3642.45 1993.18 3642.45 1992.44 3642.7 1991.83 3643.19 1991.35 3643.69 1990.86 3644.28 1990.62 3644.99 1990.62ZM3361.99 1990.62C3362.7 1990.62 3363.31 1990.86 3363.82 1991.35 3364.32 1991.83 3364.57 1992.44 3364.57 1993.18 3364.57 1993.88 3364.32 1994.48 3363.82 1994.97 3363.31 1995.47 3362.7 1995.71 3361.99 1995.71 3361.28 1995.71 3360.69 1995.47 3360.19 1995 3359.7 1994.52 3359.45 1993.91 3359.45 1993.18 3359.45 1992.44 3359.7 1991.83 3360.19 1991.35 3360.69 1990.86 3361.28 1990.62 3361.99 1990.62ZM3281.99 1990.62C3282.7 1990.62 3283.31 1990.86 3283.82 1991.35 3284.32 1991.83 3284.57 1992.44 3284.57 1993.18 3284.57 1993.88 3284.32 1994.48 3283.82 1994.97 3283.31 1995.47 3282.7 1995.71 3281.99 1995.71 3281.28 1995.71 3280.69 1995.47 3280.19 1995 3279.7 1994.52 3279.45 1993.91 3279.45 1993.18 3279.45 1992.44 3279.7 1991.83 3280.19 1991.35 3280.69 1990.86 3281.28 1990.62 3281.99 1990.62ZM3671.98 1990.16 3675.9 1990.16 3675.9 2006 3676 2006C3677.88 2002.91 3680.56 2001.36 3684.03 2001.36 3689.55 2001.36 3692.31 2004.69 3692.31 2011.34L3692.31 2026.43 3688.39 2026.43 3688.39 2012.32C3688.39 2007.21 3686.49 2004.66 3682.69 2004.66 3680.78 2004.66 3679.17 2005.4 3677.86 2006.87 3676.55 2008.35 3675.9 2010.24 3675.9 2012.56L3675.9 2026.43 3671.98 2026.43ZM3582.96 1990.16 3586.89 1990.16 3586.89 2026.43 3582.96 2026.43 3582.96 2022.27 3582.87 2022.27C3581.05 2025.43 3578.24 2027.01 3574.45 2027.01 3571.37 2027.01 3568.91 2025.91 3567.06 2023.72 3565.22 2021.53 3564.3 2018.54 3564.3 2014.76 3564.3 2010.71 3565.32 2007.46 3567.36 2005.02 3569.41 2002.58 3572.12 2001.36 3575.52 2001.36 3578.89 2001.36 3581.34 2002.68 3582.87 2005.33L3582.96 2005.33ZM3478.96 1990.16 3482.89 1990.16 3482.89 2026.43 3478.96 2026.43 3478.96 2022.27 3478.87 2022.27C3477.05 2025.43 3474.24 2027.01 3470.45 2027.01 3467.37 2027.01 3464.91 2025.91 3463.06 2023.72 3461.22 2021.53 3460.3 2018.54 3460.3 2014.76 3460.3 2010.71 3461.32 2007.46 3463.36 2005.02 3465.41 2002.58 3468.12 2001.36 3471.52 2001.36 3474.89 2001.36 3477.34 2002.68 3478.87 2005.33L3478.96 2005.33Z" fill="url(#fill1)" fill-rule="evenodd"/><text fill="#000000" fill-opacity="0" font-family="Arial,Arial_MSFontService,sans-serif" font-size="36.8457" x="3256.5" y="2022.4">First introduced with versions:</text><path d="M2943.5 2080.83C2943.5 2068.5 2953.5 2058.5 2965.83 2058.5L3334.17 2058.5C3346.5 2058.5 3356.5 2068.5 3356.5 2080.83L3356.5 2170.17C3356.5 2182.5 3346.5 2192.5 3334.17 2192.5L2965.83 2192.5C2953.5 2192.5 2943.5 2182.5 2943.5 2170.17Z" stroke="#D7D7DA" stroke-width="3.4375" stroke-linejoin="round" stroke-miterlimit="10" fill="#50E6FF" fill-rule="evenodd"/><text font-family="Segoe UI,Segoe UI_MSFontService,sans-serif" font-weight="400" font-size="48" transform="matrix(1 0 0 1 2976.31 2145)">SQL Server 2017</text><path d="M3383.5 2080.83C3383.5 2068.5 3393.5 2058.5 3405.83 2058.5L3774.17 2058.5C3786.5 2058.5 3796.5 2068.5 3796.5 2080.83L3796.5 2170.17C3796.5 2182.5 3786.5 2192.5 3774.17 2192.5L3405.83 2192.5C3393.5 2192.5 3383.5 2182.5 3383.5 2170.17Z" stroke="#D7D7DA" stroke-width="3.4375" stroke-linejoin="round" stroke-miterlimit="10" fill="none" fill-rule="evenodd"/><text font-family="Segoe UI,Segoe UI_MSFontService,sans-serif" font-weight="400" font-size="48" transform="matrix(1 0 0 1 3416.31 2145)">SQL Server 2019</text><path d="M3823 2080.33C3823 2068 3833 2058 3845.33 2058L4212.67 2058C4225 2058 4235 2068 4235 2080.33L4235 2169.67C4235 2182 4225 2192 4212.67 2192L3845.33 2192C3833 2192 3823 2182 3823 2169.67Z" stroke="#D5D5D5" stroke-width="3.89583" stroke-linejoin="round" stroke-miterlimit="10" fill="#0078D4" fill-rule="evenodd"/><text fill="#FFFFFF" font-family="Segoe UI,Segoe UI_MSFontService,sans-serif" font-weight="700" font-size="46" transform="matrix(1 0 0 1 3853.46 2143)">SQL Server 2022</text></g></svg>