<svg width="2346" height="1186" xmlns="http://www.w3.org/2000/svg" xmlns:xlink="http://www.w3.org/1999/xlink" xml:space="preserve" overflow="hidden"><defs><filter id="fx0" x="-10%" y="-10%" width="120%" height="120%" filterUnits="userSpaceOnUse" primitiveUnits="userSpaceOnUse"><feComponentTransfer color-interpolation-filters="sRGB"><feFuncR type="discrete" tableValues="0 0"/><feFuncG type="discrete" tableValues="0 0"/><feFuncB type="discrete" tableValues="0 0"/><feFuncA type="linear" slope="0.631373" intercept="0"/></feComponentTransfer><feGaussianBlur stdDeviation="6.875 6.875"/></filter><filter id="fx1" x="-10%" y="-10%" width="120%" height="120%" filterUnits="userSpaceOnUse" primitiveUnits="userSpaceOnUse"><feComponentTransfer color-interpolation-filters="sRGB"><feFuncR type="discrete" tableValues="0 0"/><feFuncG type="discrete" tableValues="0 0"/><feFuncB type="discrete" tableValues="0 0"/><feFuncA type="linear" slope="0.631373" intercept="0"/></feComponentTransfer><feGaussianBlur stdDeviation="6.875 6.875"/></filter><filter id="fx2" x="-10%" y="-10%" width="120%" height="120%" filterUnits="userSpaceOnUse" primitiveUnits="userSpaceOnUse"><feComponentTransfer color-interpolation-filters="sRGB"><feFuncR type="discrete" tableValues="0 0"/><feFuncG type="discrete" tableValues="0 0"/><feFuncB type="discrete" tableValues="0 0"/><feFuncA type="linear" slope="0.631373" intercept="0"/></feComponentTransfer><feGaussianBlur stdDeviation="6.875 6.875"/></filter><filter id="fx3" x="-10%" y="-10%" width="120%" height="120%" filterUnits="userSpaceOnUse" primitiveUnits="userSpaceOnUse"><feComponentTransfer color-interpolation-filters="sRGB"><feFuncR type="discrete" tableValues="0 0"/><feFuncG type="discrete" tableValues="0 0"/><feFuncB type="discrete" tableValues="0 0"/><feFuncA type="linear" slope="0.631373" intercept="0"/></feComponentTransfer><feGaussianBlur stdDeviation="6.875 6.875"/></filter><filter id="fx4" x="-10%" y="-10%" width="120%" height="120%" filterUnits="userSpaceOnUse" primitiveUnits="userSpaceOnUse"><feComponentTransfer color-interpolation-filters="sRGB"><feFuncR type="discrete" tableValues="0 0"/><feFuncG type="discrete" tableValues="0 0"/><feFuncB type="discrete" tableValues="0 0"/><feFuncA type="linear" slope="0.631373" intercept="0"/></feComponentTransfer><feGaussianBlur stdDeviation="6.875 6.875"/></filter><filter id="fx5" x="-10%" y="-10%" width="120%" height="120%" filterUnits="userSpaceOnUse" primitiveUnits="userSpaceOnUse"><feComponentTransfer color-interpolation-filters="sRGB"><feFuncR type="discrete" tableValues="0 0"/><feFuncG type="discrete" tableValues="0 0"/><feFuncB type="discrete" tableValues="0 0"/><feFuncA type="linear" slope="0.631373" intercept="0"/></feComponentTransfer><feGaussianBlur stdDeviation="6.875 6.875"/></filter><filter id="fx6" x="-10%" y="-10%" width="120%" height="120%" filterUnits="userSpaceOnUse" primitiveUnits="userSpaceOnUse"><feComponentTransfer color-interpolation-filters="sRGB"><feFuncR type="discrete" tableValues="0 0"/><feFuncG type="discrete" tableValues="0 0"/><feFuncB type="discrete" tableValues="0 0"/><feFuncA type="linear" slope="0.631373" intercept="0"/></feComponentTransfer><feGaussianBlur stdDeviation="6.875 6.875"/></filter><filter id="fx7" x="-10%" y="-10%" width="120%" height="120%" filterUnits="userSpaceOnUse" primitiveUnits="userSpaceOnUse"><feComponentTransfer color-interpolation-filters="sRGB"><feFuncR type="discrete" tableValues="0 0"/><feFuncG type="discrete" tableValues="0 0"/><feFuncB type="discrete" tableValues="0 0"/><feFuncA type="linear" slope="0.631373" intercept="0"/></feComponentTransfer><feGaussianBlur stdDeviation="6.875 6.875"/></filter><filter id="fx8" x="-10%" y="-10%" width="120%" height="120%" filterUnits="userSpaceOnUse" primitiveUnits="userSpaceOnUse"><feComponentTransfer color-interpolation-filters="sRGB"><feFuncR type="discrete" tableValues="0 0"/><feFuncG type="discrete" tableValues="0 0"/><feFuncB type="discrete" tableValues="0 0"/><feFuncA type="linear" slope="0.631373" intercept="0"/></feComponentTransfer><feGaussianBlur stdDeviation="6.875 6.875"/></filter><filter id="fx9" x="-10%" y="-10%" width="120%" height="120%" filterUnits="userSpaceOnUse" primitiveUnits="userSpaceOnUse"><feComponentTransfer color-interpolation-filters="sRGB"><feFuncR type="discrete" tableValues="0 0"/><feFuncG type="discrete" tableValues="0 0"/><feFuncB type="discrete" tableValues="0 0"/><feFuncA type="linear" slope="0.631373" intercept="0"/></feComponentTransfer><feGaussianBlur stdDeviation="6.875 6.875"/></filter><filter id="fx10" x="-10%" y="-10%" width="120%" height="120%" filterUnits="userSpaceOnUse" primitiveUnits="userSpaceOnUse"><feComponentTransfer color-interpolation-filters="sRGB"><feFuncR type="discrete" tableValues="0 0"/><feFuncG type="discrete" tableValues="0 0"/><feFuncB type="discrete" tableValues="0 0"/><feFuncA type="linear" slope="0.631373" intercept="0"/></feComponentTransfer><feGaussianBlur stdDeviation="6.875 6.875"/></filter><filter id="fx11" x="-10%" y="-10%" width="120%" height="120%" filterUnits="userSpaceOnUse" primitiveUnits="userSpaceOnUse"><feComponentTransfer color-interpolation-filters="sRGB"><feFuncR type="discrete" tableValues="0 0"/><feFuncG type="discrete" tableValues="0 0"/><feFuncB type="discrete" tableValues="0 0"/><feFuncA type="linear" slope="0.631373" intercept="0"/></feComponentTransfer><feGaussianBlur stdDeviation="6.875 6.875"/></filter><filter id="fx12" x="-10%" y="-10%" width="120%" height="120%" filterUnits="userSpaceOnUse" primitiveUnits="userSpaceOnUse"><feComponentTransfer color-interpolation-filters="sRGB"><feFuncR type="discrete" tableValues="0 0"/><feFuncG type="discrete" tableValues="0 0"/><feFuncB type="discrete" tableValues="0 0"/><feFuncA type="linear" slope="0.631373" intercept="0"/></feComponentTransfer><feGaussianBlur stdDeviation="6.875 6.875"/></filter><filter id="fx13" x="-10%" y="-10%" width="120%" height="120%" filterUnits="userSpaceOnUse" primitiveUnits="userSpaceOnUse"><feComponentTransfer color-interpolation-filters="sRGB"><feFuncR type="discrete" tableValues="0 0"/><feFuncG type="discrete" tableValues="0 0"/><feFuncB type="discrete" tableValues="0 0"/><feFuncA type="linear" slope="0.631373" intercept="0"/></feComponentTransfer><feGaussianBlur stdDeviation="6.875 6.875"/></filter><clipPath id="clip14"><rect x="-1" y="-1" width="2346" height="1186"/></clipPath><clipPath id="clip15"><rect x="0" y="0" width="2343" height="1183"/></clipPath><clipPath id="clip16"><rect x="0" y="0" width="2343" height="1183"/></clipPath><clipPath id="clip17"><rect x="0" y="0" width="2343" height="1183"/></clipPath><clipPath id="clip18"><rect x="243" y="50" width="1630" height="938"/></clipPath><clipPath id="clip19"><rect x="-6" y="-3" width="1683" height="796"/></clipPath><clipPath id="clip20"><rect x="0" y="0" width="1672" height="788"/></clipPath><clipPath id="clip21"><rect x="243" y="50" width="1630" height="938"/></clipPath><clipPath id="clip22"><rect x="-6" y="-3" width="1683" height="796"/></clipPath><clipPath id="clip23"><rect x="0" y="0" width="1672" height="788"/></clipPath><clipPath id="clip24"><rect x="0" y="0" width="2343" height="1183"/></clipPath><clipPath id="clip25"><rect x="-3" y="-3" width="81" height="81"/></clipPath><clipPath id="clip26"><rect x="0" y="0" width="73" height="73"/></clipPath><clipPath id="clip27"><rect x="-3" y="-3" width="81" height="81"/></clipPath><clipPath id="clip28"><rect x="0" y="0" width="73" height="73"/></clipPath><clipPath id="clip29"><rect x="-3" y="-3" width="81" height="81"/></clipPath><clipPath id="clip30"><rect x="0" y="0" width="73" height="73"/></clipPath><clipPath id="clip31"><rect x="-3" y="-3" width="81" height="81"/></clipPath><clipPath id="clip32"><rect x="0" y="0" width="73" height="73"/></clipPath><clipPath id="clip33"><rect x="-3" y="-3" width="81" height="81"/></clipPath><clipPath id="clip34"><rect x="0" y="0" width="73" height="73"/></clipPath><clipPath id="clip35"><rect x="-3" y="-3" width="81" height="81"/></clipPath><clipPath id="clip36"><rect x="0" y="0" width="73" height="73"/></clipPath><clipPath id="clip37"><rect x="0" y="0" width="2343" height="1183"/></clipPath><clipPath id="clip38"><rect x="-3" y="-3" width="81" height="81"/></clipPath><clipPath id="clip39"><rect x="0" y="0" width="73" height="73"/></clipPath><clipPath id="clip40"><rect x="-3" y="-3" width="81" height="81"/></clipPath><clipPath id="clip41"><rect x="0" y="0" width="73" height="73"/></clipPath><clipPath id="clip42"><rect x="-3" y="-3" width="81" height="81"/></clipPath><clipPath id="clip43"><rect x="0" y="0" width="73" height="73"/></clipPath><clipPath id="clip44"><rect x="-3" y="-3" width="81" height="81"/></clipPath><clipPath id="clip45"><rect x="0" y="0" width="73" height="73"/></clipPath><clipPath id="clip46"><rect x="-3" y="-3" width="81" height="81"/></clipPath><clipPath id="clip47"><rect x="0" y="0" width="73" height="73"/></clipPath><clipPath id="clip48"><rect x="-3" y="-3" width="81" height="81"/></clipPath><clipPath id="clip49"><rect x="0" y="0" width="73" height="73"/></clipPath><clipPath id="clip50"><rect x="243" y="50" width="1630" height="938"/></clipPath><clipPath id="clip51"><rect x="0" y="0" width="2343" height="1183"/></clipPath><linearGradient x1="242.5" y1="223.5" x2="242.5" y2="249.5" gradientUnits="userSpaceOnUse" spreadMethod="reflect" id="fill52"><stop offset="0" stop-color="#71A6DB"/><stop offset="0.5" stop-color="#559BDB"/><stop offset="1" stop-color="#438AC9"/></linearGradient><linearGradient x1="567.5" y1="223.5" x2="567.5" y2="249.5" gradientUnits="userSpaceOnUse" spreadMethod="reflect" id="fill53"><stop offset="0" stop-color="#71A6DB"/><stop offset="0.5" stop-color="#559BDB"/><stop offset="1" stop-color="#438AC9"/></linearGradient><linearGradient x1="893.5" y1="966.5" x2="893.5" y2="992.5" gradientUnits="userSpaceOnUse" spreadMethod="reflect" id="fill54"><stop offset="0" stop-color="#71A6DB"/><stop offset="0.5" stop-color="#559BDB"/><stop offset="1" stop-color="#438AC9"/></linearGradient><linearGradient x1="1218.5" y1="223.5" x2="1218.5" y2="249.5" gradientUnits="userSpaceOnUse" spreadMethod="reflect" id="fill55"><stop offset="0" stop-color="#71A6DB"/><stop offset="0.5" stop-color="#559BDB"/><stop offset="1" stop-color="#438AC9"/></linearGradient><linearGradient x1="1543.5" y1="966.5" x2="1543.5" y2="992.5" gradientUnits="userSpaceOnUse" spreadMethod="reflect" id="fill56"><stop offset="0" stop-color="#71A6DB"/><stop offset="0.5" stop-color="#559BDB"/><stop offset="1" stop-color="#438AC9"/></linearGradient><linearGradient x1="1869.5" y1="223.5" x2="1869.5" y2="249.5" gradientUnits="userSpaceOnUse" spreadMethod="reflect" id="fill57"><stop offset="0" stop-color="#71A6DB"/><stop offset="0.5" stop-color="#559BDB"/><stop offset="1" stop-color="#438AC9"/></linearGradient><clipPath id="clip58"><rect x="243" y="50" width="1630" height="938"/></clipPath><clipPath id="clip59"><rect x="0" y="0" width="2343" height="1183"/></clipPath><linearGradient x1="242.5" y1="223.5" x2="242.5" y2="249.5" gradientUnits="userSpaceOnUse" spreadMethod="reflect" id="fill60"><stop offset="0" stop-color="#F18C55"/><stop offset="0.5" stop-color="#F67B28"/><stop offset="1" stop-color="#E56B17"/></linearGradient><linearGradient x1="567.5" y1="966.5" x2="567.5" y2="992.5" gradientUnits="userSpaceOnUse" spreadMethod="reflect" id="fill61"><stop offset="0" stop-color="#F18C55"/><stop offset="0.5" stop-color="#F67B28"/><stop offset="1" stop-color="#E56B17"/></linearGradient><linearGradient x1="893.5" y1="223.5" x2="893.5" y2="249.5" gradientUnits="userSpaceOnUse" spreadMethod="reflect" id="fill62"><stop offset="0" stop-color="#F18C55"/><stop offset="0.5" stop-color="#F67B28"/><stop offset="1" stop-color="#E56B17"/></linearGradient><linearGradient x1="1218.5" y1="966.5" x2="1218.5" y2="992.5" gradientUnits="userSpaceOnUse" spreadMethod="reflect" id="fill63"><stop offset="0" stop-color="#F18C55"/><stop offset="0.5" stop-color="#F67B28"/><stop offset="1" stop-color="#E56B17"/></linearGradient><linearGradient x1="1543.5" y1="223.5" x2="1543.5" y2="249.5" gradientUnits="userSpaceOnUse" spreadMethod="reflect" id="fill64"><stop offset="0" stop-color="#F18C55"/><stop offset="0.5" stop-color="#F67B28"/><stop offset="1" stop-color="#E56B17"/></linearGradient><linearGradient x1="1869.5" y1="966.5" x2="1869.5" y2="992.5" gradientUnits="userSpaceOnUse" spreadMethod="reflect" id="fill65"><stop offset="0" stop-color="#F18C55"/><stop offset="0.5" stop-color="#F67B28"/><stop offset="1" stop-color="#E56B17"/></linearGradient><clipPath id="clip66"><rect x="0" y="0" width="2343" height="1183"/></clipPath><clipPath id="clip67"><rect x="0" y="0" width="2343" height="1183"/></clipPath><clipPath id="clip68"><rect x="0" y="0" width="2343" height="1183"/></clipPath><clipPath id="clip69"><rect x="0" y="0" width="2343" height="1183"/></clipPath><clipPath id="clip70"><rect x="0" y="0" width="2343" height="1183"/></clipPath><clipPath id="clip71"><rect x="0" y="0" width="2343" height="1183"/></clipPath><clipPath id="clip72"><rect x="0" y="0" width="2343" height="1183"/></clipPath><clipPath id="clip73"><rect x="0" y="0" width="2343" height="1183"/></clipPath><clipPath id="clip74"><rect x="0" y="0" width="2343" height="1183"/></clipPath><clipPath id="clip75"><rect x="0" y="0" width="2343" height="1183"/></clipPath><clipPath id="clip76"><rect x="0" y="0" width="2343" height="1183"/></clipPath><clipPath id="clip77"><rect x="0" y="0" width="2343" height="1183"/></clipPath><clipPath id="clip78"><rect x="0" y="0" width="2343" height="1183"/></clipPath><clipPath id="clip79"><rect x="0" y="0" width="2343" height="1183"/></clipPath><clipPath id="clip80"><rect x="0" y="0" width="2343" height="1183"/></clipPath><clipPath id="clip81"><rect x="0" y="0" width="2343" height="1183"/></clipPath><clipPath id="clip82"><rect x="0" y="0" width="2343" height="1183"/></clipPath><clipPath id="clip83"><rect x="0" y="0" width="2343" height="1183"/></clipPath><clipPath id="clip84"><rect x="0" y="0" width="2343" height="1183"/></clipPath><clipPath id="clip85"><rect x="0" y="0" width="2343" height="1183"/></clipPath><clipPath id="clip86"><rect x="0" y="0" width="2343" height="1183"/></clipPath><clipPath id="clip87"><rect x="0" y="0" width="2343" height="1183"/></clipPath><clipPath id="clip88"><rect x="0" y="0" width="2343" height="1183"/></clipPath><clipPath id="clip89"><rect x="0" y="0" width="2343" height="1183"/></clipPath><clipPath id="clip90"><rect x="0" y="0" width="2343" height="1183"/></clipPath><linearGradient x1="1996" y1="541" x2="1996" y2="562.999" gradientUnits="userSpaceOnUse" spreadMethod="reflect" id="fill91"><stop offset="0" stop-color="#71A6DB"/><stop offset="0.5" stop-color="#559BDB"/><stop offset="1" stop-color="#438AC9"/></linearGradient><clipPath id="clip92"><rect x="0" y="0" width="2343" height="1183"/></clipPath><clipPath id="clip93"><rect x="0" y="0" width="2343" height="1183"/></clipPath><clipPath id="clip94"><rect x="0" y="0" width="2343" height="1183"/></clipPath><linearGradient x1="1996" y1="619" x2="1996" y2="640.999" gradientUnits="userSpaceOnUse" spreadMethod="reflect" id="fill95"><stop offset="0" stop-color="#F18C55"/><stop offset="0.5" stop-color="#F67B28"/><stop offset="1" stop-color="#E56B17"/></linearGradient><clipPath id="clip96"><rect x="0" y="0" width="2343" height="1183"/></clipPath></defs><g clip-path="url(#clip14)" transform="translate(1 1)"><rect x="0" y="0" width="2343" height="1183" fill="#FFFFFF"/><g clip-path="url(#clip15)"><path d="M243.5 517.517 1870.5 517.517M243.5 50.5 1870.5 50.5" stroke="#D9D9D9" stroke-width="3.4375" stroke-linejoin="round" stroke-miterlimit="10" fill="none"/></g><g clip-path="url(#clip16)"><path d="M243.5 50.5 243.5 985.5M568.519 50.5 568.519 985.5M893.529 50.5 893.529 985.5M1219.54 50.5 1219.54 985.5M1544.55 50.5 1544.55 985.5M1870.5 50.5 1870.5 985.5" stroke="#D9D9D9" stroke-width="3.4375" stroke-linejoin="round" stroke-miterlimit="10" fill="none"/></g><g clip-path="url(#clip17)"><path d="M243.5 985.5 1870.5 985.5" stroke="#D9D9D9" stroke-width="4.58333" stroke-linejoin="round" stroke-miterlimit="10" fill="none" fill-rule="evenodd"/></g><g clip-path="url(#clip18)"><g clip-path="url(#clip19)" filter="url(#fx0)" transform="translate(222 221)"><g clip-path="url(#clip20)"><path d="M21.4999 23.375 346.519 23.375 671.529 766.375 997.54 23.375 1322.55 766.375 1648.5 23.375" stroke="#5B9BD5" stroke-width="3" stroke-linecap="round" stroke-linejoin="round" stroke-miterlimit="10" fill="none"/></g></g></g><g clip-path="url(#clip21)"><g clip-path="url(#clip22)" filter="url(#fx1)" transform="translate(222 221)"><g clip-path="url(#clip23)"><path d="M21.4999 23.375 346.519 766.375 671.529 23.375 997.54 766.375 1322.55 23.375 1648.5 766.375" stroke="#ED7D31" stroke-width="3" stroke-linecap="round" stroke-linejoin="round" stroke-miterlimit="10" fill="none"/></g></g></g><g clip-path="url(#clip24)"><g clip-path="url(#clip25)" filter="url(#fx2)" transform="translate(206 207)"><g clip-path="url(#clip26)"><path d="M49.4995 36.375C49.4995 43.5545 43.6794 49.3747 36.4998 49.3747 29.3203 49.3747 23.5001 43.5545 23.5001 36.375 23.5001 29.1955 29.3203 23.3753 36.4998 23.3753 43.6794 23.3753 49.4995 29.1955 49.4995 36.375Z" stroke="#5B9BD5" stroke-width="3.4375" stroke-linecap="round" stroke-linejoin="round" stroke-miterlimit="10" fill="#FF0000"/></g></g><g clip-path="url(#clip27)" filter="url(#fx3)" transform="translate(531 207)"><g clip-path="url(#clip28)"><path d="M49.4997 36.375C49.4997 43.5545 43.6796 49.3747 36.5 49.3747 29.3205 49.3747 23.5003 43.5545 23.5003 36.375 23.5003 29.1955 29.3205 23.3753 36.5 23.3753 43.6796 23.3753 49.4997 29.1955 49.4997 36.375Z" stroke="#5B9BD5" stroke-width="3.4375" stroke-linecap="round" stroke-linejoin="round" stroke-miterlimit="10" fill="#FF0000"/></g></g><g clip-path="url(#clip29)" filter="url(#fx4)" transform="translate(857 950)"><g clip-path="url(#clip30)"><path d="M49.4996 36.3748C49.4996 43.5544 43.6794 49.3745 36.4999 49.3745 29.3204 49.3745 23.5002 43.5544 23.5002 36.3748 23.5002 29.1953 29.3204 23.3751 36.4999 23.3751 43.6794 23.3751 49.4996 29.1953 49.4996 36.3748Z" stroke="#5B9BD5" stroke-width="3.4375" stroke-linecap="round" stroke-linejoin="round" stroke-miterlimit="10" fill="#FF0000"/></g></g><g clip-path="url(#clip31)" filter="url(#fx5)" transform="translate(1182 207)"><g clip-path="url(#clip32)"><path d="M49.4999 36.375C49.4999 43.5545 43.6797 49.3747 36.5001 49.3747 29.3206 49.3747 23.5004 43.5545 23.5004 36.375 23.5004 29.1955 29.3206 23.3753 36.5001 23.3753 43.6797 23.3753 49.4999 29.1955 49.4999 36.375Z" stroke="#5B9BD5" stroke-width="3.4375" stroke-linecap="round" stroke-linejoin="round" stroke-miterlimit="10" fill="#FF0000"/></g></g><g clip-path="url(#clip33)" filter="url(#fx6)" transform="translate(1507 950)"><g clip-path="url(#clip34)"><path d="M49.4996 36.3748C49.4996 43.5544 43.6794 49.3745 36.4999 49.3745 29.3204 49.3745 23.5002 43.5544 23.5002 36.3748 23.5002 29.1953 29.3204 23.3751 36.4999 23.3751 43.6794 23.3751 49.4996 29.1953 49.4996 36.3748Z" stroke="#5B9BD5" stroke-width="3.4375" stroke-linecap="round" stroke-linejoin="round" stroke-miterlimit="10" fill="#FF0000"/></g></g><g clip-path="url(#clip35)" filter="url(#fx7)" transform="translate(1833 207)"><g clip-path="url(#clip36)"><path d="M49.4999 36.375C49.4999 43.5545 43.6797 49.3747 36.5001 49.3747 29.3206 49.3747 23.5004 43.5545 23.5004 36.375 23.5004 29.1955 29.3206 23.3753 36.5001 23.3753 43.6797 23.3753 49.4999 29.1955 49.4999 36.375Z" stroke="#5B9BD5" stroke-width="3.4375" stroke-linecap="round" stroke-linejoin="round" stroke-miterlimit="10" fill="#FF0000"/></g></g></g><g clip-path="url(#clip37)"><g clip-path="url(#clip38)" filter="url(#fx8)" transform="translate(206 207)"><g clip-path="url(#clip39)"><path d="M49.4995 36.375C49.4995 43.5545 43.6794 49.3747 36.4998 49.3747 29.3203 49.3747 23.5001 43.5545 23.5001 36.375 23.5001 29.1955 29.3203 23.3753 36.4998 23.3753 43.6794 23.3753 49.4995 29.1955 49.4995 36.375Z" stroke="#ED7D31" stroke-width="3.4375" stroke-linecap="round" stroke-linejoin="round" stroke-miterlimit="10" fill="#FF0000"/></g></g><g clip-path="url(#clip40)" filter="url(#fx9)" transform="translate(531 950)"><g clip-path="url(#clip41)"><path d="M49.4997 36.3748C49.4997 43.5544 43.6796 49.3745 36.5 49.3745 29.3205 49.3745 23.5003 43.5544 23.5003 36.3748 23.5003 29.1953 29.3205 23.3751 36.5 23.3751 43.6796 23.3751 49.4997 29.1953 49.4997 36.3748Z" stroke="#ED7D31" stroke-width="3.4375" stroke-linecap="round" stroke-linejoin="round" stroke-miterlimit="10" fill="#FF0000"/></g></g><g clip-path="url(#clip42)" filter="url(#fx10)" transform="translate(857 207)"><g clip-path="url(#clip43)"><path d="M49.4996 36.375C49.4996 43.5545 43.6794 49.3747 36.4999 49.3747 29.3204 49.3747 23.5002 43.5545 23.5002 36.375 23.5002 29.1955 29.3204 23.3753 36.4999 23.3753 43.6794 23.3753 49.4996 29.1955 49.4996 36.375Z" stroke="#ED7D31" stroke-width="3.4375" stroke-linecap="round" stroke-linejoin="round" stroke-miterlimit="10" fill="#FF0000"/></g></g><g clip-path="url(#clip44)" filter="url(#fx11)" transform="translate(1182 950)"><g clip-path="url(#clip45)"><path d="M49.4999 36.3748C49.4999 43.5544 43.6797 49.3745 36.5001 49.3745 29.3206 49.3745 23.5004 43.5544 23.5004 36.3748 23.5004 29.1953 29.3206 23.3751 36.5001 23.3751 43.6797 23.3751 49.4999 29.1953 49.4999 36.3748Z" stroke="#ED7D31" stroke-width="3.4375" stroke-linecap="round" stroke-linejoin="round" stroke-miterlimit="10" fill="#FF0000"/></g></g><g clip-path="url(#clip46)" filter="url(#fx12)" transform="translate(1507 207)"><g clip-path="url(#clip47)"><path d="M49.4996 36.375C49.4996 43.5545 43.6794 49.3747 36.4999 49.3747 29.3204 49.3747 23.5002 43.5545 23.5002 36.375 23.5002 29.1955 29.3204 23.3753 36.4999 23.3753 43.6794 23.3753 49.4996 29.1955 49.4996 36.375Z" stroke="#ED7D31" stroke-width="3.4375" stroke-linecap="round" stroke-linejoin="round" stroke-miterlimit="10" fill="#FF0000"/></g></g><g clip-path="url(#clip48)" filter="url(#fx13)" transform="translate(1833 950)"><g clip-path="url(#clip49)"><path d="M49.4999 36.3748C49.4999 43.5544 43.6797 49.3745 36.5001 49.3745 29.3206 49.3745 23.5004 43.5544 23.5004 36.3748 23.5004 29.1953 29.3206 23.3751 36.5001 23.3751 43.6797 23.3751 49.4999 29.1953 49.4999 36.3748Z" stroke="#ED7D31" stroke-width="3.4375" stroke-linecap="round" stroke-linejoin="round" stroke-miterlimit="10" fill="#FF0000"/></g></g></g><g clip-path="url(#clip50)"><path d="M243.5 237.5 568.519 237.5 893.529 980.5 1219.54 237.5 1544.55 980.5 1870.5 237.5" stroke="#5B9BD5" stroke-width="3.4375" stroke-linecap="round" stroke-linejoin="round" stroke-miterlimit="10" fill="none"/></g><g clip-path="url(#clip51)"><path d="M255.5 236.5C255.5 243.68 249.679 249.5 242.5 249.5 235.32 249.5 229.5 243.68 229.5 236.5 229.5 229.32 235.32 223.5 242.5 223.5 249.679 223.5 255.5 229.32 255.5 236.5Z" stroke="#5B9BD5" stroke-width="3.4375" stroke-linecap="round" stroke-linejoin="round" stroke-miterlimit="10" fill="url(#fill52)"/><path d="M580.5 236.5C580.5 243.68 574.68 249.5 567.5 249.5 560.32 249.5 554.5 243.68 554.5 236.5 554.5 229.32 560.32 223.5 567.5 223.5 574.68 223.5 580.5 229.32 580.5 236.5Z" stroke="#5B9BD5" stroke-width="3.4375" stroke-linecap="round" stroke-linejoin="round" stroke-miterlimit="10" fill="url(#fill53)"/><path d="M906.5 979.5C906.5 986.679 900.679 992.5 893.5 992.5 886.32 992.5 880.5 986.679 880.5 979.5 880.5 972.32 886.32 966.5 893.5 966.5 900.679 966.5 906.5 972.32 906.5 979.5Z" stroke="#5B9BD5" stroke-width="3.4375" stroke-linecap="round" stroke-linejoin="round" stroke-miterlimit="10" fill="url(#fill54)"/><path d="M1231.5 236.5C1231.5 243.68 1225.68 249.5 1218.5 249.5 1211.32 249.5 1205.5 243.68 1205.5 236.5 1205.5 229.32 1211.32 223.5 1218.5 223.5 1225.68 223.5 1231.5 229.32 1231.5 236.5Z" stroke="#5B9BD5" stroke-width="3.4375" stroke-linecap="round" stroke-linejoin="round" stroke-miterlimit="10" fill="url(#fill55)"/><path d="M1556.5 979.5C1556.5 986.679 1550.68 992.5 1543.5 992.5 1536.32 992.5 1530.5 986.679 1530.5 979.5 1530.5 972.32 1536.32 966.5 1543.5 966.5 1550.68 966.5 1556.5 972.32 1556.5 979.5Z" stroke="#5B9BD5" stroke-width="3.4375" stroke-linecap="round" stroke-linejoin="round" stroke-miterlimit="10" fill="url(#fill56)"/><path d="M1882.5 236.5C1882.5 243.68 1876.68 249.5 1869.5 249.5 1862.32 249.5 1856.5 243.68 1856.5 236.5 1856.5 229.32 1862.32 223.5 1869.5 223.5 1876.68 223.5 1882.5 229.32 1882.5 236.5Z" stroke="#5B9BD5" stroke-width="3.4375" stroke-linecap="round" stroke-linejoin="round" stroke-miterlimit="10" fill="url(#fill57)"/></g><g clip-path="url(#clip58)"><path d="M243.5 237.5 568.519 980.5 893.529 237.5 1219.54 980.5 1544.55 237.5 1870.5 980.5" stroke="#ED7D31" stroke-width="3.4375" stroke-linecap="round" stroke-linejoin="round" stroke-miterlimit="10" fill="none"/></g><g clip-path="url(#clip59)"><path d="M255.5 236.5C255.5 243.68 249.679 249.5 242.5 249.5 235.32 249.5 229.5 243.68 229.5 236.5 229.5 229.32 235.32 223.5 242.5 223.5 249.679 223.5 255.5 229.32 255.5 236.5Z" stroke="#ED7D31" stroke-width="3.4375" stroke-linecap="round" stroke-linejoin="round" stroke-miterlimit="10" fill="url(#fill60)"/><path d="M580.5 979.5C580.5 986.679 574.68 992.5 567.5 992.5 560.32 992.5 554.5 986.679 554.5 979.5 554.5 972.32 560.32 966.5 567.5 966.5 574.68 966.5 580.5 972.32 580.5 979.5Z" stroke="#ED7D31" stroke-width="3.4375" stroke-linecap="round" stroke-linejoin="round" stroke-miterlimit="10" fill="url(#fill61)"/><path d="M906.5 236.5C906.5 243.68 900.679 249.5 893.5 249.5 886.32 249.5 880.5 243.68 880.5 236.5 880.5 229.32 886.32 223.5 893.5 223.5 900.679 223.5 906.5 229.32 906.5 236.5Z" stroke="#ED7D31" stroke-width="3.4375" stroke-linecap="round" stroke-linejoin="round" stroke-miterlimit="10" fill="url(#fill62)"/><path d="M1231.5 979.5C1231.5 986.679 1225.68 992.5 1218.5 992.5 1211.32 992.5 1205.5 986.679 1205.5 979.5 1205.5 972.32 1211.32 966.5 1218.5 966.5 1225.68 966.5 1231.5 972.32 1231.5 979.5Z" stroke="#ED7D31" stroke-width="3.4375" stroke-linecap="round" stroke-linejoin="round" stroke-miterlimit="10" fill="url(#fill63)"/><path d="M1556.5 236.5C1556.5 243.68 1550.68 249.5 1543.5 249.5 1536.32 249.5 1530.5 243.68 1530.5 236.5 1530.5 229.32 1536.32 223.5 1543.5 223.5 1550.68 223.5 1556.5 229.32 1556.5 236.5Z" stroke="#ED7D31" stroke-width="3.4375" stroke-linecap="round" stroke-linejoin="round" stroke-miterlimit="10" fill="url(#fill64)"/><path d="M1882.5 979.5C1882.5 986.679 1876.68 992.5 1869.5 992.5 1862.32 992.5 1856.5 986.679 1856.5 979.5 1856.5 972.32 1862.32 966.5 1869.5 966.5 1876.68 966.5 1882.5 972.32 1882.5 979.5Z" stroke="#ED7D31" stroke-width="3.4375" stroke-linecap="round" stroke-linejoin="round" stroke-miterlimit="10" fill="url(#fill65)"/></g><g clip-path="url(#clip66)"><text fill="#404040" font-family="Calibri,Calibri_MSFontService,sans-serif" font-weight="400" font-size="41" transform="matrix(1 0 0 1 211.907 192)">800</text></g><g clip-path="url(#clip67)"><text fill="#404040" font-family="Calibri,Calibri_MSFontService,sans-serif" font-weight="400" font-size="41" transform="matrix(1 0 0 1 537.292 192)">800</text></g><g clip-path="url(#clip68)"><text fill="#404040" font-family="Calibri,Calibri_MSFontService,sans-serif" font-weight="400" font-size="41" transform="matrix(1 0 0 1 883.577 935)">5</text></g><g clip-path="url(#clip69)"><text fill="#404040" font-family="Calibri,Calibri_MSFontService,sans-serif" font-weight="400" font-size="41" transform="matrix(1 0 0 1 1188.06 192)">800</text></g><g clip-path="url(#clip70)"><text fill="#404040" font-family="Calibri,Calibri_MSFontService,sans-serif" font-weight="400" font-size="41" transform="matrix(1 0 0 1 1534.35 935)">5</text></g><g clip-path="url(#clip71)"><text fill="#404040" font-family="Calibri,Calibri_MSFontService,sans-serif" font-weight="400" font-size="41" transform="matrix(1 0 0 1 1838.83 192)">800</text></g><g clip-path="url(#clip72)"><text fill="#404040" font-family="Calibri,Calibri_MSFontService,sans-serif" font-weight="400" font-size="41" transform="matrix(1 0 0 1 211.907 192)">800</text></g><g clip-path="url(#clip73)"><text fill="#404040" font-family="Calibri,Calibri_MSFontService,sans-serif" font-weight="400" font-size="41" transform="matrix(1 0 0 1 558.192 935)">5</text></g><g clip-path="url(#clip74)"><text fill="#404040" font-family="Calibri,Calibri_MSFontService,sans-serif" font-weight="400" font-size="41" transform="matrix(1 0 0 1 862.677 192)">800</text></g><g clip-path="url(#clip75)"><text fill="#404040" font-family="Calibri,Calibri_MSFontService,sans-serif" font-weight="400" font-size="41" transform="matrix(1 0 0 1 1208.96 935)">5</text></g><g clip-path="url(#clip76)"><text fill="#404040" font-family="Calibri,Calibri_MSFontService,sans-serif" font-weight="400" font-size="41" transform="matrix(1 0 0 1 1513.45 192)">800</text></g><g clip-path="url(#clip77)"><text fill="#404040" font-family="Calibri,Calibri_MSFontService,sans-serif" font-weight="400" font-size="41" transform="matrix(1 0 0 1 1859.73 935)">5</text></g><g clip-path="url(#clip78)"><text fill="#595959" font-family="Calibri,Calibri_MSFontService,sans-serif" font-weight="400" font-size="41" transform="matrix(1 0 0 1 184.09 997)">0</text></g><g clip-path="url(#clip79)"><text fill="#595959" font-family="Calibri,Calibri_MSFontService,sans-serif" font-weight="400" font-size="41" transform="matrix(1 0 0 1 142.29 529)">500</text></g><g clip-path="url(#clip80)"><text fill="#595959" font-family="Calibri,Calibri_MSFontService,sans-serif" font-weight="400" font-size="41" transform="matrix(1 0 0 1 121.39 62)">1000</text></g><g clip-path="url(#clip81)"><text fill="#595959" font-family="Calibri,Calibri_MSFontService,sans-serif" font-weight="400" font-size="41" transform="matrix(1 0 0 1 232.807 1050)">1</text></g><g clip-path="url(#clip82)"><text fill="#595959" font-family="Calibri,Calibri_MSFontService,sans-serif" font-weight="400" font-size="41" transform="matrix(1 0 0 1 558.192 1050)">2</text></g><g clip-path="url(#clip83)"><text fill="#595959" font-family="Calibri,Calibri_MSFontService,sans-serif" font-weight="400" font-size="41" transform="matrix(1 0 0 1 883.577 1050)">3</text></g><g clip-path="url(#clip84)"><text fill="#595959" font-family="Calibri,Calibri_MSFontService,sans-serif" font-weight="400" font-size="41" transform="matrix(1 0 0 1 1208.96 1050)">4</text></g><g clip-path="url(#clip85)"><text fill="#595959" font-family="Calibri,Calibri_MSFontService,sans-serif" font-weight="400" font-size="41" transform="matrix(1 0 0 1 1534.35 1050)">5</text></g><g clip-path="url(#clip86)"><text fill="#595959" font-family="Calibri,Calibri_MSFontService,sans-serif" font-weight="400" font-size="41" transform="matrix(1 0 0 1 1859.73 1050)">6</text></g><g clip-path="url(#clip87)"><text fill="#595959" font-family="Calibri,Calibri_MSFontService,sans-serif" font-weight="400" font-size="41" transform="matrix(6.12323e-17 -1 1 6.12323e-17 96.2958 670)">Granted Size (MB)</text></g><g clip-path="url(#clip88)"><text fill="#595959" font-family="Calibri,Calibri_MSFontService,sans-serif" font-weight="400" font-size="41" transform="matrix(1 0 0 1 790.978 1115)">Parameterized Query Execution</text></g><g clip-path="url(#clip89)"><path d="M1952.5 552.5 2040.5 552.5" stroke="#5B9BD5" stroke-width="3.4375" stroke-linecap="round" stroke-linejoin="round" stroke-miterlimit="10" fill="none" fill-rule="evenodd"/></g><g clip-path="url(#clip90)"><path d="M2007 552C2007 558.075 2002.08 562.999 1996 562.999 1989.93 562.999 1985 558.075 1985 552 1985 545.924 1989.93 541 1996 541 2002.08 541 2007 545.924 2007 552Z" stroke="#5B9BD5" stroke-width="3.4375" stroke-linecap="round" stroke-linejoin="round" stroke-miterlimit="10" fill="url(#fill91)"/></g><g clip-path="url(#clip92)"><text fill="#595959" font-family="Calibri,Calibri_MSFontService,sans-serif" font-weight="400" font-size="41" transform="matrix(1 0 0 1 2049.64 564)">Granted size</text></g><g clip-path="url(#clip93)"><path d="M1952.5 630.5 2040.5 630.5" stroke="#ED7D31" stroke-width="3.4375" stroke-linecap="round" stroke-linejoin="round" stroke-miterlimit="10" fill="none" fill-rule="evenodd"/></g><g clip-path="url(#clip94)"><path d="M2007 630C2007 636.075 2002.08 640.999 1996 640.999 1989.93 640.999 1985 636.075 1985 630 1985 623.924 1989.93 619 1996 619 2002.08 619 2007 623.924 2007 630Z" stroke="#ED7D31" stroke-width="3.4375" stroke-linecap="round" stroke-linejoin="round" stroke-miterlimit="10" fill="url(#fill95)"/></g><g clip-path="url(#clip96)"><text fill="#595959" font-family="Calibri,Calibri_MSFontService,sans-serif" font-weight="400" font-size="41" transform="matrix(1 0 0 1 2049.64 642)">Actual Needed</text></g><rect x="0.499836" y="0.499836" width="2343" height="1183" stroke="#D9D9D9" stroke-width="3.4375" stroke-linejoin="round" stroke-miterlimit="10" fill="none"/></g></svg>