<svg width="2240" height="934" xmlns="http://www.w3.org/2000/svg" xmlns:xlink="http://www.w3.org/1999/xlink" xml:space="preserve" overflow="hidden"><defs><filter id="fx0" x="-10%" y="-10%" width="120%" height="120%" filterUnits="userSpaceOnUse" primitiveUnits="userSpaceOnUse"><feComponentTransfer color-interpolation-filters="sRGB"><feFuncR type="discrete" tableValues="0 0"/><feFuncG type="discrete" tableValues="0 0"/><feFuncB type="discrete" tableValues="0 0"/><feFuncA type="linear" slope="0.631373" intercept="0"/></feComponentTransfer><feGaussianBlur stdDeviation="6.875 6.875"/></filter><filter id="fx1" x="-10%" y="-10%" width="120%" height="120%" filterUnits="userSpaceOnUse" primitiveUnits="userSpaceOnUse"><feComponentTransfer color-interpolation-filters="sRGB"><feFuncR type="discrete" tableValues="0 0"/><feFuncG type="discrete" tableValues="0 0"/><feFuncB type="discrete" tableValues="0 0"/><feFuncA type="linear" slope="0.631373" intercept="0"/></feComponentTransfer><feGaussianBlur stdDeviation="6.875 6.875"/></filter><filter id="fx2" x="-10%" y="-10%" width="120%" height="120%" filterUnits="userSpaceOnUse" primitiveUnits="userSpaceOnUse"><feComponentTransfer color-interpolation-filters="sRGB"><feFuncR type="discrete" tableValues="0 0"/><feFuncG type="discrete" tableValues="0 0"/><feFuncB type="discrete" tableValues="0 0"/><feFuncA type="linear" slope="0.631373" intercept="0"/></feComponentTransfer><feGaussianBlur stdDeviation="6.875 6.875"/></filter><filter id="fx3" x="-10%" y="-10%" width="120%" height="120%" filterUnits="userSpaceOnUse" primitiveUnits="userSpaceOnUse"><feComponentTransfer color-interpolation-filters="sRGB"><feFuncR type="discrete" tableValues="0 0"/><feFuncG type="discrete" tableValues="0 0"/><feFuncB type="discrete" tableValues="0 0"/><feFuncA type="linear" slope="0.631373" intercept="0"/></feComponentTransfer><feGaussianBlur stdDeviation="6.875 6.875"/></filter><filter id="fx4" x="-10%" y="-10%" width="120%" height="120%" filterUnits="userSpaceOnUse" primitiveUnits="userSpaceOnUse"><feComponentTransfer color-interpolation-filters="sRGB"><feFuncR type="discrete" tableValues="0 0"/><feFuncG type="discrete" tableValues="0 0"/><feFuncB type="discrete" tableValues="0 0"/><feFuncA type="linear" slope="0.631373" intercept="0"/></feComponentTransfer><feGaussianBlur stdDeviation="6.875 6.875"/></filter><filter id="fx5" x="-10%" y="-10%" width="120%" height="120%" filterUnits="userSpaceOnUse" primitiveUnits="userSpaceOnUse"><feComponentTransfer color-interpolation-filters="sRGB"><feFuncR type="discrete" tableValues="0 0"/><feFuncG type="discrete" tableValues="0 0"/><feFuncB type="discrete" tableValues="0 0"/><feFuncA type="linear" slope="0.631373" intercept="0"/></feComponentTransfer><feGaussianBlur stdDeviation="6.875 6.875"/></filter><filter id="fx6" x="-10%" y="-10%" width="120%" height="120%" filterUnits="userSpaceOnUse" primitiveUnits="userSpaceOnUse"><feComponentTransfer color-interpolation-filters="sRGB"><feFuncR type="discrete" tableValues="0 0"/><feFuncG type="discrete" tableValues="0 0"/><feFuncB type="discrete" tableValues="0 0"/><feFuncA type="linear" slope="0.631373" intercept="0"/></feComponentTransfer><feGaussianBlur stdDeviation="6.875 6.875"/></filter><filter id="fx7" x="-10%" y="-10%" width="120%" height="120%" filterUnits="userSpaceOnUse" primitiveUnits="userSpaceOnUse"><feComponentTransfer color-interpolation-filters="sRGB"><feFuncR type="discrete" tableValues="0 0"/><feFuncG type="discrete" tableValues="0 0"/><feFuncB type="discrete" tableValues="0 0"/><feFuncA type="linear" slope="0.631373" intercept="0"/></feComponentTransfer><feGaussianBlur stdDeviation="6.875 6.875"/></filter><filter id="fx8" x="-10%" y="-10%" width="120%" height="120%" filterUnits="userSpaceOnUse" primitiveUnits="userSpaceOnUse"><feComponentTransfer color-interpolation-filters="sRGB"><feFuncR type="discrete" tableValues="0 0"/><feFuncG type="discrete" tableValues="0 0"/><feFuncB type="discrete" tableValues="0 0"/><feFuncA type="linear" slope="0.631373" intercept="0"/></feComponentTransfer><feGaussianBlur stdDeviation="6.875 6.875"/></filter><filter id="fx9" x="-10%" y="-10%" width="120%" height="120%" filterUnits="userSpaceOnUse" primitiveUnits="userSpaceOnUse"><feComponentTransfer color-interpolation-filters="sRGB"><feFuncR type="discrete" tableValues="0 0"/><feFuncG type="discrete" tableValues="0 0"/><feFuncB type="discrete" tableValues="0 0"/><feFuncA type="linear" slope="0.631373" intercept="0"/></feComponentTransfer><feGaussianBlur stdDeviation="6.875 6.875"/></filter><filter id="fx10" x="-10%" y="-10%" width="120%" height="120%" filterUnits="userSpaceOnUse" primitiveUnits="userSpaceOnUse"><feComponentTransfer color-interpolation-filters="sRGB"><feFuncR type="discrete" tableValues="0 0"/><feFuncG type="discrete" tableValues="0 0"/><feFuncB type="discrete" tableValues="0 0"/><feFuncA type="linear" slope="0.631373" intercept="0"/></feComponentTransfer><feGaussianBlur stdDeviation="6.875 6.875"/></filter><filter id="fx11" x="-10%" y="-10%" width="120%" height="120%" filterUnits="userSpaceOnUse" primitiveUnits="userSpaceOnUse"><feComponentTransfer color-interpolation-filters="sRGB"><feFuncR type="discrete" tableValues="0 0"/><feFuncG type="discrete" tableValues="0 0"/><feFuncB type="discrete" tableValues="0 0"/><feFuncA type="linear" slope="0.631373" intercept="0"/></feComponentTransfer><feGaussianBlur stdDeviation="6.875 6.875"/></filter><filter id="fx12" x="-10%" y="-10%" width="120%" height="120%" filterUnits="userSpaceOnUse" primitiveUnits="userSpaceOnUse"><feComponentTransfer color-interpolation-filters="sRGB"><feFuncR type="discrete" tableValues="0 0"/><feFuncG type="discrete" tableValues="0 0"/><feFuncB type="discrete" tableValues="0 0"/><feFuncA type="linear" slope="0.631373" intercept="0"/></feComponentTransfer><feGaussianBlur stdDeviation="6.875 6.875"/></filter><filter id="fx13" x="-10%" y="-10%" width="120%" height="120%" filterUnits="userSpaceOnUse" primitiveUnits="userSpaceOnUse"><feComponentTransfer color-interpolation-filters="sRGB"><feFuncR type="discrete" tableValues="0 0"/><feFuncG type="discrete" tableValues="0 0"/><feFuncB type="discrete" tableValues="0 0"/><feFuncA type="linear" slope="0.631373" intercept="0"/></feComponentTransfer><feGaussianBlur stdDeviation="6.875 6.875"/></filter><filter id="fx14" x="-10%" y="-10%" width="120%" height="120%" filterUnits="userSpaceOnUse" primitiveUnits="userSpaceOnUse"><feComponentTransfer color-interpolation-filters="sRGB"><feFuncR type="discrete" tableValues="0 0"/><feFuncG type="discrete" tableValues="0 0"/><feFuncB type="discrete" tableValues="0 0"/><feFuncA type="linear" slope="0.631373" intercept="0"/></feComponentTransfer><feGaussianBlur stdDeviation="6.875 6.875"/></filter><filter id="fx15" x="-10%" y="-10%" width="120%" height="120%" filterUnits="userSpaceOnUse" primitiveUnits="userSpaceOnUse"><feComponentTransfer color-interpolation-filters="sRGB"><feFuncR type="discrete" tableValues="0 0"/><feFuncG type="discrete" tableValues="0 0"/><feFuncB type="discrete" tableValues="0 0"/><feFuncA type="linear" slope="0.631373" intercept="0"/></feComponentTransfer><feGaussianBlur stdDeviation="6.875 6.875"/></filter><filter id="fx16" x="-10%" y="-10%" width="120%" height="120%" filterUnits="userSpaceOnUse" primitiveUnits="userSpaceOnUse"><feComponentTransfer color-interpolation-filters="sRGB"><feFuncR type="discrete" tableValues="0 0"/><feFuncG type="discrete" tableValues="0 0"/><feFuncB type="discrete" tableValues="0 0"/><feFuncA type="linear" slope="0.631373" intercept="0"/></feComponentTransfer><feGaussianBlur stdDeviation="6.875 6.875"/></filter><filter id="fx17" x="-10%" y="-10%" width="120%" height="120%" filterUnits="userSpaceOnUse" primitiveUnits="userSpaceOnUse"><feComponentTransfer color-interpolation-filters="sRGB"><feFuncR type="discrete" tableValues="0 0"/><feFuncG type="discrete" tableValues="0 0"/><feFuncB type="discrete" tableValues="0 0"/><feFuncA type="linear" slope="0.631373" intercept="0"/></feComponentTransfer><feGaussianBlur stdDeviation="6.875 6.875"/></filter><filter id="fx18" x="-10%" y="-10%" width="120%" height="120%" filterUnits="userSpaceOnUse" primitiveUnits="userSpaceOnUse"><feComponentTransfer color-interpolation-filters="sRGB"><feFuncR type="discrete" tableValues="0 0"/><feFuncG type="discrete" tableValues="0 0"/><feFuncB type="discrete" tableValues="0 0"/><feFuncA type="linear" slope="0.631373" intercept="0"/></feComponentTransfer><feGaussianBlur stdDeviation="6.875 6.875"/></filter><filter id="fx19" x="-10%" y="-10%" width="120%" height="120%" filterUnits="userSpaceOnUse" primitiveUnits="userSpaceOnUse"><feComponentTransfer color-interpolation-filters="sRGB"><feFuncR type="discrete" tableValues="0 0"/><feFuncG type="discrete" tableValues="0 0"/><feFuncB type="discrete" tableValues="0 0"/><feFuncA type="linear" slope="0.631373" intercept="0"/></feComponentTransfer><feGaussianBlur stdDeviation="6.875 6.875"/></filter><filter id="fx20" x="-10%" y="-10%" width="120%" height="120%" filterUnits="userSpaceOnUse" primitiveUnits="userSpaceOnUse"><feComponentTransfer color-interpolation-filters="sRGB"><feFuncR type="discrete" tableValues="0 0"/><feFuncG type="discrete" tableValues="0 0"/><feFuncB type="discrete" tableValues="0 0"/><feFuncA type="linear" slope="0.631373" intercept="0"/></feComponentTransfer><feGaussianBlur stdDeviation="6.875 6.875"/></filter><clipPath id="clip21"><rect x="-1" y="-1" width="2240" height="934"/></clipPath><clipPath id="clip22"><rect x="0" y="0" width="2236" height="931"/></clipPath><clipPath id="clip23"><rect x="214" y="37" width="1956" height="760"/></clipPath><clipPath id="clip24"><rect x="-3" y="-3" width="2004" height="468"/></clipPath><clipPath id="clip25"><rect x="0" y="0" width="1997" height="463"/></clipPath><clipPath id="clip26"><rect x="214" y="37" width="1956" height="760"/></clipPath><clipPath id="clip27"><rect x="-3" y="-3" width="2004" height="394"/></clipPath><clipPath id="clip28"><rect x="0" y="0" width="1997" height="388"/></clipPath><clipPath id="clip29"><rect x="214" y="37" width="1956" height="760"/></clipPath><clipPath id="clip30"><rect x="-6" y="-3" width="2007" height="394"/></clipPath><clipPath id="clip31"><rect x="0" y="0" width="1997" height="388"/></clipPath><clipPath id="clip32"><rect x="0" y="0" width="2236" height="931"/></clipPath><clipPath id="clip33"><rect x="-3" y="-3" width="81" height="81"/></clipPath><clipPath id="clip34"><rect x="0" y="0" width="73" height="73"/></clipPath><clipPath id="clip35"><rect x="-3" y="-3" width="81" height="81"/></clipPath><clipPath id="clip36"><rect x="0" y="0" width="73" height="73"/></clipPath><clipPath id="clip37"><rect x="-3" y="-3" width="81" height="81"/></clipPath><clipPath id="clip38"><rect x="0" y="0" width="73" height="73"/></clipPath><clipPath id="clip39"><rect x="-3" y="-3" width="81" height="81"/></clipPath><clipPath id="clip40"><rect x="0" y="0" width="73" height="73"/></clipPath><clipPath id="clip41"><rect x="-3" y="-3" width="81" height="81"/></clipPath><clipPath id="clip42"><rect x="0" y="0" width="73" height="73"/></clipPath><clipPath id="clip43"><rect x="-3" y="-3" width="81" height="81"/></clipPath><clipPath id="clip44"><rect x="0" y="0" width="73" height="73"/></clipPath><clipPath id="clip45"><rect x="0" y="0" width="2236" height="931"/></clipPath><clipPath id="clip46"><rect x="-3" y="-3" width="81" height="81"/></clipPath><clipPath id="clip47"><rect x="0" y="0" width="73" height="73"/></clipPath><clipPath id="clip48"><rect x="-3" y="-3" width="81" height="81"/></clipPath><clipPath id="clip49"><rect x="0" y="0" width="73" height="73"/></clipPath><clipPath id="clip50"><rect x="-3" y="-3" width="81" height="81"/></clipPath><clipPath id="clip51"><rect x="0" y="0" width="73" height="73"/></clipPath><clipPath id="clip52"><rect x="-3" y="-3" width="81" height="81"/></clipPath><clipPath id="clip53"><rect x="0" y="0" width="73" height="73"/></clipPath><clipPath id="clip54"><rect x="-3" y="-3" width="81" height="81"/></clipPath><clipPath id="clip55"><rect x="0" y="0" width="73" height="73"/></clipPath><clipPath id="clip56"><rect x="-3" y="-3" width="81" height="81"/></clipPath><clipPath id="clip57"><rect x="0" y="0" width="73" height="73"/></clipPath><clipPath id="clip58"><rect x="0" y="0" width="2236" height="931"/></clipPath><clipPath id="clip59"><rect x="-3" y="-3" width="81" height="81"/></clipPath><clipPath id="clip60"><rect x="0" y="0" width="73" height="73"/></clipPath><clipPath id="clip61"><rect x="-3" y="-3" width="81" height="81"/></clipPath><clipPath id="clip62"><rect x="0" y="0" width="73" height="73"/></clipPath><clipPath id="clip63"><rect x="-3" y="-3" width="81" height="81"/></clipPath><clipPath id="clip64"><rect x="0" y="0" width="73" height="73"/></clipPath><clipPath id="clip65"><rect x="-3" y="-3" width="81" height="81"/></clipPath><clipPath id="clip66"><rect x="0" y="0" width="73" height="73"/></clipPath><clipPath id="clip67"><rect x="-3" y="-3" width="81" height="81"/></clipPath><clipPath id="clip68"><rect x="0" y="0" width="73" height="73"/></clipPath><clipPath id="clip69"><rect x="-3" y="-3" width="81" height="81"/></clipPath><clipPath id="clip70"><rect x="0" y="0" width="73" height="73"/></clipPath><clipPath id="clip71"><rect x="214" y="37" width="1956" height="760"/></clipPath><clipPath id="clip72"><rect x="0" y="0" width="2236" height="931"/></clipPath><linearGradient x1="213.5" y1="742.5" x2="213.5" y2="768.5" gradientUnits="userSpaceOnUse" spreadMethod="reflect" id="fill73"><stop offset="0" stop-color="#71A6DB"/><stop offset="0.5" stop-color="#559BDB"/><stop offset="1" stop-color="#438AC9"/></linearGradient><linearGradient x1="603.5" y1="742.5" x2="603.5" y2="768.5" gradientUnits="userSpaceOnUse" spreadMethod="reflect" id="fill74"><stop offset="0" stop-color="#71A6DB"/><stop offset="0.5" stop-color="#559BDB"/><stop offset="1" stop-color="#438AC9"/></linearGradient><linearGradient x1="994.5" y1="326.5" x2="994.5" y2="352.5" gradientUnits="userSpaceOnUse" spreadMethod="reflect" id="fill75"><stop offset="0" stop-color="#71A6DB"/><stop offset="0.5" stop-color="#559BDB"/><stop offset="1" stop-color="#438AC9"/></linearGradient><linearGradient x1="1384.5" y1="388.5" x2="1384.5" y2="414.5" gradientUnits="userSpaceOnUse" spreadMethod="reflect" id="fill76"><stop offset="0" stop-color="#71A6DB"/><stop offset="0.5" stop-color="#559BDB"/><stop offset="1" stop-color="#438AC9"/></linearGradient><linearGradient x1="1775.5" y1="388.5" x2="1775.5" y2="414.5" gradientUnits="userSpaceOnUse" spreadMethod="reflect" id="fill77"><stop offset="0" stop-color="#71A6DB"/><stop offset="0.5" stop-color="#559BDB"/><stop offset="1" stop-color="#438AC9"/></linearGradient><linearGradient x1="2165.5" y1="401.5" x2="2165.5" y2="427.5" gradientUnits="userSpaceOnUse" spreadMethod="reflect" id="fill78"><stop offset="0" stop-color="#71A6DB"/><stop offset="0.5" stop-color="#559BDB"/><stop offset="1" stop-color="#438AC9"/></linearGradient><clipPath id="clip79"><rect x="214" y="37" width="1956" height="760"/></clipPath><clipPath id="clip80"><rect x="0" y="0" width="2236" height="931"/></clipPath><linearGradient x1="213.5" y1="742.5" x2="213.5" y2="768.5" gradientUnits="userSpaceOnUse" spreadMethod="reflect" id="fill81"><stop offset="0" stop-color="#F18C55"/><stop offset="0.5" stop-color="#F67B28"/><stop offset="1" stop-color="#E56B17"/></linearGradient><linearGradient x1="603.5" y1="742.5" x2="603.5" y2="768.5" gradientUnits="userSpaceOnUse" spreadMethod="reflect" id="fill82"><stop offset="0" stop-color="#F18C55"/><stop offset="0.5" stop-color="#F67B28"/><stop offset="1" stop-color="#E56B17"/></linearGradient><linearGradient x1="994.5" y1="401.5" x2="994.5" y2="427.5" gradientUnits="userSpaceOnUse" spreadMethod="reflect" id="fill83"><stop offset="0" stop-color="#F18C55"/><stop offset="0.5" stop-color="#F67B28"/><stop offset="1" stop-color="#E56B17"/></linearGradient><linearGradient x1="1384.5" y1="742.5" x2="1384.5" y2="768.5" gradientUnits="userSpaceOnUse" spreadMethod="reflect" id="fill84"><stop offset="0" stop-color="#F18C55"/><stop offset="0.5" stop-color="#F67B28"/><stop offset="1" stop-color="#E56B17"/></linearGradient><linearGradient x1="1775.5" y1="401.5" x2="1775.5" y2="427.5" gradientUnits="userSpaceOnUse" spreadMethod="reflect" id="fill85"><stop offset="0" stop-color="#F18C55"/><stop offset="0.5" stop-color="#F67B28"/><stop offset="1" stop-color="#E56B17"/></linearGradient><linearGradient x1="2165.5" y1="742.5" x2="2165.5" y2="768.5" gradientUnits="userSpaceOnUse" spreadMethod="reflect" id="fill86"><stop offset="0" stop-color="#F18C55"/><stop offset="0.5" stop-color="#F67B28"/><stop offset="1" stop-color="#E56B17"/></linearGradient><clipPath id="clip87"><rect x="214" y="37" width="1956" height="760"/></clipPath><clipPath id="clip88"><rect x="0" y="0" width="2236" height="931"/></clipPath><linearGradient x1="213.5" y1="742.5" x2="213.5" y2="768.5" gradientUnits="userSpaceOnUse" spreadMethod="reflect" id="fill89"><stop offset="0" stop-color="#AFAFAF"/><stop offset="0.5" stop-color="#A5A5A5"/><stop offset="1" stop-color="#929292"/></linearGradient><linearGradient x1="603.5" y1="401.5" x2="603.5" y2="427.5" gradientUnits="userSpaceOnUse" spreadMethod="reflect" id="fill90"><stop offset="0" stop-color="#AFAFAF"/><stop offset="0.5" stop-color="#A5A5A5"/><stop offset="1" stop-color="#929292"/></linearGradient><linearGradient x1="994.5" y1="742.5" x2="994.5" y2="768.5" gradientUnits="userSpaceOnUse" spreadMethod="reflect" id="fill91"><stop offset="0" stop-color="#AFAFAF"/><stop offset="0.5" stop-color="#A5A5A5"/><stop offset="1" stop-color="#929292"/></linearGradient><linearGradient x1="1384.5" y1="401.5" x2="1384.5" y2="427.5" gradientUnits="userSpaceOnUse" spreadMethod="reflect" id="fill92"><stop offset="0" stop-color="#AFAFAF"/><stop offset="0.5" stop-color="#A5A5A5"/><stop offset="1" stop-color="#929292"/></linearGradient><linearGradient x1="1775.5" y1="742.5" x2="1775.5" y2="768.5" gradientUnits="userSpaceOnUse" spreadMethod="reflect" id="fill93"><stop offset="0" stop-color="#AFAFAF"/><stop offset="0.5" stop-color="#A5A5A5"/><stop offset="1" stop-color="#929292"/></linearGradient><linearGradient x1="2165.5" y1="401.5" x2="2165.5" y2="427.5" gradientUnits="userSpaceOnUse" spreadMethod="reflect" id="fill94"><stop offset="0" stop-color="#AFAFAF"/><stop offset="0.5" stop-color="#A5A5A5"/><stop offset="1" stop-color="#929292"/></linearGradient><clipPath id="clip95"><rect x="0" y="0" width="2236" height="931"/></clipPath><clipPath id="clip96"><rect x="0" y="0" width="2236" height="931"/></clipPath><clipPath id="clip97"><rect x="0" y="0" width="2236" height="931"/></clipPath><clipPath id="clip98"><rect x="0" y="0" width="2236" height="931"/></clipPath><clipPath id="clip99"><rect x="0" y="0" width="2236" height="931"/></clipPath><clipPath id="clip100"><rect x="0" y="0" width="2236" height="931"/></clipPath><clipPath id="clip101"><rect x="0" y="0" width="2236" height="931"/></clipPath><clipPath id="clip102"><rect x="0" y="0" width="2236" height="931"/></clipPath><clipPath id="clip103"><rect x="0" y="0" width="2236" height="931"/></clipPath><clipPath id="clip104"><rect x="0" y="0" width="2236" height="931"/></clipPath><clipPath id="clip105"><rect x="0" y="0" width="2236" height="931"/></clipPath><clipPath id="clip106"><rect x="0" y="0" width="2236" height="931"/></clipPath><clipPath id="clip107"><rect x="0" y="0" width="2236" height="931"/></clipPath><linearGradient x1="1651" y1="82.9998" x2="1651" y2="104.999" gradientUnits="userSpaceOnUse" spreadMethod="reflect" id="fill108"><stop offset="0" stop-color="#71A6DB"/><stop offset="0.5" stop-color="#559BDB"/><stop offset="1" stop-color="#438AC9"/></linearGradient><clipPath id="clip109"><rect x="0" y="0" width="2236" height="931"/></clipPath><clipPath id="clip110"><rect x="0" y="0" width="2236" height="931"/></clipPath><clipPath id="clip111"><rect x="0" y="0" width="2236" height="931"/></clipPath><linearGradient x1="1651" y1="169" x2="1651" y2="190.999" gradientUnits="userSpaceOnUse" spreadMethod="reflect" id="fill112"><stop offset="0" stop-color="#F18C55"/><stop offset="0.5" stop-color="#F67B28"/><stop offset="1" stop-color="#E56B17"/></linearGradient><clipPath id="clip113"><rect x="0" y="0" width="2236" height="931"/></clipPath><clipPath id="clip114"><rect x="0" y="0" width="2236" height="931"/></clipPath><clipPath id="clip115"><rect x="0" y="0" width="2236" height="931"/></clipPath><linearGradient x1="1651" y1="256" x2="1651" y2="277.999" gradientUnits="userSpaceOnUse" spreadMethod="reflect" id="fill116"><stop offset="0" stop-color="#AFAFAF"/><stop offset="0.5" stop-color="#A5A5A5"/><stop offset="1" stop-color="#929292"/></linearGradient><clipPath id="clip117"><rect x="0" y="0" width="2236" height="931"/></clipPath></defs><g clip-path="url(#clip21)" transform="translate(1 1)"><rect x="0" y="0" width="2237" height="931" fill="#FFFFFF"/><g clip-path="url(#clip22)"><path d="M214.5 794.5 2166.5 794.5" stroke="#D9D9D9" stroke-width="4.58333" stroke-linejoin="round" stroke-miterlimit="10" fill="none" fill-rule="evenodd"/></g><g clip-path="url(#clip23)"><g clip-path="url(#clip24)" filter="url(#fx0)" transform="translate(193 324)"><g clip-path="url(#clip25)"><path d="M21.5 439.375 411.52 439.375 802.533 23.3752 1192.55 85.3884 1583.56 85.3884 1973.5 98.3888" stroke="#5B9BD5" stroke-width="3" stroke-linecap="round" stroke-linejoin="round" stroke-miterlimit="10" fill="none"/></g></g></g><g clip-path="url(#clip26)"><g clip-path="url(#clip27)" filter="url(#fx1)" transform="translate(193 399)"><g clip-path="url(#clip28)"><path d="M21.5 364.375 411.52 364.375 802.533 23.3751 1192.55 364.375 1583.56 23.3751 1973.5 364.375" stroke="#ED7D31" stroke-width="3" stroke-linecap="round" stroke-linejoin="round" stroke-miterlimit="10" fill="none"/></g></g></g><g clip-path="url(#clip29)"><g clip-path="url(#clip30)" filter="url(#fx2)" transform="translate(193 399)"><g clip-path="url(#clip31)"><path d="M21.5 364.375 411.52 23.3751 802.533 364.375 1192.55 23.3751 1583.56 364.375 1973.5 23.3751" stroke="#A5A5A5" stroke-width="3" stroke-linecap="round" stroke-linejoin="round" stroke-miterlimit="10" fill="none"/></g></g></g><g clip-path="url(#clip32)"><g clip-path="url(#clip33)" filter="url(#fx3)" transform="translate(177 726)"><g clip-path="url(#clip34)"><path d="M49.4997 36.3751C49.4997 43.5546 43.6795 49.3748 36.5 49.3748 29.3204 49.3748 23.5003 43.5546 23.5003 36.3751 23.5003 29.1955 29.3204 23.3754 36.5 23.3754 43.6795 23.3754 49.4997 29.1955 49.4997 36.3751Z" stroke="#5B9BD5" stroke-width="3.4375" stroke-linecap="round" stroke-linejoin="round" stroke-miterlimit="10" fill="#FF0000"/></g></g><g clip-path="url(#clip35)" filter="url(#fx4)" transform="translate(567 726)"><g clip-path="url(#clip36)"><path d="M49.4999 36.3751C49.4999 43.5546 43.6797 49.3748 36.5001 49.3748 29.3206 49.3748 23.5004 43.5546 23.5004 36.3751 23.5004 29.1955 29.3206 23.3754 36.5001 23.3754 43.6797 23.3754 49.4999 29.1955 49.4999 36.3751Z" stroke="#5B9BD5" stroke-width="3.4375" stroke-linecap="round" stroke-linejoin="round" stroke-miterlimit="10" fill="#FF0000"/></g></g><g clip-path="url(#clip37)" filter="url(#fx5)" transform="translate(958 310)"><g clip-path="url(#clip38)"><path d="M49.4997 36.3751C49.4997 43.5547 43.6795 49.3749 36.5 49.3749 29.3204 49.3749 23.5003 43.5547 23.5003 36.3751 23.5003 29.1956 29.3204 23.3754 36.5 23.3754 43.6795 23.3754 49.4997 29.1956 49.4997 36.3751Z" stroke="#5B9BD5" stroke-width="3.4375" stroke-linecap="round" stroke-linejoin="round" stroke-miterlimit="10" fill="#FF0000"/></g></g><g clip-path="url(#clip39)" filter="url(#fx6)" transform="translate(1348 372)"><g clip-path="url(#clip40)"><path d="M49.4999 36.375C49.4999 43.5545 43.6797 49.3747 36.5001 49.3747 29.3206 49.3747 23.5004 43.5545 23.5004 36.375 23.5004 29.1955 29.3206 23.3753 36.5001 23.3753 43.6797 23.3753 49.4999 29.1955 49.4999 36.375Z" stroke="#5B9BD5" stroke-width="3.4375" stroke-linecap="round" stroke-linejoin="round" stroke-miterlimit="10" fill="#FF0000"/></g></g><g clip-path="url(#clip41)" filter="url(#fx7)" transform="translate(1739 372)"><g clip-path="url(#clip42)"><path d="M49.4997 36.375C49.4997 43.5545 43.6796 49.3747 36.5 49.3747 29.3205 49.3747 23.5003 43.5545 23.5003 36.375 23.5003 29.1955 29.3205 23.3753 36.5 23.3753 43.6796 23.3753 49.4997 29.1955 49.4997 36.375Z" stroke="#5B9BD5" stroke-width="3.4375" stroke-linecap="round" stroke-linejoin="round" stroke-miterlimit="10" fill="#FF0000"/></g></g><g clip-path="url(#clip43)" filter="url(#fx8)" transform="translate(2129 385)"><g clip-path="url(#clip44)"><path d="M49.4999 36.3751C49.4999 43.5546 43.6797 49.3748 36.5001 49.3748 29.3206 49.3748 23.5004 43.5546 23.5004 36.3751 23.5004 29.1955 29.3206 23.3753 36.5001 23.3753 43.6797 23.3753 49.4999 29.1955 49.4999 36.3751Z" stroke="#5B9BD5" stroke-width="3.4375" stroke-linecap="round" stroke-linejoin="round" stroke-miterlimit="10" fill="#FF0000"/></g></g></g><g clip-path="url(#clip45)"><g clip-path="url(#clip46)" filter="url(#fx9)" transform="translate(177 726)"><g clip-path="url(#clip47)"><path d="M49.4997 36.3751C49.4997 43.5546 43.6795 49.3748 36.5 49.3748 29.3204 49.3748 23.5003 43.5546 23.5003 36.3751 23.5003 29.1955 29.3204 23.3754 36.5 23.3754 43.6795 23.3754 49.4997 29.1955 49.4997 36.3751Z" stroke="#ED7D31" stroke-width="3.4375" stroke-linecap="round" stroke-linejoin="round" stroke-miterlimit="10" fill="#FF0000"/></g></g><g clip-path="url(#clip48)" filter="url(#fx10)" transform="translate(567 726)"><g clip-path="url(#clip49)"><path d="M49.4999 36.3751C49.4999 43.5546 43.6797 49.3748 36.5001 49.3748 29.3206 49.3748 23.5004 43.5546 23.5004 36.3751 23.5004 29.1955 29.3206 23.3754 36.5001 23.3754 43.6797 23.3754 49.4999 29.1955 49.4999 36.3751Z" stroke="#ED7D31" stroke-width="3.4375" stroke-linecap="round" stroke-linejoin="round" stroke-miterlimit="10" fill="#FF0000"/></g></g><g clip-path="url(#clip50)" filter="url(#fx11)" transform="translate(958 385)"><g clip-path="url(#clip51)"><path d="M49.4997 36.3751C49.4997 43.5546 43.6795 49.3748 36.5 49.3748 29.3204 49.3748 23.5003 43.5546 23.5003 36.3751 23.5003 29.1955 29.3204 23.3753 36.5 23.3753 43.6795 23.3753 49.4997 29.1955 49.4997 36.3751Z" stroke="#ED7D31" stroke-width="3.4375" stroke-linecap="round" stroke-linejoin="round" stroke-miterlimit="10" fill="#FF0000"/></g></g><g clip-path="url(#clip52)" filter="url(#fx12)" transform="translate(1348 726)"><g clip-path="url(#clip53)"><path d="M49.4999 36.3751C49.4999 43.5546 43.6797 49.3748 36.5001 49.3748 29.3206 49.3748 23.5004 43.5546 23.5004 36.3751 23.5004 29.1955 29.3206 23.3754 36.5001 23.3754 43.6797 23.3754 49.4999 29.1955 49.4999 36.3751Z" stroke="#ED7D31" stroke-width="3.4375" stroke-linecap="round" stroke-linejoin="round" stroke-miterlimit="10" fill="#FF0000"/></g></g><g clip-path="url(#clip54)" filter="url(#fx13)" transform="translate(1739 385)"><g clip-path="url(#clip55)"><path d="M49.4997 36.3751C49.4997 43.5546 43.6796 49.3748 36.5 49.3748 29.3205 49.3748 23.5003 43.5546 23.5003 36.3751 23.5003 29.1955 29.3205 23.3753 36.5 23.3753 43.6796 23.3753 49.4997 29.1955 49.4997 36.3751Z" stroke="#ED7D31" stroke-width="3.4375" stroke-linecap="round" stroke-linejoin="round" stroke-miterlimit="10" fill="#FF0000"/></g></g><g clip-path="url(#clip56)" filter="url(#fx14)" transform="translate(2129 726)"><g clip-path="url(#clip57)"><path d="M49.4999 36.3751C49.4999 43.5546 43.6797 49.3748 36.5001 49.3748 29.3206 49.3748 23.5004 43.5546 23.5004 36.3751 23.5004 29.1955 29.3206 23.3754 36.5001 23.3754 43.6797 23.3754 49.4999 29.1955 49.4999 36.3751Z" stroke="#ED7D31" stroke-width="3.4375" stroke-linecap="round" stroke-linejoin="round" stroke-miterlimit="10" fill="#FF0000"/></g></g></g><g clip-path="url(#clip58)"><g clip-path="url(#clip59)" filter="url(#fx15)" transform="translate(177 726)"><g clip-path="url(#clip60)"><path d="M49.4997 36.3751C49.4997 43.5546 43.6795 49.3748 36.5 49.3748 29.3204 49.3748 23.5003 43.5546 23.5003 36.3751 23.5003 29.1955 29.3204 23.3754 36.5 23.3754 43.6795 23.3754 49.4997 29.1955 49.4997 36.3751Z" stroke="#A5A5A5" stroke-width="3.4375" stroke-linecap="round" stroke-linejoin="round" stroke-miterlimit="10" fill="#FF0000"/></g></g><g clip-path="url(#clip61)" filter="url(#fx16)" transform="translate(567 385)"><g clip-path="url(#clip62)"><path d="M49.4999 36.3751C49.4999 43.5546 43.6797 49.3748 36.5001 49.3748 29.3206 49.3748 23.5004 43.5546 23.5004 36.3751 23.5004 29.1955 29.3206 23.3753 36.5001 23.3753 43.6797 23.3753 49.4999 29.1955 49.4999 36.3751Z" stroke="#A5A5A5" stroke-width="3.4375" stroke-linecap="round" stroke-linejoin="round" stroke-miterlimit="10" fill="#FF0000"/></g></g><g clip-path="url(#clip63)" filter="url(#fx17)" transform="translate(958 726)"><g clip-path="url(#clip64)"><path d="M49.4997 36.3751C49.4997 43.5546 43.6795 49.3748 36.5 49.3748 29.3204 49.3748 23.5003 43.5546 23.5003 36.3751 23.5003 29.1955 29.3204 23.3754 36.5 23.3754 43.6795 23.3754 49.4997 29.1955 49.4997 36.3751Z" stroke="#A5A5A5" stroke-width="3.4375" stroke-linecap="round" stroke-linejoin="round" stroke-miterlimit="10" fill="#FF0000"/></g></g><g clip-path="url(#clip65)" filter="url(#fx18)" transform="translate(1348 385)"><g clip-path="url(#clip66)"><path d="M49.4999 36.3751C49.4999 43.5546 43.6797 49.3748 36.5001 49.3748 29.3206 49.3748 23.5004 43.5546 23.5004 36.3751 23.5004 29.1955 29.3206 23.3753 36.5001 23.3753 43.6797 23.3753 49.4999 29.1955 49.4999 36.3751Z" stroke="#A5A5A5" stroke-width="3.4375" stroke-linecap="round" stroke-linejoin="round" stroke-miterlimit="10" fill="#FF0000"/></g></g><g clip-path="url(#clip67)" filter="url(#fx19)" transform="translate(1739 726)"><g clip-path="url(#clip68)"><path d="M49.4997 36.3751C49.4997 43.5546 43.6796 49.3748 36.5 49.3748 29.3205 49.3748 23.5003 43.5546 23.5003 36.3751 23.5003 29.1955 29.3205 23.3754 36.5 23.3754 43.6796 23.3754 49.4997 29.1955 49.4997 36.3751Z" stroke="#A5A5A5" stroke-width="3.4375" stroke-linecap="round" stroke-linejoin="round" stroke-miterlimit="10" fill="#FF0000"/></g></g><g clip-path="url(#clip69)" filter="url(#fx20)" transform="translate(2129 385)"><g clip-path="url(#clip70)"><path d="M49.4999 36.3751C49.4999 43.5546 43.6797 49.3748 36.5001 49.3748 29.3206 49.3748 23.5004 43.5546 23.5004 36.3751 23.5004 29.1955 29.3206 23.3753 36.5001 23.3753 43.6797 23.3753 49.4999 29.1955 49.4999 36.3751Z" stroke="#A5A5A5" stroke-width="3.4375" stroke-linecap="round" stroke-linejoin="round" stroke-miterlimit="10" fill="#FF0000"/></g></g></g><g clip-path="url(#clip71)"><path d="M214.5 756.5 604.52 756.5 995.533 340.5 1385.55 402.513 1776.56 402.513 2166.5 415.514" stroke="#5B9BD5" stroke-width="3.4375" stroke-linecap="round" stroke-linejoin="round" stroke-miterlimit="10" fill="none"/></g><g clip-path="url(#clip72)"><path d="M226.5 755.5C226.5 762.68 220.68 768.5 213.5 768.5 206.32 768.5 200.5 762.68 200.5 755.5 200.5 748.321 206.32 742.5 213.5 742.5 220.68 742.5 226.5 748.321 226.5 755.5Z" stroke="#5B9BD5" stroke-width="3.4375" stroke-linecap="round" stroke-linejoin="round" stroke-miterlimit="10" fill="url(#fill73)"/><path d="M616.5 755.5C616.5 762.68 610.68 768.5 603.5 768.5 596.321 768.5 590.5 762.68 590.5 755.5 590.5 748.321 596.321 742.5 603.5 742.5 610.68 742.5 616.5 748.321 616.5 755.5Z" stroke="#5B9BD5" stroke-width="3.4375" stroke-linecap="round" stroke-linejoin="round" stroke-miterlimit="10" fill="url(#fill74)"/><path d="M1007.5 339.5C1007.5 346.68 1001.68 352.5 994.5 352.5 987.32 352.5 981.5 346.68 981.5 339.5 981.5 332.321 987.32 326.5 994.5 326.5 1001.68 326.5 1007.5 332.321 1007.5 339.5Z" stroke="#5B9BD5" stroke-width="3.4375" stroke-linecap="round" stroke-linejoin="round" stroke-miterlimit="10" fill="url(#fill75)"/><path d="M1397.5 401.5C1397.5 408.68 1391.68 414.5 1384.5 414.5 1377.32 414.5 1371.5 408.68 1371.5 401.5 1371.5 394.32 1377.32 388.5 1384.5 388.5 1391.68 388.5 1397.5 394.32 1397.5 401.5Z" stroke="#5B9BD5" stroke-width="3.4375" stroke-linecap="round" stroke-linejoin="round" stroke-miterlimit="10" fill="url(#fill76)"/><path d="M1788.5 401.5C1788.5 408.68 1782.68 414.5 1775.5 414.5 1768.32 414.5 1762.5 408.68 1762.5 401.5 1762.5 394.32 1768.32 388.5 1775.5 388.5 1782.68 388.5 1788.5 394.32 1788.5 401.5Z" stroke="#5B9BD5" stroke-width="3.4375" stroke-linecap="round" stroke-linejoin="round" stroke-miterlimit="10" fill="url(#fill77)"/><path d="M2178.5 414.5C2178.5 421.68 2172.68 427.5 2165.5 427.5 2158.32 427.5 2152.5 421.68 2152.5 414.5 2152.5 407.321 2158.32 401.5 2165.5 401.5 2172.68 401.5 2178.5 407.321 2178.5 414.5Z" stroke="#5B9BD5" stroke-width="3.4375" stroke-linecap="round" stroke-linejoin="round" stroke-miterlimit="10" fill="url(#fill78)"/></g><g clip-path="url(#clip79)"><path d="M214.5 756.5 604.52 756.5 995.533 415.5 1385.55 756.5 1776.56 415.5 2166.5 756.5" stroke="#ED7D31" stroke-width="3.4375" stroke-linecap="round" stroke-linejoin="round" stroke-miterlimit="10" fill="none"/></g><g clip-path="url(#clip80)"><path d="M226.5 755.5C226.5 762.68 220.68 768.5 213.5 768.5 206.32 768.5 200.5 762.68 200.5 755.5 200.5 748.321 206.32 742.5 213.5 742.5 220.68 742.5 226.5 748.321 226.5 755.5Z" stroke="#ED7D31" stroke-width="3.4375" stroke-linecap="round" stroke-linejoin="round" stroke-miterlimit="10" fill="url(#fill81)"/><path d="M616.5 755.5C616.5 762.68 610.68 768.5 603.5 768.5 596.321 768.5 590.5 762.68 590.5 755.5 590.5 748.321 596.321 742.5 603.5 742.5 610.68 742.5 616.5 748.321 616.5 755.5Z" stroke="#ED7D31" stroke-width="3.4375" stroke-linecap="round" stroke-linejoin="round" stroke-miterlimit="10" fill="url(#fill82)"/><path d="M1007.5 414.5C1007.5 421.68 1001.68 427.5 994.5 427.5 987.32 427.5 981.5 421.68 981.5 414.5 981.5 407.321 987.32 401.5 994.5 401.5 1001.68 401.5 1007.5 407.321 1007.5 414.5Z" stroke="#ED7D31" stroke-width="3.4375" stroke-linecap="round" stroke-linejoin="round" stroke-miterlimit="10" fill="url(#fill83)"/><path d="M1397.5 755.5C1397.5 762.68 1391.68 768.5 1384.5 768.5 1377.32 768.5 1371.5 762.68 1371.5 755.5 1371.5 748.321 1377.32 742.5 1384.5 742.5 1391.68 742.5 1397.5 748.321 1397.5 755.5Z" stroke="#ED7D31" stroke-width="3.4375" stroke-linecap="round" stroke-linejoin="round" stroke-miterlimit="10" fill="url(#fill84)"/><path d="M1788.5 414.5C1788.5 421.68 1782.68 427.5 1775.5 427.5 1768.32 427.5 1762.5 421.68 1762.5 414.5 1762.5 407.321 1768.32 401.5 1775.5 401.5 1782.68 401.5 1788.5 407.321 1788.5 414.5Z" stroke="#ED7D31" stroke-width="3.4375" stroke-linecap="round" stroke-linejoin="round" stroke-miterlimit="10" fill="url(#fill85)"/><path d="M2178.5 755.5C2178.5 762.68 2172.68 768.5 2165.5 768.5 2158.32 768.5 2152.5 762.68 2152.5 755.5 2152.5 748.321 2158.32 742.5 2165.5 742.5 2172.68 742.5 2178.5 748.321 2178.5 755.5Z" stroke="#ED7D31" stroke-width="3.4375" stroke-linecap="round" stroke-linejoin="round" stroke-miterlimit="10" fill="url(#fill86)"/></g><g clip-path="url(#clip87)"><path d="M214.5 756.5 604.52 415.5 995.533 756.5 1385.55 415.5 1776.56 756.5 2166.5 415.5" stroke="#A5A5A5" stroke-width="3.4375" stroke-linecap="round" stroke-linejoin="round" stroke-miterlimit="10" fill="none"/></g><g clip-path="url(#clip88)"><path d="M226.5 755.5C226.5 762.68 220.68 768.5 213.5 768.5 206.32 768.5 200.5 762.68 200.5 755.5 200.5 748.321 206.32 742.5 213.5 742.5 220.68 742.5 226.5 748.321 226.5 755.5Z" stroke="#A5A5A5" stroke-width="3.4375" stroke-linecap="round" stroke-linejoin="round" stroke-miterlimit="10" fill="url(#fill89)"/><path d="M616.5 414.5C616.5 421.68 610.68 427.5 603.5 427.5 596.321 427.5 590.5 421.68 590.5 414.5 590.5 407.321 596.321 401.5 603.5 401.5 610.68 401.5 616.5 407.321 616.5 414.5Z" stroke="#A5A5A5" stroke-width="3.4375" stroke-linecap="round" stroke-linejoin="round" stroke-miterlimit="10" fill="url(#fill90)"/><path d="M1007.5 755.5C1007.5 762.68 1001.68 768.5 994.5 768.5 987.32 768.5 981.5 762.68 981.5 755.5 981.5 748.321 987.32 742.5 994.5 742.5 1001.68 742.5 1007.5 748.321 1007.5 755.5Z" stroke="#A5A5A5" stroke-width="3.4375" stroke-linecap="round" stroke-linejoin="round" stroke-miterlimit="10" fill="url(#fill91)"/><path d="M1397.5 414.5C1397.5 421.68 1391.68 427.5 1384.5 427.5 1377.32 427.5 1371.5 421.68 1371.5 414.5 1371.5 407.321 1377.32 401.5 1384.5 401.5 1391.68 401.5 1397.5 407.321 1397.5 414.5Z" stroke="#A5A5A5" stroke-width="3.4375" stroke-linecap="round" stroke-linejoin="round" stroke-miterlimit="10" fill="url(#fill92)"/><path d="M1788.5 755.5C1788.5 762.68 1782.68 768.5 1775.5 768.5 1768.32 768.5 1762.5 762.68 1762.5 755.5 1762.5 748.321 1768.32 742.5 1775.5 742.5 1782.68 742.5 1788.5 748.321 1788.5 755.5Z" stroke="#A5A5A5" stroke-width="3.4375" stroke-linecap="round" stroke-linejoin="round" stroke-miterlimit="10" fill="url(#fill93)"/><path d="M2178.5 414.5C2178.5 421.68 2172.68 427.5 2165.5 427.5 2158.32 427.5 2152.5 421.68 2152.5 414.5 2152.5 407.321 2158.32 401.5 2165.5 401.5 2172.68 401.5 2178.5 407.321 2178.5 414.5Z" stroke="#A5A5A5" stroke-width="3.4375" stroke-linecap="round" stroke-linejoin="round" stroke-miterlimit="10" fill="url(#fill94)"/></g><g clip-path="url(#clip95)"><text fill="#595959" font-family="Calibri,Calibri_MSFontService,sans-serif" font-weight="400" font-size="41" transform="matrix(1 0 0 1 155.325 806)">0</text></g><g clip-path="url(#clip96)"><text fill="#595959" font-family="Calibri,Calibri_MSFontService,sans-serif" font-weight="400" font-size="41" transform="matrix(1 0 0 1 113.525 427)">500</text></g><g clip-path="url(#clip97)"><text fill="#595959" font-family="Calibri,Calibri_MSFontService,sans-serif" font-weight="400" font-size="41" transform="matrix(1 0 0 1 92.6252 49)">1000</text></g><g clip-path="url(#clip98)"><text fill="#595959" font-family="Calibri,Calibri_MSFontService,sans-serif" font-weight="400" font-size="41" transform="matrix(1 0 0 1 204.042 859)">1</text></g><g clip-path="url(#clip99)"><text fill="#595959" font-family="Calibri,Calibri_MSFontService,sans-serif" font-weight="400" font-size="41" transform="matrix(1 0 0 1 594.531 859)">2</text></g><g clip-path="url(#clip100)"><text fill="#595959" font-family="Calibri,Calibri_MSFontService,sans-serif" font-weight="400" font-size="41" transform="matrix(1 0 0 1 985.021 859)">3</text></g><g clip-path="url(#clip101)"><text fill="#595959" font-family="Calibri,Calibri_MSFontService,sans-serif" font-weight="400" font-size="41" transform="matrix(1 0 0 1 1375.51 859)">4</text></g><g clip-path="url(#clip102)"><text fill="#595959" font-family="Calibri,Calibri_MSFontService,sans-serif" font-weight="400" font-size="41" transform="matrix(1 0 0 1 1766 859)">5</text></g><g clip-path="url(#clip103)"><text fill="#595959" font-family="Calibri,Calibri_MSFontService,sans-serif" font-weight="400" font-size="41" transform="matrix(1 0 0 1 2156.49 859)">6</text></g><g clip-path="url(#clip104)"><text fill="#595959" font-family="Calibri,Calibri_MSFontService,sans-serif" font-weight="400" font-size="41" transform="matrix(6.12323e-17 -1 1 6.12323e-17 67.5316 568)">Granted Size (MB)</text></g><g clip-path="url(#clip105)"><text fill="#595959" font-family="Calibri,Calibri_MSFontService,sans-serif" font-weight="400" font-size="41" transform="matrix(1 0 0 1 924.974 913)">Parameterized Query Execution</text></g><g clip-path="url(#clip106)"><path d="M1607.5 94.5 1695.5 94.5004" stroke="#5B9BD5" stroke-width="3.4375" stroke-linecap="round" stroke-linejoin="round" stroke-miterlimit="10" fill="none" fill-rule="evenodd"/></g><g clip-path="url(#clip107)"><path d="M1662 93.9997C1662 100.075 1657.07 104.999 1651 104.999 1644.92 104.999 1640 100.075 1640 93.9997 1640 87.9246 1644.92 82.9998 1651 82.9998 1657.07 82.9998 1662 87.9246 1662 93.9997Z" stroke="#5B9BD5" stroke-width="3.4375" stroke-linecap="round" stroke-linejoin="round" stroke-miterlimit="10" fill="url(#fill108)"/></g><g clip-path="url(#clip109)"><text fill="#595959" font-family="Calibri,Calibri_MSFontService,sans-serif" font-weight="400" font-size="41" transform="matrix(1 0 0 1 1704.41 106)">Percentile Granted</text></g><g clip-path="url(#clip110)"><path d="M1607.5 180.5 1695.5 180.5" stroke="#ED7D31" stroke-width="3.4375" stroke-linecap="round" stroke-linejoin="round" stroke-miterlimit="10" fill="none" fill-rule="evenodd"/></g><g clip-path="url(#clip111)"><path d="M1662 180C1662 186.075 1657.07 190.999 1651 190.999 1644.92 190.999 1640 186.075 1640 180 1640 173.925 1644.92 169 1651 169 1657.07 169 1662 173.925 1662 180Z" stroke="#ED7D31" stroke-width="3.4375" stroke-linecap="round" stroke-linejoin="round" stroke-miterlimit="10" fill="url(#fill112)"/></g><g clip-path="url(#clip113)"><text fill="#595959" font-family="Calibri,Calibri_MSFontService,sans-serif" font-weight="400" font-size="41" transform="matrix(1 0 0 1 1704.41 192)">Last Used Granted</text></g><g clip-path="url(#clip114)"><path d="M1607.5 267.5 1695.5 267.5" stroke="#A5A5A5" stroke-width="3.4375" stroke-linecap="round" stroke-linejoin="round" stroke-miterlimit="10" fill="none" fill-rule="evenodd"/></g><g clip-path="url(#clip115)"><path d="M1662 267C1662 273.075 1657.07 277.999 1651 277.999 1644.92 277.999 1640 273.075 1640 267 1640 260.925 1644.92 256 1651 256 1657.07 256 1662 260.925 1662 267Z" stroke="#A5A5A5" stroke-width="3.4375" stroke-linecap="round" stroke-linejoin="round" stroke-miterlimit="10" fill="url(#fill116)"/></g><g clip-path="url(#clip117)"><text fill="#595959" font-family="Calibri,Calibri_MSFontService,sans-serif" font-weight="400" font-size="41" transform="matrix(1 0 0 1 1704.41 279)">Actual needed</text></g><rect x="0.499836" y="0.499836" width="2237" height="931" stroke="#D9D9D9" stroke-width="3.4375" stroke-linejoin="round" stroke-miterlimit="10" fill="none"/></g></svg>