<svg xmlns="http://www.w3.org/2000/svg" xmlns:xlink="http://www.w3.org/1999/xlink" viewBox="0 0 298 110">
  <defs>
    <symbol id="Article" data-name="Article" viewBox="0 0 48 64">
      <polygon points="47.5 20.21 47.5 63.5 0.5 63.5 0.5 0.5 26.8 0.5 47.5 20.21" fill="#fff"/>
      <polygon points="47.5 20.5 26.5 20.5 26.5 0.5 47.5 20.5" fill="#55d2f6"/>
      <path d="M26.88,1H2A1,1,0,0,0,1,2V62a1,1,0,0,0,1,1H46a1,1,0,0,0,1-1V20.37Z" fill="none" stroke="#556a8a" stroke-miterlimit="10" stroke-width="2"/>
      <rect x="2" y="2" width="16" height="60" fill="#e5e5e5"/>
      <polyline points="26 1 26 21 47 21" fill="none" stroke="#556a8a" stroke-miterlimit="10" stroke-width="2"/>
      <line x1="8" y1="21" x2="21" y2="21" fill="none" stroke="#556a8a" stroke-miterlimit="10" stroke-width="2"/>
      <line x1="8" y1="30" x2="40" y2="30" fill="none" stroke="#556a8a" stroke-miterlimit="10" stroke-width="2"/>
      <line x1="8" y1="39" x2="40" y2="39" fill="none" stroke="#556a8a" stroke-miterlimit="10" stroke-width="2"/>
      <line x1="8" y1="48" x2="40" y2="48" fill="none" stroke="#556a8a" stroke-miterlimit="10" stroke-width="2"/>
    </symbol>
  </defs>
  <title>FullText_Search</title>
  <g id="background_blue" data-name="background blue">
    <rect width="298" height="110" fill="#e4edf1"/>
  </g>
  <g id="Shapes">
    <g>
      <g>
        <use width="48" height="64" transform="translate(118.276 15) scale(1.013)" xlink:href="#Article"/>
        <use width="48" height="64" transform="translate(157.219 30.189) scale(1.013)" xlink:href="#Article"/>
        <use width="48" height="64" transform="translate(196.161 15) scale(1.013)" xlink:href="#Article"/>
      </g>
      <g>
        <path d="M115.052,51.155A18.158,18.158,0,0,1,97.426,65a16,16,0,0,1-4.407-.629,18.85,18.85,0,0,1-5.875-2.728,19.274,19.274,0,0,1-4.617-4.617A18.361,18.361,0,0,1,79.8,42.552,18.16,18.16,0,0,1,97.426,28.7a15.958,15.958,0,0,1,4.406.63,18.283,18.283,0,0,1,11.122,8.183,17.3,17.3,0,0,1,2.1,13.64" fill="#fff"/>
        <path d="M115.052,51.155A18.158,18.158,0,0,1,97.426,65a16,16,0,0,1-4.407-.629,18.85,18.85,0,0,1-5.875-2.728,19.274,19.274,0,0,1-4.617-4.617A18.361,18.361,0,0,1,79.8,42.552,18.16,18.16,0,0,1,97.426,28.7a15.958,15.958,0,0,1,4.406.63,18.283,18.283,0,0,1,11.122,8.183,17.3,17.3,0,0,1,2.1,13.64" fill="#59b4d9" opacity="0.1" style="isolation: isolate"/>
        <path d="M107.288,31.64a17.794,17.794,0,0,0-5.456-2.308,15.958,15.958,0,0,0-4.406-.63A18.16,18.16,0,0,0,79.8,42.552,17.417,17.417,0,0,0,82.527,57.03a14.7,14.7,0,0,0,1.679,2.1A46.936,46.936,0,0,1,107.288,31.64" fill="#59b4d9" opacity="0.3" style="isolation: isolate"/>
        <path d="M119.669,33.529a25.916,25.916,0,0,0-15.948-11.751,32.381,32.381,0,0,0-6.3-.84A26.028,26.028,0,0,0,72.245,40.663a25.4,25.4,0,0,0,2.728,19.1L55.248,79.693a6.845,6.845,0,0,0,0,9.442,7.11,7.11,0,0,0,9.653,0L84.626,69.2a26.577,26.577,0,0,0,6.714,2.728,32.455,32.455,0,0,0,6.3.839,26.027,26.027,0,0,0,25.18-19.725A26.466,26.466,0,0,0,119.669,33.529Zm-4.617,17.626A18.158,18.158,0,0,1,97.426,65a16,16,0,0,1-4.407-.629,18.85,18.85,0,0,1-5.875-2.728,19.274,19.274,0,0,1-4.617-4.617A18.361,18.361,0,0,1,79.8,42.552,18.16,18.16,0,0,1,97.426,28.7a15.958,15.958,0,0,1,4.406.63,18.283,18.283,0,0,1,11.122,8.183A17.43,17.43,0,0,1,115.052,51.155Z" fill="#3e3e3e"/>
        <path d="M82.737,68.152a25.558,25.558,0,0,1-6.715-6.715c-.419-.63-.629-1.049-1.049-1.679l-1.679,1.889-.209.21a4.377,4.377,0,0,0,.839,1.259,31.426,31.426,0,0,0,7.344,7.554,5.025,5.025,0,0,0,1.469.629l1.889-1.888C83.786,68.781,83.367,68.571,82.737,68.152Z" fill="#1e1e1e" opacity="0.5" style="isolation: isolate"/>
      </g>
    </g>
  </g>
</svg>
