<svg xmlns="http://www.w3.org/2000/svg" viewBox="0 0 298 110">
  <title>Joins</title>
  <g id="background_blue" data-name="background blue">
    <rect width="298" height="110" fill="#e4edf1"/>
  </g>
  <g id="Shapes">
    <g>
      <g>
        <rect x="58.849" y="15.616" width="64.377" height="78.037" fill-opacity="0"/>
        <rect x="61.99" y="15.616" width="58.724" height="78.037" fill-opacity="0"/>
        <path d="M61.99,26.293V82.976c0,5.809,13.189,10.677,29.362,10.677V26.293Z" fill="#0072c6"/>
        <path d="M90.881,93.653h.471c16.329,0,29.362-4.71,29.362-10.677V26.293H90.881v67.36Z" fill="#0072c6"/>
        <path d="M90.881,93.653h.471c16.329,0,29.362-4.71,29.362-10.677V26.293H90.881v67.36Z" fill="#fff" opacity="0.15" style="isolation: isolate"/>
        <path d="M120.714,26.293c0,5.81-13.19,10.677-29.362,10.677S61.99,32.26,61.99,26.293c0-5.81,13.189-10.677,29.362-10.677S120.714,20.483,120.714,26.293Z" fill="#fff"/>
        <path d="M114.747,25.822c0,3.768-10.52,6.909-23.395,6.909s-23.4-3.141-23.4-6.909c0-3.925,10.52-7.066,23.4-7.066S114.747,21.9,114.747,25.822Z" fill="#7fba00"/>
        <path d="M109.88,30.061c3.14-1.256,4.867-2.669,4.867-4.239,0-3.925-10.52-7.066-23.395-7.066s-23.4,3.141-23.4,7.066c0,1.57,1.885,3.14,4.868,4.239,4.239-1.727,10.991-2.669,18.528-2.669C98.889,27.235,105.64,28.334,109.88,30.061Z" fill="#b8d432"/>
        <rect x="58.849" y="42.309" width="64.377" height="34.544" fill-opacity="0"/>
        <path d="M70.6,66.8v-3.68a7.186,7.186,0,0,0,2.173,1.265,7.075,7.075,0,0,0,2.369.414,5.134,5.134,0,0,0,1.219-.127,2.866,2.866,0,0,0,.874-.345,1.57,1.57,0,0,0,.529-.529,1.341,1.341,0,0,0,.173-.667,1.428,1.428,0,0,0-.276-.862,2.944,2.944,0,0,0-.759-.7,7.6,7.6,0,0,0-1.127-.621q-.656-.3-1.415-.609a7.264,7.264,0,0,1-2.886-1.967,4.308,4.308,0,0,1-.943-2.806,4.288,4.288,0,0,1,1.92-3.738,6.329,6.329,0,0,1,2.07-.874,10.445,10.445,0,0,1,2.484-.287,14.339,14.339,0,0,1,2.277.161,8.806,8.806,0,0,1,1.841.471v3.439a5.479,5.479,0,0,0-.909-.506,6.462,6.462,0,0,0-1-.357,7.454,7.454,0,0,0-2-.287,4.8,4.8,0,0,0-1.15.127,2.823,2.823,0,0,0-.875.333,1.667,1.667,0,0,0-.551.529,1.208,1.208,0,0,0-.2.679,1.337,1.337,0,0,0,.218.747,2.642,2.642,0,0,0,.621.621,7.405,7.405,0,0,0,.978.575q.574.276,1.3.575a13.462,13.462,0,0,1,1.771.886A6.119,6.119,0,0,1,80.688,59.7a4.09,4.09,0,0,1,.862,1.346,5.32,5.32,0,0,1-.23,4.071,4.254,4.254,0,0,1-1.415,1.518,6.231,6.231,0,0,1-2.093.828,12.016,12.016,0,0,1-2.506.253,14.1,14.1,0,0,1-2.588-.23A7.8,7.8,0,0,1,70.6,66.8Zm20.93.92a7.688,7.688,0,0,1-5.773-2.3A8.326,8.326,0,0,1,83.528,59.4a8.894,8.894,0,0,1,2.266-6.325,7.819,7.819,0,0,1,6-2.415,7.464,7.464,0,0,1,5.7,2.312,8.486,8.486,0,0,1,2.185,6.095,8.737,8.737,0,0,1-2.266,6.267c-.053.054-.1.108-.149.161s-.1.092-.15.138l4.175,4.014H96.1l-2.185-2.22A9.238,9.238,0,0,1,91.532,67.719Zm.161-13.858a3.756,3.756,0,0,0-3.105,1.472,6.089,6.089,0,0,0-1.15,3.876,6,6,0,0,0,1.15,3.875A3.684,3.684,0,0,0,91.6,64.51a3.729,3.729,0,0,0,3.048-1.38,5.988,5.988,0,0,0,1.127-3.852,6.459,6.459,0,0,0-1.093-3.991A3.541,3.541,0,0,0,91.693,53.861Zm20.563,13.57h-9.822V50.94h3.715V64.418h6.107Z" fill="#fff"/>
      </g>
      <g>
        <path d="M211.3,85.959H209.98V84.2H211.3a10.974,10.974,0,1,0,0-21.948H199.006a10.974,10.974,0,1,0,0,21.948h1.315v1.756h-1.317a12.73,12.73,0,0,1,0-25.46H211.3a12.73,12.73,0,0,1,0,25.46Z" fill="#2e6ca4"/>
        <path d="M227.98,95.616H215.686a12.73,12.73,0,0,1,0-25.46H217v1.756h-1.317a10.974,10.974,0,1,0,0,21.948h12.288a10.974,10.974,0,1,0,0-21.948H226.66V70.156h1.317a12.73,12.73,0,0,1,0,25.46Z" fill="#389cd6"/>
      </g>
      <g>
        <path d="M171.863,34.481l.216.215,1.076-.93,1.794-2.935-.431-.429-2.87,1.861-.861,1.145.215.215-5.668,5.8L164.186,38.2l-1.291,1.36a2.52,2.52,0,0,1-.574,1.861,2.172,2.172,0,0,1-1.794.644l-5.74,5.869,3.229,3.22,5.668-5.868a2.3,2.3,0,0,1,.646-1.861,2.169,2.169,0,0,1,1.794-.644l1.291-1.36-1.148-1.217Z" fill="#303030"/>
        <path d="M171.361,49.44a2,2,0,0,0,2.942,0,2.153,2.153,0,0,0,.574-1.575,2.5,2.5,0,0,0-.574-1.574l-6.386-6.513-.574.644,1.148,1.216-.5.5L166.7,43.5l-.144.143-.287-.071a1.8,1.8,0,0,0-.574.071Z" fill="#0078d4"/>
        <path d="M162.9,31.046a4.483,4.483,0,0,0-4.305-1.217l2.512,2.577-.574,2.505-2.512.716-2.511-2.577a4.811,4.811,0,0,0,1.148,4.437,4.369,4.369,0,0,0,4.377,1.146l.072.071,1.148,1.217a.783.783,0,0,0,.071-.358v-.215l-.071-.143,1.937-2,.358.358.79.787.574-.644-1.866-2A4.72,4.72,0,0,0,162.9,31.046Z" fill="#0078d4"/>
      </g>
      <path d="M122.707,26.734h49.446a13.038,13.038,0,0,1,13,13v.928a13.038,13.038,0,0,1-13,13H146.5a13.038,13.038,0,0,0-13,13v.8a13.038,13.038,0,0,0,13,13h39.781" fill="none" stroke="#75757a" stroke-miterlimit="10" stroke-dasharray="1 2"/>
    </g>
  </g>
</svg>
