<svg xmlns="http://www.w3.org/2000/svg" viewBox="0 0 298 110">
  <title>Scripting</title>
  <g id="background_blue" data-name="background blue">
    <rect width="298" height="110" fill="#e4edf1"/>
  </g>
  <g id="Shapes">
    <g>
      <path d="M128.61,89.511a3.778,3.778,0,0,0,3.767,3.767h86.64a3.778,3.778,0,0,0,3.767-3.767V30.558H128.61Z" fill="#89c302"/>
      <path d="M219.017,13.042h-86.64a3.778,3.778,0,0,0-3.767,3.767V31.123h94.174V16.809a3.778,3.778,0,0,0-3.767-3.767" fill="#a0a1a2"/>
      <path d="M132.377,13.042a3.778,3.778,0,0,0-3.767,3.767v72.7a3.778,3.778,0,0,0,3.767,3.767h4.143l74.21-80.236Z" fill="#fff" opacity="0.2" style="isolation: isolate"/>
      <g style="isolation: isolate">
        <g style="isolation: isolate">
          <path d="M161.475,72.028,138.758,60.616V59.058l22.717-12.732v3.962l-16.958,9.4V59.8l16.958,8.294Z" fill="#fff"/>
        </g>
        <g style="isolation: isolate">
          <path d="M214.247,60.616,191.53,72.028V68.092l17.012-8.241v-.159l-17.012-9.4V46.326l22.717,12.732Z" fill="#fff"/>
        </g>
      </g>
      <line x1="168.457" y1="72.253" x2="183.525" y2="44.942" fill="none" stroke="#fff" stroke-miterlimit="10" stroke-width="1.5"/>
      <path d="M154.157,88.9A8.877,8.877,0,0,0,145.3,80h-1.243a26.165,26.165,0,0,0,.963-6.254A23.668,23.668,0,0,0,98.841,66.3a18.763,18.763,0,0,0-5.291-.962,16.356,16.356,0,0,0,0,32.709h52.431a9.146,9.146,0,0,0,8.178-9.139" fill="#59b4d9"/>
      <path d="M102.207,98.042a16.349,16.349,0,0,1,7.937-27.418,13.272,13.272,0,0,1,5.291-.241,23.857,23.857,0,0,1,13.231-19.24,22.673,22.673,0,0,0-7.215-1.2A23.545,23.545,0,0,0,99.084,66.3a18.763,18.763,0,0,0-5.291-.962,16.356,16.356,0,0,0,0,32.709h8.414Z" fill="#fff" opacity="0.2" style="isolation: isolate"/>
    </g>
  </g>
</svg>
