<svg xmlns="http://www.w3.org/2000/svg" viewBox="0 0 298 110">
  <title>Subqueries</title>
  <g id="background_blue" data-name="background blue">
    <rect width="298" height="110" fill="#e4edf1"/>
  </g>
  <g id="Shapes">
    <g>
      <path d="M57.267,15.9H75.725v6.154H57.267V15.9m0,18.458H75.725v6.154H57.267V34.361m0,18.459H75.725v6.153H57.267V52.82m0,18.458H75.725v6.153H57.267v-6.14m0,18.459H75.725V95.9H57.267V89.754M81.883,15.9H118.8v6.154H81.883V15.9m0,18.458H118.8v6.154H81.883V34.361m0,18.459H118.8v6.153H81.883V52.82m0,18.458H118.8v6.153H81.883v-6.14m0,18.459H118.8V95.9H81.883V89.754M124.964,15.9h30.77v6.154h-30.77V15.9m0,18.458h30.77v6.154h-30.77V34.361m0,18.459h30.77v6.153h-30.77V52.82m0,18.458h30.77v6.153h-30.77v-6.14m0,18.459h30.77V95.9h-30.77Z" fill="#50e6ff"/>
      <path d="M141.847,34.361h9.94v3.314h-9.94V34.361m0,9.941h9.94v3.314h-9.94V44.3m0,9.94h9.94v3.314h-9.94V54.242m0,9.941h9.94V67.5h-9.94V64.19m0,9.941h9.94v3.314h-9.94V74.133M155.1,34.361h19.881v3.314H155.1V34.361m0,9.941h19.881v3.314H155.1V44.3m0,9.94h19.881v3.314H155.1V54.242m0,9.941h19.881V67.5H155.1V64.19m0,9.941h19.881v3.314H155.1V74.133m23.2-39.772h16.571v3.314H178.305V34.361m0,9.941h16.571v3.314H178.305V44.3m0,9.94h16.571v3.314H178.305V54.242m0,9.941h16.571V67.5H178.305V64.19m0,9.941h16.571v3.314H178.305Z" fill="#3c3c41"/>
      <g>
        <path d="M188.771,41.42a15.334,15.334,0,0,0,14.884,11.7,13.509,13.509,0,0,0,3.722-.531,15.918,15.918,0,0,0,4.961-2.3,16.3,16.3,0,0,0,3.9-3.9,15.511,15.511,0,0,0,2.3-12.227,15.336,15.336,0,0,0-14.885-11.7,13.509,13.509,0,0,0-3.721.532,15.437,15.437,0,0,0-9.391,6.911,14.6,14.6,0,0,0-1.772,11.518" fill="#fff"/>
        <path d="M188.771,41.42a15.334,15.334,0,0,0,14.884,11.7,13.509,13.509,0,0,0,3.722-.531,15.918,15.918,0,0,0,4.961-2.3,16.3,16.3,0,0,0,3.9-3.9,15.511,15.511,0,0,0,2.3-12.227,15.336,15.336,0,0,0-14.885-11.7,13.509,13.509,0,0,0-3.721.532,15.437,15.437,0,0,0-9.391,6.911,14.6,14.6,0,0,0-1.772,11.518" fill="#59b4d9" opacity="0.1" style="isolation: isolate"/>
        <path d="M195.327,24.94a15.028,15.028,0,0,1,4.607-1.949,13.509,13.509,0,0,1,3.721-.532,15.336,15.336,0,0,1,14.885,11.7,14.71,14.71,0,0,1-2.3,12.227,12.489,12.489,0,0,1-1.418,1.772A39.638,39.638,0,0,0,195.327,24.94" fill="#59b4d9" opacity="0.3" style="isolation: isolate"/>
        <path d="M182.214,43.015a21.979,21.979,0,0,0,21.264,16.657,27.388,27.388,0,0,0,5.316-.709,22.464,22.464,0,0,0,5.671-2.3l16.656,16.834a6.006,6.006,0,0,0,8.152,0,5.782,5.782,0,0,0,0-7.974L222.616,48.685a21.44,21.44,0,0,0,2.3-16.125A21.978,21.978,0,0,0,203.655,15.9a27.311,27.311,0,0,0-5.316.709,21.886,21.886,0,0,0-13.467,9.923A22.356,22.356,0,0,0,182.214,43.015ZM190.543,29.9a15.437,15.437,0,0,1,9.391-6.911,13.509,13.509,0,0,1,3.721-.532,15.336,15.336,0,0,1,14.885,11.7,15.511,15.511,0,0,1-2.3,12.227,16.3,16.3,0,0,1-3.9,3.9,15.918,15.918,0,0,1-4.961,2.3,13.509,13.509,0,0,1-3.722.531A15.334,15.334,0,0,1,188.771,41.42,14.713,14.713,0,0,1,190.543,29.9Z" fill="#3e3e3e"/>
        <path d="M216.059,55.773a21.582,21.582,0,0,0,5.671-5.67c.354-.532.531-.886.886-1.418l1.417,1.595.178.177a3.719,3.719,0,0,1-.709,1.063,26.51,26.51,0,0,1-6.2,6.38,4.234,4.234,0,0,1-1.241.531l-1.594-1.595C215.173,56.305,215.528,56.128,216.059,55.773Z" fill="#1e1e1e" opacity="0.5" style="isolation: isolate"/>
      </g>
    </g>
  </g>
</svg>
