<svg xmlns="http://www.w3.org/2000/svg" viewBox="0 0 298 110">
  <title>Synonyms</title>
  <g id="background_blue" data-name="background blue">
    <rect width="298" height="110" fill="#e4edf1"/>
  </g>
  <g id="Shapes">
    <g>
      <rect x="41.715" y="15.944" width="65.996" height="80" fill-opacity="0"/>
      <rect x="44.934" y="15.944" width="60.201" height="80" fill-opacity="0"/>
      <path d="M44.934,26.889V85c0,5.956,13.522,10.946,30.1,10.946V26.889Z" fill="#0072c6"/>
      <path d="M74.552,95.944h.483c16.741,0,30.1-4.829,30.1-10.946V26.889H74.552V95.944Z" fill="#0072c6"/>
      <path d="M74.552,95.944h.483c16.741,0,30.1-4.829,30.1-10.946V26.889H74.552V95.944Z" fill="#fff" opacity="0.15" style="isolation: isolate"/>
      <path d="M105.136,26.889c0,5.956-13.521,10.946-30.1,10.946s-30.1-4.829-30.1-10.946c0-5.955,13.522-10.945,30.1-10.945S105.136,20.934,105.136,26.889Z" fill="#fff"/>
      <path d="M99.019,26.407c0,3.863-10.785,7.082-23.984,7.082S51.051,30.27,51.051,26.407c0-4.025,10.785-7.244,23.984-7.244S99.019,22.382,99.019,26.407Z" fill="#7fba00"/>
      <path d="M94.029,30.753c3.219-1.288,4.99-2.737,4.99-4.346,0-4.025-10.785-7.244-23.984-7.244s-23.984,3.219-23.984,7.244c0,1.609,1.932,3.219,4.99,4.346,4.346-1.771,11.268-2.737,18.994-2.737C82.761,27.855,89.683,28.982,94.029,30.753Z" fill="#b8d432"/>
      <rect x="41.715" y="43.308" width="65.996" height="35.412" fill-opacity="0"/>
      <path d="M53.763,68.414V64.641a7.357,7.357,0,0,0,2.228,1.3,7.256,7.256,0,0,0,2.429.425,5.334,5.334,0,0,0,1.25-.13,2.938,2.938,0,0,0,.9-.354,1.628,1.628,0,0,0,.542-.542,1.384,1.384,0,0,0,.177-.684A1.462,1.462,0,0,0,61,63.769a3.023,3.023,0,0,0-.778-.719,7.826,7.826,0,0,0-1.155-.637q-.674-.306-1.451-.625a7.458,7.458,0,0,1-2.959-2.016,4.418,4.418,0,0,1-.967-2.876,4.4,4.4,0,0,1,1.969-3.832,6.459,6.459,0,0,1,2.122-.9,10.7,10.7,0,0,1,2.547-.3,14.669,14.669,0,0,1,2.334.165,9.012,9.012,0,0,1,1.887.484v3.525a5.533,5.533,0,0,0-.932-.519,6.64,6.64,0,0,0-1.025-.365,7.63,7.63,0,0,0-2.052-.295,4.944,4.944,0,0,0-1.179.13,2.914,2.914,0,0,0-.9.341,1.717,1.717,0,0,0-.566.543,1.245,1.245,0,0,0-.2.7,1.373,1.373,0,0,0,.224.767,2.693,2.693,0,0,0,.636.636,7.588,7.588,0,0,0,1,.59q.59.282,1.332.589a13.946,13.946,0,0,1,1.815.908A6.275,6.275,0,0,1,64.1,61.14a4.19,4.19,0,0,1,.884,1.379,5.46,5.46,0,0,1-.236,4.174,4.378,4.378,0,0,1-1.45,1.556,6.385,6.385,0,0,1-2.146.849,12.271,12.271,0,0,1-2.57.259,14.357,14.357,0,0,1-2.653-.236A8,8,0,0,1,53.763,68.414Zm21.457.943A7.877,7.877,0,0,1,69.3,67a8.53,8.53,0,0,1-2.287-6.166,9.12,9.12,0,0,1,2.322-6.484,8.021,8.021,0,0,1,6.154-2.476,7.656,7.656,0,0,1,5.848,2.37,8.7,8.7,0,0,1,2.24,6.249,8.959,8.959,0,0,1-2.323,6.425q-.083.082-.153.165t-.153.141l4.279,4.115H79.9l-2.24-2.276A9.454,9.454,0,0,1,75.22,69.357Zm.165-14.206A3.848,3.848,0,0,0,72.2,56.66a6.241,6.241,0,0,0-1.179,3.973A6.153,6.153,0,0,0,72.2,64.606a3.777,3.777,0,0,0,3.089,1.462,3.823,3.823,0,0,0,3.124-1.415A6.139,6.139,0,0,0,79.57,60.7a6.621,6.621,0,0,0-1.12-4.091A3.629,3.629,0,0,0,75.385,55.151Zm21.08,13.911H86.4V52.156H90.2V65.974h6.261Z" fill="#fff"/>
    </g>
    <g>
      <path d="M147.361,65.833h4.719V37.312h-4.719ZM171.69,63.7H153.453V39.451h17.426a.686.686,0,1,0,0-1.372H153.452V35.94h-7.463V67.206h7.463V65.067H171.69a.686.686,0,1,0,0-1.372Z" fill="#389cd6"/>
      <path d="M188.34,67.254a16.169,16.169,0,1,1,16.169-16.169A16.169,16.169,0,0,1,188.34,67.254Zm27.627,9.989L201.852,62.955a17.983,17.983,0,1,0-1.275,1.313l14.089,14.261a.915.915,0,1,0,1.3-1.286Z" fill="#389cd6"/>
      <path d="M224.666,65.833h4.719V37.312h-4.719ZM223.294,35.94v2.139H204.916a.686.686,0,1,0,0,1.372h18.293V63.7h-17.14a.686.686,0,1,0,0,1.372h17.225v2.139h7.463V35.94Z" fill="#389cd6"/>
      <path d="M234.759,53.04h1.677V49.705h-1.677Zm-.686.687h3.05V49.019h-3.05Z" fill="#389cd6"/>
      <path d="M248.024,53.04H249.7V49.705h-1.678Zm-.686.687h3.05V49.019h-3.05Z" fill="#389cd6"/>
      <path d="M240.859,53.022h-.534V49.057h-1.867v.686h1.181v3.279h-.877v.686h2.783V51.916h-.686Z" fill="#389cd6"/>
      <path d="M245.433,53.022H244.9V49.057h-1.868v.686h1.182v3.279h-.877v.686h2.783V51.916h-.687Z" fill="#389cd6"/>
      <path d="M254.582,51.916v1.106h-.534V49.057h-1.867v.686h1.181v3.279h-.877v.686h2.783V51.916Z" fill="#389cd6"/>
      <path d="M175.554,48.915h2.5V44.174h-2.5Zm-.686.686h3.875V43.488h-3.875Z" fill="#389cd6"/>
      <path d="M193.455,48.915h2.5V44.174h-2.5Zm-.686.686h3.875V43.488h-3.875Z" fill="#389cd6"/>
      <path d="M175.554,57.419h2.5V52.678h-2.5Zm-.686.686h3.875V51.992h-3.875Z" fill="#389cd6"/>
      <path d="M187.661,57.419h2.5V52.678h-2.5Zm-.686.686h3.875V51.992h-3.875Z" fill="#389cd6"/>
      <path d="M184.024,48.889h-.96v-5.35h-2.4v.687h1.714v4.663h-1.3v.686h3.636v-2.3h-.687Z" fill="#389cd6"/>
      <path d="M190.2,48.889h-.96v-5.35h-2.4v.687h1.715v4.663h-1.3v.686h3.635v-2.3H190.2Z" fill="#389cd6"/>
      <path d="M201.628,47.277v1.611h-.961V43.539h-2.4v.686h1.714v4.663h-1.3v.687h3.635v-2.3Z" fill="#389cd6"/>
      <path d="M184.024,57.393h-.96v-5.35h-2.4v.687h1.714v4.663h-1.3v.686h3.636v-2.3h-.687Z" fill="#389cd6"/>
      <path d="M196.143,57.393h-.96v-5.35h-2.4v.687H194.5v4.663h-1.3v.686h3.636v-2.3h-.687Z" fill="#389cd6"/>
      <path d="M201.628,57.393h-.961v-5.35h-2.4v.687h1.714v4.663h-1.3v.686h3.635v-2.3h-.686Z" fill="#389cd6"/>
      <path d="M115.219,43.988H116.9V40.652h-1.677Zm-.686.686h3.049V39.966h-3.049Z" fill="#389cd6"/>
      <path d="M126.806,43.74h1.678V40.4h-1.678Zm-.686.686h3.05V39.718h-3.05Z" fill="#389cd6"/>
      <path d="M140.987,45.722h1.677V42.387h-1.677Zm-.687.686h3.05V41.7H140.3Z" fill="#389cd6"/>
      <path d="M137.481,45.131v1.1h-.534V42.272h-1.868v.686h1.182v3.278h-.877v.686h2.783V45.131Z" fill="#389cd6"/>
      <path d="M123,43.339h-.534V39.375h-1.867v.686h1.181v3.278H120.9v.686h2.782V42.234H123Z" fill="#389cd6"/>
      <path d="M132.753,48.638v1.105h-.533V45.779h-1.869v.686h1.182v3.278h-.876v.686h2.782V48.638Z" fill="#389cd6"/>
      <path d="M121.165,56.147h1.678V52.812h-1.678Zm-.686.686h3.05V52.126h-3.05Z" fill="#389cd6"/>
      <path d="M112.322,60.779H114V57.443h-1.677Zm-.686.686h3.049V56.757h-3.049Z" fill="#389cd6"/>
      <path d="M112.474,47.913h-.534V43.949h-1.867v.686h1.181v3.278h-.876V48.6h2.782V46.808h-.686Z" fill="#389cd6"/>
      <path d="M128.027,52.259v1.106h-.534V49.4h-1.868v.686h1.182v3.279h-.877v.686h2.783V52.259Z" fill="#389cd6"/>
      <path d="M118.573,57.557h-.534V53.593h-1.868v.686h1.182v3.278h-.877v.687h2.783V56.452h-.686Z" fill="#389cd6"/>
      <path d="M136.26,58.454h1.678V55.118H136.26Zm-.686.686h3.05V54.432h-3.05Z" fill="#389cd6"/>
      <path d="M142.513,54.127v1.1h-.534V51.268h-1.868v.686h1.182v3.278h-.877v.686H143.2V54.127Z" fill="#389cd6"/>
    </g>
  </g>
</svg>
