<svg xmlns="http://www.w3.org/2000/svg" xmlns:xlink="http://www.w3.org/1999/xlink" viewBox="0 0 298 110">
  <defs>
    <symbol id="IZ_ContinuousExport" data-name="IZ_ContinuousExport" viewBox="0 0 49.996 49.6">
      <g>
        <path d="M19.4,45.7l2.8-3.8C14.9,40.3,8.1,34.1,7.4,26.2A17.625,17.625,0,0,1,20.3,7.7l3-3.9L19.5.3a25.049,25.049,0,0,0,2.6,49.3Z" fill="#0072c6"/>
        <path d="M28.8,0l2.4,3.9L27.9,7.5C35.2,9.2,42,15.4,42.7,23.2A17.716,17.716,0,0,1,30,41.7L27.7,46l3.5,3A25.046,25.046,0,0,0,28.8,0Z" fill="#0072c6"/>
      </g>
      <g>
        <rect x="12.696" y="21.3" width="4.1" height="9.7" fill="#0072c6"/>
        <rect x="19.496" y="15.8" width="4.1" height="15.2" fill="#59b4d9"/>
        <rect x="26.296" y="22.7" width="4.1" height="8.3" fill="#3999c6"/>
        <rect x="33.196" y="18.5" width="4.1" height="12.4" fill="#0072c6"/>
      </g>
    </symbol>
  </defs>
  <title>User-DefinedFunctions</title>
  <g id="background_blue" data-name="background blue">
    <rect width="298" height="110" fill="#e4edf1"/>
  </g>
  <g id="Shapes">
    <g>
      <g>
        <path d="M250.086,55.989a1.226,1.226,0,0,0,0-1.561l-2.1-2.1-9.367-9.1a1.065,1.065,0,0,0-1.493,0h0a1.033,1.033,0,0,0,0,1.561l9.842,9.639a1.15,1.15,0,0,1,0,1.561l-10.046,9.978a1.15,1.15,0,0,0,0,1.561h0a1.135,1.135,0,0,0,1.493,0l9.3-9.231.067-.068Z" fill="#3999c6"/>
        <path d="M207.188,55.989a1.229,1.229,0,0,1,0-1.561l2.1-2.1,9.367-9.1a1.066,1.066,0,0,1,1.494,0h0a1.033,1.033,0,0,1,0,1.561l-9.639,9.639a1.15,1.15,0,0,0,0,1.561l9.842,9.978a1.15,1.15,0,0,1,0,1.561h0a1.135,1.135,0,0,1-1.493,0l-9.5-9.1-.068-.067Z" fill="#3999c6"/>
        <polygon points="239.226 35.694 225.99 35.694 218.863 55.785 227.551 55.853 220.763 75.741 239.497 49.201 230.402 49.201 239.226 35.694" fill="#fcd116"/>
        <polygon points="230.402 49.201 239.226 35.694 232.303 35.694 224.972 52.391 233.66 52.459 220.763 75.741 239.497 49.201 230.402 49.201" fill="#ff8c00" opacity="0.3" style="isolation: isolate"/>
      </g>
      <g>
        <path d="M162.338,38.019A12.338,12.338,0,1,1,150,25.682a12.338,12.338,0,0,1,12.338,12.337" fill="#59b4d9"/>
        <polygon points="159.021 54.586 150 67.225 140.979 54.586 131.592 54.586 131.592 85.753 168.408 85.753 168.408 54.586 159.021 54.586" fill="#59b4d9"/>
      </g>
      <g>
        <path d="M179.981,22.8a44.587,44.587,0,0,0-59.962,0" fill="none" stroke="#59b4d9" stroke-miterlimit="10"/>
        <path d="M120.019,88.633a44.589,44.589,0,0,0,59.962,0" fill="none" stroke="#59b4d9" stroke-miterlimit="10"/>
        <path d="M251.81,22.8H179.981a44.461,44.461,0,0,1,0,65.831H251.81a10.042,10.042,0,0,0,10.012-10.012V32.813A10.041,10.041,0,0,0,251.81,22.8Z" fill="none" stroke="#59b4d9" stroke-miterlimit="10"/>
        <path d="M105.447,55.717A44.358,44.358,0,0,1,120.019,22.8H48.19A10.041,10.041,0,0,0,38.178,32.813V78.621A10.042,10.042,0,0,0,48.19,88.633h71.829A44.361,44.361,0,0,1,105.447,55.717Z" fill="none" stroke="#59b4d9" stroke-miterlimit="10"/>
      </g>
      <use width="49.996" height="49.6" transform="translate(53.63 35.694) scale(0.807 0.807)" xlink:href="#IZ_ContinuousExport"/>
    </g>
  </g>
</svg>
