<?xml version="1.0" encoding="utf-8"?>
<!-- Generator: Adobe Illustrator 21.0.0, SVG Export Plug-In . SVG Version: 6.00 Build 0)  -->
<svg version="1.1" xmlns="http://www.w3.org/2000/svg" xmlns:xlink="http://www.w3.org/1999/xlink" x="0px" y="0px"
	 viewBox="0 0 400 140" style="enable-background:new 0 0 400 140;" xml:space="preserve">
<style type="text/css">
	.st0{display:none;}
	.st1{display:inline;fill:#E1E5EA;}
	.st2{fill:#D4F2ED;}
	.st3{opacity:0.15;fill:#FFFFFF;}
	.st4{fill:#5E5E5E;}
	.st5{fill:#2E2E2E;}
	.st6{fill:#221F1F;}
	.st7{clip-path:url(#SVGID_2_);fill:none;stroke:#FFFFFF;stroke-miterlimit:10;stroke-dasharray:2,2;}
	.st8{fill:#316389;}
	.st9{fill:#FFFFFF;}
	.st10{fill:#CCCCCC;}
	.st11{clip-path:url(#SVGID_4_);fill:none;stroke:#FFFFFF;stroke-miterlimit:10;stroke-dasharray:2,2;}
	.st12{fill:#E6E6E6;}
	.st13{fill:#333333;}
	.st14{fill:#AAD2F2;}
	.st15{fill:#AFD3AF;}
	.st16{fill:#5D5F5E;}
	.st17{opacity:0.25;fill:#FFFFFF;}
	.st18{fill:#60A860;}
	.st19{opacity:0.1;fill:#FFFFFF;enable-background:new    ;}
	.st20{fill:#638AA5;}
	.st21{fill:#175D87;}
	.st22{fill:#377093;}
	.st23{fill:#999999;}
	.st24{fill:#5D5D5D;}
	.st25{fill:#171717;}
	.st26{fill:#6D6E70;}
	.st27{fill:#1772B8;}
	.st28{fill:#929090;}
	.st29{fill:#767778;}
	.st30{fill:#A86527;}
	.st31{fill:#048273;}
	.st32{fill:none;stroke:#6D6E70;stroke-miterlimit:10;}
	.st33{clip-path:url(#SVGID_8_);fill:none;stroke:#FFFFFF;stroke-miterlimit:10;stroke-dasharray:2,2;}
	.st34{clip-path:url(#SVGID_10_);fill:none;stroke:#FFFFFF;stroke-miterlimit:10;stroke-dasharray:2,2;}
	.st35{clip-path:url(#SVGID_12_);fill:none;stroke:#FFFFFF;stroke-miterlimit:10;stroke-dasharray:2,2;}
	.st36{fill:#959595;}
	.st37{fill:none;stroke:#FFFFFF;stroke-width:3.1482;stroke-miterlimit:10;}
	.st38{fill:none;}
	.st39{fill:#737374;}
	.st40{fill:#515050;}
	.st41{fill:#D93F26;}
	.st42{fill:#969696;}
	.st43{fill:#008A00;}
	.st44{fill:#FFB900;}
	.st45{fill:#FF8C00;}
	.st46{fill-rule:evenodd;clip-rule:evenodd;fill:#2E2E2E;}
	.st47{fill:#0078D7;}
</style>
<g id="Layer_1" class="st0">
	<rect class="st1" width="400" height="140"/>
</g>
<g id="titles">
	<g>
		<g>
			<polygon class="st24" points="233,120.3 167.5,120.3 171.4,116 229.2,116 			"/>
			<path class="st25" d="M230.4,122.8c-2.9,0-57.4,0-60.2,0s-2.8-2.4-2.8-2.4H233C233,120.3,233.3,122.8,230.4,122.8z"/>
			<polygon class="st25" points="214.5,117.5 186.1,117.5 188.4,104.5 212.1,104.5 			"/>
			<path class="st25" d="M276.5,17H123.5c-2,0-3.5,1.6-3.5,3.5v81.9c0,2,1.6,3.5,3.5,3.5h152.9c2,0,3.5-1.6,3.5-3.5V20.5
				C280,18.6,278.4,17,276.5,17z M275,100H125V22h150V100z"/>
		</g>
		<rect x="125" y="21" class="st5" width="150" height="79"/>
		<rect x="125" y="21" class="st26" width="29" height="2"/>
		<rect x="125" y="29" class="st26" width="29" height="2"/>
		<g>
			<rect x="215" y="23" class="st16" width="2" height="1"/>
			<rect x="215" y="25" class="st16" width="2" height="1"/>
			<rect x="215" y="27" class="st16" width="2" height="1"/>
			<rect x="215" y="29" class="st16" width="2" height="1"/>
			<rect x="215" y="31" class="st16" width="2" height="1"/>
			<rect x="215" y="33" class="st16" width="2" height="1"/>
			<rect x="215" y="35" class="st16" width="2" height="1"/>
			<rect x="215" y="37" class="st16" width="2" height="1"/>
			<rect x="215" y="39" class="st16" width="2" height="1"/>
			<rect x="215" y="41" class="st16" width="2" height="1"/>
			<rect x="215" y="43" class="st16" width="2" height="1"/>
			<rect x="215" y="45" class="st16" width="2" height="1"/>
			<rect x="215" y="47" class="st16" width="2" height="1"/>
			<rect x="215" y="50" class="st16" width="2" height="1"/>
			<rect x="215" y="52" class="st16" width="2" height="1"/>
			<rect x="215" y="54" class="st16" width="2" height="1"/>
			<rect x="215" y="56" class="st16" width="2" height="1"/>
			<rect x="215" y="58" class="st16" width="2" height="1"/>
			<rect x="215" y="60" class="st16" width="2" height="1"/>
			<rect x="215" y="62" class="st16" width="2" height="1"/>
			<rect x="215" y="64" class="st16" width="2" height="1"/>
			<rect x="215" y="66" class="st16" width="2" height="1"/>
			<rect x="215" y="68" class="st16" width="2" height="1"/>
			<rect x="215" y="70" class="st16" width="2" height="1"/>
			<rect x="215" y="72" class="st16" width="2" height="1"/>
			<rect x="215" y="74" class="st16" width="2" height="1"/>
		</g>
		<rect x="217" y="23" class="st27" width="2" height="1"/>
		<rect x="217" y="25" class="st27" width="2" height="1"/>
		<rect x="217" y="27" class="st27" width="2" height="1"/>
		<rect x="217" y="29" class="st27" width="2" height="1"/>
		<rect x="220" y="23" class="st16" width="21" height="1"/>
		<rect x="220" y="25" class="st16" width="13" height="1"/>
		<rect x="220" y="27" class="st16" width="17" height="1"/>
		<rect x="220" y="29" class="st16" width="10" height="1"/>
		<rect x="159" y="23" class="st27" width="2" height="1"/>
		<rect x="159" y="25" class="st27" width="2" height="1"/>
		<rect x="159" y="27" class="st27" width="2" height="1"/>
		<rect x="128" y="25" class="st27" width="2" height="1"/>
		<rect x="128" y="27" class="st27" width="2" height="1"/>
		<rect x="159" y="29" class="st27" width="2" height="1"/>
		<rect x="162" y="23" class="st16" width="21" height="1"/>
		<rect x="161" y="25" class="st16" width="13" height="1"/>
		<rect x="162" y="27" class="st16" width="17" height="1"/>
		<rect x="162" y="29" class="st16" width="10" height="1"/>
		<rect x="218" y="33" class="st28" width="19" height="1"/>
		<rect x="218" y="35" class="st28" width="37" height="1"/>
		<rect x="218" y="37" class="st28" width="25" height="1"/>
		<rect x="217" y="39" class="st28" width="42" height="1"/>
		<rect x="217" y="41" class="st28" width="8" height="1"/>
		<rect x="226" y="41" class="st28" width="23" height="1"/>
		<rect x="250" y="41" class="st28" width="3" height="1"/>
		<rect x="217" y="43" class="st28" width="27" height="1"/>
		<rect x="217" y="45" class="st28" width="46" height="1"/>
		<rect x="217" y="47" class="st28" width="28" height="1"/>
		<rect x="217" y="50" class="st16" width="25" height="1"/>
		<rect x="217" y="52" class="st16" width="28" height="1"/>
		<rect x="217" y="54" class="st16" width="31" height="1"/>
		<rect x="222" y="56" class="st28" width="2" height="1"/>
		<rect x="222" y="58" class="st28" width="2" height="1"/>
		<rect x="222" y="60" class="st28" width="2" height="1"/>
		<rect x="226" y="56" class="st28" width="12" height="1"/>
		<rect x="240" y="56" class="st28" width="12" height="1"/>
		<rect x="227" y="58" class="st28" width="9" height="1"/>
		<rect x="238" y="58" class="st28" width="9" height="1"/>
		<rect x="225" y="60" class="st28" width="3" height="1"/>
		<rect x="159" y="33" class="st28" width="19" height="1"/>
		<rect x="180" y="33" class="st29" width="14" height="1"/>
		<rect x="159" y="35" class="st28" width="19" height="1"/>
		<rect x="159" y="37" class="st28" width="8" height="1"/>
		<rect x="159" y="39" class="st28" width="8" height="1"/>
		<rect x="159" y="41" class="st28" width="8" height="1"/>
		<rect x="168" y="37" class="st30" width="23" height="1"/>
		<rect x="168" y="39" class="st30" width="40" height="1"/>
		<rect x="168" y="41" class="st30" width="23" height="1"/>
		<rect x="191" y="41" class="st27" width="3" height="1"/>
		<rect x="159" y="43" class="st16" width="2" height="1"/>
		<rect x="159" y="45" class="st31" width="22" height="1"/>
		<rect x="159" y="47" class="st31" width="28" height="1"/>
		<rect x="159" y="50" class="st16" width="25" height="1"/>
		<rect x="159" y="52" class="st16" width="28" height="1"/>
		<rect x="159" y="54" class="st16" width="31" height="1"/>
		<rect x="163" y="56" class="st31" width="2" height="1"/>
		<rect x="163" y="58" class="st31" width="2" height="1"/>
		<rect x="163" y="60" class="st31" width="2" height="1"/>
		<rect x="168" y="56" class="st31" width="9" height="1"/>
		<rect x="168" y="58" class="st31" width="9" height="1"/>
		<rect x="166" y="60" class="st31" width="3" height="1"/>
		<rect x="222" y="62" class="st16" width="35" height="1"/>
		<rect x="225" y="64" class="st16" width="26" height="1"/>
		<rect x="225" y="66" class="st16" width="38" height="1"/>
		<rect x="225" y="68" class="st16" width="26" height="1"/>
		<rect x="227" y="70" class="st16" width="17" height="1"/>
		<rect x="225" y="72" class="st16" width="2" height="1"/>
		<rect x="222" y="74" class="st16" width="2" height="1"/>
		<rect x="164" y="62" class="st16" width="35" height="1"/>
		<rect x="166" y="64" class="st16" width="26" height="1"/>
		<rect x="166" y="66" class="st16" width="38" height="1"/>
		<rect x="166" y="68" class="st16" width="26" height="1"/>
		<rect x="169" y="70" class="st16" width="17" height="1"/>
		<rect x="167" y="72" class="st16" width="2" height="1"/>
		<rect x="159" y="76" class="st16" width="2" height="1"/>
		<rect x="164" y="74" class="st16" width="2" height="1"/>
		<rect x="161" y="76" class="st16" width="2" height="1"/>
		<rect x="159" y="81" class="st27" width="2" height="1"/>
		<rect x="162" y="81" class="st16" width="15" height="1"/>
		<rect x="178" y="81" class="st27" width="7" height="1"/>
		<rect x="161" y="83" class="st27" width="2" height="1"/>
		<rect x="161" y="85" class="st27" width="2" height="1"/>
		<rect x="164" y="83" class="st16" width="19" height="1"/>
		<rect x="164" y="85" class="st16" width="19" height="1"/>
		<g>
			<rect x="156" y="22" class="st16" width="2" height="1"/>
			<rect x="156" y="24" class="st16" width="2" height="1"/>
			<rect x="156" y="26" class="st16" width="2" height="1"/>
			<rect x="156" y="28" class="st16" width="2" height="1"/>
			<rect x="156" y="31" class="st16" width="2" height="1"/>
			<rect x="156" y="33" class="st16" width="2" height="1"/>
			<rect x="156" y="35" class="st16" width="2" height="1"/>
			<rect x="156" y="37" class="st16" width="2" height="1"/>
			<rect x="156" y="39" class="st16" width="2" height="1"/>
			<rect x="156" y="41" class="st16" width="2" height="1"/>
			<rect x="156" y="43" class="st16" width="2" height="1"/>
			<rect x="156" y="45" class="st16" width="2" height="1"/>
			<rect x="156" y="47" class="st16" width="2" height="1"/>
			<rect x="156" y="49" class="st16" width="2" height="1"/>
			<rect x="156" y="51" class="st16" width="2" height="1"/>
			<rect x="156" y="53" class="st16" width="2" height="1"/>
			<rect x="156" y="55" class="st16" width="2" height="1"/>
			<rect x="156" y="57" class="st16" width="2" height="1"/>
			<rect x="156" y="60" class="st16" width="2" height="1"/>
			<rect x="156" y="62" class="st16" width="2" height="1"/>
			<rect x="156" y="64" class="st16" width="2" height="1"/>
			<rect x="156" y="66" class="st16" width="2" height="1"/>
			<rect x="156" y="68" class="st16" width="2" height="1"/>
			<rect x="156" y="70" class="st16" width="2" height="1"/>
			<rect x="156" y="72" class="st16" width="2" height="1"/>
			<rect x="156" y="74" class="st16" width="2" height="1"/>
			<rect x="156" y="76" class="st16" width="2" height="1"/>
			<rect x="156" y="78" class="st16" width="2" height="1"/>
			<rect x="156" y="80" class="st16" width="2" height="1"/>
			<rect x="156" y="82" class="st16" width="2" height="1"/>
			<rect x="156" y="84" class="st16" width="2" height="1"/>
		</g>
		<rect x="131" y="25" class="st16" width="13" height="1"/>
		<rect x="131" y="27" class="st16" width="17" height="1"/>
		<rect x="125" y="24" class="st16" width="2" height="1"/>
		<rect x="125" y="26" class="st16" width="2" height="1"/>
		<rect x="125" y="33" class="st16" width="2" height="1"/>
		<rect x="125" y="35" class="st16" width="2" height="1"/>
		<rect x="125" y="37" class="st16" width="2" height="1"/>
		<rect x="128" y="33" class="st16" width="10" height="1"/>
		<rect x="128" y="35" class="st16" width="10" height="1"/>
		<rect x="128" y="37" class="st16" width="10" height="1"/>
		<line class="st32" x1="212.5" y1="21" x2="212.5" y2="99"/>
		<polygon class="st3" points="273.9,66.5 273.9,21.1 228.5,21.1 		"/>
	</g>
</g>
</svg>
