<?xml version="1.0" encoding="utf-8"?>
<!-- Generator: Adobe Illustrator 21.0.0, SVG Export Plug-In . SVG Version: 6.00 Build 0)  -->
<svg version="1.1" xmlns="http://www.w3.org/2000/svg" xmlns:xlink="http://www.w3.org/1999/xlink" x="0px" y="0px"
	 viewBox="0 0 400 140" style="enable-background:new 0 0 400 140;" xml:space="preserve">
<style type="text/css">
	.st0{display:none;}
	.st1{display:inline;fill:#E1E5EA;}
	.st2{fill:#AAD2F2;}
	.st3{fill:#FFFFFF;}
	.st4{fill:#CCCCCC;}
	.st5{fill:#2E2E2E;}
	.st6{fill:#AFD3AF;}
	.st7{fill:#5D5F5E;}
	.st8{opacity:0.25;fill:#FFFFFF;}
	.st9{fill:#909090;}
	.st10{fill:none;stroke:#909090;stroke-miterlimit:10;stroke-dasharray:2,2;}
	.st11{fill-rule:evenodd;clip-rule:evenodd;fill:#999999;}
	.st12{fill:#60A860;}
	.st13{fill:#88BE88;}
	.st14{fill:#231F20;}
	.st15{display:none;fill:#7DB912;}
	.st16{fill:#666666;}
	.st17{fill:#1A1A1A;}
	.st18{fill:#0072C6;}
	.st19{opacity:0.1;fill:#FFFFFF;enable-background:new    ;}
	.st20{fill:#7FBA00;}
	.st21{fill:#B8D432;}
	.st22{fill:#999999;}
	.st23{fill:none;stroke:#000000;stroke-width:4;stroke-miterlimit:10;}
	.st24{fill:#80A58E;}
	.st25{fill:none;stroke:#000000;stroke-width:3;stroke-miterlimit:10;}
	.st26{fill:#20598C;}
	.st27{fill:#333333;}
	.st28{fill:none;stroke:#32145A;stroke-width:4;stroke-miterlimit:10;}
	.st29{fill:none;stroke:#FFFFFF;stroke-width:4;stroke-miterlimit:10;}
	.st30{fill:none;stroke:#FFFFFF;stroke-width:3;stroke-miterlimit:10;}
	.st31{fill:#DF5C2B;}
	.st32{fill:#316389;}
	.st33{fill:#638AA5;}
	.st34{fill:#633BA3;}
	.st35{fill:#5C2D91;}
	.st36{display:inline;fill:#FFFFFF;}
	.st37{fill:#998AAD;}
	.st38{fill:#BBB1C8;}
	.st39{fill:#80BCEB;}
	.st40{fill:#006020;}
	.st41{fill:#004B1C;}
	.st42{fill:#D38080;}
	.st43{fill:#E2AAAA;}
	.st44{fill:#C14949;}
	.st45{fill:#B72B2B;}
	.st46{fill:#0078D7;}
	.st47{opacity:0.25;}
	.st48{fill:#808080;}
	.st49{fill:#B3B3B3;}
	.st50{fill:#AD464C;}
	.st51{fill:#366A83;}
	.st52{fill:#619BB5;}
	.st53{fill:#395B71;}
	.st54{fill:#2C3E58;}
	.st55{fill:#FFFFFF;stroke:#60A860;stroke-width:4;stroke-miterlimit:10;}
</style>
<g id="bg_color" class="st0">
	<rect x="-0.3" class="st1" width="400" height="140"/>
</g>
<g id="titles">
	<g>
		<path class="st18" d="M101.2,35.5C101.2,35.5,101.2,35.5,101.2,35.5c-1,0-37.5,0-37.5,0v70.9c0,7.3,16.7,13.2,37.5,13.3v0h-0.2
			c0.1,0,0.1,0,0.2,0v0c20.7,0,37.5-6,37.5-13.3V35.5H101.2z"/>
		<path class="st19" d="M101.1,119.7h0.5c20.4,0,36.9-6,36.9-13.3V35.5h-37.4V119.7z"/>
		<path class="st3" d="M138.7,33c0,7.3-16.8,13.3-37.5,13.3S63.7,40.3,63.7,33s17.3-13.3,38-13.3S138.7,25.6,138.7,33"/>
		<path class="st20" d="M132.2,33.4c0,4.8-14,8.8-31.2,8.8s-31.2-3.9-31.2-8.8c0-4.8,14-8.8,31.2-8.8S132.2,28.6,132.2,33.4"/>
		<path class="st21" d="M125.7,38.8c4.1-1.5,6.5-3.3,6.5-5.3c0-4.8-14-8.8-31.2-8.8c-17.2,0-31.2,3.9-31.2,8.8c0,2,2.5,3.9,6.5,5.3
			c5.7-2.1,14.6-3.4,24.6-3.4C111.1,35.4,120,36.7,125.7,38.8"/>
	</g>
	<g>
		<path class="st18" d="M218.7,42.3C218.7,42.3,218.7,42.3,218.7,42.3c-0.8,0-30,0-30,0V99c0,5.8,13.4,10.6,30,10.7v0h-0.2
			c0.1,0,0.1,0,0.2,0v0c16.6,0,30-4.8,30-10.7V42.3H218.7z"/>
		<path class="st19" d="M218.6,109.7h0.4c16.3,0,29.5-4.8,29.5-10.7V42.3h-29.9V109.7z"/>
		<path class="st3" d="M248.7,40.3c0,5.9-13.4,10.6-30,10.6s-30-4.8-30-10.6s13.4-10.6,30-10.6S248.7,34.5,248.7,40.3"/>
		<path class="st20" d="M243.5,40.7c0,3.9-11.2,7-24.9,7c-13.8,0-24.9-3.1-24.9-7c0-3.9,11.2-7,24.9-7
			C232.4,33.7,243.5,36.8,243.5,40.7"/>
		<path class="st21" d="M238.3,45c3.3-1.2,5.2-2.7,5.2-4.3c0-3.9-11.2-7-24.9-7c-13.8,0-24.9,3.1-24.9,7c0,1.6,2,3.1,5.2,4.3
			c4.6-1.7,11.7-2.7,19.7-2.7C226.6,42.3,233.7,43.3,238.3,45"/>
	</g>
	<g>
		<path class="st18" d="M319.2,49.2C319.2,49.2,319.2,49.2,319.2,49.2c-0.6,0-22.5,0-22.5,0v42.5c0,4.4,10,7.9,22.5,8v0H319
			c0,0,0.1,0,0.1,0v0c12.4,0,22.5-3.6,22.5-8V49.2H319.2z"/>
		<path class="st19" d="M319.1,99.7h0.3c12.2,0,22.1-3.6,22.1-8V49.2h-22.4V99.7z"/>
		<path class="st3" d="M341.7,47.7c0,4.4-10.1,8-22.5,8s-22.5-3.6-22.5-8s10.1-8,22.5-8S341.7,43.3,341.7,47.7"/>
		<path class="st20" d="M337.8,47.9c0,2.9-8.4,5.3-18.7,5.3c-10.3,0-18.7-2.4-18.7-5.3c0-2.9,8.4-5.3,18.7-5.3
			C329.4,42.7,337.8,45,337.8,47.9"/>
		<path class="st21" d="M333.9,51.2c2.4-0.9,3.9-2,3.9-3.2c0-2.9-8.4-5.3-18.7-5.3c-10.3,0-18.7,2.4-18.7,5.3c0,1.2,1.5,2.3,3.9,3.2
			c3.4-1.2,8.8-2,14.8-2C325.1,49.1,330.5,49.9,333.9,51.2"/>
	</g>
	<g>
		<g>
			<circle class="st22" cx="246.9" cy="98.5" r="24.6"/>
		</g>
		<g>
			<g>
				<path class="st23" d="M255.8,111.4c0-10-7.5-18.3-17.2-19.6"/>
				<g>
					<polygon points="248.5,84.4 249.7,86.5 239.5,92.4 246.1,102.2 244.1,103.6 236,91.6 					"/>
				</g>
			</g>
		</g>
	</g>
	<g>
		<g>
			<g>
				<circle class="st22" cx="338.2" cy="91.3" r="16.1"/>
			</g>
		</g>
		<g>
			<path class="st24" d="M343.7,99.8c0-7.1-5.8-12.9-12.9-12.9"/>
			<g>
				<path class="st25" d="M343.7,99.8c0-6.5-4.8-11.8-11-12.8"/>
				<g>
					<polygon points="340.3,81.7 341.1,83.3 333.3,87.5 338,95 336.5,96 330.7,86.8 					"/>
				</g>
			</g>
		</g>
	</g>
	<path class="st26" d="M198.2,39.7L198.2,39.7l-0.2,0C198,39.7,198.1,39.7,198.2,39.7z"/>
	<path class="st26" d="M198.2,35.7L198.2,35.7l-0.2,0C198,35.7,198.1,35.7,198.2,35.7z"/>
</g>
</svg>
