<?xml version="1.0" encoding="utf-8"?>
<!-- Generator: Adobe Illustrator 21.0.0, SVG Export Plug-In . SVG Version: 6.00 Build 0)  -->
<svg version="1.1" xmlns="http://www.w3.org/2000/svg" xmlns:xlink="http://www.w3.org/1999/xlink" x="0px" y="0px"
	 viewBox="0 0 400 140" style="enable-background:new 0 0 400 140;" xml:space="preserve">
<style type="text/css">
	.st0{display:none;}
	.st1{display:inline;fill:#E1E5EA;}
	.st2{fill:#424242;}
	.st3{fill:#909090;}
	.st4{fill:none;stroke:#909090;stroke-miterlimit:10;stroke-dasharray:2,2;}
	.st5{fill:#CCCCCC;}
	.st6{opacity:0.15;fill:#FFFFFF;}
	.st7{fill:#5D5D5D;}
	.st8{fill:#171717;}
	.st9{fill:#7DB912;}
	.st10{fill:#2E2E2E;}
	.st11{fill:#5D5F5E;}
	.st12{fill:#FFFFFF;}
	.st13{fill:#AAD2F2;}
	.st14{fill:#2B456D;}
	.st15{fill:#B3B3B3;}
	.st16{opacity:0.25;fill:#FFFFFF;}
	.st17{clip-path:url(#SVGID_2_);}
	.st18{fill:none;stroke:#FFFFFF;stroke-miterlimit:10;stroke-dasharray:2,2;}
	.st19{clip-path:url(#SVGID_4_);}
	.st20{fill:#AFD3AF;}
	.st21{fill:none;}
	.st22{fill:#0072C6;}
	.st23{fill:#60A860;}
	.st24{fill:#316389;}
	.st25{opacity:0.1;fill:#FFFFFF;enable-background:new    ;}
	.st26{fill:#7FBA00;}
	.st27{fill:#B8D432;}
	.st28{fill:#638AA5;}
	.st29{fill:#175D87;}
	.st30{fill:#377093;}
	.st31{fill:#333333;}
	.st32{fill:#88BE88;}
	.st33{fill:none;stroke:#32145A;stroke-width:4;stroke-miterlimit:10;}
	.st34{fill:none;stroke:#FFFFFF;stroke-width:4;stroke-miterlimit:10;}
	.st35{fill:none;stroke:#FFFFFF;stroke-width:3;stroke-miterlimit:10;}
	.st36{fill:#E2E2E2;}
	.st37{fill:#8090A8;}
	.st38{fill:#D4DAE2;}
	.st39{fill:none;stroke:#808080;stroke-width:2;stroke-miterlimit:10;}
	.st40{fill:#808080;}
	.st41{fill:#FFFFFF;stroke:#808080;stroke-width:2;stroke-miterlimit:10;}
	.st42{fill:none;stroke:#808080;stroke-width:2;stroke-linejoin:bevel;stroke-miterlimit:10;}
	.st43{fill:#FFFFFF;stroke:#60A860;stroke-width:1.7237;stroke-miterlimit:10;}
</style>
<g id="Layer_1" class="st0">
	<rect x="0.7" class="st1" width="400" height="140"/>
</g>
<g id="titles">
	<g>
		<path class="st13" d="M128,130.8c-19.7-4-34-21.8-34-42.4c0-20.6,14.2-38.3,33.6-42.4c3.2-20.4,20.7-36,41.1-36
			c14.3,0,27.4,7.4,35,19.7c5.7-2.8,12-4.3,18.5-4.3c17.8,0,33.7,11.5,39.8,28.4c2.7-0.6,5.4-0.9,8.2-0.9
			c21.7,0,39.3,17.6,39.3,39.3c0,15.2-8.9,29.2-22.7,35.6l-0.6,0.3c-3.3,1.4-6.3,2.6-11.6,3.2c-0.3,0-0.7,0-1,0
			c-5.1,0.4-12,0.4-23,0.4H136.3C133.5,131.7,130.8,131.4,128,130.8z"/>
	</g>
	<g>
		<rect x="137.7" y="48.7" class="st12" width="129.4" height="73.3"/>
		<g>
			<g>
				<path class="st14" d="M268.3,36H137c-1.3,0-2.3,1-2.3,2.3v85.3c0,1.3,1,2.3,2.3,2.3h131.3c1.3,0,2.3-1,2.3-2.3V38.3
					C270.7,37,269.6,36,268.3,36z M139.7,50h126v71h-126V50z"/>
			</g>
		</g>
		<rect x="139.7" y="43" class="st5" width="26" height="4"/>
		<rect x="139.7" y="50" class="st15" width="26" height="71"/>
	</g>
	<g>
		<rect x="209.7" y="55" class="st2" width="33" height="52"/>
		<rect x="214.7" y="60" class="st3" width="23" height="4"/>
		<rect x="214.7" y="69" class="st3" width="23" height="4"/>
		<rect x="232.7" y="98" class="st3" width="5" height="4"/>
	</g>
	<g>
		<path class="st22" d="M200.7,79C200.7,79,200.7,79,200.7,79c-0.5,0-17,0-17,0v32.1c0,3.3,7.6,6,17,6V117h-0.1c0,0,0.1,0,0.1,0v0
			c9.4,0,17-2.7,17-6V79H200.7z"/>
		<path class="st25" d="M200.7,117h0.2c9.3,0,16.8-2.7,16.8-6V79h-17V117z"/>
		<path class="st12" d="M218,78.3c0,3.3-7.6,6-17,6s-17-2.7-17-6s7.6-6,17-6S218,74.9,218,78.3"/>
		<path class="st26" d="M215.1,78.5c0,2.2-6.3,4-14.1,4s-14.1-1.8-14.1-4c0-2.2,6.3-4,14.1-4S215.1,76.3,215.1,78.5"/>
		<path class="st27" d="M212.1,80.9c1.8-0.7,3-1.5,3-2.4c0-2.2-6.3-4-14.1-4c-7.8,0-14.1,1.8-14.1,4c0,0.9,1.1,1.8,3,2.4
			c2.6-0.9,6.6-1.5,11.2-1.5C205.5,79.4,209.5,80,212.1,80.9"/>
	</g>
</g>
</svg>
