<?xml version="1.0" encoding="utf-8"?>
<!-- Generator: Adobe Illustrator 21.0.0, SVG Export Plug-In . SVG Version: 6.00 Build 0)  -->
<svg version="1.1" xmlns="http://www.w3.org/2000/svg" xmlns:xlink="http://www.w3.org/1999/xlink" x="0px" y="0px"
	 viewBox="0 0 400 140" style="enable-background:new 0 0 400 140;" xml:space="preserve">
<style type="text/css">
	.st0{display:none;}
	.st1{display:inline;fill:#E1E5EA;}
	.st2{fill:none;stroke:#909090;stroke-width:2;stroke-miterlimit:10;stroke-dasharray:2,2;}
	.st3{fill:#7CABC2;}
	.st4{fill:none;stroke:#939598;stroke-width:8;stroke-miterlimit:10;}
	.st5{fill:#939598;}
	.st6{fill:#909090;}
	.st7{fill:#60A860;}
	.st8{fill:#395B71;}
	.st9{fill:#316389;}
	.st10{opacity:0.1;fill:#FFFFFF;enable-background:new    ;}
	.st11{fill:#638AA5;}
	.st12{fill:#175D87;}
	.st13{fill:#377093;}
	.st14{fill:#AFD3AF;}
	.st15{fill:#FFFFFF;stroke:#60A860;stroke-width:4;stroke-miterlimit:10;}
	.st16{fill:#AAD2F2;}
	.st17{fill:#2E2E2E;}
	.st18{fill:#5D5F5E;}
	.st19{opacity:0.25;fill:#FFFFFF;}
	.st20{fill:#FFFFFF;}
	.st21{opacity:0.15;fill:#FFFFFF;}
	.st22{opacity:0.1;}
	.st23{opacity:0.15;}
	.st24{fill:none;stroke:#88BE88;stroke-width:2;stroke-linecap:round;stroke-miterlimit:10;}
	.st25{fill:none;stroke:#FFB255;stroke-width:2;stroke-linecap:round;stroke-miterlimit:10;}
	.st26{fill:#AAD5D0;}
	.st27{fill:#2B978A;}
	.st28{fill:#88BE88;}
	.st29{fill:#AAB2DA;}
	.st30{fill:#F7B0B6;}
	.st31{fill:#D4E1D9;}
	.st32{fill:#FFE8AA;}
	.st33{fill:#FFB255;}
	.st34{fill:#AAE9FB;}
	.st35{fill:#757575;}
	.st36{clip-path:url(#SVGID_4_);fill:none;stroke:#FFFFFF;stroke-miterlimit:10;stroke-dasharray:2,2;}
	.st37{fill:#E6E6E6;}
	.st38{fill:#5E5E5E;}
	.st39{fill:#221F1F;}
	.st40{fill:#999999;}
	.st41{fill:#5D5D5D;}
	.st42{fill:#171717;}
	.st43{fill:#6D6E70;}
	.st44{fill:#1772B8;}
	.st45{fill:#929090;}
	.st46{fill:#767778;}
	.st47{fill:#A86527;}
	.st48{fill:#048273;}
	.st49{fill:none;stroke:#6D6E70;stroke-miterlimit:10;}
	.st50{fill:#333333;}
	.st51{fill:url(#SVGID_5_);}
	.st52{fill:#1E64B6;}
</style>
<g id="bg" class="st0">
	<rect x="0" class="st1" width="400" height="140"/>
</g>
<g id="titles">
	<line class="st2" x1="140.7" y1="71" x2="272.7" y2="71"/>
	<circle class="st20" cx="205.7" cy="71" r="35"/>
	<g>
		<path class="st9" d="M110.7,42.6C110.7,42.6,110.7,42.6,110.7,42.6c-0.8,0-30,0-30,0v56.7c0,5.8,13.4,10.6,30,10.7v0h-0.2
			c0.1,0,0.1,0,0.2,0v0c16.6,0,30-4.8,30-10.7V42.6H110.7z"/>
		<path class="st10" d="M110.6,110h0.4c16.3,0,29.5-4.8,29.5-10.7V42.6h-29.9V110z"/>
		<path class="st11" d="M140.7,42.6c0,5.9-13.4,10.6-30,10.6s-30-4.8-30-10.6S94.2,32,110.7,32S140.7,36.8,140.7,42.6"/>
		<path class="st12" d="M135.6,43c0,3.9-11.2,7-24.9,7s-24.9-3.1-24.9-7c0-3.9,11.2-7,24.9-7S135.6,39.1,135.6,43"/>
		<path class="st13" d="M130.4,47.3c3.3-1.2,5.2-2.7,5.2-4.3c0-3.9-11.2-7-24.9-7c-13.8,0-24.9,3.1-24.9,7c0,1.6,2,3.1,5.2,4.3
			c4.6-1.7,11.7-2.7,19.7-2.7C118.7,44.6,125.8,45.6,130.4,47.3"/>
	</g>
	<g>
		<rect x="271.7" y="35" class="st50" width="46" height="73"/>
		<rect x="278.7" y="42" class="st6" width="32" height="6"/>
		<rect x="278.7" y="56" class="st6" width="32" height="6"/>
		<rect x="303.7" y="96" class="st6" width="7" height="6"/>
	</g>
	<g>
		<linearGradient id="SVGID_2_" gradientUnits="userSpaceOnUse" x1="180.7418" y1="68.4895" x2="232.3237" y2="68.4895">
			<stop  offset="0" style="stop-color:#B9BBBE"/>
			<stop  offset="1" style="stop-color:#929299"/>
		</linearGradient>
		<path style="fill:url(#SVGID_2_);" d="M232.3,68.5c0,9.7-11.5,17.5-25.8,17.5s-25.8-7.8-25.8-17.5S192.3,51,206.5,51
			S232.3,58.8,232.3,68.5z M209.9,57.4c-10.5,0-18.9,5.4-18.9,12s8.5,12,18.9,12s19.3-2.9,19.3-12C229.2,61.6,220.4,57.4,209.9,57.4
			z"/>
		<g>
			<path class="st52" d="M219.9,77.8c0.3,0.1,0.6,0.2,1,0.3c0.6,0.2,1.2,0.5,1.7,0.7c0.6,0.3,1.1,0.8,1.5,1.4c0.5,0.9,1,1.8,1.5,2.7
				c1.1,1.9,4,6.9,4.4,7.6c0.1,0.1,0.1,0.2,0.2,0.3c-0.1,0-0.2,0-0.3,0c-3,0-6.1,0-9.1,0c-0.2,0-0.4-0.1-0.5-0.3
				c-0.7-1.4-3.9-7.4-4.8-9c-0.4-0.7-0.8-1.4-1.5-1.9c-0.4-0.3-0.9-0.4-1.4-0.4c-0.4,0-0.7,0-1.5,0c-0.3,0-0.4,0.1-0.4,0.3
				c0,0.9,0,1.7,0,2.6c0,2.8,0,5.6,0,8.4c0,0.2-0.1,0.3-0.3,0.3c-2.7,0-5.4,0-8,0c-0.3,0-0.3-0.1-0.3-0.3c0-0.7,0-22.3,0-28.7
				c0-0.2,0.2-0.4,0.4-0.4c0.4,0,11.8,0,17.2,0c1.7,0,3.3,0.5,4.8,1.5c0.9,0.6,1.7,1.3,2.2,2.3c0.5,0.9,0.8,1.9,0.9,2.9
				c0.2,1.5,0.1,3-0.4,4.4c-0.2,0.7-0.6,1.4-1.1,2c-0.9,1.2-2.1,1.9-3.4,2.6c-0.8,0.4-1.6,0.5-2.4,0.7
				C220.1,77.7,220,77.7,219.9,77.8C219.9,77.8,219.9,77.8,219.9,77.8z"/>
			<path class="st20" d="M210.8,67.7c-0.3,0-0.4,0.1-0.3,0.3c0,1.5,0,3,0,4.5c0,0.2,0.1,0.3,0.3,0.3c1.7,0,3.4,0,5.1,0
				c0.5,0,0.9-0.1,1.3-0.4c0.8-0.6,1.2-1.4,1.2-2.4c0-1.3-1.2-2.3-2.5-2.3C215.1,67.7,211.7,67.8,210.8,67.7z"/>
		</g>
	</g>
</g>
</svg>
