<?xml version="1.0" encoding="utf-8"?>
<!-- Generator: Adobe Illustrator 21.0.0, SVG Export Plug-In . SVG Version: 6.00 Build 0)  -->
<svg version="1.1" xmlns="http://www.w3.org/2000/svg" xmlns:xlink="http://www.w3.org/1999/xlink" x="0px" y="0px"
	 viewBox="0 0 400 140" style="enable-background:new 0 0 400 140;" xml:space="preserve">
<style type="text/css">
	.st0{display:none;}
	.st1{display:inline;fill:#E1E5EA;}
	.st2{fill:#FFFFFF;}
	.st3{fill:#88BE88;}
	.st4{fill:none;stroke:#32145A;stroke-width:4;stroke-miterlimit:10;}
	.st5{fill:none;stroke:#FFFFFF;stroke-width:4;stroke-miterlimit:10;}
	.st6{fill:none;stroke:#FFFFFF;stroke-width:3;stroke-miterlimit:10;}
	.st7{fill:#AFD3AF;}
	.st8{fill:#FFFFFF;stroke:#60A860;stroke-width:4;stroke-miterlimit:10;}
	.st9{fill:#60A860;}
	.st10{fill:#AAD2F2;}
	.st11{fill:#666666;}
	.st12{fill:#1A1A1A;}
	.st13{fill:#DF5C2B;}
	.st14{fill:#333333;}
	.st15{fill:#316389;}
	.st16{fill:#638AA5;}
	.st17{fill:#CCCCCC;}
	.st18{fill:#80BCEB;}
	.st19{fill:#0072C6;}
	.st20{opacity:0.1;fill:#FFFFFF;enable-background:new    ;}
	.st21{fill:#7FBA00;}
	.st22{fill:#B8D432;}
	.st23{fill:#0078D7;}
	.st24{opacity:0.25;}
	.st25{fill:#D38080;}
	.st26{fill:#E2AAAA;}
	.st27{fill:#C14949;}
	.st28{fill:#B72B2B;}
	.st29{fill:#2E2E2E;}
	.st30{fill:#5D5F5E;}
	.st31{opacity:0.25;fill:#FFFFFF;}
	.st32{fill:#3999C6;}
	.st33{fill:#7FBB42;}
	.st34{opacity:0.8;fill:#B8D433;enable-background:new    ;}
	.st35{fill:#5AB4D9;}
	.st36{fill:#B8D433;}
</style>
<g id="Layer_1" class="st0">
	<rect x="0.7" class="st1" width="400" height="140"/>
</g>
<g id="titles">
	<path class="st10" d="M98.3,47.1c1.7-20.2,18-36.1,37.9-36.1c14.8,0,27.5,8.7,33.9,21.5c5.9-3.7,12.8-5.9,20.2-5.9
		c18,0,33.1,12.6,37.6,29.7c5-1.6,10.4-2.2,16.1-1.4c15.9,2.3,28.6,15.4,30.4,31.5c1.8,16.2-7.1,30.5-20.4,36.8
		c-3.4,1.4-6.1,2.6-11.1,3.1c-0.3,0-0.6,0.1-0.9,0.1c-5.2,0.5-12.2,0.5-22.9,0.5H103.4c-2.6,0-5.1-0.3-7.5-0.9
		c-17.8-3.6-31.2-19.8-31.2-39.3C64.7,66.4,79.3,49.6,98.3,47.1z"/>
	<g>
		<path class="st11" d="M289.7,66.3V54.4c0-1.3-1.1-2.4-2.4-2.4h-80.2c-1.3,0-2.4,1.1-2.4,2.4v54.2c0,1.3,1.1,2.4,2.4,2.4h80.2
			c1.3,0,2.4-1.1,2.4-2.4V95.8l35,12.9V53.4L289.7,66.3z"/>
		<circle class="st2" cx="247.7" cy="83.1" r="19.4"/>
		<path class="st12" d="M259.3,84.9l-16.4,9.8c-1.4,0.8-3.2-0.2-3.2-1.8V73.3c0-1.6,1.8-2.7,3.2-1.8l16.4,9.8
			C260.6,82.1,260.6,84.1,259.3,84.9z"/>
	</g>
	<g>
		<g>
			<circle class="st2" cx="144.5" cy="81.9" r="35"/>
		</g>
		<g>
			<rect x="125.7" y="65" class="st9" width="6" height="35"/>
			<rect x="134.7" y="65" class="st9" width="6" height="35"/>
			<rect x="143.7" y="65" class="st9" width="6" height="35"/>
			<rect x="155" y="64.4" transform="matrix(0.9835 -0.181 0.181 0.9835 -12.2153 29.9513)" class="st9" width="6" height="35"/>
		</g>
	</g>
</g>
</svg>
