<svg id="titles" xmlns="http://www.w3.org/2000/svg" viewBox="0 0 400 140"><defs><style>.cls-1{fill:#aad2f2;}.cls-2{fill:#2e2e2e;}.cls-3{fill:#afd3af;}.cls-4{fill:#5d5f5e;}.cls-5,.cls-6{fill:#fff;}.cls-5{opacity:0.25;}.cls-7{fill:#60a860;}.cls-8{fill:#316389;}</style></defs><title>sql-8</title><path class="cls-1" d="M89.2,57.37a16.74,16.74,0,0,1,8,2,26.33,26.33,0,0,1,43-17.23,38.67,38.67,0,0,1,76.68,4.73A22.41,22.41,0,1,1,222.58,91H89.2a16.81,16.81,0,1,1,0-33.63Z"/><path class="cls-2" d="M311,126V39.55A3.55,3.55,0,0,0,307.45,36H182.55A3.55,3.55,0,0,0,179,39.55V126Z"/><rect class="cls-3" x="183" y="41" width="123" height="77"/><path class="cls-2" d="M321.37,129H168.93c-5.08,0-5.91-7-5.91-7H327.28S325.31,129,321.37,129Z"/><rect class="cls-4" x="244" y="39" width="2" height="2"/><polygon class="cls-5" points="306 41 250.76 41 306 92.69 306 41"/><path class="cls-6" d="M245,58s-6-4-7-4-12-1-12,0,2,4,0,4H216v46h57V58H262V54H251Z"/><path id="outline" class="cls-7" d="M265,56V52H252.53c-2.93,0-6.27,2.06-8.53,4-2.26-1.94-4.49-4-7.41-4H224v4H214v50h61V56Zm-4,0V95h-9c-2.37,0-5.08,2.46-7,3.55V59c1.87-1.53,4.47-3,7-3Zm-33,0h8.2c2.46,0,4.94,1.47,6.8,3V98.55c-1.86-1.09-4.44-3.55-6.8-3.55H228Zm-10,4h6V99h13a11,11,0,0,1,7,3H218Zm53,42H244a11.58,11.58,0,0,1,7.61-3H265V60h6Z"/><rect class="cls-8" x="107" y="110" width="32" height="8"/><polygon class="cls-8" points="127 89.38 127 61 119 61 119 89.38 107 77.44 107 89.4 123 105.18 139 89.4 139 77.44 127 89.38"/></svg>