<?xml version="1.0" encoding="utf-8"?>
<!-- Generator: Adobe Illustrator 21.0.0, SVG Export Plug-In . SVG Version: 6.00 Build 0)  -->
<svg version="1.1" xmlns="http://www.w3.org/2000/svg" xmlns:xlink="http://www.w3.org/1999/xlink" x="0px" y="0px"
	 viewBox="0 0 400 140" style="enable-background:new 0 0 400 140;" xml:space="preserve">
<style type="text/css">
	.st0{display:none;}
	.st1{display:inline;fill:#E1E5EA;}
	.st2{fill:#AAD2F2;}
	.st3{fill:#FFFFFF;}
	.st4{fill:#CCCCCC;}
	.st5{fill:#2E2E2E;}
	.st6{fill:#AFD3AF;}
	.st7{fill:#5D5F5E;}
	.st8{opacity:0.25;fill:#FFFFFF;}
	.st9{fill:#909090;}
	.st10{fill:none;stroke:#909090;stroke-miterlimit:10;stroke-dasharray:2,2;}
	.st11{fill-rule:evenodd;clip-rule:evenodd;fill:#999999;}
	.st12{fill:#60A860;}
	.st13{fill:#88BE88;}
	.st14{fill:#231F20;}
	.st15{display:none;fill:#7DB912;}
	.st16{fill:#666666;}
	.st17{fill:#1A1A1A;}
	.st18{fill:#0072C6;}
	.st19{opacity:0.1;fill:#FFFFFF;enable-background:new    ;}
	.st20{fill:#7FBA00;}
	.st21{fill:#B8D432;}
	.st22{fill:#999999;}
	.st23{fill:none;stroke:#000000;stroke-width:4;stroke-miterlimit:10;}
	.st24{fill:#80A58E;}
	.st25{fill:none;stroke:#000000;stroke-width:3;stroke-miterlimit:10;}
	.st26{fill:#20598C;}
	.st27{fill:#333333;}
	.st28{fill:none;stroke:#32145A;stroke-width:4;stroke-miterlimit:10;}
	.st29{fill:none;stroke:#FFFFFF;stroke-width:4;stroke-miterlimit:10;}
	.st30{fill:none;stroke:#FFFFFF;stroke-width:3;stroke-miterlimit:10;}
	.st31{fill:#DF5C2B;}
	.st32{fill:#316389;}
	.st33{fill:#638AA5;}
	.st34{fill:#633BA3;}
	.st35{fill:#5C2D91;}
	.st36{display:inline;fill:#FFFFFF;}
	.st37{fill:#998AAD;}
	.st38{fill:#BBB1C8;}
	.st39{fill:#80BCEB;}
	.st40{fill:#006020;}
	.st41{fill:#004B1C;}
	.st42{fill:#D38080;}
	.st43{fill:#E2AAAA;}
	.st44{fill:#C14949;}
	.st45{fill:#B72B2B;}
	.st46{fill:#0078D7;}
	.st47{opacity:0.25;}
	.st48{fill:#808080;}
	.st49{fill:#B3B3B3;}
	.st50{fill:#AD464C;}
	.st51{fill:#366A83;}
	.st52{fill:#619BB5;}
	.st53{fill:#395B71;}
	.st54{fill:#2C3E58;}
	.st55{fill:#FFFFFF;stroke:#60A860;stroke-width:4;stroke-miterlimit:10;}
</style>
<g id="bg_color" class="st0">
	<rect class="st1" width="400" height="140"/>
</g>
<g id="titles">
	<g>
		<polygon class="st2" points="229,103 202,56 229,9 283,9 310,56 283,103 		"/>
	</g>
	<g>
		<path class="st18" d="M256.5,34.2C256.5,34.2,256.5,34.2,256.5,34.2c-0.6,0-22.5,0-22.5,0v42.5c0,4.4,10,7.9,22.5,8v0h-0.1
			c0,0,0.1,0,0.1,0v0c12.4,0,22.5-3.6,22.5-8V34.2H256.5z"/>
		<path class="st19" d="M256.4,84.7h0.3c12.2,0,22.1-3.6,22.1-8V34.2h-22.4V84.7z"/>
		<path class="st3" d="M279,32.7c0,4.4-10.1,8-22.5,8s-22.5-3.6-22.5-8s10.1-8,22.5-8S279,28.3,279,32.7"/>
		<path class="st20" d="M275.1,32.9c0,2.9-8.4,5.3-18.7,5.3c-10.3,0-18.7-2.4-18.7-5.3c0-2.9,8.4-5.3,18.7-5.3
			C266.8,27.7,275.1,30,275.1,32.9"/>
		<path class="st21" d="M271.2,36.2c2.4-0.9,3.9-2,3.9-3.2c0-2.9-8.4-5.3-18.7-5.3c-10.3,0-18.7,2.4-18.7,5.3c0,1.2,1.5,2.3,3.9,3.2
			c3.4-1.2,8.8-2,14.8-2C262.5,34.1,267.8,34.9,271.2,36.2"/>
	</g>
	<g>
		<polygon class="st6" points="115.8,127.1 84,72.1 115.8,17.1 179.3,17.1 211,72.1 179.3,127.1 		"/>
	</g>
	<g>
		<path class="st55" d="M172.8,56.2L172.8,56.2v-0.5c0-12.3-10.6-22.6-23.6-22.8c-0.3-0.5-7.7,0.2-7.7,0.2l0,0
			c-11.7,1.4-20.8,11.2-20.8,22.6c0,0.3-1.3,9.3,7.9,16.8c4.2,3.7,8.5,13.6,9.1,16.5l0.5,1h17l0.5-1c0.6-2.9,5.1-12.8,9.1-16.3
			C173.9,65,172.8,56.5,172.8,56.2z"/>
		<rect x="138" y="96" class="st12" width="18" height="5"/>
		<polygon class="st12" points="143.8,111.8 150,111.8 155.3,106.2 138.5,106.2 		"/>
		<g>
			<path class="st12" d="M151.2,89.2H148V68.9h-2.7v20.2H142V68.9h-2.7c-3.2,0-5.9-2.7-5.9-5.9c0-3.2,2.6-5.9,5.9-5.9
				s5.9,2.7,5.9,5.9v2.7h2.7v-2.7c0-3.2,2.7-5.9,5.9-5.9s5.9,2.7,5.9,5.9c0,3.2-2.7,5.9-5.9,5.9h-2.7V89.2z M139.3,60.2
				c-1.4,0-2.7,1.1-2.7,2.7c0,1.4,1.3,2.7,2.7,2.7h2.7v-2.7C141.9,61.5,140.7,60.2,139.3,60.2z M153.9,60.2c-1.4,0-2.7,1.3-2.7,2.7
				v2.7h2.7c1.4,0,2.7-1.3,2.7-2.7S155.5,60.2,153.9,60.2z"/>
		</g>
	</g>
</g>
</svg>
