<?xml version="1.0" encoding="utf-8"?>
<!-- Generator: Adobe Illustrator 21.0.0, SVG Export Plug-In . SVG Version: 6.00 Build 0)  -->
<svg version="1.1" xmlns="http://www.w3.org/2000/svg" xmlns:xlink="http://www.w3.org/1999/xlink" x="0px" y="0px"
	 viewBox="0 0 400 140" style="enable-background:new 0 0 400 140;" xml:space="preserve">
<style type="text/css">
	.st0{display:none;}
	.st1{display:inline;fill:#E1E5EA;}
	.st2{fill:#AAD2F2;}
	.st3{fill:#FFFFFF;}
	.st4{fill:#CCCCCC;}
	.st5{fill:#2E2E2E;}
	.st6{fill:#AFD3AF;}
	.st7{fill:#5D5F5E;}
	.st8{opacity:0.25;fill:#FFFFFF;}
	.st9{fill:#909090;}
	.st10{fill:none;stroke:#909090;stroke-miterlimit:10;stroke-dasharray:2,2;}
	.st11{fill-rule:evenodd;clip-rule:evenodd;fill:#999999;}
	.st12{fill:#60A860;}
	.st13{fill:#88BE88;}
	.st14{fill:#231F20;}
	.st15{display:none;fill:#7DB912;}
	.st16{fill:#666666;}
	.st17{fill:#1A1A1A;}
	.st18{fill:#0072C6;}
	.st19{opacity:0.1;fill:#FFFFFF;enable-background:new    ;}
	.st20{fill:#7FBA00;}
	.st21{fill:#B8D432;}
	.st22{fill:#999999;}
	.st23{fill:none;stroke:#000000;stroke-width:4;stroke-miterlimit:10;}
	.st24{fill:#80A58E;}
	.st25{fill:none;stroke:#000000;stroke-width:3;stroke-miterlimit:10;}
	.st26{fill:#20598C;}
	.st27{fill:#333333;}
	.st28{fill:none;stroke:#32145A;stroke-width:4;stroke-miterlimit:10;}
	.st29{fill:none;stroke:#FFFFFF;stroke-width:4;stroke-miterlimit:10;}
	.st30{fill:none;stroke:#FFFFFF;stroke-width:3;stroke-miterlimit:10;}
	.st31{fill:#DF5C2B;}
	.st32{fill:#316389;}
	.st33{fill:#638AA5;}
	.st34{fill:#633BA3;}
	.st35{fill:#5C2D91;}
	.st36{display:inline;fill:#FFFFFF;}
	.st37{fill:#998AAD;}
	.st38{fill:#BBB1C8;}
	.st39{fill:#80BCEB;}
	.st40{fill:#006020;}
	.st41{fill:#004B1C;}
	.st42{fill:#D38080;}
	.st43{fill:#E2AAAA;}
	.st44{fill:#C14949;}
	.st45{fill:#B72B2B;}
	.st46{fill:#0078D7;}
	.st47{opacity:0.25;}
	.st48{fill:#808080;}
	.st49{fill:#B3B3B3;}
	.st50{fill:#AD464C;}
	.st51{fill:#366A83;}
	.st52{fill:#619BB5;}
	.st53{fill:#395B71;}
	.st54{fill:#2C3E58;}
	.st55{fill:#FFFFFF;stroke:#60A860;stroke-width:4;stroke-miterlimit:10;}
</style>
<g id="bg_color" class="st0">
	<rect class="st1" width="400" height="140"/>
</g>
<g id="titles">
	<line class="st10" x1="104" y1="74.5" x2="302" y2="74.5"/>
	<g>
		<circle class="st11" cx="81.2" cy="76" r="31.7"/>
	</g>
	<path class="st12" d="M261,121V38.4c0-3-2.4-5.4-5.4-5.4H199c-1.5,0-3-0.6-4-1.7l-9.8-10.5c-1-1.1-2.5-1.7-4-1.7h-33.8
		c-3,0-5.4,2.4-5.4,5.4V121H261z"/>
	<circle class="st13" cx="201.5" cy="76.5" r="33"/>
	<path class="st14" d="M91,59.6c0-5.2-4.6-9.6-10-9.6s-10,4.4-10,9.6v10.6h-6v26h32v-26h-6V59.6z M94,73.3v20H68v-20H94z M74,70.3
		V59.6c0-3.6,3.5-6.7,7.5-6.7S88,56,88,59.6v10.6H74z M78.5,80.6c0-2.1,2.2-3.6,4.5-2.6c0.5,0.2,0.9,0.7,1.2,1.2
		c0.8,1.6,0.1,3.1-1.2,3.8v6.2h-3V83C79.1,82.5,78.5,81.6,78.5,80.6z"/>
	<g>
		<g>
			<circle class="st11" cx="322.3" cy="75" r="31.7"/>
		</g>
		<path d="M314.3,89.1l-6-6l21.9-21.9l6,6L314.3,89.1L314.3,89.1z M311.2,92.1l-5.9-6l-2,8L311.2,92.1L311.2,92.1z M340.1,63.2
			c1.6-1.6,1.6-4.3,0-6s-4.3-1.6-6,0l-1,1l6,5.9L340.1,63.2L340.1,63.2z"/>
	</g>
	<path id="outline_5_" class="st3" d="M219.3,70.4c0.9-1,1.5-2.3,1.5-3.8c0-3.1-2.6-5.6-5.7-5.6s-5.7,2.5-5.7,5.6
		c0,1.5,0.6,2.8,1.5,3.8c-1.3,0.6-2.3,1.5-3.1,2.8c-1.5-2.2-4.1-3.7-7-3.7c-2.8,0-5.4,1.4-6.9,3.6c-0.7-1.2-1.8-2.1-3-2.7
		c0.9-1,1.5-2.3,1.5-3.8c0-3.1-2.6-5.6-5.7-5.6c-3.1,0-5.7,2.5-5.7,5.6c0,1.5,0.6,2.8,1.5,3.8c-2.6,1.2-4.3,3.7-4.3,7.6h2.8
		c0-2.8,2.5-5.7,5.7-5.7c3,0,5.5,2.7,5.6,5.4l0,0.3c0,2.8,1.4,5.3,3.5,6.8c-3.8,1.8-6.4,4.4-6.4,10.1h2.8c0-5.7,3.8-8.5,8.5-8.5
		c4.7,0,8.5,2.8,8.5,8.5h2.8c0-5.7-2.6-8.3-6.4-10.1c2.1-1.5,3.5-4,3.5-6.9l0,0h0.1c0-2.8,2.5-5.7,5.7-5.7c3.1,0,5.7,2.8,5.7,5.7
		h2.8C223.6,74.2,221.8,71.7,219.3,70.4z M186.8,64c1.6,0,2.9,1.3,2.9,2.8c0,1.5-1.3,2.8-2.9,2.8s-2.9-1.3-2.9-2.8
		C183.9,65.2,185.2,64,186.8,64z M206.4,79.3c-0.5,2.1-2.2,3.9-4.3,4.3c-3.6,0.8-6.9-2-6.9-5.5l0-0.1h0.1l0-0.3
		c0.2-3,2.6-5.3,5.6-5.3C204.3,72.4,207.1,75.6,206.4,79.3z M215.1,64c1.6,0,2.9,1.3,2.9,2.8c0,1.5-1.3,2.8-2.9,2.8
		c-1.6,0-2.9-1.3-2.9-2.8C212.2,65.2,213.5,64,215.1,64z"/>
</g>
</svg>
