<svg id="titles" xmlns="http://www.w3.org/2000/svg" viewBox="0 0 400 140"><defs><style>.cls-1{fill:#939598;}.cls-2{fill:none;stroke:#909090;stroke-miterlimit:10;stroke-width:2px;stroke-dasharray:2 2;}.cls-3{fill:#909090;}.cls-4{fill:#60a860;}.cls-5{fill:#7cabc2;}.cls-6{fill:#395b71;}</style></defs><title>sql-3</title><polygon class="cls-1" points="281 128 112 128 112 86 120 86 120 120 273 120 273 86 281 86 281 128"/><path class="cls-2" d="M87,10.84h93.88a20.33,20.33,0,0,1,20.33,20.33v5.16"/><polygon class="cls-3" points="193.03 29.71 194.5 28.34 201.21 35.57 207.92 28.34 209.39 29.71 201.21 38.5 193.03 29.71"/><path class="cls-4" d="M233,35.12a1.23,1.23,0,0,1-1.43.29c-.19.17-.51-.56-.66-1.1l-.61-2.16c-.32-.73-1-.76-1.23-.23l-1.67,1.52a1.9,1.9,0,0,1-1.47,1l-.85-.93-1.52-1.67c-.51-.56-1-.4-1.25.12l-1,2.26a5.19,5.19,0,0,1-.78,1.39,10.35,10.35,0,0,1-1.22-.59l-2.1-.81c-.69-.39-1.06,0-1.1.66l.07,2.31a1.71,1.71,0,0,1-.42,1.4,4.35,4.35,0,0,1-1.25.12l-2.13-.1c-.71,0-1.08.31-.76,1l1,2.18c.15.54.29,1.43.29,1.43a4.22,4.22,0,0,1-1.27.48l-2.18,1c-.54.15-.74.68-.23,1.23l1.71,1.5a8.88,8.88,0,0,1,.83,1.28,8.85,8.85,0,0,1-.94,1.2l-1.67,1.52c-.37.34-.22.88.31,1.08l2.09.81c.52.2,1.22.59,1.2.94a4.69,4.69,0,0,1-.23,1.23l-1.16,2.08c-.2.52.14.89.66,1.1l2.31-.07a3.49,3.49,0,0,1,1.59.25,1.34,1.34,0,0,1,.12,1.25L216,62.59c0,.71.49.91,1,.76l2-1.15a1.79,1.79,0,0,1,1.6-.11c.19-.17.34.37.66,1.1l.61,2.16c.32.73.86.57,1.23.23l1.67-1.52a1.91,1.91,0,0,1,1.47-1l.85.93,1.52,1.67c.51.55,1,.4,1.25-.12l.82-2.45a3.73,3.73,0,0,1,.94-1.2,10.47,10.47,0,0,1,1.22.59l2.09.81c.69.39,1.06,0,1.1-.66l-.25-2.14a3.78,3.78,0,0,1,.44-1.75l1.42.06,2.13.1c.71,0,.91-.49.76-1l-1-2.18c-.15-.54-.29-1.43-.29-1.43a2.72,2.72,0,0,1,1.1-.66l2.35-.78c.54-.15.74-.68.23-1.23l-1.71-1.5a5.47,5.47,0,0,1-.83-1.28c-.17-.19.39-.69.76-1L243,46.05c.37-.34.22-.88-.3-1.08l-2.09-.8c-.52-.2-1.39-.77-1.2-.94-.17-.19,0-.71.23-1.23l1.16-2.08c.2-.52-.14-.89-.85-.93l-2.13-.1a9.81,9.81,0,0,1-1.59-.25,2.3,2.3,0,0,1-.29-1.43l.28-2.3c0-.71-.49-.91-1-.76ZM228.59,47a3.05,3.05,0,0,1-5.13,3.32,2.79,2.79,0,0,1,1.07-4,3,3,0,0,1,4.05.72"/><path class="cls-5" d="M201.61,53.83a1.64,1.64,0,0,0,.1-2.17l-2.9-3.18a1.94,1.94,0,0,0-2.17-.1l-4.95,3.26c-1.06-.7-2.32-1.63-3.38-2.33l1.59-6a1.48,1.48,0,0,0-.79-1.78l-3.62-1.69a1.37,1.37,0,0,0-2,.56L180,45.66a12.68,12.68,0,0,0-3.87-1l-.59-6.13a1.49,1.49,0,0,0-1.45-1.59l-4.14,0c-.64-.25-1.32.38-1.57,1L167,44.2a12.79,12.79,0,0,0-4,.69l-3-5.58a2.19,2.19,0,0,0-1.93-.74l-4,1.56a1.48,1.48,0,0,0-.95,1.7l1.25,5.94c-1.12.6-2.25,1.64-3.37,2.25l-4.83-3.92a1.41,1.41,0,0,0-2,.13l-3,2.7a1.41,1.41,0,0,0-.31,1.95L144.42,56c-.93,1.26-2.07,2.3-2.56,3.59l-6-2a1.9,1.9,0,0,0-2,1l-1.69,3.63a1.88,1.88,0,0,0,.77,2.21L138,67.73c-.49,1.29-.56,2.59-1.05,3.88l-6.13.59a1.9,1.9,0,0,0-1.39,1.68l-.18,3.91a1.89,1.89,0,0,0,1.22,1.8l6.28.94a25.71,25.71,0,0,0,.67,4.39l-5.59,3a1.37,1.37,0,0,0-.74,1.93l1.35,3.76a2,2,0,0,0,1.91,1.18l6.17-1.46,1.81,3.35-3.93,4.84a2,2,0,0,0,.13,2l2.9,3.18a1.65,1.65,0,0,0,1.95.31l5.17-3.47c1.06.7,2.32,1.63,3.38,2.33l-1.58,6a1.48,1.48,0,0,0,.79,1.78l3.83,1.92a1.86,1.86,0,0,0,2-.57l3.28-5.08c1.3.06,2.59.55,3.9.61l.36,6.33a1.89,1.89,0,0,0,1.68,1.38l4.12.4a2.63,2.63,0,0,0,1.59-1.45l1.15-6c1.53-.15,2.86-.53,4.39-.67l2.81,5.36a1.49,1.49,0,0,0,1.93.74l3.77-1.35a1.77,1.77,0,0,0,1.18-1.91l-1.25-5.94a15.65,15.65,0,0,0,3.37-2.25l4.83,3.92a1.45,1.45,0,0,0,2.17.1l3-2.7a1.45,1.45,0,0,0,.1-2.17l-3.47-5.17a10.87,10.87,0,0,0,2.56-3.59l6,2a1.48,1.48,0,0,0,1.78-.79l1.92-3.84a2.19,2.19,0,0,0-.56-2l-5.29-3.51a11.11,11.11,0,0,0,.82-3.67l6.35-.8c.66-.19,1.34-.81,1.36-1.25l.2-4.35a1.49,1.49,0,0,0-1.45-1.59l-6-1.14a23.72,23.72,0,0,0-.46-4.16l5.15-3a1.59,1.59,0,0,0,1-2.13l-1.35-3.77a1.37,1.37,0,0,0-1.93-.74l-6.15,1-1.81-3.35,3.7-4.63M174.78,73.32a6.31,6.31,0,1,1-9.33,8.51,6.31,6.31,0,1,1,9.33-8.51"/><path class="cls-6" d="M257.27,88.18l-5.49-.61a1,1,0,0,1-.86-.78,16.26,16.26,0,0,0-1.47-3.9,1.07,1.07,0,0,1,.13-1.17L253,77.47a1.06,1.06,0,0,0-.07-1.42l-2.87-2.87a1.06,1.06,0,0,0-1.42-.08l-4.13,3.32a1,1,0,0,1-1.19.09,16.36,16.36,0,0,0-3.64-1.59A1.05,1.05,0,0,1,239,74l-.6-5.3c-.06-.54-.51-.73-1.06-.73h-4.06c-.54,0-1,.19-1.06.73L231.61,74a1,1,0,0,1-.81.86,16.28,16.28,0,0,0-4.07,1.65,1.05,1.05,0,0,1-1.19-.09l-4.07-3.28a1.06,1.06,0,0,0-1.42.07l-2.87,2.87a1.06,1.06,0,0,0-.08,1.42l3.34,4.15a1.05,1.05,0,0,1,.09,1.17,16.35,16.35,0,0,0-1.55,4,1.07,1.07,0,0,1-.93.8l-5.26.59a.94.94,0,0,0-.8,1.06v4.06a.94.94,0,0,0,.8,1.06l5.67.62a1,1,0,0,1,.87.72,16.28,16.28,0,0,0,1.29,3,1.05,1.05,0,0,1-.12,1.17l-3.39,4.21a1.06,1.06,0,0,0,.07,1.42l2.87,2.87a1.06,1.06,0,0,0,1.42.08l4.18-3.36a1.08,1.08,0,0,1,1.21-.08,16.36,16.36,0,0,0,3.51,1.48,1.07,1.07,0,0,1,.78.91l.61,5.64a1.06,1.06,0,0,0,1.06.94h4.06a1.06,1.06,0,0,0,1.06-.94l.61-5.59a1,1,0,0,1,.77-.89,16.35,16.35,0,0,0,3.9-1.63,1,1,0,0,1,1.18.1l4.25,3.42a1.06,1.06,0,0,0,1.42-.08l2.87-2.87a1.06,1.06,0,0,0,.08-1.42l-3.49-4.33a1.08,1.08,0,0,1-.09-1.19,16.36,16.36,0,0,0,1.21-2.83,1.07,1.07,0,0,1,.9-.75l5.72-.64c.54-.06.73-.51.73-1.06V89.24C258,88.7,257.81,88.24,257.27,88.18ZM235,99.22a8.44,8.44,0,1,1,8.44-8.44A8.44,8.44,0,0,1,235,99.22Z"/></svg>