<?xml version="1.0" encoding="utf-8"?>
<!-- Generator: Adobe Illustrator 21.0.0, SVG Export Plug-In . SVG Version: 6.00 Build 0)  -->
<svg version="1.1" xmlns="http://www.w3.org/2000/svg" xmlns:xlink="http://www.w3.org/1999/xlink" x="0px" y="0px"
	 viewBox="0 0 400 140" style="enable-background:new 0 0 400 140;" xml:space="preserve">
<style type="text/css">
	.st0{display:none;}
	.st1{display:inline;fill:#E1E5EA;}
	.st2{fill:#D4F2ED;}
	.st3{opacity:0.15;fill:#FFFFFF;}
	.st4{fill:#5E5E5E;}
	.st5{fill:#2E2E2E;}
	.st6{fill:#221F1F;}
	.st7{clip-path:url(#SVGID_2_);fill:none;stroke:#FFFFFF;stroke-miterlimit:10;stroke-dasharray:2,2;}
	.st8{fill:#316389;}
	.st9{fill:#FFFFFF;}
	.st10{fill:#CCCCCC;}
	.st11{clip-path:url(#SVGID_4_);fill:none;stroke:#FFFFFF;stroke-miterlimit:10;stroke-dasharray:2,2;}
	.st12{fill:#E6E6E6;}
	.st13{fill:#333333;}
	.st14{fill:#AAD2F2;}
	.st15{fill:#AFD3AF;}
	.st16{fill:#5D5F5E;}
	.st17{opacity:0.25;fill:#FFFFFF;}
	.st18{fill:#60A860;}
	.st19{opacity:0.1;fill:#FFFFFF;enable-background:new    ;}
	.st20{fill:#638AA5;}
	.st21{fill:#175D87;}
	.st22{fill:#377093;}
	.st23{fill:#999999;}
	.st24{fill:#5D5D5D;}
	.st25{fill:#171717;}
	.st26{fill:#6D6E70;}
	.st27{fill:#1772B8;}
	.st28{fill:#929090;}
	.st29{fill:#767778;}
	.st30{fill:#A86527;}
	.st31{fill:#048273;}
	.st32{fill:none;stroke:#6D6E70;stroke-miterlimit:10;}
	.st33{clip-path:url(#SVGID_8_);fill:none;stroke:#FFFFFF;stroke-miterlimit:10;stroke-dasharray:2,2;}
	.st34{clip-path:url(#SVGID_10_);fill:none;stroke:#FFFFFF;stroke-miterlimit:10;stroke-dasharray:2,2;}
	.st35{clip-path:url(#SVGID_12_);fill:none;stroke:#FFFFFF;stroke-miterlimit:10;stroke-dasharray:2,2;}
	.st36{fill:#959595;}
	.st37{fill:none;stroke:#FFFFFF;stroke-width:3.1482;stroke-miterlimit:10;}
	.st38{fill:none;}
	.st39{fill:#737374;}
	.st40{fill:#515050;}
	.st41{fill:#D93F26;}
	.st42{fill:#969696;}
	.st43{fill:#008A00;}
	.st44{fill:#FFB900;}
	.st45{fill:#FF8C00;}
	.st46{fill-rule:evenodd;clip-rule:evenodd;fill:#2E2E2E;}
	.st47{fill:#0078D7;}
</style>
<g id="Layer_1" class="st0">
	<rect x="0" class="st1" width="400" height="140"/>
</g>
<g id="titles">
	<g>
		<g>
			<defs>
				<rect id="SVGID_11_" x="194.3" y="52" width="32" height="8"/>
			</defs>
			<clipPath id="SVGID_2_">
				<use xlink:href="#SVGID_11_"  style="overflow:visible;"/>
			</clipPath>
			<line class="st7" x1="245.3" y1="57.5" x2="162.3" y2="57.3"/>
		</g>
		<g>
			<g>
				<rect x="183.7" y="24.9" class="st12" width="151.7" height="83.3"/>
				<polygon class="st3" points="335.4,69 335.4,23.6 290.1,23.6 				"/>
				<polygon class="st4" points="293.3,126.3 227.8,126.3 231.7,122 289.5,122 				"/>
				<path class="st5" d="M290.7,128.8c-2.9,0-57.4,0-60.2,0c-2.8,0-2.8-2.4-2.8-2.4h65.6C293.3,126.3,293.7,128.8,290.7,128.8z"/>
				<polygon class="st5" points="274.8,123.5 246.4,123.5 248.7,110.5 272.5,110.5 				"/>
				<path class="st6" d="M336.8,23H183.9c-2,0-3.5,1.6-3.5,3.5v81.7c0,2,1.6,3.5,3.5,3.5h152.9c2,0,3.5-1.6,3.5-3.5V26.5
					C340.3,24.6,338.7,23,336.8,23z M335,105.6H185.6v-78H335V105.6z"/>
			</g>
		</g>
	</g>
	<g>
		<path class="st23" d="M151.1,28.2c0.3-0.5,0-1.1-0.3-1.3l-2.2-1.3c-0.3-0.2-0.8-0.1-1.2,0.3l-2.3,2.7c-0.7-0.2-1.6-0.6-2.3-0.8
			l-0.1-3.7c0-0.4-0.3-0.8-0.7-0.9l-2.3-0.4c-0.6-0.1-1,0.2-1,0.6l-1.1,3.6c-0.8-0.1-1.6-0.1-2.4,0l-1.3-3.4
			c-0.1-0.5-0.6-0.8-1.1-0.7l-2.3,0.7c-0.4,0-0.7,0.4-0.7,0.8l0.2,3.8c-0.7,0.2-1.4,0.6-2.1,1l-2.6-2.7c-0.3-0.2-0.9-0.3-1.2-0.1
			l-2,1.5c-0.3,0.2-0.5,0.8-0.3,1.1l1.7,3.2c-0.5,0.5-1,1.3-1.5,1.8l-3.4-1.4c-0.3-0.2-0.8-0.1-1.1,0.4l-1.2,2
			c-0.3,0.5-0.2,1,0.1,1.2l2.8,2.4c-0.3,0.9-0.8,1.6-0.9,2.5l-3.7-0.2c-0.5,0.1-0.8,0.3-1,0.9l-0.4,2.3c0,0.4,0.2,1,0.8,1.1l3.4,1
			c-0.1,0.8,0.1,1.6,0,2.4l-3.4,1.3c-0.3,0.2-0.6,0.7-0.5,1.2l0.5,2.3c0.1,0.5,0.6,0.8,1,0.8l3.7-0.5c0.3,0.8,0.7,1.7,1.1,2.4
			l-2.7,2.6c-0.3,0.2-0.5,0.8-0.1,1.2l1.4,1.9c0.2,0.3,0.8,0.5,1.3,0.4l3.3-1.8c0.5,0.5,1,1.1,1.6,1.6l-1.4,3.4
			c0,0.4,0.1,0.9,0.4,1.1l2.2,1.3c0.3,0.2,1,0.2,1.2-0.1l2.4-2.8c0.7,0.2,1.6,0.6,2.3,0.8l0.1,3.7c0,0.4,0.3,0.8,0.7,0.9l2.5,0.5
			c0.4,0,0.7-0.2,1-0.6l1-3.4c0.7-0.2,1.6-0.1,2.3-0.3l1.2,3.5c0.2,0.3,0.7,0.6,1.2,0.5l2.4-0.4c0.3-0.2,0.6-0.7,0.7-1.1l-0.3-3.6
			c0.8-0.3,1.5-0.8,2.4-1.1l2.5,2.6c0.4,0.4,0.9,0.3,1.2,0.1l1.9-1.4c0.4-0.4,0.6-0.9,0.4-1.3l-1.7-3.2c0.5-0.5,1.1-1,1.5-1.8
			l3.4,1.4c0.5,0.3,1,0.2,1.2-0.3l1.2-2c0.3-0.5,0.2-1-0.3-1.3l-2.8-2.4c0.5-0.8,0.7-1.5,0.9-2.5l3.7,0.2c0.4,0,0.8-0.3,0.9-0.7
			l0.5-2.5c0-0.4-0.3-0.8-0.6-1l-3.6-1.1c0.1-0.8,0.1-1.5-0.1-2.2l3.5-1.5c0.3-0.2,0.6-0.7,0.6-0.9l-0.6-2.5
			c-0.1-0.5-0.6-0.8-1.1-0.7l-3.6,0.3c-0.3-0.8-0.5-1.6-0.9-2.3l2.4-2.6c0.4-0.4,0.6-0.9,0.2-1.4l-1.4-1.9c-0.2-0.3-0.8-0.5-1.2-0.1
			l-3.3,1.6c-0.5-0.5-1-1.1-1.6-1.6L151.1,28.2 M139.1,43.6c1.9,1.1,2.4,3.4,1.2,5.3c-1,1.7-3.3,2.2-5.1,1.1
			c-1.7-1.1-2.4-3.4-1.3-5.1C135,43,137.4,42.6,139.1,43.6"/>
		<path class="st14" d="M52,53.7c2,0,3.9,0.5,5.6,1.4c1-9.1,8.8-16.2,18.1-16.2c4.4,0,8.5,1.6,11.7,4.2
			c2.2-12.6,13.2-22.1,26.4-22.1c14.3,0,26,11.2,26.8,25.4c1.3-0.3,2.6-0.5,3.9-0.5c8.6,0,15.5,7,15.5,15.5S153,77,144.5,77H52
			c-6.4,0-11.7-5.2-11.7-11.7C40.4,58.9,45.6,53.7,52,53.7z"/>
		<g>
			<rect x="65" y="91" class="st8" width="24" height="6"/>
			<polygon class="st8" points="80,75.3 80,54 74,54 74,75.3 65,66.3 65,75.3 77,87.1 89,75.3 89,66.3 			"/>
		</g>
		<path class="st9" d="M117.6,55.6c0.2,0.4,0.6,0.4,0.9,0.3l1.7-0.5c0.4-0.2,0.6-0.5,0.4-1.1l-0.5-2.1c-0.2-0.8,0-1.1,0.5-1.5
			c0.2-0.3,0.6-0.5,0.8-0.9c0.4-0.2,0.7-0.4,1.5-0.2l2.2,0.7c0.4,0,0.8-0.2,0.9-0.3l0.8-1.7c0.1-0.2,0-0.7-0.5-1l-1.9-1.2
			c-0.6-0.4-0.6-0.8-0.6-1.2l-0.2-0.1c0.2-0.3,0.2-0.7,0.2-1c-0.1-0.5,0-1.1,0.9-1.5l1.9-0.9c0.5-0.4,0.5-0.8,0.4-1.1l-0.7-1.8
			c-0.1-0.3-0.5-0.6-0.9-0.3l-2.1,0.5c-0.8,0.2-1.3-0.1-1.5-0.5c-0.3-0.2-0.5-0.6-0.9-0.8c-0.2-0.4-0.4-0.7-0.4-1.6l0.8-2
			c0.1-0.6-0.1-0.9-0.4-1.1l-1.7-0.6c-0.3-0.2-0.8-0.1-1,0.2l-1,2c-0.4,0.6-0.9,0.8-1.3,0.7c-0.4,0-0.8-0.1-1.1,0l-0.2-0.1
			c-0.4,0-0.8-0.1-1.3-0.8l-0.9-2.1c-0.2-0.4-0.6-0.4-0.9-0.3l-1.8,0.7c-0.3,0.1-0.6,0.5-0.3,0.9l0.4,2.2c0.2,0.8,0,1.1-0.4,1.3
			c-0.2,0.3-0.6,0.5-0.8,0.9c-0.5,0.4-0.8,0.6-1.6,0.4l-2.1-0.9c-0.4,0-0.8,0.2-1,0.5l-0.8,1.7c0.1,0.3,0,0.7,0.5,1l1.9,1.2
			c0.6,0.4,0.9,0.8,0.6,1.2c0.1,0.3,0,0.7,0.1,1.2c0,0.4-0.1,0.8-1,1.2l-2,1c-0.4,0.2-0.4,0.6-0.3,0.9l0.7,1.8
			c0.1,0.3,0.5,0.6,0.8,0.5l2.2-0.7c0.8-0.2,1.1,0,1.3,0.4c0.4,0.5,0.7,0.7,0.9,1c0.5,0.3,0.6,0.8,0.5,1.4l-0.9,2.1
			c0,0.4,0.2,0.8,0.5,1l1.6,0.7c0.3,0.2,0.8,0.1,1-0.2l1-2c0.4-0.6,0.9-0.8,1.3-0.7c0.4,0,0.8,0.1,1.3,0.1c0.5-0.1,0.8,0.1,1.3,0.8
			L117.6,55.6 M119.3,42.4c0.8,2.3-0.4,4.9-2.7,5.9c-2.4,1-5-0.2-5.9-2.7c-0.8-2.3,0.4-4.9,2.6-5.7C115.7,38.9,118.3,40,119.3,42.4"
			/>
	</g>
	<path class="st47" d="M268.7,33l-14.3,14.3l-9.1-7.1l-3.6,1.8v18l3.6,1.8l9.1-7.1L268.7,69l9-3.6V36.6L268.7,33z M245.3,56.4V45.6
		l5.4,5.4L245.3,56.4z M259.2,51l9.5-7.4v14.8L259.2,51z"/>
	<g>
		<path class="st47" d="M227.3,75.2l-3.5,9.8h-1.8l-3.5-9.8h1.8l2.4,7.4c0.1,0.2,0.1,0.5,0.2,0.8h0c0-0.3,0.1-0.5,0.2-0.8l2.5-7.4
			H227.3z"/>
		<path class="st47" d="M229.2,76.5c-0.3,0-0.5-0.1-0.7-0.3c-0.2-0.2-0.3-0.4-0.3-0.6s0.1-0.5,0.3-0.6c0.2-0.2,0.4-0.3,0.7-0.3
			c0.3,0,0.5,0.1,0.7,0.3s0.3,0.4,0.3,0.6c0,0.2-0.1,0.5-0.3,0.6C229.7,76.4,229.5,76.5,229.2,76.5z M230,85h-1.6v-7h1.6V85z"/>
		<path class="st47" d="M231.6,84.8v-1.5c0.6,0.5,1.2,0.7,2,0.7c1,0,1.4-0.3,1.4-0.8c0-0.2,0-0.3-0.1-0.4c-0.1-0.1-0.2-0.2-0.3-0.3
			c-0.1-0.1-0.3-0.2-0.5-0.2c-0.2-0.1-0.4-0.1-0.6-0.2c-0.3-0.1-0.5-0.2-0.8-0.4c-0.2-0.1-0.4-0.3-0.6-0.4c-0.2-0.2-0.3-0.3-0.3-0.6
			s-0.1-0.4-0.1-0.7c0-0.3,0.1-0.6,0.2-0.9c0.2-0.3,0.4-0.5,0.6-0.7c0.3-0.2,0.6-0.3,0.9-0.4c0.3-0.1,0.7-0.1,1.1-0.1
			c0.6,0,1.2,0.1,1.7,0.3v1.4c-0.5-0.3-1.1-0.5-1.7-0.5c-0.2,0-0.4,0-0.5,0.1c-0.2,0-0.3,0.1-0.4,0.2s-0.2,0.2-0.3,0.3
			c-0.1,0.1-0.1,0.2-0.1,0.3c0,0.2,0,0.3,0.1,0.4s0.2,0.2,0.3,0.3c0.1,0.1,0.3,0.2,0.5,0.2c0.2,0.1,0.4,0.1,0.6,0.2
			c0.3,0.1,0.6,0.2,0.8,0.4c0.2,0.1,0.4,0.3,0.6,0.4c0.2,0.2,0.3,0.3,0.4,0.6c0.1,0.2,0.1,0.5,0.1,0.8c0,0.4-0.1,0.7-0.2,0.9
			s-0.4,0.5-0.7,0.7s-0.6,0.3-0.9,0.4c-0.4,0.1-0.7,0.1-1.1,0.1C232.8,85.2,232.2,85,231.6,84.8z"/>
		<path class="st47" d="M244.2,85h-1.6v-1.1h0c-0.5,0.8-1.2,1.3-2.1,1.3c-1.7,0-2.5-1-2.5-3V78h1.6v4c0,1.3,0.5,1.9,1.5,1.9
			c0.5,0,0.9-0.2,1.2-0.5c0.3-0.3,0.5-0.8,0.5-1.4v-4h1.6V85z"/>
		<path class="st47" d="M251.6,85h-1.5v-1.1h0c-0.5,0.8-1.2,1.3-2.1,1.3c-0.7,0-1.2-0.2-1.6-0.6c-0.4-0.4-0.6-0.9-0.6-1.5
			c0-1.3,0.8-2.1,2.3-2.3l2.1-0.3c0-1-0.5-1.5-1.4-1.5c-0.8,0-1.6,0.3-2.3,0.9v-1.4c0.7-0.4,1.6-0.7,2.6-0.7c1.8,0,2.7,0.9,2.7,2.6
			V85z M250.1,81.6l-1.5,0.2c-0.5,0.1-0.8,0.2-1,0.3c-0.2,0.2-0.3,0.4-0.3,0.9c0,0.3,0.1,0.5,0.3,0.7c0.2,0.2,0.5,0.3,0.9,0.3
			c0.5,0,0.9-0.2,1.2-0.5c0.3-0.3,0.5-0.8,0.5-1.3V81.6z"/>
		<path class="st47" d="M255.2,85h-1.6V74.6h1.6V85z"/>
		<path class="st47" d="M260.8,84.6v-1.7c0.2,0.1,0.3,0.3,0.5,0.4c0.2,0.1,0.4,0.2,0.7,0.3c0.2,0.1,0.5,0.1,0.7,0.2s0.4,0.1,0.6,0.1
			c0.7,0,1.2-0.1,1.5-0.3c0.3-0.2,0.5-0.6,0.5-1c0-0.2-0.1-0.4-0.2-0.6c-0.1-0.2-0.3-0.3-0.5-0.5s-0.4-0.3-0.7-0.4
			c-0.3-0.1-0.6-0.3-0.9-0.4c-0.3-0.2-0.6-0.4-0.9-0.5s-0.5-0.4-0.7-0.6c-0.2-0.2-0.4-0.5-0.5-0.7c-0.1-0.3-0.2-0.6-0.2-1
			c0-0.5,0.1-0.9,0.3-1.2c0.2-0.3,0.5-0.6,0.8-0.8c0.3-0.2,0.7-0.4,1.2-0.5c0.4-0.1,0.9-0.2,1.3-0.2c1,0,1.8,0.1,2.2,0.3V77
			c-0.6-0.4-1.3-0.6-2.1-0.6c-0.2,0-0.5,0-0.7,0.1c-0.2,0-0.5,0.1-0.6,0.2c-0.2,0.1-0.3,0.2-0.5,0.4s-0.2,0.4-0.2,0.6
			c0,0.2,0,0.4,0.1,0.6s0.2,0.3,0.4,0.4c0.2,0.1,0.4,0.3,0.6,0.4c0.3,0.1,0.5,0.3,0.9,0.4c0.3,0.2,0.7,0.4,1,0.6
			c0.3,0.2,0.6,0.4,0.8,0.6c0.2,0.2,0.4,0.5,0.5,0.8c0.1,0.3,0.2,0.6,0.2,1c0,0.5-0.1,0.9-0.3,1.3s-0.5,0.6-0.8,0.8
			c-0.3,0.2-0.7,0.4-1.2,0.5s-0.9,0.1-1.4,0.1c-0.2,0-0.4,0-0.6,0c-0.2,0-0.5-0.1-0.7-0.1c-0.3,0-0.5-0.1-0.7-0.2
			S260.9,84.7,260.8,84.6z"/>
		<path class="st47" d="M272,84.9c-0.3,0.2-0.7,0.2-1.2,0.2c-1.4,0-2-0.7-2-2v-4h-1.2V78h1.2v-1.6l1.6-0.5V78h1.7v1.2h-1.7v3.5
			c0,0.4,0.1,0.7,0.2,0.9s0.4,0.3,0.8,0.3c0.3,0,0.5-0.1,0.7-0.2V84.9z"/>
		<path class="st47" d="M279.5,85h-1.6v-1.1h0c-0.5,0.8-1.2,1.3-2.1,1.3c-1.7,0-2.5-1-2.5-3V78h1.6v4c0,1.3,0.5,1.9,1.5,1.9
			c0.5,0,0.9-0.2,1.2-0.5c0.3-0.3,0.5-0.8,0.5-1.4v-4h1.6V85z"/>
		<path class="st47" d="M287.9,85h-1.6v-1.2h0c-0.5,0.9-1.3,1.4-2.4,1.4c-0.9,0-1.6-0.3-2.1-0.9c-0.5-0.6-0.8-1.5-0.8-2.6
			c0-1.2,0.3-2.1,0.9-2.8c0.6-0.7,1.3-1,2.3-1c0.9,0,1.6,0.4,2.1,1.1h0v-4.3h1.6V85z M286.3,81.8v-0.9c0-0.5-0.2-0.9-0.5-1.3
			s-0.7-0.5-1.2-0.5c-0.6,0-1.1,0.2-1.4,0.7c-0.3,0.4-0.5,1.1-0.5,1.8c0,0.7,0.2,1.3,0.5,1.7c0.3,0.4,0.8,0.6,1.3,0.6
			c0.5,0,1-0.2,1.3-0.6C286.2,82.9,286.3,82.4,286.3,81.8z"/>
		<path class="st47" d="M290.8,76.5c-0.3,0-0.5-0.1-0.7-0.3c-0.2-0.2-0.3-0.4-0.3-0.6s0.1-0.5,0.3-0.6c0.2-0.2,0.4-0.3,0.7-0.3
			c0.3,0,0.5,0.1,0.7,0.3s0.3,0.4,0.3,0.6c0,0.2-0.1,0.5-0.3,0.6C291.3,76.4,291,76.5,290.8,76.5z M291.5,85H290v-7h1.6V85z"/>
		<path class="st47" d="M296.7,85.2c-1.1,0-1.9-0.3-2.6-1c-0.6-0.7-1-1.5-1-2.6c0-1.2,0.3-2.1,1-2.8c0.7-0.7,1.6-1,2.7-1
			c1.1,0,1.9,0.3,2.6,1s0.9,1.5,0.9,2.7c0,1.1-0.3,2-1,2.7C298.7,84.8,297.8,85.2,296.7,85.2z M296.8,79.1c-0.6,0-1.1,0.2-1.5,0.6
			s-0.5,1-0.5,1.8c0,0.7,0.2,1.3,0.5,1.7c0.4,0.4,0.9,0.6,1.5,0.6c0.6,0,1.1-0.2,1.4-0.6c0.3-0.4,0.5-1,0.5-1.8
			c0-0.8-0.2-1.4-0.5-1.8C297.9,79.3,297.4,79.1,296.8,79.1z"/>
		<path class="st47" d="M251.2,99.6c-0.7,0.4-1.7,0.6-2.8,0.6c-1.4,0-2.6-0.4-3.4-1.3s-1.3-2.1-1.3-3.5c0-1.6,0.5-2.8,1.4-3.8
			c1-1,2.2-1.4,3.7-1.4c0.9,0,1.7,0.1,2.4,0.4V92c-0.7-0.4-1.4-0.6-2.2-0.6c-1.1,0-1.9,0.3-2.6,1c-0.7,0.7-1,1.6-1,2.7
			c0,1.1,0.3,1.9,0.9,2.6c0.6,0.6,1.4,1,2.4,1c0.9,0,1.7-0.2,2.4-0.7V99.6z"/>
		<path class="st47" d="M256,100.2c-1.1,0-1.9-0.3-2.6-1c-0.6-0.7-1-1.5-1-2.6c0-1.2,0.3-2.1,1-2.8c0.7-0.7,1.6-1,2.7-1
			c1.1,0,1.9,0.3,2.6,1s0.9,1.5,0.9,2.7c0,1.1-0.3,2-1,2.7C258,99.8,257.1,100.2,256,100.2z M256.1,94.1c-0.6,0-1.1,0.2-1.5,0.6
			s-0.5,1-0.5,1.8c0,0.7,0.2,1.3,0.5,1.7c0.4,0.4,0.9,0.6,1.5,0.6c0.6,0,1.1-0.2,1.4-0.6c0.3-0.4,0.5-1,0.5-1.8
			c0-0.8-0.2-1.4-0.5-1.8C257.2,94.3,256.7,94.1,256.1,94.1z"/>
		<path class="st47" d="M267.7,100h-1.6v-1.2h0c-0.5,0.9-1.3,1.4-2.4,1.4c-0.9,0-1.6-0.3-2.1-0.9c-0.5-0.6-0.8-1.5-0.8-2.6
			c0-1.2,0.3-2.1,0.9-2.8c0.6-0.7,1.3-1,2.3-1c0.9,0,1.6,0.4,2.1,1.1h0v-4.3h1.6V100z M266.1,96.8v-0.9c0-0.5-0.2-0.9-0.5-1.3
			s-0.7-0.5-1.2-0.5c-0.6,0-1.1,0.2-1.4,0.7c-0.3,0.4-0.5,1.1-0.5,1.8c0,0.7,0.2,1.3,0.5,1.7c0.3,0.4,0.8,0.6,1.3,0.6
			c0.5,0,1-0.2,1.3-0.6C265.9,97.9,266.1,97.4,266.1,96.8z"/>
		<path class="st47" d="M275.7,96.9h-4.8c0,0.6,0.2,1.1,0.6,1.5c0.4,0.4,0.9,0.5,1.6,0.5c0.7,0,1.4-0.2,2.1-0.7v1.3
			c-0.6,0.4-1.5,0.6-2.5,0.6c-1,0-1.8-0.3-2.4-1c-0.6-0.6-0.9-1.5-0.9-2.7c0-1.1,0.3-2,1-2.7c0.6-0.7,1.4-1,2.4-1s1.7,0.3,2.2,0.9
			s0.8,1.5,0.8,2.6V96.9z M274.1,95.8c0-0.6-0.1-1-0.4-1.3c-0.3-0.3-0.6-0.5-1.1-0.5c-0.5,0-0.8,0.2-1.2,0.5
			c-0.3,0.3-0.5,0.8-0.6,1.3H274.1z"/>
	</g>
</g>
</svg>
