<svg id="titles" xmlns="http://www.w3.org/2000/svg" viewBox="0 0 400 140"><defs><style>.cls-1{fill:#7cabc2;}.cls-2{fill:#afd3af;}.cls-10,.cls-3,.cls-6{fill:#fff;}.cls-3{stroke:#60a860;stroke-miterlimit:10;stroke-width:4px;}.cls-4{fill:#60a860;}.cls-5{fill:#316389;}.cls-6{opacity:0.1;isolation:isolate;}.cls-7{fill:#638aa5;}.cls-8{fill:#175d87;}.cls-9{fill:#377093;}</style></defs><title>sql-1</title><polygon class="cls-1" points="231.02 105 204.02 58 231.02 11 285.02 11 312.02 58 285.02 105 231.02 105"/><polygon class="cls-2" points="117.75 129.05 86 74.05 117.75 19.05 181.25 19.05 213 74.05 181.25 129.05 117.75 129.05"/><path class="cls-3" d="M174.81,58.21h0v-.48c0-12.34-10.58-22.6-23.56-22.76-.32-.48-7.69.16-7.69.16h0c-11.7,1.44-20.84,11.22-20.84,22.6,0,.32-1.28,9.3,7.85,16.83,4.17,3.69,8.5,13.62,9.14,16.51l.48,1h17l.48-1c.64-2.89,5.13-12.82,9.14-16.35C175.93,67,174.81,58.53,174.81,58.21Z"/><rect class="cls-4" x="140.51" y="97.8" width="16.99" height="5.45"/><polygon class="cls-4" points="145.79 114.79 152.05 114.79 157.34 109.18 140.5 109.18 145.79 114.79"/><path class="cls-4" d="M153.17,91.23H150V70.87h-2.72v20.2H144V70.87h-2.72a6,6,0,0,1-5.93-5.93,5.93,5.93,0,0,1,11.86,0v2.72H150V64.94a5.93,5.93,0,1,1,5.93,5.93h-2.72Zm-11.86-29a2.7,2.7,0,0,0-2.72,2.72,2.81,2.81,0,0,0,2.72,2.72H144V64.94A2.93,2.93,0,0,0,141.31,62.22Zm14.59,0a2.81,2.81,0,0,0-2.72,2.72v2.72h2.72a2.81,2.81,0,0,0,2.72-2.72A2.7,2.7,0,0,0,155.89,62.22Z"/><path class="cls-5" d="M258.07,37.5h-22.5V80c0,4.38,10,7.94,22.5,8h0c12.43,0,22.5-3.58,22.5-8V37.5Z"/><path class="cls-6" d="M258,88h.3c12.22,0,22.13-3.58,22.13-8V37.5H258Z"/><path class="cls-7" d="M280.57,37c0,4.39-10.07,8-22.5,8s-22.5-3.56-22.5-8,10.07-8,22.5-8,22.5,3.56,22.5,8"/><path class="cls-8" d="M276.71,37.27c0,2.9-8.37,5.26-18.7,5.26s-18.7-2.35-18.7-5.26S247.69,32,258,32s18.7,2.35,18.7,5.26"/><path class="cls-9" d="M272.79,40.5c2.45-.89,3.92-2,3.92-3.21,0-2.9-8.37-5.25-18.7-5.25s-18.7,2.35-18.7,5.25c0,1.21,1.47,2.32,3.92,3.21,3.42-1.24,8.76-2,14.78-2s11.36.8,14.78,2"/><path class="cls-10" d="M241.08,70.35V68a3.7,3.7,0,0,0,.77.53,5.91,5.91,0,0,0,.94.4,7.43,7.43,0,0,0,1,.25,5.31,5.31,0,0,0,.92.09,3.92,3.92,0,0,0,2.18-.49,1.61,1.61,0,0,0,.72-1.42,1.55,1.55,0,0,0-.24-.86,2.51,2.51,0,0,0-.67-.67,7,7,0,0,0-1-.58l-1.25-.58q-.71-.38-1.33-.77A5.7,5.7,0,0,1,242,63a3.63,3.63,0,0,1-.71-1.07,3.48,3.48,0,0,1-.26-1.4,3.23,3.23,0,0,1,.44-1.71,3.75,3.75,0,0,1,1.17-1.2,5.37,5.37,0,0,1,1.66-.7,7.87,7.87,0,0,1,1.89-.23,7.65,7.65,0,0,1,3.2.5v2.29a5.12,5.12,0,0,0-3.07-.86,5.51,5.51,0,0,0-1,.1,3.06,3.06,0,0,0-.92.32,2,2,0,0,0-.66.58,1.41,1.41,0,0,0-.25.85,1.61,1.61,0,0,0,.2.81,2.08,2.08,0,0,0,.57.63,5.85,5.85,0,0,0,.92.55q.54.27,1.25.58t1.38.8a6.54,6.54,0,0,1,1.14.93,4.07,4.07,0,0,1,.78,1.13,3.31,3.31,0,0,1,.29,1.41,3.5,3.5,0,0,1-.43,1.8,3.46,3.46,0,0,1-1.16,1.19,5.15,5.15,0,0,1-1.67.66,9.44,9.44,0,0,1-2,.21,8.57,8.57,0,0,1-.86-.05q-.51-.05-1-.16a9.66,9.66,0,0,1-1-.25A3.22,3.22,0,0,1,241.08,70.35Z"/><path class="cls-10" d="M258.39,71.14a7,7,0,0,1-2.74-.52,6,6,0,0,1-2.1-1.45,6.56,6.56,0,0,1-1.35-2.23,8.24,8.24,0,0,1-.48-2.87,9.09,9.09,0,0,1,.48-3,6.66,6.66,0,0,1,1.38-2.33,6.06,6.06,0,0,1,2.17-1.49,7.44,7.44,0,0,1,2.86-.53,6.74,6.74,0,0,1,2.68.52,6,6,0,0,1,2.07,1.45,6.56,6.56,0,0,1,1.33,2.23,8.3,8.3,0,0,1,.47,2.86,8.86,8.86,0,0,1-.69,3.63,6.23,6.23,0,0,1-2,2.5l4.06,2.93H263l-2.5-1.94a8.55,8.55,0,0,1-1,.21A7.78,7.78,0,0,1,258.39,71.14Zm.11-12.43a4.05,4.05,0,0,0-1.75.38,4,4,0,0,0-1.37,1.06,5,5,0,0,0-.89,1.65,6.73,6.73,0,0,0-.32,2.13,6.9,6.9,0,0,0,.31,2.12,4.92,4.92,0,0,0,.86,1.64,3.86,3.86,0,0,0,3.07,1.43,4.45,4.45,0,0,0,1.81-.35,3.74,3.74,0,0,0,1.36-1,4.6,4.6,0,0,0,.86-1.62,7.2,7.2,0,0,0,.3-2.18,7.75,7.75,0,0,0-.29-2.23,4.71,4.71,0,0,0-.84-1.65,3.59,3.59,0,0,0-1.33-1A4.3,4.3,0,0,0,258.5,58.71Z"/><path class="cls-10" d="M275.49,70.9h-7.75v-14h2.32v12h5.43Z"/></svg>