<?xml version="1.0" encoding="utf-8"?>
<!-- Generator: Adobe Illustrator 21.0.0, SVG Export Plug-In . SVG Version: 6.00 Build 0)  -->
<svg version="1.1" xmlns="http://www.w3.org/2000/svg" xmlns:xlink="http://www.w3.org/1999/xlink" x="0px" y="0px"
	 viewBox="0 0 400 140" style="enable-background:new 0 0 400 140;" xml:space="preserve">
<style type="text/css">
	.st0{display:none;}
	.st1{display:inline;fill:#E1E5EA;}
	.st2{fill:#424242;}
	.st3{fill:#909090;}
	.st4{fill:none;stroke:#909090;stroke-miterlimit:10;stroke-dasharray:2,2;}
	.st5{fill:#CCCCCC;}
	.st6{opacity:0.15;fill:#FFFFFF;}
	.st7{fill:#5D5D5D;}
	.st8{fill:#171717;}
	.st9{fill:#7DB912;}
	.st10{fill:#2E2E2E;}
	.st11{fill:#5D5F5E;}
	.st12{fill:#FFFFFF;}
	.st13{fill:#AAD2F2;}
	.st14{fill:#2B456D;}
	.st15{fill:#B3B3B3;}
	.st16{opacity:0.25;fill:#FFFFFF;}
	.st17{clip-path:url(#SVGID_2_);}
	.st18{fill:none;stroke:#FFFFFF;stroke-miterlimit:10;stroke-dasharray:2,2;}
	.st19{clip-path:url(#SVGID_4_);}
	.st20{fill:#AFD3AF;}
	.st21{fill:none;}
	.st22{fill:#0072C6;}
	.st23{fill:#60A860;}
	.st24{fill:#316389;}
	.st25{opacity:0.1;fill:#FFFFFF;enable-background:new    ;}
	.st26{fill:#7FBA00;}
	.st27{fill:#B8D432;}
	.st28{fill:#638AA5;}
	.st29{fill:#175D87;}
	.st30{fill:#377093;}
	.st31{fill:#333333;}
	.st32{fill:#88BE88;}
	.st33{fill:none;stroke:#32145A;stroke-width:4;stroke-miterlimit:10;}
	.st34{fill:none;stroke:#FFFFFF;stroke-width:4;stroke-miterlimit:10;}
	.st35{fill:none;stroke:#FFFFFF;stroke-width:3;stroke-miterlimit:10;}
	.st36{fill:#E2E2E2;}
	.st37{fill:#8090A8;}
	.st38{fill:#D4DAE2;}
	.st39{fill:none;stroke:#808080;stroke-width:2;stroke-miterlimit:10;}
	.st40{fill:#808080;}
	.st41{fill:#FFFFFF;stroke:#808080;stroke-width:2;stroke-miterlimit:10;}
	.st42{fill:none;stroke:#808080;stroke-width:2;stroke-linejoin:bevel;stroke-miterlimit:10;}
	.st43{fill:#FFFFFF;stroke:#60A860;stroke-width:1.7237;stroke-miterlimit:10;}
</style>
<g id="Layer_1" class="st0">
	<rect class="st1" width="400" height="140"/>
</g>
<g id="titles">
	<g>
		<rect x="183" y="20" class="st5" width="141" height="77"/>
		<polygon class="st16" points="322,22 272.5,22 322,68.3 		"/>
		<g>
			<polygon class="st7" points="283.8,112 224.1,112 227.6,108 280.3,108 			"/>
			<path class="st8" d="M281.4,114c-2.7,0-52.3,0-54.8,0s-2.6-2-2.6-2h59.8C283.8,112,284.1,114,281.4,114z"/>
			<polygon class="st8" points="266.9,110 241,110 243.1,98 264.8,98 			"/>
			<path class="st8" d="M327,21.2c0-1.8-1.4-3.2-3.2-3.2H184.2c-1.8,0-3.2,1.4-3.2,3.2v74.6c0,1.8,1.4,3.2,3.2,3.2h139.6
				c1.8,0,3.2-1.4,3.2-3.2V21.2z M322,94H186V22h136V94z"/>
			<polygon class="st7" points="311,123 198.4,123 205,116 304.4,116 			"/>
			<polygon class="st8" points="300.7,121 208.7,121 211.9,117 297.4,117 			"/>
			<path class="st8" d="M306.6,126c-5,0-98.8,0-103.6,0c-4.8,0-4.9-3-4.9-3H311C311,123,311.6,126,306.6,126z"/>
		</g>
	</g>
	<g>
		<rect x="252.8" y="28.9" class="st2" width="33" height="52.1"/>
		<rect x="258" y="34" class="st3" width="23" height="4"/>
		<rect x="258" y="44" class="st3" width="23" height="4"/>
		<rect x="276" y="72" class="st3" width="5" height="4"/>
	</g>
	<g>
		<rect x="106.8" y="68.9" class="st2" width="33" height="52.1"/>
		<rect x="112" y="74" class="st3" width="23" height="4"/>
		<rect x="112" y="84" class="st3" width="23" height="4"/>
		<rect x="130" y="112" class="st3" width="5" height="4"/>
	</g>
	<g>
		<defs>
			<rect id="SVGID_1_" x="187.5" y="58.5" width="36.5" height="12.4"/>
		</defs>
		<clipPath id="SVGID_2_">
			<use xlink:href="#SVGID_1_"  style="overflow:visible;"/>
		</clipPath>
		<g class="st17">
			<g>
				<path class="st18" d="M142.7,83c0-10.1,8.2-18.3,18.3-18.3h60.3"/>
				<g>
					<polygon class="st12" points="218,68.8 217.3,68.1 220.9,64.7 217.3,61.3 218,60.6 222.4,64.7 					"/>
				</g>
			</g>
		</g>
	</g>
	<g>
		<defs>
			<rect id="SVGID_3_" x="140.8" y="57.2" width="45.2" height="26.8"/>
		</defs>
		<clipPath id="SVGID_4_">
			<use xlink:href="#SVGID_3_"  style="overflow:visible;"/>
		</clipPath>
		<g class="st19">
			<g>
				<path class="st4" d="M142.7,83c0-10.1,8.2-18.3,18.3-18.3h60.3"/>
				<g>
					<polygon class="st3" points="218,68.8 217.3,68.1 220.9,64.7 217.3,61.3 218,60.6 222.4,64.7 					"/>
				</g>
			</g>
		</g>
	</g>
	<g>
		<path class="st24" d="M98.6,89.1C98.6,89.1,98.6,89.1,98.6,89.1c-0.5,0-17,0-17,0v32.1c0,3.3,7.6,6,17,6v0h-0.1c0,0,0.1,0,0.1,0v0
			c9.4,0,17-2.7,17-6V89.1H98.6z"/>
		<path class="st25" d="M98.5,127.3h0.2c9.2,0,16.7-2.7,16.7-6V89.1h-17V127.3z"/>
		<path class="st28" d="M115.6,88.8c0,3.3-7.6,6-17,6s-17-2.7-17-6s7.6-6,17-6S115.6,85.4,115.6,88.8"/>
		<path class="st29" d="M112.6,89c0,2.2-6.3,4-14.1,4s-14.1-1.8-14.1-4c0-2.2,6.3-4,14.1-4S112.6,86.8,112.6,89"/>
		<path class="st30" d="M109.7,91.4c1.8-0.7,3-1.5,3-2.4c0-2.2-6.3-4-14.1-4c-7.8,0-14.1,1.8-14.1,4c0,0.9,1.1,1.8,3,2.4
			c2.6-0.9,6.6-1.5,11.2-1.5C103.1,89.9,107.1,90.5,109.7,91.4"/>
	</g>
	<g>
		<path class="st22" d="M245,49.5C245,49.5,245,49.5,245,49.5c-0.5,0-17,0-17,0v32.1c0,3.3,7.6,6,17,6v0h-0.1c0,0,0.1,0,0.1,0v0
			c9.4,0,17-2.7,17-6V49.5H245z"/>
		<path class="st25" d="M245,87.7h0.2c9.2,0,16.7-2.7,16.7-6V49.5h-17V87.7z"/>
		<path class="st12" d="M262,49.1c0,3.3-7.6,6-17,6s-17-2.7-17-6s7.6-6,17-6S262,45.8,262,49.1"/>
		<path class="st26" d="M259.1,49.3c0,2.2-6.3,4-14.1,4s-14.1-1.8-14.1-4c0-2.2,6.3-4,14.1-4S259.1,47.2,259.1,49.3"/>
		<path class="st27" d="M256.1,51.8c1.8-0.7,3-1.5,3-2.4c0-2.2-6.3-4-14.1-4c-7.8,0-14.1,1.8-14.1,4c0,0.9,1.1,1.8,3,2.4
			c2.6-0.9,6.6-1.5,11.2-1.5C249.5,50.2,253.5,50.8,256.1,51.8"/>
	</g>
</g>
</svg>
