<?xml version="1.0" encoding="utf-8"?>
<!-- Generator: Adobe Illustrator 21.0.0, SVG Export Plug-In . SVG Version: 6.00 Build 0)  -->
<svg version="1.1" xmlns="http://www.w3.org/2000/svg" xmlns:xlink="http://www.w3.org/1999/xlink" x="0px" y="0px"
	 viewBox="0 0 400 140" style="enable-background:new 0 0 400 140;" xml:space="preserve">
<style type="text/css">
	.st0{display:none;}
	.st1{display:inline;fill:#E1E5EA;}
	.st2{fill:#D4F2ED;}
	.st3{opacity:0.15;fill:#FFFFFF;}
	.st4{fill:#5E5E5E;}
	.st5{fill:#2E2E2E;}
	.st6{fill:#221F1F;}
	.st7{clip-path:url(#SVGID_2_);fill:none;stroke:#FFFFFF;stroke-miterlimit:10;stroke-dasharray:2,2;}
	.st8{fill:#316389;}
	.st9{fill:#FFFFFF;}
	.st10{fill:#CCCCCC;}
	.st11{clip-path:url(#SVGID_4_);fill:none;stroke:#FFFFFF;stroke-miterlimit:10;stroke-dasharray:2,2;}
	.st12{fill:#E6E6E6;}
	.st13{fill:#333333;}
	.st14{fill:#AAD2F2;}
	.st15{fill:#AFD3AF;}
	.st16{fill:#5D5F5E;}
	.st17{opacity:0.25;fill:#FFFFFF;}
	.st18{fill:#60A860;}
	.st19{opacity:0.1;fill:#FFFFFF;enable-background:new    ;}
	.st20{fill:#638AA5;}
	.st21{fill:#175D87;}
	.st22{fill:#377093;}
	.st23{fill:#999999;}
	.st24{fill:#5D5D5D;}
	.st25{fill:#171717;}
	.st26{fill:#6D6E70;}
	.st27{fill:#1772B8;}
	.st28{fill:#929090;}
	.st29{fill:#767778;}
	.st30{fill:#A86527;}
	.st31{fill:#048273;}
	.st32{fill:none;stroke:#6D6E70;stroke-miterlimit:10;}
	.st33{clip-path:url(#SVGID_8_);fill:none;stroke:#FFFFFF;stroke-miterlimit:10;stroke-dasharray:2,2;}
	.st34{clip-path:url(#SVGID_10_);fill:none;stroke:#FFFFFF;stroke-miterlimit:10;stroke-dasharray:2,2;}
	.st35{clip-path:url(#SVGID_12_);fill:none;stroke:#FFFFFF;stroke-miterlimit:10;stroke-dasharray:2,2;}
	.st36{fill:#959595;}
	.st37{fill:none;stroke:#FFFFFF;stroke-width:3.1482;stroke-miterlimit:10;}
	.st38{fill:none;}
	.st39{fill:#737374;}
	.st40{fill:#515050;}
	.st41{fill:#D93F26;}
	.st42{fill:#969696;}
	.st43{fill:#008A00;}
	.st44{fill:#FFB900;}
	.st45{fill:#FF8C00;}
	.st46{fill-rule:evenodd;clip-rule:evenodd;fill:#2E2E2E;}
	.st47{fill:#0078D7;}
</style>
<g id="Layer_1" class="st0">
	<rect class="st1" width="400" height="140"/>
</g>
<g id="titles">
	<path class="st14" d="M92.2,54.4c2.9,0,5.6,0.7,8,2c1.5-13.1,12.6-23.3,26.2-23.3c6.4,0,12.3,2.3,16.9,6.1
		c3.2-18.1,19-31.9,38.1-31.9c20.7,0,37.5,16.2,38.6,36.6c1.8-0.5,3.7-0.7,5.7-0.7c12.4,0,22.4,10,22.4,22.4S238,88,225.6,88H92.2
		c-9.3,0-16.8-7.5-16.8-16.8C75.4,61.9,82.9,54.4,92.2,54.4z"/>
	<g>
		<g>
			<g>
				<path class="st5" d="M314,123V36.5c0-2-1.6-3.5-3.5-3.5H185.5c-2,0-3.5,1.6-3.5,3.5V123H314z"/>
				<rect x="186" y="38" class="st15" width="123" height="77"/>
				<path class="st5" d="M324.4,126c-3.9,0-147.4,0-152.4,0s-5.9-7-5.9-7h164.3C330.3,119,328.3,126,324.4,126z"/>
				<rect x="247" y="36" class="st16" width="2" height="2"/>
				<polygon class="st17" points="309,38 253.8,38 309,89.7 				"/>
				<g>
					<defs>
						<rect id="SVGID_5_" x="186" y="38" width="123" height="77"/>
					</defs>
					<clipPath id="SVGID_2_">
						<use xlink:href="#SVGID_5_"  style="overflow:visible;"/>
					</clipPath>
				</g>
			</g>
		</g>
	</g>
	<g>
		<path class="st9" d="M248,55c0,0-6-4-7-4s-12-1-12,0s2,4,0,4s-10,0-10,0v46h57V55h-11v-4h-11L248,55z"/>
		<g>
			<path id="outline_1_" class="st18" d="M268,53v-4h-12.5c-2.9,0-6.3,2.1-8.5,4c-2.3-1.9-4.5-4-7.4-4H227v4h-10v50h61V53H268z
				 M264,53v39h-9c-2.4,0-5.1,2.5-7,3.5V56c1.9-1.5,4.5-3,7-3H264z M231,53h8.2c2.5,0,4.9,1.5,6.8,3v39.6c-1.9-1.1-4.4-3.6-6.8-3.6
				H231V53z M221,57h6v39h13c4,0,7,3,7,3h-26V57z M274,99h-27c0,0,3-3,7.6-3H268V57h6V99z"/>
		</g>
	</g>
	<g>
		<rect x="110" y="107" class="st8" width="32" height="8"/>
		<polygon class="st8" points="130,86.4 130,58 122,58 122,86.4 110,74.4 110,86.4 126,102.2 142,86.4 142,74.4 		"/>
	</g>
</g>
</svg>
