<?xml version="1.0" encoding="utf-8"?>
<!-- Generator: Adobe Illustrator 21.0.0, SVG Export Plug-In . SVG Version: 6.00 Build 0)  -->
<svg version="1.1" xmlns="http://www.w3.org/2000/svg" xmlns:xlink="http://www.w3.org/1999/xlink" x="0px" y="0px"
	 viewBox="0 0 400 140" style="enable-background:new 0 0 400 140;" xml:space="preserve">
<style type="text/css">
	.st0{display:none;}
	.st1{display:inline;fill:#E1E5EA;}
	.st2{fill:#FFFFFF;}
	.st3{fill:#88BE88;}
	.st4{fill:none;stroke:#32145A;stroke-width:4;stroke-miterlimit:10;}
	.st5{fill:none;stroke:#FFFFFF;stroke-width:4;stroke-miterlimit:10;}
	.st6{fill:none;stroke:#FFFFFF;stroke-width:3;stroke-miterlimit:10;}
	.st7{fill:#AFD3AF;}
	.st8{fill:#FFFFFF;stroke:#60A860;stroke-width:4;stroke-miterlimit:10;}
	.st9{fill:#60A860;}
	.st10{fill:#AAD2F2;}
	.st11{fill:#666666;}
	.st12{fill:#1A1A1A;}
	.st13{fill:#DF5C2B;}
	.st14{fill:#333333;}
	.st15{fill:#316389;}
	.st16{fill:#638AA5;}
	.st17{fill:#CCCCCC;}
	.st18{fill:#80BCEB;}
	.st19{fill:#0072C6;}
	.st20{opacity:0.1;fill:#FFFFFF;enable-background:new    ;}
	.st21{fill:#7FBA00;}
	.st22{fill:#B8D432;}
	.st23{fill:#0078D7;}
	.st24{opacity:0.25;}
	.st25{fill:#D38080;}
	.st26{fill:#E2AAAA;}
	.st27{fill:#C14949;}
	.st28{fill:#B72B2B;}
	.st29{fill:#2E2E2E;}
	.st30{fill:#5D5F5E;}
	.st31{opacity:0.25;fill:#FFFFFF;}
	.st32{fill:#3999C6;}
	.st33{fill:#7FBB42;}
	.st34{opacity:0.8;fill:#B8D433;enable-background:new    ;}
	.st35{fill:#5AB4D9;}
	.st36{fill:#B8D433;}
</style>
<g id="Layer_1" class="st0">
	<rect class="st1" width="400" height="140"/>
</g>
<g id="titles">
	<g>
		<polygon class="st2" points="229,105 202,58 229,11 283,11 310,58 283,105 		"/>
	</g>
	<g>
		<polygon class="st7" points="115.8,129.1 84,74.1 115.8,19.1 179.3,19.1 211,74.1 179.3,129.1 		"/>
	</g>
	<g>
		<path class="st8" d="M172.8,58.2L172.8,58.2v-0.5c0-12.3-10.6-22.6-23.6-22.8c-0.3-0.5-7.7,0.2-7.7,0.2l0,0
			c-11.7,1.4-20.8,11.2-20.8,22.6c0,0.3-1.3,9.3,7.9,16.8c4.2,3.7,8.5,13.6,9.1,16.5l0.5,1h17l0.5-1c0.6-2.9,5.1-12.8,9.1-16.3
			C173.9,67,172.8,58.5,172.8,58.2z"/>
		<rect x="138.5" y="98" class="st9" width="17.5" height="5"/>
		<polygon class="st9" points="143.8,114.8 150,114.8 155.3,109.2 138.5,109.2 		"/>
		<g>
			<path class="st9" d="M151.2,91.2H148V70.9h-2.7v20.2H142V70.9h-2.7c-3.2,0-5.9-2.7-5.9-5.9c0-3.2,2.6-5.9,5.9-5.9
				s5.9,2.7,5.9,5.9v2.7h2.7v-2.7c0-3.2,2.7-5.9,5.9-5.9s5.9,2.7,5.9,5.9c0,3.2-2.7,5.9-5.9,5.9h-2.7V91.2z M139.3,62.2
				c-1.4,0-2.7,1.1-2.7,2.7c0,1.4,1.3,2.7,2.7,2.7h2.7v-2.7C141.9,63.5,140.7,62.2,139.3,62.2z M153.9,62.2c-1.4,0-2.7,1.3-2.7,2.7
				v2.7h2.7c1.4,0,2.7-1.3,2.7-2.7C156.6,63.5,155.5,62.2,153.9,62.2z"/>
		</g>
	</g>
	<g id="Layer_4_1_">
		<rect x="239" y="43" class="st33" width="6" height="6"/>
		<rect x="234" y="61" class="st33" width="6" height="6"/>
		<rect x="243" y="61" class="st33" width="6" height="6"/>
		<rect x="252" y="61" class="st33" width="6" height="6"/>
		<rect x="234" y="52" class="st33" width="6" height="6"/>
		<rect x="243" y="52" class="st33" width="6" height="6"/>
		<polygon class="st32" points="247.4,22.7 222.1,36.2 222.1,40.1 227.2,40.1 227.2,67.3 231.8,67.3 231.8,40.1 263.5,40.1 
			263.5,65.4 268.1,65.4 268.1,40.1 272.6,40.1 272.6,36.2 		"/>
		<g>
			<path class="st32" d="M260,56v27.7c0,2.9,6.3,5.3,14,5.3V56H260z"/>
			<path class="st35" d="M273,89h0.2c8.2,0,14.8-2.4,14.8-5.3V56h-15V89L273,89z"/>
			<path class="st2" d="M288.3,55.7c0,2.9-6.5,5.3-14.6,5.3s-14.6-2.4-14.6-5.3c0-2.9,6.5-5.3,14.6-5.3
				C281.8,50.5,288.3,52.8,288.3,55.7"/>
			<path class="st33" d="M285.3,55.4c0,1.9-5.2,3.5-11.6,3.5c-6.4,0-11.6-1.6-11.6-3.5c0-1.9,5.2-3.5,11.6-3.5
				S285.3,53.5,285.3,55.4"/>
			<path class="st36" d="M282.9,57.5c1.5-0.6,2.4-1.3,2.4-2.1c0-1.9-5.2-3.5-11.6-3.5c-6.4,0-11.6,1.6-11.6,3.5
				c0,0.8,0.9,1.6,2.4,2.1c2.1-0.8,5.4-1.3,9.2-1.3C277.5,56.2,280.8,56.7,282.9,57.5"/>
			<g>
				<path class="st2" d="M262.8,75.8v-2c0.3,0.3,0.7,0.5,1.2,0.7c0.4,0.1,0.9,0.2,1.2,0.2c0.3,0,0.5,0,0.6-0.1
					c0.2,0,0.3-0.1,0.5-0.2c0.1-0.1,0.2-0.2,0.3-0.3c0-0.1,0.1-0.2,0.1-0.3c0-0.2,0-0.3-0.1-0.5c-0.1-0.1-0.2-0.3-0.4-0.4
					c-0.2-0.1-0.4-0.2-0.6-0.3c-0.2-0.1-0.5-0.2-0.8-0.3c-0.7-0.3-1.2-0.6-1.6-1c-0.3-0.4-0.5-0.9-0.5-1.5c0-0.5,0.1-0.9,0.3-1.2
					c0.2-0.3,0.4-0.6,0.7-0.8s0.7-0.4,1.1-0.5c0.4-0.1,0.9-0.1,1.3-0.1c0.5,0,0.9,0,1.2,0.1c0.3,0,0.7,0.1,1,0.3v1.9
					c-0.1-0.1-0.3-0.2-0.5-0.3c-0.2-0.1-0.3-0.1-0.5-0.2c-0.2,0-0.4-0.1-0.6-0.1c-0.2,0-0.3,0-0.5,0c-0.2,0-0.4,0-0.6,0
					c-0.2,0-0.3,0.1-0.5,0.2c-0.1,0.1-0.2,0.2-0.3,0.3c-0.1,0.1-0.1,0.2-0.1,0.3c0,0.1,0,0.3,0.1,0.4c0.1,0.1,0.2,0.2,0.3,0.3
					c0.1,0.1,0.3,0.2,0.5,0.3c0.2,0.1,0.4,0.2,0.7,0.3c0.3,0.1,0.7,0.3,1,0.5c0.3,0.2,0.5,0.3,0.7,0.6c0.2,0.2,0.3,0.4,0.5,0.7
					c0.1,0.3,0.2,0.6,0.2,1c0,0.5-0.1,0.9-0.3,1.2c-0.2,0.3-0.4,0.6-0.8,0.8c-0.3,0.2-0.7,0.3-1.1,0.4c-0.4,0.1-0.9,0.1-1.3,0.1
					c-0.5,0-1,0-1.4-0.1C263.5,76.1,263.1,76,262.8,75.8z"/>
				<path class="st2" d="M274,76.3c-1.2,0-2.3-0.4-3.1-1.2c-0.8-0.8-1.2-1.9-1.2-3.2c0-1.4,0.4-2.5,1.2-3.4c0.8-0.9,1.9-1.3,3.2-1.3
					c1.2,0,2.3,0.4,3.1,1.2c0.8,0.8,1.2,1.9,1.2,3.3c0,1.4-0.4,2.5-1.2,3.4c0,0,0,0-0.1,0.1c0,0,0,0-0.1,0.1l2.3,2.2h-2.8l-1.2-1.2
					C274.9,76.3,274.5,76.3,274,76.3z M274.1,68.9c-0.7,0-1.2,0.3-1.7,0.8c-0.4,0.5-0.6,1.2-0.6,2.1c0,0.9,0.2,1.6,0.6,2.1
					c0.4,0.5,1,0.8,1.6,0.8c0.7,0,1.2-0.3,1.6-0.7c0.4-0.5,0.6-1.2,0.6-2.1c0-0.9-0.2-1.6-0.6-2.2C275.3,69.2,274.8,68.9,274.1,68.9
					z"/>
				<path class="st2" d="M285.1,76.2h-5.3v-8.9h2v7.2h3.3V76.2L285.1,76.2z"/>
			</g>
		</g>
	</g>
</g>
</svg>
