<svg xmlns="http://www.w3.org/2000/svg" viewBox="0 0 298 110">
  <title>6 - automatic-tuning</title>
  <g id="background_blue" data-name="background blue">
    <rect width="298" height="110" fill="#e4edf1"/>
  </g>
  <g id="Shapes">
    <g>
      <path d="M135.7,47.059h2.424c-1.216-3-2.424-6.656-2.424-9.681a22.355,22.355,0,0,1,22.317-22.392h.106a21.761,21.761,0,0,1,21.807,19.368A24.322,24.322,0,0,1,196.9,27.09c11.511,0,21.807,9.681,22.422,21.185a30.294,30.294,0,0,1,7.264-1.209,21.964,21.964,0,0,1,22.423,22.393c0,12.1-9.7,21.762-22.423,21.762H135.7c-12.119,0-22.422-9.688-22.422-21.762A22.355,22.355,0,0,1,135.6,47.066h.1" fill="#80def9"/>
      <path d="M230.914,65.8a.855.855,0,0,0-.855-.856H180.741a.855.855,0,0,0-.855.856V96.354a.855.855,0,0,0,.855.855h49.318a.855.855,0,0,0,.855-.855h0ZM186.64,70.945h-2.252v-3h2.252Zm5.252,0h-2.251v-3h2.251Zm5.253,0h-3v-3h3Zm-15.758,1.5h47.276V95.708H181.387Z" fill="#556a8a"/>
      <g>
        <path d="M208.4,24.831a19.813,19.813,0,1,0,2.251,9.111A19.811,19.811,0,0,0,208.4,24.831Zm-17.71,20.517a11.256,11.256,0,1,1,4.462-.92A11.256,11.256,0,0,1,190.692,45.348Z" fill="#00bcf2"/>
        <path d="M208.4,24.831l-7.4,4.8a11.315,11.315,0,0,0-7.947-6.544l4.39-7.819A19.839,19.839,0,0,1,208.4,24.831Z" fill="#556a8a"/>
      </g>
      <path d="M149.764,56.124a.748.748,0,0,1-.531-.22l-6.761-6.761a.75.75,0,1,1,1.061-1.061l6.231,6.23L164.9,39.182a.75.75,0,1,1,1.061,1.061L150.295,55.9A.748.748,0,0,1,149.764,56.124Z" fill="#556a8a"/>
      <path d="M149.764,69.444a.752.752,0,0,1-.531-.22l-6.761-6.761a.75.75,0,0,1,1.061-1.061l6.231,6.23L164.9,52.494a.75.75,0,1,1,1.061,1.061L150.295,69.224A.752.752,0,0,1,149.764,69.444Z" fill="#556a8a"/>
      <path d="M149.764,82.764h0a.748.748,0,0,1-.531-.221l-6.761-6.768a.75.75,0,0,1,1.061-1.061l6.231,6.238L164.9,65.814a.75.75,0,1,1,1.061,1.061L150.295,82.544A.751.751,0,0,1,149.764,82.764Z" fill="#556a8a"/>
    </g>
    <g>
      <rect x="48.667" y="26.941" width="53.622" height="65" fill-opacity="0"/>
      <rect x="51.283" y="26.941" width="48.913" height="65" fill-opacity="0"/>
      <path d="M51.283,35.835V83.048c0,4.839,10.986,8.893,24.456,8.893V35.835Z" fill="#0072c6"/>
      <path d="M75.347,91.941h.392c13.6,0,24.457-3.923,24.457-8.893V35.835H75.347V91.941Z" fill="#0072c6"/>
      <path d="M75.347,91.941h.392c13.6,0,24.457-3.923,24.457-8.893V35.835H75.347V91.941Z" fill="#fff" opacity="0.15" style="isolation: isolate"/>
      <path d="M100.2,35.835c0,4.839-10.986,8.893-24.457,8.893S51.283,40.8,51.283,35.835c0-4.839,10.986-8.894,24.456-8.894S100.2,31,100.2,35.835Z" fill="#fff"/>
      <path d="M95.226,35.442c0,3.139-8.762,5.755-19.487,5.755s-19.487-2.616-19.487-5.755c0-3.269,8.763-5.885,19.487-5.885S95.226,32.173,95.226,35.442Z" fill="#7fba00"/>
      <path d="M91.172,38.973c2.616-1.046,4.054-2.223,4.054-3.531,0-3.269-8.762-5.885-19.487-5.885s-19.487,2.616-19.487,5.885c0,1.308,1.57,2.616,4.055,3.531,3.531-1.438,9.155-2.223,15.432-2.223C82.017,36.619,87.641,37.535,91.172,38.973Z" fill="#b8d432"/>
      <rect x="48.667" y="49.175" width="53.622" height="28.773" fill-opacity="0"/>
      <path d="M58.456,69.573V66.508a5.976,5.976,0,0,0,1.81,1.054,5.9,5.9,0,0,0,1.974.345,4.27,4.27,0,0,0,1.015-.106,2.409,2.409,0,0,0,.728-.287,1.324,1.324,0,0,0,.441-.441,1.12,1.12,0,0,0,.143-.555,1.189,1.189,0,0,0-.23-.719,2.46,2.46,0,0,0-.632-.584,6.3,6.3,0,0,0-.938-.517c-.365-.166-.757-.336-1.179-.508a6.053,6.053,0,0,1-2.4-1.638,3.587,3.587,0,0,1-.785-2.337,3.689,3.689,0,0,1,.431-1.839A3.649,3.649,0,0,1,60,57.1a5.24,5.24,0,0,1,1.724-.728,8.652,8.652,0,0,1,2.069-.24,11.961,11.961,0,0,1,1.9.134,7.253,7.253,0,0,1,1.533.393v2.864a4.479,4.479,0,0,0-.757-.421,5.254,5.254,0,0,0-.833-.3,6.2,6.2,0,0,0-1.667-.24,4,4,0,0,0-.958.106,2.363,2.363,0,0,0-.728.277,1.4,1.4,0,0,0-.46.441,1.013,1.013,0,0,0-.163.565,1.115,1.115,0,0,0,.182.623,2.2,2.2,0,0,0,.518.517,6.09,6.09,0,0,0,.814.479q.479.23,1.082.479a11.449,11.449,0,0,1,1.475.737,5.139,5.139,0,0,1,1.131.872,3.4,3.4,0,0,1,.718,1.121,4.435,4.435,0,0,1-.191,3.391,3.554,3.554,0,0,1-1.179,1.264,5.164,5.164,0,0,1-1.743.69,10.014,10.014,0,0,1-2.088.211,11.682,11.682,0,0,1-2.155-.192A6.484,6.484,0,0,1,58.456,69.573Zm17.434.767a6.4,6.4,0,0,1-4.809-1.916,6.932,6.932,0,0,1-1.858-5.01,7.408,7.408,0,0,1,1.887-5.268,6.513,6.513,0,0,1,5-2.012,6.217,6.217,0,0,1,4.751,1.926,7.066,7.066,0,0,1,1.82,5.076,7.281,7.281,0,0,1-1.887,5.221c-.045.045-.086.089-.124.134s-.08.077-.125.115l3.477,3.343h-4.33L77.872,70.1A7.685,7.685,0,0,1,75.89,70.34ZM76.024,58.8a3.129,3.129,0,0,0-2.587,1.226,5.075,5.075,0,0,0-.957,3.228,5,5,0,0,0,.957,3.228,3.071,3.071,0,0,0,2.51,1.188,3.107,3.107,0,0,0,2.539-1.149,4.993,4.993,0,0,0,.938-3.209,5.38,5.38,0,0,0-.91-3.324A2.949,2.949,0,0,0,76.024,58.8ZM93.151,70.1h-8.18V56.364h3.094V67.591h5.086Z" fill="#fff"/>
    </g>
  </g>
</svg>
