<svg xmlns="http://www.w3.org/2000/svg" viewBox="0 0 298 110">
  <title>6 - cardinality-estimation</title>
  <g id="background_blue" data-name="background blue">
    <rect width="298" height="110" fill="#e4edf1"/>
  </g>
  <g id="Shapes">
    <g>
      <path d="M190.82,37.324A16.87,16.87,0,0,0,179.7,29.2c-.436-2.813-1.969-16.186-15.469-16.032-7.031.085-11.643,4.219-14.667,9.127-10.462-9.675-23.667-.281-23.133,9.647a15.611,15.611,0,0,0-18.844,15.469c0,6.089,4.008,11.25,9,14.273,0,0,.366.225.957.534a14.879,14.879,0,0,0,4.711,1.716H179.7c7.819-1.589,13.359-9.844,13.359-18.084A17.14,17.14,0,0,0,190.82,37.324Z" fill="#2bc7f4"/>
      <rect x="104.603" y="10.493" width="90" height="90" fill="none"/>
      <path d="M193.2,94.629a4.219,4.219,0,0,1-7.031,1.9L172.5,82.858l-4.613-4.472-2.812-3.206c-1.645-1.645-.759-3.108.886-4.753a4.222,4.222,0,0,1,1.926-1.069c1.407-.379,1.744-.886,2.813.2l7.678,7.341,13.683,13.683A4.216,4.216,0,0,1,193.2,94.629Z" fill="#556a8a"/>
      <g>
        <path d="M151.7,32.289a22.5,22.5,0,1,0,22.5,22.5A22.5,22.5,0,0,0,151.7,32.289Z" fill="#fff"/>
        <path d="M151.7,78.7A23.907,23.907,0,1,1,175.6,54.79,23.933,23.933,0,0,1,151.7,78.7Zm0-45A21.094,21.094,0,1,0,172.792,54.79,21.117,21.117,0,0,0,151.7,33.7Z" fill="#556a8a"/>
      </g>
      <rect x="141.166" y="45.649" width="21.094" height="2.813" fill="#556a8a"/>
      <rect x="141.166" y="52.68" width="21.094" height="2.813" fill="#556a8a"/>
      <rect x="141.166" y="59.711" width="21.094" height="2.813" fill="#556a8a"/>
    </g>
  </g>
</svg>
