<svg xmlns="http://www.w3.org/2000/svg" viewBox="0 0 298 110">
  <title>6 - central-management-servers</title>
  <g id="background_blue" data-name="background blue">
    <rect x="0.023" y="0.008" width="298" height="110" fill="#e4edf1"/>
  </g>
  <g id="Shapes">
    <g>
      <rect x="81.211" y="34.38" width="65.605" height="20.515" rx="0.631" ry="0.631" fill="#303030"/>
      <rect x="81.211" y="58.888" width="65.605" height="20.516" rx="0.631" ry="0.631" fill="#303030"/>
      <path d="M89.131,50.035a2.321,2.321,0,1,1-2.322-2.32,2.32,2.32,0,0,1,2.322,2.32Z" fill="#7fba00"/>
      <circle cx="86.81" cy="74.589" r="2.321" fill="#7fba00"/>
      <path d="M141.951,46.263h-13.2a.723.723,0,0,1,0-1.445h13.2a.723.723,0,1,1,0,1.445Z" fill="#fff"/>
      <path d="M141.951,48.823h-13.2a.724.724,0,0,1,0-1.448h13.206a.724.724,0,0,1,0,1.448Z" fill="#fff"/>
      <path d="M141.951,51.377h-13.2a.722.722,0,0,1,0-1.443h13.2a.722.722,0,1,1,0,1.443Z" fill="#fff"/>
      <path d="M141.951,70.8h-13.2a.722.722,0,0,1,0-1.443h13.2a.722.722,0,1,1,0,1.443Z" fill="#fff"/>
      <path d="M141.951,73.361h-13.2a.723.723,0,0,1,0-1.445h13.2a.723.723,0,1,1,0,1.445Z" fill="#fff"/>
      <path d="M141.933,75.917h-13.2a.724.724,0,0,1,0-1.448h13.2a.724.724,0,1,1,0,1.448Z" fill="#fff"/>
      <rect x="151.764" y="34.38" width="65.605" height="20.515" rx="0.631" ry="0.631" fill="#303030"/>
      <rect x="151.764" y="58.888" width="65.605" height="20.516" rx="0.631" ry="0.631" fill="#303030"/>
      <path d="M159.684,50.035a2.321,2.321,0,1,1-2.322-2.32h0a2.32,2.32,0,0,1,2.322,2.318Z" fill="#7fba00"/>
      <circle cx="157.362" cy="74.589" r="2.321" fill="#7fba00"/>
      <path d="M212.5,46.263H199.3a.723.723,0,1,1,0-1.445h13.2a.723.723,0,1,1,0,1.445Z" fill="#fff"/>
      <path d="M212.5,48.823H199.3a.724.724,0,0,1,0-1.448H212.5a.724.724,0,0,1,0,1.448Z" fill="#fff"/>
      <path d="M212.5,51.377H199.3a.722.722,0,0,1,0-1.443h13.2a.722.722,0,1,1,0,1.443Z" fill="#fff"/>
      <path d="M212.5,70.8H199.3a.722.722,0,0,1,0-1.443h13.2a.722.722,0,1,1,0,1.443Z" fill="#fff"/>
      <path d="M212.5,73.361H199.3a.723.723,0,1,1,0-1.445h13.2a.723.723,0,1,1,0,1.445Z" fill="#fff"/>
      <path d="M212.486,75.917h-13.2a.724.724,0,0,1,0-1.448h13.2a.724.724,0,1,1,0,1.448Z" fill="#fff"/>
      <rect x="81.211" y="10.139" width="65.605" height="20.516" rx="0.631" ry="0.631" fill="#303030"/>
      <circle cx="86.81" cy="25.84" r="2.321" fill="#7fba00"/>
      <path d="M141.951,22.049h-13.2a.722.722,0,0,1,0-1.443h13.2a.722.722,0,1,1,0,1.443Z" fill="#fff"/>
      <path d="M141.951,24.612h-13.2a.723.723,0,0,1,0-1.445h13.2a.723.723,0,1,1,0,1.445Z" fill="#fff"/>
      <path d="M141.933,27.168h-13.2a.724.724,0,1,1,0-1.447h13.2a.724.724,0,1,1,0,1.447Z" fill="#fff"/>
      <rect x="151.764" y="10.139" width="65.605" height="20.516" rx="0.631" ry="0.631" fill="#303030"/>
      <circle cx="157.362" cy="25.84" r="2.321" fill="#7fba00"/>
      <path d="M212.5,22.049H199.3a.722.722,0,0,1,0-1.443h13.2a.722.722,0,1,1,0,1.443Z" fill="#fff"/>
      <path d="M212.5,24.612H199.3a.723.723,0,1,1,0-1.445h13.2a.723.723,0,1,1,0,1.445Z" fill="#fff"/>
      <path d="M212.486,27.168h-13.2a.724.724,0,1,1,0-1.447h13.2a.724.724,0,1,1,0,1.447Z" fill="#fff"/>
      <polygon points="170.877 93.466 129.302 93.466 125.196 98.599 174.983 98.599 170.877 93.466 170.877 93.466" fill="#505050"/>
      <polygon points="174.983 100.139 125.196 100.139 125.196 98.599 174.983 98.599 174.983 100.139 174.983 100.139" fill="#3e3d4d"/>
      <polygon points="159.585 96.033 140.081 96.033 140.081 83.201 159.585 83.201 159.585 96.033 159.585 96.033" fill="#6a6a6a"/>
      <path d="M193.975,83.2a5.143,5.143,0,0,1-5.133,5.132H110.824c-2.566,0-4.62-2.566-4.62-5.132V42.139a4.6,4.6,0,0,1,4.578-4.62h78.06c3.079,0,5.133,2.054,5.133,4.62Z" fill="#6a6a6a"/>
      <polygon points="189.868 83.201 110.824 83.201 110.824 42.139 189.868 42.139 189.868 83.201 189.868 83.201" fill="#eee"/>
      <polygon points="159.585 91.413 140.081 91.413 140.081 88.334 159.585 88.334 159.585 91.413 159.585 91.413" fill="#505050"/>
      <path d="M151.373,39.572c0,.513-.514,1.027-1.54,1.027a1.027,1.027,0,1,1,0-2.054h0C150.859,38.545,151.373,39.059,151.373,39.572Z" fill="#3e3d4d"/>
      <path d="M144.892,60.305l-3.072-2.487A10.127,10.127,0,0,0,140,64.043l3.927-.413A6.2,6.2,0,0,1,144.892,60.305Z" fill="#bac84a"/>
      <path d="M153.482,58.362l2.487-3.072a10.13,10.13,0,0,0-6.23-1.811l.414,3.926A6.207,6.207,0,0,1,153.482,58.362Z" fill="#128e52"/>
      <path d="M148.783,57.557l-.413-3.93a10.122,10.122,0,0,0-5.687,3.118l3.067,2.482A6.2,6.2,0,0,1,148.783,57.557Z" fill="#85b351"/>
      <path d="M156.23,62.228l3.83-.907a10.119,10.119,0,0,0-3.017-5.17l-2.484,3.069A6.2,6.2,0,0,1,156.23,62.228Z" fill="#128e52"/>
      <path d="M144.08,65l-3.93.414a10.116,10.116,0,0,0,3.115,5.691l2.484-3.068A6.2,6.2,0,0,1,144.08,65Z" fill="#d1d78d"/>
      <path d="M151.411,76.221a12.62,12.62,0,0,0,6.532-22.432,12.149,12.149,0,0,0-1.451-.992L144.875,75.151A12.534,12.534,0,0,0,151.411,76.221Z" fill="none"/>
      <path d="M165.213,62.075a15.279,15.279,0,0,0-5.641-10.3,14.839,14.839,0,0,0-1.886-1.278l-1.195,2.3a12.37,12.37,0,0,1,1.452.993,12.612,12.612,0,0,1-13.068,21.36l-1.193,2.3a15.195,15.195,0,0,0,21.531-15.37Z" fill="#a0a1a2"/>
      <path d="M142.151,73.478A12.618,12.618,0,0,1,156.492,52.8l1.194-2.3a15.2,15.2,0,0,0-19.418,3.6l0,.006a15.154,15.154,0,0,0,5.418,23.339l1.193-2.3A12.656,12.656,0,0,1,142.151,73.478Z" fill="#b7b8b9"/>
      <path d="M161.808,63.65a1.3,1.3,0,0,0-1.3-1.289l-.378,0-4.067.016-4.624.019-.012-.015a1.778,1.778,0,0,0-3.03,1.285h13.409Z" fill="#ff8c00"/>
      <path d="M151.34,64.986l9.178-.036a1.293,1.293,0,0,0,1.288-1.281H148.4a1.775,1.775,0,0,0,2.942,1.317Z" fill="#ff8c00"/>
      <path d="M151.34,64.986l9.178-.036a1.293,1.293,0,0,0,1.288-1.281H148.4a1.775,1.775,0,0,0,2.942,1.317Z" fill="#d16b37" opacity="0.5" style="isolation: isolate"/>
      <path d="M148.769,51.117a12.6,12.6,0,0,0-3.894,24.033L156.492,52.8A12.511,12.511,0,0,0,148.769,51.117Z" fill="#fff" opacity="0.2" style="isolation: isolate"/>
      <circle cx="150.09" cy="63.646" r="13.259" fill="none" stroke="#3c454f" stroke-miterlimit="10" opacity="0.3" style="isolation: isolate"/>
      <circle cx="150.09" cy="70.953" r="1.31" fill="#85b351"/>
    </g>
  </g>
</svg>
