<svg xmlns="http://www.w3.org/2000/svg" viewBox="0 0 298 110">
  <title>6 - data-compression</title>
  <g id="background_blue" data-name="background blue">
    <rect y="0.011" width="298" height="110" fill="#e4edf1"/>
  </g>
  <g id="Shapes">
    <g>
      <polygon points="191.875 58.547 209.47 58.547 209.47 51.475 191.875 51.475 202.483 40.867 191.875 40.867 177.731 55.011 191.875 69.155 202.483 69.155 191.875 58.547" fill="#75757a"/>
      <polygon points="107.125 51.475 89.53 51.475 89.53 58.547 107.125 58.547 96.517 69.155 107.125 69.155 121.269 55.011 107.125 40.867 96.517 40.867 107.125 51.475" fill="#75757a"/>
      <g>
        <path d="M119.351,25.94a196.944,196.944,0,0,1,0,58.14c0,6.036,13.511,10.931,30.177,10.931V25.94Z" fill="#0072c6"/>
        <path d="M149.114,95.009h.414c16.665,0,30.177-4.891,30.177-10.929-2.7-16.676-2.093-36.661,0-58.14H149.114Z" fill="#0072c6"/>
        <path d="M179.705,25.94c0,6.036-13.512,10.929-30.177,10.929s-30.177-4.893-30.177-10.929,13.511-10.929,30.177-10.929S179.705,19.9,179.705,25.94" fill="#fff"/>
        <path d="M173.535,25.31c0,3.985-10.748,7.212-24.007,7.212S125.519,29.3,125.519,25.31s10.75-7.211,24.009-7.211,24.007,3.228,24.007,7.211" fill="#7fba00"/>
        <path d="M168.505,29.717c3.143-1.219,5.032-2.745,5.032-4.4,0-3.985-10.749-7.213-24.009-7.213s-24.008,3.228-24.008,7.213c0,1.658,1.889,3.184,5.032,4.4,4.389-1.7,11.248-2.8,18.976-2.8s14.585,1.1,18.977,2.8" fill="#b8d432"/>
        <path d="M139.943,66.3a4.957,4.957,0,0,1-1.966,4.2,8.811,8.811,0,0,1-5.43,1.487,10.339,10.339,0,0,1-4.929-1.062V66.669a7.6,7.6,0,0,0,5.033,1.94,3.425,3.425,0,0,0,2.053-.531,1.663,1.663,0,0,0,.725-1.409,1.97,1.97,0,0,0-.7-1.5,12.8,12.8,0,0,0-2.835-1.647q-4.356-2.043-4.357-5.578a5.035,5.035,0,0,1,1.9-4.11,7.753,7.753,0,0,1,5.046-1.547,12.615,12.615,0,0,1,4.623.731v3.97a7.541,7.541,0,0,0-4.383-1.328,3.245,3.245,0,0,0-1.951.523,1.651,1.651,0,0,0-.717,1.4,2,2,0,0,0,.578,1.481,9.364,9.364,0,0,0,2.37,1.428,11.747,11.747,0,0,1,3.806,2.563A4.773,4.773,0,0,1,139.943,66.3Z" fill="#fff"/>
        <path d="M160.434,62a10.859,10.859,0,0,1-1.528,5.83,8.153,8.153,0,0,1-4.3,3.467l5.524,5.113h-5.577l-3.944-4.423a9.24,9.24,0,0,1-4.576-1.341,8.4,8.4,0,0,1-3.148-3.419,10.5,10.5,0,0,1-1.109-4.842,11.315,11.315,0,0,1,1.2-5.279,8.534,8.534,0,0,1,3.379-3.566,9.877,9.877,0,0,1,4.995-1.248,9.189,9.189,0,0,1,4.708,1.209,8.244,8.244,0,0,1,3.226,3.439A10.872,10.872,0,0,1,160.434,62Zm-4.514.24a7.449,7.449,0,0,0-1.263-4.575,4.082,4.082,0,0,0-3.453-1.681,4.338,4.338,0,0,0-3.573,1.685,7.016,7.016,0,0,0-1.341,4.489,7,7,0,0,0,1.314,4.455,4.226,4.226,0,0,0,3.492,1.667,4.283,4.283,0,0,0,3.52-1.614A6.847,6.847,0,0,0,155.92,62.235Z" fill="#fff"/>
        <polygon points="174.923 71.651 163.582 71.651 163.582 52.607 167.871 52.607 167.871 68.172 174.923 68.172 174.923 71.651" fill="#fff"/>
        <path d="M148.463,95.01h.414c16.665,0,30.177-4.891,30.177-10.929-2.616-16.675-2.2-36.488,0-58.14H148.463Z" fill="#fff" opacity="0.15" style="isolation: isolate"/>
      </g>
    </g>
  </g>
</svg>
