<svg xmlns="http://www.w3.org/2000/svg" viewBox="0 0 298 110">
  <title>6 - db-lifecycle</title>
  <g id="background_blue" data-name="background blue">
    <rect x="0.022" y="-0.083" width="298" height="110" fill="#e4edf1"/>
  </g>
  <g id="Shapes">
    <g>
      <g>
        <path d="M142.385,15.483l-3.593,4.651,1.087.837,5.027-6.512-6.861-4.542-.757,1.143,4.686,3.1a41.854,41.854,0,0,0-34.953,38.376l1.368.086A40.478,40.478,0,0,1,142.385,15.483Z" fill="#acacac"/>
        <path d="M109.034,62.582l4.715,3.449.809-1.107-6.642-4.856-4.36,6.977,1.162.728,2.974-4.761a42.177,42.177,0,0,0,38.664,33.639l.085-1.367A40.769,40.769,0,0,1,109.034,62.582Z" fill="#acacac"/>
        <path d="M157.272,94.5l3.382-4.763-1.119-.793-4.761,6.71,7.039,4.261.711-1.172-4.843-2.931a41.578,41.578,0,0,0,33.307-38.039l-1.367-.087A40.216,40.216,0,0,1,157.272,94.5Z" fill="#acacac"/>
        <path d="M189,47.847l-4.706-3.464-.811,1.106,6.626,4.875,4.382-6.964-1.16-.731-2.989,4.753A42.148,42.148,0,0,0,151.654,13.66l-.086,1.367A40.744,40.744,0,0,1,189,47.847Z" fill="#acacac"/>
      </g>
      <g>
        <rect x="126.15" y="27.429" width="45.353" height="54.976" fill-opacity="0"/>
        <rect x="128.362" y="27.429" width="41.37" height="54.976" fill-opacity="0"/>
        <path d="M128.362,34.951V74.883c0,4.093,9.292,7.522,20.685,7.522V34.951Z" fill="#0072c6"/>
        <path d="M148.715,82.405h.332c11.5,0,20.685-3.318,20.685-7.522V34.951H148.715V82.405Z" fill="#0072c6"/>
        <path d="M148.715,82.405h.332c11.5,0,20.685-3.318,20.685-7.522V34.951H148.715V82.405Z" fill="#fff" opacity="0.15" style="isolation: isolate"/>
        <path d="M169.732,34.951c0,4.093-9.291,7.522-20.685,7.522s-20.685-3.319-20.685-7.522c0-4.093,9.292-7.522,20.685-7.522S169.732,30.858,169.732,34.951Z" fill="#fff"/>
        <path d="M165.529,34.619c0,2.655-7.411,4.867-16.482,4.867s-16.482-2.212-16.482-4.867c0-2.765,7.412-4.978,16.482-4.978S165.529,31.854,165.529,34.619Z" fill="#7fba00"/>
        <path d="M162.1,37.606c2.212-.885,3.429-1.881,3.429-2.987,0-2.765-7.411-4.978-16.482-4.978s-16.482,2.213-16.482,4.978c0,1.106,1.328,2.212,3.43,2.987,2.986-1.217,7.743-1.881,13.052-1.881A35.057,35.057,0,0,1,162.1,37.606Z" fill="#b8d432"/>
        <rect x="126.15" y="46.234" width="45.353" height="24.336" fill-opacity="0"/>
      </g>
    </g>
  </g>
</svg>
