<svg xmlns="http://www.w3.org/2000/svg" viewBox="0 0 298 110">
  <title>6 - db-mail</title>
  <g id="background_blue" data-name="background blue">
    <rect width="298" height="110" fill="#e4edf1"/>
  </g>
  <g id="Shapes">
    <g>
      <rect x="90.584" y="17.135" width="61.871" height="75" fill-opacity="0"/>
      <rect x="93.602" y="17.135" width="56.439" height="75" fill-opacity="0"/>
      <path d="M93.6,27.4V81.874c0,5.583,12.676,10.261,28.219,10.261V27.4Z" fill="#0072c6"/>
      <path d="M121.369,92.135h.452c15.694,0,28.22-4.527,28.22-10.261V27.4H121.369V92.135Z" fill="#0072c6"/>
      <path d="M121.369,92.135h.452c15.694,0,28.22-4.527,28.22-10.261V27.4H121.369V92.135Z" fill="#fff" opacity="0.15" style="isolation: isolate"/>
      <path d="M150.041,27.4c0,5.583-12.676,10.261-28.22,10.261S93.6,33.131,93.6,27.4c0-5.584,12.676-10.262,28.219-10.262S150.041,21.813,150.041,27.4Z" fill="#fff"/>
      <path d="M144.306,26.944c0,3.622-10.11,6.64-22.485,6.64s-22.485-3.018-22.485-6.64c0-3.772,10.111-6.791,22.485-6.791S144.306,23.172,144.306,26.944Z" fill="#7fba00"/>
      <path d="M139.628,31.019c3.018-1.208,4.678-2.566,4.678-4.075,0-3.772-10.11-6.791-22.485-6.791s-22.485,3.019-22.485,6.791c0,1.509,1.811,3.018,4.678,4.075,4.075-1.66,10.564-2.566,17.807-2.566C129.065,28.3,135.554,29.359,139.628,31.019Z" fill="#b8d432"/>
      <rect x="90.584" y="42.789" width="61.871" height="33.199" fill-opacity="0"/>
      <path d="M101.879,66.326V62.789a6.869,6.869,0,0,0,2.089,1.216,6.775,6.775,0,0,0,2.277.4,4.977,4.977,0,0,0,1.171-.121,2.8,2.8,0,0,0,.84-.332,1.516,1.516,0,0,0,.509-.509,1.3,1.3,0,0,0,.166-.641,1.376,1.376,0,0,0-.266-.829,2.845,2.845,0,0,0-.729-.674,7.352,7.352,0,0,0-1.083-.6q-.63-.287-1.36-.585a6.994,6.994,0,0,1-2.774-1.89,4.145,4.145,0,0,1-.906-2.7,4.121,4.121,0,0,1,1.845-3.592,6.036,6.036,0,0,1,1.99-.84,9.959,9.959,0,0,1,2.387-.277,13.769,13.769,0,0,1,2.189.155,8.421,8.421,0,0,1,1.768.453v3.305a5.231,5.231,0,0,0-.873-.486,6.179,6.179,0,0,0-.962-.343,6.771,6.771,0,0,0-.994-.21,6.926,6.926,0,0,0-.929-.066,4.664,4.664,0,0,0-1.1.121,2.737,2.737,0,0,0-.84.321,1.588,1.588,0,0,0-.53.508,1.16,1.16,0,0,0-.188.652,1.283,1.283,0,0,0,.21.719,2.547,2.547,0,0,0,.6.6,7.027,7.027,0,0,0,.94.552q.552.265,1.249.553a13.1,13.1,0,0,1,1.7.851,5.9,5.9,0,0,1,1.3,1.006A3.911,3.911,0,0,1,112.4,60.8a5.118,5.118,0,0,1-.221,3.913,4.1,4.1,0,0,1-1.36,1.458,5.968,5.968,0,0,1-2.011.8,11.52,11.52,0,0,1-2.409.243,13.458,13.458,0,0,1-2.487-.221A7.476,7.476,0,0,1,101.879,66.326ZM122,67.21A7.387,7.387,0,0,1,116.446,65a8,8,0,0,1-2.144-5.781,8.552,8.552,0,0,1,2.177-6.079,7.52,7.52,0,0,1,5.77-2.321,7.177,7.177,0,0,1,5.482,2.222,8.154,8.154,0,0,1,2.1,5.858,8.4,8.4,0,0,1-2.177,6.024c-.052.051-.1.1-.144.154s-.092.089-.144.133l4.012,3.857h-4.995l-2.1-2.133A8.907,8.907,0,0,1,122,67.21Zm.155-13.318a3.61,3.61,0,0,0-2.985,1.415,5.849,5.849,0,0,0-1.105,3.725,5.764,5.764,0,0,0,1.105,3.724,3.541,3.541,0,0,0,2.9,1.371A3.581,3.581,0,0,0,124.99,62.8a5.755,5.755,0,0,0,1.083-3.7,6.209,6.209,0,0,0-1.05-3.835A3.4,3.4,0,0,0,122.15,53.892Zm19.762,13.042h-9.439V51.085h3.57V64.038h5.869Z" fill="#fff"/>
    </g>
    <g>
      <path d="M202.166,41.919V67.352a1.271,1.271,0,0,1-1.234,1.271H163.979a1.272,1.272,0,0,1-1.234-1.271V41.919a1.224,1.224,0,0,1,.058-.375,1.186,1.186,0,0,1,.33-.541,1.158,1.158,0,0,1,.846-.356h36.953a1.242,1.242,0,0,1,1.183.948A.989.989,0,0,1,202.166,41.919Z" fill="#fff"/>
      <rect x="163.381" y="40.533" width="3.179" height="28.033" fill="#e5e5e5"/>
      <rect x="198.351" y="40.647" width="3.179" height="27.919" fill="#e5e5e5"/>
      <polygon points="163.381 40.647 182.456 52.728 201.53 40.647 163.381 40.647" fill="#50e6ff"/>
      <path d="M163.979,69.259a1.9,1.9,0,0,1-1.869-1.908V41.919a1.846,1.846,0,0,1,.086-.566,1.812,1.812,0,0,1,.5-.814,1.768,1.768,0,0,1,1.286-.527h36.947a1.879,1.879,0,0,1,1.8,1.433,1.527,1.527,0,0,1,.069.477v25.43a1.9,1.9,0,0,1-1.85,1.907Zm-.005-27.976a.527.527,0,0,0-.382.16.611.611,0,0,0-.178.276.656.656,0,0,0-.033.2V67.352a.634.634,0,0,0,.617.636h36.934a.629.629,0,0,0,.6-.635V41.914a.377.377,0,0,0-.019-.12.627.627,0,0,0-.59-.511H163.974Z" fill="#2e6ca4"/>
      <polygon points="182.456 53.469 163.054 41.828 163.709 40.738 182.456 51.987 201.203 40.738 201.857 41.828 182.456 53.469" fill="#2e6ca4"/>
    </g>
  </g>
</svg>
