<svg xmlns="http://www.w3.org/2000/svg" viewBox="0 0 298 110">
  <title>6 - db-tuning-advisor</title>
  <g id="background_blue" data-name="background blue">
    <rect width="298" height="110" fill="#e4edf1"/>
  </g>
  <g id="Shapes">
    <polygon points="233.38 52.808 200.98 52.808 217.166 23.226 217.18 23.247 233.38 52.808" fill="#ffb900"/>
    <polygon points="233.38 52.797 217.18 52.797 217.18 23.236 233.38 52.797" fill="#ffd055"/>
    <polygon points="216.546 45.765 218.236 45.765 218.8 30.269 215.982 30.269 216.546 45.765" fill="#556a8a"/>
    <circle cx="217.391" cy="38.017" r="1.69" fill="#556a8a"/>
    <g>
      <g>
        <path d="M96.631,43.024A15.965,15.965,0,1,1,80.667,27.059,15.964,15.964,0,0,1,96.631,43.024Z" fill="#bad80a"/>
        <path d="M96.631,43.024a15.963,15.963,0,0,1-4.8,11.4L69.267,31.859A15.964,15.964,0,0,1,96.656,43.024Z" fill="#c6df33"/>
        <path d="M78.671,50.757a1.247,1.247,0,0,1-.882-.365L71.8,44.405a1.247,1.247,0,1,1,1.764-1.764l5.105,5.105L89.763,36.654a1.247,1.247,0,1,1,1.764,1.764L79.553,50.392A1.247,1.247,0,0,1,78.671,50.757Z" fill="#71839d"/>
      </g>
      <path d="M80.814,69.664a26.751,26.751,0,0,1-19.207-45.39l.511-.505a26.626,26.626,0,0,1,37.343.5h0A26.624,26.624,0,0,1,99.968,61.6l-.5.511A26.706,26.706,0,0,1,80.814,69.664Zm-.276-51.883a25.284,25.284,0,0,0-17.442,7l-.489.484A25.356,25.356,0,0,0,98.473,61.109l.482-.489a25.219,25.219,0,0,0-.49-35.358h0A25.272,25.272,0,0,0,80.538,17.781Z" fill="#2e6ca4"/>
    </g>
    <path d="M217.176,69.812a26.767,26.767,0,0,1-18.927-45.694l.5-.5A26.772,26.772,0,0,1,236.61,61.458l-.5.511A26.6,26.6,0,0,1,217.176,69.812Zm0-52.18a25.286,25.286,0,0,0-17.442,7l-.489.483a25.358,25.358,0,0,0,35.865,35.858l.49-.5a25.219,25.219,0,0,0-.49-35.358h0A25.274,25.274,0,0,0,217.173,17.632Z" fill="#2e6ca4"/>
    <g>
      <rect x="118.915" y="19.543" width="61.871" height="75" fill-opacity="0"/>
      <rect x="121.933" y="19.543" width="56.439" height="75" fill-opacity="0"/>
      <path d="M121.933,29.805V84.282c0,5.583,12.676,10.261,28.219,10.261V29.805Z" fill="#0072c6"/>
      <path d="M149.7,94.543h.453c15.694,0,28.219-4.527,28.219-10.261V29.805H149.7V94.543Z" fill="#0072c6"/>
      <path d="M149.7,94.543h.453c15.694,0,28.219-4.527,28.219-10.261V29.805H149.7V94.543Z" fill="#fff" opacity="0.15" style="isolation: isolate"/>
      <path d="M178.371,29.805c0,5.583-12.676,10.261-28.219,10.261s-28.219-4.527-28.219-10.261c0-5.584,12.676-10.262,28.219-10.262S178.371,24.221,178.371,29.805Z" fill="#fff"/>
      <path d="M172.637,29.352c0,3.622-10.111,6.64-22.485,6.64s-22.485-3.018-22.485-6.64c0-3.773,10.111-6.791,22.485-6.791S172.637,25.579,172.637,29.352Z" fill="#7fba00"/>
      <path d="M167.959,33.426c3.018-1.207,4.678-2.565,4.678-4.074,0-3.773-10.111-6.791-22.485-6.791s-22.485,3.018-22.485,6.791c0,1.509,1.811,3.018,4.678,4.074,4.075-1.66,10.564-2.565,17.807-2.565C157.4,30.71,163.884,31.766,167.959,33.426Z" fill="#b8d432"/>
      <rect x="118.915" y="45.197" width="61.871" height="33.199" fill-opacity="0"/>
      <path d="M130.21,68.734V65.2a6.889,6.889,0,0,0,2.089,1.216,6.8,6.8,0,0,0,2.276.4,4.976,4.976,0,0,0,1.172-.122,2.772,2.772,0,0,0,.84-.331,1.521,1.521,0,0,0,.508-.509,1.293,1.293,0,0,0,.166-.641,1.373,1.373,0,0,0-.265-.829,2.816,2.816,0,0,0-.73-.674,7.352,7.352,0,0,0-1.083-.6q-.63-.286-1.359-.586a6.966,6.966,0,0,1-2.774-1.89,4.137,4.137,0,0,1-.907-2.7,4.128,4.128,0,0,1,1.846-3.593,6.057,6.057,0,0,1,1.99-.84,10,10,0,0,1,2.387-.276,13.756,13.756,0,0,1,2.188.155,8.431,8.431,0,0,1,1.769.453V57.14a5.307,5.307,0,0,0-.873-.487,6.175,6.175,0,0,0-.962-.342,6.757,6.757,0,0,0-1-.21,6.907,6.907,0,0,0-.928-.067,4.656,4.656,0,0,0-1.1.122,2.737,2.737,0,0,0-.84.321,1.591,1.591,0,0,0-.531.508,1.168,1.168,0,0,0-.188.652,1.286,1.286,0,0,0,.21.719,2.531,2.531,0,0,0,.6.6,6.919,6.919,0,0,0,.94.553q.552.265,1.249.553a13.1,13.1,0,0,1,1.7.851,5.894,5.894,0,0,1,1.3,1.005,3.932,3.932,0,0,1,.829,1.294,5.116,5.116,0,0,1-.221,3.912,4.1,4.1,0,0,1-1.36,1.459,5.968,5.968,0,0,1-2.011.8,11.523,11.523,0,0,1-2.41.243,13.473,13.473,0,0,1-2.487-.221A7.457,7.457,0,0,1,130.21,68.734Zm20.115.884a7.389,7.389,0,0,1-5.548-2.21,8,8,0,0,1-2.144-5.781,8.552,8.552,0,0,1,2.177-6.079,7.519,7.519,0,0,1,5.77-2.321,7.177,7.177,0,0,1,5.482,2.222,8.152,8.152,0,0,1,2.1,5.858,8.4,8.4,0,0,1-2.178,6.023c-.051.052-.1.1-.143.155s-.092.088-.144.133l4.012,3.857h-5l-2.1-2.133A8.9,8.9,0,0,1,150.325,69.618ZM150.48,56.3a3.607,3.607,0,0,0-2.984,1.414,5.853,5.853,0,0,0-1.105,3.725,5.767,5.767,0,0,0,1.105,3.725,3.54,3.54,0,0,0,2.9,1.37,3.584,3.584,0,0,0,2.929-1.326,5.755,5.755,0,0,0,1.083-3.7,6.212,6.212,0,0,0-1.05-3.836A3.407,3.407,0,0,0,150.48,56.3Zm19.762,13.042H160.8V53.492h3.57V66.446h5.869Z" fill="#fff"/>
    </g>
  </g>
</svg>
