<svg xmlns="http://www.w3.org/2000/svg" viewBox="0 0 298 110">
  <title>6 - distributed-replay</title>
  <g id="background_blue" data-name="background blue">
    <rect x="-0.026" y="-0.08" width="298" height="110" fill="#e4edf1"/>
  </g>
  <g id="Shapes">
    <g>
      <path d="M148.974,13.836A41.084,41.084,0,1,0,190.057,54.92,41.084,41.084,0,0,0,148.974,13.836Z" fill="#fcfcfc"/>
      <path d="M191.474,54.92a42.5,42.5,0,0,1-34.737,41.791H141.154a42.5,42.5,0,0,1-34.68-41.791v-.709h85Z" fill="#e5e5e5"/>
      <path d="M148.974,13.836A41.084,41.084,0,1,0,190.057,54.92,41.084,41.084,0,0,0,148.974,13.836Z" fill="none" stroke="#2e6ca4" stroke-miterlimit="10" stroke-width="2"/>
      <path d="M148.265,83.607a30.866,30.866,0,0,1-15.073-3.9,31.623,31.623,0,0,1-6.276-4.618,30.357,30.357,0,0,1-5-6.162l-.651-1.063v8.118h-3.1V61.479h14.521v3.1h-9.619l.255.51a27.713,27.713,0,0,0,4.406,6.361,28.075,28.075,0,0,0,5.893,4.845,28.984,28.984,0,0,0,6.97,3.1,27.078,27.078,0,0,0,7.678,1.1A27.824,27.824,0,0,0,174.913,61l2.961.921a29.932,29.932,0,0,1-4.25,8.613A31.335,31.335,0,0,1,158.14,82.006,30.529,30.529,0,0,1,148.265,83.607Z" fill="#2bc7f4"/>
      <path d="M118.671,51.378a30.3,30.3,0,0,1,4.25-8.6A31.254,31.254,0,0,1,138.405,31.29a30.547,30.547,0,0,1,9.832-1.6,30.864,30.864,0,0,1,15.073,3.9,31.565,31.565,0,0,1,6.276,4.618,30.3,30.3,0,0,1,5,6.163l.652,1.062V37.353h3.1V51.874H163.849v-3.1h9.619l-.255-.51a27.817,27.817,0,0,0-4.406-6.375,28.225,28.225,0,0,0-5.893-4.845,28.96,28.96,0,0,0-6.97-3.1,27.079,27.079,0,0,0-7.679-1.1,27.823,27.823,0,0,0-26.647,19.522Z" fill="#2bc7f4"/>
    </g>
  </g>
</svg>
