<svg xmlns="http://www.w3.org/2000/svg" xmlns:xlink="http://www.w3.org/1999/xlink" viewBox="0 0 298 110">
  <defs>
    <clipPath id="clip-path">
      <path d="M262.971,91.915H91.329s31.32-9.032,45.382-23.561c26.457-27.312,56.307-22.729,74.019-2.294S262.971,91.915,262.971,91.915Z" fill="none"/>
    </clipPath>
    <clipPath id="clip-path-2">
      <path d="M104.451,42.7c13.622-9.537,26.38-14.7,42.73,10.266S217.589,90.2,232.546,91.11s-128.734.805-128.734.805Z" fill="none"/>
    </clipPath>
  </defs>
  <title>6 - extended-events</title>
  <g id="background_blue" data-name="background blue">
    <rect x="-0.226" y="0.5" width="298" height="110" fill="#e4edf1"/>
  </g>
  <g id="Shapes">
    <path d="M237.781,55.992a17.125,17.125,0,0,0-16.849-15.941,16.861,16.861,0,0,0-15.047,9.479,16.88,16.88,0,0,0-8.987-2.557A17.449,17.449,0,0,0,180.177,60.1,15.9,15.9,0,0,0,168.594,89.64a15.082,15.082,0,0,0,4.948,1.387l.4.038c2.288.2,5.433.236,10.17.236h51.378a14.2,14.2,0,0,0,3.33-.4,17.793,17.793,0,0,0-1.035-34.913Z" fill="#c8edfb"/>
    <g>
      <g clip-path="url(#clip-path)">
        <g>
          <line x1="112.441" y1="91.276" x2="112.441" y2="29.913" fill="none" stroke="#bad80a" stroke-miterlimit="10" stroke-width="3"/>
          <line x1="120.112" y1="91.276" x2="120.112" y2="29.913" fill="none" stroke="#bad80a" stroke-miterlimit="10" stroke-width="3"/>
          <line x1="127.782" y1="91.276" x2="127.782" y2="29.913" fill="none" stroke="#bad80a" stroke-miterlimit="10" stroke-width="3"/>
          <line x1="135.452" y1="91.276" x2="135.452" y2="29.913" fill="none" stroke="#bad80a" stroke-miterlimit="10" stroke-width="3"/>
          <line x1="143.123" y1="91.276" x2="143.123" y2="29.913" fill="none" stroke="#bad80a" stroke-miterlimit="10" stroke-width="3"/>
          <line x1="150.793" y1="91.276" x2="150.793" y2="29.913" fill="none" stroke="#bad80a" stroke-miterlimit="10" stroke-width="3"/>
          <line x1="158.463" y1="91.276" x2="158.463" y2="29.913" fill="none" stroke="#bad80a" stroke-miterlimit="10" stroke-width="3"/>
          <line x1="166.134" y1="91.276" x2="166.134" y2="29.913" fill="none" stroke="#bad80a" stroke-miterlimit="10" stroke-width="3"/>
          <line x1="173.804" y1="91.276" x2="173.804" y2="29.913" fill="none" stroke="#bad80a" stroke-miterlimit="10" stroke-width="3"/>
          <line x1="181.474" y1="91.276" x2="181.474" y2="29.913" fill="none" stroke="#bad80a" stroke-miterlimit="10" stroke-width="3"/>
          <line x1="189.145" y1="91.276" x2="189.145" y2="29.913" fill="none" stroke="#bad80a" stroke-miterlimit="10" stroke-width="3"/>
          <line x1="196.815" y1="91.276" x2="196.815" y2="29.913" fill="none" stroke="#bad80a" stroke-miterlimit="10" stroke-width="3"/>
          <line x1="204.485" y1="91.276" x2="204.485" y2="29.913" fill="none" stroke="#bad80a" stroke-miterlimit="10" stroke-width="3"/>
          <line x1="212.156" y1="91.276" x2="212.156" y2="29.913" fill="none" stroke="#bad80a" stroke-miterlimit="10" stroke-width="3"/>
          <line x1="219.826" y1="91.276" x2="219.826" y2="29.913" fill="none" stroke="#bad80a" stroke-miterlimit="10" stroke-width="3"/>
          <line x1="227.496" y1="91.276" x2="227.496" y2="29.913" fill="none" stroke="#bad80a" stroke-miterlimit="10" stroke-width="3"/>
          <line x1="235.167" y1="91.276" x2="235.167" y2="29.913" fill="none" stroke="#bad80a" stroke-miterlimit="10" stroke-width="3"/>
        </g>
      </g>
      <g clip-path="url(#clip-path-2)">
        <g>
          <rect x="108.926" y="29.913" width="1.918" height="61.363" fill="#2e6ca4"/>
          <rect x="116.596" y="29.913" width="1.918" height="61.363" fill="#2e6ca4"/>
          <rect x="124.266" y="29.913" width="1.918" height="61.363" fill="#2e6ca4"/>
          <rect x="131.937" y="29.913" width="1.918" height="61.363" fill="#556a8a" stroke="#2e6ca4" stroke-miterlimit="10"/>
          <rect x="139.607" y="29.913" width="1.918" height="61.363" fill="#556a8a" stroke="#2e6ca4" stroke-miterlimit="10"/>
          <rect x="147.277" y="29.913" width="1.918" height="61.363" fill="#556a8a" stroke="#2e6ca4" stroke-miterlimit="10"/>
          <rect x="154.948" y="29.913" width="1.918" height="61.363" fill="#556a8a" stroke="#2e6ca4" stroke-miterlimit="10"/>
          <rect x="162.618" y="29.913" width="1.918" height="61.363" fill="#556a8a" stroke="#2e6ca4" stroke-miterlimit="10"/>
          <rect x="170.288" y="29.913" width="1.918" height="61.363" fill="#556a8a" stroke="#2e6ca4" stroke-miterlimit="10"/>
          <rect x="177.959" y="29.913" width="1.918" height="61.363" fill="#556a8a" stroke="#2e6ca4" stroke-miterlimit="10"/>
          <rect x="185.629" y="29.913" width="1.918" height="61.363" fill="#556a8a" stroke="#2e6ca4" stroke-miterlimit="10"/>
          <rect x="193.299" y="29.913" width="1.918" height="61.363" fill="#556a8a" stroke="#2e6ca4" stroke-miterlimit="10"/>
          <rect x="200.97" y="29.913" width="1.918" height="61.363" fill="#556a8a" stroke="#2e6ca4" stroke-miterlimit="10"/>
          <rect x="208.64" y="29.913" width="1.918" height="61.363" fill="#556a8a" stroke="#2e6ca4" stroke-miterlimit="10"/>
          <rect x="216.31" y="29.913" width="1.918" height="61.363" fill="#556a8a"/>
          <rect x="223.981" y="29.913" width="1.918" height="61.363" fill="#556a8a"/>
          <rect x="231.651" y="29.913" width="1.918" height="61.363" fill="#333"/>
        </g>
      </g>
    </g>
    <path d="M221.3,66.4a.786.786,0,0,0,.735.537l1.643-.051a.843.843,0,0,0,.671-.856l.1-2.02a1.169,1.169,0,0,1,.812-1.227c.262-.243.639-.352.914-.588a1.412,1.412,0,0,1,1.381.185L229.4,63.6a.957.957,0,0,0,.888-.09l1.2-1.336a.875.875,0,0,0-.205-1.022l-1.444-1.586a1.028,1.028,0,0,1-.2-1.278l-.122-.134a1.371,1.371,0,0,0,.422-.863c0-.505.3-1,1.189-1.087l1.917-.294a1,1,0,0,0,.64-.856l-.115-1.758a.639.639,0,0,0-.727-.538h-.009l-2.019-.089a1.2,1.2,0,0,1-1.228-.812c-.243-.262-.351-.639-.588-.914a2.028,2.028,0,0,1,.071-1.515l1.214-1.592a.913.913,0,0,0-.077-1.144l-1.348-.946a.768.768,0,0,0-1.042-.045l-1.464,1.579a1.278,1.278,0,0,1-1.406.313,3.915,3.915,0,0,0-1-.3l-.122-.134a1.331,1.331,0,0,1-.965-1.055l-.275-2.129a.778.778,0,0,0-.735-.536l-1.777.172a.639.639,0,0,0-.538.726v.009l-.223,2.142c-.032.754-.3,1-.684,1.105-.262.243-.64.352-.914.595a1.329,1.329,0,0,1-1.515-.071L214.5,46.775a.985.985,0,0,0-1.023.2l-1.2,1.336a1.115,1.115,0,0,0,.2,1.022l1.445,1.586c.479.53.588.914.191,1.278,0,.256-.153.639-.179,1.131-.147.371-.287.748-1.176.831l-2.039.416a.785.785,0,0,0-.543.735l.173,1.777a.805.805,0,0,0,.6.639H213.1c.754.032,1,.3,1.1.684a11.422,11.422,0,0,1,.576,1.163,1.133,1.133,0,0,1,.064,1.394L213.5,62.685a.977.977,0,0,0,.205,1.022l1.214,1.068a.768.768,0,0,0,1.01.045l1.464-1.579a1.278,1.278,0,0,1,1.406-.313l1.119.428c.5,0,.748.287.965,1.055l.409,2.039m4.96-11.506a4.474,4.474,0,0,1-4.008,4.628,4.121,4.121,0,0,1-4.621-4.091,4.244,4.244,0,0,1,3.874-4.474,4.294,4.294,0,0,1,4.75,3.786l0,.049" fill="#2e6ca4"/>
    <g>
      <rect x="38.962" y="19.365" width="61.871" height="75" fill-opacity="0"/>
      <rect x="41.98" y="19.365" width="56.439" height="75" fill-opacity="0"/>
      <path d="M41.98,29.627V84.1c0,5.583,12.676,10.261,28.22,10.261V29.627Z" fill="#0072c6"/>
      <path d="M69.747,94.365H70.2c15.694,0,28.219-4.527,28.219-10.261V29.627H69.747V94.365Z" fill="#0072c6"/>
      <path d="M69.747,94.365H70.2c15.694,0,28.219-4.527,28.219-10.261V29.627H69.747V94.365Z" fill="#fff" opacity="0.15" style="isolation: isolate"/>
      <path d="M98.419,29.627c0,5.583-12.676,10.261-28.219,10.261S41.98,35.361,41.98,29.627c0-5.584,12.676-10.262,28.22-10.262S98.419,24.043,98.419,29.627Z" fill="#fff"/>
      <path d="M92.685,29.174c0,3.622-10.111,6.64-22.485,6.64S47.715,32.8,47.715,29.174c0-3.773,10.11-6.791,22.485-6.791S92.685,25.4,92.685,29.174Z" fill="#7fba00"/>
      <path d="M88.007,33.249c3.018-1.208,4.678-2.566,4.678-4.075,0-3.773-10.111-6.791-22.485-6.791S47.715,25.4,47.715,29.174c0,1.509,1.811,3.018,4.678,4.075,4.074-1.66,10.563-2.566,17.807-2.566C77.443,30.532,83.932,31.589,88.007,33.249Z" fill="#b8d432"/>
      <rect x="38.962" y="45.019" width="61.871" height="33.199" fill-opacity="0"/>
      <path d="M50.257,68.556V65.019a6.9,6.9,0,0,0,2.089,1.216,6.809,6.809,0,0,0,2.277.4,4.982,4.982,0,0,0,1.172-.122,2.772,2.772,0,0,0,.84-.331,1.521,1.521,0,0,0,.508-.509,1.293,1.293,0,0,0,.166-.641,1.382,1.382,0,0,0-.265-.829,2.834,2.834,0,0,0-.73-.674,7.352,7.352,0,0,0-1.083-.6q-.63-.287-1.359-.585A6.989,6.989,0,0,1,51.1,60.454a4.142,4.142,0,0,1-.906-2.7,4.118,4.118,0,0,1,1.846-3.592,6.019,6.019,0,0,1,1.989-.84,9.967,9.967,0,0,1,2.388-.277A13.765,13.765,0,0,1,58.6,53.2a8.4,8.4,0,0,1,1.768.453v3.305a5.231,5.231,0,0,0-.873-.486,6.167,6.167,0,0,0-.961-.343,6.784,6.784,0,0,0-1-.21,6.912,6.912,0,0,0-.928-.066,4.667,4.667,0,0,0-1.106.121,2.757,2.757,0,0,0-.84.321,1.6,1.6,0,0,0-.53.508,1.168,1.168,0,0,0-.188.652,1.286,1.286,0,0,0,.21.719,2.531,2.531,0,0,0,.6.6,6.965,6.965,0,0,0,.939.553q.553.266,1.249.553a13.035,13.035,0,0,1,1.7.851,5.874,5.874,0,0,1,1.3,1.006,3.9,3.9,0,0,1,.829,1.293,5.1,5.1,0,0,1-.221,3.912A4.079,4.079,0,0,1,59.2,68.4a5.973,5.973,0,0,1-2.012.8,11.52,11.52,0,0,1-2.409.243,13.458,13.458,0,0,1-2.487-.221A7.476,7.476,0,0,1,50.257,68.556Zm20.116.884a7.389,7.389,0,0,1-5.548-2.21,8,8,0,0,1-2.144-5.781,8.548,8.548,0,0,1,2.177-6.079,7.517,7.517,0,0,1,5.769-2.321,7.176,7.176,0,0,1,5.482,2.222,8.152,8.152,0,0,1,2.1,5.858,8.4,8.4,0,0,1-2.177,6.023c-.051.052-.1.1-.144.155s-.092.089-.143.133L79.757,71.3h-5l-2.1-2.133A8.9,8.9,0,0,1,70.373,69.44Zm.155-13.318a3.605,3.605,0,0,0-2.984,1.415,5.848,5.848,0,0,0-1.106,3.724,5.767,5.767,0,0,0,1.106,3.725,3.539,3.539,0,0,0,2.895,1.371,3.581,3.581,0,0,0,2.929-1.327,5.755,5.755,0,0,0,1.084-3.7,6.219,6.219,0,0,0-1.05-3.836A3.407,3.407,0,0,0,70.528,56.122ZM90.29,69.164H80.851V53.315h3.57V66.268H90.29Z" fill="#fff"/>
    </g>
  </g>
</svg>
