<svg xmlns="http://www.w3.org/2000/svg" viewBox="0 0 298 110">
  <title>6 - indexes</title>
  <g id="background_blue" data-name="background blue">
    <rect width="298" height="110" fill="#e4edf1"/>
  </g>
  <g id="Shapes">
    <path d="M126.163,37.676c-.806-10.045-8.654-17.949-18.224-17.949A18.167,18.167,0,0,0,91.666,30.405,17.716,17.716,0,0,0,81.945,27.5c-8.631,0-15.9,6.268-18.091,14.787A16.556,16.556,0,0,0,58.6,41.43c-9.484,0-17.189,8.014-17.189,17.9a17.962,17.962,0,0,0,9.918,16.217,15.824,15.824,0,0,0,5.351,1.581l.435.039a99.388,99.388,0,0,0,11,.7h55.607a15.333,15.333,0,0,0,3.6-.885c8.544-1.771,15.016-9.848,15.016-19.545C142.326,47.294,135.284,38.932,126.163,37.676Z" fill="#55d2f6" opacity="0.8" style="isolation: isolate"/>
    <rect x="178.467" y="20.063" width="50.498" height="45.18" fill="none"/>
    <g>
      <path d="M211.68,76.043l-.043-1.3h.043Zm-1.993,0h-1.95v-1.3h1.95Zm-3.9,0h-1.95v-1.3h1.95Zm-3.9,0h-1.949v-1.3h1.949Zm-3.9,0h-1.95v-1.3h1.95Zm-3.9,0H192.14v-1.3h1.949Zm-3.9,0h-1.95v-1.3h1.95Zm-3.9,0h-1.95v-1.3h1.95Zm-3.9,0h-1.949v-1.3h1.949Zm-3.9,0h-1.95v-1.3h1.95Zm-3.9,0h-1.949v-1.3h1.949Zm-3.9,0h-1.95v-1.3h1.95Zm-3.9,0h-1.95v-1.3h1.95Zm-3.9,0h-1.95v-1.3h1.95Zm-3.9,0h-1.95v-1.3H159Zm-3.9,0h-1.949v-1.3H155.1Zm-3.9,0h-1.95v-1.3h1.95Zm-3.9,0h-1.949v-1.3H147.3Zm-3.9,0h-1.95v-1.3h1.95Zm-3.9,0h-1.95v-1.3h1.95Zm-3.9,0h-1.949v-1.3H135.6Zm-3.9,0h-1.95v-1.3h1.95Zm-3.9,0H125.85v-1.3H127.8ZM123.866,76c-.663-.036-1.332-.1-1.989-.179l.164-1.29c.625.08,1.262.137,1.893.171Zm-3.959-.5c-.655-.134-1.308-.294-1.943-.477l.359-1.249c.6.173,1.223.325,1.844.453Zm-3.845-1.109c-.631-.24-1.251-.506-1.842-.792l.566-1.17c.557.269,1.142.521,1.739.748Zm-3.609-1.751a19.207,19.207,0,0,1-1.668-1.133l.785-1.035a18.233,18.233,0,0,0,1.557,1.057Zm-3.207-2.45a15.28,15.28,0,0,1-1.369-1.5l1.018-.808a14.015,14.015,0,0,0,1.254,1.377Zm-2.517-3.2a12.137,12.137,0,0,1-.866-1.867l1.223-.442a10.758,10.758,0,0,0,.772,1.664Zm-1.386-3.867a10.728,10.728,0,0,1-.137-1.7c0-.121,0-.242.007-.362l1.3.044c0,.106,0,.212,0,.318a9.555,9.555,0,0,0,.12,1.5Zm1.406-3.827-1.266-.291a11.257,11.257,0,0,1,.646-1.959l1.193.516A10.087,10.087,0,0,0,106.749,59.3Zm1.443-3.354-1.092-.7a14.078,14.078,0,0,1,1.232-1.629l.978.856A12.9,12.9,0,0,0,108.192,55.943Zm2.436-2.8-.862-.973a17.787,17.787,0,0,1,1.588-1.251l.746,1.063A16.648,16.648,0,0,0,110.628,53.144Zm3.068-2.163-.637-1.132c.571-.322,1.175-.625,1.8-.9l.529,1.187C114.8,50.4,114.232,50.68,113.7,50.981Zm3.449-1.54-.424-1.229c.624-.216,1.269-.41,1.916-.577l.325,1.259C118.349,49.052,117.737,49.236,117.145,49.441Zm3.672-.95-.226-1.28c.652-.115,1.317-.207,1.979-.274l.13,1.293C122.071,48.294,121.437,48.382,120.817,48.491Zm3.781-.383-.037-1.3c.264-.007.527-.011.792-.011h1.177v1.3h-1.177Q124.975,48.1,124.6,48.108Zm52.624-.011h-1.95V46.8h1.95Zm-3.9,0h-1.949V46.8h1.949Zm-3.9,0h-1.95V46.8h1.95Zm-3.9,0h-1.95V46.8h1.95Zm-3.9,0h-1.95V46.8h1.95Zm-3.9,0h-1.95V46.8h1.95Zm-3.9,0h-1.949V46.8h1.949Zm-3.9,0h-1.95V46.8h1.95Zm-3.9,0h-1.95V46.8h1.95Zm-3.9,0h-1.95V46.8h1.95Zm-3.9,0h-1.95V46.8h1.95Zm-3.9,0h-1.949V46.8h1.949Zm-3.9,0H128.48V46.8h1.949Zm48.776-.032-.068-1.3c.629-.034,1.261-.1,1.881-.184l.184,1.286C180.545,47.964,179.873,48.029,179.205,48.065Zm3.971-.57-.3-1.265c.612-.145,1.223-.321,1.816-.521l.415,1.232C184.475,47.154,183.826,47.34,183.176,47.5Zm3.8-1.284-.528-1.188c.573-.255,1.14-.541,1.685-.849l.64,1.132C188.194,45.634,187.59,45.939,186.978,46.211Zm3.5-1.98-.746-1.064a18.231,18.231,0,0,0,1.483-1.159l.852.982A19.47,19.47,0,0,1,190.474,44.231Zm3.042-2.641-.951-.886a17.129,17.129,0,0,0,1.2-1.441l1.042.777A18.474,18.474,0,0,1,193.516,41.59Zm2.408-3.237L194.8,37.7a15.416,15.416,0,0,0,.84-1.669l1.194.512A16.734,16.734,0,0,1,195.924,38.353Zm1.594-3.719-1.249-.361a14.5,14.5,0,0,0,.4-1.82l1.285.2A16,16,0,0,1,197.518,34.634Zm.619-4.006-1.3-.032c0-.124,0-.247,0-.371a14.651,14.651,0,0,0-.077-1.493l1.293-.132a15.79,15.79,0,0,1,.083,1.625C198.142,30.359,198.141,30.494,198.137,30.628Zm-1.68-3.734a15.029,15.029,0,0,0-.54-1.786l1.218-.453a16.184,16.184,0,0,1,.587,1.942Zm-1.3-3.493a16.245,16.245,0,0,0-.959-1.609l1.076-.728a17.508,17.508,0,0,1,1.037,1.738Zm-2.1-3.1a17.8,17.8,0,0,0-1.3-1.36l.891-.945a18.57,18.57,0,0,1,1.393,1.461Zm-2.73-2.577c-.5-.38-1.02-.74-1.553-1.069l.683-1.106c.569.352,1.127.736,1.658,1.141Zm-3.2-1.981c-.559-.275-1.142-.528-1.731-.751l.461-1.216c.627.238,1.248.507,1.844.8ZM183.6,14.405c-.6-.166-1.222-.307-1.841-.419l.23-1.279c.658.118,1.316.268,1.958.446Zm-3.715-.67c-.625-.055-1.261-.083-1.89-.083v-1.3c.668,0,1.342.03,2,.089Zm-3.839-.083H174.1v-1.3h1.95Zm-3.9,0H170.2v-1.3h1.949Zm-3.9,0H166.3v-1.3h1.95Zm-3.9,0H162.4v-1.3h1.95Zm-3.9,0H158.5v-1.3h1.95Zm-3.9,0H154.6v-1.3h1.95Zm-3.9,0H150.7v-1.3h1.949Zm-3.9,0H146.8v-1.3h1.95Zm-3.9,0H142.9v-1.3h1.949Zm-3.9,0H139v-1.3h1.95Zm-3.9,0H135.1v-1.3h1.95Zm-3.9,0H131.2v-1.3h1.949Zm-3.9,0H127.3v-1.3h1.95Zm-3.9,0H123.4v-1.3h1.949Z" fill="#2e6ca4"/>
      <polygon points="207.371 80.709 206.487 79.76 211.179 75.393 206.487 71.032 207.371 70.076 213.09 75.393 207.371 80.709" fill="#2e6ca4"/>
    </g>
    <g>
      <path d="M177.335,42.827l.381-2.394a1.345,1.345,0,0,1,.878-1.252c.942-.176,2.341-.463,2.709,0L183,40.6a.888.888,0,0,0,1.17.1l1.264-1.287c.234-.275.287-.392.111-.72l-.667-1.13-.638-1.006c-.585-.884,1.054-3.67,1.622-3.682H188.2a.878.878,0,0,0,.714-.848l.035-1.756a1.072,1.072,0,0,0-.673-.913l-2.341-.2a1.229,1.229,0,0,1-1.054-1.047c-.2-.434-.784-2.1-.246-2.728l1.616-1.72a.88.88,0,0,0-.082-.972l-1.294-1.51a.9.9,0,0,0-1-.111L182.023,22.4c-.708.662-1.17.527-1.539.334-1.645-.474-1.867-1.019-1.931-1.8l-.2-2.341a1.215,1.215,0,0,0-.679-.919h-1.984a1.078,1.078,0,0,0-.925.667l-.2,2.371a1.448,1.448,0,0,1-1.065,1.276c-.387.04-1.692.848-2.546.035l-1.879-1.382h0a.686.686,0,0,0-.96-.117l-1.3,1.171-.158.146a.866.866,0,0,0-.117.989l1.545,1.8c.34.445.152,1.756.152,1.756-.251,1.791-1.235,1.914-1.814,1.925h-2.341a.878.878,0,0,0-.714.849l-.234,1.791a1,1,0,0,0,.854.907l2.177.2a2.208,2.208,0,0,1,1.311,1.036c.036.374.258.743.293,1.135a1.322,1.322,0,0,1-.252,1.6l-1.434,1.7-.04.03a.685.685,0,0,0-.077.959l1.311,1.458a1.083,1.083,0,0,0,1.171.093l1.65-1.334c.714-.638,2.763.374,2.763.374a1.118,1.118,0,0,1,.895,1.136l.229,2.306c.041.585.468.948.673.925C174.643,43.471,177.054,43.787,177.335,42.827Zm2.634-9.587a4.46,4.46,0,0,1-.72.808,4.735,4.735,0,0,1-6.59-.2h0l-.076-.094a4.752,4.752,0,0,1,.474-6.631s0-.029.047-.035a4.518,4.518,0,0,1,6.35.252c.1.1.2.21.3.316a4.577,4.577,0,0,1,.217,5.6Z" fill="#fff"/>
      <g opacity="0.4">
        <path d="M177.335,42.827l.381-2.394a1.345,1.345,0,0,1,.878-1.252c.942-.176,2.341-.463,2.709,0L183,40.6a.888.888,0,0,0,1.17.1l1.264-1.287c.234-.275.287-.392.111-.72l-.667-1.13-4.9-4.313a4.46,4.46,0,0,1-.726.8,4.735,4.735,0,0,1-6.59-.2h0l-.076-.094a4.752,4.752,0,0,1,.474-6.631s0-.029.047-.035L166.8,21.664l-.158.146a.864.864,0,0,0-.117.989l1.545,1.8c.339.444.152,1.755.152,1.755-.252,1.791-1.235,1.914-1.814,1.926h-2.342a.879.879,0,0,0-.714.849l-.234,1.79a1,1,0,0,0,.855.908l2.177.2a2.207,2.207,0,0,1,1.311,1.036c.035.374.258.743.293,1.135a1.323,1.323,0,0,1-.252,1.6l-1.434,1.7-.041.029a.685.685,0,0,0-.076.96l1.311,1.457a1.083,1.083,0,0,0,1.171.094l1.673-1.3c.714-.638,2.763.374,2.763.374a1.118,1.118,0,0,1,.895,1.136l.229,2.306c.041.585.468.948.673.925C174.643,43.471,177.054,43.787,177.335,42.827Z" fill="#868787"/>
      </g>
      <path d="M175.535,44.1a7.681,7.681,0,0,1-.948-.061,1.514,1.514,0,0,1-1.207-1.468l-.2-2.206c-.378-.469-2.263-1.352-2.7-1.16l-1.747,1.379a1.693,1.693,0,0,1-1.793-.134l-.088-.08-1.305-1.458a1.263,1.263,0,0,1,.089-1.782l.017-.015,1.356-1.612a7.21,7.21,0,0,0-1.066-2.874l-2.022-.19A1.585,1.585,0,0,1,162.536,31l0-.063.244-1.827a1.479,1.479,0,0,1,1.186-1.373l.112-.011h2.341c.383,0,1.025,0,1.229-1.424a3.2,3.2,0,0,0-.034-1.313l-1.6-1.88a1.479,1.479,0,0,1,.185-1.654l.052-.053,1.458-1.3a1.276,1.276,0,0,1,.965-.281,1.259,1.259,0,0,1,.783.411l1.888,1.408c.37.35.946.179,1.553-.044a2.8,2.8,0,0,1,.467-.144.87.87,0,0,0,.606-.753l.24-2.511a1.659,1.659,0,0,1,1.424-1.037h2.157l.122.059a1.808,1.808,0,0,1,1,1.367l.2,2.375c.042.505.072.869,1.509,1.278l.1.039c.235.117.405.2.888-.241l.052-.043,1.85-1.34a1.476,1.476,0,0,1,1.744.085l.065.063,1.305,1.457a1.474,1.474,0,0,1,.167,1.64L186.7,24l-1.576,1.673a5.583,5.583,0,0,0,1.008,2.85l2.381.225a1.661,1.661,0,0,1,1.05,1.467l-.041,1.8a1.463,1.463,0,0,1-1.186,1.439l-.113.011h-2.249a5.037,5.037,0,0,0-1.209,2.175.977.977,0,0,0-.024.587l1.354,2.191a1.057,1.057,0,0,1-.193,1.372l-1.353,1.37a1.47,1.47,0,0,1-1.92-.13l-1.742-1.463a5.763,5.763,0,0,0-1.925.15l-.183.032a.757.757,0,0,0-.453.688l-.008.094-.413,2.462C177.636,43.908,176.459,44.1,175.535,44.1Zm-.809-1.223a3.38,3.38,0,0,0,2.047-.2l.382-2.3a1.935,1.935,0,0,1,1.26-1.748l.1-.027.239-.042c1.172-.206,2.383-.42,2.975.193l1.715,1.437a.3.3,0,0,0,.37.049l1.225-1.248.02-.024-1.3-2.1c-.544-.781.006-2.113.383-2.835.34-.649,1.017-1.739,1.736-1.739h2.269a.3.3,0,0,0,.2-.285l.041-1.777a.471.471,0,0,0-.245-.36l-2.24-.19c-.679-.094-1.212-1.159-1.547-2.037-.346-.908-.651-2.115-.147-2.707l1.568-1.665a.3.3,0,0,0-.052-.276l-1.246-1.39a.3.3,0,0,0-.321,0l-1.791,1.3a1.744,1.744,0,0,1-2.126.428c-1.811-.526-2.217-1.24-2.3-2.291l-.2-2.34a.61.61,0,0,0-.248-.389h-1.82a.475.475,0,0,0-.35.243l-.191,2.236a2.043,2.043,0,0,1-1.494,1.791l-.091.017c-.052.011-.141.048-.25.087a2.584,2.584,0,0,1-2.733-.177l-1.98-1.5a.1.1,0,0,0-.131-.017l-1.39,1.247a.3.3,0,0,0-.04.271l1.491,1.734a3.339,3.339,0,0,1,.288,2.219c-.232,1.613-1.035,2.43-2.388,2.43h-2.269a.3.3,0,0,0-.2.276l0,.064-.229,1.714a.411.411,0,0,0,.35.327l2.264.224c.991.3,1.738,3.16,1.745,3.188.182.772.141,1.25-.134,1.537l-1.48,1.747c-.066.059-.07.118-.035.157l1.261,1.407a.519.519,0,0,0,.468.033l1.606-1.277c.6-.535,1.748-.2,2.6.187.6.27,1.993.982,1.993,1.758l.2,2.242A.534.534,0,0,0,174.726,42.874Zm-1.55-2.588a.216.216,0,0,0,0,.035Zm-7.282-7.713Z" fill="#2e6ca4"/>
      <path d="M176.152,35.887a5.276,5.276,0,1,1,.171,0C176.266,35.886,176.208,35.887,176.152,35.887Zm0-9.364c-.044,0-.089,0-.133,0a4.1,4.1,0,1,0,.133,0Z" fill="#2e6ca4"/>
    </g>
    <path d="M121.16,11.118A35.955,35.955,0,0,0,87.276,35.176,16.176,16.176,0,0,0,75.3,47.156a13.785,13.785,0,0,0-4.38-.711c-7.9,0-14.327,6.679-14.327,14.92a14.97,14.97,0,0,0,8.267,13.517A13.162,13.162,0,0,0,69.318,76.2l.362.033a82.919,82.919,0,0,0,9.17.58h22.3A35.9,35.9,0,1,0,121.16,11.118Z" fill="#fff" stroke="#389cd6" stroke-miterlimit="10"/>
    <g>
      <rect x="213.822" y="47.665" width="43.683" height="52.952" fill-opacity="0"/>
      <rect x="215.953" y="47.665" width="39.847" height="52.952" fill-opacity="0"/>
      <path d="M215.953,54.91V93.373c0,3.942,8.95,7.245,19.924,7.245V54.91Z" fill="#0072c6"/>
      <path d="M235.557,100.618h.32c11.08,0,19.924-3.2,19.924-7.245V54.91H235.557v45.708Z" fill="#0072c6"/>
      <path d="M235.557,100.618h.32c11.08,0,19.924-3.2,19.924-7.245V54.91H235.557v45.708Z" fill="#fff" opacity="0.15" style="isolation: isolate"/>
      <path d="M255.8,54.91c0,3.942-8.95,7.245-19.924,7.245s-19.924-3.2-19.924-7.245c0-3.942,8.95-7.245,19.924-7.245S255.8,50.968,255.8,54.91Z" fill="#fff"/>
      <path d="M251.752,54.591c0,2.557-7.138,4.688-15.875,4.688S220,57.148,220,54.591c0-2.664,7.138-4.8,15.875-4.8S251.752,51.927,251.752,54.591Z" fill="#7fba00"/>
      <path d="M248.449,57.467c2.131-.852,3.3-1.811,3.3-2.876,0-2.664-7.138-4.8-15.875-4.8S220,51.927,220,54.591c0,1.065,1.278,2.131,3.3,2.876,2.876-1.172,7.458-1.811,12.572-1.811A33.77,33.77,0,0,1,248.449,57.467Z" fill="#b8d432"/>
      <rect x="213.822" y="65.778" width="43.683" height="23.44" fill-opacity="0"/>
      <path d="M221.8,82.4V79.9a4.89,4.89,0,0,0,1.475.858,4.8,4.8,0,0,0,1.607.281,3.535,3.535,0,0,0,.828-.086,1.962,1.962,0,0,0,.593-.234,1.078,1.078,0,0,0,.359-.359.918.918,0,0,0,.117-.453.971.971,0,0,0-.188-.585,1.987,1.987,0,0,0-.515-.476,5.1,5.1,0,0,0-.764-.421c-.3-.136-.617-.273-.96-.414a4.939,4.939,0,0,1-1.959-1.334,2.923,2.923,0,0,1-.64-1.9,2.91,2.91,0,0,1,1.3-2.537,4.286,4.286,0,0,1,1.405-.593,7.061,7.061,0,0,1,1.685-.195,9.7,9.7,0,0,1,1.546.11,5.934,5.934,0,0,1,1.248.319V74.21a3.726,3.726,0,0,0-.616-.344,4.565,4.565,0,0,0-.679-.242,5.064,5.064,0,0,0-1.358-.195,3.3,3.3,0,0,0-.78.086,1.926,1.926,0,0,0-.593.227,1.114,1.114,0,0,0-.375.358.829.829,0,0,0-.133.461.905.905,0,0,0,.149.507,1.785,1.785,0,0,0,.421.422,4.973,4.973,0,0,0,.663.39q.39.188.882.39a9.155,9.155,0,0,1,1.2.6,4.166,4.166,0,0,1,.921.71,2.765,2.765,0,0,1,.585.913,3.608,3.608,0,0,1-.156,2.762,2.881,2.881,0,0,1-.96,1.03,4.2,4.2,0,0,1-1.42.562,8.094,8.094,0,0,1-1.7.172,9.545,9.545,0,0,1-1.756-.156A5.288,5.288,0,0,1,221.8,82.4Zm14.2.624a5.213,5.213,0,0,1-3.917-1.561,5.648,5.648,0,0,1-1.514-4.081,6.04,6.04,0,0,1,1.537-4.292,5.311,5.311,0,0,1,4.074-1.639,5.064,5.064,0,0,1,3.87,1.569,5.754,5.754,0,0,1,1.483,4.136A5.93,5.93,0,0,1,240,81.405c-.037.036-.07.072-.1.109s-.065.062-.1.093l2.833,2.724H239.1l-1.482-1.506A6.284,6.284,0,0,1,236,83.02Zm.11-9.4a2.545,2.545,0,0,0-2.107,1,4.125,4.125,0,0,0-.781,2.629,4.069,4.069,0,0,0,.781,2.63,2.5,2.5,0,0,0,2.044.968,2.528,2.528,0,0,0,2.068-.937,4.061,4.061,0,0,0,.765-2.614,4.388,4.388,0,0,0-.741-2.708A2.4,2.4,0,0,0,236.109,73.617Zm13.952,9.208H243.4V71.635h2.521V80.78h4.143Z" fill="#fff"/>
    </g>
    <g>
      <path d="M121,70.388a19.447,19.447,0,1,1,19.473-19.447A19.482,19.482,0,0,1,121,70.388ZM101.9,37.1l2.372-2.369,1.535,1.534a21.41,21.41,0,0,0-2.144,2.595Zm38.239,0-1.79,1.788a21.264,21.264,0,0,0-2.142-2.6l1.561-1.558ZM116.108,24.888h9.782V23.214h-9.782Zm23.178,15.436,3.227-3.224-4.742-4.737L135,35.13a21.071,21.071,0,0,0-13.419-5.3V26.563h5.986V21.539H114.431v5.024H119.9v3.285a21.066,21.066,0,0,0-12.88,5.26l-2.749-2.745L99.531,37.1l3.208,3.2a21.15,21.15,0,1,0,36.511-.014Z" fill="#389cd6"/>
      <path d="M121.95,51.709a1.219,1.219,0,1,1,.266-.9A1.215,1.215,0,0,1,121.95,51.709Zm1.3,1.053a2.889,2.889,0,0,0-3.874-4.206L109.5,40.579l-1.055,1.3,9.879,7.977a2.892,2.892,0,0,0,4.929,2.9Z" fill="#389cd6"/>
      <path d="M110.447,61.48a.559.559,0,0,0-.792.788c.073.074.148.146.223.218a.559.559,0,1,0,.775-.8C110.584,61.615,110.516,61.548,110.447,61.48Z" fill="#389cd6"/>
      <path d="M110.051,40.566a.559.559,0,0,0,.4-.163,15.006,15.006,0,0,1,2.065-1.724.558.558,0,1,0-.637-.917,16.159,16.159,0,0,0-2.219,1.851.558.558,0,0,0,.395.953Z" fill="#389cd6"/>
      <path d="M125.377,36.691a14.94,14.94,0,0,1,2.491,1.015.55.55,0,0,0,.256.063.558.558,0,0,0,.258-1.054,16.061,16.061,0,0,0-2.677-1.092.559.559,0,0,0-.328,1.068Z" fill="#389cd6"/>
      <path d="M120.055,36.067q.46-.029.922-.029a16.271,16.271,0,0,1,1.768.1.487.487,0,0,0,.066,0,.558.558,0,0,0,.064-1.112,16.042,16.042,0,0,0-1.874-.11c-.346,0-.678.011-1.017.032a.558.558,0,0,0-.522.592A.566.566,0,0,0,120.055,36.067Z" fill="#389cd6"/>
      <path d="M114.623,37.405a.554.554,0,0,0,.23-.049,15.011,15.011,0,0,1,2.542-.879.558.558,0,1,0-.268-1.084,16.071,16.071,0,0,0-2.734.946.558.558,0,0,0,.23,1.066Z" fill="#389cd6"/>
      <path d="M132.894,41.026a.558.558,0,0,0,.041-.789q-.286-.318-.592-.623a16.293,16.293,0,0,0-1.524-1.344.559.559,0,1,0-.685.883,14.983,14.983,0,0,1,1.418,1.25c.19.19.374.383.552.581a.556.556,0,0,0,.416.185A.563.563,0,0,0,132.894,41.026Z" fill="#389cd6"/>
      <path d="M134.63,58.3a.559.559,0,0,0-.765.2,14.937,14.937,0,0,1-1.571,2.181.559.559,0,1,0,.846.73,15.985,15.985,0,0,0,1.688-2.344A.56.56,0,0,0,134.63,58.3Z" fill="#389cd6"/>
      <path d="M135.654,48.123a14.992,14.992,0,0,1,.268,2.674.557.557,0,0,0,.559.553h0a.56.56,0,0,0,.554-.563,16.2,16.2,0,0,0-.287-2.874.559.559,0,0,0-1.1.21Z" fill="#389cd6"/>
      <path d="M115.117,64.643a14.776,14.776,0,0,1-2.365-1.278.559.559,0,1,0-.619.93,15.918,15.918,0,0,0,2.544,1.374.548.548,0,0,0,.22.045.558.558,0,0,0,.22-1.071Z" fill="#389cd6"/>
      <path d="M133.9,42.367a.558.558,0,0,0-.183.768,14.818,14.818,0,0,1,1.2,2.406.559.559,0,0,0,.521.356.572.572,0,0,0,.2-.037.56.56,0,0,0,.32-.723,15.922,15.922,0,0,0-1.288-2.588A.558.558,0,0,0,133.9,42.367Z" fill="#389cd6"/>
      <path d="M136.352,53.021a.556.556,0,0,0-.646.455,14.785,14.785,0,0,1-.693,2.6.561.561,0,0,0,.333.717.59.59,0,0,0,.193.034.561.561,0,0,0,.525-.367,16.137,16.137,0,0,0,.744-2.79A.558.558,0,0,0,136.352,53.021Z" fill="#389cd6"/>
      <path d="M120.342,65.83a14.951,14.951,0,0,1-2.667-.358.559.559,0,1,0-.248,1.09,16.348,16.348,0,0,0,2.866.384h.025a.558.558,0,0,0,.024-1.116Z" fill="#389cd6"/>
      <path d="M130.36,62.55a15.047,15.047,0,0,1-2.238,1.492.558.558,0,1,0,.534.981,16.112,16.112,0,0,0,2.406-1.6.559.559,0,1,0-.7-.869Z" fill="#389cd6"/>
      <path d="M125.652,65.105a14.867,14.867,0,0,1-2.622.6.558.558,0,0,0,.075,1.111.656.656,0,0,0,.076,0A16.071,16.071,0,0,0,126,66.166a.558.558,0,1,0-.347-1.061Z" fill="#389cd6"/>
      <path d="M90.277,50.29h-2.8a.558.558,0,1,0,0,1.116h2.8a.558.558,0,1,0,0-1.116Z" fill="#389cd6"/>
      <path d="M95.867,50.29h-2.8a.558.558,0,1,0,0,1.116h2.8a.558.558,0,1,0,0-1.116Z" fill="#389cd6"/>
      <path d="M84.686,50.29h-1.4a.558.558,0,1,0,0,1.116h1.4a.558.558,0,1,0,0-1.116Z" fill="#389cd6"/>
      <path d="M72.668,59.5h-2.8a.559.559,0,1,0,0,1.117h2.8a.559.559,0,1,0,0-1.117Z" fill="#389cd6"/>
      <path d="M78.258,59.5h-2.8a.559.559,0,1,0,0,1.117h2.8a.559.559,0,1,0,0-1.117Z" fill="#389cd6"/>
      <path d="M89.438,59.5h-2.8a.559.559,0,1,0,0,1.117h2.8a.559.559,0,1,0,0-1.117Z" fill="#389cd6"/>
      <path d="M95.028,59.5h-2.8a.559.559,0,1,0,0,1.117h2.8a.559.559,0,1,0,0-1.117Z" fill="#389cd6"/>
      <path d="M83.848,59.5h-2.8a.559.559,0,1,0,0,1.117h2.8a.559.559,0,1,0,0-1.117Z" fill="#389cd6"/>
    </g>
  </g>
</svg>
