<svg xmlns="http://www.w3.org/2000/svg" viewBox="0 0 298 110">
  <title>6 - maintenance-plans</title>
  <g id="background_blue" data-name="background blue">
    <rect width="298" height="110" fill="#e4edf1"/>
  </g>
  <g id="Shapes">
    <g>
      <path d="M108.056,37.186l-4.107-.788a16.413,16.413,0,0,0-.315-2.83l3.5-2.065a1.079,1.079,0,0,0,.7-1.359.9.9,0,0,0-.034-.091l-.922-2.562a.93.93,0,0,0-1.192-.556.863.863,0,0,0-.117.051l-4.177.7-1.23-2.278,2.514-3.153a1.111,1.111,0,0,0,.064-1.474l-1.979-2.168a1.334,1.334,0,0,0-1.482-.063l-3.366,2.215c-.717-.473-1.576-1.1-2.294-1.576l1.08-4.1a1.015,1.015,0,0,0-.536-1.214l-2.467-1.143a.938.938,0,0,0-1.3.275,1.044,1.044,0,0,0-.058.1l-2.364,3.6A8.526,8.526,0,0,0,85.339,16l-.4-4.162a1.017,1.017,0,0,0-.927-1.1c-.024,0-.049,0-.074,0H81.122c-.442-.166-.907.26-1.072.693l-.938,4.257a8.75,8.75,0,0,0-2.688.465l-2.05-3.792a1.5,1.5,0,0,0-1.308-.5l-2.72,1.064a1,1,0,0,0-.646,1.151l.851,4.044c-.788.409-1.529,1.111-2.294,1.529l-3.287-2.6a.961.961,0,0,0-1.332.086L62.345,18.3l-.717.662h0a.955.955,0,0,0-.189,1.3L63.8,23.778a12.218,12.218,0,0,0-1.742,2.444l-4.115-1.38a1.317,1.317,0,0,0-1.372.678l-1.15,2.467a1.285,1.285,0,0,0,.528,1.506l3.452,2.231c-.339.875-.378,1.765-.717,2.64l-4.162.4a1.3,1.3,0,0,0-.946,1.143l-.118,2.657A1.292,1.292,0,0,0,54.25,39.8l4.272.639a17.145,17.145,0,0,0,.458,2.98l-3.8,2.049a.938.938,0,0,0-.554,1.2.919.919,0,0,0,.05.111l.953,2.578a1.388,1.388,0,0,0,1.3.788l4.194-.993,1.229,2.278-2.672,3.287a1.4,1.4,0,0,0,.087,1.34l1.978,2.16a1.121,1.121,0,0,0,1.317.213l3.523-2.365c.718.481,1.577,1.111,2.294,1.577l-1.072,4.106a.992.992,0,0,0,.536,1.206l2.6,1.309a1.277,1.277,0,0,0,1.356-.386l2.231-3.484c.891.039,1.765.378,2.648.417l.245,4.312a1.292,1.292,0,0,0,1.143.938l2.806.276a1.786,1.786,0,0,0,1.08-.985l.788-4.115c1.04-.1,1.939-.363,2.98-.457l1.923,3.665a1.017,1.017,0,0,0,1.316.5l2.554-.923a1.205,1.205,0,0,0,.789-1.3l-.852-4.036a10.379,10.379,0,0,0,2.294-1.529l3.287,2.672a.993.993,0,0,0,1.4.14c.029-.024.057-.05.084-.077l1.844-1.687.166-.15a1.05,1.05,0,0,0,.363-.788,1.017,1.017,0,0,0-.3-.725l-2.365-3.524a7.29,7.29,0,0,0,1.742-2.435l4.091,1.371a1.008,1.008,0,0,0,1.206-.536l1.3-2.569a1.5,1.5,0,0,0-.386-1.356l-3.6-2.365a7.436,7.436,0,0,0,.56-2.5l4.328-.544c.449-.126.914-.551.93-.851l.134-2.956a1.009,1.009,0,0,0-.918-1.092Zm-27,7.891a7.095,7.095,0,1,1,7.094-7.095A7.095,7.095,0,0,1,81.051,45.077Z" fill="#bad80a"/>
      <path d="M226.586,57.192c-.922-10.988-9.869-19.659-20.786-19.659a20.8,20.8,0,0,0-18.556,11.69,20.812,20.812,0,0,0-11.083-3.153,21.519,21.519,0,0,0-20.62,16.191,19.559,19.559,0,0,0-5.991-.938c-10.823-.032-22.781,8.741-22.781,19.564,0,7.883,7.82,14.638,14.5,17.76a18.577,18.577,0,0,0,6.1,1.71l.489.047c2.822.253,6.7.292,12.541.292h63.4a17.473,17.473,0,0,0,4.106-.489,21.915,21.915,0,0,0-1.316-43.015Z" fill="#aae9fb"/>
      <g>
        <polygon points="166.813 92.002 93.032 92.002 97.643 87.272 162.493 87.272 166.813 92.002" fill="#2e6ca4"/>
        <polygon points="159.876 90.346 99.969 90.346 102.073 88.77 157.834 88.77 159.876 90.346" fill="#adbdca"/>
        <polygon points="146.003 80.887 113.211 80.887 109.428 84.828 149.786 84.828 146.003 80.887" fill="#2e6ca4"/>
        <polygon points="131.814 82.542 127.4 82.542 128.283 73.714 130.931 73.714 131.814 82.542" fill="#556a8a"/>
        <rect x="82.627" y="23.345" width="95.379" height="52.025" rx="3.153" ry="3.153" fill="#fff"/>
        <rect x="83.415" y="24.133" width="94.59" height="10.09" fill="#c8edfb"/>
        <path d="M174.853,76.157H85.78a3.946,3.946,0,0,1-3.941-3.941V26.5a3.946,3.946,0,0,1,3.941-3.941h89.073a3.946,3.946,0,0,1,3.941,3.941V72.216A3.946,3.946,0,0,1,174.853,76.157ZM85.78,24.133A2.366,2.366,0,0,0,83.416,26.5V72.216a2.367,2.367,0,0,0,2.364,2.365h89.073a2.368,2.368,0,0,0,2.365-2.365V26.5a2.367,2.367,0,0,0-2.365-2.364Z" fill="#2e6ca4"/>
      </g>
      <g>
        <path d="M228.8,64.163h-5v-21l3-4-3-10h-4l-3,10,3,4v21h-5v6h3c0,2-2,4-3,4.08v12.42c0,3.3,2,5.5,4,5.5h6c2,0,4-2.7,4-6v-12c-1,0-3-2-3-4h3Z" fill="#2e6ca4"/>
        <rect x="218.796" y="73.163" width="2" height="17" fill="#fff"/>
        <rect x="222.796" y="73.163" width="2" height="17" fill="#fff"/>
        <g>
          <path d="M208.8,41.163a12,12,0,0,0-7-10.91v7.91l-5,4-5-4v-7.91a12,12,0,0,0,0,21.81v35.1a4,4,0,0,0,4,4h1a4,4,0,0,0,4-4v-34.7A12,12,0,0,0,208.8,41.163Z" fill="#fff"/>
          <path d="M196.8,92.162h-1a5.006,5.006,0,0,1-5-5V52.686a13,13,0,0,1,.583-23.342l1.417-.651v8.989l4,3.2,4-3.2V28.694l1.417.65A13.032,13.032,0,0,1,209.8,41.162h0a13.026,13.026,0,0,1-8,11.986V87.162A5.006,5.006,0,0,1,196.8,92.162Zm-6-60.221a11,11,0,0,0,1.417,19.213l.583.268v35.74a3,3,0,0,0,3,3h1a3,3,0,0,0,3-3V51.756l.667-.236A10.989,10.989,0,0,0,202.8,31.943v6.7l-6,4.8-6-4.8Z" fill="#2e6ca4"/>
        </g>
        <rect x="192.796" y="81.163" width="7" height="5" fill="#e5e5e5"/>
      </g>
      <g>
        <path d="M145.71,32.214h-30a2.092,2.092,0,0,0-2.143,2.028v33.8a2.092,2.092,0,0,0,2.143,2.028h30a2.092,2.092,0,0,0,2.143-2.028v-33.8A2.092,2.092,0,0,0,145.71,32.214Z" fill="#fff"/>
        <path d="M147.5,33.642v5.714H113.925V33.642a1.785,1.785,0,0,1,1.786-1.785h30A1.786,1.786,0,0,1,147.5,33.642Z" fill="#e5e5e5"/>
        <path d="M115.642,70.785a2.81,2.81,0,0,1-2.788-2.722V34.242a2.818,2.818,0,0,1,2.874-2.742H145.7a2.834,2.834,0,0,1,2.866,2.722V68.042a2.821,2.821,0,0,1-2.875,2.742H115.642Zm.034-37.858a1.386,1.386,0,0,0-1.394,1.337V68.042a1.379,1.379,0,0,0,1.377,1.315H145.71a1.391,1.391,0,0,0,1.429-1.336V34.242a1.378,1.378,0,0,0-1.378-1.315H115.676Z" fill="#2e6ca4"/>
        <rect x="120.711" y="31.499" width="20" height="5" fill="#fff"/>
        <path d="M136.425,31.5a5.667,5.667,0,0,0-.443-2.221,5.72,5.72,0,0,0-7.493-3.05,5.928,5.928,0,0,0-1.821,1.229,5.8,5.8,0,0,0-1.229,1.821A5.667,5.667,0,0,0,125,31.5h-3.571v4.286H140V31.5Zm-5.715,0a1.786,1.786,0,1,1,1.786-1.785A1.785,1.785,0,0,1,130.71,31.5Z" fill="#2bc7f4"/>
        <polygon points="122.496 51.438 118.063 47.004 119.073 45.994 122.496 49.418 130.92 40.994 131.93 42.004 122.496 51.438" fill="#2e6ca4"/>
        <polygon points="122.496 62.866 118.063 58.432 119.073 57.422 122.496 60.846 130.92 52.423 131.93 53.433 122.496 62.866" fill="#2e6ca4"/>
        <rect x="132.139" y="46.499" width="11.428" height="1.429" fill="#2e6ca4"/>
        <rect x="132.139" y="57.927" width="11.428" height="1.429" fill="#2e6ca4"/>
      </g>
    </g>
  </g>
</svg>
