<svg xmlns="http://www.w3.org/2000/svg" viewBox="0 0 298 110">
  <title>6 - partitions</title>
  <g id="background_blue" data-name="background blue">
    <rect width="298" height="110" fill="#e4edf1"/>
  </g>
  <g id="Shapes">
    <g opacity="0.5">
      <g opacity="0.8">
        <polygon points="258.903 68.492 254.126 71.069 201.692 44.988 206.469 42.411 258.903 68.492" fill="#6d98bf"/>
        <polygon points="258.903 78.318 254.126 80.895 254.126 71.069 258.903 68.492 258.903 78.318" fill="#2e6ca4"/>
        <polygon points="254.126 80.837 201.692 54.814 201.692 44.988 254.126 71.069 254.126 80.837" fill="#96b5d1"/>
      </g>
      <g opacity="0.8">
        <polygon points="258.903 48.95 254.126 51.527 201.692 25.446 206.469 22.869 258.903 48.95" fill="#6d98bf"/>
        <polygon points="258.903 58.776 254.126 61.353 254.126 51.527 258.903 48.95 258.903 58.776" fill="#2e6ca4"/>
        <polygon points="254.126 61.294 201.692 35.271 201.692 25.446 254.126 51.527 254.126 61.294" fill="#96b5d1"/>
      </g>
      <g opacity="0.8">
        <polygon points="258.903 88.035 254.126 90.612 201.692 64.53 206.469 61.953 258.903 88.035" fill="#6d98bf"/>
        <polygon points="258.903 97.86 254.126 100.438 254.126 90.612 258.903 88.035 258.903 97.86" fill="#2e6ca4"/>
        <polygon points="254.126 100.379 201.692 74.356 201.692 64.53 254.126 90.612 254.126 100.379" fill="#96b5d1"/>
      </g>
    </g>
    <g opacity="0.5">
      <g opacity="0.8">
        <polygon points="38.331 68.492 43.108 71.069 95.542 44.988 90.765 42.411 38.331 68.492" fill="#6d98bf"/>
        <polygon points="38.331 78.318 43.108 80.895 43.108 71.069 38.331 68.492 38.331 78.318" fill="#2e6ca4"/>
        <polygon points="43.108 80.837 95.542 54.814 95.542 44.988 43.108 71.069 43.108 80.837" fill="#96b5d1"/>
      </g>
      <g opacity="0.8">
        <polygon points="38.331 48.95 43.108 51.527 95.542 25.446 90.765 22.869 38.331 48.95" fill="#6d98bf"/>
        <polygon points="38.331 58.776 43.108 61.353 43.108 51.527 38.331 48.95 38.331 58.776" fill="#2e6ca4"/>
        <polygon points="43.108 61.294 95.542 35.271 95.542 25.446 43.108 51.527 43.108 61.294" fill="#96b5d1"/>
      </g>
      <g opacity="0.8">
        <polygon points="38.331 88.035 43.108 90.612 95.542 64.53 90.765 61.953 38.331 88.035" fill="#6d98bf"/>
        <polygon points="38.331 97.86 43.108 100.438 43.108 90.612 38.331 88.035 38.331 97.86" fill="#2e6ca4"/>
        <polygon points="43.108 100.379 95.542 74.356 95.542 64.53 43.108 90.612 43.108 100.379" fill="#96b5d1"/>
      </g>
    </g>
    <g>
      <g opacity="0.8">
        <polygon points="225.882 72.117 221.106 74.694 168.672 48.612 173.448 46.035 225.882 72.117" fill="#6d98bf"/>
        <polygon points="225.882 81.943 221.106 84.52 221.106 74.694 225.882 72.117 225.882 81.943" fill="#2e6ca4"/>
        <polygon points="221.106 84.461 168.672 58.438 168.672 48.612 221.106 74.694 221.106 84.461" fill="#96b5d1"/>
      </g>
      <g opacity="0.8">
        <polygon points="225.882 52.574 221.106 55.152 168.672 29.07 173.448 26.493 225.882 52.574" fill="#6d98bf"/>
        <polygon points="225.882 62.4 221.106 64.977 221.106 55.152 225.882 52.574 225.882 62.4" fill="#2e6ca4"/>
        <polygon points="221.106 64.919 168.672 38.896 168.672 29.07 221.106 55.152 221.106 64.919" fill="#96b5d1"/>
      </g>
      <g opacity="0.8">
        <polygon points="225.882 91.659 221.106 94.236 168.672 68.155 173.448 65.578 225.882 91.659" fill="#6d98bf"/>
        <polygon points="225.882 101.485 221.106 104.062 221.106 94.236 225.882 91.659 225.882 101.485" fill="#2e6ca4"/>
        <polygon points="221.106 104.003 168.672 77.98 168.672 68.155 221.106 94.236 221.106 104.003" fill="#96b5d1"/>
      </g>
    </g>
    <g>
      <g opacity="0.8">
        <polygon points="74.502 72.117 79.278 74.694 131.712 48.612 126.936 46.035 74.502 72.117" fill="#6d98bf"/>
        <polygon points="74.502 81.943 79.278 84.52 79.278 74.694 74.502 72.117 74.502 81.943" fill="#2e6ca4"/>
        <polygon points="79.278 84.461 131.712 58.438 131.712 48.612 79.278 74.694 79.278 84.461" fill="#96b5d1"/>
      </g>
      <g opacity="0.8">
        <polygon points="74.502 52.574 79.278 55.152 131.712 29.07 126.936 26.493 74.502 52.574" fill="#6d98bf"/>
        <polygon points="74.502 62.4 79.278 64.977 79.278 55.152 74.502 52.574 74.502 62.4" fill="#2e6ca4"/>
        <polygon points="79.278 64.919 131.712 38.896 131.712 29.07 79.278 55.152 79.278 64.919" fill="#96b5d1"/>
      </g>
      <g opacity="0.8">
        <polygon points="74.502 91.659 79.278 94.236 131.712 68.155 126.936 65.578 74.502 91.659" fill="#6d98bf"/>
        <polygon points="74.502 101.485 79.278 104.062 79.278 94.236 74.502 91.659 74.502 101.485" fill="#2e6ca4"/>
        <polygon points="79.278 104.003 131.712 77.98 131.712 68.155 79.278 94.236 79.278 104.003" fill="#96b5d1"/>
      </g>
    </g>
    <g>
      <rect x="113.771" y="12.777" width="70.121" height="85" fill-opacity="0"/>
      <rect x="117.192" y="12.777" width="63.964" height="85" fill-opacity="0"/>
      <path d="M117.192,24.407V86.148c0,6.328,14.366,11.629,31.981,11.629V24.407Z" fill="#0072c6"/>
      <path d="M148.66,97.777h.513c17.787,0,31.982-5.13,31.982-11.629V24.407h-32.5v73.37Z" fill="#0072c6"/>
      <path d="M148.66,97.777h.513c17.787,0,31.982-5.13,31.982-11.629V24.407h-32.5v73.37Z" fill="#fff" opacity="0.15" style="isolation: isolate"/>
      <path d="M181.155,24.407c0,6.328-14.366,11.63-31.982,11.63s-31.981-5.131-31.981-11.63c0-6.328,14.366-11.63,31.981-11.63S181.155,18.079,181.155,24.407Z" fill="#fff"/>
      <path d="M174.656,23.894c0,4.105-11.458,7.525-25.483,7.525S123.691,28,123.691,23.894c0-4.275,11.458-7.7,25.482-7.7S174.656,19.619,174.656,23.894Z" fill="#7fba00"/>
      <path d="M169.355,28.512c3.42-1.368,5.3-2.908,5.3-4.618,0-4.275-11.458-7.7-25.483-7.7s-25.482,3.421-25.482,7.7c0,1.71,2.052,3.421,5.3,4.618,4.618-1.881,11.972-2.908,20.181-2.908C157.383,25.433,164.737,26.631,169.355,28.512Z" fill="#b8d432"/>
      <rect x="113.771" y="41.852" width="70.121" height="37.626" fill-opacity="0"/>
      <path d="M126.572,68.527V64.519A7.826,7.826,0,0,0,128.94,65.9a7.713,7.713,0,0,0,2.58.451,5.639,5.639,0,0,0,1.328-.138,3.146,3.146,0,0,0,.952-.376,1.719,1.719,0,0,0,.576-.576,1.478,1.478,0,0,0,.188-.727,1.552,1.552,0,0,0-.3-.939,3.185,3.185,0,0,0-.827-.764,8.209,8.209,0,0,0-1.227-.677q-.714-.326-1.541-.664a7.907,7.907,0,0,1-3.144-2.142,4.692,4.692,0,0,1-1.027-3.056,4.83,4.83,0,0,1,.564-2.405,4.777,4.777,0,0,1,1.528-1.666,6.848,6.848,0,0,1,2.255-.952,11.311,11.311,0,0,1,2.705-.313,15.565,15.565,0,0,1,2.48.175,9.531,9.531,0,0,1,2,.514v3.745a5.963,5.963,0,0,0-.99-.551,7.1,7.1,0,0,0-1.09-.389,7.771,7.771,0,0,0-1.127-.237,7.651,7.651,0,0,0-1.052-.076,5.272,5.272,0,0,0-1.253.138,3.131,3.131,0,0,0-.952.363,1.811,1.811,0,0,0-.6.577,1.319,1.319,0,0,0-.213.739,1.451,1.451,0,0,0,.238.814,2.88,2.88,0,0,0,.676.676,8.006,8.006,0,0,0,1.065.627q.627.3,1.415.626a14.811,14.811,0,0,1,1.929.964,6.676,6.676,0,0,1,1.479,1.14,4.453,4.453,0,0,1,.939,1.466,5.792,5.792,0,0,1-.25,4.434,4.645,4.645,0,0,1-1.541,1.654,6.806,6.806,0,0,1-2.28.9,13.1,13.1,0,0,1-2.731.275,15.317,15.317,0,0,1-2.818-.25A8.49,8.49,0,0,1,126.572,68.527Zm22.8,1a8.372,8.372,0,0,1-6.288-2.5,9.066,9.066,0,0,1-2.43-6.551,9.691,9.691,0,0,1,2.467-6.89,8.522,8.522,0,0,1,6.539-2.63,8.131,8.131,0,0,1,6.213,2.518,9.238,9.238,0,0,1,2.38,6.638,9.516,9.516,0,0,1-2.468,6.827c-.058.059-.112.117-.162.176s-.105.1-.163.15l4.547,4.372h-5.662l-2.38-2.418A10.065,10.065,0,0,1,149.37,69.529Zm.175-15.094a4.089,4.089,0,0,0-3.382,1.6,6.635,6.635,0,0,0-1.252,4.222,6.536,6.536,0,0,0,1.252,4.221,4.012,4.012,0,0,0,3.282,1.553,4.062,4.062,0,0,0,3.32-1.5,6.524,6.524,0,0,0,1.227-4.2,7.042,7.042,0,0,0-1.19-4.347A3.859,3.859,0,0,0,149.545,54.435Zm22.4,14.781h-10.7V51.253h4.046V65.934h6.651Z" fill="#fff"/>
    </g>
  </g>
</svg>
