<svg xmlns="http://www.w3.org/2000/svg" viewBox="0 0 298 110">
  <title>6 - plan-guide</title>
  <g id="background_blue" data-name="background blue">
    <rect width="298" height="110" fill="#e4edf1"/>
  </g>
  <g id="Shapes">
    <g>
      <g>
        <path d="M163.109,38.733l3.234.485a12.644,12.644,0,0,0,.333,2.171l-2.67,1.751a.847.847,0,0,0-.5,1.086c.008.022.017.044.026.065l.8,1.946a.723.723,0,0,0,.942.4.663.663,0,0,0,.093-.045l3.249-.68,1.027,1.773-1.867,2.533a.86.86,0,0,0,0,1.157l1.607,1.636a1.043,1.043,0,0,0,1.158,0L173.1,51.18c.579.347,1.274.811,1.846,1.165l-.724,3.235a.8.8,0,0,0,.449.933l1.968.818a.724.724,0,0,0,1-.231.816.816,0,0,0,.052-.1l1.759-2.894a6.779,6.779,0,0,0,2.077.485l.448,3.227a.8.8,0,0,0,.774.818h.03l2.171-.109c.347.116.723-.231.81-.571l.608-3.358a6.983,6.983,0,0,0,2.113-.4l1.722,2.894a1.152,1.152,0,0,0,1.035.355l2.092-.912a.789.789,0,0,0,.47-.919l-.8-3.141a3.976,3.976,0,0,0,.449-.3c.094-.065.195-.137.289-.217a10.573,10.573,0,0,1,1.013-.723l2.649,1.983a.724.724,0,0,0,1.02-.082l.022-.027.97-.955.542-.543h0a.723.723,0,0,0,.1-1.018v0l-1.947-2.678a9.514,9.514,0,0,0,1.288-1.961l3.228.941a1.028,1.028,0,0,0,1.078-.652l.818-1.968a1.007,1.007,0,0,0-.449-1.158L201.3,41.468c.239-.723.239-1.389.478-2.076L205,39a1.028,1.028,0,0,0,.723-.926V35.983a.984.984,0,0,0-.673-.933l-3.365-.391a13.188,13.188,0,0,0-.441-2.323l2.894-1.715a.724.724,0,0,0,.413-.937.678.678,0,0,0-.051-.105l-.8-1.969a1.078,1.078,0,0,0-1.035-.586l-3.256.9c-.34-.579-.681-1.165-1.028-1.744l1.99-2.649a1.069,1.069,0,0,0-.116-1.042l-1.6-1.585a.87.87,0,0,0-1.035-.123l-2.677,1.932c-.579-.361-1.267-.825-1.846-1.172l.724-3.242a.774.774,0,0,0-.449-.926l-2.12-.941a1,1,0,0,0-1.049.34L188.6,19.556c-.724,0-1.389-.239-2.084-.253l-.326-3.358a1.013,1.013,0,0,0-.926-.724l-2.171-.13a1.353,1.353,0,0,0-.81.8l-.493,3.249c-.81.109-1.5.34-2.315.442l-1.621-2.757a.8.8,0,0,0-1.071-.355l-1.94.825a.941.941,0,0,0-.593,1.013l.8,3.133A7.478,7.478,0,0,0,173.3,22.7l-2.656-1.99a.775.775,0,0,0-1.093-.073.827.827,0,0,0-.072.073L168.1,22.089l-.123.116a.788.788,0,0,0-.043,1.114.436.436,0,0,0,.043.043l1.946,2.678a5.19,5.19,0,0,0-.991,1.339l-.087.159c-.072.145-.145.3-.21.456l-3.235-.941a.79.79,0,0,0-.919.449l-.955,2.091a1.178,1.178,0,0,0,.34,1.049l2.9,1.752a5.751,5.751,0,0,0-.369,1.968l-3.358.543c-.34.123-.724.463-.724.724v2.315a.782.782,0,0,0,.774.789Z" fill="#fff"/>
        <path d="M182.763,59.359l-.073,0a1.513,1.513,0,0,1-1.446-1.49l-.365-2.62a7.472,7.472,0,0,1-1.126-.26l-1.428,2.351a1.453,1.453,0,0,1-.076.14,1.446,1.446,0,0,1-1.938.5l-1.923-.8a1.518,1.518,0,0,1-.871-1.789l.606-2.708-.336-.215c-.221-.142-.445-.286-.661-.422L170.963,53.6a1.769,1.769,0,0,1-1.981.014l-.115-.095-1.607-1.635a1.589,1.589,0,0,1-.048-2.12l1.567-2.126-.527-.909-2.643.553-.067.028a1.446,1.446,0,0,1-1.882-.8l-.84-2.04a1.569,1.569,0,0,1,.849-1.971l2.192-1.439q-.121-.6-.189-1.209l-2.62-.393a1.5,1.5,0,0,1-1.47-1.519V35.629c0-.707.737-1.236,1.2-1.4l.131-.034,2.784-.45a6.476,6.476,0,0,1,.193-1.025l-2.533-1.554a1.9,1.9,0,0,1-.55-1.693l.055-.177.955-2.091a1.5,1.5,0,0,1,1.757-.849l2.665.774.052-.094a5.814,5.814,0,0,1,.692-1.046l-1.592-2.181a1.514,1.514,0,0,1,.088-2.131l.12-.113,1.367-1.36a.948.948,0,0,1,.1-.1,1.5,1.5,0,0,1,2.058.073l2.129,1.6a7.994,7.994,0,0,1,.949-.685l-.675-2.675a1.656,1.656,0,0,1,1.049-1.792L176.5,15.8a1.523,1.523,0,0,1,2,.691l1.349,2.3c.217-.041.431-.089.653-.139s.428-.095.653-.139l.451-2.877a2.076,2.076,0,0,1,1.244-1.222l.14-.05,2.319.14a1.733,1.733,0,0,1,1.576,1.24l.026.136.269,2.763c.154.024.3.05.453.077.194.035.382.069.566.091l1.442-2.48a1.722,1.722,0,0,1,1.81-.587l.1.036,2.12.941a1.492,1.492,0,0,1,.852,1.786l-.6,2.7c.223.141.453.29.681.437l.32.207L197.2,20.2a1.616,1.616,0,0,1,1.957.186l1.689,1.687a1.807,1.807,0,0,1,.193,1.748l-.087.151-1.7,2.26c.161.271.32.544.48.816l.021.036,2.864-.781a1.792,1.792,0,0,1,1.729.98l.81,1.98a1.6,1.6,0,0,1,.075.163,1.445,1.445,0,0,1-.763,1.843l-2.382,1.412c.106.437.19.88.253,1.326l2.945.357a1.706,1.706,0,0,1,1.167,1.62v2.092a1.768,1.768,0,0,1-1.235,1.617l-.126.027-2.747.332c-.036.164-.065.331-.1.5s-.065.375-.108.571l2.3,1.363a1.724,1.724,0,0,1,.772,1.991l-.841,2.035a1.746,1.746,0,0,1-1.831,1.092l-.119-.024-2.662-.776a10.144,10.144,0,0,1-.741,1.124l1.589,2.185.171.171v.089a1.446,1.446,0,0,1-.336,1.764l-1.491,1.481a1.425,1.425,0,0,1-.969.485,1.467,1.467,0,0,1-1.054-.342l-2.2-1.649c-.094.069-.19.143-.289.218l-.266.2a3.648,3.648,0,0,1-.309.231l-.034.027.671,2.645a1.525,1.525,0,0,1-.9,1.768l-2.244.955a1.867,1.867,0,0,1-1.686-.578l-.089-.121-1.431-2.4a7.624,7.624,0,0,1-1.171.22l-.507,2.8a1.626,1.626,0,0,1-.775,1.03,1.245,1.245,0,0,1-.815.141Zm-3.62-6.159.572.233a6.04,6.04,0,0,0,1.855.434l.585.041.537,3.867v.061a.082.082,0,0,0,.07.074l2.278-.114a.1.1,0,0,0,.013-.024l.7-3.881.586-.018a6.21,6.21,0,0,0,1.893-.358l.56-.2,1.978,3.325a.422.422,0,0,0,.272.1h0l1.99-.867c.048-.02.064-.052.056-.084l-.928-3.663.47-.275a3.427,3.427,0,0,0,.37-.25c.107-.076.189-.133.264-.2l.287-.219a7.586,7.586,0,0,1,.839-.584l.412-.231,3.027,2.265.03-.039.07-.006,1.562-1.542-.162-.222-2.145-2.951.369-.434a8.757,8.757,0,0,0,1.19-1.811l.268-.546,3.736,1.089a.305.305,0,0,0,.276-.2l.824-1.986a.292.292,0,0,0-.149-.257l-3.272-1.94.182-.553a6.572,6.572,0,0,0,.211-.935,7,7,0,0,1,.271-1.152l.147-.427,3.593-.435a.3.3,0,0,0,.172-.256V35.983a.261.261,0,0,0-.132-.226l-3.846-.447-.057-.58a12.619,12.619,0,0,0-.418-2.2L200.4,32l3.482-2.051-.047-.094-.8-1.968a.34.34,0,0,0-.261-.138l-3.7,1.029-.585-1q-.358-.611-.722-1.221l-.251-.418,2.215-2.947a.349.349,0,0,0-.033-.239l-1.544-1.53a.142.142,0,0,0-.163-.011l-3.012,2.177-.412-.258c-.236-.146-.49-.311-.747-.477-.371-.24-.747-.484-1.087-.687l-.448-.269.838-3.752-.009,0-.027-.1-2.057-.912a.268.268,0,0,0-.229.073l-1.779,3.08H188.6a6.661,6.661,0,0,1-1.224-.141,5.833,5.833,0,0,0-.875-.113l-.643-.014-.379-3.907a.291.291,0,0,0-.247-.161l-2.006-.121a.64.64,0,0,0-.242.263l-.56,3.7-.538.072c-.365.049-.707.125-1.069.206-.4.089-.8.18-1.253.236l-.473.058-1.861-3.167c-.04-.076-.088-.093-.127-.072l-1.976.841a.231.231,0,0,0-.163.219l.923,3.638-.505.265a6.775,6.775,0,0,0-1.575,1.144l-.443.432L170.1,21.191a.052.052,0,0,0-.073,0l-1.559,1.546a.067.067,0,0,0-.006.1l.1.109,2.316,3.185-.45.437a4.46,4.46,0,0,0-.853,1.151l-.094.175c-.054.106-.118.241-.176.383l-.246.6-3.86-1.123a.077.077,0,0,0-.054.043l-.913,2a.458.458,0,0,0,.1.287l3.323,2.01-.213.563a5.035,5.035,0,0,0-.323,1.721l-.006.609-3.876.627a.854.854,0,0,0-.2.142v2.2a.061.061,0,0,0,.057.066l.13.007,3.812.572.038.583a11.723,11.723,0,0,0,.314,2.045l.121.5-3.247,2.106a.122.122,0,0,0-.072.157L165,45.962l.1-.06.116-.018,3.762-.787,1.527,2.635L168.312,50.7a.139.139,0,0,0,0,.187l1.52,1.545a.319.319,0,0,0,.307-.026l2.921-2.094.408.244c.343.207.726.453,1.1.693.261.167.518.332.753.478l.437.272-.836,3.736c-.016.062,0,.1.034.112l2.059.867.049-.095Z" fill="#2e6ca4"/>
      </g>
      <g>
        <path d="M174,32.705a10.853,10.853,0,1,1-.84,4.233A10.721,10.721,0,0,1,174,32.705Z" fill="#fff"/>
        <path d="M184.015,48.476a11.6,11.6,0,0,1-11.578-11.535,11.375,11.375,0,0,1,.895-4.516,11.571,11.571,0,1,1,10.683,16.051Zm0-21.722a10.157,10.157,0,0,0-9.347,6.23v0a9.939,9.939,0,0,0-.783,3.947,10.121,10.121,0,1,0,10.131-10.179Z" fill="#2bc7f4"/>
      </g>
      <path d="M190.666,32.09l-2.048,2.048-1.737.3.2-1.846,2.048-2.048a3.7,3.7,0,0,0-3.684.616,3.068,3.068,0,0,0-.412,3.495l-7.013,7.012a1.043,1.043,0,0,0,.133,1.468l.019.016a.913.913,0,0,0,1.282.144,1,1,0,0,0,.1-.094l7.012-7.012a3.069,3.069,0,0,0,3.481-.413A3.7,3.7,0,0,0,190.666,32.09Z" fill="#2e6ca4"/>
      <path d="M183.574,36.772l-2.7-2.7-.514-1.535L177.8,31l-1.02,1.013,1.534,2.562,1.534.514,2.721,2.7a1.447,1.447,0,0,0,.369,1.39l4.6,4.6a1.448,1.448,0,0,0,2.048-2.048l-4.6-4.6A1.447,1.447,0,0,0,183.574,36.772Z" fill="#2bc7f4"/>
    </g>
    <g>
      <rect x="94.237" y="23.728" width="61.871" height="75" fill-opacity="0"/>
      <rect x="97.255" y="23.728" width="56.439" height="75" fill-opacity="0"/>
      <path d="M97.255,33.99V88.467c0,5.583,12.676,10.261,28.219,10.261V33.99Z" fill="#0072c6"/>
      <path d="M125.022,98.728h.452c15.7,0,28.22-4.527,28.22-10.261V33.99H125.022V98.728Z" fill="#0072c6"/>
      <path d="M125.022,98.728h.452c15.7,0,28.22-4.527,28.22-10.261V33.99H125.022V98.728Z" fill="#fff" opacity="0.15" style="isolation: isolate"/>
      <path d="M153.694,33.99c0,5.583-12.676,10.262-28.22,10.262S97.255,39.724,97.255,33.99c0-5.584,12.676-10.262,28.219-10.262S153.694,28.406,153.694,33.99Z" fill="#fff"/>
      <path d="M147.959,33.537c0,3.622-10.11,6.64-22.485,6.64s-22.485-3.018-22.485-6.64c0-3.772,10.111-6.79,22.485-6.79S147.959,29.765,147.959,33.537Z" fill="#7fba00"/>
      <path d="M143.281,37.612c3.018-1.208,4.678-2.566,4.678-4.075,0-3.772-10.11-6.79-22.485-6.79s-22.485,3.018-22.485,6.79c0,1.509,1.811,3.018,4.679,4.075,4.074-1.66,10.563-2.566,17.806-2.566C132.718,34.9,139.207,35.952,143.281,37.612Z" fill="#b8d432"/>
      <rect x="94.237" y="49.382" width="61.871" height="33.199" fill-opacity="0"/>
      <path d="M105.532,72.919V69.382a6.869,6.869,0,0,0,2.089,1.216,6.784,6.784,0,0,0,2.277.4,4.977,4.977,0,0,0,1.171-.121,2.772,2.772,0,0,0,.84-.332,1.516,1.516,0,0,0,.509-.509,1.3,1.3,0,0,0,.166-.641,1.371,1.371,0,0,0-.266-.828,2.83,2.83,0,0,0-.729-.675,7.352,7.352,0,0,0-1.083-.6q-.63-.287-1.36-.585a6.994,6.994,0,0,1-2.774-1.89,4.145,4.145,0,0,1-.906-2.7,4.121,4.121,0,0,1,1.845-3.592,6.057,6.057,0,0,1,1.99-.84,10.009,10.009,0,0,1,2.387-.277,13.769,13.769,0,0,1,2.189.155,8.421,8.421,0,0,1,1.768.453v3.305a5.231,5.231,0,0,0-.873-.486,6.246,6.246,0,0,0-.962-.343,6.771,6.771,0,0,0-.994-.21,6.915,6.915,0,0,0-.929-.066,4.664,4.664,0,0,0-1.105.121,2.737,2.737,0,0,0-.84.321,1.6,1.6,0,0,0-.53.508,1.161,1.161,0,0,0-.188.653,1.282,1.282,0,0,0,.21.718,2.566,2.566,0,0,0,.6.6,7.027,7.027,0,0,0,.94.552q.552.266,1.249.553a13.035,13.035,0,0,1,1.7.851,5.9,5.9,0,0,1,1.3,1.006,3.922,3.922,0,0,1,.829,1.293,5.118,5.118,0,0,1-.221,3.913,4.1,4.1,0,0,1-1.359,1.459,6,6,0,0,1-2.012.8,11.519,11.519,0,0,1-2.409.244,13.456,13.456,0,0,1-2.487-.222A7.476,7.476,0,0,1,105.532,72.919Zm20.116.885a7.388,7.388,0,0,1-5.549-2.211,8,8,0,0,1-2.144-5.781,8.55,8.55,0,0,1,2.177-6.078,7.517,7.517,0,0,1,5.77-2.322,7.177,7.177,0,0,1,5.482,2.222,8.154,8.154,0,0,1,2.1,5.858,8.4,8.4,0,0,1-2.177,6.024c-.052.051-.1.1-.144.154s-.092.089-.144.133l4.013,3.857h-5l-2.1-2.133A8.906,8.906,0,0,1,125.648,73.8Zm.155-13.319a3.61,3.61,0,0,0-2.985,1.415,5.851,5.851,0,0,0-1.105,3.725,5.764,5.764,0,0,0,1.105,3.724,3.542,3.542,0,0,0,2.9,1.371,3.581,3.581,0,0,0,2.929-1.327,5.753,5.753,0,0,0,1.083-3.7,6.209,6.209,0,0,0-1.05-3.835A3.4,3.4,0,0,0,125.8,60.485Zm19.762,13.042h-9.439V57.678h3.57V70.631h5.869Z" fill="#fff"/>
    </g>
  </g>
</svg>
