<svg xmlns="http://www.w3.org/2000/svg" viewBox="0 0 298 110">
  <title>6 - policy-mgmt</title>
  <g id="background_blue" data-name="background blue">
    <rect x="-0.36" width="298" height="110" fill="#e4edf1"/>
  </g>
  <g id="Shapes">
    <g>
      <path d="M107.521,36.49l-4.107-.788a16.413,16.413,0,0,0-.315-2.83l3.5-2.065a1.08,1.08,0,0,0,.7-1.359.9.9,0,0,0-.034-.091l-.922-2.562a.93.93,0,0,0-1.192-.556,1.01,1.01,0,0,0-.117.051l-4.178.7-1.229-2.278,2.514-3.153a1.112,1.112,0,0,0,.063-1.474l-1.978-2.168a1.334,1.334,0,0,0-1.482-.063l-3.366,2.215c-.717-.473-1.576-1.1-2.294-1.576l1.08-4.1a1.015,1.015,0,0,0-.536-1.214l-2.467-1.143a.938.938,0,0,0-1.3.275,1.044,1.044,0,0,0-.058.1l-2.365,3.6A8.513,8.513,0,0,0,84.8,15.3l-.4-4.162a1.017,1.017,0,0,0-.927-1.1l-.075,0H80.586c-.441-.166-.906.26-1.072.693l-.938,4.257a8.79,8.79,0,0,0-2.688.465L73.839,11.66a1.5,1.5,0,0,0-1.309-.5L69.811,12.22a1,1,0,0,0-.646,1.151l.851,4.044c-.788.41-1.529,1.111-2.294,1.529l-3.287-2.6a.961.961,0,0,0-1.332.086L61.81,17.6l-.717.662h0a.954.954,0,0,0-.189,1.3l2.364,3.515a12.218,12.218,0,0,0-1.742,2.444l-4.114-1.38a1.317,1.317,0,0,0-1.372.678l-1.151,2.467a1.286,1.286,0,0,0,.528,1.506l3.453,2.231c-.339.875-.378,1.765-.717,2.64l-4.162.4a1.3,1.3,0,0,0-.946,1.143l-.118,2.657a1.29,1.29,0,0,0,.788,1.229l4.272.639a17.239,17.239,0,0,0,.457,2.98l-3.8,2.049a.938.938,0,0,0-.554,1.2.854.854,0,0,0,.05.111l.953,2.578a1.387,1.387,0,0,0,1.3.788l4.193-.993,1.23,2.278-2.672,3.287a1.4,1.4,0,0,0,.087,1.34l1.978,2.16a1.12,1.12,0,0,0,1.317.213l3.523-2.365c.717.481,1.577,1.111,2.294,1.577l-1.072,4.106a.992.992,0,0,0,.536,1.206l2.6,1.309a1.277,1.277,0,0,0,1.356-.386L74,59.7c.89.039,1.765.378,2.648.417l.245,4.312a1.291,1.291,0,0,0,1.142.938l2.807.276a1.786,1.786,0,0,0,1.08-.985l.788-4.115c1.04-.1,1.939-.363,2.979-.457l1.924,3.665a1.017,1.017,0,0,0,1.316.505l2.554-.923a1.2,1.2,0,0,0,.788-1.3l-.851-4.036a10.379,10.379,0,0,0,2.294-1.529L97,59.137a.991.991,0,0,0,1.4.14,1.036,1.036,0,0,0,.085-.077l1.844-1.687.166-.15a1.046,1.046,0,0,0,.362-.788,1.012,1.012,0,0,0-.3-.725l-2.365-3.524a7.29,7.29,0,0,0,1.742-2.435l4.091,1.371a1.007,1.007,0,0,0,1.206-.536l1.3-2.569a1.5,1.5,0,0,0-.386-1.356l-3.595-2.365a7.436,7.436,0,0,0,.56-2.5l4.327-.544c.45-.126.915-.551.931-.851l.134-2.956a1.009,1.009,0,0,0-.919-1.092ZM80.515,44.381a7.095,7.095,0,1,1,7.095-7.094A7.094,7.094,0,0,1,80.515,44.381Z" fill="#bad80a"/>
      <path d="M226.051,56.5c-.922-10.988-9.869-19.659-20.786-19.659a20.794,20.794,0,0,0-18.556,11.69,20.812,20.812,0,0,0-11.083-3.153,21.519,21.519,0,0,0-20.62,16.191,19.563,19.563,0,0,0-5.991-.938c-10.823-.032-22.781,8.741-22.781,19.564,0,7.883,7.82,14.638,14.5,17.76a18.577,18.577,0,0,0,6.1,1.71l.489.047c2.822.253,6.7.292,12.541.292h63.4a17.482,17.482,0,0,0,4.107-.489A21.915,21.915,0,0,0,226.051,56.5Z" fill="#aae9fb"/>
      <g>
        <polygon points="166.278 91.306 92.497 91.306 97.108 86.576 161.958 86.576 166.278 91.306" fill="#2e6ca4"/>
        <polygon points="159.341 89.65 99.434 89.65 101.538 88.074 157.299 88.074 159.341 89.65" fill="#adbdca"/>
        <polygon points="145.468 80.191 112.676 80.191 108.893 84.132 149.251 84.132 145.468 80.191" fill="#2e6ca4"/>
        <polygon points="131.279 81.847 126.865 81.847 127.748 73.018 130.396 73.018 131.279 81.847" fill="#556a8a"/>
        <rect x="82.092" y="22.649" width="95.379" height="52.025" rx="3.153" ry="3.153" fill="#fff"/>
        <rect x="82.88" y="23.437" width="94.59" height="10.09" fill="#c8edfb"/>
        <path d="M174.318,75.462H85.245A3.946,3.946,0,0,1,81.3,71.52V25.8a3.946,3.946,0,0,1,3.941-3.941h89.073a3.946,3.946,0,0,1,3.941,3.941V71.52A3.946,3.946,0,0,1,174.318,75.462ZM85.245,23.437A2.367,2.367,0,0,0,82.88,25.8V71.52a2.368,2.368,0,0,0,2.365,2.365h89.073a2.368,2.368,0,0,0,2.365-2.365V25.8a2.367,2.367,0,0,0-2.365-2.364Z" fill="#2e6ca4"/>
      </g>
      <path d="M203.956,55.755H188.822a1.884,1.884,0,0,0-1.892,1.861v6.518A1.884,1.884,0,0,0,188.822,66h-.316V57.332h15.765V66h-.315a1.885,1.885,0,0,0,1.892-1.861V57.616A1.885,1.885,0,0,0,203.956,55.755Z" fill="#2e6ca4"/>
      <path d="M216.379,62.85H176.4a4.532,4.532,0,0,0-4.446,4.6v23.2a1.348,1.348,0,0,0,1.332,1.364h46.2a1.284,1.284,0,0,0,.693-.173,1.436,1.436,0,0,0,.639-1.191v-23.2A4.532,4.532,0,0,0,216.379,62.85Z" fill="#fff"/>
      <rect x="171.953" y="85.709" width="48.872" height="6.306" fill="#e5e5e5"/>
      <path d="M219.533,92.8h-46.24a2.136,2.136,0,0,1-2.128-2.161V67.453a5.328,5.328,0,0,1,5.219-5.392H216.4a5.333,5.333,0,0,1,5.209,5.4V90.651a2.219,2.219,0,0,1-.989,1.846A2.106,2.106,0,0,1,219.533,92.8Zm-.048-1.577a.516.516,0,0,0,.3-.067.632.632,0,0,0,.247-.511v-23.2a3.754,3.754,0,0,0-3.658-3.815H176.4a3.748,3.748,0,0,0-3.658,3.8V90.651a.562.562,0,0,0,.553.576Z" fill="#2e6ca4"/>
      <rect x="172.741" y="75.462" width="47.295" height="3.941" fill="#2bc7f4"/>
      <g>
        <rect x="181.412" y="72.309" width="6.306" height="10.965" rx="1.577" ry="1.577" fill="#fff"/>
        <path d="M186.142,84.061h-3.153a2.367,2.367,0,0,1-2.365-2.364V73.885a2.368,2.368,0,0,1,2.365-2.365h3.153a2.367,2.367,0,0,1,2.364,2.365V81.7A2.366,2.366,0,0,1,186.142,84.061ZM182.989,73.1a.789.789,0,0,0-.789.788V81.7a.79.79,0,0,0,.789.788h3.153a.79.79,0,0,0,.788-.788V73.885a.789.789,0,0,0-.788-.788Z" fill="#556a8a"/>
      </g>
      <rect x="183.777" y="74.673" width="1.577" height="6.306" fill="#556a8a"/>
      <g>
        <rect x="205.06" y="72.309" width="6.306" height="10.965" rx="1.577" ry="1.577" fill="#fff"/>
        <path d="M209.789,84.061h-3.153a2.367,2.367,0,0,1-2.365-2.364V73.885a2.368,2.368,0,0,1,2.365-2.365h3.153a2.368,2.368,0,0,1,2.365,2.365V81.7A2.367,2.367,0,0,1,209.789,84.061ZM206.636,73.1a.789.789,0,0,0-.788.788V81.7a.79.79,0,0,0,.788.788h3.153a.79.79,0,0,0,.789-.788V73.885a.789.789,0,0,0-.789-.788Z" fill="#556a8a"/>
      </g>
      <rect x="207.425" y="74.673" width="1.577" height="6.306" fill="#556a8a"/>
      <g>
        <path d="M151.191,34.148a4.685,4.685,0,0,1-.381,1.872,4.843,4.843,0,0,1-2.578,2.572,4.638,4.638,0,0,1-1.872.381l-2.66-.3V63.711c0,1.872-1.173,4.3-3.745,4.3H117.483V33.73q-.017-.337,0-.675a2.749,2.749,0,0,1,.194-.761,4.4,4.4,0,0,1,.43-.774,4.519,4.519,0,0,1,.625-.793,1.33,1.33,0,0,1,.149-.131,4.626,4.626,0,0,1,1.392-.905,4.921,4.921,0,0,1,1.873-.381h24.207a4.746,4.746,0,0,1,1.873.381,4.843,4.843,0,0,1,2.578,2.572A4.678,4.678,0,0,1,151.191,34.148Z" fill="#fff"/>
        <path d="M151.191,34.148a4.685,4.685,0,0,1-.381,1.872,4.843,4.843,0,0,1-2.578,2.572,4.638,4.638,0,0,1-1.872.381l-2.66-.3V39.3H117.483V33.73q-.017-.337,0-.675a2.749,2.749,0,0,1,.194-.761,4.4,4.4,0,0,1,.43-.774,4.519,4.519,0,0,1,.625-.793,1.33,1.33,0,0,1,.149-.131,4.626,4.626,0,0,1,1.392-.905,4.921,4.921,0,0,1,1.873-.381h24.207a4.746,4.746,0,0,1,1.873.381,4.843,4.843,0,0,1,2.578,2.572A4.678,4.678,0,0,1,151.191,34.148Z" fill="#ebebeb"/>
        <path d="M151.191,34.148a4.651,4.651,0,0,1-.381,1.872,4.744,4.744,0,0,1-1.036,1.536,4.868,4.868,0,0,1-1.542,1.036,4.6,4.6,0,0,1-1.872.381l-2.66-.3V63.711c0,1.872-1.173,4.3-3.745,4.3h-4.919l-17.553-4.994V34.148a9.725,9.725,0,0,1,.031-1.093,2.672,2.672,0,0,1,.194-.761,4.691,4.691,0,0,1,2.565-2.6,4.711,4.711,0,0,1,1.873-.381h24.207a4.711,4.711,0,0,1,1.873.381,4.838,4.838,0,0,1,2.578,2.572A4.678,4.678,0,0,1,151.191,34.148Z" fill="none" stroke="#75757a" stroke-miterlimit="10" stroke-width="2"/>
        <path d="M146.278,36.57a2.35,2.35,0,0,0,.943-.188,2.411,2.411,0,1,0-3.159-3.158,2.349,2.349,0,0,0-.187.943l-.25,2.634Z" fill="#75757a"/>
        <path d="M138.082,68.012c-1.872-.625-3.121-1.8-3.121-4.994,0-3.745,3.746-4.994,3.39-4.994H118.107a4.994,4.994,0,0,0,0,9.988h19.52" fill="#50e6ff" stroke="#75757a" stroke-miterlimit="10" stroke-width="2"/>
      </g>
    </g>
  </g>
</svg>
