<svg xmlns="http://www.w3.org/2000/svg" viewBox="0 0 298 110">
  <title>6 - sql-profiler</title>
  <g id="background_blue" data-name="background blue">
    <rect width="298" height="110" fill="#e4edf1"/>
  </g>
  <g id="Shapes">
    <g>
      <path d="M185.9,57.053a19.721,19.721,0,1,1,19.721-19.721A19.744,19.744,0,0,1,185.9,57.053Zm0-37.252a17.531,17.531,0,1,0,17.53,17.531A17.551,17.551,0,0,0,185.9,19.8Z" fill="#2e6ca4"/>
      <g>
        <circle cx="185.896" cy="19.801" r="6.653" fill="#50e6ff"/>
        <path d="M185.9,27.05a6.917,6.917,0,1,1,6.916-6.917A6.925,6.925,0,0,1,185.9,27.05Zm0-11.878a4.961,4.961,0,1,0,4.96,4.961A4.967,4.967,0,0,0,185.9,15.172Z" fill="#2e6ca4"/>
      </g>
      <g>
        <circle cx="200.217" cy="43.668" r="6.653" fill="#50e6ff"/>
        <path d="M200.145,50.8a6.917,6.917,0,1,1,6.918-6.917A6.925,6.925,0,0,1,200.145,50.8Zm0-11.878a4.961,4.961,0,1,0,4.962,4.961A4.966,4.966,0,0,0,200.145,38.921Z" fill="#2e6ca4"/>
      </g>
      <g>
        <circle cx="171.504" cy="43.739" r="6.653" fill="#50e6ff"/>
        <path d="M171.647,50.8a6.917,6.917,0,1,1,6.916-6.917A6.925,6.925,0,0,1,171.647,50.8Zm0-11.878a4.961,4.961,0,1,0,4.961,4.961A4.966,4.966,0,0,0,171.647,38.921Z" fill="#2e6ca4"/>
      </g>
    </g>
    <g>
      <rect x="91.534" y="21.422" width="61.871" height="75" fill-opacity="0"/>
      <rect x="94.552" y="21.422" width="56.439" height="75" fill-opacity="0"/>
      <path d="M94.552,31.684V86.161c0,5.583,12.676,10.261,28.219,10.261V31.684Z" fill="#0072c6"/>
      <path d="M122.318,96.422h.453c15.694,0,28.219-4.527,28.219-10.261V31.684H122.318V96.422Z" fill="#0072c6"/>
      <path d="M122.318,96.422h.453c15.694,0,28.219-4.527,28.219-10.261V31.684H122.318V96.422Z" fill="#fff" opacity="0.15" style="isolation: isolate"/>
      <path d="M150.99,31.684c0,5.583-12.676,10.261-28.219,10.261S94.552,37.418,94.552,31.684c0-5.584,12.676-10.262,28.219-10.262S150.99,26.1,150.99,31.684Z" fill="#fff"/>
      <path d="M145.256,31.231c0,3.622-10.111,6.64-22.485,6.64s-22.485-3.018-22.485-6.64c0-3.773,10.111-6.791,22.485-6.791S145.256,27.458,145.256,31.231Z" fill="#7fba00"/>
      <path d="M140.578,35.306c3.018-1.208,4.678-2.566,4.678-4.075,0-3.773-10.111-6.791-22.485-6.791s-22.485,3.018-22.485,6.791c0,1.509,1.811,3.018,4.678,4.075,4.075-1.66,10.564-2.566,17.807-2.566C130.015,32.589,136.5,33.646,140.578,35.306Z" fill="#b8d432"/>
      <rect x="91.534" y="47.076" width="61.871" height="33.199" fill-opacity="0"/>
      <path d="M102.829,70.613V67.076a6.889,6.889,0,0,0,2.089,1.216,6.8,6.8,0,0,0,2.277.4,4.973,4.973,0,0,0,1.171-.122,2.772,2.772,0,0,0,.84-.331,1.525,1.525,0,0,0,.509-.509,1.3,1.3,0,0,0,.165-.641,1.376,1.376,0,0,0-.265-.829,2.845,2.845,0,0,0-.729-.674,7.4,7.4,0,0,0-1.083-.6q-.631-.286-1.36-.585a6.987,6.987,0,0,1-2.774-1.89,4.147,4.147,0,0,1-.907-2.7,4.124,4.124,0,0,1,1.846-3.592,6.036,6.036,0,0,1,1.99-.84,9.953,9.953,0,0,1,2.387-.277,13.756,13.756,0,0,1,2.188.155,8.415,8.415,0,0,1,1.769.453v3.305a5.231,5.231,0,0,0-.873-.486,6.179,6.179,0,0,0-.962-.343,6.757,6.757,0,0,0-1-.21,6.9,6.9,0,0,0-.928-.066,4.658,4.658,0,0,0-1.105.121,2.737,2.737,0,0,0-.84.321,1.6,1.6,0,0,0-.531.508,1.168,1.168,0,0,0-.188.652,1.283,1.283,0,0,0,.21.719,2.552,2.552,0,0,0,.6.6,7.027,7.027,0,0,0,.94.552q.552.266,1.249.553a13.1,13.1,0,0,1,1.7.851,5.9,5.9,0,0,1,1.3,1.006,3.927,3.927,0,0,1,.829,1.293A5.116,5.116,0,0,1,113.13,69a4.091,4.091,0,0,1-1.36,1.459,5.968,5.968,0,0,1-2.011.8,11.523,11.523,0,0,1-2.41.243,13.473,13.473,0,0,1-2.487-.221A7.469,7.469,0,0,1,102.829,70.613Zm20.116.884a7.387,7.387,0,0,1-5.549-2.21,8,8,0,0,1-2.144-5.781,8.552,8.552,0,0,1,2.177-6.079,7.52,7.52,0,0,1,5.77-2.321,7.177,7.177,0,0,1,5.482,2.222,8.154,8.154,0,0,1,2.1,5.858A8.4,8.4,0,0,1,128.6,69.21c-.052.051-.1.1-.144.154s-.092.089-.144.133l4.012,3.857h-5l-2.1-2.133A8.893,8.893,0,0,1,122.945,71.5Zm.154-13.318a3.608,3.608,0,0,0-2.984,1.415,5.848,5.848,0,0,0-1.1,3.724,5.765,5.765,0,0,0,1.1,3.725,3.541,3.541,0,0,0,2.9,1.371,3.582,3.582,0,0,0,2.929-1.327,5.755,5.755,0,0,0,1.083-3.7,6.214,6.214,0,0,0-1.05-3.836A3.407,3.407,0,0,0,123.1,58.179Zm19.763,13.042h-9.439V55.372h3.57V68.325h5.869Z" fill="#fff"/>
    </g>
  </g>
</svg>
