<svg xmlns="http://www.w3.org/2000/svg" viewBox="0 0 298 110">
  <title>6 - sql-diag</title>
  <g id="background_blue" data-name="background blue">
    <rect width="298" height="110" fill="#e4edf1"/>
  </g>
  <g id="Shapes">
    <g>
      <path d="M199.659,36.506a.753.753,0,0,0,.719.452l1.563-.159a.754.754,0,0,0,.569-.836l-.051-1.881c-.092-.5,0-.962,1.438-1.8a1.313,1.313,0,0,1,1.3.076l1.764.995a.888.888,0,0,0,.836-.151l1.045-1.321a.786.786,0,0,0-.259-.936l-1.421-1.363a.952.952,0,0,1-.276-1.17s.409-1.9,1.2-2.04l1.747-.41a.936.936,0,0,0,.568-.836l-.284-1.672a.576.576,0,0,0-.673-.46H209.4l-1.889.058c-.5.075-1.572-1.246-1.8-1.471a1.887,1.887,0,0,1,0-1.413l1.012-1.555a.835.835,0,0,0-.151-1.053l-1.32-.786a.751.751,0,0,0-.945,0l-1.271,1.63c-.309.376-.9.736-2.24.192,0,0-.987-.577-1.1-1.045l-.384-1.973a.752.752,0,0,0-.711-.451l-1.672.284a.576.576,0,0,0-.428.694l0,.008h0l-.059,2c0,.7-1.137,1.447-1.371,1.672a1.235,1.235,0,0,1-1.413,0l-1.672-1.12a.919.919,0,0,0-.911.318l-1.045,1.321a1.038,1.038,0,0,0,.259.936l1.455,1.371c.836.635.343,1.563.176,2.232-.076.36-.218.719-1.037.836l-1.873.527a.752.752,0,0,0-.451.719l.284,1.672a.752.752,0,0,0,.6.568l2-.167c.7,0,.953.2,1.078.56a10.29,10.29,0,0,1,.611,1.045,1.053,1.053,0,0,1,.15,1.262l-1.12,1.672a.91.91,0,0,0,.259.928l1.162.912a.754.754,0,0,0,.945,0l1.254-1.564a1.2,1.2,0,0,1,1.279-.376l1.07.318c.468,0,.719.217.961.911l.519,1.864m3.82-11.052a4.18,4.18,0,0,1-3.361,4.532,3.845,3.845,0,0,1-4.514-3.034h0a1.412,1.412,0,0,0-.05-.368,3.946,3.946,0,0,1,3.285-4.447,4,4,0,0,1,4.682,3.176v.1" fill="#2bc7f4"/>
      <path d="M195.253,43.269a1.332,1.332,0,0,0-1.354-.919l-3.344-.218a1.6,1.6,0,0,1-1.622-1.2s-1.538-2.884-.66-3.929l1.8-2.425a1.545,1.545,0,0,0-.184-1.672L187.8,31.1a.978.978,0,0,0-1.371.151v.058l-2.357,2.124a1.89,1.89,0,0,1-2.266.434c-.568,0-1.1-.334-1.672-.367a3.162,3.162,0,0,1-1.547-1.814l-.384-3.1a1.42,1.42,0,0,0-1.338-1.187l-2.508.418a1.253,1.253,0,0,0-1.178,1.062l.1,3.344c0,.836-.125,2.232-2.667,2.675,0,0-1.9.334-2.508-.134l-2.725-2.14a1.238,1.238,0,0,0-1.405.209l-.2.234-1.6,1.906a.979.979,0,0,0,.209,1.363h0l2.09,2.633c1.2,1.187.109,3.085.067,3.637a2.065,2.065,0,0,1-1.739,1.621l-3.344.393a1.538,1.538,0,0,0-.986,1.33l.091,2.817a1.735,1.735,0,0,0,1.346.928l3.344.175c1.162.059,1.906.351,2.742,2.717.293.552.5,1.171-.409,2.216l-1.864,2.667a1.287,1.287,0,0,0,.2,1.421l2.149,1.8a1.252,1.252,0,0,0,1.387.075l2.383-2.382c.836-.836,3.277,0,3.9.225a1.756,1.756,0,0,1,1.547,1.455l.4,3.344a1.532,1.532,0,0,0,1.338.92l2.508-.134a1.253,1.253,0,0,0,1.178-1.062l-.083-3.344c0-.836,3.895-3.344,5.183-2.508l1.463.836,1.672.945c.476.234.635.15,1.02-.192L191.75,57a1.271,1.271,0,0,0-.192-1.672l-2.157-2.34c-.652-.535-.309-2.508-.1-3.871a1.922,1.922,0,0,1,1.772-1.313l3.4-.652C195.822,46.73,195.253,43.269,195.253,43.269Zm-22.3,7.992c-.159-.133-.317-.267-.468-.409a6.454,6.454,0,0,1-.644-9.054v-.084a6.789,6.789,0,0,1,9.447-.978l.134.1h0a6.762,6.762,0,0,1,.585,9.4A6.329,6.329,0,0,1,180.9,51.3,6.537,6.537,0,0,1,172.957,51.261Z" fill="#fff"/>
      <path d="M194.492,47.148l-3.419.652a1.924,1.924,0,0,0-1.747,1.313c-.209,1.354-.552,3.344.1,3.871l2.1,2.357a1.271,1.271,0,0,1,.192,1.672l-1.781,1.864c-.384.343-.543.427-1.02.193l-1.672-.945-6.378-6.8a6.4,6.4,0,0,0,1.112-1.07,6.765,6.765,0,0,0-.527-9.372h0l-.134-.1a6.789,6.789,0,0,0-9.472.936.081.081,0,0,1-.05.067l-8.025-8.719.2-.234a1.238,1.238,0,0,1,1.405-.209l2.642,2.123c.652.468,2.508.134,2.508.134,2.508-.443,2.675-1.848,2.666-2.675l-.1-3.344a1.254,1.254,0,0,1,1.262-1.045l2.508-.418a1.421,1.421,0,0,1,1.338,1.179l.384,3.11a3.164,3.164,0,0,0,1.539,1.822c.535,0,1.07.334,1.672.368a1.889,1.889,0,0,0,2.265-.435l2.358-2.123v-.059a.978.978,0,0,1,1.371-.15l2.14,1.8a1.549,1.549,0,0,1,.184,1.672l-1.8,2.425c-.877,1.045.661,3.929.661,3.929a1.6,1.6,0,0,0,1.622,1.2l3.344.218c.836,0,1.371.627,1.354.919C195.253,43.269,195.822,46.73,194.492,47.148Z" fill="#e5e5e5"/>
      <path d="M177.082,65.13a2.4,2.4,0,0,1-2.156-1.409l-.065-.24-.372-3.162c-.629-.569-3.406-1.532-4.117-1.3l-2.482,2.453a2.093,2.093,0,0,1-2.321-.124l-2.253-1.9a2.11,2.11,0,0,1-.347-2.349l.053-.095,1.85-2.779c.609-.716.48-.956.3-1.286l-.059-.139c-.658-2.032-1.179-2.06-1.9-2.1l-3.346-.185a2.6,2.6,0,0,1-2.04-1.364l-.089-.169-.108-3.064,0-.047a2.4,2.4,0,0,1,1.506-2.035l.208-.052,3.344-.393a1.235,1.235,0,0,0,1.02-.935,3.85,3.85,0,0,1,.184-.663c.3-.884.517-1.72,0-2.235l-.068-.075L161.8,36.93a1.809,1.809,0,0,1-.3-2.457l1.9-2.258a2.085,2.085,0,0,1,2.349-.347l.151.1,2.674,2.116a4.86,4.86,0,0,0,1.888-.026c1.975-.351,1.975-1.214,1.975-1.844l-.1-3.4.012-.078a2.109,2.109,0,0,1,1.907-1.76l2.557-.426.09,0a2.254,2.254,0,0,1,2.12,1.881l.363,2.918a9.923,9.923,0,0,0,4.152,1.386l2.274-2.058a1.807,1.807,0,0,1,2.511-.23l2.224,1.942a2.421,2.421,0,0,1,.283,2.561l-.081.132-1.806,2.425c-.259.635,1.094,3.291,1.781,3.806l3.224.193a2.131,2.131,0,0,1,2.129,1.664c.161,1.023.5,4.159-1.337,4.77l-.107.029-3.518.666a1.082,1.082,0,0,0-.958.7l-.025.165c-.117.749-.39,2.506-.136,2.883l.071.067,2.072,2.327a2.1,2.1,0,0,1,.267,2.743l-.077.094-1.781,1.856a1.551,1.551,0,0,1-1.977.375l-.065-.035-3.11-1.847c-.074-.047-.318-.1-.838.043a7.2,7.2,0,0,0-3.078,1.861l.081,3.286-.012.075A2.11,2.11,0,0,1,179.59,65Zm-.578-1.995a.7.7,0,0,0,.562.324l2.434-.134a.427.427,0,0,0,.385-.3l-.081-3.246c0-1.165,2-2.338,2.608-2.671.962-.521,2.744-1.288,3.866-.559l3.029,1.8.068-.063,1.694-1.767a.426.426,0,0,0-.087-.527l-.065-.066-2.063-2.317c-.922-.836-.631-2.7-.375-4.359l.066-.359a2.763,2.763,0,0,1,2.423-1.917l3.267-.627a4.858,4.858,0,0,0,.187-2.933.761.761,0,0,0-.556-.233l-3.361-.2h0c-1.127,0-2.271-2.244-2.593-2.932-.778-1.658-.872-2.859-.28-3.57l1.723-2.314a.739.739,0,0,0-.075-.675l-2.029-1.754a.13.13,0,0,0-.16.027l-.147.171-2.333,2.094c-.4.406-1.087.485-2.209.256-.04-.008-4.147-.95-4.61-2.339l-.036-.162-.384-3.1a.583.583,0,0,0-.479-.448l-2.493.411a.428.428,0,0,0-.385.3l.1,3.244c0,.741,0,2.919-3.356,3.515-.529.094-2.318.346-3.19-.29l-2.611-2.063a.421.421,0,0,0-.386.07l-1.755,2.09a.149.149,0,0,0,.036.119l.081.041,2.177,2.742c1.255,1.286.663,3.059.376,3.916a3.289,3.289,0,0,0-.114.369,2.936,2.936,0,0,1-2.464,2.358l-3.231.38a.713.713,0,0,0-.367.532l.091,2.545a.909.909,0,0,0,.614.343l3.294.18c1.5.079,2.534.628,3.376,3.182a2.5,2.5,0,0,1-.5,3.054l-1.725,2.6a.431.431,0,0,0,.063.411l2.089,1.754a.4.4,0,0,0,.361.03l2.28-2.287c.854-.774,2.6-.389,3.913.063,1.263.435,2.8,1.145,2.962,2.056Zm17.905-19.874h0Zm-3.854-1.956.073,0A.544.544,0,0,0,190.555,41.305ZM179.307,31.274" fill="#2e6ca4"/>
      <path d="M176.979,53.544A7.524,7.524,0,1,1,184.5,46.02,7.532,7.532,0,0,1,176.979,53.544Zm0-13.376a5.852,5.852,0,1,0,5.852,5.852A5.859,5.859,0,0,0,176.979,40.168Z" fill="#556a8a"/>
    </g>
    <g>
      <rect x="90.797" y="20.67" width="61.871" height="75" fill-opacity="0"/>
      <rect x="93.815" y="20.67" width="56.439" height="75" fill-opacity="0"/>
      <path d="M93.815,30.932V85.409c0,5.583,12.676,10.261,28.219,10.261V30.932Z" fill="#0072c6"/>
      <path d="M121.582,95.67h.452c15.7,0,28.22-4.527,28.22-10.261V30.932H121.582V95.67Z" fill="#0072c6"/>
      <path d="M121.582,95.67h.452c15.7,0,28.22-4.527,28.22-10.261V30.932H121.582V95.67Z" fill="#fff" opacity="0.15" style="isolation: isolate"/>
      <path d="M150.254,30.932c0,5.583-12.676,10.261-28.22,10.261S93.815,36.666,93.815,30.932c0-5.584,12.676-10.262,28.219-10.262S150.254,25.348,150.254,30.932Z" fill="#fff"/>
      <path d="M144.519,30.479c0,3.622-10.11,6.64-22.485,6.64S99.55,34.1,99.55,30.479c0-3.773,10.11-6.791,22.484-6.791S144.519,26.706,144.519,30.479Z" fill="#7fba00"/>
      <path d="M139.841,34.553c3.018-1.207,4.678-2.565,4.678-4.074,0-3.773-10.11-6.791-22.485-6.791S99.55,26.706,99.55,30.479c0,1.509,1.81,3.018,4.678,4.074,4.074-1.66,10.563-2.565,17.806-2.565C129.278,31.837,135.767,32.893,139.841,34.553Z" fill="#b8d432"/>
      <rect x="90.797" y="46.324" width="61.871" height="33.199" fill-opacity="0"/>
      <path d="M102.092,69.861V66.324a6.889,6.889,0,0,0,2.089,1.216,6.809,6.809,0,0,0,2.277.4,4.973,4.973,0,0,0,1.171-.122,2.772,2.772,0,0,0,.84-.331,1.525,1.525,0,0,0,.509-.509,1.3,1.3,0,0,0,.166-.641,1.374,1.374,0,0,0-.266-.829,2.811,2.811,0,0,0-.729-.674,7.352,7.352,0,0,0-1.083-.6q-.63-.287-1.36-.586a6.974,6.974,0,0,1-2.774-1.89,4.142,4.142,0,0,1-.906-2.7,4.122,4.122,0,0,1,1.846-3.593,6.043,6.043,0,0,1,1.989-.84,10.01,10.01,0,0,1,2.387-.276,13.769,13.769,0,0,1,2.189.155,8.421,8.421,0,0,1,1.768.453v3.305a5.235,5.235,0,0,0-.873-.487,6.164,6.164,0,0,0-.961-.342,6.812,6.812,0,0,0-.995-.21,6.921,6.921,0,0,0-.929-.067,4.662,4.662,0,0,0-1.105.122,2.747,2.747,0,0,0-.84.321,1.6,1.6,0,0,0-.53.508,1.16,1.16,0,0,0-.188.652,1.286,1.286,0,0,0,.21.719,2.544,2.544,0,0,0,.6.6,6.981,6.981,0,0,0,.94.553q.552.265,1.249.553a13.035,13.035,0,0,1,1.7.851,5.894,5.894,0,0,1,1.3,1,3.916,3.916,0,0,1,.829,1.294,5.1,5.1,0,0,1-.221,3.912,4.1,4.1,0,0,1-1.359,1.459,5.981,5.981,0,0,1-2.012.8,11.52,11.52,0,0,1-2.409.243,13.458,13.458,0,0,1-2.487-.221A7.476,7.476,0,0,1,102.092,69.861Zm20.116.884a7.387,7.387,0,0,1-5.548-2.21,8,8,0,0,1-2.145-5.781,8.549,8.549,0,0,1,2.178-6.079,7.517,7.517,0,0,1,5.769-2.321,7.176,7.176,0,0,1,5.482,2.222,8.152,8.152,0,0,1,2.1,5.858,8.4,8.4,0,0,1-2.177,6.023c-.052.052-.1.1-.144.155s-.092.088-.144.133l4.013,3.857h-5l-2.1-2.133A8.9,8.9,0,0,1,122.208,70.745Zm.155-13.318a3.609,3.609,0,0,0-2.985,1.414,5.853,5.853,0,0,0-1.105,3.725,5.767,5.767,0,0,0,1.105,3.725,3.542,3.542,0,0,0,2.9,1.37,3.583,3.583,0,0,0,2.929-1.326,5.755,5.755,0,0,0,1.083-3.7,6.212,6.212,0,0,0-1.05-3.836A3.4,3.4,0,0,0,122.363,57.427Zm19.762,13.042h-9.439V54.619h3.57V67.573h5.869Z" fill="#fff"/>
    </g>
  </g>
</svg>
