<?xml version="1.0" encoding="utf-8"?>
<!-- Generator: Adobe Illustrator 28.2.0, SVG Export Plug-In . SVG Version: 6.00 Build 0)  -->
<svg version="1.1" xmlns="http://www.w3.org/2000/svg" xmlns:xlink="http://www.w3.org/1999/xlink" x="0px" y="0px"
	 viewBox="0 0 783.2 280.271" enable-background="new 0 0 783.2 280.271" xml:space="preserve">
<symbol  id="PIPELINE" viewBox="-32 -12.266 64 24.531">
	<linearGradient id="SVGID_1_" gradientUnits="userSpaceOnUse" x1="0" y1="-12.2655" x2="1.502093e-15" y2="12.2655">
		<stop  offset="0" style="stop-color:#1B89B2"/>
		<stop  offset="1" style="stop-color:#51C8E8"/>
	</linearGradient>
	<path fill="url(#SVGID_1_)" d="M26.096,12.266h-51.448v0h0C-29.08,12.265-32,6.878-32,0s2.92-12.265,6.648-12.265h0v0h51.448
		C29.356-12.266,32-6.363,32,0S29.356,12.266,26.096,12.266z"/>
	<g>
		
			<linearGradient id="SVGID_00000085208598531753834830000014328284904107915658_" gradientUnits="userSpaceOnUse" x1="-31.461" y1="-6.1136" x2="-19.2338" y2="6.1136">
			<stop  offset="0" style="stop-color:#B3B4B4"/>
			<stop  offset="1" style="stop-color:#4F4F4F"/>
		</linearGradient>
		<ellipse fill="url(#SVGID_00000085208598531753834830000014328284904107915658_)" cx="-25.347" cy="0" rx="5.575" ry="10.879"/>
	</g>
</symbol>
<g id="Shapes">
	<rect fill="#FFFFFF" width="783.2" height="280.271"/>
	<g id="Wrench_tool_x28_s_x29_">
	</g>
	<g id="user2">
	</g>
	<g id="user2_1_">
	</g>
	<g id="user2_4_">
	</g>
	<g id="user2_3_">
	</g>
	<g id="user2_2_">
	</g>
	<g id="Internet_2">
	</g>
	<g id="Enterprise">
	</g>
	<g id="Tunnel__x28_stackable_x29_">
	</g>
	<g id="New_Symbol">
	</g>
	<g id="New_Symbol_1">
	</g>
	<g id="Files">
	</g>
	<g id="BlobBlock">
	</g>
	<g id="E_x5F_Enterprise">
	</g>
	<g id="E_x5F_AD_FS">
	</g>
	<g id="C_x5F_Azure_Active_Directory">
	</g>
	<g>
		<g opacity="0.23">
			<rect x="23" y="49.4" width="149.6" height="136.4"/>
			<rect x="23" y="49.4" width="149.6" height="136.4"/>
		</g>
		<g>
			<rect x="22" y="48.4" fill="#FFFFFF" width="149.6" height="136.4"/>
			<rect x="22" y="48.4" fill="#E1DDD8" width="149.6" height="136.4"/>
		</g>
	</g>
	<g>
		<g opacity="0.23">
			<rect x="45.495" y="67" width="105.105" height="100.916"/>
		</g>
		<g>
			<rect x="44.495" y="66" fill="#FFFFFF" width="105.105" height="100.916"/>
		</g>
	</g>
	<g>
		
			<linearGradient id="SVGID_00000137106656109620667720000005712607173255282871_" gradientUnits="userSpaceOnUse" x1="-479.7649" y1="2745.7349" x2="-454.4644" y2="2745.7349" gradientTransform="matrix(1 0 0 -1 564 2849.6001)">
			<stop  offset="0" style="stop-color:#005BA1"/>
			<stop  offset="0.07" style="stop-color:#0060A9"/>
			<stop  offset="0.36" style="stop-color:#0071C8"/>
			<stop  offset="0.52" style="stop-color:#0078D4"/>
			<stop  offset="0.64" style="stop-color:#0074CD"/>
			<stop  offset="0.82" style="stop-color:#006ABB"/>
			<stop  offset="1" style="stop-color:#005BA1"/>
		</linearGradient>
		<path fill="url(#SVGID_00000137106656109620667720000005712607173255282871_)" d="M96.885,93.978
			c-6.984,0-12.65-1.995-12.65-4.589v24.363c0,2.514,5.567,4.549,12.471,4.589h0.18c6.984,0,12.65-1.995,12.65-4.589V89.389
			C109.536,91.923,103.869,93.978,96.885,93.978z"/>
		<path fill="#E8E8E8" d="M109.536,89.389c0,2.534-5.667,4.589-12.65,4.589s-12.65-2.055-12.65-4.589
			c0-2.534,5.667-4.589,12.65-4.589S109.536,86.795,109.536,89.389"/>
		<path fill="#50E6FF" d="M106.582,89.01c0,1.616-4.35,2.913-9.697,2.913c-5.347,0-9.657-1.297-9.657-2.913s4.31-2.913,9.657-2.913
			C102.233,86.097,106.582,87.414,106.582,89.01"/>
		<path fill="#198AB3" d="M96.885,89.688c-2.597-0.052-5.184,0.318-7.662,1.097c2.475,0.823,5.075,1.207,7.682,1.137
			c2.607,0.07,5.207-0.315,7.682-1.137C102.097,90.003,99.495,89.632,96.885,89.688z"/>
		<path fill="#F2F2F2" d="M104.667,105.97v-6.744h-1.856v8.261h4.908v-1.516H104.667z M90.401,102.638
			c-0.369-0.152-0.713-0.361-1.018-0.619c-0.134-0.184-0.191-0.413-0.16-0.638c0-0.246,0.119-0.476,0.319-0.619
			c0.25-0.158,0.543-0.234,0.838-0.219c0.71-0.025,1.409,0.178,1.995,0.579v-1.716c-0.639-0.233-1.316-0.341-1.995-0.319
			c-0.857-0.072-1.71,0.177-2.394,0.698c-0.534,0.441-0.836,1.103-0.818,1.796c0,1.018,0.638,1.816,1.995,2.414
			c0.434,0.189,0.842,0.43,1.217,0.718c0.201,0.151,0.319,0.387,0.319,0.638c0,0.246-0.119,0.476-0.319,0.619
			c-0.266,0.173-0.581,0.257-0.898,0.239c-0.84,0.009-1.651-0.313-2.255-0.898v1.856c0.664,0.323,1.397,0.481,2.135,0.459
			c0.832,0.038,1.656-0.185,2.354-0.638c0.568-0.435,0.888-1.12,0.858-1.836c0.019-0.512-0.159-1.013-0.499-1.397
			C91.603,103.269,91.032,102.889,90.401,102.638z M100.776,105.771c0.451-0.767,0.679-1.645,0.658-2.534
			c0.017-0.762-0.155-1.515-0.499-2.195c-0.312-0.623-0.797-1.143-1.397-1.496c-0.608-0.345-1.296-0.524-1.995-0.519
			c-0.76-0.013-1.509,0.172-2.175,0.539c-0.624,0.361-1.13,0.894-1.457,1.536c-0.36,0.71-0.539,1.499-0.519,2.295
			c-0.012,0.727,0.153,1.446,0.479,2.095c0.303,0.616,0.773,1.135,1.357,1.496c0.602,0.366,1.291,0.565,1.995,0.579l1.696,1.995
			h2.374l-2.394-2.215C99.69,107.056,100.354,106.499,100.776,105.771z M98.921,105.252c-0.71,0.843-1.968,0.951-2.811,0.241
			c-0.087-0.073-0.168-0.154-0.241-0.241c-0.416-0.578-0.614-1.285-0.559-1.995c-0.055-0.713,0.15-1.422,0.579-1.995
			c0.364-0.489,0.947-0.766,1.556-0.738c0.591-0.018,1.152,0.259,1.496,0.738c0.393,0.588,0.582,1.289,0.539,1.995
			c0.08,0.731-0.12,1.465-0.559,2.055V105.252z"/>
		<path fill="#949494" d="M112.788,118.72l0.479-1.576l0.938-0.539l1.616,0.718l1.038-1.058v-0.12l-0.738-1.417l0.439-0.998
			l1.616-0.579h0.18v-1.457h-0.2l-1.596-0.479l-0.519-0.918l0.698-1.636l-1.058-1.018h-0.12l-1.417,0.718l-0.978-0.599l-0.638-1.776
			h-1.477v0.219l-0.479,1.576l-1.018,0.439l-1.736-0.798l-1.018,1.058l0.1,0.2l0.758,1.477l-0.399,1.018l-1.876,0.579v1.477h0.219
			l1.576,0.479l0.439,1.018l-0.778,1.716l1.058,1.038l0.18-0.1l1.477-0.758l1.018,0.399l0.678,1.776h1.457L112.788,118.72z
			 M110.394,114.011c-0.838-0.821-0.851-2.165-0.03-3.003c0.821-0.838,2.165-0.851,3.003-0.03l0,0
			c0.838,0.821,0.851,2.165,0.03,3.003C112.575,114.819,111.231,114.832,110.394,114.011L110.394,114.011z"/>
	</g>
	<g>
		<g opacity="0.23">
			<rect x="367.19" y="49.4" width="404.8" height="220"/>
			<rect x="367.19" y="49.4" opacity="0.7" width="404.8" height="220"/>
		</g>
		<g>
			<rect x="366.19" y="48.4" fill="#F3F3F5" width="404.8" height="220"/>
			<rect x="366.19" y="48.4" opacity="0.7" fill="#8EC8E8" width="404.8" height="220"/>
		</g>
	</g>
	<g>
		<g opacity="0.3">
			<rect x="389.19" y="194.6" fill="#212121" width="158.4" height="57.2"/>
		</g>
		<g>
			<rect x="388.19" y="193.6" fill="#FFFFFF" width="158.4" height="57.2"/>
		</g>
	</g>
	<g>
		<g opacity="0.3">
			<rect x="565.19" y="194.6" fill="#212121" width="158.4" height="57.2"/>
		</g>
		<g>
			<rect x="564.19" y="193.6" fill="#FFFFFF" width="158.4" height="57.2"/>
		</g>
	</g>
	<g>
		<g>
			
				<line fill="none" stroke="#D15900" stroke-width="2" stroke-miterlimit="10" x1="226.786" y1="117.62" x2="153.709" y2="117.62"/>
			<g>
				<path fill="#D15900" d="M164.644,109.94c0.237,0.372,0.127,0.867-0.245,1.105l-10.324,6.575l10.324,6.575
					c0.373,0.237,0.483,0.733,0.245,1.105c-0.238,0.372-0.735,0.48-1.105,0.245l-11.384-7.25c-0.23-0.147-0.37-0.402-0.37-0.675
					s0.14-0.528,0.37-0.675l11.384-7.25c0.133-0.084,0.282-0.125,0.429-0.125C164.232,109.57,164.491,109.701,164.644,109.94z"/>
			</g>
		</g>
	</g>
	<g>
		<path fill="#0078D4" d="M412.056,209.086l-11.339,6.486v12.957l11.339,6.558l11.339-6.486v-13L412.056,209.086z M421.301,227.242
			l-9.244,5.344l-9.244-5.288v-10.442l9.244-5.344l9.244,5.359V227.242z"/>
		
			<linearGradient id="SVGID_00000068670488078933155020000004260649717036887431_" gradientUnits="userSpaceOnUse" x1="-151.9439" y1="2632.7434" x2="-151.9439" y2="2640.5144" gradientTransform="matrix(1 0 0 -1 564 2849.6001)">
			<stop  offset="0.199" style="stop-color:#005BA1"/>
			<stop  offset="1" style="stop-color:#0078D4"/>
		</linearGradient>
		<polygon fill="url(#SVGID_00000068670488078933155020000004260649717036887431_)" points="412.056,209.086 412.056,209.086 
			400.717,215.571 402.812,216.857 412.056,211.512 412.056,211.512 421.301,216.857 423.395,215.571 		"/>
		<path fill="#50E6FF" d="M417.458,224.216c-0.11-0.182-0.273-0.326-0.467-0.413c-1.194-2.606-3.631-4.427-6.468-4.833l9.356-5.407
			l-2.175-1.248l-10.654,6.159c-0.519,0.298-0.697,0.961-0.398,1.479c0.194,0.337,0.553,0.544,0.942,0.543
			c0.044-0.008,0.087-0.019,0.13-0.033l0.181,0.755c2.795-0.659,5.68,0.675,6.987,3.233l-10.615,6.135l2.167,1.251l10.621-6.14
			c0.142-0.085,0.261-0.201,0.35-0.341l0.108-0.026c-0.01-0.042-0.026-0.079-0.036-0.121
			C417.64,224.894,417.631,224.522,417.458,224.216z"/>
		
			<linearGradient id="SVGID_00000029734042225374541950000013898070950486562979_" gradientUnits="userSpaceOnUse" x1="-151.9439" y1="2622.1511" x2="-151.9439" y2="2632.8777" gradientTransform="matrix(1 0 0 -1 564 2849.6001)">
			<stop  offset="0" style="stop-color:#198AB3"/>
			<stop  offset="0.172" style="stop-color:#32BEDD"/>
			<stop  offset="0.5" style="stop-color:#50E6FF"/>
			<stop  offset="0.5" style="stop-color:#4FE4FD"/>
			<stop  offset="0.5" style="stop-color:#4BDDF8"/>
			<stop  offset="0.5" style="stop-color:#44D2EE"/>
			<stop  offset="0.5" style="stop-color:#3AC1E0"/>
			<stop  offset="0.5" style="stop-color:#2DABCE"/>
			<stop  offset="0.5" style="stop-color:#1D90B8"/>
			<stop  offset="0.5" style="stop-color:#198AB3"/>
			<stop  offset="0.662" style="stop-color:#32BEDD"/>
			<stop  offset="0.975" style="stop-color:#50E6FF"/>
		</linearGradient>
		<path fill="url(#SVGID_00000029734042225374541950000013898070950486562979_)" d="M416.521,222.104
			c-1.476,0-2.672,1.196-2.672,2.672s1.196,2.672,2.672,2.672s2.672-1.196,2.672-2.672S417.997,222.104,416.521,222.104
			L416.521,222.104z M407.591,216.693c-1.476,0-2.672,1.196-2.672,2.672s1.196,2.672,2.672,2.672s2.672-1.196,2.672-2.672l0,0
			C410.264,217.89,409.067,216.693,407.591,216.693z"/>
	</g>
	<g>
		<path id="bc892891-989d-4c43-80d3-d2b4546a974f_00000164483628892483417490000004400992574206619831_" fill="#198AB3" d="
			M594.472,233.2h-20.8l-1.682-6.271h24.165L594.472,233.2z"/>
		
			<linearGradient id="SVGID_00000179605123314535678940000017607931159072573108_" gradientUnits="userSpaceOnUse" x1="7.9899" y1="2469.3999" x2="23.3146" y2="2469.3999" gradientTransform="matrix(1 0 0 -1 564 2689.6001)">
			<stop  offset="0" style="stop-color:#50C7E8"/>
			<stop  offset="0.25" style="stop-color:#4CC3E4"/>
			<stop  offset="0.51" style="stop-color:#41B6DA"/>
			<stop  offset="0.77" style="stop-color:#2FA2C8"/>
			<stop  offset="1" style="stop-color:#1989B2"/>
		</linearGradient>
		<polygon fill="url(#SVGID_00000179605123314535678940000017607931159072573108_)" points="580.86,207.2 580.86,216.988 
			571.99,226.929 573.672,233.2 587.284,216.988 587.284,207.2 		"/>
		<path id="e6be01d6-345d-4df4-bbdb-151aa8edaa1f_00000129894924062507206860000007917054903133391014_" fill="#32BEDD" d="
			M594.472,233.2l-9.482-9.788l3.976-4.588l7.188,8.106L594.472,233.2z"/>
	</g>
	<g>
		
			<linearGradient id="SVGID_00000120535461490652089490000001929027609088054940_" gradientUnits="userSpaceOnUse" x1="380.3415" y1="2597.0681" x2="380.3415" y2="2566.8062" gradientTransform="matrix(1 0 0 -1 0 2615.6001)">
			<stop  offset="0.18" style="stop-color:#5EA0EF"/>
			<stop  offset="1" style="stop-color:#0078D4"/>
		</linearGradient>
		<path fill="url(#SVGID_00000120535461490652089490000001929027609088054940_)" d="M395.483,37.101
			c-0.068-3.375-2.569-6.204-5.909-6.687c-0.149-4.756-4.096-8.506-8.854-8.412c-3.768-0.017-7.138,2.342-8.412,5.888
			c-4.024,0.532-7.049,3.933-7.108,7.991c0.16,4.58,3.956,8.189,8.538,8.118h0.757h13.838h0.358
			C392.44,43.898,395.439,40.852,395.483,37.101z"/>
	</g>
	<g>
		<g opacity="0.3">
			<rect x="388.176" y="67" fill="#212121" width="233.2" height="100.916"/>
		</g>
		<g>
			<rect x="387.176" y="66" fill="#FFFFFF" width="233.2" height="100.916"/>
		</g>
	</g>
	<g>
		<g>
			<line fill="none" stroke="#D15900" stroke-width="2" stroke-miterlimit="10" x1="313.384" y1="117.62" x2="385.46" y2="117.62"/>
			<g>
				<path fill="#D15900" d="M374.525,125.3c-0.237-0.372-0.127-0.867,0.245-1.105l10.324-6.575l-10.324-6.575
					c-0.373-0.237-0.483-0.733-0.245-1.105s0.735-0.48,1.105-0.245l11.384,7.25c0.23,0.147,0.37,0.402,0.37,0.675
					s-0.14,0.528-0.37,0.675l-11.384,7.25c-0.133,0.084-0.282,0.125-0.429,0.125C374.937,125.67,374.678,125.539,374.525,125.3z"/>
			</g>
		</g>
	</g>
	<g>
		<g opacity="0.3">
			<rect x="648.79" y="127.316" fill="#212121" width="105.6" height="40.6"/>
		</g>
		<g>
			<rect x="647.79" y="126.316" fill="#FFFFFF" width="105.6" height="40.6"/>
		</g>
	</g>
	<g>
		<g>
			<g>
				<line fill="none" stroke="#3C3C41" stroke-miterlimit="10" x1="647.79" y1="140.516" x2="626.772" y2="140.516"/>
				<g>
					<polygon fill="#3C3C41" points="627.866,136.776 621.39,140.516 627.866,144.256 					"/>
				</g>
			</g>
		</g>
		<g>
			<g>
				<line fill="none" stroke="#3C3C41" stroke-miterlimit="10" x1="642.408" y1="152.616" x2="621.39" y2="152.616"/>
				<g>
					<polygon fill="#3C3C41" points="641.313,148.876 647.79,152.616 641.313,156.356 					"/>
				</g>
			</g>
		</g>
	</g>
	<g>
		<g>
			<g>
				<line fill="none" stroke="#3C3C41" stroke-miterlimit="10" x1="405.79" y1="166.916" x2="405.79" y2="188.218"/>
				<g>
					<polygon fill="#3C3C41" points="402.05,187.124 405.79,193.6 409.53,187.124 					"/>
				</g>
			</g>
		</g>
		<g>
			<g>
				<line fill="none" stroke="#3C3C41" stroke-miterlimit="10" x1="417.89" y1="172.298" x2="417.89" y2="193.6"/>
				<g>
					<polygon fill="#3C3C41" points="414.15,173.393 417.89,166.916 421.63,173.393 					"/>
				</g>
			</g>
		</g>
	</g>
	<g>
		<g>
			<g>
				<line fill="none" stroke="#3C3C41" stroke-miterlimit="10" x1="574.09" y1="166.916" x2="574.09" y2="188.218"/>
				<g>
					<polygon fill="#3C3C41" points="570.35,187.124 574.09,193.6 577.83,187.124 					"/>
				</g>
			</g>
		</g>
		<g>
			<g>
				<line fill="none" stroke="#3C3C41" stroke-miterlimit="10" x1="586.19" y1="172.298" x2="586.19" y2="193.6"/>
				<g>
					<polygon fill="#3C3C41" points="582.45,173.393 586.19,166.916 589.93,173.393 					"/>
				</g>
			</g>
		</g>
	</g>
	<g id="f77d0813-503e-4294-a8a2-c0c5e582bfd9_00000091016428530049886320000002034834150615471797_">
		<path fill="#5EA0EF" d="M519.965,107.885c-0.303,1.326-1.96,2.634-4.956,3.653c-7.494,2.205-15.463,2.216-22.964,0.032
			c-2.759-0.973-4.248-2.216-4.481-3.489c-0.042-0.223,0-3.723,0-3.723l32.454-0.303
			C520.018,104.056,520.003,107.724,519.965,107.885z"/>
		
			<ellipse transform="matrix(0.9999 -0.01 0.01 0.9999 -1.0212 5.0609)" fill="#50E6FF" cx="503.775" cy="104.287" rx="16.242" ry="5.615"/>
		
			<linearGradient id="SVGID_00000156554172714279836340000006762537903895303065_" gradientUnits="userSpaceOnUse" x1="-65.403" y1="2743.948" x2="-65.403" y2="2770.3999" gradientTransform="matrix(1 0 0 -1 564 2849.6001)">
			<stop  offset="0" style="stop-color:#949494"/>
			<stop  offset="1" style="stop-color:#B3B3B3"/>
		</linearGradient>
		<path fill="url(#SVGID_00000156554172714279836340000006762537903895303065_)" d="M506.365,104.751
			c-0.008,0.494-0.407,0.893-0.901,0.901h-13.733c-0.498,0-0.901-0.404-0.901-0.901V80.101c-0.008-0.489,0.38-0.892,0.869-0.901
			h13.765c0.498,0,0.901,0.404,0.901,0.901V104.751z"/>
		<path fill="#003067" d="M493.108,88.471c0.008-0.923,0.755-1.669,1.678-1.676h7.752c0.934-0.027,1.712,0.709,1.739,1.643
			c0,0,0,0.001,0,0.001v0.032l0,0c0,0.937-0.756,1.698-1.693,1.705h-7.797C493.852,90.168,493.1,89.405,493.108,88.471
			C493.108,88.471,493.108,88.471,493.108,88.471z M494.786,85.149h7.784c0.933,0.007,1.696-0.743,1.704-1.676l0,0
			c0.001-0.016,0.001-0.033,0-0.049c-0.026-0.934-0.804-1.67-1.737-1.644c0,0-0.001,0-0.001,0h-7.75
			c-0.93,0.031-1.659,0.811-1.628,1.741C493.187,84.407,493.899,85.119,494.786,85.149z"/>
		<path fill="#50E6FF" d="M494.873,82.333c0.628,0,1.136,0.509,1.136,1.136c0,0.628-0.509,1.136-1.136,1.136
			c-0.628,0-1.136-0.509-1.136-1.136C493.736,82.841,494.245,82.333,494.873,82.333L494.873,82.333z M493.736,88.471
			c0,0.628,0.509,1.136,1.136,1.136c0.628,0,1.136-0.509,1.136-1.136s-0.509-1.136-1.136-1.136
			C494.245,87.334,493.736,87.843,493.736,88.471L493.736,88.471z"/>
		
			<linearGradient id="SVGID_00000102527753106827760190000002757505504578988936_" gradientUnits="userSpaceOnUse" x1="-58.0801" y1="2743.8491" x2="-58.0801" y2="2760.5156" gradientTransform="matrix(1 0 0 -1 564 2849.6001)">
			<stop  offset="0" style="stop-color:#0078D4"/>
			<stop  offset="1" style="stop-color:#5EA0EF"/>
		</linearGradient>
		<path fill="url(#SVGID_00000102527753106827760190000002757505504578988936_)" d="M517.725,100.51
			c-0.085-2.594-2.032-4.747-4.604-5.093c-0.186-3.634-3.248-6.449-6.884-6.329c-2.893-0.067-5.515,1.694-6.547,4.398
			c-3.109,0.372-5.479,2.963-5.574,6.093c0.137,3.536,3.108,6.294,6.644,6.168h11.693C515.33,105.7,517.658,103.388,517.725,100.51z
			"/>
		<path fill="#F2F2F2" d="M511.571,101.097v-5.316H510.1v6.524h3.877v-1.201L511.571,101.097z M500.339,98.486
			c-0.29-0.126-0.561-0.291-0.807-0.491c-0.129-0.136-0.197-0.319-0.189-0.506c-0.009-0.189,0.081-0.37,0.239-0.475
			c0.194-0.136,0.428-0.203,0.665-0.189c0.563-0.021,1.117,0.14,1.581,0.458v-1.36c-0.509-0.172-1.044-0.252-1.581-0.237
			c-0.618-0.032-1.228,0.153-1.725,0.521c-0.425,0.342-0.664,0.864-0.648,1.409c0.053,0.879,0.645,1.634,1.487,1.894
			c0.347,0.143,0.671,0.334,0.964,0.568c0.15,0.126,0.237,0.31,0.239,0.506c0.009,0.189-0.081,0.37-0.239,0.475
			c-0.211,0.137-0.461,0.203-0.712,0.189c-0.63-0.005-1.237-0.242-1.704-0.665v1.456c0.507,0.248,1.066,0.373,1.631,0.364
			c0.638,0.049,1.275-0.106,1.818-0.443c0.451-0.338,0.706-0.876,0.682-1.439c0.015-0.406-0.127-0.803-0.396-1.108
			C501.279,99.014,500.835,98.697,500.339,98.486z M508.509,100.98c0.357-0.603,0.539-1.294,0.523-1.994
			c0.021-0.614-0.116-1.224-0.396-1.771c-0.242-0.488-0.621-0.895-1.091-1.17c-0.512-0.295-1.098-0.436-1.687-0.405
			c-0.556,0.025-1.098,0.182-1.581,0.458c-0.495,0.286-0.896,0.709-1.155,1.218c-0.282,0.559-0.428,1.177-0.428,1.803
			c-0.009,0.576,0.121,1.146,0.379,1.661c0.245,0.481,0.617,0.887,1.076,1.172c0.478,0.289,1.023,0.447,1.581,0.458l1.345,1.581
			h1.894l-1.883-1.74C507.69,102.002,508.193,101.554,508.509,100.98z M507.037,100.584c-0.549,0.656-1.526,0.743-2.182,0.193
			c-0.075-0.063-0.144-0.133-0.206-0.208c-0.332-0.458-0.489-1.02-0.443-1.583c-0.046-0.566,0.117-1.128,0.458-1.581
			c0.285-0.383,0.74-0.602,1.218-0.585c0.465-0.018,0.907,0.203,1.172,0.585c0.326,0.46,0.483,1.019,0.443,1.581
			c0.048,0.574-0.119,1.146-0.468,1.604L507.037,100.584z"/>
	</g>
</g>
<g id="Text">
	<g>
		<rect x="9.295" y="14.304" fill="none" width="180.4" height="34.096"/>
		<path fill="#1E1E1E" d="M16.732,24.838c-1.403,0-2.547-0.457-3.432-1.371c-0.884-0.914-1.326-2.104-1.326-3.572
			c0-1.549,0.449-2.803,1.347-3.76c0.898-0.957,2.088-1.436,3.568-1.436c1.399,0,2.53,0.458,3.395,1.374
			c0.863,0.916,1.295,2.124,1.295,3.623c0,1.541-0.447,2.782-1.343,3.726S18.173,24.838,16.732,24.838z M16.828,16.601
			c-0.774,0-1.39,0.291-1.846,0.872c-0.455,0.581-0.684,1.35-0.684,2.307c0,0.971,0.229,1.739,0.684,2.304
			c0.456,0.565,1.053,0.848,1.791,0.848c0.762,0,1.365-0.274,1.812-0.824c0.447-0.549,0.67-1.312,0.67-2.287
			c0-1.016-0.216-1.807-0.649-2.372C18.173,16.883,17.58,16.601,16.828,16.601z"/>
		<path fill="#1E1E1E" d="M29.804,24.667H27.65v-3.89c0-1.084-0.387-1.627-1.162-1.627c-0.373,0-0.681,0.144-0.923,0.431
			c-0.241,0.287-0.362,0.652-0.362,1.094v3.992h-2.16v-7h2.16v1.107h0.027c0.516-0.852,1.265-1.278,2.249-1.278
			c1.55,0,2.324,0.961,2.324,2.885V24.667z"/>
		<path fill="#1E1E1E" d="M35.214,21.687h-3.739v-1.511h3.739V21.687z"/>
		<path fill="#1E1E1E" d="M39.111,23.854h-0.027v4.033h-2.16v-10.22h2.16v1.053h0.027c0.533-0.816,1.283-1.224,2.249-1.224
			c0.907,0,1.607,0.311,2.103,0.933c0.494,0.622,0.741,1.469,0.741,2.54c0,1.167-0.288,2.103-0.864,2.81
			c-0.577,0.707-1.344,1.06-2.301,1.06C40.196,24.838,39.554,24.51,39.111,23.854z M39.05,20.983v0.561
			c0,0.483,0.128,0.877,0.383,1.183c0.256,0.305,0.591,0.458,1.005,0.458c0.492,0,0.874-0.19,1.146-0.571
			c0.271-0.38,0.406-0.919,0.406-1.617c0-1.23-0.479-1.846-1.436-1.846c-0.441,0-0.803,0.167-1.083,0.502S39.05,20.431,39.05,20.983
			z"/>
		<path fill="#1E1E1E" d="M50.188,19.615c-0.26-0.141-0.562-0.212-0.909-0.212c-0.469,0-0.836,0.172-1.101,0.516
			c-0.264,0.344-0.396,0.812-0.396,1.405v3.343h-2.16v-7h2.16v1.299h0.027c0.342-0.948,0.957-1.422,1.846-1.422
			c0.229,0,0.406,0.027,0.533,0.082V19.615z"/>
		<path fill="#1E1E1E" d="M57.56,21.782h-4.566c0.073,1.016,0.714,1.524,1.921,1.524c0.771,0,1.447-0.182,2.03-0.547v1.559
			c-0.646,0.346-1.487,0.52-2.522,0.52c-1.13,0-2.007-0.313-2.632-0.94c-0.624-0.626-0.937-1.5-0.937-2.622
			c0-1.162,0.338-2.083,1.012-2.762c0.675-0.679,1.504-1.019,2.488-1.019c1.021,0,1.811,0.303,2.369,0.909
			c0.558,0.606,0.837,1.429,0.837,2.468V21.782z M55.557,20.456c0-1.002-0.405-1.504-1.217-1.504c-0.346,0-0.646,0.144-0.898,0.431
			s-0.407,0.645-0.462,1.073H55.557z"/>
		<path fill="#1E1E1E" d="M70.039,24.667h-2.153v-3.992c0-1.016-0.374-1.524-1.121-1.524c-0.355,0-0.646,0.153-0.868,0.458
			c-0.224,0.305-0.335,0.686-0.335,1.142v3.917h-2.16v-4.033c0-0.989-0.367-1.483-1.101-1.483c-0.369,0-0.664,0.146-0.886,0.438
			c-0.221,0.292-0.331,0.688-0.331,1.189v3.89h-2.16v-7h2.16v1.094h0.027c0.223-0.374,0.536-0.678,0.939-0.913
			s0.845-0.352,1.323-0.352c0.988,0,1.665,0.435,2.03,1.306c0.533-0.871,1.316-1.306,2.352-1.306c1.521,0,2.283,0.939,2.283,2.816
			V24.667z"/>
		<path fill="#1E1E1E" d="M72.81,16.56c-0.365,0-0.663-0.108-0.896-0.325s-0.349-0.482-0.349-0.796c0-0.324,0.116-0.588,0.349-0.793
			s0.53-0.308,0.896-0.308c0.369,0,0.669,0.103,0.898,0.308c0.23,0.205,0.346,0.469,0.346,0.793c0,0.328-0.115,0.597-0.346,0.807
			C73.479,16.455,73.179,16.56,72.81,16.56z M73.876,24.667h-2.16v-7h2.16V24.667z"/>
		<path fill="#1E1E1E" d="M75.314,24.483v-1.75c0.355,0.214,0.71,0.374,1.062,0.479c0.354,0.105,0.688,0.157,1.002,0.157
			c0.383,0,0.685-0.052,0.905-0.157c0.222-0.105,0.332-0.264,0.332-0.479c0-0.137-0.051-0.25-0.15-0.342
			c-0.101-0.091-0.229-0.171-0.387-0.239s-0.329-0.13-0.516-0.185c-0.188-0.055-0.367-0.116-0.54-0.185
			c-0.278-0.105-0.523-0.218-0.735-0.338s-0.39-0.261-0.533-0.42s-0.253-0.344-0.328-0.554s-0.112-0.458-0.112-0.745
			c0-0.392,0.085-0.729,0.256-1.012s0.399-0.514,0.684-0.694c0.285-0.18,0.611-0.312,0.978-0.396
			c0.367-0.084,0.749-0.126,1.146-0.126c0.31,0,0.624,0.024,0.943,0.072c0.318,0.048,0.633,0.117,0.943,0.208v1.668
			c-0.273-0.16-0.566-0.279-0.879-0.359c-0.312-0.08-0.618-0.12-0.919-0.12c-0.142,0-0.274,0.013-0.4,0.038
			c-0.125,0.025-0.235,0.062-0.331,0.109s-0.171,0.109-0.226,0.185s-0.082,0.161-0.082,0.256c0,0.127,0.041,0.237,0.123,0.328
			s0.188,0.17,0.321,0.236c0.132,0.066,0.279,0.125,0.44,0.178c0.162,0.052,0.322,0.106,0.482,0.161
			c0.287,0.1,0.547,0.209,0.779,0.328s0.432,0.257,0.598,0.417c0.167,0.16,0.294,0.346,0.383,0.561s0.134,0.469,0.134,0.766
			c0,0.415-0.09,0.769-0.271,1.063c-0.18,0.294-0.419,0.533-0.718,0.718c-0.298,0.185-0.643,0.319-1.032,0.403
			s-0.794,0.126-1.213,0.126C76.684,24.838,75.971,24.719,75.314,24.483z"/>
		<path fill="#1E1E1E" d="M88.264,21.782h-4.566c0.073,1.016,0.714,1.524,1.921,1.524c0.771,0,1.447-0.182,2.03-0.547v1.559
			c-0.646,0.346-1.487,0.52-2.522,0.52c-1.13,0-2.007-0.313-2.632-0.94c-0.624-0.626-0.937-1.5-0.937-2.622
			c0-1.162,0.338-2.083,1.012-2.762c0.675-0.679,1.504-1.019,2.488-1.019c1.021,0,1.811,0.303,2.369,0.909
			c0.558,0.606,0.837,1.429,0.837,2.468V21.782z M86.261,20.456c0-1.002-0.405-1.504-1.217-1.504c-0.346,0-0.646,0.144-0.898,0.431
			s-0.407,0.645-0.462,1.073H86.261z"/>
		<path fill="#1E1E1E" d="M89.252,24.483v-1.75c0.355,0.214,0.71,0.374,1.063,0.479c0.353,0.105,0.687,0.157,1.001,0.157
			c0.383,0,0.685-0.052,0.906-0.157c0.221-0.105,0.331-0.264,0.331-0.479c0-0.137-0.05-0.25-0.15-0.342
			c-0.1-0.091-0.229-0.171-0.386-0.239s-0.329-0.13-0.517-0.185c-0.187-0.055-0.366-0.116-0.54-0.185
			c-0.277-0.105-0.522-0.218-0.734-0.338s-0.39-0.261-0.533-0.42s-0.253-0.344-0.328-0.554s-0.113-0.458-0.113-0.745
			c0-0.392,0.086-0.729,0.257-1.012s0.398-0.514,0.684-0.694c0.284-0.18,0.61-0.312,0.978-0.396
			c0.366-0.084,0.748-0.126,1.145-0.126c0.311,0,0.625,0.024,0.943,0.072c0.319,0.048,0.634,0.117,0.943,0.208v1.668
			c-0.273-0.16-0.566-0.279-0.878-0.359c-0.312-0.08-0.619-0.12-0.92-0.12c-0.141,0-0.274,0.013-0.399,0.038
			c-0.126,0.025-0.236,0.062-0.332,0.109s-0.171,0.109-0.226,0.185s-0.082,0.161-0.082,0.256c0,0.127,0.041,0.237,0.123,0.328
			s0.189,0.17,0.321,0.236c0.133,0.066,0.279,0.125,0.441,0.178c0.161,0.052,0.322,0.106,0.481,0.161
			c0.287,0.1,0.547,0.209,0.779,0.328s0.432,0.257,0.599,0.417c0.166,0.16,0.294,0.346,0.383,0.561s0.133,0.469,0.133,0.766
			c0,0.415-0.09,0.769-0.27,1.063c-0.181,0.294-0.42,0.533-0.718,0.718c-0.299,0.185-0.643,0.319-1.032,0.403
			s-0.794,0.126-1.214,0.126C90.622,24.838,89.908,24.719,89.252,24.483z"/>
		<path fill="#1E1E1E" d="M98.035,22.945l-1.005,3.459h-1.682l0.697-3.459H98.035z"/>
		<path fill="#1E1E1E" d="M110.497,24.667h-2.16v-0.964h-0.027c-0.492,0.756-1.215,1.135-2.167,1.135
			c-0.875,0-1.579-0.309-2.112-0.926s-0.8-1.48-0.8-2.587c0-1.158,0.294-2.085,0.882-2.782s1.357-1.046,2.311-1.046
			c0.902,0,1.531,0.324,1.887,0.971h0.027v-4.163h2.16V24.667z M108.378,21.263v-0.526c0-0.456-0.133-0.834-0.396-1.135
			c-0.265-0.301-0.608-0.451-1.032-0.451c-0.479,0-0.853,0.188-1.121,0.564c-0.27,0.376-0.403,0.892-0.403,1.548
			c0,0.615,0.13,1.089,0.39,1.422s0.619,0.499,1.08,0.499c0.438,0,0.794-0.175,1.069-0.526
			C108.24,22.306,108.378,21.842,108.378,21.263z"/>
		<path fill="#1E1E1E" d="M118.146,24.667h-2.044v-1.005h-0.027c-0.47,0.784-1.165,1.176-2.085,1.176
			c-0.68,0-1.214-0.192-1.604-0.578s-0.584-0.899-0.584-1.542c0-1.358,0.804-2.142,2.413-2.352l1.9-0.253
			c0-0.766-0.415-1.148-1.244-1.148c-0.834,0-1.627,0.249-2.379,0.745v-1.627c0.301-0.155,0.712-0.292,1.233-0.41
			c0.522-0.119,0.997-0.178,1.426-0.178c1.996,0,2.994,0.996,2.994,2.987V24.667z M116.115,21.823v-0.472l-1.271,0.164
			c-0.702,0.091-1.053,0.408-1.053,0.95c0,0.246,0.085,0.448,0.256,0.605s0.402,0.236,0.694,0.236c0.405,0,0.735-0.14,0.991-0.42
			C115.987,22.606,116.115,22.252,116.115,21.823z"/>
		<path fill="#1E1E1E" d="M123.974,24.585c-0.319,0.168-0.8,0.253-1.442,0.253c-1.522,0-2.283-0.791-2.283-2.372V19.26h-1.135
			v-1.593h1.135v-1.511l2.153-0.615v2.126h1.572v1.593h-1.572v2.83c0,0.729,0.289,1.094,0.868,1.094
			c0.228,0,0.462-0.066,0.704-0.198V24.585z"/>
		<path fill="#1E1E1E" d="M131.154,24.667h-2.044v-1.005h-0.027c-0.469,0.784-1.164,1.176-2.085,1.176
			c-0.679,0-1.213-0.192-1.603-0.578s-0.585-0.899-0.585-1.542c0-1.358,0.805-2.142,2.413-2.352l1.9-0.253
			c0-0.766-0.414-1.148-1.244-1.148c-0.834,0-1.627,0.249-2.379,0.745v-1.627c0.301-0.155,0.712-0.292,1.234-0.41
			c0.521-0.119,0.997-0.178,1.425-0.178c1.996,0,2.994,0.996,2.994,2.987V24.667z M129.124,21.823v-0.472l-1.271,0.164
			c-0.701,0.091-1.053,0.408-1.053,0.95c0,0.246,0.086,0.448,0.257,0.605s0.402,0.236,0.693,0.236c0.406,0,0.736-0.14,0.991-0.42
			C128.997,22.606,129.124,22.252,129.124,21.823z"/>
		<path fill="#1E1E1E" d="M142.03,24.414c-0.487,0.283-1.191,0.424-2.112,0.424c-1.075,0-1.945-0.326-2.611-0.978
			c-0.665-0.652-0.998-1.493-0.998-2.522c0-1.189,0.356-2.127,1.07-2.813c0.713-0.686,1.667-1.029,2.86-1.029
			c0.825,0,1.422,0.109,1.791,0.328v1.832c-0.451-0.337-0.954-0.506-1.511-0.506c-0.619,0-1.11,0.181-1.473,0.543
			s-0.544,0.862-0.544,1.5c0,0.62,0.174,1.106,0.52,1.459c0.347,0.353,0.823,0.53,1.429,0.53c0.538,0,1.064-0.168,1.579-0.506
			V24.414z"/>
		<path fill="#1E1E1E" d="M149.746,21.782h-4.566c0.072,1.016,0.713,1.524,1.921,1.524c0.77,0,1.446-0.182,2.03-0.547v1.559
			c-0.647,0.346-1.488,0.52-2.522,0.52c-1.131,0-2.008-0.313-2.632-0.94c-0.625-0.626-0.937-1.5-0.937-2.622
			c0-1.162,0.337-2.083,1.012-2.762c0.674-0.679,1.504-1.019,2.488-1.019c1.021,0,1.811,0.303,2.368,0.909
			c0.559,0.606,0.838,1.429,0.838,2.468V21.782z M147.743,20.456c0-1.002-0.406-1.504-1.217-1.504c-0.347,0-0.646,0.144-0.899,0.431
			s-0.406,0.645-0.461,1.073H147.743z"/>
		<path fill="#1E1E1E" d="M157.872,24.667h-2.153v-3.89c0-1.084-0.388-1.627-1.162-1.627c-0.374,0-0.682,0.144-0.923,0.431
			c-0.242,0.287-0.362,0.652-0.362,1.094v3.992h-2.16v-7h2.16v1.107h0.027c0.515-0.852,1.265-1.278,2.249-1.278
			c1.549,0,2.324,0.961,2.324,2.885V24.667z"/>
		<path fill="#1E1E1E" d="M163.721,24.585c-0.318,0.168-0.8,0.253-1.442,0.253c-1.521,0-2.283-0.791-2.283-2.372V19.26h-1.135
			v-1.593h1.135v-1.511l2.153-0.615v2.126h1.572v1.593h-1.572v2.83c0,0.729,0.29,1.094,0.868,1.094c0.229,0,0.463-0.066,0.704-0.198
			V24.585z"/>
		<path fill="#1E1E1E" d="M171.207,21.782h-4.566c0.073,1.016,0.714,1.524,1.921,1.524c0.771,0,1.447-0.182,2.03-0.547v1.559
			c-0.646,0.346-1.487,0.52-2.522,0.52c-1.13,0-2.007-0.313-2.632-0.94c-0.624-0.626-0.937-1.5-0.937-2.622
			c0-1.162,0.338-2.083,1.012-2.762c0.675-0.679,1.504-1.019,2.488-1.019c1.021,0,1.811,0.303,2.369,0.909
			c0.558,0.606,0.837,1.429,0.837,2.468V21.782z M169.204,20.456c0-1.002-0.405-1.504-1.217-1.504c-0.346,0-0.646,0.144-0.898,0.431
			s-0.407,0.645-0.462,1.073H169.204z"/>
		<path fill="#1E1E1E" d="M177.139,19.615c-0.26-0.141-0.563-0.212-0.909-0.212c-0.47,0-0.837,0.172-1.101,0.516
			c-0.265,0.344-0.396,0.812-0.396,1.405v3.343h-2.16v-7h2.16v1.299h0.027c0.342-0.948,0.957-1.422,1.846-1.422
			c0.228,0,0.405,0.027,0.533,0.082V19.615z"/>
		<path fill="#1E1E1E" d="M177.896,24.483v-1.75c0.355,0.214,0.71,0.374,1.063,0.479c0.353,0.105,0.687,0.157,1.001,0.157
			c0.383,0,0.685-0.052,0.906-0.157c0.221-0.105,0.331-0.264,0.331-0.479c0-0.137-0.05-0.25-0.15-0.342
			c-0.1-0.091-0.229-0.171-0.386-0.239s-0.329-0.13-0.517-0.185c-0.187-0.055-0.366-0.116-0.54-0.185
			c-0.277-0.105-0.522-0.218-0.734-0.338s-0.39-0.261-0.533-0.42s-0.253-0.344-0.328-0.554s-0.113-0.458-0.113-0.745
			c0-0.392,0.086-0.729,0.257-1.012s0.398-0.514,0.684-0.694c0.284-0.18,0.61-0.312,0.978-0.396
			c0.366-0.084,0.748-0.126,1.145-0.126c0.311,0,0.625,0.024,0.943,0.072c0.319,0.048,0.634,0.117,0.943,0.208v1.668
			c-0.273-0.16-0.566-0.279-0.878-0.359c-0.312-0.08-0.619-0.12-0.92-0.12c-0.141,0-0.274,0.013-0.399,0.038
			c-0.126,0.025-0.236,0.062-0.332,0.109s-0.171,0.109-0.226,0.185s-0.082,0.161-0.082,0.256c0,0.127,0.041,0.237,0.123,0.328
			s0.189,0.17,0.321,0.236c0.133,0.066,0.279,0.125,0.441,0.178c0.161,0.052,0.322,0.106,0.481,0.161
			c0.287,0.1,0.547,0.209,0.779,0.328s0.432,0.257,0.599,0.417c0.166,0.16,0.294,0.346,0.383,0.561s0.133,0.469,0.133,0.766
			c0,0.415-0.09,0.769-0.27,1.063c-0.181,0.294-0.42,0.533-0.718,0.718c-0.299,0.185-0.643,0.319-1.032,0.403
			s-0.794,0.126-1.214,0.126C179.267,24.838,178.553,24.719,177.896,24.483z"/>
		<path fill="#1E1E1E" d="M186.68,22.945l-1.005,3.459h-1.682l0.697-3.459H186.68z"/>
		<path fill="#1E1E1E" d="M53.569,41.638c-1.167,0-2.084-0.327-2.752-0.981c-0.667-0.654-1.001-1.542-1.001-2.663
			c0-1.158,0.346-2.063,1.039-2.717c0.692-0.654,1.629-0.981,2.81-0.981c1.162,0,2.073,0.327,2.734,0.981
			c0.66,0.654,0.991,1.519,0.991,2.594c0,1.162-0.341,2.081-1.022,2.755C55.688,41.3,54.754,41.638,53.569,41.638z M53.624,35.95
			c-0.511,0-0.907,0.175-1.189,0.526c-0.283,0.351-0.424,0.848-0.424,1.49c0,1.344,0.542,2.017,1.627,2.017
			c1.034,0,1.552-0.69,1.552-2.071C55.189,36.604,54.667,35.95,53.624,35.95z"/>
		<path fill="#1E1E1E" d="M63.337,36.415c-0.26-0.141-0.562-0.212-0.909-0.212c-0.469,0-0.836,0.172-1.101,0.516
			c-0.264,0.344-0.396,0.812-0.396,1.405v3.343h-2.16v-7h2.16v1.299h0.027c0.342-0.948,0.957-1.422,1.846-1.422
			c0.229,0,0.406,0.027,0.533,0.082V36.415z"/>
		<path fill="#1E1E1E" d="M71.54,41.638c-1.166,0-2.084-0.327-2.751-0.981c-0.668-0.654-1.002-1.542-1.002-2.663
			c0-1.158,0.347-2.063,1.039-2.717c0.693-0.654,1.63-0.981,2.81-0.981c1.162,0,2.074,0.327,2.734,0.981
			c0.661,0.654,0.991,1.519,0.991,2.594c0,1.162-0.341,2.081-1.021,2.755C73.658,41.3,72.726,41.638,71.54,41.638z M71.595,35.95
			c-0.51,0-0.906,0.175-1.189,0.526c-0.282,0.351-0.424,0.848-0.424,1.49c0,1.344,0.543,2.017,1.627,2.017
			c1.035,0,1.552-0.69,1.552-2.071C73.16,36.604,72.639,35.95,71.595,35.95z"/>
		<path fill="#1E1E1E" d="M80.937,41.385c-0.318,0.168-0.8,0.253-1.442,0.253c-1.521,0-2.283-0.791-2.283-2.372V36.06h-1.135v-1.593
			h1.135v-1.511l2.153-0.615v2.126h1.572v1.593h-1.572v2.83c0,0.729,0.29,1.094,0.868,1.094c0.229,0,0.463-0.066,0.704-0.198V41.385
			z"/>
		<path fill="#1E1E1E" d="M89.007,41.467h-2.153v-3.979c0-1.025-0.374-1.538-1.121-1.538c-0.383,0-0.693,0.144-0.93,0.431
			c-0.237,0.287-0.355,0.652-0.355,1.094v3.992h-2.16V31.104h2.16v4.402h0.027c0.528-0.807,1.246-1.21,2.153-1.21
			c1.586,0,2.379,0.957,2.379,2.871V41.467z"/>
		<path fill="#1E1E1E" d="M97.027,38.582h-4.566c0.072,1.016,0.713,1.524,1.921,1.524c0.77,0,1.446-0.182,2.03-0.547v1.559
			c-0.647,0.346-1.488,0.52-2.522,0.52c-1.131,0-2.008-0.313-2.632-0.94c-0.625-0.626-0.937-1.5-0.937-2.622
			c0-1.162,0.337-2.083,1.012-2.762c0.674-0.679,1.504-1.019,2.488-1.019c1.021,0,1.811,0.303,2.368,0.909
			c0.559,0.606,0.838,1.429,0.838,2.468V38.582z M95.024,37.256c0-1.002-0.406-1.504-1.217-1.504c-0.347,0-0.646,0.144-0.899,0.431
			s-0.406,0.645-0.461,1.073H95.024z"/>
		<path fill="#1E1E1E" d="M102.958,36.415c-0.26-0.141-0.562-0.212-0.909-0.212c-0.469,0-0.836,0.172-1.101,0.516
			c-0.264,0.344-0.396,0.812-0.396,1.405v3.343h-2.16v-7h2.16v1.299h0.027c0.342-0.948,0.957-1.422,1.846-1.422
			c0.229,0,0.406,0.027,0.533,0.082V36.415z"/>
		<path fill="#1E1E1E" d="M113.13,41.214c-0.487,0.283-1.191,0.424-2.112,0.424c-1.075,0-1.945-0.326-2.611-0.978
			c-0.665-0.652-0.998-1.493-0.998-2.522c0-1.189,0.356-2.127,1.07-2.813c0.713-0.686,1.667-1.029,2.86-1.029
			c0.825,0,1.422,0.109,1.791,0.328v1.832c-0.451-0.337-0.954-0.506-1.511-0.506c-0.619,0-1.11,0.181-1.473,0.543
			s-0.544,0.862-0.544,1.5c0,0.62,0.174,1.106,0.52,1.459c0.347,0.353,0.823,0.53,1.429,0.53c0.538,0,1.064-0.168,1.579-0.506
			V41.214z"/>
		<path fill="#1E1E1E" d="M116.812,41.467h-2.16V31.104h2.16V41.467z"/>
		<path fill="#1E1E1E" d="M121.955,41.638c-1.167,0-2.084-0.327-2.752-0.981c-0.667-0.654-1.001-1.542-1.001-2.663
			c0-1.158,0.346-2.063,1.039-2.717c0.692-0.654,1.629-0.981,2.81-0.981c1.162,0,2.073,0.327,2.734,0.981
			c0.66,0.654,0.991,1.519,0.991,2.594c0,1.162-0.341,2.081-1.022,2.755C124.073,41.3,123.14,41.638,121.955,41.638z M122.01,35.95
			c-0.511,0-0.907,0.175-1.189,0.526c-0.283,0.351-0.424,0.848-0.424,1.49c0,1.344,0.542,2.017,1.627,2.017
			c1.034,0,1.552-0.69,1.552-2.071C123.575,36.604,123.053,35.95,122.01,35.95z"/>
		<path fill="#1E1E1E" d="M133.81,41.467h-2.153v-1.066h-0.034c-0.533,0.825-1.247,1.237-2.14,1.237
			c-1.623,0-2.434-0.982-2.434-2.946v-4.225h2.153V38.5c0,0.989,0.392,1.483,1.176,1.483c0.387,0,0.697-0.136,0.93-0.407
			s0.349-0.639,0.349-1.104v-4.006h2.153V41.467z"/>
		<path fill="#1E1E1E" d="M142.494,41.467h-2.16v-0.964h-0.027c-0.492,0.756-1.215,1.135-2.167,1.135
			c-0.875,0-1.579-0.309-2.112-0.926s-0.8-1.48-0.8-2.587c0-1.158,0.294-2.085,0.882-2.782s1.357-1.046,2.311-1.046
			c0.902,0,1.531,0.324,1.887,0.971h0.027v-4.163h2.16V41.467z M140.375,38.063v-0.526c0-0.456-0.133-0.834-0.396-1.135
			c-0.265-0.301-0.608-0.451-1.032-0.451c-0.479,0-0.853,0.188-1.121,0.564c-0.27,0.376-0.403,0.892-0.403,1.548
			c0,0.615,0.13,1.089,0.39,1.422s0.619,0.499,1.08,0.499c0.438,0,0.794-0.175,1.069-0.526
			C140.237,39.106,140.375,38.641,140.375,38.063z"/>
		<path fill="#1E1E1E" d="M143.958,41.282v-1.75c0.355,0.214,0.71,0.374,1.063,0.479c0.353,0.105,0.687,0.157,1.001,0.157
			c0.383,0,0.685-0.052,0.906-0.157c0.221-0.105,0.331-0.264,0.331-0.479c0-0.137-0.05-0.25-0.15-0.342
			c-0.1-0.091-0.229-0.171-0.386-0.239s-0.329-0.13-0.517-0.185c-0.187-0.055-0.366-0.116-0.54-0.185
			c-0.277-0.105-0.522-0.218-0.734-0.338s-0.39-0.261-0.533-0.42s-0.253-0.344-0.328-0.554s-0.113-0.458-0.113-0.745
			c0-0.392,0.086-0.729,0.257-1.012s0.398-0.514,0.684-0.694c0.284-0.18,0.61-0.312,0.978-0.396
			c0.366-0.084,0.748-0.126,1.145-0.126c0.311,0,0.625,0.024,0.943,0.072c0.319,0.048,0.634,0.117,0.943,0.208v1.668
			c-0.273-0.16-0.566-0.279-0.878-0.359c-0.312-0.08-0.619-0.12-0.92-0.12c-0.141,0-0.274,0.013-0.399,0.038
			c-0.126,0.025-0.236,0.062-0.332,0.109s-0.171,0.109-0.226,0.185s-0.082,0.161-0.082,0.256c0,0.127,0.041,0.237,0.123,0.328
			s0.189,0.17,0.321,0.236c0.133,0.066,0.279,0.125,0.441,0.178c0.161,0.052,0.322,0.106,0.481,0.161
			c0.287,0.1,0.547,0.209,0.779,0.328s0.432,0.257,0.599,0.417c0.166,0.16,0.294,0.346,0.383,0.561s0.133,0.469,0.133,0.766
			c0,0.415-0.09,0.769-0.27,1.063c-0.181,0.294-0.42,0.533-0.718,0.718c-0.299,0.185-0.643,0.319-1.032,0.403
			s-0.794,0.126-1.214,0.126C145.328,41.638,144.614,41.519,143.958,41.282z"/>
	</g>
	<g>
		<rect x="44.495" y="127.6" fill="none" width="105.6" height="17.6"/>
		<path fill="#2F2F2F" d="M62.242,137.587V135.4c0.396,0.333,0.827,0.582,1.292,0.749s0.935,0.25,1.408,0.25
			c0.278,0,0.521-0.025,0.729-0.075c0.207-0.05,0.38-0.12,0.52-0.208c0.139-0.089,0.242-0.194,0.311-0.314s0.103-0.252,0.103-0.393
			c0-0.191-0.055-0.362-0.164-0.513s-0.259-0.29-0.447-0.417c-0.189-0.127-0.414-0.25-0.674-0.369s-0.54-0.239-0.841-0.362
			c-0.766-0.319-1.336-0.708-1.712-1.169s-0.564-1.016-0.564-1.668c0-0.51,0.103-0.949,0.308-1.316s0.484-0.669,0.838-0.906
			c0.353-0.237,0.762-0.411,1.227-0.523s0.957-0.167,1.477-0.167c0.511,0,0.963,0.031,1.357,0.092
			c0.394,0.062,0.758,0.156,1.09,0.284v2.044c-0.164-0.114-0.343-0.214-0.536-0.301c-0.194-0.086-0.394-0.158-0.599-0.215
			s-0.409-0.099-0.611-0.126c-0.203-0.027-0.396-0.041-0.578-0.041c-0.25,0-0.479,0.024-0.684,0.072s-0.378,0.115-0.52,0.202
			c-0.141,0.086-0.25,0.19-0.328,0.311c-0.077,0.121-0.116,0.256-0.116,0.407c0,0.164,0.044,0.311,0.13,0.441
			c0.087,0.13,0.21,0.253,0.369,0.369c0.16,0.116,0.354,0.23,0.581,0.342c0.229,0.112,0.485,0.227,0.772,0.345
			c0.393,0.164,0.744,0.338,1.057,0.523c0.312,0.185,0.58,0.393,0.803,0.625c0.224,0.232,0.395,0.498,0.513,0.796
			c0.119,0.298,0.178,0.646,0.178,1.042c0,0.547-0.104,1.006-0.311,1.377c-0.208,0.372-0.489,0.672-0.845,0.902
			s-0.769,0.396-1.24,0.496s-0.97,0.15-1.494,0.15c-0.537,0-1.049-0.045-1.534-0.137S62.598,137.769,62.242,137.587z"/>
		<path fill="#2F2F2F" d="M74.603,138.134c-1.403,0-2.547-0.456-3.432-1.367c-0.884-0.92-1.326-2.112-1.326-3.575
			c0-1.545,0.449-2.798,1.347-3.76c0.894-0.957,2.083-1.436,3.568-1.436c1.399,0,2.529,0.458,3.391,1.374
			c0.866,0.912,1.299,2.119,1.299,3.623c0,1.536-0.449,2.778-1.347,3.726c-0.032,0.032-0.062,0.062-0.089,0.092
			s-0.057,0.058-0.089,0.085l2.481,2.386h-3.09l-1.299-1.319C75.59,138.077,75.118,138.134,74.603,138.134z M74.698,129.897
			c-0.77,0-1.385,0.292-1.846,0.875c-0.455,0.579-0.684,1.347-0.684,2.304c0,0.971,0.229,1.739,0.684,2.304
			c0.456,0.565,1.053,0.848,1.791,0.848c0.762,0,1.365-0.273,1.812-0.82c0.446-0.556,0.67-1.319,0.67-2.29
			c0-1.012-0.217-1.802-0.649-2.372C76.048,130.179,75.455,129.897,74.698,129.897z"/>
		<path fill="#2F2F2F" d="M86.866,137.963h-5.838v-9.803h2.208v8.012h3.63V137.963z"/>
		<path fill="#2F2F2F" d="M91.597,137.587V135.4c0.396,0.333,0.827,0.582,1.292,0.749s0.935,0.25,1.408,0.25
			c0.278,0,0.521-0.025,0.728-0.075c0.208-0.05,0.381-0.12,0.52-0.208c0.14-0.089,0.243-0.194,0.312-0.314s0.103-0.252,0.103-0.393
			c0-0.191-0.055-0.362-0.164-0.513s-0.259-0.29-0.447-0.417c-0.189-0.127-0.414-0.25-0.674-0.369s-0.54-0.239-0.841-0.362
			c-0.766-0.319-1.337-0.708-1.712-1.169c-0.377-0.46-0.564-1.016-0.564-1.668c0-0.51,0.103-0.949,0.308-1.316
			s0.484-0.669,0.837-0.906c0.354-0.237,0.763-0.411,1.228-0.523s0.957-0.167,1.477-0.167c0.511,0,0.963,0.031,1.356,0.092
			c0.395,0.062,0.758,0.156,1.091,0.284v2.044c-0.164-0.114-0.343-0.214-0.536-0.301c-0.194-0.086-0.394-0.158-0.599-0.215
			s-0.409-0.099-0.612-0.126c-0.202-0.027-0.395-0.041-0.577-0.041c-0.251,0-0.479,0.024-0.684,0.072s-0.378,0.115-0.52,0.202
			s-0.251,0.19-0.328,0.311s-0.116,0.256-0.116,0.407c0,0.164,0.043,0.311,0.13,0.441s0.21,0.253,0.369,0.369
			s0.354,0.23,0.581,0.342s0.485,0.227,0.772,0.345c0.392,0.164,0.744,0.338,1.056,0.523c0.312,0.185,0.58,0.393,0.804,0.625
			s0.395,0.498,0.513,0.796s0.178,0.646,0.178,1.042c0,0.547-0.104,1.006-0.311,1.377c-0.208,0.372-0.489,0.672-0.845,0.902
			s-0.769,0.396-1.241,0.496c-0.471,0.1-0.969,0.15-1.493,0.15c-0.538,0-1.05-0.045-1.534-0.137
			C92.372,137.906,91.952,137.769,91.597,137.587z"/>
		<path fill="#2F2F2F" d="M105.973,135.078h-4.566c0.073,1.016,0.713,1.524,1.921,1.524c0.771,0,1.447-0.182,2.03-0.547v1.559
			c-0.647,0.346-1.488,0.52-2.522,0.52c-1.13,0-2.008-0.313-2.632-0.94s-0.937-1.5-0.937-2.622c0-1.162,0.337-2.083,1.012-2.762
			s1.504-1.019,2.488-1.019c1.021,0,1.811,0.303,2.369,0.909c0.558,0.606,0.837,1.429,0.837,2.468V135.078z M103.97,133.752
			c0-1.002-0.405-1.504-1.217-1.504c-0.347,0-0.646,0.144-0.898,0.431c-0.254,0.287-0.407,0.645-0.462,1.073H103.97z"/>
		<path fill="#2F2F2F" d="M111.904,132.911c-0.26-0.141-0.562-0.212-0.909-0.212c-0.47,0-0.836,0.172-1.101,0.516
			s-0.396,0.812-0.396,1.405v3.343h-2.16v-7h2.16v1.299h0.027c0.342-0.948,0.957-1.422,1.846-1.422c0.228,0,0.405,0.027,0.533,0.082
			V132.911z"/>
		<path fill="#2F2F2F" d="M120.003,130.963l-2.604,7h-2.461l-2.481-7h2.311l1.217,4.313c0.137,0.488,0.217,0.902,0.239,1.244h0.027
			c0.032-0.324,0.116-0.725,0.253-1.203l1.244-4.354H120.003z"/>
		<path fill="#2F2F2F" d="M126.99,135.078h-4.566c0.073,1.016,0.713,1.524,1.921,1.524c0.771,0,1.447-0.182,2.03-0.547v1.559
			c-0.647,0.346-1.488,0.52-2.522,0.52c-1.13,0-2.008-0.313-2.632-0.94s-0.937-1.5-0.937-2.622c0-1.162,0.337-2.083,1.012-2.762
			s1.504-1.019,2.488-1.019c1.021,0,1.811,0.303,2.369,0.909c0.558,0.606,0.837,1.429,0.837,2.468V135.078z M124.987,133.752
			c0-1.002-0.405-1.504-1.217-1.504c-0.347,0-0.646,0.144-0.898,0.431c-0.254,0.287-0.407,0.645-0.462,1.073H124.987z"/>
		<path fill="#2F2F2F" d="M132.922,132.911c-0.26-0.141-0.562-0.212-0.909-0.212c-0.47,0-0.836,0.172-1.101,0.516
			s-0.396,0.812-0.396,1.405v3.343h-2.16v-7h2.16v1.299h0.027c0.342-0.948,0.957-1.422,1.846-1.422c0.228,0,0.405,0.027,0.533,0.082
			V132.911z"/>
	</g>
	<g>
		<g>
			<path fill="#2F2F2F" d="M441.494,218.701h-1.271l-1.039-2.748h-4.156l-0.978,2.748h-1.278l3.76-9.803h1.189L441.494,218.701z
				 M438.808,214.921l-1.538-4.177c-0.05-0.137-0.1-0.355-0.15-0.656h-0.027c-0.045,0.278-0.098,0.497-0.157,0.656l-1.524,4.177
				H438.808z"/>
			<path fill="#2F2F2F" d="M448.105,212.023l-4.143,5.722h4.102v0.957h-5.749v-0.349l4.143-5.694h-3.753v-0.957h5.4V212.023z"/>
			<path fill="#2F2F2F" d="M455.202,218.701h-1.121v-1.107h-0.027c-0.465,0.848-1.185,1.271-2.16,1.271
				c-1.668,0-2.502-0.994-2.502-2.98v-4.184h1.114v4.006c0,1.477,0.565,2.215,1.695,2.215c0.547,0,0.997-0.202,1.351-0.605
				c0.353-0.403,0.529-0.931,0.529-1.583v-4.033h1.121V218.701z"/>
			<path fill="#2F2F2F" d="M460.96,212.836c-0.196-0.15-0.479-0.226-0.848-0.226c-0.479,0-0.879,0.226-1.199,0.677
				c-0.322,0.451-0.482,1.066-0.482,1.846v3.568h-1.121v-7h1.121v1.442h0.027c0.159-0.492,0.403-0.876,0.731-1.152
				s0.695-0.414,1.101-0.414c0.292,0,0.515,0.032,0.67,0.096V212.836z"/>
			<path fill="#2F2F2F" d="M467.803,215.482h-4.942c0.019,0.779,0.228,1.381,0.629,1.805s0.952,0.636,1.654,0.636
				c0.788,0,1.513-0.26,2.174-0.779v1.053c-0.615,0.447-1.429,0.67-2.44,0.67c-0.989,0-1.766-0.318-2.331-0.954
				s-0.848-1.53-0.848-2.683c0-1.089,0.309-1.977,0.926-2.663c0.618-0.686,1.385-1.029,2.301-1.029s1.625,0.296,2.126,0.889
				s0.752,1.415,0.752,2.468V215.482z M466.654,214.531c-0.005-0.647-0.161-1.151-0.468-1.511c-0.309-0.36-0.735-0.54-1.282-0.54
				c-0.528,0-0.978,0.189-1.347,0.567s-0.597,0.873-0.684,1.483H466.654z"/>
			<path fill="#2F2F2F" d="M473.025,218.305v-1.354c0.155,0.137,0.341,0.26,0.558,0.369c0.216,0.109,0.443,0.202,0.684,0.277
				c0.238,0.075,0.479,0.133,0.721,0.174s0.465,0.062,0.67,0.062c0.706,0,1.234-0.131,1.582-0.393
				c0.35-0.262,0.523-0.639,0.523-1.131c0-0.264-0.059-0.495-0.174-0.69c-0.117-0.196-0.277-0.375-0.482-0.537
				s-0.447-0.317-0.729-0.465c-0.279-0.148-0.582-0.304-0.905-0.468c-0.342-0.173-0.661-0.349-0.957-0.526s-0.554-0.374-0.772-0.588
				s-0.391-0.457-0.516-0.728c-0.126-0.271-0.188-0.589-0.188-0.954c0-0.447,0.098-0.835,0.294-1.166s0.453-0.603,0.772-0.817
				s0.683-0.374,1.091-0.479c0.407-0.105,0.823-0.157,1.247-0.157c0.966,0,1.67,0.116,2.112,0.349v1.292
				c-0.579-0.401-1.321-0.602-2.229-0.602c-0.251,0-0.501,0.026-0.752,0.079s-0.474,0.138-0.67,0.256s-0.355,0.271-0.479,0.458
				s-0.185,0.415-0.185,0.684c0,0.25,0.047,0.467,0.14,0.649c0.094,0.182,0.231,0.349,0.414,0.499s0.404,0.296,0.666,0.438
				c0.263,0.141,0.564,0.296,0.906,0.465c0.351,0.173,0.684,0.355,0.998,0.547s0.59,0.403,0.827,0.636s0.425,0.49,0.563,0.772
				c0.14,0.283,0.209,0.606,0.209,0.971c0,0.483-0.095,0.892-0.283,1.227c-0.189,0.335-0.445,0.607-0.766,0.817
				c-0.322,0.209-0.692,0.361-1.111,0.455s-0.861,0.14-1.326,0.14c-0.155,0-0.347-0.013-0.574-0.038s-0.46-0.062-0.697-0.109
				s-0.461-0.107-0.674-0.178C473.323,218.47,473.153,218.391,473.025,218.305z"/>
			<path fill="#2F2F2F" d="M485.896,211.701l-3.22,8.121c-0.574,1.449-1.381,2.174-2.42,2.174c-0.292,0-0.535-0.03-0.731-0.089
				v-1.005c0.241,0.082,0.463,0.123,0.663,0.123c0.565,0,0.989-0.337,1.271-1.012l0.561-1.326l-2.734-6.986h1.244l1.894,5.387
				c0.022,0.068,0.07,0.246,0.144,0.533h0.041c0.022-0.109,0.068-0.283,0.137-0.52l1.989-5.4H485.896z"/>
			<path fill="#2F2F2F" d="M492.949,218.701h-1.121v-3.992c0-1.486-0.542-2.229-1.627-2.229c-0.561,0-1.024,0.211-1.391,0.632
				c-0.367,0.421-0.551,0.954-0.551,1.596v3.992h-1.121v-7h1.121v1.162h0.027c0.528-0.884,1.294-1.326,2.297-1.326
				c0.766,0,1.352,0.247,1.757,0.742s0.608,1.209,0.608,2.143V218.701z"/>
			<path fill="#2F2F2F" d="M499.979,218.701h-1.121v-1.094h-0.027c-0.487,0.838-1.205,1.258-2.153,1.258
				c-0.697,0-1.243-0.185-1.637-0.554c-0.395-0.369-0.592-0.859-0.592-1.47c0-1.308,0.771-2.069,2.311-2.283l2.099-0.294
				c0-1.189-0.48-1.784-1.442-1.784c-0.843,0-1.604,0.287-2.283,0.861v-1.148c0.688-0.438,1.481-0.656,2.379-0.656
				c1.646,0,2.468,0.871,2.468,2.611V218.701z M498.858,215.16l-1.688,0.232c-0.52,0.073-0.911,0.202-1.176,0.386
				s-0.396,0.512-0.396,0.981c0,0.342,0.122,0.621,0.365,0.837c0.244,0.216,0.569,0.325,0.975,0.325
				c0.556,0,1.016-0.195,1.377-0.584c0.363-0.39,0.544-0.883,0.544-1.48V215.16z"/>
			<path fill="#2F2F2F" d="M503.148,217.69h-0.027v4.231H502v-10.22h1.121v1.23h0.027c0.552-0.93,1.358-1.395,2.42-1.395
				c0.902,0,1.606,0.313,2.112,0.94s0.759,1.466,0.759,2.519c0,1.171-0.285,2.109-0.854,2.813s-1.349,1.056-2.338,1.056
				C504.34,218.865,503.641,218.473,503.148,217.69z M503.121,214.866v0.978c0,0.579,0.188,1.07,0.564,1.473
				c0.375,0.403,0.853,0.605,1.432,0.605c0.679,0,1.211-0.26,1.596-0.779c0.386-0.52,0.578-1.242,0.578-2.167
				c0-0.779-0.18-1.39-0.54-1.832s-0.848-0.663-1.463-0.663c-0.651,0-1.176,0.227-1.572,0.68S503.121,214.183,503.121,214.866z"/>
			<path fill="#2F2F2F" d="M509.714,218.448v-1.203c0.61,0.451,1.283,0.677,2.017,0.677c0.984,0,1.477-0.328,1.477-0.984
				c0-0.187-0.042-0.345-0.126-0.475c-0.085-0.13-0.199-0.245-0.342-0.345c-0.145-0.1-0.312-0.19-0.506-0.27
				c-0.194-0.08-0.402-0.163-0.626-0.25c-0.31-0.123-0.582-0.247-0.817-0.373c-0.234-0.125-0.43-0.267-0.588-0.424
				c-0.156-0.157-0.275-0.336-0.355-0.537c-0.079-0.201-0.119-0.435-0.119-0.704c0-0.328,0.075-0.619,0.226-0.872
				s0.351-0.465,0.602-0.636s0.536-0.3,0.858-0.386c0.32-0.086,0.652-0.13,0.994-0.13c0.606,0,1.148,0.105,1.627,0.314v1.135
				c-0.515-0.337-1.107-0.506-1.777-0.506c-0.21,0-0.398,0.024-0.567,0.072s-0.313,0.115-0.435,0.202
				c-0.12,0.086-0.214,0.19-0.279,0.311c-0.066,0.121-0.1,0.254-0.1,0.4c0,0.182,0.033,0.335,0.1,0.458
				c0.065,0.123,0.162,0.232,0.29,0.328s0.282,0.182,0.465,0.26s0.39,0.162,0.622,0.253c0.31,0.119,0.588,0.24,0.834,0.366
				s0.456,0.267,0.629,0.424s0.307,0.338,0.4,0.543c0.093,0.205,0.14,0.449,0.14,0.731c0,0.346-0.076,0.647-0.229,0.902
				c-0.152,0.255-0.356,0.467-0.611,0.636s-0.549,0.294-0.882,0.376s-0.682,0.123-1.046,0.123
				C510.867,218.865,510.242,218.726,509.714,218.448z"/>
			<path fill="#2F2F2F" d="M521.669,215.482h-4.942c0.019,0.779,0.228,1.381,0.629,1.805s0.952,0.636,1.654,0.636
				c0.788,0,1.513-0.26,2.174-0.779v1.053c-0.615,0.447-1.429,0.67-2.44,0.67c-0.989,0-1.766-0.318-2.331-0.954
				s-0.848-1.53-0.848-2.683c0-1.089,0.309-1.977,0.926-2.663c0.618-0.686,1.385-1.029,2.301-1.029s1.625,0.296,2.126,0.889
				s0.752,1.415,0.752,2.468V215.482z M520.521,214.531c-0.005-0.647-0.161-1.151-0.468-1.511c-0.309-0.36-0.735-0.54-1.282-0.54
				c-0.528,0-0.978,0.189-1.347,0.567s-0.597,0.873-0.684,1.483H520.521z"/>
			<path fill="#2F2F2F" d="M441.494,235.501h-1.271l-1.039-2.748h-4.156l-0.978,2.748h-1.278l3.76-9.803h1.189L441.494,235.501z
				 M438.808,231.721l-1.538-4.177c-0.05-0.137-0.1-0.355-0.15-0.656h-0.027c-0.045,0.278-0.098,0.497-0.157,0.656l-1.524,4.177
				H438.808z"/>
			<path fill="#2F2F2F" d="M448.577,235.501h-1.121v-3.992c0-1.486-0.542-2.229-1.627-2.229c-0.561,0-1.024,0.211-1.391,0.632
				c-0.367,0.421-0.551,0.954-0.551,1.596v3.992h-1.121v-7h1.121v1.162h0.027c0.528-0.884,1.294-1.326,2.297-1.326
				c0.766,0,1.352,0.247,1.757,0.742s0.608,1.209,0.608,2.143V235.501z"/>
			<path fill="#2F2F2F" d="M455.607,235.501h-1.121v-1.094h-0.027c-0.487,0.838-1.205,1.258-2.153,1.258
				c-0.697,0-1.243-0.185-1.637-0.554c-0.395-0.369-0.592-0.859-0.592-1.47c0-1.308,0.771-2.069,2.311-2.283l2.099-0.294
				c0-1.189-0.48-1.784-1.442-1.784c-0.843,0-1.604,0.287-2.283,0.861v-1.148c0.688-0.438,1.481-0.656,2.379-0.656
				c1.646,0,2.468,0.871,2.468,2.611V235.501z M454.486,231.96l-1.688,0.232c-0.52,0.073-0.911,0.202-1.176,0.386
				s-0.396,0.512-0.396,0.981c0,0.342,0.122,0.621,0.365,0.837c0.244,0.216,0.569,0.325,0.975,0.325
				c0.556,0,1.016-0.195,1.377-0.584c0.363-0.39,0.544-0.883,0.544-1.48V231.96z"/>
			<path fill="#2F2F2F" d="M458.749,235.501h-1.121v-10.363h1.121V235.501z"/>
			<path fill="#2F2F2F" d="M466.619,228.501l-3.22,8.121c-0.574,1.449-1.381,2.174-2.42,2.174c-0.292,0-0.535-0.03-0.731-0.089
				v-1.005c0.241,0.082,0.463,0.123,0.663,0.123c0.565,0,0.989-0.337,1.271-1.012l0.561-1.326l-2.734-6.986h1.244l1.894,5.387
				c0.022,0.068,0.07,0.246,0.144,0.533h0.041c0.022-0.109,0.068-0.283,0.137-0.52l1.989-5.4H466.619z"/>
			<path fill="#2F2F2F" d="M471.537,235.433c-0.265,0.146-0.613,0.219-1.046,0.219c-1.226,0-1.839-0.684-1.839-2.051v-4.143h-1.203
				v-0.957h1.203v-1.709l1.121-0.362v2.071h1.764v0.957h-1.764v3.944c0,0.469,0.08,0.804,0.239,1.005s0.424,0.301,0.793,0.301
				c0.282,0,0.526-0.078,0.731-0.232V235.433z"/>
			<path fill="#2F2F2F" d="M473.492,226.724c-0.2,0-0.371-0.068-0.513-0.205s-0.212-0.31-0.212-0.52s0.07-0.384,0.212-0.523
				s0.312-0.208,0.513-0.208c0.205,0,0.379,0.069,0.523,0.208c0.143,0.139,0.215,0.313,0.215,0.523c0,0.201-0.072,0.372-0.215,0.513
				C473.871,226.653,473.697,226.724,473.492,226.724z M474.039,235.501h-1.121v-7h1.121V235.501z"/>
			<path fill="#2F2F2F" d="M480.951,235.18c-0.538,0.324-1.176,0.485-1.914,0.485c-0.998,0-1.804-0.325-2.416-0.974
				c-0.613-0.649-0.92-1.491-0.92-2.526c0-1.153,0.33-2.079,0.991-2.779s1.543-1.049,2.646-1.049c0.615,0,1.157,0.114,1.627,0.342
				v1.148c-0.52-0.365-1.075-0.547-1.668-0.547c-0.716,0-1.303,0.256-1.76,0.769c-0.459,0.513-0.688,1.186-0.688,2.02
				c0,0.82,0.215,1.467,0.646,1.941c0.43,0.474,1.008,0.711,1.732,0.711c0.61,0,1.185-0.203,1.723-0.608V235.18z"/>
			<path fill="#2F2F2F" d="M482.223,235.248v-1.203c0.61,0.451,1.283,0.677,2.017,0.677c0.984,0,1.477-0.328,1.477-0.984
				c0-0.187-0.042-0.345-0.126-0.475c-0.085-0.13-0.199-0.245-0.342-0.345c-0.145-0.1-0.312-0.19-0.506-0.27
				c-0.194-0.08-0.402-0.163-0.626-0.25c-0.31-0.123-0.582-0.247-0.817-0.373c-0.234-0.125-0.43-0.267-0.588-0.424
				c-0.156-0.157-0.275-0.336-0.355-0.537c-0.079-0.201-0.119-0.435-0.119-0.704c0-0.328,0.075-0.619,0.226-0.872
				s0.351-0.465,0.602-0.636s0.536-0.3,0.858-0.386c0.32-0.086,0.652-0.13,0.994-0.13c0.606,0,1.148,0.105,1.627,0.314v1.135
				c-0.515-0.337-1.107-0.506-1.777-0.506c-0.21,0-0.398,0.024-0.567,0.072s-0.313,0.115-0.435,0.202
				c-0.12,0.086-0.214,0.19-0.279,0.311c-0.066,0.121-0.1,0.254-0.1,0.4c0,0.182,0.033,0.335,0.1,0.458
				c0.065,0.123,0.162,0.232,0.29,0.328s0.282,0.182,0.465,0.26s0.39,0.162,0.622,0.253c0.31,0.119,0.588,0.24,0.834,0.366
				s0.456,0.267,0.629,0.424s0.307,0.338,0.4,0.543c0.093,0.205,0.14,0.449,0.14,0.731c0,0.346-0.076,0.647-0.229,0.902
				c-0.152,0.255-0.356,0.467-0.611,0.636s-0.549,0.294-0.882,0.376s-0.682,0.123-1.046,0.123
				C483.376,235.665,482.751,235.526,482.223,235.248z"/>
		</g>
	</g>
	<g>
		<g>
			<path fill="#2F2F2F" d="M614.069,224.863h-1.141v-6.576c0-0.52,0.031-1.155,0.096-1.907h-0.027
				c-0.109,0.442-0.207,0.759-0.295,0.95l-3.35,7.533h-0.561l-3.343-7.479c-0.096-0.219-0.193-0.554-0.294-1.005h-0.027
				c0.037,0.393,0.055,1.032,0.055,1.921v6.562h-1.107v-9.803h1.518l3.008,6.836c0.232,0.524,0.383,0.916,0.451,1.176h0.041
				c0.196-0.537,0.354-0.938,0.472-1.203l3.069-6.809h1.436V224.863z"/>
			<path fill="#2F2F2F" d="M621.384,224.863h-1.121v-1.094h-0.027c-0.487,0.839-1.205,1.258-2.153,1.258
				c-0.697,0-1.243-0.185-1.637-0.554c-0.395-0.369-0.592-0.858-0.592-1.47c0-1.308,0.771-2.068,2.311-2.283l2.099-0.294
				c0-1.189-0.48-1.784-1.442-1.784c-0.843,0-1.604,0.287-2.283,0.861v-1.148c0.688-0.438,1.481-0.656,2.379-0.656
				c1.646,0,2.468,0.871,2.468,2.611V224.863z M620.263,221.322l-1.688,0.232c-0.52,0.073-0.911,0.202-1.176,0.387
				s-0.396,0.512-0.396,0.98c0,0.342,0.122,0.621,0.365,0.838c0.244,0.216,0.569,0.324,0.975,0.324c0.556,0,1.016-0.194,1.377-0.584
				c0.363-0.39,0.544-0.883,0.544-1.48V221.322z"/>
			<path fill="#2F2F2F" d="M628.228,224.542c-0.538,0.324-1.176,0.485-1.914,0.485c-0.998,0-1.804-0.324-2.416-0.974
				c-0.613-0.649-0.92-1.491-0.92-2.526c0-1.152,0.33-2.079,0.991-2.778c0.661-0.7,1.543-1.05,2.646-1.05
				c0.615,0,1.157,0.114,1.627,0.342v1.148c-0.52-0.364-1.075-0.547-1.668-0.547c-0.716,0-1.303,0.257-1.76,0.77
				c-0.459,0.513-0.688,1.186-0.688,2.02c0,0.82,0.215,1.468,0.646,1.941c0.43,0.475,1.008,0.711,1.732,0.711
				c0.61,0,1.185-0.202,1.723-0.608V224.542z"/>
			<path fill="#2F2F2F" d="M635.526,224.863h-1.121v-4.033c0-1.458-0.542-2.188-1.627-2.188c-0.547,0-1.007,0.211-1.381,0.633
				c-0.374,0.421-0.561,0.963-0.561,1.623v3.965h-1.121V214.5h1.121v4.525h0.027c0.538-0.884,1.304-1.326,2.297-1.326
				c1.577,0,2.365,0.95,2.365,2.851V224.863z"/>
			<path fill="#2F2F2F" d="M638.11,216.086c-0.2,0-0.371-0.068-0.513-0.205s-0.212-0.31-0.212-0.52c0-0.209,0.07-0.384,0.212-0.522
				c0.142-0.14,0.312-0.209,0.513-0.209c0.205,0,0.379,0.069,0.523,0.209c0.143,0.139,0.215,0.313,0.215,0.522
				c0,0.201-0.072,0.372-0.215,0.513C638.489,216.016,638.315,216.086,638.11,216.086z M638.657,224.863h-1.121v-7h1.121V224.863z"
				/>
			<path fill="#2F2F2F" d="M646.586,224.863h-1.121v-3.992c0-1.485-0.542-2.229-1.627-2.229c-0.561,0-1.024,0.211-1.391,0.633
				c-0.367,0.421-0.551,0.953-0.551,1.596v3.992h-1.121v-7h1.121v1.162h0.027c0.528-0.884,1.294-1.326,2.297-1.326
				c0.766,0,1.352,0.247,1.757,0.742c0.405,0.494,0.608,1.209,0.608,2.143V224.863z"/>
			<path fill="#2F2F2F" d="M654.289,221.644h-4.942c0.019,0.779,0.228,1.381,0.629,1.805s0.952,0.636,1.654,0.636
				c0.788,0,1.513-0.26,2.174-0.779v1.053c-0.615,0.447-1.429,0.67-2.44,0.67c-0.989,0-1.766-0.317-2.331-0.953
				s-0.848-1.53-0.848-2.684c0-1.089,0.309-1.977,0.926-2.662c0.618-0.687,1.385-1.029,2.301-1.029s1.625,0.297,2.126,0.889
				c0.501,0.593,0.752,1.415,0.752,2.468V221.644z M653.141,220.694c-0.005-0.646-0.161-1.15-0.468-1.511
				c-0.309-0.359-0.735-0.54-1.282-0.54c-0.528,0-0.978,0.189-1.347,0.567c-0.369,0.379-0.597,0.873-0.684,1.483H653.141z"/>
			<path fill="#2F2F2F" d="M665.056,224.863h-5.086v-9.803h1.148v8.764h3.938V224.863z"/>
			<path fill="#2F2F2F" d="M671.977,221.644h-4.942c0.019,0.779,0.228,1.381,0.629,1.805s0.952,0.636,1.654,0.636
				c0.788,0,1.513-0.26,2.174-0.779v1.053c-0.615,0.447-1.429,0.67-2.44,0.67c-0.989,0-1.766-0.317-2.331-0.953
				s-0.848-1.53-0.848-2.684c0-1.089,0.309-1.977,0.926-2.662c0.618-0.687,1.385-1.029,2.301-1.029s1.625,0.297,2.126,0.889
				c0.501,0.593,0.752,1.415,0.752,2.468V221.644z M670.828,220.694c-0.005-0.646-0.161-1.15-0.468-1.511
				c-0.309-0.359-0.735-0.54-1.282-0.54c-0.528,0-0.978,0.189-1.347,0.567c-0.369,0.379-0.597,0.873-0.684,1.483H670.828z"/>
			<path fill="#2F2F2F" d="M678.615,224.863h-1.121v-1.094h-0.027c-0.487,0.839-1.205,1.258-2.153,1.258
				c-0.697,0-1.243-0.185-1.637-0.554c-0.395-0.369-0.592-0.858-0.592-1.47c0-1.308,0.771-2.068,2.311-2.283l2.099-0.294
				c0-1.189-0.48-1.784-1.442-1.784c-0.843,0-1.604,0.287-2.283,0.861v-1.148c0.688-0.438,1.481-0.656,2.379-0.656
				c1.646,0,2.468,0.871,2.468,2.611V224.863z M677.494,221.322l-1.688,0.232c-0.52,0.073-0.911,0.202-1.176,0.387
				s-0.396,0.512-0.396,0.98c0,0.342,0.122,0.621,0.365,0.838c0.244,0.216,0.569,0.324,0.975,0.324c0.556,0,1.016-0.194,1.377-0.584
				c0.363-0.39,0.544-0.883,0.544-1.48V221.322z"/>
			<path fill="#2F2F2F" d="M684.287,218.998c-0.196-0.15-0.479-0.226-0.848-0.226c-0.479,0-0.879,0.226-1.199,0.677
				c-0.322,0.451-0.482,1.066-0.482,1.846v3.568h-1.121v-7h1.121v1.442h0.027c0.159-0.492,0.403-0.876,0.731-1.151
				c0.328-0.276,0.695-0.414,1.101-0.414c0.292,0,0.515,0.032,0.67,0.096V218.998z"/>
			<path fill="#2F2F2F" d="M691.341,224.863h-1.121v-3.992c0-1.485-0.542-2.229-1.627-2.229c-0.561,0-1.024,0.211-1.391,0.633
				c-0.367,0.421-0.551,0.953-0.551,1.596v3.992h-1.121v-7h1.121v1.162h0.027c0.528-0.884,1.294-1.326,2.297-1.326
				c0.766,0,1.352,0.247,1.757,0.742c0.405,0.494,0.608,1.209,0.608,2.143V224.863z"/>
			<path fill="#2F2F2F" d="M693.926,216.086c-0.2,0-0.371-0.068-0.513-0.205s-0.212-0.31-0.212-0.52c0-0.209,0.07-0.384,0.212-0.522
				c0.142-0.14,0.312-0.209,0.513-0.209c0.205,0,0.379,0.069,0.523,0.209c0.143,0.139,0.215,0.313,0.215,0.522
				c0,0.201-0.072,0.372-0.215,0.513C694.305,216.016,694.131,216.086,693.926,216.086z M694.473,224.863h-1.121v-7h1.121V224.863z"
				/>
			<path fill="#2F2F2F" d="M702.401,224.863h-1.121v-3.992c0-1.485-0.542-2.229-1.627-2.229c-0.561,0-1.024,0.211-1.391,0.633
				c-0.367,0.421-0.551,0.953-0.551,1.596v3.992h-1.121v-7h1.121v1.162h0.027c0.528-0.884,1.294-1.326,2.297-1.326
				c0.766,0,1.352,0.247,1.757,0.742c0.405,0.494,0.608,1.209,0.608,2.143V224.863z"/>
			<path fill="#2F2F2F" d="M710.476,224.303c0,2.57-1.23,3.855-3.691,3.855c-0.866,0-1.622-0.164-2.27-0.492v-1.121
				c0.788,0.438,1.54,0.656,2.256,0.656c1.723,0,2.584-0.916,2.584-2.748v-0.766h-0.027c-0.533,0.894-1.335,1.34-2.406,1.34
				c-0.87,0-1.571-0.311-2.102-0.933c-0.531-0.622-0.797-1.457-0.797-2.506c0-1.189,0.286-2.135,0.857-2.837
				c0.572-0.701,1.355-1.053,2.349-1.053c0.943,0,1.643,0.379,2.099,1.135h0.027v-0.971h1.121V224.303z M709.354,221.698v-1.032
				c0-0.556-0.188-1.032-0.564-1.429c-0.375-0.396-0.844-0.595-1.404-0.595c-0.692,0-1.235,0.252-1.627,0.756
				c-0.392,0.503-0.588,1.209-0.588,2.115c0,0.779,0.188,1.402,0.564,1.87c0.375,0.467,0.873,0.7,1.493,0.7
				c0.629,0,1.141-0.223,1.534-0.67C709.157,222.968,709.354,222.396,709.354,221.698z"/>
		</g>
	</g>
	<g>
		<rect x="215.767" y="112.22" fill="none" width="106.081" height="37.38"/>
		<path fill="#2F2F2F" d="M250.11,122.584h-2.181v-5.865c0-0.633,0.027-1.333,0.082-2.099h-0.055
			c-0.114,0.602-0.217,1.035-0.308,1.299l-2.297,6.665h-1.805l-2.338-6.597c-0.063-0.178-0.166-0.633-0.308-1.367h-0.062
			c0.06,0.966,0.089,1.814,0.089,2.543v5.421h-1.989v-9.803h3.233l2.003,5.811c0.159,0.465,0.275,0.932,0.349,1.401h0.041
			c0.123-0.542,0.253-1.014,0.39-1.415l2.003-5.797h3.151V122.584z"/>
		<path fill="#2F2F2F" d="M257.93,122.584h-2.044v-1.005h-0.027c-0.47,0.784-1.164,1.176-2.085,1.176
			c-0.679,0-1.214-0.192-1.603-0.578c-0.391-0.385-0.585-0.899-0.585-1.542c0-1.358,0.805-2.142,2.413-2.352l1.9-0.253
			c0-0.766-0.415-1.148-1.244-1.148c-0.834,0-1.627,0.249-2.379,0.745v-1.627c0.301-0.155,0.712-0.292,1.234-0.41
			c0.521-0.119,0.996-0.178,1.425-0.178c1.996,0,2.994,0.996,2.994,2.987V122.584z M255.899,119.74v-0.472l-1.271,0.164
			c-0.702,0.091-1.053,0.408-1.053,0.95c0,0.246,0.086,0.448,0.256,0.605c0.172,0.157,0.402,0.236,0.694,0.236
			c0.405,0,0.736-0.14,0.991-0.42S255.899,120.168,255.899,119.74z"/>
		<path fill="#2F2F2F" d="M266.388,122.584h-2.153v-3.89c0-1.084-0.388-1.627-1.162-1.627c-0.374,0-0.682,0.144-0.923,0.431
			s-0.362,0.652-0.362,1.094v3.992h-2.16v-7h2.16v1.107h0.027c0.515-0.852,1.265-1.278,2.249-1.278c1.55,0,2.324,0.961,2.324,2.885
			V122.584z"/>
		<path fill="#2F2F2F" d="M273.953,122.584h-2.044v-1.005h-0.027c-0.47,0.784-1.164,1.176-2.085,1.176
			c-0.679,0-1.214-0.192-1.603-0.578c-0.391-0.385-0.585-0.899-0.585-1.542c0-1.358,0.805-2.142,2.413-2.352l1.9-0.253
			c0-0.766-0.415-1.148-1.244-1.148c-0.834,0-1.627,0.249-2.379,0.745v-1.627c0.301-0.155,0.712-0.292,1.234-0.41
			c0.521-0.119,0.996-0.178,1.425-0.178c1.996,0,2.994,0.996,2.994,2.987V122.584z M271.923,119.74v-0.472l-1.271,0.164
			c-0.702,0.091-1.053,0.408-1.053,0.95c0,0.246,0.086,0.448,0.256,0.605c0.172,0.157,0.402,0.236,0.694,0.236
			c0.405,0,0.736-0.14,0.991-0.42S271.923,120.168,271.923,119.74z"/>
		<path fill="#2F2F2F" d="M282.548,121.784c0,1.299-0.376,2.305-1.128,3.018s-1.841,1.07-3.268,1.07
			c-0.943,0-1.69-0.134-2.242-0.403v-1.818c0.72,0.419,1.447,0.629,2.181,0.629c0.729,0,1.294-0.192,1.695-0.578
			s0.602-0.908,0.602-1.569v-0.554h-0.027c-0.492,0.784-1.219,1.176-2.181,1.176c-0.894,0-1.602-0.314-2.126-0.943
			s-0.786-1.472-0.786-2.529c0-1.185,0.292-2.126,0.875-2.823s1.352-1.046,2.304-1.046c0.853,0,1.49,0.328,1.914,0.984h0.027v-0.813
			h2.16V121.784z M280.415,119.22v-0.554c0-0.442-0.131-0.819-0.394-1.131c-0.262-0.312-0.603-0.468-1.021-0.468
			c-0.479,0-0.854,0.187-1.128,0.561s-0.41,0.9-0.41,1.579c0,0.583,0.13,1.045,0.39,1.384s0.615,0.509,1.066,0.509
			c0.446,0,0.808-0.172,1.084-0.516C280.277,120.24,280.415,119.785,280.415,119.22z"/>
		<path fill="#2F2F2F" d="M290.642,119.699h-4.566c0.073,1.016,0.713,1.524,1.921,1.524c0.771,0,1.447-0.182,2.03-0.547v1.559
			c-0.647,0.346-1.488,0.52-2.522,0.52c-1.13,0-2.008-0.313-2.632-0.94s-0.937-1.5-0.937-2.622c0-1.162,0.337-2.083,1.012-2.762
			s1.504-1.019,2.488-1.019c1.021,0,1.811,0.303,2.369,0.909c0.558,0.606,0.837,1.429,0.837,2.468V119.699z M288.639,118.373
			c0-1.002-0.405-1.504-1.217-1.504c-0.347,0-0.646,0.144-0.898,0.431c-0.254,0.287-0.407,0.645-0.462,1.073H288.639z"/>
		<path fill="#2F2F2F" d="M298.887,122.584h-2.16v-0.964h-0.027c-0.492,0.756-1.215,1.135-2.167,1.135
			c-0.875,0-1.579-0.309-2.112-0.926s-0.8-1.48-0.8-2.587c0-1.158,0.294-2.085,0.882-2.782s1.358-1.046,2.311-1.046
			c0.902,0,1.531,0.324,1.887,0.971h0.027v-4.163h2.16V122.584z M296.768,119.179v-0.526c0-0.456-0.132-0.834-0.396-1.135
			s-0.608-0.451-1.032-0.451c-0.479,0-0.853,0.188-1.121,0.564s-0.403,0.892-0.403,1.548c0,0.615,0.13,1.089,0.39,1.422
			s0.62,0.499,1.08,0.499c0.438,0,0.794-0.175,1.07-0.526C296.63,120.223,296.768,119.758,296.768,119.179z"/>
		<path fill="#2F2F2F" d="M230.647,139.383h-2.208v-9.803h2.208V139.383z"/>
		<path fill="#2F2F2F" d="M239.348,139.383h-2.153v-3.89c0-1.084-0.388-1.627-1.162-1.627c-0.374,0-0.682,0.144-0.923,0.431
			s-0.362,0.652-0.362,1.094v3.992h-2.16v-7h2.16v1.107h0.027c0.515-0.852,1.265-1.278,2.249-1.278c1.55,0,2.324,0.961,2.324,2.885
			V139.383z"/>
		<path fill="#2F2F2F" d="M240.722,139.199v-1.75c0.355,0.214,0.71,0.374,1.062,0.479c0.354,0.105,0.688,0.157,1.002,0.157
			c0.383,0,0.685-0.052,0.906-0.157c0.221-0.105,0.331-0.264,0.331-0.479c0-0.137-0.05-0.25-0.15-0.342s-0.229-0.171-0.386-0.239
			c-0.158-0.068-0.33-0.13-0.517-0.185s-0.367-0.116-0.54-0.185c-0.278-0.105-0.523-0.218-0.734-0.338
			c-0.213-0.121-0.391-0.261-0.533-0.42c-0.145-0.16-0.254-0.344-0.328-0.554c-0.076-0.209-0.113-0.458-0.113-0.745
			c0-0.392,0.086-0.729,0.256-1.012c0.172-0.283,0.399-0.514,0.684-0.694c0.285-0.18,0.611-0.312,0.979-0.396
			c0.366-0.084,0.748-0.126,1.145-0.126c0.31,0,0.624,0.024,0.943,0.072s0.634,0.117,0.943,0.208v1.668
			c-0.273-0.16-0.566-0.279-0.879-0.359c-0.312-0.08-0.618-0.12-0.919-0.12c-0.142,0-0.274,0.013-0.399,0.038
			c-0.126,0.025-0.236,0.062-0.332,0.109s-0.171,0.109-0.226,0.185s-0.082,0.161-0.082,0.256c0,0.127,0.041,0.237,0.123,0.328
			s0.189,0.17,0.321,0.236s0.279,0.125,0.441,0.178c0.161,0.052,0.322,0.106,0.481,0.161c0.287,0.1,0.547,0.209,0.779,0.328
			s0.432,0.257,0.599,0.417c0.166,0.16,0.293,0.346,0.383,0.561c0.088,0.214,0.133,0.469,0.133,0.766c0,0.415-0.09,0.769-0.27,1.063
			c-0.181,0.294-0.42,0.533-0.719,0.718c-0.298,0.185-0.643,0.319-1.031,0.403c-0.391,0.084-0.795,0.126-1.214,0.126
			C242.091,139.554,241.378,139.436,240.722,139.199z"/>
		<path fill="#2F2F2F" d="M251.528,139.301c-0.319,0.168-0.8,0.253-1.442,0.253c-1.522,0-2.283-0.791-2.283-2.372v-3.206h-1.135
			v-1.593h1.135v-1.511l2.153-0.615v2.126h1.572v1.593h-1.572v2.83c0,0.729,0.289,1.094,0.868,1.094
			c0.228,0,0.463-0.066,0.704-0.198V139.301z"/>
		<path fill="#2F2F2F" d="M258.71,139.383h-2.044v-1.005h-0.027c-0.47,0.784-1.164,1.176-2.085,1.176
			c-0.679,0-1.214-0.192-1.603-0.578c-0.391-0.385-0.585-0.899-0.585-1.542c0-1.358,0.805-2.142,2.413-2.352l1.9-0.253
			c0-0.766-0.415-1.148-1.244-1.148c-0.834,0-1.627,0.249-2.379,0.745V132.8c0.301-0.155,0.712-0.292,1.234-0.41
			c0.521-0.119,0.996-0.178,1.425-0.178c1.996,0,2.994,0.996,2.994,2.987V139.383z M256.68,136.54v-0.472l-1.271,0.164
			c-0.702,0.091-1.053,0.408-1.053,0.95c0,0.246,0.086,0.448,0.256,0.605c0.172,0.157,0.402,0.236,0.694,0.236
			c0.405,0,0.736-0.14,0.991-0.42S256.68,136.968,256.68,136.54z"/>
		<path fill="#2F2F2F" d="M267.167,139.383h-2.153v-3.89c0-1.084-0.388-1.627-1.162-1.627c-0.374,0-0.682,0.144-0.923,0.431
			s-0.362,0.652-0.362,1.094v3.992h-2.16v-7h2.16v1.107h0.027c0.515-0.852,1.265-1.278,2.249-1.278c1.55,0,2.324,0.961,2.324,2.885
			V139.383z"/>
		<path fill="#2F2F2F" d="M274.181,139.131c-0.487,0.283-1.191,0.424-2.112,0.424c-1.075,0-1.946-0.326-2.611-0.978
			s-0.998-1.493-0.998-2.522c0-1.189,0.356-2.127,1.07-2.813c0.713-0.686,1.666-1.029,2.86-1.029c0.825,0,1.422,0.109,1.791,0.328
			v1.832c-0.451-0.337-0.955-0.506-1.511-0.506c-0.62,0-1.111,0.181-1.473,0.543c-0.363,0.362-0.544,0.862-0.544,1.5
			c0,0.62,0.173,1.106,0.52,1.459s0.822,0.53,1.429,0.53c0.538,0,1.064-0.168,1.579-0.506V139.131z"/>
		<path fill="#2F2F2F" d="M281.896,136.499h-4.566c0.073,1.016,0.713,1.524,1.921,1.524c0.771,0,1.447-0.182,2.03-0.547v1.559
			c-0.647,0.346-1.488,0.52-2.522,0.52c-1.13,0-2.008-0.313-2.632-0.94s-0.937-1.5-0.937-2.622c0-1.162,0.337-2.083,1.012-2.762
			s1.504-1.019,2.488-1.019c1.021,0,1.811,0.303,2.369,0.909c0.558,0.606,0.837,1.429,0.837,2.468V136.499z M279.893,135.173
			c0-1.002-0.405-1.504-1.217-1.504c-0.347,0-0.646,0.144-0.898,0.431c-0.254,0.287-0.407,0.645-0.462,1.073H279.893z"/>
		<path fill="#2F2F2F" d="M289.203,139.383h-2.16V129.02h2.16V139.383z"/>
		<path fill="#2F2F2F" d="M292.072,131.276c-0.364,0-0.663-0.108-0.896-0.325s-0.349-0.482-0.349-0.796
			c0-0.324,0.116-0.588,0.349-0.793s0.531-0.308,0.896-0.308c0.369,0,0.669,0.103,0.899,0.308c0.229,0.205,0.345,0.469,0.345,0.793
			c0,0.328-0.115,0.597-0.345,0.807C292.741,131.171,292.441,131.276,292.072,131.276z M293.139,139.383h-2.16v-7h2.16V139.383z"/>
		<path fill="#2F2F2F" d="M301.682,139.383h-2.153v-3.89c0-1.084-0.388-1.627-1.162-1.627c-0.374,0-0.682,0.144-0.923,0.431
			s-0.362,0.652-0.362,1.094v3.992h-2.16v-7h2.16v1.107h0.027c0.515-0.852,1.265-1.278,2.249-1.278c1.55,0,2.324,0.961,2.324,2.885
			V139.383z"/>
		<path fill="#2F2F2F" d="M310.393,139.383h-2.591l-2.235-3.473h-0.027v3.473h-2.16V129.02h2.16v6.597h0.027l2.085-3.233h2.563
			l-2.509,3.288L310.393,139.383z"/>
	</g>
	<g>
		<rect x="428.976" y="124.154" fill="none" width="149.6" height="35.2"/>
		<path fill="#2F2F2F" d="M446.615,134.518h-2.406l-0.697-2.181h-3.486l-0.691,2.181h-2.393l3.568-9.803h2.619L446.615,134.518z
			 M443.006,130.642l-1.053-3.295c-0.078-0.246-0.133-0.54-0.164-0.882h-0.055c-0.023,0.287-0.08,0.572-0.172,0.854l-1.066,3.322
			H443.006z"/>
		<path fill="#2F2F2F" d="M453.52,134.518h-6.281v-0.896l3.514-4.512h-3.166v-1.593h5.906v1.066l-3.328,4.341h3.355V134.518z"/>
		<path fill="#2F2F2F" d="M461.402,134.518h-2.152v-1.066h-0.035c-0.533,0.825-1.246,1.237-2.139,1.237
			c-1.623,0-2.434-0.982-2.434-2.946v-4.225h2.152v4.033c0,0.989,0.393,1.483,1.176,1.483c0.389,0,0.697-0.136,0.93-0.407
			s0.35-0.639,0.35-1.104v-4.006h2.152V134.518z"/>
		<path fill="#2F2F2F" d="M467.736,129.466c-0.26-0.141-0.562-0.212-0.908-0.212c-0.471,0-0.836,0.172-1.102,0.516
			c-0.264,0.344-0.396,0.812-0.396,1.405v3.343h-2.16v-7h2.16v1.299h0.027c0.342-0.948,0.957-1.422,1.846-1.422
			c0.229,0,0.406,0.027,0.533,0.082V129.466z"/>
		<path fill="#2F2F2F" d="M475.109,131.633h-4.566c0.072,1.016,0.713,1.524,1.92,1.524c0.771,0,1.447-0.182,2.031-0.547v1.559
			c-0.648,0.346-1.488,0.52-2.523,0.52c-1.129,0-2.008-0.313-2.631-0.94c-0.625-0.626-0.938-1.5-0.938-2.622
			c0-1.162,0.338-2.083,1.012-2.762c0.676-0.679,1.504-1.019,2.488-1.019c1.021,0,1.811,0.303,2.369,0.909s0.838,1.429,0.838,2.468
			V131.633z M473.105,130.307c0-1.002-0.404-1.504-1.217-1.504c-0.346,0-0.646,0.144-0.898,0.431
			c-0.254,0.287-0.406,0.645-0.461,1.073H473.105z"/>
		<path fill="#2F2F2F" d="M480.018,134.142v-2.188c0.396,0.333,0.826,0.582,1.291,0.749s0.936,0.25,1.408,0.25
			c0.279,0,0.521-0.025,0.729-0.075s0.381-0.12,0.52-0.208s0.242-0.194,0.311-0.314s0.104-0.252,0.104-0.393
			c0-0.191-0.055-0.362-0.164-0.513s-0.26-0.29-0.447-0.417c-0.189-0.127-0.414-0.25-0.674-0.369s-0.541-0.239-0.842-0.362
			c-0.766-0.319-1.336-0.708-1.711-1.169c-0.377-0.46-0.564-1.016-0.564-1.668c0-0.51,0.102-0.949,0.307-1.316
			s0.484-0.669,0.838-0.906s0.762-0.411,1.227-0.523s0.957-0.167,1.477-0.167c0.512,0,0.963,0.031,1.357,0.092
			s0.758,0.156,1.09,0.284v2.044c-0.164-0.114-0.342-0.214-0.535-0.301c-0.195-0.086-0.395-0.158-0.6-0.215
			s-0.408-0.099-0.611-0.126s-0.395-0.041-0.578-0.041c-0.25,0-0.479,0.024-0.684,0.072s-0.377,0.115-0.52,0.202
			c-0.141,0.086-0.25,0.19-0.328,0.311c-0.076,0.121-0.115,0.256-0.115,0.407c0,0.164,0.043,0.311,0.129,0.441
			c0.088,0.13,0.211,0.253,0.369,0.369c0.16,0.116,0.354,0.23,0.582,0.342c0.227,0.112,0.484,0.227,0.771,0.345
			c0.393,0.164,0.744,0.338,1.057,0.523s0.58,0.393,0.803,0.625c0.225,0.232,0.395,0.498,0.514,0.796
			c0.117,0.298,0.178,0.646,0.178,1.042c0,0.547-0.104,1.006-0.311,1.377c-0.209,0.372-0.49,0.672-0.846,0.902
			s-0.768,0.396-1.24,0.496c-0.471,0.1-0.969,0.15-1.494,0.15c-0.537,0-1.049-0.045-1.533-0.137
			C480.793,134.461,480.373,134.324,480.018,134.142z"/>
		<path fill="#2F2F2F" d="M492.377,134.689c-1.402,0-2.547-0.456-3.432-1.367c-0.883-0.92-1.326-2.112-1.326-3.575
			c0-1.545,0.449-2.798,1.348-3.76c0.893-0.957,2.082-1.436,3.568-1.436c1.398,0,2.529,0.458,3.391,1.374
			c0.865,0.912,1.299,2.119,1.299,3.623c0,1.536-0.449,2.778-1.348,3.726c-0.031,0.032-0.061,0.062-0.088,0.092
			s-0.057,0.058-0.09,0.085l2.482,2.386h-3.09l-1.299-1.319C493.363,134.632,492.893,134.689,492.377,134.689z M492.473,126.451
			c-0.77,0-1.385,0.292-1.846,0.875c-0.455,0.579-0.684,1.347-0.684,2.304c0,0.971,0.229,1.739,0.684,2.304
			c0.457,0.565,1.053,0.848,1.791,0.848c0.762,0,1.365-0.273,1.812-0.82c0.445-0.556,0.67-1.319,0.67-2.29
			c0-1.012-0.217-1.802-0.65-2.372C493.822,126.734,493.23,126.451,492.473,126.451z"/>
		<path fill="#2F2F2F" d="M504.641,134.518h-5.838v-9.803h2.209v8.012h3.629V134.518z"/>
		<path fill="#2F2F2F" d="M520.992,134.518h-2.18v-5.865c0-0.633,0.027-1.333,0.082-2.099h-0.055
			c-0.115,0.602-0.217,1.035-0.309,1.299l-2.297,6.665h-1.805l-2.338-6.597c-0.062-0.178-0.166-0.633-0.307-1.367h-0.062
			c0.061,0.966,0.09,1.814,0.09,2.543v5.421h-1.99v-9.803h3.234l2.002,5.811c0.16,0.465,0.275,0.932,0.35,1.401h0.041
			c0.123-0.542,0.252-1.014,0.389-1.415l2.004-5.797h3.15V134.518z"/>
		<path fill="#2F2F2F" d="M528.812,134.518h-2.043v-1.005h-0.027c-0.471,0.784-1.164,1.176-2.086,1.176
			c-0.678,0-1.213-0.192-1.602-0.578c-0.391-0.385-0.586-0.899-0.586-1.542c0-1.358,0.805-2.142,2.414-2.352l1.9-0.253
			c0-0.766-0.416-1.148-1.244-1.148c-0.834,0-1.627,0.249-2.379,0.745v-1.627c0.301-0.155,0.711-0.292,1.234-0.41
			c0.521-0.119,0.996-0.178,1.424-0.178c1.996,0,2.994,0.996,2.994,2.987V134.518z M526.783,131.674v-0.472l-1.271,0.164
			c-0.703,0.091-1.053,0.408-1.053,0.95c0,0.246,0.086,0.448,0.256,0.605c0.172,0.157,0.402,0.236,0.693,0.236
			c0.406,0,0.736-0.14,0.992-0.42C526.654,132.457,526.783,132.102,526.783,131.674z"/>
		<path fill="#2F2F2F" d="M537.27,134.518h-2.152v-3.89c0-1.084-0.389-1.627-1.162-1.627c-0.375,0-0.682,0.144-0.924,0.431
			c-0.24,0.287-0.361,0.652-0.361,1.094v3.992h-2.16v-7h2.16v1.107h0.027c0.514-0.852,1.264-1.278,2.248-1.278
			c1.551,0,2.324,0.961,2.324,2.885V134.518z"/>
		<path fill="#2F2F2F" d="M544.836,134.518h-2.045v-1.005h-0.027c-0.469,0.784-1.164,1.176-2.084,1.176
			c-0.68,0-1.215-0.192-1.604-0.578c-0.391-0.385-0.584-0.899-0.584-1.542c0-1.358,0.805-2.142,2.412-2.352l1.9-0.253
			c0-0.766-0.414-1.148-1.244-1.148c-0.834,0-1.627,0.249-2.379,0.745v-1.627c0.301-0.155,0.713-0.292,1.234-0.41
			s0.996-0.178,1.426-0.178c1.996,0,2.994,0.996,2.994,2.987V134.518z M542.805,131.674v-0.472l-1.271,0.164
			c-0.701,0.091-1.053,0.408-1.053,0.95c0,0.246,0.086,0.448,0.256,0.605c0.172,0.157,0.402,0.236,0.695,0.236
			c0.404,0,0.736-0.14,0.99-0.42C542.678,132.457,542.805,132.102,542.805,131.674z"/>
		<path fill="#2F2F2F" d="M553.43,133.718c0,1.299-0.375,2.305-1.127,3.018s-1.842,1.07-3.268,1.07
			c-0.943,0-1.691-0.134-2.242-0.403v-1.818c0.719,0.419,1.447,0.629,2.18,0.629c0.73,0,1.295-0.192,1.695-0.578
			c0.402-0.385,0.602-0.908,0.602-1.569v-0.554h-0.027c-0.492,0.784-1.219,1.176-2.18,1.176c-0.895,0-1.602-0.314-2.127-0.943
			c-0.523-0.629-0.785-1.472-0.785-2.529c0-1.185,0.291-2.126,0.875-2.823c0.582-0.697,1.352-1.046,2.303-1.046
			c0.854,0,1.49,0.328,1.914,0.984h0.027v-0.813h2.16V133.718z M551.297,131.154v-0.554c0-0.442-0.131-0.819-0.393-1.131
			s-0.604-0.468-1.021-0.468c-0.479,0-0.855,0.187-1.129,0.561s-0.41,0.9-0.41,1.579c0,0.583,0.131,1.045,0.391,1.384
			s0.615,0.509,1.066,0.509c0.445,0,0.807-0.172,1.084-0.516C551.16,132.174,551.297,131.719,551.297,131.154z"/>
		<path fill="#2F2F2F" d="M561.523,131.633h-4.566c0.074,1.016,0.713,1.524,1.922,1.524c0.77,0,1.447-0.182,2.029-0.547v1.559
			c-0.646,0.346-1.488,0.52-2.521,0.52c-1.131,0-2.008-0.313-2.633-0.94c-0.623-0.626-0.936-1.5-0.936-2.622
			c0-1.162,0.336-2.083,1.012-2.762c0.674-0.679,1.504-1.019,2.488-1.019c1.02,0,1.811,0.303,2.369,0.909
			c0.557,0.606,0.836,1.429,0.836,2.468V131.633z M559.521,130.307c0-1.002-0.406-1.504-1.217-1.504
			c-0.348,0-0.646,0.144-0.898,0.431c-0.254,0.287-0.408,0.645-0.463,1.073H559.521z"/>
		<path fill="#2F2F2F" d="M569.77,134.518h-2.16v-0.964h-0.027c-0.492,0.756-1.215,1.135-2.168,1.135
			c-0.875,0-1.578-0.309-2.111-0.926s-0.801-1.48-0.801-2.587c0-1.158,0.295-2.085,0.883-2.782s1.357-1.046,2.311-1.046
			c0.902,0,1.531,0.324,1.887,0.971h0.027v-4.163h2.16V134.518z M567.65,131.113v-0.526c0-0.456-0.133-0.834-0.396-1.135
			c-0.266-0.301-0.609-0.451-1.033-0.451c-0.479,0-0.852,0.188-1.121,0.564c-0.268,0.376-0.402,0.892-0.402,1.548
			c0,0.615,0.129,1.089,0.389,1.422s0.621,0.499,1.08,0.499c0.438,0,0.795-0.175,1.07-0.526S567.65,131.692,567.65,131.113z"/>
		<path fill="#2F2F2F" d="M479.629,151.318h-2.209v-9.803h2.209V151.318z"/>
		<path fill="#2F2F2F" d="M488.328,151.318h-2.152v-3.89c0-1.084-0.389-1.627-1.162-1.627c-0.375,0-0.682,0.144-0.924,0.431
			c-0.24,0.287-0.361,0.652-0.361,1.094v3.992h-2.16v-7h2.16v1.107h0.027c0.514-0.852,1.264-1.278,2.248-1.278
			c1.551,0,2.324,0.961,2.324,2.885V151.318z"/>
		<path fill="#2F2F2F" d="M489.703,151.133v-1.75c0.355,0.214,0.709,0.374,1.062,0.479s0.688,0.157,1.002,0.157
			c0.383,0,0.684-0.052,0.906-0.157c0.221-0.105,0.33-0.264,0.33-0.479c0-0.137-0.049-0.25-0.15-0.342
			c-0.1-0.091-0.229-0.171-0.385-0.239c-0.158-0.068-0.33-0.13-0.518-0.185c-0.186-0.055-0.367-0.116-0.539-0.185
			c-0.279-0.105-0.523-0.218-0.734-0.338c-0.213-0.121-0.391-0.261-0.533-0.42c-0.145-0.16-0.254-0.344-0.328-0.554
			c-0.076-0.209-0.113-0.458-0.113-0.745c0-0.392,0.086-0.729,0.256-1.012c0.172-0.283,0.398-0.514,0.684-0.694
			s0.611-0.312,0.979-0.396c0.365-0.084,0.748-0.126,1.145-0.126c0.309,0,0.623,0.024,0.943,0.072
			c0.318,0.048,0.633,0.117,0.943,0.208v1.668c-0.273-0.16-0.566-0.279-0.879-0.359s-0.619-0.12-0.92-0.12
			c-0.141,0-0.273,0.013-0.398,0.038c-0.127,0.025-0.236,0.062-0.332,0.109s-0.172,0.109-0.227,0.185s-0.082,0.161-0.082,0.256
			c0,0.127,0.041,0.237,0.123,0.328s0.189,0.17,0.322,0.236c0.131,0.066,0.279,0.125,0.441,0.178c0.16,0.052,0.322,0.106,0.48,0.161
			c0.287,0.1,0.547,0.209,0.779,0.328s0.432,0.257,0.6,0.417c0.166,0.16,0.293,0.346,0.383,0.561
			c0.088,0.214,0.133,0.469,0.133,0.766c0,0.415-0.09,0.769-0.27,1.063c-0.182,0.294-0.42,0.533-0.719,0.718
			s-0.643,0.319-1.031,0.403c-0.391,0.084-0.795,0.126-1.215,0.126C491.072,151.488,490.359,151.37,489.703,151.133z"/>
		<path fill="#2F2F2F" d="M500.51,151.236c-0.32,0.168-0.801,0.253-1.443,0.253c-1.521,0-2.283-0.791-2.283-2.372v-3.206h-1.135
			v-1.593h1.135v-1.511l2.154-0.615v2.126h1.572v1.593h-1.572v2.83c0,0.729,0.289,1.094,0.867,1.094
			c0.229,0,0.463-0.066,0.705-0.198V151.236z"/>
		<path fill="#2F2F2F" d="M507.691,151.318h-2.045v-1.005h-0.027c-0.469,0.784-1.164,1.176-2.084,1.176
			c-0.68,0-1.215-0.192-1.604-0.578c-0.391-0.385-0.584-0.899-0.584-1.542c0-1.358,0.805-2.142,2.412-2.352l1.9-0.253
			c0-0.766-0.414-1.148-1.244-1.148c-0.834,0-1.627,0.249-2.379,0.745v-1.627c0.301-0.155,0.713-0.292,1.234-0.41
			s0.996-0.178,1.426-0.178c1.996,0,2.994,0.996,2.994,2.987V151.318z M505.66,148.474v-0.472l-1.271,0.164
			c-0.701,0.091-1.053,0.408-1.053,0.95c0,0.246,0.086,0.448,0.256,0.605c0.172,0.157,0.402,0.236,0.695,0.236
			c0.404,0,0.736-0.14,0.99-0.42C505.533,149.257,505.66,148.902,505.66,148.474z"/>
		<path fill="#2F2F2F" d="M516.148,151.318h-2.154v-3.89c0-1.084-0.387-1.627-1.162-1.627c-0.373,0-0.682,0.144-0.922,0.431
			c-0.242,0.287-0.363,0.652-0.363,1.094v3.992h-2.16v-7h2.16v1.107h0.027c0.516-0.852,1.266-1.278,2.25-1.278
			c1.549,0,2.324,0.961,2.324,2.885V151.318z"/>
		<path fill="#2F2F2F" d="M523.162,151.065c-0.488,0.283-1.191,0.424-2.113,0.424c-1.074,0-1.945-0.326-2.611-0.978
			c-0.664-0.652-0.998-1.493-0.998-2.522c0-1.189,0.357-2.127,1.07-2.813s1.666-1.029,2.861-1.029c0.824,0,1.422,0.109,1.791,0.328
			v1.832c-0.451-0.337-0.955-0.506-1.512-0.506c-0.619,0-1.111,0.181-1.473,0.543c-0.363,0.362-0.543,0.862-0.543,1.5
			c0,0.62,0.172,1.106,0.52,1.459c0.346,0.353,0.822,0.53,1.428,0.53c0.539,0,1.064-0.168,1.58-0.506V151.065z"/>
		<path fill="#2F2F2F" d="M530.877,148.433h-4.566c0.072,1.016,0.713,1.524,1.92,1.524c0.771,0,1.447-0.182,2.031-0.547v1.559
			c-0.648,0.346-1.488,0.52-2.523,0.52c-1.129,0-2.008-0.313-2.631-0.94c-0.625-0.626-0.938-1.5-0.938-2.622
			c0-1.162,0.338-2.083,1.012-2.762c0.676-0.679,1.504-1.019,2.488-1.019c1.021,0,1.811,0.303,2.369,0.909s0.838,1.429,0.838,2.468
			V148.433z M528.873,147.107c0-1.002-0.404-1.504-1.217-1.504c-0.346,0-0.646,0.144-0.898,0.431
			c-0.254,0.287-0.406,0.645-0.461,1.073H528.873z"/>
	</g>
	<g>
		<path fill="#1E1E1E" d="M410.839,40.085h-2.406l-0.697-2.181h-3.486l-0.69,2.181h-2.393l3.568-9.803h2.618L410.839,40.085z
			 M407.229,36.209l-1.053-3.295c-0.078-0.246-0.133-0.54-0.164-0.882h-0.055c-0.023,0.287-0.08,0.572-0.171,0.854l-1.066,3.322
			H407.229z"/>
		<path fill="#1E1E1E" d="M417.744,40.085h-6.282v-0.896l3.514-4.512h-3.165v-1.593h5.906v1.066l-3.329,4.341h3.356V40.085z"/>
		<path fill="#1E1E1E" d="M425.626,40.085h-2.153v-1.066h-0.034c-0.533,0.825-1.246,1.237-2.14,1.237
			c-1.622,0-2.434-0.982-2.434-2.946v-4.225h2.153v4.033c0,0.989,0.393,1.483,1.176,1.483c0.388,0,0.697-0.136,0.93-0.407
			c0.232-0.271,0.349-0.639,0.349-1.104v-4.006h2.153V40.085z"/>
		<path fill="#1E1E1E" d="M431.961,35.033c-0.26-0.142-0.563-0.212-0.909-0.212c-0.47,0-0.837,0.172-1.101,0.516
			c-0.265,0.345-0.396,0.812-0.396,1.405v3.343h-2.16v-7h2.16v1.299h0.027c0.342-0.948,0.957-1.422,1.846-1.422
			c0.228,0,0.405,0.027,0.533,0.082V35.033z"/>
		<path fill="#1E1E1E" d="M439.333,37.2h-4.566c0.073,1.017,0.714,1.524,1.921,1.524c0.771,0,1.447-0.183,2.03-0.547v1.559
			c-0.646,0.347-1.487,0.52-2.522,0.52c-1.13,0-2.007-0.313-2.632-0.94c-0.624-0.626-0.937-1.5-0.937-2.621
			c0-1.162,0.338-2.083,1.012-2.762c0.675-0.679,1.504-1.019,2.488-1.019c1.021,0,1.811,0.303,2.369,0.909
			c0.558,0.606,0.837,1.429,0.837,2.468V37.2z M437.33,35.874c0-1.003-0.405-1.504-1.217-1.504c-0.346,0-0.646,0.144-0.898,0.431
			s-0.407,0.645-0.462,1.073H437.33z"/>
		<path fill="#1E1E1E" d="M451.72,39.736c-0.715,0.347-1.649,0.52-2.803,0.52c-1.504,0-2.687-0.442-3.548-1.326
			s-1.292-2.062-1.292-3.534c0-1.567,0.484-2.839,1.453-3.814c0.968-0.976,2.225-1.463,3.77-1.463c0.957,0,1.764,0.121,2.42,0.362
			v2.126c-0.656-0.392-1.403-0.588-2.242-0.588c-0.92,0-1.663,0.289-2.229,0.868c-0.564,0.579-0.848,1.362-0.848,2.352
			c0,0.948,0.267,1.703,0.8,2.267c0.533,0.562,1.251,0.844,2.153,0.844c0.861,0,1.65-0.21,2.365-0.629V39.736z"/>
		<path fill="#1E1E1E" d="M455.331,40.085h-2.16V29.721h2.16V40.085z"/>
		<path fill="#1E1E1E" d="M460.474,40.256c-1.166,0-2.084-0.327-2.751-0.981c-0.668-0.653-1.002-1.541-1.002-2.662
			c0-1.157,0.347-2.063,1.039-2.717c0.693-0.654,1.63-0.981,2.81-0.981c1.162,0,2.074,0.327,2.734,0.981
			c0.661,0.653,0.991,1.519,0.991,2.594c0,1.162-0.341,2.08-1.021,2.755C462.592,39.919,461.659,40.256,460.474,40.256z
			 M460.528,34.568c-0.51,0-0.906,0.176-1.189,0.526c-0.282,0.351-0.424,0.848-0.424,1.49c0,1.345,0.543,2.017,1.627,2.017
			c1.035,0,1.552-0.69,1.552-2.071C462.094,35.222,461.572,34.568,460.528,34.568z"/>
		<path fill="#1E1E1E" d="M472.328,40.085h-2.153v-1.066h-0.034c-0.533,0.825-1.246,1.237-2.14,1.237
			c-1.622,0-2.434-0.982-2.434-2.946v-4.225h2.153v4.033c0,0.989,0.393,1.483,1.176,1.483c0.388,0,0.697-0.136,0.93-0.407
			c0.232-0.271,0.349-0.639,0.349-1.104v-4.006h2.153V40.085z"/>
		<path fill="#1E1E1E" d="M481.013,40.085h-2.16v-0.964h-0.027c-0.492,0.757-1.214,1.135-2.167,1.135
			c-0.875,0-1.579-0.309-2.112-0.927c-0.533-0.617-0.8-1.479-0.8-2.587c0-1.157,0.294-2.085,0.882-2.782s1.358-1.046,2.311-1.046
			c0.902,0,1.531,0.323,1.887,0.971h0.027v-4.163h2.16V40.085z M478.894,36.68v-0.526c0-0.456-0.132-0.834-0.396-1.135
			c-0.264-0.301-0.608-0.451-1.032-0.451c-0.479,0-0.852,0.188-1.121,0.563c-0.269,0.377-0.403,0.893-0.403,1.549
			c0,0.615,0.13,1.089,0.39,1.422s0.62,0.499,1.08,0.499c0.438,0,0.794-0.176,1.07-0.526
			C478.756,37.724,478.894,37.259,478.894,36.68z"/>
	</g>
	<g>
		<g>
			<path fill="#2F2F2F" d="M665.076,147.175v3.705h-1.148v-9.803h2.693c1.048,0,1.86,0.255,2.438,0.766
				c0.576,0.51,0.864,1.23,0.864,2.16s-0.32,1.691-0.96,2.283c-0.641,0.592-1.506,0.889-2.595,0.889H665.076z M665.076,142.116v4.02
				h1.203c0.793,0,1.398-0.181,1.814-0.543c0.418-0.362,0.626-0.874,0.626-1.535c0-1.294-0.766-1.941-2.297-1.941H665.076z"/>
			<path fill="#2F2F2F" d="M671.476,150.88v-9.803h2.789c0.848,0,1.52,0.208,2.017,0.622s0.745,0.955,0.745,1.62
				c0,0.556-0.15,1.039-0.451,1.449s-0.716,0.702-1.244,0.875v0.027c0.661,0.078,1.189,0.327,1.586,0.749s0.595,0.97,0.595,1.644
				c0,0.838-0.301,1.518-0.902,2.037s-1.36,0.779-2.276,0.779H671.476z M672.624,142.116v3.165h1.176
				c0.629,0,1.123-0.151,1.483-0.455s0.54-0.73,0.54-1.282c0-0.953-0.627-1.429-1.88-1.429H672.624z M672.624,146.314v3.527h1.559
				c0.675,0,1.197-0.16,1.568-0.479c0.372-0.319,0.558-0.756,0.558-1.312c0-1.158-0.788-1.736-2.365-1.736H672.624z"/>
			<path fill="#2F2F2F" d="M680.556,150.88h-1.148v-9.803h1.148V150.88z"/>
			<path fill="#2F2F2F" d="M691.828,150.88h-1.121v-1.094h-0.027c-0.487,0.838-1.205,1.258-2.153,1.258
				c-0.697,0-1.243-0.185-1.637-0.554c-0.395-0.369-0.592-0.859-0.592-1.47c0-1.308,0.771-2.069,2.311-2.283l2.099-0.294
				c0-1.189-0.48-1.784-1.442-1.784c-0.843,0-1.604,0.287-2.283,0.861v-1.148c0.688-0.438,1.481-0.656,2.379-0.656
				c1.646,0,2.468,0.871,2.468,2.611V150.88z M690.707,147.339l-1.688,0.232c-0.52,0.073-0.911,0.202-1.176,0.386
				s-0.396,0.512-0.396,0.981c0,0.342,0.122,0.621,0.365,0.837c0.244,0.216,0.569,0.325,0.975,0.325
				c0.556,0,1.016-0.195,1.377-0.584c0.363-0.39,0.544-0.883,0.544-1.48V147.339z"/>
			<path fill="#2F2F2F" d="M699.66,150.88h-1.121v-3.992c0-1.486-0.542-2.229-1.627-2.229c-0.561,0-1.024,0.211-1.391,0.632
				c-0.367,0.421-0.551,0.954-0.551,1.596v3.992h-1.121v-7h1.121v1.162h0.027c0.528-0.884,1.294-1.326,2.297-1.326
				c0.766,0,1.352,0.247,1.757,0.742s0.608,1.209,0.608,2.143V150.88z"/>
			<path fill="#2F2F2F" d="M706.692,150.88h-1.121v-1.094h-0.027c-0.487,0.838-1.205,1.258-2.153,1.258
				c-0.697,0-1.243-0.185-1.637-0.554c-0.395-0.369-0.592-0.859-0.592-1.47c0-1.308,0.771-2.069,2.311-2.283l2.099-0.294
				c0-1.189-0.48-1.784-1.442-1.784c-0.843,0-1.604,0.287-2.283,0.861v-1.148c0.688-0.438,1.481-0.656,2.379-0.656
				c1.646,0,2.468,0.871,2.468,2.611V150.88z M705.571,147.339l-1.688,0.232c-0.52,0.073-0.911,0.202-1.176,0.386
				s-0.396,0.512-0.396,0.981c0,0.342,0.122,0.621,0.365,0.837c0.244,0.216,0.569,0.325,0.975,0.325
				c0.556,0,1.016-0.195,1.377-0.584c0.363-0.39,0.544-0.883,0.544-1.48V147.339z"/>
			<path fill="#2F2F2F" d="M709.835,150.88h-1.121v-10.363h1.121V150.88z"/>
			<path fill="#2F2F2F" d="M717.705,143.88l-3.22,8.121c-0.574,1.449-1.381,2.174-2.42,2.174c-0.292,0-0.535-0.03-0.731-0.089
				v-1.005c0.241,0.082,0.463,0.123,0.663,0.123c0.565,0,0.989-0.337,1.271-1.012l0.561-1.326l-2.734-6.986h1.244l1.894,5.387
				c0.022,0.068,0.07,0.246,0.144,0.533h0.041c0.022-0.109,0.068-0.283,0.137-0.52l1.989-5.4H717.705z"/>
			<path fill="#2F2F2F" d="M722.623,150.812c-0.265,0.146-0.613,0.219-1.046,0.219c-1.226,0-1.839-0.684-1.839-2.051v-4.143h-1.203
				v-0.957h1.203v-1.709l1.121-0.362v2.071h1.764v0.957h-1.764v3.944c0,0.469,0.08,0.804,0.239,1.005s0.424,0.301,0.793,0.301
				c0.282,0,0.526-0.078,0.731-0.232V150.812z"/>
			<path fill="#2F2F2F" d="M724.578,142.103c-0.2,0-0.371-0.068-0.513-0.205s-0.212-0.31-0.212-0.52s0.07-0.384,0.212-0.523
				s0.312-0.208,0.513-0.208c0.205,0,0.379,0.069,0.523,0.208c0.143,0.139,0.215,0.313,0.215,0.523c0,0.201-0.072,0.372-0.215,0.513
				C724.957,142.032,724.783,142.103,724.578,142.103z M725.125,150.88h-1.121v-7h1.121V150.88z"/>
			<path fill="#2F2F2F" d="M732.037,150.559c-0.538,0.324-1.176,0.485-1.914,0.485c-0.998,0-1.804-0.325-2.416-0.974
				c-0.613-0.649-0.92-1.491-0.92-2.526c0-1.153,0.33-2.079,0.991-2.779s1.543-1.049,2.646-1.049c0.615,0,1.157,0.114,1.627,0.342
				v1.148c-0.52-0.365-1.075-0.547-1.668-0.547c-0.716,0-1.303,0.256-1.76,0.769c-0.459,0.513-0.688,1.186-0.688,2.02
				c0,0.82,0.215,1.467,0.646,1.941c0.43,0.474,1.008,0.711,1.732,0.711c0.61,0,1.185-0.203,1.723-0.608V150.559z"/>
			<path fill="#2F2F2F" d="M733.309,150.627v-1.203c0.61,0.451,1.283,0.677,2.017,0.677c0.984,0,1.477-0.328,1.477-0.984
				c0-0.187-0.042-0.345-0.126-0.475c-0.085-0.13-0.199-0.245-0.342-0.345c-0.145-0.1-0.312-0.19-0.506-0.27
				c-0.194-0.08-0.402-0.163-0.626-0.25c-0.31-0.123-0.582-0.247-0.817-0.373c-0.234-0.125-0.43-0.267-0.588-0.424
				c-0.156-0.157-0.275-0.336-0.355-0.537c-0.079-0.201-0.119-0.435-0.119-0.704c0-0.328,0.075-0.619,0.226-0.872
				s0.351-0.465,0.602-0.636s0.536-0.3,0.858-0.386c0.32-0.086,0.652-0.13,0.994-0.13c0.606,0,1.148,0.105,1.627,0.314v1.135
				c-0.515-0.337-1.107-0.506-1.777-0.506c-0.21,0-0.398,0.024-0.567,0.072s-0.313,0.115-0.435,0.202
				c-0.12,0.086-0.214,0.19-0.279,0.311c-0.066,0.121-0.1,0.254-0.1,0.4c0,0.182,0.033,0.335,0.1,0.458
				c0.065,0.123,0.162,0.232,0.29,0.328s0.282,0.182,0.465,0.26s0.39,0.162,0.622,0.253c0.31,0.119,0.588,0.24,0.834,0.366
				s0.456,0.267,0.629,0.424s0.307,0.338,0.4,0.543c0.093,0.205,0.14,0.449,0.14,0.731c0,0.346-0.076,0.647-0.229,0.902
				c-0.152,0.255-0.356,0.467-0.611,0.636s-0.549,0.294-0.882,0.376s-0.682,0.123-1.046,0.123
				C734.462,151.044,733.837,150.905,733.309,150.627z"/>
		</g>
	</g>
</g>
<g id="Layer_1">
</g>
</svg>
