<svg id="Shapes" xmlns="http://www.w3.org/2000/svg" viewBox="0 0 0 0">
  <title>Name as file</title>
  <path d="M9.5,0A9.18,9.18,0,0,1,12,.34a9.55,9.55,0,0,1,2.28,1A9.71,9.71,0,0,1,17.71,4.7,9.55,9.55,0,0,1,18.66,7a9.51,9.51,0,0,1,0,5,9.55,9.55,0,0,1-.95,2.28,9.71,9.71,0,0,1-3.41,3.41,9.55,9.55,0,0,1-2.28.95,9.51,9.51,0,0,1-5,0,9.55,9.55,0,0,1-2.28-.95A9.71,9.71,0,0,1,1.29,14.3,9.65,9.65,0,0,1,.34,12,9.2,9.2,0,0,1,0,9.5,9.18,9.18,0,0,1,.34,7a9.55,9.55,0,0,1,1-2.28A9.71,9.71,0,0,1,4.7,1.29,9.65,9.65,0,0,1,7,.34,9.2,9.2,0,0,1,9.5,0Zm0,17.81a8.4,8.4,0,0,0,2.2-.29,8.5,8.5,0,0,0,5-3.83,8.67,8.67,0,0,0,.84-2,8.3,8.3,0,0,0-.84-6.4,8.34,8.34,0,0,0-5-3.83,8.49,8.49,0,0,0-4.4,0,8.5,8.5,0,0,0-5,3.83,8.56,8.56,0,0,0-.84,2,8.49,8.49,0,0,0,0,4.4,8.5,8.5,0,0,0,3.83,5,8.67,8.67,0,0,0,2,.84A8.48,8.48,0,0,0,9.5,17.81Z" fill="#757575"/>
  <path d="M15,8.76,9.5,14.15,4,8.76l.9-.89,4,4.15V3.14h1.12V12l4-4.15Zm-9.55,7V14.61h8.1v1.12Z" fill="#757575"/>
</svg>
